# Blender v2.91.2 OBJ File: ''
# www.blender.org
mtllib arbre.mtl
o Cube
v 0.336487 1.000000 -0.336487
v 1.000000 -1.000000 -1.000000
v 0.336487 1.000000 0.336487
v 1.000000 -1.000000 1.000000
v -0.336487 1.000000 -0.336487
v -1.000000 -1.000000 -1.000000
v -0.336487 1.000000 0.336487
v -1.000000 -1.000000 1.000000
v 0.197710 5.707582 0.197710
v -0.197710 5.707582 0.197710
v 0.197710 5.707582 -0.197710
v -0.197710 5.707582 -0.197710
v 0.104031 6.938301 0.104031
v -0.104031 6.938301 0.104031
v 0.104031 6.938301 -0.104031
v -0.104031 6.938301 -0.104031
v -0.240791 4.246175 -0.240791
v 0.240791 4.246175 -0.240791
v 0.240791 4.246175 0.240791
v -0.240791 4.246175 0.240791
v -0.229508 4.628933 -0.229508
v 0.229508 4.628933 0.229508
v 0.229508 4.628933 -0.229508
v -0.229508 4.628933 0.229508
v -0.519490 5.467443 -1.787904
v -0.511870 5.208965 -1.795524
v -0.837085 5.208965 -1.795524
v -0.829465 5.467443 -1.787904
v -0.803267 5.943818 -3.106549
v -0.795647 5.685340 -3.114168
v -1.120861 5.685340 -3.114168
v -1.113242 5.943818 -3.106549
v -0.177166 5.977477 -0.177166
v 0.177166 5.977477 -0.177166
v 0.177166 5.977477 0.177166
v -0.177166 5.977477 0.177166
v 0.016800 6.005169 0.827664
v -0.378619 6.005169 0.827664
v -0.003744 6.275064 0.807120
v -0.358076 6.275064 0.807120
v -0.360780 6.622576 2.288721
v -0.641643 6.622576 2.288721
v -0.375372 6.814280 2.274129
v -0.627051 6.814280 2.274129
vn 0.0000 0.0295 -0.9996
vn 0.0000 0.3149 0.9491
vn -0.9491 0.3149 0.0000
vn 0.0000 -1.0000 0.0000
vn 0.9491 0.3149 0.0000
vn 0.0000 0.3149 -0.9491
vn 0.0000 0.0759 -0.9971
vn 0.0000 0.0295 0.9996
vn -0.9996 0.0295 0.0000
vn 0.9996 0.0295 0.0000
vn 0.0000 1.0000 0.0000
vn 0.9971 0.0759 0.0000
vn -0.9971 0.0759 0.0000
vn 0.0000 0.0759 0.9971
vn 0.0000 0.8806 0.4738
vn -0.9757 0.0223 0.2180
vn 0.0000 -0.8502 -0.5265
vn 0.9087 0.0390 -0.4157
vn -0.9301 0.0166 0.3670
vn 0.9795 0.0347 -0.1983
vn 0.0000 0.9405 0.3398
vn 0.0000 -0.9405 -0.3398
vn -0.9534 0.0499 -0.2974
vn -0.9778 0.0591 -0.2010
vn 0.9678 0.0915 0.2347
vn 0.0000 0.9042 -0.4271
vn 0.0000 -0.9042 0.4271
vn 0.0000 -0.9211 0.3892
vn 0.0000 0.9386 -0.3450
vn 0.9728 0.0903 0.2133
usemtl Material
s off
f 23//1 21//1 12//1 11//1
f 4//2 3//2 7//2 8//2
f 8//3 7//3 5//3 6//3
f 6//4 2//4 4//4 8//4
f 2//5 1//5 3//5 4//5
f 6//6 5//6 1//6 2//6
f 34//7 33//7 16//7 15//7
f 24//8 22//8 9//8 10//8
f 21//9 24//9 10//9 12//9
f 22//10 23//10 11//10 9//10
f 15//11 16//11 14//11 13//11
f 35//12 34//12 15//12 13//12
f 33//13 36//13 14//13 16//13
f 36//14 35//14 13//14 14//14
f 3//10 1//10 18//10 19//10
f 5//9 7//9 20//9 17//9
f 7//8 3//8 19//8 20//8
f 1//1 5//1 17//1 18//1
f 19//10 18//10 23//10 22//10
f 17//9 20//9 24//9 21//9
f 20//8 19//8 22//8 24//8
f 21//15 23//15 25//15 28//15
f 27//16 28//16 32//16 31//16
f 18//17 17//17 27//17 26//17
f 23//18 18//18 26//18 25//18
f 17//19 21//19 28//19 27//19
f 30//1 31//1 32//1 29//1
f 25//20 26//20 30//20 29//20
f 28//21 25//21 29//21 32//21
f 26//22 27//22 31//22 30//22
f 36//23 10//23 38//23 40//23
f 12//13 10//13 36//13 33//13
f 9//12 11//12 34//12 35//12
f 11//7 12//7 33//7 34//7
f 40//24 38//24 42//24 44//24
f 9//25 35//25 39//25 37//25
f 35//26 36//26 40//26 39//26
f 10//27 9//27 37//27 38//27
f 42//14 41//14 43//14 44//14
f 38//28 37//28 41//28 42//28
f 39//29 40//29 44//29 43//29
f 37//30 39//30 43//30 41//30
o Icosphère
v -0.976488 3.994497 -2.461601
v -0.252880 4.547277 -1.935876
v -1.252876 4.547277 -1.610952
v -1.870914 4.547281 -2.461601
v -1.252876 4.547277 -3.312251
v -0.252880 4.547277 -2.987327
v -0.700099 5.441717 -1.610952
v -1.700095 5.441716 -1.935876
v -1.700095 5.441716 -2.987327
v -0.700099 5.441717 -3.312251
v -0.082061 5.441712 -2.461601
v -0.976488 5.994497 -2.461601
v -1.138943 4.143842 -1.961606
v -0.551165 4.143843 -2.152590
v -0.713619 4.468759 -1.652590
v -0.125840 4.468761 -2.461601
v -0.551165 4.143843 -2.770613
v -1.502217 4.143845 -2.461601
v -1.664677 4.468760 -1.961604
v -1.138943 4.143842 -2.961596
v -1.664677 4.468760 -2.961598
v -0.713619 4.468759 -3.270613
v -0.025430 4.994497 -2.152589
v -0.025430 4.994497 -2.770614
v -0.976488 4.994497 -1.461601
v -0.388702 4.994497 -1.652585
v -1.927545 4.994497 -2.152589
v -1.564273 4.994497 -1.652585
v -1.564273 4.994497 -3.270618
v -1.927545 4.994497 -2.770614
v -0.388702 4.994497 -3.270618
v -0.976488 4.994497 -3.461601
v -0.288298 5.520233 -1.961604
v -1.239356 5.520235 -1.652590
v -1.827135 5.520233 -2.461601
v -1.239356 5.520235 -3.270613
v -0.288298 5.520233 -2.961598
v -0.814032 5.845151 -1.961606
v -0.450758 5.845149 -2.461601
v -1.401810 5.845151 -2.152590
v -1.401810 5.845151 -2.770613
v -0.814032 5.845151 -2.961596
vn 0.1024 -0.9435 0.3151
vn 0.7002 -0.6617 0.2680
vn -0.2680 -0.9435 0.1947
vn -0.2680 -0.9435 -0.1947
vn 0.1024 -0.9435 -0.3151
vn 0.9050 -0.3304 0.2680
vn 0.0247 -0.3304 0.9435
vn -0.8897 -0.3304 0.3151
vn -0.5746 -0.3304 -0.7488
vn 0.5346 -0.3304 -0.7779
vn 0.8026 -0.1256 0.5831
vn -0.3066 -0.1256 0.9435
vn -0.9921 -0.1256 0.0000
vn -0.3066 -0.1256 -0.9435
vn 0.8026 -0.1256 -0.5831
vn 0.4089 0.6617 0.6284
vn -0.4713 0.6617 0.5831
vn -0.7002 0.6617 -0.2680
vn 0.0385 0.6617 -0.7488
vn 0.7240 0.6617 -0.1947
vn 0.2680 0.9435 -0.1947
vn 0.4911 0.7947 -0.3568
vn 0.4089 0.6617 -0.6284
vn -0.1024 0.9435 -0.3151
vn -0.1876 0.7947 -0.5773
vn -0.4713 0.6617 -0.5831
vn -0.3313 0.9435 0.0000
vn -0.6071 0.7947 0.0000
vn -0.7002 0.6617 0.2680
vn -0.1024 0.9435 0.3151
vn -0.1876 0.7947 0.5773
vn 0.0385 0.6617 0.7488
vn 0.2680 0.9435 0.1947
vn 0.4911 0.7947 0.3568
vn 0.7240 0.6617 0.1947
vn 0.8897 0.3304 -0.3151
vn 0.7947 0.1876 -0.5773
vn 0.5746 0.3304 -0.7488
vn -0.0247 0.3304 -0.9435
vn -0.3035 0.1876 -0.9342
vn -0.5346 0.3304 -0.7779
vn -0.9050 0.3304 -0.2680
vn -0.9822 0.1876 0.0000
vn -0.9050 0.3304 0.2680
vn -0.5346 0.3304 0.7779
vn -0.3035 0.1876 0.9342
vn -0.0247 0.3304 0.9435
vn 0.5746 0.3304 0.7488
vn 0.7947 0.1876 0.5773
vn 0.8897 0.3304 0.3151
vn 0.3066 0.1256 -0.9435
vn 0.3035 -0.1876 -0.9342
vn 0.0247 -0.3304 -0.9435
vn -0.8026 0.1256 -0.5831
vn -0.7947 -0.1876 -0.5773
vn -0.8897 -0.3304 -0.3151
vn -0.8026 0.1256 0.5831
vn -0.7947 -0.1876 0.5773
vn -0.5746 -0.3304 0.7488
vn 0.3066 0.1256 0.9435
vn 0.3035 -0.1876 0.9342
vn 0.5346 -0.3304 0.7779
vn 0.9921 0.1256 0.0000
vn 0.9822 -0.1876 0.0000
vn 0.9050 -0.3304 -0.2680
vn 0.4713 -0.6617 -0.5831
vn 0.1876 -0.7947 -0.5773
vn -0.0385 -0.6617 -0.7488
vn -0.4089 -0.6617 -0.6284
vn -0.4911 -0.7947 -0.3568
vn -0.7240 -0.6617 -0.1947
vn -0.7240 -0.6617 0.1947
vn -0.4911 -0.7947 0.3568
vn -0.4089 -0.6617 0.6284
vn 0.7002 -0.6617 -0.2680
vn 0.6071 -0.7947 0.0000
vn 0.3313 -0.9435 0.0000
vn -0.0385 -0.6617 0.7488
vn 0.1876 -0.7947 0.5773
vn 0.4713 -0.6617 0.5831
usemtl Matériau.001
s off
f 45//31 58//31 57//31
f 46//32 58//32 60//32
f 45//33 57//33 62//33
f 45//34 62//34 64//34
f 45//35 64//35 61//35
f 46//36 60//36 67//36
f 47//37 59//37 69//37
f 48//38 63//38 71//38
f 49//39 65//39 73//39
f 50//40 66//40 75//40
f 46//41 67//41 70//41
f 47//42 69//42 72//42
f 48//43 71//43 74//43
f 49//44 73//44 76//44
f 50//45 75//45 68//45
f 51//46 77//46 82//46
f 52//47 78//47 84//47
f 53//48 79//48 85//48
f 54//49 80//49 86//49
f 55//50 81//50 83//50
f 83//51 86//51 56//51
f 83//52 81//52 86//52
f 81//53 54//53 86//53
f 86//54 85//54 56//54
f 86//55 80//55 85//55
f 80//56 53//56 85//56
f 85//57 84//57 56//57
f 85//58 79//58 84//58
f 79//59 52//59 84//59
f 84//60 82//60 56//60
f 84//61 78//61 82//61
f 78//62 51//62 82//62
f 82//63 83//63 56//63
f 82//64 77//64 83//64
f 77//65 55//65 83//65
f 68//66 81//66 55//66
f 68//67 75//67 81//67
f 75//68 54//68 81//68
f 76//69 80//69 54//69
f 76//70 73//70 80//70
f 73//71 53//71 80//71
f 74//72 79//72 53//72
f 74//73 71//73 79//73
f 71//74 52//74 79//74
f 72//75 78//75 52//75
f 72//76 69//76 78//76
f 69//77 51//77 78//77
f 70//78 77//78 51//78
f 70//79 67//79 77//79
f 67//80 55//80 77//80
f 75//81 76//81 54//81
f 75//82 66//82 76//82
f 66//83 49//83 76//83
f 73//84 74//84 53//84
f 73//85 65//85 74//85
f 65//86 48//86 74//86
f 71//87 72//87 52//87
f 71//88 63//88 72//88
f 63//89 47//89 72//89
f 69//90 70//90 51//90
f 69//91 59//91 70//91
f 59//92 46//92 70//92
f 67//93 68//93 55//93
f 67//94 60//94 68//94
f 60//95 50//95 68//95
f 61//96 66//96 50//96
f 61//97 64//97 66//97
f 64//98 49//98 66//98
f 64//99 65//99 49//99
f 64//100 62//100 65//100
f 62//101 48//101 65//101
f 62//102 63//102 48//102
f 62//103 57//103 63//103
f 57//104 47//104 63//104
f 60//105 61//105 50//105
f 60//106 58//106 61//106
f 58//107 45//107 61//107
f 57//108 59//108 47//108
f 57//109 58//109 59//109
f 58//110 46//110 59//110
o Icosphère.001
v -0.388218 5.445363 2.587207
v 0.335390 5.998143 3.112933
v -0.664606 5.998143 3.437857
v -1.282644 5.998147 2.587207
v -0.664606 5.998143 1.736558
v 0.335390 5.998143 2.061482
v -0.111830 6.892582 3.437857
v -1.111825 6.892582 3.112933
v -1.111825 6.892582 2.061482
v -0.111830 6.892582 1.736558
v 0.506209 6.892578 2.587207
v -0.388218 7.445363 2.587207
v -0.550673 5.594708 3.087203
v 0.037105 5.594708 2.896219
v -0.125349 5.919625 3.396219
v 0.462430 5.919627 2.587207
v 0.037105 5.594708 2.278196
v -0.913947 5.594711 2.587207
v -1.076407 5.919626 3.087204
v -0.550673 5.594708 2.087212
v -1.076407 5.919626 2.087210
v -0.125349 5.919625 1.778196
v 0.562840 6.445363 2.896220
v 0.562840 6.445363 2.278195
v -0.388218 6.445363 3.587207
v 0.199568 6.445363 3.396224
v -1.339275 6.445363 2.896220
v -0.976003 6.445363 3.396224
v -0.976003 6.445363 1.778191
v -1.339275 6.445363 2.278195
v 0.199568 6.445363 1.778191
v -0.388218 6.445363 1.587207
v 0.299972 6.971099 3.087204
v -0.651086 6.971100 3.396219
v -1.238865 6.971098 2.587207
v -0.651086 6.971100 1.778196
v 0.299972 6.971099 2.087210
v -0.225762 7.296017 3.087203
v 0.137512 7.296014 2.587207
v -0.813540 7.296017 2.896219
v -0.813540 7.296017 2.278196
v -0.225762 7.296017 2.087212
vn 0.1024 -0.9435 0.3151
vn 0.7002 -0.6617 0.2680
vn -0.2680 -0.9435 0.1947
vn -0.2680 -0.9435 -0.1947
vn 0.1024 -0.9435 -0.3151
vn 0.9050 -0.3304 0.2680
vn 0.0247 -0.3304 0.9435
vn -0.8897 -0.3304 0.3151
vn -0.5746 -0.3304 -0.7488
vn 0.5346 -0.3304 -0.7779
vn 0.8026 -0.1256 0.5831
vn -0.3066 -0.1256 0.9435
vn -0.9921 -0.1256 0.0000
vn -0.3066 -0.1256 -0.9435
vn 0.8026 -0.1256 -0.5831
vn 0.4089 0.6617 0.6284
vn -0.4713 0.6617 0.5831
vn -0.7002 0.6617 -0.2680
vn 0.0385 0.6617 -0.7488
vn 0.7240 0.6617 -0.1947
vn 0.2680 0.9435 -0.1947
vn 0.4911 0.7947 -0.3568
vn 0.4089 0.6617 -0.6284
vn -0.1024 0.9435 -0.3151
vn -0.1876 0.7947 -0.5773
vn -0.4713 0.6617 -0.5831
vn -0.3313 0.9435 0.0000
vn -0.6071 0.7947 0.0000
vn -0.7002 0.6617 0.2680
vn -0.1024 0.9435 0.3151
vn -0.1876 0.7947 0.5773
vn 0.0385 0.6617 0.7488
vn 0.2680 0.9435 0.1947
vn 0.4911 0.7947 0.3568
vn 0.7240 0.6617 0.1947
vn 0.8897 0.3304 -0.3151
vn 0.7947 0.1876 -0.5773
vn 0.5746 0.3304 -0.7488
vn -0.0247 0.3304 -0.9435
vn -0.3035 0.1876 -0.9342
vn -0.5346 0.3304 -0.7779
vn -0.9050 0.3304 -0.2680
vn -0.9822 0.1876 0.0000
vn -0.9050 0.3304 0.2680
vn -0.5346 0.3304 0.7779
vn -0.3035 0.1876 0.9342
vn -0.0247 0.3304 0.9435
vn 0.5746 0.3304 0.7488
vn 0.7947 0.1876 0.5773
vn 0.8897 0.3304 0.3151
vn 0.3066 0.1256 -0.9435
vn 0.3035 -0.1876 -0.9342
vn 0.0247 -0.3304 -0.9435
vn -0.8026 0.1256 -0.5831
vn -0.7947 -0.1876 -0.5773
vn -0.8897 -0.3304 -0.3151
vn -0.8026 0.1256 0.5831
vn -0.7947 -0.1876 0.5773
vn -0.5746 -0.3304 0.7488
vn 0.3066 0.1256 0.9435
vn 0.3035 -0.1876 0.9342
vn 0.5346 -0.3304 0.7779
vn 0.9921 0.1256 0.0000
vn 0.9822 -0.1876 0.0000
vn 0.9050 -0.3304 -0.2680
vn 0.4713 -0.6617 -0.5831
vn 0.1876 -0.7947 -0.5773
vn -0.0385 -0.6617 -0.7488
vn -0.4089 -0.6617 -0.6284
vn -0.4911 -0.7947 -0.3568
vn -0.7240 -0.6617 -0.1947
vn -0.7240 -0.6617 0.1947
vn -0.4911 -0.7947 0.3568
vn -0.4089 -0.6617 0.6284
vn 0.7002 -0.6617 -0.2680
vn 0.6071 -0.7947 0.0000
vn 0.3313 -0.9435 0.0000
vn -0.0385 -0.6617 0.7488
vn 0.1876 -0.7947 0.5773
vn 0.4713 -0.6617 0.5831
usemtl Matériau.002
s off
f 87//111 100//111 99//111
f 88//112 100//112 102//112
f 87//113 99//113 104//113
f 87//114 104//114 106//114
f 87//115 106//115 103//115
f 88//116 102//116 109//116
f 89//117 101//117 111//117
f 90//118 105//118 113//118
f 91//119 107//119 115//119
f 92//120 108//120 117//120
f 88//121 109//121 112//121
f 89//122 111//122 114//122
f 90//123 113//123 116//123
f 91//124 115//124 118//124
f 92//125 117//125 110//125
f 93//126 119//126 124//126
f 94//127 120//127 126//127
f 95//128 121//128 127//128
f 96//129 122//129 128//129
f 97//130 123//130 125//130
f 125//131 128//131 98//131
f 125//132 123//132 128//132
f 123//133 96//133 128//133
f 128//134 127//134 98//134
f 128//135 122//135 127//135
f 122//136 95//136 127//136
f 127//137 126//137 98//137
f 127//138 121//138 126//138
f 121//139 94//139 126//139
f 126//140 124//140 98//140
f 126//141 120//141 124//141
f 120//142 93//142 124//142
f 124//143 125//143 98//143
f 124//144 119//144 125//144
f 119//145 97//145 125//145
f 110//146 123//146 97//146
f 110//147 117//147 123//147
f 117//148 96//148 123//148
f 118//149 122//149 96//149
f 118//150 115//150 122//150
f 115//151 95//151 122//151
f 116//152 121//152 95//152
f 116//153 113//153 121//153
f 113//154 94//154 121//154
f 114//155 120//155 94//155
f 114//156 111//156 120//156
f 111//157 93//157 120//157
f 112//158 119//158 93//158
f 112//159 109//159 119//159
f 109//160 97//160 119//160
f 117//161 118//161 96//161
f 117//162 108//162 118//162
f 108//163 91//163 118//163
f 115//164 116//164 95//164
f 115//165 107//165 116//165
f 107//166 90//166 116//166
f 113//167 114//167 94//167
f 113//168 105//168 114//168
f 105//169 89//169 114//169
f 111//170 112//170 93//170
f 111//171 101//171 112//171
f 101//172 88//172 112//172
f 109//173 110//173 97//173
f 109//174 102//174 110//174
f 102//175 92//175 110//175
f 103//176 108//176 92//176
f 103//177 106//177 108//177
f 106//178 91//178 108//178
f 106//179 107//179 91//179
f 106//180 104//180 107//180
f 104//181 90//181 107//181
f 104//182 105//182 90//182
f 104//183 99//183 105//183
f 99//184 89//184 105//184
f 102//185 103//185 92//185
f 102//186 100//186 103//186
f 100//187 87//187 103//187
f 99//188 101//188 89//188
f 99//189 100//189 101//189
f 100//190 88//190 101//190
o Icosphère.002
v -0.623791 5.511620 0.098400
v 0.377919 6.276850 0.826177
v -1.006403 6.276849 1.275978
v -1.861971 6.276855 0.098400
v -1.006403 6.276849 -1.079177
v 0.377919 6.276850 -0.629376
v -0.241179 7.515048 1.275978
v -1.625501 7.515047 0.826177
v -1.625501 7.515047 -0.629376
v -0.241179 7.515048 -1.079177
v 0.614388 7.515042 0.098400
v -0.623791 8.280277 0.098400
v -0.848683 5.718363 0.790558
v -0.035005 5.718364 0.526174
v -0.259894 6.168155 1.218338
v 0.553785 6.168157 0.098400
v -0.035005 5.718364 -0.329373
v -1.351574 5.718367 0.098400
v -1.576471 6.168157 0.790560
v -0.848683 5.718363 -0.593757
v -1.576471 6.168157 -0.593760
v -0.259894 6.168155 -1.021537
v 0.692785 6.895948 0.526175
v 0.692785 6.895948 -0.329375
v -0.623791 6.895948 1.482729
v 0.189897 6.895948 1.218345
v -1.940367 6.895948 0.526175
v -1.437479 6.895948 1.218345
v -1.437479 6.895948 -1.021544
v -1.940367 6.895948 -0.329375
v 0.189897 6.895948 -1.021544
v -0.623791 6.895948 -1.285928
v 0.328889 7.623740 0.790560
v -0.987688 7.623742 1.218338
v -1.801367 7.623740 0.098400
v -0.987688 7.623742 -1.021537
v 0.328889 7.623740 -0.593760
v -0.398899 8.073533 0.790558
v 0.103992 8.073530 0.098400
v -1.212577 8.073533 0.526174
v -1.212577 8.073533 -0.329373
v -0.398899 8.073533 -0.593757
vn 0.1024 -0.9435 0.3151
vn 0.7002 -0.6617 0.2680
vn -0.2680 -0.9435 0.1947
vn -0.2680 -0.9435 -0.1947
vn 0.1024 -0.9435 -0.3151
vn 0.9050 -0.3304 0.2680
vn 0.0247 -0.3304 0.9435
vn -0.8897 -0.3304 0.3151
vn -0.5746 -0.3304 -0.7488
vn 0.5346 -0.3304 -0.7779
vn 0.8026 -0.1256 0.5831
vn -0.3066 -0.1256 0.9435
vn -0.9921 -0.1256 0.0000
vn -0.3066 -0.1256 -0.9435
vn 0.8026 -0.1256 -0.5831
vn 0.4089 0.6617 0.6284
vn -0.4713 0.6617 0.5831
vn -0.7002 0.6617 -0.2680
vn 0.0385 0.6617 -0.7488
vn 0.7240 0.6617 -0.1947
vn 0.2680 0.9435 -0.1947
vn 0.4911 0.7947 -0.3568
vn 0.4089 0.6617 -0.6284
vn -0.1024 0.9435 -0.3151
vn -0.1876 0.7947 -0.5773
vn -0.4713 0.6617 -0.5831
vn -0.3313 0.9435 0.0000
vn -0.6071 0.7947 0.0000
vn -0.7002 0.6617 0.2680
vn -0.1024 0.9435 0.3151
vn -0.1876 0.7947 0.5773
vn 0.0385 0.6617 0.7488
vn 0.2680 0.9435 0.1947
vn 0.4911 0.7947 0.3568
vn 0.7240 0.6617 0.1947
vn 0.8897 0.3304 -0.3151
vn 0.7947 0.1876 -0.5773
vn 0.5746 0.3304 -0.7488
vn -0.0247 0.3304 -0.9435
vn -0.3035 0.1876 -0.9342
vn -0.5346 0.3304 -0.7779
vn -0.9050 0.3304 -0.2680
vn -0.9822 0.1876 0.0000
vn -0.9050 0.3304 0.2680
vn -0.5346 0.3304 0.7779
vn -0.3035 0.1876 0.9342
vn -0.0247 0.3304 0.9435
vn 0.5746 0.3304 0.7488
vn 0.7947 0.1876 0.5773
vn 0.8897 0.3304 0.3151
vn 0.3066 0.1256 -0.9435
vn 0.3035 -0.1876 -0.9342
vn 0.0247 -0.3304 -0.9435
vn -0.8026 0.1256 -0.5831
vn -0.7947 -0.1876 -0.5773
vn -0.8897 -0.3304 -0.3151
vn -0.8026 0.1256 0.5831
vn -0.7947 -0.1876 0.5773
vn -0.5746 -0.3304 0.7488
vn 0.3066 0.1256 0.9435
vn 0.3035 -0.1876 0.9342
vn 0.5346 -0.3304 0.7779
vn 0.9921 0.1256 0.0000
vn 0.9822 -0.1876 0.0000
vn 0.9050 -0.3304 -0.2680
vn 0.4713 -0.6617 -0.5831
vn 0.1876 -0.7947 -0.5773
vn -0.0385 -0.6617 -0.7488
vn -0.4089 -0.6617 -0.6284
vn -0.4911 -0.7947 -0.3568
vn -0.7240 -0.6617 -0.1947
vn -0.7240 -0.6617 0.1947
vn -0.4911 -0.7947 0.3568
vn -0.4089 -0.6617 0.6284
vn 0.7002 -0.6617 -0.2680
vn 0.6071 -0.7947 0.0000
vn 0.3313 -0.9435 0.0000
vn -0.0385 -0.6617 0.7488
vn 0.1876 -0.7947 0.5773
vn 0.4713 -0.6617 0.5831
usemtl Matériau
s off
f 129//191 142//191 141//191
f 130//192 142//192 144//192
f 129//193 141//193 146//193
f 129//194 146//194 148//194
f 129//195 148//195 145//195
f 130//196 144//196 151//196
f 131//197 143//197 153//197
f 132//198 147//198 155//198
f 133//199 149//199 157//199
f 134//200 150//200 159//200
f 130//201 151//201 154//201
f 131//202 153//202 156//202
f 132//203 155//203 158//203
f 133//204 157//204 160//204
f 134//205 159//205 152//205
f 135//206 161//206 166//206
f 136//207 162//207 168//207
f 137//208 163//208 169//208
f 138//209 164//209 170//209
f 139//210 165//210 167//210
f 167//211 170//211 140//211
f 167//212 165//212 170//212
f 165//213 138//213 170//213
f 170//214 169//214 140//214
f 170//215 164//215 169//215
f 164//216 137//216 169//216
f 169//217 168//217 140//217
f 169//218 163//218 168//218
f 163//219 136//219 168//219
f 168//220 166//220 140//220
f 168//221 162//221 166//221
f 162//222 135//222 166//222
f 166//223 167//223 140//223
f 166//224 161//224 167//224
f 161//225 139//225 167//225
f 152//226 165//226 139//226
f 152//227 159//227 165//227
f 159//228 138//228 165//228
f 160//229 164//229 138//229
f 160//230 157//230 164//230
f 157//231 137//231 164//231
f 158//232 163//232 137//232
f 158//233 155//233 163//233
f 155//234 136//234 163//234
f 156//235 162//235 136//235
f 156//236 153//236 162//236
f 153//237 135//237 162//237
f 154//238 161//238 135//238
f 154//239 151//239 161//239
f 151//240 139//240 161//240
f 159//241 160//241 138//241
f 159//242 150//242 160//242
f 150//243 133//243 160//243
f 157//244 158//244 137//244
f 157//245 149//245 158//245
f 149//246 132//246 158//246
f 155//247 156//247 136//247
f 155//248 147//248 156//248
f 147//249 131//249 156//249
f 153//250 154//250 135//250
f 153//251 143//251 154//251
f 143//252 130//252 154//252
f 151//253 152//253 139//253
f 151//254 144//254 152//254
f 144//255 134//255 152//255
f 145//256 150//256 134//256
f 145//257 148//257 150//257
f 148//258 133//258 150//258
f 148//259 149//259 133//259
f 148//260 146//260 149//260
f 146//261 132//261 149//261
f 146//262 147//262 132//262
f 146//263 141//263 147//263
f 141//264 131//264 147//264
f 144//265 145//265 134//265
f 144//266 142//266 145//266
f 142//267 129//267 145//267
f 141//268 143//268 131//268
f 141//269 142//269 143//269
f 142//270 130//270 143//270
