# Blender v2.91.2 OBJ File: ''
# www.blender.org
mtllib decor0.mtl
o Cube
v 9.874886 9.874886 -9.874886
v 9.874886 -9.874886 -9.874886
v 9.874886 9.874886 9.874886
v 9.874886 -9.874886 9.874886
v -9.874886 9.874886 -9.874886
v -9.874886 -9.874886 -9.874886
v -9.874886 9.874886 9.874886
v -9.874886 -9.874886 9.874886
v 9.874886 19.570599 9.874886
v -9.874886 19.570599 9.874886
v 9.874886 19.570599 -9.874886
v -9.874886 19.570599 -9.874886
vn 0.0000 0.0000 -1.0000
vn 0.0000 0.0000 1.0000
vn -1.0000 0.0000 0.0000
vn 0.0000 -1.0000 0.0000
vn 1.0000 0.0000 0.0000
vn 0.0000 1.0000 0.0000
usemtl Material
s off
f 5//1 11//1 1//1
f 3//2 8//2 4//2
f 7//3 6//3 8//3
f 2//4 8//4 6//4
f 1//5 4//5 2//5
f 5//1 2//1 6//1
f 12//6 9//6 11//6
f 3//2 10//2 7//2
f 7//3 12//3 5//3
f 1//5 9//5 3//5
f 5//1 12//1 11//1
f 3//2 7//2 8//2
f 7//3 5//3 6//3
f 2//4 4//4 8//4
f 1//5 3//5 4//5
f 5//1 1//1 2//1
f 12//6 10//6 9//6
f 3//2 9//2 10//2
f 7//3 10//3 12//3
f 1//5 11//5 9//5
