# Blender v2.91.2 OBJ File: 'camionnete02.blend'
# www.blender.org
mtllib arme_000041.mtl
o Cube.046_Cube.010
v 366.649200 229.260101 -1021.327881
v 367.915314 8.857010 -1021.274902
v 485.270447 229.896881 -1207.090332
v 486.536560 9.493805 -1207.037476
v 180.889954 228.164520 -1139.950806
v 182.156021 7.761414 -1139.897827
v 299.511169 228.801331 -1325.713257
v 300.777283 8.398209 -1325.660400
v 203.331253 228.383331 -765.569702
v 204.597351 7.980286 -765.516724
v 18.838100 6.884689 -884.139648
v 17.572010 227.287781 -884.192566
v 129.419189 227.986572 -649.822205
v 130.685272 7.583481 -649.769348
v -55.074036 6.487885 -768.392212
v -56.340126 226.890991 -768.445190
v 85.755219 227.752167 -581.443909
v 94.114136 67.468369 -592.739990
v -91.645210 66.372803 -711.362915
v -100.004105 226.656616 -700.066772
v 128.156982 447.708282 -649.875061
v -57.602276 446.612701 -768.498047
v 84.493050 447.473907 -581.496704
v -101.266228 446.378326 -700.119629
v 228.811874 228.520111 -805.472656
v 230.077972 8.117065 -805.419739
v 43.052601 227.424561 -924.095581
v 44.318665 7.021469 -924.042664
v 202.913315 301.140045 -765.587158
v 17.154047 300.044525 -884.210144
v 228.393921 301.276825 -805.490112
v 42.634636 300.181244 -924.112976
v 202.306976 406.698151 -765.612549
v 16.547697 405.602570 -884.235352
v 227.787537 406.834930 -805.515503
v 42.028301 405.739349 -924.138367
v 130.671768 300.752228 -652.455811
v -55.087540 299.656647 -771.078735
v 130.065384 406.310394 -652.481140
v -55.693905 405.214752 -771.104065
v 154.939651 584.639893 -693.080322
v -30.819626 583.544312 -811.703308
v 111.275681 584.405518 -624.702026
v -74.483551 583.309814 -743.324890
v 443.393463 229.672089 -1141.510498
v 444.659576 9.268997 -1141.457642
v 257.634186 228.576508 -1260.133301
v 258.900299 8.173401 -1260.080444
v 392.390808 229.349121 -1266.401855
v 393.656921 8.945999 -1266.348999
v 273.769592 228.712311 -1080.639404
v 275.035675 8.309219 -1080.586426
v 110.451637 227.835541 -824.881104
v 111.717712 7.432480 -824.828125
v 36.539539 227.438812 -709.133728
v 37.805614 7.035690 -709.080811
v -7.124417 227.204376 -640.755371
v 1.234482 66.920593 -652.051453
v 35.277336 447.160553 -709.186462
v -8.386593 446.926117 -640.808167
v 137.198318 7.569275 -864.731140
v 135.932236 227.972321 -864.784119
v 110.033684 300.592285 -824.898682
v 135.514282 300.729004 -864.801514
v 109.427338 406.150421 -824.923950
v 134.907928 406.287140 -864.826965
v 37.792110 300.204468 -711.767334
v 37.185745 405.762604 -711.792603
v 62.059998 584.092163 -752.391846
v 18.396044 583.857666 -684.013489
v 351.779907 8.721207 -1200.769043
v 350.513824 229.124298 -1200.821899
v 438.830627 229.622986 -1236.745972
v 321.475494 8.583115 -1050.930664
v 158.157532 7.706390 -795.172485
v 84.245422 7.309586 -679.425110
v 47.674301 67.194473 -622.395752
v 182.372055 228.246216 -835.128357
v 181.954102 301.002899 -835.145813
v 181.347733 406.561005 -835.171204
v 396.953674 229.398193 -1171.166260
v 440.096741 9.219910 -1236.693237
v 320.209381 228.986206 -1050.983765
v 156.891449 228.109436 -795.225464
v 82.979347 227.712677 -679.477966
v 39.315388 227.478271 -611.099609
v 81.717178 447.434418 -679.530762
v 38.053242 447.199982 -611.152466
v 183.638153 7.843170 -835.075439
v 156.473511 300.866180 -795.242920
v 155.867142 406.424286 -795.268250
v 84.231934 300.478363 -682.111572
v 83.625565 406.036469 -682.136841
v 108.499847 584.365967 -722.736023
v 64.835876 584.131470 -654.357727
v 398.219727 8.995102 -1171.113403
v 183.875214 -33.424294 -835.065552
v 137.435379 -33.698212 -864.721252
v 398.456787 -32.272369 -1171.103516
v 352.016998 -32.546280 -1200.759155
v 275.272736 -32.958267 -1080.576538
v 321.712555 -32.684357 -1050.920776
v 500.649750 168.547455 -1057.970215
v 466.714203 168.365265 -1004.826721
v 467.274170 70.905289 -1004.803162
v 501.209625 71.087463 -1057.946899
v 540.791382 168.784241 -1032.336548
v 506.855865 168.602051 -979.192993
v 507.415771 71.142075 -979.169556
v 541.351257 71.324234 -1032.313110
v 602.220886 169.146545 -993.108826
v 568.285339 168.964355 -939.965210
v 568.845215 71.504410 -939.941772
v 602.780701 71.686584 -993.085449
v 641.749939 169.379700 -967.866211
v 607.814392 169.197510 -914.722656
v 608.374390 71.737534 -914.699219
v 642.309814 71.919708 -967.842773
v 829.790344 11.312195 -1846.958008
v 783.350525 11.038300 -1876.613770
v 782.084290 231.441406 -1876.666748
v 828.524231 231.715302 -1847.010986
vn 0.8428 0.0050 0.5382
vn 0.5382 0.0029 -0.8428
vn -0.8428 -0.0050 -0.5382
vn -0.0057 1.0000 -0.0002
vn 0.0057 -1.0000 0.0002
vn -0.5382 -0.0029 0.8428
vn -0.3533 -0.7492 0.5602
vn -0.5358 -0.0871 0.8398
vn -0.8435 -0.0055 -0.5371
vn 0.8435 0.0055 0.5371
vn 0.5060 -0.3480 -0.7892
vn -0.5060 0.3480 0.7892
vn 0.8264 0.0046 -0.5630
vn -0.1631 -0.0007 0.9866
vn 0.4698 -0.8312 0.2972
vn 0.4602 0.8367 0.2968
usemtl Matériau.011
s off
f 45//1 46//1 4//1 3//1
f 49//2 50//2 8//2 7//2
f 47//3 48//3 6//3 5//3
f 26//1 25//1 9//1 10//1
f 72//4 47//4 5//4 51//4
f 96//5 46//5 2//5 74//5
f 10//1 9//1 13//1 14//1
f 84//6 9//6 29//6 90//6
f 89//5 26//5 10//5 75//5
f 27//3 28//3 11//3 12//3
f 76//7 14//7 18//7 77//7
f 75//5 10//5 14//5 76//5
f 12//3 11//3 15//3 16//3
f 53//4 12//4 16//4 55//4
f 86//8 77//8 18//8 17//8
f 16//9 15//9 19//9 20//9
f 16//3 20//3 24//3 22//3
f 14//10 13//10 17//10 18//10
f 59//11 22//11 42//11 69//11
f 86//6 17//6 23//6 88//6
f 17//1 13//1 21//1 23//1
f 55//2 16//2 22//2 59//2
f 5//3 6//3 28//3 27//3
f 74//5 2//5 26//5 89//5
f 51//4 5//4 27//4 62//4
f 2//1 1//1 25//1 26//1
f 32//3 30//3 34//3 36//3
f 62//2 27//2 32//2 64//2
f 27//3 12//3 30//3 32//3
f 9//1 25//1 31//1 29//1
f 66//4 36//4 34//4 65//4
f 90//5 29//5 37//5 92//5
f 64//2 32//2 36//2 66//2
f 29//1 31//1 35//1 33//1
f 92//6 37//6 39//6 93//6
f 29//1 33//1 39//1 37//1
f 34//3 30//3 38//3 40//3
f 65//4 34//4 40//4 68//4
f 69//4 42//4 44//4 70//4
f 23//1 21//1 41//1 43//1
f 88//12 23//12 43//12 95//12
f 22//3 24//3 44//3 42//3
f 82//5 4//5 46//5 96//5
f 49//4 7//4 47//4 72//4
f 7//3 8//3 48//3 47//3
f 46//13 45//13 103//13 106//13
f 73//4 49//4 72//4 81//4
f 8//5 50//5 71//5 48//5
f 24//12 60//12 70//12 44//12
f 94//4 69//4 70//4 95//4
f 91//4 65//4 68//4 93//4
f 38//6 67//6 68//6 40//6
f 79//2 64//2 66//2 80//2
f 30//5 63//5 67//5 38//5
f 80//4 66//4 65//4 91//4
f 78//2 62//2 64//2 79//2
f 83//4 51//4 62//4 78//4
f 6//5 52//5 61//5 28//5
f 85//2 55//2 59//2 87//2
f 20//6 57//6 60//6 24//6
f 87//11 59//11 69//11 94//11
f 20//8 19//8 58//8 57//8
f 84//4 53//4 55//4 85//4
f 11//5 54//5 56//5 15//5
f 15//7 56//7 58//7 19//7
f 28//5 61//5 54//5 11//5
f 12//6 53//6 63//6 30//6
f 48//5 71//5 52//5 6//5
f 81//4 72//4 51//4 83//4
f 50//3 49//3 121//3 120//3
f 3//2 4//2 82//2 73//2
f 45//4 81//4 83//4 1//4
f 9//4 84//4 85//4 13//4
f 21//11 87//11 94//11 41//11
f 13//2 85//2 87//2 21//2
f 1//4 83//4 78//4 25//4
f 25//2 78//2 79//2 31//2
f 35//4 80//4 91//4 33//4
f 31//2 79//2 80//2 35//2
f 33//4 91//4 93//4 39//4
f 41//4 94//4 95//4 43//4
f 3//4 73//4 81//4 45//4
f 50//5 82//5 96//5 71//5
f 60//12 88//12 95//12 70//12
f 67//6 92//6 93//6 68//6
f 63//5 90//5 92//5 67//5
f 52//3 71//3 100//3 101//3
f 57//6 86//6 88//6 60//6
f 57//8 58//8 77//8 86//8
f 54//5 75//5 76//5 56//5
f 56//7 76//7 77//7 58//7
f 61//5 89//5 75//5 54//5
f 53//6 84//6 90//6 63//6
f 89//6 61//6 98//6 97//6
f 101//5 102//5 97//5 98//5
f 100//5 99//5 102//5 101//5
f 61//3 52//3 101//3 98//3
f 74//1 89//1 97//1 102//1
f 71//2 96//2 99//2 100//2
f 96//1 74//1 102//1 99//1
f 106//2 103//2 107//2 110//2
f 1//14 2//14 105//14 104//14
f 2//15 46//15 106//15 105//15
f 45//16 1//16 104//16 103//16
f 109//5 110//5 114//5 113//5
f 104//6 105//6 109//6 108//6
f 105//5 106//5 110//5 109//5
f 103//4 104//4 108//4 107//4
f 113//5 114//5 118//5 117//5
f 107//4 108//4 112//4 111//4
f 110//2 107//2 111//2 114//2
f 108//6 109//6 113//6 112//6
f 116//1 117//1 118//1 115//1
f 111//4 112//4 116//4 115//4
f 114//2 111//2 115//2 118//2
f 122//2 119//2 120//2 121//2
f 82//5 50//5 120//5 119//5
f 73//1 82//1 119//1 122//1
f 49//4 73//4 122//4 121//4
o Cube.047_Cube.022
v -251.702820 466.042236 286.259857
v -248.900635 224.655212 275.212921
v -134.587830 477.062317 75.166931
v -131.785645 235.675293 64.120010
v -433.848480 412.822510 115.026131
v -432.411713 289.056641 109.362068
v -373.800323 418.472809 6.792885
v -372.363586 294.706940 1.128822
v 5.667786 311.572876 -300.795746
v 4.200012 438.012573 -295.009308
v -106.512344 439.534729 -356.353363
v -105.044540 313.095001 -362.139801
v 95.131134 338.329193 -496.172089
v 94.051971 431.290527 -491.917816
v 12.653778 432.409607 -537.019348
v 13.732941 339.448303 -541.273621
v 149.323730 357.137024 -619.360107
v 148.535095 425.071899 -616.251099
v 89.050354 425.889771 -649.210693
v 89.838989 357.954865 -652.319702
v -249.255234 485.115326 32.993103
v -246.280380 228.853302 21.265427
v -373.587219 473.416138 257.094269
v -370.612366 217.154114 245.366608
v -48.488983 442.924683 -330.392029
v -46.930725 308.693359 -336.535034
v 62.460266 435.574463 -530.812927
v 63.605896 336.884583 -535.329407
v 131.932678 428.812744 -656.362915
v 132.769897 356.691467 -659.663452
v 198.005615 361.383972 -699.812195
v 197.216980 429.318909 -696.703186
v 180.341278 433.576385 -748.174561
v 181.178497 361.455139 -751.475098
v 138.289581 362.639099 -742.385254
v 137.500946 430.574005 -739.276245
v 231.825287 364.452484 -758.283325
v 231.036713 432.387390 -755.174316
v 214.160950 436.644897 -806.645691
v 214.998199 364.523621 -809.946228
v 172.109222 365.707581 -800.856384
v 171.320587 433.642487 -797.747375
v 273.767548 378.137573 -781.600220
v 273.259979 421.864197 -779.599121
v 262.397797 424.604553 -812.729004
v 262.936737 378.183380 -814.853394
v 203.514404 366.884064 -864.437195
v 160.625519 368.068024 -855.347290
v 159.836884 436.002930 -852.238281
v 202.677185 439.005310 -861.136658
v 302.953705 386.311066 -796.789124
v 302.611542 415.790344 -795.440002
v 295.288544 417.637817 -817.775269
v 295.651825 386.341919 -819.207520
v 325.036224 393.270630 -822.352966
v 324.822296 411.698486 -821.509644
v 320.244659 412.853363 -835.471680
v 320.471771 393.289917 -836.367004
v 190.005280 380.086945 -891.736023
v 161.487823 380.874176 -885.692017
v 160.963470 426.044952 -883.624756
v 189.448578 428.041260 -889.541443
vn 0.8746 -0.0120 0.4846
vn -0.8057 0.0177 -0.5920
vn -0.8746 0.0120 -0.4846
vn -0.2352 -0.0472 0.9708
vn -0.4310 0.8814 -0.1931
vn 0.0654 -0.9977 -0.0158
vn -0.8344 0.0155 -0.5510
vn 0.1053 0.9926 -0.0612
vn -0.2735 -0.9134 -0.3015
vn 0.9362 -0.0052 0.3515
vn -0.0433 -0.9815 -0.1865
vn 0.0966 0.9952 0.0136
vn -0.0187 -0.9879 -0.1540
vn 0.9096 -0.0084 0.4154
vn -0.0658 0.9977 0.0168
vn 0.9158 -0.0078 0.4017
vn -0.8260 0.0162 -0.5634
vn 0.1375 0.9904 0.0167
vn -0.0662 0.9932 -0.0961
vn 0.8558 -0.0137 0.5171
vn 0.1197 -0.9898 -0.0773
vn -0.0418 0.9971 -0.0631
vn 0.1604 -0.9843 -0.0736
vn 0.1282 -0.9801 -0.1515
vn -0.2949 0.9305 -0.2171
vn -0.4107 -0.8699 -0.2733
vn 0.0422 0.9963 0.0754
vn -0.9157 -0.0290 0.4008
vn -0.8659 0.0128 -0.5001
vn 0.0564 -0.9982 -0.0198
vn -0.8809 0.0114 -0.4733
vn 0.0376 0.9966 0.0733
vn 0.0607 -0.9980 -0.0180
vn -0.0427 -0.9963 -0.0745
vn -0.0583 0.9968 0.0555
vn 0.4941 -0.0340 0.8688
vn 0.0333 0.9969 0.0716
vn -0.0671 0.9977 0.0135
vn -0.0440 -0.9960 -0.0777
vn 0.8659 -0.0128 0.5001
vn -0.1425 0.0436 -0.9888
vn 0.2647 -0.9604 -0.0875
vn 0.2423 0.9702 0.0008
vn -0.1142 0.0441 -0.9925
vn -0.1293 0.9438 -0.3041
vn -0.0352 -0.9987 -0.0359
vn -0.9785 -0.0208 0.2053
vn 0.9785 0.0208 -0.2053
vn -0.5742 0.0308 -0.8181
vn 0.2090 0.9778 0.0124
vn 0.2316 -0.9698 -0.0768
vn 0.4690 -0.0349 0.8825
vn 0.9505 0.0252 -0.3096
vn 0.1990 0.9799 0.0158
vn 0.2214 -0.9724 -0.0735
vn 0.7594 -0.0209 0.6503
vn -0.2060 0.0423 -0.9776
vn -0.1077 -0.9149 -0.3892
vn 0.9016 0.0302 -0.4315
vn -0.9994 -0.0101 -0.0327
usemtl Matériau.012
s off
f 123//17 124//17 126//17 125//17
f 130//18 129//18 133//18 134//18
f 129//19 130//19 128//19 127//19
f 145//20 146//20 124//20 123//20
f 143//21 129//21 127//21 145//21
f 144//22 126//22 124//22 146//22
f 134//23 133//23 137//23 138//23
f 143//24 125//24 132//24 147//24
f 144//25 130//25 134//25 148//25
f 125//26 126//26 131//26 132//26
f 150//27 138//27 142//27 152//27
f 147//28 132//28 136//28 149//28
f 148//29 134//29 138//29 150//29
f 132//30 131//30 135//30 136//30
f 141//31 151//31 155//31 158//31
f 136//32 135//32 139//32 140//32
f 138//33 137//33 141//33 142//33
f 149//34 136//34 140//34 151//34
f 137//35 149//35 151//35 141//35
f 140//36 139//36 153//36 154//36
f 131//37 148//37 150//37 135//37
f 133//38 147//38 149//38 137//38
f 135//39 150//39 152//39 139//39
f 126//40 144//40 148//40 131//40
f 129//41 143//41 147//41 133//41
f 130//42 144//42 146//42 128//42
f 125//43 143//43 145//43 123//43
f 127//44 128//44 146//44 145//44
f 157//45 158//45 164//45 163//45
f 153//46 156//46 162//46 159//46
f 142//47 141//47 158//47 157//47
f 151//48 140//48 154//48 155//48
f 139//49 152//49 156//49 153//49
f 152//50 142//50 157//50 156//50
f 164//51 161//51 172//51 171//51
f 160//52 159//52 165//52 166//52
f 155//53 154//53 160//53 161//53
f 158//54 155//54 161//54 164//54
f 156//55 157//55 163//55 162//55
f 154//56 153//56 159//56 160//56
f 168//57 167//57 175//57 176//57
f 159//58 162//58 168//58 165//58
f 161//59 160//59 166//59 167//59
f 162//60 161//60 167//60 168//60
f 171//61 172//61 184//61 183//61
f 162//62 163//62 170//62 169//62
f 163//63 164//63 171//63 170//63
f 161//64 162//64 169//64 172//64
f 176//65 175//65 179//65 180//65
f 167//66 166//66 174//66 175//66
f 165//67 168//67 176//67 173//67
f 166//68 165//68 173//68 174//68
f 178//69 177//69 180//69 179//69
f 175//70 174//70 178//70 179//70
f 173//71 176//71 180//71 177//71
f 174//72 173//72 177//72 178//72
f 184//73 181//73 182//73 183//73
f 169//74 170//74 182//74 181//74
f 172//75 169//75 181//75 184//75
f 170//76 171//76 183//76 182//76
o Cube.048_Cube.024
v -525.488647 329.398315 110.614861
v -686.966980 197.681671 -11.749521
v -384.224213 338.177032 -85.254669
v -545.702576 206.460388 -207.619049
v -641.619019 501.859711 -38.049683
v -724.413513 434.324890 -100.789322
v -569.188782 506.360809 -138.477478
v -651.983276 438.825989 -201.217117
v -306.429382 300.141510 -510.586975
v -221.846252 369.135315 -446.491913
v -280.096252 475.160522 -483.750824
v -364.679382 406.166687 -547.845947
v -177.118439 331.131287 -681.495911
v -114.931030 381.857117 -634.371765
v -157.757782 459.809235 -661.765381
v -219.945221 409.083405 -708.889526
v -95.753845 353.346558 -788.042358
v -50.308044 390.416290 -753.604614
v -81.605286 447.382690 -773.623474
v -127.051086 410.312927 -808.061157
v -445.587006 442.775024 -102.164963
v -617.016174 302.941620 -232.069809
v -595.556580 433.455322 105.774689
v -766.985718 293.621918 -24.130152
v -245.093384 424.477051 -467.682922
v -334.888794 351.231598 -535.727722
v -123.402832 423.081268 -661.903809
v -189.422485 369.229584 -711.931885
v -48.677734 421.028442 -784.569580
v -96.923950 381.674316 -821.129395
v -39.138672 353.799377 -863.242188
v 6.307129 390.869141 -828.804443
v 11.028259 426.654358 -869.416565
v -37.217957 387.300262 -905.976379
v -67.820251 415.143707 -891.425293
v -22.374451 452.213440 -856.987549
v 0.937012 355.244690 -917.683838
v 46.382812 392.314453 -883.246155
v 51.103943 428.099731 -923.858337
v 2.857727 388.745605 -960.418152
v -27.744568 416.589020 -945.866943
v 17.701233 453.658752 -911.429260
v 44.793640 342.226166 -937.614746
v 74.044983 366.086304 -915.448730
v 77.083801 389.119629 -941.588928
v 46.029846 363.789154 -965.120850
v 10.704834 420.832642 -1005.313049
v -19.897461 448.676086 -990.761841
v 25.548340 485.745819 -956.324158
v 58.950989 460.186768 -968.753296
v 74.116089 331.988586 -951.205994
v 93.836548 348.074402 -936.262268
v 95.885193 363.602844 -953.885315
v 74.949524 346.525757 -969.749878
v 100.453186 330.482025 -973.424683
v 112.780701 340.537476 -964.083191
v 114.061340 350.244476 -975.099548
v 100.974182 339.569397 -985.016663
v 17.654175 449.187744 -1021.116089
v -2.693604 467.701172 -1011.440796
v 27.523804 492.349304 -988.542725
v 49.733765 475.354767 -996.807007
vn 0.4602 -0.8376 0.2943
vn -0.3819 0.8354 -0.3953
vn -0.4602 0.8376 -0.2943
vn -0.4415 -0.2573 0.8596
vn 0.3643 0.8808 0.3023
vn -0.6386 -0.5955 -0.4873
vn -0.4134 0.8379 -0.3564
vn 0.7706 0.5014 0.3935
vn -0.7369 -0.1863 -0.6498
vn 0.5408 -0.8233 0.1725
vn -0.6573 -0.4377 -0.6135
vn 0.7473 0.4782 0.4613
vn -0.6534 -0.4724 -0.5915
vn 0.5042 -0.8323 0.2305
vn 0.6381 0.5955 0.4882
vn 0.5123 -0.8306 0.2180
vn -0.4041 0.8374 -0.3681
vn 0.7709 0.4448 0.4560
vn 0.6637 0.6398 0.3875
vn 0.4379 -0.8384 0.3246
vn -0.5806 -0.6049 -0.5450
vn 0.6745 0.6108 0.4147
vn -0.5501 -0.6327 -0.5450
vn -0.5491 -0.5750 -0.6065
vn 0.4966 0.8199 0.2850
vn -0.8072 -0.0748 -0.5855
vn 0.6953 0.4925 0.5235
vn -0.7439 0.4790 0.4661
vn -0.4497 0.8381 -0.3088
vn -0.6440 -0.5877 -0.4897
vn -0.4677 0.8371 -0.2838
vn 0.6929 0.4969 0.5225
vn -0.6414 -0.5914 -0.4886
vn -0.6958 -0.4926 -0.5226
vn 0.6326 0.5736 0.5205
vn 0.0882 -0.7339 0.6735
vn 0.6906 0.5009 0.5217
vn 0.6380 0.5977 0.4855
vn -0.6957 -0.4902 -0.5251
vn 0.4497 -0.8381 0.3088
vn 0.1876 0.5352 -0.8237
vn -0.4593 -0.6889 -0.5607
vn 0.8321 0.3645 0.4179
vn 0.2081 0.5165 -0.8306
vn 0.6404 0.7437 0.1917
vn -0.7024 -0.5153 -0.4911
vn -0.7305 0.6095 0.3079
vn 0.7305 -0.6095 -0.3079
vn -0.1578 0.7690 -0.6195
vn 0.8119 0.3880 0.4363
vn -0.4910 -0.6748 -0.5510
vn 0.0671 -0.7220 0.6886
vn 0.7414 -0.5439 -0.3930
vn 0.8056 0.3949 0.4416
vn -0.5006 -0.6702 -0.5479
vn 0.3333 -0.8278 0.4512
vn 0.1408 0.5757 -0.8055
vn -0.6030 -0.2705 -0.7505
vn 0.7431 -0.4554 -0.4904
vn -0.6762 0.7288 0.1079
usemtl Matériau.012
s off
f 185//77 186//77 188//77 187//77
f 192//78 191//78 195//78 196//78
f 191//79 192//79 190//79 189//79
f 207//80 208//80 186//80 185//80
f 205//81 191//81 189//81 207//81
f 206//82 188//82 186//82 208//82
f 196//83 195//83 199//83 200//83
f 205//84 187//84 194//84 209//84
f 206//85 192//85 196//85 210//85
f 187//86 188//86 193//86 194//86
f 212//87 200//87 204//87 214//87
f 209//88 194//88 198//88 211//88
f 210//89 196//89 200//89 212//89
f 194//90 193//90 197//90 198//90
f 203//91 213//91 217//91 220//91
f 198//92 197//92 201//92 202//92
f 200//93 199//93 203//93 204//93
f 211//94 198//94 202//94 213//94
f 199//95 211//95 213//95 203//95
f 202//96 201//96 215//96 216//96
f 193//97 210//97 212//97 197//97
f 195//98 209//98 211//98 199//98
f 197//99 212//99 214//99 201//99
f 188//100 206//100 210//100 193//100
f 191//101 205//101 209//101 195//101
f 192//102 206//102 208//102 190//102
f 187//103 205//103 207//103 185//103
f 189//104 190//104 208//104 207//104
f 219//105 220//105 226//105 225//105
f 215//106 218//106 224//106 221//106
f 204//107 203//107 220//107 219//107
f 213//108 202//108 216//108 217//108
f 201//109 214//109 218//109 215//109
f 214//110 204//110 219//110 218//110
f 226//111 223//111 234//111 233//111
f 222//112 221//112 227//112 228//112
f 217//113 216//113 222//113 223//113
f 220//114 217//114 223//114 226//114
f 218//115 219//115 225//115 224//115
f 216//116 215//116 221//116 222//116
f 230//117 229//117 237//117 238//117
f 221//118 224//118 230//118 227//118
f 223//119 222//119 228//119 229//119
f 224//120 223//120 229//120 230//120
f 233//121 234//121 246//121 245//121
f 224//122 225//122 232//122 231//122
f 225//123 226//123 233//123 232//123
f 223//124 224//124 231//124 234//124
f 238//125 237//125 241//125 242//125
f 229//126 228//126 236//126 237//126
f 227//127 230//127 238//127 235//127
f 228//128 227//128 235//128 236//128
f 240//129 239//129 242//129 241//129
f 237//130 236//130 240//130 241//130
f 235//131 238//131 242//131 239//131
f 236//132 235//132 239//132 240//132
f 246//133 243//133 244//133 245//133
f 231//134 232//134 244//134 243//134
f 234//135 231//135 243//135 246//135
f 232//136 233//136 245//136 244//136
