# Blender v2.91.2 OBJ File: 'camionnete02.blend'
# www.blender.org
mtllib arme_000044.mtl
o Cube.046_Cube.010
v 107.548492 217.802811 -1154.726074
v 47.478882 5.889687 -1146.752686
v 178.951843 189.788040 -1361.355713
v 118.882233 -22.125099 -1353.382324
v -92.131958 271.534607 -1231.012939
v -152.201630 59.621460 -1223.039551
v -20.728600 243.519852 -1437.642578
v -80.798248 31.606689 -1429.669434
v 9.240204 256.373596 -870.237915
v -50.829422 44.460480 -862.264587
v -250.509857 98.192261 -938.551453
v -190.440216 310.105408 -946.524780
v -35.250679 273.829407 -741.488281
v -95.320343 61.916275 -733.515076
v -295.000854 115.648071 -809.801880
v -234.931213 327.561218 -817.775269
v -61.533974 284.141541 -665.428833
v -100.684875 128.229248 -672.279358
v -300.365417 181.961075 -748.566284
v -261.214478 337.873352 -741.715637
v 24.633224 485.087402 -749.437012
v -175.047256 538.819275 -825.723877
v -1.650017 495.399536 -673.377441
v -201.330505 549.131348 -749.664368
v 24.578140 250.355850 -914.623291
v -35.491501 38.442734 -906.649963
v -175.102356 304.087646 -990.910217
v -235.172012 92.174515 -982.936829
v 29.069656 326.327698 -872.869934
v -170.610809 380.059570 -949.156921
v 44.407593 320.309937 -917.255310
v -155.272903 374.041748 -993.542114
v 57.838959 427.819763 -876.688660
v -141.841492 481.551514 -952.975525
v 73.176819 421.801941 -921.074036
v -126.503601 475.533752 -997.360901
v -14.415695 343.388977 -747.030334
v -214.096222 397.120789 -823.317139
v 14.353577 444.881042 -750.848999
v -185.326920 498.612793 -827.135864
v 78.507492 610.091309 -802.407349
v -121.173004 663.823120 -878.694336
v 52.224213 620.403381 -726.348022
v -147.456223 674.135132 -802.634888
v 153.744263 199.678116 -1288.408936
v 93.674637 -12.235001 -1280.435791
v -45.936195 253.409927 -1364.695801
v -106.005836 41.496758 -1356.722656
v 79.111633 216.653946 -1399.499268
v 19.041977 4.740807 -1391.525879
v 7.708282 244.668716 -1192.869629
v -52.361366 32.755569 -1184.896240
v -90.599991 283.239502 -908.381287
v -150.669647 71.326370 -900.408020
v -135.090942 300.695312 -779.631775
v -187.904800 97.393631 -758.580566
v -161.374207 311.007446 -703.572266
v -191.522110 142.108643 -717.289185
v -75.207016 511.953369 -787.580383
v -101.490265 522.265442 -711.520996
v -135.331741 65.308609 -944.793396
v -75.262115 277.221741 -952.766785
v -70.770569 353.193604 -911.013428
v -55.432663 347.175842 -955.398682
v -42.001251 454.685608 -914.832031
v -26.663391 448.667847 -959.217468
v -114.255966 370.254944 -785.173767
v -85.486649 471.746887 -788.992432
v -21.332764 636.957214 -840.550842
v -47.616043 647.269287 -764.491394
v -6.165619 14.630890 -1318.579346
v 53.904037 226.544052 -1326.552490
v 129.031799 203.221024 -1380.427246
v -2.441238 19.322632 -1165.824463
v -100.749550 57.893425 -881.336365
v -154.243530 88.335754 -745.720459
v -157.860840 133.050766 -704.429077
v -25.341980 263.788757 -933.694946
v -5.512566 333.742859 -936.327026
v 23.256729 435.234863 -940.145691
v 103.824142 213.111099 -1307.480957
v 68.962112 -8.692139 -1372.454102
v 57.628387 231.235794 -1173.797852
v -40.679893 269.806519 -889.309692
v -85.170830 287.262390 -760.559998
v -111.454102 297.574463 -684.500549
v -25.286865 498.520386 -768.508728
v -51.570145 508.832520 -692.449219
v -85.411613 51.875671 -925.721741
v -20.850441 339.760681 -891.941711
v 7.918854 441.252686 -895.760376
v -64.335838 356.821960 -766.102051
v -35.566521 458.313965 -769.920654
v 28.587402 623.524231 -821.479065
v 2.304100 633.836304 -745.419678
v 43.754456 1.197952 -1299.507568
v -96.658836 12.197830 -924.228760
v -146.578979 25.630760 -943.300476
v 32.507233 -38.479897 -1298.014648
v -17.412849 -25.046967 -1317.086426
v -63.608604 -6.922287 -1183.403320
v -13.688446 -20.355217 -1164.331543
v 208.282410 122.978683 -1216.741455
v 187.855042 130.993240 -1157.628174
v 161.293030 37.287392 -1154.102295
v 181.720184 29.272873 -1213.215820
v 251.432281 111.367538 -1200.256348
v 231.005005 119.382095 -1141.142822
v 204.442871 25.676270 -1137.617188
v 224.870117 17.661720 -1196.730469
v 317.465454 93.598770 -1175.028809
v 297.038147 101.613342 -1115.915283
v 270.475922 7.907516 -1112.389648
v 290.903198 -0.107010 -1171.503174
v 359.956879 82.164810 -1158.795166
v 339.529602 90.179352 -1099.681885
v 312.967468 -3.526474 -1096.156250
v 333.394714 -11.541000 -1155.269531
v 303.536133 -100.725784 -2051.271729
v 253.616058 -87.292847 -2070.343506
v 313.685547 124.620377 -2078.316650
v 363.605774 111.187393 -2059.244873
v 19.485931 693.009888 -860.932312
v -72.511459 717.765320 -896.079407
v -4.732674 702.511902 -790.847534
v -96.730042 727.267334 -825.994629
v 87.264709 677.756470 -755.700500
v 111.483383 668.254456 -825.785034
v 65.484741 680.632324 -843.358521
v 41.266006 690.134094 -773.273926
vn 0.9060 -0.2438 0.3461
vn 0.3240 -0.1271 -0.9375
vn -0.9060 0.2438 -0.3461
vn 0.2725 0.9615 -0.0362
vn -0.2725 -0.9615 0.0362
vn -0.3240 0.1271 0.9375
vn -0.4189 -0.6341 0.6500
vn -0.3533 -0.9347 0.0384
vn -0.4259 0.0382 0.9040
vn -0.9065 0.2435 -0.3449
vn 0.9065 -0.2435 0.3449
vn 0.2078 -0.4562 -0.8653
vn 0.2049 -0.4628 -0.8624
vn -0.2078 0.4562 0.8653
vn 0.6543 -0.2128 -0.7257
vn -0.7506 0.5687 -0.3365
vn -0.3137 0.0068 0.9495
vn -0.2457 -0.9659 0.0812
vn -0.1740 0.5308 0.8294
vn -0.3596 -0.0116 0.9330
vn -0.2933 -0.9510 0.0978
vn 0.0587 0.0209 0.9981
vn 0.2726 -0.9364 0.2212
vn 0.7272 0.6673 0.1608
vn 0.8687 -0.3526 0.3480
usemtl Matériau.011
s off
f 45//1 46//1 4//1 3//1
f 49//2 50//2 8//2 7//2
f 47//3 48//3 6//3 5//3
f 26//1 25//1 9//1 10//1
f 72//4 47//4 5//4 51//4
f 96//5 46//5 2//5 74//5
f 10//1 9//1 13//1 14//1
f 84//6 9//6 29//6 90//6
f 89//5 26//5 10//5 75//5
f 27//3 28//3 11//3 12//3
f 76//7 14//7 18//7 77//7
f 75//8 10//8 14//8 76//8
f 12//3 11//3 15//3 16//3
f 53//4 12//4 16//4 55//4
f 86//9 77//9 18//9 17//9
f 16//10 15//10 19//10 20//10
f 16//3 20//3 24//3 22//3
f 14//11 13//11 17//11 18//11
f 59//12 22//12 42//12 69//12
f 86//6 17//6 23//6 88//6
f 17//1 13//1 21//1 23//1
f 55//2 16//2 22//2 59//2
f 5//3 6//3 28//3 27//3
f 74//5 2//5 26//5 89//5
f 51//4 5//4 27//4 62//4
f 2//1 1//1 25//1 26//1
f 32//3 30//3 34//3 36//3
f 62//2 27//2 32//2 64//2
f 27//3 12//3 30//3 32//3
f 9//1 25//1 31//1 29//1
f 66//4 36//4 34//4 65//4
f 90//5 29//5 37//5 92//5
f 64//2 32//2 36//2 66//2
f 29//1 31//1 35//1 33//1
f 92//6 37//6 39//6 93//6
f 29//1 33//1 39//1 37//1
f 34//3 30//3 38//3 40//3
f 65//4 34//4 40//4 68//4
f 69//13 42//13 124//13 123//13
f 23//1 21//1 41//1 43//1
f 88//14 23//14 43//14 95//14
f 22//3 24//3 44//3 42//3
f 82//5 4//5 46//5 96//5
f 49//4 7//4 47//4 72//4
f 7//3 8//3 48//3 47//3
f 46//15 45//15 103//15 106//15
f 73//4 49//4 72//4 81//4
f 8//5 50//5 71//5 48//5
f 24//14 60//14 70//14 44//14
f 42//16 44//16 126//16 124//16
f 91//4 65//4 68//4 93//4
f 38//6 67//6 68//6 40//6
f 79//2 64//2 66//2 80//2
f 30//5 63//5 67//5 38//5
f 80//4 66//4 65//4 91//4
f 78//2 62//2 64//2 79//2
f 83//4 51//4 62//4 78//4
f 6//5 52//5 61//5 28//5
f 85//2 55//2 59//2 87//2
f 20//6 57//6 60//6 24//6
f 87//12 59//12 69//12 94//12
f 20//17 19//17 58//17 57//17
f 84//4 53//4 55//4 85//4
f 11//18 54//18 56//18 15//18
f 15//7 56//7 58//7 19//7
f 28//5 61//5 54//5 11//5
f 12//6 53//6 63//6 30//6
f 48//5 71//5 52//5 6//5
f 81//4 72//4 51//4 83//4
f 50//3 49//3 121//3 120//3
f 3//2 4//2 82//2 73//2
f 45//4 81//4 83//4 1//4
f 9//4 84//4 85//4 13//4
f 21//12 87//12 94//12 41//12
f 13//2 85//2 87//2 21//2
f 1//4 83//4 78//4 25//4
f 25//2 78//2 79//2 31//2
f 35//4 80//4 91//4 33//4
f 31//2 79//2 80//2 35//2
f 33//4 91//4 93//4 39//4
f 70//19 95//19 130//19 125//19
f 3//4 73//4 81//4 45//4
f 50//5 82//5 96//5 71//5
f 60//14 88//14 95//14 70//14
f 67//6 92//6 93//6 68//6
f 63//5 90//5 92//5 67//5
f 52//3 71//3 100//3 101//3
f 57//6 86//6 88//6 60//6
f 57//20 58//20 77//20 86//20
f 54//21 75//21 76//21 56//21
f 56//7 76//7 77//7 58//7
f 61//5 89//5 75//5 54//5
f 53//6 84//6 90//6 63//6
f 89//6 61//6 98//6 97//6
f 101//5 102//5 97//5 98//5
f 100//5 99//5 102//5 101//5
f 61//3 52//3 101//3 98//3
f 74//1 89//1 97//1 102//1
f 71//2 96//2 99//2 100//2
f 96//1 74//1 102//1 99//1
f 106//2 103//2 107//2 110//2
f 1//22 2//22 105//22 104//22
f 2//23 46//23 106//23 105//23
f 45//24 1//24 104//24 103//24
f 109//5 110//5 114//5 113//5
f 104//6 105//6 109//6 108//6
f 105//5 106//5 110//5 109//5
f 103//4 104//4 108//4 107//4
f 113//5 114//5 118//5 117//5
f 107//4 108//4 112//4 111//4
f 110//2 107//2 111//2 114//2
f 108//6 109//6 113//6 112//6
f 116//1 117//1 118//1 115//1
f 111//4 112//4 116//4 115//4
f 114//2 111//2 115//2 118//2
f 122//2 119//2 120//2 121//2
f 82//5 50//5 120//5 119//5
f 73//1 82//1 119//1 122//1
f 49//4 73//4 122//4 121//4
f 123//4 124//4 126//4 125//4
f 129//4 123//4 125//4 130//4
f 128//4 129//4 130//4 127//4
f 95//19 43//19 127//19 130//19
f 94//13 69//13 123//13 129//13
f 43//25 41//25 128//25 127//25
f 44//19 70//19 125//19 126//19
f 41//13 94//13 129//13 128//13
o Cube.048_Cube.024
v -563.184998 457.416748 181.867737
v -725.050110 340.460175 45.785431
v -423.779144 490.837494 -12.674332
v -586.252075 376.707520 -146.442383
v -681.631287 645.874756 56.231895
v -764.624023 585.907898 -13.541290
v -610.153992 663.010559 -43.515244
v -692.577881 603.875305 -112.836983
v -410.886169 482.775940 -438.239166
v -298.463318 519.996094 -393.535828
v -328.783813 640.508057 -417.622559
v -441.206665 603.287842 -462.325836
v -315.601776 485.489258 -632.674438
v -232.946045 512.854370 -599.807434
v -255.238434 601.457520 -617.516541
v -337.894226 574.092346 -650.383545
v -254.638000 489.726837 -754.046997
v -194.234253 509.724945 -730.028320
v -210.525177 574.474854 -742.969849
v -270.929047 554.476807 -766.988586
v -485.760223 596.366638 -16.228477
v -657.120728 475.722076 -158.194611
v -633.869690 560.826233 190.291290
v -805.709473 436.662476 45.823181
v -307.964630 580.926453 -409.328522
v -427.315369 541.412659 -456.786591
v -234.148621 556.406982 -624.926025
v -321.897888 527.355591 -659.818359
v -189.865601 540.423218 -760.640808
v -253.991638 519.192871 -786.139587
v -216.900208 478.417725 -839.536621
v -156.496399 498.415771 -815.517883
v -149.656311 533.760376 -856.214172
v -213.782349 512.529968 -881.713074
v -231.099518 547.099731 -861.011963
v -170.695801 567.097900 -836.993347
v -190.097137 471.562347 -901.234558
v -129.693420 491.560425 -877.215881
v -122.853516 526.905029 -917.912048
v -186.979492 505.674652 -943.410950
v -204.296631 540.244507 -922.710022
v -143.892822 560.242493 -898.691284
v -157.089294 447.627075 -930.004517
v -118.210144 460.498962 -914.544678
v -113.807617 483.248657 -940.739014
v -155.082458 469.583588 -957.151489
v -179.190552 536.848633 -988.954651
v -196.507690 571.418518 -968.253601
v -136.104065 591.416504 -944.234924
v -115.064514 558.079102 -963.455750
v -135.530457 430.176819 -949.499268
v -109.319275 438.854614 -939.076660
v -106.351135 454.191833 -956.736023
v -134.177551 444.979309 -967.800964
v -115.903442 422.473267 -976.794250
v -99.518494 427.897888 -970.278870
v -97.662964 437.485352 -981.318176
v -115.057617 431.726440 -988.234924
v -167.463318 562.890442 -1005.876282
v -178.977783 585.876343 -992.111755
v -138.814636 599.173279 -976.141418
v -124.825134 577.006714 -988.921814
v -302.626434 489.605011 463.674622
v -296.303772 300.664001 313.145935
v -153.389343 603.398682 309.396210
v -154.694580 425.558380 162.328796
v -462.300049 558.264099 276.269745
v -459.058197 461.388794 199.089447
v -386.534882 621.415039 201.815887
v -386.451202 525.425537 121.761261
v 4.095825 696.766724 -91.518379
v 82.457703 723.083374 3.913536
v 7.934875 818.524292 38.364983
v -69.895935 792.960083 -55.536888
v 115.822327 845.979248 -201.719666
v 174.107910 864.581177 -131.592468
v 119.707520 935.304749 -105.138130
v 61.421936 916.702881 -175.265350
v 185.841370 941.333008 -268.584229
v 228.435730 954.927002 -217.336121
v 188.680664 1006.610779 -198.003662
v 146.086243 993.016846 -249.251617
v -259.782990 644.636963 274.717010
v -263.118927 452.377075 112.159012
v -420.166840 520.370361 432.074768
v -413.454529 319.786285 272.269958
v 51.705566 774.405579 21.475975
v -32.455750 747.545410 -79.784203
v 158.432434 912.181580 -127.384895
v 96.555054 892.433167 -201.833557
v 223.881958 997.988220 -222.192719
v 178.662842 983.556458 -276.598846
v 236.429993 996.821899 -325.349152
v 279.024353 1010.415771 -274.101074
v 276.171204 1063.916992 -283.140503
v 230.952087 1049.485229 -337.546753
v 198.114319 1057.340820 -309.556885
v 240.708679 1070.934937 -258.308746
v 272.007751 1037.719116 -365.767731
v 314.602112 1051.313110 -314.519623
v 311.749268 1104.814209 -323.559204
v 266.529968 1090.382568 -377.965302
v 233.692139 1098.238281 -349.975372
v 276.286316 1111.832153 -298.727173
v 315.652161 1046.531372 -388.298676
v 343.068054 1055.281250 -355.312653
v 341.231873 1089.717529 -361.131042
v 312.126282 1080.428345 -396.149872
v 266.943298 1144.169678 -392.576294
v 234.105286 1152.025391 -364.586243
v 276.699707 1165.619385 -313.338196
v 312.162537 1158.601440 -338.170288
v 345.012268 1051.411255 -404.531281
v 363.495544 1057.310059 -382.292938
v 362.257629 1080.526245 -386.215790
v 342.635315 1074.263672 -409.824371
v 369.675842 1067.943726 -422.080566
v 381.229919 1071.631104 -408.179169
v 380.455994 1086.143799 -410.631165
v 368.189880 1082.229004 -425.389191
v 269.020447 1176.813354 -386.908020
v 247.186035 1182.036621 -368.297089
v 275.507507 1191.075439 -334.221466
v 299.087158 1186.409180 -350.732697
vn 0.4670 -0.8657 0.1800
vn -0.3052 0.9178 -0.2540
vn -0.4674 0.8646 -0.1845
vn -0.4321 -0.3626 0.8257
vn 0.3618 0.8402 0.4039
vn -0.6367 -0.5279 -0.5621
vn -0.2084 0.9426 -0.2608
vn 0.8492 0.4042 0.3398
vn -0.7963 -0.0812 -0.5994
vn 0.4666 -0.8839 0.0309
vn -0.8677 -0.1880 -0.4602
vn 0.9330 0.2101 0.2924
vn -0.8699 -0.2236 -0.4396
vn 0.2693 -0.9557 0.1186
vn 0.8713 0.3521 0.3418
vn 0.2748 -0.9558 0.1047
vn -0.2022 0.9402 -0.2743
vn 0.9439 0.1716 0.2822
vn 0.8881 0.3933 0.2379
vn 0.2246 -0.9482 0.2246
vn -0.8320 -0.3743 -0.4095
vn 0.8950 0.3607 0.2623
vn -0.8119 -0.4097 -0.4159
vn -0.6547 -0.4755 -0.5876
vn 0.5795 0.7539 0.3095
vn -0.8074 -0.0134 -0.5898
vn 0.6974 0.4294 0.5738
vn -0.7422 0.4140 0.5270
vn -0.2325 0.9504 -0.2066
vn -0.8749 -0.3429 -0.3420
vn -0.2446 0.9531 -0.1784
vn 0.9001 0.2399 0.3637
vn -0.8734 -0.3472 -0.3415
vn -0.9016 -0.2349 -0.3632
vn 0.8662 0.3307 0.3745
vn 0.0001 -0.7687 0.6397
vn 0.8990 0.2444 0.3634
vn 0.8714 0.3544 0.3392
vn -0.9012 -0.2325 -0.3657
vn 0.2325 -0.9504 0.2066
vn 0.1677 0.5081 -0.8448
vn -0.7471 -0.4887 -0.4505
vn 0.9694 0.0796 0.2320
vn 0.1798 0.4848 -0.8559
vn 0.8577 0.5116 0.0515
vn -0.9081 -0.2567 -0.3310
vn -0.4378 0.7751 0.4557
vn 0.4378 -0.7751 -0.4556
vn -0.0437 0.8190 -0.5721
vn 0.9612 0.1067 0.2542
vn -0.7705 -0.4666 -0.4344
vn -0.0130 -0.7521 0.6589
vn 0.4503 -0.7102 -0.5411
vn 0.9586 0.1148 0.2608
vn -0.7774 -0.4597 -0.4293
vn 0.1558 -0.9157 0.3705
vn 0.1397 0.5593 -0.8171
vn -0.7949 -0.0355 -0.6056
vn 0.4584 -0.6201 -0.6366
vn -0.3921 0.8857 0.2486
vn 0.7997 -0.3717 0.4716
vn -0.6110 0.7506 -0.2514
vn -0.8001 0.3707 -0.4716
vn -0.3501 -0.5908 0.7269
vn -0.3685 0.8699 0.3279
vn 0.0759 -0.8018 -0.5927
vn -0.5438 0.8059 0.2342
vn 0.3655 0.6625 0.6538
vn -0.3642 -0.2369 -0.9007
vn 0.8148 -0.5468 0.1927
vn -0.6370 -0.0490 -0.7693
vn 0.7116 0.1848 0.6779
vn -0.6271 -0.0888 -0.7739
vn 0.6251 -0.7105 -0.3232
vn 0.5886 0.2455 0.7702
vn 0.6298 -0.6994 -0.3379
vn -0.5343 0.8139 0.2282
vn 0.7372 0.1692 0.6541
vn 0.6011 0.3461 0.7203
vn 0.5647 -0.7827 -0.2618
vn -0.5346 -0.2090 -0.8188
vn 0.6054 0.3182 0.7295
vn -0.5009 -0.2260 -0.8355
vn -0.0927 -0.5757 -0.8124
vn -0.0730 0.8410 0.5360
vn -0.3668 -0.5176 -0.7730
vn 0.0565 0.7655 0.6409
vn -0.9571 -0.1996 0.2103
vn -0.5752 0.7709 0.2736
vn -0.5957 -0.2395 -0.7667
vn -0.5912 0.7519 0.2919
vn 0.6581 0.1565 0.7365
vn -0.5925 -0.2427 -0.7681
vn -0.6616 -0.1535 -0.7340
vn 0.5883 0.2078 0.7815
vn 0.2302 -0.9709 0.0662
vn 0.6552 0.1597 0.7383
vn 0.5881 0.2489 0.7695
vn -0.6619 -0.1500 -0.7344
vn 0.5752 -0.7709 -0.2736
vn 0.0577 0.9520 -0.3005
vn -0.4049 -0.2461 -0.8806
vn 0.8055 0.1402 0.5757
vn 0.0799 0.9450 -0.3171
vn 0.5507 0.5447 0.6325
vn -0.6628 -0.1915 -0.7239
vn -0.7796 0.1698 0.6029
vn 0.7796 -0.1698 -0.6029
vn -0.2998 0.9540 -0.0039
vn 0.7837 0.1439 0.6042
vn -0.4374 -0.2458 -0.8650
vn 0.2088 -0.9743 0.0849
vn 0.7758 -0.0647 -0.6277
vn 0.7771 0.1449 0.6125
vn -0.4472 -0.2457 -0.8600
vn 0.4690 -0.8687 -0.1593
vn 0.0074 0.9650 -0.2621
vn -0.6147 0.1728 -0.7696
vn 0.7590 0.0642 -0.6479
vn -0.7555 0.3940 0.5234
usemtl Matériau.012
s off
f 131//26 132//26 134//26 133//26
f 138//27 137//27 141//27 142//27
f 137//28 138//28 136//28 135//28
f 153//29 154//29 132//29 131//29
f 151//30 137//30 135//30 153//30
f 152//31 134//31 132//31 154//31
f 142//32 141//32 145//32 146//32
f 151//33 133//33 140//33 155//33
f 152//34 138//34 142//34 156//34
f 133//35 134//35 139//35 140//35
f 158//36 146//36 150//36 160//36
f 155//37 140//37 144//37 157//37
f 156//38 142//38 146//38 158//38
f 140//39 139//39 143//39 144//39
f 149//40 159//40 163//40 166//40
f 144//41 143//41 147//41 148//41
f 146//42 145//42 149//42 150//42
f 157//43 144//43 148//43 159//43
f 145//44 157//44 159//44 149//44
f 148//45 147//45 161//45 162//45
f 139//46 156//46 158//46 143//46
f 141//47 155//47 157//47 145//47
f 143//48 158//48 160//48 147//48
f 134//49 152//49 156//49 139//49
f 137//50 151//50 155//50 141//50
f 138//51 152//51 154//51 136//51
f 133//52 151//52 153//52 131//52
f 135//53 136//53 154//53 153//53
f 165//54 166//54 172//54 171//54
f 161//55 164//55 170//55 167//55
f 150//56 149//56 166//56 165//56
f 159//57 148//57 162//57 163//57
f 147//58 160//58 164//58 161//58
f 160//59 150//59 165//59 164//59
f 172//60 169//60 180//60 179//60
f 168//61 167//61 173//61 174//61
f 163//62 162//62 168//62 169//62
f 166//63 163//63 169//63 172//63
f 164//64 165//64 171//64 170//64
f 162//65 161//65 167//65 168//65
f 176//66 175//66 183//66 184//66
f 167//67 170//67 176//67 173//67
f 169//68 168//68 174//68 175//68
f 170//69 169//69 175//69 176//69
f 179//70 180//70 192//70 191//70
f 170//71 171//71 178//71 177//71
f 171//72 172//72 179//72 178//72
f 169//73 170//73 177//73 180//73
f 184//74 183//74 187//74 188//74
f 175//75 174//75 182//75 183//75
f 173//76 176//76 184//76 181//76
f 174//77 173//77 181//77 182//77
f 186//78 185//78 188//78 187//78
f 183//79 182//79 186//79 187//79
f 181//80 184//80 188//80 185//80
f 182//81 181//81 185//81 186//81
f 192//82 189//82 190//82 191//82
f 177//83 178//83 190//83 189//83
f 180//84 177//84 189//84 192//84
f 178//85 179//85 191//85 190//85
f 193//86 194//86 196//86 195//86
f 200//87 199//87 203//87 204//87
f 199//88 200//88 198//88 197//88
f 215//89 216//89 194//89 193//89
f 213//90 199//90 197//90 215//90
f 214//91 196//91 194//91 216//91
f 204//92 203//92 207//92 208//92
f 213//93 195//93 202//93 217//93
f 214//94 200//94 204//94 218//94
f 195//95 196//95 201//95 202//95
f 220//96 208//96 212//96 222//96
f 217//97 202//97 206//97 219//97
f 218//98 204//98 208//98 220//98
f 202//99 201//99 205//99 206//99
f 211//100 221//100 225//100 228//100
f 206//101 205//101 209//101 210//101
f 208//102 207//102 211//102 212//102
f 219//103 206//103 210//103 221//103
f 207//104 219//104 221//104 211//104
f 210//105 209//105 223//105 224//105
f 201//106 218//106 220//106 205//106
f 203//107 217//107 219//107 207//107
f 205//108 220//108 222//108 209//108
f 196//109 214//109 218//109 201//109
f 199//110 213//110 217//110 203//110
f 200//111 214//111 216//111 198//111
f 195//112 213//112 215//112 193//112
f 197//113 198//113 216//113 215//113
f 227//114 228//114 234//114 233//114
f 223//115 226//115 232//115 229//115
f 212//116 211//116 228//116 227//116
f 221//117 210//117 224//117 225//117
f 209//118 222//118 226//118 223//118
f 222//119 212//119 227//119 226//119
f 234//120 231//120 242//120 241//120
f 230//121 229//121 235//121 236//121
f 225//122 224//122 230//122 231//122
f 228//123 225//123 231//123 234//123
f 226//124 227//124 233//124 232//124
f 224//125 223//125 229//125 230//125
f 238//126 237//126 245//126 246//126
f 229//127 232//127 238//127 235//127
f 231//128 230//128 236//128 237//128
f 232//129 231//129 237//129 238//129
f 241//130 242//130 254//130 253//130
f 232//131 233//131 240//131 239//131
f 233//132 234//132 241//132 240//132
f 231//133 232//133 239//133 242//133
f 246//134 245//134 249//134 250//134
f 237//135 236//135 244//135 245//135
f 235//136 238//136 246//136 243//136
f 236//137 235//137 243//137 244//137
f 248//138 247//138 250//138 249//138
f 245//139 244//139 248//139 249//139
f 243//140 246//140 250//140 247//140
f 244//141 243//141 247//141 248//141
f 254//142 251//142 252//142 253//142
f 239//143 240//143 252//143 251//143
f 242//144 239//144 251//144 254//144
f 240//145 241//145 253//145 252//145
