# Blender v2.91.2 OBJ File: 'camionnete02.blend'
# www.blender.org
mtllib arme_000096.mtl
o Cube.046_Cube.010
v 369.901062 596.891479 -1041.498169
v 356.478088 396.474640 -1132.228760
v 491.421173 665.910522 -1211.933838
v 477.998138 465.493805 -1302.664673
v 186.511383 657.295044 -1147.793579
v 173.088318 456.878265 -1238.524170
v 308.031403 726.314087 -1318.229126
v 294.608429 525.897339 -1408.960083
v 202.592010 501.865753 -806.842041
v 189.169006 301.449066 -897.572693
v 5.779278 361.852631 -1003.867981
v 19.202301 562.269409 -913.137329
v 126.873680 458.860321 -700.644592
v 113.450661 258.443695 -791.375305
v -69.939110 318.847260 -897.670654
v -56.516083 519.264038 -806.940002
v 82.142670 433.454803 -637.907959
v 79.993027 291.868073 -714.307861
v -103.396767 352.271698 -820.603210
v -101.247116 493.858368 -744.203247
v 140.255188 658.657593 -610.194336
v -43.134537 719.061157 -716.489746
v 95.524193 633.251953 -547.457703
v -87.865540 693.655640 -653.753052
v 228.695282 516.691528 -843.452637
v 215.272308 316.274750 -934.183350
v 45.305580 577.095093 -949.748047
v 31.882530 376.678314 -1040.478760
v 207.023041 568.024780 -776.891052
v 23.633324 628.428467 -883.186462
v 233.126343 582.850586 -813.501709
v 49.736595 643.254150 -919.796997
v 213.451782 664.010864 -733.437256
v 30.062057 724.414429 -839.732544
v 239.555023 678.836548 -770.047913
v 56.165352 739.240234 -876.343262
v 133.016083 525.991455 -673.093872
v -50.373692 586.395020 -779.389343
v 139.444763 621.977417 -629.640015
v -43.944969 682.381104 -735.935425
v 176.827728 799.078003 -593.496643
v -6.562019 859.481567 -699.792053
v 132.096710 773.672363 -530.760132
v -51.292999 834.075928 -637.055420
v 448.520782 641.544678 -1151.764893
v 435.097809 441.127960 -1242.495605
v 265.131042 701.948242 -1258.060059
v 251.708069 501.531464 -1348.790894
v 399.726288 696.112427 -1265.081543
v 386.303314 495.695648 -1355.812378
v 278.206238 627.093262 -1094.645752
v 264.783203 426.676483 -1185.376465
v 110.897148 532.067627 -859.989624
v 97.474129 331.650787 -950.720276
v 35.178810 489.062225 -753.792297
v 23.773438 291.629425 -827.645142
v -9.552200 463.656586 -691.055664
v 1.212872 314.167633 -775.678467
v 48.560303 688.859375 -663.341980
v 3.829327 663.453735 -600.605408
v 123.577400 346.476593 -987.330994
v 137.000458 546.893311 -896.600342
v 115.328194 598.226685 -830.038757
v 141.431458 613.052368 -866.649414
v 121.756935 694.212646 -786.584839
v 147.860199 709.038330 -823.195557
v 41.321190 556.193359 -726.241577
v 47.749916 652.179321 -682.787659
v 85.132835 829.279785 -646.644348
v 40.401833 803.874146 -583.907776
v 343.402924 471.329681 -1295.643188
v 356.825958 671.746460 -1204.912354
v 445.573730 681.011353 -1238.507568
v 310.630646 411.575592 -1158.802734
v 143.321564 316.549957 -924.146545
v 54.688477 281.446869 -809.726379
v 32.127914 303.985016 -757.759521
v 182.847900 531.792358 -870.026428
v 187.278900 597.951416 -840.075623
v 193.707611 693.937378 -796.621704
v 402.673370 656.645508 -1178.338623
v 432.150757 480.594696 -1329.238525
v 324.053680 611.992310 -1068.072021
v 156.744568 516.966675 -833.415894
v 81.026222 473.961273 -727.218445
v 36.295219 448.555634 -664.481812
v 94.407753 673.758545 -636.768188
v 49.676765 648.352783 -574.031555
v 169.424866 331.375702 -960.757202
v 161.175629 583.125732 -803.464905
v 167.604340 679.111694 -760.011047
v 87.168625 541.092407 -699.667725
v 93.597359 637.078369 -656.213806
v 130.980286 814.178955 -620.070435
v 86.249275 788.773193 -557.333923
v 389.250336 456.228851 -1269.069580
v 166.911591 293.850372 -977.745300
v 121.064140 308.951263 -1004.319092
v 386.737030 418.703583 -1286.057617
v 340.889648 433.804413 -1312.631348
v 262.269928 389.151215 -1202.364746
v 308.117371 374.050262 -1175.790771
v 500.158295 547.729980 -1101.506836
v 465.393402 527.984863 -1052.748169
v 459.457947 439.362518 -1092.868164
v 494.222748 459.107819 -1141.627197
v 539.787903 534.677246 -1078.537231
v 505.022980 514.931885 -1029.778320
v 499.087494 426.309723 -1069.898438
v 533.852356 446.054901 -1118.657349
v 600.433777 514.702148 -1043.385986
v 565.668945 494.956879 -994.627197
v 559.733398 406.334686 -1034.747314
v 594.498230 426.079926 -1083.506348
v 639.458618 501.848480 -1020.766785
v 604.693787 482.103180 -972.007874
v 598.758362 393.480988 -1012.128052
v 633.523132 413.226227 -1060.886963
v 831.367615 707.335693 -1889.151733
v 785.520142 722.436646 -1915.725464
v 798.943115 922.853516 -1824.994995
v 844.790649 907.752563 -1798.421021
v 116.564949 892.507812 -631.225830
v 32.073067 920.337036 -680.198608
v 75.347725 869.097656 -573.417358
v -9.144096 896.927002 -622.390137
v 159.839600 841.268433 -524.444763
v 201.056854 864.678345 -582.252991
v 158.810913 878.593140 -606.739258
v 117.593666 855.182983 -548.931091
vn 0.8321 -0.2741 0.4823
vn 0.5513 0.3131 -0.7733
vn -0.8321 0.2741 -0.4823
vn 0.0609 0.9093 0.4117
vn -0.0609 -0.9093 -0.4117
vn -0.5513 -0.3131 0.7733
vn -0.4119 -0.8876 0.2062
vn -0.1438 -0.8943 -0.4237
vn -0.6212 -0.3895 0.6800
vn -0.8328 0.2732 -0.4814
vn 0.8328 -0.2732 0.4814
vn 0.4950 -0.0256 -0.8685
vn 0.4930 -0.0331 -0.8694
vn -0.4950 0.0256 0.8685
vn 0.8343 0.1800 -0.5211
vn -0.7565 0.5785 -0.3051
vn -0.5186 -0.4256 0.7416
vn -0.0448 -0.9296 -0.3659
vn -0.4706 0.1114 0.8753
vn -0.5544 -0.4399 0.7065
vn -0.0971 -0.9279 -0.3599
vn -0.1794 -0.3957 0.9007
vn 0.4083 -0.9096 -0.0772
vn 0.5099 0.6071 0.6094
vn 0.8195 -0.3767 0.4318
usemtl Matériau.011
s off
f 45//1 46//1 4//1 3//1
f 49//2 50//2 8//2 7//2
f 47//3 48//3 6//3 5//3
f 26//1 25//1 9//1 10//1
f 72//4 47//4 5//4 51//4
f 96//5 46//5 2//5 74//5
f 10//1 9//1 13//1 14//1
f 84//6 9//6 29//6 90//6
f 89//5 26//5 10//5 75//5
f 27//3 28//3 11//3 12//3
f 76//7 14//7 18//7 77//7
f 75//8 10//8 14//8 76//8
f 12//3 11//3 15//3 16//3
f 53//4 12//4 16//4 55//4
f 86//9 77//9 18//9 17//9
f 16//10 15//10 19//10 20//10
f 16//3 20//3 24//3 22//3
f 14//11 13//11 17//11 18//11
f 59//12 22//12 42//12 69//12
f 86//6 17//6 23//6 88//6
f 17//1 13//1 21//1 23//1
f 55//2 16//2 22//2 59//2
f 5//3 6//3 28//3 27//3
f 74//5 2//5 26//5 89//5
f 51//4 5//4 27//4 62//4
f 2//1 1//1 25//1 26//1
f 32//3 30//3 34//3 36//3
f 62//2 27//2 32//2 64//2
f 27//3 12//3 30//3 32//3
f 9//1 25//1 31//1 29//1
f 66//4 36//4 34//4 65//4
f 90//5 29//5 37//5 92//5
f 64//2 32//2 36//2 66//2
f 29//1 31//1 35//1 33//1
f 92//6 37//6 39//6 93//6
f 29//1 33//1 39//1 37//1
f 34//3 30//3 38//3 40//3
f 65//4 34//4 40//4 68//4
f 69//13 42//13 124//13 123//13
f 23//1 21//1 41//1 43//1
f 88//14 23//14 43//14 95//14
f 22//3 24//3 44//3 42//3
f 82//5 4//5 46//5 96//5
f 49//4 7//4 47//4 72//4
f 7//3 8//3 48//3 47//3
f 46//15 45//15 103//15 106//15
f 73//4 49//4 72//4 81//4
f 8//5 50//5 71//5 48//5
f 24//14 60//14 70//14 44//14
f 42//16 44//16 126//16 124//16
f 91//4 65//4 68//4 93//4
f 38//6 67//6 68//6 40//6
f 79//2 64//2 66//2 80//2
f 30//5 63//5 67//5 38//5
f 80//4 66//4 65//4 91//4
f 78//2 62//2 64//2 79//2
f 83//4 51//4 62//4 78//4
f 6//5 52//5 61//5 28//5
f 85//2 55//2 59//2 87//2
f 20//6 57//6 60//6 24//6
f 87//12 59//12 69//12 94//12
f 20//17 19//17 58//17 57//17
f 84//4 53//4 55//4 85//4
f 11//18 54//18 56//18 15//18
f 15//7 56//7 58//7 19//7
f 28//5 61//5 54//5 11//5
f 12//6 53//6 63//6 30//6
f 48//5 71//5 52//5 6//5
f 81//4 72//4 51//4 83//4
f 50//3 49//3 121//3 120//3
f 3//2 4//2 82//2 73//2
f 45//4 81//4 83//4 1//4
f 9//4 84//4 85//4 13//4
f 21//12 87//12 94//12 41//12
f 13//2 85//2 87//2 21//2
f 1//4 83//4 78//4 25//4
f 25//2 78//2 79//2 31//2
f 35//4 80//4 91//4 33//4
f 31//2 79//2 80//2 35//2
f 33//4 91//4 93//4 39//4
f 70//19 95//19 130//19 125//19
f 3//4 73//4 81//4 45//4
f 50//5 82//5 96//5 71//5
f 60//14 88//14 95//14 70//14
f 67//6 92//6 93//6 68//6
f 63//5 90//5 92//5 67//5
f 52//3 71//3 100//3 101//3
f 57//6 86//6 88//6 60//6
f 57//20 58//20 77//20 86//20
f 54//21 75//21 76//21 56//21
f 56//7 76//7 77//7 58//7
f 61//5 89//5 75//5 54//5
f 53//6 84//6 90//6 63//6
f 89//6 61//6 98//6 97//6
f 101//5 102//5 97//5 98//5
f 100//5 99//5 102//5 101//5
f 61//3 52//3 101//3 98//3
f 74//1 89//1 97//1 102//1
f 71//2 96//2 99//2 100//2
f 96//1 74//1 102//1 99//1
f 106//2 103//2 107//2 110//2
f 1//22 2//22 105//22 104//22
f 2//23 46//23 106//23 105//23
f 45//24 1//24 104//24 103//24
f 109//5 110//5 114//5 113//5
f 104//6 105//6 109//6 108//6
f 105//5 106//5 110//5 109//5
f 103//4 104//4 108//4 107//4
f 113//5 114//5 118//5 117//5
f 107//4 108//4 112//4 111//4
f 110//2 107//2 111//2 114//2
f 108//6 109//6 113//6 112//6
f 116//1 117//1 118//1 115//1
f 111//4 112//4 116//4 115//4
f 114//2 111//2 115//2 118//2
f 122//2 119//2 120//2 121//2
f 82//5 50//5 120//5 119//5
f 73//1 82//1 119//1 122//1
f 49//4 73//4 122//4 121//4
f 123//4 124//4 126//4 125//4
f 129//4 123//4 125//4 130//4
f 128//4 129//4 130//4 127//4
f 95//19 43//19 127//19 130//19
f 94//13 69//13 123//13 129//13
f 43//25 41//25 128//25 127//25
f 44//19 70//19 125//19 126//19
f 41//13 94//13 129//13 128//13
o Cube.048_Cube.024
v -564.598938 479.490936 181.814697
v -732.389893 348.438293 67.495247
v -422.138031 467.020752 -12.985023
v -590.191650 333.755371 -131.666992
v -670.513062 647.174194 20.585487
v -756.544128 579.979858 -38.029289
v -597.469360 640.780334 -79.293816
v -683.508484 572.872192 -137.782043
v -344.483246 481.479523 -468.197296
v -256.101013 507.543518 -381.410950
v -305.143188 623.243835 -366.214569
v -393.525391 597.179810 -453.000946
v -209.704742 575.466797 -609.238831
v -144.724182 594.629639 -545.431396
v -180.781067 679.695190 -534.258728
v -245.761719 660.532288 -598.066040
v -124.708435 636.579224 -695.880249
v -77.221436 650.583191 -649.250793
v -103.571411 712.747925 -641.085938
v -151.058289 698.744019 -687.715515
v -477.670227 573.111572 -37.616020
v -655.950623 432.102692 -161.216705
v -628.905640 586.570312 169.186768
v -807.036377 447.441772 47.822601
v -274.529816 568.152649 -375.157166
v -368.358398 540.482422 -467.291595
v -149.396851 644.343994 -551.420959
v -218.381744 624.000183 -619.160278
v -72.581909 691.589600 -663.234436
v -122.995056 676.722656 -712.737610
v -66.713806 666.216125 -763.841980
v -19.226868 680.220093 -717.212341
v -10.907349 729.912048 -737.552124
v -61.320618 715.045166 -787.055115
v -89.949524 735.731384 -761.055969
v -42.462646 749.735413 -714.426392
v -25.549500 688.738953 -812.527222
v 21.937439 702.742981 -765.897644
v 30.256836 752.434937 -786.237427
v -20.156372 737.568054 -835.740601
v -48.785217 758.254211 -809.741333
v -1.298340 772.258240 -763.111816
v 17.555237 682.621399 -836.913452
v 48.120483 691.635071 -806.900085
v 53.475220 723.619629 -819.991821
v 21.026489 714.050415 -851.854553
v -8.922241 785.639282 -861.618042
v -37.551147 806.325500 -835.618958
v 9.935852 820.329590 -788.989563
v 41.490906 800.506226 -812.114990
v 46.260803 677.284546 -854.142456
v 66.867065 683.361328 -833.908325
v 70.477173 704.924438 -842.734314
v 48.601196 698.473145 -864.215515
v 72.846497 683.823547 -875.119263
v 85.727661 687.622192 -862.470703
v 87.984558 701.101562 -867.988159
v 74.309570 697.068848 -881.416138
v 0.535217 817.423706 -863.151550
v -18.500488 831.178223 -845.864197
v 13.074158 840.489624 -814.859619
v 34.055664 827.308899 -830.236206
v -315.904419 600.213013 355.544342
v -301.829590 359.228271 344.327728
v -158.453125 610.557861 172.446167
v -149.738220 376.813568 157.361023
v -462.683990 541.954773 154.566620
v -455.467438 418.395111 148.815567
v -381.710571 553.777466 60.349319
v -377.485962 427.411621 52.952469
v 40.250427 409.968964 -177.512024
v 117.423401 488.590759 -115.611275
v 65.267883 586.862183 -174.615540
v -11.060669 509.751526 -236.105835
v 188.638000 414.969086 -335.143341
v 246.238037 471.675262 -289.016205
v 208.513000 545.037720 -332.095673
v 150.912903 488.331451 -378.222900
v 281.954773 420.946777 -433.744171
v 324.048157 462.386932 -400.035065
v 296.479004 515.999268 -431.516968
v 254.385803 474.559082 -465.226105
v -260.635132 621.250916 112.300056
v -254.494568 366.137024 94.877373
v -430.900452 603.302979 305.273438
v -415.958282 347.468018 293.365631
v 99.117737 538.885681 -146.249756
v 15.946350 457.004852 -212.854980
v 241.839233 508.489563 -322.995392
v 180.689636 448.288940 -371.964874
v 329.835144 488.145233 -434.699249
v 285.147827 444.151428 -470.485626
v 346.672302 410.106995 -501.232452
v 388.765442 451.547150 -467.523102
v 398.823792 480.998535 -512.061279
v 354.136658 437.004761 -547.847839
v 322.718201 466.844666 -541.070618
v 364.811462 508.284851 -507.361359
v 392.644348 403.370117 -550.356750
v 434.737610 444.810181 -516.647461
v 444.796326 474.261627 -561.185974
v 400.108948 430.267853 -596.972290
v 368.690369 460.107788 -590.194946
v 410.783630 501.547974 -556.485840
v 438.165222 387.336853 -563.041199
v 465.258972 414.009949 -541.344238
v 471.733093 432.966492 -570.011536
v 442.969910 404.649689 -593.045532
v 413.672668 455.418335 -644.828186
v 382.254089 485.258301 -638.050964
v 424.347351 526.698425 -604.341736
v 458.359924 499.412109 -609.041870
v 468.596375 375.061340 -571.561707
v 486.862000 393.043640 -556.934021
v 491.226990 405.823608 -576.261108
v 471.835388 386.733215 -591.789856
v 497.227478 370.181702 -590.163879
v 508.645569 381.422668 -581.019958
v 511.373962 389.411621 -593.101318
v 499.252258 377.477997 -602.808411
v 422.986511 481.125366 -663.655029
v 402.095642 500.966400 -659.148560
v 430.084045 528.520508 -636.734924
v 452.699402 510.377502 -639.860046
vn 0.4128 -0.8384 0.3560
vn -0.2804 0.9238 -0.2608
vn -0.4130 0.8371 -0.3588
vn -0.4589 -0.1728 0.8716
vn 0.4109 0.8785 0.2436
vn -0.6753 -0.5906 -0.4417
vn -0.3395 0.9384 0.0640
vn 0.8020 0.4043 0.4398
vn -0.7243 -0.0622 -0.6866
vn 0.4938 -0.8678 0.0567
vn -0.6768 -0.0632 -0.7335
vn 0.7728 0.1604 0.6141
vn -0.6761 -0.1042 -0.7294
vn 0.4330 -0.8842 -0.1754
vn 0.6725 0.2613 0.6925
vn 0.4415 -0.8778 -0.1860
vn -0.3300 0.9425 0.0531
vn 0.7937 0.1311 0.5940
vn 0.7035 0.3439 0.6219
vn 0.3645 -0.9265 -0.0930
vn -0.6148 -0.2488 -0.7484
vn 0.7115 0.3050 0.6331
vn -0.5866 -0.2760 -0.7614
vn -0.5870 -0.4561 -0.6689
vn 0.5288 0.7526 0.3925
vn -0.8098 -0.0652 -0.5830
vn 0.7184 0.4901 0.4937
vn -0.7191 0.5495 0.4254
vn -0.3766 0.9201 0.1072
vn -0.6778 -0.2533 -0.6903
vn -0.3952 0.9094 0.1294
vn 0.7187 0.1539 0.6780
vn -0.6755 -0.2573 -0.6910
vn -0.7213 -0.1497 -0.6762
vn 0.6646 0.2278 0.7116
vn 0.0171 -0.9623 0.2716
vn 0.7168 0.1580 0.6791
vn 0.6726 0.2645 0.6911
vn -0.7209 -0.1465 -0.6773
vn 0.3766 -0.9201 -0.1072
vn 0.2454 0.8308 -0.4995
vn -0.5001 -0.3261 -0.8022
vn 0.8494 0.0718 0.5229
vn 0.2645 0.8157 -0.5144
vn 0.6924 0.5260 0.4939
vn -0.7303 -0.1836 -0.6580
vn -0.6869 0.4624 0.5607
vn 0.6869 -0.4624 -0.5607
vn -0.0848 0.9748 -0.2064
vn 0.8306 0.0861 0.5502
vn -0.5308 -0.3153 -0.7867
vn -0.0034 -0.9568 0.2908
vn 0.7046 -0.3666 -0.6075
vn 0.8248 0.0904 0.5581
vn -0.5400 -0.3120 -0.7817
vn 0.2586 -0.9656 0.0267
vn 0.2016 0.8625 -0.4643
vn -0.6068 0.1428 -0.7819
vn 0.7151 -0.2444 -0.6549
vn -0.6194 0.6539 0.4344
vn 0.7670 0.0013 0.6417
vn -0.5306 0.4344 -0.7279
vn -0.7670 -0.0014 -0.6416
vn -0.4012 -0.0660 0.9136
vn -0.3993 0.8798 -0.2581
vn 0.1058 -0.9944 -0.0075
vn -0.3535 0.7750 -0.5238
vn 0.3850 0.9169 0.1050
vn -0.3271 -0.7551 -0.5682
vn 0.7399 -0.3094 0.5974
vn -0.5936 -0.5188 -0.6152
vn 0.7019 0.5332 0.4722
vn -0.5930 -0.5499 -0.5882
vn 0.4591 -0.7867 0.4127
vn 0.5921 0.6567 0.4670
vn 0.4659 -0.7928 0.3929
vn -0.3413 0.7770 -0.5289
vn 0.7243 0.5022 0.4724
vn 0.6299 0.6857 0.3646
vn 0.3798 -0.7845 0.4902
vn -0.5288 -0.6747 -0.5149
vn 0.6278 0.6726 0.3918
vn -0.4992 -0.7024 -0.5074
vn -0.0847 -0.9653 -0.2470
vn -0.0395 0.9858 -0.1631
vn -0.3218 -0.8818 -0.3447
vn 0.0174 0.9958 0.0901
vn -0.9703 -0.0675 0.2321
vn -0.3933 0.7866 -0.4759
vn -0.5977 -0.6492 -0.4703
vn -0.4141 0.7893 -0.4533
vn 0.6405 0.5639 0.5212
vn -0.5953 -0.6528 -0.4685
vn -0.6434 -0.5596 -0.5224
vn 0.5825 0.6398 0.5013
vn -0.0045 -0.6283 0.7780
vn 0.6385 0.5678 0.5196
vn 0.5924 0.6585 0.4641
vn -0.6429 -0.5576 -0.5252
vn 0.3933 -0.7866 0.4759
vn 0.2910 0.4082 -0.8653
vn -0.4085 -0.7607 -0.5044
vn 0.7877 0.4169 0.4536
vn 0.3117 0.3886 -0.8671
vn 0.6311 0.7601 0.1545
vn -0.6539 -0.5775 -0.4888
vn -0.7468 0.6520 0.1310
vn 0.7468 -0.6520 -0.1310
vn -0.0699 0.6713 -0.7379
vn 0.7660 0.4429 0.4659
vn -0.4407 -0.7451 -0.5005
vn -0.0269 -0.6142 0.7887
vn 0.7687 -0.5995 -0.2229
vn 0.7594 0.4505 0.4694
vn -0.4505 -0.7402 -0.4992
vn 0.2619 -0.7550 0.6011
vn 0.2433 0.4512 -0.8586
vn -0.5205 -0.3737 -0.7677
vn 0.7832 -0.5262 -0.3311
vn -0.6677 0.7405 -0.0766
usemtl Matériau.012
s off
f 131//26 132//26 134//26 133//26
f 138//27 137//27 141//27 142//27
f 137//28 138//28 136//28 135//28
f 153//29 154//29 132//29 131//29
f 151//30 137//30 135//30 153//30
f 152//31 134//31 132//31 154//31
f 142//32 141//32 145//32 146//32
f 151//33 133//33 140//33 155//33
f 152//34 138//34 142//34 156//34
f 133//35 134//35 139//35 140//35
f 158//36 146//36 150//36 160//36
f 155//37 140//37 144//37 157//37
f 156//38 142//38 146//38 158//38
f 140//39 139//39 143//39 144//39
f 149//40 159//40 163//40 166//40
f 144//41 143//41 147//41 148//41
f 146//42 145//42 149//42 150//42
f 157//43 144//43 148//43 159//43
f 145//44 157//44 159//44 149//44
f 148//45 147//45 161//45 162//45
f 139//46 156//46 158//46 143//46
f 141//47 155//47 157//47 145//47
f 143//48 158//48 160//48 147//48
f 134//49 152//49 156//49 139//49
f 137//50 151//50 155//50 141//50
f 138//51 152//51 154//51 136//51
f 133//52 151//52 153//52 131//52
f 135//53 136//53 154//53 153//53
f 165//54 166//54 172//54 171//54
f 161//55 164//55 170//55 167//55
f 150//56 149//56 166//56 165//56
f 159//57 148//57 162//57 163//57
f 147//58 160//58 164//58 161//58
f 160//59 150//59 165//59 164//59
f 172//60 169//60 180//60 179//60
f 168//61 167//61 173//61 174//61
f 163//62 162//62 168//62 169//62
f 166//63 163//63 169//63 172//63
f 164//64 165//64 171//64 170//64
f 162//65 161//65 167//65 168//65
f 176//66 175//66 183//66 184//66
f 167//67 170//67 176//67 173//67
f 169//68 168//68 174//68 175//68
f 170//69 169//69 175//69 176//69
f 179//70 180//70 192//70 191//70
f 170//71 171//71 178//71 177//71
f 171//72 172//72 179//72 178//72
f 169//73 170//73 177//73 180//73
f 184//74 183//74 187//74 188//74
f 175//75 174//75 182//75 183//75
f 173//76 176//76 184//76 181//76
f 174//77 173//77 181//77 182//77
f 186//78 185//78 188//78 187//78
f 183//79 182//79 186//79 187//79
f 181//80 184//80 188//80 185//80
f 182//81 181//81 185//81 186//81
f 192//82 189//82 190//82 191//82
f 177//83 178//83 190//83 189//83
f 180//84 177//84 189//84 192//84
f 178//85 179//85 191//85 190//85
f 193//86 194//86 196//86 195//86
f 200//87 199//87 203//87 204//87
f 199//88 200//88 198//88 197//88
f 215//89 216//89 194//89 193//89
f 213//90 199//90 197//90 215//90
f 214//91 196//91 194//91 216//91
f 204//92 203//92 207//92 208//92
f 213//93 195//93 202//93 217//93
f 214//94 200//94 204//94 218//94
f 195//95 196//95 201//95 202//95
f 220//96 208//96 212//96 222//96
f 217//97 202//97 206//97 219//97
f 218//98 204//98 208//98 220//98
f 202//99 201//99 205//99 206//99
f 211//100 221//100 225//100 228//100
f 206//101 205//101 209//101 210//101
f 208//102 207//102 211//102 212//102
f 219//103 206//103 210//103 221//103
f 207//104 219//104 221//104 211//104
f 210//105 209//105 223//105 224//105
f 201//106 218//106 220//106 205//106
f 203//107 217//107 219//107 207//107
f 205//108 220//108 222//108 209//108
f 196//109 214//109 218//109 201//109
f 199//110 213//110 217//110 203//110
f 200//111 214//111 216//111 198//111
f 195//112 213//112 215//112 193//112
f 197//113 198//113 216//113 215//113
f 227//114 228//114 234//114 233//114
f 223//115 226//115 232//115 229//115
f 212//116 211//116 228//116 227//116
f 221//117 210//117 224//117 225//117
f 209//118 222//118 226//118 223//118
f 222//119 212//119 227//119 226//119
f 234//120 231//120 242//120 241//120
f 230//121 229//121 235//121 236//121
f 225//122 224//122 230//122 231//122
f 228//123 225//123 231//123 234//123
f 226//124 227//124 233//124 232//124
f 224//125 223//125 229//125 230//125
f 238//126 237//126 245//126 246//126
f 229//127 232//127 238//127 235//127
f 231//128 230//128 236//128 237//128
f 232//129 231//129 237//129 238//129
f 241//130 242//130 254//130 253//130
f 232//131 233//131 240//131 239//131
f 233//132 234//132 241//132 240//132
f 231//133 232//133 239//133 242//133
f 246//134 245//134 249//134 250//134
f 237//135 236//135 244//135 245//135
f 235//136 238//136 246//136 243//136
f 236//137 235//137 243//137 244//137
f 248//138 247//138 250//138 249//138
f 245//139 244//139 248//139 249//139
f 243//140 246//140 250//140 247//140
f 244//141 243//141 247//141 248//141
f 254//142 251//142 252//142 253//142
f 239//143 240//143 252//143 251//143
f 242//144 239//144 251//144 254//144
f 240//145 241//145 253//145 252//145
