# Blender v2.91.2 OBJ File: 'camionnete02.blend'
# www.blender.org
mtllib arme_000057.mtl
o Cube.046_Cube.010
v 275.183289 428.967346 -1087.280640
v 254.709900 210.301254 -1105.857300
v 377.448242 435.968658 -1282.401001
v 356.974884 217.302582 -1300.977539
v 81.013763 455.711090 -1188.087769
v 60.540348 237.045013 -1206.664062
v 183.278687 462.712433 -1383.208008
v 162.805313 244.046326 -1401.784546
v 134.384705 419.327911 -818.638611
v 113.911316 200.661835 -837.215149
v -80.258209 227.405579 -938.022095
v -59.784809 446.071655 -919.445557
v 70.664139 414.965424 -697.060303
v 50.190731 196.299332 -715.636963
v -143.978851 223.043076 -816.443909
v -123.505463 441.709198 -797.867310
v 33.020847 412.388275 -625.237427
v 24.566639 253.738129 -650.673950
v -169.602966 280.481903 -751.480957
v -161.148773 439.132050 -726.044373
v 91.074203 632.955444 -678.541199
v -103.095329 659.699219 -779.348267
v 53.430943 630.378296 -606.718262
v -140.738602 657.122192 -707.525330
v 156.351898 420.831818 -860.551697
v 135.878510 202.165771 -879.128235
v -37.817661 447.575592 -961.358704
v -58.291077 228.909515 -979.935181
v 141.143127 491.511200 -812.506348
v -53.026409 518.255005 -913.313293
v 163.110321 493.015137 -854.419312
v -31.059250 519.758911 -955.226318
v 150.948532 596.237427 -803.609436
v -43.221016 622.981079 -904.416321
v 172.915649 597.741333 -845.522583
v -21.253849 624.485107 -946.329468
v 78.862732 487.247345 -693.675964
v -115.306854 513.991089 -794.482910
v 88.668091 591.973511 -684.779053
v -105.501465 618.717285 -785.586060
v 127.547241 770.288330 -712.359741
v -66.622330 797.031982 -813.166809
v 89.903931 767.711060 -640.536926
v -104.265579 794.454834 -741.343811
v 341.345581 433.496979 -1213.517578
v 320.872131 214.830902 -1232.094116
v 147.175980 460.240753 -1314.324341
v 126.702637 241.574631 -1332.901001
v 280.363464 449.340576 -1332.804565
v 259.890106 230.674469 -1351.380981
v 178.098526 442.339233 -1137.684204
v 157.625137 223.673126 -1156.260742
v 37.299953 432.699768 -869.042053
v 16.826550 214.033691 -887.618530
v -26.420650 428.337311 -747.463745
v -43.161850 217.936249 -751.357178
v -64.063934 425.760132 -675.640869
v -60.440247 256.667389 -707.552551
v -6.010574 646.327393 -728.944641
v -43.653831 643.750244 -657.121826
v 38.793720 215.537628 -929.531677
v 59.267109 434.203674 -910.955139
v 44.058369 504.883087 -862.909790
v 66.025513 506.386963 -904.822815
v 53.863766 609.609253 -854.012878
v 75.830902 611.113159 -895.926025
v -18.222061 500.619202 -744.079407
v -8.416679 605.345459 -735.182495
v 30.462437 783.660156 -762.763245
v -7.180843 781.082886 -690.940308
v 223.787354 228.202759 -1282.497559
v 244.260773 446.868866 -1263.920898
v 328.905853 442.654633 -1307.602661
v 206.167511 216.987198 -1131.058960
v 65.368927 207.347778 -862.416870
v -10.429600 213.427917 -734.363647
v -27.707983 252.159027 -690.558960
v 107.809509 427.517731 -885.753357
v 114.567902 499.701019 -879.621094
v 124.373291 604.427246 -870.724304
v 292.803162 440.182922 -1238.719360
v 308.432495 223.988525 -1326.179321
v 226.640900 435.653290 -1112.482544
v 85.842331 426.013824 -843.840332
v 22.121727 421.651367 -722.262085
v -15.521561 419.074188 -650.439148
v 42.531834 639.641479 -703.742920
v 4.888565 637.064209 -631.920044
v 87.336121 208.851700 -904.329956
v 92.600754 498.197144 -837.708069
v 102.406128 602.923340 -828.811157
v 30.320332 493.933289 -718.877747
v 40.125706 598.659546 -709.980774
v 79.004852 776.974243 -737.561462
v 41.361561 774.396973 -665.738647
v 272.329742 221.516846 -1257.295898
v 83.502747 167.909454 -907.808167
v 34.960354 174.595383 -933.009827
v 268.496368 180.574615 -1260.774170
v 219.954041 187.260529 -1285.975830
v 153.791779 182.730896 -1159.738892
v 202.334183 176.044952 -1134.537109
v 399.035339 359.972626 -1140.994995
v 369.779053 357.969635 -1085.174316
v 360.726044 261.277740 -1093.388550
v 389.982239 263.280731 -1149.209229
v 440.994354 354.193451 -1119.211304
v 411.738098 352.190460 -1063.390503
v 402.685028 255.498596 -1071.604858
v 431.941315 257.501556 -1127.425537
v 505.205109 345.349518 -1085.875000
v 475.948761 343.346527 -1030.054443
v 466.895721 246.654633 -1038.268799
v 496.151886 248.657623 -1094.089478
v 546.523865 339.658508 -1064.423706
v 517.267639 337.655518 -1008.603027
v 508.214569 240.963623 -1016.817322
v 537.470764 242.966599 -1072.638062
v 644.392700 246.989441 -1967.186401
v 595.850342 253.675385 -1992.388306
v 616.323608 472.341492 -1973.811768
v 664.866028 465.655548 -1948.609985
v 62.591122 847.723145 -772.098694
v -26.867260 860.044556 -818.542847
v 27.904873 845.348389 -705.917664
v -61.553463 857.669800 -752.361816
v 117.363235 833.026978 -659.473755
v 152.049530 835.401733 -725.654480
v 107.320358 841.562622 -748.876526
v 72.634048 839.187622 -682.695679
vn 0.8810 -0.1213 0.4574
vn 0.4640 0.0318 -0.8853
vn -0.8810 0.1213 -0.4574
vn 0.0929 0.9921 0.0843
vn -0.0929 -0.9921 -0.0843
vn -0.4640 -0.0318 0.8853
vn -0.3777 -0.7625 0.5252
vn -0.1767 -0.9799 -0.0920
vn -0.5423 -0.1327 0.8296
vn -0.8816 0.1208 -0.4562
vn 0.8816 -0.1208 0.4562
vn 0.4019 -0.3182 -0.8586
vn 0.4000 -0.3255 -0.8568
vn -0.4019 0.3182 0.8586
vn 0.7732 -0.0185 -0.6339
vn -0.7909 0.4650 -0.3978
vn -0.4334 -0.1491 0.8888
vn -0.0719 -0.9968 -0.0363
vn -0.3780 0.4009 0.8345
vn -0.4725 -0.1732 0.8641
vn -0.1232 -0.9920 -0.0258
vn -0.0799 -0.0770 0.9938
vn 0.4086 -0.8944 0.1821
vn 0.5636 0.7605 0.3227
vn 0.8645 -0.2345 0.4447
usemtl Matériau.011
s off
f 45//1 46//1 4//1 3//1
f 49//2 50//2 8//2 7//2
f 47//3 48//3 6//3 5//3
f 26//1 25//1 9//1 10//1
f 72//4 47//4 5//4 51//4
f 96//5 46//5 2//5 74//5
f 10//1 9//1 13//1 14//1
f 84//6 9//6 29//6 90//6
f 89//5 26//5 10//5 75//5
f 27//3 28//3 11//3 12//3
f 76//7 14//7 18//7 77//7
f 75//8 10//8 14//8 76//8
f 12//3 11//3 15//3 16//3
f 53//4 12//4 16//4 55//4
f 86//9 77//9 18//9 17//9
f 16//10 15//10 19//10 20//10
f 16//3 20//3 24//3 22//3
f 14//11 13//11 17//11 18//11
f 59//12 22//12 42//12 69//12
f 86//6 17//6 23//6 88//6
f 17//1 13//1 21//1 23//1
f 55//2 16//2 22//2 59//2
f 5//3 6//3 28//3 27//3
f 74//5 2//5 26//5 89//5
f 51//4 5//4 27//4 62//4
f 2//1 1//1 25//1 26//1
f 32//3 30//3 34//3 36//3
f 62//2 27//2 32//2 64//2
f 27//3 12//3 30//3 32//3
f 9//1 25//1 31//1 29//1
f 66//4 36//4 34//4 65//4
f 90//5 29//5 37//5 92//5
f 64//2 32//2 36//2 66//2
f 29//1 31//1 35//1 33//1
f 92//6 37//6 39//6 93//6
f 29//1 33//1 39//1 37//1
f 34//3 30//3 38//3 40//3
f 65//4 34//4 40//4 68//4
f 69//13 42//13 124//13 123//13
f 23//1 21//1 41//1 43//1
f 88//14 23//14 43//14 95//14
f 22//3 24//3 44//3 42//3
f 82//5 4//5 46//5 96//5
f 49//4 7//4 47//4 72//4
f 7//3 8//3 48//3 47//3
f 46//15 45//15 103//15 106//15
f 73//4 49//4 72//4 81//4
f 8//5 50//5 71//5 48//5
f 24//14 60//14 70//14 44//14
f 42//16 44//16 126//16 124//16
f 91//4 65//4 68//4 93//4
f 38//6 67//6 68//6 40//6
f 79//2 64//2 66//2 80//2
f 30//5 63//5 67//5 38//5
f 80//4 66//4 65//4 91//4
f 78//2 62//2 64//2 79//2
f 83//4 51//4 62//4 78//4
f 6//5 52//5 61//5 28//5
f 85//2 55//2 59//2 87//2
f 20//6 57//6 60//6 24//6
f 87//12 59//12 69//12 94//12
f 20//17 19//17 58//17 57//17
f 84//4 53//4 55//4 85//4
f 11//18 54//18 56//18 15//18
f 15//7 56//7 58//7 19//7
f 28//5 61//5 54//5 11//5
f 12//6 53//6 63//6 30//6
f 48//5 71//5 52//5 6//5
f 81//4 72//4 51//4 83//4
f 50//3 49//3 121//3 120//3
f 3//2 4//2 82//2 73//2
f 45//4 81//4 83//4 1//4
f 9//4 84//4 85//4 13//4
f 21//12 87//12 94//12 41//12
f 13//2 85//2 87//2 21//2
f 1//4 83//4 78//4 25//4
f 25//2 78//2 79//2 31//2
f 35//4 80//4 91//4 33//4
f 31//2 79//2 80//2 35//2
f 33//4 91//4 93//4 39//4
f 70//19 95//19 130//19 125//19
f 3//4 73//4 81//4 45//4
f 50//5 82//5 96//5 71//5
f 60//14 88//14 95//14 70//14
f 67//6 92//6 93//6 68//6
f 63//5 90//5 92//5 67//5
f 52//3 71//3 100//3 101//3
f 57//6 86//6 88//6 60//6
f 57//20 58//20 77//20 86//20
f 54//21 75//21 76//21 56//21
f 56//7 76//7 77//7 58//7
f 61//5 89//5 75//5 54//5
f 53//6 84//6 90//6 63//6
f 89//6 61//6 98//6 97//6
f 101//5 102//5 97//5 98//5
f 100//5 99//5 102//5 101//5
f 61//3 52//3 101//3 98//3
f 74//1 89//1 97//1 102//1
f 71//2 96//2 99//2 100//2
f 96//1 74//1 102//1 99//1
f 106//2 103//2 107//2 110//2
f 1//22 2//22 105//22 104//22
f 2//23 46//23 106//23 105//23
f 45//24 1//24 104//24 103//24
f 109//5 110//5 114//5 113//5
f 104//6 105//6 109//6 108//6
f 105//5 106//5 110//5 109//5
f 103//4 104//4 108//4 107//4
f 113//5 114//5 118//5 117//5
f 107//4 108//4 112//4 111//4
f 110//2 107//2 111//2 114//2
f 108//6 109//6 113//6 112//6
f 116//1 117//1 118//1 115//1
f 111//4 112//4 116//4 115//4
f 114//2 111//2 115//2 118//2
f 122//2 119//2 120//2 121//2
f 82//5 50//5 120//5 119//5
f 73//1 82//1 119//1 122//1
f 49//4 73//4 122//4 121//4
f 123//4 124//4 126//4 125//4
f 129//4 123//4 125//4 130//4
f 128//4 129//4 130//4 127//4
f 95//19 43//19 127//19 130//19
f 94//13 69//13 123//13 129//13
f 43//25 41//25 128//25 127//25
f 44//19 70//19 125//19 126//19
f 41//13 94//13 129//13 128//13
o Cube.048_Cube.024
v -562.688599 450.478485 181.055756
v -723.690491 339.902466 38.757164
v -424.288330 496.819763 -11.545906
v -585.804993 387.404388 -152.792786
v -683.613098 644.645142 67.007919
v -766.163208 587.949707 -5.952553
v -612.651367 668.405640 -31.744324
v -695.033325 612.088989 -104.511940
v -374.106659 522.820679 -437.701691
v -277.464233 573.657837 -373.682556
v -326.001007 689.105103 -392.087830
v -422.643433 638.267944 -456.107025
v -255.881897 562.682251 -614.691711
v -184.828186 600.058899 -567.623474
v -220.513489 684.938293 -581.155396
v -291.567261 647.561646 -628.223816
v -181.106140 590.310120 -724.742371
v -129.180908 617.624451 -690.345459
v -155.259277 679.653137 -700.234558
v -207.184448 652.338806 -734.631470
v -487.516022 601.648865 -8.743721
v -658.524292 485.738037 -158.726227
v -634.483276 552.416321 195.718689
v -805.406555 435.026367 44.651199
v -295.846375 633.411926 -385.671844
v -398.444244 579.442017 -453.636017
v -190.680145 645.214111 -588.977234
v -266.112366 605.534180 -638.945984
v -126.504272 651.732666 -717.328064
v -181.629150 622.735168 -753.844666
v -130.866882 594.881897 -804.213257
v -78.941711 622.196228 -769.816528
v -73.369995 662.362915 -805.980103
v -128.494751 633.365295 -842.496765
v -154.495056 662.037720 -821.872253
v -102.570068 689.352112 -787.475403
v -95.271118 599.387146 -861.525452
v -43.346008 626.701538 -827.128601
v -37.774414 666.868103 -863.292175
v -92.899231 637.870544 -899.808899
v -118.899414 666.542969 -879.184448
v -66.974426 693.857300 -844.787415
v -54.876892 584.678284 -886.864624
v -21.455017 602.259338 -864.724915
v -17.868713 628.112793 -888.001953
v -53.350159 609.448364 -911.505859
v -84.987549 674.636292 -940.947510
v -110.987915 703.308777 -920.323059
v -59.062744 730.623047 -885.926147
v -29.862793 703.633850 -904.430847
v -28.064697 573.367310 -904.257324
v -5.532532 585.219971 -889.331360
v -3.114746 602.649658 -905.023926
v -27.035400 590.066650 -920.869812
v -3.890320 572.112549 -928.825745
v 10.194885 579.521729 -919.495361
v 11.706299 590.417236 -929.304993
v -3.246826 582.551453 -939.210449
v -76.113342 703.966309 -953.716248
v -93.401306 723.030945 -940.002747
v -58.875671 741.192627 -917.131897
v -39.460144 723.247131 -929.435913
v -299.279144 419.527039 486.792847
v -294.083923 282.683594 287.683716
v -152.051331 582.119507 374.709656
v -156.758423 448.211487 177.503052
v -463.332886 537.294312 330.116241
v -460.669128 467.130890 228.027435
v -388.244568 624.141479 277.184326
v -390.258545 552.001709 171.534668
v -24.241272 724.076660 -45.312370
v 74.674133 756.635742 27.532677
v 16.543640 863.879272 59.442345
v -81.546204 832.012695 -12.318596
v 70.881653 841.614685 -200.321808
v 144.290222 864.572510 -147.927155
v 102.158264 943.929504 -123.669441
v 28.749817 920.971741 -176.064178
v 131.107727 917.426697 -295.670013
v 184.753601 934.203857 -257.380707
v 153.964172 992.196899 -239.653381
v 100.318237 975.419678 -277.942688
v -258.196472 632.472229 353.738800
v -266.422852 486.805176 139.080124
v -417.726196 456.353088 467.429321
v -412.210815 311.076874 256.050476
v 52.354858 812.809631 40.254539
v -53.643250 779.659790 -35.400627
v 133.327698 913.643372 -148.976166
v 55.395569 889.270813 -204.599548
v 182.305359 976.225342 -268.640808
v 125.353577 958.414185 -309.289642
v 171.818298 957.723022 -370.364990
v 225.464172 974.500244 -332.075500
v 224.493042 1025.944336 -349.533844
v 167.541199 1008.133118 -390.182709
v 142.278931 1023.690308 -357.883057
v 195.924866 1040.467529 -319.593658
v 200.472839 987.825195 -423.701935
v 254.118835 1004.602356 -385.412476
v 253.147644 1056.046387 -402.870819
v 196.195862 1038.235352 -443.519592
v 170.933289 1053.792358 -411.219818
v 224.579346 1070.569580 -372.930603
v 238.627380 988.335693 -455.859039
v 273.156860 999.134399 -431.213898
v 272.531799 1032.246582 -442.451111
v 235.874573 1020.782288 -468.614960
v 197.201782 1088.747314 -467.061859
v 171.939331 1104.304443 -434.762054
v 225.585266 1121.081787 -396.472717
v 254.153381 1106.558594 -426.412933
v 263.984619 987.482422 -478.344879
v 287.263428 994.762573 -461.729950
v 286.842224 1017.086060 -469.305939
v 262.128723 1009.357178 -486.944855
v 285.307617 998.368896 -503.172638
v 299.859436 1002.919861 -492.786041
v 299.595947 1016.874329 -497.521820
v 284.147400 1012.042969 -508.548187
v 202.776062 1121.466309 -467.721588
v 185.978821 1131.810547 -446.245026
v 221.648621 1142.965820 -420.785797
v 240.644043 1133.309082 -440.693420
vn 0.4774 -0.8689 0.1311
vn -0.3659 0.9023 -0.2279
vn -0.4775 0.8685 -0.1331
vn -0.4254 -0.4153 0.8041
vn 0.3540 0.8190 0.4516
vn -0.6346 -0.5067 -0.5836
vn -0.3420 0.9157 -0.2110
vn 0.7999 0.4205 0.4282
vn -0.7635 -0.0709 -0.6419
vn 0.5220 -0.8529 0.0094
vn -0.7488 -0.2827 -0.5995
vn 0.8307 0.3336 0.4457
vn -0.7472 -0.3202 -0.5824
vn 0.4226 -0.9029 0.0790
vn 0.7379 0.4568 0.4968
vn 0.4299 -0.9005 0.0661
vn -0.3337 0.9158 -0.2235
vn 0.8498 0.2988 0.4342
vn 0.7605 0.5112 0.4004
vn 0.3636 -0.9145 0.1773
vn -0.6865 -0.4646 -0.5593
vn 0.7700 0.4779 0.4227
vn -0.6595 -0.4951 -0.5656
vn -0.5893 -0.4626 -0.6623
vn 0.5224 0.7569 0.3928
vn -0.8125 0.0155 -0.5828
vn 0.6944 0.4031 0.5961
vn -0.7450 0.3740 0.5523
vn -0.3741 0.9134 -0.1606
vn -0.7431 -0.4484 -0.4968
vn -0.3902 0.9109 -0.1344
vn 0.7837 0.3495 0.5135
vn -0.7408 -0.4525 -0.4964
vn -0.7861 -0.3449 -0.5128
vn 0.7325 0.4315 0.5265
vn 0.0566 -0.8217 0.5671
vn 0.7818 0.3538 0.5134
vn 0.7379 0.4594 0.4944
vn -0.7859 -0.3422 -0.5150
vn 0.3741 -0.9134 0.1606
vn 0.1823 0.6173 -0.7653
vn -0.5772 -0.5577 -0.5964
vn 0.8984 0.2185 0.3811
vn 0.1999 0.5977 -0.7764
vn 0.7339 0.6420 0.2218
vn -0.7927 -0.3708 -0.4838
vn -0.6300 0.6353 0.4466
vn 0.6300 -0.6353 -0.4466
vn -0.1173 0.8563 -0.5030
vn 0.8824 0.2413 0.4039
vn -0.6062 -0.5418 -0.5822
vn 0.0382 -0.8098 0.5855
vn 0.6417 -0.5604 -0.5236
vn 0.8774 0.2480 0.4106
vn -0.6150 -0.5368 -0.5777
vn 0.2712 -0.9101 0.3133
vn 0.1419 0.6596 -0.7381
vn -0.6867 -0.1053 -0.7193
vn 0.6457 -0.4605 -0.6091
vn -0.5783 0.7737 0.2586
vn 0.8123 -0.4811 0.3297
vn -0.6229 0.7755 -0.1031
vn -0.8134 0.4787 -0.3304
vn -0.3296 -0.7821 0.5289
vn -0.3987 0.7176 0.5711
vn 0.0721 -0.5934 -0.8017
vn -0.4227 0.8856 0.1928
vn 0.4438 0.5876 0.6766
vn -0.4412 -0.1516 -0.8845
vn 0.8102 -0.5841 0.0491
vn -0.7920 -0.0998 -0.6023
vn 0.8523 0.2167 0.4760
vn -0.7862 -0.1406 -0.6018
vn 0.4891 -0.8145 -0.3119
vn 0.7590 0.2981 0.5788
vn 0.4893 -0.8064 -0.3321
vn -0.4123 0.8917 0.1869
vn 0.8728 0.1893 0.4499
vn 0.7673 0.3879 0.5106
vn 0.4368 -0.8694 -0.2310
vn -0.7145 -0.2756 -0.6430
vn 0.7768 0.3551 0.5201
vn -0.6866 -0.2984 -0.6630
vn -0.1619 -0.4972 -0.8524
vn -0.0085 0.7899 0.6132
vn -0.3770 -0.2758 -0.8842
vn 0.0499 0.5223 0.8513
vn -0.9506 -0.2667 0.1585
vn -0.4452 0.8608 0.2466
vn -0.7647 -0.2909 -0.5750
vn -0.4581 0.8467 0.2708
vn 0.8129 0.1980 0.5477
vn -0.7622 -0.2946 -0.5765
vn -0.8156 -0.1943 -0.5451
vn 0.7585 0.2628 0.5963
vn 0.1698 -0.9677 0.1861
vn 0.8108 0.2018 0.5495
vn 0.7586 0.3014 0.5776
vn -0.8157 -0.1910 -0.5460
vn 0.4452 -0.8608 -0.2466
vn 0.0576 0.8822 -0.4673
vn -0.6045 -0.3354 -0.7226
vn 0.9200 0.1414 0.3655
vn 0.0751 0.8704 -0.4866
vn 0.7131 0.5746 0.4017
vn -0.8172 -0.2300 -0.5284
vn -0.6144 0.3433 0.7104
vn 0.6144 -0.3433 -0.7104
vn -0.2250 0.9682 -0.1090
vn 0.9053 0.1517 0.3968
vn -0.6327 -0.3292 -0.7010
vn 0.1529 -0.9659 0.2090
vn 0.6128 -0.2436 -0.7518
vn 0.9007 0.1548 0.4060
vn -0.6411 -0.3273 -0.6941
vn 0.3599 -0.9278 -0.0977
vn 0.0181 0.9062 -0.4224
vn -0.7546 0.1155 -0.6459
vn 0.6011 -0.1183 -0.7903
vn -0.5925 0.5487 0.5898
usemtl Matériau.012
s off
f 131//26 132//26 134//26 133//26
f 138//27 137//27 141//27 142//27
f 137//28 138//28 136//28 135//28
f 153//29 154//29 132//29 131//29
f 151//30 137//30 135//30 153//30
f 152//31 134//31 132//31 154//31
f 142//32 141//32 145//32 146//32
f 151//33 133//33 140//33 155//33
f 152//34 138//34 142//34 156//34
f 133//35 134//35 139//35 140//35
f 158//36 146//36 150//36 160//36
f 155//37 140//37 144//37 157//37
f 156//38 142//38 146//38 158//38
f 140//39 139//39 143//39 144//39
f 149//40 159//40 163//40 166//40
f 144//41 143//41 147//41 148//41
f 146//42 145//42 149//42 150//42
f 157//43 144//43 148//43 159//43
f 145//44 157//44 159//44 149//44
f 148//45 147//45 161//45 162//45
f 139//46 156//46 158//46 143//46
f 141//47 155//47 157//47 145//47
f 143//48 158//48 160//48 147//48
f 134//49 152//49 156//49 139//49
f 137//50 151//50 155//50 141//50
f 138//51 152//51 154//51 136//51
f 133//52 151//52 153//52 131//52
f 135//53 136//53 154//53 153//53
f 165//54 166//54 172//54 171//54
f 161//55 164//55 170//55 167//55
f 150//56 149//56 166//56 165//56
f 159//57 148//57 162//57 163//57
f 147//58 160//58 164//58 161//58
f 160//59 150//59 165//59 164//59
f 172//60 169//60 180//60 179//60
f 168//61 167//61 173//61 174//61
f 163//62 162//62 168//62 169//62
f 166//63 163//63 169//63 172//63
f 164//64 165//64 171//64 170//64
f 162//65 161//65 167//65 168//65
f 176//66 175//66 183//66 184//66
f 167//67 170//67 176//67 173//67
f 169//68 168//68 174//68 175//68
f 170//69 169//69 175//69 176//69
f 179//70 180//70 192//70 191//70
f 170//71 171//71 178//71 177//71
f 171//72 172//72 179//72 178//72
f 169//73 170//73 177//73 180//73
f 184//74 183//74 187//74 188//74
f 175//75 174//75 182//75 183//75
f 173//76 176//76 184//76 181//76
f 174//77 173//77 181//77 182//77
f 186//78 185//78 188//78 187//78
f 183//79 182//79 186//79 187//79
f 181//80 184//80 188//80 185//80
f 182//81 181//81 185//81 186//81
f 192//82 189//82 190//82 191//82
f 177//83 178//83 190//83 189//83
f 180//84 177//84 189//84 192//84
f 178//85 179//85 191//85 190//85
f 193//86 194//86 196//86 195//86
f 200//87 199//87 203//87 204//87
f 199//88 200//88 198//88 197//88
f 215//89 216//89 194//89 193//89
f 213//90 199//90 197//90 215//90
f 214//91 196//91 194//91 216//91
f 204//92 203//92 207//92 208//92
f 213//93 195//93 202//93 217//93
f 214//94 200//94 204//94 218//94
f 195//95 196//95 201//95 202//95
f 220//96 208//96 212//96 222//96
f 217//97 202//97 206//97 219//97
f 218//98 204//98 208//98 220//98
f 202//99 201//99 205//99 206//99
f 211//100 221//100 225//100 228//100
f 206//101 205//101 209//101 210//101
f 208//102 207//102 211//102 212//102
f 219//103 206//103 210//103 221//103
f 207//104 219//104 221//104 211//104
f 210//105 209//105 223//105 224//105
f 201//106 218//106 220//106 205//106
f 203//107 217//107 219//107 207//107
f 205//108 220//108 222//108 209//108
f 196//109 214//109 218//109 201//109
f 199//110 213//110 217//110 203//110
f 200//111 214//111 216//111 198//111
f 195//112 213//112 215//112 193//112
f 197//113 198//113 216//113 215//113
f 227//114 228//114 234//114 233//114
f 223//115 226//115 232//115 229//115
f 212//116 211//116 228//116 227//116
f 221//117 210//117 224//117 225//117
f 209//118 222//118 226//118 223//118
f 222//119 212//119 227//119 226//119
f 234//120 231//120 242//120 241//120
f 230//121 229//121 235//121 236//121
f 225//122 224//122 230//122 231//122
f 228//123 225//123 231//123 234//123
f 226//124 227//124 233//124 232//124
f 224//125 223//125 229//125 230//125
f 238//126 237//126 245//126 246//126
f 229//127 232//127 238//127 235//127
f 231//128 230//128 236//128 237//128
f 232//129 231//129 237//129 238//129
f 241//130 242//130 254//130 253//130
f 232//131 233//131 240//131 239//131
f 233//132 234//132 241//132 240//132
f 231//133 232//133 239//133 242//133
f 246//134 245//134 249//134 250//134
f 237//135 236//135 244//135 245//135
f 235//136 238//136 246//136 243//136
f 236//137 235//137 243//137 244//137
f 248//138 247//138 250//138 249//138
f 245//139 244//139 248//139 249//139
f 243//140 246//140 250//140 247//140
f 244//141 243//141 247//141 248//141
f 254//142 251//142 252//142 253//142
f 239//143 240//143 252//143 251//143
f 242//144 239//144 251//144 254//144
f 240//145 241//145 253//145 252//145
