# Blender v2.91.2 OBJ File: 'camionnete02.blend'
# www.blender.org
mtllib arme_000174.mtl
o Cube.046_Cube.010
v 220.514435 639.172729 -1208.230957
v 192.313843 422.047180 -1233.535645
v 285.726227 655.169128 -1418.160889
v 257.525574 438.043518 -1443.465820
v 11.873055 673.519897 -1270.425049
v -16.327641 456.394287 -1295.729736
v 77.084846 689.516174 -1480.354980
v 48.884144 472.390625 -1505.659912
v 130.730774 617.148926 -919.198792
v 102.530136 400.023376 -944.503418
v -106.111252 434.370483 -1006.697571
v -77.910583 651.496033 -981.392944
v 90.097824 607.181702 -788.392578
v 61.897110 390.056152 -813.697388
v -146.744293 424.403259 -875.891602
v -118.543640 641.528870 -850.586914
v 66.093620 601.293518 -711.118347
v 49.750633 444.311462 -742.389404
v -158.890839 478.658569 -804.583679
v -142.547791 635.640686 -773.312500
v 144.738708 620.585022 -964.292969
v 116.538048 403.459503 -989.597717
v -63.902718 654.932190 -1026.487305
v -92.103401 437.806641 -1051.791992
v 262.704437 649.521912 -1344.049072
v 234.503784 432.396332 -1369.354004
v 54.063042 683.868958 -1406.243164
v 25.862404 466.743408 -1431.548096
v 181.405518 672.342651 -1449.258057
v 153.204834 455.217041 -1474.562988
v 116.193787 656.346313 -1239.327881
v 87.993111 439.220703 -1264.632812
v 26.410088 634.322449 -950.295837
v -1.790581 417.196930 -975.600464
v -14.222900 624.355347 -819.489685
v -35.907402 414.666779 -830.650085
v -38.227066 618.467102 -742.215393
v -44.097816 451.251282 -782.566956
v 12.217319 420.633057 -1020.694885
v 40.417992 637.758606 -995.390076
v 130.183060 449.569824 -1400.450928
v 158.383759 666.695496 -1375.146240
v 233.565918 663.755859 -1433.709473
v 140.153458 430.633942 -1249.084229
v 50.369751 408.610138 -960.052063
v -0.735542 408.876709 -820.165649
v -8.925957 445.461182 -772.082520
v 92.578362 629.171814 -979.841492
v 210.544083 658.108704 -1359.597656
v 205.365204 446.630310 -1459.014160
v 168.354095 647.759521 -1223.779541
v 78.570419 625.735718 -934.747314
v 37.937431 615.768555 -803.941162
v 13.933281 609.880310 -726.666809
v 64.377670 412.046265 -1005.146362
v 182.343384 440.983093 -1384.902588
v 59.097492 371.392456 -1009.884338
v 6.937145 379.979248 -1025.432861
v 177.063187 400.329285 -1389.640625
v 124.902870 408.916077 -1405.188965
v 82.712891 398.566925 -1269.370605
v 134.873260 389.980133 -1253.822021
v 331.025696 571.598816 -1287.008057
v 312.369690 567.022583 -1226.950684
v 299.899780 471.011780 -1238.140015
v 318.555664 475.588135 -1298.197754
v 376.111938 564.176697 -1273.568359
v 357.455994 559.600342 -1213.510864
v 344.986023 463.589661 -1224.700317
v 363.641907 468.165955 -1284.757812
v 445.108398 552.818298 -1253.001221
v 426.452454 548.242065 -1192.943726
v 413.982391 452.231323 -1204.133301
v 432.638336 456.807617 -1264.190918
v 489.506744 545.509338 -1239.766479
v 470.850708 540.933044 -1179.708984
v 458.380829 444.922363 -1190.898438
v 477.036743 449.498657 -1250.956055
v 419.598511 499.181519 -2148.674316
v 367.438202 507.768250 -2164.222900
v 395.638763 724.893921 -2138.917969
v 447.799225 716.307129 -2123.369629
vn 0.9466 -0.1558 0.2822
vn 0.2959 0.0726 -0.9525
vn -0.9466 0.1558 -0.2822
vn 0.1279 0.9851 0.1148
vn -0.1279 -0.9851 -0.1148
vn -0.2922 -0.7844 0.5471
vn -0.2115 -0.9716 -0.1065
vn -0.3852 -0.1695 0.9072
vn -0.9471 0.1553 -0.2810
vn 0.9471 -0.1553 0.2810
vn 0.6445 0.0054 -0.7646
vn -0.2677 -0.1903 0.9445
vn -0.0987 -0.9925 -0.0717
vn -0.3111 -0.2126 0.9263
vn -0.1471 -0.9878 -0.0519
vn -0.2959 -0.0726 0.9525
vn 0.1005 -0.1280 0.9867
vn 0.4156 -0.9076 0.0599
vn 0.6290 0.7356 0.2515
usemtl Matériau.011
s off
f 25//1 26//1 4//1 3//1
f 29//2 30//2 8//2 7//2
f 27//3 28//3 6//3 5//3
f 22//1 21//1 9//1 10//1
f 42//4 27//4 5//4 31//4
f 56//5 26//5 2//5 44//5
f 10//1 9//1 13//1 14//1
f 55//5 22//5 10//5 45//5
f 23//3 24//3 11//3 12//3
f 46//6 14//6 18//6 47//6
f 45//7 10//7 14//7 46//7
f 12//3 11//3 15//3 16//3
f 33//4 12//4 16//4 35//4
f 54//8 47//8 18//8 17//8
f 16//9 15//9 19//9 20//9
f 14//10 13//10 17//10 18//10
f 5//3 6//3 24//3 23//3
f 44//5 2//5 22//5 55//5
f 31//4 5//4 23//4 40//4
f 2//1 1//1 21//1 22//1
f 50//5 4//5 26//5 56//5
f 29//4 7//4 27//4 42//4
f 7//3 8//3 28//3 27//3
f 26//11 25//11 63//11 66//11
f 43//4 29//4 42//4 49//4
f 8//5 30//5 41//5 28//5
f 51//4 31//4 40//4 48//4
f 6//5 32//5 39//5 24//5
f 20//12 19//12 38//12 37//12
f 52//4 33//4 35//4 53//4
f 11//13 34//13 36//13 15//13
f 15//6 36//6 38//6 19//6
f 24//5 39//5 34//5 11//5
f 28//5 41//5 32//5 6//5
f 49//4 42//4 31//4 51//4
f 30//3 29//3 81//3 80//3
f 3//2 4//2 50//2 43//2
f 25//4 49//4 51//4 1//4
f 9//4 52//4 53//4 13//4
f 1//4 51//4 48//4 21//4
f 3//4 43//4 49//4 25//4
f 30//5 50//5 56//5 41//5
f 32//3 41//3 60//3 61//3
f 37//14 38//14 47//14 54//14
f 34//15 45//15 46//15 36//15
f 36//6 46//6 47//6 38//6
f 39//5 55//5 45//5 34//5
f 55//16 39//16 58//16 57//16
f 61//5 62//5 57//5 58//5
f 60//5 59//5 62//5 61//5
f 39//3 32//3 61//3 58//3
f 44//1 55//1 57//1 62//1
f 41//2 56//2 59//2 60//2
f 56//1 44//1 62//1 59//1
f 66//2 63//2 67//2 70//2
f 1//17 2//17 65//17 64//17
f 2//18 26//18 66//18 65//18
f 25//19 1//19 64//19 63//19
f 69//5 70//5 74//5 73//5
f 64//16 65//16 69//16 68//16
f 65//5 66//5 70//5 69//5
f 63//4 64//4 68//4 67//4
f 73//5 74//5 78//5 77//5
f 67//4 68//4 72//4 71//4
f 70//2 67//2 71//2 74//2
f 68//16 69//16 73//16 72//16
f 76//1 77//1 78//1 75//1
f 71//4 72//4 76//4 75//4
f 74//2 71//2 75//2 78//2
f 82//2 79//2 80//2 81//2
f 50//5 30//5 80//5 79//5
f 43//1 50//1 79//1 82//1
f 29//4 43//4 82//4 81//4
o Cube.048_Cube.024
v -500.127594 531.449463 156.194458
v -670.794189 391.210632 58.196770
v -371.427185 517.413757 -47.856384
v -541.673462 376.199982 -146.446472
v -623.075928 690.162476 -1.995995
v -710.581421 618.258118 -52.242165
v -557.087585 682.966003 -106.618584
v -644.154236 610.877686 -156.272736
v -365.560913 474.252930 -500.418610
v -257.820618 520.485718 -452.698700
v -306.404114 637.319031 -456.200897
v -414.144318 591.086182 -503.920929
v -280.657104 521.916870 -693.837830
v -201.444031 555.908203 -658.752991
v -237.163727 641.806702 -661.328003
v -316.376801 607.815369 -696.412903
v -226.560303 554.376648 -814.194641
v -168.672485 579.217163 -788.555115
v -194.775879 641.990601 -790.436890
v -252.663696 617.150085 -816.076416
v -432.215271 620.842529 -71.600319
v -612.558960 471.552582 -174.587219
v -568.942627 635.851929 144.994781
v -750.126099 486.971130 40.958172
v -276.788727 581.004883 -458.160919
v -391.168152 531.923035 -508.821564
v -210.109741 602.189697 -676.421021
v -294.204102 566.103638 -713.667786
v -170.214233 614.659973 -813.853882
v -231.669281 588.288696 -841.073486
v -191.520630 562.505615 -901.181213
v -133.632812 587.346069 -875.541748
v -133.867615 629.285400 -910.085144
v -195.322693 602.914185 -937.304626
v -216.518005 630.776917 -910.886658
v -158.630127 655.617432 -885.247253
v -166.849854 569.582153 -963.737732
v -108.962036 594.422607 -938.098083
v -109.196838 636.361877 -972.641785
v -170.651917 609.990601 -999.861267
v -191.847290 637.853455 -973.443176
v -133.959412 662.693848 -947.803711
v -132.061096 555.735901 -996.724792
v -94.801453 571.724609 -980.221741
v -94.952515 598.718994 -1002.455872
v -134.508362 581.745056 -1019.975769
v -169.563904 648.766846 -1039.885254
v -190.759277 676.629700 -1013.467468
v -132.871460 701.470154 -987.827698
v -108.109009 675.138184 -1012.665710
v -109.107178 545.029968 -1019.259827
v -83.987671 555.809021 -1008.133972
v -84.089539 574.007935 -1023.123718
v -110.757019 562.564575 -1034.935059
v -89.835144 544.773926 -1047.862427
v -74.132568 551.512207 -1040.907471
v -74.196350 562.888489 -1050.277710
v -90.866394 555.735107 -1057.661255
v -162.531372 678.617188 -1052.595337
v -176.624390 697.143555 -1035.029541
v -138.134033 713.660278 -1017.981628
v -121.669128 696.151733 -1034.496826
v -242.398254 481.531372 403.473663
v -367.991943 279.873016 359.227570
v -111.151062 445.405579 200.972595
v -240.265076 244.666901 157.128754
v -404.080933 552.243958 218.571655
v -468.476318 448.848083 195.885437
v -328.329590 534.104248 112.704300
v -402.987213 430.796936 92.263680
v -212.667328 156.931091 -104.241173
v -131.591797 110.025085 -21.339478
v -38.627075 121.970276 -103.428932
v -116.993958 167.650940 -186.425903
v -233.471985 -44.646484 -180.563568
v -175.567200 -82.035645 -118.032310
v -105.226074 -74.154175 -178.456360
v -163.130737 -36.765076 -240.987823
v -243.686218 -171.467834 -228.290741
v -201.370239 -198.791382 -182.593628
v -149.965881 -193.031616 -226.750702
v -192.281952 -165.708191 -272.447845
v -185.256104 515.128296 153.796082
v -334.942627 305.339691 108.682144
v -337.207275 556.800415 370.207733
v -470.540466 342.715271 323.235016
v -84.787354 104.766724 -59.656471
v -168.398743 158.754639 -149.948486
v -142.459106 -96.444702 -153.038727
v -203.931915 -56.751465 -219.423401
v -179.903992 -221.521362 -212.943756
v -224.827637 -192.514282 -261.456818
v -265.544739 -257.536926 -259.512543
v -223.228668 -284.860352 -213.815399
v -199.417480 -316.052246 -251.396271
v -244.341095 -287.044922 -299.909454
v -212.155884 -258.938477 -309.788971
v -169.839905 -286.261780 -264.091888
v -280.244385 -319.284058 -282.820526
v -237.928345 -346.607544 -237.123444
v -214.117188 -377.799438 -274.704315
v -259.040771 -348.792114 -323.217468
v -226.855530 -320.685547 -333.097015
v -184.539490 -348.008789 -287.399811
v -300.193359 -363.963501 -273.028046
v -272.956421 -381.550537 -243.614838
v -257.630310 -401.627197 -267.804108
v -286.545654 -382.956665 -299.029755
v -240.062561 -384.128296 -361.920044
v -207.877197 -356.021606 -371.799530
v -165.561218 -383.345215 -326.102386
v -195.138916 -413.135620 -313.406952
v -315.079071 -393.694092 -266.406372
v -296.716827 -405.550659 -246.576843
v -286.384369 -419.086182 -262.884552
v -305.878174 -406.498901 -283.936096
v -323.612823 -426.903442 -270.134827
v -312.134277 -434.315063 -257.739166
v -305.675232 -442.776245 -267.933197
v -317.861145 -434.907715 -281.092712
v -217.136749 -403.176636 -376.535339
v -195.736267 -384.488037 -383.104401
v -167.599792 -402.656006 -352.719696
v -187.266296 -422.463867 -344.278320
vn 0.4667 -0.8113 0.3521
vn -0.3629 0.8707 -0.3319
vn -0.4669 0.8109 -0.3529
vn -0.3897 -0.1596 0.9070
vn 0.3949 0.8995 0.1870
vn -0.6787 -0.6250 -0.3855
vn -0.3549 0.9296 -0.0994
vn 0.8471 0.4596 0.2666
vn -0.8186 -0.1606 -0.5515
vn 0.5248 -0.8467 0.0876
vn -0.8512 -0.2418 -0.4658
vn 0.9049 0.2996 0.3024
vn -0.8473 -0.2802 -0.4512
vn 0.4105 -0.9108 -0.0443
vn 0.8256 0.4211 0.3756
vn 0.4153 -0.9078 -0.0582
vn -0.3490 0.9302 -0.1133
vn 0.9208 0.2653 0.2859
vn 0.8314 0.4803 0.2795
vn 0.3701 -0.9269 0.0625
vn -0.7866 -0.4262 -0.4468
vn 0.8441 0.4457 0.2980
vn -0.7618 -0.4567 -0.4594
vn -0.6672 -0.5426 -0.5103
vn 0.5638 0.7964 0.2186
vn -0.8406 -0.1214 -0.5279
vn 0.7336 0.5292 0.4264
vn -0.7063 0.5387 0.4592
vn -0.3774 0.9250 -0.0442
vn -0.8305 -0.4127 -0.3742
vn -0.3884 0.9213 -0.0157
vn 0.8713 0.3126 0.3783
vn -0.8283 -0.4168 -0.3745
vn -0.8735 -0.3080 -0.3770
vn 0.8251 0.3944 0.4045
vn 0.1411 -0.8510 0.5059
vn 0.8696 0.3168 0.3788
vn 0.8252 0.4238 0.3734
vn -0.8736 -0.3052 -0.3791
vn 0.3774 -0.9250 0.0442
vn 0.0533 0.6543 -0.7543
vn -0.6879 -0.5186 -0.5078
vn 0.9572 0.1873 0.2209
vn 0.0682 0.6352 -0.7694
vn 0.7757 0.6205 0.1155
vn -0.8752 -0.3353 -0.3486
vn -0.5245 0.6186 0.5850
vn 0.5245 -0.6186 -0.5850
vn -0.1883 0.8829 -0.4302
vn 0.9461 0.2090 0.2474
vn -0.7135 -0.5031 -0.4877
vn 0.1266 -0.8398 0.5279
vn 0.5236 -0.5399 -0.6591
vn 0.9426 0.2155 0.2552
vn -0.7211 -0.4982 -0.4814
vn 0.3040 -0.9285 0.2132
vn 0.0195 0.6957 -0.7181
vn -0.8081 -0.0591 -0.5860
vn 0.5142 -0.4357 -0.7388
vn -0.5049 0.7660 0.3978
vn 0.6655 -0.5351 0.5203
vn 0.2103 0.6881 -0.6944
vn -0.6476 0.5465 -0.5310
vn -0.3315 -0.0006 0.9435
vn 0.1430 0.9863 -0.0820
vn -0.4775 -0.8656 -0.1510
vn 0.7337 0.0133 -0.6794
vn 0.9672 0.1973 -0.1601
vn -0.8295 -0.2905 -0.4770
vn 0.1505 -0.7430 0.6522
vn -0.5468 0.3184 -0.7744
vn 0.5279 -0.4763 0.7031
vn -0.5748 0.3326 -0.7476
vn -0.7574 -0.1542 0.6344
vn 0.6677 -0.3948 0.6311
vn -0.7715 -0.1687 0.6135
vn 0.7337 -0.0001 -0.6795
vn 0.5072 -0.4956 0.7051
vn 0.6832 -0.4758 0.5539
vn -0.7476 -0.0503 0.6622
vn -0.6944 0.3192 -0.6449
vn 0.6863 -0.4551 0.5674
vn -0.7228 0.2987 -0.6232
vn -0.7750 -0.6320 -0.0046
vn 0.6512 0.5704 -0.5006
vn -0.7786 -0.4758 -0.4092
vn 0.5659 0.7901 0.2358
vn -0.8273 0.4381 0.3517
vn 0.7521 0.0684 -0.6555
vn -0.6603 0.3977 -0.6371
vn 0.7584 0.0965 -0.6446
vn 0.5787 -0.4055 0.7076
vn -0.6638 0.3967 -0.6341
vn -0.5744 0.4072 -0.7102
vn 0.6552 -0.3697 0.6588
vn -0.5389 0.4028 0.7398
vn 0.5824 -0.4048 0.7050
vn 0.6692 -0.3965 0.6285
vn -0.5727 0.4053 -0.7126
vn -0.7521 -0.0684 0.6555
vn 0.2943 -0.6753 -0.6763
vn -0.7857 0.2245 -0.5764
vn 0.4168 -0.5520 0.7222
vn 0.2735 -0.6927 -0.6674
vn 0.7342 -0.5751 0.3610
vn -0.5878 0.4329 -0.6835
vn 0.7049 0.6608 -0.2577
vn -0.7049 -0.6608 0.2577
vn 0.5903 -0.3230 -0.7397
vn 0.4452 -0.5298 0.7218
vn -0.7679 0.2535 -0.5882
vn -0.5225 0.4261 0.7386
vn -0.6641 -0.7253 0.1813
vn 0.4536 -0.5231 0.7216
vn -0.7623 0.2623 -0.5917
vn -0.6994 0.1003 0.7076
vn 0.3405 -0.6340 -0.6944
vn -0.4236 0.1725 -0.8893
vn -0.6039 -0.7924 0.0854
vn 0.7656 0.4914 -0.4151
usemtl Matériau.012
s off
f 83//20 84//20 86//20 85//20
f 90//21 89//21 93//21 94//21
f 89//22 90//22 88//22 87//22
f 105//23 106//23 84//23 83//23
f 103//24 89//24 87//24 105//24
f 104//25 86//25 84//25 106//25
f 94//26 93//26 97//26 98//26
f 103//27 85//27 92//27 107//27
f 104//28 90//28 94//28 108//28
f 85//29 86//29 91//29 92//29
f 110//30 98//30 102//30 112//30
f 107//31 92//31 96//31 109//31
f 108//32 94//32 98//32 110//32
f 92//33 91//33 95//33 96//33
f 101//34 111//34 115//34 118//34
f 96//35 95//35 99//35 100//35
f 98//36 97//36 101//36 102//36
f 109//37 96//37 100//37 111//37
f 97//38 109//38 111//38 101//38
f 100//39 99//39 113//39 114//39
f 91//40 108//40 110//40 95//40
f 93//41 107//41 109//41 97//41
f 95//42 110//42 112//42 99//42
f 86//43 104//43 108//43 91//43
f 89//44 103//44 107//44 93//44
f 90//45 104//45 106//45 88//45
f 85//46 103//46 105//46 83//46
f 87//47 88//47 106//47 105//47
f 117//48 118//48 124//48 123//48
f 113//49 116//49 122//49 119//49
f 102//50 101//50 118//50 117//50
f 111//51 100//51 114//51 115//51
f 99//52 112//52 116//52 113//52
f 112//53 102//53 117//53 116//53
f 124//54 121//54 132//54 131//54
f 120//55 119//55 125//55 126//55
f 115//56 114//56 120//56 121//56
f 118//57 115//57 121//57 124//57
f 116//58 117//58 123//58 122//58
f 114//59 113//59 119//59 120//59
f 128//60 127//60 135//60 136//60
f 119//61 122//61 128//61 125//61
f 121//62 120//62 126//62 127//62
f 122//63 121//63 127//63 128//63
f 131//64 132//64 144//64 143//64
f 122//65 123//65 130//65 129//65
f 123//66 124//66 131//66 130//66
f 121//67 122//67 129//67 132//67
f 136//68 135//68 139//68 140//68
f 127//69 126//69 134//69 135//69
f 125//70 128//70 136//70 133//70
f 126//71 125//71 133//71 134//71
f 138//72 137//72 140//72 139//72
f 135//73 134//73 138//73 139//73
f 133//74 136//74 140//74 137//74
f 134//75 133//75 137//75 138//75
f 144//76 141//76 142//76 143//76
f 129//77 130//77 142//77 141//77
f 132//78 129//78 141//78 144//78
f 130//79 131//79 143//79 142//79
f 145//80 146//80 148//80 147//80
f 152//81 151//81 155//81 156//81
f 151//82 152//82 150//82 149//82
f 167//83 168//83 146//83 145//83
f 165//84 151//84 149//84 167//84
f 166//85 148//85 146//85 168//85
f 156//86 155//86 159//86 160//86
f 165//87 147//87 154//87 169//87
f 166//88 152//88 156//88 170//88
f 147//89 148//89 153//89 154//89
f 172//90 160//90 164//90 174//90
f 169//91 154//91 158//91 171//91
f 170//92 156//92 160//92 172//92
f 154//93 153//93 157//93 158//93
f 163//94 173//94 177//94 180//94
f 158//95 157//95 161//95 162//95
f 160//96 159//96 163//96 164//96
f 171//97 158//97 162//97 173//97
f 159//98 171//98 173//98 163//98
f 162//99 161//99 175//99 176//99
f 153//100 170//100 172//100 157//100
f 155//101 169//101 171//101 159//101
f 157//102 172//102 174//102 161//102
f 148//103 166//103 170//103 153//103
f 151//104 165//104 169//104 155//104
f 152//105 166//105 168//105 150//105
f 147//106 165//106 167//106 145//106
f 149//107 150//107 168//107 167//107
f 179//108 180//108 186//108 185//108
f 175//109 178//109 184//109 181//109
f 164//110 163//110 180//110 179//110
f 173//111 162//111 176//111 177//111
f 161//112 174//112 178//112 175//112
f 174//113 164//113 179//113 178//113
f 186//114 183//114 194//114 193//114
f 182//115 181//115 187//115 188//115
f 177//116 176//116 182//116 183//116
f 180//117 177//117 183//117 186//117
f 178//118 179//118 185//118 184//118
f 176//119 175//119 181//119 182//119
f 190//120 189//120 197//120 198//120
f 181//121 184//121 190//121 187//121
f 183//122 182//122 188//122 189//122
f 184//123 183//123 189//123 190//123
f 193//124 194//124 206//124 205//124
f 184//125 185//125 192//125 191//125
f 185//126 186//126 193//126 192//126
f 183//127 184//127 191//127 194//127
f 198//128 197//128 201//128 202//128
f 189//129 188//129 196//129 197//129
f 187//130 190//130 198//130 195//130
f 188//131 187//131 195//131 196//131
f 200//132 199//132 202//132 201//132
f 197//133 196//133 200//133 201//133
f 195//134 198//134 202//134 199//134
f 196//135 195//135 199//135 200//135
f 206//136 203//136 204//136 205//136
f 191//137 192//137 204//137 203//137
f 194//138 191//138 203//138 206//138
f 192//139 193//139 205//139 204//139
