# Blender v2.91.2 OBJ File: 'camionnete02.blend'
# www.blender.org
mtllib arme_000087.mtl
o Cube.046_Cube.010
v 307.131256 658.624451 -1071.949951
v 293.261169 440.787964 -1102.511475
v 401.747986 680.361023 -1269.824341
v 387.877808 462.524536 -1300.385986
v 108.550301 684.196167 -1164.095337
v 94.680115 466.359741 -1194.656860
v 203.166962 705.932678 -1361.969604
v 189.296814 488.096252 -1392.531372
v 176.862854 628.697510 -799.515991
v 162.992722 410.861084 -830.077515
v -35.588272 436.432800 -922.222839
v -21.718126 654.269287 -891.661316
v 117.907860 615.153687 -676.221619
v 104.037704 397.317169 -706.783264
v -94.543312 422.888916 -798.928528
v -80.673180 640.725342 -768.367004
v 83.079857 607.152527 -603.384949
v 78.961899 450.013062 -637.715576
v -119.619156 475.584839 -729.860962
v -115.501175 632.724243 -695.530273
v 197.187134 633.366638 -842.020630
v 183.316986 415.530243 -872.582214
v -1.393881 658.938477 -934.166077
v -15.264046 441.101929 -964.727661
v 368.345337 672.687378 -1199.968628
v 354.475159 454.850830 -1230.530273
v 169.764328 698.259033 -1292.114014
v 155.894211 480.422546 -1322.675537
v 302.457428 693.146851 -1315.896973
v 288.587311 475.310364 -1346.458740
v 207.840805 671.410339 -1118.022583
v 193.970657 453.573853 -1148.584106
v 77.572357 641.483398 -845.588562
v 63.702209 423.646912 -876.150085
v 18.617350 627.939514 -722.294312
v 8.748281 417.643402 -737.856934
v -16.210638 619.938416 -649.457581
v -8.160391 453.176392 -691.284424
v 84.026474 428.316040 -918.654907
v 97.896622 646.152527 -888.093384
v 255.184692 467.636719 -1276.602905
v 269.054840 685.473206 -1246.041260
v 352.102753 686.753906 -1292.860596
v 243.615891 447.180908 -1125.547852
v 113.347443 417.253998 -853.113892
v 42.224197 413.332642 -722.323486
v 25.315531 448.865601 -675.750916
v 147.541885 639.759644 -865.056946
v 318.700104 679.080322 -1223.005005
v 338.232605 468.917419 -1323.422363
v 257.486023 665.017456 -1094.986328
v 127.217606 635.090515 -822.552307
v 68.262589 621.546631 -699.257996
v 33.434608 613.545471 -626.421204
v 133.671722 421.923157 -895.618591
v 304.829895 461.243774 -1253.566650
v 131.074753 381.136230 -901.340820
v 81.429489 387.529175 -924.377075
v 302.232880 420.456848 -1259.288940
v 252.587708 426.849792 -1282.325073
v 191.373642 412.786926 -1154.306396
v 241.018890 406.393982 -1131.270142
v 431.116547 597.229553 -1133.942993
v 404.048279 591.011047 -1077.334473
v 397.915192 494.685974 -1090.848389
v 424.983276 500.904480 -1147.457275
v 474.028809 591.703674 -1114.031128
v 446.960602 585.485168 -1057.422363
v 440.827393 489.160156 -1070.936401
v 467.895599 495.378662 -1127.545166
v 539.698364 583.247314 -1083.559326
v 512.630127 577.028870 -1026.950684
v 506.496918 480.703735 -1040.464600
v 533.565063 486.922241 -1097.073364
v 581.955872 577.805664 -1063.950928
v 554.887634 571.587219 -1007.342468
v 548.754517 475.262207 -1020.856506
v 575.822693 481.480652 -1077.465088
v 649.066711 540.326355 -1973.477539
v 599.421448 546.719238 -1996.513794
v 613.291443 764.555786 -1965.952271
v 662.936829 758.162842 -1942.915894
vn 0.9010 -0.1160 0.4181
vn 0.4293 0.0986 -0.8978
vn -0.9010 0.1160 -0.4181
vn 0.0629 0.9883 0.1387
vn -0.0629 -0.9883 -0.1387
vn -0.3323 -0.8041 0.4929
vn -0.1474 -0.9787 -0.1427
vn -0.5062 -0.1989 0.8391
vn -0.9016 0.1154 -0.4169
vn 0.9016 -0.1154 0.4169
vn 0.7492 0.0450 -0.6608
vn -0.3947 -0.2148 0.8933
vn -0.0400 -0.9950 -0.0918
vn -0.4339 -0.2388 0.8687
vn -0.0910 -0.9927 -0.0793
vn -0.4293 -0.0986 0.8978
vn -0.0401 -0.1363 0.9899
vn 0.4447 -0.8883 0.1150
vn 0.5496 0.7602 0.3463
usemtl Matériau.011
s off
f 25//1 26//1 4//1 3//1
f 29//2 30//2 8//2 7//2
f 27//3 28//3 6//3 5//3
f 22//1 21//1 9//1 10//1
f 42//4 27//4 5//4 31//4
f 56//5 26//5 2//5 44//5
f 10//1 9//1 13//1 14//1
f 55//5 22//5 10//5 45//5
f 23//3 24//3 11//3 12//3
f 46//6 14//6 18//6 47//6
f 45//7 10//7 14//7 46//7
f 12//3 11//3 15//3 16//3
f 33//4 12//4 16//4 35//4
f 54//8 47//8 18//8 17//8
f 16//9 15//9 19//9 20//9
f 14//10 13//10 17//10 18//10
f 5//3 6//3 24//3 23//3
f 44//5 2//5 22//5 55//5
f 31//4 5//4 23//4 40//4
f 2//1 1//1 21//1 22//1
f 50//5 4//5 26//5 56//5
f 29//4 7//4 27//4 42//4
f 7//3 8//3 28//3 27//3
f 26//11 25//11 63//11 66//11
f 43//4 29//4 42//4 49//4
f 8//5 30//5 41//5 28//5
f 51//4 31//4 40//4 48//4
f 6//5 32//5 39//5 24//5
f 20//12 19//12 38//12 37//12
f 52//4 33//4 35//4 53//4
f 11//13 34//13 36//13 15//13
f 15//6 36//6 38//6 19//6
f 24//5 39//5 34//5 11//5
f 28//5 41//5 32//5 6//5
f 49//4 42//4 31//4 51//4
f 30//3 29//3 81//3 80//3
f 3//2 4//2 50//2 43//2
f 25//4 49//4 51//4 1//4
f 9//4 52//4 53//4 13//4
f 1//4 51//4 48//4 21//4
f 3//4 43//4 49//4 25//4
f 30//5 50//5 56//5 41//5
f 32//3 41//3 60//3 61//3
f 37//14 38//14 47//14 54//14
f 34//15 45//15 46//15 36//15
f 36//6 46//6 47//6 38//6
f 39//5 55//5 45//5 34//5
f 55//16 39//16 58//16 57//16
f 61//5 62//5 57//5 58//5
f 60//5 59//5 62//5 61//5
f 39//3 32//3 61//3 58//3
f 44//1 55//1 57//1 62//1
f 41//2 56//2 59//2 60//2
f 56//1 44//1 62//1 59//1
f 66//2 63//2 67//2 70//2
f 1//17 2//17 65//17 64//17
f 2//18 26//18 66//18 65//18
f 25//19 1//19 64//19 63//19
f 69//5 70//5 74//5 73//5
f 64//16 65//16 69//16 68//16
f 65//5 66//5 70//5 69//5
f 63//4 64//4 68//4 67//4
f 73//5 74//5 78//5 77//5
f 67//4 68//4 72//4 71//4
f 70//2 67//2 71//2 74//2
f 68//16 69//16 73//16 72//16
f 76//1 77//1 78//1 75//1
f 71//4 72//4 76//4 75//4
f 74//2 71//2 75//2 78//2
f 82//2 79//2 80//2 81//2
f 50//5 30//5 80//5 79//5
f 43//1 50//1 79//1 82//1
f 29//4 43//4 82//4 81//4
o Cube.048_Cube.024
v -563.880127 470.958130 182.260284
v -732.675293 348.387787 60.267303
v -422.525757 471.372498 -13.740517
v -590.739624 347.821655 -136.261566
v -670.188477 649.460510 33.378548
v -756.734375 586.615234 -29.170662
v -597.712097 649.672913 -67.116539
v -684.054199 586.568848 -129.289520
v -368.428223 457.701843 -459.634125
v -271.206238 508.187500 -396.217163
v -324.208710 622.708679 -406.130310
v -421.430756 572.223022 -469.547150
v -258.287323 511.754089 -638.068481
v -186.807495 548.872253 -591.443054
v -225.776154 633.070801 -598.731323
v -297.255920 595.952637 -645.356934
v -188.634094 548.243774 -748.896240
v -136.397461 575.369263 -714.822998
v -164.875244 636.900513 -720.149292
v -217.111816 609.775024 -754.222595
v -477.825836 579.171082 -30.769020
v -656.454407 448.253052 -159.713989
v -627.943726 578.809692 177.288879
v -807.140381 448.686157 47.778343
v -292.000244 567.841064 -404.043610
v -395.213379 514.244385 -471.368439
v -194.951202 594.937378 -609.906677
v -270.835815 555.531860 -659.405579
v -135.866150 611.035095 -739.848267
v -191.321625 582.238098 -776.021240
v -141.577820 559.116821 -829.692261
v -89.341309 586.242371 -795.618958
v -86.462830 628.579224 -829.553040
v -141.918396 599.782166 -865.726074
v -168.069214 626.293640 -842.558044
v -115.832703 653.419128 -808.484741
v -108.317078 568.141296 -887.867249
v -56.080383 595.266724 -853.794128
v -53.202148 637.603577 -887.727966
v -108.657593 608.806519 -923.901184
v -134.808472 635.317993 -900.732971
v -82.571960 662.443420 -866.659790
v -68.430542 556.339783 -915.433899
v -34.808228 573.799194 -893.502441
v -32.955566 601.049500 -915.344177
v -68.649719 582.514160 -938.627258
v -103.514954 648.116943 -963.079773
v -129.665894 674.628357 -939.911560
v -77.429382 701.753845 -905.838318
v -48.059570 676.913940 -926.906555
v -41.925232 546.994873 -934.393982
v -19.258118 558.765503 -919.608337
v -18.009094 577.136963 -934.333435
v -42.073120 564.640930 -950.030151
v -18.657043 547.999634 -959.833313
v -4.487488 555.357605 -950.590637
v -3.706726 566.841797 -959.795593
v -18.749329 559.030396 -969.607849
v -96.104004 678.423157 -974.422180
v -113.492188 696.050964 -959.017273
v -78.759460 714.087036 -936.361389
v -59.231018 697.570679 -950.370239
v -321.711792 561.376526 411.162323
v -298.301941 332.972076 335.790253
v -172.839905 621.330688 233.438019
v -152.266418 406.641479 157.902649
v -471.539062 551.993286 204.295105
v -459.536194 434.883942 165.649750
v -394.075867 590.834229 115.759865
v -384.659729 472.656311 74.441734
v 40.377686 553.444031 -142.695770
v 110.822327 577.700562 -41.840813
v 70.223816 696.411499 -41.653084
v 0.861694 673.688965 -141.187653
v 208.664612 627.821045 -256.884583
v 261.469421 644.235352 -182.029510
v 232.416382 732.642090 -180.920563
v 179.611633 716.227783 -255.775909
v 314.522034 676.671631 -326.696564
v 353.111145 688.666992 -271.993378
v 331.879456 753.273438 -271.183075
v 293.290466 741.278137 -325.886200
v -276.066132 643.233643 181.836700
v -258.198212 408.163391 96.516853
v -438.085388 572.433655 365.383240
v -413.232971 329.954193 285.366486
v 98.918762 638.023193 -40.316536
v 22.671387 614.321777 -148.403534
v 262.941345 693.807922 -190.373108
v 206.882629 676.382019 -269.841095
v 364.381897 728.344055 -286.039246
v 323.414978 715.609497 -344.113403
v 387.300964 697.564880 -382.618164
v 425.889832 709.560181 -327.914795
v 442.843445 757.230591 -347.722198
v 401.876526 744.495972 -405.796417
v 370.878601 768.935852 -386.683685
v 409.467590 780.931274 -331.980499
v 439.191589 713.851440 -422.794312
v 477.780457 725.846802 -368.090973
v 494.734558 773.517090 -387.898590
v 453.767395 760.782532 -445.972778
v 422.769348 785.222534 -426.859924
v 461.358337 797.217834 -372.156738
v 485.424133 702.685608 -437.893982
v 510.262146 710.406433 -402.684113
v 521.174500 741.089600 -415.433228
v 494.805847 732.893066 -452.812958
v 474.489685 806.303345 -470.572784
v 443.491760 830.743225 -451.459869
v 482.080872 842.738647 -396.756744
v 515.456604 819.037903 -412.498596
v 516.282654 693.944214 -448.878998
v 533.027771 699.149353 -425.141541
v 540.384705 719.835205 -433.736725
v 522.607605 714.309265 -458.937042
v 546.966492 697.019409 -464.326813
v 557.434021 700.273193 -449.488190
v 562.032776 713.204102 -454.861176
v 550.920105 709.749695 -470.614044
v 487.125671 836.995544 -471.176910
v 466.514587 853.245972 -458.468536
v 492.172913 861.221741 -422.095795
v 514.365051 845.462891 -432.562683
vn 0.4125 -0.8608 0.2980
vn -0.3329 0.8882 -0.3168
vn -0.4124 0.8610 -0.2977
vn -0.4546 -0.2304 0.8604
vn 0.4141 0.8592 0.3004
vn -0.6732 -0.5572 -0.4862
vn -0.3799 0.9136 -0.1450
vn 0.8195 0.4288 0.3801
vn -0.7707 -0.1082 -0.6279
vn 0.5027 -0.8600 0.0874
vn -0.7609 -0.2744 -0.5881
vn 0.8352 0.3367 0.4348
vn -0.7574 -0.3127 -0.5733
vn 0.4551 -0.8904 0.0112
vn 0.7404 0.4535 0.4962
vn 0.4618 -0.8870 -0.0018
vn -0.3721 0.9147 -0.1578
vn 0.8550 0.3034 0.4206
vn 0.7575 0.5141 0.4023
vn 0.4002 -0.9097 0.1107
vn -0.6911 -0.4559 -0.5609
vn 0.7690 0.4799 0.4224
vn -0.6634 -0.4850 -0.5698
vn -0.6168 -0.4998 -0.6081
vn 0.5546 0.7697 0.3162
vn -0.8088 -0.0321 -0.5872
vn 0.7225 0.4532 0.5221
vn -0.7151 0.5212 0.4658
vn -0.4100 0.9073 -0.0937
vn -0.7458 -0.4453 -0.4955
vn -0.4250 0.9027 -0.0671
vn 0.7903 0.3471 0.5049
vn -0.7434 -0.4493 -0.4955
vn -0.7929 -0.3427 -0.5040
vn 0.7369 0.4264 0.5246
vn 0.1050 -0.8502 0.5159
vn 0.7883 0.3513 0.5052
vn 0.7402 0.4562 0.4940
vn -0.7928 -0.3398 -0.5060
vn 0.4100 -0.9073 0.0937
vn 0.1330 0.6660 -0.7340
vn -0.5802 -0.5429 -0.6071
vn 0.9042 0.2280 0.3611
vn 0.1508 0.6477 -0.7468
vn 0.7200 0.6538 0.2328
vn -0.7975 -0.3704 -0.4763
vn -0.6337 0.5861 0.5049
vn 0.6337 -0.5861 -0.5049
vn -0.1644 0.8789 -0.4477
vn 0.8884 0.2489 0.3858
vn -0.6092 -0.5288 -0.5910
vn 0.0869 -0.8400 0.5355
vn 0.6399 -0.5066 -0.5778
vn 0.8834 0.2550 0.3931
vn -0.6179 -0.5243 -0.5859
vn 0.3128 -0.9163 0.2499
vn 0.0923 0.7053 -0.7029
vn -0.7092 -0.0883 -0.6994
vn 0.6375 -0.4019 -0.6573
vn -0.5937 0.7368 0.3236
vn 0.7865 -0.1277 0.6042
vn -0.4810 0.7137 -0.5092
vn -0.7835 0.1348 -0.6066
vn -0.3728 -0.3250 0.8691
vn -0.4237 0.9058 -0.0079
vn 0.1453 -0.9506 -0.2744
vn -0.2529 0.9667 -0.0398
vn 0.3896 0.8111 0.4362
vn -0.2987 -0.4580 -0.8372
vn 0.7053 -0.5104 0.4919
vn -0.5232 -0.0387 -0.8514
vn 0.6509 0.1084 0.7514
vn -0.5273 -0.0794 -0.8460
vn 0.3723 -0.9269 -0.0466
vn 0.5463 0.2341 0.8042
vn 0.3814 -0.9220 -0.0669
vn -0.2403 0.9697 -0.0431
vn 0.6712 0.0888 0.7359
vn 0.5985 0.3100 0.7387
vn 0.2833 -0.9590 0.0104
vn -0.4779 -0.2297 -0.8479
vn 0.5864 0.2942 0.7547
vn -0.4505 -0.2599 -0.8541
vn -0.0837 -0.8019 -0.5915
vn -0.0394 0.9841 0.1731
vn -0.2956 -0.7722 -0.5625
vn -0.0071 0.9422 0.3349
vn -0.9601 -0.1714 0.2211
vn -0.2985 0.9544 0.0013
vn -0.5512 -0.2256 -0.8033
vn -0.3220 0.9465 0.0196
vn 0.5838 0.1224 0.8026
vn -0.5492 -0.2298 -0.8035
vn -0.5863 -0.1179 -0.8015
vn 0.5316 0.2024 0.8224
vn -0.1305 -0.9452 0.2993
vn 0.5821 0.1267 0.8032
vn 0.5471 0.2372 0.8028
vn -0.5854 -0.1148 -0.8026
vn 0.2985 -0.9544 -0.0013
vn 0.4184 0.7795 -0.4661
vn -0.3630 -0.3195 -0.8753
vn 0.7336 0.0213 0.6793
vn 0.4385 0.7621 -0.4764
vn 0.6305 0.4857 0.6054
vn -0.6019 -0.1499 -0.7844
vn -0.7347 0.5495 0.3978
vn 0.7347 -0.5495 -0.3978
vn 0.0529 0.9670 -0.2493
vn 0.7114 0.0386 0.7018
vn -0.3949 -0.3053 -0.8665
vn -0.1537 -0.9369 0.3139
vn 0.7706 -0.4582 -0.4431
vn 0.7046 0.0437 0.7083
vn -0.4046 -0.3008 -0.8636
vn 0.1527 -0.9824 0.1077
vn 0.3718 0.8167 -0.4413
vn -0.4253 0.1576 -0.8912
vn 0.8020 -0.3399 -0.4912
vn -0.6255 0.7276 0.2817
usemtl Matériau.012
s off
f 83//20 84//20 86//20 85//20
f 90//21 89//21 93//21 94//21
f 89//22 90//22 88//22 87//22
f 105//23 106//23 84//23 83//23
f 103//24 89//24 87//24 105//24
f 104//25 86//25 84//25 106//25
f 94//26 93//26 97//26 98//26
f 103//27 85//27 92//27 107//27
f 104//28 90//28 94//28 108//28
f 85//29 86//29 91//29 92//29
f 110//30 98//30 102//30 112//30
f 107//31 92//31 96//31 109//31
f 108//32 94//32 98//32 110//32
f 92//33 91//33 95//33 96//33
f 101//34 111//34 115//34 118//34
f 96//35 95//35 99//35 100//35
f 98//36 97//36 101//36 102//36
f 109//37 96//37 100//37 111//37
f 97//38 109//38 111//38 101//38
f 100//39 99//39 113//39 114//39
f 91//40 108//40 110//40 95//40
f 93//41 107//41 109//41 97//41
f 95//42 110//42 112//42 99//42
f 86//43 104//43 108//43 91//43
f 89//44 103//44 107//44 93//44
f 90//45 104//45 106//45 88//45
f 85//46 103//46 105//46 83//46
f 87//47 88//47 106//47 105//47
f 117//48 118//48 124//48 123//48
f 113//49 116//49 122//49 119//49
f 102//50 101//50 118//50 117//50
f 111//51 100//51 114//51 115//51
f 99//52 112//52 116//52 113//52
f 112//53 102//53 117//53 116//53
f 124//54 121//54 132//54 131//54
f 120//55 119//55 125//55 126//55
f 115//56 114//56 120//56 121//56
f 118//57 115//57 121//57 124//57
f 116//58 117//58 123//58 122//58
f 114//59 113//59 119//59 120//59
f 128//60 127//60 135//60 136//60
f 119//61 122//61 128//61 125//61
f 121//62 120//62 126//62 127//62
f 122//63 121//63 127//63 128//63
f 131//64 132//64 144//64 143//64
f 122//65 123//65 130//65 129//65
f 123//66 124//66 131//66 130//66
f 121//67 122//67 129//67 132//67
f 136//68 135//68 139//68 140//68
f 127//69 126//69 134//69 135//69
f 125//70 128//70 136//70 133//70
f 126//71 125//71 133//71 134//71
f 138//72 137//72 140//72 139//72
f 135//73 134//73 138//73 139//73
f 133//74 136//74 140//74 137//74
f 134//75 133//75 137//75 138//75
f 144//76 141//76 142//76 143//76
f 129//77 130//77 142//77 141//77
f 132//78 129//78 141//78 144//78
f 130//79 131//79 143//79 142//79
f 145//80 146//80 148//80 147//80
f 152//81 151//81 155//81 156//81
f 151//82 152//82 150//82 149//82
f 167//83 168//83 146//83 145//83
f 165//84 151//84 149//84 167//84
f 166//85 148//85 146//85 168//85
f 156//86 155//86 159//86 160//86
f 165//87 147//87 154//87 169//87
f 166//88 152//88 156//88 170//88
f 147//89 148//89 153//89 154//89
f 172//90 160//90 164//90 174//90
f 169//91 154//91 158//91 171//91
f 170//92 156//92 160//92 172//92
f 154//93 153//93 157//93 158//93
f 163//94 173//94 177//94 180//94
f 158//95 157//95 161//95 162//95
f 160//96 159//96 163//96 164//96
f 171//97 158//97 162//97 173//97
f 159//98 171//98 173//98 163//98
f 162//99 161//99 175//99 176//99
f 153//100 170//100 172//100 157//100
f 155//101 169//101 171//101 159//101
f 157//102 172//102 174//102 161//102
f 148//103 166//103 170//103 153//103
f 151//104 165//104 169//104 155//104
f 152//105 166//105 168//105 150//105
f 147//106 165//106 167//106 145//106
f 149//107 150//107 168//107 167//107
f 179//108 180//108 186//108 185//108
f 175//109 178//109 184//109 181//109
f 164//110 163//110 180//110 179//110
f 173//111 162//111 176//111 177//111
f 161//112 174//112 178//112 175//112
f 174//113 164//113 179//113 178//113
f 186//114 183//114 194//114 193//114
f 182//115 181//115 187//115 188//115
f 177//116 176//116 182//116 183//116
f 180//117 177//117 183//117 186//117
f 178//118 179//118 185//118 184//118
f 176//119 175//119 181//119 182//119
f 190//120 189//120 197//120 198//120
f 181//121 184//121 190//121 187//121
f 183//122 182//122 188//122 189//122
f 184//123 183//123 189//123 190//123
f 193//124 194//124 206//124 205//124
f 184//125 185//125 192//125 191//125
f 185//126 186//126 193//126 192//126
f 183//127 184//127 191//127 194//127
f 198//128 197//128 201//128 202//128
f 189//129 188//129 196//129 197//129
f 187//130 190//130 198//130 195//130
f 188//131 187//131 195//131 196//131
f 200//132 199//132 202//132 201//132
f 197//133 196//133 200//133 201//133
f 195//134 198//134 202//134 199//134
f 196//135 195//135 199//135 200//135
f 206//136 203//136 204//136 205//136
f 191//137 192//137 204//137 203//137
f 194//138 191//138 203//138 206//138
f 192//139 193//139 205//139 204//139
