# Blender v2.91.2 OBJ File: 'camionnete02.blend'
# www.blender.org
mtllib arme_000195.mtl
o Cube.046_Cube.010
v 142.660400 106.961182 -1198.070801
v 71.628510 -96.036438 -1149.846802
v 192.831604 40.896088 -1402.270142
v 121.799728 -162.101562 -1354.046143
v -59.864716 161.792572 -1265.570435
v -130.896622 -41.205048 -1217.346558
v -9.693436 95.727509 -1469.769653
v -80.725403 -107.270142 -1421.545776
v 73.584534 197.919678 -916.928833
v 2.552643 -5.077881 -868.704834
v -199.972412 49.753510 -936.204407
v -128.940536 252.751129 -984.428406
v 42.323242 239.084442 -789.693481
v -28.708710 36.086807 -741.469604
v -231.233795 90.918182 -808.969238
v -160.201920 293.915863 -857.193115
v 23.855392 263.402679 -714.528748
v -24.573296 111.634521 -691.957642
v -227.098465 166.465973 -759.457336
v -178.669708 318.234161 -782.028320
v 84.361664 183.728455 -960.792053
v 13.329758 -19.269104 -912.568115
v -118.163437 238.559906 -1028.291748
v -189.195374 35.562317 -980.067749
v 175.119598 64.219147 -1330.181396
v 104.087708 -138.778534 -1281.957520
v -27.405487 119.050476 -1397.681030
v -98.437332 -83.947113 -1349.456909
v 91.569061 68.311798 -1436.019897
v 20.537155 -134.685883 -1387.796021
v 41.397873 134.376862 -1231.820679
v -29.634033 -68.620789 -1183.596680
v -27.677994 225.335388 -950.678528
v -98.709892 22.337814 -902.454590
v -58.939316 266.500153 -823.443359
v -121.052597 73.573029 -764.408447
v -77.407150 290.818390 -748.278503
v -118.264069 124.515137 -731.022461
v -87.932816 8.146576 -946.317932
v -16.900894 211.144226 -994.541870
v 2.825134 -111.362854 -1315.707275
v 73.857101 91.634857 -1363.931152
v 142.200378 54.603973 -1419.144897
v 20.997208 -82.328598 -1166.721680
v -48.078644 8.629944 -885.579712
v -86.911812 64.329803 -753.029663
v -84.123276 115.271851 -719.643555
v 33.730392 197.436340 -977.666931
v 124.488342 77.926971 -1347.056396
v 71.168427 -148.393707 -1370.921143
v 92.029099 120.669037 -1214.945801
v 22.953262 211.627563 -933.803772
v -8.308067 252.792328 -806.568359
v -26.775864 277.110535 -731.403564
v -37.301529 -5.561249 -929.443054
v 53.456375 -125.070679 -1298.832520
v -50.601257 -43.569809 -920.413757
v -101.232552 -29.861908 -937.288696
v 40.156616 -163.079224 -1289.803223
v -10.474594 -149.371338 -1306.678223
v -42.933823 -106.629272 -1174.567383
v 7.697464 -120.337158 -1157.692505
v 231.630676 -3.591370 -1251.430420
v 217.277466 15.308716 -1193.012573
v 185.868042 -74.454803 -1171.688232
v 200.221008 -93.354858 -1230.106445
v 275.395203 -15.440094 -1236.844360
v 261.042084 3.459991 -1178.426270
v 229.632568 -86.303528 -1157.102051
v 243.985657 -105.203583 -1215.520142
v 342.368958 -33.572571 -1214.522705
v 328.015869 -14.672394 -1156.104614
v 296.606262 -104.435883 -1134.780518
v 310.959381 -123.335999 -1193.198608
v 385.465759 -45.240570 -1200.158936
v 371.112671 -26.340454 -1141.740967
v 339.703217 -116.103912 -1120.416870
v 354.056274 -135.003967 -1178.834839
v 235.990845 -365.429840 -2041.754517
v 185.359558 -351.722015 -2058.629395
v 256.391357 -148.724335 -2106.853516
v 307.022766 -162.432159 -2089.978516
vn 0.9189 -0.2488 0.3063
vn 0.2276 -0.2997 -0.9265
vn -0.9189 0.2488 -0.3063
vn 0.3223 0.9210 -0.2188
vn -0.3223 -0.9210 0.2188
vn -0.9189 0.2488 -0.3062
vn -0.3921 -0.4891 0.7791
vn -0.4008 -0.8886 0.2232
vn -0.3371 0.2141 0.9168
vn -0.9193 0.2487 -0.3049
vn 0.9193 -0.2487 0.3049
vn 0.5708 -0.3735 -0.7312
vn -0.2231 0.1825 0.9575
vn -0.2916 -0.9201 0.2615
vn -0.2713 0.1651 0.9482
vn -0.3366 -0.8993 0.2793
vn -0.2276 0.2997 0.9265
vn 0.9189 -0.2488 0.3062
vn 0.1523 0.1777 0.9722
vn 0.2382 -0.9054 0.3515
vn 0.7758 0.6308 -0.0135
usemtl Matériau.011
s off
f 25//1 26//1 4//1 3//1
f 29//2 30//2 8//2 7//2
f 27//3 28//3 6//3 5//3
f 22//1 21//1 9//1 10//1
f 42//4 27//4 5//4 31//4
f 56//5 26//5 2//5 44//5
f 10//1 9//1 13//1 14//1
f 55//5 22//5 10//5 45//5
f 23//6 24//6 11//6 12//6
f 46//7 14//7 18//7 47//7
f 45//8 10//8 14//8 46//8
f 12//3 11//3 15//3 16//3
f 33//4 12//4 16//4 35//4
f 54//9 47//9 18//9 17//9
f 16//10 15//10 19//10 20//10
f 14//11 13//11 17//11 18//11
f 5//3 6//3 24//3 23//3
f 44//5 2//5 22//5 55//5
f 31//4 5//4 23//4 40//4
f 2//1 1//1 21//1 22//1
f 50//5 4//5 26//5 56//5
f 29//4 7//4 27//4 42//4
f 7//3 8//3 28//3 27//3
f 26//12 25//12 63//12 66//12
f 43//4 29//4 42//4 49//4
f 8//5 30//5 41//5 28//5
f 51//4 31//4 40//4 48//4
f 6//5 32//5 39//5 24//5
f 20//13 19//13 38//13 37//13
f 52//4 33//4 35//4 53//4
f 11//14 34//14 36//14 15//14
f 15//7 36//7 38//7 19//7
f 24//5 39//5 34//5 11//5
f 28//5 41//5 32//5 6//5
f 49//4 42//4 31//4 51//4
f 30//3 29//3 81//3 80//3
f 3//2 4//2 50//2 43//2
f 25//4 49//4 51//4 1//4
f 9//4 52//4 53//4 13//4
f 1//4 51//4 48//4 21//4
f 3//4 43//4 49//4 25//4
f 30//5 50//5 56//5 41//5
f 32//3 41//3 60//3 61//3
f 37//15 38//15 47//15 54//15
f 34//16 45//16 46//16 36//16
f 36//7 46//7 47//7 38//7
f 39//5 55//5 45//5 34//5
f 55//17 39//17 58//17 57//17
f 61//5 62//5 57//5 58//5
f 60//5 59//5 62//5 61//5
f 39//3 32//3 61//3 58//3
f 44//18 55//18 57//18 62//18
f 41//2 56//2 59//2 60//2
f 56//18 44//18 62//18 59//18
f 66//2 63//2 67//2 70//2
f 1//19 2//19 65//19 64//19
f 2//20 26//20 66//20 65//20
f 25//21 1//21 64//21 63//21
f 69//5 70//5 74//5 73//5
f 64//17 65//17 69//17 68//17
f 65//5 66//5 70//5 69//5
f 63//4 64//4 68//4 67//4
f 73//5 74//5 78//5 77//5
f 67//4 68//4 72//4 71//4
f 70//2 67//2 71//2 74//2
f 68//17 69//17 73//17 72//17
f 76//18 77//18 78//18 75//18
f 71//4 72//4 76//4 75//4
f 74//2 71//2 75//2 78//2
f 82//2 79//2 80//2 81//2
f 50//5 30//5 80//5 79//5
f 43//1 50//1 79//1 82//1
f 29//4 43//4 82//4 81//4
o Cube.048_Cube.024
v -485.298615 559.059326 143.218384
v -680.899902 427.961884 88.893967
v -372.428070 471.403748 -51.651619
v -567.891846 340.052734 -105.959709
v -591.466003 688.868408 -49.676483
v -691.756287 621.651062 -77.530144
v -533.594116 643.924927 -149.591797
v -633.368835 576.818176 -176.907776
v -405.971985 302.685364 -468.430145
v -287.944275 338.508209 -439.990601
v -313.464355 455.399292 -481.316437
v -431.492096 419.576416 -509.756012
v -329.179413 267.128479 -667.754456
v -242.402771 293.466309 -646.844788
v -261.165710 379.407288 -677.228577
v -347.942200 353.069519 -698.138123
v -279.622772 247.330566 -792.726501
v -216.207397 266.577850 -777.446289
v -229.919281 329.382355 -799.650208
v -293.334473 310.135162 -814.930481
v -417.894897 573.572144 -101.212959
v -624.633667 435.053223 -157.722809
v -537.810547 666.714294 105.618774
v -745.465332 527.538208 47.946781
v -295.389343 396.607239 -464.915680
v -420.690338 358.576904 -495.107819
v -243.454651 332.360962 -678.708923
v -335.578705 304.400238 -700.907043
v -212.963837 291.534546 -813.016418
v -280.286865 271.101196 -829.238342
v -250.702118 219.688568 -877.932312
v -187.286926 238.935791 -862.651978
v -182.259705 266.659698 -909.109802
v -249.582703 246.226349 -925.331848
v -262.904510 284.834900 -909.350403
v -199.489136 304.082153 -894.070068
v -230.185699 201.056091 -939.608337
v -166.770569 220.303375 -924.328064
v -161.743225 248.027222 -970.786072
v -229.066345 227.593933 -987.007996
v -242.387909 266.202454 -971.026428
v -178.972717 285.449646 -955.746216
v -201.411926 170.489563 -966.587585
v -160.594482 182.878174 -956.752319
v -157.358643 200.722717 -986.655090
v -200.691437 187.570740 -997.096375
v -223.784149 250.361694 -1037.608521
v -237.105804 288.970306 -1021.627136
v -173.690613 308.217590 -1006.346985
v -156.461121 270.795105 -1021.386536
v -182.787415 148.622864 -984.596375
v -155.269348 156.974915 -977.965759
v -153.087830 169.005310 -998.125305
v -182.301697 160.138550 -1005.164612
v -166.253601 135.227417 -1011.740051
v -149.051758 140.448364 -1007.595154
v -147.688110 147.968567 -1020.197205
v -165.949890 142.425903 -1024.597534
v -212.217957 272.421417 -1059.554688
v -221.075653 298.092773 -1048.928467
v -178.909973 310.890503 -1038.768311
v -167.454163 286.007721 -1048.768555
v -313.399078 423.307373 485.209778
v -372.636871 242.821075 335.833893
v -151.995483 506.143677 320.564667
v -217.189636 327.818085 171.489075
v -465.243286 536.416382 313.512360
v -495.616150 443.875946 236.923157
v -374.351013 581.914307 229.426422
v -415.914062 487.456329 152.658936
v -163.736328 388.147247 -98.028755
v -83.962708 310.512939 -41.432091
v 12.476624 369.320526 -93.907753
v -64.378601 446.348816 -150.595337
v -154.744690 255.128143 -268.664642
v -97.424866 194.462341 -227.492004
v -24.374939 237.253540 -266.140076
v -81.694702 297.919312 -307.312805
v -146.261902 171.475037 -375.416992
v -104.373352 127.141174 -345.328552
v -50.989380 158.412476 -373.572113
v -92.877808 202.746155 -403.660492
v -235.951660 573.016357 289.899780
v -318.470215 383.984497 131.744080
v -420.608398 485.358093 464.797272
v -483.496643 293.749634 306.216370
v -34.069519 328.817078 -71.035042
v -116.836243 416.415283 -130.486206
v -60.403015 202.614929 -260.539368
v -121.254883 267.019135 -304.249146
v -78.218506 125.030334 -380.114441
v -122.688293 172.096069 -412.056976
v -155.369080 113.123657 -448.715607
v -113.480652 68.789978 -418.626984
v -83.472473 63.404907 -463.601837
v -127.942200 110.470581 -495.544525
v -98.724121 141.623962 -485.581879
v -56.835754 97.290222 -455.493378
v -160.865417 71.799683 -501.952484
v -118.976929 27.465942 -471.863983
v -88.968628 22.080811 -516.838928
v -133.438416 69.146606 -548.781372
v -104.220337 100.300049 -538.818726
v -62.331848 55.966309 -508.730377
v -175.978271 27.387817 -518.961304
v -149.016541 -1.147888 -499.594757
v -129.701660 -4.614014 -528.543091
v -158.324768 25.680054 -549.103088
v -107.639587 60.507080 -597.427917
v -78.421387 91.660522 -587.465454
v -36.533020 47.326660 -557.376953
v -63.169739 13.441284 -565.485413
v -187.637817 -2.324341 -530.388367
v -169.460999 -21.562317 -517.331970
v -156.439514 -23.899292 -536.848267
v -175.736389 -3.475586 -550.709229
v -191.847992 -29.184570 -551.610901
v -180.485535 -41.210510 -543.449097
v -172.345520 -42.671082 -555.648743
v -184.408264 -29.904297 -564.313416
v -81.609802 53.415161 -616.772339
v -62.182373 74.129395 -610.148010
v -34.330078 44.651367 -590.141663
v -52.041321 22.120544 -595.533142
vn 0.3561 -0.7572 0.5475
vn -0.2320 0.7948 -0.5608
vn -0.3565 0.7563 -0.5486
vn -0.3559 0.1487 0.9226
vn 0.5384 0.8401 -0.0661
vn -0.7873 -0.5844 -0.1964
vn -0.1777 0.9006 -0.3968
vn 0.9279 0.3567 0.1084
vn -0.8681 -0.1619 -0.4692
vn 0.3783 -0.8682 0.3210
vn -0.9160 -0.1974 -0.3493
vn 0.9665 0.1873 0.1753
vn -0.9183 -0.2290 -0.3228
vn 0.2243 -0.9408 0.2542
vn 0.9180 0.3395 0.2052
vn 0.2285 -0.9435 0.2401
vn -0.1730 0.8955 -0.4101
vn 0.9743 0.1470 0.1709
vn 0.9273 0.3621 0.0949
vn 0.1902 -0.9131 0.3608
vn -0.8864 -0.3751 -0.2712
vn 0.9346 0.3334 0.1236
vn -0.8690 -0.4124 -0.2733
vn -0.7806 -0.5364 -0.3208
vn 0.7014 0.7122 -0.0287
vn -0.8784 -0.1168 -0.4635
vn 0.8298 0.4947 0.2582
vn -0.5872 0.7479 0.3096
vn -0.1962 0.9187 -0.3428
vn -0.9210 -0.3302 -0.2066
vn -0.2055 0.9267 -0.3145
vn 0.9422 0.2306 0.2431
vn -0.9197 -0.3345 -0.2056
vn -0.9434 -0.2255 -0.2433
vn 0.9147 0.3241 0.2413
vn 0.0159 -0.6532 0.7570
vn 0.9413 0.2350 0.2421
vn 0.9179 0.3413 0.2022
vn -0.9431 -0.2235 -0.2462
vn 0.1962 -0.9187 0.3428
vn 0.1171 0.3516 -0.9288
vn -0.8123 -0.5005 -0.2994
vn 0.9898 0.0465 0.1349
vn 0.1268 0.3260 -0.9368
vn 0.8865 0.4506 -0.1056
vn -0.9480 -0.2412 -0.2075
vn -0.3487 0.8678 0.3541
vn 0.3487 -0.8678 -0.3541
vn -0.0500 0.7168 -0.6954
vn 0.9852 0.0774 0.1528
vn -0.8328 -0.4744 -0.2853
vn 0.0055 -0.6329 0.7742
vn 0.3569 -0.8187 -0.4499
vn 0.9836 0.0866 0.1581
vn -0.8389 -0.4663 -0.2809
vn 0.1372 -0.8525 0.5043
vn 0.0948 0.4085 -0.9078
vn -0.8485 -0.0760 -0.5236
vn 0.3612 -0.7460 -0.5595
vn -0.3162 0.9400 0.1284
vn 0.7154 -0.5765 0.3949
vn 0.1278 0.9625 -0.2391
vn -0.7005 0.5939 -0.3956
vn -0.4277 -0.4889 0.7603
vn -0.1110 0.9269 0.3584
vn -0.2001 -0.7802 -0.5927
vn 0.7740 0.4132 -0.4798
vn 0.9040 0.4197 0.0822
vn -0.6973 -0.2310 -0.6785
vn 0.2838 -0.9250 0.2528
vn -0.5239 0.6393 -0.5629
vn 0.5276 -0.7382 0.4203
vn -0.5553 0.6356 -0.5363
vn -0.7773 -0.5112 0.3667
vn 0.6630 -0.6217 0.4169
vn -0.7878 -0.5137 0.3399
vn 0.7753 0.4020 -0.4871
vn 0.5109 -0.7564 0.4084
vn 0.6936 -0.6494 0.3117
vn -0.7819 -0.4368 0.4449
vn -0.6795 0.5629 -0.4706
vn 0.6948 -0.6372 0.3335
vn -0.7067 0.5322 -0.4662
vn -0.5755 -0.7131 -0.4005
vn 0.5379 0.8375 -0.0963
vn -0.5639 -0.3832 -0.7316
vn 0.2963 0.6977 0.6523
vn -0.9513 0.0625 0.3018
vn 0.7836 0.4490 -0.4294
vn -0.6557 0.6277 -0.4196
vn 0.7857 0.4676 -0.4049
vn 0.5707 -0.6765 0.4654
vn -0.6592 0.6251 -0.4180
vn -0.5664 0.6795 -0.4662
vn 0.6457 -0.6157 0.4518
vn -0.6349 -0.0783 0.7686
vn 0.5745 -0.6742 0.4641
vn 0.6649 -0.6217 0.4140
vn -0.5644 0.6793 -0.4690
vn -0.7836 -0.4490 0.4294
vn 0.4208 -0.2026 -0.8843
vn -0.7635 0.4406 -0.4721
vn 0.4269 -0.8192 0.3829
vn 0.4016 -0.2233 -0.8882
vn 0.7698 -0.6298 0.1032
vn -0.5847 0.6866 -0.4320
vn 0.6375 0.7423 0.2063
vn -0.6375 -0.7423 -0.2063
vn 0.6763 0.1494 -0.7213
vn 0.4524 -0.7984 0.3974
vn -0.7485 0.4726 -0.4652
vn -0.6214 -0.0567 0.7815
vn -0.5839 -0.7547 -0.2992
vn 0.4599 -0.7919 0.4017
vn -0.7437 0.4823 -0.4629
vn -0.7554 -0.3292 0.5665
vn 0.4629 -0.1550 -0.8728
vn -0.3762 0.5831 -0.7200
vn -0.5094 -0.7579 -0.4076
vn 0.7292 0.6843 -0.0069
usemtl Matériau.012
s off
f 83//22 84//22 86//22 85//22
f 90//23 89//23 93//23 94//23
f 89//24 90//24 88//24 87//24
f 105//25 106//25 84//25 83//25
f 103//26 89//26 87//26 105//26
f 104//27 86//27 84//27 106//27
f 94//28 93//28 97//28 98//28
f 103//29 85//29 92//29 107//29
f 104//30 90//30 94//30 108//30
f 85//31 86//31 91//31 92//31
f 110//32 98//32 102//32 112//32
f 107//33 92//33 96//33 109//33
f 108//34 94//34 98//34 110//34
f 92//35 91//35 95//35 96//35
f 101//36 111//36 115//36 118//36
f 96//37 95//37 99//37 100//37
f 98//38 97//38 101//38 102//38
f 109//39 96//39 100//39 111//39
f 97//40 109//40 111//40 101//40
f 100//41 99//41 113//41 114//41
f 91//42 108//42 110//42 95//42
f 93//43 107//43 109//43 97//43
f 95//44 110//44 112//44 99//44
f 86//45 104//45 108//45 91//45
f 89//46 103//46 107//46 93//46
f 90//47 104//47 106//47 88//47
f 85//48 103//48 105//48 83//48
f 87//49 88//49 106//49 105//49
f 117//50 118//50 124//50 123//50
f 113//51 116//51 122//51 119//51
f 102//52 101//52 118//52 117//52
f 111//53 100//53 114//53 115//53
f 99//54 112//54 116//54 113//54
f 112//55 102//55 117//55 116//55
f 124//56 121//56 132//56 131//56
f 120//57 119//57 125//57 126//57
f 115//58 114//58 120//58 121//58
f 118//59 115//59 121//59 124//59
f 116//60 117//60 123//60 122//60
f 114//61 113//61 119//61 120//61
f 128//62 127//62 135//62 136//62
f 119//63 122//63 128//63 125//63
f 121//64 120//64 126//64 127//64
f 122//65 121//65 127//65 128//65
f 131//66 132//66 144//66 143//66
f 122//67 123//67 130//67 129//67
f 123//68 124//68 131//68 130//68
f 121//69 122//69 129//69 132//69
f 136//70 135//70 139//70 140//70
f 127//71 126//71 134//71 135//71
f 125//72 128//72 136//72 133//72
f 126//73 125//73 133//73 134//73
f 138//74 137//74 140//74 139//74
f 135//75 134//75 138//75 139//75
f 133//76 136//76 140//76 137//76
f 134//77 133//77 137//77 138//77
f 144//78 141//78 142//78 143//78
f 129//79 130//79 142//79 141//79
f 132//80 129//80 141//80 144//80
f 130//81 131//81 143//81 142//81
f 145//82 146//82 148//82 147//82
f 152//83 151//83 155//83 156//83
f 151//84 152//84 150//84 149//84
f 167//85 168//85 146//85 145//85
f 165//86 151//86 149//86 167//86
f 166//87 148//87 146//87 168//87
f 156//88 155//88 159//88 160//88
f 165//89 147//89 154//89 169//89
f 166//90 152//90 156//90 170//90
f 147//91 148//91 153//91 154//91
f 172//92 160//92 164//92 174//92
f 169//93 154//93 158//93 171//93
f 170//94 156//94 160//94 172//94
f 154//95 153//95 157//95 158//95
f 163//96 173//96 177//96 180//96
f 158//97 157//97 161//97 162//97
f 160//98 159//98 163//98 164//98
f 171//99 158//99 162//99 173//99
f 159//100 171//100 173//100 163//100
f 162//101 161//101 175//101 176//101
f 153//102 170//102 172//102 157//102
f 155//103 169//103 171//103 159//103
f 157//104 172//104 174//104 161//104
f 148//105 166//105 170//105 153//105
f 151//106 165//106 169//106 155//106
f 152//107 166//107 168//107 150//107
f 147//108 165//108 167//108 145//108
f 149//109 150//109 168//109 167//109
f 179//110 180//110 186//110 185//110
f 175//111 178//111 184//111 181//111
f 164//112 163//112 180//112 179//112
f 173//113 162//113 176//113 177//113
f 161//114 174//114 178//114 175//114
f 174//115 164//115 179//115 178//115
f 186//116 183//116 194//116 193//116
f 182//117 181//117 187//117 188//117
f 177//118 176//118 182//118 183//118
f 180//119 177//119 183//119 186//119
f 178//120 179//120 185//120 184//120
f 176//121 175//121 181//121 182//121
f 190//122 189//122 197//122 198//122
f 181//123 184//123 190//123 187//123
f 183//124 182//124 188//124 189//124
f 184//125 183//125 189//125 190//125
f 193//126 194//126 206//126 205//126
f 184//127 185//127 192//127 191//127
f 185//128 186//128 193//128 192//128
f 183//129 184//129 191//129 194//129
f 198//130 197//130 201//130 202//130
f 189//131 188//131 196//131 197//131
f 187//132 190//132 198//132 195//132
f 188//133 187//133 195//133 196//133
f 200//134 199//134 202//134 201//134
f 197//135 196//135 200//135 201//135
f 195//136 198//136 202//136 199//136
f 196//137 195//137 199//137 200//137
f 206//138 203//138 204//138 205//138
f 191//139 192//139 204//139 203//139
f 194//140 191//140 203//140 206//140
f 192//141 193//141 205//141 204//141
