# Blender v2.91.2 OBJ File: 'camionnete02.blend'
# www.blender.org
mtllib arme_000046.mtl
o Cube.046_Cube.010
v 130.737305 248.047592 -1149.420898
v 75.280258 34.760681 -1145.909424
v 206.466278 224.970749 -1355.118896
v 151.009216 11.683823 -1351.607666
v -68.683693 298.597290 -1228.510010
v -124.140793 85.310394 -1224.998535
v 7.045303 275.520447 -1434.208008
v -48.411797 62.233521 -1430.696777
v 26.473480 279.819824 -866.215576
v -28.983582 66.532982 -862.704102
v -228.404541 117.082672 -941.793213
v -172.947464 330.369568 -945.304626
v -20.712669 294.198914 -738.046387
v -76.169769 80.912003 -734.535034
v -275.590820 131.461700 -813.624146
v -220.133728 344.748596 -817.135498
v -48.588196 302.693359 -662.329895
v -84.118027 146.087952 -672.366638
v -283.539093 196.637695 -751.455688
v -248.009247 353.243103 -741.419006
v 34.572937 506.826477 -741.546936
v -164.848068 557.376160 -820.636108
v 6.697441 515.320923 -665.830383
v -192.723557 565.870667 -744.919495
v 42.740601 274.862793 -910.400696
v -12.716476 61.575912 -906.889404
v -156.680420 325.412476 -989.489990
v -212.137527 112.125610 -985.978455
v 44.780304 350.227417 -867.374695
v -154.640686 400.777161 -946.463806
v 61.047394 345.270386 -911.559753
v -138.373627 395.820068 -990.648926
v 71.340515 452.377380 -869.056335
v -128.080490 502.927124 -948.145386
v 87.607529 447.420288 -913.241638
v -111.813416 497.970032 -992.330688
v -1.339417 364.281494 -742.102417
v -200.760437 414.831177 -821.191467
v 25.220764 466.431458 -743.783997
v -174.200256 516.981140 -822.873169
v 86.589920 633.830444 -791.531677
v -112.831100 684.380188 -870.620850
v 58.714386 642.324951 -715.815247
v -140.706573 692.874634 -794.904297
v 179.731598 233.117569 -1282.501221
v 124.274536 19.830673 -1278.989746
v -19.689407 283.667297 -1361.590332
v -75.146454 70.380356 -1358.078857
v 106.755768 250.245590 -1394.663574
v 51.298706 36.958664 -1391.152344
v 31.026825 273.322449 -1188.965576
v -24.430267 60.035538 -1185.454102
v -73.236977 305.094666 -905.760010
v -128.694061 91.807816 -902.248596
v -120.423187 319.473755 -777.590881
v -169.055801 114.742691 -760.735718
v -148.298691 327.968201 -701.874451
v -174.415314 158.691025 -718.815430
v -65.137566 532.101318 -781.091431
v -93.013062 540.595764 -705.375000
v -112.427002 86.850769 -946.433899
v -56.969910 300.137634 -949.945312
v -54.930183 375.502319 -906.919250
v -38.663116 370.545227 -951.104309
v -28.369980 477.652283 -908.600830
v -12.102943 472.695190 -952.786133
v -101.049927 389.556396 -781.646973
v -74.489731 491.706360 -783.328552
v -13.120605 659.105286 -831.076294
v -40.996124 667.599731 -755.359741
v 24.564026 45.105530 -1318.534424
v 80.021118 258.392456 -1322.045654
v 156.611053 237.608139 -1374.891113
v 25.424988 47.398117 -1165.681885
v -78.838821 79.170395 -882.476440
v -135.438278 106.221237 -747.403259
v -140.797791 150.169556 -705.482849
v -7.114655 287.500183 -930.172974
v 11.192108 357.907776 -931.332153
v 37.752289 460.057739 -933.013855
v 129.876343 245.754990 -1302.273682
v 101.153961 24.321228 -1371.379883
v 80.882034 260.684998 -1169.193359
v -23.381744 292.457275 -885.987854
v -70.567947 306.836304 -757.818665
v -98.443459 315.330811 -682.102112
v -15.282295 519.463867 -761.319214
v -43.157806 527.958374 -685.602661
v -62.571751 74.213333 -926.661682
v -5.074951 362.864868 -887.146912
v 21.485245 465.014832 -888.828613
v -51.194672 376.918945 -761.874634
v -24.634468 479.068909 -763.556335
v 36.734680 646.467896 -811.303955
v 8.859138 654.962280 -735.587402
v 74.419250 32.468109 -1298.762207
v -72.955307 34.278275 -926.004150
v -122.810570 46.915695 -945.776428
v 64.035645 -7.466946 -1298.104736
v 14.180443 5.170452 -1317.876953
v -34.813843 20.100464 -1184.796875
v 15.041397 7.463051 -1165.024414
v 234.666260 156.485382 -1211.064697
v 213.001495 163.087265 -1152.218018
v 188.479034 68.773972 -1150.665283
v 210.143677 62.172104 -1209.512207
v 277.760101 145.561859 -1193.974121
v 256.095306 152.163757 -1135.127441
v 231.572815 57.850471 -1133.574707
v 253.237549 51.248589 -1192.421387
v 343.707458 128.845413 -1167.820068
v 322.042603 135.447281 -1108.973145
v 297.520111 41.134033 -1107.420410
v 319.184784 34.532143 -1166.267334
v 386.143677 118.088547 -1150.990234
v 364.478882 124.690445 -1092.143311
v 339.956451 30.377167 -1090.590576
v 361.621124 23.775284 -1149.437256
v 349.938507 -51.490433 -2047.136719
v 300.083221 -38.853027 -2066.908936
v 355.540161 174.433945 -2070.420410
v 405.395538 161.796463 -2050.648193
v 26.797562 716.367310 -849.813293
v -65.080292 739.656738 -886.251465
v 1.111801 724.194519 -780.044434
v -90.766022 747.483887 -816.482727
v 92.989624 700.905090 -743.606445
v 118.675491 693.078003 -813.375000
v 72.736603 704.722778 -831.594055
v 47.050690 712.549744 -761.825439
vn 0.9048 -0.2293 0.3588
vn 0.3436 -0.1047 -0.9333
vn -0.9048 0.2293 -0.3588
vn 0.2516 0.9677 -0.0159
vn -0.2516 -0.9677 0.0159
vn -0.3436 0.1047 0.9333
vn -0.4163 -0.6536 0.6320
vn -0.3330 -0.9428 0.0171
vn -0.4428 0.0141 0.8965
vn -0.9054 0.2290 -0.3576
vn 0.9054 -0.2290 0.3576
vn 0.2335 -0.4374 -0.8684
vn 0.2308 -0.4441 -0.8657
vn -0.2335 0.4374 0.8684
vn 0.6719 -0.1865 -0.7168
vn -0.7569 0.5574 -0.3412
vn -0.3308 -0.0155 0.9436
vn -0.2255 -0.9723 0.0613
vn -0.2008 0.5133 0.8344
vn -0.3760 -0.0347 0.9260
vn -0.2737 -0.9587 0.0773
vn 0.0402 0.0060 0.9992
vn 0.2894 -0.9336 0.2113
vn 0.7091 0.6805 0.1847
vn 0.8699 -0.3390 0.3583
usemtl Matériau.011
s off
f 45//1 46//1 4//1 3//1
f 49//2 50//2 8//2 7//2
f 47//3 48//3 6//3 5//3
f 26//1 25//1 9//1 10//1
f 72//4 47//4 5//4 51//4
f 96//5 46//5 2//5 74//5
f 10//1 9//1 13//1 14//1
f 84//6 9//6 29//6 90//6
f 89//5 26//5 10//5 75//5
f 27//3 28//3 11//3 12//3
f 76//7 14//7 18//7 77//7
f 75//8 10//8 14//8 76//8
f 12//3 11//3 15//3 16//3
f 53//4 12//4 16//4 55//4
f 86//9 77//9 18//9 17//9
f 16//10 15//10 19//10 20//10
f 16//3 20//3 24//3 22//3
f 14//11 13//11 17//11 18//11
f 59//12 22//12 42//12 69//12
f 86//6 17//6 23//6 88//6
f 17//1 13//1 21//1 23//1
f 55//2 16//2 22//2 59//2
f 5//3 6//3 28//3 27//3
f 74//5 2//5 26//5 89//5
f 51//4 5//4 27//4 62//4
f 2//1 1//1 25//1 26//1
f 32//3 30//3 34//3 36//3
f 62//2 27//2 32//2 64//2
f 27//3 12//3 30//3 32//3
f 9//1 25//1 31//1 29//1
f 66//4 36//4 34//4 65//4
f 90//5 29//5 37//5 92//5
f 64//2 32//2 36//2 66//2
f 29//1 31//1 35//1 33//1
f 92//6 37//6 39//6 93//6
f 29//1 33//1 39//1 37//1
f 34//3 30//3 38//3 40//3
f 65//4 34//4 40//4 68//4
f 69//13 42//13 124//13 123//13
f 23//1 21//1 41//1 43//1
f 88//14 23//14 43//14 95//14
f 22//3 24//3 44//3 42//3
f 82//5 4//5 46//5 96//5
f 49//4 7//4 47//4 72//4
f 7//3 8//3 48//3 47//3
f 46//15 45//15 103//15 106//15
f 73//4 49//4 72//4 81//4
f 8//5 50//5 71//5 48//5
f 24//14 60//14 70//14 44//14
f 42//16 44//16 126//16 124//16
f 91//4 65//4 68//4 93//4
f 38//6 67//6 68//6 40//6
f 79//2 64//2 66//2 80//2
f 30//5 63//5 67//5 38//5
f 80//4 66//4 65//4 91//4
f 78//2 62//2 64//2 79//2
f 83//4 51//4 62//4 78//4
f 6//5 52//5 61//5 28//5
f 85//2 55//2 59//2 87//2
f 20//6 57//6 60//6 24//6
f 87//12 59//12 69//12 94//12
f 20//17 19//17 58//17 57//17
f 84//4 53//4 55//4 85//4
f 11//18 54//18 56//18 15//18
f 15//7 56//7 58//7 19//7
f 28//5 61//5 54//5 11//5
f 12//6 53//6 63//6 30//6
f 48//5 71//5 52//5 6//5
f 81//4 72//4 51//4 83//4
f 50//3 49//3 121//3 120//3
f 3//2 4//2 82//2 73//2
f 45//4 81//4 83//4 1//4
f 9//4 84//4 85//4 13//4
f 21//12 87//12 94//12 41//12
f 13//2 85//2 87//2 21//2
f 1//4 83//4 78//4 25//4
f 25//2 78//2 79//2 31//2
f 35//4 80//4 91//4 33//4
f 31//2 79//2 80//2 35//2
f 33//4 91//4 93//4 39//4
f 70//19 95//19 130//19 125//19
f 3//4 73//4 81//4 45//4
f 50//5 82//5 96//5 71//5
f 60//14 88//14 95//14 70//14
f 67//6 92//6 93//6 68//6
f 63//5 90//5 92//5 67//5
f 52//3 71//3 100//3 101//3
f 57//6 86//6 88//6 60//6
f 57//20 58//20 77//20 86//20
f 54//21 75//21 76//21 56//21
f 56//7 76//7 77//7 58//7
f 61//5 89//5 75//5 54//5
f 53//6 84//6 90//6 63//6
f 89//6 61//6 98//6 97//6
f 101//5 102//5 97//5 98//5
f 100//5 99//5 102//5 101//5
f 61//3 52//3 101//3 98//3
f 74//1 89//1 97//1 102//1
f 71//2 96//2 99//2 100//2
f 96//1 74//1 102//1 99//1
f 106//2 103//2 107//2 110//2
f 1//22 2//22 105//22 104//22
f 2//23 46//23 106//23 105//23
f 45//24 1//24 104//24 103//24
f 109//5 110//5 114//5 113//5
f 104//6 105//6 109//6 108//6
f 105//5 106//5 110//5 109//5
f 103//4 104//4 108//4 107//4
f 113//5 114//5 118//5 117//5
f 107//4 108//4 112//4 111//4
f 110//2 107//2 111//2 114//2
f 108//6 109//6 113//6 112//6
f 116//1 117//1 118//1 115//1
f 111//4 112//4 116//4 115//4
f 114//2 111//2 115//2 118//2
f 122//2 119//2 120//2 121//2
f 82//5 50//5 120//5 119//5
f 73//1 82//1 119//1 122//1
f 49//4 73//4 122//4 121//4
f 123//4 124//4 126//4 125//4
f 129//4 123//4 125//4 130//4
f 128//4 129//4 130//4 127//4
f 95//19 43//19 127//19 130//19
f 94//13 69//13 123//13 129//13
f 43//25 41//25 128//25 127//25
f 44//19 70//19 125//19 126//19
f 41//13 94//13 129//13 128//13
o Cube.048_Cube.024
v -563.087341 455.960480 181.731659
v -724.764526 340.308044 44.317734
v -423.880463 492.095276 -12.467415
v -586.199585 379.056763 -147.701965
v -682.049744 645.671692 58.492317
v -764.946045 586.373474 -11.963600
v -610.674438 664.199036 -41.078979
v -693.059692 605.681091 -111.108101
v -406.332214 489.867218 -438.493256
v -295.593658 528.825256 -391.144897
v -328.157837 649.014954 -413.875183
v -438.896362 610.056885 -461.223602
v -307.638306 497.835236 -631.074646
v -226.220856 526.478088 -596.262939
v -250.162720 614.844238 -612.974731
v -331.580200 586.201355 -647.786438
v -244.603638 505.384766 -751.222351
v -185.104797 526.316528 -725.782532
v -202.601166 590.893372 -737.995300
v -262.099884 569.961609 -763.435181
v -486.118896 597.513184 -14.687317
v -657.394043 478.002380 -158.215851
v -634.007202 559.093384 191.467682
v -805.647339 436.314087 45.585930
v -306.166504 589.779724 -406.143463
v -423.729187 548.421021 -456.409637
v -227.942017 570.395630 -620.706848
v -314.376709 539.987793 -657.663818
v -180.870850 557.596558 -755.819641
v -244.036194 535.374878 -782.827209
v -205.085693 496.299133 -836.171326
v -145.586853 517.230896 -810.731384
v -138.804199 553.373535 -850.730347
v -201.969635 531.151855 -877.737854
v -220.425171 564.991150 -856.814514
v -160.926392 585.922913 -831.374634
v -177.027039 491.038483 -897.466125
v -117.528381 511.970276 -872.026245
v -110.745850 548.112854 -912.025208
v -173.911133 525.891235 -939.032776
v -192.366669 559.730469 -918.109497
v -132.867920 580.662170 -892.669495
v -142.979309 468.306488 -925.998962
v -104.682495 481.779358 -909.624329
v -100.316833 505.042755 -935.369934
v -140.973450 490.739685 -952.753479
v -165.999390 557.964478 -983.926331
v -184.455017 591.803711 -963.002869
v -124.956177 612.735535 -937.563110
v -102.834229 580.186157 -956.918579
v -120.687805 451.654236 -945.367188
v -94.869141 460.737244 -934.327942
v -91.926025 476.420837 -951.684998
v -119.335632 466.778076 -963.404358
v -100.404236 444.829163 -972.414856
v -84.264709 450.507050 -965.514099
v -82.424866 460.310974 -976.364075
v -99.558838 454.283203 -983.690125
v -154.553162 584.529602 -1000.214783
v -166.824524 607.029724 -986.302551
v -127.263000 620.947571 -969.387268
v -112.553650 599.304993 -982.257141
v -302.130096 475.322693 470.326599
v -295.877197 296.212891 308.221191
v -153.401611 599.862244 323.630676
v -155.072144 430.681366 165.078735
v -462.598206 555.196045 288.116425
v -459.392151 463.361511 205.000458
v -387.051514 623.563965 217.685760
v -387.197510 532.307190 131.607300
v 0.259216 709.768738 -79.438957
v 81.725891 735.013672 13.839989
v 9.356812 831.224915 50.745018
v -71.537415 806.686401 -41.035561
v 110.261719 858.005249 -192.650543
v 170.841248 875.789917 -124.277473
v 118.054749 947.045898 -96.042336
v 57.475159 929.261414 -164.415680
v 179.287292 952.741943 -261.398987
v 223.557983 965.738647 -211.432648
v 184.982239 1017.811646 -190.798798
v 140.711609 1004.814880 -240.765076
v -259.831879 643.231201 291.767426
v -263.728363 460.318604 117.041733
v -419.848450 507.710846 441.099945
v -413.210205 317.563721 269.005096
v 52.119690 786.599792 32.228783
v -35.354004 760.919800 -66.498634
v 155.830750 923.550354 -119.497810
v 91.518005 904.669678 -192.084290
v 219.339050 1008.859375 -216.058655
v 172.340393 995.061768 -269.103912
v 228.753479 1007.806519 -319.549438
v 273.024109 1020.803223 -269.583069
v 270.495178 1074.354614 -278.419342
v 223.496399 1060.556885 -331.464813
v 191.607971 1068.706909 -302.478851
v 235.878662 1081.703613 -252.512573
v 263.547852 1048.406494 -360.938080
v 307.818665 1061.403198 -310.971802
v 305.289734 1114.954712 -319.808228
v 258.290833 1101.156982 -372.853455
v 226.402344 1109.306885 -343.867554
v 270.673035 1122.303589 -293.901337
v 306.587341 1056.790527 -384.758667
v 335.082458 1065.155884 -352.597656
v 333.454651 1099.624512 -358.285278
v 303.203674 1090.743530 -392.428192
v 258.861389 1154.971924 -387.356812
v 226.972900 1163.121826 -358.370972
v 271.243591 1176.118408 -308.404633
v 305.860229 1168.769653 -334.311554
v 335.496765 1061.385010 -401.860779
v 354.707214 1067.024658 -380.178558
v 353.610046 1090.262573 -384.013153
v 333.215515 1084.275269 -407.031311
v 359.801697 1077.686523 -420.112335
v 371.810364 1081.211914 -406.558563
v 371.124329 1095.738159 -408.955231
v 358.375671 1091.995361 -423.344360
v 261.471985 1187.576416 -381.685120
v 240.268799 1192.995361 -362.411987
v 269.704956 1201.637085 -329.188782
v 292.721924 1196.750732 -346.414429
vn 0.4692 -0.8667 0.1694
vn -0.3133 0.9172 -0.2463
vn -0.4695 0.8657 -0.1736
vn -0.4308 -0.3738 0.8214
vn 0.3601 0.8360 0.4140
vn -0.6361 -0.5231 -0.5672
vn -0.2246 0.9419 -0.2497
vn 0.8433 0.4056 0.3528
vn -0.7923 -0.0776 -0.6051
vn 0.4739 -0.8803 0.0241
vn -0.8548 -0.1996 -0.4790
vn 0.9226 0.2258 0.3128
vn -0.8566 -0.2356 -0.4590
vn 0.2883 -0.9514 0.1084
vn 0.8570 0.3656 0.3633
vn 0.2942 -0.9511 0.0946
vn -0.2182 0.9398 -0.2630
vn 0.9346 0.1877 0.3022
vn 0.8747 0.4089 0.2604
vn 0.2416 -0.9466 0.2137
vn -0.8159 -0.3858 -0.4306
vn 0.8819 0.3760 0.2844
vn -0.7949 -0.4207 -0.4372
vn -0.6467 -0.4719 -0.5992
vn 0.5722 0.7536 0.3236
vn -0.8082 -0.0075 -0.5888
vn 0.6967 0.4240 0.5786
vn -0.7428 0.4057 0.5325
vn -0.2499 0.9483 -0.1958
vn -0.8607 -0.3565 -0.3634
vn -0.2626 0.9502 -0.1678
vn 0.8878 0.2538 0.3839
vn -0.8591 -0.3608 -0.3630
vn -0.8894 -0.2488 -0.3834
vn 0.8517 0.3436 0.3956
vn 0.0058 -0.7788 0.6273
vn 0.8866 0.2582 0.3837
vn 0.8570 0.3680 0.3607
vn -0.8891 -0.2463 -0.3858
vn 0.2499 -0.9483 0.1958
vn 0.1715 0.5253 -0.8334
vn -0.7277 -0.4977 -0.4719
vn 0.9631 0.0971 0.2511
vn 0.1844 0.5025 -0.8447
vn 0.8450 0.5295 0.0754
vn -0.8960 -0.2712 -0.3517
vn -0.4631 0.7577 0.4597
vn 0.4631 -0.7577 -0.4597
vn -0.0516 0.8271 -0.5598
vn 0.9539 0.1237 0.2735
vn -0.7519 -0.4764 -0.4558
vn -0.0081 -0.7628 0.6466
vn 0.4757 -0.6912 -0.5439
vn 0.9509 0.1316 0.2802
vn -0.7591 -0.4697 -0.4507
vn 0.1695 -0.9179 0.3588
vn 0.1419 0.5754 -0.8054
vn -0.7829 -0.0432 -0.6207
vn 0.4836 -0.5994 -0.6378
vn -0.4162 0.8727 0.2554
vn 0.8020 -0.3989 0.4447
vn -0.6154 0.7587 -0.2135
vn -0.8025 0.3976 -0.4448
vn -0.3462 -0.6362 0.6895
vn -0.3737 0.8447 0.3832
vn 0.0758 -0.7629 -0.6421
vn -0.5276 0.8113 0.2517
vn 0.3771 0.6358 0.6734
vn -0.3767 -0.2035 -0.9037
vn 0.8160 -0.5556 0.1596
vn -0.6604 -0.0401 -0.7498
vn 0.7333 0.1762 0.6567
vn -0.6511 -0.0800 -0.7547
vn 0.6073 -0.7166 -0.3429
vn 0.6143 0.2371 0.7526
vn 0.6115 -0.7055 -0.3583
vn -0.5181 0.8192 0.2459
vn 0.7585 0.1594 0.6319
vn 0.6264 0.3377 0.7026
vn 0.5478 -0.7882 -0.2804
vn -0.5614 -0.2011 -0.8028
vn 0.6317 0.3088 0.7110
vn -0.5284 -0.2184 -0.8205
vn -0.1033 -0.5457 -0.8316
vn -0.0650 0.8208 0.5676
vn -0.3682 -0.4690 -0.8028
vn 0.0553 0.7208 0.6909
vn -0.9559 -0.2148 0.2004
vn -0.5581 0.7765 0.2925
vn -0.6212 -0.2311 -0.7488
vn -0.5737 0.7576 0.3112
vn 0.6817 0.1474 0.7166
vn -0.6181 -0.2342 -0.7504
vn -0.6851 -0.1443 -0.7140
vn 0.6139 0.1993 0.7638
vn 0.2213 -0.9735 0.0572
vn 0.6790 0.1506 0.7185
vn 0.6138 0.2405 0.7519
vn -0.6854 -0.1409 -0.7144
vn 0.5581 -0.7765 -0.2925
vn 0.0592 0.9521 -0.3001
vn -0.4340 -0.2394 -0.8685
vn 0.8240 0.1299 0.5514
vn 0.0808 0.9449 -0.3173
vn 0.5756 0.5370 0.6167
vn -0.6865 -0.1824 -0.7039
vn -0.7591 0.1769 0.6265
vn 0.7591 -0.1769 -0.6265
vn -0.2891 0.9573 0.0071
vn 0.8032 0.1337 0.5805
vn -0.4660 -0.2389 -0.8519
vn 0.2005 -0.9767 0.0764
vn 0.7557 -0.0717 -0.6509
vn 0.7968 0.1348 0.5891
vn -0.4757 -0.2386 -0.8466
vn 0.4542 -0.8735 -0.1753
vn 0.0102 0.9655 -0.2602
vn -0.6357 0.1814 -0.7503
vn 0.7398 0.0574 -0.6704
vn -0.7349 0.4011 0.5468
usemtl Matériau.012
s off
f 131//26 132//26 134//26 133//26
f 138//27 137//27 141//27 142//27
f 137//28 138//28 136//28 135//28
f 153//29 154//29 132//29 131//29
f 151//30 137//30 135//30 153//30
f 152//31 134//31 132//31 154//31
f 142//32 141//32 145//32 146//32
f 151//33 133//33 140//33 155//33
f 152//34 138//34 142//34 156//34
f 133//35 134//35 139//35 140//35
f 158//36 146//36 150//36 160//36
f 155//37 140//37 144//37 157//37
f 156//38 142//38 146//38 158//38
f 140//39 139//39 143//39 144//39
f 149//40 159//40 163//40 166//40
f 144//41 143//41 147//41 148//41
f 146//42 145//42 149//42 150//42
f 157//43 144//43 148//43 159//43
f 145//44 157//44 159//44 149//44
f 148//45 147//45 161//45 162//45
f 139//46 156//46 158//46 143//46
f 141//47 155//47 157//47 145//47
f 143//48 158//48 160//48 147//48
f 134//49 152//49 156//49 139//49
f 137//50 151//50 155//50 141//50
f 138//51 152//51 154//51 136//51
f 133//52 151//52 153//52 131//52
f 135//53 136//53 154//53 153//53
f 165//54 166//54 172//54 171//54
f 161//55 164//55 170//55 167//55
f 150//56 149//56 166//56 165//56
f 159//57 148//57 162//57 163//57
f 147//58 160//58 164//58 161//58
f 160//59 150//59 165//59 164//59
f 172//60 169//60 180//60 179//60
f 168//61 167//61 173//61 174//61
f 163//62 162//62 168//62 169//62
f 166//63 163//63 169//63 172//63
f 164//64 165//64 171//64 170//64
f 162//65 161//65 167//65 168//65
f 176//66 175//66 183//66 184//66
f 167//67 170//67 176//67 173//67
f 169//68 168//68 174//68 175//68
f 170//69 169//69 175//69 176//69
f 179//70 180//70 192//70 191//70
f 170//71 171//71 178//71 177//71
f 171//72 172//72 179//72 178//72
f 169//73 170//73 177//73 180//73
f 184//74 183//74 187//74 188//74
f 175//75 174//75 182//75 183//75
f 173//76 176//76 184//76 181//76
f 174//77 173//77 181//77 182//77
f 186//78 185//78 188//78 187//78
f 183//79 182//79 186//79 187//79
f 181//80 184//80 188//80 185//80
f 182//81 181//81 185//81 186//81
f 192//82 189//82 190//82 191//82
f 177//83 178//83 190//83 189//83
f 180//84 177//84 189//84 192//84
f 178//85 179//85 191//85 190//85
f 193//86 194//86 196//86 195//86
f 200//87 199//87 203//87 204//87
f 199//88 200//88 198//88 197//88
f 215//89 216//89 194//89 193//89
f 213//90 199//90 197//90 215//90
f 214//91 196//91 194//91 216//91
f 204//92 203//92 207//92 208//92
f 213//93 195//93 202//93 217//93
f 214//94 200//94 204//94 218//94
f 195//95 196//95 201//95 202//95
f 220//96 208//96 212//96 222//96
f 217//97 202//97 206//97 219//97
f 218//98 204//98 208//98 220//98
f 202//99 201//99 205//99 206//99
f 211//100 221//100 225//100 228//100
f 206//101 205//101 209//101 210//101
f 208//102 207//102 211//102 212//102
f 219//103 206//103 210//103 221//103
f 207//104 219//104 221//104 211//104
f 210//105 209//105 223//105 224//105
f 201//106 218//106 220//106 205//106
f 203//107 217//107 219//107 207//107
f 205//108 220//108 222//108 209//108
f 196//109 214//109 218//109 201//109
f 199//110 213//110 217//110 203//110
f 200//111 214//111 216//111 198//111
f 195//112 213//112 215//112 193//112
f 197//113 198//113 216//113 215//113
f 227//114 228//114 234//114 233//114
f 223//115 226//115 232//115 229//115
f 212//116 211//116 228//116 227//116
f 221//117 210//117 224//117 225//117
f 209//118 222//118 226//118 223//118
f 222//119 212//119 227//119 226//119
f 234//120 231//120 242//120 241//120
f 230//121 229//121 235//121 236//121
f 225//122 224//122 230//122 231//122
f 228//123 225//123 231//123 234//123
f 226//124 227//124 233//124 232//124
f 224//125 223//125 229//125 230//125
f 238//126 237//126 245//126 246//126
f 229//127 232//127 238//127 235//127
f 231//128 230//128 236//128 237//128
f 232//129 231//129 237//129 238//129
f 241//130 242//130 254//130 253//130
f 232//131 233//131 240//131 239//131
f 233//132 234//132 241//132 240//132
f 231//133 232//133 239//133 242//133
f 246//134 245//134 249//134 250//134
f 237//135 236//135 244//135 245//135
f 235//136 238//136 246//136 243//136
f 236//137 235//137 243//137 244//137
f 248//138 247//138 250//138 249//138
f 245//139 244//139 248//139 249//139
f 243//140 246//140 250//140 247//140
f 244//141 243//141 247//141 248//141
f 254//142 251//142 252//142 253//142
f 239//143 240//143 252//143 251//143
f 242//144 239//144 251//144 254//144
f 240//145 241//145 253//145 252//145
