# Blender v2.91.2 OBJ File: 'camionnete02.blend'
# www.blender.org
mtllib arme_000124.mtl
o Cube.046_Cube.010
v 110.071594 580.331421 -1260.968262
v 138.416016 362.374969 -1244.515869
v 165.609619 571.467224 -1474.078857
v 193.953995 353.510834 -1457.626465
v -101.331398 548.779602 -1314.749023
v -72.986992 330.823151 -1298.296387
v -45.793373 539.915466 -1527.859375
v -17.449013 321.959015 -1511.406982
v 33.606758 592.535583 -967.557495
v 61.951168 374.579193 -951.104980
v -149.451782 343.027374 -1004.885620
v -177.796204 560.983826 -1021.338074
v -0.998558 598.058838 -834.769714
v 27.345810 380.102386 -818.317261
v -184.057159 348.550568 -872.097900
v -212.401581 566.507019 -888.550354
v -21.441872 601.321655 -756.324707
v 2.753807 442.256561 -757.423218
v -208.649231 410.704773 -811.203857
v -232.844910 569.769897 -810.105347
v 45.536713 590.631470 -1013.334900
v 73.881104 372.675110 -996.882446
v -165.866272 559.079712 -1067.115723
v -137.521912 341.123291 -1050.663086
v 146.002930 574.596558 -1398.844238
v 174.347366 356.640106 -1382.391846
v -65.400032 543.044800 -1452.624756
v -37.055580 325.088348 -1436.172363
v 59.908081 555.691345 -1500.969238
v 88.252518 337.734894 -1484.516602
v 4.370102 564.555542 -1287.858643
v 32.714546 346.599030 -1271.406250
v -72.094719 576.759705 -994.447754
v -43.750313 358.803253 -977.995239
v -106.700081 582.282959 -861.660095
v -73.753807 375.732758 -833.101562
v -127.143349 585.545776 -783.215027
v -90.336281 417.643494 -792.040588
v -31.820412 356.899170 -1023.772827
v -60.164803 574.855591 -1040.225342
v 68.645851 340.864197 -1409.281982
v 40.301476 558.820679 -1425.734375
v 112.758911 563.579346 -1487.523926
v 85.565277 354.487000 -1257.960938
v 9.100410 366.691193 -964.550171
v -38.116417 381.051605 -824.035522
v -54.698860 422.962341 -782.974426
v -7.314049 582.743530 -1026.780029
v 93.152222 566.708618 -1412.289307
v 141.103287 345.622833 -1471.071533
v 57.220818 572.443481 -1274.413574
v -19.243996 584.647644 -981.002686
v -53.849342 590.170898 -848.214905
v -74.292641 593.433716 -769.769836
v 21.030350 364.787140 -1010.327637
v 121.496559 348.752167 -1395.836914
v 26.337471 323.977783 -1007.247131
v -26.513283 316.089844 -1020.692261
v 126.803658 307.942780 -1392.756592
v 73.952972 300.054840 -1406.201660
v 38.021599 305.789673 -1268.325684
v 90.872375 313.677643 -1254.880615
v 233.004684 528.707642 -1333.129883
v 217.116180 531.243530 -1272.162598
v 229.649902 434.865448 -1264.887207
v 245.538239 432.329529 -1325.854736
v 278.687714 535.525879 -1321.508301
v 262.799194 538.061707 -1260.540771
v 275.332886 441.683624 -1253.265625
v 291.221283 439.147736 -1314.233154
v 348.597351 545.959839 -1303.723389
v 332.708862 548.495728 -1242.755859
v 345.242523 452.117645 -1235.480713
v 361.130920 449.581726 -1296.448242
v 393.583313 552.673889 -1292.279053
v 377.694885 555.209839 -1231.311768
v 390.228546 458.831787 -1224.036621
v 406.116943 456.295868 -1285.003906
v 323.556458 316.502686 -2171.179688
v 270.705688 308.614716 -2184.624756
v 242.361145 526.571228 -2201.077393
v 295.212006 534.459167 -2187.632080
vn 0.9591 0.1432 0.2440
vn 0.2520 -0.0402 -0.9669
vn -0.9591 -0.1432 -0.2440
vn -0.1286 0.9889 -0.0746
vn 0.1286 -0.9889 0.0746
vn -0.9592 -0.1432 -0.2440
vn -0.0713 -0.7123 0.6982
vn 0.0445 -0.9953 0.0857
vn -0.3140 -0.0828 0.9458
vn -0.9594 -0.1436 -0.2427
vn 0.9594 0.1436 0.2427
vn 0.6091 0.0194 -0.7929
vn -0.1945 -0.0660 0.9787
vn 0.1595 -0.9803 0.1164
vn -0.2310 -0.1015 0.9676
vn 0.1117 -0.9841 0.1381
vn -0.2520 0.0402 0.9669
vn 0.9592 0.1432 0.2440
vn 0.1458 0.0933 0.9849
vn 0.6365 -0.7457 0.1969
vn 0.4220 0.9037 0.0724
usemtl Matériau.011
s off
f 25//1 26//1 4//1 3//1
f 29//2 30//2 8//2 7//2
f 27//3 28//3 6//3 5//3
f 22//1 21//1 9//1 10//1
f 42//4 27//4 5//4 31//4
f 56//5 26//5 2//5 44//5
f 10//1 9//1 13//1 14//1
f 55//5 22//5 10//5 45//5
f 23//6 24//6 11//6 12//6
f 46//7 14//7 18//7 47//7
f 45//8 10//8 14//8 46//8
f 12//3 11//3 15//3 16//3
f 33//4 12//4 16//4 35//4
f 54//9 47//9 18//9 17//9
f 16//10 15//10 19//10 20//10
f 14//11 13//11 17//11 18//11
f 5//3 6//3 24//3 23//3
f 44//5 2//5 22//5 55//5
f 31//4 5//4 23//4 40//4
f 2//1 1//1 21//1 22//1
f 50//5 4//5 26//5 56//5
f 29//4 7//4 27//4 42//4
f 7//3 8//3 28//3 27//3
f 26//12 25//12 63//12 66//12
f 43//4 29//4 42//4 49//4
f 8//5 30//5 41//5 28//5
f 51//4 31//4 40//4 48//4
f 6//5 32//5 39//5 24//5
f 20//13 19//13 38//13 37//13
f 52//4 33//4 35//4 53//4
f 11//14 34//14 36//14 15//14
f 15//7 36//7 38//7 19//7
f 24//5 39//5 34//5 11//5
f 28//5 41//5 32//5 6//5
f 49//4 42//4 31//4 51//4
f 30//3 29//3 81//3 80//3
f 3//2 4//2 50//2 43//2
f 25//4 49//4 51//4 1//4
f 9//4 52//4 53//4 13//4
f 1//4 51//4 48//4 21//4
f 3//4 43//4 49//4 25//4
f 30//5 50//5 56//5 41//5
f 32//3 41//3 60//3 61//3
f 37//15 38//15 47//15 54//15
f 34//16 45//16 46//16 36//16
f 36//7 46//7 47//7 38//7
f 39//5 55//5 45//5 34//5
f 55//17 39//17 58//17 57//17
f 61//5 62//5 57//5 58//5
f 60//5 59//5 62//5 61//5
f 39//3 32//3 61//3 58//3
f 44//1 55//1 57//1 62//1
f 41//2 56//2 59//2 60//2
f 56//18 44//18 62//18 59//18
f 66//2 63//2 67//2 70//2
f 1//19 2//19 65//19 64//19
f 2//20 26//20 66//20 65//20
f 25//21 1//21 64//21 63//21
f 69//5 70//5 74//5 73//5
f 64//17 65//17 69//17 68//17
f 65//5 66//5 70//5 69//5
f 63//4 64//4 68//4 67//4
f 73//5 74//5 78//5 77//5
f 67//4 68//4 72//4 71//4
f 70//2 67//2 71//2 74//2
f 68//17 69//17 73//17 72//17
f 76//18 77//18 78//18 75//18
f 71//4 72//4 76//4 75//4
f 74//2 71//2 75//2 78//2
f 82//2 79//2 80//2 81//2
f 50//5 30//5 80//5 79//5
f 43//1 50//1 79//1 82//1
f 29//4 43//4 82//4 81//4
o Cube.048_Cube.024
v -532.849609 499.955994 147.115021
v -669.380493 318.801270 63.809265
v -409.788361 502.838440 -60.839714
v -545.505249 321.698364 -143.667786
v -693.015930 616.435608 -14.469521
v -763.019104 523.552490 -57.182724
v -629.919006 617.913574 -121.093773
v -699.457336 525.207397 -163.261169
v -402.334961 413.298706 -498.589874
v -309.416412 493.293945 -467.133026
v -386.533569 591.335266 -488.661346
v -479.452026 511.340027 -520.118347
v -335.677246 442.584717 -702.527649
v -267.361389 501.398987 -679.399780
v -324.059631 573.481140 -695.227966
v -392.375549 514.666870 -718.355774
v -293.699219 463.782013 -830.020386
v -243.774902 506.762695 -813.118896
v -285.209290 559.439331 -824.685913
v -335.133545 516.458740 -841.587463
v -493.261963 588.132568 -87.757866
v -637.174500 396.446106 -174.599152
v -624.020691 585.097534 132.988693
v -768.964966 392.779572 44.549393
v -343.433167 544.928040 -482.264984
v -442.077667 460.003235 -515.660339
v -287.948029 539.753052 -704.586670
v -360.473572 477.314453 -729.139709
v -254.805817 535.146667 -844.283875
v -307.806641 489.517365 -862.227051
v -263.327240 463.538879 -919.115723
v -213.403076 506.519592 -902.214233
v -224.993378 539.618103 -943.715698
v -277.994080 493.988770 -961.658752
v -305.235107 520.205383 -939.430359
v -255.310791 563.186096 -922.528809
v -242.312622 464.399689 -983.378479
v -192.388367 507.380432 -966.476868
v -203.978729 540.478821 -1007.978333
v -256.979431 494.849548 -1025.921387
v -284.220337 521.066162 -1003.692810
v -234.296143 564.046875 -986.791443
v -205.658508 453.621246 -1015.478577
v -173.524536 481.286011 -1004.599792
v -180.984741 502.590027 -1031.312256
v -215.098877 473.220428 -1042.861450
v -266.563324 524.223755 -1072.311035
v -293.804321 550.440430 -1050.082642
v -243.880096 593.421204 -1033.181030
v -213.562561 569.853149 -1054.368042
v -181.081116 444.871582 -1037.128662
v -159.417236 463.522400 -1029.794556
v -164.446655 477.884949 -1047.803345
v -187.445557 458.084839 -1055.589600
v -162.851746 443.951050 -1066.393433
v -149.309387 455.609955 -1061.808716
v -152.453369 464.588104 -1073.066284
v -166.830200 452.210815 -1077.933594
v -267.668945 551.865601 -1090.661865
v -285.781738 569.297363 -1075.881714
v -252.586517 597.875793 -1064.643677
v -232.427979 582.205139 -1078.731323
v -237.075195 574.783630 370.444977
v -327.835632 350.824097 371.947235
v -111.151611 520.552063 173.509766
v -199.341003 297.425842 174.373657
v -411.319092 580.614563 183.534836
v -457.854462 465.784241 184.305115
v -338.391785 555.724854 80.304085
v -391.971741 438.405487 83.003601
v -90.696228 166.775757 -78.678566
v -6.588257 179.699524 13.081940
v 74.138855 232.500183 -66.149300
v -7.137268 219.538483 -157.777374
v 8.713684 -19.935608 -125.026131
v 70.114746 -12.868347 -55.448616
v 131.549133 25.924072 -113.603844
v 70.148071 18.856812 -183.181427
v 73.627686 -135.801331 -153.786774
v 118.498779 -130.636475 -102.940498
v 163.394226 -102.287537 -145.439453
v 118.523132 -107.452332 -196.285828
v -197.790527 569.560181 118.152817
v -303.621124 331.286011 119.864487
v -343.680664 625.735352 328.018402
v -440.033966 387.974701 329.613251
v 39.179749 197.996216 -21.936104
v -49.480164 187.791321 -122.402428
v 109.496460 -10.338684 -86.623909
v 44.311584 -17.841370 -160.488953
v 152.083069 -140.907532 -128.731781
v 104.446838 -146.390503 -182.711487
v 105.068604 -222.479858 -172.728485
v 149.939636 -217.315125 -121.882072
v 190.843994 -234.078613 -153.473877
v 143.207825 -239.561523 -207.453430
v 156.158936 -199.625610 -220.136322
v 201.030029 -194.460815 -169.290009
v 128.548645 -284.220886 -187.177887
v 173.419800 -279.056030 -136.331604
v 214.324036 -295.819519 -167.923309
v 166.687927 -301.302734 -221.902863
v 179.638916 -261.366272 -234.585693
v 224.510071 -256.201538 -183.739380
v 134.732300 -331.239746 -171.650696
v 163.613770 -327.915405 -138.923248
v 189.942017 -338.705444 -159.257477
v 159.280762 -342.234619 -194.001709
v 205.901794 -324.268555 -254.175873
v 218.852905 -284.332458 -266.858582
v 263.723999 -279.167725 -216.012299
v 253.537903 -318.785645 -200.196136
v 137.487427 -363.397583 -161.276672
v 156.958679 -361.156372 -139.212708
v 174.708435 -368.430908 -152.921509
v 154.037476 -370.810059 -176.345154
v 148.593384 -396.038330 -160.368958
v 160.765015 -394.637451 -146.576599
v 171.860535 -399.184570 -155.146027
v 158.938782 -400.671753 -169.788330
v 236.948975 -329.059448 -264.907349
v 245.560242 -302.505188 -273.340332
v 275.395691 -299.071045 -239.531921
v 268.622742 -325.413452 -229.015594
vn 0.6493 -0.6607 0.3768
vn -0.5728 0.7120 -0.4062
vn -0.6493 0.6606 -0.3769
vn -0.3187 -0.1871 0.9292
vn 0.1829 0.9756 0.1218
vn -0.5252 -0.7857 -0.3268
vn -0.5841 0.7743 -0.2436
vn 0.7185 0.6718 0.1802
vn -0.7715 -0.4083 -0.4879
vn 0.7094 -0.6880 0.1528
vn -0.7674 -0.5319 -0.3581
vn 0.8017 0.5688 0.1838
vn -0.7535 -0.5645 -0.3370
vn 0.6307 -0.7701 0.0955
vn 0.6949 0.6783 0.2386
vn 0.6344 -0.7688 0.0811
vn -0.5788 0.7737 -0.2576
vn 0.8257 0.5371 0.1728
vn 0.6838 0.7174 0.1332
vn 0.5975 -0.7750 0.2058
vn -0.6571 -0.6871 -0.3101
vn 0.7053 0.6914 0.1569
vn -0.6255 -0.7123 -0.3185
vn -0.5279 -0.7376 -0.4210
vn 0.3682 0.9237 0.1054
vn -0.8024 -0.3440 -0.4876
vn 0.6039 0.7073 0.3673
vn -0.7986 0.3918 0.4569
vn -0.6038 0.7749 -0.1871
vn -0.7018 -0.6713 -0.2385
vn -0.6131 0.7741 -0.1577
vn 0.7671 0.5873 0.2581
vn -0.6986 -0.6747 -0.2382
vn -0.7704 -0.5832 -0.2575
vn 0.7018 0.6584 0.2719
vn 0.3637 -0.6750 0.6420
vn 0.7643 0.5910 0.2579
vn 0.6938 0.6804 0.2360
vn -0.7713 -0.5810 -0.2600
vn 0.6038 -0.7749 0.1871
vn -0.1292 0.4893 -0.8625
vn -0.5389 -0.7618 -0.3595
vn 0.8799 0.4596 0.1208
vn -0.1101 0.4719 -0.8748
vn 0.5911 0.8050 -0.0496
vn -0.7646 -0.6041 -0.2246
vn -0.6569 0.5682 0.4955
vn 0.6569 -0.5682 -0.4955
vn -0.4164 0.7080 -0.5704
vn 0.8640 0.4826 0.1436
vn -0.5672 -0.7496 -0.3410
vn 0.3472 -0.6638 0.6624
vn 0.6346 -0.5081 -0.5824
vn 0.8591 0.4893 0.1503
vn -0.5758 -0.7457 -0.3352
vn 0.5365 -0.7641 0.3582
vn -0.1719 0.5270 -0.8323
vn -0.7748 -0.3709 -0.5120
vn 0.5973 -0.4269 -0.6790
vn -0.6790 0.6771 0.2838
vn 0.7616 -0.3018 0.5735
vn -0.0104 0.5711 -0.8208
vn -0.7467 0.3132 -0.5868
vn -0.3112 0.1324 0.9411
vn -0.0337 0.9616 -0.2725
vn -0.3282 -0.9437 0.0416
vn 0.6824 0.3413 -0.6464
vn 0.8890 0.4534 -0.0644
vn -0.6844 -0.5019 -0.5289
vn 0.3242 -0.5366 0.7791
vn -0.5404 -0.1145 -0.8336
vn 0.6186 -0.0340 0.7850
vn -0.5745 -0.1153 -0.8104
vn -0.6225 -0.4770 0.6205
vn 0.6987 0.1024 0.7081
vn -0.6240 -0.4989 0.6014
vn 0.6905 0.3312 -0.6430
vn 0.6102 -0.0615 0.7899
vn 0.7639 0.0356 0.6444
vn -0.6732 -0.3825 0.6329
vn -0.6789 -0.1812 -0.7115
vn 0.7524 0.0542 0.6564
vn -0.6941 -0.2116 -0.6881
vn -0.6287 -0.7770 -0.0304
vn 0.5219 0.6930 -0.4973
vn -0.6945 -0.6663 -0.2716
vn 0.4389 0.8972 0.0498
vn -0.8831 0.3599 0.3010
vn 0.6664 0.4006 -0.6288
vn -0.6934 -0.0966 -0.7141
vn 0.6554 0.4285 -0.6219
vn 0.6213 0.0527 0.7818
vn -0.6961 -0.0990 -0.7111
vn -0.6183 -0.0492 -0.7844
vn 0.6716 0.1192 0.7312
vn -0.7505 0.1161 0.6505
vn 0.6244 0.0551 0.7792
vn 0.7012 0.1015 0.7058
vn -0.6157 -0.0501 -0.7864
vn -0.6664 -0.4006 0.6288
vn 0.6850 -0.4698 -0.5568
vn -0.7122 -0.3028 -0.6333
vn 0.5629 -0.1560 0.8116
vn 0.6759 -0.4947 -0.5463
vn 0.8816 -0.0389 0.4704
vn -0.6464 -0.0325 -0.7623
vn 0.2641 0.9080 -0.3253
vn -0.2641 -0.9080 0.3253
vn 0.7507 -0.0218 -0.6603
vn 0.5748 -0.1221 0.8091
vn -0.7116 -0.2702 -0.6486
vn -0.7492 0.1444 0.6465
vn -0.1866 -0.9471 0.2609
vn 0.5782 -0.1120 0.8081
vn -0.7112 -0.2601 -0.6531
vn -0.7188 -0.2263 0.6573
vn 0.7035 -0.4120 -0.5790
vn -0.3461 -0.1802 -0.9207
vn -0.0895 -0.9799 0.1785
vn 0.4236 0.7842 -0.4534
usemtl Matériau.012
s off
f 83//22 84//22 86//22 85//22
f 90//23 89//23 93//23 94//23
f 89//24 90//24 88//24 87//24
f 105//25 106//25 84//25 83//25
f 103//26 89//26 87//26 105//26
f 104//27 86//27 84//27 106//27
f 94//28 93//28 97//28 98//28
f 103//29 85//29 92//29 107//29
f 104//30 90//30 94//30 108//30
f 85//31 86//31 91//31 92//31
f 110//32 98//32 102//32 112//32
f 107//33 92//33 96//33 109//33
f 108//34 94//34 98//34 110//34
f 92//35 91//35 95//35 96//35
f 101//36 111//36 115//36 118//36
f 96//37 95//37 99//37 100//37
f 98//38 97//38 101//38 102//38
f 109//39 96//39 100//39 111//39
f 97//40 109//40 111//40 101//40
f 100//41 99//41 113//41 114//41
f 91//42 108//42 110//42 95//42
f 93//43 107//43 109//43 97//43
f 95//44 110//44 112//44 99//44
f 86//45 104//45 108//45 91//45
f 89//46 103//46 107//46 93//46
f 90//47 104//47 106//47 88//47
f 85//48 103//48 105//48 83//48
f 87//49 88//49 106//49 105//49
f 117//50 118//50 124//50 123//50
f 113//51 116//51 122//51 119//51
f 102//52 101//52 118//52 117//52
f 111//53 100//53 114//53 115//53
f 99//54 112//54 116//54 113//54
f 112//55 102//55 117//55 116//55
f 124//56 121//56 132//56 131//56
f 120//57 119//57 125//57 126//57
f 115//58 114//58 120//58 121//58
f 118//59 115//59 121//59 124//59
f 116//60 117//60 123//60 122//60
f 114//61 113//61 119//61 120//61
f 128//62 127//62 135//62 136//62
f 119//63 122//63 128//63 125//63
f 121//64 120//64 126//64 127//64
f 122//65 121//65 127//65 128//65
f 131//66 132//66 144//66 143//66
f 122//67 123//67 130//67 129//67
f 123//68 124//68 131//68 130//68
f 121//69 122//69 129//69 132//69
f 136//70 135//70 139//70 140//70
f 127//71 126//71 134//71 135//71
f 125//72 128//72 136//72 133//72
f 126//73 125//73 133//73 134//73
f 138//74 137//74 140//74 139//74
f 135//75 134//75 138//75 139//75
f 133//76 136//76 140//76 137//76
f 134//77 133//77 137//77 138//77
f 144//78 141//78 142//78 143//78
f 129//79 130//79 142//79 141//79
f 132//80 129//80 141//80 144//80
f 130//81 131//81 143//81 142//81
f 145//82 146//82 148//82 147//82
f 152//83 151//83 155//83 156//83
f 151//84 152//84 150//84 149//84
f 167//85 168//85 146//85 145//85
f 165//86 151//86 149//86 167//86
f 166//87 148//87 146//87 168//87
f 156//88 155//88 159//88 160//88
f 165//89 147//89 154//89 169//89
f 166//90 152//90 156//90 170//90
f 147//91 148//91 153//91 154//91
f 172//92 160//92 164//92 174//92
f 169//93 154//93 158//93 171//93
f 170//94 156//94 160//94 172//94
f 154//95 153//95 157//95 158//95
f 163//96 173//96 177//96 180//96
f 158//97 157//97 161//97 162//97
f 160//98 159//98 163//98 164//98
f 171//99 158//99 162//99 173//99
f 159//100 171//100 173//100 163//100
f 162//101 161//101 175//101 176//101
f 153//102 170//102 172//102 157//102
f 155//103 169//103 171//103 159//103
f 157//104 172//104 174//104 161//104
f 148//105 166//105 170//105 153//105
f 151//106 165//106 169//106 155//106
f 152//107 166//107 168//107 150//107
f 147//108 165//108 167//108 145//108
f 149//109 150//109 168//109 167//109
f 179//110 180//110 186//110 185//110
f 175//111 178//111 184//111 181//111
f 164//112 163//112 180//112 179//112
f 173//113 162//113 176//113 177//113
f 161//114 174//114 178//114 175//114
f 174//115 164//115 179//115 178//115
f 186//116 183//116 194//116 193//116
f 182//117 181//117 187//117 188//117
f 177//118 176//118 182//118 183//118
f 180//119 177//119 183//119 186//119
f 178//120 179//120 185//120 184//120
f 176//121 175//121 181//121 182//121
f 190//122 189//122 197//122 198//122
f 181//123 184//123 190//123 187//123
f 183//124 182//124 188//124 189//124
f 184//125 183//125 189//125 190//125
f 193//126 194//126 206//126 205//126
f 184//127 185//127 192//127 191//127
f 185//128 186//128 193//128 192//128
f 183//129 184//129 191//129 194//129
f 198//130 197//130 201//130 202//130
f 189//131 188//131 196//131 197//131
f 187//132 190//132 198//132 195//132
f 188//133 187//133 195//133 196//133
f 200//134 199//134 202//134 201//134
f 197//135 196//135 200//135 201//135
f 195//136 198//136 202//136 199//136
f 196//137 195//137 199//137 200//137
f 206//138 203//138 204//138 205//138
f 191//139 192//139 204//139 203//139
f 194//140 191//140 203//140 206//140
f 192//141 193//141 205//141 204//141
