# Blender v2.91.2 OBJ File: 'camionnete02.blend'
# www.blender.org
mtllib arme_000000.mtl
o Cube.046_Cube.010
v 366.649231 376.662872 -1021.327698
v 367.915344 156.259811 -1021.274719
v 485.270447 377.299652 -1207.090088
v 486.536560 156.896591 -1207.037354
v 180.889969 375.567291 -1139.950684
v 182.156036 155.164215 -1139.897705
v 299.511169 376.204102 -1325.712891
v 300.777283 155.800995 -1325.660156
v 203.331268 375.786102 -765.569641
v 204.597366 155.383072 -765.516663
v 18.838118 154.287476 -884.139526
v 17.572027 374.690552 -884.192444
v 129.419205 375.389343 -649.822144
v 130.685287 154.986282 -649.769287
v -55.074020 153.890686 -768.392151
v -56.340111 374.293762 -768.445129
v 85.755234 375.154938 -581.443848
v 94.114151 214.871155 -592.739929
v -91.645195 213.775589 -711.362793
v -100.004089 374.059387 -700.066711
v 128.156998 595.111084 -649.875000
v -57.602261 594.015442 -768.497925
v 84.493065 594.876648 -581.496643
v -101.266212 593.781067 -700.119507
v 228.811890 375.922913 -805.472534
v 230.077988 155.519867 -805.419617
v 43.052616 374.827332 -924.095459
v 44.318680 154.424271 -924.042480
v 202.913330 448.542816 -765.587097
v 17.154064 447.447296 -884.210022
v 228.393936 448.679596 -805.489990
v 42.634651 447.584015 -924.112793
v 202.306992 554.100952 -765.612427
v 16.547714 553.005371 -884.235229
v 227.787552 554.237671 -805.515381
v 42.028316 553.142151 -924.138245
v 130.671783 448.154999 -652.455750
v -55.087524 447.059418 -771.078674
v 130.065399 553.713135 -652.481079
v -55.693890 552.617554 -771.104004
v 154.939667 732.042664 -693.080261
v -30.819609 730.947021 -811.703247
v 111.275696 731.808228 -624.701965
v -74.483536 730.712646 -743.324829
v 443.393494 377.074860 -1141.510254
v 444.659607 156.671783 -1141.457520
v 257.634216 375.979279 -1260.133057
v 258.900330 155.576187 -1260.080078
v 392.390808 376.751892 -1266.401611
v 393.656921 156.348801 -1266.348877
v 273.769592 376.115112 -1080.639160
v 275.035706 155.712006 -1080.586182
v 110.451653 375.238312 -824.880981
v 111.717728 154.835281 -824.828003
v 36.539555 374.841583 -709.133606
v 39.412731 164.235260 -694.964233
v -7.124401 374.607147 -640.755310
v 14.752720 204.615814 -656.509155
v 35.277351 594.563293 -709.186401
v -8.386577 594.328857 -640.808105
v 137.198334 154.972061 -864.731018
v 135.932251 375.375092 -864.783997
v 110.033699 447.995056 -824.898560
v 135.514297 448.131775 -864.801392
v 109.427353 553.553162 -824.923828
v 134.907944 553.689880 -864.826843
v 37.792126 447.607239 -711.767212
v 37.185760 553.165344 -711.792480
v 62.060013 731.494873 -752.391724
v 18.396061 731.260376 -684.013428
v 351.779907 156.123993 -1200.768799
v 350.513855 376.527069 -1200.821777
v 438.830627 377.025787 -1236.745850
v 321.475525 155.985901 -1050.930420
v 158.157547 155.109177 -795.172363
v 70.727219 164.419952 -674.967285
v 46.067211 204.800491 -636.512207
v 182.372070 375.648987 -835.128235
v 181.954117 448.405670 -835.145691
v 181.347748 553.963806 -835.171082
v 396.953674 376.800964 -1171.166016
v 440.096741 156.622696 -1236.693115
v 320.209412 376.388977 -1050.983643
v 156.891464 375.512207 -795.225342
v 82.979362 375.115448 -679.477905
v 39.315403 374.881042 -611.099548
v 81.717194 594.837158 -679.530701
v 38.053257 594.602783 -611.152344
v 183.638168 155.245956 -835.075378
v 156.473526 448.268951 -795.242798
v 155.867157 553.827026 -795.268127
v 84.231949 447.881134 -682.111511
v 83.625580 553.439270 -682.136780
v 108.499863 731.768738 -722.735962
v 64.835892 731.534302 -654.357666
v 398.219727 156.397888 -1171.113281
v 183.875229 113.978500 -835.065430
v 137.435394 113.704590 -864.721130
v 398.456787 115.130432 -1171.103271
v 352.017029 114.856522 -1200.759033
v 275.272766 114.444534 -1080.576416
v 321.712585 114.718445 -1050.920654
v 500.649780 315.950256 -1057.969971
v 466.714233 315.768066 -1004.826599
v 467.274170 218.308075 -1004.803040
v 501.209656 218.490250 -1057.946777
v 540.791382 316.187012 -1032.336426
v 506.855896 316.004822 -979.192810
v 507.415771 218.544861 -979.169373
v 541.351257 218.727020 -1032.312988
v 602.220886 316.549347 -993.108643
v 568.285339 316.367157 -939.965088
v 568.845215 218.907196 -939.941650
v 602.780701 219.089371 -993.085327
v 641.749939 316.782471 -967.866089
v 607.814392 316.600281 -914.722534
v 608.374390 219.140320 -914.699097
v 642.309814 219.322495 -967.842651
v 829.790344 158.714981 -1846.957764
v 783.350525 158.441086 -1876.613525
v 782.084290 378.844177 -1876.666504
v 828.524231 379.118073 -1847.010742
v 88.953163 797.402100 -764.900391
v 3.369590 796.897339 -819.552673
v 48.719181 797.186096 -701.893311
v -36.864346 796.681274 -756.545654
v 134.302765 797.690857 -647.241150
v 174.536758 797.906921 -710.247925
v 131.744980 797.654663 -737.574097
v 91.510971 797.438416 -674.567261
vn 0.8428 0.0050 0.5382
vn 0.5382 0.0029 -0.8428
vn -0.8428 -0.0050 -0.5382
vn -0.0057 1.0000 -0.0002
vn 0.0057 -1.0000 0.0002
vn -0.5382 -0.0029 0.8428
vn -0.3533 -0.7492 0.5602
vn -0.0778 -0.9968 -0.0155
vn -0.6016 -0.1153 0.7904
vn -0.8435 -0.0055 -0.5371
vn 0.8435 0.0055 0.5371
vn 0.5060 -0.3480 -0.7892
vn 0.5046 -0.3552 -0.7869
vn -0.5060 0.3480 0.7892
vn 0.8264 0.0046 -0.5630
vn -0.7901 0.3497 -0.5034
vn -0.4975 -0.1160 0.8597
vn 0.0226 -0.9985 0.0500
vn -0.4876 0.4303 0.7596
vn -0.5318 -0.1458 0.8342
vn -0.0297 -0.9980 0.0557
vn -0.1631 -0.0007 0.9866
vn 0.4698 -0.8312 0.2972
vn 0.4602 0.8367 0.2968
vn 0.8379 -0.1099 0.5347
usemtl Matériau.011
s off
f 45//1 46//1 4//1 3//1
f 49//2 50//2 8//2 7//2
f 47//3 48//3 6//3 5//3
f 26//1 25//1 9//1 10//1
f 72//4 47//4 5//4 51//4
f 96//5 46//5 2//5 74//5
f 10//1 9//1 13//1 14//1
f 84//6 9//6 29//6 90//6
f 89//5 26//5 10//5 75//5
f 27//3 28//3 11//3 12//3
f 76//7 14//7 18//7 77//7
f 75//8 10//8 14//8 76//8
f 12//3 11//3 15//3 16//3
f 53//4 12//4 16//4 55//4
f 86//9 77//9 18//9 17//9
f 16//10 15//10 19//10 20//10
f 16//3 20//3 24//3 22//3
f 14//11 13//11 17//11 18//11
f 59//12 22//12 42//12 69//12
f 86//6 17//6 23//6 88//6
f 17//1 13//1 21//1 23//1
f 55//2 16//2 22//2 59//2
f 5//3 6//3 28//3 27//3
f 74//5 2//5 26//5 89//5
f 51//4 5//4 27//4 62//4
f 2//1 1//1 25//1 26//1
f 32//3 30//3 34//3 36//3
f 62//2 27//2 32//2 64//2
f 27//3 12//3 30//3 32//3
f 9//1 25//1 31//1 29//1
f 66//4 36//4 34//4 65//4
f 90//5 29//5 37//5 92//5
f 64//2 32//2 36//2 66//2
f 29//1 31//1 35//1 33//1
f 92//6 37//6 39//6 93//6
f 29//1 33//1 39//1 37//1
f 34//3 30//3 38//3 40//3
f 65//4 34//4 40//4 68//4
f 69//13 42//13 124//13 123//13
f 23//1 21//1 41//1 43//1
f 88//14 23//14 43//14 95//14
f 22//3 24//3 44//3 42//3
f 82//5 4//5 46//5 96//5
f 49//4 7//4 47//4 72//4
f 7//3 8//3 48//3 47//3
f 46//15 45//15 103//15 106//15
f 73//4 49//4 72//4 81//4
f 8//5 50//5 71//5 48//5
f 24//14 60//14 70//14 44//14
f 42//16 44//16 126//16 124//16
f 91//4 65//4 68//4 93//4
f 38//6 67//6 68//6 40//6
f 79//2 64//2 66//2 80//2
f 30//5 63//5 67//5 38//5
f 80//4 66//4 65//4 91//4
f 78//2 62//2 64//2 79//2
f 83//4 51//4 62//4 78//4
f 6//5 52//5 61//5 28//5
f 85//2 55//2 59//2 87//2
f 20//6 57//6 60//6 24//6
f 87//12 59//12 69//12 94//12
f 20//17 19//17 58//17 57//17
f 84//4 53//4 55//4 85//4
f 11//18 54//18 56//18 15//18
f 15//7 56//7 58//7 19//7
f 28//5 61//5 54//5 11//5
f 12//6 53//6 63//6 30//6
f 48//5 71//5 52//5 6//5
f 81//4 72//4 51//4 83//4
f 50//3 49//3 121//3 120//3
f 3//2 4//2 82//2 73//2
f 45//4 81//4 83//4 1//4
f 9//4 84//4 85//4 13//4
f 21//12 87//12 94//12 41//12
f 13//2 85//2 87//2 21//2
f 1//4 83//4 78//4 25//4
f 25//2 78//2 79//2 31//2
f 35//4 80//4 91//4 33//4
f 31//2 79//2 80//2 35//2
f 33//4 91//4 93//4 39//4
f 70//19 95//19 130//19 125//19
f 3//4 73//4 81//4 45//4
f 50//5 82//5 96//5 71//5
f 60//14 88//14 95//14 70//14
f 67//6 92//6 93//6 68//6
f 63//5 90//5 92//5 67//5
f 52//3 71//3 100//3 101//3
f 57//6 86//6 88//6 60//6
f 57//20 58//20 77//20 86//20
f 54//21 75//21 76//21 56//21
f 56//7 76//7 77//7 58//7
f 61//5 89//5 75//5 54//5
f 53//6 84//6 90//6 63//6
f 89//6 61//6 98//6 97//6
f 101//5 102//5 97//5 98//5
f 100//5 99//5 102//5 101//5
f 61//3 52//3 101//3 98//3
f 74//1 89//1 97//1 102//1
f 71//2 96//2 99//2 100//2
f 96//1 74//1 102//1 99//1
f 106//2 103//2 107//2 110//2
f 1//22 2//22 105//22 104//22
f 2//23 46//23 106//23 105//23
f 45//24 1//24 104//24 103//24
f 109//5 110//5 114//5 113//5
f 104//6 105//6 109//6 108//6
f 105//5 106//5 110//5 109//5
f 103//4 104//4 108//4 107//4
f 113//5 114//5 118//5 117//5
f 107//4 108//4 112//4 111//4
f 110//2 107//2 111//2 114//2
f 108//6 109//6 113//6 112//6
f 116//1 117//1 118//1 115//1
f 111//4 112//4 116//4 115//4
f 114//2 111//2 115//2 118//2
f 122//2 119//2 120//2 121//2
f 82//5 50//5 120//5 119//5
f 73//1 82//1 119//1 122//1
f 49//4 73//4 122//4 121//4
f 123//4 124//4 126//4 125//4
f 129//4 123//4 125//4 130//4
f 128//4 129//4 130//4 127//4
f 95//19 43//19 127//19 130//19
f 94//13 69//13 123//13 129//13
f 43//25 41//25 128//25 127//25
f 44//19 70//19 125//19 126//19
f 41//13 94//13 129//13 128//13
o Cube.048_Cube.024
v -564.318115 466.999329 182.450165
v -727.281738 342.304230 54.811920
v -422.811066 481.990723 -12.866432
v -585.774719 357.295624 -140.504639
v -678.247803 646.727234 40.858322
v -761.803772 582.792542 -24.585358
v -605.693115 654.413757 -59.285950
v -689.249207 590.479065 -124.729668
v -345.161377 460.263885 -439.369415
v -259.800201 525.579773 -372.511932
v -316.738922 633.722290 -405.463623
v -402.100067 568.406372 -472.321136
v -215.357666 496.580750 -608.849915
v -152.598206 544.602417 -559.694702
v -194.460815 624.111267 -583.921631
v -257.220276 576.089478 -633.076782
v -133.651001 522.105225 -714.388489
v -87.787292 557.198914 -678.466431
v -118.379944 615.302856 -696.171143
v -164.243774 580.209229 -732.093018
v -482.894775 587.921326 -25.544830
v -655.900757 455.542114 -161.048492
v -633.121948 572.006104 181.807831
v -806.127930 439.626923 46.304138
v -282.362091 582.010742 -391.451385
v -372.983521 512.669922 -462.428802
v -160.551514 587.006470 -585.537659
v -227.178375 536.025513 -637.721985
v -85.764404 589.017273 -708.166504
v -134.454529 551.761047 -746.302002
v -76.977966 524.917114 -789.493469
v -31.114258 560.010803 -753.571411
v -25.931213 597.350769 -792.700500
v -74.621277 560.094543 -830.836060
v -104.896240 587.693970 -815.177795
v -59.032532 622.787598 -779.255737
v -36.846985 528.080383 -843.821533
v 9.016785 563.174011 -807.899597
v 14.199707 600.513977 -847.028503
v -34.490295 563.257751 -885.164185
v -64.765198 590.857178 -869.505798
v -18.901428 625.950806 -833.583862
v 6.864319 515.350159 -864.251526
v 36.384766 537.938354 -841.130188
v 39.720764 561.972412 -866.315796
v 8.381104 537.992249 -890.861877
v -26.222839 597.038452 -928.721313
v -56.497864 624.637817 -913.063049
v -10.634155 659.731567 -877.141052
v 22.467163 634.294678 -890.585754
v 36.071350 505.317444 -878.238464
v 55.973206 520.545776 -862.650635
v 58.222290 536.748901 -879.630127
v 37.093994 520.582153 -896.178467
v 62.405029 504.393280 -900.493103
v 74.845886 513.912720 -890.748901
v 76.251892 524.041382 -901.362976
v 63.044434 513.935425 -911.707581
v -18.920044 625.923828 -943.361816
v -39.050232 644.275024 -932.950317
v -8.554871 667.609253 -909.065308
v 13.454651 650.695923 -918.005005
v -287.145935 594.621826 358.993256
v -284.189575 353.995392 336.907898
v -169.917786 615.363770 148.696106
v -166.961365 374.737335 126.610802
v -469.161469 549.190979 185.394012
v -467.645630 425.815094 174.070251
v -409.055328 559.825989 77.568779
v -407.539520 436.450043 66.245010
v -29.347046 467.343353 -234.365417
v -30.895630 593.384644 -222.796967
v -141.574036 597.648926 -284.072998
v -140.025330 471.607666 -295.641418
v 60.210999 503.069214 -428.258636
v 59.072449 595.737610 -419.753387
v -22.300842 598.872803 -464.804779
v -21.162292 506.204376 -473.310150
v 114.462036 527.529175 -550.424133
v 113.630005 595.250000 -544.208435
v 54.163513 597.541199 -577.131470
v 54.995544 529.820312 -583.347046
v -284.566101 625.271973 106.866882
v -281.427460 369.817444 83.420578
v -409.018188 603.251892 330.123260
v -405.879639 347.797302 306.676941
v -83.567505 599.880676 -257.949158
v -81.923523 466.072327 -270.230377
v 27.500183 601.779358 -458.430328
v 28.708862 503.400452 -467.459686
v 97.048157 600.813660 -584.116821
v 97.931458 528.919678 -590.715393
v 163.187012 535.483704 -630.568359
v 162.354980 603.204529 -624.352600
v 145.505737 609.804260 -675.585022
v 146.389099 537.910278 -682.183655
v 103.494507 538.651672 -673.074890
v 102.662354 606.372498 -666.859131
v 197.037964 541.245789 -688.817322
v 196.205933 608.966614 -682.601624
v 179.356750 615.566467 -733.834290
v 180.240051 543.672424 -740.432739
v 137.345276 544.413757 -731.323792
v 136.513306 612.134644 -725.108093
v 238.985046 556.008667 -711.458313
v 238.449524 599.597534 -707.457520
v 227.604553 603.845459 -740.433655
v 228.173096 557.570557 -744.680847
v 168.785889 548.518433 -794.765320
v 125.891174 549.259888 -785.656311
v 125.059143 616.980713 -779.440735
v 167.902588 620.412476 -788.166687
v 268.174744 564.886108 -726.239563
v 267.813782 594.272522 -723.542358
v 260.502502 597.136353 -745.774109
v 260.885620 565.939087 -748.637390
v 290.267700 573.021729 -751.444885
v 290.041931 591.391479 -749.758789
v 285.471375 593.181702 -763.655884
v 285.710999 573.679993 -765.445862
v 155.284241 562.949463 -821.439209
v 126.762817 563.442444 -815.382507
v 126.209656 608.470825 -811.249512
v 154.696777 610.752686 -817.051575
vn 0.4498 -0.8543 0.2603
vn -0.3715 0.8553 -0.3612
vn -0.4498 0.8543 -0.2603
vn -0.4452 -0.2865 0.8483
vn 0.3747 0.8634 0.3378
vn -0.6454 -0.5676 -0.5112
vn -0.4030 0.8566 -0.3223
vn 0.7763 0.4757 0.4137
vn -0.7386 -0.1509 -0.6570
vn 0.5307 -0.8361 0.1392
vn -0.6620 -0.4045 -0.6309
vn 0.7527 0.4501 0.4805
vn -0.6586 -0.4401 -0.6103
vn 0.4939 -0.8469 0.1968
vn 0.6448 0.5675 0.5120
vn 0.5021 -0.8449 0.1844
vn -0.3937 0.8564 -0.3340
vn 0.7758 0.4166 0.4739
vn 0.6711 0.6155 0.4132
vn 0.4275 -0.8561 0.2905
vn -0.5874 -0.5753 -0.5692
vn 0.6815 0.5853 0.4393
vn -0.5573 -0.6035 -0.5703
vn -0.5555 -0.5433 -0.6294
vn 0.5062 0.8016 0.3180
vn -0.8076 -0.0413 -0.5883
vn 0.7008 0.4625 0.5432
vn -0.7384 0.4687 0.4849
vn -0.4393 0.8553 -0.2747
vn -0.6507 -0.5596 -0.5132
vn -0.4574 0.8535 -0.2498
vn 0.6984 0.4670 0.5423
vn -0.6481 -0.5634 -0.5124
vn -0.7013 -0.4626 -0.5423
vn 0.6390 0.5443 0.5434
vn 0.0789 -0.7616 0.6433
vn 0.6962 0.4710 0.5417
vn 0.6448 0.5698 0.5095
vn -0.7012 -0.4601 -0.5447
vn 0.4393 -0.8553 0.2747
vn 0.1947 0.5658 -0.8013
vn -0.4672 -0.6601 -0.5883
vn 0.8362 0.3372 0.4326
vn 0.2149 0.5472 -0.8090
vn 0.6492 0.7276 0.2218
vn -0.7082 -0.4865 -0.5117
vn -0.7234 0.6053 0.3322
vn 0.7233 -0.6053 -0.3322
vn -0.1481 0.7953 -0.5879
vn 0.8162 0.3602 0.4518
vn -0.4987 -0.6459 -0.5780
vn 0.0579 -0.7500 0.6589
vn 0.7351 -0.5364 -0.4145
vn 0.8100 0.3669 0.4574
vn -0.5082 -0.6414 -0.5747
vn 0.3230 -0.8494 0.4174
vn 0.1483 0.6061 -0.7815
vn -0.6056 -0.2326 -0.7610
vn 0.7379 -0.4441 -0.5082
vn -0.6675 0.7319 0.1371
vn 0.8744 -0.0337 0.4841
vn -0.8054 0.0444 -0.5911
vn -0.8744 0.0337 -0.4841
vn -0.2357 -0.0917 0.9675
vn -0.4314 0.8891 -0.1528
vn 0.0660 -0.9959 -0.0614
vn -0.8341 0.0402 -0.5502
vn 0.1047 0.9944 -0.0156
vn -0.2728 -0.8988 -0.3431
vn 0.9360 -0.0208 0.3515
vn -0.0426 -0.9720 -0.2312
vn 0.0960 0.9936 0.0592
vn -0.0181 -0.9798 -0.1990
vn 0.9094 -0.0269 0.4151
vn -0.0664 0.9958 0.0624
vn 0.9155 -0.0256 0.4014
vn -0.8257 0.0415 -0.5626
vn 0.1368 0.9886 0.0621
vn -0.0668 0.9965 -0.0506
vn 0.8555 -0.0369 0.5165
vn 0.1203 -0.9852 -0.1224
vn -0.0424 0.9990 -0.0174
vn 0.1610 -0.9798 -0.1185
vn 0.1288 -0.9721 -0.1961
vn -0.2954 0.9393 -0.1744
vn -0.4100 -0.8567 -0.3130
vn 0.0416 0.9918 0.1210
vn -0.9159 -0.0478 0.3985
vn -0.8656 0.0352 -0.4995
vn 0.0570 -0.9962 -0.0654
vn -0.8806 0.0326 -0.4728
vn 0.0369 0.9922 0.1189
vn 0.0613 -0.9961 -0.0636
vn -0.0420 -0.9919 -0.1200
vn -0.0590 0.9931 0.1010
vn 0.4936 -0.0735 0.8666
vn 0.0326 0.9926 0.1171
vn -0.0677 0.9959 0.0592
vn -0.0433 -0.9914 -0.1232
vn 0.8656 -0.0352 0.4995
vn -0.1419 0.0887 -0.9859
vn 0.2653 -0.9552 -0.1313
vn 0.2417 0.9693 0.0454
vn -0.1136 0.0894 -0.9895
vn -0.1297 0.9567 -0.2606
vn -0.0345 -0.9961 -0.0816
vn -0.9786 -0.0307 0.2036
vn 0.9786 0.0307 -0.2036
vn -0.5738 0.0679 -0.8162
vn 0.2084 0.9764 0.0572
vn 0.2323 -0.9651 -0.1210
vn 0.4686 -0.0750 0.8802
vn 0.9507 0.0399 -0.3075
vn 0.1984 0.9782 0.0608
vn 0.2221 -0.9679 -0.1178
vn 0.7590 -0.0503 0.6491
vn -0.2055 0.0869 -0.9748
vn -0.1070 -0.8961 -0.4307
vn 0.9018 0.0505 -0.4292
vn -0.9994 -0.0092 -0.0337
usemtl Matériau.012
s off
f 131//26 132//26 134//26 133//26
f 138//27 137//27 141//27 142//27
f 137//28 138//28 136//28 135//28
f 153//29 154//29 132//29 131//29
f 151//30 137//30 135//30 153//30
f 152//31 134//31 132//31 154//31
f 142//32 141//32 145//32 146//32
f 151//33 133//33 140//33 155//33
f 152//34 138//34 142//34 156//34
f 133//35 134//35 139//35 140//35
f 158//36 146//36 150//36 160//36
f 155//37 140//37 144//37 157//37
f 156//38 142//38 146//38 158//38
f 140//39 139//39 143//39 144//39
f 149//40 159//40 163//40 166//40
f 144//41 143//41 147//41 148//41
f 146//42 145//42 149//42 150//42
f 157//43 144//43 148//43 159//43
f 145//44 157//44 159//44 149//44
f 148//45 147//45 161//45 162//45
f 139//46 156//46 158//46 143//46
f 141//47 155//47 157//47 145//47
f 143//48 158//48 160//48 147//48
f 134//49 152//49 156//49 139//49
f 137//50 151//50 155//50 141//50
f 138//51 152//51 154//51 136//51
f 133//52 151//52 153//52 131//52
f 135//53 136//53 154//53 153//53
f 165//54 166//54 172//54 171//54
f 161//55 164//55 170//55 167//55
f 150//56 149//56 166//56 165//56
f 159//57 148//57 162//57 163//57
f 147//58 160//58 164//58 161//58
f 160//59 150//59 165//59 164//59
f 172//60 169//60 180//60 179//60
f 168//61 167//61 173//61 174//61
f 163//62 162//62 168//62 169//62
f 166//63 163//63 169//63 172//63
f 164//64 165//64 171//64 170//64
f 162//65 161//65 167//65 168//65
f 176//66 175//66 183//66 184//66
f 167//67 170//67 176//67 173//67
f 169//68 168//68 174//68 175//68
f 170//69 169//69 175//69 176//69
f 179//70 180//70 192//70 191//70
f 170//71 171//71 178//71 177//71
f 171//72 172//72 179//72 178//72
f 169//73 170//73 177//73 180//73
f 184//74 183//74 187//74 188//74
f 175//75 174//75 182//75 183//75
f 173//76 176//76 184//76 181//76
f 174//77 173//77 181//77 182//77
f 186//78 185//78 188//78 187//78
f 183//79 182//79 186//79 187//79
f 181//80 184//80 188//80 185//80
f 182//81 181//81 185//81 186//81
f 192//82 189//82 190//82 191//82
f 177//83 178//83 190//83 189//83
f 180//84 177//84 189//84 192//84
f 178//85 179//85 191//85 190//85
f 193//86 194//86 196//86 195//86
f 200//87 199//87 203//87 204//87
f 199//88 200//88 198//88 197//88
f 215//89 216//89 194//89 193//89
f 213//90 199//90 197//90 215//90
f 214//91 196//91 194//91 216//91
f 204//92 203//92 207//92 208//92
f 213//93 195//93 202//93 217//93
f 214//94 200//94 204//94 218//94
f 195//95 196//95 201//95 202//95
f 220//96 208//96 212//96 222//96
f 217//97 202//97 206//97 219//97
f 218//98 204//98 208//98 220//98
f 202//99 201//99 205//99 206//99
f 211//100 221//100 225//100 228//100
f 206//101 205//101 209//101 210//101
f 208//102 207//102 211//102 212//102
f 219//103 206//103 210//103 221//103
f 207//104 219//104 221//104 211//104
f 210//105 209//105 223//105 224//105
f 201//106 218//106 220//106 205//106
f 203//107 217//107 219//107 207//107
f 205//108 220//108 222//108 209//108
f 196//109 214//109 218//109 201//109
f 199//110 213//110 217//110 203//110
f 200//111 214//111 216//111 198//111
f 195//112 213//112 215//112 193//112
f 197//113 198//113 216//113 215//113
f 227//114 228//114 234//114 233//114
f 223//115 226//115 232//115 229//115
f 212//116 211//116 228//116 227//116
f 221//117 210//117 224//117 225//117
f 209//118 222//118 226//118 223//118
f 222//119 212//119 227//119 226//119
f 234//120 231//120 242//120 241//120
f 230//121 229//121 235//121 236//121
f 225//122 224//122 230//122 231//122
f 228//123 225//123 231//123 234//123
f 226//124 227//124 233//124 232//124
f 224//125 223//125 229//125 230//125
f 238//126 237//126 245//126 246//126
f 229//127 232//127 238//127 235//127
f 231//128 230//128 236//128 237//128
f 232//129 231//129 237//129 238//129
f 241//130 242//130 254//130 253//130
f 232//131 233//131 240//131 239//131
f 233//132 234//132 241//132 240//132
f 231//133 232//133 239//133 242//133
f 246//134 245//134 249//134 250//134
f 237//135 236//135 244//135 245//135
f 235//136 238//136 246//136 243//136
f 236//137 235//137 243//137 244//137
f 248//138 247//138 250//138 249//138
f 245//139 244//139 248//139 249//139
f 243//140 246//140 250//140 247//140
f 244//141 243//141 247//141 248//141
f 254//142 251//142 252//142 253//142
f 239//143 240//143 252//143 251//143
f 242//144 239//144 251//144 254//144
f 240//145 241//145 253//145 252//145
