# Blender v2.91.2 OBJ File: 'camionnete02.blend'
# www.blender.org
mtllib arme_000128.mtl
o Cube.046_Cube.010
v 96.285492 204.486206 -1257.796387
v 117.892212 -12.739822 -1227.380737
v 150.503540 180.161057 -1470.041016
v 172.110245 -37.065018 -1439.625488
v -116.253098 176.197708 -1308.847412
v -94.646423 -41.028381 -1278.431885
v -62.035034 151.872543 -1521.091919
v -40.428406 -65.353577 -1490.676636
v 21.638000 237.977158 -965.577576
v 43.244713 20.751114 -935.162048
v -169.293884 -7.537399 -986.213013
v -190.900574 209.688644 -1016.628601
v -12.144829 253.134033 -833.329224
v 9.461838 35.907951 -802.913757
v -203.076782 7.619423 -853.964722
v -224.683502 224.845490 -884.380310
v -32.102280 262.088013 -755.203003
v -12.888000 102.600739 -746.093445
v -225.426697 74.312225 -797.144470
v -244.640961 233.799500 -806.253967
v -33.684769 469.688538 -863.650757
v -246.223389 441.400024 -914.701843
v -53.642151 478.642517 -785.524475
v -266.180786 450.354034 -836.575500
v 33.284439 232.751938 -1011.169006
v 54.891113 15.525909 -980.753479
v -179.254211 204.463425 -1062.220093
v -157.647522 -12.762619 -1031.804565
v 14.505493 309.685120 -975.617920
v -198.033142 281.396606 -1026.668945
v 26.151894 304.459900 -1021.209412
v -186.386719 276.171387 -1072.260376
v 4.157364 413.721619 -990.184937
v -208.381226 385.433167 -1041.235840
v 15.803726 408.496399 -1035.776367
v -196.734833 380.207886 -1086.827393
v -18.513824 324.499390 -846.358704
v -231.052490 296.210846 -897.409729
v -28.861969 428.535950 -860.925659
v -241.400604 400.247375 -911.976685
v -34.493332 598.847107 -931.853943
v -247.031982 570.558594 -982.905029
v -54.450790 607.801086 -853.727722
v -266.989349 579.512573 -904.778687
v 131.362885 188.748566 -1395.112061
v 152.969574 -28.477493 -1364.696777
v -81.175720 160.460083 -1446.163086
v -59.568985 -56.766006 -1415.747559
v 44.234222 166.016800 -1495.566528
v 65.840950 -51.209290 -1465.151001
v -9.983780 190.341965 -1283.321899
v 11.622925 -26.884109 -1252.906372
v -84.631271 223.832886 -991.103027
v -63.024597 6.606857 -960.687500
v -118.414154 238.989777 -858.854797
v -91.794235 33.776207 -817.107788
v -138.371582 247.943726 -780.728516
v -106.864777 78.747322 -778.793640
v -139.954071 455.544281 -889.176270
v -159.911469 464.498260 -811.050049
v -51.378204 1.381653 -1006.278992
v -72.984894 218.607681 -1036.694580
v -91.763824 295.540833 -1001.143433
v -80.117432 290.315613 -1046.734863
v -102.111908 399.577393 -1015.710388
v -90.465530 394.352173 -1061.302002
v -124.783173 310.355164 -871.884277
v -135.131271 414.391693 -886.451172
v -140.762695 584.702881 -957.379456
v -160.720093 593.656799 -879.253174
v 46.700279 -42.621735 -1390.222046
v 25.093582 174.604370 -1420.637573
v 97.368942 173.088943 -1482.803711
v 64.757584 -19.811966 -1240.143555
v -9.889954 13.678986 -947.924805
v -55.965408 38.544952 -808.501831
v -71.035934 83.516090 -770.187744
v -19.850220 225.679810 -1023.931763
v -26.982788 297.387726 -1033.972168
v -37.330917 401.424255 -1048.539185
v 78.228241 181.676437 -1407.874878
v 118.975578 -44.137161 -1452.388184
v 43.150826 197.414078 -1270.559204
v -31.496643 230.904999 -978.340271
v -65.279495 246.061890 -846.092041
v -85.236938 255.015869 -767.965637
v -86.819397 462.616394 -876.413574
v -106.776825 471.570404 -798.287231
v 1.756454 8.453773 -993.516296
v -38.629150 302.612976 -988.380737
v -48.977295 406.649506 -1002.947693
v -71.648514 317.427277 -859.121521
v -81.996613 421.463806 -873.688354
v -87.627960 591.775024 -944.616699
v -107.585419 600.728882 -866.490356
v 99.834885 -35.549637 -1377.459351
v 5.802032 -32.218834 -987.821350
v -47.332657 -39.290962 -1000.584106
v 103.880432 -76.222244 -1371.764526
v 50.745838 -83.294365 -1384.527222
v 15.668449 -67.556732 -1247.211426
v 68.803139 -60.484581 -1234.448730
v 217.202332 144.477570 -1326.810303
v 201.691437 151.436569 -1266.090576
v 211.245834 55.381439 -1252.641113
v 226.756592 48.422394 -1313.360840
v 263.130798 150.590546 -1315.778564
v 247.619949 157.549591 -1255.058838
v 257.174255 61.494446 -1241.609375
v 272.685059 54.535416 -1302.328979
v 333.416016 159.945389 -1298.896362
v 317.905121 166.904434 -1238.176758
v 327.459442 70.849304 -1224.727173
v 342.970184 63.890244 -1285.447021
v 378.643616 165.965118 -1288.032959
v 363.132782 172.924118 -1227.313232
v 372.687134 76.869019 -1213.863770
v 388.197906 69.909973 -1274.583496
v 297.092468 -124.049591 -2149.652100
v 243.957840 -131.121704 -2162.414795
v 222.351028 86.104370 -2192.830322
v 275.485779 93.176453 -2180.067627
v -125.327484 648.813782 -986.960205
v -223.248932 635.780579 -1010.480591
v -143.717163 657.064331 -914.970886
v -241.638550 644.031189 -938.491333
v -45.795776 670.097534 -891.450684
v -27.406006 661.847046 -963.439636
v -76.366730 655.330566 -975.199890
v -94.756439 663.580872 -903.210815
vn 0.9643 0.1283 0.2316
vn 0.2460 -0.1104 -0.9630
vn -0.9643 -0.1283 -0.2316
vn -0.0980 0.9856 -0.1380
vn 0.0980 -0.9856 0.1380
vn -0.2460 0.1104 0.9630
vn -0.0902 -0.6632 0.7430
vn 0.0138 -0.9886 0.1497
vn -0.3119 -0.0117 0.9500
vn -0.9646 -0.1287 -0.2303
vn 0.9646 0.1287 0.2303
vn 0.2647 -0.4490 -0.8534
vn 0.2648 -0.4558 -0.8498
vn -0.2647 0.4490 0.8534
vn 0.6056 -0.0510 -0.7941
vn -0.9365 0.2292 -0.2655
vn -0.1918 0.0034 0.9814
vn 0.1293 -0.9753 0.1790
vn -0.2642 0.5262 0.8083
vn -0.2295 -0.0316 0.9728
vn 0.0816 -0.9762 0.2011
vn 0.1533 0.1520 0.9764
vn 0.6138 -0.7511 0.2429
vn 0.4503 0.8928 0.0127
vn 0.9692 0.0143 0.2459
usemtl Matériau.011
s off
f 45//1 46//1 4//1 3//1
f 49//2 50//2 8//2 7//2
f 47//3 48//3 6//3 5//3
f 26//1 25//1 9//1 10//1
f 72//4 47//4 5//4 51//4
f 96//5 46//5 2//5 74//5
f 10//1 9//1 13//1 14//1
f 84//6 9//6 29//6 90//6
f 89//5 26//5 10//5 75//5
f 27//3 28//3 11//3 12//3
f 76//7 14//7 18//7 77//7
f 75//8 10//8 14//8 76//8
f 12//3 11//3 15//3 16//3
f 53//4 12//4 16//4 55//4
f 86//9 77//9 18//9 17//9
f 16//10 15//10 19//10 20//10
f 16//3 20//3 24//3 22//3
f 14//11 13//11 17//11 18//11
f 59//12 22//12 42//12 69//12
f 86//6 17//6 23//6 88//6
f 17//1 13//1 21//1 23//1
f 55//2 16//2 22//2 59//2
f 5//3 6//3 28//3 27//3
f 74//5 2//5 26//5 89//5
f 51//4 5//4 27//4 62//4
f 2//1 1//1 25//1 26//1
f 32//3 30//3 34//3 36//3
f 62//2 27//2 32//2 64//2
f 27//3 12//3 30//3 32//3
f 9//1 25//1 31//1 29//1
f 66//4 36//4 34//4 65//4
f 90//5 29//5 37//5 92//5
f 64//2 32//2 36//2 66//2
f 29//1 31//1 35//1 33//1
f 92//6 37//6 39//6 93//6
f 29//1 33//1 39//1 37//1
f 34//3 30//3 38//3 40//3
f 65//4 34//4 40//4 68//4
f 69//13 42//13 124//13 123//13
f 23//1 21//1 41//1 43//1
f 88//14 23//14 43//14 95//14
f 22//3 24//3 44//3 42//3
f 82//5 4//5 46//5 96//5
f 49//4 7//4 47//4 72//4
f 7//3 8//3 48//3 47//3
f 46//15 45//15 103//15 106//15
f 73//4 49//4 72//4 81//4
f 8//5 50//5 71//5 48//5
f 24//14 60//14 70//14 44//14
f 42//16 44//16 126//16 124//16
f 91//4 65//4 68//4 93//4
f 38//6 67//6 68//6 40//6
f 79//2 64//2 66//2 80//2
f 30//5 63//5 67//5 38//5
f 80//4 66//4 65//4 91//4
f 78//2 62//2 64//2 79//2
f 83//4 51//4 62//4 78//4
f 6//5 52//5 61//5 28//5
f 85//2 55//2 59//2 87//2
f 20//6 57//6 60//6 24//6
f 87//12 59//12 69//12 94//12
f 20//17 19//17 58//17 57//17
f 84//4 53//4 55//4 85//4
f 11//18 54//18 56//18 15//18
f 15//7 56//7 58//7 19//7
f 28//5 61//5 54//5 11//5
f 12//6 53//6 63//6 30//6
f 48//5 71//5 52//5 6//5
f 81//4 72//4 51//4 83//4
f 50//3 49//3 121//3 120//3
f 3//2 4//2 82//2 73//2
f 45//4 81//4 83//4 1//4
f 9//4 84//4 85//4 13//4
f 21//12 87//12 94//12 41//12
f 13//2 85//2 87//2 21//2
f 1//4 83//4 78//4 25//4
f 25//2 78//2 79//2 31//2
f 35//4 80//4 91//4 33//4
f 31//2 79//2 80//2 35//2
f 33//4 91//4 93//4 39//4
f 70//19 95//19 130//19 125//19
f 3//4 73//4 81//4 45//4
f 50//5 82//5 96//5 71//5
f 60//14 88//14 95//14 70//14
f 67//6 92//6 93//6 68//6
f 63//5 90//5 92//5 67//5
f 52//3 71//3 100//3 101//3
f 57//6 86//6 88//6 60//6
f 57//20 58//20 77//20 86//20
f 54//21 75//21 76//21 56//21
f 56//7 76//7 77//7 58//7
f 61//5 89//5 75//5 54//5
f 53//6 84//6 90//6 63//6
f 89//6 61//6 98//6 97//6
f 101//5 102//5 97//5 98//5
f 100//5 99//5 102//5 101//5
f 61//3 52//3 101//3 98//3
f 74//1 89//1 97//1 102//1
f 71//2 96//2 99//2 100//2
f 96//1 74//1 102//1 99//1
f 106//2 103//2 107//2 110//2
f 1//22 2//22 105//22 104//22
f 2//23 46//23 106//23 105//23
f 45//24 1//24 104//24 103//24
f 109//5 110//5 114//5 113//5
f 104//6 105//6 109//6 108//6
f 105//5 106//5 110//5 109//5
f 103//4 104//4 108//4 107//4
f 113//5 114//5 118//5 117//5
f 107//4 108//4 112//4 111//4
f 110//2 107//2 111//2 114//2
f 108//6 109//6 113//6 112//6
f 116//1 117//1 118//1 115//1
f 111//4 112//4 116//4 115//4
f 114//2 111//2 115//2 118//2
f 122//2 119//2 120//2 121//2
f 82//5 50//5 120//5 119//5
f 73//1 82//1 119//1 122//1
f 49//4 73//4 122//4 121//4
f 123//4 124//4 126//4 125//4
f 129//4 123//4 125//4 130//4
f 128//4 129//4 130//4 127//4
f 95//19 43//19 127//19 130//19
f 94//13 69//13 123//13 129//13
f 43//25 41//25 128//25 127//25
f 44//19 70//19 125//19 126//19
f 41//13 94//13 129//13 128//13
o Cube.048_Cube.024
v -530.168701 512.215393 141.092178
v -675.523804 329.253143 79.494690
v -407.186890 483.894043 -64.992607
v -551.553711 300.365326 -126.463417
v -684.431152 616.046143 -34.271873
v -758.958923 522.236328 -65.854683
v -621.375061 601.525024 -139.937378
v -695.426880 507.779083 -170.952393
v -403.199097 350.412537 -495.196075
v -307.680481 429.307129 -469.225677
v -381.802185 528.133606 -496.828827
v -477.320892 449.239014 -522.799316
v -336.632507 364.380798 -700.781372
v -266.405182 422.385895 -681.687195
v -320.901062 495.045349 -701.981750
v -391.128601 437.040253 -721.075745
v -294.621582 375.985107 -829.491394
v -243.300293 418.374451 -815.537781
v -283.125244 471.473022 -830.368652
v -334.446655 429.083649 -844.322327
v -486.347229 569.285706 -102.472481
v -639.488525 375.196198 -166.483643
v -617.020447 599.403809 116.277634
v -771.332825 405.166962 50.884308
v -340.141113 480.902649 -487.567047
v -441.545837 397.146301 -515.138000
v -285.904633 459.665039 -709.241760
v -360.459747 398.085571 -729.512512
v -253.588501 445.023315 -848.440369
v -308.072266 400.021820 -863.253967
v -264.696991 369.044281 -918.468140
v -213.375732 411.433624 -904.514343
v -224.125183 442.136169 -948.034729
v -278.609070 397.134674 -962.848328
v -304.912354 425.573425 -942.284607
v -253.591064 467.962738 -928.330872
v -243.972229 365.099548 -982.709534
v -192.650940 407.488922 -968.755920
v -203.400513 438.191467 -1012.275940
v -257.884369 393.189972 -1027.089478
v -284.187683 421.628693 -1006.525940
v -232.866394 464.018005 -992.572327
v -207.825684 351.126923 -1014.147156
v -174.792542 378.411011 -1005.165833
v -181.711487 398.172882 -1033.177612
v -216.780365 369.207489 -1042.712524
v -266.767761 419.799744 -1075.253052
v -293.071259 448.238495 -1054.689331
v -241.749847 490.627838 -1040.735474
v -212.284058 464.801270 -1060.439331
v -183.636780 340.231262 -1035.254395
v -161.366760 358.625458 -1029.199219
v -166.031311 371.948364 -1048.084229
v -189.673645 352.420654 -1054.512329
v -165.584778 336.853394 -1064.448364
v -151.663513 348.351837 -1060.663330
v -154.579285 356.680115 -1072.468506
v -169.358459 344.473083 -1076.486938
v -267.097656 446.222260 -1095.347412
v -284.586945 465.131531 -1081.674194
v -250.462799 493.316650 -1072.396362
v -230.870575 476.144318 -1085.497681
v -252.130280 568.696533 395.903107
v -325.185303 339.927887 368.969269
v -126.324463 551.772339 191.814056
v -196.497070 322.829651 165.144501
v -429.625366 584.755798 212.687592
v -467.082733 467.459686 198.877869
v -356.693909 579.364319 106.056976
v -401.100677 458.692932 94.371193
v -86.279602 231.041199 -90.376503
v -5.512024 242.757324 4.419312
v 74.502258 303.998108 -69.111412
v -3.363708 292.328888 -163.802734
v 23.497925 52.381653 -144.424805
v 82.589294 58.284058 -72.769829
v 143.550964 103.344116 -126.754494
v 84.459412 97.441772 -198.409424
v 94.840515 -58.332336 -177.868805
v 138.023682 -54.019043 -125.504280
v 182.573608 -21.089600 -164.955597
v 139.390442 -25.403137 -217.319946
v -217.154572 600.065918 143.790405
v -304.052338 355.060974 116.307068
v -363.113892 616.078979 361.285797
v -440.670807 373.212799 332.692230
v 40.319275 265.076233 -28.114639
v -45.005676 256.553589 -131.580566
v 122.615784 64.536621 -102.569191
v 59.882996 58.270691 -178.639740
v 172.754822 -61.125916 -150.838745
v 126.910461 -65.705078 -206.429993
v 131.049194 -142.132263 -200.825958
v 174.232300 -137.818604 -148.461517
v 216.749817 -150.705627 -179.740967
v 170.905457 -155.284729 -235.332367
v 182.188599 -114.094543 -245.308502
v 225.371765 -109.781128 -192.944000
v 157.949036 -201.713928 -218.101471
v 201.132202 -197.400635 -165.737030
v 243.649719 -210.287598 -197.016602
v 197.805298 -214.866760 -252.607849
v 209.088501 -173.676270 -262.584015
v 252.271667 -169.362915 -210.219482
v 166.046326 -249.213684 -205.128265
v 193.841553 -246.437683 -171.423553
v 221.208069 -254.732300 -191.556915
v 191.700195 -257.679688 -227.338562
v 238.961853 -233.979309 -284.973969
v 250.245056 -192.788818 -294.950134
v 293.428284 -188.475708 -242.585541
v 284.806213 -229.400269 -229.382599
v 170.119446 -281.756897 -196.544128
v 188.858032 -279.885193 -173.821259
v 207.307922 -285.477600 -187.394684
v 187.414551 -287.464478 -211.517731
v 182.806824 -313.822571 -197.187042
v 194.520569 -312.652527 -182.982819
v 206.053772 -316.148254 -191.467621
v 193.618103 -317.390381 -206.547089
v 270.484680 -236.630920 -295.039886
v 277.987000 -209.242798 -301.673309
v 306.700012 -206.374634 -266.855286
v 300.967163 -233.585999 -258.076538
vn 0.6160 -0.6408 0.4582
vn -0.5422 0.6906 -0.4787
vn -0.6160 0.6409 -0.4581
vn -0.3273 -0.0576 0.9432
vn 0.2311 0.9729 0.0041
vn -0.5642 -0.7927 -0.2307
vn -0.5608 0.7749 -0.2915
vn 0.7470 0.6550 0.1139
vn -0.7893 -0.4213 -0.4468
vn 0.6815 -0.6971 0.2226
vn -0.7853 -0.5295 -0.3209
vn 0.8199 0.5540 0.1445
vn -0.7723 -0.5611 -0.2978
vn 0.6068 -0.7818 0.1434
vn 0.7169 0.6701 0.1924
vn 0.6105 -0.7815 0.1288
vn -0.5556 0.7733 -0.3055
vn 0.8428 0.5209 0.1355
vn 0.7065 0.7027 0.0847
vn 0.5740 -0.7785 0.2538
vn -0.6797 -0.6846 -0.2633
vn 0.7273 0.6775 0.1099
vn -0.6489 -0.7113 -0.2701
vn -0.5602 -0.7526 -0.3460
vn 0.4074 0.9132 0.0127
vn -0.8191 -0.3598 -0.4467
vn 0.6383 0.7160 0.2826
vn -0.7781 0.4829 0.4018
vn -0.5802 0.7798 -0.2351
vn -0.7235 -0.6628 -0.1927
vn -0.5894 0.7813 -0.2057
vn 0.7863 0.5783 0.2175
vn -0.7205 -0.6663 -0.1922
vn -0.7895 -0.5741 -0.2172
vn 0.7233 0.6522 0.2269
vn 0.3456 -0.6433 0.6832
vn 0.7836 0.5821 0.2171
vn 0.7158 0.6720 0.1897
vn -0.7903 -0.5720 -0.2198
vn 0.5802 -0.7798 0.2351
vn -0.1180 0.4365 -0.8920
vn -0.5641 -0.7661 -0.3081
vn 0.8944 0.4385 0.0885
vn -0.0995 0.4178 -0.9031
vn 0.6157 0.7812 -0.1031
vn -0.7842 -0.5930 -0.1830
vn -0.6365 0.6194 0.4596
vn 0.6365 -0.6194 -0.4596
vn -0.3969 0.6825 -0.6137
vn 0.8793 0.4634 0.1097
vn -0.5920 -0.7518 -0.2903
vn 0.3295 -0.6303 0.7030
vn 0.6156 -0.5643 -0.5501
vn 0.8746 0.4707 0.1160
vn -0.6004 -0.7473 -0.2848
vn 0.5141 -0.7559 0.4054
vn -0.1594 0.4774 -0.8641
vn -0.7884 -0.3786 -0.4849
vn 0.5805 -0.4883 -0.6516
vn -0.6562 0.7150 0.2413
vn 0.7949 -0.3098 0.5217
vn -0.0479 0.6523 -0.7565
vn -0.7797 0.3255 -0.5348
vn -0.3036 -0.0152 0.9527
vn -0.1176 0.9825 -0.1443
vn -0.2531 -0.9642 -0.0789
vn 0.6818 0.4115 -0.6048
vn 0.8558 0.5167 -0.0251
vn -0.6480 -0.4855 -0.5869
vn 0.3602 -0.5905 0.7222
vn -0.5115 -0.0911 -0.8544
vn 0.5977 -0.0506 0.8001
vn -0.5462 -0.0948 -0.8323
vn -0.6143 -0.5420 0.5735
vn 0.6736 0.0940 0.7331
vn -0.6143 -0.5629 0.5530
vn 0.6901 0.4013 -0.6022
vn 0.5911 -0.0785 0.8027
vn 0.7437 0.0343 0.6677
vn -0.6700 -0.4510 0.5897
vn -0.6498 -0.1714 -0.7405
vn 0.7312 0.0519 0.6802
vn -0.6641 -0.2038 -0.7193
vn -0.5667 -0.8170 -0.1068
vn 0.4616 0.7707 -0.4394
vn -0.6454 -0.6786 -0.3506
vn 0.3666 0.9157 0.1648
vn -0.9028 0.2469 0.3521
vn 0.6622 0.4685 -0.5847
vn -0.6684 -0.0876 -0.7386
vn 0.6497 0.4955 -0.5766
vn 0.5968 0.0363 0.8015
vn -0.6710 -0.0903 -0.7359
vn -0.5939 -0.0326 -0.8039
vn 0.6451 0.1081 0.7564
vn -0.7725 0.0414 0.6337
vn 0.5998 0.0391 0.7992
vn 0.6761 0.0933 0.7309
vn -0.5912 -0.0332 -0.8059
vn -0.6622 -0.4685 0.5847
vn 0.7222 -0.4026 -0.5624
vn -0.6791 -0.2989 -0.6705
vn 0.5481 -0.1763 0.8176
vn 0.7141 -0.4286 -0.5536
vn 0.8696 -0.0241 0.4933
vn -0.6234 -0.0186 -0.7817
vn 0.2272 0.9372 -0.2646
vn -0.2272 -0.9372 0.2646
vn 0.7682 0.0533 -0.6379
vn 0.5584 -0.1418 0.8174
vn -0.6796 -0.2654 -0.6838
vn -0.7724 0.0698 0.6312
vn -0.1462 -0.9687 0.2004
vn 0.5613 -0.1315 0.8171
vn -0.6796 -0.2551 -0.6878
vn -0.7240 -0.2989 0.6217
vn 0.7384 -0.3429 -0.5807
vn -0.3119 -0.1421 -0.9394
vn -0.0454 -0.9918 0.1191
vn 0.3960 0.8290 -0.3949
usemtl Matériau.012
s off
f 131//26 132//26 134//26 133//26
f 138//27 137//27 141//27 142//27
f 137//28 138//28 136//28 135//28
f 153//29 154//29 132//29 131//29
f 151//30 137//30 135//30 153//30
f 152//31 134//31 132//31 154//31
f 142//32 141//32 145//32 146//32
f 151//33 133//33 140//33 155//33
f 152//34 138//34 142//34 156//34
f 133//35 134//35 139//35 140//35
f 158//36 146//36 150//36 160//36
f 155//37 140//37 144//37 157//37
f 156//38 142//38 146//38 158//38
f 140//39 139//39 143//39 144//39
f 149//40 159//40 163//40 166//40
f 144//41 143//41 147//41 148//41
f 146//42 145//42 149//42 150//42
f 157//43 144//43 148//43 159//43
f 145//44 157//44 159//44 149//44
f 148//45 147//45 161//45 162//45
f 139//46 156//46 158//46 143//46
f 141//47 155//47 157//47 145//47
f 143//48 158//48 160//48 147//48
f 134//49 152//49 156//49 139//49
f 137//50 151//50 155//50 141//50
f 138//51 152//51 154//51 136//51
f 133//52 151//52 153//52 131//52
f 135//53 136//53 154//53 153//53
f 165//54 166//54 172//54 171//54
f 161//55 164//55 170//55 167//55
f 150//56 149//56 166//56 165//56
f 159//57 148//57 162//57 163//57
f 147//58 160//58 164//58 161//58
f 160//59 150//59 165//59 164//59
f 172//60 169//60 180//60 179//60
f 168//61 167//61 173//61 174//61
f 163//62 162//62 168//62 169//62
f 166//63 163//63 169//63 172//63
f 164//64 165//64 171//64 170//64
f 162//65 161//65 167//65 168//65
f 176//66 175//66 183//66 184//66
f 167//67 170//67 176//67 173//67
f 169//68 168//68 174//68 175//68
f 170//69 169//69 175//69 176//69
f 179//70 180//70 192//70 191//70
f 170//71 171//71 178//71 177//71
f 171//72 172//72 179//72 178//72
f 169//73 170//73 177//73 180//73
f 184//74 183//74 187//74 188//74
f 175//75 174//75 182//75 183//75
f 173//76 176//76 184//76 181//76
f 174//77 173//77 181//77 182//77
f 186//78 185//78 188//78 187//78
f 183//79 182//79 186//79 187//79
f 181//80 184//80 188//80 185//80
f 182//81 181//81 185//81 186//81
f 192//82 189//82 190//82 191//82
f 177//83 178//83 190//83 189//83
f 180//84 177//84 189//84 192//84
f 178//85 179//85 191//85 190//85
f 193//86 194//86 196//86 195//86
f 200//87 199//87 203//87 204//87
f 199//88 200//88 198//88 197//88
f 215//89 216//89 194//89 193//89
f 213//90 199//90 197//90 215//90
f 214//91 196//91 194//91 216//91
f 204//92 203//92 207//92 208//92
f 213//93 195//93 202//93 217//93
f 214//94 200//94 204//94 218//94
f 195//95 196//95 201//95 202//95
f 220//96 208//96 212//96 222//96
f 217//97 202//97 206//97 219//97
f 218//98 204//98 208//98 220//98
f 202//99 201//99 205//99 206//99
f 211//100 221//100 225//100 228//100
f 206//101 205//101 209//101 210//101
f 208//102 207//102 211//102 212//102
f 219//103 206//103 210//103 221//103
f 207//104 219//104 221//104 211//104
f 210//105 209//105 223//105 224//105
f 201//106 218//106 220//106 205//106
f 203//107 217//107 219//107 207//107
f 205//108 220//108 222//108 209//108
f 196//109 214//109 218//109 201//109
f 199//110 213//110 217//110 203//110
f 200//111 214//111 216//111 198//111
f 195//112 213//112 215//112 193//112
f 197//113 198//113 216//113 215//113
f 227//114 228//114 234//114 233//114
f 223//115 226//115 232//115 229//115
f 212//116 211//116 228//116 227//116
f 221//117 210//117 224//117 225//117
f 209//118 222//118 226//118 223//118
f 222//119 212//119 227//119 226//119
f 234//120 231//120 242//120 241//120
f 230//121 229//121 235//121 236//121
f 225//122 224//122 230//122 231//122
f 228//123 225//123 231//123 234//123
f 226//124 227//124 233//124 232//124
f 224//125 223//125 229//125 230//125
f 238//126 237//126 245//126 246//126
f 229//127 232//127 238//127 235//127
f 231//128 230//128 236//128 237//128
f 232//129 231//129 237//129 238//129
f 241//130 242//130 254//130 253//130
f 232//131 233//131 240//131 239//131
f 233//132 234//132 241//132 240//132
f 231//133 232//133 239//133 242//133
f 246//134 245//134 249//134 250//134
f 237//135 236//135 244//135 245//135
f 235//136 238//136 246//136 243//136
f 236//137 235//137 243//137 244//137
f 248//138 247//138 250//138 249//138
f 245//139 244//139 248//139 249//139
f 243//140 246//140 250//140 247//140
f 244//141 243//141 247//141 248//141
f 254//142 251//142 252//142 253//142
f 239//143 240//143 252//143 251//143
f 242//144 239//144 251//144 254//144
f 240//145 241//145 253//145 252//145
