# Blender v2.91.2 OBJ File: 'camionnete02.blend'
# www.blender.org
mtllib arme_000214.mtl
o Cube.046_Cube.010
v -41.990471 126.661835 -1265.262451
v -60.160038 -83.538788 -1201.507568
v -4.297897 60.654480 -1472.147217
v -22.467495 -149.546173 -1408.392578
v -258.388794 132.813751 -1306.651123
v -276.558411 -77.386841 -1242.896240
v -220.696198 66.806458 -1513.535889
v -238.865860 -143.394257 -1449.781250
v -93.885681 217.540863 -980.422791
v -112.055283 7.340240 -916.667908
v -328.453552 13.492203 -958.056519
v -310.283966 223.692841 -1021.811340
v -117.371597 258.669586 -851.514038
v -135.541245 48.468964 -787.759277
v -351.939545 54.620926 -829.147827
v -333.769958 264.821503 -892.902710
v -131.246109 282.966583 -775.360596
v -141.979019 125.999664 -741.677429
v -358.377380 132.151703 -783.066040
v -347.644440 289.118591 -816.749207
v -85.789047 203.362030 -1024.862915
v -103.958626 -6.838577 -961.108093
v -302.187378 209.514008 -1066.251709
v -320.356995 -0.686615 -1002.496704
v -17.604561 83.957184 -1399.110596
v -35.774162 -126.243561 -1335.355713
v -234.002869 90.109100 -1440.499023
v -252.172424 -120.091553 -1376.744141
v -112.497055 63.730530 -1492.841553
v -130.666656 -146.470245 -1429.086914
v -150.189606 129.737823 -1285.956787
v -168.359207 -80.462891 -1222.201904
v -202.084824 220.616852 -1001.117065
v -220.254410 10.416199 -937.362122
v -225.570801 261.745575 -872.208374
v -235.978760 63.920258 -799.264160
v -239.445251 286.042572 -796.054932
v -240.319778 116.199463 -768.191101
v -212.157822 -3.762604 -981.802368
v -193.988220 206.438019 -1045.557251
v -143.973297 -123.167572 -1356.050049
v -125.803696 87.033173 -1419.804688
v -58.397415 62.192535 -1482.494385
v -114.259621 -82.000854 -1211.854736
v -166.154846 8.878204 -927.015076
v -199.499283 62.883163 -792.287109
v -203.840271 115.162354 -761.213989
v -139.888626 204.900055 -1035.209961
v -71.704147 85.495148 -1409.457764
v -76.567078 -148.008209 -1418.739746
v -96.090080 128.199799 -1275.609619
v -147.985245 219.078827 -990.769958
v -171.471191 260.207611 -861.861206
v -185.345673 284.504608 -785.707764
v -158.058243 -5.300598 -971.455261
v -89.873779 -124.705566 -1345.702881
v -161.460236 -44.657791 -959.518005
v -215.559830 -43.119781 -969.865173
v -93.275841 -164.062775 -1333.765869
v -147.375336 -162.524750 -1344.113037
v -171.761230 -119.820038 -1210.264648
v -117.661629 -121.358063 -1199.917480
v 61.750061 34.648224 -1326.550537
v 50.966782 53.531830 -1267.364258
v 42.932564 -39.416718 -1239.172363
v 53.715622 -58.300323 -1298.358887
v 108.512543 33.318848 -1317.606689
v 97.729309 52.202484 -1258.420410
v 89.694962 -40.746155 -1230.228760
v 100.478149 -59.629700 -1289.415039
v 180.074097 31.284454 -1303.919922
v 169.290909 50.168030 -1244.733643
v 161.256500 -42.780548 -1216.541748
v 172.039597 -61.664124 -1275.728271
v 226.123047 29.975250 -1295.112549
v 215.339874 48.858917 -1235.926270
v 207.305542 -44.089661 -1207.734619
v 218.088654 -62.973236 -1266.920898
v 47.260506 -364.854523 -2098.396240
v -6.839050 -363.316589 -2108.743408
v 11.330399 -153.115875 -2172.498047
v 65.430084 -154.653900 -2162.150879
vn 0.9818 -0.0279 0.1878
vn 0.1710 -0.2995 -0.9387
vn -0.9818 0.0279 -0.1878
vn 0.0824 0.9537 -0.2893
vn -0.0824 -0.9537 0.2893
vn -0.1752 -0.5137 0.8399
vn -0.1650 -0.9386 0.3031
vn -0.2593 0.1920 0.9465
vn -0.9821 0.0278 -0.1864
vn 0.9821 -0.0278 0.1864
vn 0.5436 -0.2863 -0.7890
vn -0.1371 0.1880 0.9726
vn -0.0477 -0.9437 0.3275
vn -0.1810 0.1601 0.9704
vn -0.0935 -0.9319 0.3504
vn -0.1710 0.2995 0.9387
vn 0.2291 0.2643 0.9368
vn 0.4730 -0.8108 0.3449
vn 0.6105 0.7800 -0.1376
usemtl Matériau.011
s off
f 25//1 26//1 4//1 3//1
f 29//2 30//2 8//2 7//2
f 27//3 28//3 6//3 5//3
f 22//1 21//1 9//1 10//1
f 42//4 27//4 5//4 31//4
f 56//5 26//5 2//5 44//5
f 10//1 9//1 13//1 14//1
f 55//5 22//5 10//5 45//5
f 23//3 24//3 11//3 12//3
f 46//6 14//6 18//6 47//6
f 45//7 10//7 14//7 46//7
f 12//3 11//3 15//3 16//3
f 33//4 12//4 16//4 35//4
f 54//8 47//8 18//8 17//8
f 16//9 15//9 19//9 20//9
f 14//10 13//10 17//10 18//10
f 5//3 6//3 24//3 23//3
f 44//5 2//5 22//5 55//5
f 31//4 5//4 23//4 40//4
f 2//1 1//1 21//1 22//1
f 50//5 4//5 26//5 56//5
f 29//4 7//4 27//4 42//4
f 7//3 8//3 28//3 27//3
f 26//11 25//11 63//11 66//11
f 43//4 29//4 42//4 49//4
f 8//5 30//5 41//5 28//5
f 51//4 31//4 40//4 48//4
f 6//5 32//5 39//5 24//5
f 20//12 19//12 38//12 37//12
f 52//4 33//4 35//4 53//4
f 11//13 34//13 36//13 15//13
f 15//6 36//6 38//6 19//6
f 24//5 39//5 34//5 11//5
f 28//5 41//5 32//5 6//5
f 49//4 42//4 31//4 51//4
f 30//3 29//3 81//3 80//3
f 3//2 4//2 50//2 43//2
f 25//4 49//4 51//4 1//4
f 9//4 52//4 53//4 13//4
f 1//4 51//4 48//4 21//4
f 3//4 43//4 49//4 25//4
f 30//5 50//5 56//5 41//5
f 32//3 41//3 60//3 61//3
f 37//14 38//14 47//14 54//14
f 34//15 45//15 46//15 36//15
f 36//6 46//6 47//6 38//6
f 39//5 55//5 45//5 34//5
f 55//16 39//16 58//16 57//16
f 61//5 62//5 57//5 58//5
f 60//5 59//5 62//5 61//5
f 39//3 32//3 61//3 58//3
f 44//1 55//1 57//1 62//1
f 41//2 56//2 59//2 60//2
f 56//1 44//1 62//1 59//1
f 66//2 63//2 67//2 70//2
f 1//17 2//17 65//17 64//17
f 2//18 26//18 66//18 65//18
f 25//19 1//19 64//19 63//19
f 69//5 70//5 74//5 73//5
f 64//16 65//16 69//16 68//16
f 65//5 66//5 70//5 69//5
f 63//4 64//4 68//4 67//4
f 73//5 74//5 78//5 77//5
f 67//4 68//4 72//4 71//4
f 70//2 67//2 71//2 74//2
f 68//16 69//16 73//16 72//16
f 76//1 77//1 78//1 75//1
f 71//4 72//4 76//4 75//4
f 74//2 71//2 75//2 78//2
f 82//2 79//2 80//2 81//2
f 50//5 30//5 80//5 79//5
f 43//1 50//1 79//1 82//1
f 29//4 43//4 82//4 81//4
o Cube.048_Cube.024
v -462.800385 595.987000 104.491562
v -608.738770 411.327667 159.267914
v -411.836884 492.692932 -107.948097
v -561.117310 306.209778 -54.877380
v -671.687439 642.573669 -35.244652
v -746.514160 547.893677 -7.159294
v -645.557068 589.611938 -144.168427
v -720.283264 495.052246 -116.059883
v -525.229797 244.313232 -475.123932
v -415.353455 306.159668 -463.950714
v -470.848389 412.198181 -505.166779
v -580.724670 350.351807 -516.340088
v -467.870453 214.032104 -681.726257
v -387.086914 259.502991 -673.511292
v -427.888184 337.464905 -703.814270
v -508.671600 291.993958 -712.029236
v -431.091583 197.780609 -811.530212
v -372.056122 231.010071 -805.526917
v -401.873077 287.983643 -827.671936
v -460.908508 254.754211 -833.675232
v -504.050964 564.484131 -144.075104
v -660.899109 368.413452 -87.336647
v -558.191223 674.263123 81.377518
v -713.122803 478.224457 139.529373
v -438.411194 359.719238 -489.483063
v -555.058472 294.061646 -501.345001
v -400.603119 295.283966 -706.164795
v -486.364868 247.011047 -714.885925
v -378.815582 253.894409 -841.985291
v -441.489044 218.617218 -848.358459
v -407.619751 171.869812 -898.926941
v -348.584259 205.099274 -892.923767
v -355.577667 230.406799 -940.492981
v -418.251190 195.129517 -946.866272
v -437.634735 230.894043 -930.475098
v -378.599243 264.123535 -924.471863
v -391.336060 154.366943 -962.176697
v -332.300476 187.596497 -956.173340
v -339.293976 212.903931 -1003.742615
v -401.967529 177.626709 -1010.115906
v -421.351105 213.391205 -993.724792
v -362.315491 246.620667 -987.721619
v -360.132019 129.081055 -991.791809
v -322.133545 150.469360 -987.927673
v -326.634888 166.758667 -1018.545837
v -366.974854 144.052368 -1022.648132
v -408.140381 197.906586 -1061.665161
v -427.524017 233.671082 -1045.274048
v -368.488464 266.900604 -1039.270752
v -345.467010 233.183838 -1055.291992
v -339.545135 110.651489 -1011.435364
v -313.927673 125.070923 -1008.830383
v -316.962280 136.052673 -1029.472168
v -344.158417 120.744751 -1032.237671
v -323.976105 99.485046 -1040.114624
v -307.962250 108.498840 -1038.486084
v -309.859253 115.363647 -1051.389771
v -326.859955 105.794373 -1053.118530
v -404.518127 220.564056 -1085.656128
v -417.406616 244.344299 -1074.757202
v -378.153046 266.438995 -1070.765625
v -362.845764 244.020294 -1081.418335
v -310.449005 447.878784 471.540497
v -386.291931 253.805634 349.143463
v -138.267395 483.864807 305.803345
v -214.901611 291.593140 183.025986
v -439.717834 548.745361 275.464447
v -478.604614 449.238647 212.708069
v -341.937531 569.177612 191.699554
v -390.728027 468.613342 127.534958
v -112.719727 293.185822 -89.848763
v -61.866699 223.887146 0.290764
v 51.527710 264.351257 -30.589417
v 3.645813 332.741119 -120.132362
v -72.889099 127.418213 -223.363312
v -37.097107 73.042603 -156.855438
v 48.457397 102.124512 -179.120605
v 12.665344 156.500122 -245.628479
v -45.300476 23.104004 -305.966492
v -19.144287 -16.632935 -257.363342
v 43.377869 4.619629 -273.634430
v 17.221558 44.356689 -322.237549
v -211.574280 554.673157 261.707123
v -306.537079 352.213501 128.987061
v -407.972412 518.129883 435.280792
v -488.489014 312.097321 305.341278
v -3.887756 232.534760 -15.422615
v -55.569458 311.050323 -111.456459
v 8.358459 71.781738 -178.336273
v -29.639160 129.508301 -248.942413
v 15.191711 -27.575806 -281.855927
v -12.576355 14.609985 -333.454132
v -40.696350 -48.453613 -366.948517
v -14.540039 -88.190491 -318.345337
v 25.902161 -104.686768 -350.664459
v -1.866028 -62.500977 -402.262665
v 26.993286 -31.900879 -389.843140
v 53.149597 -71.637878 -341.239960
v -36.158081 -99.466248 -411.097687
v -10.001831 -139.203186 -362.494629
v 30.440430 -155.699524 -394.813782
v 2.672302 -113.513733 -446.411926
v 31.531677 -82.913330 -433.992310
v 57.687866 -122.650452 -385.389191
v -51.230774 -145.374146 -423.563446
v -34.395203 -170.950989 -392.279877
v -8.364380 -181.569031 -413.082306
v -26.237488 -154.415771 -446.293671
v 39.728821 -133.677124 -482.839508
v 68.588013 -103.076843 -470.419830
v 94.744263 -142.813965 -421.816833
v 67.496826 -175.862854 -431.241302
v -62.777039 -175.997559 -432.407593
v -51.426941 -193.240784 -411.317108
v -33.877747 -200.399475 -425.341644
v -45.927246 -182.093323 -447.731720
v -64.155029 -206.343506 -448.742218
v -57.059998 -217.122437 -435.558075
v -46.089722 -221.597046 -444.324890
v -53.622009 -210.153809 -458.321259
v 69.046692 -146.276794 -491.991180
v 88.235535 -125.930298 -483.733185
v 105.627136 -152.351807 -451.416351
v 87.510071 -174.326599 -457.682770
vn 0.7667 -0.4890 0.4161
vn -0.5832 0.6333 -0.5087
vn -0.7687 0.4830 -0.4194
vn 0.0006 0.2839 0.9588
vn 0.1602 0.9021 -0.4006
vn -0.5625 -0.7862 0.2558
vn -0.4190 0.8163 -0.3977
vn 0.7710 0.5827 -0.2568
vn -0.8832 -0.4456 -0.1463
vn 0.6910 -0.6796 0.2463
vn -0.8864 -0.4091 -0.2166
vn 0.9159 0.3996 0.0378
vn -0.8785 -0.4388 -0.1891
vn 0.4552 -0.8541 0.2516
vn 0.8392 0.5394 0.0691
vn 0.4581 -0.8567 0.2371
vn -0.4150 0.8115 -0.4114
vn 0.9317 0.3617 0.0337
vn 0.8296 0.5568 -0.0421
vn 0.4293 -0.8280 0.3608
vn -0.8091 -0.5714 -0.1376
vn 0.8465 0.5322 -0.0137
vn -0.7843 -0.6042 -0.1408
vn -0.6566 -0.7541 0.0116
vn 0.4099 0.8533 -0.3222
vn -0.9031 -0.4295 -0.0030
vn 0.6498 0.7331 -0.2008
vn -0.6338 0.6328 0.4448
vn -0.4342 0.8332 -0.3424
vn -0.8444 -0.5311 -0.0704
vn -0.4414 0.8408 -0.3134
vn 0.8913 0.4407 0.1069
vn -0.8420 -0.5350 -0.0694
vn -0.8936 -0.4359 -0.1071
vn 0.8439 0.5259 0.1058
vn 0.2528 -0.5880 0.7684
vn 0.8894 0.4448 0.1059
vn 0.8384 0.5410 0.0661
vn -0.8941 -0.4341 -0.1100
vn 0.4342 -0.8332 0.3424
vn -0.0793 0.3119 -0.9468
vn -0.7134 -0.6795 -0.1715
vn 0.9643 0.2648 -0.0009
vn -0.0653 0.2885 -0.9552
vn 0.7458 0.6223 -0.2380
vn -0.8902 -0.4501 -0.0705
vn -0.4840 0.7930 0.3699
vn 0.4840 -0.7930 -0.3699
vn -0.2922 0.6464 -0.7048
vn 0.9553 0.2951 0.0165
vn -0.7371 -0.6576 -0.1556
vn 0.2405 -0.5693 0.7862
vn 0.4692 -0.7492 -0.4675
vn 0.9524 0.3040 0.0217
vn -0.7442 -0.6507 -0.1507
vn 0.3826 -0.7716 0.5082
vn -0.1108 0.3638 -0.9249
vn -0.8694 -0.2869 -0.4022
vn 0.4439 -0.6840 -0.5789
vn -0.4964 0.8567 0.1398
vn 0.6276 -0.5784 0.5212
vn 0.2808 0.8886 -0.3626
vn -0.6057 0.5983 -0.5246
vn -0.5163 -0.3033 0.8009
vn -0.0133 0.9794 0.2016
vn -0.2744 -0.8369 -0.4735
vn 0.9214 0.2542 -0.2940
vn 0.9405 0.3006 0.1583
vn -0.6236 -0.1688 -0.7633
vn 0.1283 -0.8901 0.4373
vn -0.2650 0.5411 -0.7981
vn 0.2937 -0.6677 0.6840
vn -0.3027 0.5451 -0.7818
vn -0.9046 -0.3733 0.2056
vn 0.4403 -0.5632 0.6993
vn -0.9076 -0.3805 0.1774
vn 0.9231 0.2418 -0.2991
vn 0.2812 -0.6867 0.6704
vn 0.4953 -0.6139 0.6147
vn -0.9218 -0.2841 0.2638
vn -0.4482 0.4956 -0.7440
vn 0.4938 -0.5963 0.6329
vn -0.4791 0.4684 -0.7424
vn -0.6423 -0.6592 -0.3911
vn 0.6450 0.7470 -0.1613
vn -0.5789 -0.4274 -0.6945
vn 0.3607 0.7515 0.5524
vn -0.9467 0.2243 0.2310
vn 0.9206 0.2991 -0.2509
vn -0.4318 0.5680 -0.7007
vn 0.9181 0.3222 -0.2307
vn 0.3321 -0.6007 0.7272
vn -0.4359 0.5660 -0.6998
vn -0.3275 0.6032 -0.7273
vn 0.4147 -0.5489 0.7257
vn -0.8282 0.1235 0.5467
vn 0.3364 -0.5990 0.7267
vn 0.4428 -0.5639 0.6971
vn -0.3247 0.6023 -0.7293
vn -0.9206 -0.2991 0.2509
vn 0.6221 -0.4079 -0.6683
vn -0.5426 0.3814 -0.7484
vn 0.2007 -0.7479 0.6328
vn 0.6024 -0.4277 -0.6739
vn 0.6282 -0.6429 0.4382
vn -0.3536 0.6183 -0.7019
vn 0.6404 0.7265 0.2493
vn -0.6404 -0.7265 -0.2493
vn 0.8631 -0.0469 -0.5028
vn 0.2235 -0.7261 0.6503
vn -0.5264 0.4131 -0.7431
vn -0.8162 0.1463 0.5589
vn -0.5649 -0.7613 -0.3184
vn 0.2302 -0.7194 0.6553
vn -0.5213 0.4227 -0.7413
vn -0.9173 -0.1556 0.3665
vn 0.6648 -0.3618 -0.6535
vn -0.0874 0.4443 -0.8916
vn -0.4642 -0.7916 -0.3974
vn 0.7799 0.6198 0.0870
usemtl Matériau.012
s off
f 83//20 84//20 86//20 85//20
f 90//21 89//21 93//21 94//21
f 89//22 90//22 88//22 87//22
f 105//23 106//23 84//23 83//23
f 103//24 89//24 87//24 105//24
f 104//25 86//25 84//25 106//25
f 94//26 93//26 97//26 98//26
f 103//27 85//27 92//27 107//27
f 104//28 90//28 94//28 108//28
f 85//29 86//29 91//29 92//29
f 110//30 98//30 102//30 112//30
f 107//31 92//31 96//31 109//31
f 108//32 94//32 98//32 110//32
f 92//33 91//33 95//33 96//33
f 101//34 111//34 115//34 118//34
f 96//35 95//35 99//35 100//35
f 98//36 97//36 101//36 102//36
f 109//37 96//37 100//37 111//37
f 97//38 109//38 111//38 101//38
f 100//39 99//39 113//39 114//39
f 91//40 108//40 110//40 95//40
f 93//41 107//41 109//41 97//41
f 95//42 110//42 112//42 99//42
f 86//43 104//43 108//43 91//43
f 89//44 103//44 107//44 93//44
f 90//45 104//45 106//45 88//45
f 85//46 103//46 105//46 83//46
f 87//47 88//47 106//47 105//47
f 117//48 118//48 124//48 123//48
f 113//49 116//49 122//49 119//49
f 102//50 101//50 118//50 117//50
f 111//51 100//51 114//51 115//51
f 99//52 112//52 116//52 113//52
f 112//53 102//53 117//53 116//53
f 124//54 121//54 132//54 131//54
f 120//55 119//55 125//55 126//55
f 115//56 114//56 120//56 121//56
f 118//57 115//57 121//57 124//57
f 116//58 117//58 123//58 122//58
f 114//59 113//59 119//59 120//59
f 128//60 127//60 135//60 136//60
f 119//61 122//61 128//61 125//61
f 121//62 120//62 126//62 127//62
f 122//63 121//63 127//63 128//63
f 131//64 132//64 144//64 143//64
f 122//65 123//65 130//65 129//65
f 123//66 124//66 131//66 130//66
f 121//67 122//67 129//67 132//67
f 136//68 135//68 139//68 140//68
f 127//69 126//69 134//69 135//69
f 125//70 128//70 136//70 133//70
f 126//71 125//71 133//71 134//71
f 138//72 137//72 140//72 139//72
f 135//73 134//73 138//73 139//73
f 133//74 136//74 140//74 137//74
f 134//75 133//75 137//75 138//75
f 144//76 141//76 142//76 143//76
f 129//77 130//77 142//77 141//77
f 132//78 129//78 141//78 144//78
f 130//79 131//79 143//79 142//79
f 145//80 146//80 148//80 147//80
f 152//81 151//81 155//81 156//81
f 151//82 152//82 150//82 149//82
f 167//83 168//83 146//83 145//83
f 165//84 151//84 149//84 167//84
f 166//85 148//85 146//85 168//85
f 156//86 155//86 159//86 160//86
f 165//87 147//87 154//87 169//87
f 166//88 152//88 156//88 170//88
f 147//89 148//89 153//89 154//89
f 172//90 160//90 164//90 174//90
f 169//91 154//91 158//91 171//91
f 170//92 156//92 160//92 172//92
f 154//93 153//93 157//93 158//93
f 163//94 173//94 177//94 180//94
f 158//95 157//95 161//95 162//95
f 160//96 159//96 163//96 164//96
f 171//97 158//97 162//97 173//97
f 159//98 171//98 173//98 163//98
f 162//99 161//99 175//99 176//99
f 153//100 170//100 172//100 157//100
f 155//101 169//101 171//101 159//101
f 157//102 172//102 174//102 161//102
f 148//103 166//103 170//103 153//103
f 151//104 165//104 169//104 155//104
f 152//105 166//105 168//105 150//105
f 147//106 165//106 167//106 145//106
f 149//107 150//107 168//107 167//107
f 179//108 180//108 186//108 185//108
f 175//109 178//109 184//109 181//109
f 164//110 163//110 180//110 179//110
f 173//111 162//111 176//111 177//111
f 161//112 174//112 178//112 175//112
f 174//113 164//113 179//113 178//113
f 186//114 183//114 194//114 193//114
f 182//115 181//115 187//115 188//115
f 177//116 176//116 182//116 183//116
f 180//117 177//117 183//117 186//117
f 178//118 179//118 185//118 184//118
f 176//119 175//119 181//119 182//119
f 190//120 189//120 197//120 198//120
f 181//121 184//121 190//121 187//121
f 183//122 182//122 188//122 189//122
f 184//123 183//123 189//123 190//123
f 193//124 194//124 206//124 205//124
f 184//125 185//125 192//125 191//125
f 185//126 186//126 193//126 192//126
f 183//127 184//127 191//127 194//127
f 198//128 197//128 201//128 202//128
f 189//129 188//129 196//129 197//129
f 187//130 190//130 198//130 195//130
f 188//131 187//131 195//131 196//131
f 200//132 199//132 202//132 201//132
f 197//133 196//133 200//133 201//133
f 195//134 198//134 202//134 199//134
f 196//135 195//135 199//135 200//135
f 206//136 203//136 204//136 205//136
f 191//137 192//137 204//137 203//137
f 194//138 191//138 203//138 206//138
f 192//139 193//139 205//139 204//139
