# Blender v2.91.2 OBJ File: 'camionnete02.blend'
# www.blender.org
mtllib arme_000197.mtl
o Cube.046_Cube.010
v 128.034927 85.247162 -1198.698486
v 55.521133 -116.403351 -1147.143188
v 175.763092 15.997253 -1402.427490
v 103.249283 -185.653259 -1350.872314
v -74.555450 141.109863 -1265.148315
v -147.069244 -60.540588 -1213.592896
v -26.827271 71.860046 -1468.877197
v -99.341095 -129.790497 -1417.322144
v 62.322632 180.590515 -918.203796
v -10.191132 -21.059967 -866.648499
v -212.781464 34.802780 -933.098145
v -140.267700 236.453308 -984.653503
v 32.583588 223.739685 -791.261353
v -39.930222 22.089142 -739.706177
v -242.520599 77.951935 -806.155884
v -170.006821 279.602417 -857.711243
v 15.015015 249.230194 -716.269653
v -34.641830 98.245300 -691.247253
v -237.232239 154.108124 -757.697021
v -187.575363 305.093018 -782.719360
v 72.574982 165.715149 -961.966064
v 0.061203 -35.935303 -910.410767
v -130.015396 221.577942 -1028.415771
v -202.529190 19.927475 -976.860535
v 158.913544 40.444641 -1330.504883
v 86.399750 -161.205902 -1278.949707
v -43.676819 96.307373 -1396.954590
v -116.190567 -105.343109 -1345.399292
v 74.467896 43.928680 -1435.652466
v 1.954117 -157.721893 -1384.097168
v 26.739746 113.178589 -1231.923340
v -45.774063 -88.472015 -1180.368042
v -38.972527 208.521881 -951.428589
v -111.486305 6.871399 -899.873291
v -68.711594 251.671021 -824.486328
v -132.116348 60.148163 -762.334290
v -86.280136 277.161621 -749.494568
v -128.550339 111.500488 -729.658325
v -101.234009 -8.003922 -943.635620
v -28.720200 193.646576 -995.190979
v -14.895447 -133.274506 -1312.174561
v 57.618393 68.376038 -1363.729614
v 125.115555 29.963013 -1419.039917
v 4.873535 -102.437653 -1163.755493
v -60.838745 -7.094299 -883.260925
v -97.964546 50.731033 -751.132446
v -94.398537 102.083374 -718.456543
v 21.927399 179.680847 -978.578430
v 108.265945 54.410339 -1347.117310
v 52.601715 -171.687561 -1367.484741
v 77.387299 99.212830 -1215.310913
v 11.675049 194.556183 -934.816284
v -18.064034 237.705353 -807.873901
v -35.632568 263.195892 -732.882080
v -50.586411 -21.969620 -927.023193
v 35.752121 -147.240204 -1295.562256
v -64.163605 -59.725937 -917.370178
v -114.811195 -45.760208 -933.982605
v 22.174866 -184.996521 -1285.909058
v -28.472626 -171.030792 -1302.521484
v -59.351303 -126.228302 -1170.715088
v -8.703682 -140.193970 -1154.102539
v 215.479614 -26.850250 -1251.352173
v 201.825348 -7.039062 -1193.068726
v 169.760651 -96.206879 -1170.271484
v 183.414764 -116.018066 -1228.555054
v 259.258270 -38.921906 -1236.992920
v 245.604034 -19.110687 -1178.709351
v 213.539276 -108.278473 -1155.912109
v 227.193451 -128.089691 -1214.195679
v 326.253662 -57.395386 -1215.018555
v 312.599396 -37.584137 -1156.734863
v 280.534607 -126.751923 -1133.937622
v 294.188751 -146.563171 -1192.221313
v 369.364349 -69.282867 -1200.878052
v 355.710114 -49.471649 -1142.594604
v 323.645355 -138.639404 -1119.797363
v 337.299530 -158.450592 -1178.080933
v 209.398224 -399.186310 -2036.773560
v 158.750641 -385.220642 -2053.385986
v 231.264313 -183.570068 -2104.941406
v 281.912018 -197.535828 -2088.329102
vn 0.9192 -0.2535 0.3015
vn 0.2165 -0.3142 -0.9243
vn -0.9192 0.2535 -0.3015
vn 0.3290 0.9149 -0.2339
vn -0.3290 -0.9149 0.2339
vn -0.3898 -0.4750 0.7890
vn -0.4072 -0.8816 0.2385
vn -0.3269 0.2294 0.9168
vn -0.9196 0.2534 -0.3001
vn 0.9196 -0.2534 0.3001
vn 0.5608 -0.3886 -0.7311
vn -0.2129 0.1974 0.9569
vn -0.2980 -0.9137 0.2764
vn -0.2613 0.1802 0.9483
vn -0.3425 -0.8922 0.2942
vn -0.2165 0.3142 0.9243
vn 0.1626 0.1891 0.9684
vn 0.2328 -0.9029 0.3614
vn 0.7816 0.6232 -0.0287
usemtl Matériau.011
s off
f 25//1 26//1 4//1 3//1
f 29//2 30//2 8//2 7//2
f 27//3 28//3 6//3 5//3
f 22//1 21//1 9//1 10//1
f 42//4 27//4 5//4 31//4
f 56//5 26//5 2//5 44//5
f 10//1 9//1 13//1 14//1
f 55//5 22//5 10//5 45//5
f 23//3 24//3 11//3 12//3
f 46//6 14//6 18//6 47//6
f 45//7 10//7 14//7 46//7
f 12//3 11//3 15//3 16//3
f 33//4 12//4 16//4 35//4
f 54//8 47//8 18//8 17//8
f 16//9 15//9 19//9 20//9
f 14//10 13//10 17//10 18//10
f 5//3 6//3 24//3 23//3
f 44//5 2//5 22//5 55//5
f 31//4 5//4 23//4 40//4
f 2//1 1//1 21//1 22//1
f 50//5 4//5 26//5 56//5
f 29//4 7//4 27//4 42//4
f 7//3 8//3 28//3 27//3
f 26//11 25//11 63//11 66//11
f 43//4 29//4 42//4 49//4
f 8//5 30//5 41//5 28//5
f 51//4 31//4 40//4 48//4
f 6//5 32//5 39//5 24//5
f 20//12 19//12 38//12 37//12
f 52//4 33//4 35//4 53//4
f 11//13 34//13 36//13 15//13
f 15//6 36//6 38//6 19//6
f 24//5 39//5 34//5 11//5
f 28//5 41//5 32//5 6//5
f 49//4 42//4 31//4 51//4
f 30//3 29//3 81//3 80//3
f 3//2 4//2 50//2 43//2
f 25//4 49//4 51//4 1//4
f 9//4 52//4 53//4 13//4
f 1//4 51//4 48//4 21//4
f 3//4 43//4 49//4 25//4
f 30//5 50//5 56//5 41//5
f 32//3 41//3 60//3 61//3
f 37//14 38//14 47//14 54//14
f 34//15 45//15 46//15 36//15
f 36//6 46//6 47//6 38//6
f 39//5 55//5 45//5 34//5
f 55//16 39//16 58//16 57//16
f 61//5 62//5 57//5 58//5
f 60//5 59//5 62//5 61//5
f 39//3 32//3 61//3 58//3
f 44//1 55//1 57//1 62//1
f 41//2 56//2 59//2 60//2
f 56//1 44//1 62//1 59//1
f 66//2 63//2 67//2 70//2
f 1//17 2//17 65//17 64//17
f 2//18 26//18 66//18 65//18
f 25//19 1//19 64//19 63//19
f 69//5 70//5 74//5 73//5
f 64//16 65//16 69//16 68//16
f 65//5 66//5 70//5 69//5
f 63//4 64//4 68//4 67//4
f 73//5 74//5 78//5 77//5
f 67//4 68//4 72//4 71//4
f 70//2 67//2 71//2 74//2
f 68//16 69//16 73//16 72//16
f 76//1 77//1 78//1 75//1
f 71//4 72//4 76//4 75//4
f 74//2 71//2 75//2 78//2
f 82//2 79//2 80//2 81//2
f 50//5 30//5 80//5 79//5
f 43//1 50//1 79//1 82//1
f 29//4 43//4 82//4 81//4
o Cube.048_Cube.024
v -483.898468 560.150879 142.120972
v -680.787842 429.612518 91.210342
v -373.397705 469.474762 -52.725098
v -570.167847 338.719543 -103.617287
v -591.095154 688.285706 -51.323196
v -692.045776 621.355103 -77.426476
v -534.438354 641.793579 -151.226257
v -634.863586 574.985168 -176.801086
v -412.217896 295.887146 -466.961823
v -293.609070 330.954987 -440.039154
v -318.390808 447.525085 -482.699615
v -436.999542 412.457275 -509.622223
v -337.539093 256.951782 -666.457764
v -250.335327 282.734436 -646.663574
v -268.555328 368.439392 -678.028625
v -355.759186 342.656738 -697.822693
v -289.284424 235.021729 -791.583435
v -225.556946 253.863342 -777.118164
v -238.871948 316.495422 -800.039124
v -302.599396 297.653809 -814.504456
v -418.713531 571.318665 -103.086922
v -626.805786 433.443268 -155.995789
v -536.113647 667.666992 103.719498
v -745.135742 529.084473 49.671677
v -300.726562 388.786102 -465.673004
v -426.644440 351.557312 -494.254669
v -251.303131 321.210480 -679.034607
v -343.880798 293.838989 -700.048462
v -222.394257 278.312958 -813.046021
v -290.048798 258.310211 -828.402710
v -261.384613 205.974487 -876.661926
v -197.657227 224.816101 -862.196655
v -192.781586 251.870758 -909.063477
v -260.436096 231.868011 -924.419983
v -273.250031 270.811188 -908.840515
v -209.522766 289.652771 -894.375183
v -241.594055 186.328674 -938.260681
v -177.866638 205.170288 -923.795471
v -172.991089 232.224915 -970.662048
v -240.645660 212.222229 -986.018860
v -253.459442 251.165405 -970.439148
v -189.732025 270.006958 -955.973938
v -213.351074 155.132629 -965.079651
v -172.332581 167.260132 -955.768982
v -169.194397 184.673950 -985.935120
v -212.740601 171.799133 -995.819397
v -235.598572 234.263977 -1036.963745
v -248.412628 273.207153 -1021.384216
v -184.685181 292.048767 -1006.919006
v -167.944092 254.266663 -1021.607117
v -195.094666 132.851562 -982.956970
v -167.441162 141.027588 -976.679871
v -165.325500 152.767517 -997.017029
v -194.683136 144.087646 -1003.680725
v -178.929993 118.939026 -1010.062683
v -161.643494 124.049927 -1006.138855
v -160.320984 131.388672 -1018.851990
v -178.672668 125.962830 -1023.017639
v -224.020111 255.918488 -1059.303589
v -232.540405 281.812256 -1048.944458
v -190.167175 294.340240 -1039.326294
v -179.035828 269.218414 -1049.092651
v -316.743011 420.179810 487.811615
v -372.859528 241.751801 334.801971
v -154.144958 506.930359 326.367004
v -216.292297 330.708191 173.646667
v -467.584106 534.938110 316.324615
v -496.356567 443.453156 237.872284
v -376.103973 582.508728 234.031006
v -416.080200 489.063538 155.243454
v -161.207397 396.619598 -94.562889
v -81.600220 318.122742 -38.953514
v 15.027161 378.352631 -89.425591
v -61.655701 456.264954 -145.105316
v -150.348572 267.217987 -267.851196
v -93.128601 205.916656 -227.489197
v -19.935913 249.769257 -264.649109
v -77.155945 311.070618 -305.011169
v -140.696045 185.838440 -376.248932
v -98.880432 141.040344 -346.752869
v -45.392395 173.087280 -373.908752
v -87.207825 217.885437 -403.404816
v -238.281433 573.618408 295.873199
v -317.576904 386.728760 133.706650
v -424.217712 481.713806 467.231476
v -483.792358 292.290558 304.792816
v -31.535156 337.212250 -67.765785
v -114.157776 425.728210 -126.046379
v -55.875427 214.890625 -260.060547
v -116.621460 279.969574 -302.909760
v -72.441101 139.749756 -381.363373
v -116.833496 187.308594 -412.676971
v -148.996094 128.994202 -450.816559
v -107.180603 84.196167 -421.320404
v -76.794312 79.858398 -466.154327
v -121.186584 127.417297 -497.468109
v -92.167786 158.462341 -486.624542
v -50.352173 113.664124 -457.128448
v -153.910217 88.768799 -504.944122
v -112.094727 43.970459 -475.448029
v -81.708252 39.632751 -520.282227
v -126.100769 87.191589 -551.595642
v -97.081848 118.236877 -540.752075
v -55.266235 73.438599 -511.255951
v -168.717834 44.666138 -522.994446
v -141.803040 15.831421 -504.009125
v -122.244751 13.039490 -532.866699
v -150.818176 43.651123 -553.021912
v -99.881836 79.661499 -600.202087
v -70.862976 110.706665 -589.358459
v -29.047302 65.908386 -559.862488
v -55.489380 32.102661 -568.888489
v -180.172668 15.156250 -535.130676
v -162.027466 -4.283264 -522.331299
v -148.841919 -6.165710 -541.786560
v -168.105164 14.471802 -555.374451
v -184.111145 -11.271118 -556.940613
v -172.768433 -23.422913 -548.939453
v -164.525940 -24.599548 -561.101013
v -176.567627 -11.698853 -569.595032
v -73.671814 73.068848 -619.479492
v -54.376831 93.711182 -612.269348
v -26.573120 63.924377 -592.657043
v -44.154846 41.446411 -598.658508
vn 0.3567 -0.7529 0.5532
vn -0.2311 0.7898 -0.5682
vn -0.3571 0.7518 -0.5543
vn -0.3463 0.1619 0.9241
vn 0.5428 0.8359 -0.0813
vn -0.7926 -0.5819 -0.1821
vn -0.1727 0.8969 -0.4072
vn 0.9314 0.3512 0.0953
vn -0.8735 -0.1615 -0.4593
vn 0.3749 -0.8670 0.3282
vn -0.9209 -0.1932 -0.3386
vn 0.9698 0.1804 0.1643
vn -0.9233 -0.2244 -0.3117
vn 0.2176 -0.9394 0.2648
vn 0.9229 0.3334 0.1925
vn 0.2217 -0.9423 0.2507
vn -0.1682 0.8916 -0.4205
vn 0.9771 0.1400 0.1604
vn 0.9315 0.3544 0.0819
vn 0.1848 -0.9100 0.3713
vn -0.8923 -0.3702 -0.2584
vn 0.9388 0.3261 0.1110
vn -0.8753 -0.4077 -0.2601
vn -0.7874 -0.5346 -0.3069
vn 0.7061 0.7068 -0.0439
vn -0.8834 -0.1169 -0.4538
vn 0.8352 0.4927 0.2445
vn -0.5798 0.7551 0.3060
vn -0.1906 0.9159 -0.3533
vn -0.9259 -0.3241 -0.1941
vn -0.1995 0.9244 -0.3251
vn 0.9465 0.2248 0.2317
vn -0.9246 -0.3284 -0.1930
vn -0.9476 -0.2196 -0.2320
vn 0.9198 0.3186 0.2290
vn 0.0164 -0.6432 0.7655
vn 0.9456 0.2292 0.2307
vn 0.9229 0.3352 0.1896
vn -0.9473 -0.2177 -0.2349
vn 0.1906 -0.9159 0.3533
vn 0.1121 0.3381 -0.9344
vn -0.8197 -0.4966 -0.2855
vn 0.9913 0.0388 0.1255
vn 0.1215 0.3123 -0.9422
vn 0.8897 0.4406 -0.1193
vn -0.9521 -0.2349 -0.1959
vn -0.3373 0.8757 0.3455
vn 0.3373 -0.8757 -0.3455
vn -0.0494 0.7080 -0.7045
vn 0.9872 0.0700 0.1431
vn -0.8398 -0.4702 -0.2716
vn 0.0064 -0.6226 0.7825
vn 0.3451 -0.8279 -0.4420
vn 0.9858 0.0793 0.1483
vn -0.8457 -0.4619 -0.2672
vn 0.1337 -0.8470 0.5145
vn 0.0906 0.3955 -0.9140
vn -0.8538 -0.0749 -0.5151
vn 0.3492 -0.7568 -0.5526
vn -0.3062 0.9446 0.1186
vn 0.7154 -0.5775 0.3932
vn 0.1240 0.9677 -0.2194
vn -0.7007 0.5951 -0.3935
vn -0.4321 -0.5049 0.7472
vn -0.1220 0.9200 0.3725
vn -0.1872 -0.7717 -0.6078
vn 0.7762 0.4259 -0.4648
vn 0.9001 0.4247 0.0971
vn -0.6890 -0.2257 -0.6887
vn 0.2892 -0.9272 0.2381
vn -0.5219 0.6489 -0.5537
vn 0.5270 -0.7449 0.4091
vn -0.5534 0.6446 -0.5274
vn -0.7782 -0.5216 0.3497
vn 0.6621 -0.6279 0.4092
vn -0.7885 -0.5235 0.3228
vn 0.7777 0.4149 -0.4724
vn 0.5105 -0.7629 0.3967
vn 0.6936 -0.6532 0.3037
vn -0.7837 -0.4488 0.4294
vn -0.6779 0.5701 -0.4642
vn 0.6946 -0.6414 0.3258
vn -0.7050 0.5392 -0.4607
vn -0.5654 -0.7110 -0.4181
vn 0.5326 0.8429 -0.0770
vn -0.5526 -0.3754 -0.7441
vn 0.2835 0.6892 0.6668
vn -0.9551 0.0499 0.2921
vn 0.7853 0.4607 -0.4136
vn -0.6547 0.6340 -0.4117
vn 0.7872 0.4788 -0.3888
vn 0.5695 -0.6840 0.4558
vn -0.6582 0.6313 -0.4102
vn -0.5653 0.6870 -0.4566
vn 0.6444 -0.6226 0.4440
vn -0.6407 -0.0966 0.7617
vn 0.5733 -0.6817 0.4545
vn 0.6639 -0.6278 0.4063
vn -0.5632 0.6869 -0.4593
vn -0.7853 -0.4607 0.4136
vn 0.4286 -0.1826 -0.8849
vn -0.7614 0.4476 -0.4690
vn 0.4269 -0.8255 0.3692
vn 0.4095 -0.2033 -0.8894
vn 0.7714 -0.6291 0.0963
vn -0.5839 0.6933 -0.4224
vn 0.6330 0.7402 0.2268
vn -0.6330 -0.7402 -0.2268
vn 0.6814 0.1669 -0.7126
vn 0.4522 -0.8048 0.3844
vn -0.7466 0.4795 -0.4612
vn -0.6274 -0.0752 0.7751
vn -0.5786 -0.7504 -0.3195
vn 0.4597 -0.7985 0.3888
vn -0.7418 0.4891 -0.4587
vn -0.7586 -0.3437 0.5535
vn 0.4704 -0.1351 -0.8721
vn -0.3727 0.5966 -0.7107
vn -0.5032 -0.7511 -0.4273
vn 0.7266 0.6869 0.0133
usemtl Matériau.012
s off
f 83//20 84//20 86//20 85//20
f 90//21 89//21 93//21 94//21
f 89//22 90//22 88//22 87//22
f 105//23 106//23 84//23 83//23
f 103//24 89//24 87//24 105//24
f 104//25 86//25 84//25 106//25
f 94//26 93//26 97//26 98//26
f 103//27 85//27 92//27 107//27
f 104//28 90//28 94//28 108//28
f 85//29 86//29 91//29 92//29
f 110//30 98//30 102//30 112//30
f 107//31 92//31 96//31 109//31
f 108//32 94//32 98//32 110//32
f 92//33 91//33 95//33 96//33
f 101//34 111//34 115//34 118//34
f 96//35 95//35 99//35 100//35
f 98//36 97//36 101//36 102//36
f 109//37 96//37 100//37 111//37
f 97//38 109//38 111//38 101//38
f 100//39 99//39 113//39 114//39
f 91//40 108//40 110//40 95//40
f 93//41 107//41 109//41 97//41
f 95//42 110//42 112//42 99//42
f 86//43 104//43 108//43 91//43
f 89//44 103//44 107//44 93//44
f 90//45 104//45 106//45 88//45
f 85//46 103//46 105//46 83//46
f 87//47 88//47 106//47 105//47
f 117//48 118//48 124//48 123//48
f 113//49 116//49 122//49 119//49
f 102//50 101//50 118//50 117//50
f 111//51 100//51 114//51 115//51
f 99//52 112//52 116//52 113//52
f 112//53 102//53 117//53 116//53
f 124//54 121//54 132//54 131//54
f 120//55 119//55 125//55 126//55
f 115//56 114//56 120//56 121//56
f 118//57 115//57 121//57 124//57
f 116//58 117//58 123//58 122//58
f 114//59 113//59 119//59 120//59
f 128//60 127//60 135//60 136//60
f 119//61 122//61 128//61 125//61
f 121//62 120//62 126//62 127//62
f 122//63 121//63 127//63 128//63
f 131//64 132//64 144//64 143//64
f 122//65 123//65 130//65 129//65
f 123//66 124//66 131//66 130//66
f 121//67 122//67 129//67 132//67
f 136//68 135//68 139//68 140//68
f 127//69 126//69 134//69 135//69
f 125//70 128//70 136//70 133//70
f 126//71 125//71 133//71 134//71
f 138//72 137//72 140//72 139//72
f 135//73 134//73 138//73 139//73
f 133//74 136//74 140//74 137//74
f 134//75 133//75 137//75 138//75
f 144//76 141//76 142//76 143//76
f 129//77 130//77 142//77 141//77
f 132//78 129//78 141//78 144//78
f 130//79 131//79 143//79 142//79
f 145//80 146//80 148//80 147//80
f 152//81 151//81 155//81 156//81
f 151//82 152//82 150//82 149//82
f 167//83 168//83 146//83 145//83
f 165//84 151//84 149//84 167//84
f 166//85 148//85 146//85 168//85
f 156//86 155//86 159//86 160//86
f 165//87 147//87 154//87 169//87
f 166//88 152//88 156//88 170//88
f 147//89 148//89 153//89 154//89
f 172//90 160//90 164//90 174//90
f 169//91 154//91 158//91 171//91
f 170//92 156//92 160//92 172//92
f 154//93 153//93 157//93 158//93
f 163//94 173//94 177//94 180//94
f 158//95 157//95 161//95 162//95
f 160//96 159//96 163//96 164//96
f 171//97 158//97 162//97 173//97
f 159//98 171//98 173//98 163//98
f 162//99 161//99 175//99 176//99
f 153//100 170//100 172//100 157//100
f 155//101 169//101 171//101 159//101
f 157//102 172//102 174//102 161//102
f 148//103 166//103 170//103 153//103
f 151//104 165//104 169//104 155//104
f 152//105 166//105 168//105 150//105
f 147//106 165//106 167//106 145//106
f 149//107 150//107 168//107 167//107
f 179//108 180//108 186//108 185//108
f 175//109 178//109 184//109 181//109
f 164//110 163//110 180//110 179//110
f 173//111 162//111 176//111 177//111
f 161//112 174//112 178//112 175//112
f 174//113 164//113 179//113 178//113
f 186//114 183//114 194//114 193//114
f 182//115 181//115 187//115 188//115
f 177//116 176//116 182//116 183//116
f 180//117 177//117 183//117 186//117
f 178//118 179//118 185//118 184//118
f 176//119 175//119 181//119 182//119
f 190//120 189//120 197//120 198//120
f 181//121 184//121 190//121 187//121
f 183//122 182//122 188//122 189//122
f 184//123 183//123 189//123 190//123
f 193//124 194//124 206//124 205//124
f 184//125 185//125 192//125 191//125
f 185//126 186//126 193//126 192//126
f 183//127 184//127 191//127 194//127
f 198//128 197//128 201//128 202//128
f 189//129 188//129 196//129 197//129
f 187//130 190//130 198//130 195//130
f 188//131 187//131 195//131 196//131
f 200//132 199//132 202//132 201//132
f 197//133 196//133 200//133 201//133
f 195//134 198//134 202//134 199//134
f 196//135 195//135 199//135 200//135
f 206//136 203//136 204//136 205//136
f 191//137 192//137 204//137 203//137
f 194//138 191//138 203//138 206//138
f 192//139 193//139 205//139 204//139
