# Blender v2.91.2 OBJ File: 'camionnete02.blend'
# www.blender.org
mtllib arme_000249.mtl
o Cube.046_Cube.010
v 655.438477 601.317688 -523.378479
v 626.329651 440.688110 -671.466125
v 852.142212 647.062622 -611.662842
v 823.033447 486.433167 -759.750549
v 560.362610 745.139282 -660.692139
v 531.253784 584.509644 -808.779785
v 757.066284 790.884277 -748.976440
v 727.957642 630.254761 -897.064148
v 384.616394 538.335754 -401.828430
v 355.507568 377.706238 -549.916016
v 260.431641 521.527771 -687.229614
v 289.540527 682.157349 -539.141968
v 262.051514 509.832275 -346.818939
v 232.942719 349.202759 -494.906616
v 137.866821 493.024292 -632.220276
v 166.975647 653.653931 -484.132660
v 189.645691 492.993774 -314.321899
v 180.642639 378.853394 -427.367493
v 85.566772 522.675049 -564.681152
v 94.569824 636.815308 -451.635498
v 426.869568 548.161987 -420.792450
v 397.760742 387.532593 -568.880127
v 331.793701 691.983643 -558.106079
v 302.684875 531.354126 -706.193726
v 782.699707 630.913269 -580.495728
v 753.590942 470.283752 -728.583496
v 687.623840 774.734863 -717.809326
v 658.515015 614.105225 -865.896973
v 804.604370 718.973511 -680.319641
v 775.495483 558.343994 -828.407349
v 607.900574 673.228455 -592.035278
v 578.791748 512.598877 -740.122925
v 337.078369 610.246460 -470.485199
v 307.969543 449.616943 -618.572754
v 214.513580 581.743103 -415.475800
v 180.758545 420.086853 -546.974487
v 142.107819 564.904541 -382.978729
v 145.492493 440.080444 -501.432617
v 350.222778 459.443298 -637.536865
v 379.331665 620.072876 -489.449310
v 706.052979 542.194580 -797.240234
v 735.161743 702.824097 -649.152527
v 828.373169 683.018066 -645.991211
v 602.560669 476.643433 -705.794434
v 331.738525 413.661621 -584.244446
v 196.785980 395.842041 -523.826782
v 161.519928 415.835571 -478.284851
v 403.100586 584.117432 -455.120850
v 758.930786 666.868713 -614.824097
v 799.264526 522.388550 -794.078979
v 631.669556 637.273071 -557.706909
v 360.847412 574.291138 -436.156891
v 238.282532 545.787720 -381.147400
v 165.876770 528.949097 -348.650330
v 373.991760 423.487915 -603.208496
v 729.821960 506.239197 -762.911865
v 368.541565 393.412231 -630.935913
v 344.772583 429.367615 -665.264221
v 724.371704 476.163452 -790.639282
v 700.602722 512.118896 -824.967651
v 573.341431 482.523193 -767.850281
v 597.110474 446.567749 -733.521973
v 779.166870 517.229980 -547.982788
v 722.893250 504.143066 -522.726196
v 710.021606 433.114258 -588.208862
v 766.295288 446.201294 -613.465698
v 799.712280 486.151001 -518.310120
v 743.438721 473.064026 -493.053375
v 730.567078 402.035278 -558.536194
v 786.840698 415.122192 -583.792969
v 831.153442 438.590149 -472.901398
v 774.879761 425.503174 -447.644653
v 762.008057 354.474487 -513.127441
v 818.281860 367.561462 -538.384277
v 851.385376 407.985352 -443.681488
v 795.111694 394.898438 -418.424805
v 782.240112 323.869629 -483.907501
v 838.513672 336.956604 -509.164276
v 1445.473877 672.669678 -1084.109497
v 1421.704956 708.625122 -1118.437866
v 1450.813721 869.254761 -970.350220
v 1474.582642 833.299438 -936.021851
vn 0.4314 -0.6525 0.6230
vn 0.8925 0.2075 -0.4006
vn -0.4314 0.6525 -0.6230
vn 0.1321 0.7288 0.6719
vn -0.1321 -0.7288 -0.6719
vn -0.6917 -0.6826 -0.2360
vn -0.1939 -0.6812 -0.7059
vn -0.9341 -0.2336 0.2701
vn -0.4326 0.6519 -0.6228
vn 0.4326 -0.6519 0.6228
vn 0.9902 -0.0660 -0.1231
vn -0.8824 -0.3165 0.3481
vn -0.1436 -0.7614 -0.6322
vn -0.9022 -0.3096 0.3004
vn -0.1905 -0.7409 -0.6441
vn -0.8925 -0.2075 0.4006
vn -0.6507 -0.4476 0.6134
vn 0.1279 -0.9679 -0.2166
vn 0.3482 0.2477 0.9041
vn -0.8925 -0.2076 0.4006
vn 0.8925 0.2076 -0.4006
usemtl Matériau.011
s off
f 25//1 26//1 4//1 3//1
f 29//2 30//2 8//2 7//2
f 27//3 28//3 6//3 5//3
f 22//1 21//1 9//1 10//1
f 42//4 27//4 5//4 31//4
f 56//5 26//5 2//5 44//5
f 10//1 9//1 13//1 14//1
f 55//5 22//5 10//5 45//5
f 23//3 24//3 11//3 12//3
f 46//6 14//6 18//6 47//6
f 45//7 10//7 14//7 46//7
f 12//3 11//3 15//3 16//3
f 33//4 12//4 16//4 35//4
f 54//8 47//8 18//8 17//8
f 16//9 15//9 19//9 20//9
f 14//10 13//10 17//10 18//10
f 5//3 6//3 24//3 23//3
f 44//5 2//5 22//5 55//5
f 31//4 5//4 23//4 40//4
f 2//1 1//1 21//1 22//1
f 50//5 4//5 26//5 56//5
f 29//4 7//4 27//4 42//4
f 7//3 8//3 28//3 27//3
f 26//11 25//11 63//11 66//11
f 43//4 29//4 42//4 49//4
f 8//5 30//5 41//5 28//5
f 51//4 31//4 40//4 48//4
f 6//5 32//5 39//5 24//5
f 20//12 19//12 38//12 37//12
f 52//4 33//4 35//4 53//4
f 11//13 34//13 36//13 15//13
f 15//6 36//6 38//6 19//6
f 24//5 39//5 34//5 11//5
f 28//5 41//5 32//5 6//5
f 49//4 42//4 31//4 51//4
f 30//3 29//3 81//3 80//3
f 3//2 4//2 50//2 43//2
f 25//4 49//4 51//4 1//4
f 9//4 52//4 53//4 13//4
f 1//4 51//4 48//4 21//4
f 3//4 43//4 49//4 25//4
f 30//5 50//5 56//5 41//5
f 32//3 41//3 60//3 61//3
f 37//14 38//14 47//14 54//14
f 34//15 45//15 46//15 36//15
f 36//6 46//6 47//6 38//6
f 39//5 55//5 45//5 34//5
f 55//16 39//16 58//16 57//16
f 61//5 62//5 57//5 58//5
f 60//5 59//5 62//5 61//5
f 39//3 32//3 61//3 58//3
f 44//1 55//1 57//1 62//1
f 41//2 56//2 59//2 60//2
f 56//1 44//1 62//1 59//1
f 66//2 63//2 67//2 70//2
f 1//17 2//17 65//17 64//17
f 2//18 26//18 66//18 65//18
f 25//19 1//19 64//19 63//19
f 69//5 70//5 74//5 73//5
f 64//20 65//20 69//20 68//20
f 65//5 66//5 70//5 69//5
f 63//4 64//4 68//4 67//4
f 73//5 74//5 78//5 77//5
f 67//4 68//4 72//4 71//4
f 70//21 67//21 71//21 74//21
f 68//16 69//16 73//16 72//16
f 76//1 77//1 78//1 75//1
f 71//4 72//4 76//4 75//4
f 74//2 71//2 75//2 78//2
f 82//2 79//2 80//2 81//2
f 50//5 30//5 80//5 79//5
f 43//1 50//1 79//1 82//1
f 29//4 43//4 82//4 81//4
o Cube.048_Cube.024
v -491.850830 554.478394 147.216522
v -640.448364 377.163330 77.390556
v -373.781433 538.318359 -63.012024
v -527.399292 362.513275 -144.877808
v -648.874451 670.729309 -17.585320
v -725.064514 579.814880 -53.387024
v -588.336914 662.443665 -125.375389
v -664.935425 571.829712 -162.371002
v -274.367065 524.010254 -489.220734
v -228.232758 498.484680 -374.143829
v -244.309143 619.544312 -340.846130
v -290.443390 645.069946 -455.923004
v -71.822021 582.147095 -539.092163
v -37.903137 563.380005 -454.485016
v -49.722839 652.385864 -430.003845
v -83.641785 671.152893 -514.611023
v 55.442505 620.075073 -567.920227
v 80.230042 606.360413 -506.090363
v 71.592285 671.404663 -488.199799
v 46.804749 685.119385 -550.029602
v -453.186005 626.435730 -93.288017
v -613.673706 441.500305 -176.972107
v -578.313721 643.859924 130.014038
v -736.068359 455.618103 55.885201
v -229.686340 559.410828 -355.756744
v -278.663574 586.509399 -477.925079
v -25.368408 611.290710 -445.728912
v -61.377625 631.214172 -535.549866
v 101.733459 644.200684 -504.012665
v 75.418518 658.760437 -569.652649
v 142.667114 636.569763 -599.229797
v 167.454773 622.855103 -537.400085
v 197.281311 668.268921 -536.979004
v 170.966370 682.828735 -602.619019
v 141.073181 708.023560 -582.741333
v 165.860840 694.308838 -520.911743
v 205.188171 649.703552 -621.381226
v 229.975647 635.988953 -559.551331
v 259.802185 681.402710 -559.130432
v 233.487244 695.962646 -624.770447
v 203.594177 721.157288 -604.892761
v 228.381714 707.442627 -543.062927
v 250.924988 631.872437 -630.343323
v 266.879456 623.044922 -590.546204
v 286.077576 652.275696 -590.275208
v 269.139771 661.647278 -632.524719
v 267.730286 739.757751 -628.783997
v 237.837158 764.952515 -608.906433
v 262.624695 751.237793 -547.076660
v 294.045105 725.197937 -563.144104
v 281.451233 619.026306 -637.586243
v 292.207336 613.075012 -610.756042
v 305.150146 632.781616 -610.573425
v 293.731140 639.099609 -639.056885
v 315.100525 618.416565 -645.131775
v 321.824280 614.696350 -628.359924
v 329.915100 627.015137 -628.245789
v 322.776917 630.964600 -646.051147
v 285.452454 765.206421 -616.937805
v 265.576111 781.958740 -603.721008
v 282.057556 772.839661 -562.609436
v 302.949524 755.525391 -573.293030
v -308.070465 457.892792 464.277618
v -445.358185 291.231964 355.770416
v -123.448669 343.686951 362.102448
v -247.491486 189.994751 260.916046
v -313.271667 535.356262 220.756226
v -383.662903 449.904541 165.121567
v -210.331970 477.465973 178.681534
v -282.211151 397.997375 116.487007
v 36.893250 106.983582 2.149963
v -13.589661 3.159424 46.304718
v 73.035522 -2.947876 134.026566
v 124.872253 99.330261 92.834801
v 166.976440 -23.457825 -111.669563
v 127.819885 -101.838562 -80.296257
v 192.504089 -107.465515 -13.622604
v 231.660767 -29.084778 -44.996094
v 248.959656 -106.945740 -180.766754
v 220.344421 -164.225281 -157.839508
v 267.614746 -168.337402 -109.115364
v 296.230042 -111.057922 -132.042572
v -138.251892 421.633179 288.311096
v -276.738617 263.919678 167.793610
v -341.050781 548.326538 383.686981
v -486.798584 371.395447 268.493286
v 29.246460 -9.734497 88.060585
v 85.786621 103.443237 42.759048
v 169.951416 -117.171631 -57.513268
v 211.520813 -33.960815 -90.819923
v 258.934021 -182.598511 -149.362701
v 289.312561 -121.789307 -173.702881
v 301.338806 -157.125427 -240.757782
v 272.723633 -214.404907 -217.830505
v 321.031433 -238.383667 -211.228485
v 351.409973 -177.574402 -235.568634
v 356.833557 -165.981201 -193.620361
v 328.218567 -223.260681 -170.693054
v 339.914490 -193.271729 -282.917053
v 311.299255 -250.551270 -259.989746
v 359.607239 -274.530029 -253.387939
v 389.985535 -213.720703 -277.727875
v 395.409241 -202.127502 -235.779572
v 366.794006 -259.407104 -212.852356
v 341.375793 -224.088501 -322.138336
v 322.957581 -260.956909 -307.381073
v 354.051331 -276.390747 -303.131805
v 373.604431 -237.250549 -318.798431
v 439.909241 -238.503235 -277.333618
v 445.332947 -226.910034 -235.385315
v 416.717957 -284.189819 -212.457977
v 409.531067 -299.312622 -252.993683
v 342.015686 -243.888000 -349.650085
v 329.598572 -268.743652 -339.701233
v 350.561218 -279.148865 -336.836639
v 363.743469 -252.761536 -347.398621
v 354.378113 -265.996399 -373.059357
v 346.615784 -281.533936 -366.839966
v 359.719666 -288.038208 -365.049164
v 367.960144 -271.543274 -371.651550
v 462.774231 -259.805786 -266.133453
v 466.380310 -252.097412 -238.241455
v 447.353699 -290.183228 -222.996613
v 442.574890 -300.238647 -249.949402
vn 0.6165 -0.6903 0.3786
vn -0.2085 0.9487 -0.2378
vn -0.6185 0.6791 -0.3953
vn -0.3068 -0.1149 0.9448
vn 0.2427 0.9682 0.0609
vn -0.5884 -0.7670 -0.2559
vn -0.0550 0.9699 0.2372
vn 0.7838 0.4586 0.4188
vn -0.6301 -0.0603 -0.7741
vn 0.4994 -0.8541 0.1452
vn -0.2854 0.3312 -0.8994
vn 0.4463 -0.2591 0.8566
vn -0.2981 0.2930 -0.9085
vn 0.1982 -0.9371 -0.2873
vn 0.3550 -0.1427 0.9239
vn 0.2119 -0.9327 -0.2918
vn -0.0411 0.9718 0.2320
vn 0.4647 -0.2901 0.8366
vn 0.4351 -0.0674 0.8979
vn 0.0922 -0.9637 -0.2507
vn -0.2780 0.1417 -0.9501
vn 0.4262 -0.1077 0.8982
vn -0.2558 0.1085 -0.9606
vn -0.5424 -0.4513 -0.7086
vn 0.4701 0.7993 0.3744
vn -0.8504 -0.2963 -0.4349
vn 0.6512 0.6919 0.3117
vn -0.7639 0.4631 0.4495
vn -0.1105 0.9600 0.2573
vn -0.3583 0.1517 -0.9212
vn -0.1390 0.9536 0.2672
vn 0.3707 -0.2554 0.8930
vn -0.3571 0.1473 -0.9224
vn -0.3726 0.2598 -0.8909
vn 0.3306 -0.1735 0.9277
vn -0.3722 -0.9264 -0.0563
vn 0.3697 -0.2511 0.8946
vn 0.3566 -0.1397 0.9237
vn -0.3708 0.2628 -0.8907
vn 0.1105 -0.9600 -0.2573
vn 0.6582 0.7464 -0.0983
vn -0.1782 0.0370 -0.9833
vn 0.5262 -0.3527 0.7738
vn 0.6768 0.7280 -0.1098
vn 0.5315 0.1243 0.8379
vn -0.3975 0.2294 -0.8885
vn -0.6998 0.5848 0.4103
vn 0.6998 -0.5848 -0.4103
vn 0.2896 0.9524 0.0951
vn 0.5024 -0.3374 0.7961
vn -0.2082 0.0558 -0.9765
vn -0.3964 -0.9170 -0.0445
vn 0.7620 -0.4966 -0.4156
vn 0.4952 -0.3327 0.8025
vn -0.2173 0.0616 -0.9742
vn -0.0610 -0.9793 -0.1928
vn 0.6144 0.7857 -0.0720
vn -0.1467 0.4996 -0.8538
vn 0.8257 -0.3815 -0.4156
vn -0.5339 0.7546 0.3814
vn 0.0805 -0.5910 0.8026
vn 0.7484 0.6632 0.0012
vn -0.0328 0.5996 -0.7996
vn -0.7675 0.2472 0.5915
vn 0.5316 0.8457 0.0466
vn -0.5620 -0.7247 -0.3988
vn 0.7370 -0.1029 0.6680
vn 0.8241 -0.0789 0.5609
vn -0.1697 0.0346 -0.9849
vn -0.2824 -0.8544 0.4361
vn 0.5534 0.7734 -0.3091
vn -0.4492 -0.8679 0.2118
vn 0.5199 0.7890 -0.3274
vn -0.6575 0.0112 -0.7534
vn -0.3779 -0.8438 0.3811
vn -0.6381 0.0106 -0.7699
vn 0.7460 -0.1098 0.6568
vn -0.4402 -0.8775 0.1905
vn -0.2783 -0.8916 0.3573
vn -0.7165 0.0806 -0.6929
vn 0.4099 0.7986 -0.4407
vn -0.2917 -0.8792 0.3767
vn 0.3916 0.7875 -0.4760
vn -0.5736 -0.3809 -0.7252
vn 0.8992 0.4366 0.0299
vn -0.5378 -0.3204 -0.7799
vn 0.6265 0.6158 0.4777
vn -0.7012 0.6913 -0.1746
vn 0.7053 -0.0700 0.7054
vn 0.3837 0.8447 -0.3732
vn 0.6874 -0.0535 0.7243
vn -0.4595 -0.8373 0.2964
vn 0.3807 0.8445 -0.3768
vn 0.4620 0.8375 -0.2918
vn -0.4134 -0.8267 0.3817
vn -0.8970 0.3307 -0.2933
vn -0.4567 -0.8375 0.3001
vn -0.3746 -0.8450 0.3817
vn 0.4651 0.8360 -0.2912
vn -0.7053 0.0700 -0.7054
vn 0.8845 -0.4634 -0.0537
vn 0.3610 0.7398 -0.5678
vn -0.4522 -0.8880 0.0837
vn 0.8784 -0.4710 -0.0805
vn -0.0591 -0.9318 0.3581
vn 0.4271 0.8558 -0.2917
vn 0.1439 0.3049 0.9414
vn -0.1439 -0.3049 -0.9414
vn 0.8801 -0.2889 0.3767
vn -0.4545 -0.8827 0.1193
vn 0.3659 0.7594 -0.5380
vn -0.9005 0.3427 -0.2676
vn -0.0465 -0.3511 -0.9352
vn -0.4550 -0.8810 0.1299
vn 0.3673 0.7652 -0.5287
vn -0.7980 0.1669 -0.5791
vn 0.8957 -0.4446 0.0071
vn 0.7238 0.6354 -0.2692
vn 0.0728 -0.4018 -0.9128
vn 0.3525 0.1906 0.9162
usemtl Matériau.012
s off
f 83//22 84//22 86//22 85//22
f 90//23 89//23 93//23 94//23
f 89//24 90//24 88//24 87//24
f 105//25 106//25 84//25 83//25
f 103//26 89//26 87//26 105//26
f 104//27 86//27 84//27 106//27
f 94//28 93//28 97//28 98//28
f 103//29 85//29 92//29 107//29
f 104//30 90//30 94//30 108//30
f 85//31 86//31 91//31 92//31
f 110//32 98//32 102//32 112//32
f 107//33 92//33 96//33 109//33
f 108//34 94//34 98//34 110//34
f 92//35 91//35 95//35 96//35
f 101//36 111//36 115//36 118//36
f 96//37 95//37 99//37 100//37
f 98//38 97//38 101//38 102//38
f 109//39 96//39 100//39 111//39
f 97//40 109//40 111//40 101//40
f 100//41 99//41 113//41 114//41
f 91//42 108//42 110//42 95//42
f 93//43 107//43 109//43 97//43
f 95//44 110//44 112//44 99//44
f 86//45 104//45 108//45 91//45
f 89//46 103//46 107//46 93//46
f 90//47 104//47 106//47 88//47
f 85//48 103//48 105//48 83//48
f 87//49 88//49 106//49 105//49
f 117//50 118//50 124//50 123//50
f 113//51 116//51 122//51 119//51
f 102//52 101//52 118//52 117//52
f 111//53 100//53 114//53 115//53
f 99//54 112//54 116//54 113//54
f 112//55 102//55 117//55 116//55
f 124//56 121//56 132//56 131//56
f 120//57 119//57 125//57 126//57
f 115//58 114//58 120//58 121//58
f 118//59 115//59 121//59 124//59
f 116//60 117//60 123//60 122//60
f 114//61 113//61 119//61 120//61
f 128//62 127//62 135//62 136//62
f 119//63 122//63 128//63 125//63
f 121//64 120//64 126//64 127//64
f 122//65 121//65 127//65 128//65
f 131//66 132//66 144//66 143//66
f 122//67 123//67 130//67 129//67
f 123//68 124//68 131//68 130//68
f 121//69 122//69 129//69 132//69
f 136//70 135//70 139//70 140//70
f 127//71 126//71 134//71 135//71
f 125//72 128//72 136//72 133//72
f 126//73 125//73 133//73 134//73
f 138//74 137//74 140//74 139//74
f 135//75 134//75 138//75 139//75
f 133//76 136//76 140//76 137//76
f 134//77 133//77 137//77 138//77
f 144//78 141//78 142//78 143//78
f 129//79 130//79 142//79 141//79
f 132//80 129//80 141//80 144//80
f 130//81 131//81 143//81 142//81
f 145//82 146//82 148//82 147//82
f 152//83 151//83 155//83 156//83
f 151//84 152//84 150//84 149//84
f 167//85 168//85 146//85 145//85
f 165//86 151//86 149//86 167//86
f 166//87 148//87 146//87 168//87
f 156//88 155//88 159//88 160//88
f 165//89 147//89 154//89 169//89
f 166//90 152//90 156//90 170//90
f 147//91 148//91 153//91 154//91
f 172//92 160//92 164//92 174//92
f 169//93 154//93 158//93 171//93
f 170//94 156//94 160//94 172//94
f 154//95 153//95 157//95 158//95
f 163//96 173//96 177//96 180//96
f 158//97 157//97 161//97 162//97
f 160//98 159//98 163//98 164//98
f 171//99 158//99 162//99 173//99
f 159//100 171//100 173//100 163//100
f 162//101 161//101 175//101 176//101
f 153//102 170//102 172//102 157//102
f 155//103 169//103 171//103 159//103
f 157//104 172//104 174//104 161//104
f 148//105 166//105 170//105 153//105
f 151//106 165//106 169//106 155//106
f 152//107 166//107 168//107 150//107
f 147//108 165//108 167//108 145//108
f 149//109 150//109 168//109 167//109
f 179//110 180//110 186//110 185//110
f 175//111 178//111 184//111 181//111
f 164//112 163//112 180//112 179//112
f 173//113 162//113 176//113 177//113
f 161//114 174//114 178//114 175//114
f 174//115 164//115 179//115 178//115
f 186//116 183//116 194//116 193//116
f 182//117 181//117 187//117 188//117
f 177//118 176//118 182//118 183//118
f 180//119 177//119 183//119 186//119
f 178//120 179//120 185//120 184//120
f 176//121 175//121 181//121 182//121
f 190//122 189//122 197//122 198//122
f 181//123 184//123 190//123 187//123
f 183//124 182//124 188//124 189//124
f 184//125 183//125 189//125 190//125
f 193//126 194//126 206//126 205//126
f 184//127 185//127 192//127 191//127
f 185//128 186//128 193//128 192//128
f 183//129 184//129 191//129 194//129
f 198//130 197//130 201//130 202//130
f 189//131 188//131 196//131 197//131
f 187//132 190//132 198//132 195//132
f 188//133 187//133 195//133 196//133
f 200//134 199//134 202//134 201//134
f 197//135 196//135 200//135 201//135
f 195//136 198//136 202//136 199//136
f 196//137 195//137 199//137 200//137
f 206//138 203//138 204//138 205//138
f 191//139 192//139 204//139 203//139
f 194//140 191//140 203//140 206//140
f 192//141 193//141 205//141 204//141
