# Blender v2.91.2 OBJ File: 'camionnete02.blend'
# www.blender.org
mtllib arme_000109.mtl
o Cube.046_Cube.010
v 315.125427 785.135498 -1042.569336
v 317.862427 571.962402 -1098.505371
v 413.143250 836.416260 -1233.204834
v 415.880249 623.243164 -1289.140991
v 117.732140 807.643738 -1138.007080
v 120.469070 594.470581 -1193.943359
v 215.749969 858.924561 -1328.642456
v 218.486923 645.751465 -1384.578735
v 180.174301 714.531982 -780.102173
v 182.911240 501.358887 -836.038208
v -14.482021 523.867126 -931.475891
v -17.218975 737.040283 -875.539673
v 119.100067 682.579224 -661.318298
v 121.837006 469.406189 -717.254517
v -75.556313 491.914429 -812.692139
v -78.293259 705.087524 -756.756042
v 83.020119 663.703064 -591.146240
v 91.190651 511.775208 -643.486877
v -106.202713 534.283508 -738.924561
v -114.373199 686.211304 -686.583862
v 201.229172 725.547363 -821.051758
v 203.966110 512.374329 -876.987854
v 3.835861 748.055725 -916.489563
v 6.572786 534.882568 -972.425659
v 378.539917 818.312500 -1165.904541
v 381.276855 605.139526 -1221.840820
v 181.146622 840.820801 -1261.342285
v 183.883606 627.647705 -1317.278320
v 314.446594 847.670410 -1280.923706
v 317.183533 634.497314 -1336.859863
v 216.428787 796.389648 -1090.288208
v 219.165726 583.216431 -1146.224365
v 81.477646 725.786133 -827.820862
v 84.214600 512.612976 -883.757019
v 20.403408 693.833435 -709.037231
v 26.185934 486.643677 -749.074951
v -15.676517 674.957214 -638.865051
v 5.521011 515.213257 -699.333252
v 105.269455 523.628418 -924.706726
v 102.532501 736.801575 -868.770630
v 282.580231 616.393555 -1269.559570
v 279.843262 829.566650 -1213.623413
v 363.794922 842.043335 -1257.064087
v 268.514038 577.589417 -1122.364868
v 133.562927 506.985962 -859.897705
v 59.461624 482.849365 -732.986450
v 38.796715 511.418945 -683.244751
v 151.880844 731.174438 -844.911133
v 329.191589 823.939697 -1189.764038
v 366.531921 628.870239 -1313.000488
v 265.777100 790.762573 -1066.428955
v 130.825958 720.159058 -803.961487
v 69.751724 688.206360 -685.177734
v 33.671795 669.330078 -615.005676
v 154.617783 518.001404 -900.847351
v 331.928528 610.766541 -1245.700195
v 155.130249 478.087646 -911.320679
v 105.781914 483.714722 -935.179993
v 332.440918 570.852783 -1256.173462
v 283.092682 576.479858 -1280.032959
v 219.678192 543.302734 -1156.697754
v 269.026550 537.675659 -1132.838257
v 444.828552 740.115723 -1106.874512
v 416.787292 725.445190 -1052.336914
v 417.997620 631.182251 -1077.071289
v 446.038818 645.852783 -1131.609009
v 487.484131 735.251953 -1086.251099
v 459.442932 720.581299 -1031.713379
v 460.653198 626.318359 -1056.447754
v 488.694458 640.988892 -1110.985352
v 552.760986 727.808594 -1054.690552
v 524.719666 713.138062 -1000.152832
v 525.929932 618.875061 -1024.887207
v 553.971191 633.545654 -1079.425049
v 594.765686 723.018921 -1034.381714
v 566.724426 708.348328 -979.844055
v 567.934814 614.085388 -1004.578430
v 595.975952 628.755981 -1059.116089
v 688.539368 797.337585 -1939.274048
v 639.190979 802.964600 -1963.133301
v 636.453979 1016.137817 -1907.197266
v 685.802368 1010.510742 -1883.337891
vn 0.8956 -0.1021 0.4330
vn 0.4447 0.2327 -0.8649
vn -0.8956 0.1021 -0.4330
vn -0.0124 0.9672 0.2538
vn 0.0124 -0.9672 -0.2538
vn -0.2862 -0.8774 0.3850
vn -0.0724 -0.9630 -0.2597
vn -0.5126 -0.3304 0.7925
vn -0.8962 0.1013 -0.4320
vn 0.8962 -0.1013 0.4320
vn 0.7613 0.1737 -0.6248
vn -0.4017 -0.3449 0.8483
vn 0.0345 -0.9777 -0.2072
vn -0.4384 -0.3685 0.8198
vn -0.0169 -0.9804 -0.1963
vn -0.4447 -0.2327 0.8649
vn -0.0564 -0.2541 0.9655
vn 0.5045 -0.8630 0.0273
vn 0.4838 0.7503 0.4506
usemtl Matériau.011
s off
f 25//1 26//1 4//1 3//1
f 29//2 30//2 8//2 7//2
f 27//3 28//3 6//3 5//3
f 22//1 21//1 9//1 10//1
f 42//4 27//4 5//4 31//4
f 56//5 26//5 2//5 44//5
f 10//1 9//1 13//1 14//1
f 55//5 22//5 10//5 45//5
f 23//3 24//3 11//3 12//3
f 46//6 14//6 18//6 47//6
f 45//7 10//7 14//7 46//7
f 12//3 11//3 15//3 16//3
f 33//4 12//4 16//4 35//4
f 54//8 47//8 18//8 17//8
f 16//9 15//9 19//9 20//9
f 14//10 13//10 17//10 18//10
f 5//3 6//3 24//3 23//3
f 44//5 2//5 22//5 55//5
f 31//4 5//4 23//4 40//4
f 2//1 1//1 21//1 22//1
f 50//5 4//5 26//5 56//5
f 29//4 7//4 27//4 42//4
f 7//3 8//3 28//3 27//3
f 26//11 25//11 63//11 66//11
f 43//4 29//4 42//4 49//4
f 8//5 30//5 41//5 28//5
f 51//4 31//4 40//4 48//4
f 6//5 32//5 39//5 24//5
f 20//12 19//12 38//12 37//12
f 52//4 33//4 35//4 53//4
f 11//13 34//13 36//13 15//13
f 15//6 36//6 38//6 19//6
f 24//5 39//5 34//5 11//5
f 28//5 41//5 32//5 6//5
f 49//4 42//4 31//4 51//4
f 30//3 29//3 81//3 80//3
f 3//2 4//2 50//2 43//2
f 25//4 49//4 51//4 1//4
f 9//4 52//4 53//4 13//4
f 1//4 51//4 48//4 21//4
f 3//4 43//4 49//4 25//4
f 30//5 50//5 56//5 41//5
f 32//3 41//3 60//3 61//3
f 37//14 38//14 47//14 54//14
f 34//15 45//15 46//15 36//15
f 36//6 46//6 47//6 38//6
f 39//5 55//5 45//5 34//5
f 55//16 39//16 58//16 57//16
f 61//5 62//5 57//5 58//5
f 60//5 59//5 62//5 61//5
f 39//3 32//3 61//3 58//3
f 44//1 55//1 57//1 62//1
f 41//2 56//2 59//2 60//2
f 56//1 44//1 62//1 59//1
f 66//2 63//2 67//2 70//2
f 1//17 2//17 65//17 64//17
f 2//18 26//18 66//18 65//18
f 25//19 1//19 64//19 63//19
f 69//5 70//5 74//5 73//5
f 64//16 65//16 69//16 68//16
f 65//5 66//5 70//5 69//5
f 63//4 64//4 68//4 67//4
f 73//5 74//5 78//5 77//5
f 67//4 68//4 72//4 71//4
f 70//2 67//2 71//2 74//2
f 68//16 69//16 73//16 72//16
f 76//1 77//1 78//1 75//1
f 71//4 72//4 76//4 75//4
f 74//2 71//2 75//2 78//2
f 82//2 79//2 80//2 81//2
f 50//5 30//5 80//5 79//5
f 43//1 50//1 79//1 82//1
f 29//4 43//4 82//4 81//4
o Cube.048_Cube.024
v -556.795349 488.145813 171.155518
v -707.984314 332.244690 65.163620
v -416.555145 485.933594 -25.632111
v -567.699951 328.211945 -134.200104
v -685.447510 634.251709 5.529343
v -762.966248 554.316772 -48.815659
v -613.542358 633.117432 -95.369148
v -690.867920 552.735291 -149.365295
v -360.154663 467.723541 -481.385284
v -268.556793 516.972656 -409.225891
v -329.420898 627.949646 -407.708313
v -421.018707 578.700500 -479.867767
v -249.511993 549.802856 -648.456360
v -182.167236 586.011841 -595.402954
v -226.915924 667.604736 -594.287292
v -294.260712 631.395569 -647.340576
v -179.761841 603.758789 -751.846436
v -130.547180 630.219971 -713.075867
v -163.248901 689.846924 -712.260559
v -212.463623 663.385742 -751.031067
v -485.495300 583.057495 -53.314102
v -645.768921 416.259644 -166.582123
v -634.428955 585.567810 155.573761
v -794.934570 420.059540 43.050339
v -293.395447 575.561279 -410.841522
v -390.637817 523.277283 -487.447662
v -193.128052 633.257446 -608.704956
v -264.622833 594.817078 -665.027466
v -131.932251 668.530090 -733.788513
v -184.179749 640.438293 -774.948242
v -131.486328 627.255737 -829.163330
v -82.271729 653.716797 -790.392456
v -81.562622 699.843689 -819.098511
v -133.809998 671.751953 -860.258301
v -162.415833 693.497864 -835.112488
v -113.201050 719.958923 -796.341919
v -97.432434 645.315735 -884.716797
v -48.217651 671.776978 -845.946228
v -47.508667 717.903625 -874.652161
v -99.756042 689.811951 -915.811951
v -128.361816 711.557800 -890.666016
v -79.147156 738.018982 -851.895447
v -56.078857 639.603699 -912.055115
v -24.401611 656.635559 -887.100342
v -23.945190 686.325317 -905.576965
v -57.574585 668.243896 -932.069580
v -96.431396 733.712036 -949.994385
v -125.037170 755.457947 -924.848389
v -75.822388 781.919128 -886.077942
v -44.183838 761.803772 -908.834595
v -28.473145 634.394714 -931.032104
v -7.117310 645.877075 -914.208130
v -6.809570 665.893066 -926.664734
v -29.481445 653.703125 -944.525391
v -4.671143 639.977661 -955.360779
v 8.678711 647.155396 -944.843933
v 8.870972 659.667725 -952.630615
v -5.301453 652.047668 -963.795593
v -90.933167 765.578064 -957.502319
v -109.953552 780.037170 -940.782410
v -77.229980 797.631470 -915.003357
v -56.193115 784.256531 -930.134705
v -268.775848 604.257690 332.873962
v -311.027283 367.356628 355.015900
v -118.743713 555.601501 149.136414
v -164.877502 323.770599 167.564392
v -431.219269 555.304077 141.703827
v -452.882721 433.838318 153.056641
v -351.292725 536.179565 45.520721
v -377.947662 411.490479 56.945019
v 0.628113 228.551941 -143.166534
v 104.803894 280.025726 -93.457390
v 103.981323 369.381897 -181.966095
v 1.452637 319.002350 -231.713989
v 135.118896 121.696777 -275.021423
v 212.231873 157.784302 -237.440369
v 212.838013 224.285583 -302.542328
v 135.724976 188.197937 -340.123596
v 221.003601 57.058228 -358.157135
v 277.356750 83.430542 -330.693298
v 277.799744 132.028809 -378.269104
v 221.446594 105.656494 -405.732941
v -215.490784 581.261108 86.716301
v -271.164368 329.475220 107.044617
v -381.465332 627.246826 282.541107
v -426.320404 375.747101 306.047546
v 112.289001 321.114655 -138.049652
v 0.941833 269.006012 -192.314819
v 225.469421 181.164917 -279.953094
v 143.604431 142.853638 -319.850006
v 294.520935 92.726135 -369.649353
v 234.695129 64.728699 -398.805725
v 273.638611 -0.240051 -411.138000
v 329.991760 26.132324 -383.674042
v 352.687195 33.822754 -432.438599
v 292.861511 5.825195 -461.594879
v 278.762817 46.999451 -467.014557
v 335.115906 73.371948 -439.550690
v 311.477356 -40.466614 -450.151642
v 367.830505 -14.094299 -422.687775
v 390.526306 -6.403870 -471.452484
v 330.700378 -34.401306 -500.608795
v 316.601624 6.773132 -506.028412
v 372.954895 33.145508 -478.564606
v 344.484558 -77.847412 -451.976166
v 380.756531 -60.872742 -434.298920
v 395.364685 -55.922791 -465.686615
v 356.857361 -73.943420 -484.453156
v 354.529358 -32.871155 -550.972961
v 340.430603 8.303345 -556.392639
v 396.783997 34.675537 -528.928833
v 414.355164 -4.873657 -521.816772
v 365.830505 -104.171021 -452.838104
v 390.284119 -92.727234 -440.920532
v 400.132507 -89.390381 -462.081268
v 374.172058 -101.539246 -474.733185
v 389.035583 -126.335144 -465.482147
v 404.321716 -119.181396 -458.032318
v 410.478088 -117.095337 -471.259979
v 394.249695 -124.689819 -479.168732
v 374.738464 -20.593689 -574.273193
v 365.363953 6.783936 -577.876770
v 402.833923 24.319214 -559.615662
v 414.517273 -1.977539 -554.886841
vn 0.5214 -0.7634 0.3812
vn -0.4102 0.8518 -0.3259
vn -0.5214 0.7625 -0.3830
vn -0.4212 -0.1939 0.8860
vn 0.2982 0.9330 0.2016
vn -0.5982 -0.6884 -0.4102
vn -0.4410 0.8960 -0.0518
vn 0.7645 0.5296 0.3676
vn -0.7402 -0.2086 -0.6392
vn 0.5984 -0.7942 0.1058
vn -0.7231 -0.2550 -0.6419
vn 0.7968 0.3399 0.4995
vn -0.7173 -0.2945 -0.6315
vn 0.5178 -0.8521 -0.0757
vn 0.6922 0.4419 0.5706
vn 0.5246 -0.8468 -0.0880
vn -0.4329 0.8991 -0.0641
vn 0.8194 0.3100 0.4823
vn 0.7074 0.5141 0.4851
vn 0.4619 -0.8867 0.0189
vn -0.6412 -0.4332 -0.6334
vn 0.7208 0.4787 0.5014
vn -0.6112 -0.4592 -0.6447
vn -0.5544 -0.5791 -0.5977
vn 0.4513 0.8386 0.3050
vn -0.8000 -0.1952 -0.5673
vn 0.6565 0.5971 0.4610
vn -0.7776 0.4705 0.4171
vn -0.4719 0.8816 -0.0027
vn -0.6982 -0.4342 -0.5692
vn -0.4872 0.8730 0.0226
vn 0.7494 0.3389 0.5688
vn -0.6956 -0.4380 -0.5695
vn -0.7523 -0.3348 -0.5674
vn 0.6900 0.4115 0.5955
vn 0.1525 -0.8957 0.4178
vn 0.7471 0.3429 0.5694
vn 0.6919 0.4448 0.5687
vn -0.7524 -0.3317 -0.5691
vn 0.4719 -0.8816 0.0027
vn 0.1039 0.7552 -0.6473
vn -0.5231 -0.5064 -0.6855
vn 0.8754 0.2456 0.4163
vn 0.1233 0.7398 -0.6614
vn 0.6644 0.6699 0.3315
vn -0.7557 -0.3658 -0.5433
vn -0.6876 0.4778 0.5467
vn 0.6876 -0.4778 -0.5467
vn -0.2156 0.9121 -0.3488
vn 0.8575 0.2623 0.4426
vn -0.5534 -0.4963 -0.6689
vn 0.1332 -0.8892 0.4378
vn 0.6900 -0.3900 -0.6097
vn 0.8519 0.2672 0.4504
vn -0.5626 -0.4931 -0.6636
vn 0.3715 -0.9157 0.1533
vn 0.0596 0.7876 -0.6133
vn -0.6821 -0.0541 -0.7292
vn 0.6821 -0.2771 -0.6767
vn -0.6538 0.6511 0.3855
vn 0.7675 -0.0898 0.6347
vn -0.3653 0.4482 -0.8159
vn -0.7658 0.0914 -0.6365
vn -0.3769 0.1526 0.9136
vn -0.2041 0.9048 -0.3736
vn -0.1267 -0.9834 0.1299
vn 0.0455 0.6614 -0.7486
vn 0.6580 0.7486 -0.0819
vn -0.5477 -0.7246 -0.4184
vn 0.6043 -0.3969 0.6909
vn -0.7639 -0.3567 -0.5379
vn 0.8669 0.2792 0.4129
vn -0.7778 -0.3755 -0.5040
vn 0.0438 -0.7493 0.6607
vn 0.8268 0.4316 0.3607
vn 0.0453 -0.7654 0.6419
vn 0.0583 0.6576 -0.7511
vn 0.8726 0.2435 0.4233
vn 0.8742 0.4099 0.2604
vn -0.0276 -0.6922 0.7212
vn -0.7788 -0.4886 -0.3933
vn 0.8659 0.4085 0.2888
vn -0.7654 -0.5231 -0.3750
vn -0.3725 -0.9275 -0.0305
vn 0.2530 0.8830 -0.3954
vn -0.5271 -0.8208 -0.2201
vn 0.2452 0.9688 -0.0374
vn -0.9520 0.1921 0.2382
vn 0.0165 0.7041 -0.7099
vn -0.8283 -0.4237 -0.3665
vn -0.0007 0.7221 -0.6918
vn 0.8267 0.3471 0.4429
vn -0.8279 -0.4272 -0.3635
vn -0.8272 -0.3425 -0.4454
vn 0.8104 0.4313 0.3965
vn -0.2972 -0.3066 0.9043
vn 0.8266 0.3508 0.4400
vn 0.8279 0.4321 0.3575
vn -0.8258 -0.3418 -0.4485
vn -0.0165 -0.7041 0.7099
vn 0.4499 -0.0320 -0.8925
vn -0.7119 -0.6118 -0.3448
vn 0.8895 0.1376 0.4357
vn 0.4593 -0.0583 -0.8864
vn 0.9104 0.4118 0.0405
vn -0.8449 -0.3433 -0.4102
vn -0.3615 0.9213 -0.1430
vn 0.3615 -0.9213 0.1430
vn 0.2509 0.3876 -0.8870
vn 0.8823 0.1729 0.4379
vn -0.7333 -0.5832 -0.3495
vn -0.3106 -0.2816 0.9078
vn 0.4055 -0.9130 0.0447
vn 0.8799 0.1833 0.4384
vn -0.7397 -0.5743 -0.3508
vn -0.1189 -0.5830 0.8037
vn 0.4275 0.0275 -0.9036
vn -0.6314 -0.3098 -0.7109
vn 0.4526 -0.8885 -0.0756
vn -0.2496 0.9015 -0.3535
usemtl Matériau.012
s off
f 83//20 84//20 86//20 85//20
f 90//21 89//21 93//21 94//21
f 89//22 90//22 88//22 87//22
f 105//23 106//23 84//23 83//23
f 103//24 89//24 87//24 105//24
f 104//25 86//25 84//25 106//25
f 94//26 93//26 97//26 98//26
f 103//27 85//27 92//27 107//27
f 104//28 90//28 94//28 108//28
f 85//29 86//29 91//29 92//29
f 110//30 98//30 102//30 112//30
f 107//31 92//31 96//31 109//31
f 108//32 94//32 98//32 110//32
f 92//33 91//33 95//33 96//33
f 101//34 111//34 115//34 118//34
f 96//35 95//35 99//35 100//35
f 98//36 97//36 101//36 102//36
f 109//37 96//37 100//37 111//37
f 97//38 109//38 111//38 101//38
f 100//39 99//39 113//39 114//39
f 91//40 108//40 110//40 95//40
f 93//41 107//41 109//41 97//41
f 95//42 110//42 112//42 99//42
f 86//43 104//43 108//43 91//43
f 89//44 103//44 107//44 93//44
f 90//45 104//45 106//45 88//45
f 85//46 103//46 105//46 83//46
f 87//47 88//47 106//47 105//47
f 117//48 118//48 124//48 123//48
f 113//49 116//49 122//49 119//49
f 102//50 101//50 118//50 117//50
f 111//51 100//51 114//51 115//51
f 99//52 112//52 116//52 113//52
f 112//53 102//53 117//53 116//53
f 124//54 121//54 132//54 131//54
f 120//55 119//55 125//55 126//55
f 115//56 114//56 120//56 121//56
f 118//57 115//57 121//57 124//57
f 116//58 117//58 123//58 122//58
f 114//59 113//59 119//59 120//59
f 128//60 127//60 135//60 136//60
f 119//61 122//61 128//61 125//61
f 121//62 120//62 126//62 127//62
f 122//63 121//63 127//63 128//63
f 131//64 132//64 144//64 143//64
f 122//65 123//65 130//65 129//65
f 123//66 124//66 131//66 130//66
f 121//67 122//67 129//67 132//67
f 136//68 135//68 139//68 140//68
f 127//69 126//69 134//69 135//69
f 125//70 128//70 136//70 133//70
f 126//71 125//71 133//71 134//71
f 138//72 137//72 140//72 139//72
f 135//73 134//73 138//73 139//73
f 133//74 136//74 140//74 137//74
f 134//75 133//75 137//75 138//75
f 144//76 141//76 142//76 143//76
f 129//77 130//77 142//77 141//77
f 132//78 129//78 141//78 144//78
f 130//79 131//79 143//79 142//79
f 145//80 146//80 148//80 147//80
f 152//81 151//81 155//81 156//81
f 151//82 152//82 150//82 149//82
f 167//83 168//83 146//83 145//83
f 165//84 151//84 149//84 167//84
f 166//85 148//85 146//85 168//85
f 156//86 155//86 159//86 160//86
f 165//87 147//87 154//87 169//87
f 166//88 152//88 156//88 170//88
f 147//89 148//89 153//89 154//89
f 172//90 160//90 164//90 174//90
f 169//91 154//91 158//91 171//91
f 170//92 156//92 160//92 172//92
f 154//93 153//93 157//93 158//93
f 163//94 173//94 177//94 180//94
f 158//95 157//95 161//95 162//95
f 160//96 159//96 163//96 164//96
f 171//97 158//97 162//97 173//97
f 159//98 171//98 173//98 163//98
f 162//99 161//99 175//99 176//99
f 153//100 170//100 172//100 157//100
f 155//101 169//101 171//101 159//101
f 157//102 172//102 174//102 161//102
f 148//103 166//103 170//103 153//103
f 151//104 165//104 169//104 155//104
f 152//105 166//105 168//105 150//105
f 147//106 165//106 167//106 145//106
f 149//107 150//107 168//107 167//107
f 179//108 180//108 186//108 185//108
f 175//109 178//109 184//109 181//109
f 164//110 163//110 180//110 179//110
f 173//111 162//111 176//111 177//111
f 161//112 174//112 178//112 175//112
f 174//113 164//113 179//113 178//113
f 186//114 183//114 194//114 193//114
f 182//115 181//115 187//115 188//115
f 177//116 176//116 182//116 183//116
f 180//117 177//117 183//117 186//117
f 178//118 179//118 185//118 184//118
f 176//119 175//119 181//119 182//119
f 190//120 189//120 197//120 198//120
f 181//121 184//121 190//121 187//121
f 183//122 182//122 188//122 189//122
f 184//123 183//123 189//123 190//123
f 193//124 194//124 206//124 205//124
f 184//125 185//125 192//125 191//125
f 185//126 186//126 193//126 192//126
f 183//127 184//127 191//127 194//127
f 198//128 197//128 201//128 202//128
f 189//129 188//129 196//129 197//129
f 187//130 190//130 198//130 195//130
f 188//131 187//131 195//131 196//131
f 200//132 199//132 202//132 201//132
f 197//133 196//133 200//133 201//133
f 195//134 198//134 202//134 199//134
f 196//135 195//135 199//135 200//135
f 206//136 203//136 204//136 205//136
f 191//137 192//137 204//137 203//137
f 194//138 191//138 203//138 206//138
f 192//139 193//139 205//139 204//139
