# Blender v2.91.2 OBJ File: 'camionnete02.blend'
# www.blender.org
mtllib arme_000227.mtl
o Cube.046_Cube.010
v 269.407135 254.646683 -1079.205200
v 227.255707 44.703049 -1131.416870
v 402.213531 271.526306 -1254.295532
v 360.062042 61.582687 -1306.507324
v 98.630066 319.591858 -1202.478882
v 56.478546 109.648178 -1254.690552
v 231.436371 336.471436 -1377.569214
v 189.284973 126.527817 -1429.781006
v 86.559113 231.406754 -838.140503
v 44.407623 21.463150 -890.352051
v -126.369492 86.408279 -1013.625732
v -84.218018 296.351868 -961.414124
v 3.808350 220.889145 -729.042664
v -38.343124 10.945541 -781.254456
v -209.120270 75.890671 -904.528076
v -166.968811 285.834351 -852.316406
v -45.077087 214.675858 -664.592773
v -67.439621 62.948898 -713.246704
v -238.216827 127.894058 -836.520386
v -215.854279 279.621033 -787.866455
v 45.829498 430.183777 -676.992554
v -124.947617 495.128906 -800.266235
v -3.055939 423.970398 -612.542480
v -173.833054 488.915588 -735.816162
v 115.086761 235.032578 -875.750916
v 72.935303 25.089005 -927.962646
v -55.690353 299.977783 -999.024658
v -97.841858 90.034164 -1051.236328
v 100.473602 300.710693 -820.905029
v -70.303497 365.655884 -944.178711
v 129.001282 304.336548 -858.515503
v -41.775879 369.281677 -981.789124
v 120.661346 401.259460 -795.899231
v -50.115814 466.204590 -919.172791
v 149.188934 404.885254 -833.509705
v -21.588135 469.830383 -956.783325
v 19.593170 290.430847 -714.273071
v -151.184006 355.375977 -837.546753
v 39.780853 390.979553 -689.267212
v -130.996292 455.924683 -812.540894
v 102.854095 564.399048 -685.281799
v -67.923035 629.344177 -808.555542
v 53.968658 558.185730 -620.831848
v -116.808441 623.130859 -744.105469
v 355.328705 265.567322 -1192.483398
v 313.177338 55.623672 -1244.694946
v 184.551636 330.512390 -1315.756958
v 142.400177 120.568771 -1367.968628
v 316.824982 303.998840 -1315.932495
v 274.673553 94.055283 -1368.144165
v 184.018616 287.119263 -1140.842041
v 141.867157 77.175613 -1193.053589
v 1.170532 263.879333 -899.777283
v -40.980957 53.935715 -951.988831
v -81.580231 253.361740 -790.679565
v -121.517319 49.242752 -826.797546
v -130.465668 247.148392 -726.229553
v -141.137161 84.308762 -780.939819
v -39.559082 462.656372 -738.629333
v -88.444489 456.442993 -674.179382
v -12.453293 57.561569 -989.599426
v 29.698212 267.505188 -937.387817
v 15.085052 333.183289 -882.541870
v 43.612701 336.809082 -920.152283
v 35.272766 433.732056 -857.536011
v 63.800385 437.357849 -895.146545
v -65.795410 322.903442 -775.909912
v -45.607727 423.452148 -750.904053
v 17.465546 596.871643 -746.918640
v -31.419922 590.658264 -682.468689
v 227.788727 88.096237 -1306.331787
v 269.940216 298.039856 -1254.120117
v 359.519196 287.762573 -1285.113892
v 184.561432 60.939316 -1162.235229
v 1.713348 37.699448 -921.170532
v -92.728455 38.294601 -806.016663
v -112.348297 73.360550 -760.158875
v 72.392487 251.268845 -906.569336
v 86.306976 320.572815 -889.333862
v 106.494659 421.121521 -864.328125
v 312.634491 281.803589 -1223.301636
v 317.367828 77.818985 -1337.325684
v 226.712891 270.882996 -1110.023682
v 43.864807 247.643021 -868.958862
v -38.885956 237.125443 -759.861206
v -87.771393 230.912125 -695.411133
v 3.135223 446.419983 -707.810913
v -45.750198 440.206726 -643.360962
v 30.240997 41.325302 -958.781006
v 57.779327 316.946960 -851.723389
v 77.967041 417.495728 -826.717529
v -23.101135 306.667114 -745.091492
v -2.913422 407.215881 -720.085571
v 60.159821 580.635315 -716.100159
v 11.274384 574.421997 -651.650269
v 270.483002 71.859970 -1275.513428
v 22.348724 2.016220 -968.556885
v -20.345581 18.252487 -999.375305
v 262.590729 32.550888 -1285.289429
v 219.896484 48.787155 -1316.107788
v 133.974823 37.866562 -1202.829712
v 176.669128 21.630234 -1172.011230
v 391.600311 176.589218 -1123.485107
v 353.606598 171.760239 -1073.394653
v 334.967743 78.925278 -1096.481934
v 372.961334 83.754318 -1146.572754
v 428.504364 162.554947 -1096.846436
v 390.510712 157.725937 -1046.755981
v 371.871857 64.891037 -1069.843262
v 409.865387 69.720016 -1119.933838
v 484.979401 141.077988 -1056.080688
v 446.985687 136.249008 -1005.990173
v 428.346710 43.414139 -1029.077637
v 466.340424 48.243149 -1079.168213
v 521.320190 127.257858 -1029.848389
v 483.326630 122.428879 -979.757935
v 464.687775 29.593979 -1002.845337
v 502.681305 34.422958 -1052.935791
v 753.662231 133.271896 -1912.530518
v 710.968018 149.508224 -1943.348877
v 753.119263 359.451843 -1891.137329
v 795.813721 343.215576 -1860.318970
v 57.828522 656.643738 -742.271423
v -20.852448 686.565430 -799.066467
v 12.783203 650.918457 -682.884155
v -65.897736 680.840149 -739.679199
v 91.464142 620.996765 -626.089233
v 136.509491 626.722107 -685.476196
v 97.169037 641.683044 -713.873718
v 52.123688 635.957581 -654.486755
vn 0.7748 -0.2947 0.5593
vn 0.6026 0.0766 -0.7944
vn -0.7748 0.2947 -0.5593
vn 0.1912 0.9525 0.2369
vn -0.1912 -0.9525 -0.2369
vn -0.6026 -0.0766 0.7944
vn -0.5433 -0.7627 0.3508
vn -0.2708 -0.9283 -0.2550
vn -0.6818 -0.1584 0.7141
vn -0.7757 0.2941 -0.5584
vn 0.7757 -0.2941 0.5584
vn 0.4972 -0.2623 -0.8270
vn 0.4942 -0.2694 -0.8266
vn -0.4972 0.2623 0.8270
vn 0.8588 -0.0455 -0.5102
vn -0.6568 0.6131 -0.4391
vn -0.5866 -0.1966 0.7856
vn -0.1790 -0.9658 -0.1875
vn -0.4604 0.3433 0.8186
vn -0.6237 -0.2119 0.7524
vn -0.2305 -0.9555 -0.1841
vn -0.2490 -0.1864 0.9504
vn 0.2680 -0.9570 0.1110
vn 0.5870 0.6318 0.5062
vn -0.6025 -0.0766 0.7944
vn 0.6025 0.0766 -0.7944
vn 0.7477 -0.4021 0.5284
usemtl Matériau.011
s off
f 45//1 46//1 4//1 3//1
f 49//2 50//2 8//2 7//2
f 47//3 48//3 6//3 5//3
f 26//1 25//1 9//1 10//1
f 72//4 47//4 5//4 51//4
f 96//5 46//5 2//5 74//5
f 10//1 9//1 13//1 14//1
f 84//6 9//6 29//6 90//6
f 89//5 26//5 10//5 75//5
f 27//3 28//3 11//3 12//3
f 76//7 14//7 18//7 77//7
f 75//8 10//8 14//8 76//8
f 12//3 11//3 15//3 16//3
f 53//4 12//4 16//4 55//4
f 86//9 77//9 18//9 17//9
f 16//10 15//10 19//10 20//10
f 16//3 20//3 24//3 22//3
f 14//11 13//11 17//11 18//11
f 59//12 22//12 42//12 69//12
f 86//6 17//6 23//6 88//6
f 17//1 13//1 21//1 23//1
f 55//2 16//2 22//2 59//2
f 5//3 6//3 28//3 27//3
f 74//5 2//5 26//5 89//5
f 51//4 5//4 27//4 62//4
f 2//1 1//1 25//1 26//1
f 32//3 30//3 34//3 36//3
f 62//2 27//2 32//2 64//2
f 27//3 12//3 30//3 32//3
f 9//1 25//1 31//1 29//1
f 66//4 36//4 34//4 65//4
f 90//5 29//5 37//5 92//5
f 64//2 32//2 36//2 66//2
f 29//1 31//1 35//1 33//1
f 92//6 37//6 39//6 93//6
f 29//1 33//1 39//1 37//1
f 34//3 30//3 38//3 40//3
f 65//4 34//4 40//4 68//4
f 69//13 42//13 124//13 123//13
f 23//1 21//1 41//1 43//1
f 88//14 23//14 43//14 95//14
f 22//3 24//3 44//3 42//3
f 82//5 4//5 46//5 96//5
f 49//4 7//4 47//4 72//4
f 7//3 8//3 48//3 47//3
f 46//15 45//15 103//15 106//15
f 73//4 49//4 72//4 81//4
f 8//5 50//5 71//5 48//5
f 24//14 60//14 70//14 44//14
f 42//16 44//16 126//16 124//16
f 91//4 65//4 68//4 93//4
f 38//6 67//6 68//6 40//6
f 79//2 64//2 66//2 80//2
f 30//5 63//5 67//5 38//5
f 80//4 66//4 65//4 91//4
f 78//2 62//2 64//2 79//2
f 83//4 51//4 62//4 78//4
f 6//5 52//5 61//5 28//5
f 85//2 55//2 59//2 87//2
f 20//6 57//6 60//6 24//6
f 87//12 59//12 69//12 94//12
f 20//17 19//17 58//17 57//17
f 84//4 53//4 55//4 85//4
f 11//18 54//18 56//18 15//18
f 15//7 56//7 58//7 19//7
f 28//5 61//5 54//5 11//5
f 12//6 53//6 63//6 30//6
f 48//5 71//5 52//5 6//5
f 81//4 72//4 51//4 83//4
f 50//3 49//3 121//3 120//3
f 3//2 4//2 82//2 73//2
f 45//4 81//4 83//4 1//4
f 9//4 84//4 85//4 13//4
f 21//12 87//12 94//12 41//12
f 13//2 85//2 87//2 21//2
f 1//4 83//4 78//4 25//4
f 25//2 78//2 79//2 31//2
f 35//4 80//4 91//4 33//4
f 31//2 79//2 80//2 35//2
f 33//4 91//4 93//4 39//4
f 70//19 95//19 130//19 125//19
f 3//4 73//4 81//4 45//4
f 50//5 82//5 96//5 71//5
f 60//14 88//14 95//14 70//14
f 67//6 92//6 93//6 68//6
f 63//5 90//5 92//5 67//5
f 52//3 71//3 100//3 101//3
f 57//6 86//6 88//6 60//6
f 57//20 58//20 77//20 86//20
f 54//21 75//21 76//21 56//21
f 56//7 76//7 77//7 58//7
f 61//5 89//5 75//5 54//5
f 53//6 84//6 90//6 63//6
f 89//6 61//6 98//6 97//6
f 101//5 102//5 97//5 98//5
f 100//5 99//5 102//5 101//5
f 61//3 52//3 101//3 98//3
f 74//1 89//1 97//1 102//1
f 71//2 96//2 99//2 100//2
f 96//1 74//1 102//1 99//1
f 106//2 103//2 107//2 110//2
f 1//22 2//22 105//22 104//22
f 2//23 46//23 106//23 105//23
f 45//24 1//24 104//24 103//24
f 109//5 110//5 114//5 113//5
f 104//25 105//25 109//25 108//25
f 105//5 106//5 110//5 109//5
f 103//4 104//4 108//4 107//4
f 113//5 114//5 118//5 117//5
f 107//4 108//4 112//4 111//4
f 110//26 107//26 111//26 114//26
f 108//25 109//25 113//25 112//25
f 116//1 117//1 118//1 115//1
f 111//4 112//4 116//4 115//4
f 114//2 111//2 115//2 118//2
f 122//2 119//2 120//2 121//2
f 82//5 50//5 120//5 119//5
f 73//1 82//1 119//1 122//1
f 49//4 73//4 122//4 121//4
f 123//4 124//4 126//4 125//4
f 129//4 123//4 125//4 130//4
f 128//4 129//4 130//4 127//4
f 95//19 43//19 127//19 130//19
f 94//13 69//13 123//13 129//13
f 43//27 41//27 128//27 127//27
f 44//19 70//19 125//19 126//19
f 41//13 94//13 129//13 128//13
o Cube.048_Cube.024
v -466.384460 593.264893 110.467979
v -595.726440 392.937866 149.676208
v -415.690582 516.779419 -113.088844
v -553.073425 313.445312 -81.774712
v -683.278931 637.253174 -17.407600
v -749.596191 534.539917 2.695538
v -657.286743 598.036987 -132.031403
v -724.292603 495.207092 -112.742424
v -461.903625 355.514099 -524.814453
v -371.792053 384.566376 -440.799652
v -403.095978 506.903992 -449.528229
v -493.207642 477.851776 -533.543030
v -312.637421 400.320923 -675.158875
v -246.385315 421.680786 -613.389282
v -269.400635 511.626221 -619.806702
v -335.652771 490.266296 -681.576233
v -218.259094 430.804443 -768.053345
v -169.842834 446.413971 -722.913025
v -186.662292 512.144897 -727.602722
v -235.078552 496.535400 -772.743042
v -514.576111 584.204773 -138.724091
v -657.542236 371.105713 -104.304482
v -568.242126 665.677979 98.544632
v -705.554565 453.006226 140.168976
v -380.988678 447.274231 -446.743744
v -476.653351 416.431763 -535.935791
v -243.454285 469.481598 -628.742249
v -313.789062 446.805542 -694.318298
v -158.906372 482.885559 -744.097839
v -210.306091 466.314209 -792.019958
v -155.555481 438.206482 -837.867004
v -107.139282 453.815979 -792.726624
v -91.173889 496.974365 -821.617554
v -142.573669 480.402954 -869.539490
v -168.119080 509.596313 -849.078186
v -119.702942 525.205811 -803.937805
v -110.819153 444.818665 -888.136169
v -62.402954 460.428192 -842.995911
v -46.437744 503.586456 -871.886658
v -97.837463 487.015076 -919.808777
v -123.382874 516.208435 -899.347351
v -74.966675 531.817871 -854.207031
v -68.796692 427.979309 -909.128357
v -37.633362 438.026489 -880.073608
v -27.357239 465.805511 -898.669312
v -60.440918 455.139252 -929.514587
v -79.159363 527.120911 -953.710876
v -104.704773 556.314270 -933.249390
v -56.288635 571.923828 -888.109131
v -27.759583 543.692322 -905.788879
v -40.988037 415.350342 -923.843140
v -19.978577 422.123840 -904.255249
v -13.050659 440.851746 -916.791992
v -35.354797 433.660858 -937.586975
v -13.440186 413.843567 -944.541748
v -0.306946 418.077820 -932.297058
v 4.023804 429.784821 -940.133911
v -9.918701 425.289673 -953.133179
v -65.013977 556.316284 -960.752747
v -81.999695 575.727356 -947.147400
v -49.807068 586.106201 -917.133118
v -30.837708 567.334839 -928.888733
v -296.814697 470.583466 449.850861
v -406.367096 273.982910 361.850525
v -119.230774 431.659576 296.388397
v -222.347260 239.868866 208.976379
v -390.620544 550.688904 225.989563
v -446.791138 449.886322 180.869339
v -288.942383 532.167236 151.373413
v -352.439056 432.395081 102.486450
v -61.234558 171.251770 -71.222450
v -59.788269 102.388550 31.666473
v 60.721069 126.452026 47.796852
v 61.958374 194.216736 -53.369049
v 4.290955 -6.988586 -175.281433
v 3.247192 -60.550049 -99.181953
v 93.821411 -43.665771 -86.055687
v 94.865295 9.895813 -162.155334
v 47.266541 -119.359253 -238.462433
v 46.503601 -158.501221 -182.849792
v 112.694153 -146.162354 -173.257355
v 113.456970 -107.020447 -228.869843
v -173.622498 505.334778 235.073181
v -295.681763 304.561707 135.294785
v -374.738098 549.493652 391.012787
v -491.041504 340.777924 297.589600
v 0.182983 103.175964 41.275459
v 1.690125 180.515991 -68.608406
v 52.831238 -68.797913 -100.800117
v 53.939453 -11.935669 -181.589172
v 85.810059 -175.198059 -191.499512
v 86.619934 -133.643860 -250.539215
v 65.412354 -195.007935 -291.457581
v 64.649475 -234.149902 -235.844849
v 111.805054 -257.628845 -249.160767
v 112.614929 -216.074829 -308.200470
v 138.245361 -188.408936 -285.813995
v 137.482605 -227.551086 -230.201385
v 79.755554 -249.136108 -329.358154
v 78.992676 -288.278198 -273.745514
v 126.148254 -311.757324 -287.061462
v 126.958008 -270.203186 -346.101013
v 152.588623 -242.537109 -323.714508
v 151.825623 -281.679138 -268.101929
v 64.558533 -293.633484 -346.066193
v 64.067505 -318.827515 -310.270844
v 94.419495 -333.940063 -318.841797
v 94.940674 -307.193237 -356.842926
v 172.134460 -297.188354 -364.474518
v 197.765076 -269.522461 -342.088104
v 197.002197 -308.664673 -286.475494
v 171.324707 -338.742676 -305.434937
v 53.271301 -323.171997 -358.289612
v 52.940308 -340.156982 -334.157471
v 73.402649 -350.345581 -339.935760
v 73.754272 -332.313721 -365.555206
v 54.205505 -354.187744 -373.347565
v 53.998535 -364.805420 -358.262115
v 66.789917 -371.174194 -361.874115
v 67.009460 -359.902222 -377.889069
v 200.637390 -313.852600 -361.018677
v 217.679382 -295.457092 -346.133484
v 217.172119 -321.483154 -309.155945
v 200.098816 -341.482300 -321.762299
vn 0.8128 -0.4793 0.3311
vn -0.4732 0.7720 -0.4244
vn -0.8172 0.4647 -0.3409
vn 0.0149 0.1828 0.9830
vn 0.0768 0.9483 -0.3079
vn -0.4945 -0.8475 0.1932
vn -0.1955 0.9725 -0.1266
vn 0.7743 0.6308 -0.0509
vn -0.8262 -0.3844 -0.4119
vn 0.6767 -0.7082 0.2014
vn -0.6686 -0.1032 -0.7364
vn 0.7797 0.1608 0.6051
vn -0.6741 -0.1423 -0.7248
vn 0.2976 -0.9546 0.0109
vn 0.6947 0.2883 0.6590
vn 0.3071 -0.9517 -0.0003
vn -0.1854 0.9730 -0.1376
vn 0.7963 0.1255 0.5917
vn 0.7387 0.3506 0.5757
vn 0.2224 -0.9701 0.0969
vn -0.6350 -0.2953 -0.7139
vn 0.7406 0.3138 0.5942
vn -0.6110 -0.3282 -0.7204
vn -0.6394 -0.7197 -0.2708
vn 0.4041 0.9110 -0.0816
vn -0.8756 -0.4829 -0.0157
vn 0.5835 0.7996 -0.1419
vn -0.6630 0.5313 0.5275
vn -0.2355 0.9684 -0.0822
vn -0.6987 -0.2794 -0.6586
vn -0.2558 0.9649 -0.0593
vn 0.7245 0.1746 0.6668
vn -0.6971 -0.2837 -0.6585
vn -0.7264 -0.1698 -0.6659
vn 0.6816 0.2606 0.6838
vn -0.1314 -0.8849 0.4469
vn 0.7231 0.1791 0.6671
vn 0.6953 0.2912 0.6571
vn -0.7255 -0.1669 -0.6676
vn 0.2355 -0.9684 0.0822
vn 0.3742 0.6758 -0.6351
vn -0.5325 -0.3972 -0.7474
vn 0.8433 0.0464 0.5354
vn 0.3910 0.6555 -0.6461
vn 0.7568 0.5045 0.4156
vn -0.7406 -0.1979 -0.6422
vn -0.6172 0.6554 0.4353
vn 0.6172 -0.6554 -0.4353
vn 0.0654 0.9193 -0.3880
vn 0.8266 0.0682 0.5586
vn -0.5614 -0.3793 -0.7355
vn -0.1510 -0.8730 0.4638
vn 0.6497 -0.5740 -0.4984
vn 0.8214 0.0747 0.5654
vn -0.5702 -0.3737 -0.7316
vn 0.1102 -0.9699 0.2172
vn 0.3351 0.7195 -0.6082
vn -0.5679 0.0775 -0.8195
vn 0.6791 -0.4659 -0.5673
vn -0.5200 0.8075 0.2785
vn 0.4650 -0.5631 0.6831
vn 0.5179 0.7671 -0.3785
vn -0.4318 0.5810 -0.6900
vn -0.6113 -0.0136 0.7913
vn 0.2045 0.9789 0.0024
vn -0.4240 -0.8467 -0.3214
vn 0.9883 0.1194 0.0944
vn 0.9508 0.1255 0.2834
vn -0.4874 -0.0956 -0.8679
vn -0.0723 -0.8192 0.5689
vn 0.1467 0.5125 -0.8460
vn -0.0992 -0.6490 0.7543
vn 0.1066 0.5221 -0.8462
vn -0.9551 -0.2457 -0.1659
vn 0.0484 -0.5625 0.8254
vn -0.9478 -0.2545 -0.1921
vn 0.9903 0.1068 0.0888
vn -0.1021 -0.6675 0.7376
vn 0.1245 -0.6252 0.7704
vn -0.9812 -0.1513 -0.1200
vn -0.0474 0.4934 -0.8685
vn 0.1232 -0.6042 0.7873
vn -0.0799 0.4703 -0.8789
vn -0.7083 -0.5384 -0.4565
vn 0.7923 0.5814 -0.1849
vn -0.6203 -0.4418 -0.6481
vn 0.5029 0.7601 0.4115
vn -0.8864 0.4543 0.0886
vn 0.9772 0.1672 0.1311
vn -0.0394 0.5661 -0.8234
vn 0.9702 0.1918 0.1483
vn -0.0662 -0.5845 0.8087
vn -0.0438 0.5647 -0.8241
vn 0.0707 0.5864 -0.8069
vn 0.0168 -0.5434 0.8393
vn -0.9503 0.2606 0.1704
vn -0.0618 -0.5834 0.8098
vn 0.0515 -0.5636 0.8244
vn 0.0739 0.5851 -0.8076
vn -0.9772 -0.1672 -0.1311
vn 0.7710 -0.5257 -0.3594
vn -0.1475 0.3914 -0.9083
vn -0.1692 -0.7209 0.6721
vn 0.7526 -0.5433 -0.3721
vn 0.3106 -0.6823 0.6618
vn 0.0392 0.6064 -0.7942
vn 0.5856 0.6591 0.4719
vn -0.5856 -0.6591 -0.4719
vn 0.9755 -0.1860 -0.1175
vn -0.1522 -0.7009 0.6968
vn -0.1304 0.4212 -0.8975
vn -0.9410 0.2826 0.1860
vn -0.4948 -0.7074 -0.5047
vn -0.1471 -0.6948 0.7040
vn -0.1251 0.4303 -0.8940
vn -0.9995 -0.0175 -0.0260
vn 0.8105 -0.4841 -0.3296
vn 0.3314 0.3886 -0.8597
vn -0.3764 -0.7552 -0.5367
vn 0.7613 0.5253 0.3802
usemtl Matériau.012
s off
f 131//28 132//28 134//28 133//28
f 138//29 137//29 141//29 142//29
f 137//30 138//30 136//30 135//30
f 153//31 154//31 132//31 131//31
f 151//32 137//32 135//32 153//32
f 152//33 134//33 132//33 154//33
f 142//34 141//34 145//34 146//34
f 151//35 133//35 140//35 155//35
f 152//36 138//36 142//36 156//36
f 133//37 134//37 139//37 140//37
f 158//38 146//38 150//38 160//38
f 155//39 140//39 144//39 157//39
f 156//40 142//40 146//40 158//40
f 140//41 139//41 143//41 144//41
f 149//42 159//42 163//42 166//42
f 144//43 143//43 147//43 148//43
f 146//44 145//44 149//44 150//44
f 157//45 144//45 148//45 159//45
f 145//46 157//46 159//46 149//46
f 148//47 147//47 161//47 162//47
f 139//48 156//48 158//48 143//48
f 141//49 155//49 157//49 145//49
f 143//50 158//50 160//50 147//50
f 134//51 152//51 156//51 139//51
f 137//52 151//52 155//52 141//52
f 138//53 152//53 154//53 136//53
f 133//54 151//54 153//54 131//54
f 135//55 136//55 154//55 153//55
f 165//56 166//56 172//56 171//56
f 161//57 164//57 170//57 167//57
f 150//58 149//58 166//58 165//58
f 159//59 148//59 162//59 163//59
f 147//60 160//60 164//60 161//60
f 160//61 150//61 165//61 164//61
f 172//62 169//62 180//62 179//62
f 168//63 167//63 173//63 174//63
f 163//64 162//64 168//64 169//64
f 166//65 163//65 169//65 172//65
f 164//66 165//66 171//66 170//66
f 162//67 161//67 167//67 168//67
f 176//68 175//68 183//68 184//68
f 167//69 170//69 176//69 173//69
f 169//70 168//70 174//70 175//70
f 170//71 169//71 175//71 176//71
f 179//72 180//72 192//72 191//72
f 170//73 171//73 178//73 177//73
f 171//74 172//74 179//74 178//74
f 169//75 170//75 177//75 180//75
f 184//76 183//76 187//76 188//76
f 175//77 174//77 182//77 183//77
f 173//78 176//78 184//78 181//78
f 174//79 173//79 181//79 182//79
f 186//80 185//80 188//80 187//80
f 183//81 182//81 186//81 187//81
f 181//82 184//82 188//82 185//82
f 182//83 181//83 185//83 186//83
f 192//84 189//84 190//84 191//84
f 177//85 178//85 190//85 189//85
f 180//86 177//86 189//86 192//86
f 178//87 179//87 191//87 190//87
f 193//88 194//88 196//88 195//88
f 200//89 199//89 203//89 204//89
f 199//90 200//90 198//90 197//90
f 215//91 216//91 194//91 193//91
f 213//92 199//92 197//92 215//92
f 214//93 196//93 194//93 216//93
f 204//94 203//94 207//94 208//94
f 213//95 195//95 202//95 217//95
f 214//96 200//96 204//96 218//96
f 195//97 196//97 201//97 202//97
f 220//98 208//98 212//98 222//98
f 217//99 202//99 206//99 219//99
f 218//100 204//100 208//100 220//100
f 202//101 201//101 205//101 206//101
f 211//102 221//102 225//102 228//102
f 206//103 205//103 209//103 210//103
f 208//104 207//104 211//104 212//104
f 219//105 206//105 210//105 221//105
f 207//106 219//106 221//106 211//106
f 210//107 209//107 223//107 224//107
f 201//108 218//108 220//108 205//108
f 203//109 217//109 219//109 207//109
f 205//110 220//110 222//110 209//110
f 196//111 214//111 218//111 201//111
f 199//112 213//112 217//112 203//112
f 200//113 214//113 216//113 198//113
f 195//114 213//114 215//114 193//114
f 197//115 198//115 216//115 215//115
f 227//116 228//116 234//116 233//116
f 223//117 226//117 232//117 229//117
f 212//118 211//118 228//118 227//118
f 221//119 210//119 224//119 225//119
f 209//120 222//120 226//120 223//120
f 222//121 212//121 227//121 226//121
f 234//122 231//122 242//122 241//122
f 230//123 229//123 235//123 236//123
f 225//124 224//124 230//124 231//124
f 228//125 225//125 231//125 234//125
f 226//126 227//126 233//126 232//126
f 224//127 223//127 229//127 230//127
f 238//128 237//128 245//128 246//128
f 229//129 232//129 238//129 235//129
f 231//130 230//130 236//130 237//130
f 232//131 231//131 237//131 238//131
f 241//132 242//132 254//132 253//132
f 232//133 233//133 240//133 239//133
f 233//134 234//134 241//134 240//134
f 231//135 232//135 239//135 242//135
f 246//136 245//136 249//136 250//136
f 237//137 236//137 244//137 245//137
f 235//138 238//138 246//138 243//138
f 236//139 235//139 243//139 244//139
f 248//140 247//140 250//140 249//140
f 245//141 244//141 248//141 249//141
f 243//142 246//142 250//142 247//142
f 244//143 243//143 247//143 248//143
f 254//144 251//144 252//144 253//144
f 239//145 240//145 252//145 251//145
f 242//146 239//146 251//146 254//146
f 240//147 241//147 253//147 252//147
