# Blender v2.91.2 OBJ File: 'camionnete02.blend'
# www.blender.org
mtllib arme_000111.mtl
o Cube.046_Cube.010
v 250.094666 519.697510 -1168.484131
v 257.264526 303.160767 -1208.975220
v 339.183655 559.599426 -1366.095093
v 346.353516 343.062683 -1406.586304
v 48.623005 529.635925 -1257.307129
v 55.792809 313.099091 -1297.798218
v 137.712021 569.537781 -1454.917847
v 144.881836 353.000977 -1495.409058
v 127.436745 464.760559 -896.413208
v 134.606552 248.223755 -936.904236
v -66.865082 258.162079 -1025.727051
v -74.034897 474.698853 -985.235962
v 71.926018 439.897919 -773.283081
v 79.095787 223.361145 -813.774170
v -122.375885 233.299438 -902.596924
v -129.545700 449.836273 -862.105896
v 39.132721 425.210236 -700.543457
v 49.981709 270.145386 -742.083191
v -151.490036 280.083740 -830.906006
v -162.338989 435.148560 -789.366150
v 64.778358 655.765320 -732.917175
v -136.693314 665.703613 -821.740051
v 31.985088 641.077637 -660.177490
v -169.486588 651.015930 -749.000244
v 146.573654 473.331726 -938.861206
v 153.743454 256.794952 -979.352295
v -54.898010 483.270020 -1027.684082
v -47.728241 266.733246 -1068.175049
v 125.069946 536.240967 -883.046753
v -76.401733 546.179321 -971.869629
v 144.206863 544.812134 -925.494751
v -57.264816 554.750427 -1014.317505
v 121.636124 639.947388 -863.654358
v -79.835541 649.885681 -952.477112
v 140.772980 648.518494 -906.102356
v -60.698662 658.456909 -994.925171
v 70.813828 511.940308 -762.699646
v -130.657883 521.878601 -851.522461
v 67.379967 615.646729 -743.307129
v -134.091705 625.585083 -832.129944
v 81.033646 799.422974 -753.714294
v -120.438034 809.361267 -842.537170
v 48.240353 784.735229 -680.974670
v -153.231277 794.673462 -769.797424
v 307.732483 545.512817 -1296.332397
v 314.902283 328.976074 -1336.823486
v 106.260834 555.451172 -1385.155151
v 113.430664 338.914368 -1425.646240
v 238.447830 564.568604 -1410.506470
v 245.617661 348.031799 -1450.997681
v 149.358856 524.666748 -1212.895752
v 156.528656 308.129913 -1253.386719
v 26.700928 469.729675 -940.824524
v 33.870728 253.192902 -981.315491
v -28.809830 444.867126 -817.694519
v -18.178902 235.544464 -842.894653
v -61.603104 430.179382 -744.954773
v -37.810616 267.091187 -794.553223
v -35.957504 660.734497 -777.328613
v -68.750748 646.046753 -704.588928
v 53.007614 261.764099 -1023.763672
v 45.837814 478.300903 -983.272705
v 24.334105 541.210144 -927.458191
v 43.471016 549.781250 -969.906189
v 20.900295 644.916565 -908.065674
v 40.037178 653.487671 -950.513794
v -29.922035 516.909485 -807.111084
v -33.355858 620.615906 -787.718506
v -19.702209 804.392090 -798.125732
v -52.495483 789.704346 -725.386047
v 214.166489 333.945190 -1381.234863
v 206.996674 550.482056 -1340.743652
v 288.815796 562.084045 -1388.300659
v 206.896561 305.645325 -1231.181030
v 84.238625 250.708374 -959.109985
v 15.784313 233.869110 -827.921326
v -3.847389 265.415833 -779.579834
v 96.205750 475.816284 -961.066895
v 93.838928 547.296631 -947.700500
v 90.405075 651.003174 -928.308044
v 257.364563 547.997437 -1318.538086
v 295.985596 345.547241 -1428.791992
v 199.726746 522.182129 -1190.690186
v 77.068840 467.245117 -918.618896
v 21.558073 442.382538 -795.488831
v -11.235199 427.694794 -722.749084
v 14.410442 658.249878 -755.122925
v -18.382820 643.562195 -682.383240
v 103.375534 259.279541 -1001.558044
v 74.702026 538.725525 -905.252441
v 71.268204 642.432007 -885.859985
v 20.445894 514.424866 -784.905396
v 17.012062 618.131287 -765.512817
v 30.665743 801.907532 -775.919983
v -2.127544 787.219788 -703.180359
v 264.534363 331.460632 -1359.029297
v 104.718002 218.735962 -1009.139465
v 54.350071 221.220520 -1031.344971
v 265.876801 290.917114 -1366.610596
v 215.508942 293.401642 -1388.816284
v 157.871094 267.586365 -1260.968018
v 208.239044 265.101807 -1238.762451
v 378.587891 473.730042 -1234.524414
v 353.101013 462.314819 -1177.991455
v 356.271545 366.564392 -1195.895874
v 381.758301 377.979706 -1252.429199
v 422.124878 471.582458 -1215.330444
v 396.638000 460.167206 -1158.797241
v 399.808472 364.416870 -1176.701904
v 425.295288 375.832092 -1233.235229
v 488.750305 468.296021 -1185.957520
v 463.263428 456.880676 -1129.424194
v 466.433838 361.130371 -1147.328857
v 491.920654 372.545654 -1203.862183
v 531.622986 466.181152 -1167.056152
v 506.136108 454.765869 -1110.523071
v 509.306641 359.015503 -1128.427734
v 534.793396 370.430786 -1184.960938
v 588.660339 476.632812 -2077.980957
v 538.292358 479.117371 -2100.186768
v 531.122437 695.654175 -2059.695557
v 581.490479 693.169556 -2037.489868
v 3.211468 872.822388 -802.092407
v -89.611176 877.401123 -843.015015
v -27.005760 859.288391 -735.066589
v -119.828339 863.867188 -775.989319
v 65.816864 854.709595 -694.143982
v 96.034134 868.243591 -761.169495
v 49.622818 870.533081 -781.630859
v 19.405556 856.998962 -714.605286
vn 0.9141 -0.0451 0.4030
vn 0.4042 0.1810 -0.8966
vn -0.9141 0.0451 -0.4030
vn -0.0325 0.9824 0.1837
vn 0.0325 -0.9824 -0.1837
vn -0.4042 -0.1810 0.8966
vn -0.2443 -0.8545 0.4584
vn -0.0525 -0.9811 -0.1865
vn -0.4718 -0.2857 0.8341
vn -0.9146 0.0444 -0.4019
vn 0.9146 -0.0444 0.4019
vn 0.3899 -0.1750 -0.9041
vn 0.3891 -0.1826 -0.9029
vn -0.3899 0.1750 0.9041
vn 0.7313 0.1487 -0.6657
vn -0.8663 0.3903 -0.3117
vn -0.3584 -0.2929 0.8864
vn 0.0567 -0.9889 -0.1374
vn -0.3784 0.2621 0.8877
vn -0.3954 -0.3196 0.8611
vn 0.0059 -0.9922 -0.1243
vn -0.0119 -0.1842 0.9828
vn 0.5315 -0.8442 0.0691
vn 0.4772 0.7945 0.3756
vn 0.9118 -0.1577 0.3792
usemtl Matériau.011
s off
f 45//1 46//1 4//1 3//1
f 49//2 50//2 8//2 7//2
f 47//3 48//3 6//3 5//3
f 26//1 25//1 9//1 10//1
f 72//4 47//4 5//4 51//4
f 96//5 46//5 2//5 74//5
f 10//1 9//1 13//1 14//1
f 84//6 9//6 29//6 90//6
f 89//5 26//5 10//5 75//5
f 27//3 28//3 11//3 12//3
f 76//7 14//7 18//7 77//7
f 75//8 10//8 14//8 76//8
f 12//3 11//3 15//3 16//3
f 53//4 12//4 16//4 55//4
f 86//9 77//9 18//9 17//9
f 16//10 15//10 19//10 20//10
f 16//3 20//3 24//3 22//3
f 14//11 13//11 17//11 18//11
f 59//12 22//12 42//12 69//12
f 86//6 17//6 23//6 88//6
f 17//1 13//1 21//1 23//1
f 55//2 16//2 22//2 59//2
f 5//3 6//3 28//3 27//3
f 74//5 2//5 26//5 89//5
f 51//4 5//4 27//4 62//4
f 2//1 1//1 25//1 26//1
f 32//3 30//3 34//3 36//3
f 62//2 27//2 32//2 64//2
f 27//3 12//3 30//3 32//3
f 9//1 25//1 31//1 29//1
f 66//4 36//4 34//4 65//4
f 90//5 29//5 37//5 92//5
f 64//2 32//2 36//2 66//2
f 29//1 31//1 35//1 33//1
f 92//6 37//6 39//6 93//6
f 29//1 33//1 39//1 37//1
f 34//3 30//3 38//3 40//3
f 65//4 34//4 40//4 68//4
f 69//13 42//13 124//13 123//13
f 23//1 21//1 41//1 43//1
f 88//14 23//14 43//14 95//14
f 22//3 24//3 44//3 42//3
f 82//5 4//5 46//5 96//5
f 49//4 7//4 47//4 72//4
f 7//3 8//3 48//3 47//3
f 46//15 45//15 103//15 106//15
f 73//4 49//4 72//4 81//4
f 8//5 50//5 71//5 48//5
f 24//14 60//14 70//14 44//14
f 42//16 44//16 126//16 124//16
f 91//4 65//4 68//4 93//4
f 38//6 67//6 68//6 40//6
f 79//2 64//2 66//2 80//2
f 30//5 63//5 67//5 38//5
f 80//4 66//4 65//4 91//4
f 78//2 62//2 64//2 79//2
f 83//4 51//4 62//4 78//4
f 6//5 52//5 61//5 28//5
f 85//2 55//2 59//2 87//2
f 20//6 57//6 60//6 24//6
f 87//12 59//12 69//12 94//12
f 20//17 19//17 58//17 57//17
f 84//4 53//4 55//4 85//4
f 11//18 54//18 56//18 15//18
f 15//7 56//7 58//7 19//7
f 28//5 61//5 54//5 11//5
f 12//6 53//6 63//6 30//6
f 48//5 71//5 52//5 6//5
f 81//4 72//4 51//4 83//4
f 50//3 49//3 121//3 120//3
f 3//2 4//2 82//2 73//2
f 45//4 81//4 83//4 1//4
f 9//4 84//4 85//4 13//4
f 21//12 87//12 94//12 41//12
f 13//2 85//2 87//2 21//2
f 1//4 83//4 78//4 25//4
f 25//2 78//2 79//2 31//2
f 35//4 80//4 91//4 33//4
f 31//2 79//2 80//2 35//2
f 33//4 91//4 93//4 39//4
f 70//19 95//19 130//19 125//19
f 3//4 73//4 81//4 45//4
f 50//5 82//5 96//5 71//5
f 60//14 88//14 95//14 70//14
f 67//6 92//6 93//6 68//6
f 63//5 90//5 92//5 67//5
f 52//3 71//3 100//3 101//3
f 57//6 86//6 88//6 60//6
f 57//20 58//20 77//20 86//20
f 54//21 75//21 76//21 56//21
f 56//7 76//7 77//7 58//7
f 61//5 89//5 75//5 54//5
f 53//6 84//6 90//6 63//6
f 89//6 61//6 98//6 97//6
f 101//5 102//5 97//5 98//5
f 100//5 99//5 102//5 101//5
f 61//3 52//3 101//3 98//3
f 74//1 89//1 97//1 102//1
f 71//2 96//2 99//2 100//2
f 96//1 74//1 102//1 99//1
f 106//2 103//2 107//2 110//2
f 1//22 2//22 105//22 104//22
f 2//23 46//23 106//23 105//23
f 45//24 1//24 104//24 103//24
f 109//5 110//5 114//5 113//5
f 104//6 105//6 109//6 108//6
f 105//5 106//5 110//5 109//5
f 103//4 104//4 108//4 107//4
f 113//5 114//5 118//5 117//5
f 107//4 108//4 112//4 111//4
f 110//2 107//2 111//2 114//2
f 108//6 109//6 113//6 112//6
f 116//1 117//1 118//1 115//1
f 111//4 112//4 116//4 115//4
f 114//2 111//2 115//2 118//2
f 122//2 119//2 120//2 121//2
f 82//5 50//5 120//5 119//5
f 73//1 82//1 119//1 122//1
f 49//4 73//4 122//4 121//4
f 123//4 124//4 126//4 125//4
f 129//4 123//4 125//4 130//4
f 128//4 129//4 130//4 127//4
f 95//19 43//19 127//19 130//19
f 94//13 69//13 123//13 129//13
f 43//25 41//25 128//25 127//25
f 44//19 70//19 125//19 126//19
f 41//13 94//13 129//13 128//13
o Cube.048_Cube.024
v -553.260193 489.602600 167.195099
v -700.337097 328.429260 63.324654
v -414.930359 491.066559 -30.946945
v -561.814331 328.422363 -136.574432
v -688.172119 630.743225 2.245350
v -763.582581 548.105103 -51.011917
v -617.246460 631.493835 -99.347603
v -692.395447 548.546997 -152.183777
v -367.452332 460.511871 -484.765411
v -274.740845 517.451172 -420.072998
v -338.889130 626.498230 -424.119598
v -431.600647 569.558899 -488.812103
v -265.806946 533.195557 -661.618103
v -197.643463 575.058716 -614.054626
v -244.806702 655.232544 -617.029846
v -312.970337 613.369385 -664.593262
v -201.723419 581.363281 -771.340576
v -151.910400 611.956238 -736.582031
v -186.376709 670.546143 -738.756165
v -236.189758 639.953247 -773.514832
v -487.232422 585.817383 -58.342102
v -642.977295 413.804382 -168.710419
v -634.155701 584.392883 151.979126
v -790.295959 413.287567 41.707932
v -301.413727 575.047729 -424.910339
v -399.838379 514.599487 -493.589386
v -210.549561 620.878845 -630.277039
v -282.913544 576.436035 -680.771484
v -155.258667 648.593201 -759.929626
v -208.141235 616.114990 -796.830322
v -157.162537 600.474792 -852.022461
v -107.349487 631.067810 -817.263794
v -109.149780 674.970764 -849.224976
v -162.032349 642.492493 -886.125671
v -190.318848 665.213867 -861.486145
v -140.505798 695.806824 -826.727417
v -125.812927 615.362671 -910.053406
v -75.999878 645.955688 -875.294800
v -77.800110 689.858459 -907.255920
v -130.682800 657.380310 -944.156555
v -158.969238 680.101685 -919.517151
v -109.156189 710.694580 -884.758423
v -85.370422 608.821350 -938.544617
v -53.308044 628.512634 -916.171997
v -54.466858 656.770935 -936.743958
v -88.505005 635.866211 -960.495300
v -130.009827 698.735352 -981.519958
v -158.296326 721.456726 -956.880432
v -108.483215 752.049744 -922.121704
v -77.127258 731.213562 -944.619202
v -58.357483 603.009766 -958.188110
v -36.741882 616.285034 -943.105042
v -37.523071 635.336060 -956.974060
v -60.470764 621.242676 -972.986511
v -35.678894 607.458923 -983.790222
v -22.166748 615.757507 -974.361633
v -22.655029 627.666443 -983.031311
v -36.999817 618.856445 -993.040955
v -125.783447 730.107178 -991.519348
v -144.591553 745.214844 -975.136292
v -111.470154 765.556519 -952.024658
v -90.621155 751.702271 -966.983582
v -259.388916 599.498535 338.001495
v -314.144043 365.014709 358.416931
v -113.761597 544.773926 153.163696
v -171.238342 315.240417 170.007675
v -424.934723 560.860474 147.129791
v -453.009216 440.634094 157.597351
v -346.274536 538.398804 50.209023
v -379.737488 415.113373 60.994656
v -13.760925 207.381348 -132.439667
v 91.266846 248.361053 -75.709480
v 106.643250 335.562042 -164.859589
v 3.505615 295.528351 -221.628235
v 117.597656 84.117737 -252.616699
v 195.208130 112.334778 -209.704132
v 207.902893 177.142517 -275.277527
v 130.292358 148.925415 -318.190094
v 201.797485 8.999146 -328.336426
v 258.514221 29.619873 -296.976440
v 267.791321 76.980408 -344.896515
v 211.074646 56.359741 -376.256531
v -208.490906 575.929504 91.226303
v -277.296814 327.106934 109.983658
v -370.879517 628.881958 288.329865
v -429.008789 379.948486 310.003357
v 106.678040 287.375580 -119.887520
v -5.387390 246.631683 -181.851044
v 214.032349 133.339233 -251.341614
v 131.639160 103.383484 -296.898529
v 279.425354 36.265991 -334.621338
v 219.213623 14.374634 -367.913788
v 251.613647 -54.652893 -376.578094
v 308.330261 -34.032166 -345.218201
v 335.273621 -29.765442 -392.208099
v 275.061890 -51.656738 -425.500671
v 265.995789 -9.306091 -432.406982
v 322.712463 11.314636 -401.047028
v 287.600220 -99.470154 -412.192963
v 344.316833 -78.849609 -380.832916
v 371.260315 -74.582947 -427.822998
v 311.048462 -96.474243 -461.115387
v 301.982300 -54.123352 -468.021698
v 358.699036 -33.502625 -436.661774
v 316.359802 -140.236023 -411.121796
v 352.865784 -126.963440 -390.936859
v 370.208069 -124.217163 -421.182220
v 331.452454 -138.307556 -442.611023
v 338.559021 -98.483215 -509.549286
v 329.492859 -56.132324 -516.455688
v 386.209656 -35.511841 -485.095612
v 398.770813 -76.591858 -476.256866
v 334.700012 -168.729858 -410.089020
v 359.311340 -159.781860 -396.480804
v 371.003235 -157.930542 -416.871643
v 344.875183 -167.429932 -431.318207
v 356.209412 -193.512329 -420.707886
v 371.594421 -187.918945 -412.201202
v 378.902771 -186.761353 -424.947662
v 362.570129 -192.699707 -433.978546
v 361.657654 -88.908875 -531.385742
v 355.629456 -60.749146 -535.977905
v 393.341125 -47.038147 -515.126221
v 401.693176 -74.352783 -509.249237
vn 0.5495 -0.7443 0.3795
vn -0.4469 0.8256 -0.3443
vn -0.5495 0.7436 -0.3808
vn -0.4061 -0.2036 0.8909
vn 0.2696 0.9430 0.1949
vn -0.5784 -0.7088 -0.4038
vn -0.4700 0.8772 -0.0985
vn 0.7552 0.5620 0.3374
vn -0.7473 -0.2507 -0.6154
vn 0.6244 -0.7723 0.1173
vn -0.7388 -0.3214 -0.5923
vn 0.8044 0.3977 0.4413
vn -0.7313 -0.3599 -0.5794
vn 0.5405 -0.8406 -0.0348
vn 0.6994 0.5017 0.5091
vn 0.5467 -0.8360 -0.0477
vn -0.4625 0.8796 -0.1114
vn 0.8271 0.3672 0.4254
vn 0.7091 0.5678 0.4180
vn 0.4893 -0.8697 0.0642
vn -0.6511 -0.4962 -0.5743
vn 0.7242 0.5340 0.4363
vn -0.6208 -0.5220 -0.5849
vn -0.5482 -0.6133 -0.5686
vn 0.4333 0.8595 0.2713
vn -0.7974 -0.2254 -0.5598
vn 0.6412 0.6199 0.4522
vn -0.7884 0.4470 0.4228
vn -0.4986 0.8656 -0.0473
vn -0.7056 -0.4940 -0.5079
vn -0.5126 0.8584 -0.0208
vn 0.7597 0.4004 0.5124
vn -0.7029 -0.4978 -0.5081
vn -0.7627 -0.3963 -0.5112
vn 0.6991 0.4731 0.5362
vn 0.1957 -0.8581 0.4748
vn 0.7573 0.4044 0.5128
vn 0.6989 0.5044 0.5070
vn -0.7629 -0.3934 -0.5131
vn 0.4986 -0.8655 0.0473
vn 0.0560 0.7083 -0.7037
vn -0.5329 -0.5696 -0.6257
vn 0.8826 0.2998 0.3621
vn 0.0753 0.6925 -0.7175
vn 0.6555 0.7106 0.2555
vn -0.7641 -0.4256 -0.4848
vn -0.6807 0.4971 0.5380
vn 0.6807 -0.4971 -0.5380
vn -0.2566 0.8777 -0.4048
vn 0.8652 0.3178 0.3879
vn -0.5629 -0.5592 -0.6086
vn 0.1770 -0.8506 0.4951
vn 0.6781 -0.4142 -0.6072
vn 0.8598 0.3231 0.3955
vn -0.5719 -0.5559 -0.6032
vn 0.4051 -0.8913 0.2039
vn 0.0121 0.7420 -0.6703
vn -0.7073 -0.1264 -0.6955
vn 0.6641 -0.3068 -0.6818
vn -0.6584 0.6591 0.3635
vn 0.7654 -0.1346 0.6293
vn -0.3022 0.4840 -0.8212
vn -0.7623 0.1374 -0.6325
vn -0.3648 0.1650 0.9164
vn -0.1581 0.9175 -0.3650
vn -0.1786 -0.9763 0.1225
vn 0.1727 0.6382 -0.7502
vn 0.7159 0.6940 -0.0762
vn -0.5883 -0.6828 -0.4331
vn 0.5529 -0.4368 0.7096
vn -0.7565 -0.2818 -0.5902
vn 0.8588 0.1903 0.4757
vn -0.7749 -0.2984 -0.5572
vn -0.0870 -0.7365 0.6708
vn 0.8402 0.3461 0.4175
vn -0.0863 -0.7536 0.6516
vn 0.1853 0.6332 -0.7515
vn 0.8604 0.1554 0.4854
vn 0.8921 0.3176 0.3213
vn -0.1564 -0.6714 0.7244
vn -0.7964 -0.4086 -0.4457
vn 0.8815 0.3195 0.3476
vn -0.7882 -0.4440 -0.4261
vn -0.4365 -0.8992 -0.0304
vn 0.3206 0.8549 -0.4079
vn -0.5710 -0.7896 -0.2245
vn 0.2965 0.9546 -0.0300
vn -0.9395 0.2406 0.2438
vn 0.1459 0.6847 -0.7141
vn -0.8404 -0.3382 -0.4235
vn 0.1295 0.7047 -0.6975
vn 0.8247 0.2637 0.5003
vn -0.8405 -0.3417 -0.4204
vn -0.8245 -0.2592 -0.5030
vn 0.8212 0.3483 0.4520
vn -0.3950 -0.2555 0.8824
vn 0.8253 0.2673 0.4975
vn 0.8416 0.3465 0.4144
vn -0.8229 -0.2587 -0.5060
vn -0.1459 -0.6847 0.7141
vn 0.5085 -0.0974 -0.8556
vn -0.7472 -0.5374 -0.3910
vn 0.8646 0.0486 0.5001
vn 0.5144 -0.1244 -0.8485
vn 0.9445 0.3113 0.1048
vn -0.8448 -0.2574 -0.4692
vn -0.2468 0.9522 -0.1797
vn 0.2468 -0.9522 0.1797
vn 0.3567 0.3413 -0.8696
vn 0.8611 0.0844 0.5014
vn -0.7649 -0.5067 -0.3976
vn -0.4059 -0.2292 0.8847
vn 0.2987 -0.9506 0.0849
vn 0.8598 0.0951 0.5016
vn -0.7701 -0.4972 -0.3996
vn -0.2411 -0.5514 0.7986
vn 0.4936 -0.0360 -0.8690
vn -0.6073 -0.2528 -0.7532
vn 0.3570 -0.9336 -0.0317
vn -0.1226 0.9165 -0.3809
usemtl Matériau.012
s off
f 131//26 132//26 134//26 133//26
f 138//27 137//27 141//27 142//27
f 137//28 138//28 136//28 135//28
f 153//29 154//29 132//29 131//29
f 151//30 137//30 135//30 153//30
f 152//31 134//31 132//31 154//31
f 142//32 141//32 145//32 146//32
f 151//33 133//33 140//33 155//33
f 152//34 138//34 142//34 156//34
f 133//35 134//35 139//35 140//35
f 158//36 146//36 150//36 160//36
f 155//37 140//37 144//37 157//37
f 156//38 142//38 146//38 158//38
f 140//39 139//39 143//39 144//39
f 149//40 159//40 163//40 166//40
f 144//41 143//41 147//41 148//41
f 146//42 145//42 149//42 150//42
f 157//43 144//43 148//43 159//43
f 145//44 157//44 159//44 149//44
f 148//45 147//45 161//45 162//45
f 139//46 156//46 158//46 143//46
f 141//47 155//47 157//47 145//47
f 143//48 158//48 160//48 147//48
f 134//49 152//49 156//49 139//49
f 137//50 151//50 155//50 141//50
f 138//51 152//51 154//51 136//51
f 133//52 151//52 153//52 131//52
f 135//53 136//53 154//53 153//53
f 165//54 166//54 172//54 171//54
f 161//55 164//55 170//55 167//55
f 150//56 149//56 166//56 165//56
f 159//57 148//57 162//57 163//57
f 147//58 160//58 164//58 161//58
f 160//59 150//59 165//59 164//59
f 172//60 169//60 180//60 179//60
f 168//61 167//61 173//61 174//61
f 163//62 162//62 168//62 169//62
f 166//63 163//63 169//63 172//63
f 164//64 165//64 171//64 170//64
f 162//65 161//65 167//65 168//65
f 176//66 175//66 183//66 184//66
f 167//67 170//67 176//67 173//67
f 169//68 168//68 174//68 175//68
f 170//69 169//69 175//69 176//69
f 179//70 180//70 192//70 191//70
f 170//71 171//71 178//71 177//71
f 171//72 172//72 179//72 178//72
f 169//73 170//73 177//73 180//73
f 184//74 183//74 187//74 188//74
f 175//75 174//75 182//75 183//75
f 173//76 176//76 184//76 181//76
f 174//77 173//77 181//77 182//77
f 186//78 185//78 188//78 187//78
f 183//79 182//79 186//79 187//79
f 181//80 184//80 188//80 185//80
f 182//81 181//81 185//81 186//81
f 192//82 189//82 190//82 191//82
f 177//83 178//83 190//83 189//83
f 180//84 177//84 189//84 192//84
f 178//85 179//85 191//85 190//85
f 193//86 194//86 196//86 195//86
f 200//87 199//87 203//87 204//87
f 199//88 200//88 198//88 197//88
f 215//89 216//89 194//89 193//89
f 213//90 199//90 197//90 215//90
f 214//91 196//91 194//91 216//91
f 204//92 203//92 207//92 208//92
f 213//93 195//93 202//93 217//93
f 214//94 200//94 204//94 218//94
f 195//95 196//95 201//95 202//95
f 220//96 208//96 212//96 222//96
f 217//97 202//97 206//97 219//97
f 218//98 204//98 208//98 220//98
f 202//99 201//99 205//99 206//99
f 211//100 221//100 225//100 228//100
f 206//101 205//101 209//101 210//101
f 208//102 207//102 211//102 212//102
f 219//103 206//103 210//103 221//103
f 207//104 219//104 221//104 211//104
f 210//105 209//105 223//105 224//105
f 201//106 218//106 220//106 205//106
f 203//107 217//107 219//107 207//107
f 205//108 220//108 222//108 209//108
f 196//109 214//109 218//109 201//109
f 199//110 213//110 217//110 203//110
f 200//111 214//111 216//111 198//111
f 195//112 213//112 215//112 193//112
f 197//113 198//113 216//113 215//113
f 227//114 228//114 234//114 233//114
f 223//115 226//115 232//115 229//115
f 212//116 211//116 228//116 227//116
f 221//117 210//117 224//117 225//117
f 209//118 222//118 226//118 223//118
f 222//119 212//119 227//119 226//119
f 234//120 231//120 242//120 241//120
f 230//121 229//121 235//121 236//121
f 225//122 224//122 230//122 231//122
f 228//123 225//123 231//123 234//123
f 226//124 227//124 233//124 232//124
f 224//125 223//125 229//125 230//125
f 238//126 237//126 245//126 246//126
f 229//127 232//127 238//127 235//127
f 231//128 230//128 236//128 237//128
f 232//129 231//129 237//129 238//129
f 241//130 242//130 254//130 253//130
f 232//131 233//131 240//131 239//131
f 233//132 234//132 241//132 240//132
f 231//133 232//133 239//133 242//133
f 246//134 245//134 249//134 250//134
f 237//135 236//135 244//135 245//135
f 235//136 238//136 246//136 243//136
f 236//137 235//137 243//137 244//137
f 248//138 247//138 250//138 249//138
f 245//139 244//139 248//139 249//139
f 243//140 246//140 250//140 247//140
f 244//141 243//141 247//141 248//141
f 254//142 251//142 252//142 253//142
f 239//143 240//143 252//143 251//143
f 242//144 239//144 251//144 254//144
f 240//145 241//145 253//145 252//145
