# Blender v2.91.2 OBJ File: 'camionnete02.blend'
# www.blender.org
mtllib arme_000242.mtl
o Cube.046_Cube.010
v 666.027710 472.717865 -275.131866
v 656.701660 343.436371 -453.396942
v 881.915405 502.524384 -308.042450
v 872.589600 373.242950 -486.307587
v 622.616211 648.720581 -400.501495
v 613.290039 519.439087 -578.766663
v 838.503784 678.527100 -433.412109
v 829.177979 549.245728 -611.677246
v 368.792938 431.680084 -229.820526
v 359.466827 302.398621 -408.085602
v 316.055267 478.401337 -533.455261
v 325.381317 607.682861 -355.190155
v 234.274567 413.107758 -209.314087
v 224.948578 283.826324 -387.579254
v 181.536896 459.829071 -512.948914
v 190.863007 589.110596 -334.683777
v 154.807220 402.136139 -197.199860
v 161.334808 309.793823 -328.800293
v 117.923126 485.796661 -454.169922
v 111.395569 578.138916 -322.569519
v 415.166962 438.082672 -236.889893
v 405.840973 308.801270 -415.154999
v 371.755463 614.085449 -362.259583
v 362.429352 484.804047 -540.524658
v 805.700439 492.001801 -296.424042
v 796.374512 362.720367 -474.689148
v 762.288818 668.004517 -421.793610
v 752.962769 538.723022 -600.058716
v 860.209717 590.525757 -370.727234
v 850.883789 461.244354 -548.992432
v 644.322021 560.719238 -337.816681
v 634.995850 431.437714 -516.081848
v 347.087067 519.681396 -292.505310
v 337.761017 390.399933 -470.770416
v 212.568756 501.109161 -271.998901
v 194.650726 368.891022 -435.587952
v 133.101410 490.137482 -259.884644
v 151.755798 386.401031 -395.953125
v 384.135101 396.802643 -477.839844
v 393.461151 526.084106 -299.574738
v 774.668701 450.721710 -537.374023
v 783.994507 580.003052 -359.108795
v 871.062500 546.525024 -339.384796
v 645.848755 387.437042 -484.739380
v 348.613983 346.399323 -439.428040
v 201.968842 339.221222 -414.453674
v 159.073914 356.731232 -374.818848
v 404.314056 482.083344 -268.232300
v 794.847534 536.002441 -327.766418
v 861.736572 417.243622 -517.650024
v 655.174927 516.718506 -306.474304
v 357.940033 475.680756 -261.162933
v 223.421661 457.108429 -240.656494
v 143.954315 446.136810 -228.542267
v 394.988068 352.801910 -446.497437
v 785.521606 406.721039 -506.031616
v 393.241852 328.595734 -479.875122
v 382.388947 372.596466 -511.217560
v 783.775391 382.514862 -539.409302
v 772.922485 426.515472 -570.751709
v 633.249756 407.231537 -549.459534
v 644.102539 363.230804 -518.117126
v 782.444214 376.371490 -287.354523
v 720.682373 367.844330 -277.939331
v 716.558472 310.677216 -356.766266
v 778.320435 319.204559 -366.181580
v 791.825439 338.338287 -260.262848
v 730.063477 329.811066 -250.847626
v 725.939575 272.644104 -329.674622
v 787.701538 281.171356 -339.089844
v 806.181396 280.135284 -218.803864
v 744.419556 271.608124 -209.388702
v 740.295532 214.441193 -288.215698
v 802.057617 222.968414 -297.630951
v 815.419189 242.682434 -192.125610
v 753.657471 234.155243 -182.710419
v 749.533569 176.988251 -261.537323
v 811.295410 185.515472 -270.952545
v 1570.969360 515.163818 -625.767151
v 1560.116455 559.164429 -657.109558
v 1569.442505 688.446045 -478.844421
v 1580.295288 644.445312 -447.501953
vn 0.1970 -0.7985 0.5688
vn 0.9795 0.1352 -0.1493
vn -0.1970 0.7985 -0.5688
vn 0.0423 0.5866 0.8088
vn -0.0423 -0.5866 -0.8088
vn -0.6824 -0.5282 -0.5052
vn -0.0887 -0.5257 -0.8460
vn -0.9909 -0.1340 0.0105
vn -0.1983 0.7981 -0.5690
vn 0.1983 -0.7981 0.5690
vn 0.9780 -0.1899 0.0866
vn -0.9687 -0.2349 0.0809
vn -0.0664 -0.6229 -0.7794
vn -0.9755 -0.2177 0.0322
vn -0.1067 -0.5942 -0.7972
vn -0.9795 -0.1352 0.1493
vn -0.8230 -0.4386 0.3611
vn 0.0734 -0.9298 -0.3607
vn 0.1440 0.0486 0.9884
usemtl Matériau.011
s off
f 25//1 26//1 4//1 3//1
f 29//2 30//2 8//2 7//2
f 27//3 28//3 6//3 5//3
f 22//1 21//1 9//1 10//1
f 42//4 27//4 5//4 31//4
f 56//5 26//5 2//5 44//5
f 10//1 9//1 13//1 14//1
f 55//5 22//5 10//5 45//5
f 23//3 24//3 11//3 12//3
f 46//6 14//6 18//6 47//6
f 45//7 10//7 14//7 46//7
f 12//3 11//3 15//3 16//3
f 33//4 12//4 16//4 35//4
f 54//8 47//8 18//8 17//8
f 16//9 15//9 19//9 20//9
f 14//10 13//10 17//10 18//10
f 5//3 6//3 24//3 23//3
f 44//5 2//5 22//5 55//5
f 31//4 5//4 23//4 40//4
f 2//1 1//1 21//1 22//1
f 50//5 4//5 26//5 56//5
f 29//4 7//4 27//4 42//4
f 7//3 8//3 28//3 27//3
f 26//11 25//11 63//11 66//11
f 43//4 29//4 42//4 49//4
f 8//5 30//5 41//5 28//5
f 51//4 31//4 40//4 48//4
f 6//5 32//5 39//5 24//5
f 20//12 19//12 38//12 37//12
f 52//4 33//4 35//4 53//4
f 11//13 34//13 36//13 15//13
f 15//6 36//6 38//6 19//6
f 24//5 39//5 34//5 11//5
f 28//5 41//5 32//5 6//5
f 49//4 42//4 31//4 51//4
f 30//3 29//3 81//3 80//3
f 3//2 4//2 50//2 43//2
f 25//4 49//4 51//4 1//4
f 9//4 52//4 53//4 13//4
f 1//4 51//4 48//4 21//4
f 3//4 43//4 49//4 25//4
f 30//5 50//5 56//5 41//5
f 32//3 41//3 60//3 61//3
f 37//14 38//14 47//14 54//14
f 34//15 45//15 46//15 36//15
f 36//6 46//6 47//6 38//6
f 39//5 55//5 45//5 34//5
f 55//16 39//16 58//16 57//16
f 61//5 62//5 57//5 58//5
f 60//5 59//5 62//5 61//5
f 39//3 32//3 61//3 58//3
f 44//1 55//1 57//1 62//1
f 41//2 56//2 59//2 60//2
f 56//1 44//1 62//1 59//1
f 66//2 63//2 67//2 70//2
f 1//17 2//17 65//17 64//17
f 2//18 26//18 66//18 65//18
f 25//19 1//19 64//19 63//19
f 69//5 70//5 74//5 73//5
f 64//16 65//16 69//16 68//16
f 65//5 66//5 70//5 69//5
f 63//4 64//4 68//4 67//4
f 73//5 74//5 78//5 77//5
f 67//4 68//4 72//4 71//4
f 70//2 67//2 71//2 74//2
f 68//16 69//16 73//16 72//16
f 76//1 77//1 78//1 75//1
f 71//4 72//4 76//4 75//4
f 74//2 71//2 75//2 78//2
f 82//2 79//2 80//2 81//2
f 50//5 30//5 80//5 79//5
f 43//1 50//1 79//1 82//1
f 29//4 43//4 82//4 81//4
o Cube.048_Cube.024
v -491.038788 555.455627 146.604706
v -639.601501 377.143372 79.288986
v -374.632019 538.149658 -64.458122
v -527.663208 363.498413 -147.035461
v -649.790710 669.977417 -17.751389
v -725.962952 578.551697 -52.266037
v -590.105713 661.104126 -125.969231
v -666.634033 570.308960 -162.216614
v -247.369324 527.870911 -460.456757
v -233.315674 478.061279 -344.940033
v -244.071503 593.395264 -293.900604
v -258.125122 643.204895 -409.417450
v -33.802979 562.872559 -452.983795
v -23.470520 526.251404 -368.053162
v -31.378418 611.047546 -330.527832
v -41.710876 647.668701 -415.458344
v 99.929443 585.836304 -445.624664
v 107.480347 559.074097 -383.558533
v 101.701355 621.041992 -356.135559
v 94.150513 647.804199 -418.201752
v -454.649628 625.783203 -94.832588
v -614.199829 441.923950 -178.563141
v -577.939880 644.421997 129.458389
v -735.657410 455.121643 57.994507
v -232.718781 534.878113 -316.240112
v -247.638428 587.757141 -438.875336
v -8.430481 569.828003 -347.951080
v -19.399780 608.705872 -438.115204
v 131.720032 592.555908 -369.774384
v 123.703857 620.967285 -435.665314
v 193.370056 594.117004 -453.422028
v 200.920898 567.354675 -391.355957
v 234.389465 607.276306 -375.917603
v 226.373352 635.687683 -441.808441
v 195.401428 661.534790 -424.599335
v 202.952332 634.772522 -362.533173
v 260.414673 601.286621 -458.487091
v 267.965576 574.524414 -396.420807
v 301.434265 614.445923 -380.982697
v 293.417786 642.857422 -446.873566
v 262.446045 668.704468 -429.664215
v 269.996887 641.942200 -367.598145
v 304.816040 578.593140 -460.395782
v 309.676208 561.367493 -420.446625
v 331.218323 587.063171 -410.509705
v 326.058777 605.350342 -452.920685
v 332.045837 681.250732 -435.018219
v 301.073792 707.097839 -417.808899
v 308.624817 680.335571 -355.742828
v 340.061951 652.839294 -369.127228
v 334.655334 562.722473 -463.054657
v 337.931946 551.109375 -436.122040
v 352.455139 568.432739 -429.422852
v 348.976746 580.761414 -458.015228
v 368.872986 558.392883 -463.027985
v 370.921326 551.133423 -446.192017
v 379.999817 561.962402 -442.004242
v 377.825500 569.669189 -459.877533
v 348.972717 701.645020 -415.028107
v 328.379089 718.830933 -403.585571
v 333.399841 701.036377 -362.316925
v 354.302917 682.753845 -371.216400
v -301.204773 463.811066 457.112183
v -434.793091 287.531952 359.760345
v -118.109009 363.501984 339.148407
v -238.912140 200.883362 247.866547
v -332.743774 540.519043 215.344788
v -401.238281 450.135773 165.429749
v -229.772949 490.344604 164.356201
v -300.804626 405.708557 108.058655
v 26.074463 136.514771 -34.176018
v -13.154663 30.198364 15.154427
v 81.470459 30.799438 94.432480
v 122.417419 135.678467 47.921211
v 153.295776 13.417847 -158.889252
v 122.460205 -66.952271 -123.521660
v 193.293640 -67.567261 -63.161812
v 224.129456 12.802979 -98.529518
v 233.804443 -65.406616 -234.856049
v 211.270081 -124.140076 -209.009918
v 263.034241 -124.589417 -164.899689
v 285.568542 -65.856018 -190.745789
v -144.708252 440.157745 267.272491
v -281.272064 272.420074 157.976501
v -347.403412 551.550293 380.116577
v -489.223907 364.408234 276.765564
v 34.133850 20.592773 52.768379
v 78.658997 136.643188 1.699394
v 167.443665 -79.244751 -104.690559
v 200.179382 6.078186 -142.237549
v 251.603943 -139.868774 -204.072144
v 275.526855 -77.515930 -231.511017
v 283.560425 -112.805115 -299.185059
v 261.026001 -171.538452 -273.338776
v 311.208801 -192.252808 -271.143646
v 335.131897 -129.899963 -298.582581
v 343.659607 -117.473816 -257.395935
v 321.125427 -176.207336 -231.549713
v 320.338928 -146.880554 -344.552765
v 297.804688 -205.613770 -318.706848
v 347.987488 -226.328430 -316.511566
v 371.910461 -163.975403 -343.950500
v 380.438171 -151.549194 -302.763733
v 357.903748 -210.282593 -276.917511
v 320.167847 -178.009155 -383.554108
v 305.663391 -215.813232 -366.918030
v 337.964050 -229.146240 -365.505310
v 353.362122 -189.012451 -383.166382
v 423.174133 -185.462036 -348.082153
v 431.701965 -173.035767 -306.895355
v 409.167664 -231.769165 -281.049133
v 399.251282 -247.814697 -320.643280
v 319.545715 -198.056519 -410.886200
v 309.767151 -223.542847 -399.670715
v 331.543396 -232.531738 -398.718475
v 341.924377 -205.474426 -410.625031
v 331.102966 -219.597839 -435.217285
v 324.990295 -235.529785 -428.206055
v 338.602722 -241.148560 -427.610657
v 345.092102 -224.234802 -435.053650
v 448.331238 -205.100281 -338.943848
v 454.001404 -196.837952 -311.558197
v 439.017883 -235.890381 -294.372681
v 432.424377 -246.559387 -320.699280
vn 0.6212 -0.6892 0.3731
vn -0.1140 0.9741 -0.1950
vn -0.6238 0.6754 -0.3933
vn -0.2987 -0.1090 0.9481
vn 0.2400 0.9694 0.0519
vn -0.5867 -0.7698 -0.2512
vn -0.0079 0.9179 0.3967
vn 0.7859 0.4372 0.4373
vn -0.5515 0.0190 -0.8340
vn 0.4539 -0.8750 0.1686
vn -0.0234 0.5069 -0.8617
vn 0.1966 -0.4533 0.8694
vn -0.0375 0.4729 -0.8803
vn 0.1616 -0.8989 -0.4073
vn 0.1046 -0.3369 0.9357
vn 0.1763 -0.8959 -0.4078
vn 0.0071 0.9186 0.3952
vn 0.2158 -0.4832 0.8485
vn 0.1960 -0.2710 0.9424
vn 0.0477 -0.9151 -0.4004
vn -0.0240 0.3287 -0.9441
vn 0.1832 -0.3091 0.9332
vn -0.0036 0.2947 -0.9556
vn -0.5081 -0.3747 -0.7755
vn 0.4816 0.7892 0.3811
vn -0.8523 -0.3035 -0.4259
vn 0.6513 0.6966 0.3011
vn -0.7617 0.4639 0.4523
vn -0.0673 0.9132 0.4019
vn -0.1074 0.3457 -0.9322
vn -0.0978 0.9095 0.4041
vn 0.1153 -0.4443 0.8884
vn -0.1064 0.3414 -0.9339
vn -0.1171 0.4486 -0.8860
vn 0.0769 -0.3640 0.9282
vn -0.4433 -0.8414 -0.3089
vn 0.1144 -0.4403 0.8906
vn 0.1065 -0.3341 0.9365
vn -0.1151 0.4513 -0.8849
vn 0.0673 -0.9132 -0.4019
vn 0.7375 0.6481 0.1897
vn 0.0691 0.2171 -0.9737
vn 0.2837 -0.5434 0.7901
vn 0.7563 0.6292 0.1793
vn 0.3238 -0.0883 0.9420
vn -0.1449 0.4221 -0.8949
vn -0.7123 0.6088 0.3492
vn 0.7123 -0.6088 -0.3492
vn 0.3571 0.8728 0.3329
vn 0.2571 -0.5284 0.8091
vn 0.0406 0.2388 -0.9702
vn -0.4686 -0.8305 -0.3011
vn 0.7829 -0.5310 -0.3242
vn 0.2490 -0.5238 0.8146
vn 0.0318 0.2454 -0.9689
vn -0.1157 -0.9171 -0.3814
vn 0.6930 0.6888 0.2127
vn 0.1172 0.6439 -0.7561
vn 0.8565 -0.4279 -0.2887
vn -0.5274 0.7550 0.3897
vn 0.1913 -0.5831 0.7896
vn 0.6976 0.7136 -0.0636
vn -0.1445 0.5950 -0.7906
vn -0.7302 0.1911 0.6559
vn 0.4697 0.8828 0.0056
vn -0.5399 -0.7639 -0.3535
vn 0.8011 -0.0467 0.5966
vn 0.8727 -0.0200 0.4879
vn -0.2567 0.0200 -0.9663
vn -0.1869 -0.8698 0.4567
vn 0.4703 0.8039 -0.3642
vn -0.3697 -0.8926 0.2580
vn 0.4342 0.8171 -0.3793
vn -0.7241 -0.0406 -0.6885
vn -0.2845 -0.8618 0.4199
vn -0.7062 -0.0401 -0.7068
vn 0.8095 -0.0533 0.5847
vn -0.3619 -0.9018 0.2360
vn -0.1847 -0.9034 0.3871
vn -0.7815 0.0256 -0.6233
vn 0.3138 0.8181 -0.4819
vn -0.1969 -0.8916 0.4077
vn 0.2931 0.8054 -0.5152
vn -0.6074 -0.4211 -0.6736
vn 0.8666 0.4972 -0.0435
vn -0.5776 -0.3592 -0.7330
vn 0.6178 0.6603 0.4270
vn -0.7618 0.6383 -0.1105
vn 0.7709 -0.0156 0.6367
vn 0.2910 0.8632 -0.4125
vn 0.7538 -0.0001 0.6571
vn -0.3739 -0.8617 0.3431
vn 0.2877 0.8628 -0.4158
vn 0.3769 0.8621 -0.3388
vn -0.3209 -0.8471 0.4237
vn -0.9402 0.2683 -0.2100
vn -0.3708 -0.8616 0.3465
vn -0.2812 -0.8628 0.4201
vn 0.3801 0.8608 -0.3384
vn -0.7709 0.0156 -0.6367
vn 0.9042 -0.4057 -0.1335
vn 0.2572 0.7547 -0.6035
vn -0.3832 -0.9143 0.1310
vn 0.8962 -0.4140 -0.1595
vn 0.0358 -0.9293 0.3676
vn 0.3410 0.8781 -0.3355
vn 0.2105 0.3250 0.9220
vn -0.2105 -0.3250 -0.9220
vn 0.9284 -0.2266 0.2944
vn -0.3824 -0.9088 0.1666
vn 0.2636 0.7750 -0.5744
vn -0.9420 0.2804 -0.1842
vn -0.1101 -0.3647 -0.9246
vn -0.3821 -0.9070 0.1771
vn 0.2655 0.7810 -0.5653
vn -0.8576 0.1078 -0.5028
vn 0.9197 -0.3855 -0.0741
vn 0.6523 0.6776 -0.3395
vn 0.0139 -0.4072 -0.9132
vn 0.4229 0.2242 0.8780
usemtl Matériau.012
s off
f 83//20 84//20 86//20 85//20
f 90//21 89//21 93//21 94//21
f 89//22 90//22 88//22 87//22
f 105//23 106//23 84//23 83//23
f 103//24 89//24 87//24 105//24
f 104//25 86//25 84//25 106//25
f 94//26 93//26 97//26 98//26
f 103//27 85//27 92//27 107//27
f 104//28 90//28 94//28 108//28
f 85//29 86//29 91//29 92//29
f 110//30 98//30 102//30 112//30
f 107//31 92//31 96//31 109//31
f 108//32 94//32 98//32 110//32
f 92//33 91//33 95//33 96//33
f 101//34 111//34 115//34 118//34
f 96//35 95//35 99//35 100//35
f 98//36 97//36 101//36 102//36
f 109//37 96//37 100//37 111//37
f 97//38 109//38 111//38 101//38
f 100//39 99//39 113//39 114//39
f 91//40 108//40 110//40 95//40
f 93//41 107//41 109//41 97//41
f 95//42 110//42 112//42 99//42
f 86//43 104//43 108//43 91//43
f 89//44 103//44 107//44 93//44
f 90//45 104//45 106//45 88//45
f 85//46 103//46 105//46 83//46
f 87//47 88//47 106//47 105//47
f 117//48 118//48 124//48 123//48
f 113//49 116//49 122//49 119//49
f 102//50 101//50 118//50 117//50
f 111//51 100//51 114//51 115//51
f 99//52 112//52 116//52 113//52
f 112//53 102//53 117//53 116//53
f 124//54 121//54 132//54 131//54
f 120//55 119//55 125//55 126//55
f 115//56 114//56 120//56 121//56
f 118//57 115//57 121//57 124//57
f 116//58 117//58 123//58 122//58
f 114//59 113//59 119//59 120//59
f 128//60 127//60 135//60 136//60
f 119//61 122//61 128//61 125//61
f 121//62 120//62 126//62 127//62
f 122//63 121//63 127//63 128//63
f 131//64 132//64 144//64 143//64
f 122//65 123//65 130//65 129//65
f 123//66 124//66 131//66 130//66
f 121//67 122//67 129//67 132//67
f 136//68 135//68 139//68 140//68
f 127//69 126//69 134//69 135//69
f 125//70 128//70 136//70 133//70
f 126//71 125//71 133//71 134//71
f 138//72 137//72 140//72 139//72
f 135//73 134//73 138//73 139//73
f 133//74 136//74 140//74 137//74
f 134//75 133//75 137//75 138//75
f 144//76 141//76 142//76 143//76
f 129//77 130//77 142//77 141//77
f 132//78 129//78 141//78 144//78
f 130//79 131//79 143//79 142//79
f 145//80 146//80 148//80 147//80
f 152//81 151//81 155//81 156//81
f 151//82 152//82 150//82 149//82
f 167//83 168//83 146//83 145//83
f 165//84 151//84 149//84 167//84
f 166//85 148//85 146//85 168//85
f 156//86 155//86 159//86 160//86
f 165//87 147//87 154//87 169//87
f 166//88 152//88 156//88 170//88
f 147//89 148//89 153//89 154//89
f 172//90 160//90 164//90 174//90
f 169//91 154//91 158//91 171//91
f 170//92 156//92 160//92 172//92
f 154//93 153//93 157//93 158//93
f 163//94 173//94 177//94 180//94
f 158//95 157//95 161//95 162//95
f 160//96 159//96 163//96 164//96
f 171//97 158//97 162//97 173//97
f 159//98 171//98 173//98 163//98
f 162//99 161//99 175//99 176//99
f 153//100 170//100 172//100 157//100
f 155//101 169//101 171//101 159//101
f 157//102 172//102 174//102 161//102
f 148//103 166//103 170//103 153//103
f 151//104 165//104 169//104 155//104
f 152//105 166//105 168//105 150//105
f 147//106 165//106 167//106 145//106
f 149//107 150//107 168//107 167//107
f 179//108 180//108 186//108 185//108
f 175//109 178//109 184//109 181//109
f 164//110 163//110 180//110 179//110
f 173//111 162//111 176//111 177//111
f 161//112 174//112 178//112 175//112
f 174//113 164//113 179//113 178//113
f 186//114 183//114 194//114 193//114
f 182//115 181//115 187//115 188//115
f 177//116 176//116 182//116 183//116
f 180//117 177//117 183//117 186//117
f 178//118 179//118 185//118 184//118
f 176//119 175//119 181//119 182//119
f 190//120 189//120 197//120 198//120
f 181//121 184//121 190//121 187//121
f 183//122 182//122 188//122 189//122
f 184//123 183//123 189//123 190//123
f 193//124 194//124 206//124 205//124
f 184//125 185//125 192//125 191//125
f 185//126 186//126 193//126 192//126
f 183//127 184//127 191//127 194//127
f 198//128 197//128 201//128 202//128
f 189//129 188//129 196//129 197//129
f 187//130 190//130 198//130 195//130
f 188//131 187//131 195//131 196//131
f 200//132 199//132 202//132 201//132
f 197//133 196//133 200//133 201//133
f 195//134 198//134 202//134 199//134
f 196//135 195//135 199//135 200//135
f 206//136 203//136 204//136 205//136
f 191//137 192//137 204//137 203//137
f 194//138 191//138 203//138 206//138
f 192//139 193//139 205//139 204//139
