# Blender v2.91.2 OBJ File: 'camionnete02.blend'
# www.blender.org
mtllib arme_000206.mtl
o Cube.046_Cube.010
v 31.350677 66.761612 -1236.632568
v -25.956825 -136.300644 -1172.909180
v 66.951721 -7.448196 -1441.094238
v 9.644180 -210.510483 -1377.370850
v -178.476639 109.630356 -1288.727295
v -235.784180 -93.431839 -1225.003906
v -142.875580 35.420578 -1493.188965
v -200.183151 -167.641708 -1429.465576
v -17.664932 168.933792 -955.129456
v -74.972450 -34.128403 -891.405945
v -284.799774 8.740402 -943.500549
v -227.492188 211.802597 -1007.224060
v -39.847626 215.173477 -827.730713
v -97.155228 12.111206 -764.007263
v -306.982544 54.980026 -816.101868
v -249.675018 258.042297 -879.825378
v -52.952271 242.489761 -752.469299
v -92.288261 90.182816 -718.651672
v -302.115631 133.051651 -770.746277
v -262.779602 285.358582 -804.563965
v -10.017563 152.993088 -999.049133
v -67.325119 -50.069138 -935.325623
v -219.844879 195.861893 -1051.143799
v -277.152466 -7.200348 -987.420227
v 54.383423 18.750168 -1368.913086
v -2.924133 -184.312119 -1305.189697
v -155.443848 61.618942 -1421.007568
v -212.751373 -141.443314 -1357.284180
v -37.961929 13.986221 -1467.141602
v -95.269508 -189.076126 -1403.418213
v -73.562958 88.195999 -1262.679932
v -130.870514 -114.866287 -1198.956543
v -122.578568 190.368210 -981.176697
v -179.886108 -12.694000 -917.453186
v -144.761322 236.607895 -853.778076
v -192.733810 44.514206 -780.547607
v -157.865906 263.924194 -778.516602
v -189.451996 97.158127 -749.964233
v -172.238800 -28.634781 -961.372925
v -114.931259 174.427475 -1025.096436
v -107.837791 -162.877701 -1331.236816
v -50.530212 40.184616 -1394.960205
v 14.494949 3.268997 -1454.117920
v -78.413689 -125.583450 -1185.932861
v -127.429306 -23.411240 -904.429688
v -157.362045 37.287537 -771.765808
v -154.080231 89.931442 -741.182312
v -62.474380 163.710251 -1012.072754
v 1.926605 29.467331 -1381.936768
v -42.812645 -199.793289 -1390.394531
v -21.106171 77.478775 -1249.656250
v -70.121765 179.651016 -968.153137
v -92.304489 225.890732 -840.754333
v -105.409103 253.207016 -765.492920
v -119.781982 -39.351974 -948.349304
v -55.380997 -173.594955 -1318.213379
v -130.511993 -77.372604 -936.417908
v -182.968826 -66.655380 -949.441528
v -66.111099 -211.615585 -1306.281982
v -118.567825 -200.898361 -1319.305664
v -141.600586 -152.886887 -1187.025146
v -89.143761 -163.604080 -1174.001465
v 120.429642 -42.565811 -1292.285889
v 110.244751 -21.335709 -1233.792969
v 84.904053 -111.127762 -1205.614746
v 95.088776 -132.357895 -1264.108154
v 165.772156 -51.829575 -1281.028564
v 155.587311 -30.599380 -1222.535400
v 130.246552 -120.391434 -1194.357666
v 140.431335 -141.621597 -1252.850830
v 235.160736 -66.005997 -1263.801514
v 224.975861 -44.775803 -1205.308350
v 199.635101 -134.567856 -1177.130371
v 209.819855 -155.798050 -1235.623535
v 279.811371 -75.128433 -1252.715820
v 269.626556 -53.898209 -1194.222656
v 244.285889 -143.690231 -1166.044922
v 254.470581 -164.920425 -1224.537842
v 74.143967 -443.586426 -2062.089844
v 21.687103 -432.869263 -2075.113525
v 78.994507 -229.806961 -2138.836914
v 131.451477 -240.524124 -2125.813232
vn 0.9520 -0.1945 0.2364
vn 0.1615 -0.3367 -0.9277
vn -0.9520 0.1945 -0.2364
vn 0.2600 0.9213 -0.2891
vn -0.2600 -0.9213 0.2891
vn -0.3016 -0.4648 0.8324
vn -0.3393 -0.8920 0.2988
vn -0.2674 0.2462 0.9316
vn -0.9523 0.1945 -0.2350
vn 0.9523 -0.1945 0.2350
vn 0.5231 -0.3861 -0.7598
vn -0.1491 0.2215 0.9637
vn -0.2259 -0.9169 0.3289
vn -0.1970 0.2016 0.9595
vn -0.2701 -0.8972 0.3495
vn -0.1615 0.3367 0.9277
vn 0.2261 0.2330 0.9458
vn 0.3084 -0.8757 0.3715
vn 0.7421 0.6610 -0.1107
usemtl Matériau.011
s off
f 25//1 26//1 4//1 3//1
f 29//2 30//2 8//2 7//2
f 27//3 28//3 6//3 5//3
f 22//1 21//1 9//1 10//1
f 42//4 27//4 5//4 31//4
f 56//5 26//5 2//5 44//5
f 10//1 9//1 13//1 14//1
f 55//5 22//5 10//5 45//5
f 23//3 24//3 11//3 12//3
f 46//6 14//6 18//6 47//6
f 45//7 10//7 14//7 46//7
f 12//3 11//3 15//3 16//3
f 33//4 12//4 16//4 35//4
f 54//8 47//8 18//8 17//8
f 16//9 15//9 19//9 20//9
f 14//10 13//10 17//10 18//10
f 5//3 6//3 24//3 23//3
f 44//5 2//5 22//5 55//5
f 31//4 5//4 23//4 40//4
f 2//1 1//1 21//1 22//1
f 50//5 4//5 26//5 56//5
f 29//4 7//4 27//4 42//4
f 7//3 8//3 28//3 27//3
f 26//11 25//11 63//11 66//11
f 43//4 29//4 42//4 49//4
f 8//5 30//5 41//5 28//5
f 51//4 31//4 40//4 48//4
f 6//5 32//5 39//5 24//5
f 20//12 19//12 38//12 37//12
f 52//4 33//4 35//4 53//4
f 11//13 34//13 36//13 15//13
f 15//6 36//6 38//6 19//6
f 24//5 39//5 34//5 11//5
f 28//5 41//5 32//5 6//5
f 49//4 42//4 31//4 51//4
f 30//3 29//3 81//3 80//3
f 3//2 4//2 50//2 43//2
f 25//4 49//4 51//4 1//4
f 9//4 52//4 53//4 13//4
f 1//4 51//4 48//4 21//4
f 3//4 43//4 49//4 25//4
f 30//5 50//5 56//5 41//5
f 32//3 41//3 60//3 61//3
f 37//14 38//14 47//14 54//14
f 34//15 45//15 46//15 36//15
f 36//6 46//6 47//6 38//6
f 39//5 55//5 45//5 34//5
f 55//16 39//16 58//16 57//16
f 61//5 62//5 57//5 58//5
f 60//5 59//5 62//5 61//5
f 39//3 32//3 61//3 58//3
f 44//1 55//1 57//1 62//1
f 41//2 56//2 59//2 60//2
f 56//1 44//1 62//1 59//1
f 66//2 63//2 67//2 70//2
f 1//17 2//17 65//17 64//17
f 2//18 26//18 66//18 65//18
f 25//19 1//19 64//19 63//19
f 69//5 70//5 74//5 73//5
f 64//16 65//16 69//16 68//16
f 65//5 66//5 70//5 69//5
f 63//4 64//4 68//4 67//4
f 73//5 74//5 78//5 77//5
f 67//4 68//4 72//4 71//4
f 70//2 67//2 71//2 74//2
f 68//16 69//16 73//16 72//16
f 76//1 77//1 78//1 75//1
f 71//4 72//4 76//4 75//4
f 74//2 71//2 75//2 78//2
f 82//2 79//2 80//2 81//2
f 50//5 30//5 80//5 79//5
f 43//1 50//1 79//1 82//1
f 29//4 43//4 82//4 81//4
o Cube.048_Cube.024
v -472.288025 570.976685 131.058075
v -663.020386 423.223694 117.354980
v -383.760895 475.582275 -72.560249
v -575.125061 327.490631 -86.758858
v -616.275574 677.467529 -51.308578
v -714.069397 601.710510 -58.334557
v -570.885254 628.556213 -155.709442
v -668.193237 552.978455 -162.363770
v -461.647430 276.326660 -471.965240
v -343.393341 318.421387 -455.637054
v -377.658447 431.900940 -500.032074
v -495.912567 389.806274 -516.360413
v -400.531555 233.913147 -675.330627
v -313.588501 264.862183 -663.325623
v -338.780945 348.294891 -695.965942
v -425.724030 317.345886 -707.970886
v -360.924805 209.869415 -803.076660
v -297.387787 232.486511 -794.303833
v -315.798126 293.458069 -818.156738
v -379.334961 270.841003 -826.929871
v -444.075043 570.162170 -121.326088
v -646.118896 414.108948 -135.460968
v -538.137573 671.522339 94.792236
v -740.623413 514.664429 80.244736
v -355.582275 374.819763 -482.522736
v -481.123657 330.131042 -499.857208
v -319.124817 302.010864 -696.770386
v -411.425659 269.154694 -709.515076
v -298.325836 255.717529 -831.155212
v -365.778137 231.706604 -840.468933
v -338.117523 179.160889 -889.084412
v -274.580841 201.777954 -880.311340
v -274.795807 227.291260 -928.282654
v -342.248108 203.280396 -937.596375
v -355.916107 242.063904 -922.348022
v -292.379272 264.680969 -913.575012
v -322.087524 158.288330 -951.369385
v -258.550690 180.905518 -942.596375
v -258.765686 206.418701 -990.567810
v -326.217773 182.407776 -999.881409
v -339.885986 221.191376 -984.632996
v -276.349030 243.808472 -975.860046
v -294.342621 127.613037 -979.286316
v -253.446747 142.170715 -973.639587
v -253.585175 158.592407 -1004.516418
v -297.001160 143.137695 -1010.511414
v -326.304413 202.775940 -1051.764282
v -339.972534 241.559418 -1036.515869
v -276.435486 264.176483 -1027.742920
v -258.852173 226.786743 -1042.450562
v -276.335052 105.652771 -997.801819
v -248.764252 115.467163 -993.994690
v -248.857574 126.538269 -1014.810974
v -278.127350 116.119019 -1018.852722
v -261.572876 91.594482 -1025.623047
v -244.338165 97.729614 -1023.243225
v -244.396362 104.650208 -1036.255737
v -262.693359 98.137085 -1038.782349
v -317.667877 224.153931 -1075.648071
v -326.755951 249.941589 -1065.509033
v -284.509399 264.980042 -1059.675903
v -272.817932 240.119019 -1069.455200
v -319.573547 425.325287 486.551361
v -377.526489 243.622833 338.149078
v -151.161316 501.350677 326.936096
v -213.934387 321.891418 178.432983
v -461.992584 538.890381 307.246857
v -491.706665 445.726440 231.156860
v -367.175659 580.681763 226.176331
v -407.828430 485.856903 149.265930
v -142.571960 375.683441 -91.272133
v -70.540222 297.270325 -26.180511
v 31.854919 352.411957 -70.566566
v -37.226501 430.141479 -135.536133
v -121.622192 238.795532 -257.748291
v -70.035034 177.579529 -210.288574
v 7.417236 217.618256 -242.832428
v -44.169922 278.834320 -290.292206
v -105.683411 152.648315 -361.625610
v -67.984192 107.912415 -326.942719
v -11.383118 137.172363 -350.725220
v -49.082336 181.908203 -385.408234
v -232.142853 569.618835 292.309052
v -312.230469 379.727478 133.880219
v -424.379517 489.535339 460.985870
v -485.903687 296.635773 303.438507
v -17.631409 313.624817 -51.262276
v -92.120544 402.017670 -119.791573
v -29.919739 184.051941 -239.921112
v -84.685791 249.040436 -290.305359
v -38.810547 104.370300 -359.113159
v -78.832825 151.862976 -395.933319
v -109.627563 92.970886 -434.313568
v -71.928406 48.234985 -399.630524
v -38.073181 41.099365 -441.524750
v -78.095459 88.591980 -478.345062
v -49.064636 119.189514 -466.325348
v -11.365417 74.453613 -431.642365
v -111.349670 50.654297 -487.023834
v -73.650574 5.918457 -452.340851
v -39.795349 -1.217407 -494.235138
v -79.817688 46.275330 -531.055481
v -50.786682 76.872925 -519.035583
v -13.087524 32.137024 -484.352692
v -126.060486 6.288025 -504.497955
v -101.795288 -22.506348 -482.174164
v -80.004211 -27.099365 -509.139801
v -105.764832 3.469543 -532.839172
v -49.904968 35.915894 -576.931702
v -20.874084 66.513489 -564.911804
v 16.825195 21.777466 -530.229065
v -9.882629 -11.576782 -540.111511
v -137.439514 -23.354431 -516.379456
v -121.080627 -42.766968 -501.329254
v -106.389709 -45.863586 -519.508911
v -123.756653 -25.254639 -535.486450
v -140.423889 -50.552246 -537.378662
v -130.197693 -62.687195 -527.970520
v -121.014160 -64.622803 -539.334595
v -131.870544 -51.740051 -549.322449
v -22.413635 27.734680 -593.645203
v -3.110657 48.079468 -585.653015
v 21.956055 18.334045 -562.591858
v 4.197571 -3.843628 -569.162781
vn 0.4925 -0.6865 0.5349
vn -0.3474 0.7471 -0.5668
vn -0.4933 0.6845 -0.5367
vn -0.2224 0.1986 0.9545
vn 0.4550 0.8659 -0.2080
vn -0.7609 -0.6483 -0.0275
vn -0.2519 0.8711 -0.4217
vn 0.9084 0.4162 -0.0399
vn -0.9075 -0.2433 -0.3423
vn 0.4734 -0.8216 0.3176
vn -0.9324 -0.2528 -0.2585
vn 0.9683 0.2360 0.0814
vn -0.9310 -0.2830 -0.2304
vn 0.2879 -0.9165 0.2777
vn 0.9156 0.3873 0.1082
vn 0.2910 -0.9198 0.2633
vn -0.2480 0.8655 -0.4351
vn 0.9775 0.1959 0.0782
vn 0.9145 0.4046 -0.0034
vn 0.2618 -0.8849 0.3854
vn -0.8882 -0.4249 -0.1749
vn 0.9255 0.3778 0.0259
vn -0.8693 -0.4615 -0.1768
vn -0.7788 -0.6005 -0.1811
vn 0.6394 0.7515 -0.1622
vn -0.9276 -0.2086 -0.3099
vn 0.8181 0.5680 0.0896
vn -0.5901 0.7297 0.3453
vn -0.2665 0.8911 -0.3672
vn -0.9192 -0.3783 -0.1098
vn -0.2737 0.9002 -0.3387
vn 0.9479 0.2816 0.1489
vn -0.9176 -0.3825 -0.1087
vn -0.9493 -0.2765 -0.1493
vn 0.9161 0.3737 0.1452
vn 0.1100 -0.6127 0.7826
vn 0.9468 0.2860 0.1478
vn 0.9152 0.3890 0.1052
vn -0.9494 -0.2747 -0.1523
vn 0.2665 -0.8911 0.3672
vn 0.0215 0.3086 -0.9510
vn -0.8111 -0.5483 -0.2036
vn 0.9945 0.0944 0.0457
vn 0.0316 0.2830 -0.9586
vn 0.8527 0.4811 -0.2035
vn -0.9502 -0.2906 -0.1125
vn -0.3567 0.8694 0.3419
vn 0.3567 -0.8694 -0.3419
vn -0.1417 0.6779 -0.7214
vn 0.9901 0.1259 0.0625
vn -0.8315 -0.5225 -0.1890
vn 0.1003 -0.5920 0.7997
vn 0.3544 -0.8249 -0.4403
vn 0.9885 0.1353 0.0675
vn -0.8375 -0.5144 -0.1844
vn 0.2185 -0.8194 0.5300
vn -0.0016 0.3654 -0.9308
vn -0.8856 -0.1377 -0.4435
vn 0.3461 -0.7578 -0.5531
vn -0.3469 0.9313 0.1111
vn 0.6869 -0.5846 0.4318
vn 0.1675 0.9550 -0.2446
vn -0.6706 0.6028 -0.4323
vn -0.4680 -0.4647 0.7517
vn -0.1031 0.9355 0.3380
vn -0.1966 -0.7858 -0.5864
vn 0.8261 0.3825 -0.4139
vn 0.9112 0.3920 0.1271
vn -0.6658 -0.2038 -0.7178
vn 0.2455 -0.9270 0.2836
vn -0.4520 0.6402 -0.6211
vn 0.4655 -0.7424 0.4817
vn -0.4858 0.6379 -0.5975
vn -0.8215 -0.4829 0.3032
vn 0.6044 -0.6295 0.4883
vn -0.8296 -0.4856 0.2754
vn 0.8277 0.3711 -0.4209
vn 0.4500 -0.7603 0.4684
vn 0.6438 -0.6601 0.3870
vn -0.8313 -0.4067 0.3790
vn -0.6175 0.5699 -0.5422
vn 0.6438 -0.6471 0.4085
vn -0.6458 0.5400 -0.5397
vn -0.5788 -0.6968 -0.4236
vn 0.5625 0.8226 -0.0832
vn -0.5451 -0.3828 -0.7459
vn 0.2892 0.7015 0.6513
vn -0.9602 0.0906 0.2640
vn 0.8319 0.4191 -0.3637
vn -0.5967 0.6352 -0.4904
vn 0.8323 0.4382 -0.3395
vn 0.5065 -0.6808 0.5292
vn -0.6004 0.6327 -0.4891
vn -0.5021 0.6836 -0.5297
vn 0.5841 -0.6222 0.5213
vn -0.7048 -0.0451 0.7079
vn 0.5105 -0.6786 0.5281
vn 0.6065 -0.6295 0.4856
vn -0.4998 0.6833 -0.5322
vn -0.8319 -0.4191 0.3637
vn 0.4945 -0.2326 -0.8375
vn -0.7043 0.4498 -0.5491
vn 0.3670 -0.8215 0.4365
vn 0.4752 -0.2529 -0.8427
vn 0.7393 -0.6471 0.1861
vn -0.5233 0.6919 -0.4974
vn 0.6362 0.7299 0.2500
vn -0.6362 -0.7299 -0.2500
vn 0.7436 0.1162 -0.6584
vn 0.3916 -0.8009 0.4529
vn -0.6892 0.4816 -0.5414
vn -0.6919 -0.0236 0.7216
vn -0.5746 -0.7457 -0.3373
vn 0.3989 -0.7946 0.4577
vn -0.6843 0.4912 -0.5389
vn -0.8131 -0.2972 0.5005
vn 0.5367 -0.1859 -0.8231
vn -0.2921 0.5768 -0.7628
vn -0.4906 -0.7532 -0.4382
vn 0.7454 0.6649 0.0474
usemtl Matériau.012
s off
f 83//20 84//20 86//20 85//20
f 90//21 89//21 93//21 94//21
f 89//22 90//22 88//22 87//22
f 105//23 106//23 84//23 83//23
f 103//24 89//24 87//24 105//24
f 104//25 86//25 84//25 106//25
f 94//26 93//26 97//26 98//26
f 103//27 85//27 92//27 107//27
f 104//28 90//28 94//28 108//28
f 85//29 86//29 91//29 92//29
f 110//30 98//30 102//30 112//30
f 107//31 92//31 96//31 109//31
f 108//32 94//32 98//32 110//32
f 92//33 91//33 95//33 96//33
f 101//34 111//34 115//34 118//34
f 96//35 95//35 99//35 100//35
f 98//36 97//36 101//36 102//36
f 109//37 96//37 100//37 111//37
f 97//38 109//38 111//38 101//38
f 100//39 99//39 113//39 114//39
f 91//40 108//40 110//40 95//40
f 93//41 107//41 109//41 97//41
f 95//42 110//42 112//42 99//42
f 86//43 104//43 108//43 91//43
f 89//44 103//44 107//44 93//44
f 90//45 104//45 106//45 88//45
f 85//46 103//46 105//46 83//46
f 87//47 88//47 106//47 105//47
f 117//48 118//48 124//48 123//48
f 113//49 116//49 122//49 119//49
f 102//50 101//50 118//50 117//50
f 111//51 100//51 114//51 115//51
f 99//52 112//52 116//52 113//52
f 112//53 102//53 117//53 116//53
f 124//54 121//54 132//54 131//54
f 120//55 119//55 125//55 126//55
f 115//56 114//56 120//56 121//56
f 118//57 115//57 121//57 124//57
f 116//58 117//58 123//58 122//58
f 114//59 113//59 119//59 120//59
f 128//60 127//60 135//60 136//60
f 119//61 122//61 128//61 125//61
f 121//62 120//62 126//62 127//62
f 122//63 121//63 127//63 128//63
f 131//64 132//64 144//64 143//64
f 122//65 123//65 130//65 129//65
f 123//66 124//66 131//66 130//66
f 121//67 122//67 129//67 132//67
f 136//68 135//68 139//68 140//68
f 127//69 126//69 134//69 135//69
f 125//70 128//70 136//70 133//70
f 126//71 125//71 133//71 134//71
f 138//72 137//72 140//72 139//72
f 135//73 134//73 138//73 139//73
f 133//74 136//74 140//74 137//74
f 134//75 133//75 137//75 138//75
f 144//76 141//76 142//76 143//76
f 129//77 130//77 142//77 141//77
f 132//78 129//78 141//78 144//78
f 130//79 131//79 143//79 142//79
f 145//80 146//80 148//80 147//80
f 152//81 151//81 155//81 156//81
f 151//82 152//82 150//82 149//82
f 167//83 168//83 146//83 145//83
f 165//84 151//84 149//84 167//84
f 166//85 148//85 146//85 168//85
f 156//86 155//86 159//86 160//86
f 165//87 147//87 154//87 169//87
f 166//88 152//88 156//88 170//88
f 147//89 148//89 153//89 154//89
f 172//90 160//90 164//90 174//90
f 169//91 154//91 158//91 171//91
f 170//92 156//92 160//92 172//92
f 154//93 153//93 157//93 158//93
f 163//94 173//94 177//94 180//94
f 158//95 157//95 161//95 162//95
f 160//96 159//96 163//96 164//96
f 171//97 158//97 162//97 173//97
f 159//98 171//98 173//98 163//98
f 162//99 161//99 175//99 176//99
f 153//100 170//100 172//100 157//100
f 155//101 169//101 171//101 159//101
f 157//102 172//102 174//102 161//102
f 148//103 166//103 170//103 153//103
f 151//104 165//104 169//104 155//104
f 152//105 166//105 168//105 150//105
f 147//106 165//106 167//106 145//106
f 149//107 150//107 168//107 167//107
f 179//108 180//108 186//108 185//108
f 175//109 178//109 184//109 181//109
f 164//110 163//110 180//110 179//110
f 173//111 162//111 176//111 177//111
f 161//112 174//112 178//112 175//112
f 174//113 164//113 179//113 178//113
f 186//114 183//114 194//114 193//114
f 182//115 181//115 187//115 188//115
f 177//116 176//116 182//116 183//116
f 180//117 177//117 183//117 186//117
f 178//118 179//118 185//118 184//118
f 176//119 175//119 181//119 182//119
f 190//120 189//120 197//120 198//120
f 181//121 184//121 190//121 187//121
f 183//122 182//122 188//122 189//122
f 184//123 183//123 189//123 190//123
f 193//124 194//124 206//124 205//124
f 184//125 185//125 192//125 191//125
f 185//126 186//126 193//126 192//126
f 183//127 184//127 191//127 194//127
f 198//128 197//128 201//128 202//128
f 189//129 188//129 196//129 197//129
f 187//130 190//130 198//130 195//130
f 188//131 187//131 195//131 196//131
f 200//132 199//132 202//132 201//132
f 197//133 196//133 200//133 201//133
f 195//134 198//134 202//134 199//134
f 196//135 195//135 199//135 200//135
f 206//136 203//136 204//136 205//136
f 191//137 192//137 204//137 203//137
f 194//138 191//138 203//138 206//138
f 192//139 193//139 205//139 204//139
