# Blender v2.91.2 OBJ File: 'camionnete02.blend'
# www.blender.org
mtllib arme_000228.mtl
o Cube.046_Cube.010
v 385.429138 493.508881 -933.937744
v 341.953735 287.599213 -999.437561
v 528.664429 516.068848 -1099.931030
v 485.189026 310.159332 -1165.430908
v 223.649536 568.817505 -1063.301880
v 180.174072 362.907806 -1128.801636
v 366.884766 591.377441 -1229.295166
v 323.409424 385.467865 -1294.795166
v 188.222534 462.448090 -705.397766
v 144.747070 256.538544 -770.897583
v -17.032516 331.847076 -900.261658
v 26.442902 537.756714 -834.761841
v 98.973572 448.391083 -601.968323
v 55.498169 242.481476 -667.468262
v -106.281494 317.790009 -796.832336
v -62.806076 523.699707 -731.332520
v 46.249298 440.086761 -540.866943
v 23.558228 291.635651 -598.622803
v -138.221436 366.944305 -727.986816
v -115.530365 515.395386 -670.230957
v 218.990387 467.294159 -741.054199
v 175.514984 261.384552 -806.554016
v 57.210754 542.602783 -870.418274
v 13.735291 336.693146 -935.918091
v 478.097900 508.104584 -1041.330322
v 434.622559 302.194916 -1106.830200
v 316.318298 583.413086 -1170.694336
v 272.842896 377.503448 -1236.194092
v 447.774536 553.723267 -1164.613037
v 404.299194 347.813568 -1230.113037
v 304.539368 531.163208 -998.619751
v 261.063904 325.253510 -1064.119629
v 107.332703 500.102386 -770.079712
v 63.857269 294.192780 -835.579590
v 18.083740 486.045380 -666.650391
v -24.006638 285.074493 -715.672241
v -34.640518 477.741119 -605.549011
v -45.543793 318.219330 -669.249573
v 94.625122 299.038788 -871.236084
v 138.100555 504.948456 -805.736206
v 353.732666 339.849213 -1171.512207
v 397.208130 545.758789 -1106.012207
v 488.219482 534.896118 -1132.271851
v 301.508789 306.426361 -1031.778564
v 104.302185 275.365631 -803.238647
v 3.265442 272.379303 -693.864624
v -18.271698 305.524139 -647.441895
v 178.545441 486.121246 -773.395142
v 437.653076 526.931763 -1073.671387
v 444.744080 328.986420 -1197.771973
v 344.984253 512.336060 -966.278809
v 147.777618 481.275238 -737.738770
v 58.528656 467.218231 -634.309326
v 5.804382 458.913910 -573.207947
v 135.070038 280.211700 -838.895081
v 394.177612 321.022064 -1139.171265
v 126.929901 241.657928 -851.158997
v 86.484955 260.485077 -883.500000
v 386.037415 282.468353 -1151.435303
v 345.592529 301.295441 -1183.776367
v 252.923706 286.699738 -1076.383667
v 293.368652 267.872650 -1044.042480
v 508.325439 414.857819 -975.112305
v 467.348206 408.403778 -927.624390
v 448.123901 317.352631 -956.587585
v 489.101074 323.806732 -1004.075684
v 543.285156 398.584137 -947.157471
v 502.307983 392.130035 -899.669495
v 483.083618 301.078888 -928.632812
v 524.060791 307.532990 -976.120789
v 596.784729 373.680084 -904.377625
v 555.807495 367.226044 -856.889648
v 536.583130 276.174896 -885.853088
v 577.560303 282.628998 -933.341187
v 631.210999 357.654633 -876.849487
v 590.233765 351.200531 -829.361511
v 571.009521 260.149384 -858.324829
v 611.986633 266.603546 -905.812805
v 915.299438 403.100677 -1743.091431
v 874.854492 421.927826 -1775.432495
v 918.329956 627.837524 -1709.932495
v 958.774902 609.010376 -1677.591431
vn 0.7340 -0.3417 0.5869
vn 0.6499 0.1024 -0.7531
vn -0.7340 0.3417 -0.5869
vn 0.1973 0.9342 0.2972
vn -0.1973 -0.9342 -0.2972
vn -0.5792 -0.7662 0.2783
vn -0.2750 -0.9071 -0.3186
vn -0.7260 -0.1780 0.6642
vn -0.7350 0.3411 -0.5861
vn 0.7350 -0.3411 0.5861
vn -0.1972 -0.9342 -0.2972
vn 0.8863 -0.0404 -0.4614
vn 0.1972 0.9342 0.2972
vn -0.6360 -0.2221 0.7390
vn -0.1883 -0.9503 -0.2479
vn -0.6714 -0.2348 0.7029
vn -0.2396 -0.9389 -0.2470
vn -0.6499 -0.1024 0.7531
vn -0.3086 -0.2286 0.9233
vn 0.2405 -0.9677 0.0760
vn 0.5695 0.5906 0.5717
usemtl Matériau.011
s off
f 25//1 26//1 4//1 3//1
f 29//2 30//2 8//2 7//2
f 27//3 28//3 6//3 5//3
f 22//1 21//1 9//1 10//1
f 42//4 27//4 5//4 31//4
f 56//5 26//5 2//5 44//5
f 10//1 9//1 13//1 14//1
f 55//5 22//5 10//5 45//5
f 23//3 24//3 11//3 12//3
f 46//6 14//6 18//6 47//6
f 45//7 10//7 14//7 46//7
f 12//3 11//3 15//3 16//3
f 33//4 12//4 16//4 35//4
f 54//8 47//8 18//8 17//8
f 16//9 15//9 19//9 20//9
f 14//10 13//10 17//10 18//10
f 5//3 6//3 24//3 23//3
f 44//5 2//5 22//5 55//5
f 31//4 5//4 23//4 40//4
f 2//1 1//1 21//1 22//1
f 50//11 4//11 26//11 56//11
f 29//4 7//4 27//4 42//4
f 7//3 8//3 28//3 27//3
f 26//12 25//12 63//12 66//12
f 43//13 29//13 42//13 49//13
f 8//5 30//5 41//5 28//5
f 51//4 31//4 40//4 48//4
f 6//5 32//5 39//5 24//5
f 20//14 19//14 38//14 37//14
f 52//4 33//4 35//4 53//4
f 11//15 34//15 36//15 15//15
f 15//6 36//6 38//6 19//6
f 24//5 39//5 34//5 11//5
f 28//5 41//5 32//5 6//5
f 49//4 42//4 31//4 51//4
f 30//3 29//3 81//3 80//3
f 3//2 4//2 50//2 43//2
f 25//4 49//4 51//4 1//4
f 9//4 52//4 53//4 13//4
f 1//4 51//4 48//4 21//4
f 3//4 43//4 49//4 25//4
f 30//5 50//5 56//5 41//5
f 32//3 41//3 60//3 61//3
f 37//16 38//16 47//16 54//16
f 34//17 45//17 46//17 36//17
f 36//6 46//6 47//6 38//6
f 39//5 55//5 45//5 34//5
f 55//18 39//18 58//18 57//18
f 61//5 62//5 57//5 58//5
f 60//11 59//11 62//11 61//11
f 39//3 32//3 61//3 58//3
f 44//1 55//1 57//1 62//1
f 41//2 56//2 59//2 60//2
f 56//1 44//1 62//1 59//1
f 66//2 63//2 67//2 70//2
f 1//19 2//19 65//19 64//19
f 2//20 26//20 66//20 65//20
f 25//21 1//21 64//21 63//21
f 69//5 70//5 74//5 73//5
f 64//18 65//18 69//18 68//18
f 65//5 66//5 70//5 69//5
f 63//13 64//13 68//13 67//13
f 73//5 74//5 78//5 77//5
f 67//4 68//4 72//4 71//4
f 70//2 67//2 71//2 74//2
f 68//18 69//18 73//18 72//18
f 76//1 77//1 78//1 75//1
f 71//4 72//4 76//4 75//4
f 74//2 71//2 75//2 78//2
f 82//2 79//2 80//2 81//2
f 50//5 30//5 80//5 79//5
f 43//1 50//1 79//1 82//1
f 29//4 43//4 82//4 81//4
o Cube.048_Cube.024
v -467.532135 590.803345 113.707024
v -599.232544 390.658417 145.243637
v -412.564575 519.306763 -110.490135
v -552.367310 316.475494 -87.634575
v -681.242676 639.633850 -17.722496
v -748.769165 537.014038 -1.552788
v -653.059265 602.975586 -132.674652
v -721.296021 500.267883 -117.415962
v -445.718689 372.149780 -526.327209
v -360.120300 394.662659 -435.835724
v -388.232758 518.014038 -439.931122
v -473.831207 495.501190 -530.422668
v -286.919006 420.925903 -665.233887
v -223.985107 437.477844 -598.702454
v -244.654083 528.168518 -601.713501
v -307.587952 511.616608 -668.244934
v -186.594727 453.804932 -750.790100
v -140.603516 465.900848 -702.169800
v -155.708069 532.176392 -704.370300
v -201.699341 520.080505 -752.990417
v -510.362305 588.129578 -136.621490
v -655.813354 375.543579 -110.967308
v -568.546631 664.315491 101.343704
v -708.362793 451.837036 134.823761
v -367.607880 457.798157 -439.004486
v -458.481201 433.898041 -535.072388
v -219.132507 485.915070 -611.332092
v -285.944550 468.343170 -681.963379
v -127.659058 503.129822 -720.745056
v -176.484314 490.288483 -772.361633
v -119.737488 463.232941 -816.377747
v -73.746277 475.328857 -767.757446
v -55.185547 519.504944 -793.373657
v -104.010803 506.663574 -844.990051
v -130.089172 535.387756 -824.536804
v -84.097839 547.483643 -775.916565
v -71.982361 471.311951 -863.560547
v -25.991028 483.407928 -814.940369
v -7.430420 527.583984 -840.556580
v -56.255737 514.742676 -892.172913
v -82.333984 543.466797 -871.719604
v -36.342773 555.562744 -823.099365
v -29.164062 454.546967 -882.942444
v 0.438416 462.332642 -851.647766
v 12.385071 490.766724 -868.135803
v -19.041687 482.501282 -901.358887
v -34.757080 556.060974 -922.788391
v -60.835327 584.785156 -902.335205
v -14.844116 596.881042 -853.714905
v 14.068359 568.902344 -871.172058
v -0.812134 442.011719 -896.667114
v 19.145081 447.260529 -875.568970
v 27.199280 466.430023 -886.684814
v 6.012329 460.857819 -909.082947
v 27.870483 440.892944 -915.788940
v 40.345947 444.174072 -902.600342
v 45.380676 456.157166 -909.548889
v 32.136414 452.673828 -923.550232
v -19.600281 585.224182 -927.459656
v -36.940186 604.323242 -913.859924
v -6.359924 612.365906 -881.531799
v 12.864380 593.762512 -893.139404
v -296.444214 470.851288 449.448578
v -408.224609 275.178345 362.185730
v -118.397522 426.752197 298.179749
v -223.169556 236.601257 211.640045
v -386.560883 550.240051 223.823456
v -443.873840 449.913116 179.081345
v -284.639893 529.109802 150.703156
v -348.990967 430.133545 101.892334
v -55.776855 166.746216 -71.326759
v -58.314087 94.765381 29.314083
v 61.567017 117.808838 50.539505
v 66.741028 188.677917 -48.283310
v 13.023376 -8.551147 -178.232727
v 9.028381 -64.366211 -103.870171
v 99.106384 -48.241638 -86.928108
v 103.101257 7.573547 -161.290771
v 57.972900 -119.145630 -243.150238
v 55.053467 -159.934509 -188.806915
v 120.881226 -148.150940 -176.425903
v 123.800659 -107.361938 -230.769135
v -171.037964 500.671143 235.854858
v -294.661499 301.734253 136.548828
v -372.451538 550.419434 389.011963
v -491.120300 342.688538 296.371674
v 1.266968 95.084839 41.247086
v 7.035461 175.678894 -66.128700
v 58.614685 -72.757874 -103.916328
v 62.855713 -13.503296 -182.861176
v 94.603699 -176.519592 -196.508118
v 97.702881 -133.217163 -254.200043
v 77.839966 -193.242310 -297.698181
v 74.920532 -234.031006 -243.354980
v 122.466675 -257.286621 -255.633209
v 125.565979 -213.984070 -313.325226
v 150.434631 -187.103699 -289.190765
v 147.515198 -227.892639 -234.847565
v 93.413025 -246.265869 -336.660034
v 90.493591 -287.054810 -282.316742
v 138.039856 -310.310425 -294.595184
v 141.139160 -267.007874 -352.287048
v 166.007690 -240.127197 -328.152496
v 163.088196 -280.916199 -273.809235
v 78.713989 -290.181641 -355.246735
v 76.834900 -316.435547 -320.268402
v 107.438293 -331.404175 -328.171539
v 109.433167 -303.532166 -365.305237
v 186.883606 -293.608643 -369.795502
v 211.752258 -266.728088 -345.661011
v 208.832886 -307.516968 -291.317902
v 183.784241 -336.911133 -312.103546
v 67.799866 -319.295410 -368.759918
v 66.533020 -336.994995 -345.178680
v 87.164978 -347.086792 -350.506744
v 88.509949 -328.296021 -375.541168
v 69.198853 -349.849121 -384.700592
v 68.406921 -360.913330 -369.959564
v 81.304077 -367.221436 -373.290131
v 82.144836 -355.475464 -388.939484
v 215.192322 -310.481567 -365.799744
v 231.727966 -292.608337 -349.752533
v 229.786682 -319.729248 -313.618927
v 213.131653 -339.273804 -327.439636
vn 0.8015 -0.4946 0.3362
vn -0.4438 0.7944 -0.4147
vn -0.8059 0.4798 -0.3469
vn -0.0052 0.1590 0.9873
vn 0.0908 0.9548 -0.2831
vn -0.5052 -0.8477 0.1616
vn -0.1669 0.9822 -0.0865
vn 0.7827 0.6224 -0.0094
vn -0.8149 -0.3579 -0.4559
vn 0.6612 -0.7223 0.2029
vn -0.6260 -0.0490 -0.7783
vn 0.7459 0.1106 0.6568
vn -0.6331 -0.0886 -0.7690
vn 0.2759 -0.9609 -0.0220
vn 0.6606 0.2372 0.7123
vn 0.2862 -0.9576 -0.0325
vn -0.1561 0.9830 -0.0969
vn 0.7625 0.0756 0.6425
vn 0.7108 0.3026 0.6350
vn 0.1955 -0.9789 0.0586
vn -0.5979 -0.2428 -0.7639
vn 0.7108 0.2648 0.6517
vn -0.5743 -0.2760 -0.7707
vn -0.6398 -0.6998 -0.3179
vn 0.4166 0.9081 -0.0422
vn -0.8789 -0.4747 -0.0461
vn 0.5926 0.7980 -0.1099
vn -0.6702 0.5239 0.5258
vn -0.2095 0.9768 -0.0448
vn -0.6645 -0.2282 -0.7116
vn -0.2312 0.9726 -0.0233
vn 0.6874 0.1226 0.7158
vn -0.6629 -0.2326 -0.7117
vn -0.6893 -0.1178 -0.7148
vn 0.6455 0.2086 0.7348
vn -0.1764 -0.9031 0.3915
vn 0.6862 0.1270 0.7163
vn 0.6614 0.2401 0.7105
vn -0.6883 -0.1148 -0.7163
vn 0.2095 -0.9768 0.0448
vn 0.4254 0.6980 -0.5760
vn -0.4959 -0.3454 -0.7968
vn 0.8111 -0.0016 0.5849
vn 0.4424 0.6779 -0.5871
vn 0.7416 0.4640 0.4845
vn -0.7055 -0.1467 -0.6934
vn -0.6276 0.6472 0.4327
vn 0.6276 -0.6472 -0.4327
vn 0.1078 0.9361 -0.3349
vn 0.7935 0.0194 0.6083
vn -0.5250 -0.3274 -0.7856
vn -0.1967 -0.8916 0.4079
vn 0.6656 -0.5634 -0.4894
vn 0.7880 0.0256 0.6151
vn -0.5339 -0.3218 -0.7819
vn 0.0764 -0.9821 0.1721
vn 0.3857 0.7413 -0.5493
vn -0.5167 0.1331 -0.8457
vn 0.7013 -0.4527 -0.5507
vn -0.5181 0.8047 0.2899
vn 0.4481 -0.5640 0.6936
vn 0.5359 0.7636 -0.3602
vn -0.4140 0.5815 -0.7003
vn -0.6198 0.0041 0.7848
vn 0.2244 0.9745 -0.0045
vn -0.4342 -0.8429 -0.3177
vn 0.9845 0.1126 0.1345
vn 0.9484 0.1125 0.2964
vn -0.4749 -0.0861 -0.8758
vn -0.0830 -0.8216 0.5640
vn 0.1792 0.5371 -0.8243
vn -0.1291 -0.6709 0.7302
vn 0.1391 0.5469 -0.8256
vn -0.9490 -0.2368 -0.2083
vn 0.0164 -0.5871 0.8093
vn -0.9408 -0.2448 -0.2343
vn 0.9867 0.1002 0.1282
vn -0.1311 -0.6889 0.7129
vn 0.0943 -0.6485 0.7553
vn -0.9765 -0.1438 -0.1604
vn -0.0140 0.5194 -0.8544
vn 0.0927 -0.6278 0.7728
vn -0.0462 0.4967 -0.8667
vn -0.7075 -0.5271 -0.4707
vn 0.8009 0.5721 -0.1768
vn -0.6205 -0.4381 -0.6504
vn 0.5133 0.7556 0.4069
vn -0.8799 0.4693 0.0746
vn 0.9722 0.1593 0.1718
vn -0.0075 0.5907 -0.8069
vn 0.9646 0.1834 0.1895
vn -0.0975 -0.6083 0.7877
vn -0.0118 0.5893 -0.8078
vn 0.1021 0.6101 -0.7857
vn -0.0157 -0.5684 0.8226
vn -0.9552 0.2591 0.1432
vn -0.0932 -0.6072 0.7891
vn 0.0195 -0.5883 0.8084
vn 0.1052 0.6087 -0.7864
vn -0.9722 -0.1593 -0.1718
vn 0.7822 -0.5177 -0.3465
vn -0.1129 0.4191 -0.9009
vn -0.1958 -0.7401 0.6434
vn 0.7642 -0.5349 -0.3604
vn 0.2841 -0.7031 0.6519
vn 0.0701 0.6297 -0.7736
vn 0.5697 0.6423 0.5127
vn -0.5697 -0.6423 -0.5127
vn 0.9786 -0.1862 -0.0872
vn -0.1798 -0.7209 0.6693
vn -0.0961 0.4485 -0.8886
vn -0.9464 0.2806 0.1598
vn -0.4779 -0.6900 -0.5436
vn -0.1749 -0.7150 0.6769
vn -0.0909 0.4574 -0.8846
vn -0.9979 -0.0127 -0.0632
vn 0.8207 -0.4773 -0.3141
vn 0.3639 0.4129 -0.8349
vn -0.3586 -0.7372 -0.5726
vn 0.7483 0.5106 0.4235
usemtl Matériau.012
s off
f 83//22 84//22 86//22 85//22
f 90//23 89//23 93//23 94//23
f 89//24 90//24 88//24 87//24
f 105//25 106//25 84//25 83//25
f 103//26 89//26 87//26 105//26
f 104//27 86//27 84//27 106//27
f 94//28 93//28 97//28 98//28
f 103//29 85//29 92//29 107//29
f 104//30 90//30 94//30 108//30
f 85//31 86//31 91//31 92//31
f 110//32 98//32 102//32 112//32
f 107//33 92//33 96//33 109//33
f 108//34 94//34 98//34 110//34
f 92//35 91//35 95//35 96//35
f 101//36 111//36 115//36 118//36
f 96//37 95//37 99//37 100//37
f 98//38 97//38 101//38 102//38
f 109//39 96//39 100//39 111//39
f 97//40 109//40 111//40 101//40
f 100//41 99//41 113//41 114//41
f 91//42 108//42 110//42 95//42
f 93//43 107//43 109//43 97//43
f 95//44 110//44 112//44 99//44
f 86//45 104//45 108//45 91//45
f 89//46 103//46 107//46 93//46
f 90//47 104//47 106//47 88//47
f 85//48 103//48 105//48 83//48
f 87//49 88//49 106//49 105//49
f 117//50 118//50 124//50 123//50
f 113//51 116//51 122//51 119//51
f 102//52 101//52 118//52 117//52
f 111//53 100//53 114//53 115//53
f 99//54 112//54 116//54 113//54
f 112//55 102//55 117//55 116//55
f 124//56 121//56 132//56 131//56
f 120//57 119//57 125//57 126//57
f 115//58 114//58 120//58 121//58
f 118//59 115//59 121//59 124//59
f 116//60 117//60 123//60 122//60
f 114//61 113//61 119//61 120//61
f 128//62 127//62 135//62 136//62
f 119//63 122//63 128//63 125//63
f 121//64 120//64 126//64 127//64
f 122//65 121//65 127//65 128//65
f 131//66 132//66 144//66 143//66
f 122//67 123//67 130//67 129//67
f 123//68 124//68 131//68 130//68
f 121//69 122//69 129//69 132//69
f 136//70 135//70 139//70 140//70
f 127//71 126//71 134//71 135//71
f 125//72 128//72 136//72 133//72
f 126//73 125//73 133//73 134//73
f 138//74 137//74 140//74 139//74
f 135//75 134//75 138//75 139//75
f 133//76 136//76 140//76 137//76
f 134//77 133//77 137//77 138//77
f 144//78 141//78 142//78 143//78
f 129//79 130//79 142//79 141//79
f 132//80 129//80 141//80 144//80
f 130//81 131//81 143//81 142//81
f 145//82 146//82 148//82 147//82
f 152//83 151//83 155//83 156//83
f 151//84 152//84 150//84 149//84
f 167//85 168//85 146//85 145//85
f 165//86 151//86 149//86 167//86
f 166//87 148//87 146//87 168//87
f 156//88 155//88 159//88 160//88
f 165//89 147//89 154//89 169//89
f 166//90 152//90 156//90 170//90
f 147//91 148//91 153//91 154//91
f 172//92 160//92 164//92 174//92
f 169//93 154//93 158//93 171//93
f 170//94 156//94 160//94 172//94
f 154//95 153//95 157//95 158//95
f 163//96 173//96 177//96 180//96
f 158//97 157//97 161//97 162//97
f 160//98 159//98 163//98 164//98
f 171//99 158//99 162//99 173//99
f 159//100 171//100 173//100 163//100
f 162//101 161//101 175//101 176//101
f 153//102 170//102 172//102 157//102
f 155//103 169//103 171//103 159//103
f 157//104 172//104 174//104 161//104
f 148//105 166//105 170//105 153//105
f 151//106 165//106 169//106 155//106
f 152//107 166//107 168//107 150//107
f 147//108 165//108 167//108 145//108
f 149//109 150//109 168//109 167//109
f 179//110 180//110 186//110 185//110
f 175//111 178//111 184//111 181//111
f 164//112 163//112 180//112 179//112
f 173//113 162//113 176//113 177//113
f 161//114 174//114 178//114 175//114
f 174//115 164//115 179//115 178//115
f 186//116 183//116 194//116 193//116
f 182//117 181//117 187//117 188//117
f 177//118 176//118 182//118 183//118
f 180//119 177//119 183//119 186//119
f 178//120 179//120 185//120 184//120
f 176//121 175//121 181//121 182//121
f 190//122 189//122 197//122 198//122
f 181//123 184//123 190//123 187//123
f 183//124 182//124 188//124 189//124
f 184//125 183//125 189//125 190//125
f 193//126 194//126 206//126 205//126
f 184//127 185//127 192//127 191//127
f 185//128 186//128 193//128 192//128
f 183//129 184//129 191//129 194//129
f 198//130 197//130 201//130 202//130
f 189//131 188//131 196//131 197//131
f 187//132 190//132 198//132 195//132
f 188//133 187//133 195//133 196//133
f 200//134 199//134 202//134 201//134
f 197//135 196//135 200//135 201//135
f 195//136 198//136 202//136 199//136
f 196//137 195//137 199//137 200//137
f 206//138 203//138 204//138 205//138
f 191//139 192//139 204//139 203//139
f 194//140 191//140 203//140 206//140
f 192//141 193//141 205//141 204//141
