# Blender v2.91.2 OBJ File: 'camionnete02.blend'
# www.blender.org
mtllib arme_000001.mtl
o Cube.046_Cube.010
v 393.859772 619.445862 -987.004089
v 394.962006 399.041931 -986.810791
v 512.398438 619.875732 -1172.819824
v 513.500732 399.471771 -1172.626709
v 208.046783 618.412598 -1105.543457
v 209.148987 398.008698 -1105.350098
v 326.585480 618.842468 -1291.359131
v 327.687744 398.438568 -1291.166016
v 230.655457 618.853943 -731.172668
v 231.757660 398.450104 -730.979309
v 45.944672 397.416870 -849.518616
v 44.842453 617.820801 -849.711853
v 156.794800 618.586121 -615.391907
v 157.897003 398.182220 -615.198730
v -27.916044 397.149017 -733.738037
v -29.018261 617.552917 -733.931274
v 113.161194 618.427856 -546.994080
v 121.395874 458.130707 -558.191345
v -64.417206 457.097534 -676.730652
v -72.651863 617.394714 -665.533325
v 256.118347 618.946228 -771.086975
v 257.220551 398.542419 -770.893799
v 70.305313 617.913147 -889.626404
v 71.407509 397.509216 -889.433044
v 470.550659 619.723877 -1107.221191
v 471.652924 399.320007 -1107.028076
v 284.737640 618.690735 -1225.760376
v 285.839905 398.286835 -1225.567139
v 419.491974 619.359131 -1232.089478
v 420.594238 398.955170 -1231.896240
v 300.953308 618.929260 -1046.273804
v 302.055481 398.525269 -1046.080566
v 137.748962 618.337402 -790.442200
v 138.851135 397.933472 -790.248840
v 63.888260 618.069519 -674.661621
v 66.611168 407.470215 -660.358826
v 20.254686 617.911316 -606.263672
v 41.998360 447.893677 -621.918640
v 164.314026 398.025787 -830.163391
v 163.211823 618.429688 -830.356628
v 378.746368 398.803375 -1166.297607
v 377.644165 619.207397 -1166.490845
v 465.945251 619.617371 -1202.454590
v 348.508728 398.783600 -1016.445618
v 185.304413 398.191772 -760.614136
v 97.934708 407.644379 -640.376038
v 73.321899 448.067841 -601.935791
v 209.665070 618.687988 -800.721741
v 424.097443 619.465637 -1136.856079
v 467.047516 399.213440 -1202.261597
v 347.406555 619.187500 -1016.639099
v 184.202209 618.595642 -760.807495
v 110.341499 618.327881 -645.026794
v 66.707932 618.169617 -576.628784
v 210.767303 398.284119 -800.528564
v 425.199615 399.061707 -1136.662842
v 210.973663 357.016510 -800.492310
v 164.520416 356.758209 -830.127136
v 425.406006 357.794098 -1136.626709
v 378.952759 357.535797 -1166.261475
v 302.261871 357.257690 -1046.044434
v 348.715149 357.515961 -1016.409485
v 527.798767 558.610107 -1023.667419
v 493.886871 558.487122 -970.508667
v 494.374359 461.026764 -970.423096
v 528.286194 461.149750 -1023.582031
v 567.952026 558.833435 -998.051819
v 534.040100 558.710449 -944.893005
v 534.527527 461.250061 -944.807556
v 568.439392 461.373047 -997.966370
v 629.399231 559.175110 -958.851746
v 595.487305 559.052124 -905.692871
v 595.974731 461.591766 -905.607422
v 629.886597 461.714722 -958.766296
v 668.939697 559.394958 -933.626953
v 635.027832 559.271973 -880.468140
v 635.515320 461.811646 -880.382629
v 669.427185 461.934631 -933.541443
v 856.469910 400.625946 -1812.701416
v 810.016724 400.367645 -1842.336304
v 808.914368 620.771606 -1842.529419
v 855.367737 621.029846 -1812.894775
vn 0.8430 0.0047 0.5378
vn 0.5378 0.0020 -0.8431
vn -0.8430 -0.0047 -0.5378
vn -0.0050 1.0000 -0.0009
vn 0.0050 -1.0000 0.0009
vn -0.3536 -0.7486 0.5608
vn -0.0786 -0.9968 -0.0149
vn -0.6014 -0.1144 0.7908
vn -0.8438 -0.0052 -0.5367
vn 0.8438 0.0052 0.5367
vn 0.8262 0.0036 -0.5634
vn -0.4972 -0.1150 0.8600
vn 0.0219 -0.9985 0.0507
vn -0.5316 -0.1448 0.8345
vn -0.0304 -0.9979 0.0564
vn -0.5378 -0.0019 0.8431
vn -0.1627 0.0001 0.9867
vn 0.4693 -0.8314 0.2975
vn 0.4610 0.8366 0.2960
vn -0.5378 -0.0020 0.8431
usemtl Matériau.011
s off
f 25//1 26//1 4//1 3//1
f 29//2 30//2 8//2 7//2
f 27//3 28//3 6//3 5//3
f 22//1 21//1 9//1 10//1
f 42//4 27//4 5//4 31//4
f 56//5 26//5 2//5 44//5
f 10//1 9//1 13//1 14//1
f 55//5 22//5 10//5 45//5
f 23//3 24//3 11//3 12//3
f 46//6 14//6 18//6 47//6
f 45//7 10//7 14//7 46//7
f 12//3 11//3 15//3 16//3
f 33//4 12//4 16//4 35//4
f 54//8 47//8 18//8 17//8
f 16//9 15//9 19//9 20//9
f 14//10 13//10 17//10 18//10
f 5//3 6//3 24//3 23//3
f 44//5 2//5 22//5 55//5
f 31//4 5//4 23//4 40//4
f 2//1 1//1 21//1 22//1
f 50//5 4//5 26//5 56//5
f 29//4 7//4 27//4 42//4
f 7//3 8//3 28//3 27//3
f 26//11 25//11 63//11 66//11
f 43//4 29//4 42//4 49//4
f 8//5 30//5 41//5 28//5
f 51//4 31//4 40//4 48//4
f 6//5 32//5 39//5 24//5
f 20//12 19//12 38//12 37//12
f 52//4 33//4 35//4 53//4
f 11//13 34//13 36//13 15//13
f 15//6 36//6 38//6 19//6
f 24//5 39//5 34//5 11//5
f 28//5 41//5 32//5 6//5
f 49//4 42//4 31//4 51//4
f 30//3 29//3 81//3 80//3
f 3//2 4//2 50//2 43//2
f 25//4 49//4 51//4 1//4
f 9//4 52//4 53//4 13//4
f 1//4 51//4 48//4 21//4
f 3//4 43//4 49//4 25//4
f 30//5 50//5 56//5 41//5
f 32//3 41//3 60//3 61//3
f 37//14 38//14 47//14 54//14
f 34//15 45//15 46//15 36//15
f 36//6 46//6 47//6 38//6
f 39//5 55//5 45//5 34//5
f 55//16 39//16 58//16 57//16
f 61//5 62//5 57//5 58//5
f 60//5 59//5 62//5 61//5
f 39//3 32//3 61//3 58//3
f 44//1 55//1 57//1 62//1
f 41//2 56//2 59//2 60//2
f 56//1 44//1 62//1 59//1
f 66//2 63//2 67//2 70//2
f 1//17 2//17 65//17 64//17
f 2//18 26//18 66//18 65//18
f 25//19 1//19 64//19 63//19
f 69//5 70//5 74//5 73//5
f 64//20 65//20 69//20 68//20
f 65//5 66//5 70//5 69//5
f 63//4 64//4 68//4 67//4
f 73//5 74//5 78//5 77//5
f 67//4 68//4 72//4 71//4
f 70//2 67//2 71//2 74//2
f 68//20 69//20 73//20 72//20
f 76//1 77//1 78//1 75//1
f 71//4 72//4 76//4 75//4
f 74//2 71//2 75//2 78//2
f 82//2 79//2 80//2 81//2
f 50//5 30//5 80//5 79//5
f 43//1 50//1 79//1 82//1
f 29//4 43//4 82//4 81//4
o Cube.048_Cube.024
v -564.315308 467.027649 182.449341
v -727.284912 342.306824 54.843712
v -422.812225 481.970154 -12.873886
v -585.784790 357.257080 -140.473236
v -678.243713 646.725403 40.818226
v -761.802734 582.777588 -24.608749
v -605.691101 654.386902 -59.329460
v -689.249268 590.441467 -124.755501
v -345.301056 460.038879 -439.361786
v -259.861481 525.333984 -372.584137
v -316.734497 633.497742 -405.579590
v -402.173950 568.202637 -472.357269
v -215.546143 496.150848 -608.923279
v -152.729004 544.157227 -559.826843
v -194.543274 623.681702 -584.085876
v -257.360321 575.675293 -633.182312
v -133.867615 521.547119 -714.514587
v -87.961609 556.629639 -678.635620
v -118.519043 614.744995 -696.363708
v -164.424866 579.662537 -732.242798
v -482.893402 587.899536 -25.575546
v -655.906433 455.502502 -161.038635
v -633.116638 572.036011 181.784088
v -806.128784 439.629517 46.315041
v -282.389832 581.769592 -391.549622
v -373.094513 512.450806 -462.442291
v -160.662231 586.550720 -585.693420
v -227.350250 535.585938 -637.815491
v -85.928528 588.427490 -708.356689
v -134.663269 551.183167 -746.446716
v -77.226074 524.268921 -789.646606
v -31.320068 559.351318 -753.767700
v -26.126770 596.662476 -792.922913
v -74.861572 559.418091 -831.012939
v -105.109070 587.050049 -815.358704
v -59.203247 622.132568 -779.479614
v -37.116882 527.367554 -843.994690
v 8.789062 562.450012 -808.115662
v 13.982300 599.760986 -847.270935
v -34.752502 562.516724 -885.360901
v -64.999939 590.148682 -869.706543
v -19.093933 625.231079 -833.827759
v 6.575745 514.591797 -864.436096
v 36.123352 537.172729 -841.342468
v 39.466003 561.188232 -866.544800
v 8.097656 537.215698 -891.061646
v -26.479370 596.263306 -928.943420
v -56.726929 623.895325 -913.289185
v -10.821045 658.977722 -877.410034
v 22.255188 633.507690 -890.853088
v 35.769043 504.528412 -878.429626
v 55.689209 519.751831 -862.860474
v 57.942810 535.942383 -879.851257
v 36.795105 519.780823 -896.379822
v 62.092163 503.570374 -900.695435
v 74.544434 513.086792 -890.962830
v 75.953186 523.207642 -901.583923
v 62.733521 513.104858 -911.916138
v -19.161621 625.133911 -943.605530
v -39.273560 643.506775 -933.196899
v -8.750183 666.833496 -909.340393
v 13.242737 649.898132 -918.278931
v -287.207581 594.628052 359.004089
v -284.230347 354.000977 336.928314
v -169.862732 615.465698 148.698196
v -166.913879 374.741241 126.680267
v -469.147217 549.182617 185.329132
v -467.620728 425.806396 174.010284
v -408.989227 559.855469 77.516693
v -407.469299 436.440460 66.210190
v -29.145935 466.371521 -234.310516
v -30.403198 592.490967 -223.420746
v -141.054993 596.684570 -284.749512
v -139.797241 470.563019 -295.640289
v 60.548950 500.824066 -428.370697
v 59.627991 593.540100 -420.372681
v -21.725464 596.621765 -465.463593
v -20.804443 503.905731 -473.461823
v 114.890930 524.486938 -550.652832
v 114.217834 592.242493 -544.807678
v 54.765930 594.494507 -577.759583
v 55.439026 526.738953 -583.604797
v -284.491974 625.372192 106.816406
v -281.361389 369.814453 83.441605
v -409.067993 603.251282 330.082001
v -405.907288 347.796051 306.645874
v -83.045349 598.906128 -258.633942
v -81.715515 465.029053 -270.182861
v 28.080627 599.445007 -459.091095
v 29.058289 501.015594 -467.581879
v 97.660034 597.627075 -584.750671
v 98.374634 525.696167 -590.955933
v 163.656311 531.887451 -630.825439
v 162.983215 599.643005 -624.980530
v 146.163696 606.002380 -676.253174
v 146.878235 534.071411 -682.458252
v 103.983032 534.964355 -673.365723
v 103.309875 602.719971 -667.520691
v 197.536560 537.250610 -689.095520
v 196.863525 605.006165 -683.250549
v 180.044067 611.365601 -734.523376
v 180.758545 539.434692 -740.728455
v 137.863159 540.327576 -731.635803
v 137.190125 608.083252 -725.790833
v 239.524719 551.789917 -711.804993
v 239.091553 595.401184 -708.042969
v 228.265503 599.494446 -741.044800
v 228.725525 553.195740 -745.038757
v 169.330566 544.010681 -795.089905
v 126.435242 544.903625 -785.997253
v 125.762207 612.659180 -780.152405
v 168.616150 615.941589 -788.884827
v 268.739441 560.517151 -726.626404
v 268.447388 589.918640 -724.090027
v 261.148926 592.678162 -746.339111
v 261.458862 561.464905 -749.031738
v 290.858276 568.462402 -751.869568
v 290.675720 586.841614 -750.283936
v 286.113281 588.566650 -764.192017
v 286.307068 569.054932 -765.875122
v 155.870422 558.327576 -821.846191
v 127.348694 558.921204 -815.800293
v 126.901123 603.972778 -811.913818
v 155.395264 606.155334 -817.720215
vn 0.4498 -0.8543 0.2605
vn -0.3713 0.8553 -0.3614
vn -0.4498 0.8543 -0.2605
vn -0.4452 -0.2863 0.8484
vn 0.3747 0.8635 0.3375
vn -0.6454 -0.5677 -0.5111
vn -0.4025 0.8567 -0.3226
vn 0.7765 0.4757 0.4133
vn -0.7388 -0.1510 -0.6568
vn 0.5305 -0.8362 0.1394
vn -0.6626 -0.4044 -0.6304
vn 0.7533 0.4498 0.4798
vn -0.6592 -0.4400 -0.6098
vn 0.4934 -0.8472 0.1971
vn 0.6455 0.5673 0.5114
vn 0.5016 -0.8452 0.1847
vn -0.3932 0.8565 -0.3344
vn 0.7763 0.4163 0.4732
vn 0.6717 0.6153 0.4125
vn 0.4270 -0.8562 0.2909
vn -0.5881 -0.5753 -0.5685
vn 0.6821 0.5851 0.4386
vn -0.5580 -0.6034 -0.5697
vn -0.5558 -0.5435 -0.6291
vn 0.5065 0.8016 0.3176
vn -0.8076 -0.0414 -0.5883
vn 0.7008 0.4626 0.5431
vn -0.7384 0.4688 0.4848
vn -0.4388 0.8555 -0.2751
vn -0.6514 -0.5594 -0.5126
vn -0.4569 0.8536 -0.2502
vn 0.6990 0.4668 0.5417
vn -0.6488 -0.5632 -0.5117
vn -0.7019 -0.4624 -0.5417
vn 0.6397 0.5442 0.5428
vn 0.0786 -0.7612 0.6437
vn 0.6968 0.4708 0.5411
vn 0.6454 0.5696 0.5088
vn -0.7017 -0.4599 -0.5441
vn 0.4388 -0.8555 0.2751
vn 0.1947 0.5651 -0.8017
vn -0.4679 -0.6601 -0.5876
vn 0.8366 0.3369 0.4320
vn 0.2150 0.5465 -0.8094
vn 0.6498 0.7272 0.2211
vn -0.7087 -0.4863 -0.5111
vn -0.7228 0.6061 0.3321
vn 0.7228 -0.6061 -0.3321
vn -0.1478 0.7950 -0.5883
vn 0.8166 0.3599 0.4512
vn -0.4994 -0.6459 -0.5774
vn 0.0576 -0.7497 0.6593
vn 0.7345 -0.5372 -0.4145
vn 0.8105 0.3666 0.4568
vn -0.5089 -0.6414 -0.5741
vn 0.3225 -0.8493 0.4178
vn 0.1484 0.6055 -0.7819
vn -0.6061 -0.2326 -0.7606
vn 0.7373 -0.4450 -0.5082
vn -0.6668 0.7325 0.1370
vn 0.8742 -0.0336 0.4844
vn -0.8052 0.0436 -0.5913
vn -0.8742 0.0336 -0.4845
vn -0.2361 -0.0917 0.9674
vn -0.4318 0.8889 -0.1529
vn 0.0661 -0.9959 -0.0614
vn -0.8338 0.0392 -0.5506
vn 0.1053 0.9943 -0.0180
vn -0.2733 -0.8994 -0.3411
vn 0.9358 -0.0208 0.3519
vn -0.0448 -0.9731 -0.2259
vn 0.0983 0.9937 0.0537
vn -0.0203 -0.9809 -0.1937
vn 0.9092 -0.0268 0.4155
vn -0.0641 0.9963 0.0569
vn 0.9154 -0.0256 0.4018
vn -0.8255 0.0404 -0.5630
vn 0.1392 0.9886 0.0568
vn -0.0644 0.9963 -0.0560
vn 0.8553 -0.0361 0.5169
vn 0.1180 -0.9861 -0.1170
vn -0.0399 0.9989 -0.0228
vn 0.1587 -0.9808 -0.1131
vn 0.1283 -0.9726 -0.1937
vn -0.2948 0.9390 -0.1768
vn -0.4098 -0.8567 -0.3132
vn 0.0414 0.9917 0.1213
vn -0.9161 -0.0479 0.3981
vn -0.8654 0.0345 -0.5000
vn 0.0547 -0.9967 -0.0599
vn -0.8804 0.0321 -0.4732
vn 0.0392 0.9928 0.1135
vn 0.0590 -0.9966 -0.0581
vn -0.0443 -0.9924 -0.1146
vn -0.0566 0.9938 0.0956
vn 0.4932 -0.0699 0.8671
vn 0.0349 0.9931 0.1117
vn -0.0654 0.9964 0.0537
vn -0.0456 -0.9920 -0.1178
vn 0.8654 -0.0345 0.5000
vn -0.1415 0.0837 -0.9864
vn 0.2631 -0.9565 -0.1260
vn 0.2440 0.9690 0.0402
vn -0.1131 0.0843 -0.9900
vn -0.1274 0.9555 -0.2659
vn -0.0369 -0.9964 -0.0761
vn -0.9787 -0.0273 0.2034
vn 0.9787 0.0273 -0.2034
vn -0.5734 0.0648 -0.8167
vn 0.2107 0.9762 0.0520
vn 0.2300 -0.9663 -0.1156
vn 0.4681 -0.0713 0.8808
vn 0.9509 0.0360 -0.3075
vn 0.2007 0.9781 0.0555
vn 0.2198 -0.9690 -0.1124
vn 0.7587 -0.0485 0.6496
vn -0.2050 0.0821 -0.9753
vn -0.1090 -0.8982 -0.4258
vn 0.9020 0.0460 -0.4292
vn -0.9994 -0.0070 -0.0339
usemtl Matériau.012
s off
f 83//21 84//21 86//21 85//21
f 90//22 89//22 93//22 94//22
f 89//23 90//23 88//23 87//23
f 105//24 106//24 84//24 83//24
f 103//25 89//25 87//25 105//25
f 104//26 86//26 84//26 106//26
f 94//27 93//27 97//27 98//27
f 103//28 85//28 92//28 107//28
f 104//29 90//29 94//29 108//29
f 85//30 86//30 91//30 92//30
f 110//31 98//31 102//31 112//31
f 107//32 92//32 96//32 109//32
f 108//33 94//33 98//33 110//33
f 92//34 91//34 95//34 96//34
f 101//35 111//35 115//35 118//35
f 96//36 95//36 99//36 100//36
f 98//37 97//37 101//37 102//37
f 109//38 96//38 100//38 111//38
f 97//39 109//39 111//39 101//39
f 100//40 99//40 113//40 114//40
f 91//41 108//41 110//41 95//41
f 93//42 107//42 109//42 97//42
f 95//43 110//43 112//43 99//43
f 86//44 104//44 108//44 91//44
f 89//45 103//45 107//45 93//45
f 90//46 104//46 106//46 88//46
f 85//47 103//47 105//47 83//47
f 87//48 88//48 106//48 105//48
f 117//49 118//49 124//49 123//49
f 113//50 116//50 122//50 119//50
f 102//51 101//51 118//51 117//51
f 111//52 100//52 114//52 115//52
f 99//53 112//53 116//53 113//53
f 112//54 102//54 117//54 116//54
f 124//55 121//55 132//55 131//55
f 120//56 119//56 125//56 126//56
f 115//57 114//57 120//57 121//57
f 118//58 115//58 121//58 124//58
f 116//59 117//59 123//59 122//59
f 114//60 113//60 119//60 120//60
f 128//61 127//61 135//61 136//61
f 119//62 122//62 128//62 125//62
f 121//63 120//63 126//63 127//63
f 122//64 121//64 127//64 128//64
f 131//65 132//65 144//65 143//65
f 122//66 123//66 130//66 129//66
f 123//67 124//67 131//67 130//67
f 121//68 122//68 129//68 132//68
f 136//69 135//69 139//69 140//69
f 127//70 126//70 134//70 135//70
f 125//71 128//71 136//71 133//71
f 126//72 125//72 133//72 134//72
f 138//73 137//73 140//73 139//73
f 135//74 134//74 138//74 139//74
f 133//75 136//75 140//75 137//75
f 134//76 133//76 137//76 138//76
f 144//77 141//77 142//77 143//77
f 129//78 130//78 142//78 141//78
f 132//79 129//79 141//79 144//79
f 130//80 131//80 143//80 142//80
f 145//81 146//81 148//81 147//81
f 152//82 151//82 155//82 156//82
f 151//83 152//83 150//83 149//83
f 167//84 168//84 146//84 145//84
f 165//85 151//85 149//85 167//85
f 166//86 148//86 146//86 168//86
f 156//87 155//87 159//87 160//87
f 165//88 147//88 154//88 169//88
f 166//89 152//89 156//89 170//89
f 147//90 148//90 153//90 154//90
f 172//91 160//91 164//91 174//91
f 169//92 154//92 158//92 171//92
f 170//93 156//93 160//93 172//93
f 154//94 153//94 157//94 158//94
f 163//95 173//95 177//95 180//95
f 158//96 157//96 161//96 162//96
f 160//97 159//97 163//97 164//97
f 171//98 158//98 162//98 173//98
f 159//99 171//99 173//99 163//99
f 162//100 161//100 175//100 176//100
f 153//101 170//101 172//101 157//101
f 155//102 169//102 171//102 159//102
f 157//103 172//103 174//103 161//103
f 148//104 166//104 170//104 153//104
f 151//105 165//105 169//105 155//105
f 152//106 166//106 168//106 150//106
f 147//107 165//107 167//107 145//107
f 149//108 150//108 168//108 167//108
f 179//109 180//109 186//109 185//109
f 175//110 178//110 184//110 181//110
f 164//111 163//111 180//111 179//111
f 173//112 162//112 176//112 177//112
f 161//113 174//113 178//113 175//113
f 174//114 164//114 179//114 178//114
f 186//115 183//115 194//115 193//115
f 182//116 181//116 187//116 188//116
f 177//117 176//117 182//117 183//117
f 180//118 177//118 183//118 186//118
f 178//119 179//119 185//119 184//119
f 176//120 175//120 181//120 182//120
f 190//121 189//121 197//121 198//121
f 181//122 184//122 190//122 187//122
f 183//123 182//123 188//123 189//123
f 184//124 183//124 189//124 190//124
f 193//125 194//125 206//125 205//125
f 184//126 185//126 192//126 191//126
f 185//127 186//127 193//127 192//127
f 183//128 184//128 191//128 194//128
f 198//129 197//129 201//129 202//129
f 189//130 188//130 196//130 197//130
f 187//131 190//131 198//131 195//131
f 188//132 187//132 195//132 196//132
f 200//133 199//133 202//133 201//133
f 197//134 196//134 200//134 201//134
f 195//135 198//135 202//135 199//135
f 196//136 195//136 199//136 200//136
f 206//137 203//137 204//137 205//137
f 191//138 192//138 204//138 203//138
f 194//139 191//139 203//139 206//139
f 192//140 193//140 205//140 204//140
