# Blender v2.91.2 OBJ File: 'camionnete02.blend'
# www.blender.org
mtllib arme_000123.mtl
o Cube.046_Cube.010
v 112.915222 599.980469 -1256.704590
v 141.954437 381.957825 -1242.492920
v 169.173111 593.588745 -1469.714600
v 198.212280 375.566101 -1455.503174
v -98.202919 568.288391 -1311.511963
v -69.163734 350.265686 -1297.300293
v -41.945015 561.896606 -1524.521851
v -12.905876 343.873962 -1510.310425
v 35.459267 608.780518 -963.432007
v 64.498444 390.757935 -949.220337
v -146.619629 359.065857 -1004.027527
v -175.658813 577.088501 -1018.239136
v 0.405411 612.763184 -830.706787
v 29.444557 394.740540 -816.495178
v -181.673553 363.048462 -871.302368
v -210.712769 581.071106 -885.514038
v -20.302895 615.115906 -752.298767
v 4.442238 456.154785 -755.020264
v -206.675964 424.462769 -809.827454
v -231.421051 583.423889 -807.105896
v 47.543846 607.407532 -1009.187866
v 76.583015 389.384949 -994.976257
v -163.574310 575.715515 -1063.995117
v -134.535156 357.692871 -1049.783447
v 149.312332 595.845215 -1394.515625
v 178.351501 377.822571 -1380.303955
v -61.805794 564.153137 -1449.322632
v -32.766594 346.130493 -1435.111206
v 63.614037 577.742737 -1497.118286
v 92.653198 359.720032 -1482.906616
v 7.356140 584.134460 -1284.108398
v 36.395370 366.111755 -1269.896606
v -70.099770 592.934509 -990.835571
v -41.060616 374.911865 -976.623901
v -105.153679 596.917175 -858.110352
v -71.591042 390.185974 -831.656372
v -125.861946 599.269897 -779.702332
v -88.450203 431.597839 -790.203674
v -28.976067 373.538879 -1022.379883
v -58.015236 591.561523 -1036.591553
v 72.792419 361.976501 -1407.707520
v 43.753288 579.999207 -1421.919067
v 116.393600 585.665771 -1483.416382
v 89.174904 374.034790 -1256.194702
v 11.718895 382.834900 -962.922180
v -36.001671 395.528503 -822.417236
v -52.860802 436.940308 -780.964478
v -5.235687 599.484558 -1022.889587
v 96.532791 587.922180 -1408.217407
v 145.432770 367.643066 -1469.204956
v 60.135651 592.057434 -1270.406616
v -17.320274 600.857483 -977.133850
v -52.374153 604.840149 -844.408569
v -73.082436 607.192932 -766.000488
v 23.803467 381.461914 -1008.678101
v 125.571930 369.899536 -1394.005859
v 29.240685 340.640137 -1006.017090
v -23.538872 332.717163 -1019.718872
v 131.009079 329.077759 -1391.344849
v 78.229630 321.154724 -1405.046631
v 41.832542 325.289978 -1267.235718
v 94.612083 333.213013 -1253.533813
v 236.257828 549.550842 -1329.011475
v 220.163361 551.379333 -1268.072998
v 233.004364 454.971985 -1261.788696
v 249.098633 453.143433 -1322.727295
v 281.879272 556.399353 -1317.168091
v 265.784882 558.227844 -1256.229492
v 278.625793 461.820496 -1249.945312
v 294.720123 459.991943 -1310.883789
v 351.694763 566.879761 -1299.043701
v 335.600311 568.708313 -1238.105103
v 348.441162 472.300903 -1231.820923
v 364.535522 470.472351 -1292.759644
v 396.620117 573.623718 -1287.380981
v 380.525726 575.452209 -1226.442383
v 393.366608 479.044922 -1220.158203
v 409.460968 477.216370 -1281.096802
v 330.250824 346.645447 -2168.983398
v 277.471313 338.722412 -2182.685059
v 248.431946 556.745117 -2196.896729
v 301.211639 564.668091 -2183.194824
vn 0.9579 0.1438 0.2487
vn 0.2552 -0.0290 -0.9664
vn -0.9579 -0.1438 -0.2487
vn -0.1318 0.9892 -0.0645
vn 0.1318 -0.9892 0.0645
vn -0.0711 -0.7200 0.6903
vn 0.0476 -0.9960 0.0752
vn -0.3168 -0.0940 0.9438
vn -0.9581 -0.1442 -0.2473
vn 0.9581 0.1442 0.2473
vn 0.6116 0.0299 -0.7906
vn -0.1974 -0.0771 0.9773
vn 0.1625 -0.9810 0.1064
vn -0.2338 -0.1127 0.9657
vn 0.1147 -0.9851 0.1279
vn -0.2552 0.0290 0.9664
vn 0.1423 0.0832 0.9863
vn 0.6384 -0.7456 0.1910
vn 0.4186 0.9043 0.0834
usemtl Matériau.011
s off
f 25//1 26//1 4//1 3//1
f 29//2 30//2 8//2 7//2
f 27//3 28//3 6//3 5//3
f 22//1 21//1 9//1 10//1
f 42//4 27//4 5//4 31//4
f 56//5 26//5 2//5 44//5
f 10//1 9//1 13//1 14//1
f 55//5 22//5 10//5 45//5
f 23//3 24//3 11//3 12//3
f 46//6 14//6 18//6 47//6
f 45//7 10//7 14//7 46//7
f 12//3 11//3 15//3 16//3
f 33//4 12//4 16//4 35//4
f 54//8 47//8 18//8 17//8
f 16//9 15//9 19//9 20//9
f 14//10 13//10 17//10 18//10
f 5//3 6//3 24//3 23//3
f 44//5 2//5 22//5 55//5
f 31//4 5//4 23//4 40//4
f 2//1 1//1 21//1 22//1
f 50//5 4//5 26//5 56//5
f 29//4 7//4 27//4 42//4
f 7//3 8//3 28//3 27//3
f 26//11 25//11 63//11 66//11
f 43//4 29//4 42//4 49//4
f 8//5 30//5 41//5 28//5
f 51//4 31//4 40//4 48//4
f 6//5 32//5 39//5 24//5
f 20//12 19//12 38//12 37//12
f 52//4 33//4 35//4 53//4
f 11//13 34//13 36//13 15//13
f 15//6 36//6 38//6 19//6
f 24//5 39//5 34//5 11//5
f 28//5 41//5 32//5 6//5
f 49//4 42//4 31//4 51//4
f 30//3 29//3 81//3 80//3
f 3//2 4//2 50//2 43//2
f 25//4 49//4 51//4 1//4
f 9//4 52//4 53//4 13//4
f 1//4 51//4 48//4 21//4
f 3//4 43//4 49//4 25//4
f 30//5 50//5 56//5 41//5
f 32//3 41//3 60//3 61//3
f 37//14 38//14 47//14 54//14
f 34//15 45//15 46//15 36//15
f 36//6 46//6 47//6 38//6
f 39//5 55//5 45//5 34//5
f 55//16 39//16 58//16 57//16
f 61//5 62//5 57//5 58//5
f 60//5 59//5 62//5 61//5
f 39//3 32//3 61//3 58//3
f 44//1 55//1 57//1 62//1
f 41//2 56//2 59//2 60//2
f 56//1 44//1 62//1 59//1
f 66//2 63//2 67//2 70//2
f 1//17 2//17 65//17 64//17
f 2//18 26//18 66//18 65//18
f 25//19 1//19 64//19 63//19
f 69//5 70//5 74//5 73//5
f 64//16 65//16 69//16 68//16
f 65//5 66//5 70//5 69//5
f 63//4 64//4 68//4 67//4
f 73//5 74//5 78//5 77//5
f 67//4 68//4 72//4 71//4
f 70//2 67//2 71//2 74//2
f 68//16 69//16 73//16 72//16
f 76//1 77//1 78//1 75//1
f 71//4 72//4 76//4 75//4
f 74//2 71//2 75//2 78//2
f 82//2 79//2 80//2 81//2
f 50//5 30//5 80//5 79//5
f 43//1 50//1 79//1 82//1
f 29//4 43//4 82//4 81//4
o Cube.048_Cube.024
v -533.735352 497.910583 148.271896
v -668.943787 317.534515 61.204689
v -410.238922 505.535522 -59.304726
v -544.665161 325.252228 -145.830780
v -694.274658 616.458069 -11.427574
v -763.599792 523.974243 -56.069351
v -630.954590 620.367615 -117.857948
v -699.818665 528.076904 -161.953766
v -401.380524 423.049133 -497.839752
v -308.839539 503.018097 -465.224396
v -386.222809 601.021790 -485.954681
v -478.763794 521.052734 -518.570068
v -334.163666 454.744690 -701.233154
v -266.125427 513.539673 -677.253479
v -323.019470 585.594116 -692.494873
v -391.057648 526.799133 -716.474426
v -291.846130 477.449188 -828.353394
v -242.124695 520.415771 -810.829529
v -283.702026 573.072266 -821.967712
v -333.423401 530.105652 -839.491638
v -494.187012 590.810547 -84.782005
v -636.723999 400.016174 -175.572754
v -625.407715 582.736877 135.564102
v -768.948059 391.245514 43.131584
v -342.984131 554.695435 -479.914276
v -441.227844 469.798492 -514.539490
v -286.762024 552.091187 -702.095703
v -358.992950 489.673035 -727.553040
v -253.152039 549.094360 -841.725037
v -305.937439 503.480042 -860.328857
v -261.185150 478.263855 -917.346252
v -211.463898 521.230408 -899.822388
v -223.033264 554.732056 -941.005066
v -275.818573 509.117676 -959.608826
v -303.221344 535.001953 -937.190491
v -253.499969 577.968628 -919.666504
v -239.965546 479.884430 -981.527039
v -190.244232 522.851074 -964.003113
v -201.813904 556.352539 -1005.185486
v -254.599304 510.738312 -1023.789490
v -282.001953 536.622559 -1001.370911
v -232.280457 579.589111 -983.846985
v -203.170959 469.575226 -1013.620544
v -171.167542 497.230835 -1002.341248
v -178.614258 518.794312 -1028.848389
v -212.589966 489.434448 -1040.822876
v -264.133667 540.575134 -1069.893188
v -291.536407 566.459412 -1047.474731
v -241.815063 609.425964 -1029.950806
v -211.348358 586.189514 -1051.289185
v -178.493652 461.141571 -1035.282471
v -156.917786 479.786255 -1027.678101
v -161.938171 494.323730 -1045.548706
v -184.843567 474.530151 -1053.621582
v -160.166565 460.596588 -1064.495605
v -146.679260 472.251587 -1059.742065
v -149.817505 481.339172 -1070.913208
v -164.136047 468.965912 -1075.959717
v -265.274658 568.408020 -1087.950562
v -283.495026 585.618835 -1073.044067
v -250.434692 614.187805 -1061.392212
v -230.177032 598.737549 -1075.580688
v -234.819336 575.535034 366.297333
v -327.957825 352.622925 372.040314
v -108.820007 515.674561 171.123413
v -199.515625 293.904388 175.947754
v -408.496399 579.444763 178.810471
v -456.251068 465.151428 181.755066
v -335.620911 551.704834 76.439735
v -390.395172 435.044800 81.212921
v -90.221680 157.775452 -78.139915
v -4.852051 170.539185 12.516045
v 74.860291 223.348083 -67.785545
v -7.704041 210.559021 -158.310669
v 8.481445 -28.944397 -125.940559
v 70.809021 -21.951233 -57.184280
v 131.477844 16.856323 -116.127632
v 69.150269 9.863159 -184.884003
v 72.956665 -144.816833 -155.646027
v 118.504761 -139.706299 -105.399788
v 162.840759 -111.346069 -148.474823
v 117.292664 -116.456726 -198.721008
v -194.903442 564.614685 114.559235
v -303.285461 327.760956 120.471313
v -340.764771 626.746521 322.550903
v -439.642731 390.097900 328.647797
v 40.413574 188.902283 -23.115013
v -49.584229 178.804565 -122.395607
v 109.772095 -19.416138 -88.880867
v 43.603516 -26.840027 -161.874176
v 151.737366 -149.973267 -131.644501
v 103.382385 -155.398621 -184.987000
v 104.105164 -231.495239 -175.066132
v 149.653381 -226.384399 -124.819878
v 190.125000 -243.142761 -156.966766
v 141.770020 -248.568176 -210.309326
v 154.567566 -208.628845 -223.135986
v 200.115723 -203.518127 -172.889862
v 127.364014 -293.235535 -189.870728
v 172.912109 -288.125000 -139.624512
v 213.383972 -304.883545 -171.771301
v 165.028931 -310.308899 -225.113861
v 177.826538 -270.369263 -237.940704
v 223.374634 -265.258728 -187.694458
v 133.734436 -340.267944 -174.460297
v 163.051819 -336.978760 -142.118927
v 189.101685 -347.765381 -162.810364
v 157.977661 -351.257446 -197.144562
v 203.798706 -333.268433 -257.923431
v 216.596313 -293.328674 -270.750305
v 262.144531 -288.218384 -220.504181
v 252.153687 -327.843262 -204.580933
v 136.614502 -372.434082 -164.146301
v 156.379333 -370.216309 -142.342651
v 173.941406 -377.488892 -156.292267
v 152.958557 -379.842896 -179.439514
v 147.717590 -405.080322 -163.409668
v 160.072937 -403.693970 -149.779938
v 171.051086 -408.239624 -158.500031
v 157.934387 -409.711426 -172.969452
v 234.697815 -338.064575 -269.071960
v 243.207031 -311.508057 -277.600677
v 273.492493 -308.109863 -244.191284
v 266.849548 -334.456909 -233.603790
vn 0.6526 -0.6638 0.3654
vn -0.5755 0.7156 -0.3959
vn -0.6526 0.6637 -0.3656
vn -0.3196 -0.2068 0.9247
vn 0.1765 0.9742 0.1408
vn -0.5195 -0.7825 -0.3433
vn -0.5860 0.7748 -0.2372
vn 0.7144 0.6726 0.1928
vn -0.7681 -0.4045 -0.4965
vn 0.7123 -0.6870 0.1436
vn -0.7644 -0.5306 -0.3663
vn 0.7991 0.5695 0.1925
vn -0.7505 -0.5634 -0.3455
vn 0.6330 -0.7690 0.0894
vn 0.6918 0.6781 0.2481
vn 0.6368 -0.7674 0.0749
vn -0.5807 0.7744 -0.2512
vn 0.8232 0.5380 0.1812
vn 0.6809 0.7183 0.1431
vn 0.5995 -0.7751 0.1995
vn -0.6537 -0.6860 -0.3196
vn 0.7024 0.6920 0.1666
vn -0.6220 -0.7109 -0.3281
vn -0.5228 -0.7335 -0.4342
vn 0.3631 0.9238 0.1212
vn -0.7991 -0.3397 -0.4960
vn 0.5987 0.7039 0.3822
vn -0.8020 0.3780 0.4625
vn -0.6058 0.7748 -0.1807
vn -0.6987 -0.6710 -0.2480
vn -0.6152 0.7737 -0.1514
vn 0.7643 0.5871 0.2669
vn -0.6956 -0.6744 -0.2477
vn -0.7676 -0.5830 -0.2662
vn 0.6987 0.6578 0.2812
vn 0.3640 -0.6806 0.6359
vn 0.7615 0.5908 0.2667
vn 0.6907 0.6802 0.2455
vn -0.7684 -0.5808 -0.2687
vn 0.6058 -0.7748 0.1807
vn -0.1281 0.4980 -0.8577
vn -0.5351 -0.7598 -0.3694
vn 0.8779 0.4613 0.1286
vn -0.1089 0.4809 -0.8700
vn 0.5885 0.8075 -0.0390
vn -0.7618 -0.6043 -0.2335
vn -0.6605 0.5606 0.4994
vn 0.6605 -0.5606 -0.4994
vn -0.4170 0.7127 -0.5641
vn 0.8619 0.4839 0.1515
vn -0.5636 -0.7479 -0.3508
vn 0.3473 -0.6697 0.6564
vn 0.6382 -0.4996 -0.5857
vn 0.8569 0.4906 0.1583
vn -0.5722 -0.7440 -0.3451
vn 0.5380 -0.7660 0.3518
vn -0.1711 0.5353 -0.8272
vn -0.7718 -0.3680 -0.5185
vn 0.6010 -0.4175 -0.6815
vn -0.6822 0.6717 0.2888
vn 0.7561 -0.2988 0.5823
vn -0.0105 0.5600 -0.8285
vn -0.7416 0.3093 -0.5952
vn -0.3123 0.1546 0.9373
vn -0.0214 0.9562 -0.2920
vn -0.3383 -0.9391 0.0596
vn 0.6738 0.3414 -0.6553
vn 0.8916 0.4476 -0.0680
vn -0.6897 -0.5050 -0.5190
vn 0.3230 -0.5295 0.7844
vn -0.5515 -0.1137 -0.8264
vn 0.6293 -0.0347 0.7764
vn -0.5853 -0.1144 -0.8027
vn -0.6144 -0.4772 0.6284
vn 0.7081 0.1016 0.6987
vn -0.6162 -0.4991 0.6093
vn 0.6820 0.3313 -0.6520
vn 0.6206 -0.0623 0.7816
vn 0.7724 0.0348 0.6341
vn -0.6648 -0.3826 0.6416
vn -0.6885 -0.1804 -0.7025
vn 0.7610 0.0533 0.6466
vn -0.7033 -0.2108 -0.6789
vn -0.6359 -0.7714 -0.0220
vn 0.5288 0.6855 -0.5005
vn -0.7008 -0.6642 -0.2601
vn 0.4488 0.8930 0.0324
vn -0.8800 0.3752 0.2912
vn 0.6581 0.4008 -0.6374
vn -0.7029 -0.0958 -0.7048
vn 0.6472 0.4287 -0.6303
vn 0.6318 0.0518 0.7734
vn -0.7056 -0.0982 -0.7018
vn -0.6288 -0.0484 -0.7761
vn 0.6814 0.1184 0.7223
vn -0.7417 0.1160 0.6606
vn 0.6347 0.0543 0.7708
vn 0.7106 0.1007 0.6964
vn -0.6261 -0.0493 -0.7782
vn -0.6581 -0.4008 0.6374
vn 0.6773 -0.4696 -0.5662
vn -0.7207 -0.3021 -0.6239
vn 0.5736 -0.1568 0.8040
vn 0.6684 -0.4946 -0.5556
vn 0.8878 -0.0396 0.4586
vn -0.6565 -0.0317 -0.7536
vn 0.2601 0.9081 -0.3281
vn -0.2601 -0.9081 0.3281
vn 0.7418 -0.0216 -0.6703
vn 0.5855 -0.1229 0.8013
vn -0.7203 -0.2695 -0.6392
vn -0.7404 0.1442 0.6565
vn -0.1835 -0.9473 0.2627
vn 0.5889 -0.1128 0.8003
vn -0.7199 -0.2594 -0.6438
vn -0.7101 -0.2265 0.6667
vn 0.6956 -0.4119 -0.5886
vn -0.3584 -0.1794 -0.9162
vn -0.0875 -0.9799 0.1790
vn 0.4178 0.7844 -0.4585
usemtl Matériau.012
s off
f 83//20 84//20 86//20 85//20
f 90//21 89//21 93//21 94//21
f 89//22 90//22 88//22 87//22
f 105//23 106//23 84//23 83//23
f 103//24 89//24 87//24 105//24
f 104//25 86//25 84//25 106//25
f 94//26 93//26 97//26 98//26
f 103//27 85//27 92//27 107//27
f 104//28 90//28 94//28 108//28
f 85//29 86//29 91//29 92//29
f 110//30 98//30 102//30 112//30
f 107//31 92//31 96//31 109//31
f 108//32 94//32 98//32 110//32
f 92//33 91//33 95//33 96//33
f 101//34 111//34 115//34 118//34
f 96//35 95//35 99//35 100//35
f 98//36 97//36 101//36 102//36
f 109//37 96//37 100//37 111//37
f 97//38 109//38 111//38 101//38
f 100//39 99//39 113//39 114//39
f 91//40 108//40 110//40 95//40
f 93//41 107//41 109//41 97//41
f 95//42 110//42 112//42 99//42
f 86//43 104//43 108//43 91//43
f 89//44 103//44 107//44 93//44
f 90//45 104//45 106//45 88//45
f 85//46 103//46 105//46 83//46
f 87//47 88//47 106//47 105//47
f 117//48 118//48 124//48 123//48
f 113//49 116//49 122//49 119//49
f 102//50 101//50 118//50 117//50
f 111//51 100//51 114//51 115//51
f 99//52 112//52 116//52 113//52
f 112//53 102//53 117//53 116//53
f 124//54 121//54 132//54 131//54
f 120//55 119//55 125//55 126//55
f 115//56 114//56 120//56 121//56
f 118//57 115//57 121//57 124//57
f 116//58 117//58 123//58 122//58
f 114//59 113//59 119//59 120//59
f 128//60 127//60 135//60 136//60
f 119//61 122//61 128//61 125//61
f 121//62 120//62 126//62 127//62
f 122//63 121//63 127//63 128//63
f 131//64 132//64 144//64 143//64
f 122//65 123//65 130//65 129//65
f 123//66 124//66 131//66 130//66
f 121//67 122//67 129//67 132//67
f 136//68 135//68 139//68 140//68
f 127//69 126//69 134//69 135//69
f 125//70 128//70 136//70 133//70
f 126//71 125//71 133//71 134//71
f 138//72 137//72 140//72 139//72
f 135//73 134//73 138//73 139//73
f 133//74 136//74 140//74 137//74
f 134//75 133//75 137//75 138//75
f 144//76 141//76 142//76 143//76
f 129//77 130//77 142//77 141//77
f 132//78 129//78 141//78 144//78
f 130//79 131//79 143//79 142//79
f 145//80 146//80 148//80 147//80
f 152//81 151//81 155//81 156//81
f 151//82 152//82 150//82 149//82
f 167//83 168//83 146//83 145//83
f 165//84 151//84 149//84 167//84
f 166//85 148//85 146//85 168//85
f 156//86 155//86 159//86 160//86
f 165//87 147//87 154//87 169//87
f 166//88 152//88 156//88 170//88
f 147//89 148//89 153//89 154//89
f 172//90 160//90 164//90 174//90
f 169//91 154//91 158//91 171//91
f 170//92 156//92 160//92 172//92
f 154//93 153//93 157//93 158//93
f 163//94 173//94 177//94 180//94
f 158//95 157//95 161//95 162//95
f 160//96 159//96 163//96 164//96
f 171//97 158//97 162//97 173//97
f 159//98 171//98 173//98 163//98
f 162//99 161//99 175//99 176//99
f 153//100 170//100 172//100 157//100
f 155//101 169//101 171//101 159//101
f 157//102 172//102 174//102 161//102
f 148//103 166//103 170//103 153//103
f 151//104 165//104 169//104 155//104
f 152//105 166//105 168//105 150//105
f 147//106 165//106 167//106 145//106
f 149//107 150//107 168//107 167//107
f 179//108 180//108 186//108 185//108
f 175//109 178//109 184//109 181//109
f 164//110 163//110 180//110 179//110
f 173//111 162//111 176//111 177//111
f 161//112 174//112 178//112 175//112
f 174//113 164//113 179//113 178//113
f 186//114 183//114 194//114 193//114
f 182//115 181//115 187//115 188//115
f 177//116 176//116 182//116 183//116
f 180//117 177//117 183//117 186//117
f 178//118 179//118 185//118 184//118
f 176//119 175//119 181//119 182//119
f 190//120 189//120 197//120 198//120
f 181//121 184//121 190//121 187//121
f 183//122 182//122 188//122 189//122
f 184//123 183//123 189//123 190//123
f 193//124 194//124 206//124 205//124
f 184//125 185//125 192//125 191//125
f 185//126 186//126 193//126 192//126
f 183//127 184//127 191//127 194//127
f 198//128 197//128 201//128 202//128
f 189//129 188//129 196//129 197//129
f 187//130 190//130 198//130 195//130
f 188//131 187//131 195//131 196//131
f 200//132 199//132 202//132 201//132
f 197//133 196//133 200//133 201//133
f 195//134 198//134 202//134 199//134
f 196//135 195//135 199//135 200//135
f 206//136 203//136 204//136 205//136
f 191//137 192//137 204//137 203//137
f 194//138 191//138 203//138 206//138
f 192//139 193//139 205//139 204//139
