# Blender v2.91.2 OBJ File: 'camionnete02.blend'
# www.blender.org
mtllib arme_000047.mtl
o Cube.046_Cube.010
v 236.564911 492.795807 -1118.196289
v 183.841003 278.791260 -1117.020630
v 314.812683 472.391449 -1323.233032
v 262.088776 258.386963 -1322.057373
v 37.375107 541.425537 -1199.052368
v -15.348839 327.421021 -1197.876465
v 115.622894 521.021179 -1404.088867
v 62.898956 307.016724 -1402.913208
v 128.833160 520.888306 -835.901489
v 76.109268 306.883911 -834.725769
v -123.080513 355.513672 -915.581543
v -70.356598 569.518127 -916.757385
v 80.077515 533.602173 -708.144470
v 27.353577 319.597687 -706.968750
v -171.836212 368.227448 -787.824463
v -119.112320 582.231934 -789.000305
v 51.274841 541.112854 -632.671387
v 17.887886 384.151337 -644.364990
v -181.301956 432.781158 -725.220886
v -147.914993 589.742676 -713.527161
v 145.641312 516.505371 -879.944702
v 92.917419 302.500946 -878.768921
v -53.548492 565.135193 -960.800598
v -106.272423 351.130707 -959.624756
v 287.188782 479.594818 -1250.848755
v 234.464874 265.590302 -1249.673096
v 87.998993 528.224548 -1331.704590
v 35.275101 314.220093 -1330.528809
v 215.217773 496.706390 -1363.661011
v 162.493896 282.701843 -1362.485352
v 136.970016 517.110657 -1158.624390
v 84.246078 303.106110 -1157.448608
v 29.238281 545.203247 -876.329407
v -23.485649 331.198792 -875.153564
v -19.517380 557.917053 -748.572388
v -65.673355 352.445221 -733.909912
v -48.320068 565.427734 -673.099243
v -72.056099 395.973969 -691.696106
v -6.677513 326.815796 -919.196838
v 46.046402 540.820312 -920.372620
v 134.869965 289.905182 -1290.101074
v 187.593903 503.909760 -1291.276733
v 265.015289 484.548920 -1343.447021
v 134.043549 290.948700 -1137.234619
v 26.311798 319.041351 -854.939697
v -32.094818 344.247406 -720.279602
v -38.477562 387.776154 -678.065735
v 95.843857 528.662842 -900.158569
v 237.391327 491.752228 -1271.062988
v 212.291351 270.544403 -1342.271484
v 186.767426 504.953217 -1138.410522
v 79.035706 533.045837 -856.115479
v 30.280060 545.759583 -728.358398
v 1.477379 553.270325 -652.885315
v 43.119934 314.658386 -898.982849
v 184.667389 277.747772 -1269.886963
v 33.248123 274.588959 -898.762695
v -16.549324 286.746399 -918.976624
v 174.795532 237.678345 -1269.666992
v 124.998138 249.835785 -1289.880859
v 74.374252 263.036713 -1157.228394
v 124.171692 250.879272 -1137.014404
v 342.333801 403.089569 -1179.438477
v 319.948364 408.926880 -1120.780762
v 296.634521 314.296265 -1120.260742
v 319.019836 308.458984 -1178.918579
v 385.377594 392.580994 -1161.966064
v 362.992249 398.418304 -1103.308350
v 339.678314 303.787689 -1102.788452
v 362.063660 297.950378 -1161.446045
v 451.248413 376.499481 -1135.227539
v 428.863098 382.336731 -1076.569824
v 405.549133 287.706146 -1076.050049
v 427.934448 281.868866 -1134.707764
v 493.635498 366.151154 -1118.021729
v 471.250122 371.988434 -1059.364014
v 447.936279 277.357880 -1058.844238
v 470.321594 271.520569 -1117.501831
v 469.350586 203.512665 -2015.855713
v 419.553101 215.670135 -2036.069580
v 472.276855 429.674713 -2037.245483
v 522.074463 417.517242 -2017.031372
vn 0.9037 -0.2206 0.3668
vn 0.3550 -0.0926 -0.9303
vn -0.9037 0.2206 -0.3668
vn 0.2392 0.9710 -0.0053
vn -0.2392 -0.9710 0.0053
vn -0.4147 -0.6641 0.6221
vn -0.3209 -0.9471 0.0058
vn -0.4527 0.0010 0.8917
vn -0.9043 0.2203 -0.3656
vn 0.9043 -0.2203 0.3656
vn 0.6820 -0.1719 -0.7109
vn -0.3408 -0.0276 0.9397
vn -0.2135 -0.9756 0.0510
vn -0.3856 -0.0471 0.9215
vn -0.2621 -0.9628 0.0665
vn -0.3550 0.0926 0.9303
vn 0.0293 -0.0017 0.9996
vn 0.2992 -0.9315 0.2069
vn 0.6982 0.6880 0.1980
usemtl Matériau.011
s off
f 25//1 26//1 4//1 3//1
f 29//2 30//2 8//2 7//2
f 27//3 28//3 6//3 5//3
f 22//1 21//1 9//1 10//1
f 42//4 27//4 5//4 31//4
f 56//5 26//5 2//5 44//5
f 10//1 9//1 13//1 14//1
f 55//5 22//5 10//5 45//5
f 23//3 24//3 11//3 12//3
f 46//6 14//6 18//6 47//6
f 45//7 10//7 14//7 46//7
f 12//3 11//3 15//3 16//3
f 33//4 12//4 16//4 35//4
f 54//8 47//8 18//8 17//8
f 16//9 15//9 19//9 20//9
f 14//10 13//10 17//10 18//10
f 5//3 6//3 24//3 23//3
f 44//5 2//5 22//5 55//5
f 31//4 5//4 23//4 40//4
f 2//1 1//1 21//1 22//1
f 50//5 4//5 26//5 56//5
f 29//4 7//4 27//4 42//4
f 7//3 8//3 28//3 27//3
f 26//11 25//11 63//11 66//11
f 43//4 29//4 42//4 49//4
f 8//5 30//5 41//5 28//5
f 51//4 31//4 40//4 48//4
f 6//5 32//5 39//5 24//5
f 20//12 19//12 38//12 37//12
f 52//4 33//4 35//4 53//4
f 11//13 34//13 36//13 15//13
f 15//6 36//6 38//6 19//6
f 24//5 39//5 34//5 11//5
f 28//5 41//5 32//5 6//5
f 49//4 42//4 31//4 51//4
f 30//3 29//3 81//3 80//3
f 3//2 4//2 50//2 43//2
f 25//4 49//4 51//4 1//4
f 9//4 52//4 53//4 13//4
f 1//4 51//4 48//4 21//4
f 3//4 43//4 49//4 25//4
f 30//5 50//5 56//5 41//5
f 32//3 41//3 60//3 61//3
f 37//14 38//14 47//14 54//14
f 34//15 45//15 46//15 36//15
f 36//6 46//6 47//6 38//6
f 39//5 55//5 45//5 34//5
f 55//16 39//16 58//16 57//16
f 61//5 62//5 57//5 58//5
f 60//5 59//5 62//5 61//5
f 39//3 32//3 61//3 58//3
f 44//1 55//1 57//1 62//1
f 41//2 56//2 59//2 60//2
f 56//1 44//1 62//1 59//1
f 66//2 63//2 67//2 70//2
f 1//17 2//17 65//17 64//17
f 2//18 26//18 66//18 65//18
f 25//19 1//19 64//19 63//19
f 69//5 70//5 74//5 73//5
f 64//16 65//16 69//16 68//16
f 65//5 66//5 70//5 69//5
f 63//4 64//4 68//4 67//4
f 73//5 74//5 78//5 77//5
f 67//4 68//4 72//4 71//4
f 70//2 67//2 71//2 74//2
f 68//16 69//16 73//16 72//16
f 76//1 77//1 78//1 75//1
f 71//4 72//4 76//4 75//4
f 74//2 71//2 75//2 78//2
f 82//2 79//2 80//2 81//2
f 50//5 30//5 80//5 79//5
f 43//1 50//1 79//1 82//1
f 29//4 43//4 82//4 81//4
o Cube.048_Cube.024
v -563.039551 455.266235 181.660385
v -724.628357 340.242065 43.616707
v -423.929779 492.694458 -12.363205
v -586.175354 380.161530 -148.313660
v -682.248718 645.564575 59.570145
v -765.099792 586.588501 -11.208710
v -610.923218 664.755127 -39.911201
v -693.296387 606.528687 -110.279732
v -403.602600 493.385345 -438.588837
v -293.898010 533.373413 -389.716583
v -327.768158 653.317261 -411.827667
v -437.472717 613.329224 -460.699799
v -302.937653 504.209686 -630.007080
v -222.280396 533.609802 -594.075012
v -247.182465 621.795288 -610.331604
v -327.839752 592.395081 -646.263550
v -238.706726 513.559692 -749.392395
v -179.763489 535.044922 -723.133728
v -197.961609 599.489685 -735.013733
v -256.904968 578.004517 -761.272217
v -486.291687 598.052979 -13.946983
v -657.535156 479.062866 -158.240021
v -634.071045 558.261353 192.021576
v -805.617493 436.148987 45.471207
v -305.096436 594.308350 -404.335693
v -421.561340 551.856140 -456.219574
v -224.305115 577.701538 -618.179749
v -309.932800 546.489746 -656.325989
v -175.609619 566.623291 -752.868469
v -238.185303 543.814087 -780.744995
v -198.155640 505.683777 -833.974182
v -139.212402 527.168945 -807.715515
v -132.465210 563.724426 -847.343689
v -195.040771 540.915222 -875.220459
v -214.159027 574.340454 -854.227051
v -155.215698 595.825745 -827.968445
v -169.368164 501.289948 -894.998901
v -110.424744 522.775269 -868.740295
v -103.677734 559.330566 -908.368469
v -166.253357 536.521362 -936.245178
v -185.371643 569.946777 -915.251648
v -126.428467 591.431946 -888.992920
v -134.721130 479.233948 -923.340210
v -96.782043 493.063049 -906.438782
v -92.439148 516.592102 -931.945618
v -132.716187 501.910858 -949.888672
v -158.271484 569.062744 -980.787903
v -177.389771 602.488098 -959.794495
v -118.446594 623.973267 -933.535828
v -95.696106 591.871948 -952.911194
v -112.007202 463.030090 -942.597534
v -86.429626 472.353271 -931.203003
v -83.501892 488.215912 -948.399048
v -110.655457 478.318237 -960.495789
v -91.344604 456.689758 -969.475891
v -75.355835 462.517792 -962.353088
v -73.525513 472.433716 -973.102722
v -90.499573 466.246521 -980.664368
v -146.994324 595.906250 -996.734558
v -159.706360 618.131226 -982.775574
v -120.514221 632.416992 -965.315857
v -105.387085 611.072327 -978.198914
v -301.854340 468.400635 473.165649
v -295.664307 294.211304 305.781891
v -153.345032 597.986694 330.352692
v -155.263977 433.062317 166.477509
v -462.727997 553.471375 293.686005
v -459.554199 464.159668 207.863678
v -387.270996 624.285217 225.285583
v -387.567047 535.352417 136.438385
v -1.989807 714.773926 -74.280800
v 81.260437 740.088074 17.498589
v 10.135803 836.964294 55.127739
v -72.518921 812.340759 -35.178368
v 106.838562 861.688721 -190.315063
v 168.734070 879.509705 -123.140388
v 116.879456 951.243042 -94.391396
v 54.984070 933.421997 -161.566162
v 175.178406 955.609192 -260.845093
v 220.410706 968.632568 -211.754700
v 182.516052 1021.054321 -190.745178
v 137.283691 1008.031006 -239.835663
v -259.778198 642.331970 299.860199
v -264.037231 463.983551 119.526886
v -419.660889 501.499390 445.114166
v -413.089417 316.576019 267.415649
v 52.308167 791.943848 35.985832
v -37.065491 766.211304 -61.010948
v 154.091492 927.385864 -118.377235
v 88.381897 908.466736 -189.691437
v 216.362854 1011.749878 -216.560455
v 168.343079 997.924072 -268.675903
v 223.919250 1010.037598 -320.194733
v 269.151428 1023.060913 -271.104248
v 266.779053 1076.573730 -280.211639
v 218.759216 1062.747925 -332.327209
v 187.442566 1071.257080 -302.825897
v 232.674866 1084.280273 -253.735382
v 258.205627 1050.187256 -362.437897
v 303.437866 1063.210449 -313.347565
v 301.065491 1116.723511 -322.455017
v 253.045776 1102.897583 -374.570374
v 221.728943 1111.406616 -345.069000
v 266.961243 1124.429932 -295.978577
v 300.860779 1058.175049 -387.071991
v 329.974792 1066.557617 -355.474762
v 328.447693 1101.001587 -361.336823
v 297.539734 1092.102295 -394.881195
v 253.672546 1156.622559 -389.400787
v 222.355652 1165.131592 -359.899384
v 267.587952 1178.155029 -310.808929
v 301.692200 1170.448486 -337.285248
v 329.486145 1062.497070 -404.714020
v 349.114075 1068.148438 -383.412079
v 348.084778 1091.369629 -387.364288
v 327.247253 1085.370117 -409.978943
v 353.556091 1078.546631 -423.492706
v 365.825745 1082.079346 -410.176636
v 365.182068 1096.594971 -412.646942
v 352.156433 1092.844727 -426.783722
v 256.575134 1189.243652 -383.970154
v 235.752136 1194.901367 -364.354248
v 265.827698 1203.560547 -331.713287
v 288.504089 1198.436646 -349.317810
vn 0.4702 -0.8671 0.1644
vn -0.3178 0.9165 -0.2430
vn -0.4705 0.8662 -0.1685
vn -0.4301 -0.3791 0.8193
vn 0.3593 0.8340 0.4188
vn -0.6359 -0.5209 -0.5696
vn -0.2341 0.9410 -0.2445
vn 0.8397 0.4065 0.3600
vn -0.7899 -0.0760 -0.6085
vn 0.4780 -0.8781 0.0214
vn -0.8469 -0.2066 -0.4900
vn 0.9162 0.2351 0.3247
vn -0.8485 -0.2428 -0.4702
vn 0.2995 -0.9484 0.1038
vn 0.8482 0.3736 0.3756
vn 0.3054 -0.9480 0.0901
vn -0.2274 0.9390 -0.2578
vn 0.9287 0.1973 0.3140
vn 0.8664 0.4179 0.2733
vn 0.2516 -0.9451 0.2086
vn -0.8061 -0.3927 -0.4426
vn 0.8738 0.3850 0.2970
vn -0.7846 -0.4273 -0.4493
vn -0.6420 -0.4704 -0.6055
vn 0.5680 0.7536 0.3310
vn -0.8087 -0.0046 -0.5882
vn 0.6964 0.4214 0.5809
vn -0.7431 0.4018 0.5351
vn -0.2600 0.9466 -0.1908
vn -0.8520 -0.3645 -0.3757
vn -0.2730 0.9481 -0.1629
vn 0.8802 0.2620 0.3957
vn -0.8504 -0.3688 -0.3753
vn -0.8819 -0.2570 -0.3951
vn 0.8429 0.3513 0.4077
vn 0.0090 -0.7838 0.6210
vn 0.8790 0.2665 0.3955
vn 0.8482 0.3760 0.3731
vn -0.8816 -0.2545 -0.3975
vn 0.2600 -0.9466 0.1908
vn 0.1737 0.5344 -0.8272
vn -0.7161 -0.5031 -0.4838
vn 0.9590 0.1074 0.2624
vn 0.1870 0.5118 -0.8385
vn 0.8372 0.5397 0.0889
vn -0.8885 -0.2798 -0.3636
vn -0.4779 0.7479 0.4608
vn 0.4779 -0.7479 -0.4608
vn -0.0563 0.8309 -0.5536
vn 0.9492 0.1337 0.2850
vn -0.7407 -0.4822 -0.4678
vn -0.0052 -0.7682 0.6402
vn 0.4905 -0.6806 -0.5443
vn 0.9460 0.1415 0.2916
vn -0.7480 -0.4757 -0.4628
vn 0.1775 -0.9186 0.3531
vn 0.1432 0.5838 -0.7991
vn -0.7755 -0.0482 -0.6295
vn 0.4982 -0.5879 -0.6373
vn -0.4302 0.8651 0.2578
vn 0.8031 -0.4111 0.4312
vn -0.6177 0.7614 -0.1967
vn -0.8037 0.4098 -0.4314
vn -0.3443 -0.6569 0.6708
vn -0.3764 0.8313 0.4089
vn 0.0756 -0.7433 -0.6647
vn -0.5184 0.8159 0.2559
vn 0.3838 0.6249 0.6799
vn -0.3837 -0.1904 -0.9036
vn 0.8165 -0.5591 0.1440
vn -0.6740 -0.0405 -0.7377
vn 0.7457 0.1762 0.6426
vn -0.6650 -0.0805 -0.7425
vn 0.5970 -0.7223 -0.3491
vn 0.6291 0.2378 0.7401
vn 0.6008 -0.7112 -0.3649
vn -0.5088 0.8237 0.2502
vn 0.7706 0.1586 0.6173
vn 0.6408 0.3381 0.6893
vn 0.5381 -0.7931 -0.2854
vn -0.5768 -0.2024 -0.7914
vn 0.6467 0.3087 0.6975
vn -0.5442 -0.2200 -0.8096
vn -0.1093 -0.5338 -0.8385
vn -0.0602 0.8125 0.5798
vn -0.3690 -0.4454 -0.8158
vn 0.0547 0.6981 0.7139
vn -0.9553 -0.2219 0.1955
vn -0.5482 0.7815 0.2978
vn -0.6358 -0.2317 -0.7363
vn -0.5636 0.7628 0.3169
vn 0.6953 0.1475 0.7035
vn -0.6328 -0.2349 -0.7378
vn -0.6986 -0.1444 -0.7008
vn 0.6286 0.2001 0.7515
vn 0.2166 -0.9745 0.0590
vn 0.6926 0.1508 0.7054
vn 0.6285 0.2412 0.7394
vn -0.6989 -0.1410 -0.7012
vn 0.5482 -0.7815 -0.2978
vn 0.0594 0.9499 -0.3067
vn -0.4509 -0.2419 -0.8592
vn 0.8345 0.1282 0.5359
vn 0.0806 0.9425 -0.3243
vn 0.5896 0.5371 0.6032
vn -0.7000 -0.1824 -0.6905
vn -0.7467 0.1851 0.6389
vn 0.7467 -0.1851 -0.6389
vn -0.2833 0.9590 0.0066
vn 0.8142 0.1323 0.5653
vn -0.4826 -0.2411 -0.8420
vn 0.1961 -0.9774 0.0787
vn 0.7435 -0.0800 -0.6639
vn 0.8079 0.1335 0.5740
vn -0.4921 -0.2407 -0.8366
vn 0.4459 -0.8772 -0.1781
vn 0.0112 0.9639 -0.2661
vn -0.6479 0.1808 -0.7399
vn 0.7280 0.0491 -0.6838
vn -0.7227 0.4086 0.5575
usemtl Matériau.012
s off
f 83//20 84//20 86//20 85//20
f 90//21 89//21 93//21 94//21
f 89//22 90//22 88//22 87//22
f 105//23 106//23 84//23 83//23
f 103//24 89//24 87//24 105//24
f 104//25 86//25 84//25 106//25
f 94//26 93//26 97//26 98//26
f 103//27 85//27 92//27 107//27
f 104//28 90//28 94//28 108//28
f 85//29 86//29 91//29 92//29
f 110//30 98//30 102//30 112//30
f 107//31 92//31 96//31 109//31
f 108//32 94//32 98//32 110//32
f 92//33 91//33 95//33 96//33
f 101//34 111//34 115//34 118//34
f 96//35 95//35 99//35 100//35
f 98//36 97//36 101//36 102//36
f 109//37 96//37 100//37 111//37
f 97//38 109//38 111//38 101//38
f 100//39 99//39 113//39 114//39
f 91//40 108//40 110//40 95//40
f 93//41 107//41 109//41 97//41
f 95//42 110//42 112//42 99//42
f 86//43 104//43 108//43 91//43
f 89//44 103//44 107//44 93//44
f 90//45 104//45 106//45 88//45
f 85//46 103//46 105//46 83//46
f 87//47 88//47 106//47 105//47
f 117//48 118//48 124//48 123//48
f 113//49 116//49 122//49 119//49
f 102//50 101//50 118//50 117//50
f 111//51 100//51 114//51 115//51
f 99//52 112//52 116//52 113//52
f 112//53 102//53 117//53 116//53
f 124//54 121//54 132//54 131//54
f 120//55 119//55 125//55 126//55
f 115//56 114//56 120//56 121//56
f 118//57 115//57 121//57 124//57
f 116//58 117//58 123//58 122//58
f 114//59 113//59 119//59 120//59
f 128//60 127//60 135//60 136//60
f 119//61 122//61 128//61 125//61
f 121//62 120//62 126//62 127//62
f 122//63 121//63 127//63 128//63
f 131//64 132//64 144//64 143//64
f 122//65 123//65 130//65 129//65
f 123//66 124//66 131//66 130//66
f 121//67 122//67 129//67 132//67
f 136//68 135//68 139//68 140//68
f 127//69 126//69 134//69 135//69
f 125//70 128//70 136//70 133//70
f 126//71 125//71 133//71 134//71
f 138//72 137//72 140//72 139//72
f 135//73 134//73 138//73 139//73
f 133//74 136//74 140//74 137//74
f 134//75 133//75 137//75 138//75
f 144//76 141//76 142//76 143//76
f 129//77 130//77 142//77 141//77
f 132//78 129//78 141//78 144//78
f 130//79 131//79 143//79 142//79
f 145//80 146//80 148//80 147//80
f 152//81 151//81 155//81 156//81
f 151//82 152//82 150//82 149//82
f 167//83 168//83 146//83 145//83
f 165//84 151//84 149//84 167//84
f 166//85 148//85 146//85 168//85
f 156//86 155//86 159//86 160//86
f 165//87 147//87 154//87 169//87
f 166//88 152//88 156//88 170//88
f 147//89 148//89 153//89 154//89
f 172//90 160//90 164//90 174//90
f 169//91 154//91 158//91 171//91
f 170//92 156//92 160//92 172//92
f 154//93 153//93 157//93 158//93
f 163//94 173//94 177//94 180//94
f 158//95 157//95 161//95 162//95
f 160//96 159//96 163//96 164//96
f 171//97 158//97 162//97 173//97
f 159//98 171//98 173//98 163//98
f 162//99 161//99 175//99 176//99
f 153//100 170//100 172//100 157//100
f 155//101 169//101 171//101 159//101
f 157//102 172//102 174//102 161//102
f 148//103 166//103 170//103 153//103
f 151//104 165//104 169//104 155//104
f 152//105 166//105 168//105 150//105
f 147//106 165//106 167//106 145//106
f 149//107 150//107 168//107 167//107
f 179//108 180//108 186//108 185//108
f 175//109 178//109 184//109 181//109
f 164//110 163//110 180//110 179//110
f 173//111 162//111 176//111 177//111
f 161//112 174//112 178//112 175//112
f 174//113 164//113 179//113 178//113
f 186//114 183//114 194//114 193//114
f 182//115 181//115 187//115 188//115
f 177//116 176//116 182//116 183//116
f 180//117 177//117 183//117 186//117
f 178//118 179//118 185//118 184//118
f 176//119 175//119 181//119 182//119
f 190//120 189//120 197//120 198//120
f 181//121 184//121 190//121 187//121
f 183//122 182//122 188//122 189//122
f 184//123 183//123 189//123 190//123
f 193//124 194//124 206//124 205//124
f 184//125 185//125 192//125 191//125
f 185//126 186//126 193//126 192//126
f 183//127 184//127 191//127 194//127
f 198//128 197//128 201//128 202//128
f 189//129 188//129 196//129 197//129
f 187//130 190//130 198//130 195//130
f 188//131 187//131 195//131 196//131
f 200//132 199//132 202//132 201//132
f 197//133 196//133 200//133 201//133
f 195//134 198//134 202//134 199//134
f 196//135 195//135 199//135 200//135
f 206//136 203//136 204//136 205//136
f 191//137 192//137 204//137 203//137
f 194//138 191//138 203//138 206//138
f 192//139 193//139 205//139 204//139
