# Blender v2.91.2 OBJ File: 'camionnete02.blend'
# www.blender.org
mtllib arme_000021.mtl
o Cube.046_Cube.010
v 218.197525 141.003387 -1075.622803
v 177.811523 -73.986015 -1048.648193
v 309.838989 99.191139 -1271.665283
v 269.452942 -115.798271 -1244.690674
v 21.856247 165.709534 -1172.673340
v -18.529858 -49.279884 -1145.698486
v 113.497665 123.897301 -1368.715820
v 73.111588 -91.092155 -1341.741211
v 92.025467 198.570557 -805.710999
v 51.639420 -16.418831 -778.736450
v -144.701889 8.287323 -875.786804
v -104.315826 223.276733 -902.761475
v 34.924362 224.623505 -683.558167
v -5.461723 9.634094 -656.583679
v -201.803070 34.340233 -753.634033
v -161.417007 249.329651 -780.608582
v 1.191544 240.014404 -611.395813
v -22.399105 81.038017 -603.757568
v -218.740509 105.744194 -700.807983
v -195.149841 264.720581 -708.446167
v 75.185562 438.948273 -710.449280
v -121.155785 463.654449 -807.499817
v 41.452759 454.339172 -638.286926
v -154.888565 479.045380 -735.337341
v 111.710648 189.589020 -847.822144
v 71.324600 -25.400368 -820.847656
v -84.630676 214.295197 -944.872681
v -125.016769 -0.694221 -917.898071
v 105.357224 269.540192 -814.615479
v -90.984100 294.246368 -911.665955
v 125.042404 260.558624 -856.726624
v -71.298950 285.264771 -953.776978
v 124.699432 372.505493 -827.534485
v -71.641891 397.211639 -924.584839
v 144.384537 363.523926 -869.645630
v -51.956734 388.230133 -966.696106
v 49.546661 295.004272 -695.223511
v -146.794693 319.710419 -792.273926
v 68.888840 397.969635 -708.142456
v -127.452499 422.675751 -805.192932
v 121.547531 562.654602 -772.751465
v -74.793823 587.360718 -869.801941
v 87.814713 578.045532 -700.589172
v -108.526611 602.751648 -797.639526
v 277.486694 113.952156 -1202.456299
v 237.100662 -101.037254 -1175.481934
v 81.145386 138.658325 -1299.506592
v 40.759346 -76.331108 -1272.532227
v 211.668289 111.544228 -1320.190430
v 171.282257 -103.445213 -1293.216064
v 120.026917 153.356476 -1124.147949
v 79.640854 -61.632957 -1097.173340
v -6.145172 210.923645 -854.236145
v -46.531242 -4.065735 -827.261597
v -63.246311 236.976593 -732.083313
v -98.397156 32.609367 -692.555115
v -96.979118 252.367462 -659.920959
v -109.818085 80.757225 -656.934326
v -22.985126 451.301392 -758.974487
v -56.717903 466.692291 -686.812195
v -26.846085 -13.047295 -869.372803
v 13.539986 201.942078 -896.347412
v 7.186562 281.893280 -863.140747
v 26.871727 272.911682 -905.251831
v 26.528778 384.858582 -876.059631
v 46.213921 375.877014 -918.170898
v -48.624020 307.357391 -743.748779
v -29.281811 410.322723 -756.667664
v 23.376831 575.007690 -821.276672
v -10.355980 590.398560 -749.114380
v 138.929977 -88.684181 -1224.006836
v 179.316055 126.305260 -1250.981445
v 260.753662 105.367699 -1295.927734
v 128.726166 -67.809486 -1072.910889
v 2.554085 -10.242294 -802.999084
v -65.298798 28.444504 -676.194763
v -76.719711 76.592354 -640.573975
v 62.625336 195.765564 -872.084717
v 75.957047 266.735138 -880.989258
v 95.299240 369.700470 -893.908264
v 228.401382 120.128700 -1226.718994
v 220.367630 -109.621742 -1268.953369
v 169.112244 147.179932 -1099.885498
v 42.940147 204.747070 -829.973694
v -14.160995 230.800049 -707.820740
v -47.893795 246.190948 -635.658386
v 26.100235 445.124847 -734.711975
v -7.632568 460.515717 -662.549500
v 22.239250 -19.223839 -845.110291
v 56.271896 275.716705 -838.878174
v 75.614090 378.682037 -851.797058
v 0.461319 301.180817 -719.486145
v 19.803528 404.146179 -732.405029
v 72.462204 568.831177 -797.014038
v 38.729370 584.221985 -724.851624
v 188.015274 -94.860725 -1199.744385
v 14.677528 -59.477654 -840.059631
v -34.407822 -53.301132 -864.322205
v 180.453537 -135.114548 -1194.693848
v 131.368271 -128.938034 -1218.956299
v 72.079086 -101.886795 -1092.122803
v 121.164444 -108.063309 -1067.860352
v 332.455200 51.120262 -1118.646484
v 306.238098 63.082039 -1062.562012
v 288.379944 -31.984108 -1050.634033
v 314.596863 -43.945869 -1106.718506
v 374.883606 45.781380 -1097.674561
v 348.666504 57.743126 -1041.589844
v 330.808228 -37.322960 -1029.662109
v 357.025330 -49.284721 -1085.746582
v 439.812439 37.611198 -1065.580566
v 413.595398 49.572990 -1009.496033
v 395.737183 -45.493095 -997.568115
v 421.954102 -57.454903 -1053.652832
v 481.593323 32.353783 -1044.928467
v 455.376282 44.315575 -988.844055
v 437.518066 -50.750526 -976.916199
v 463.735046 -62.712303 -1033.000732
v 521.427429 -246.982666 -1912.989990
v 472.342102 -240.806122 -1937.252686
v 512.728088 -25.816689 -1964.227295
v 561.813477 -31.993263 -1939.964600
v 60.391418 632.541626 -844.584167
v -30.067566 643.924316 -889.297546
v 29.308456 646.723511 -778.090332
v -61.150467 658.106140 -822.803711
v 119.767426 635.340820 -733.377136
v 150.850449 621.159058 -799.870667
v 105.620987 626.850464 -822.227417
v 74.537918 641.032104 -755.733704
vn 0.8908 -0.1121 0.4403
vn 0.4158 -0.1897 -0.8895
vn -0.8908 0.1121 -0.4403
vn 0.1832 0.9754 -0.1224
vn -0.1832 -0.9754 0.1224
vn -0.4158 0.1897 0.8895
vn -0.4132 -0.6029 0.6825
vn -0.2660 -0.9570 0.1154
vn -0.5055 0.0878 0.8583
vn -0.8915 0.1119 -0.4391
vn 0.8915 -0.1119 0.4391
vn 0.3251 -0.5197 -0.7900
vn 0.3226 -0.5263 -0.7867
vn -0.3251 0.5197 0.7900
vn 0.7328 -0.2185 -0.6444
vn -0.7681 0.4505 -0.4551
vn -0.3954 0.0730 0.9156
vn -0.1601 -0.9724 0.1695
vn -0.2955 0.5933 0.7488
vn -0.4377 0.0484 0.8978
vn -0.2102 -0.9608 0.1807
vn -0.0317 0.1303 0.9910
vn 0.3387 -0.8753 0.3450
vn 0.6443 0.7516 0.1409
vn 0.8639 -0.2234 0.4515
usemtl Matériau.011
s off
f 45//1 46//1 4//1 3//1
f 49//2 50//2 8//2 7//2
f 47//3 48//3 6//3 5//3
f 26//1 25//1 9//1 10//1
f 72//4 47//4 5//4 51//4
f 96//5 46//5 2//5 74//5
f 10//1 9//1 13//1 14//1
f 84//6 9//6 29//6 90//6
f 89//5 26//5 10//5 75//5
f 27//3 28//3 11//3 12//3
f 76//7 14//7 18//7 77//7
f 75//8 10//8 14//8 76//8
f 12//3 11//3 15//3 16//3
f 53//4 12//4 16//4 55//4
f 86//9 77//9 18//9 17//9
f 16//10 15//10 19//10 20//10
f 16//3 20//3 24//3 22//3
f 14//11 13//11 17//11 18//11
f 59//12 22//12 42//12 69//12
f 86//6 17//6 23//6 88//6
f 17//1 13//1 21//1 23//1
f 55//2 16//2 22//2 59//2
f 5//3 6//3 28//3 27//3
f 74//5 2//5 26//5 89//5
f 51//4 5//4 27//4 62//4
f 2//1 1//1 25//1 26//1
f 32//3 30//3 34//3 36//3
f 62//2 27//2 32//2 64//2
f 27//3 12//3 30//3 32//3
f 9//1 25//1 31//1 29//1
f 66//4 36//4 34//4 65//4
f 90//5 29//5 37//5 92//5
f 64//2 32//2 36//2 66//2
f 29//1 31//1 35//1 33//1
f 92//6 37//6 39//6 93//6
f 29//1 33//1 39//1 37//1
f 34//3 30//3 38//3 40//3
f 65//4 34//4 40//4 68//4
f 69//13 42//13 124//13 123//13
f 23//1 21//1 41//1 43//1
f 88//14 23//14 43//14 95//14
f 22//3 24//3 44//3 42//3
f 82//5 4//5 46//5 96//5
f 49//4 7//4 47//4 72//4
f 7//3 8//3 48//3 47//3
f 46//15 45//15 103//15 106//15
f 73//4 49//4 72//4 81//4
f 8//5 50//5 71//5 48//5
f 24//14 60//14 70//14 44//14
f 42//16 44//16 126//16 124//16
f 91//4 65//4 68//4 93//4
f 38//6 67//6 68//6 40//6
f 79//2 64//2 66//2 80//2
f 30//5 63//5 67//5 38//5
f 80//4 66//4 65//4 91//4
f 78//2 62//2 64//2 79//2
f 83//4 51//4 62//4 78//4
f 6//5 52//5 61//5 28//5
f 85//2 55//2 59//2 87//2
f 20//6 57//6 60//6 24//6
f 87//12 59//12 69//12 94//12
f 20//17 19//17 58//17 57//17
f 84//4 53//4 55//4 85//4
f 11//18 54//18 56//18 15//18
f 15//7 56//7 58//7 19//7
f 28//5 61//5 54//5 11//5
f 12//6 53//6 63//6 30//6
f 48//5 71//5 52//5 6//5
f 81//4 72//4 51//4 83//4
f 50//3 49//3 121//3 120//3
f 3//2 4//2 82//2 73//2
f 45//4 81//4 83//4 1//4
f 9//4 84//4 85//4 13//4
f 21//12 87//12 94//12 41//12
f 13//2 85//2 87//2 21//2
f 1//4 83//4 78//4 25//4
f 25//2 78//2 79//2 31//2
f 35//4 80//4 91//4 33//4
f 31//2 79//2 80//2 35//2
f 33//4 91//4 93//4 39//4
f 70//19 95//19 130//19 125//19
f 3//4 73//4 81//4 45//4
f 50//5 82//5 96//5 71//5
f 60//14 88//14 95//14 70//14
f 67//6 92//6 93//6 68//6
f 63//5 90//5 92//5 67//5
f 52//3 71//3 100//3 101//3
f 57//6 86//6 88//6 60//6
f 57//20 58//20 77//20 86//20
f 54//21 75//21 76//21 56//21
f 56//7 76//7 77//7 58//7
f 61//5 89//5 75//5 54//5
f 53//6 84//6 90//6 63//6
f 89//6 61//6 98//6 97//6
f 101//5 102//5 97//5 98//5
f 100//5 99//5 102//5 101//5
f 61//3 52//3 101//3 98//3
f 74//1 89//1 97//1 102//1
f 71//2 96//2 99//2 100//2
f 96//1 74//1 102//1 99//1
f 106//2 103//2 107//2 110//2
f 1//22 2//22 105//22 104//22
f 2//23 46//23 106//23 105//23
f 45//24 1//24 104//24 103//24
f 109//5 110//5 114//5 113//5
f 104//6 105//6 109//6 108//6
f 105//5 106//5 110//5 109//5
f 103//4 104//4 108//4 107//4
f 113//5 114//5 118//5 117//5
f 107//4 108//4 112//4 111//4
f 110//2 107//2 111//2 114//2
f 108//6 109//6 113//6 112//6
f 116//1 117//1 118//1 115//1
f 111//4 112//4 116//4 115//4
f 114//2 111//2 115//2 118//2
f 122//2 119//2 120//2 121//2
f 82//5 50//5 120//5 119//5
f 73//1 82//1 119//1 122//1
f 49//4 73//4 122//4 121//4
f 123//4 124//4 126//4 125//4
f 129//4 123//4 125//4 130//4
f 128//4 129//4 130//4 127//4
f 95//19 43//19 127//19 130//19
f 94//13 69//13 123//13 129//13
f 43//25 41//25 128//25 127//25
f 44//19 70//19 125//19 126//19
f 41//13 94//13 129//13 128//13
o Cube.048_Cube.024
v -563.926514 470.867767 182.274704
v -727.696838 342.732758 59.155815
v -422.980804 479.166229 -13.845146
v -587.247559 353.095825 -135.567291
v -677.705322 646.390808 35.385830
v -761.674866 580.692444 -27.740631
v -605.438477 650.645752 -65.170311
v -689.089539 585.544312 -128.083252
v -383.909241 424.167297 -435.603821
v -279.852509 477.187408 -386.780640
v -319.107910 590.789246 -426.482819
v -423.164734 537.769165 -475.305939
v -272.543335 416.474518 -621.157043
v -196.038574 455.456085 -585.261169
v -224.899994 538.978760 -614.451111
v -301.404846 499.997162 -650.346985
v -201.792084 414.341705 -737.155029
v -145.883240 442.828857 -710.922974
v -166.974915 503.866119 -732.254456
v -222.883575 475.378967 -758.486694
v -482.687012 584.895874 -29.700615
v -656.400879 451.355896 -159.029022
v -632.386169 576.033569 178.502472
v -806.248413 440.002502 47.796677
v -293.601379 534.848389 -409.983582
v -404.070435 478.561035 -461.815338
v -199.105316 495.811462 -615.115051
v -280.324646 454.427765 -653.223022
v -141.735046 470.470642 -744.349182
v -201.089081 440.227997 -772.197815
v -155.775696 398.163879 -817.661438
v -99.866882 426.651001 -791.429138
v -92.815369 458.097076 -835.174438
v -152.169373 427.854401 -863.023071
v -174.410339 462.420624 -847.725647
v -118.501526 490.907776 -821.493591
v -123.117004 387.736206 -875.942810
v -67.208191 416.223450 -849.710754
v -60.156738 447.669403 -893.455872
v -119.510742 417.426819 -921.304749
v -141.751587 451.992950 -906.007141
v -85.842834 480.480133 -879.775085
v -85.603027 364.466736 -899.210083
v -49.617188 382.802673 -882.325378
v -45.078308 403.043060 -910.482239
v -83.281921 383.577209 -928.407227
v -110.699829 444.341553 -969.311707
v -132.940796 478.907776 -954.014221
v -77.031982 507.394928 -927.782166
v -51.345886 474.584198 -941.462830
v -60.868652 347.397797 -914.900574
v -36.607910 359.759308 -903.517517
v -33.547974 373.404846 -922.500061
v -59.303711 360.281555 -934.584534
v -38.277344 338.962952 -939.559753
v -23.111755 346.690338 -932.444031
v -21.198792 355.220276 -944.310242
v -37.299072 347.016663 -951.864563
v -100.023315 469.554016 -988.083557
v -114.811646 492.537506 -977.912048
v -77.637146 511.478943 -960.469910
v -60.558044 489.662720 -969.566589
v -299.553101 594.303223 363.320892
v -294.563782 353.723236 341.095001
v -154.312805 624.003479 154.716431
v -156.339661 374.798645 143.997345
v -462.819550 549.467529 171.842041
v -460.261383 426.115479 160.446213
v -389.872437 564.393799 67.469856
v -389.390015 436.921417 59.388710
v -8.446899 342.418488 -163.178162
v 37.109558 437.273132 -235.700531
v -68.234497 434.348145 -305.787506
v -113.788940 339.178284 -233.286560
v 73.981628 207.394043 -311.047852
v 107.719666 275.397644 -364.884125
v 30.269714 273.015381 -416.429382
v -3.468201 205.011719 -362.593170
v 124.619751 124.313904 -405.912750
v 149.275085 174.010071 -445.255524
v 92.675598 172.269104 -482.924042
v 68.020508 122.572998 -443.581329
v -263.638489 634.615417 100.681267
v -265.769501 370.106171 89.269096
v -417.808228 603.137268 322.108124
v -412.511414 347.731995 298.512604
v -11.468079 432.324005 -277.064392
v -60.183777 334.130310 -199.327728
v 77.946716 263.434784 -403.609894
v 42.129761 191.240723 -346.456055
v 133.130615 156.139771 -481.568085
v 106.956055 103.381287 -439.800873
v 167.026794 60.233521 -460.280670
v 191.682007 109.929871 -499.623444
v 174.869141 85.217285 -544.997864
v 148.694519 32.458740 -503.230621
v 109.861877 52.702087 -505.618195
v 134.517029 102.398132 -544.960938
v 196.393188 14.143250 -500.096832
v 221.048279 63.839417 -539.439514
v 204.235535 39.126831 -584.814087
v 178.060974 -13.631653 -543.046814
v 139.228088 6.611877 -545.434387
v 163.883362 56.307922 -584.777100
v 239.108459 -4.544617 -517.881104
v 254.977966 27.442627 -543.204285
v 244.156311 11.536194 -572.409790
v 227.308899 -22.421997 -545.526062
v 165.381165 -43.314819 -588.487488
v 126.548279 -23.071411 -590.874939
v 151.203491 26.624634 -630.217773
v 191.555664 9.443726 -630.254578
v 268.386841 -17.826172 -528.637756
v 279.085693 3.738647 -545.710022
v 271.790039 -6.985107 -565.399658
v 260.432007 -29.878784 -547.275391
v 290.075439 -36.363953 -548.016785
v 296.763428 -22.883606 -558.688782
v 292.202698 -29.586731 -570.996887
v 285.102661 -43.898010 -559.667236
v 156.301331 -47.332947 -620.164795
v 130.480774 -33.872925 -621.752258
v 146.874390 -0.829285 -647.911743
v 173.704956 -12.253052 -647.936279
vn 0.4475 -0.8488 0.2817
vn -0.3194 0.8678 -0.3808
vn -0.4477 0.8478 -0.2844
vn -0.4435 -0.2579 0.8584
vn 0.3783 0.8726 0.3090
vn -0.6466 -0.5773 -0.4987
vn -0.2721 0.8840 -0.3801
vn 0.8274 0.4517 0.3337
vn -0.7751 -0.1522 -0.6132
vn 0.4773 -0.8646 0.1570
vn -0.8023 -0.3230 -0.5021
vn 0.8797 0.3341 0.3384
vn -0.8030 -0.3563 -0.4778
vn 0.3463 -0.9055 0.2454
vn 0.8009 0.4734 0.3666
vn 0.3530 -0.9064 0.2320
vn -0.2646 0.8808 -0.3926
vn 0.8951 0.2961 0.3335
vn 0.8228 0.5051 0.2604
vn 0.2919 -0.8916 0.3460
vn -0.7539 -0.4983 -0.4281
vn 0.8306 0.4761 0.2887
vn -0.7300 -0.5319 -0.4290
vn -0.6228 -0.5465 -0.5599
vn 0.5628 0.7898 0.2438
vn -0.8069 -0.0604 -0.5875
vn 0.7040 0.4768 0.5263
vn -0.7353 0.4864 0.4719
vn -0.3016 0.8949 -0.3291
vn -0.8053 -0.4646 -0.3681
vn -0.3163 0.8992 -0.3024
vn 0.8381 0.3676 0.4031
vn -0.8034 -0.4688 -0.3671
vn -0.8401 -0.3628 -0.4033
vn 0.7950 0.4551 0.4011
vn 0.0159 -0.6940 0.7198
vn 0.8366 0.3720 0.4022
vn 0.8010 0.4754 0.3638
vn -0.8397 -0.3606 -0.4060
vn 0.3016 -0.8949 0.3291
vn 0.1930 0.4323 -0.8808
vn -0.6553 -0.6071 -0.4494
vn 0.9335 0.2025 0.2960
vn 0.2083 0.4093 -0.8883
vn 0.7980 0.5996 0.0601
vn -0.8473 -0.3816 -0.3695
vn -0.5470 0.7690 0.3307
vn 0.5470 -0.7690 -0.3307
vn -0.0698 0.7464 -0.6618
vn 0.9208 0.2308 0.3143
vn -0.6820 -0.5859 -0.4377
vn -0.0003 -0.6770 0.7360
vn 0.5609 -0.7124 -0.4217
vn 0.9168 0.2392 0.3197
vn -0.6900 -0.5793 -0.4340
vn 0.2078 -0.8514 0.4816
vn 0.1581 0.4829 -0.8613
vn -0.7316 -0.1798 -0.6576
vn 0.5689 -0.6324 -0.5258
vn -0.4938 0.8617 0.1168
vn 0.8212 -0.0333 0.5696
vn -0.7505 -0.0390 -0.6597
vn -0.8207 0.0343 -0.5703
vn -0.3339 -0.0936 0.9380
vn -0.4408 0.8789 -0.1821
vn 0.0710 -0.9959 -0.0567
vn -0.7969 -0.0766 -0.5992
vn 0.2319 0.9152 -0.3296
vn -0.3511 -0.9333 -0.0759
vn 0.8930 -0.0431 0.4479
vn -0.4145 -0.7915 0.4491
vn 0.4534 0.6720 -0.5855
vn -0.3923 -0.7829 0.4829
vn 0.8623 -0.0275 0.5057
vn 0.3103 0.7285 -0.6108
vn 0.8675 -0.0377 0.4960
vn -0.7898 -0.0886 -0.6069
vn 0.4960 0.6590 -0.5655
vn 0.3022 0.6530 -0.6945
vn 0.8159 0.0512 0.5760
vn -0.2607 -0.7788 0.5705
vn 0.3379 0.6683 -0.6627
vn -0.2207 -0.7856 0.5781
vn 0.0118 -0.9926 0.1209
vn -0.1516 0.8558 -0.4945
vn -0.3765 -0.8555 -0.3555
vn 0.0198 0.9878 0.1543
vn -0.9521 -0.0477 0.3022
vn -0.8246 -0.0378 -0.5645
vn -0.3193 -0.7278 0.6069
vn -0.8376 -0.0168 -0.5461
vn 0.4087 0.7313 -0.5461
vn -0.3152 -0.7278 0.6090
vn -0.4134 -0.7302 0.5440
vn 0.3189 0.7503 -0.5791
vn 0.4918 0.3773 0.7847
vn 0.4047 0.7317 -0.5485
vn 0.3089 0.7268 -0.6135
vn -0.4147 -0.7316 0.5411
vn 0.8246 0.0378 0.5645
vn -0.1687 -0.5590 -0.8118
vn -0.1158 -0.8108 0.5738
vn 0.5848 0.6015 -0.5443
vn -0.1425 -0.5700 -0.8092
vn 0.2143 0.5051 -0.8361
vn -0.4053 -0.7095 0.5765
vn -0.9038 0.4271 -0.0268
vn 0.9038 -0.4271 0.0268
vn -0.5646 -0.3217 -0.7601
vn 0.5574 0.6247 -0.5468
vn -0.1494 -0.8000 0.5811
vn 0.4690 0.3934 0.7908
vn 0.8740 -0.4821 -0.0613
vn 0.5491 0.6315 -0.5474
vn -0.1597 -0.7965 0.5832
vn 0.7309 0.1622 0.6629
vn -0.2275 -0.5325 -0.8153
vn -0.4603 -0.8546 0.2403
vn 0.8239 -0.5414 -0.1675
vn -0.9320 0.2885 -0.2196
usemtl Matériau.012
s off
f 131//26 132//26 134//26 133//26
f 138//27 137//27 141//27 142//27
f 137//28 138//28 136//28 135//28
f 153//29 154//29 132//29 131//29
f 151//30 137//30 135//30 153//30
f 152//31 134//31 132//31 154//31
f 142//32 141//32 145//32 146//32
f 151//33 133//33 140//33 155//33
f 152//34 138//34 142//34 156//34
f 133//35 134//35 139//35 140//35
f 158//36 146//36 150//36 160//36
f 155//37 140//37 144//37 157//37
f 156//38 142//38 146//38 158//38
f 140//39 139//39 143//39 144//39
f 149//40 159//40 163//40 166//40
f 144//41 143//41 147//41 148//41
f 146//42 145//42 149//42 150//42
f 157//43 144//43 148//43 159//43
f 145//44 157//44 159//44 149//44
f 148//45 147//45 161//45 162//45
f 139//46 156//46 158//46 143//46
f 141//47 155//47 157//47 145//47
f 143//48 158//48 160//48 147//48
f 134//49 152//49 156//49 139//49
f 137//50 151//50 155//50 141//50
f 138//51 152//51 154//51 136//51
f 133//52 151//52 153//52 131//52
f 135//53 136//53 154//53 153//53
f 165//54 166//54 172//54 171//54
f 161//55 164//55 170//55 167//55
f 150//56 149//56 166//56 165//56
f 159//57 148//57 162//57 163//57
f 147//58 160//58 164//58 161//58
f 160//59 150//59 165//59 164//59
f 172//60 169//60 180//60 179//60
f 168//61 167//61 173//61 174//61
f 163//62 162//62 168//62 169//62
f 166//63 163//63 169//63 172//63
f 164//64 165//64 171//64 170//64
f 162//65 161//65 167//65 168//65
f 176//66 175//66 183//66 184//66
f 167//67 170//67 176//67 173//67
f 169//68 168//68 174//68 175//68
f 170//69 169//69 175//69 176//69
f 179//70 180//70 192//70 191//70
f 170//71 171//71 178//71 177//71
f 171//72 172//72 179//72 178//72
f 169//73 170//73 177//73 180//73
f 184//74 183//74 187//74 188//74
f 175//75 174//75 182//75 183//75
f 173//76 176//76 184//76 181//76
f 174//77 173//77 181//77 182//77
f 186//78 185//78 188//78 187//78
f 183//79 182//79 186//79 187//79
f 181//80 184//80 188//80 185//80
f 182//81 181//81 185//81 186//81
f 192//82 189//82 190//82 191//82
f 177//83 178//83 190//83 189//83
f 180//84 177//84 189//84 192//84
f 178//85 179//85 191//85 190//85
f 193//86 194//86 196//86 195//86
f 200//87 199//87 203//87 204//87
f 199//88 200//88 198//88 197//88
f 215//89 216//89 194//89 193//89
f 213//90 199//90 197//90 215//90
f 214//91 196//91 194//91 216//91
f 204//92 203//92 207//92 208//92
f 213//93 195//93 202//93 217//93
f 214//94 200//94 204//94 218//94
f 195//95 196//95 201//95 202//95
f 220//96 208//96 212//96 222//96
f 217//97 202//97 206//97 219//97
f 218//98 204//98 208//98 220//98
f 202//99 201//99 205//99 206//99
f 211//100 221//100 225//100 228//100
f 206//101 205//101 209//101 210//101
f 208//102 207//102 211//102 212//102
f 219//103 206//103 210//103 221//103
f 207//104 219//104 221//104 211//104
f 210//105 209//105 223//105 224//105
f 201//106 218//106 220//106 205//106
f 203//107 217//107 219//107 207//107
f 205//108 220//108 222//108 209//108
f 196//109 214//109 218//109 201//109
f 199//110 213//110 217//110 203//110
f 200//111 214//111 216//111 198//111
f 195//112 213//112 215//112 193//112
f 197//113 198//113 216//113 215//113
f 227//114 228//114 234//114 233//114
f 223//115 226//115 232//115 229//115
f 212//116 211//116 228//116 227//116
f 221//117 210//117 224//117 225//117
f 209//118 222//118 226//118 223//118
f 222//119 212//119 227//119 226//119
f 234//120 231//120 242//120 241//120
f 230//121 229//121 235//121 236//121
f 225//122 224//122 230//122 231//122
f 228//123 225//123 231//123 234//123
f 226//124 227//124 233//124 232//124
f 224//125 223//125 229//125 230//125
f 238//126 237//126 245//126 246//126
f 229//127 232//127 238//127 235//127
f 231//128 230//128 236//128 237//128
f 232//129 231//129 237//129 238//129
f 241//130 242//130 254//130 253//130
f 232//131 233//131 240//131 239//131
f 233//132 234//132 241//132 240//132
f 231//133 232//133 239//133 242//133
f 246//134 245//134 249//134 250//134
f 237//135 236//135 244//135 245//135
f 235//136 238//136 246//136 243//136
f 236//137 235//137 243//137 244//137
f 248//138 247//138 250//138 249//138
f 245//139 244//139 248//139 249//139
f 243//140 246//140 250//140 247//140
f 244//141 243//141 247//141 248//141
f 254//142 251//142 252//142 253//142
f 239//143 240//143 252//143 251//143
f 242//144 239//144 251//144 254//144
f 240//145 241//145 253//145 252//145
