# Blender v2.91.2 OBJ File: 'camionnete02.blend'
# www.blender.org
mtllib arme_000090.mtl
o Cube.046_Cube.010
v 298.892181 486.400848 -1110.911743
v 283.392914 272.983673 -1163.750977
v 403.404816 525.852051 -1300.911255
v 387.905548 312.434967 -1353.750610
v 105.460083 524.817261 -1209.335815
v 89.960754 311.400055 -1262.175049
v 209.972656 564.268433 -1399.335205
v 194.473373 350.851288 -1452.174683
v 154.999023 432.084320 -849.320007
v 139.499710 218.667145 -902.159363
v -53.932365 257.083527 -1000.583374
v -38.433056 470.500702 -947.744080
v 89.877960 407.502472 -730.932556
v 74.378632 194.085297 -783.771973
v -119.053513 232.501678 -882.195923
v -103.554199 445.918915 -829.356567
v 51.407307 392.980652 -660.994629
v 46.708988 240.135529 -711.041199
v -146.723190 278.551971 -809.465149
v -142.024857 431.397064 -759.418640
v 105.329315 620.259888 -678.256592
v -88.102783 658.676270 -776.680725
v 66.858704 605.738037 -608.318604
v -126.573410 644.154541 -706.742615
v 177.449020 440.558624 -890.133179
v 161.949707 227.141510 -942.972473
v -15.983093 478.975067 -988.557251
v -31.482426 265.557892 -1041.396484
v 160.115463 502.534943 -831.877380
v -33.316639 540.951294 -930.301453
v 182.565445 511.009247 -872.690430
v -10.866669 549.425659 -971.114380
v 167.538620 604.747192 -806.571045
v -25.893501 643.163574 -904.994873
v 189.988556 613.221558 -847.384094
v -3.443523 651.638062 -945.808044
v 96.466217 478.508698 -716.165710
v -96.965927 516.925049 -814.589722
v 103.889343 580.721069 -690.859192
v -89.542801 619.137451 -789.283203
v 139.237762 761.876709 -689.621338
v -54.194363 800.293091 -788.045410
v 100.767105 747.354858 -619.683350
v -92.664963 785.771240 -718.107422
v 366.508606 511.924591 -1233.835571
v 351.009308 298.507416 -1286.675049
v 173.076508 550.340942 -1332.259521
v 157.577225 336.923798 -1385.098877
v 306.688751 545.060303 -1350.123291
v 291.189453 331.643127 -1402.962524
v 202.176147 505.609039 -1160.123779
v 186.676849 292.191864 -1212.963135
v 58.282986 451.292511 -898.531982
v 42.783672 237.875336 -951.371338
v -6.838116 426.710724 -780.144531
v -18.968365 219.228729 -817.132812
v -45.308746 412.188873 -710.206604
v -37.626076 250.280518 -768.090271
v 8.613251 639.468140 -727.468628
v -29.857357 624.946289 -657.530640
v 65.233643 246.349701 -992.184448
v 80.732971 459.766876 -939.345215
v 63.399418 521.743164 -881.089417
v 85.849380 530.217407 -921.902466
v 70.822556 623.955444 -855.782837
v 93.272522 632.429810 -896.596069
v -0.249851 497.716888 -765.377747
v 7.173275 599.929199 -740.071167
v 42.521690 781.084961 -738.833374
v 4.051052 766.563110 -668.895386
v 254.293228 317.715607 -1335.886841
v 269.792572 531.132812 -1283.047485
v 355.046783 535.456177 -1325.517212
v 235.034851 282.587799 -1188.357178
v 91.141693 228.271210 -926.765320
v 13.639576 212.752655 -800.540955
v -5.018127 243.804474 -751.498291
v 129.091003 450.162750 -914.739075
v 134.207413 520.613281 -897.296448
v 141.630524 622.825684 -871.989990
v 318.150604 521.528687 -1258.441650
v 339.547516 322.039032 -1378.356689
v 250.534134 496.005035 -1135.517822
v 106.641006 441.688385 -873.926086
v 41.519901 417.106598 -755.538574
v 3.049271 402.584747 -685.600525
v 56.971310 629.864014 -702.862610
v 18.500687 615.342163 -632.924683
v 113.591690 236.745636 -967.578491
v 111.757446 512.139038 -856.483459
v 119.180557 614.351318 -831.176941
v 48.108173 488.112823 -740.771729
v 55.531315 590.325195 -715.465210
v 90.879745 771.480835 -714.227295
v 52.409092 756.958862 -644.289429
v 302.651276 308.111542 -1311.281006
v 110.689651 196.786163 -977.471863
v 62.331623 206.390228 -1002.077881
v 299.749207 268.152100 -1321.174438
v 251.391220 277.756165 -1345.780273
v 183.774796 252.232391 -1222.856689
v 232.132858 242.628326 -1198.250488
v 424.869293 429.088165 -1172.797607
v 394.969971 417.801788 -1118.442017
v 388.116425 323.430878 -1141.806885
v 418.015656 334.717285 -1196.162720
v 466.668976 420.786591 -1151.528809
v 436.769684 409.500275 -1097.173096
v 429.916107 315.129364 -1120.538086
v 459.815369 326.415741 -1174.893799
v 530.635803 408.082550 -1118.980713
v 500.736481 396.796234 -1064.625000
v 493.882843 302.425385 -1087.989990
v 523.782104 313.711761 -1142.345703
v 571.797546 399.907715 -1098.036377
v 541.898315 388.621338 -1043.680664
v 535.044800 294.250458 -1067.045654
v 564.943970 305.536835 -1121.401367
v 682.891602 451.644073 -2002.540771
v 634.533569 461.248138 -2027.146729
v 650.032715 674.665283 -1974.307373
v 698.390869 665.061279 -1949.701538
v 73.369064 846.432007 -737.537231
v -15.749554 864.131226 -782.883423
v 37.920467 833.050781 -673.093140
v -51.198120 850.750122 -718.439331
v 127.039093 815.351562 -627.747009
v 162.487747 828.732666 -692.190918
v 117.928421 837.582397 -714.863953
v 82.479782 824.201050 -650.420105
vn 0.8776 -0.1743 0.4466
vn 0.4742 0.1790 -0.8620
vn -0.8776 0.1743 -0.4466
vn 0.0703 0.9683 0.2397
vn -0.0703 -0.9683 -0.2397
vn -0.4742 -0.1790 0.8620
vn -0.3676 -0.8426 0.3936
vn -0.1543 -0.9567 -0.2468
vn -0.5496 -0.2714 0.7901
vn -0.8783 0.1736 -0.4455
vn 0.8783 -0.1736 0.4455
vn 0.4194 -0.1720 -0.8914
vn 0.4176 -0.1795 -0.8907
vn -0.4194 0.1720 0.8914
vn 0.7813 0.0960 -0.6168
vn -0.7957 0.5061 -0.3326
vn -0.4411 -0.2948 0.8476
vn -0.0498 -0.9800 -0.1927
vn -0.3970 0.2578 0.8809
vn -0.4794 -0.3155 0.8189
vn -0.1014 -0.9780 -0.1825
vn -0.0906 -0.2331 0.9682
vn 0.4256 -0.9037 0.0465
vn 0.5429 0.7114 0.4463
vn 0.8637 -0.2844 0.4161
usemtl Matériau.011
s off
f 45//1 46//1 4//1 3//1
f 49//2 50//2 8//2 7//2
f 47//3 48//3 6//3 5//3
f 26//1 25//1 9//1 10//1
f 72//4 47//4 5//4 51//4
f 96//5 46//5 2//5 74//5
f 10//1 9//1 13//1 14//1
f 84//6 9//6 29//6 90//6
f 89//5 26//5 10//5 75//5
f 27//3 28//3 11//3 12//3
f 76//7 14//7 18//7 77//7
f 75//8 10//8 14//8 76//8
f 12//3 11//3 15//3 16//3
f 53//4 12//4 16//4 55//4
f 86//9 77//9 18//9 17//9
f 16//10 15//10 19//10 20//10
f 16//3 20//3 24//3 22//3
f 14//11 13//11 17//11 18//11
f 59//12 22//12 42//12 69//12
f 86//6 17//6 23//6 88//6
f 17//1 13//1 21//1 23//1
f 55//2 16//2 22//2 59//2
f 5//3 6//3 28//3 27//3
f 74//5 2//5 26//5 89//5
f 51//4 5//4 27//4 62//4
f 2//1 1//1 25//1 26//1
f 32//3 30//3 34//3 36//3
f 62//2 27//2 32//2 64//2
f 27//3 12//3 30//3 32//3
f 9//1 25//1 31//1 29//1
f 66//4 36//4 34//4 65//4
f 90//5 29//5 37//5 92//5
f 64//2 32//2 36//2 66//2
f 29//1 31//1 35//1 33//1
f 92//6 37//6 39//6 93//6
f 29//1 33//1 39//1 37//1
f 34//3 30//3 38//3 40//3
f 65//4 34//4 40//4 68//4
f 69//13 42//13 124//13 123//13
f 23//1 21//1 41//1 43//1
f 88//14 23//14 43//14 95//14
f 22//3 24//3 44//3 42//3
f 82//5 4//5 46//5 96//5
f 49//4 7//4 47//4 72//4
f 7//3 8//3 48//3 47//3
f 46//15 45//15 103//15 106//15
f 73//4 49//4 72//4 81//4
f 8//5 50//5 71//5 48//5
f 24//14 60//14 70//14 44//14
f 42//16 44//16 126//16 124//16
f 91//4 65//4 68//4 93//4
f 38//6 67//6 68//6 40//6
f 79//2 64//2 66//2 80//2
f 30//5 63//5 67//5 38//5
f 80//4 66//4 65//4 91//4
f 78//2 62//2 64//2 79//2
f 83//4 51//4 62//4 78//4
f 6//5 52//5 61//5 28//5
f 85//2 55//2 59//2 87//2
f 20//6 57//6 60//6 24//6
f 87//12 59//12 69//12 94//12
f 20//17 19//17 58//17 57//17
f 84//4 53//4 55//4 85//4
f 11//18 54//18 56//18 15//18
f 15//7 56//7 58//7 19//7
f 28//5 61//5 54//5 11//5
f 12//6 53//6 63//6 30//6
f 48//5 71//5 52//5 6//5
f 81//4 72//4 51//4 83//4
f 50//3 49//3 121//3 120//3
f 3//2 4//2 82//2 73//2
f 45//4 81//4 83//4 1//4
f 9//4 84//4 85//4 13//4
f 21//12 87//12 94//12 41//12
f 13//2 85//2 87//2 21//2
f 1//4 83//4 78//4 25//4
f 25//2 78//2 79//2 31//2
f 35//4 80//4 91//4 33//4
f 31//2 79//2 80//2 35//2
f 33//4 91//4 93//4 39//4
f 70//19 95//19 130//19 125//19
f 3//4 73//4 81//4 45//4
f 50//5 82//5 96//5 71//5
f 60//14 88//14 95//14 70//14
f 67//6 92//6 93//6 68//6
f 63//5 90//5 92//5 67//5
f 52//3 71//3 100//3 101//3
f 57//6 86//6 88//6 60//6
f 57//20 58//20 77//20 86//20
f 54//21 75//21 76//21 56//21
f 56//7 76//7 77//7 58//7
f 61//5 89//5 75//5 54//5
f 53//6 84//6 90//6 63//6
f 89//6 61//6 98//6 97//6
f 101//5 102//5 97//5 98//5
f 100//5 99//5 102//5 101//5
f 61//3 52//3 101//3 98//3
f 74//1 89//1 97//1 102//1
f 71//2 96//2 99//2 100//2
f 96//1 74//1 102//1 99//1
f 106//2 103//2 107//2 110//2
f 1//22 2//22 105//22 104//22
f 2//23 46//23 106//23 105//23
f 45//24 1//24 104//24 103//24
f 109//5 110//5 114//5 113//5
f 104//6 105//6 109//6 108//6
f 105//5 106//5 110//5 109//5
f 103//4 104//4 108//4 107//4
f 113//5 114//5 118//5 117//5
f 107//4 108//4 112//4 111//4
f 110//2 107//2 111//2 114//2
f 108//6 109//6 113//6 112//6
f 116//1 117//1 118//1 115//1
f 111//4 112//4 116//4 115//4
f 114//2 111//2 115//2 118//2
f 122//2 119//2 120//2 121//2
f 82//5 50//5 120//5 119//5
f 73//1 82//1 119//1 122//1
f 49//4 73//4 122//4 121//4
f 123//4 124//4 126//4 125//4
f 129//4 123//4 125//4 130//4
f 128//4 129//4 130//4 127//4
f 95//19 43//19 127//19 130//19
f 94//13 69//13 123//13 129//13
f 43//25 41//25 128//25 127//25
f 44//19 70//19 125//19 126//19
f 41//13 94//13 129//13 128//13
o Cube.048_Cube.024
v -564.062988 474.075836 182.147064
v -733.083801 348.969788 63.075615
v -422.395691 468.948242 -13.560974
v -591.186157 342.290375 -134.513062
v -669.519409 649.033813 28.527420
v -756.181030 584.888489 -32.523796
v -596.882568 646.404724 -71.817543
v -683.421021 581.820312 -132.565918
v -360.321655 464.752319 -464.918549
v -265.608154 506.808594 -392.232574
v -316.401001 622.747864 -393.129791
v -411.114441 580.691528 -465.815765
v -240.791840 534.124023 -631.627075
v -171.156372 565.044739 -578.186646
v -208.500427 650.285889 -578.846313
v -278.135864 619.365112 -632.286682
v -165.266479 580.089844 -734.820679
v -114.377808 602.686401 -695.767212
v -141.668457 664.979492 -696.249207
v -192.557098 642.382996 -735.302612
v -477.318024 576.404785 -33.464890
v -656.482422 442.297638 -160.283966
v -627.747314 581.979980 174.284836
v -807.183594 449.164581 47.875900
v -285.129425 567.334045 -395.023468
v -385.679504 522.686035 -472.188629
v -177.718445 612.863892 -592.310669
v -251.645081 580.037659 -649.044250
v -112.104553 640.644043 -717.042603
v -166.129150 616.655090 -758.502686
v -114.151733 598.023682 -811.802307
v -63.263000 620.620178 -772.748901
v -58.112427 666.054138 -802.099182
v -112.137024 642.065186 -843.559448
v -139.007202 666.643860 -819.118286
v -88.118530 689.240417 -780.064697
v -77.950684 612.137817 -867.140442
v -27.062012 634.734375 -828.087097
v -21.911499 680.168213 -857.437439
v -75.936096 656.179260 -898.897522
v -102.806274 680.757996 -874.456360
v -51.917542 703.354431 -835.402893
v -36.934692 602.365784 -893.829773
v -4.179993 616.910156 -868.692810
v -0.864807 646.153931 -887.584351
v -35.638000 630.713318 -914.270325
v -68.310730 699.079407 -933.655823
v -95.180847 723.658020 -909.214783
v -44.292175 746.254578 -870.161194
v -14.286072 723.068359 -892.195740
v -9.669189 594.440979 -912.353333
v 12.413147 604.246338 -895.406677
v 14.648193 623.961609 -908.142761
v -8.794861 613.552124 -926.133850
v 14.830994 597.518433 -936.433716
v 28.634888 603.647949 -925.839966
v 30.032104 615.972229 -933.801453
v 15.377502 609.465027 -945.047852
v -59.915283 730.213745 -941.543518
v -77.781738 746.556396 -925.292053
v -43.945251 761.581116 -899.324951
v -23.993774 746.164307 -913.976135
v -321.673706 577.435547 392.027130
v -299.597595 342.528107 339.789978
v -169.585388 620.272461 211.363953
v -151.240112 397.115479 157.011810
v -469.623566 548.875122 185.567825
v -458.304504 428.431488 158.784363
v -390.889313 578.567017 94.303291
v -382.237549 456.419952 65.068878
v 41.382385 507.766357 -159.918945
v 113.204651 554.597595 -67.964424
v 67.416565 669.451782 -90.241432
v -3.426453 624.221008 -181.205444
v 203.421631 564.182495 -292.025208
v 257.197449 597.363159 -223.700287
v 224.252869 682.983276 -239.350647
v 170.477112 649.802612 -307.675568
v 305.304260 602.096863 -373.562164
v 344.602966 626.344849 -323.631134
v 320.527466 688.914856 -335.068268
v 281.228821 664.666931 -384.999115
v -272.466309 637.682922 156.155045
v -256.571167 393.415222 94.691956
v -437.507446 584.847168 344.189728
v -414.070862 335.463989 288.733551
v 98.489563 613.424927 -78.449638
v 20.840210 565.513855 -177.107147
v 256.252136 644.264526 -241.827271
v 199.162415 609.039185 -314.362396
v 353.751648 662.796875 -345.679779
v 312.031311 637.054810 -398.687439
v 375.730652 614.146973 -434.843781
v 415.029236 638.394897 -384.912842
v 429.359314 681.734375 -414.384033
v 387.638855 655.992188 -467.391754
v 356.040222 682.545593 -452.562714
v 395.338806 706.793579 -402.631775
v 425.874451 624.037781 -479.113190
v 465.173035 648.285645 -429.182373
v 479.503479 691.625061 -458.653717
v 437.783020 665.882874 -511.661530
v 406.184143 692.436401 -496.832184
v 445.482727 716.684326 -446.901245
v 472.189636 611.879028 -493.156097
v 497.484314 627.486328 -461.017792
v 506.707947 655.381958 -479.987335
v 479.854553 638.812866 -514.106018
v 455.859802 706.302002 -545.517761
v 424.260925 732.855591 -530.688354
v 463.559631 757.103516 -480.757477
v 497.580139 732.044189 -492.509918
v 503.139343 602.320007 -503.159454
v 520.192444 612.842041 -481.492706
v 526.410950 631.648438 -494.281403
v 508.306824 620.478149 -517.283386
v 533.280457 603.422974 -519.889282
v 543.940369 610.000366 -506.345245
v 547.827576 621.756470 -514.339417
v 536.510681 614.773804 -528.718140
v 467.092102 736.715759 -552.651001
v 446.081604 754.371460 -542.790771
v 472.211609 770.494202 -509.590973
v 494.832458 753.832031 -517.405334
vn 0.4090 -0.8544 0.3205
vn -0.3119 0.9023 -0.2975
vn -0.4091 0.8542 -0.3211
vn -0.4567 -0.2065 0.8653
vn 0.4168 0.8652 0.2788
vn -0.6768 -0.5673 -0.4691
vn -0.3591 0.9306 -0.0706
vn 0.8162 0.4159 0.4010
vn -0.7566 -0.0888 -0.6478
vn 0.4972 -0.8643 0.0764
vn -0.7350 -0.1999 -0.6479
vn 0.8177 0.2757 0.5053
vn -0.7328 -0.2396 -0.6369
vn 0.4411 -0.8957 -0.0565
vn 0.7216 0.3877 0.5736
vn 0.4485 -0.8912 -0.0687
vn -0.3506 0.9328 -0.0828
vn 0.8376 0.2436 0.4889
vn 0.7442 0.4569 0.4872
vn 0.3811 -0.9237 0.0379
vn -0.6693 -0.3845 -0.6358
vn 0.7542 0.4207 0.5042
vn -0.6415 -0.4132 -0.6463
vn -0.6103 -0.4818 -0.6288
vn 0.5497 0.7612 0.3440
vn -0.8095 -0.0413 -0.5856
vn 0.7232 0.4642 0.5113
vn -0.7141 0.5355 0.4510
vn -0.3918 0.9198 -0.0217
vn -0.7270 -0.3794 -0.5723
vn -0.4081 0.9129 0.0035
vn 0.7695 0.2800 0.5740
vn -0.7246 -0.3835 -0.5726
vn -0.7720 -0.2756 -0.5727
vn 0.7164 0.3579 0.5989
vn 0.0673 -0.8991 0.4326
vn 0.7675 0.2842 0.5746
vn 0.7216 0.3906 0.5717
vn -0.7718 -0.2726 -0.5744
vn 0.3918 -0.9198 0.0217
vn 0.1784 0.7329 -0.6565
vn -0.5575 -0.4686 -0.6852
vn 0.8886 0.1735 0.4246
vn 0.1966 0.7157 -0.6702
vn 0.7170 0.6135 0.3309
vn -0.7784 -0.3058 -0.5482
vn -0.6492 0.5452 0.5305
vn 0.6492 -0.5452 -0.5305
vn -0.1295 0.9221 -0.3647
vn 0.8719 0.1922 0.4505
vn -0.5870 -0.4557 -0.6692
vn 0.0484 -0.8906 0.4522
vn 0.6601 -0.4590 -0.5946
vn 0.8667 0.1977 0.4581
vn -0.5959 -0.4516 -0.6640
vn 0.2869 -0.9425 0.1715
vn 0.1368 0.7697 -0.6236
vn -0.6753 -0.0048 -0.7376
vn 0.6631 -0.3469 -0.6633
vn -0.5981 0.7123 0.3672
vn 0.7784 -0.0763 0.6231
vn -0.5020 0.6197 -0.6033
vn -0.7766 0.0804 -0.6248
vn -0.3838 -0.2347 0.8931
vn -0.4211 0.9013 -0.1012
vn 0.1394 -0.9741 -0.1778
vn -0.2969 0.9281 -0.2246
vn 0.3775 0.8657 0.3288
vn -0.2992 -0.5787 -0.7587
vn 0.7195 -0.4356 0.5408
vn -0.5409 -0.2295 -0.8092
vn 0.6626 0.2855 0.6924
vn -0.5431 -0.2684 -0.7956
vn 0.4122 -0.9022 0.1274
vn 0.5542 0.4122 0.7231
vn 0.4206 -0.9010 0.1065
vn -0.2844 0.9311 -0.2283
vn 0.6838 0.2611 0.6813
vn 0.6014 0.4753 0.6422
vn 0.3261 -0.9255 0.1928
vn -0.4871 -0.4140 -0.7690
vn 0.5925 0.4595 0.6617
vn -0.4585 -0.4437 -0.7700
vn -0.0733 -0.8749 -0.4787
vn -0.0500 0.9970 0.0596
vn -0.2972 -0.8215 -0.4866
vn -0.0060 0.9692 0.2463
vn -0.9636 -0.1411 0.2271
vn -0.3408 0.9228 -0.1799
vn -0.5594 -0.4038 -0.7239
vn -0.3635 0.9178 -0.1596
vn 0.5966 0.3040 0.7427
vn -0.5572 -0.4079 -0.7233
vn -0.5993 -0.2995 -0.7424
vn 0.5414 0.3843 0.7478
vn -0.0810 -0.8701 0.4863
vn 0.5947 0.3083 0.7425
vn 0.5548 0.4150 0.7211
vn -0.5985 -0.2966 -0.7442
vn 0.3408 -0.9228 0.1799
vn 0.3720 0.6856 -0.6257
vn -0.3690 -0.5029 -0.7816
vn 0.7478 0.1861 0.6373
vn 0.3925 0.6672 -0.6330
vn 0.6223 0.6218 0.4755
vn -0.6130 -0.3280 -0.7188
vn -0.7490 0.5891 0.3034
vn 0.7490 -0.5891 -0.3034
vn 0.0037 0.8984 -0.4392
vn 0.7253 0.2067 0.6566
vn -0.4013 -0.4885 -0.7748
vn -0.1041 -0.8600 0.4996
vn 0.7796 -0.5074 -0.3671
vn 0.7185 0.2127 0.6622
vn -0.4111 -0.4839 -0.7725
vn 0.1990 -0.9339 0.2969
vn 0.3243 0.7252 -0.6074
vn -0.4529 -0.0416 -0.8906
vn 0.8045 -0.4001 -0.4389
vn -0.6505 0.7444 0.1505
usemtl Matériau.012
s off
f 131//26 132//26 134//26 133//26
f 138//27 137//27 141//27 142//27
f 137//28 138//28 136//28 135//28
f 153//29 154//29 132//29 131//29
f 151//30 137//30 135//30 153//30
f 152//31 134//31 132//31 154//31
f 142//32 141//32 145//32 146//32
f 151//33 133//33 140//33 155//33
f 152//34 138//34 142//34 156//34
f 133//35 134//35 139//35 140//35
f 158//36 146//36 150//36 160//36
f 155//37 140//37 144//37 157//37
f 156//38 142//38 146//38 158//38
f 140//39 139//39 143//39 144//39
f 149//40 159//40 163//40 166//40
f 144//41 143//41 147//41 148//41
f 146//42 145//42 149//42 150//42
f 157//43 144//43 148//43 159//43
f 145//44 157//44 159//44 149//44
f 148//45 147//45 161//45 162//45
f 139//46 156//46 158//46 143//46
f 141//47 155//47 157//47 145//47
f 143//48 158//48 160//48 147//48
f 134//49 152//49 156//49 139//49
f 137//50 151//50 155//50 141//50
f 138//51 152//51 154//51 136//51
f 133//52 151//52 153//52 131//52
f 135//53 136//53 154//53 153//53
f 165//54 166//54 172//54 171//54
f 161//55 164//55 170//55 167//55
f 150//56 149//56 166//56 165//56
f 159//57 148//57 162//57 163//57
f 147//58 160//58 164//58 161//58
f 160//59 150//59 165//59 164//59
f 172//60 169//60 180//60 179//60
f 168//61 167//61 173//61 174//61
f 163//62 162//62 168//62 169//62
f 166//63 163//63 169//63 172//63
f 164//64 165//64 171//64 170//64
f 162//65 161//65 167//65 168//65
f 176//66 175//66 183//66 184//66
f 167//67 170//67 176//67 173//67
f 169//68 168//68 174//68 175//68
f 170//69 169//69 175//69 176//69
f 179//70 180//70 192//70 191//70
f 170//71 171//71 178//71 177//71
f 171//72 172//72 179//72 178//72
f 169//73 170//73 177//73 180//73
f 184//74 183//74 187//74 188//74
f 175//75 174//75 182//75 183//75
f 173//76 176//76 184//76 181//76
f 174//77 173//77 181//77 182//77
f 186//78 185//78 188//78 187//78
f 183//79 182//79 186//79 187//79
f 181//80 184//80 188//80 185//80
f 182//81 181//81 185//81 186//81
f 192//82 189//82 190//82 191//82
f 177//83 178//83 190//83 189//83
f 180//84 177//84 189//84 192//84
f 178//85 179//85 191//85 190//85
f 193//86 194//86 196//86 195//86
f 200//87 199//87 203//87 204//87
f 199//88 200//88 198//88 197//88
f 215//89 216//89 194//89 193//89
f 213//90 199//90 197//90 215//90
f 214//91 196//91 194//91 216//91
f 204//92 203//92 207//92 208//92
f 213//93 195//93 202//93 217//93
f 214//94 200//94 204//94 218//94
f 195//95 196//95 201//95 202//95
f 220//96 208//96 212//96 222//96
f 217//97 202//97 206//97 219//97
f 218//98 204//98 208//98 220//98
f 202//99 201//99 205//99 206//99
f 211//100 221//100 225//100 228//100
f 206//101 205//101 209//101 210//101
f 208//102 207//102 211//102 212//102
f 219//103 206//103 210//103 221//103
f 207//104 219//104 221//104 211//104
f 210//105 209//105 223//105 224//105
f 201//106 218//106 220//106 205//106
f 203//107 217//107 219//107 207//107
f 205//108 220//108 222//108 209//108
f 196//109 214//109 218//109 201//109
f 199//110 213//110 217//110 203//110
f 200//111 214//111 216//111 198//111
f 195//112 213//112 215//112 193//112
f 197//113 198//113 216//113 215//113
f 227//114 228//114 234//114 233//114
f 223//115 226//115 232//115 229//115
f 212//116 211//116 228//116 227//116
f 221//117 210//117 224//117 225//117
f 209//118 222//118 226//118 223//118
f 222//119 212//119 227//119 226//119
f 234//120 231//120 242//120 241//120
f 230//121 229//121 235//121 236//121
f 225//122 224//122 230//122 231//122
f 228//123 225//123 231//123 234//123
f 226//124 227//124 233//124 232//124
f 224//125 223//125 229//125 230//125
f 238//126 237//126 245//126 246//126
f 229//127 232//127 238//127 235//127
f 231//128 230//128 236//128 237//128
f 232//129 231//129 237//129 238//129
f 241//130 242//130 254//130 253//130
f 232//131 233//131 240//131 239//131
f 233//132 234//132 241//132 240//132
f 231//133 232//133 239//133 242//133
f 246//134 245//134 249//134 250//134
f 237//135 236//135 244//135 245//135
f 235//136 238//136 246//136 243//136
f 236//137 235//137 243//137 244//137
f 248//138 247//138 250//138 249//138
f 245//139 244//139 248//139 249//139
f 243//140 246//140 250//140 247//140
f 244//141 243//141 247//141 248//141
f 254//142 251//142 252//142 253//142
f 239//143 240//143 252//143 251//143
f 242//144 239//144 251//144 254//144
f 240//145 241//145 253//145 252//145
