# Blender v2.91.2 OBJ File: 'camionnete02.blend'
# www.blender.org
mtllib arme_000123.mtl
o Cube.046_Cube.010
v 107.293930 352.286438 -1265.030396
v 136.333145 134.263840 -1250.818726
v 163.551819 345.894714 -1478.040405
v 192.591003 127.872131 -1463.828979
v -103.824196 320.594360 -1319.837646
v -74.785042 102.571732 -1305.625977
v -47.566322 314.202698 -1532.847534
v -18.527138 96.180008 -1518.636108
v 29.837975 361.086548 -971.757751
v 58.877159 143.063965 -957.546143
v -152.240936 111.371872 -1012.353210
v -181.280121 329.394470 -1026.564941
v -5.215858 365.069214 -839.032471
v 23.823280 147.046585 -824.820923
v -187.294861 115.354477 -879.628113
v -216.334045 333.377075 -893.839722
v -25.924171 367.421936 -760.624512
v -1.179047 208.460861 -763.346069
v -212.297241 176.768784 -818.153259
v -237.042328 335.729858 -815.431580
v -34.165306 582.417847 -853.200195
v -245.283417 550.725708 -908.007507
v -54.873573 584.770569 -774.792175
v -265.991699 553.078491 -829.599365
v 41.922554 359.713562 -1017.513611
v 70.961731 141.690979 -1003.302002
v -169.195587 328.021484 -1072.320801
v -140.156433 109.998871 -1058.109131
v 20.251930 433.057434 -976.449036
v -190.866211 401.365417 -1031.256348
v 32.336525 431.684509 -1022.204895
v -178.781586 399.992371 -1077.012085
v 6.344170 537.475464 -983.255493
v -204.773926 505.783386 -1038.062622
v 18.428696 536.102417 -1029.011475
v -192.689392 504.410400 -1083.818604
v -14.009666 436.950073 -846.723694
v -225.127808 405.257996 -901.530884
v -27.917458 541.368103 -853.530090
v -239.035583 509.676025 -908.337219
v -39.112465 716.238586 -911.525024
v -250.230621 684.546509 -966.332275
v -59.820763 718.591370 -833.116943
v -270.938843 686.899231 -887.924194
v 143.691010 348.151184 -1402.841187
v 172.730194 130.128586 -1388.629761
v -67.427101 316.459106 -1457.648438
v -38.387871 98.436501 -1443.436890
v 57.992718 330.048706 -1505.444092
v 87.031937 112.026077 -1491.232422
v 1.734886 336.440430 -1292.433960
v 30.774078 118.417786 -1278.222290
v -75.721046 345.240479 -999.161255
v -46.681892 127.217918 -984.949646
v -110.774956 349.223206 -866.436096
v -77.212318 142.492004 -839.982117
v -131.483246 351.575867 -788.028076
v -94.071480 183.903839 -798.529480
v -139.724365 566.571838 -880.603821
v -160.432648 568.924500 -802.195801
v -34.597328 125.844940 -1030.705566
v -63.636513 343.867493 -1044.917236
v -85.307137 417.211426 -1003.852722
v -73.222542 415.838379 -1049.608521
v -99.214882 521.629456 -1010.659058
v -87.130333 520.256409 -1056.415039
v -119.568748 421.104065 -874.127319
v -133.476532 525.522095 -880.933655
v -144.671539 700.392578 -938.928650
v -165.379822 702.745300 -860.520569
v 67.171158 114.282539 -1416.033325
v 38.131966 332.305176 -1430.244873
v 110.772316 337.971741 -1491.742188
v 83.553581 126.340820 -1264.520508
v 6.097618 135.140930 -971.247864
v -41.622963 147.834534 -830.742981
v -58.482079 189.246353 -789.290344
v -10.856956 351.790527 -1031.215332
v -20.443016 423.761414 -1035.906738
v -34.350838 528.179443 -1042.713135
v 90.911514 340.228210 -1416.543091
v 139.811478 119.949097 -1477.530640
v 54.514397 344.363403 -1278.732178
v -22.941536 353.163513 -985.459534
v -57.995430 357.146179 -852.734314
v -78.703697 359.498901 -774.326172
v -86.944832 574.494812 -866.902039
v -107.653099 576.847595 -788.493958
v 18.182190 133.767960 -1017.003784
v -32.527596 425.134460 -990.150879
v -46.435371 529.552429 -996.957275
v -66.789223 429.027039 -860.425537
v -80.696999 533.445068 -867.231812
v -91.891975 708.315613 -925.226807
v -112.600273 710.668274 -846.818787
v 119.950607 122.205551 -1402.331665
v 23.619392 92.946205 -1014.342896
v -29.160149 85.023163 -1028.044556
v 125.387810 81.383797 -1399.670654
v 72.608337 73.460770 -1413.372314
v 36.211220 77.596016 -1275.561523
v 88.990791 85.519058 -1261.859619
v 230.636536 301.856842 -1337.337280
v 214.542084 303.685364 -1276.398560
v 227.383057 207.278046 -1270.114380
v 243.477356 205.449463 -1331.053101
v 276.258057 308.705322 -1325.493774
v 260.163605 310.533875 -1264.555176
v 273.004517 214.126541 -1258.270874
v 289.098907 212.297989 -1319.209595
v 346.073517 319.185730 -1307.369629
v 329.979065 321.014282 -1246.430786
v 342.819885 224.606949 -1240.146606
v 358.914276 222.778366 -1301.085449
v 390.998871 325.929688 -1295.706787
v 374.904480 327.758240 -1234.768188
v 387.745392 231.350937 -1228.483887
v 403.839691 229.522369 -1289.422485
v 324.629639 98.951492 -2177.308838
v 271.850128 91.028465 -2191.010742
v 242.810745 309.051086 -2205.222412
v 295.590424 316.974121 -2191.520508
v -131.325256 767.043152 -963.485596
v -228.592224 752.441833 -988.736511
v -150.406769 769.211060 -891.236694
v -247.673706 754.609741 -916.487671
v -53.139839 783.812317 -865.985901
v -34.058220 781.644531 -938.234558
v -82.691719 774.343994 -950.859985
v -101.773308 776.511658 -878.611267
vn 0.9579 0.1438 0.2487
vn 0.2552 -0.0290 -0.9664
vn -0.9579 -0.1438 -0.2487
vn -0.1318 0.9892 -0.0645
vn 0.1318 -0.9892 0.0645
vn -0.2552 0.0290 0.9664
vn -0.0711 -0.7200 0.6903
vn 0.0476 -0.9960 0.0752
vn -0.3168 -0.0940 0.9438
vn -0.9581 -0.1442 -0.2473
vn 0.9581 0.1442 0.2473
vn 0.2852 -0.3741 -0.8824
vn 0.2855 -0.3812 -0.8793
vn -0.2852 0.3741 0.8824
vn 0.6116 0.0299 -0.7906
vn -0.9424 0.2161 -0.2554
vn -0.1974 -0.0771 0.9773
vn 0.1625 -0.9810 0.1064
vn -0.2871 0.4544 0.8433
vn -0.2338 -0.1127 0.9657
vn 0.1147 -0.9851 0.1279
vn 0.1423 0.0832 0.9863
vn 0.6384 -0.7456 0.1910
vn 0.4186 0.9043 0.0834
vn 0.2553 -0.0290 -0.9664
vn 0.2855 -0.3811 -0.8793
vn 0.9667 0.0292 0.2544
usemtl Matériau.011
s off
f 45//1 46//1 4//1 3//1
f 49//2 50//2 8//2 7//2
f 47//3 48//3 6//3 5//3
f 26//1 25//1 9//1 10//1
f 72//4 47//4 5//4 51//4
f 96//5 46//5 2//5 74//5
f 10//1 9//1 13//1 14//1
f 84//6 9//6 29//6 90//6
f 89//5 26//5 10//5 75//5
f 27//3 28//3 11//3 12//3
f 76//7 14//7 18//7 77//7
f 75//8 10//8 14//8 76//8
f 12//3 11//3 15//3 16//3
f 53//4 12//4 16//4 55//4
f 86//9 77//9 18//9 17//9
f 16//10 15//10 19//10 20//10
f 16//3 20//3 24//3 22//3
f 14//11 13//11 17//11 18//11
f 59//12 22//12 42//12 69//12
f 86//6 17//6 23//6 88//6
f 17//1 13//1 21//1 23//1
f 55//2 16//2 22//2 59//2
f 5//3 6//3 28//3 27//3
f 74//5 2//5 26//5 89//5
f 51//4 5//4 27//4 62//4
f 2//1 1//1 25//1 26//1
f 32//3 30//3 34//3 36//3
f 62//2 27//2 32//2 64//2
f 27//3 12//3 30//3 32//3
f 9//1 25//1 31//1 29//1
f 66//4 36//4 34//4 65//4
f 90//5 29//5 37//5 92//5
f 64//2 32//2 36//2 66//2
f 29//1 31//1 35//1 33//1
f 92//6 37//6 39//6 93//6
f 29//1 33//1 39//1 37//1
f 34//3 30//3 38//3 40//3
f 65//4 34//4 40//4 68//4
f 69//13 42//13 124//13 123//13
f 23//1 21//1 41//1 43//1
f 88//14 23//14 43//14 95//14
f 22//3 24//3 44//3 42//3
f 82//5 4//5 46//5 96//5
f 49//4 7//4 47//4 72//4
f 7//3 8//3 48//3 47//3
f 46//15 45//15 103//15 106//15
f 73//4 49//4 72//4 81//4
f 8//5 50//5 71//5 48//5
f 24//14 60//14 70//14 44//14
f 42//16 44//16 126//16 124//16
f 91//4 65//4 68//4 93//4
f 38//6 67//6 68//6 40//6
f 79//2 64//2 66//2 80//2
f 30//5 63//5 67//5 38//5
f 80//4 66//4 65//4 91//4
f 78//2 62//2 64//2 79//2
f 83//4 51//4 62//4 78//4
f 6//5 52//5 61//5 28//5
f 85//2 55//2 59//2 87//2
f 20//6 57//6 60//6 24//6
f 87//12 59//12 69//12 94//12
f 20//17 19//17 58//17 57//17
f 84//4 53//4 55//4 85//4
f 11//18 54//18 56//18 15//18
f 15//7 56//7 58//7 19//7
f 28//5 61//5 54//5 11//5
f 12//6 53//6 63//6 30//6
f 48//5 71//5 52//5 6//5
f 81//4 72//4 51//4 83//4
f 50//3 49//3 121//3 120//3
f 3//2 4//2 82//2 73//2
f 45//4 81//4 83//4 1//4
f 9//4 84//4 85//4 13//4
f 21//12 87//12 94//12 41//12
f 13//2 85//2 87//2 21//2
f 1//4 83//4 78//4 25//4
f 25//2 78//2 79//2 31//2
f 35//4 80//4 91//4 33//4
f 31//2 79//2 80//2 35//2
f 33//4 91//4 93//4 39//4
f 70//19 95//19 130//19 125//19
f 3//4 73//4 81//4 45//4
f 50//5 82//5 96//5 71//5
f 60//14 88//14 95//14 70//14
f 67//6 92//6 93//6 68//6
f 63//5 90//5 92//5 67//5
f 52//3 71//3 100//3 101//3
f 57//6 86//6 88//6 60//6
f 57//20 58//20 77//20 86//20
f 54//21 75//21 76//21 56//21
f 56//7 76//7 77//7 58//7
f 61//5 89//5 75//5 54//5
f 53//6 84//6 90//6 63//6
f 89//6 61//6 98//6 97//6
f 101//5 102//5 97//5 98//5
f 100//5 99//5 102//5 101//5
f 61//3 52//3 101//3 98//3
f 74//1 89//1 97//1 102//1
f 71//2 96//2 99//2 100//2
f 96//1 74//1 102//1 99//1
f 106//2 103//2 107//2 110//2
f 1//22 2//22 105//22 104//22
f 2//23 46//23 106//23 105//23
f 45//24 1//24 104//24 103//24
f 109//5 110//5 114//5 113//5
f 104//6 105//6 109//6 108//6
f 105//5 106//5 110//5 109//5
f 103//4 104//4 108//4 107//4
f 113//5 114//5 118//5 117//5
f 107//4 108//4 112//4 111//4
f 110//2 107//2 111//2 114//2
f 108//6 109//6 113//6 112//6
f 116//1 117//1 118//1 115//1
f 111//4 112//4 116//4 115//4
f 114//2 111//2 115//2 118//2
f 122//25 119//25 120//25 121//25
f 82//5 50//5 120//5 119//5
f 73//1 82//1 119//1 122//1
f 49//4 73//4 122//4 121//4
f 123//4 124//4 126//4 125//4
f 129//4 123//4 125//4 130//4
f 128//4 129//4 130//4 127//4
f 95//19 43//19 127//19 130//19
f 94//26 69//26 123//26 129//26
f 43//27 41//27 128//27 127//27
f 44//19 70//19 125//19 126//19
f 41//26 94//26 129//26 128//26
o Cube.048_Cube.024
v -533.735352 497.910583 148.271896
v -668.943787 317.534515 61.204689
v -410.238922 505.535522 -59.304726
v -544.665161 325.252228 -145.830780
v -694.274658 616.458069 -11.427574
v -763.599792 523.974243 -56.069351
v -630.954590 620.367615 -117.857948
v -699.818665 528.076904 -161.953766
v -401.380524 423.049133 -497.839752
v -308.839539 503.018097 -465.224396
v -386.222809 601.021790 -485.954681
v -478.763794 521.052734 -518.570068
v -334.163666 454.744690 -701.233154
v -266.125427 513.539673 -677.253479
v -323.019470 585.594116 -692.494873
v -391.057648 526.799133 -716.474426
v -291.846130 477.449188 -828.353394
v -242.124695 520.415771 -810.829529
v -283.702026 573.072266 -821.967712
v -333.423401 530.105652 -839.491638
v -494.187012 590.810547 -84.782005
v -636.723999 400.016174 -175.572754
v -625.407715 582.736877 135.564102
v -768.948059 391.245514 43.131584
v -342.984131 554.695435 -479.914276
v -441.227844 469.798492 -514.539490
v -286.762024 552.091187 -702.095703
v -358.992950 489.673035 -727.553040
v -253.152039 549.094360 -841.725037
v -305.937439 503.480042 -860.328857
v -261.185150 478.263855 -917.346252
v -211.463898 521.230408 -899.822388
v -223.033264 554.732056 -941.005066
v -275.818573 509.117676 -959.608826
v -303.221344 535.001953 -937.190491
v -253.499969 577.968628 -919.666504
v -239.965546 479.884430 -981.527039
v -190.244232 522.851074 -964.003113
v -201.813904 556.352539 -1005.185486
v -254.599304 510.738312 -1023.789490
v -282.001953 536.622559 -1001.370911
v -232.280457 579.589111 -983.846985
v -203.170959 469.575226 -1013.620544
v -171.167542 497.230835 -1002.341248
v -178.614258 518.794312 -1028.848389
v -212.589966 489.434448 -1040.822876
v -264.133667 540.575134 -1069.893188
v -291.536407 566.459412 -1047.474731
v -241.815063 609.425964 -1029.950806
v -211.348358 586.189514 -1051.289185
v -178.493652 461.141571 -1035.282471
v -156.917786 479.786255 -1027.678101
v -161.938171 494.323730 -1045.548706
v -184.843567 474.530151 -1053.621582
v -160.166565 460.596588 -1064.495605
v -146.679260 472.251587 -1059.742065
v -149.817505 481.339172 -1070.913208
v -164.136047 468.965912 -1075.959717
v -265.274658 568.408020 -1087.950562
v -283.495026 585.618835 -1073.044067
v -250.434692 614.187805 -1061.392212
v -230.177032 598.737549 -1075.580688
v -234.819336 575.535034 366.297333
v -327.957825 352.622925 372.040314
v -108.820007 515.674561 171.123413
v -199.515625 293.904388 175.947754
v -408.496399 579.444763 178.810471
v -456.251068 465.151428 181.755066
v -335.620911 551.704834 76.439735
v -390.395172 435.044800 81.212921
v -90.221680 157.775452 -78.139915
v -4.852051 170.539185 12.516045
v 74.860291 223.348083 -67.785545
v -7.704041 210.559021 -158.310669
v 8.481445 -28.944397 -125.940559
v 70.809021 -21.951233 -57.184280
v 131.477844 16.856323 -116.127632
v 69.150269 9.863159 -184.884003
v 72.956665 -144.816833 -155.646027
v 118.504761 -139.706299 -105.399788
v 162.840759 -111.346069 -148.474823
v 117.292664 -116.456726 -198.721008
v -194.903442 564.614685 114.559235
v -303.285461 327.760956 120.471313
v -340.764771 626.746521 322.550903
v -439.642731 390.097900 328.647797
v 40.413574 188.902283 -23.115013
v -49.584229 178.804565 -122.395607
v 109.772095 -19.416138 -88.880867
v 43.603516 -26.840027 -161.874176
v 151.737366 -149.973267 -131.644501
v 103.382385 -155.398621 -184.987000
v 104.105164 -231.495239 -175.066132
v 149.653381 -226.384399 -124.819878
v 190.125000 -243.142761 -156.966766
v 141.770020 -248.568176 -210.309326
v 154.567566 -208.628845 -223.135986
v 200.115723 -203.518127 -172.889862
v 127.364014 -293.235535 -189.870728
v 172.912109 -288.125000 -139.624512
v 213.383972 -304.883545 -171.771301
v 165.028931 -310.308899 -225.113861
v 177.826538 -270.369263 -237.940704
v 223.374634 -265.258728 -187.694458
v 133.734436 -340.267944 -174.460297
v 163.051819 -336.978760 -142.118927
v 189.101685 -347.765381 -162.810364
v 157.977661 -351.257446 -197.144562
v 203.798706 -333.268433 -257.923431
v 216.596313 -293.328674 -270.750305
v 262.144531 -288.218384 -220.504181
v 252.153687 -327.843262 -204.580933
v 136.614502 -372.434082 -164.146301
v 156.379333 -370.216309 -142.342651
v 173.941406 -377.488892 -156.292267
v 152.958557 -379.842896 -179.439514
v 147.717590 -405.080322 -163.409668
v 160.072937 -403.693970 -149.779938
v 171.051086 -408.239624 -158.500031
v 157.934387 -409.711426 -172.969452
v 234.697815 -338.064575 -269.071960
v 243.207031 -311.508057 -277.600677
v 273.492493 -308.109863 -244.191284
v 266.849548 -334.456909 -233.603790
vn 0.6526 -0.6638 0.3654
vn -0.5755 0.7156 -0.3959
vn -0.6526 0.6637 -0.3656
vn -0.3196 -0.2068 0.9247
vn 0.1765 0.9742 0.1408
vn -0.5195 -0.7825 -0.3433
vn -0.5860 0.7748 -0.2372
vn 0.7144 0.6726 0.1928
vn -0.7681 -0.4045 -0.4965
vn 0.7123 -0.6870 0.1436
vn -0.7644 -0.5306 -0.3663
vn 0.7991 0.5695 0.1925
vn -0.7505 -0.5634 -0.3455
vn 0.6330 -0.7690 0.0894
vn 0.6918 0.6781 0.2481
vn 0.6368 -0.7674 0.0749
vn -0.5807 0.7744 -0.2512
vn 0.8232 0.5380 0.1812
vn 0.6809 0.7183 0.1431
vn 0.5995 -0.7751 0.1995
vn -0.6537 -0.6860 -0.3196
vn 0.7024 0.6920 0.1666
vn -0.6220 -0.7109 -0.3281
vn -0.5228 -0.7335 -0.4342
vn 0.3631 0.9238 0.1212
vn -0.7991 -0.3397 -0.4960
vn 0.5987 0.7039 0.3822
vn -0.8020 0.3780 0.4625
vn -0.6058 0.7748 -0.1807
vn -0.6987 -0.6710 -0.2480
vn -0.6152 0.7737 -0.1514
vn 0.7643 0.5871 0.2669
vn -0.6956 -0.6744 -0.2477
vn -0.7676 -0.5830 -0.2662
vn 0.6987 0.6578 0.2812
vn 0.3640 -0.6806 0.6359
vn 0.7615 0.5908 0.2667
vn 0.6907 0.6802 0.2455
vn -0.7684 -0.5808 -0.2687
vn 0.6058 -0.7748 0.1807
vn -0.1281 0.4980 -0.8577
vn -0.5351 -0.7598 -0.3694
vn 0.8779 0.4613 0.1286
vn -0.1089 0.4809 -0.8700
vn 0.5885 0.8075 -0.0390
vn -0.7618 -0.6043 -0.2335
vn -0.6605 0.5606 0.4994
vn 0.6605 -0.5606 -0.4994
vn -0.4170 0.7127 -0.5641
vn 0.8619 0.4839 0.1515
vn -0.5636 -0.7479 -0.3508
vn 0.3473 -0.6697 0.6564
vn 0.6382 -0.4996 -0.5857
vn 0.8569 0.4906 0.1583
vn -0.5722 -0.7440 -0.3451
vn 0.5380 -0.7660 0.3518
vn -0.1711 0.5353 -0.8272
vn -0.7718 -0.3680 -0.5185
vn 0.6010 -0.4175 -0.6815
vn -0.6822 0.6717 0.2888
vn 0.7561 -0.2988 0.5823
vn -0.0105 0.5600 -0.8285
vn -0.7416 0.3093 -0.5952
vn -0.3123 0.1546 0.9373
vn -0.0214 0.9562 -0.2920
vn -0.3383 -0.9391 0.0596
vn 0.6738 0.3414 -0.6553
vn 0.8916 0.4476 -0.0680
vn -0.6897 -0.5050 -0.5190
vn 0.3230 -0.5295 0.7844
vn -0.5515 -0.1137 -0.8264
vn 0.6293 -0.0347 0.7764
vn -0.5853 -0.1144 -0.8027
vn -0.6144 -0.4772 0.6284
vn 0.7081 0.1016 0.6987
vn -0.6162 -0.4991 0.6093
vn 0.6820 0.3313 -0.6520
vn 0.6206 -0.0623 0.7816
vn 0.7724 0.0348 0.6341
vn -0.6648 -0.3826 0.6416
vn -0.6885 -0.1804 -0.7025
vn 0.7610 0.0533 0.6466
vn -0.7033 -0.2108 -0.6789
vn -0.6359 -0.7714 -0.0220
vn 0.5288 0.6855 -0.5005
vn -0.7008 -0.6642 -0.2601
vn 0.4488 0.8930 0.0324
vn -0.8800 0.3752 0.2912
vn 0.6581 0.4008 -0.6374
vn -0.7029 -0.0958 -0.7048
vn 0.6472 0.4287 -0.6303
vn 0.6318 0.0518 0.7734
vn -0.7056 -0.0982 -0.7018
vn -0.6288 -0.0484 -0.7761
vn 0.6814 0.1184 0.7223
vn -0.7417 0.1160 0.6606
vn 0.6347 0.0543 0.7708
vn 0.7106 0.1007 0.6964
vn -0.6261 -0.0493 -0.7782
vn -0.6581 -0.4008 0.6374
vn 0.6773 -0.4696 -0.5662
vn -0.7207 -0.3021 -0.6239
vn 0.5736 -0.1568 0.8040
vn 0.6684 -0.4946 -0.5556
vn 0.8878 -0.0396 0.4586
vn -0.6565 -0.0317 -0.7536
vn 0.2601 0.9081 -0.3281
vn -0.2601 -0.9081 0.3281
vn 0.7418 -0.0216 -0.6703
vn 0.5855 -0.1229 0.8013
vn -0.7203 -0.2695 -0.6392
vn -0.7404 0.1442 0.6565
vn -0.1835 -0.9473 0.2627
vn 0.5889 -0.1128 0.8003
vn -0.7199 -0.2594 -0.6438
vn -0.7101 -0.2265 0.6667
vn 0.6956 -0.4119 -0.5886
vn -0.3584 -0.1794 -0.9162
vn -0.0875 -0.9799 0.1790
vn 0.4178 0.7844 -0.4585
usemtl Matériau.012
s off
f 131//28 132//28 134//28 133//28
f 138//29 137//29 141//29 142//29
f 137//30 138//30 136//30 135//30
f 153//31 154//31 132//31 131//31
f 151//32 137//32 135//32 153//32
f 152//33 134//33 132//33 154//33
f 142//34 141//34 145//34 146//34
f 151//35 133//35 140//35 155//35
f 152//36 138//36 142//36 156//36
f 133//37 134//37 139//37 140//37
f 158//38 146//38 150//38 160//38
f 155//39 140//39 144//39 157//39
f 156//40 142//40 146//40 158//40
f 140//41 139//41 143//41 144//41
f 149//42 159//42 163//42 166//42
f 144//43 143//43 147//43 148//43
f 146//44 145//44 149//44 150//44
f 157//45 144//45 148//45 159//45
f 145//46 157//46 159//46 149//46
f 148//47 147//47 161//47 162//47
f 139//48 156//48 158//48 143//48
f 141//49 155//49 157//49 145//49
f 143//50 158//50 160//50 147//50
f 134//51 152//51 156//51 139//51
f 137//52 151//52 155//52 141//52
f 138//53 152//53 154//53 136//53
f 133//54 151//54 153//54 131//54
f 135//55 136//55 154//55 153//55
f 165//56 166//56 172//56 171//56
f 161//57 164//57 170//57 167//57
f 150//58 149//58 166//58 165//58
f 159//59 148//59 162//59 163//59
f 147//60 160//60 164//60 161//60
f 160//61 150//61 165//61 164//61
f 172//62 169//62 180//62 179//62
f 168//63 167//63 173//63 174//63
f 163//64 162//64 168//64 169//64
f 166//65 163//65 169//65 172//65
f 164//66 165//66 171//66 170//66
f 162//67 161//67 167//67 168//67
f 176//68 175//68 183//68 184//68
f 167//69 170//69 176//69 173//69
f 169//70 168//70 174//70 175//70
f 170//71 169//71 175//71 176//71
f 179//72 180//72 192//72 191//72
f 170//73 171//73 178//73 177//73
f 171//74 172//74 179//74 178//74
f 169//75 170//75 177//75 180//75
f 184//76 183//76 187//76 188//76
f 175//77 174//77 182//77 183//77
f 173//78 176//78 184//78 181//78
f 174//79 173//79 181//79 182//79
f 186//80 185//80 188//80 187//80
f 183//81 182//81 186//81 187//81
f 181//82 184//82 188//82 185//82
f 182//83 181//83 185//83 186//83
f 192//84 189//84 190//84 191//84
f 177//85 178//85 190//85 189//85
f 180//86 177//86 189//86 192//86
f 178//87 179//87 191//87 190//87
f 193//88 194//88 196//88 195//88
f 200//89 199//89 203//89 204//89
f 199//90 200//90 198//90 197//90
f 215//91 216//91 194//91 193//91
f 213//92 199//92 197//92 215//92
f 214//93 196//93 194//93 216//93
f 204//94 203//94 207//94 208//94
f 213//95 195//95 202//95 217//95
f 214//96 200//96 204//96 218//96
f 195//97 196//97 201//97 202//97
f 220//98 208//98 212//98 222//98
f 217//99 202//99 206//99 219//99
f 218//100 204//100 208//100 220//100
f 202//101 201//101 205//101 206//101
f 211//102 221//102 225//102 228//102
f 206//103 205//103 209//103 210//103
f 208//104 207//104 211//104 212//104
f 219//105 206//105 210//105 221//105
f 207//106 219//106 221//106 211//106
f 210//107 209//107 223//107 224//107
f 201//108 218//108 220//108 205//108
f 203//109 217//109 219//109 207//109
f 205//110 220//110 222//110 209//110
f 196//111 214//111 218//111 201//111
f 199//112 213//112 217//112 203//112
f 200//113 214//113 216//113 198//113
f 195//114 213//114 215//114 193//114
f 197//115 198//115 216//115 215//115
f 227//116 228//116 234//116 233//116
f 223//117 226//117 232//117 229//117
f 212//118 211//118 228//118 227//118
f 221//119 210//119 224//119 225//119
f 209//120 222//120 226//120 223//120
f 222//121 212//121 227//121 226//121
f 234//122 231//122 242//122 241//122
f 230//123 229//123 235//123 236//123
f 225//124 224//124 230//124 231//124
f 228//125 225//125 231//125 234//125
f 226//126 227//126 233//126 232//126
f 224//127 223//127 229//127 230//127
f 238//128 237//128 245//128 246//128
f 229//129 232//129 238//129 235//129
f 231//130 230//130 236//130 237//130
f 232//131 231//131 237//131 238//131
f 241//132 242//132 254//132 253//132
f 232//133 233//133 240//133 239//133
f 233//134 234//134 241//134 240//134
f 231//135 232//135 239//135 242//135
f 246//136 245//136 249//136 250//136
f 237//137 236//137 244//137 245//137
f 235//138 238//138 246//138 243//138
f 236//139 235//139 243//139 244//139
f 248//140 247//140 250//140 249//140
f 245//141 244//141 248//141 249//141
f 243//142 246//142 250//142 247//142
f 244//143 243//143 247//143 248//143
f 254//144 251//144 252//144 253//144
f 239//145 240//145 252//145 251//145
f 242//146 239//146 251//146 254//146
f 240//147 241//147 253//147 252//147
