# Blender v2.91.2 OBJ File: 'camionnete02.blend'
# www.blender.org
mtllib arme_000030.mtl
o Cube.046_Cube.010
v 130.362137 111.917671 -1115.769897
v 72.031525 -98.989418 -1089.410034
v 205.938080 65.788887 -1317.610229
v 147.607422 -145.118195 -1291.250366
v -68.295639 156.296082 -1200.296509
v -126.626312 -54.611015 -1173.936523
v 7.280281 110.167320 -1402.136719
v -51.050392 -100.739815 -1375.776978
v 26.309082 175.427826 -837.875793
v -32.021561 -35.479218 -811.515869
v -230.679321 8.899178 -896.042358
v -172.348679 219.806244 -922.402344
v -20.781708 204.170380 -712.110352
v -79.112389 -6.736694 -685.750549
v -277.770203 37.641716 -770.277039
v -219.439545 248.548798 -796.637024
v -48.600899 221.150177 -637.813904
v -86.230988 64.862785 -630.988953
v -284.888855 109.241219 -715.515503
v -247.258743 265.528625 -722.340393
v 37.368591 414.425476 -738.388855
v -161.289215 458.803802 -822.915466
v 9.549438 431.405243 -664.092346
v -189.108353 475.783661 -748.618835
v 42.543304 165.519073 -881.232422
v -15.787338 -45.387978 -854.872437
v -156.114502 209.897491 -965.758972
v -214.445175 -1.009567 -939.399048
v 45.564484 245.049835 -846.577393
v -153.093307 289.428284 -931.104004
v 61.798706 235.141083 -889.933960
v -136.859131 279.519501 -974.460449
v 73.500946 346.060028 -859.202087
v -125.156860 390.438446 -943.728516
v 89.735062 336.151215 -902.558655
v -108.922684 380.529633 -987.085205
v -0.462013 273.142761 -723.654541
v -199.119858 317.521149 -808.181091
v 27.474396 374.152924 -736.279114
v -171.183395 418.531342 -820.805664
v 91.133362 534.595154 -801.656982
v -107.524460 578.973572 -886.183594
v 63.314178 551.574951 -727.360535
v -135.343597 595.953369 -811.887024
v 179.257385 82.073769 -1246.354370
v 120.926788 -128.833313 -1219.994751
v -19.400360 126.452202 -1330.880981
v -77.731003 -84.454903 -1304.520996
v 106.609177 87.978096 -1359.873535
v 48.278519 -122.929008 -1333.513794
v 31.033264 134.106873 -1158.033203
v -27.297394 -76.800224 -1131.673340
v -73.019791 197.617035 -880.139038
v -131.350433 -13.290016 -853.779114
v -120.110619 226.359619 -754.373657
v -171.512756 25.305641 -715.654663
v -147.929779 243.339386 -680.077148
v -176.312866 73.585365 -678.728821
v -61.960312 436.614716 -780.652100
v -89.779465 453.594513 -706.355652
v -115.116257 -23.198769 -897.135742
v -56.785606 187.708252 -923.495667
v -53.764412 267.239075 -888.840698
v -37.530220 257.330292 -932.197205
v -25.827950 368.249268 -901.465210
v -9.593803 358.340454 -944.821899
v -99.790932 295.331970 -765.917847
v -71.854469 396.342163 -778.542419
v -8.195557 556.784424 -843.920349
v -36.014740 573.764099 -769.623840
v 21.597870 -106.644112 -1262.257812
v 79.928528 104.262993 -1288.617676
v 156.273651 76.883522 -1338.741821
v 22.367081 -87.894814 -1110.541626
v -81.686012 -24.384613 -832.647522
v -138.023926 17.824524 -701.405640
v -142.823990 66.104240 -664.479736
v -7.121140 176.613678 -902.364014
v 12.134216 246.235657 -911.065613
v 40.070648 347.245819 -923.690247
v 129.592957 93.168388 -1267.486084
v 97.942993 -134.023621 -1312.381958
v 80.697693 123.012276 -1136.901733
v -23.355354 186.522400 -859.007446
v -70.446182 215.264984 -733.242004
v -98.265343 232.244781 -658.945496
v -12.295853 425.520050 -759.520508
v -40.115005 442.499847 -685.223999
v -65.451797 -34.293381 -876.004150
v -4.099953 256.144440 -867.709045
v 23.836472 357.154602 -880.333679
v -50.126488 284.237335 -744.786194
v -22.190025 385.247589 -757.410767
v 41.468933 545.689758 -822.788635
v 13.649734 562.669495 -748.492188
v 71.262283 -117.738701 -1241.126343
v -76.373421 -73.782852 -871.068542
v -126.037880 -62.688255 -892.200195
v 60.340637 -157.228180 -1236.190796
v 10.676262 -146.133606 -1257.322266
v -38.219009 -116.289703 -1126.737915
v 11.445465 -127.384285 -1105.606201
v 233.096497 12.866447 -1166.949341
v 211.475525 26.063087 -1109.206299
v 185.682434 -67.197899 -1097.550049
v 207.303314 -80.394539 -1155.293335
v 276.025452 3.276482 -1148.683716
v 254.404480 16.473137 -1090.940674
v 228.611328 -76.787834 -1079.284424
v 250.232239 -89.984489 -1137.027588
v 341.720367 -11.399193 -1120.731445
v 320.099396 1.797462 -1062.988281
v 294.306183 -91.463432 -1051.332153
v 315.927124 -104.660103 -1109.075317
v 383.994232 -20.842796 -1102.744507
v 362.373230 -7.646156 -1045.001343
v 336.580139 -100.907112 -1033.345215
v 358.200989 -114.103752 -1091.088379
v 346.224640 -285.565186 -1975.465698
v 296.560242 -274.470581 -1996.597290
v 354.890717 -63.563469 -2022.957153
v 404.555298 -74.658073 -2001.825562
v 32.506073 611.155396 -868.631470
v -59.020157 631.601562 -907.574768
v 6.872223 626.801331 -800.171143
v -84.653976 647.247498 -839.114502
v 98.398422 606.355225 -761.227966
v 124.032364 590.709351 -829.687988
v 78.269287 600.932495 -849.159668
v 52.635315 616.578247 -780.699585
vn 0.9013 -0.2013 0.3835
vn 0.3429 -0.2093 -0.9158
vn -0.9013 0.2013 -0.3835
vn 0.2647 0.9569 -0.1196
vn -0.2646 -0.9569 0.1196
vn -0.3429 0.2093 0.9158
vn -0.2647 -0.9569 0.1196
vn -0.4256 -0.5761 0.6979
vn -0.3457 -0.9309 0.1179
vn -0.4433 0.1166 0.8887
vn -0.9019 0.2012 -0.3822
vn 0.9019 -0.2012 0.3822
vn 0.2283 -0.5316 -0.8157
vn 0.2646 0.9569 -0.1196
vn 0.2254 -0.5379 -0.8123
vn -0.2283 0.5316 0.8157
vn 0.6699 -0.2716 -0.6910
vn -0.7491 0.5274 -0.4010
vn -0.3318 0.0907 0.9390
vn -0.2386 -0.9569 0.1653
vn -0.1945 0.6029 0.7737
vn -0.3772 0.0704 0.9235
vn -0.2866 -0.9411 0.1796
vn 0.0395 0.1132 0.9928
vn 0.2766 -0.9091 0.3113
vn 0.7180 0.6869 0.1119
vn 0.8650 -0.3099 0.3947
usemtl Matériau.011
s off
f 45//1 46//1 4//1 3//1
f 49//2 50//2 8//2 7//2
f 47//3 48//3 6//3 5//3
f 26//1 25//1 9//1 10//1
f 72//4 47//4 5//4 51//4
f 96//5 46//5 2//5 74//5
f 10//1 9//1 13//1 14//1
f 84//6 9//6 29//6 90//6
f 89//7 26//7 10//7 75//7
f 27//3 28//3 11//3 12//3
f 76//8 14//8 18//8 77//8
f 75//9 10//9 14//9 76//9
f 12//3 11//3 15//3 16//3
f 53//4 12//4 16//4 55//4
f 86//10 77//10 18//10 17//10
f 16//11 15//11 19//11 20//11
f 16//3 20//3 24//3 22//3
f 14//12 13//12 17//12 18//12
f 59//13 22//13 42//13 69//13
f 86//6 17//6 23//6 88//6
f 17//1 13//1 21//1 23//1
f 55//2 16//2 22//2 59//2
f 5//3 6//3 28//3 27//3
f 74//5 2//5 26//5 89//5
f 51//4 5//4 27//4 62//4
f 2//1 1//1 25//1 26//1
f 32//3 30//3 34//3 36//3
f 62//2 27//2 32//2 64//2
f 27//3 12//3 30//3 32//3
f 9//1 25//1 31//1 29//1
f 66//4 36//4 34//4 65//4
f 90//5 29//5 37//5 92//5
f 64//2 32//2 36//2 66//2
f 29//1 31//1 35//1 33//1
f 92//6 37//6 39//6 93//6
f 29//1 33//1 39//1 37//1
f 34//3 30//3 38//3 40//3
f 65//14 34//14 40//14 68//14
f 69//15 42//15 124//15 123//15
f 23//1 21//1 41//1 43//1
f 88//16 23//16 43//16 95//16
f 22//3 24//3 44//3 42//3
f 82//5 4//5 46//5 96//5
f 49//4 7//4 47//4 72//4
f 7//3 8//3 48//3 47//3
f 46//17 45//17 103//17 106//17
f 73//14 49//14 72//14 81//14
f 8//5 50//5 71//5 48//5
f 24//16 60//16 70//16 44//16
f 42//18 44//18 126//18 124//18
f 91//4 65//4 68//4 93//4
f 38//6 67//6 68//6 40//6
f 79//2 64//2 66//2 80//2
f 30//7 63//7 67//7 38//7
f 80//4 66//4 65//4 91//4
f 78//2 62//2 64//2 79//2
f 83//14 51//14 62//14 78//14
f 6//5 52//5 61//5 28//5
f 85//2 55//2 59//2 87//2
f 20//6 57//6 60//6 24//6
f 87//13 59//13 69//13 94//13
f 20//19 19//19 58//19 57//19
f 84//4 53//4 55//4 85//4
f 11//20 54//20 56//20 15//20
f 15//8 56//8 58//8 19//8
f 28//5 61//5 54//5 11//5
f 12//6 53//6 63//6 30//6
f 48//5 71//5 52//5 6//5
f 81//4 72//4 51//4 83//4
f 50//3 49//3 121//3 120//3
f 3//2 4//2 82//2 73//2
f 45//4 81//4 83//4 1//4
f 9//4 84//4 85//4 13//4
f 21//13 87//13 94//13 41//13
f 13//2 85//2 87//2 21//2
f 1//4 83//4 78//4 25//4
f 25//2 78//2 79//2 31//2
f 35//4 80//4 91//4 33//4
f 31//2 79//2 80//2 35//2
f 33//4 91//4 93//4 39//4
f 70//21 95//21 130//21 125//21
f 3//4 73//4 81//4 45//4
f 50//7 82//7 96//7 71//7
f 60//16 88//16 95//16 70//16
f 67//6 92//6 93//6 68//6
f 63//7 90//7 92//7 67//7
f 52//3 71//3 100//3 101//3
f 57//6 86//6 88//6 60//6
f 57//22 58//22 77//22 86//22
f 54//23 75//23 76//23 56//23
f 56//8 76//8 77//8 58//8
f 61//5 89//5 75//5 54//5
f 53//6 84//6 90//6 63//6
f 89//6 61//6 98//6 97//6
f 101//5 102//5 97//5 98//5
f 100//5 99//5 102//5 101//5
f 61//3 52//3 101//3 98//3
f 74//1 89//1 97//1 102//1
f 71//2 96//2 99//2 100//2
f 96//1 74//1 102//1 99//1
f 106//2 103//2 107//2 110//2
f 1//24 2//24 105//24 104//24
f 2//25 46//25 106//25 105//25
f 45//26 1//26 104//26 103//26
f 109//5 110//5 114//5 113//5
f 104//6 105//6 109//6 108//6
f 105//5 106//5 110//5 109//5
f 103//14 104//14 108//14 107//14
f 113//7 114//7 118//7 117//7
f 107//4 108//4 112//4 111//4
f 110//2 107//2 111//2 114//2
f 108//6 109//6 113//6 112//6
f 116//1 117//1 118//1 115//1
f 111//14 112//14 116//14 115//14
f 114//2 111//2 115//2 118//2
f 122//2 119//2 120//2 121//2
f 82//7 50//7 120//7 119//7
f 73//1 82//1 119//1 122//1
f 49//14 73//14 122//14 121//14
f 123//14 124//14 126//14 125//14
f 129//14 123//14 125//14 130//14
f 128//14 129//14 130//14 127//14
f 95//21 43//21 127//21 130//21
f 94//15 69//15 123//15 129//15
f 43//27 41//27 128//27 127//27
f 44//21 70//21 125//21 126//21
f 41//15 94//15 129//15 128//15
o Cube.048_Cube.024
v -563.775391 467.652588 182.316177
v -727.062866 342.047821 55.990356
v -423.149200 481.964813 -13.686356
v -586.984558 359.222656 -138.027924
v -678.653870 646.489563 40.363327
v -762.375916 582.088501 -24.407440
v -606.550842 653.827820 -60.132637
v -689.748230 590.242737 -124.556313
v -403.968018 436.116455 -436.266571
v -292.752289 478.474426 -393.144836
v -323.674652 595.935303 -428.773224
v -434.890411 553.577332 -471.894928
v -305.021210 421.957245 -628.361816
v -223.252899 453.099854 -596.657654
v -245.987762 539.459717 -622.852478
v -327.756104 508.317169 -654.556580
v -241.794159 415.667328 -748.480957
v -182.038818 438.425934 -725.312195
v -198.653198 501.536591 -744.454895
v -258.408325 478.778015 -767.623840
v -483.378723 587.784302 -26.604912
v -656.283691 457.932037 -158.651642
v -632.775757 572.528931 181.471008
v -806.125305 439.184021 47.360649
v -302.490265 537.591675 -414.651031
v -420.559540 492.623444 -460.430023
v -224.362152 494.144623 -625.697754
v -311.169312 461.082916 -659.355530
v -177.359558 466.225494 -758.536743
v -240.797119 442.064453 -783.133484
v -202.334167 396.949310 -831.866028
v -142.578918 419.707886 -808.697144
v -135.277588 451.233276 -852.343994
v -198.715149 427.072235 -876.940796
v -216.729675 463.213043 -859.828979
v -156.974426 485.971619 -836.660156
v -174.299988 384.736755 -892.173279
v -114.544739 407.495361 -869.004578
v -107.243530 439.020691 -912.651306
v -170.680969 414.859680 -937.247986
v -188.695312 451.000488 -920.136414
v -128.940247 473.759064 -896.967407
v -140.538696 358.609283 -918.012512
v -102.076965 373.258026 -903.099609
v -97.377380 393.549438 -931.193359
v -138.209290 377.998108 -947.024963
v -162.301575 441.796906 -985.319519
v -180.316040 477.937744 -968.207947
v -120.560791 500.696350 -945.038879
v -98.864197 465.957977 -960.722839
v -118.458313 339.670319 -935.422424
v -92.528503 349.546021 -925.368713
v -89.360107 363.225983 -944.308533
v -116.887878 352.741699 -954.981934
v -98.246887 329.699036 -961.530823
v -82.037842 335.872467 -955.246094
v -80.057190 344.423889 -967.085754
v -97.265137 337.870056 -973.757751
v -150.485046 466.295929 -1004.351379
v -162.463074 490.326447 -992.973450
v -122.731079 505.458893 -977.568298
v -108.304626 482.360931 -987.996765
v -302.607666 574.730835 393.282166
v -297.536652 339.511169 338.113342
v -150.131104 622.781006 204.504120
v -153.732361 386.791565 149.745392
v -460.481018 557.818970 192.981598
v -457.880951 437.215332 164.695038
v -383.815186 585.322021 97.397919
v -384.148499 461.457275 68.113495
v -0.777527 457.748230 -197.026764
v 65.766418 565.019409 -179.764496
v -26.664795 631.359070 -234.954834
v -93.010559 524.818604 -251.956390
v 89.201660 451.871643 -393.904205
v 138.549133 529.810608 -381.598877
v 70.737183 579.122314 -421.984314
v 21.389832 501.183258 -434.289764
v 145.118774 450.979553 -517.752258
v 181.181213 507.936340 -508.759613
v 131.625183 543.972595 -538.272827
v 95.562805 487.015869 -547.265503
v -257.030884 644.624817 151.354843
v -261.576965 390.389465 91.877464
v -419.626404 589.910095 350.421783
v -414.242859 340.195496 291.853302
v 24.719177 599.808350 -212.226593
v -46.535950 487.268585 -229.994934
v 114.339355 554.345093 -418.220856
v 61.951111 471.603302 -431.284515
v 169.289062 524.076111 -547.446594
v 131.004456 463.609558 -556.993408
v 188.472168 436.522858 -600.044373
v 224.534485 493.479584 -591.051575
v 212.706543 511.353638 -640.980042
v 174.421875 450.887054 -650.526855
v 138.970459 474.026794 -639.070984
v 175.032898 530.983521 -630.078430
v 218.657288 426.840790 -659.770142
v 254.719604 483.797546 -650.777405
v 242.891724 501.671600 -700.705811
v 204.606934 441.205048 -710.252502
v 169.155518 464.344757 -698.796875
v 205.218018 521.301514 -689.804260
v 261.369812 418.099243 -684.046204
v 284.581604 454.759766 -678.258057
v 276.968506 466.264435 -710.394775
v 252.326355 427.344849 -716.539551
v 196.293213 454.897827 -763.638916
v 160.841797 478.037567 -752.183228
v 196.904236 534.994263 -743.190674
v 234.577942 515.364380 -754.092224
v 290.361084 410.781708 -700.024231
v 306.009949 435.497131 -696.122009
v 300.877319 443.253265 -717.787781
v 284.264221 417.014771 -721.930298
v 312.733643 407.324493 -726.045471
v 322.515808 422.774445 -723.606079
v 319.307495 427.622925 -737.149536
v 308.922302 411.220947 -739.738953
v 192.102478 475.988892 -788.930176
v 168.530334 491.374817 -781.313049
v 192.508606 529.246094 -775.333496
v 217.558411 516.193970 -782.582397
vn 0.4521 -0.8543 0.2564
vn -0.2973 0.8918 -0.3411
vn -0.4524 0.8529 -0.2605
vn -0.4410 -0.2833 0.8516
vn 0.3742 0.8659 0.3320
vn -0.6434 -0.5646 -0.5170
vn -0.2117 0.9124 -0.3502
vn 0.8486 0.4256 0.3144
vn -0.7916 -0.1258 -0.5979
vn 0.4581 -0.8812 0.1164
vn -0.8570 -0.2387 -0.4567
vn 0.9253 0.2459 0.2887
vn -0.8594 -0.2723 -0.4328
vn 0.2754 -0.9379 0.2110
vn 0.8615 0.3912 0.3237
vn 0.2812 -0.9392 0.1972
vn -0.2053 0.9088 -0.3633
vn 0.9368 0.2068 0.2823
vn 0.8799 0.4229 0.2168
vn 0.2287 -0.9211 0.3150
vn -0.8207 -0.4191 -0.3883
vn 0.8867 0.3927 0.2441
vn -0.8001 -0.4547 -0.3911
vn -0.6520 -0.5200 -0.5518
vn 0.5842 0.7729 0.2477
vn -0.8058 -0.0506 -0.5900
vn 0.7023 0.4659 0.5382
vn -0.7371 0.4697 0.4858
vn -0.2369 0.9249 -0.2974
vn -0.8652 -0.3821 -0.3248
vn -0.2496 0.9300 -0.2698
vn 0.8908 0.2818 0.3563
vn -0.8636 -0.3864 -0.3239
vn -0.8924 -0.2768 -0.3564
vn 0.8560 0.3729 0.3582
vn -0.0052 -0.7066 0.7076
vn 0.8897 0.2863 0.3556
vn 0.8616 0.3933 0.3209
vn -0.8920 -0.2746 -0.3590
vn 0.2369 -0.9249 0.2974
vn 0.1793 0.4301 -0.8848
vn -0.7340 -0.5360 -0.4171
vn 0.9641 0.1108 0.2413
vn 0.1918 0.4060 -0.8935
vn 0.8520 0.5232 0.0198
vn -0.8993 -0.2956 -0.3224
vn -0.4532 0.8090 0.3743
vn 0.4532 -0.8090 -0.3743
vn -0.0400 0.7625 -0.6458
vn 0.9552 0.1398 0.2608
vn -0.7579 -0.5127 -0.4035
vn -0.0189 -0.6885 0.7250
vn 0.4668 -0.7521 -0.4652
vn 0.9523 0.1484 0.2665
vn -0.7650 -0.5054 -0.3992
vn 0.1568 -0.8760 0.4560
vn 0.1503 0.4833 -0.8625
vn -0.7829 -0.0995 -0.6141
vn 0.4760 -0.6711 -0.5684
vn -0.4046 0.9006 0.1588
vn 0.7955 -0.1353 0.5907
vn -0.6968 0.3296 -0.6371
vn -0.7975 0.1313 -0.5888
vn -0.3605 -0.2203 0.9063
vn -0.4041 0.9117 -0.0737
vn 0.0704 -0.9789 -0.1920
vn -0.6937 0.5150 -0.5036
vn 0.3155 0.9455 0.0803
vn -0.3731 -0.7873 -0.4908
vn 0.8624 -0.2665 0.4303
vn -0.5668 -0.7791 -0.2678
vn 0.6158 0.7827 0.0904
vn -0.5497 -0.8010 -0.2373
vn 0.7615 -0.5349 0.3660
vn 0.4840 0.8686 0.1063
vn 0.7657 -0.5400 0.3496
vn -0.6854 0.5152 -0.5146
vn 0.6511 0.7531 0.0946
vn 0.4814 0.8765 -0.0064
vn 0.7118 -0.5245 0.4671
vn -0.4344 -0.8848 -0.1686
vn 0.5046 0.8630 0.0256
vn -0.3972 -0.9025 -0.1668
vn -0.0488 -0.9621 -0.2683
vn -0.1109 0.9888 -0.1001
vn -0.3682 -0.7958 -0.4808
vn 0.0368 0.9582 0.2838
vn -0.9603 -0.0831 0.2661
vn -0.7208 0.5274 -0.4498
vn -0.4922 -0.8637 -0.1088
vn -0.7342 0.5316 -0.4224
vn 0.5703 0.8063 0.1568
vn -0.4885 -0.8660 -0.1072
vn -0.5745 -0.8032 -0.1577
vn 0.4898 0.8598 0.1443
vn 0.3961 -0.3826 0.8347
vn 0.5669 0.8090 0.1553
vn 0.4829 0.8696 0.1031
vn -0.5754 -0.8019 -0.1608
vn 0.7208 -0.5274 0.4498
vn -0.0950 0.2137 -0.9723
vn -0.2965 -0.9371 -0.1841
vn 0.7284 0.6815 0.0714
vn -0.0709 0.1992 -0.9774
vn 0.4019 0.8903 -0.2142
vn -0.5695 -0.8132 -0.1199
vn -0.8346 0.4882 0.2552
vn 0.8346 -0.4882 -0.2552
vn -0.4654 0.4178 -0.7803
vn 0.7045 0.7046 0.0853
vn -0.3294 -0.9283 -0.1725
vn 0.3745 -0.3713 0.8496
vn 0.8137 -0.4588 -0.3570
vn 0.6972 0.7113 0.0895
vn -0.3394 -0.9254 -0.1688
vn 0.6267 -0.4922 0.6042
vn -0.1492 0.2457 -0.9578
vn -0.5848 -0.6680 -0.4602
vn 0.7753 -0.4159 -0.4753
vn -0.8462 0.5325 0.0205
usemtl Matériau.012
s off
f 131//28 132//28 134//28 133//28
f 138//29 137//29 141//29 142//29
f 137//30 138//30 136//30 135//30
f 153//31 154//31 132//31 131//31
f 151//32 137//32 135//32 153//32
f 152//33 134//33 132//33 154//33
f 142//34 141//34 145//34 146//34
f 151//35 133//35 140//35 155//35
f 152//36 138//36 142//36 156//36
f 133//37 134//37 139//37 140//37
f 158//38 146//38 150//38 160//38
f 155//39 140//39 144//39 157//39
f 156//40 142//40 146//40 158//40
f 140//41 139//41 143//41 144//41
f 149//42 159//42 163//42 166//42
f 144//43 143//43 147//43 148//43
f 146//44 145//44 149//44 150//44
f 157//45 144//45 148//45 159//45
f 145//46 157//46 159//46 149//46
f 148//47 147//47 161//47 162//47
f 139//48 156//48 158//48 143//48
f 141//49 155//49 157//49 145//49
f 143//50 158//50 160//50 147//50
f 134//51 152//51 156//51 139//51
f 137//52 151//52 155//52 141//52
f 138//53 152//53 154//53 136//53
f 133//54 151//54 153//54 131//54
f 135//55 136//55 154//55 153//55
f 165//56 166//56 172//56 171//56
f 161//57 164//57 170//57 167//57
f 150//58 149//58 166//58 165//58
f 159//59 148//59 162//59 163//59
f 147//60 160//60 164//60 161//60
f 160//61 150//61 165//61 164//61
f 172//62 169//62 180//62 179//62
f 168//63 167//63 173//63 174//63
f 163//64 162//64 168//64 169//64
f 166//65 163//65 169//65 172//65
f 164//66 165//66 171//66 170//66
f 162//67 161//67 167//67 168//67
f 176//68 175//68 183//68 184//68
f 167//69 170//69 176//69 173//69
f 169//70 168//70 174//70 175//70
f 170//71 169//71 175//71 176//71
f 179//72 180//72 192//72 191//72
f 170//73 171//73 178//73 177//73
f 171//74 172//74 179//74 178//74
f 169//75 170//75 177//75 180//75
f 184//76 183//76 187//76 188//76
f 175//77 174//77 182//77 183//77
f 173//78 176//78 184//78 181//78
f 174//79 173//79 181//79 182//79
f 186//80 185//80 188//80 187//80
f 183//81 182//81 186//81 187//81
f 181//82 184//82 188//82 185//82
f 182//83 181//83 185//83 186//83
f 192//84 189//84 190//84 191//84
f 177//85 178//85 190//85 189//85
f 180//86 177//86 189//86 192//86
f 178//87 179//87 191//87 190//87
f 193//88 194//88 196//88 195//88
f 200//89 199//89 203//89 204//89
f 199//90 200//90 198//90 197//90
f 215//91 216//91 194//91 193//91
f 213//92 199//92 197//92 215//92
f 214//93 196//93 194//93 216//93
f 204//94 203//94 207//94 208//94
f 213//95 195//95 202//95 217//95
f 214//96 200//96 204//96 218//96
f 195//97 196//97 201//97 202//97
f 220//98 208//98 212//98 222//98
f 217//99 202//99 206//99 219//99
f 218//100 204//100 208//100 220//100
f 202//101 201//101 205//101 206//101
f 211//102 221//102 225//102 228//102
f 206//103 205//103 209//103 210//103
f 208//104 207//104 211//104 212//104
f 219//105 206//105 210//105 221//105
f 207//106 219//106 221//106 211//106
f 210//107 209//107 223//107 224//107
f 201//108 218//108 220//108 205//108
f 203//109 217//109 219//109 207//109
f 205//110 220//110 222//110 209//110
f 196//111 214//111 218//111 201//111
f 199//112 213//112 217//112 203//112
f 200//113 214//113 216//113 198//113
f 195//114 213//114 215//114 193//114
f 197//115 198//115 216//115 215//115
f 227//116 228//116 234//116 233//116
f 223//117 226//117 232//117 229//117
f 212//118 211//118 228//118 227//118
f 221//119 210//119 224//119 225//119
f 209//120 222//120 226//120 223//120
f 222//121 212//121 227//121 226//121
f 234//122 231//122 242//122 241//122
f 230//123 229//123 235//123 236//123
f 225//124 224//124 230//124 231//124
f 228//125 225//125 231//125 234//125
f 226//126 227//126 233//126 232//126
f 224//127 223//127 229//127 230//127
f 238//128 237//128 245//128 246//128
f 229//129 232//129 238//129 235//129
f 231//130 230//130 236//130 237//130
f 232//131 231//131 237//131 238//131
f 241//132 242//132 254//132 253//132
f 232//133 233//133 240//133 239//133
f 233//134 234//134 241//134 240//134
f 231//135 232//135 239//135 242//135
f 246//136 245//136 249//136 250//136
f 237//137 236//137 244//137 245//137
f 235//138 238//138 246//138 243//138
f 236//139 235//139 243//139 244//139
f 248//140 247//140 250//140 249//140
f 245//141 244//141 248//141 249//141
f 243//142 246//142 250//142 247//142
f 244//143 243//143 247//143 248//143
f 254//144 251//144 252//144 253//144
f 239//145 240//145 252//145 251//145
f 242//146 239//146 251//146 254//146
f 240//147 241//147 253//147 252//147
