# Blender v2.91.2 OBJ File: 'camionnete02.blend'
# www.blender.org
mtllib arme_000060.mtl
o Cube.046_Cube.010
v 366.649200 254.436874 -1021.327881
v 367.915314 34.033783 -1021.274902
v 485.270447 255.073654 -1207.090332
v 486.536560 34.670578 -1207.037476
v 180.889954 253.341293 -1139.950806
v 182.156021 32.938187 -1139.897827
v 299.511169 253.978104 -1325.713257
v 300.777283 33.574982 -1325.660400
v 203.331253 253.560104 -765.569702
v 204.597351 33.157059 -765.516724
v 18.838100 32.061462 -884.139648
v 17.572010 252.464554 -884.192566
v 129.419189 253.163345 -649.822205
v 130.685272 32.760254 -649.769348
v -55.074036 31.664658 -768.392212
v -56.340126 252.067764 -768.445190
v 85.755219 252.928940 -581.443909
v 94.114136 92.645142 -592.739990
v -91.645210 91.549576 -711.362915
v -100.004105 251.833389 -700.066772
v 128.156982 472.885071 -649.875061
v -57.602276 471.789490 -768.498047
v 84.493050 472.650696 -581.496704
v -101.266228 471.555115 -700.119629
v 228.811874 253.696884 -805.472656
v 230.077972 33.293839 -805.419739
v 43.052601 252.601334 -924.095581
v 44.318665 32.198242 -924.042664
v 202.913315 326.316833 -765.587158
v 17.154047 325.221313 -884.210144
v 228.393921 326.453613 -805.490112
v 42.634636 325.358032 -924.112976
v 202.306976 431.874939 -765.612549
v 16.547697 430.779358 -884.235352
v 227.787537 432.011719 -805.515503
v 42.028301 430.916138 -924.138367
v 130.671768 325.929016 -652.455811
v -55.087540 324.833435 -771.078735
v 130.065384 431.487183 -652.481140
v -55.693905 430.391541 -771.104065
v 154.939651 609.816650 -693.080322
v -30.819626 608.721069 -811.703308
v 111.275681 609.582275 -624.702026
v -74.483551 608.486633 -743.324890
v 443.393463 254.848862 -1141.510498
v 444.659576 34.445770 -1141.457642
v 257.634186 253.753281 -1260.133301
v 258.900299 33.350174 -1260.080444
v 392.390808 254.525894 -1266.401855
v 393.656921 34.122772 -1266.348999
v 273.769592 253.889084 -1080.639404
v 275.035675 33.485992 -1080.586426
v 110.451637 253.012314 -824.881104
v 111.717712 32.609253 -824.828125
v 36.539539 252.615585 -709.133728
v 37.805614 32.212463 -709.080811
v -7.124417 252.381149 -640.755371
v 1.234482 92.097366 -652.051453
v 35.277336 472.337341 -709.186462
v -8.386593 472.102905 -640.808167
v 137.198318 32.746048 -864.731140
v 135.932236 253.149094 -864.784119
v 110.033684 325.769043 -824.898682
v 135.514282 325.905762 -864.801514
v 109.427338 431.327209 -824.923950
v 134.907928 431.463928 -864.826965
v 37.792110 325.381226 -711.767334
v 37.185745 430.939392 -711.792603
v 62.059998 609.268921 -752.391846
v 18.396044 609.034424 -684.013489
v 351.779907 33.897980 -1200.769043
v 350.513824 254.301071 -1200.821899
v 438.830627 254.799759 -1236.745972
v 321.475494 33.759888 -1050.930664
v 158.157532 32.883163 -795.172485
v 84.245422 32.486359 -679.425110
v 47.674301 92.371246 -622.395752
v 182.372055 253.422989 -835.128357
v 181.954102 326.179688 -835.145813
v 181.347733 431.737793 -835.171204
v 396.953674 254.574966 -1171.166260
v 440.096741 34.396683 -1236.693237
v 320.209381 254.162979 -1050.983765
v 156.891449 253.286209 -795.225464
v 82.979347 252.889450 -679.477966
v 39.315388 252.655045 -611.099609
v 81.717178 472.611206 -679.530762
v 38.053242 472.376770 -611.152466
v 183.638153 33.019943 -835.075439
v 156.473511 326.042969 -795.242920
v 155.867142 431.601074 -795.268250
v 84.231934 325.655151 -682.111572
v 83.625565 431.213257 -682.136841
v 108.499847 609.542786 -722.736023
v 64.835876 609.308289 -654.357727
v 398.219727 34.171875 -1171.113403
v 183.875214 -8.247520 -835.065552
v 137.435379 -8.521439 -864.721252
v 398.456787 -7.095596 -1171.103516
v 352.016998 -7.369507 -1200.759155
v 275.272736 -7.781494 -1080.576538
v 321.712555 -7.507584 -1050.920776
v 500.649750 193.724228 -1057.970215
v 466.714203 193.542038 -1004.826721
v 467.274170 96.082062 -1004.803162
v 501.209625 96.264236 -1057.946899
v 540.791382 193.961014 -1032.336548
v 506.855865 193.778824 -979.192993
v 507.415771 96.318848 -979.169556
v 541.351257 96.501007 -1032.313110
v 602.220886 194.323318 -993.108826
v 568.285339 194.141129 -939.965210
v 568.845215 96.681183 -939.941772
v 602.780701 96.863358 -993.085449
v 641.749939 194.556473 -967.866211
v 607.814392 194.374283 -914.722656
v 608.374390 96.914307 -914.699219
v 642.309814 97.096481 -967.842773
v 829.790344 36.488968 -1846.958008
v 783.350525 36.215073 -1876.613770
v 782.084290 256.618164 -1876.666748
v 828.524231 256.892090 -1847.010986
vn 0.8428 0.0050 0.5382
vn 0.5382 0.0029 -0.8428
vn -0.8428 -0.0050 -0.5382
vn -0.0057 1.0000 -0.0002
vn 0.0057 -1.0000 0.0002
vn -0.5382 -0.0029 0.8428
vn -0.3533 -0.7492 0.5602
vn -0.5358 -0.0871 0.8398
vn -0.8435 -0.0055 -0.5371
vn 0.8435 0.0055 0.5371
vn 0.5060 -0.3480 -0.7892
vn -0.5060 0.3480 0.7892
vn 0.8264 0.0046 -0.5630
vn -0.1631 -0.0007 0.9866
vn 0.4698 -0.8312 0.2972
vn 0.4602 0.8367 0.2968
usemtl Matériau.011
s off
f 45//1 46//1 4//1 3//1
f 49//2 50//2 8//2 7//2
f 47//3 48//3 6//3 5//3
f 26//1 25//1 9//1 10//1
f 72//4 47//4 5//4 51//4
f 96//5 46//5 2//5 74//5
f 10//1 9//1 13//1 14//1
f 84//6 9//6 29//6 90//6
f 89//5 26//5 10//5 75//5
f 27//3 28//3 11//3 12//3
f 76//7 14//7 18//7 77//7
f 75//5 10//5 14//5 76//5
f 12//3 11//3 15//3 16//3
f 53//4 12//4 16//4 55//4
f 86//8 77//8 18//8 17//8
f 16//9 15//9 19//9 20//9
f 16//3 20//3 24//3 22//3
f 14//10 13//10 17//10 18//10
f 59//11 22//11 42//11 69//11
f 86//6 17//6 23//6 88//6
f 17//1 13//1 21//1 23//1
f 55//2 16//2 22//2 59//2
f 5//3 6//3 28//3 27//3
f 74//5 2//5 26//5 89//5
f 51//4 5//4 27//4 62//4
f 2//1 1//1 25//1 26//1
f 32//3 30//3 34//3 36//3
f 62//2 27//2 32//2 64//2
f 27//3 12//3 30//3 32//3
f 9//1 25//1 31//1 29//1
f 66//4 36//4 34//4 65//4
f 90//5 29//5 37//5 92//5
f 64//2 32//2 36//2 66//2
f 29//1 31//1 35//1 33//1
f 92//6 37//6 39//6 93//6
f 29//1 33//1 39//1 37//1
f 34//3 30//3 38//3 40//3
f 65//4 34//4 40//4 68//4
f 69//4 42//4 44//4 70//4
f 23//1 21//1 41//1 43//1
f 88//12 23//12 43//12 95//12
f 22//3 24//3 44//3 42//3
f 82//5 4//5 46//5 96//5
f 49//4 7//4 47//4 72//4
f 7//3 8//3 48//3 47//3
f 46//13 45//13 103//13 106//13
f 73//4 49//4 72//4 81//4
f 8//5 50//5 71//5 48//5
f 24//12 60//12 70//12 44//12
f 94//4 69//4 70//4 95//4
f 91//4 65//4 68//4 93//4
f 38//6 67//6 68//6 40//6
f 79//2 64//2 66//2 80//2
f 30//5 63//5 67//5 38//5
f 80//4 66//4 65//4 91//4
f 78//2 62//2 64//2 79//2
f 83//4 51//4 62//4 78//4
f 6//5 52//5 61//5 28//5
f 85//2 55//2 59//2 87//2
f 20//6 57//6 60//6 24//6
f 87//11 59//11 69//11 94//11
f 20//8 19//8 58//8 57//8
f 84//4 53//4 55//4 85//4
f 11//5 54//5 56//5 15//5
f 15//7 56//7 58//7 19//7
f 28//5 61//5 54//5 11//5
f 12//6 53//6 63//6 30//6
f 48//5 71//5 52//5 6//5
f 81//4 72//4 51//4 83//4
f 50//3 49//3 121//3 120//3
f 3//2 4//2 82//2 73//2
f 45//4 81//4 83//4 1//4
f 9//4 84//4 85//4 13//4
f 21//11 87//11 94//11 41//11
f 13//2 85//2 87//2 21//2
f 1//4 83//4 78//4 25//4
f 25//2 78//2 79//2 31//2
f 35//4 80//4 91//4 33//4
f 31//2 79//2 80//2 35//2
f 33//4 91//4 93//4 39//4
f 41//4 94//4 95//4 43//4
f 3//4 73//4 81//4 45//4
f 50//5 82//5 96//5 71//5
f 60//12 88//12 95//12 70//12
f 67//6 92//6 93//6 68//6
f 63//5 90//5 92//5 67//5
f 52//3 71//3 100//3 101//3
f 57//6 86//6 88//6 60//6
f 57//8 58//8 77//8 86//8
f 54//5 75//5 76//5 56//5
f 56//7 76//7 77//7 58//7
f 61//5 89//5 75//5 54//5
f 53//6 84//6 90//6 63//6
f 89//6 61//6 98//6 97//6
f 101//5 102//5 97//5 98//5
f 100//5 99//5 102//5 101//5
f 61//3 52//3 101//3 98//3
f 74//1 89//1 97//1 102//1
f 71//2 96//2 99//2 100//2
f 96//1 74//1 102//1 99//1
f 106//2 103//2 107//2 110//2
f 1//14 2//14 105//14 104//14
f 2//15 46//15 106//15 105//15
f 45//16 1//16 104//16 103//16
f 109//5 110//5 114//5 113//5
f 104//6 105//6 109//6 108//6
f 105//5 106//5 110//5 109//5
f 103//4 104//4 108//4 107//4
f 113//5 114//5 118//5 117//5
f 107//4 108//4 112//4 111//4
f 110//2 107//2 111//2 114//2
f 108//6 109//6 113//6 112//6
f 116//1 117//1 118//1 115//1
f 111//4 112//4 116//4 115//4
f 114//2 111//2 115//2 118//2
f 122//2 119//2 120//2 121//2
f 82//5 50//5 120//5 119//5
f 73//1 82//1 119//1 122//1
f 49//4 73//4 122//4 121//4
o Cube.047_Cube.022
v -251.654877 443.466766 290.273254
v -250.240158 204.948822 251.482071
v -134.245239 478.050659 81.906960
v -132.830505 239.532715 43.115768
v -433.917114 411.408142 113.969276
v -433.191711 289.113312 94.079948
v -373.717896 429.140259 7.134041
v -372.992493 306.845428 -12.755287
v 5.463043 356.167847 -310.562775
v 4.722015 481.104736 -290.243744
v -105.911926 490.337860 -351.050934
v -105.170898 365.401001 -371.369965
v 95.295441 404.734436 -501.515564
v 94.750641 496.590851 -486.576599
v 13.410065 503.379272 -531.283386
v 13.954865 411.522858 -546.222351
v 149.731995 437.294098 -621.692017
v 149.333862 504.421539 -610.774780
v 89.891235 509.382416 -643.445923
v 90.289368 442.254974 -654.363159
v -248.817444 491.585083 40.893227
v -247.315536 238.368927 -0.288399
v -373.462250 454.870026 262.099731
v -371.960358 201.653854 220.918121
v -47.898560 490.371765 -324.847107
v -47.111847 357.735901 -346.418274
v 63.227142 505.514526 -524.732239
v 63.805573 407.997620 -540.591858
v 132.797638 512.857666 -650.195312
v 133.220306 441.593628 -661.785278
v 198.526367 450.497620 -701.097778
v 198.128235 517.625061 -690.180542
v 181.334259 527.885132 -740.825500
v 181.756927 456.621094 -752.415466
v 138.865570 457.002075 -743.268066
v 138.467438 524.129517 -732.350830
v 232.427734 460.084869 -758.811218
v 232.029541 527.212280 -747.893982
v 215.235535 537.472412 -798.538940
v 215.658264 466.208344 -810.128906
v 172.766937 466.589325 -800.981445
v 172.368805 533.716797 -790.064209
v 274.474304 476.118744 -780.377747
v 274.218079 519.325684 -773.350769
v 263.408569 525.929565 -805.948669
v 263.680664 480.060150 -813.408630
v 204.248535 474.900269 -863.989624
v 161.357208 475.281250 -854.842163
v 160.959076 542.408691 -843.924927
v 203.825867 546.164307 -852.399658
v 303.724060 485.816223 -794.510864
v 303.551331 514.945129 -789.773560
v 296.263855 519.397339 -811.750183
v 296.447327 488.473419 -816.779480
v 325.874817 495.545319 -819.092957
v 325.766846 513.754150 -816.131592
v 321.211304 516.537292 -829.869446
v 321.325989 497.206360 -833.013306
v 190.846283 491.240479 -889.590698
v 162.327240 491.493774 -883.508423
v 162.062531 536.127686 -876.249390
v 190.565186 538.624817 -881.884460
vn 0.8740 -0.0729 0.4804
vn -0.8050 0.0906 -0.5864
vn -0.8740 0.0729 -0.4804
vn -0.2365 -0.1573 0.9588
vn -0.4257 0.9003 -0.0904
vn 0.0596 -0.9896 -0.1307
vn -0.8337 0.0838 -0.5459
vn 0.1111 0.9924 0.0536
vn -0.2785 -0.8710 -0.4048
vn 0.9357 -0.0512 0.3490
vn -0.0488 -0.9532 -0.2984
vn 0.1024 0.9864 0.1282
vn -0.0243 -0.9634 -0.2668
vn 0.9091 -0.0616 0.4120
vn -0.0601 0.9895 0.1316
vn 0.9152 -0.0594 0.3985
vn -0.8253 0.0859 -0.5581
vn 0.1432 0.9810 0.1308
vn -0.0603 0.9980 0.0190
vn 0.8551 -0.0783 0.5125
vn 0.1140 -0.9750 -0.1908
vn -0.0359 0.9980 0.0522
vn 0.1548 -0.9702 -0.1865
vn 0.1226 -0.9569 -0.2634
vn -0.2893 0.9511 -0.1085
vn -0.4154 -0.8301 -0.3719
vn 0.0479 0.9807 0.1898
vn -0.9163 -0.0696 0.3944
vn -0.8652 0.0755 -0.4957
vn 0.0507 -0.9896 -0.1346
vn -0.8802 0.0711 -0.4692
vn 0.0433 0.9813 0.1877
vn 0.0550 -0.9896 -0.1328
vn -0.0484 -0.9808 -0.1888
vn -0.0526 0.9840 0.1699
vn 0.4929 -0.1368 0.8593
vn 0.0390 0.9818 0.1860
vn -0.0613 0.9898 0.1284
vn -0.0497 -0.9801 -0.1920
vn 0.8652 -0.0755 0.4957
vn -0.1411 0.1581 -0.9773
vn 0.2592 -0.9454 -0.1975
vn 0.2479 0.9622 0.1127
vn -0.1128 0.1588 -0.9808
vn -0.1235 0.9733 -0.1933
vn -0.0409 -0.9877 -0.1507
vn -0.9788 -0.0385 0.2011
vn 0.9788 0.0385 -0.2011
vn -0.5731 0.1282 -0.8094
vn 0.2147 0.9686 0.1251
vn 0.2261 -0.9558 -0.1879
vn 0.4679 -0.1392 0.8728
vn 0.9510 0.0551 -0.3042
vn 0.2047 0.9703 0.1287
vn 0.2159 -0.9587 -0.1849
vn 0.7586 -0.1002 0.6439
vn -0.2047 0.1559 -0.9663
vn -0.1126 -0.8633 -0.4920
vn 0.9022 0.0744 -0.4248
vn -0.9994 -0.0004 -0.0340
usemtl Matériau.012
s off
f 123//17 124//17 126//17 125//17
f 130//18 129//18 133//18 134//18
f 129//19 130//19 128//19 127//19
f 145//20 146//20 124//20 123//20
f 143//21 129//21 127//21 145//21
f 144//22 126//22 124//22 146//22
f 134//23 133//23 137//23 138//23
f 143//24 125//24 132//24 147//24
f 144//25 130//25 134//25 148//25
f 125//26 126//26 131//26 132//26
f 150//27 138//27 142//27 152//27
f 147//28 132//28 136//28 149//28
f 148//29 134//29 138//29 150//29
f 132//30 131//30 135//30 136//30
f 141//31 151//31 155//31 158//31
f 136//32 135//32 139//32 140//32
f 138//33 137//33 141//33 142//33
f 149//34 136//34 140//34 151//34
f 137//35 149//35 151//35 141//35
f 140//36 139//36 153//36 154//36
f 131//37 148//37 150//37 135//37
f 133//38 147//38 149//38 137//38
f 135//39 150//39 152//39 139//39
f 126//40 144//40 148//40 131//40
f 129//41 143//41 147//41 133//41
f 130//42 144//42 146//42 128//42
f 125//43 143//43 145//43 123//43
f 127//44 128//44 146//44 145//44
f 157//45 158//45 164//45 163//45
f 153//46 156//46 162//46 159//46
f 142//47 141//47 158//47 157//47
f 151//48 140//48 154//48 155//48
f 139//49 152//49 156//49 153//49
f 152//50 142//50 157//50 156//50
f 164//51 161//51 172//51 171//51
f 160//52 159//52 165//52 166//52
f 155//53 154//53 160//53 161//53
f 158//54 155//54 161//54 164//54
f 156//55 157//55 163//55 162//55
f 154//56 153//56 159//56 160//56
f 168//57 167//57 175//57 176//57
f 159//58 162//58 168//58 165//58
f 161//59 160//59 166//59 167//59
f 162//60 161//60 167//60 168//60
f 171//61 172//61 184//61 183//61
f 162//62 163//62 170//62 169//62
f 163//63 164//63 171//63 170//63
f 161//64 162//64 169//64 172//64
f 176//65 175//65 179//65 180//65
f 167//66 166//66 174//66 175//66
f 165//67 168//67 176//67 173//67
f 166//68 165//68 173//68 174//68
f 178//69 177//69 180//69 179//69
f 175//70 174//70 178//70 179//70
f 173//71 176//71 180//71 177//71
f 174//72 173//72 177//72 178//72
f 184//73 181//73 182//73 183//73
f 169//74 170//74 182//74 181//74
f 172//75 169//75 181//75 184//75
f 170//76 171//76 183//76 182//76
o Cube.048_Cube.024
v -529.599426 330.234589 105.327888
v -693.330750 215.782227 -30.651154
v -387.951965 357.882568 -88.499763
v -551.683289 243.430206 -224.478790
v -642.337402 520.116272 -23.378960
v -726.286987 461.433380 -93.099205
v -569.710754 534.292175 -122.759819
v -653.660400 475.609253 -192.480072
v -310.341156 365.414246 -515.496460
v -224.577911 425.364929 -444.269928
v -280.812317 535.903687 -469.598053
v -366.575562 475.952972 -540.824585
v -180.265961 412.611267 -682.062988
v -117.210876 456.688385 -629.695679
v -158.555664 537.958984 -648.317444
v -221.610748 493.881866 -700.684753
v -98.371460 444.898346 -785.584473
v -52.291626 477.109314 -747.315125
v -82.505981 536.500793 -760.923706
v -128.585754 504.289825 -799.193054
v -447.350464 464.823120 -93.757133
v -621.171387 343.317871 -238.115601
v -597.726685 435.471344 112.014824
v -771.547607 313.966095 -32.343651
v -246.771973 483.121826 -459.228485
v -337.820221 419.476746 -534.844177
v -124.885132 500.839630 -652.520935
v -191.825867 454.046356 -708.115295
v -50.057190 510.905273 -774.727356
v -98.976562 476.709351 -815.354980
v -41.663574 452.569763 -860.323059
v 4.416260 484.780731 -822.053711
v 9.848572 524.721191 -858.488220
v -39.070801 490.525269 -899.115845
v -69.171509 517.161255 -881.567017
v -23.091675 549.372192 -843.297668
v -1.499878 459.250977 -914.307373
v 44.579956 491.461975 -876.038025
v 50.012207 531.402405 -912.472473
v 1.092834 497.206482 -953.100098
v -29.007874 523.842407 -935.551270
v 17.071899 556.053406 -897.281921
v 42.133484 447.693787 -935.583435
v 71.792969 468.426514 -910.951233
v 75.289551 494.134338 -934.402466
v 43.802368 472.123962 -960.552612
v 9.587585 533.884827 -994.200439
v -20.513062 560.520813 -976.651672
v 25.566772 592.731750 -938.382324
v 58.506958 568.080750 -953.572876
v 71.278809 438.471985 -950.241211
v 91.274414 452.449402 -933.634827
v 93.631714 469.780914 -949.445068
v 72.403931 454.942139 -967.074768
v 97.611328 438.930664 -972.511536
v 110.110840 447.668152 -962.130676
v 111.584473 458.502258 -972.013855
v 98.314697 449.226379 -983.034424
v 17.079529 563.672241 -1006.795105
v -2.934814 581.382812 -995.126648
v 27.704285 602.800293 -969.680847
v 49.606689 586.409485 -979.781311
vn 0.4443 -0.8733 0.2001
vn -0.3659 0.8807 -0.3007
vn -0.4443 0.8733 -0.2001
vn -0.4472 -0.3420 0.8264
vn 0.3802 0.8354 0.3970
vn -0.6489 -0.5264 -0.5493
vn -0.3974 0.8795 -0.2617
vn 0.7792 0.4407 0.4456
vn -0.7394 -0.1000 -0.6657
vn 0.5253 -0.8471 0.0805
vn -0.6645 -0.3553 -0.6574
vn 0.7555 0.4107 0.5105
vn -0.6613 -0.3923 -0.6394
vn 0.4884 -0.8618 0.1372
vn 0.6483 0.5263 0.5502
vn 0.4966 -0.8589 0.1250
vn -0.3881 0.8801 -0.2735
vn 0.7784 0.3776 0.5016
vn 0.6749 0.5809 0.4550
vn 0.4219 -0.8770 0.2301
vn -0.5910 -0.5305 -0.6077
vn 0.6852 0.5489 0.4788
vn -0.5610 -0.5587 -0.6108
vn -0.5588 -0.4946 -0.6656
vn 0.5113 0.7742 0.3730
vn -0.8077 0.0050 -0.5896
vn 0.7036 0.4190 0.5739
vn -0.7355 0.4385 0.5165
vn -0.4337 0.8752 -0.2144
vn -0.6542 -0.5183 -0.5508
vn -0.4518 0.8717 -0.1897
vn 0.7013 0.4236 0.5734
vn -0.6516 -0.5222 -0.5502
vn -0.7042 -0.4192 -0.5731
vn 0.6424 0.5010 0.5799
vn 0.0738 -0.8050 0.5887
vn 0.6991 0.4277 0.5730
vn 0.6483 0.5288 0.5478
vn -0.7040 -0.4165 -0.5753
vn 0.4337 -0.8752 0.2144
vn 0.1985 0.6189 -0.7600
vn -0.4713 -0.6145 -0.6327
vn 0.8382 0.3009 0.4548
vn 0.2186 0.6008 -0.7689
vn 0.6538 0.7062 0.2718
vn -0.7111 -0.4451 -0.5442
vn -0.7195 0.5854 0.3737
vn 0.7195 -0.5854 -0.3737
vn -0.1428 0.8352 -0.5310
vn 0.8184 0.3226 0.4756
vn -0.5027 -0.6009 -0.6215
vn 0.0529 -0.7945 0.6050
vn 0.7318 -0.5110 -0.4510
vn 0.8122 0.3290 0.4817
vn -0.5122 -0.5965 -0.6179
vn 0.3174 -0.8784 0.3572
vn 0.1524 0.6581 -0.7374
vn -0.6069 -0.1751 -0.7752
vn 0.7351 -0.4124 -0.5381
vn -0.6628 0.7249 0.1879
usemtl Matériau.012
s off
f 185//77 186//77 188//77 187//77
f 192//78 191//78 195//78 196//78
f 191//79 192//79 190//79 189//79
f 207//80 208//80 186//80 185//80
f 205//81 191//81 189//81 207//81
f 206//82 188//82 186//82 208//82
f 196//83 195//83 199//83 200//83
f 205//84 187//84 194//84 209//84
f 206//85 192//85 196//85 210//85
f 187//86 188//86 193//86 194//86
f 212//87 200//87 204//87 214//87
f 209//88 194//88 198//88 211//88
f 210//89 196//89 200//89 212//89
f 194//90 193//90 197//90 198//90
f 203//91 213//91 217//91 220//91
f 198//92 197//92 201//92 202//92
f 200//93 199//93 203//93 204//93
f 211//94 198//94 202//94 213//94
f 199//95 211//95 213//95 203//95
f 202//96 201//96 215//96 216//96
f 193//97 210//97 212//97 197//97
f 195//98 209//98 211//98 199//98
f 197//99 212//99 214//99 201//99
f 188//100 206//100 210//100 193//100
f 191//101 205//101 209//101 195//101
f 192//102 206//102 208//102 190//102
f 187//103 205//103 207//103 185//103
f 189//104 190//104 208//104 207//104
f 219//105 220//105 226//105 225//105
f 215//106 218//106 224//106 221//106
f 204//107 203//107 220//107 219//107
f 213//108 202//108 216//108 217//108
f 201//109 214//109 218//109 215//109
f 214//110 204//110 219//110 218//110
f 226//111 223//111 234//111 233//111
f 222//112 221//112 227//112 228//112
f 217//113 216//113 222//113 223//113
f 220//114 217//114 223//114 226//114
f 218//115 219//115 225//115 224//115
f 216//116 215//116 221//116 222//116
f 230//117 229//117 237//117 238//117
f 221//118 224//118 230//118 227//118
f 223//119 222//119 228//119 229//119
f 224//120 223//120 229//120 230//120
f 233//121 234//121 246//121 245//121
f 224//122 225//122 232//122 231//122
f 225//123 226//123 233//123 232//123
f 223//124 224//124 231//124 234//124
f 238//125 237//125 241//125 242//125
f 229//126 228//126 236//126 237//126
f 227//127 230//127 238//127 235//127
f 228//128 227//128 235//128 236//128
f 240//129 239//129 242//129 241//129
f 237//130 236//130 240//130 241//130
f 235//131 238//131 242//131 239//131
f 236//132 235//132 239//132 240//132
f 246//133 243//133 244//133 245//133
f 231//134 232//134 244//134 243//134
f 234//135 231//135 243//135 246//135
f 232//136 233//136 245//136 244//136
