# Blender v2.91.2 OBJ File: 'camionnete02.blend'
# www.blender.org
mtllib arme_000224.mtl
o Cube.046_Cube.010
v 134.621704 159.618759 -1164.828125
v 100.519745 -57.723450 -1178.188721
v 235.729431 155.791672 -1360.638184
v 201.627411 -61.550552 -1373.999268
v -58.234100 196.044205 -1265.122070
v -92.336151 -21.298050 -1278.482910
v 42.873566 192.217087 -1460.932373
v 8.771576 -25.125168 -1474.293213
v -4.583557 164.887924 -895.236023
v -38.685562 -52.454269 -908.596863
v -231.541397 -16.028870 -1008.890747
v -197.439377 201.313339 -995.530029
v -67.583054 167.272598 -773.227783
v -101.685089 -50.069626 -786.588745
v -294.540955 -13.644241 -886.882629
v -260.438934 203.698013 -873.521912
v -104.800354 168.681351 -701.150940
v -123.240372 10.320786 -722.836365
v -316.096283 46.746201 -823.130371
v -297.656250 205.106766 -801.445007
v -33.586487 383.942932 -759.908386
v -226.442322 420.368347 -860.202393
v -70.803772 385.351624 -687.831421
v -263.659607 421.777100 -788.125549
v 17.135040 164.065842 -937.297241
v -16.966965 -53.276367 -950.658081
v -175.720810 200.491257 -1037.591309
v -209.822845 -16.850967 -1050.952148
v 6.673782 236.634232 -890.825500
v -186.182068 273.059692 -991.119568
v 28.392365 235.812149 -932.886658
v -164.463486 272.237549 -1033.180664
v 23.006378 340.726440 -884.426575
v -169.849487 377.151794 -984.720520
v 44.724884 339.904297 -926.487915
v -148.130890 376.329712 -1026.781860
v -54.901855 238.964981 -771.574951
v -247.757721 275.390381 -871.868958
v -38.569290 343.057190 -765.176025
v -231.425171 379.482544 -865.470032
v 11.075592 517.937500 -797.124207
v -181.780243 554.362854 -897.418274
v -26.141724 519.346191 -725.047302
v -218.997528 555.771606 -825.341370
v 200.035278 157.142776 -1291.511230
v 165.933258 -60.199478 -1304.872070
v 7.179428 193.568192 -1391.805176
v -26.922562 -23.774094 -1405.166016
v 139.301483 174.004379 -1410.785400
v 105.199493 -43.337860 -1424.146240
v 38.193832 177.831467 -1214.975098
v 4.091797 -39.510757 -1228.335693
v -101.011459 183.100632 -945.382996
v -135.113495 -34.241577 -958.743774
v -164.010986 185.485306 -823.374878
v -193.771698 -23.505386 -822.270569
v -201.228287 186.894028 -751.297913
v -208.306488 17.216034 -779.282166
v -130.014404 402.155640 -810.055359
v -167.231689 403.564392 -737.978516
v -113.394913 -35.063660 -1000.805115
v -79.292885 182.278549 -987.444336
v -89.754135 254.846970 -940.972595
v -68.035553 254.024796 -983.033752
v -73.421555 358.939148 -934.573547
v -51.702988 358.117004 -976.634888
v -151.329773 257.177734 -821.721985
v -134.997208 361.269897 -815.322937
v -85.352333 536.150208 -847.271240
v -122.569649 537.558899 -775.194275
v 69.505310 -41.986771 -1355.019043
v 103.607361 175.355484 -1341.658203
v 187.515503 164.897995 -1385.711670
v 52.305740 -48.617111 -1203.262451
v -86.899536 -43.347916 -933.670288
v -161.260910 -29.645828 -805.363464
v -175.795685 11.075607 -762.375061
v -31.078918 173.172165 -962.370728
v -19.821609 244.918442 -957.960266
v -3.489044 349.010681 -951.561340
v 151.821320 166.249130 -1316.584717
v 153.413483 -52.444229 -1399.072754
v 86.407776 168.725143 -1189.901611
v -52.797501 173.994278 -920.309570
v -115.797043 176.378952 -798.301331
v -153.014343 177.787674 -726.224426
v -81.800430 393.049316 -784.981873
v -119.017715 394.458008 -712.904968
v -65.180939 -44.169998 -975.731628
v -41.540176 245.740585 -915.898987
v -25.207611 349.832825 -909.500061
v -103.115814 248.071335 -796.648438
v -86.783249 352.163513 -790.249451
v -37.138336 527.043823 -822.197693
v -74.355675 528.452515 -750.120789
v 117.719269 -51.093094 -1329.945557
v -71.566071 -84.864380 -978.233215
v -119.780045 -75.758041 -1003.306702
v 111.334137 -91.787476 -1332.447266
v 63.120209 -82.681152 -1357.520752
v -2.293350 -80.205124 -1230.837646
v 45.920624 -89.311462 -1205.763916
v 253.579010 81.860184 -1217.625732
v 224.653778 82.955063 -1161.607666
v 209.574341 -13.151474 -1167.515625
v 238.499420 -14.246323 -1223.533936
v 295.254181 73.988876 -1195.952881
v 266.328949 75.083725 -1139.934692
v 251.249451 -21.022781 -1145.842651
v 280.174622 -22.117630 -1201.860840
v 359.030426 61.943253 -1162.786377
v 330.105255 63.038071 -1106.768188
v 315.025665 -33.068405 -1112.676147
v 343.950836 -34.163239 -1168.694336
v 400.069672 54.192001 -1141.444092
v 371.144440 55.286850 -1085.426025
v 356.064972 -40.819641 -1091.333984
v 384.990082 -41.914490 -1147.352051
v 485.571869 -65.016754 -2042.346436
v 437.357880 -55.910416 -2067.419922
v 471.459747 161.431839 -2054.059082
v 519.673828 152.325485 -2028.985596
v -49.387054 597.865601 -858.279419
v -138.240189 614.647583 -904.487244
v -83.680786 599.163635 -791.864441
v -172.533875 615.945557 -838.072205
v 5.172333 582.381653 -745.656799
v 39.466125 581.083679 -812.071533
v -4.960419 589.474731 -835.175476
v -39.254227 590.772583 -768.760559
vn 0.8750 -0.1653 0.4550
vn 0.4587 -0.0174 -0.8884
vn -0.8750 0.1653 -0.4550
vn 0.1547 0.9861 0.0606
vn -0.1547 -0.9861 -0.0606
vn -0.4587 0.0174 0.8884
vn -0.4204 -0.7254 0.5450
vn -0.2377 -0.9689 -0.0682
vn -0.5436 -0.0797 0.8356
vn -0.8757 0.1648 -0.4539
vn 0.8757 -0.1648 0.4539
vn 0.3753 -0.3621 -0.8532
vn 0.3730 -0.3692 -0.8512
vn -0.3753 0.3621 0.8532
vn 0.7660 -0.0810 -0.6377
vn -0.7634 0.5040 -0.4040
vn -0.4354 -0.1016 0.8945
vn -0.1337 -0.9909 -0.0126
vn -0.3465 0.4426 0.8271
vn -0.4761 -0.1237 0.8706
vn -0.1846 -0.9828 -0.0020
vn -0.0774 -0.0491 0.9958
vn 0.3538 -0.9136 0.2005
vn 0.6118 0.7312 0.3016
vn 0.8514 -0.2775 0.4451
usemtl Matériau.011
s off
f 45//1 46//1 4//1 3//1
f 49//2 50//2 8//2 7//2
f 47//3 48//3 6//3 5//3
f 26//1 25//1 9//1 10//1
f 72//4 47//4 5//4 51//4
f 96//5 46//5 2//5 74//5
f 10//1 9//1 13//1 14//1
f 84//6 9//6 29//6 90//6
f 89//5 26//5 10//5 75//5
f 27//3 28//3 11//3 12//3
f 76//7 14//7 18//7 77//7
f 75//8 10//8 14//8 76//8
f 12//3 11//3 15//3 16//3
f 53//4 12//4 16//4 55//4
f 86//9 77//9 18//9 17//9
f 16//10 15//10 19//10 20//10
f 16//3 20//3 24//3 22//3
f 14//11 13//11 17//11 18//11
f 59//12 22//12 42//12 69//12
f 86//6 17//6 23//6 88//6
f 17//1 13//1 21//1 23//1
f 55//2 16//2 22//2 59//2
f 5//3 6//3 28//3 27//3
f 74//5 2//5 26//5 89//5
f 51//4 5//4 27//4 62//4
f 2//1 1//1 25//1 26//1
f 32//3 30//3 34//3 36//3
f 62//2 27//2 32//2 64//2
f 27//3 12//3 30//3 32//3
f 9//1 25//1 31//1 29//1
f 66//4 36//4 34//4 65//4
f 90//5 29//5 37//5 92//5
f 64//2 32//2 36//2 66//2
f 29//1 31//1 35//1 33//1
f 92//6 37//6 39//6 93//6
f 29//1 33//1 39//1 37//1
f 34//3 30//3 38//3 40//3
f 65//4 34//4 40//4 68//4
f 69//13 42//13 124//13 123//13
f 23//1 21//1 41//1 43//1
f 88//14 23//14 43//14 95//14
f 22//3 24//3 44//3 42//3
f 82//5 4//5 46//5 96//5
f 49//4 7//4 47//4 72//4
f 7//3 8//3 48//3 47//3
f 46//15 45//15 103//15 106//15
f 73//4 49//4 72//4 81//4
f 8//5 50//5 71//5 48//5
f 24//14 60//14 70//14 44//14
f 42//16 44//16 126//16 124//16
f 91//4 65//4 68//4 93//4
f 38//6 67//6 68//6 40//6
f 79//2 64//2 66//2 80//2
f 30//5 63//5 67//5 38//5
f 80//4 66//4 65//4 91//4
f 78//2 62//2 64//2 79//2
f 83//4 51//4 62//4 78//4
f 6//5 52//5 61//5 28//5
f 85//2 55//2 59//2 87//2
f 20//6 57//6 60//6 24//6
f 87//12 59//12 69//12 94//12
f 20//17 19//17 58//17 57//17
f 84//4 53//4 55//4 85//4
f 11//18 54//18 56//18 15//18
f 15//7 56//7 58//7 19//7
f 28//5 61//5 54//5 11//5
f 12//6 53//6 63//6 30//6
f 48//5 71//5 52//5 6//5
f 81//4 72//4 51//4 83//4
f 50//3 49//3 121//3 120//3
f 3//2 4//2 82//2 73//2
f 45//4 81//4 83//4 1//4
f 9//4 84//4 85//4 13//4
f 21//12 87//12 94//12 41//12
f 13//2 85//2 87//2 21//2
f 1//4 83//4 78//4 25//4
f 25//2 78//2 79//2 31//2
f 35//4 80//4 91//4 33//4
f 31//2 79//2 80//2 35//2
f 33//4 91//4 93//4 39//4
f 70//19 95//19 130//19 125//19
f 3//4 73//4 81//4 45//4
f 50//5 82//5 96//5 71//5
f 60//14 88//14 95//14 70//14
f 67//6 92//6 93//6 68//6
f 63//5 90//5 92//5 67//5
f 52//3 71//3 100//3 101//3
f 57//6 86//6 88//6 60//6
f 57//20 58//20 77//20 86//20
f 54//21 75//21 76//21 56//21
f 56//7 76//7 77//7 58//7
f 61//5 89//5 75//5 54//5
f 53//6 84//6 90//6 63//6
f 89//6 61//6 98//6 97//6
f 101//5 102//5 97//5 98//5
f 100//5 99//5 102//5 101//5
f 61//3 52//3 101//3 98//3
f 74//1 89//1 97//1 102//1
f 71//2 96//2 99//2 100//2
f 96//1 74//1 102//1 99//1
f 106//2 103//2 107//2 110//2
f 1//22 2//22 105//22 104//22
f 2//23 46//23 106//23 105//23
f 45//24 1//24 104//24 103//24
f 109//5 110//5 114//5 113//5
f 104//6 105//6 109//6 108//6
f 105//5 106//5 110//5 109//5
f 103//4 104//4 108//4 107//4
f 113//5 114//5 118//5 117//5
f 107//4 108//4 112//4 111//4
f 110//2 107//2 111//2 114//2
f 108//6 109//6 113//6 112//6
f 116//1 117//1 118//1 115//1
f 111//4 112//4 116//4 115//4
f 114//2 111//2 115//2 118//2
f 122//2 119//2 120//2 121//2
f 82//5 50//5 120//5 119//5
f 73//1 82//1 119//1 122//1
f 49//4 73//4 122//4 121//4
f 123//4 124//4 126//4 125//4
f 129//4 123//4 125//4 130//4
f 128//4 129//4 130//4 127//4
f 95//19 43//19 127//19 130//19
f 94//13 69//13 123//13 129//13
f 43//25 41//25 128//25 127//25
f 44//19 70//19 125//19 126//19
f 41//13 94//13 129//13 128//13
o Cube.048_Cube.024
v -463.990173 599.243774 101.926712
v -587.250366 399.785980 160.416290
v -423.185303 509.346802 -118.643135
v -553.892700 306.334076 -65.811531
v -687.891479 631.375244 -17.094734
v -751.090454 529.107605 12.894501
v -666.969727 585.282532 -130.187073
v -730.737854 482.866241 -100.738121
v -502.962738 308.428162 -513.920593
v -402.904602 354.623047 -451.654999
v -444.331787 472.407837 -472.467621
v -544.390076 426.212952 -534.733154
v -383.762787 336.814148 -692.462219
v -310.197754 370.777710 -646.683228
v -340.656036 457.375671 -661.985046
v -414.221130 423.412170 -707.764160
v -308.207092 357.221863 -803.551086
v -254.446655 382.041962 -770.096436
v -276.705261 445.326691 -781.278809
v -330.465637 420.506592 -814.733459
v -524.488892 573.398865 -143.350586
v -660.677002 360.604919 -86.623070
v -567.713989 669.075256 90.712563
v -698.569824 457.326202 152.806488
v -417.637573 415.112457 -464.927948
v -523.861694 366.070862 -531.030518
v -313.395447 415.708191 -669.049255
v -391.493896 379.651733 -717.649414
v -249.856323 415.291687 -797.880920
v -306.929626 388.942078 -833.397278
v -258.349426 356.846741 -883.392029
v -204.589020 381.666840 -849.937256
v -196.799622 420.571777 -887.058044
v -253.872955 394.222168 -922.574219
v -277.900665 424.917389 -902.475525
v -224.140320 449.737488 -869.020813
v -222.952881 357.821228 -940.995544
v -169.192688 382.641357 -907.540771
v -161.403381 421.546173 -944.661438
v -218.476501 395.196655 -980.177917
v -242.504211 425.891785 -960.079041
v -188.743835 450.711884 -926.624329
v -183.728455 340.057922 -966.215149
v -149.125427 356.033508 -944.681763
v -144.111755 381.074829 -968.574646
v -180.847168 364.114777 -991.434998
v -208.597839 430.449066 -1022.206238
v -232.625610 461.144287 -1002.107361
v -178.865173 485.964386 -968.652771
v -151.524536 456.798706 -986.690002
v -157.792542 326.709778 -983.492004
v -134.464111 337.480042 -968.974915
v -131.084045 354.362244 -985.082947
v -155.850037 342.928284 -1000.494690
v -133.918091 323.395142 -1008.162048
v -119.335266 330.127808 -999.087097
v -117.222351 340.680969 -1009.156433
v -132.703918 333.533508 -1018.790466
v -198.016235 458.871826 -1035.705322
v -213.992706 479.281433 -1022.341248
v -178.246765 495.784668 -1000.096619
v -160.067688 476.392029 -1012.089905
v -298.533020 468.701111 452.182159
v -401.020630 270.065918 360.324005
v -122.417175 445.904968 292.817078
v -220.141754 250.280365 201.299072
v -402.627747 551.684937 233.988892
v -455.175995 449.839081 186.890656
v -301.807800 541.331848 155.355164
v -362.434357 439.694458 105.354103
v -75.572754 189.057556 -71.619331
v -61.996948 127.350098 35.082512
v 59.097107 154.150024 36.909073
v 48.320984 214.792267 -68.352013
v -17.659912 5.203003 -170.285889
v -9.689514 -43.208557 -91.204552
v 81.399902 -24.287720 -88.802361
v 73.429565 24.123718 -167.883820
v 20.758972 -110.524536 -230.260986
v 26.583618 -145.902954 -172.469391
v 93.150635 -132.075867 -170.713806
v 87.325989 -96.697449 -228.505524
v -181.847473 518.851379 234.852509
v -298.642303 313.763184 132.019318
v -381.864288 545.643677 398.362640
v -490.667542 334.768005 300.843872
v -1.409058 129.407410 37.942635
v -12.917908 199.311249 -76.246864
v 39.612488 -50.884827 -97.498253
v 31.150818 0.510132 -181.452789
v 65.104065 -162.611389 -184.114075
v 58.920532 -125.052856 -245.467041
v 34.808594 -189.269775 -279.882599
v 40.633179 -224.647949 -222.090881
v 86.609314 -248.327942 -238.754913
v 80.425720 -210.769409 -300.107910
v 107.685120 -181.342529 -282.374908
v 113.509888 -216.721191 -224.583282
v 46.215088 -245.594177 -315.512604
v 52.039612 -280.972595 -257.720886
v 98.015686 -304.652771 -274.384857
v 91.832214 -267.093994 -335.737762
v 119.091614 -237.667114 -318.004791
v 124.916321 -273.045532 -260.213074
v 30.261292 -291.298767 -327.623566
v 34.010376 -314.070251 -290.425629
v 63.603027 -329.312134 -301.151520
v 59.622986 -305.137268 -340.641632
v 135.384094 -294.633728 -356.986237
v 162.643677 -265.206848 -339.253296
v 168.468323 -300.585266 -281.461700
v 141.567749 -332.192383 -295.633362
v 18.360718 -321.729614 -336.660492
v 20.888123 -337.081543 -311.582611
v 40.838745 -347.357544 -318.813934
v 38.155579 -331.059204 -345.437042
v 18.346924 -353.659790 -349.701263
v 19.926880 -363.256470 -334.024811
v 32.398193 -369.679565 -338.545013
v 30.720825 -359.491699 -355.187439
v 164.422363 -310.651428 -355.482697
v 182.547668 -291.085144 -343.691742
v 186.420410 -314.608582 -305.265289
v 168.533813 -335.624512 -314.688202
vn 0.8387 -0.4407 0.3201
vn -0.5513 0.7059 -0.4446
vn -0.8426 0.4276 -0.3275
vn 0.0610 0.2460 0.9674
vn 0.0425 0.9277 -0.3710
vn -0.4668 -0.8414 0.2722
vn -0.2861 0.9301 -0.2303
vn 0.7462 0.6453 -0.1637
vn -0.8470 -0.4485 -0.2855
vn 0.7158 -0.6702 0.1962
vn -0.7691 -0.2494 -0.5884
vn 0.8529 0.2915 0.4331
vn -0.7697 -0.2865 -0.5705
vn 0.3665 -0.9253 0.0976
vn 0.7683 0.4214 0.4818
vn 0.3738 -0.9236 0.0846
vn -0.2779 0.9294 -0.2429
vn 0.8697 0.2554 0.4223
vn 0.7935 0.4721 0.3840
vn 0.3076 -0.9310 0.1964
vn -0.7179 -0.4338 -0.5445
vn 0.8011 0.4387 0.4071
vn -0.6929 -0.4661 -0.5501
vn -0.6291 -0.7648 -0.1388
vn 0.3662 0.9109 -0.1903
vn -0.8646 -0.4990 0.0594
vn 0.5601 0.7981 -0.2222
vn -0.6457 0.5533 0.5263
vn -0.3180 0.9309 -0.1797
vn -0.7729 -0.4127 -0.4819
vn -0.3340 0.9300 -0.1533
vn 0.8075 0.3119 0.5007
vn -0.7710 -0.4169 -0.4815
vn -0.8096 -0.3071 -0.5002
vn 0.7616 0.3972 0.5121
vn 0.0096 -0.8104 0.5858
vn 0.8059 0.3162 0.5005
vn 0.7684 0.4239 0.4794
vn -0.8092 -0.3045 -0.5024
vn 0.3180 -0.9309 0.1797
vn 0.2147 0.5871 -0.7805
vn -0.6149 -0.5344 -0.5800
vn 0.9129 0.1710 0.3707
vn 0.2310 0.5662 -0.7912
vn 0.7738 0.6001 0.2026
vn -0.8176 -0.3319 -0.4705
vn -0.5863 0.6832 0.4353
vn 0.5863 -0.6832 -0.4353
vn -0.0676 0.8502 -0.5221
vn 0.8985 0.1952 0.3932
vn -0.6427 -0.5163 -0.5659
vn -0.0079 -0.7970 0.6039
vn 0.6020 -0.6110 -0.5141
vn 0.8940 0.2024 0.3997
vn -0.6511 -0.5107 -0.5615
vn 0.2166 -0.9178 0.3329
vn 0.1772 0.6325 -0.7540
vn -0.6970 -0.0790 -0.7127
vn 0.6116 -0.5135 -0.6018
vn -0.5275 0.8139 0.2438
vn 0.5121 -0.5621 0.6494
vn 0.4617 0.7820 -0.4188
vn -0.4815 0.5810 -0.6562
vn -0.5864 -0.0706 0.8070
vn 0.1469 0.9887 0.0309
vn -0.3919 -0.8551 -0.3394
vn 0.9902 0.1386 -0.0187
vn 0.9547 0.1664 0.2466
vn -0.5222 -0.1215 -0.8442
vn -0.0346 -0.8190 0.5728
vn 0.0474 0.4573 -0.8881
vn -0.0056 -0.5989 0.8008
vn 0.0073 0.4663 -0.8846
vn -0.9620 -0.2688 -0.0478
vn 0.1454 -0.5058 0.8503
vn -0.9573 -0.2792 -0.0744
vn 0.9918 0.1256 -0.0230
vn -0.0112 -0.6184 0.7858
vn 0.2167 -0.5711 0.7918
vn -0.9851 -0.1720 -0.0060
vn -0.1476 0.4341 -0.8887
vn 0.2154 -0.5496 0.8072
vn -0.1805 0.4099 -0.8941
vn -0.7039 -0.5726 -0.4204
vn 0.7627 0.6141 -0.2030
vn -0.6171 -0.4494 -0.6460
vn 0.4711 0.7698 0.4306
vn -0.9043 0.4068 0.1292
vn 0.9819 0.1885 0.0164
vn -0.1364 0.5097 -0.8495
vn 0.9763 0.2140 0.0326
vn 0.0302 -0.5305 0.8471
vn -0.1408 0.5082 -0.8496
vn -0.0255 0.5326 -0.8460
vn 0.1151 -0.4863 0.8662
vn -0.9324 0.2586 0.2523
vn 0.0347 -0.5293 0.8478
vn 0.1484 -0.5070 0.8490
vn -0.0225 0.5312 -0.8469
vn -0.9819 -0.1885 -0.0164
vn 0.7399 -0.5380 -0.4039
vn -0.2492 0.3284 -0.9111
vn -0.0836 -0.6770 0.7312
vn 0.7205 -0.5567 -0.4134
vn 0.3915 -0.6328 0.6681
vn -0.0560 0.5529 -0.8314
vn 0.6182 0.6966 0.3641
vn -0.6182 -0.6966 -0.3641
vn 0.9615 -0.1803 -0.2073
vn -0.0646 -0.6552 0.7527
vn -0.2316 0.3591 -0.9041
vn -0.9220 0.2818 0.2654
vn -0.5303 -0.7459 -0.4031
vn -0.0590 -0.6485 0.7589
vn -0.2262 0.3684 -0.9017
vn -0.9962 -0.0325 0.0805
vn 0.7814 -0.4941 -0.3812
vn 0.2322 0.3352 -0.9131
vn -0.4150 -0.7940 -0.4442
vn 0.7860 0.5594 0.2632
usemtl Matériau.012
s off
f 131//26 132//26 134//26 133//26
f 138//27 137//27 141//27 142//27
f 137//28 138//28 136//28 135//28
f 153//29 154//29 132//29 131//29
f 151//30 137//30 135//30 153//30
f 152//31 134//31 132//31 154//31
f 142//32 141//32 145//32 146//32
f 151//33 133//33 140//33 155//33
f 152//34 138//34 142//34 156//34
f 133//35 134//35 139//35 140//35
f 158//36 146//36 150//36 160//36
f 155//37 140//37 144//37 157//37
f 156//38 142//38 146//38 158//38
f 140//39 139//39 143//39 144//39
f 149//40 159//40 163//40 166//40
f 144//41 143//41 147//41 148//41
f 146//42 145//42 149//42 150//42
f 157//43 144//43 148//43 159//43
f 145//44 157//44 159//44 149//44
f 148//45 147//45 161//45 162//45
f 139//46 156//46 158//46 143//46
f 141//47 155//47 157//47 145//47
f 143//48 158//48 160//48 147//48
f 134//49 152//49 156//49 139//49
f 137//50 151//50 155//50 141//50
f 138//51 152//51 154//51 136//51
f 133//52 151//52 153//52 131//52
f 135//53 136//53 154//53 153//53
f 165//54 166//54 172//54 171//54
f 161//55 164//55 170//55 167//55
f 150//56 149//56 166//56 165//56
f 159//57 148//57 162//57 163//57
f 147//58 160//58 164//58 161//58
f 160//59 150//59 165//59 164//59
f 172//60 169//60 180//60 179//60
f 168//61 167//61 173//61 174//61
f 163//62 162//62 168//62 169//62
f 166//63 163//63 169//63 172//63
f 164//64 165//64 171//64 170//64
f 162//65 161//65 167//65 168//65
f 176//66 175//66 183//66 184//66
f 167//67 170//67 176//67 173//67
f 169//68 168//68 174//68 175//68
f 170//69 169//69 175//69 176//69
f 179//70 180//70 192//70 191//70
f 170//71 171//71 178//71 177//71
f 171//72 172//72 179//72 178//72
f 169//73 170//73 177//73 180//73
f 184//74 183//74 187//74 188//74
f 175//75 174//75 182//75 183//75
f 173//76 176//76 184//76 181//76
f 174//77 173//77 181//77 182//77
f 186//78 185//78 188//78 187//78
f 183//79 182//79 186//79 187//79
f 181//80 184//80 188//80 185//80
f 182//81 181//81 185//81 186//81
f 192//82 189//82 190//82 191//82
f 177//83 178//83 190//83 189//83
f 180//84 177//84 189//84 192//84
f 178//85 179//85 191//85 190//85
f 193//86 194//86 196//86 195//86
f 200//87 199//87 203//87 204//87
f 199//88 200//88 198//88 197//88
f 215//89 216//89 194//89 193//89
f 213//90 199//90 197//90 215//90
f 214//91 196//91 194//91 216//91
f 204//92 203//92 207//92 208//92
f 213//93 195//93 202//93 217//93
f 214//94 200//94 204//94 218//94
f 195//95 196//95 201//95 202//95
f 220//96 208//96 212//96 222//96
f 217//97 202//97 206//97 219//97
f 218//98 204//98 208//98 220//98
f 202//99 201//99 205//99 206//99
f 211//100 221//100 225//100 228//100
f 206//101 205//101 209//101 210//101
f 208//102 207//102 211//102 212//102
f 219//103 206//103 210//103 221//103
f 207//104 219//104 221//104 211//104
f 210//105 209//105 223//105 224//105
f 201//106 218//106 220//106 205//106
f 203//107 217//107 219//107 207//107
f 205//108 220//108 222//108 209//108
f 196//109 214//109 218//109 201//109
f 199//110 213//110 217//110 203//110
f 200//111 214//111 216//111 198//111
f 195//112 213//112 215//112 193//112
f 197//113 198//113 216//113 215//113
f 227//114 228//114 234//114 233//114
f 223//115 226//115 232//115 229//115
f 212//116 211//116 228//116 227//116
f 221//117 210//117 224//117 225//117
f 209//118 222//118 226//118 223//118
f 222//119 212//119 227//119 226//119
f 234//120 231//120 242//120 241//120
f 230//121 229//121 235//121 236//121
f 225//122 224//122 230//122 231//122
f 228//123 225//123 231//123 234//123
f 226//124 227//124 233//124 232//124
f 224//125 223//125 229//125 230//125
f 238//126 237//126 245//126 246//126
f 229//127 232//127 238//127 235//127
f 231//128 230//128 236//128 237//128
f 232//129 231//129 237//129 238//129
f 241//130 242//130 254//130 253//130
f 232//131 233//131 240//131 239//131
f 233//132 234//132 241//132 240//132
f 231//133 232//133 239//133 242//133
f 246//134 245//134 249//134 250//134
f 237//135 236//135 244//135 245//135
f 235//136 238//136 246//136 243//136
f 236//137 235//137 243//137 244//137
f 248//138 247//138 250//138 249//138
f 245//139 244//139 248//139 249//139
f 243//140 246//140 250//140 247//140
f 244//141 243//141 247//141 248//141
f 254//142 251//142 252//142 253//142
f 239//143 240//143 252//143 251//143
f 242//144 239//144 251//144 254//144
f 240//145 241//145 253//145 252//145
