# Blender v2.91.2 OBJ File: 'camionnete02.blend'
# www.blender.org
mtllib arme_000047.mtl
o Cube.046_Cube.010
v 144.232910 264.364197 -1145.529053
v 91.509018 50.359718 -1144.353271
v 222.480713 243.959930 -1350.565674
v 169.756836 29.955437 -1349.390015
v -54.956863 312.993988 -1226.385010
v -107.680817 98.989494 -1225.209229
v 23.290939 292.589691 -1431.421631
v -29.432999 78.585197 -1430.246094
v 36.501190 292.456848 -863.234253
v -16.222710 78.452385 -862.058411
v -215.412476 127.082146 -942.914185
v -162.688568 341.086639 -944.090027
v -12.254440 305.170624 -735.477051
v -64.978371 91.166145 -734.301392
v -264.168182 139.795929 -815.157227
v -211.444275 353.800415 -816.333008
v -41.057121 312.681335 -660.004089
v -74.444069 155.719788 -671.697693
v -273.633942 204.349609 -752.553528
v -240.246979 361.311157 -740.859863
v 40.306442 518.513489 -736.649292
v -158.883377 567.143250 -817.505249
v 11.503784 526.024170 -661.176208
v -187.685989 574.653992 -742.032043
v 53.309341 288.073883 -907.277405
v 0.585434 74.069420 -906.101624
v -145.880463 336.703674 -988.133240
v -198.604385 122.699196 -986.957397
v 53.905762 363.101349 -863.622314
v -145.284027 411.731140 -944.478210
v 70.713898 358.718353 -907.665527
v -128.475922 407.348114 -988.521301
v 79.156937 465.594940 -864.185425
v -120.032837 514.224670 -945.041260
v 95.965027 461.211945 -908.228638
v -103.224716 509.841766 -989.084473
v 6.252052 375.527740 -738.752808
v -192.937775 424.157501 -819.608643
v 31.503220 478.021332 -739.315918
v -167.686584 526.651062 -820.171814
v 91.212585 646.583984 -785.030884
v -107.977234 695.213745 -865.886780
v 62.409897 654.094666 -709.557861
v -136.779846 702.724426 -790.413696
v 194.856781 251.163239 -1278.181519
v 142.132935 37.158775 -1277.005859
v -4.332985 299.793060 -1359.037354
v -57.056858 85.788536 -1357.861450
v 122.885803 268.274841 -1390.993774
v 70.161896 54.270317 -1389.817871
v 44.638031 288.679108 -1185.957031
v -8.085876 74.674599 -1184.781250
v -63.093681 316.771729 -903.662048
v -115.817596 102.767265 -902.486267
v -111.849350 329.485535 -775.905029
v -158.005325 124.013695 -761.242615
v -140.652023 336.996246 -700.432007
v -164.388062 167.542389 -719.028809
v -59.288452 542.828430 -777.077209
v -88.091118 550.339111 -701.604187
v -99.009468 98.384300 -946.529480
v -46.285561 312.388763 -947.705322
v -45.689133 387.416229 -904.050232
v -28.881004 383.033234 -948.093384
v -20.437920 489.909821 -904.613342
v -3.629837 485.526825 -948.656616
v -93.342857 399.842651 -779.180725
v -68.091660 502.336273 -779.743774
v -8.382317 670.898926 -825.458801
v -37.185013 678.409546 -749.985779
v 42.537994 61.473671 -1317.433716
v 95.261917 275.478149 -1318.609375
v 172.683289 256.117371 -1370.779541
v 41.711563 62.517159 -1164.567261
v -66.020142 90.609840 -882.272339
v -124.426773 115.815895 -747.612305
v -130.809509 159.344604 -705.398438
v 3.511887 300.231293 -927.491333
v 20.916435 370.875763 -927.879456
v 46.167603 473.369354 -928.442566
v 145.059372 263.320709 -1298.395508
v 119.959366 42.112877 -1369.604004
v 94.435455 276.521667 -1165.743164
v -13.296265 304.614288 -883.448181
v -62.051918 317.328094 -755.691101
v -90.854584 324.838806 -680.217957
v -9.490997 530.670898 -756.863281
v -38.293640 538.181641 -681.390137
v -49.212013 86.226860 -926.315613
v 4.108315 375.258789 -883.836304
v 29.359497 477.752411 -884.399414
v -43.545410 387.685211 -758.966797
v -18.294212 490.178864 -759.529785
v 41.415161 658.741394 -805.244812
v 12.612457 666.252075 -729.771729
v 92.335419 49.316231 -1297.219849
v -59.083839 46.157440 -926.095459
v -108.881302 58.314873 -946.309326
v 82.463577 9.246826 -1296.999634
v 32.666168 21.404243 -1317.213501
v -17.957726 34.605171 -1184.561035
v 31.839752 22.447746 -1164.347168
v 250.001801 174.658051 -1206.771118
v 227.616425 180.495361 -1148.113647
v 204.302582 85.864738 -1147.593506
v 226.687836 80.027458 -1206.251221
v 293.045685 164.149414 -1189.298706
v 270.660278 169.986725 -1130.641113
v 247.346436 75.356133 -1130.121094
v 269.731720 69.518822 -1188.778809
v 358.916534 148.067871 -1162.560181
v 336.531158 153.905182 -1103.902588
v 313.217224 59.274612 -1103.382690
v 335.602539 53.437317 -1162.040405
v 401.303589 137.719574 -1145.354370
v 378.918213 143.556915 -1086.696777
v 355.604340 48.926308 -1086.176880
v 377.989655 43.089005 -1144.834473
v 377.018677 -24.918869 -2043.188232
v 327.221252 -12.761429 -2063.402344
v 379.945007 201.243134 -2064.578125
v 429.742554 189.085632 -2044.364136
v 30.991455 728.822205 -843.293091
v -60.779892 751.227051 -880.545227
v 4.451340 735.742920 -773.748657
v -87.319962 758.147766 -811.000854
v 96.222656 713.338074 -736.496582
v 122.762833 706.417480 -806.040771
v 76.877197 717.619934 -824.666870
v 50.336975 724.540466 -755.122681
vn 0.9037 -0.2206 0.3668
vn 0.3550 -0.0926 -0.9303
vn -0.9037 0.2206 -0.3668
vn 0.2392 0.9710 -0.0053
vn -0.2392 -0.9710 0.0053
vn -0.3550 0.0926 0.9303
vn -0.4147 -0.6641 0.6221
vn -0.3209 -0.9471 0.0058
vn -0.4527 0.0010 0.8917
vn -0.9043 0.2203 -0.3656
vn 0.9043 -0.2203 0.3656
vn 0.2486 -0.4272 -0.8693
vn 0.2459 -0.4340 -0.8667
vn -0.2486 0.4272 0.8693
vn 0.6820 -0.1719 -0.7109
vn -0.7603 0.5504 -0.3449
vn -0.3408 -0.0276 0.9397
vn -0.2135 -0.9756 0.0510
vn -0.2165 0.5038 0.8363
vn -0.3856 -0.0471 0.9215
vn -0.2621 -0.9628 0.0665
vn 0.0293 -0.0017 0.9996
vn 0.2992 -0.9315 0.2069
vn 0.6982 0.6880 0.1980
vn 0.8703 -0.3307 0.3650
usemtl Matériau.011
s off
f 45//1 46//1 4//1 3//1
f 49//2 50//2 8//2 7//2
f 47//3 48//3 6//3 5//3
f 26//1 25//1 9//1 10//1
f 72//4 47//4 5//4 51//4
f 96//5 46//5 2//5 74//5
f 10//1 9//1 13//1 14//1
f 84//6 9//6 29//6 90//6
f 89//5 26//5 10//5 75//5
f 27//3 28//3 11//3 12//3
f 76//7 14//7 18//7 77//7
f 75//8 10//8 14//8 76//8
f 12//3 11//3 15//3 16//3
f 53//4 12//4 16//4 55//4
f 86//9 77//9 18//9 17//9
f 16//10 15//10 19//10 20//10
f 16//3 20//3 24//3 22//3
f 14//11 13//11 17//11 18//11
f 59//12 22//12 42//12 69//12
f 86//6 17//6 23//6 88//6
f 17//1 13//1 21//1 23//1
f 55//2 16//2 22//2 59//2
f 5//3 6//3 28//3 27//3
f 74//5 2//5 26//5 89//5
f 51//4 5//4 27//4 62//4
f 2//1 1//1 25//1 26//1
f 32//3 30//3 34//3 36//3
f 62//2 27//2 32//2 64//2
f 27//3 12//3 30//3 32//3
f 9//1 25//1 31//1 29//1
f 66//4 36//4 34//4 65//4
f 90//5 29//5 37//5 92//5
f 64//2 32//2 36//2 66//2
f 29//1 31//1 35//1 33//1
f 92//6 37//6 39//6 93//6
f 29//1 33//1 39//1 37//1
f 34//3 30//3 38//3 40//3
f 65//4 34//4 40//4 68//4
f 69//13 42//13 124//13 123//13
f 23//1 21//1 41//1 43//1
f 88//14 23//14 43//14 95//14
f 22//3 24//3 44//3 42//3
f 82//5 4//5 46//5 96//5
f 49//4 7//4 47//4 72//4
f 7//3 8//3 48//3 47//3
f 46//15 45//15 103//15 106//15
f 73//4 49//4 72//4 81//4
f 8//5 50//5 71//5 48//5
f 24//14 60//14 70//14 44//14
f 42//16 44//16 126//16 124//16
f 91//4 65//4 68//4 93//4
f 38//6 67//6 68//6 40//6
f 79//2 64//2 66//2 80//2
f 30//5 63//5 67//5 38//5
f 80//4 66//4 65//4 91//4
f 78//2 62//2 64//2 79//2
f 83//4 51//4 62//4 78//4
f 6//5 52//5 61//5 28//5
f 85//2 55//2 59//2 87//2
f 20//6 57//6 60//6 24//6
f 87//12 59//12 69//12 94//12
f 20//17 19//17 58//17 57//17
f 84//4 53//4 55//4 85//4
f 11//18 54//18 56//18 15//18
f 15//7 56//7 58//7 19//7
f 28//5 61//5 54//5 11//5
f 12//6 53//6 63//6 30//6
f 48//5 71//5 52//5 6//5
f 81//4 72//4 51//4 83//4
f 50//3 49//3 121//3 120//3
f 3//2 4//2 82//2 73//2
f 45//4 81//4 83//4 1//4
f 9//4 84//4 85//4 13//4
f 21//12 87//12 94//12 41//12
f 13//2 85//2 87//2 21//2
f 1//4 83//4 78//4 25//4
f 25//2 78//2 79//2 31//2
f 35//4 80//4 91//4 33//4
f 31//2 79//2 80//2 35//2
f 33//4 91//4 93//4 39//4
f 70//19 95//19 130//19 125//19
f 3//4 73//4 81//4 45//4
f 50//5 82//5 96//5 71//5
f 60//14 88//14 95//14 70//14
f 67//6 92//6 93//6 68//6
f 63//5 90//5 92//5 67//5
f 52//3 71//3 100//3 101//3
f 57//6 86//6 88//6 60//6
f 57//20 58//20 77//20 86//20
f 54//21 75//21 76//21 56//21
f 56//7 76//7 77//7 58//7
f 61//5 89//5 75//5 54//5
f 53//6 84//6 90//6 63//6
f 89//6 61//6 98//6 97//6
f 101//5 102//5 97//5 98//5
f 100//5 99//5 102//5 101//5
f 61//3 52//3 101//3 98//3
f 74//1 89//1 97//1 102//1
f 71//2 96//2 99//2 100//2
f 96//1 74//1 102//1 99//1
f 106//2 103//2 107//2 110//2
f 1//22 2//22 105//22 104//22
f 2//23 46//23 106//23 105//23
f 45//24 1//24 104//24 103//24
f 109//5 110//5 114//5 113//5
f 104//6 105//6 109//6 108//6
f 105//5 106//5 110//5 109//5
f 103//4 104//4 108//4 107//4
f 113//5 114//5 118//5 117//5
f 107//4 108//4 112//4 111//4
f 110//2 107//2 111//2 114//2
f 108//6 109//6 113//6 112//6
f 116//1 117//1 118//1 115//1
f 111//4 112//4 116//4 115//4
f 114//2 111//2 115//2 118//2
f 122//2 119//2 120//2 121//2
f 82//5 50//5 120//5 119//5
f 73//1 82//1 119//1 122//1
f 49//4 73//4 122//4 121//4
f 123//4 124//4 126//4 125//4
f 129//4 123//4 125//4 130//4
f 128//4 129//4 130//4 127//4
f 95//19 43//19 127//19 130//19
f 94//13 69//13 123//13 129//13
f 43//25 41//25 128//25 127//25
f 44//19 70//19 125//19 126//19
f 41//13 94//13 129//13 128//13
o Cube.048_Cube.024
v -563.039551 455.266235 181.660385
v -724.628357 340.242065 43.616707
v -423.929779 492.694458 -12.363205
v -586.175354 380.161530 -148.313660
v -682.248718 645.564575 59.570145
v -765.099792 586.588501 -11.208710
v -610.923218 664.755127 -39.911201
v -693.296387 606.528687 -110.279732
v -403.602600 493.385345 -438.588837
v -293.898010 533.373413 -389.716583
v -327.768158 653.317261 -411.827667
v -437.472717 613.329224 -460.699799
v -302.937653 504.209686 -630.007080
v -222.280396 533.609802 -594.075012
v -247.182465 621.795288 -610.331604
v -327.839752 592.395081 -646.263550
v -238.706726 513.559692 -749.392395
v -179.763489 535.044922 -723.133728
v -197.961609 599.489685 -735.013733
v -256.904968 578.004517 -761.272217
v -486.291687 598.052979 -13.946983
v -657.535156 479.062866 -158.240021
v -634.071045 558.261353 192.021576
v -805.617493 436.148987 45.471207
v -305.096436 594.308350 -404.335693
v -421.561340 551.856140 -456.219574
v -224.305115 577.701538 -618.179749
v -309.932800 546.489746 -656.325989
v -175.609619 566.623291 -752.868469
v -238.185303 543.814087 -780.744995
v -198.155640 505.683777 -833.974182
v -139.212402 527.168945 -807.715515
v -132.465210 563.724426 -847.343689
v -195.040771 540.915222 -875.220459
v -214.159027 574.340454 -854.227051
v -155.215698 595.825745 -827.968445
v -169.368164 501.289948 -894.998901
v -110.424744 522.775269 -868.740295
v -103.677734 559.330566 -908.368469
v -166.253357 536.521362 -936.245178
v -185.371643 569.946777 -915.251648
v -126.428467 591.431946 -888.992920
v -134.721130 479.233948 -923.340210
v -96.782043 493.063049 -906.438782
v -92.439148 516.592102 -931.945618
v -132.716187 501.910858 -949.888672
v -158.271484 569.062744 -980.787903
v -177.389771 602.488098 -959.794495
v -118.446594 623.973267 -933.535828
v -95.696106 591.871948 -952.911194
v -112.007202 463.030090 -942.597534
v -86.429626 472.353271 -931.203003
v -83.501892 488.215912 -948.399048
v -110.655457 478.318237 -960.495789
v -91.344604 456.689758 -969.475891
v -75.355835 462.517792 -962.353088
v -73.525513 472.433716 -973.102722
v -90.499573 466.246521 -980.664368
v -146.994324 595.906250 -996.734558
v -159.706360 618.131226 -982.775574
v -120.514221 632.416992 -965.315857
v -105.387085 611.072327 -978.198914
v -301.854340 468.400635 473.165649
v -295.664307 294.211304 305.781891
v -153.345032 597.986694 330.352692
v -155.263977 433.062317 166.477509
v -462.727997 553.471375 293.686005
v -459.554199 464.159668 207.863678
v -387.270996 624.285217 225.285583
v -387.567047 535.352417 136.438385
v -1.989807 714.773926 -74.280800
v 81.260437 740.088074 17.498589
v 10.135803 836.964294 55.127739
v -72.518921 812.340759 -35.178368
v 106.838562 861.688721 -190.315063
v 168.734070 879.509705 -123.140388
v 116.879456 951.243042 -94.391396
v 54.984070 933.421997 -161.566162
v 175.178406 955.609192 -260.845093
v 220.410706 968.632568 -211.754700
v 182.516052 1021.054321 -190.745178
v 137.283691 1008.031006 -239.835663
v -259.778198 642.331970 299.860199
v -264.037231 463.983551 119.526886
v -419.660889 501.499390 445.114166
v -413.089417 316.576019 267.415649
v 52.308167 791.943848 35.985832
v -37.065491 766.211304 -61.010948
v 154.091492 927.385864 -118.377235
v 88.381897 908.466736 -189.691437
v 216.362854 1011.749878 -216.560455
v 168.343079 997.924072 -268.675903
v 223.919250 1010.037598 -320.194733
v 269.151428 1023.060913 -271.104248
v 266.779053 1076.573730 -280.211639
v 218.759216 1062.747925 -332.327209
v 187.442566 1071.257080 -302.825897
v 232.674866 1084.280273 -253.735382
v 258.205627 1050.187256 -362.437897
v 303.437866 1063.210449 -313.347565
v 301.065491 1116.723511 -322.455017
v 253.045776 1102.897583 -374.570374
v 221.728943 1111.406616 -345.069000
v 266.961243 1124.429932 -295.978577
v 300.860779 1058.175049 -387.071991
v 329.974792 1066.557617 -355.474762
v 328.447693 1101.001587 -361.336823
v 297.539734 1092.102295 -394.881195
v 253.672546 1156.622559 -389.400787
v 222.355652 1165.131592 -359.899384
v 267.587952 1178.155029 -310.808929
v 301.692200 1170.448486 -337.285248
v 329.486145 1062.497070 -404.714020
v 349.114075 1068.148438 -383.412079
v 348.084778 1091.369629 -387.364288
v 327.247253 1085.370117 -409.978943
v 353.556091 1078.546631 -423.492706
v 365.825745 1082.079346 -410.176636
v 365.182068 1096.594971 -412.646942
v 352.156433 1092.844727 -426.783722
v 256.575134 1189.243652 -383.970154
v 235.752136 1194.901367 -364.354248
v 265.827698 1203.560547 -331.713287
v 288.504089 1198.436646 -349.317810
vn 0.4702 -0.8671 0.1644
vn -0.3178 0.9165 -0.2430
vn -0.4705 0.8662 -0.1685
vn -0.4301 -0.3791 0.8193
vn 0.3593 0.8340 0.4188
vn -0.6359 -0.5209 -0.5696
vn -0.2341 0.9410 -0.2445
vn 0.8397 0.4065 0.3600
vn -0.7899 -0.0760 -0.6085
vn 0.4780 -0.8781 0.0214
vn -0.8469 -0.2066 -0.4900
vn 0.9162 0.2351 0.3247
vn -0.8485 -0.2428 -0.4702
vn 0.2995 -0.9484 0.1038
vn 0.8482 0.3736 0.3756
vn 0.3054 -0.9480 0.0901
vn -0.2274 0.9390 -0.2578
vn 0.9287 0.1973 0.3140
vn 0.8664 0.4179 0.2733
vn 0.2516 -0.9451 0.2086
vn -0.8061 -0.3927 -0.4426
vn 0.8738 0.3850 0.2970
vn -0.7846 -0.4273 -0.4493
vn -0.6420 -0.4704 -0.6055
vn 0.5680 0.7536 0.3310
vn -0.8087 -0.0046 -0.5882
vn 0.6964 0.4214 0.5809
vn -0.7431 0.4018 0.5351
vn -0.2600 0.9466 -0.1908
vn -0.8520 -0.3645 -0.3757
vn -0.2730 0.9481 -0.1629
vn 0.8802 0.2620 0.3957
vn -0.8504 -0.3688 -0.3753
vn -0.8819 -0.2570 -0.3951
vn 0.8429 0.3513 0.4077
vn 0.0090 -0.7838 0.6210
vn 0.8790 0.2665 0.3955
vn 0.8482 0.3760 0.3731
vn -0.8816 -0.2545 -0.3975
vn 0.2600 -0.9466 0.1908
vn 0.1737 0.5344 -0.8272
vn -0.7161 -0.5031 -0.4838
vn 0.9590 0.1074 0.2624
vn 0.1870 0.5118 -0.8385
vn 0.8372 0.5397 0.0889
vn -0.8885 -0.2798 -0.3636
vn -0.4779 0.7479 0.4608
vn 0.4779 -0.7479 -0.4608
vn -0.0563 0.8309 -0.5536
vn 0.9492 0.1337 0.2850
vn -0.7407 -0.4822 -0.4678
vn -0.0052 -0.7682 0.6402
vn 0.4905 -0.6806 -0.5443
vn 0.9460 0.1415 0.2916
vn -0.7480 -0.4757 -0.4628
vn 0.1775 -0.9186 0.3531
vn 0.1432 0.5838 -0.7991
vn -0.7755 -0.0482 -0.6295
vn 0.4982 -0.5879 -0.6373
vn -0.4302 0.8651 0.2578
vn 0.8031 -0.4111 0.4312
vn -0.6177 0.7614 -0.1967
vn -0.8037 0.4098 -0.4314
vn -0.3443 -0.6569 0.6708
vn -0.3764 0.8313 0.4089
vn 0.0756 -0.7433 -0.6647
vn -0.5184 0.8159 0.2559
vn 0.3838 0.6249 0.6799
vn -0.3837 -0.1904 -0.9036
vn 0.8165 -0.5591 0.1440
vn -0.6740 -0.0405 -0.7377
vn 0.7457 0.1762 0.6426
vn -0.6650 -0.0805 -0.7425
vn 0.5970 -0.7223 -0.3491
vn 0.6291 0.2378 0.7401
vn 0.6008 -0.7112 -0.3649
vn -0.5088 0.8237 0.2502
vn 0.7706 0.1586 0.6173
vn 0.6408 0.3381 0.6893
vn 0.5381 -0.7931 -0.2854
vn -0.5768 -0.2024 -0.7914
vn 0.6467 0.3087 0.6975
vn -0.5442 -0.2200 -0.8096
vn -0.1093 -0.5338 -0.8385
vn -0.0602 0.8125 0.5798
vn -0.3690 -0.4454 -0.8158
vn 0.0547 0.6981 0.7139
vn -0.9553 -0.2219 0.1955
vn -0.5482 0.7815 0.2978
vn -0.6358 -0.2317 -0.7363
vn -0.5636 0.7628 0.3169
vn 0.6953 0.1475 0.7035
vn -0.6328 -0.2349 -0.7378
vn -0.6986 -0.1444 -0.7008
vn 0.6286 0.2001 0.7515
vn 0.2166 -0.9745 0.0590
vn 0.6926 0.1508 0.7054
vn 0.6285 0.2412 0.7394
vn -0.6989 -0.1410 -0.7012
vn 0.5482 -0.7815 -0.2978
vn 0.0594 0.9499 -0.3067
vn -0.4509 -0.2419 -0.8592
vn 0.8345 0.1282 0.5359
vn 0.0806 0.9425 -0.3243
vn 0.5896 0.5371 0.6032
vn -0.7000 -0.1824 -0.6905
vn -0.7467 0.1851 0.6389
vn 0.7467 -0.1851 -0.6389
vn -0.2833 0.9590 0.0066
vn 0.8142 0.1323 0.5653
vn -0.4826 -0.2411 -0.8420
vn 0.1961 -0.9774 0.0787
vn 0.7435 -0.0800 -0.6639
vn 0.8079 0.1335 0.5740
vn -0.4921 -0.2407 -0.8366
vn 0.4459 -0.8772 -0.1781
vn 0.0112 0.9639 -0.2661
vn -0.6479 0.1808 -0.7399
vn 0.7280 0.0491 -0.6838
vn -0.7227 0.4086 0.5575
usemtl Matériau.012
s off
f 131//26 132//26 134//26 133//26
f 138//27 137//27 141//27 142//27
f 137//28 138//28 136//28 135//28
f 153//29 154//29 132//29 131//29
f 151//30 137//30 135//30 153//30
f 152//31 134//31 132//31 154//31
f 142//32 141//32 145//32 146//32
f 151//33 133//33 140//33 155//33
f 152//34 138//34 142//34 156//34
f 133//35 134//35 139//35 140//35
f 158//36 146//36 150//36 160//36
f 155//37 140//37 144//37 157//37
f 156//38 142//38 146//38 158//38
f 140//39 139//39 143//39 144//39
f 149//40 159//40 163//40 166//40
f 144//41 143//41 147//41 148//41
f 146//42 145//42 149//42 150//42
f 157//43 144//43 148//43 159//43
f 145//44 157//44 159//44 149//44
f 148//45 147//45 161//45 162//45
f 139//46 156//46 158//46 143//46
f 141//47 155//47 157//47 145//47
f 143//48 158//48 160//48 147//48
f 134//49 152//49 156//49 139//49
f 137//50 151//50 155//50 141//50
f 138//51 152//51 154//51 136//51
f 133//52 151//52 153//52 131//52
f 135//53 136//53 154//53 153//53
f 165//54 166//54 172//54 171//54
f 161//55 164//55 170//55 167//55
f 150//56 149//56 166//56 165//56
f 159//57 148//57 162//57 163//57
f 147//58 160//58 164//58 161//58
f 160//59 150//59 165//59 164//59
f 172//60 169//60 180//60 179//60
f 168//61 167//61 173//61 174//61
f 163//62 162//62 168//62 169//62
f 166//63 163//63 169//63 172//63
f 164//64 165//64 171//64 170//64
f 162//65 161//65 167//65 168//65
f 176//66 175//66 183//66 184//66
f 167//67 170//67 176//67 173//67
f 169//68 168//68 174//68 175//68
f 170//69 169//69 175//69 176//69
f 179//70 180//70 192//70 191//70
f 170//71 171//71 178//71 177//71
f 171//72 172//72 179//72 178//72
f 169//73 170//73 177//73 180//73
f 184//74 183//74 187//74 188//74
f 175//75 174//75 182//75 183//75
f 173//76 176//76 184//76 181//76
f 174//77 173//77 181//77 182//77
f 186//78 185//78 188//78 187//78
f 183//79 182//79 186//79 187//79
f 181//80 184//80 188//80 185//80
f 182//81 181//81 185//81 186//81
f 192//82 189//82 190//82 191//82
f 177//83 178//83 190//83 189//83
f 180//84 177//84 189//84 192//84
f 178//85 179//85 191//85 190//85
f 193//86 194//86 196//86 195//86
f 200//87 199//87 203//87 204//87
f 199//88 200//88 198//88 197//88
f 215//89 216//89 194//89 193//89
f 213//90 199//90 197//90 215//90
f 214//91 196//91 194//91 216//91
f 204//92 203//92 207//92 208//92
f 213//93 195//93 202//93 217//93
f 214//94 200//94 204//94 218//94
f 195//95 196//95 201//95 202//95
f 220//96 208//96 212//96 222//96
f 217//97 202//97 206//97 219//97
f 218//98 204//98 208//98 220//98
f 202//99 201//99 205//99 206//99
f 211//100 221//100 225//100 228//100
f 206//101 205//101 209//101 210//101
f 208//102 207//102 211//102 212//102
f 219//103 206//103 210//103 221//103
f 207//104 219//104 221//104 211//104
f 210//105 209//105 223//105 224//105
f 201//106 218//106 220//106 205//106
f 203//107 217//107 219//107 207//107
f 205//108 220//108 222//108 209//108
f 196//109 214//109 218//109 201//109
f 199//110 213//110 217//110 203//110
f 200//111 214//111 216//111 198//111
f 195//112 213//112 215//112 193//112
f 197//113 198//113 216//113 215//113
f 227//114 228//114 234//114 233//114
f 223//115 226//115 232//115 229//115
f 212//116 211//116 228//116 227//116
f 221//117 210//117 224//117 225//117
f 209//118 222//118 226//118 223//118
f 222//119 212//119 227//119 226//119
f 234//120 231//120 242//120 241//120
f 230//121 229//121 235//121 236//121
f 225//122 224//122 230//122 231//122
f 228//123 225//123 231//123 234//123
f 226//124 227//124 233//124 232//124
f 224//125 223//125 229//125 230//125
f 238//126 237//126 245//126 246//126
f 229//127 232//127 238//127 235//127
f 231//128 230//128 236//128 237//128
f 232//129 231//129 237//129 238//129
f 241//130 242//130 254//130 253//130
f 232//131 233//131 240//131 239//131
f 233//132 234//132 241//132 240//132
f 231//133 232//133 239//133 242//133
f 246//134 245//134 249//134 250//134
f 237//135 236//135 244//135 245//135
f 235//136 238//136 246//136 243//136
f 236//137 235//137 243//137 244//137
f 248//138 247//138 250//138 249//138
f 245//139 244//139 248//139 249//139
f 243//140 246//140 250//140 247//140
f 244//141 243//141 247//141 248//141
f 254//142 251//142 252//142 253//142
f 239//143 240//143 252//143 251//143
f 242//144 239//144 251//144 254//144
f 240//145 241//145 253//145 252//145
