# Blender v2.91.2 OBJ File: 'camionnete02.blend'
# www.blender.org
mtllib arme_000101.mtl
o Cube.046_Cube.010
v 421.715729 832.074219 -881.750854
v 413.551514 634.502747 -979.105713
v 545.808289 908.436218 -1047.125977
v 537.644043 710.864868 -1144.481079
v 239.744568 893.012390 -990.158264
v 231.580353 695.440857 -1087.513184
v 363.837097 969.374329 -1155.533447
v 355.672913 771.802917 -1252.888428
v 250.864868 726.938782 -654.061890
v 242.700653 529.367310 -751.416748
v 60.729546 590.305359 -859.824097
v 68.893745 787.876831 -762.469238
v 173.543640 679.358093 -551.017578
v 165.379425 481.786560 -648.372559
v -16.591721 542.724609 -756.779846
v -8.427519 740.296082 -659.425049
v 127.865715 651.249451 -490.143768
v 129.698547 512.183716 -571.049255
v -52.272652 573.121765 -679.456604
v -54.105461 712.187622 -598.551025
v 277.520752 743.341797 -689.585510
v 269.356537 545.770325 -786.940430
v 95.549606 804.279968 -797.992920
v 87.385376 606.708435 -895.347778
v 501.999756 881.478088 -988.743591
v 493.835571 683.906677 -1086.098511
v 320.028595 942.416199 -1097.150879
v 311.864410 744.844666 -1194.505859
v 454.822693 938.905457 -1101.329834
v 446.658508 741.333862 -1198.684692
v 330.730164 862.543274 -935.954590
v 322.565979 664.971741 -1033.309448
v 159.879303 757.407776 -708.265503
v 151.715088 559.836304 -805.620361
v 82.558067 709.827087 -605.221252
v 75.991714 514.724854 -685.570740
v 36.880150 681.718567 -544.347412
v 51.931984 535.221741 -633.431458
v 178.370972 576.239380 -841.144104
v 186.535187 773.810852 -743.789185
v 402.849976 714.375671 -1140.302124
v 411.014160 911.947205 -1042.947144
v 500.315491 923.670837 -1074.227783
v 368.058716 649.737244 -1006.207581
v 197.207886 544.601807 -778.518616
v 106.667610 504.452148 -667.295898
v 82.607880 524.949036 -615.156616
v 232.027954 758.576294 -716.687378
v 456.506958 896.712708 -1015.845459
v 492.151306 726.099304 -1171.583008
v 376.222931 847.308838 -908.852783
v 205.372070 742.173279 -681.163818
v 128.050842 694.592590 -578.119385
v 82.372917 666.484070 -517.245544
v 223.863739 561.004883 -814.042297
v 448.342743 699.141174 -1113.200439
v 222.335144 524.012268 -832.270630
v 176.842316 539.246765 -859.372437
v 446.814087 662.148621 -1131.428711
v 401.321350 677.383118 -1158.530518
v 321.037323 627.979187 -1051.537842
v 366.530121 612.744690 -1024.436035
v 554.041687 786.906738 -940.356079
v 518.540894 765.060852 -893.044983
v 514.930908 677.696716 -936.094177
v 550.431580 699.542664 -983.405457
v 593.364685 773.738464 -916.929871
v 557.863892 751.892517 -869.618713
v 554.253784 664.528381 -912.668091
v 589.754578 686.374329 -959.979126
v 653.541504 753.586670 -881.080261
v 618.040649 731.740723 -833.769165
v 614.430481 644.376648 -876.818481
v 649.931274 666.222595 -924.129639
v 692.264404 740.619202 -858.011536
v 656.763611 718.773254 -810.700439
v 653.153625 631.409241 -853.749756
v 688.654297 653.255188 -901.060852
v 899.819092 976.963440 -1714.871704
v 854.326355 992.197937 -1741.973511
v 862.490356 1189.769531 -1644.618774
v 907.983337 1174.534912 -1617.516846
vn 0.8256 -0.2765 0.4919
vn 0.5630 0.3465 -0.7503
vn -0.8256 0.2765 -0.4919
vn 0.0370 0.8964 0.4417
vn -0.0370 -0.8964 -0.4417
vn -0.4018 -0.9001 0.1684
vn -0.1199 -0.8823 -0.4552
vn -0.6296 -0.4208 0.6531
vn -0.8264 0.2756 -0.4911
vn 0.8264 -0.2756 0.4911
vn 0.8425 0.2097 -0.4962
vn -0.5277 -0.4573 0.7158
vn -0.0217 -0.9179 -0.3962
vn -0.5625 -0.4710 0.6795
vn -0.0740 -0.9173 -0.3914
vn -0.5630 -0.3465 0.7503
vn -0.1927 -0.4273 0.8833
vn 0.4247 -0.9001 -0.0970
vn 0.4864 0.5950 0.6398
usemtl Matériau.011
s off
f 25//1 26//1 4//1 3//1
f 29//2 30//2 8//2 7//2
f 27//3 28//3 6//3 5//3
f 22//1 21//1 9//1 10//1
f 42//4 27//4 5//4 31//4
f 56//5 26//5 2//5 44//5
f 10//1 9//1 13//1 14//1
f 55//5 22//5 10//5 45//5
f 23//3 24//3 11//3 12//3
f 46//6 14//6 18//6 47//6
f 45//7 10//7 14//7 46//7
f 12//3 11//3 15//3 16//3
f 33//4 12//4 16//4 35//4
f 54//8 47//8 18//8 17//8
f 16//9 15//9 19//9 20//9
f 14//10 13//10 17//10 18//10
f 5//3 6//3 24//3 23//3
f 44//5 2//5 22//5 55//5
f 31//4 5//4 23//4 40//4
f 2//1 1//1 21//1 22//1
f 50//5 4//5 26//5 56//5
f 29//4 7//4 27//4 42//4
f 7//3 8//3 28//3 27//3
f 26//11 25//11 63//11 66//11
f 43//4 29//4 42//4 49//4
f 8//5 30//5 41//5 28//5
f 51//4 31//4 40//4 48//4
f 6//5 32//5 39//5 24//5
f 20//12 19//12 38//12 37//12
f 52//4 33//4 35//4 53//4
f 11//13 34//13 36//13 15//13
f 15//6 36//6 38//6 19//6
f 24//5 39//5 34//5 11//5
f 28//5 41//5 32//5 6//5
f 49//4 42//4 31//4 51//4
f 30//3 29//3 81//3 80//3
f 3//2 4//2 50//2 43//2
f 25//4 49//4 51//4 1//4
f 9//4 52//4 53//4 13//4
f 1//4 51//4 48//4 21//4
f 3//4 43//4 49//4 25//4
f 30//5 50//5 56//5 41//5
f 32//3 41//3 60//3 61//3
f 37//14 38//14 47//14 54//14
f 34//15 45//15 46//15 36//15
f 36//6 46//6 47//6 38//6
f 39//5 55//5 45//5 34//5
f 55//16 39//16 58//16 57//16
f 61//5 62//5 57//5 58//5
f 60//5 59//5 62//5 61//5
f 39//3 32//3 61//3 58//3
f 44//1 55//1 57//1 62//1
f 41//2 56//2 59//2 60//2
f 56//1 44//1 62//1 59//1
f 66//2 63//2 67//2 70//2
f 1//17 2//17 65//17 64//17
f 2//18 26//18 66//18 65//18
f 25//19 1//19 64//19 63//19
f 69//5 70//5 74//5 73//5
f 64//16 65//16 69//16 68//16
f 65//5 66//5 70//5 69//5
f 63//4 64//4 68//4 67//4
f 73//5 74//5 78//5 77//5
f 67//4 68//4 72//4 71//4
f 70//2 67//2 71//2 74//2
f 68//16 69//16 73//16 72//16
f 76//1 77//1 78//1 75//1
f 71//4 72//4 76//4 75//4
f 74//2 71//2 75//2 78//2
f 82//2 79//2 80//2 81//2
f 50//5 30//5 80//5 79//5
f 43//1 50//1 79//1 82//1
f 29//4 43//4 82//4 81//4
o Cube.048_Cube.024
v -565.172974 482.714600 181.437714
v -729.545471 345.499176 69.405708
v -421.850037 469.517090 -12.680534
v -586.521790 329.936340 -129.657440
v -674.405945 644.551086 16.490913
v -758.684265 574.196960 -40.951004
v -600.920227 637.784424 -83.038948
v -685.218872 566.659302 -140.394867
v -339.929382 485.333160 -467.808136
v -253.909485 509.957581 -378.271240
v -305.150177 624.330444 -360.498138
v -391.170105 599.705994 -450.034882
v -203.635071 585.905945 -602.717224
v -140.391357 604.010315 -536.887695
v -178.064636 688.099792 -523.820618
v -241.308380 669.995422 -589.650085
v -117.763367 651.096008 -685.434753
v -71.545654 664.326477 -637.327454
v -99.076843 725.777954 -627.778076
v -145.294495 712.547485 -675.885376
v -479.737183 573.748474 -39.658134
v -654.422852 426.078979 -161.258240
v -631.884583 587.999939 166.425034
v -806.386169 442.328888 47.489304
v -273.455170 570.039307 -370.503235
v -364.775909 543.897461 -465.557587
v -145.739929 653.813232 -541.392334
v -212.880981 634.593140 -611.278381
v -67.268250 705.829651 -649.888550
v -116.333984 691.783813 -700.960449
v -58.780945 683.807922 -751.096741
v -12.563293 697.038452 -702.989441
v -4.609192 747.484009 -721.542175
v -53.675049 733.438232 -772.613831
v -83.200623 752.827209 -746.617981
v -36.982971 766.057678 -698.510620
v -16.929749 708.526917 -798.102295
v 29.287964 721.757446 -749.994934
v 37.241821 772.202942 -768.547424
v -11.824036 758.157166 -819.619263
v -41.349609 777.546265 -793.623291
v 4.868103 790.776733 -745.516052
v 26.793640 703.870605 -821.696716
v 56.541870 712.386475 -790.732239
v 61.661499 744.855957 -802.673645
v 30.080078 735.815247 -835.546265
v -0.808472 807.207031 -843.691772
v -30.334045 826.595947 -817.695801
v 15.883545 839.826538 -769.588501
v 48.257324 821.252808 -792.619934
v 55.953674 699.539551 -838.438110
v 76.009216 705.280701 -817.562744
v 79.460571 727.170654 -825.613220
v 58.169312 721.075745 -847.775024
v 82.883545 707.164551 -858.593384
v 95.420349 710.753418 -845.543823
v 97.577942 724.437134 -850.576294
v 84.268555 720.627197 -864.429932
v 8.161682 839.167603 -843.997803
v -11.470276 852.059570 -826.712646
v 19.260498 860.856750 -794.725525
v 40.786194 848.506897 -810.039368
v -304.100220 609.755737 332.576996
v -303.051270 368.460938 345.740967
v -144.707947 595.045166 149.779831
v -149.887146 358.942596 159.065552
v -453.443237 539.494873 137.409424
v -452.905426 415.776337 144.158951
v -371.343597 537.935059 42.651825
v -374.373901 410.895966 48.445259
v 34.222900 333.164337 -175.630951
v 121.020447 415.414978 -133.901703
v 73.892151 504.346008 -209.725952
v -11.991882 423.486603 -251.319214
v 173.299316 292.880890 -336.647980
v 237.887085 352.137024 -305.371918
v 203.908936 418.544037 -361.019562
v 139.321228 359.287781 -392.295959
v 261.022949 270.417419 -437.968781
v 308.222717 313.721039 -415.112305
v 283.391907 362.250427 -455.778961
v 236.192078 318.946716 -478.635162
v -245.977356 604.878784 87.613098
v -254.951965 347.654388 97.210579
v -418.668182 613.923462 281.414398
v -417.554596 357.759247 295.389557
v 105.143066 459.769257 -173.697235
v 11.881714 374.206329 -218.858398
v 234.591736 381.653687 -345.956757
v 166.023865 318.745941 -379.160309
v 314.117126 331.380676 -454.507599
v 264.008789 285.408569 -478.772308
v 320.684082 240.399384 -504.300812
v 367.883850 283.703003 -481.444427
v 377.768494 302.597595 -531.419556
v 327.660095 256.625488 -555.684265
v 299.230225 289.973755 -553.921021
v 346.429993 333.277405 -531.064697
v 363.075989 219.778625 -552.774902
v 410.275818 263.082275 -529.918701
v 420.160583 281.976807 -579.893738
v 370.052063 236.004669 -604.158386
v 341.622131 269.352997 -602.395081
v 388.821838 312.656677 -579.538757
v 406.332947 197.421814 -563.689575
v 436.713440 225.294373 -548.978027
v 443.075745 237.455902 -581.144714
v 410.823181 207.865723 -596.762756
v 382.883118 249.718170 -656.637085
v 354.453308 283.066559 -654.873901
v 401.653015 326.370117 -632.017639
v 432.991638 295.690247 -632.372437
v 435.120544 180.948975 -570.707764
v 455.602234 199.739868 -560.789612
v 459.891663 207.938721 -582.475525
v 438.147766 187.989929 -593.004944
v 462.148987 169.838745 -589.027527
v 474.952209 181.585205 -582.827515
v 477.633606 186.710449 -596.383667
v 464.041199 174.240173 -602.965454
v 393.184753 270.172882 -680.669006
v 374.281189 292.346619 -679.496460
v 405.664978 321.139801 -664.299011
v 426.502380 300.740387 -664.534912
vn 0.4308 -0.8214 0.3738
vn -0.2913 0.9201 -0.2620
vn -0.4310 0.8197 -0.3773
vn -0.4575 -0.1653 0.8737
vn 0.3900 0.8925 0.2265
vn -0.6609 -0.6150 -0.4301
vn -0.3561 0.9305 0.0862
vn 0.7884 0.4237 0.4460
vn -0.7128 -0.0784 -0.6970
vn 0.5106 -0.8576 0.0621
vn -0.6594 -0.0500 -0.7501
vn 0.7564 0.1525 0.6361
vn -0.6581 -0.0911 -0.7474
vn 0.4511 -0.8712 -0.1938
vn 0.6528 0.2493 0.7154
vn 0.4597 -0.8643 -0.2039
vn -0.3464 0.9350 0.0757
vn 0.7783 0.1242 0.6155
vn 0.6840 0.3346 0.6482
vn 0.3815 -0.9173 -0.1143
vn -0.5940 -0.2341 -0.7696
vn 0.6924 0.2955 0.6583
vn -0.5651 -0.2604 -0.7828
vn -0.5694 -0.4694 -0.6749
vn 0.5063 0.7659 0.3963
vn -0.8070 -0.0945 -0.5830
vn 0.7053 0.5167 0.4853
vn -0.7328 0.5414 0.4121
vn -0.3938 0.9102 0.1280
vn -0.6583 -0.2414 -0.7130
vn -0.4127 0.8985 0.1494
vn 0.7011 0.1431 0.6986
vn -0.6559 -0.2453 -0.7139
vn -0.7038 -0.1391 -0.6967
vn 0.6450 0.2150 0.7333
vn 0.0268 -0.9701 0.2411
vn 0.6990 0.1471 0.6998
vn 0.6529 0.2525 0.7141
vn -0.7034 -0.1358 -0.6977
vn 0.3938 -0.9102 -0.1280
vn 0.2428 0.8502 -0.4671
vn -0.4770 -0.3078 -0.8232
vn 0.8364 0.0681 0.5439
vn 0.2625 0.8359 -0.4820
vn 0.6727 0.5205 0.5258
vn -0.7125 -0.1736 -0.6798
vn -0.7065 0.4333 0.5596
vn 0.7065 -0.4333 -0.5596
vn -0.0961 0.9795 -0.1770
vn 0.8168 0.0813 0.5711
vn -0.5082 -0.2980 -0.8080
vn 0.0058 -0.9656 0.2600
vn 0.7237 -0.3358 -0.6029
vn 0.8108 0.0851 0.5791
vn -0.5176 -0.2950 -0.8032
vn 0.2736 -0.9618 0.0017
vn 0.1976 0.8800 -0.4319
vn -0.5918 0.1585 -0.7904
vn 0.7332 -0.2120 -0.6461
vn -0.6394 0.6298 0.4410
vn 0.7640 0.0237 0.6448
vn -0.5210 0.3564 -0.7756
vn -0.7646 -0.0246 -0.6440
vn -0.4058 0.0480 0.9127
vn -0.3566 0.8675 -0.3468
vn 0.0519 -0.9943 0.0933
vn -0.3182 0.6834 -0.6570
vn 0.4429 0.8960 -0.0326
vn -0.3841 -0.8096 -0.4439
vn 0.7317 -0.2750 0.6236
vn -0.6682 -0.5747 -0.4725
vn 0.7686 0.5518 0.3238
vn -0.6686 -0.5997 -0.4397
vn 0.4159 -0.7269 0.5465
vn 0.6696 0.6797 0.2995
vn 0.4210 -0.7376 0.5280
vn -0.3061 0.6834 -0.6627
vn 0.7888 0.5179 0.3311
vn 0.7038 0.6840 0.1919
vn 0.3415 -0.7021 0.6249
vn -0.6108 -0.7126 -0.3451
vn 0.7038 0.6746 0.2226
vn -0.5832 -0.7408 -0.3333
vn -0.1456 -0.9841 -0.1021
vn 0.0196 0.9533 -0.3012
vn -0.3684 -0.8935 -0.2567
vn 0.0668 0.9978 -0.0040
vn -0.9730 0.0084 0.2306
vn -0.3540 0.7082 -0.6108
vn -0.6747 -0.6725 -0.3040
vn -0.3731 0.7173 -0.5885
vn 0.7133 0.5956 0.3695
vn -0.6725 -0.6758 -0.3015
vn -0.7158 -0.5914 -0.3714
vn 0.6606 0.6709 0.3368
vn -0.0116 -0.4568 0.8895
vn 0.7114 0.5992 0.3673
vn 0.6699 0.6808 0.2962
vn -0.7153 -0.5900 -0.3746
vn 0.3540 -0.7082 0.6108
vn 0.2737 0.1984 -0.9411
vn -0.4975 -0.8055 -0.3219
vn 0.8438 0.4251 0.3276
vn 0.2926 0.1770 -0.9397
vn 0.6991 0.7144 -0.0289
vn -0.7258 -0.6011 -0.3345
vn -0.6822 0.7308 0.0242
vn 0.6822 -0.7308 -0.0242
vn -0.0566 0.5136 -0.8562
vn 0.8250 0.4549 0.3352
vn -0.5281 -0.7865 -0.3201
vn -0.0322 -0.4389 0.8980
vn 0.7030 -0.7000 -0.1256
vn 0.8193 0.4637 0.3374
vn -0.5373 -0.7805 -0.3194
vn 0.2330 -0.6403 0.7320
vn 0.2302 0.2460 -0.9415
vn -0.5923 -0.4703 -0.6542
vn 0.7173 -0.6515 -0.2470
vn -0.6080 0.7683 -0.2000
usemtl Matériau.012
s off
f 83//20 84//20 86//20 85//20
f 90//21 89//21 93//21 94//21
f 89//22 90//22 88//22 87//22
f 105//23 106//23 84//23 83//23
f 103//24 89//24 87//24 105//24
f 104//25 86//25 84//25 106//25
f 94//26 93//26 97//26 98//26
f 103//27 85//27 92//27 107//27
f 104//28 90//28 94//28 108//28
f 85//29 86//29 91//29 92//29
f 110//30 98//30 102//30 112//30
f 107//31 92//31 96//31 109//31
f 108//32 94//32 98//32 110//32
f 92//33 91//33 95//33 96//33
f 101//34 111//34 115//34 118//34
f 96//35 95//35 99//35 100//35
f 98//36 97//36 101//36 102//36
f 109//37 96//37 100//37 111//37
f 97//38 109//38 111//38 101//38
f 100//39 99//39 113//39 114//39
f 91//40 108//40 110//40 95//40
f 93//41 107//41 109//41 97//41
f 95//42 110//42 112//42 99//42
f 86//43 104//43 108//43 91//43
f 89//44 103//44 107//44 93//44
f 90//45 104//45 106//45 88//45
f 85//46 103//46 105//46 83//46
f 87//47 88//47 106//47 105//47
f 117//48 118//48 124//48 123//48
f 113//49 116//49 122//49 119//49
f 102//50 101//50 118//50 117//50
f 111//51 100//51 114//51 115//51
f 99//52 112//52 116//52 113//52
f 112//53 102//53 117//53 116//53
f 124//54 121//54 132//54 131//54
f 120//55 119//55 125//55 126//55
f 115//56 114//56 120//56 121//56
f 118//57 115//57 121//57 124//57
f 116//58 117//58 123//58 122//58
f 114//59 113//59 119//59 120//59
f 128//60 127//60 135//60 136//60
f 119//61 122//61 128//61 125//61
f 121//62 120//62 126//62 127//62
f 122//63 121//63 127//63 128//63
f 131//64 132//64 144//64 143//64
f 122//65 123//65 130//65 129//65
f 123//66 124//66 131//66 130//66
f 121//67 122//67 129//67 132//67
f 136//68 135//68 139//68 140//68
f 127//69 126//69 134//69 135//69
f 125//70 128//70 136//70 133//70
f 126//71 125//71 133//71 134//71
f 138//72 137//72 140//72 139//72
f 135//73 134//73 138//73 139//73
f 133//74 136//74 140//74 137//74
f 134//75 133//75 137//75 138//75
f 144//76 141//76 142//76 143//76
f 129//77 130//77 142//77 141//77
f 132//78 129//78 141//78 144//78
f 130//79 131//79 143//79 142//79
f 145//80 146//80 148//80 147//80
f 152//81 151//81 155//81 156//81
f 151//82 152//82 150//82 149//82
f 167//83 168//83 146//83 145//83
f 165//84 151//84 149//84 167//84
f 166//85 148//85 146//85 168//85
f 156//86 155//86 159//86 160//86
f 165//87 147//87 154//87 169//87
f 166//88 152//88 156//88 170//88
f 147//89 148//89 153//89 154//89
f 172//90 160//90 164//90 174//90
f 169//91 154//91 158//91 171//91
f 170//92 156//92 160//92 172//92
f 154//93 153//93 157//93 158//93
f 163//94 173//94 177//94 180//94
f 158//95 157//95 161//95 162//95
f 160//96 159//96 163//96 164//96
f 171//97 158//97 162//97 173//97
f 159//98 171//98 173//98 163//98
f 162//99 161//99 175//99 176//99
f 153//100 170//100 172//100 157//100
f 155//101 169//101 171//101 159//101
f 157//102 172//102 174//102 161//102
f 148//103 166//103 170//103 153//103
f 151//104 165//104 169//104 155//104
f 152//105 166//105 168//105 150//105
f 147//106 165//106 167//106 145//106
f 149//107 150//107 168//107 167//107
f 179//108 180//108 186//108 185//108
f 175//109 178//109 184//109 181//109
f 164//110 163//110 180//110 179//110
f 173//111 162//111 176//111 177//111
f 161//112 174//112 178//112 175//112
f 174//113 164//113 179//113 178//113
f 186//114 183//114 194//114 193//114
f 182//115 181//115 187//115 188//115
f 177//116 176//116 182//116 183//116
f 180//117 177//117 183//117 186//117
f 178//118 179//118 185//118 184//118
f 176//119 175//119 181//119 182//119
f 190//120 189//120 197//120 198//120
f 181//121 184//121 190//121 187//121
f 183//122 182//122 188//122 189//122
f 184//123 183//123 189//123 190//123
f 193//124 194//124 206//124 205//124
f 184//125 185//125 192//125 191//125
f 185//126 186//126 193//126 192//126
f 183//127 184//127 191//127 194//127
f 198//128 197//128 201//128 202//128
f 189//129 188//129 196//129 197//129
f 187//130 190//130 198//130 195//130
f 188//131 187//131 195//131 196//131
f 200//132 199//132 202//132 201//132
f 197//133 196//133 200//133 201//133
f 195//134 198//134 202//134 199//134
f 196//135 195//135 199//135 200//135
f 206//136 203//136 204//136 205//136
f 191//137 192//137 204//137 203//137
f 194//138 191//138 203//138 206//138
f 192//139 193//139 205//139 204//139
