# Blender v2.91.2 OBJ File: 'camionnete02.blend'
# www.blender.org
mtllib arme_000146.mtl
o Cube.046_Cube.010
v 111.384750 48.992920 -1215.420166
v 111.807266 -168.276337 -1178.366211
v 169.634720 13.366364 -1424.983643
v 170.057236 -203.902924 -1387.929688
v -101.184921 38.798386 -1272.772705
v -100.762436 -178.470871 -1235.718750
v -42.934906 3.171844 -1482.335938
v -42.512428 -214.097458 -1445.282227
v 31.186035 98.043594 -926.893127
v 31.608551 -119.225616 -889.839050
v -180.961075 -129.420135 -947.191528
v -181.383575 87.849091 -984.245605
v -5.109070 120.242310 -796.315491
v -4.686607 -97.026947 -759.261536
v -217.256302 -107.221481 -816.613953
v -217.678818 110.047791 -853.668030
v -26.550674 133.356262 -719.176270
v -22.498009 -26.871346 -705.067993
v -235.067734 -37.065842 -762.420532
v -239.120346 123.161743 -776.528625
v -5.530312 336.839905 -833.255005
v -218.099991 326.645294 -890.607605
v -26.971855 349.953796 -756.115662
v -239.541519 339.759338 -813.468262
v 43.698540 90.390808 -971.908630
v 44.121040 -126.878433 -934.854553
v -168.871140 80.196274 -1029.261230
v -168.448654 -137.072968 -992.207092
v 31.046572 169.765808 -939.124878
v -181.523102 159.571320 -996.477417
v 43.559078 162.113007 -984.140381
v -169.010590 151.918488 -1041.492920
v 30.844257 273.823059 -956.871338
v -181.725372 263.628479 -1014.223694
v 43.356689 266.170166 -1001.886902
v -169.212921 255.975708 -1059.239258
v -4.428253 191.462769 -811.498596
v -216.997940 181.268250 -868.851135
v -4.630600 295.520020 -829.244995
v -217.200272 285.325500 -886.597473
v 7.745201 463.398743 -904.954956
v -204.824448 453.204163 -962.307495
v -13.696388 476.512695 -827.815613
v -226.266006 466.318176 -885.168091
v 149.070679 25.943634 -1351.001221
v 149.493164 -191.325638 -1313.947266
v -63.498993 15.749115 -1408.353760
v -63.076431 -201.520157 -1371.299561
v 63.349892 8.269089 -1453.659912
v 63.772404 -209.000183 -1416.605957
v 5.099922 43.895645 -1244.096436
v 5.522438 -173.373596 -1207.042480
v -75.098755 92.946335 -955.569336
v -74.676254 -124.322876 -918.515198
v -111.393921 115.145050 -824.991760
v -105.217834 -90.284431 -776.777466
v -132.835495 128.259033 -747.852417
v -117.228149 -42.978317 -740.234680
v -111.815155 331.742645 -861.931274
v -133.256699 344.856598 -784.791992
v -62.163803 -131.975693 -963.530823
v -62.586304 85.293518 -1000.584900
v -75.238251 164.668579 -967.801208
v -62.725769 157.015717 -1012.816589
v -75.440552 268.725800 -985.547546
v -62.928131 261.072937 -1030.563110
v -110.713104 186.365540 -840.174866
v -110.915421 290.422760 -857.921143
v -98.539658 458.301514 -933.631165
v -119.981216 471.415405 -856.491882
v 43.208324 -196.422882 -1342.623291
v 42.785843 20.846405 -1379.677490
v 116.492371 10.817749 -1439.321533
v 58.664852 -170.824966 -1192.704346
v -21.533867 -121.774261 -904.177124
v -69.383789 -88.565895 -767.109253
v -81.394058 -41.259766 -730.566406
v -9.443855 87.842148 -986.246704
v -9.583351 159.564331 -998.478577
v -9.785713 263.621552 -1016.224915
v 95.928253 23.394989 -1365.339355
v 116.914825 -206.451553 -1402.267822
v 58.242279 46.444260 -1229.758545
v -21.956383 95.494965 -941.231262
v -58.251518 117.693695 -810.653625
v -79.693085 130.807617 -733.514282
v -58.672722 334.291229 -847.593201
v -80.114258 347.405212 -770.453918
v -9.021393 -129.427063 -949.192688
v -22.095825 167.217194 -953.463013
v -22.298172 271.274414 -971.209412
v -57.570686 188.914124 -825.836731
v -57.773003 292.971375 -843.583069
v -45.397202 460.850098 -919.293030
v -66.838776 473.963989 -842.153748
v 96.350708 -193.874268 -1328.285400
v -8.942276 -170.107758 -942.254822
v -62.084671 -172.656403 -956.592896
v 96.429810 -234.554993 -1321.347656
v 43.287453 -237.103607 -1335.685547
v 5.601540 -214.054321 -1200.104736
v 58.743984 -211.505676 -1185.766602
v 228.287262 -23.927780 -1278.675293
v 211.622894 -13.735641 -1218.722656
v 211.809891 -109.809860 -1202.337646
v 228.474075 -120.002045 -1262.290527
v 274.222473 -21.724838 -1266.281738
v 257.558167 -11.532654 -1206.329102
v 257.745026 -107.606888 -1189.944336
v 274.409302 -117.799057 -1249.896973
v 344.517883 -18.353546 -1247.315918
v 327.853577 -8.161377 -1187.363281
v 328.040466 -104.235580 -1170.978271
v 344.704651 -114.427780 -1230.930908
v 389.752197 -16.184174 -1235.111572
v 373.087830 -5.992050 -1175.158936
v 373.274780 -102.066238 -1158.773926
v 389.938965 -112.258408 -1218.726562
v 308.277466 -323.491211 -2090.722900
v 255.135071 -326.039856 -2105.061035
v 254.712433 -108.770599 -2142.114990
v 307.854980 -106.221954 -2127.776855
v -76.321121 519.797852 -964.420837
v -174.256866 515.100952 -990.844482
v -96.078339 531.881714 -893.341003
v -194.014053 527.184753 -919.764648
v 1.857353 536.578491 -866.917542
v 21.614670 524.494812 -937.997131
v -27.353188 522.146484 -951.208923
v -47.110497 534.230042 -880.129211
vn 0.9644 0.0463 0.2602
vn 0.2643 -0.1616 -0.9508
vn -0.9644 -0.0463 -0.2602
vn -0.0019 0.9858 -0.1681
vn 0.0019 -0.9858 0.1681
vn -0.2643 0.1616 0.9508
vn -0.1742 -0.6293 0.7574
vn -0.0825 -0.9807 0.1771
vn -0.3408 0.0458 0.9390
vn -0.9648 -0.0465 -0.2589
vn 0.9648 0.0465 0.2589
vn 0.2482 -0.4971 -0.8315
vn 0.2475 -0.5038 -0.8276
vn -0.2482 0.4971 0.8315
vn 0.6225 -0.1304 -0.7717
vn -0.9025 0.3061 -0.3029
vn -0.2208 0.0507 0.9740
vn 0.0328 -0.9772 0.2098
vn -0.2391 0.5725 0.7843
vn -0.2613 0.0191 0.9651
vn -0.0155 -0.9730 0.2303
vn 0.1366 0.1668 0.9765
vn 0.5338 -0.7966 0.2838
vn 0.5306 0.8476 0.0034
vn 0.9583 -0.0673 0.2778
usemtl Matériau.011
s off
f 45//1 46//1 4//1 3//1
f 49//2 50//2 8//2 7//2
f 47//3 48//3 6//3 5//3
f 26//1 25//1 9//1 10//1
f 72//4 47//4 5//4 51//4
f 96//5 46//5 2//5 74//5
f 10//1 9//1 13//1 14//1
f 84//6 9//6 29//6 90//6
f 89//5 26//5 10//5 75//5
f 27//3 28//3 11//3 12//3
f 76//7 14//7 18//7 77//7
f 75//8 10//8 14//8 76//8
f 12//3 11//3 15//3 16//3
f 53//4 12//4 16//4 55//4
f 86//9 77//9 18//9 17//9
f 16//10 15//10 19//10 20//10
f 16//3 20//3 24//3 22//3
f 14//11 13//11 17//11 18//11
f 59//12 22//12 42//12 69//12
f 86//6 17//6 23//6 88//6
f 17//1 13//1 21//1 23//1
f 55//2 16//2 22//2 59//2
f 5//3 6//3 28//3 27//3
f 74//5 2//5 26//5 89//5
f 51//4 5//4 27//4 62//4
f 2//1 1//1 25//1 26//1
f 32//3 30//3 34//3 36//3
f 62//2 27//2 32//2 64//2
f 27//3 12//3 30//3 32//3
f 9//1 25//1 31//1 29//1
f 66//4 36//4 34//4 65//4
f 90//5 29//5 37//5 92//5
f 64//2 32//2 36//2 66//2
f 29//1 31//1 35//1 33//1
f 92//6 37//6 39//6 93//6
f 29//1 33//1 39//1 37//1
f 34//3 30//3 38//3 40//3
f 65//4 34//4 40//4 68//4
f 69//13 42//13 124//13 123//13
f 23//1 21//1 41//1 43//1
f 88//14 23//14 43//14 95//14
f 22//3 24//3 44//3 42//3
f 82//5 4//5 46//5 96//5
f 49//4 7//4 47//4 72//4
f 7//3 8//3 48//3 47//3
f 46//15 45//15 103//15 106//15
f 73//4 49//4 72//4 81//4
f 8//5 50//5 71//5 48//5
f 24//14 60//14 70//14 44//14
f 42//16 44//16 126//16 124//16
f 91//4 65//4 68//4 93//4
f 38//6 67//6 68//6 40//6
f 79//2 64//2 66//2 80//2
f 30//5 63//5 67//5 38//5
f 80//4 66//4 65//4 91//4
f 78//2 62//2 64//2 79//2
f 83//4 51//4 62//4 78//4
f 6//5 52//5 61//5 28//5
f 85//2 55//2 59//2 87//2
f 20//6 57//6 60//6 24//6
f 87//12 59//12 69//12 94//12
f 20//17 19//17 58//17 57//17
f 84//4 53//4 55//4 85//4
f 11//18 54//18 56//18 15//18
f 15//7 56//7 58//7 19//7
f 28//5 61//5 54//5 11//5
f 12//6 53//6 63//6 30//6
f 48//5 71//5 52//5 6//5
f 81//4 72//4 51//4 83//4
f 50//3 49//3 121//3 120//3
f 3//2 4//2 82//2 73//2
f 45//4 81//4 83//4 1//4
f 9//4 84//4 85//4 13//4
f 21//12 87//12 94//12 41//12
f 13//2 85//2 87//2 21//2
f 1//4 83//4 78//4 25//4
f 25//2 78//2 79//2 31//2
f 35//4 80//4 91//4 33//4
f 31//2 79//2 80//2 35//2
f 33//4 91//4 93//4 39//4
f 70//19 95//19 130//19 125//19
f 3//4 73//4 81//4 45//4
f 50//5 82//5 96//5 71//5
f 60//14 88//14 95//14 70//14
f 67//6 92//6 93//6 68//6
f 63//5 90//5 92//5 67//5
f 52//3 71//3 100//3 101//3
f 57//6 86//6 88//6 60//6
f 57//20 58//20 77//20 86//20
f 54//21 75//21 76//21 56//21
f 56//7 76//7 77//7 58//7
f 61//5 89//5 75//5 54//5
f 53//6 84//6 90//6 63//6
f 89//6 61//6 98//6 97//6
f 101//5 102//5 97//5 98//5
f 100//5 99//5 102//5 101//5
f 61//3 52//3 101//3 98//3
f 74//1 89//1 97//1 102//1
f 71//2 96//2 99//2 100//2
f 96//1 74//1 102//1 99//1
f 106//2 103//2 107//2 110//2
f 1//22 2//22 105//22 104//22
f 2//23 46//23 106//23 105//23
f 45//24 1//24 104//24 103//24
f 109//5 110//5 114//5 113//5
f 104//6 105//6 109//6 108//6
f 105//5 106//5 110//5 109//5
f 103//4 104//4 108//4 107//4
f 113//5 114//5 118//5 117//5
f 107//4 108//4 112//4 111//4
f 110//2 107//2 111//2 114//2
f 108//6 109//6 113//6 112//6
f 116//1 117//1 118//1 115//1
f 111//4 112//4 116//4 115//4
f 114//2 111//2 115//2 118//2
f 122//2 119//2 120//2 121//2
f 82//5 50//5 120//5 119//5
f 73//1 82//1 119//1 122//1
f 49//4 73//4 122//4 121//4
f 123//4 124//4 126//4 125//4
f 129//4 123//4 125//4 130//4
f 128//4 129//4 130//4 127//4
f 95//19 43//19 127//19 130//19
f 94//13 69//13 123//13 129//13
f 43//25 41//25 128//25 127//25
f 44//19 70//19 125//19 126//19
f 41//13 94//13 129//13 128//13
o Cube.048_Cube.024
v -522.489990 538.430725 132.751160
v -687.282654 364.596069 100.776146
v -398.533752 455.931580 -57.580910
v -562.276733 279.700775 -90.192238
v -658.438232 622.173462 -66.837303
v -742.932007 533.043579 -83.231773
v -594.882385 579.873779 -164.425934
v -678.941223 490.475342 -180.097931
v -395.701599 263.219299 -474.266266
v -294.125610 333.763916 -447.277252
v -357.877319 438.094147 -480.042450
v -459.453308 367.549500 -507.031464
v -321.816772 264.775269 -677.810242
v -247.135864 316.641296 -657.967285
v -294.007568 393.347229 -682.056946
v -368.688477 341.481140 -701.899963
v -274.960632 268.564331 -805.309326
v -220.384705 306.467346 -790.808411
v -254.637939 362.523071 -808.412903
v -309.213806 324.620087 -822.913696
v -465.776550 540.529785 -114.766426
v -639.544067 354.608582 -147.630524
v -597.470642 628.237732 87.216309
v -772.418335 443.690765 53.270912
v -321.080780 387.541107 -468.100983
v -428.916077 312.649292 -496.753082
v -262.235260 354.699951 -687.169434
v -341.518250 299.637787 -708.235229
v -227.137634 332.937744 -824.754028
v -285.076691 292.699005 -840.148621
v -243.078156 256.210083 -893.009949
v -188.502441 294.113098 -878.508850
v -195.010986 324.338379 -923.188660
v -252.949829 284.099670 -938.583374
v -277.124634 315.443512 -919.698486
v -222.548828 353.346466 -905.197571
v -220.836823 248.432617 -956.388611
v -166.260986 286.335663 -941.887634
v -172.769714 316.560883 -986.567322
v -230.708679 276.322205 -1001.961975
v -254.883270 307.666016 -983.077209
v -200.307526 345.568970 -968.576233
v -185.189270 230.253754 -986.203064
v -150.061340 254.650177 -976.869324
v -154.250549 274.104889 -1005.627747
v -191.543243 248.204956 -1015.536560
v -235.596466 302.161804 -1051.105957
v -259.771179 333.505615 -1032.221069
v -205.195404 371.408569 -1017.720276
v -177.657654 342.400452 -1035.711304
v -161.475281 216.548340 -1006.181824
v -137.792969 232.995728 -999.889221
v -140.617249 246.111572 -1019.277283
v -165.758972 228.650635 -1025.957397
v -142.922302 210.643677 -1034.651123
v -128.118225 220.925140 -1030.717407
v -129.883728 229.123901 -1042.837280
v -145.600037 218.208832 -1047.013184
v -232.854828 327.881195 -1071.915405
v -248.928986 348.722107 -1059.358521
v -212.640747 373.924255 -1049.716675
v -194.330566 354.636414 -1061.679321
v -268.667358 532.044434 436.005524
v -322.085175 310.773102 354.869202
v -152.044189 580.976379 229.721252
v -203.639648 357.492157 149.477997
v -456.575897 574.687012 268.070099
v -483.964722 461.235046 226.469238
v -388.779419 603.425720 160.469818
v -423.234436 485.189209 121.159416
v -111.257141 332.721741 -108.584465
v -24.062317 334.039490 -18.694191
v 48.989624 407.308075 -88.303474
v -35.280334 406.101990 -178.337341
v -2.033264 166.727356 -194.651428
v 62.038940 164.513672 -127.191002
v 117.898926 218.464478 -178.474915
v 53.826599 220.678192 -245.935425
v 68.960266 63.957825 -248.169952
v 115.783386 62.340149 -198.870728
v 156.605164 101.766724 -236.348328
v 109.781982 103.384460 -285.647491
v -249.033264 629.534790 197.201416
v -316.162659 389.708984 113.523254
v -385.197571 575.017700 417.707550
v -441.907166 340.110901 331.571350
v 18.841736 361.749695 -51.192299
v -73.675354 364.946198 -148.601654
v 99.621582 176.059082 -158.551361
v 31.600891 178.409424 -230.168854
v 148.695374 59.879761 -227.319519
v 98.986938 61.597229 -279.656769
v 105.130432 -14.706055 -285.104919
v 151.953552 -16.323792 -235.805634
v 192.312500 -23.443726 -271.480347
v 142.603943 -21.726196 -323.817505
v 152.254456 20.777039 -328.697632
v 199.077576 19.159363 -279.398468
v 131.929443 -70.468994 -312.387787
v 178.752686 -72.086792 -263.088562
v 219.111633 -79.206726 -298.763275
v 169.403015 -77.489258 -351.100311
v 179.053345 -34.985779 -355.980499
v 225.876587 -36.603455 -306.681305
v 141.955872 -119.030579 -306.787323
v 172.093933 -120.071960 -275.055664
v 198.071045 -124.654724 -298.017914
v 166.075867 -123.549194 -331.704987
v 208.455750 -90.664551 -388.623993
v 218.106018 -48.161072 -393.504120
v 264.929199 -49.778870 -344.204834
v 258.164185 -92.382019 -336.286713
v 147.332397 -152.304993 -303.147339
v 167.650574 -153.006836 -281.754669
v 185.163757 -156.096741 -297.235291
v 163.593445 -155.351135 -319.946228
v 160.608337 -183.565369 -309.157471
v 173.309448 -184.004333 -295.784546
v 184.257080 -185.935364 -305.461548
v 170.773193 -185.469543 -319.658447
v 239.199951 -90.921326 -401.144348
v 245.616699 -62.660217 -404.389221
v 276.749878 -63.735840 -371.609344
v 272.251831 -92.063232 -366.344543
vn 0.5220 -0.6014 0.6048
vn -0.4435 0.6727 -0.5922
vn -0.5220 0.6014 -0.6048
vn -0.3562 0.1686 0.9191
vn 0.3473 0.9215 -0.1735
vn -0.6520 -0.7523 -0.0950
vn -0.4773 0.8139 -0.3312
vn 0.8105 0.5831 0.0558
vn -0.8160 -0.3939 -0.4231
vn 0.5985 -0.7255 0.3396
vn -0.8207 -0.4646 -0.3324
vn 0.8629 0.4805 0.1566
vn -0.8115 -0.4966 -0.3080
vn 0.5270 -0.8295 0.1849
vn 0.7697 0.6070 0.1979
vn 0.5311 -0.8300 0.1705
vn -0.4719 0.8114 -0.3450
vn 0.8829 0.4452 0.1494
vn 0.7656 0.6371 0.0891
vn 0.4913 -0.8199 0.2941
vn -0.7318 -0.6270 -0.2671
vn 0.7832 0.6109 0.1157
vn -0.7035 -0.6566 -0.2721
vn -0.6295 -0.7301 -0.2657
vn 0.5009 0.8605 -0.0933
vn -0.8462 -0.3431 -0.4077
vn 0.7127 0.6808 0.1691
vn -0.7240 0.6383 0.2614
vn -0.4979 0.8223 -0.2756
vn -0.7756 -0.5991 -0.1987
vn -0.5078 0.8255 -0.2466
vn 0.8295 0.5100 0.2278
vn -0.7729 -0.6029 -0.1979
vn -0.8322 -0.5055 -0.2277
vn 0.7733 0.5896 0.2331
vn 0.2632 -0.6513 0.7118
vn 0.8272 0.5140 0.2272
vn 0.7689 0.6089 0.1951
vn -0.8327 -0.5034 -0.2305
vn 0.4979 -0.8223 0.2756
vn -0.0494 0.4182 -0.9070
vn -0.6229 -0.7201 -0.3057
vn 0.9280 0.3570 0.1064
vn -0.0324 0.3975 -0.9170
vn 0.6884 0.7179 -0.1037
vn -0.8297 -0.5238 -0.1929
vn -0.5902 0.6888 0.4209
vn 0.5902 -0.6888 -0.4209
vn -0.3127 0.6971 -0.6451
vn 0.9147 0.3838 0.1264
vn -0.6499 -0.7028 -0.2893
vn 0.2478 -0.6363 0.7306
vn 0.5773 -0.6348 -0.5135
vn 0.9105 0.3917 0.1324
vn -0.6580 -0.6973 -0.2842
vn 0.4291 -0.7872 0.4429
vn -0.0877 0.4636 -0.8817
vn -0.8048 -0.3192 -0.5005
vn 0.5525 -0.5591 -0.6182
vn -0.5942 0.7792 0.1995
vn 0.8471 -0.3463 0.4032
vn -0.1369 0.7872 -0.6013
vn -0.8338 0.3667 -0.4126
vn -0.2488 -0.2799 0.9272
vn -0.2186 0.9696 0.1101
vn -0.1688 -0.9356 -0.3101
vn 0.6269 0.5122 -0.5871
vn 0.8046 0.5932 0.0265
vn -0.6401 -0.4252 -0.6399
vn 0.4383 -0.6986 0.5655
vn -0.5711 0.0119 -0.8208
vn 0.6567 -0.1416 0.7407
vn -0.6039 0.0041 -0.7971
vn -0.5588 -0.6348 0.5336
vn 0.7236 0.0127 0.6901
vn -0.5600 -0.6526 0.5104
vn 0.6353 0.5018 -0.5870
vn 0.6502 -0.1701 0.7405
vn 0.7899 -0.0351 0.6122
vn -0.6151 -0.5487 0.5662
vn -0.6989 -0.0877 -0.7099
vn 0.7776 -0.0206 0.6284
vn -0.7108 -0.1231 -0.6925
vn -0.4871 -0.8416 -0.2334
vn 0.3627 0.8801 -0.3065
vn -0.5995 -0.6331 -0.4897
vn 0.2857 0.8788 0.3822
vn -0.9010 0.0600 0.4297
vn 0.6074 0.5651 -0.5583
vn -0.7190 -0.0055 -0.6950
vn 0.5949 0.5902 -0.5456
vn 0.6534 -0.0561 0.7550
vn -0.7214 -0.0086 -0.6925
vn -0.6507 0.0602 -0.7569
vn 0.6966 0.0227 0.7171
vn -0.7244 -0.0705 0.6857
vn 0.6561 -0.0530 0.7528
vn 0.7260 0.0125 0.6876
vn -0.6481 0.0600 -0.7592
vn -0.6074 -0.5651 0.5583
vn 0.6871 -0.2986 -0.6624
vn -0.7202 -0.2244 -0.6565
vn 0.6104 -0.2704 0.7445
vn 0.6802 -0.3257 -0.6567
vn 0.9038 -0.0649 0.4229
vn -0.6787 0.0702 -0.7310
vn 0.1874 0.9714 -0.1461
vn -0.1874 -0.9714 0.1461
vn 0.7179 0.1647 -0.6764
vn 0.6199 -0.2359 0.7484
vn -0.7224 -0.1895 -0.6650
vn -0.7251 -0.0420 0.6873
vn -0.1107 -0.9912 0.0726
vn 0.6226 -0.2255 0.7493
vn -0.7229 -0.1787 -0.6674
vn -0.6698 -0.4042 0.6229
vn 0.7007 -0.2364 -0.6732
vn -0.3772 -0.0207 -0.9259
vn -0.0157 -0.9997 -0.0179
vn 0.3483 0.8875 -0.3017
usemtl Matériau.012
s off
f 131//26 132//26 134//26 133//26
f 138//27 137//27 141//27 142//27
f 137//28 138//28 136//28 135//28
f 153//29 154//29 132//29 131//29
f 151//30 137//30 135//30 153//30
f 152//31 134//31 132//31 154//31
f 142//32 141//32 145//32 146//32
f 151//33 133//33 140//33 155//33
f 152//34 138//34 142//34 156//34
f 133//35 134//35 139//35 140//35
f 158//36 146//36 150//36 160//36
f 155//37 140//37 144//37 157//37
f 156//38 142//38 146//38 158//38
f 140//39 139//39 143//39 144//39
f 149//40 159//40 163//40 166//40
f 144//41 143//41 147//41 148//41
f 146//42 145//42 149//42 150//42
f 157//43 144//43 148//43 159//43
f 145//44 157//44 159//44 149//44
f 148//45 147//45 161//45 162//45
f 139//46 156//46 158//46 143//46
f 141//47 155//47 157//47 145//47
f 143//48 158//48 160//48 147//48
f 134//49 152//49 156//49 139//49
f 137//50 151//50 155//50 141//50
f 138//51 152//51 154//51 136//51
f 133//52 151//52 153//52 131//52
f 135//53 136//53 154//53 153//53
f 165//54 166//54 172//54 171//54
f 161//55 164//55 170//55 167//55
f 150//56 149//56 166//56 165//56
f 159//57 148//57 162//57 163//57
f 147//58 160//58 164//58 161//58
f 160//59 150//59 165//59 164//59
f 172//60 169//60 180//60 179//60
f 168//61 167//61 173//61 174//61
f 163//62 162//62 168//62 169//62
f 166//63 163//63 169//63 172//63
f 164//64 165//64 171//64 170//64
f 162//65 161//65 167//65 168//65
f 176//66 175//66 183//66 184//66
f 167//67 170//67 176//67 173//67
f 169//68 168//68 174//68 175//68
f 170//69 169//69 175//69 176//69
f 179//70 180//70 192//70 191//70
f 170//71 171//71 178//71 177//71
f 171//72 172//72 179//72 178//72
f 169//73 170//73 177//73 180//73
f 184//74 183//74 187//74 188//74
f 175//75 174//75 182//75 183//75
f 173//76 176//76 184//76 181//76
f 174//77 173//77 181//77 182//77
f 186//78 185//78 188//78 187//78
f 183//79 182//79 186//79 187//79
f 181//80 184//80 188//80 185//80
f 182//81 181//81 185//81 186//81
f 192//82 189//82 190//82 191//82
f 177//83 178//83 190//83 189//83
f 180//84 177//84 189//84 192//84
f 178//85 179//85 191//85 190//85
f 193//86 194//86 196//86 195//86
f 200//87 199//87 203//87 204//87
f 199//88 200//88 198//88 197//88
f 215//89 216//89 194//89 193//89
f 213//90 199//90 197//90 215//90
f 214//91 196//91 194//91 216//91
f 204//92 203//92 207//92 208//92
f 213//93 195//93 202//93 217//93
f 214//94 200//94 204//94 218//94
f 195//95 196//95 201//95 202//95
f 220//96 208//96 212//96 222//96
f 217//97 202//97 206//97 219//97
f 218//98 204//98 208//98 220//98
f 202//99 201//99 205//99 206//99
f 211//100 221//100 225//100 228//100
f 206//101 205//101 209//101 210//101
f 208//102 207//102 211//102 212//102
f 219//103 206//103 210//103 221//103
f 207//104 219//104 221//104 211//104
f 210//105 209//105 223//105 224//105
f 201//106 218//106 220//106 205//106
f 203//107 217//107 219//107 207//107
f 205//108 220//108 222//108 209//108
f 196//109 214//109 218//109 201//109
f 199//110 213//110 217//110 203//110
f 200//111 214//111 216//111 198//111
f 195//112 213//112 215//112 193//112
f 197//113 198//113 216//113 215//113
f 227//114 228//114 234//114 233//114
f 223//115 226//115 232//115 229//115
f 212//116 211//116 228//116 227//116
f 221//117 210//117 224//117 225//117
f 209//118 222//118 226//118 223//118
f 222//119 212//119 227//119 226//119
f 234//120 231//120 242//120 241//120
f 230//121 229//121 235//121 236//121
f 225//122 224//122 230//122 231//122
f 228//123 225//123 231//123 234//123
f 226//124 227//124 233//124 232//124
f 224//125 223//125 229//125 230//125
f 238//126 237//126 245//126 246//126
f 229//127 232//127 238//127 235//127
f 231//128 230//128 236//128 237//128
f 232//129 231//129 237//129 238//129
f 241//130 242//130 254//130 253//130
f 232//131 233//131 240//131 239//131
f 233//132 234//132 241//132 240//132
f 231//133 232//133 239//133 242//133
f 246//134 245//134 249//134 250//134
f 237//135 236//135 244//135 245//135
f 235//136 238//136 246//136 243//136
f 236//137 235//137 243//137 244//137
f 248//138 247//138 250//138 249//138
f 245//139 244//139 248//139 249//139
f 243//140 246//140 250//140 247//140
f 244//141 243//141 247//141 248//141
f 254//142 251//142 252//142 253//142
f 239//143 240//143 252//143 251//143
f 242//144 239//144 251//144 254//144
f 240//145 241//145 253//145 252//145
