# Blender v2.91.2 OBJ File: 'camionnete02.blend'
# www.blender.org
mtllib arme_000070.mtl
o Cube.046_Cube.010
v 251.559311 434.331726 -1116.575195
v 242.898209 214.486237 -1129.692383
v 344.976746 442.552490 -1316.036133
v 336.315674 222.707001 -1329.153687
v 52.116966 447.729431 -1209.431763
v 43.455818 227.883911 -1222.549072
v 145.534409 455.950195 -1408.892700
v 136.873306 236.104675 -1422.010132
v 122.941948 423.013336 -841.956909
v 114.280838 203.167877 -855.074158
v -85.161484 216.565552 -947.930664
v -76.500374 436.411041 -934.813416
v 64.734200 417.891022 -717.673950
v 56.073059 198.045563 -730.791382
v -143.369339 211.443237 -823.647888
v -134.708221 431.288727 -810.530579
v 30.347618 414.865021 -644.253357
v 29.945667 255.442200 -665.991882
v -169.496750 268.839905 -758.848389
v -169.094788 428.262726 -737.109741
v 73.368500 637.056885 -704.597290
v -126.073853 650.454529 -797.453857
v 38.981956 634.030823 -631.176514
v -160.460388 647.428528 -724.033081
v 143.008636 424.779205 -884.802307
v 134.347519 204.933746 -897.919678
v -56.433723 438.176910 -977.658997
v -65.094856 218.331421 -990.776245
v 125.801048 495.585968 -837.626709
v -73.641304 508.983704 -930.483337
v 145.867737 497.351837 -880.472168
v -53.574623 510.749512 -973.328674
v 129.949158 600.877014 -831.344421
v -69.493179 614.274719 -924.200867
v 150.015808 602.642883 -874.189941
v -49.426514 616.040588 -967.046448
v 68.908859 490.579437 -716.152893
v -130.533524 503.977142 -809.009460
v 73.056938 595.870483 -709.870544
v -126.385422 609.268127 -802.727051
v 100.454536 775.404968 -742.812561
v -98.987839 788.802612 -835.669250
v 66.067947 772.378906 -669.391968
v -133.374374 785.776550 -762.248474
v 311.997498 439.650299 -1245.620239
v 303.336426 219.804840 -1258.737671
v 112.555161 453.048004 -1338.476807
v 103.894073 233.202484 -1351.594116
v 245.255569 449.251343 -1362.464600
v 236.594482 229.405853 -1375.581787
v 151.838135 441.030579 -1163.003418
v 143.177017 221.185089 -1176.120728
v 23.220787 429.712189 -888.385132
v 14.559662 209.866699 -901.502441
v -34.987003 424.589905 -764.102295
v -39.783222 213.545898 -762.886780
v -69.373558 421.563873 -690.681580
v -57.400993 252.248627 -719.192322
v -26.352682 643.755737 -751.025452
v -60.739227 640.729675 -677.604858
v 34.626343 211.632599 -944.348022
v 43.287453 431.478058 -931.230652
v 26.079880 502.284851 -884.055054
v 46.146561 504.050659 -926.900452
v 30.227999 607.575867 -877.772644
v 50.294640 609.341736 -920.618225
v -30.812332 497.278290 -762.581177
v -26.664227 602.569336 -756.298828
v 0.733334 782.103821 -789.240845
v -33.653229 779.077698 -715.820190
v 203.615219 226.503662 -1305.165894
v 212.276337 446.349182 -1292.048584
v 295.116211 445.901917 -1339.250122
v 193.037598 217.835663 -1152.906616
v 64.420250 206.517303 -878.288391
v -6.162100 211.287384 -747.233459
v -23.779858 249.990082 -703.538940
v 93.148048 428.128632 -908.016479
v 96.007126 500.701233 -903.686401
v 100.155228 605.992310 -897.404053
v 262.136963 442.999756 -1268.834473
v 286.455078 226.056427 -1352.367676
v 201.698700 437.681152 -1139.789429
v 73.081375 426.362762 -865.171082
v 14.873573 421.240448 -740.888123
v -19.512987 418.214417 -667.467407
v 23.507925 640.406311 -727.811340
v -10.878624 637.380249 -654.390686
v 84.486923 208.283173 -921.133850
v 75.940475 498.935394 -860.840942
v 80.088570 604.226501 -854.558533
v 19.048254 493.928864 -739.367065
v 23.196358 599.219910 -733.084595
v 50.593952 778.754395 -766.026733
v 16.207375 775.728271 -692.606018
v 253.475769 223.154236 -1281.951904
v 82.865257 167.120117 -923.589844
v 33.004662 170.469513 -946.804016
v 251.854080 181.991180 -1284.407959
v 201.993561 185.340576 -1307.621948
v 141.555328 180.022003 -1178.576904
v 191.415939 176.672607 -1155.362671
v 376.801025 371.203033 -1174.143433
v 350.075867 368.851196 -1117.081055
v 346.246155 271.637787 -1122.881226
v 372.971191 273.989624 -1179.943848
v 419.899536 368.307892 -1154.077759
v 393.174377 365.956024 -1097.015137
v 389.344543 268.742645 -1102.815552
v 416.069702 271.094452 -1159.878052
v 485.853882 363.877380 -1123.370850
v 459.128723 361.525543 -1066.308228
v 455.298889 264.312164 -1072.108643
v 482.024048 266.663971 -1129.171265
v 528.294678 361.026398 -1103.611206
v 501.569519 358.674530 -1046.548706
v 497.739807 261.461151 -1052.349121
v 524.464783 263.812988 -1109.411499
v 593.349609 253.063477 -2007.634766
v 543.489014 256.412903 -2030.848877
v 552.149963 476.258392 -2017.731445
v 602.010620 472.908966 -1994.517334
v 28.715206 847.642761 -801.287964
v -63.172485 853.815369 -844.069214
v -2.970150 844.854370 -733.634644
v -94.857788 851.026978 -776.415833
v 88.917511 838.681824 -690.853638
v 120.602921 841.470215 -758.506714
v 74.659088 844.556580 -779.897278
v 42.973686 841.768066 -712.244202
vn 0.9049 -0.0608 0.4213
vn 0.4238 0.0373 -0.9050
vn -0.9049 0.0608 -0.4213
vn 0.0393 0.9975 0.0595
vn -0.0393 -0.9975 -0.0595
vn -0.4238 -0.0373 0.9050
vn -0.3110 -0.7702 0.5568
vn -0.1240 -0.9902 -0.0639
vn -0.4985 -0.1437 0.8549
vn -0.9055 0.0602 -0.4201
vn 0.9055 -0.0602 0.4201
vn 0.3831 -0.3149 -0.8684
vn 0.3817 -0.3222 -0.8663
vn -0.3831 0.3149 0.8684
vn 0.7457 0.0104 -0.6662
vn -0.8322 0.4103 -0.3729
vn -0.3864 -0.1526 0.9096
vn -0.0161 -0.9998 -0.0124
vn -0.3650 0.3982 0.8415
vn -0.4251 -0.1795 0.8872
vn -0.0671 -0.9977 0.0002
vn -0.0336 -0.0582 0.9977
vn 0.4665 -0.8654 0.1828
vn 0.5321 0.7983 0.2821
vn -0.3651 0.3982 0.8415
vn 0.8944 -0.1750 0.4117
usemtl Matériau.011
s off
f 45//1 46//1 4//1 3//1
f 49//2 50//2 8//2 7//2
f 47//3 48//3 6//3 5//3
f 26//1 25//1 9//1 10//1
f 72//4 47//4 5//4 51//4
f 96//5 46//5 2//5 74//5
f 10//1 9//1 13//1 14//1
f 84//6 9//6 29//6 90//6
f 89//5 26//5 10//5 75//5
f 27//3 28//3 11//3 12//3
f 76//7 14//7 18//7 77//7
f 75//8 10//8 14//8 76//8
f 12//3 11//3 15//3 16//3
f 53//4 12//4 16//4 55//4
f 86//9 77//9 18//9 17//9
f 16//10 15//10 19//10 20//10
f 16//3 20//3 24//3 22//3
f 14//11 13//11 17//11 18//11
f 59//12 22//12 42//12 69//12
f 86//6 17//6 23//6 88//6
f 17//1 13//1 21//1 23//1
f 55//2 16//2 22//2 59//2
f 5//3 6//3 28//3 27//3
f 74//5 2//5 26//5 89//5
f 51//4 5//4 27//4 62//4
f 2//1 1//1 25//1 26//1
f 32//3 30//3 34//3 36//3
f 62//2 27//2 32//2 64//2
f 27//3 12//3 30//3 32//3
f 9//1 25//1 31//1 29//1
f 66//4 36//4 34//4 65//4
f 90//5 29//5 37//5 92//5
f 64//2 32//2 36//2 66//2
f 29//1 31//1 35//1 33//1
f 92//6 37//6 39//6 93//6
f 29//1 33//1 39//1 37//1
f 34//3 30//3 38//3 40//3
f 65//4 34//4 40//4 68//4
f 69//13 42//13 124//13 123//13
f 23//1 21//1 41//1 43//1
f 88//14 23//14 43//14 95//14
f 22//3 24//3 44//3 42//3
f 82//5 4//5 46//5 96//5
f 49//4 7//4 47//4 72//4
f 7//3 8//3 48//3 47//3
f 46//15 45//15 103//15 106//15
f 73//4 49//4 72//4 81//4
f 8//5 50//5 71//5 48//5
f 24//14 60//14 70//14 44//14
f 42//16 44//16 126//16 124//16
f 91//4 65//4 68//4 93//4
f 38//6 67//6 68//6 40//6
f 79//2 64//2 66//2 80//2
f 30//5 63//5 67//5 38//5
f 80//4 66//4 65//4 91//4
f 78//2 62//2 64//2 79//2
f 83//4 51//4 62//4 78//4
f 6//5 52//5 61//5 28//5
f 85//2 55//2 59//2 87//2
f 20//6 57//6 60//6 24//6
f 87//12 59//12 69//12 94//12
f 20//17 19//17 58//17 57//17
f 84//4 53//4 55//4 85//4
f 11//18 54//18 56//18 15//18
f 15//7 56//7 58//7 19//7
f 28//5 61//5 54//5 11//5
f 12//6 53//6 63//6 30//6
f 48//5 71//5 52//5 6//5
f 81//4 72//4 51//4 83//4
f 50//3 49//3 121//3 120//3
f 3//2 4//2 82//2 73//2
f 45//4 81//4 83//4 1//4
f 9//4 84//4 85//4 13//4
f 21//12 87//12 94//12 41//12
f 13//2 85//2 87//2 21//2
f 1//4 83//4 78//4 25//4
f 25//2 78//2 79//2 31//2
f 35//4 80//4 91//4 33//4
f 31//2 79//2 80//2 35//2
f 33//4 91//4 93//4 39//4
f 70//19 95//19 130//19 125//19
f 3//4 73//4 81//4 45//4
f 50//5 82//5 96//5 71//5
f 60//14 88//14 95//14 70//14
f 67//6 92//6 93//6 68//6
f 63//5 90//5 92//5 67//5
f 52//3 71//3 100//3 101//3
f 57//6 86//6 88//6 60//6
f 57//20 58//20 77//20 86//20
f 54//21 75//21 76//21 56//21
f 56//7 76//7 77//7 58//7
f 61//5 89//5 75//5 54//5
f 53//6 84//6 90//6 63//6
f 89//6 61//6 98//6 97//6
f 101//5 102//5 97//5 98//5
f 100//5 99//5 102//5 101//5
f 61//3 52//3 101//3 98//3
f 74//1 89//1 97//1 102//1
f 71//2 96//2 99//2 100//2
f 96//1 74//1 102//1 99//1
f 106//2 103//2 107//2 110//2
f 1//22 2//22 105//22 104//22
f 2//23 46//23 106//23 105//23
f 45//24 1//24 104//24 103//24
f 109//5 110//5 114//5 113//5
f 104//6 105//6 109//6 108//6
f 105//5 106//5 110//5 109//5
f 103//4 104//4 108//4 107//4
f 113//5 114//5 118//5 117//5
f 107//4 108//4 112//4 111//4
f 110//2 107//2 111//2 114//2
f 108//6 109//6 113//6 112//6
f 116//1 117//1 118//1 115//1
f 111//4 112//4 116//4 115//4
f 114//2 111//2 115//2 118//2
f 122//2 119//2 120//2 121//2
f 82//5 50//5 120//5 119//5
f 73//1 82//1 119//1 122//1
f 49//4 73//4 122//4 121//4
f 123//4 124//4 126//4 125//4
f 129//4 123//4 125//4 130//4
f 128//4 129//4 130//4 127//4
f 95//25 43//25 127//25 130//25
f 94//13 69//13 123//13 129//13
f 43//26 41//26 128//26 127//26
f 44//25 70//25 125//25 126//25
f 41//13 94//13 129//13 128//13
o Cube.048_Cube.024
v -562.977173 454.081787 181.534454
v -725.992676 341.753265 42.949486
v -423.758667 491.358276 -12.440369
v -586.435913 379.611145 -149.779419
v -680.317322 646.486511 60.943985
v -763.899902 588.892517 -10.112396
v -608.936035 665.599182 -38.512314
v -692.303040 608.190552 -109.279091
v -374.214478 506.486206 -441.638458
v -278.045441 564.168335 -382.927979
v -333.852448 676.234741 -401.618408
v -430.021515 618.552612 -460.328827
v -266.001221 548.827759 -624.364014
v -195.295593 591.236938 -581.198730
v -236.326202 673.630676 -594.940308
v -307.031830 631.221436 -638.105530
v -197.616730 578.063660 -738.094666
v -145.945923 609.055725 -706.550171
v -175.930603 669.268005 -716.592285
v -227.601257 638.275879 -748.136841
v -485.032532 597.355469 -13.201759
v -657.647461 478.797089 -158.886780
v -632.884644 557.757935 192.715515
v -805.945618 438.507355 45.590538
v -300.310974 622.495422 -395.353333
v -402.406250 561.258789 -457.681671
v -204.618408 635.481445 -603.215271
v -279.681122 590.458923 -649.040344
v -146.364258 642.624146 -734.327515
v -201.219086 609.722229 -767.815857
v -151.101379 583.613342 -819.740295
v -99.430603 614.605408 -788.195862
v -97.693848 654.170776 -825.395142
v -152.548706 621.268860 -858.883484
v -179.262085 648.900757 -837.756226
v -127.591370 679.892822 -806.211731
v -118.258972 588.785706 -878.618835
v -66.588074 619.777832 -847.074280
v -64.851501 659.343079 -884.273376
v -119.706299 626.441223 -917.761902
v -146.419739 654.073059 -896.634583
v -94.749023 685.065063 -865.089905
v -78.186523 575.793701 -905.368164
v -44.928406 595.741882 -885.064453
v -43.810608 621.208374 -909.007812
v -79.118042 600.030823 -930.562866
v -115.649292 662.628418 -959.960754
v -142.362854 690.260254 -938.833374
v -90.692139 721.252380 -907.288757
v -60.794556 695.530273 -926.472107
v -51.523193 565.611938 -923.664001
v -29.101501 579.060425 -909.975769
v -28.347839 596.229187 -926.117737
v -52.151245 581.951965 -940.649536
v -28.368958 565.151855 -949.222656
v -14.352844 573.558716 -940.666077
v -13.881653 584.291138 -950.756653
v -28.761414 575.366211 -959.840637
v -109.015442 692.107483 -973.708923
v -126.777588 710.480286 -959.660950
v -92.421021 731.087280 -938.686646
v -72.541626 713.984375 -951.442078
v -304.879333 446.777771 480.989716
v -293.916504 289.147308 298.150940
v -162.499207 592.663879 352.264557
v -156.504333 443.705017 173.141479
v -467.212219 544.325195 309.342224
v -461.591248 463.503601 215.595673
v -393.064636 624.545044 248.490784
v -391.136200 542.749634 151.499817
v 6.328552 707.446411 -50.222420
v 95.934265 702.781616 38.351006
v 59.590393 814.950439 81.832573
v -28.806274 820.439331 -5.269463
v 151.046448 817.875732 -167.498016
v 217.889221 812.972534 -102.929787
v 192.057251 896.047546 -69.879280
v 125.214539 900.950806 -134.447723
v 242.529114 888.709534 -238.768036
v 291.376831 885.126160 -191.582275
v 272.499207 945.836304 -167.429413
v 223.651428 949.419617 -214.615143
v -267.634521 638.666504 325.356598
v -265.850403 476.250641 128.685730
v -423.368744 479.512634 455.504547
v -411.730347 312.168457 261.398682
v 86.048157 759.573608 59.275108
v -10.469116 766.653687 -33.958427
v 219.066650 862.801941 -96.231636
v 148.104858 868.007263 -164.778900
v 300.774231 927.530396 -195.070251
v 248.916382 931.334473 -245.163696
v 303.527527 927.657837 -298.957123
v 352.375061 924.074463 -251.771301
v 366.438049 976.005005 -259.365662
v 314.580139 979.809082 -309.459198
v 288.598206 996.429932 -278.279572
v 337.445862 992.846619 -231.093750
v 346.997620 956.844482 -341.741974
v 395.845276 953.261108 -294.556152
v 409.908142 1005.191772 -302.150513
v 358.050232 1008.995789 -352.244080
v 332.068176 1025.616455 -321.064362
v 380.915833 1022.033325 -273.878571
v 389.064026 952.189636 -368.177979
v 420.505066 949.883301 -337.806610
v 429.556824 983.308594 -342.694916
v 396.178162 985.757019 -374.937683
v 374.812317 1060.424561 -365.690979
v 348.830261 1077.045288 -334.511292
v 397.678162 1073.462158 -287.325714
v 426.670105 1056.620483 -315.597565
v 416.929260 948.123169 -387.054413
v 438.126038 946.568298 -366.578949
v 444.228455 969.102783 -369.874634
v 421.725525 970.753540 -391.611816
v 444.076843 956.653870 -406.543854
v 457.326965 955.681763 -393.744385
v 461.141785 969.768250 -395.804291
v 447.074768 970.800171 -409.392487
v 387.926575 1090.299316 -359.562927
v 370.650818 1101.350830 -338.831055
v 403.130188 1098.968140 -307.456665
v 422.407654 1087.769897 -326.254944
vn 0.4615 -0.8720 0.1633
vn -0.3809 0.8872 -0.2605
vn -0.4616 0.8719 -0.1637
vn -0.4330 -0.3801 0.8174
vn 0.3691 0.8271 0.4240
vn -0.6429 -0.5147 -0.5672
vn -0.4025 0.8898 -0.2150
vn 0.8000 0.4395 0.4084
vn -0.7714 -0.0992 -0.6285
vn 0.5306 -0.8470 0.0314
vn -0.7559 -0.3384 -0.5605
vn 0.8282 0.3902 0.4024
vn -0.7514 -0.3753 -0.5427
vn 0.4766 -0.8755 0.0794
vn 0.7307 0.5091 0.4548
vn 0.4832 -0.8730 0.0661
vn -0.3947 0.8901 -0.2279
vn 0.8487 0.3563 0.3908
vn 0.7461 0.5625 0.3564
vn 0.4226 -0.8882 0.1804
vn -0.6816 -0.5154 -0.5194
vn 0.7584 0.5303 0.3790
vn -0.6532 -0.5445 -0.5261
vn -0.5924 -0.4873 -0.6416
vn 0.5249 0.7709 0.3609
vn -0.8107 0.0087 -0.5854
vn 0.7017 0.4101 0.5826
vn -0.7380 0.4060 0.5390
vn -0.4323 0.8868 -0.1632
vn -0.7363 -0.5010 -0.4547
vn -0.4470 0.8841 -0.1363
vn 0.7832 0.4050 0.4717
vn -0.7339 -0.5049 -0.4544
vn -0.7859 -0.4005 -0.4711
vn 0.7280 0.4843 0.4853
vn 0.1273 -0.8038 0.5811
vn 0.7811 0.4092 0.4717
vn 0.7305 0.5116 0.4524
vn -0.7859 -0.3979 -0.4733
vn 0.4323 -0.8868 0.1632
vn 0.1143 0.6086 -0.7852
vn -0.5688 -0.6031 -0.5592
vn 0.8996 0.2776 0.3372
vn 0.1325 0.5898 -0.7966
vn 0.7046 0.6873 0.1765
vn -0.7898 -0.4261 -0.4413
vn -0.6461 0.6090 0.4601
vn 0.6461 -0.6090 -0.4601
vn -0.1872 0.8364 -0.5152
vn 0.8833 0.3000 0.3603
vn -0.5980 -0.5885 -0.5440
vn 0.1091 -0.7925 0.6000
vn 0.6502 -0.5354 -0.5391
vn 0.8782 0.3066 0.3671
vn -0.6069 -0.5839 -0.5393
vn 0.3358 -0.8858 0.3202
vn 0.0728 0.6492 -0.7571
vn -0.7091 -0.1606 -0.6866
vn 0.6449 -0.4374 -0.6267
vn -0.6104 0.7457 0.2672
vn 0.8144 -0.4234 0.3968
vn -0.5258 0.8443 -0.1030
vn -0.8130 0.4268 -0.3961
vn -0.3303 -0.7246 0.6049
vn -0.4054 0.7755 0.4840
vn 0.0958 -0.6761 -0.7306
vn -0.2297 0.9263 0.2986
vn 0.4554 0.5503 0.6998
vn -0.3969 -0.0825 -0.9142
vn 0.7421 -0.6589 0.1234
vn -0.6803 0.1995 -0.7053
vn 0.7874 -0.0935 0.6093
vn -0.6844 0.1589 -0.7116
vn 0.3308 -0.8587 -0.3915
vn 0.6992 0.0018 0.7150
vn 0.3354 -0.8474 -0.4116
vn -0.2173 0.9303 0.2956
vn 0.8042 -0.1125 0.5836
vn 0.7396 0.0953 0.6663
vn 0.2534 -0.9089 -0.3313
vn -0.6404 0.0177 -0.7678
vn 0.7337 0.0697 0.6759
vn -0.6156 -0.0084 -0.7880
vn -0.1576 -0.4816 -0.8621
vn 0.0070 0.8056 0.5925
vn -0.3554 -0.3761 -0.8557
vn 0.0374 0.6251 0.7797
vn -0.9502 -0.2620 0.1689
vn -0.2661 0.9005 0.3439
vn -0.7035 0.0060 -0.7107
vn -0.2858 0.8868 0.3632
vn 0.7325 -0.1031 0.6729
vn -0.7017 0.0021 -0.7125
vn -0.7346 0.1070 -0.6700
vn 0.6874 -0.0344 0.7254
vn -0.0955 -0.9952 0.0233
vn 0.7311 -0.0993 0.6751
vn 0.6997 0.0052 0.7144
vn -0.7338 0.1103 -0.6703
vn 0.2661 -0.9005 -0.3439
vn 0.3406 0.8961 -0.2845
vn -0.5357 -0.0561 -0.8425
vn 0.8525 -0.1580 0.4984
vn 0.3578 0.8832 -0.3033
vn 0.7497 0.3037 0.5879
vn -0.7474 0.0709 -0.6606
vn -0.6275 0.3819 0.6786
vn 0.6275 -0.3819 -0.6786
vn 0.0298 0.9985 0.0450
vn 0.8355 -0.1489 0.5289
vn -0.5649 -0.0462 -0.8239
vn -0.1151 -0.9924 0.0438
vn 0.6562 -0.2802 -0.7006
vn 0.8303 -0.1462 0.5378
vn -0.5737 -0.0431 -0.8180
vn 0.1437 -0.9644 -0.2220
vn 0.3007 0.9227 -0.2413
vn -0.5867 0.4018 -0.7031
vn 0.6809 -0.1519 -0.7164
vn -0.5381 0.5901 0.6019
usemtl Matériau.012
s off
f 131//27 132//27 134//27 133//27
f 138//28 137//28 141//28 142//28
f 137//29 138//29 136//29 135//29
f 153//30 154//30 132//30 131//30
f 151//31 137//31 135//31 153//31
f 152//32 134//32 132//32 154//32
f 142//33 141//33 145//33 146//33
f 151//34 133//34 140//34 155//34
f 152//35 138//35 142//35 156//35
f 133//36 134//36 139//36 140//36
f 158//37 146//37 150//37 160//37
f 155//38 140//38 144//38 157//38
f 156//39 142//39 146//39 158//39
f 140//40 139//40 143//40 144//40
f 149//41 159//41 163//41 166//41
f 144//42 143//42 147//42 148//42
f 146//43 145//43 149//43 150//43
f 157//44 144//44 148//44 159//44
f 145//45 157//45 159//45 149//45
f 148//46 147//46 161//46 162//46
f 139//47 156//47 158//47 143//47
f 141//48 155//48 157//48 145//48
f 143//49 158//49 160//49 147//49
f 134//50 152//50 156//50 139//50
f 137//51 151//51 155//51 141//51
f 138//52 152//52 154//52 136//52
f 133//53 151//53 153//53 131//53
f 135//54 136//54 154//54 153//54
f 165//55 166//55 172//55 171//55
f 161//56 164//56 170//56 167//56
f 150//57 149//57 166//57 165//57
f 159//58 148//58 162//58 163//58
f 147//59 160//59 164//59 161//59
f 160//60 150//60 165//60 164//60
f 172//61 169//61 180//61 179//61
f 168//62 167//62 173//62 174//62
f 163//63 162//63 168//63 169//63
f 166//64 163//64 169//64 172//64
f 164//65 165//65 171//65 170//65
f 162//66 161//66 167//66 168//66
f 176//67 175//67 183//67 184//67
f 167//68 170//68 176//68 173//68
f 169//69 168//69 174//69 175//69
f 170//70 169//70 175//70 176//70
f 179//71 180//71 192//71 191//71
f 170//72 171//72 178//72 177//72
f 171//73 172//73 179//73 178//73
f 169//74 170//74 177//74 180//74
f 184//75 183//75 187//75 188//75
f 175//76 174//76 182//76 183//76
f 173//77 176//77 184//77 181//77
f 174//78 173//78 181//78 182//78
f 186//79 185//79 188//79 187//79
f 183//80 182//80 186//80 187//80
f 181//81 184//81 188//81 185//81
f 182//82 181//82 185//82 186//82
f 192//83 189//83 190//83 191//83
f 177//84 178//84 190//84 189//84
f 180//85 177//85 189//85 192//85
f 178//86 179//86 191//86 190//86
f 193//87 194//87 196//87 195//87
f 200//88 199//88 203//88 204//88
f 199//89 200//89 198//89 197//89
f 215//90 216//90 194//90 193//90
f 213//91 199//91 197//91 215//91
f 214//92 196//92 194//92 216//92
f 204//93 203//93 207//93 208//93
f 213//94 195//94 202//94 217//94
f 214//95 200//95 204//95 218//95
f 195//96 196//96 201//96 202//96
f 220//97 208//97 212//97 222//97
f 217//98 202//98 206//98 219//98
f 218//99 204//99 208//99 220//99
f 202//100 201//100 205//100 206//100
f 211//101 221//101 225//101 228//101
f 206//102 205//102 209//102 210//102
f 208//103 207//103 211//103 212//103
f 219//104 206//104 210//104 221//104
f 207//105 219//105 221//105 211//105
f 210//106 209//106 223//106 224//106
f 201//107 218//107 220//107 205//107
f 203//108 217//108 219//108 207//108
f 205//109 220//109 222//109 209//109
f 196//110 214//110 218//110 201//110
f 199//111 213//111 217//111 203//111
f 200//112 214//112 216//112 198//112
f 195//113 213//113 215//113 193//113
f 197//114 198//114 216//114 215//114
f 227//115 228//115 234//115 233//115
f 223//116 226//116 232//116 229//116
f 212//117 211//117 228//117 227//117
f 221//118 210//118 224//118 225//118
f 209//119 222//119 226//119 223//119
f 222//120 212//120 227//120 226//120
f 234//121 231//121 242//121 241//121
f 230//122 229//122 235//122 236//122
f 225//123 224//123 230//123 231//123
f 228//124 225//124 231//124 234//124
f 226//125 227//125 233//125 232//125
f 224//126 223//126 229//126 230//126
f 238//127 237//127 245//127 246//127
f 229//128 232//128 238//128 235//128
f 231//129 230//129 236//129 237//129
f 232//130 231//130 237//130 238//130
f 241//131 242//131 254//131 253//131
f 232//132 233//132 240//132 239//132
f 233//133 234//133 241//133 240//133
f 231//134 232//134 239//134 242//134
f 246//135 245//135 249//135 250//135
f 237//136 236//136 244//136 245//136
f 235//137 238//137 246//137 243//137
f 236//138 235//138 243//138 244//138
f 248//139 247//139 250//139 249//139
f 245//140 244//140 248//140 249//140
f 243//141 246//141 250//141 247//141
f 244//142 243//142 247//142 248//142
f 254//143 251//143 252//143 253//143
f 239//144 240//144 252//144 251//144
f 242//145 239//145 251//145 254//145
f 240//146 241//146 253//146 252//146
