# Blender v2.91.2 OBJ File: 'camionnete02.blend'
# www.blender.org
mtllib arme_000201.mtl
o Cube.046_Cube.010
v -21.834259 -147.379730 -1173.018433
v -95.024796 -347.839111 -1117.897583
v 20.787430 -219.043152 -1377.044922
v -52.403145 -419.502563 -1321.924194
v -225.317993 -90.287643 -1235.579956
v -298.508575 -290.747009 -1180.459229
v -182.696289 -161.951050 -1439.606445
v -255.886917 -362.410492 -1384.485840
v -80.515900 -48.713348 -892.114258
v -153.706451 -249.172684 -836.993469
v -357.190125 -192.080643 -899.554993
v -283.999603 8.378738 -954.675842
v -107.073112 -4.060303 -764.986572
v -180.263718 -204.519699 -709.865845
v -383.747467 -147.427628 -772.427368
v -310.556915 53.031799 -827.548218
v -122.761993 22.318695 -689.885254
v -173.224518 -127.949173 -662.290588
v -376.708313 -70.857056 -724.852173
v -326.245758 79.410797 -752.446899
v -34.108856 195.779419 -819.937012
v -237.592606 252.871429 -882.498596
v -49.797699 222.158356 -744.835693
v -253.281433 279.250488 -807.397339
v -71.360458 -64.107101 -935.940430
v -144.551010 -264.566467 -880.819641
v -274.844208 -7.015015 -998.502075
v -348.034790 -207.474396 -943.381226
v -56.355148 17.459808 -910.310059
v -259.838867 74.551910 -972.871643
v -47.199692 2.066071 -954.136169
v -250.683456 59.158142 -1016.697693
v -21.301804 113.466248 -936.709167
v -224.785507 170.558350 -999.270691
v -12.146439 98.072449 -980.535339
v -215.630127 155.164551 -1043.096924
v -82.312149 61.103607 -786.055725
v -285.795929 118.195679 -848.617249
v -47.258835 157.110046 -812.454773
v -250.742599 214.202118 -875.016418
v 21.219284 303.530701 -901.562439
v -182.264481 360.622803 -964.124023
v 5.530380 329.909729 -826.461243
v -197.953308 387.001709 -889.022766
v 5.740616 -193.743744 -1305.017334
v -67.449928 -394.203125 -1249.896606
v -197.743088 -136.651642 -1367.578857
v -270.933655 -337.111084 -1312.458130
v -80.954475 -190.497070 -1408.325806
v -154.145020 -390.956543 -1353.205078
v -123.576134 -118.833649 -1204.299194
v -196.766693 -319.293091 -1149.178345
v -182.257736 -20.167297 -923.395020
v -255.448303 -220.626648 -868.274170
v -208.815002 24.485748 -796.267395
v -272.575012 -165.828598 -730.852051
v -224.503876 50.864746 -721.166138
v -267.828491 -114.196877 -698.772034
v -135.850723 224.325439 -851.217773
v -151.539581 250.704437 -776.116577
v -246.292877 -236.020432 -912.100403
v -173.102341 -35.561096 -967.221252
v -158.097000 46.005844 -941.590820
v -148.941574 30.612061 -985.416931
v -123.043640 142.012329 -967.989929
v -113.888275 126.618500 -1011.816162
v -184.054047 89.649658 -817.336487
v -149.000702 185.656128 -843.735535
v -80.522614 332.076782 -932.843262
v -96.211487 358.455688 -857.741943
v -169.191818 -365.657104 -1281.177368
v -96.001228 -165.197693 -1336.297974
v -30.083496 -204.770111 -1392.685181
v -145.895721 -333.566071 -1133.537964
v -204.577393 -234.899689 -852.633911
v -238.272614 -175.452942 -720.305725
v -233.526077 -123.821220 -688.225586
v -122.231384 -49.834076 -951.580811
v -98.070663 16.339050 -969.776550
v -63.017365 112.345459 -996.175720
v -45.130310 -179.470734 -1320.657715
v -103.274071 -405.229553 -1337.564697
v -72.705238 -133.106689 -1188.658936
v -131.386841 -34.440338 -907.754639
v -157.944077 10.212723 -780.627014
v -173.632935 36.591705 -705.525696
v -84.979782 210.052429 -835.577393
v -100.668640 236.431396 -760.476074
v -195.421967 -250.293457 -896.460083
v -107.226059 31.732849 -925.950439
v -72.172745 127.739258 -952.349487
v -133.183121 75.376648 -801.696106
v -98.129761 171.383087 -828.095154
v -29.651627 317.803711 -917.202759
v -45.340546 344.182739 -842.101562
v -118.320923 -379.930115 -1265.536865
v -209.125870 -287.826721 -886.139465
v -259.996826 -273.553711 -901.779785
v -132.024887 -417.463409 -1255.216431
v -182.895752 -403.190430 -1270.856812
v -210.470627 -356.826355 -1138.857788
v -159.599670 -371.099365 -1123.217407
v 63.416000 -260.789124 -1226.455566
v 51.222610 -240.287415 -1168.087036
v 18.858627 -328.928528 -1143.713013
v 31.051834 -349.430206 -1202.081787
v 107.387756 -273.126434 -1212.936523
v 95.194382 -252.624725 -1154.567871
v 62.830353 -341.265808 -1130.194092
v 75.023651 -361.767517 -1188.562622
v 174.678558 -292.006409 -1192.247925
v 162.485229 -271.504730 -1133.879150
v 130.121094 -360.145782 -1109.505371
v 142.314392 -380.647491 -1167.874146
v 217.979309 -304.155487 -1178.935059
v 205.786011 -283.653778 -1120.566406
v 173.422028 -372.294891 -1096.192505
v 185.615265 -392.796570 -1154.561157
v 36.746719 -640.657410 -2007.830444
v -14.124207 -626.384399 -2023.470947
v 59.066254 -425.924957 -2078.591797
v 109.937241 -440.197998 -2062.951172
v -38.800522 379.472656 -968.005310
v -132.550140 405.776245 -996.828857
v -53.256927 403.779419 -898.803406
v -147.006531 430.083069 -927.627014
v 40.492676 377.475830 -869.979919
v 54.949234 353.169067 -939.181580
v 8.074432 366.320984 -953.593384
v -6.382126 390.627563 -884.391602
vn 0.9232 -0.2590 0.2838
vn 0.1934 -0.3251 -0.9257
vn -0.9232 0.2590 -0.2838
vn 0.3321 0.9095 -0.2501
vn -0.3321 -0.9095 0.2501
vn -0.1934 0.3251 0.9257
vn -0.3767 -0.4637 0.8020
vn -0.4098 -0.8755 0.2561
vn -0.3046 0.2413 0.9214
vn -0.9236 0.2590 -0.2825
vn 0.9236 -0.2590 0.2825
vn 0.0646 -0.6235 -0.7792
vn 0.0617 -0.6291 -0.7748
vn -0.0646 0.6235 0.7792
vn 0.5411 -0.4008 -0.7393
vn -0.7456 0.5645 -0.3540
vn -0.1901 0.2086 0.9594
vn -0.3001 -0.9082 0.2918
vn -0.0306 0.6868 0.7262
vn -0.2388 0.1918 0.9519
vn -0.3441 -0.8861 0.3105
vn 0.1855 0.1970 0.9627
vn 0.2325 -0.9014 0.3652
vn 0.7864 0.6156 -0.0519
vn 0.8790 -0.3618 0.3107
usemtl Matériau.011
s off
f 45//1 46//1 4//1 3//1
f 49//2 50//2 8//2 7//2
f 47//3 48//3 6//3 5//3
f 26//1 25//1 9//1 10//1
f 72//4 47//4 5//4 51//4
f 96//5 46//5 2//5 74//5
f 10//1 9//1 13//1 14//1
f 84//6 9//6 29//6 90//6
f 89//5 26//5 10//5 75//5
f 27//3 28//3 11//3 12//3
f 76//7 14//7 18//7 77//7
f 75//8 10//8 14//8 76//8
f 12//3 11//3 15//3 16//3
f 53//4 12//4 16//4 55//4
f 86//9 77//9 18//9 17//9
f 16//10 15//10 19//10 20//10
f 16//3 20//3 24//3 22//3
f 14//11 13//11 17//11 18//11
f 59//12 22//12 42//12 69//12
f 86//6 17//6 23//6 88//6
f 17//1 13//1 21//1 23//1
f 55//2 16//2 22//2 59//2
f 5//3 6//3 28//3 27//3
f 74//5 2//5 26//5 89//5
f 51//4 5//4 27//4 62//4
f 2//1 1//1 25//1 26//1
f 32//3 30//3 34//3 36//3
f 62//2 27//2 32//2 64//2
f 27//3 12//3 30//3 32//3
f 9//1 25//1 31//1 29//1
f 66//4 36//4 34//4 65//4
f 90//5 29//5 37//5 92//5
f 64//2 32//2 36//2 66//2
f 29//1 31//1 35//1 33//1
f 92//6 37//6 39//6 93//6
f 29//1 33//1 39//1 37//1
f 34//3 30//3 38//3 40//3
f 65//4 34//4 40//4 68//4
f 69//13 42//13 124//13 123//13
f 23//1 21//1 41//1 43//1
f 88//14 23//14 43//14 95//14
f 22//3 24//3 44//3 42//3
f 82//5 4//5 46//5 96//5
f 49//4 7//4 47//4 72//4
f 7//3 8//3 48//3 47//3
f 46//15 45//15 103//15 106//15
f 73//4 49//4 72//4 81//4
f 8//5 50//5 71//5 48//5
f 24//14 60//14 70//14 44//14
f 42//16 44//16 126//16 124//16
f 91//4 65//4 68//4 93//4
f 38//6 67//6 68//6 40//6
f 79//2 64//2 66//2 80//2
f 30//5 63//5 67//5 38//5
f 80//4 66//4 65//4 91//4
f 78//2 62//2 64//2 79//2
f 83//4 51//4 62//4 78//4
f 6//5 52//5 61//5 28//5
f 85//2 55//2 59//2 87//2
f 20//6 57//6 60//6 24//6
f 87//12 59//12 69//12 94//12
f 20//17 19//17 58//17 57//17
f 84//4 53//4 55//4 85//4
f 11//18 54//18 56//18 15//18
f 15//7 56//7 58//7 19//7
f 28//5 61//5 54//5 11//5
f 12//6 53//6 63//6 30//6
f 48//5 71//5 52//5 6//5
f 81//4 72//4 51//4 83//4
f 50//3 49//3 121//3 120//3
f 3//2 4//2 82//2 73//2
f 45//4 81//4 83//4 1//4
f 9//4 84//4 85//4 13//4
f 21//12 87//12 94//12 41//12
f 13//2 85//2 87//2 21//2
f 1//4 83//4 78//4 25//4
f 25//2 78//2 79//2 31//2
f 35//4 80//4 91//4 33//4
f 31//2 79//2 80//2 35//2
f 33//4 91//4 93//4 39//4
f 70//19 95//19 130//19 125//19
f 3//4 73//4 81//4 45//4
f 50//5 82//5 96//5 71//5
f 60//14 88//14 95//14 70//14
f 67//6 92//6 93//6 68//6
f 63//5 90//5 92//5 67//5
f 52//3 71//3 100//3 101//3
f 57//6 86//6 88//6 60//6
f 57//20 58//20 77//20 86//20
f 54//21 75//21 76//21 56//21
f 56//7 76//7 77//7 58//7
f 61//5 89//5 75//5 54//5
f 53//6 84//6 90//6 63//6
f 89//6 61//6 98//6 97//6
f 101//5 102//5 97//5 98//5
f 100//5 99//5 102//5 101//5
f 61//3 52//3 101//3 98//3
f 74//1 89//1 97//1 102//1
f 71//2 96//2 99//2 100//2
f 96//1 74//1 102//1 99//1
f 106//2 103//2 107//2 110//2
f 1//22 2//22 105//22 104//22
f 2//23 46//23 106//23 105//23
f 45//24 1//24 104//24 103//24
f 109//5 110//5 114//5 113//5
f 104//6 105//6 109//6 108//6
f 105//5 106//5 110//5 109//5
f 103//4 104//4 108//4 107//4
f 113//5 114//5 118//5 117//5
f 107//4 108//4 112//4 111//4
f 110//2 107//2 111//2 114//2
f 108//6 109//6 113//6 112//6
f 116//1 117//1 118//1 115//1
f 111//4 112//4 116//4 115//4
f 114//2 111//2 115//2 118//2
f 122//2 119//2 120//2 121//2
f 82//5 50//5 120//5 119//5
f 73//1 82//1 119//1 122//1
f 49//4 73//4 122//4 121//4
f 123//4 124//4 126//4 125//4
f 129//4 123//4 125//4 130//4
f 128//4 129//4 130//4 127//4
f 95//19 43//19 127//19 130//19
f 94//13 69//13 123//13 129//13
f 43//25 41//25 128//25 127//25
f 44//19 70//19 125//19 126//19
f 41//13 94//13 129//13 128//13
o Cube.048_Cube.024
v -480.888367 561.318176 140.244293
v -679.314636 430.682587 95.984665
v -375.699615 468.153717 -56.360054
v -574.068726 337.335815 -100.637245
v -592.822449 687.491821 -51.800713
v -694.561157 620.511353 -74.493874
v -538.889221 639.723816 -152.605255
v -640.086060 572.878662 -174.789825
v -425.953430 290.360962 -467.745758
v -306.470123 324.586731 -443.767365
v -331.123688 440.962158 -487.029205
v -450.606934 406.736450 -511.007599
v -356.021332 248.800415 -668.428955
v -268.174561 273.963928 -650.799377
v -286.300354 359.525757 -682.606567
v -374.147125 334.362244 -700.236023
v -310.721497 225.210449 -794.354797
v -246.524200 243.599670 -781.471252
v -259.770386 306.127075 -804.715454
v -323.967743 287.737915 -817.598877
v -422.098297 569.523438 -106.690529
v -631.817444 431.604126 -152.607178
v -533.859558 668.514160 101.983368
v -744.513428 529.828369 54.996376
v -313.623413 382.229919 -469.811310
v -440.469727 345.895111 -495.267303
v -269.502960 312.131287 -683.521179
v -362.763245 285.417114 -702.236877
v -243.928406 267.669006 -817.700134
v -312.081635 248.146545 -831.377625
v -284.957611 195.081360 -879.730225
v -220.760284 213.470581 -866.846741
v -216.668304 240.022705 -914.074524
v -284.821686 220.500305 -927.751770
v -296.937592 259.709961 -912.282715
v -232.740234 278.099121 -899.399414
v -266.700897 174.655884 -941.548584
v -202.503662 193.045166 -928.665283
v -198.411591 219.597290 -975.892883
v -266.564941 200.074982 -989.570251
v -278.680817 239.284546 -974.101013
v -214.483490 257.673767 -961.217590
v -239.336334 142.940369 -968.667542
v -198.015472 154.776672 -960.375061
v -195.381592 171.867126 -990.773376
v -239.248810 159.301514 -999.576843
v -262.436218 221.573517 -1040.829102
v -274.552216 260.783142 -1025.359985
v -210.354919 279.172363 -1012.476624
v -194.282990 241.095856 -1027.151611
v -221.678802 120.318481 -986.717468
v -193.821503 128.298218 -981.126770
v -192.045685 139.820190 -1001.620544
v -221.619873 131.348694 -1007.555603
v -206.238983 105.994263 -1014.030579
v -188.825012 110.982483 -1010.535828
v -187.715027 118.184814 -1023.346741
v -206.201996 112.889282 -1027.056763
v -251.154602 242.901825 -1063.629639
v -259.210602 268.972839 -1053.343994
v -216.524963 281.200012 -1044.777710
v -205.838623 255.882385 -1054.535400
v -320.370758 418.269043 489.859161
v -374.114838 241.142334 334.503876
v -155.133240 506.104065 331.788605
v -214.883484 331.280212 176.649200
v -468.320740 534.548584 316.884613
v -495.876801 443.730774 237.229584
v -375.472351 582.673096 236.501282
v -414.234436 489.946960 156.293045
v -155.669250 399.980591 -90.575447
v -77.376099 320.458893 -34.589714
v 20.358093 380.863525 -82.647789
v -55.006958 459.796509 -138.656525
v -142.372498 272.670166 -265.237366
v -86.119324 210.622406 -224.657654
v -12.110107 254.600403 -260.007843
v -68.363342 316.648285 -300.587708
v -131.197449 192.585999 -374.450500
v -90.088318 147.242249 -344.795349
v -36.003357 179.380920 -370.628845
v -77.112488 224.724579 -400.283997
v -238.698975 573.090332 300.500549
v -315.465424 387.709198 135.525925
v -427.453186 480.058594 468.036957
v -484.509216 292.016754 303.108124
v -26.732971 339.669281 -62.287605
v -107.959717 429.263123 -120.882668
v -48.271729 219.829102 -256.469788
v -107.991394 285.700562 -299.550079
v -63.061279 146.258850 -378.959076
v -106.703674 194.396790 -410.441650
v -138.451294 136.699707 -449.846832
v -97.342224 91.355957 -420.191498
v -66.205444 87.433594 -464.546173
v -109.847778 135.571594 -496.028839
v -80.888428 166.351013 -484.304779
v -39.779358 121.007324 -454.649506
v -142.601868 97.164429 -504.543976
v -101.492737 51.820801 -474.888763
v -70.355896 47.898315 -519.243591
v -113.998108 96.036255 -550.726135
v -85.038757 126.815979 -539.002014
v -43.929688 81.472229 -509.346832
v -157.283386 53.353516 -523.390015
v -130.823303 24.167725 -504.302277
v -110.781982 21.643127 -532.851379
v -138.872620 52.627441 -553.115356
v -86.976624 88.986450 -598.963440
v -58.017212 119.766113 -587.239502
v -16.908142 74.422363 -557.584290
v -43.334167 40.848572 -567.481018
v -168.652588 24.046570 -536.085266
v -150.813965 4.370300 -523.216858
v -137.302856 2.667969 -542.464233
v -156.240662 23.556885 -556.125427
v -172.326660 -2.093079 -558.284790
v -161.175537 -14.392822 -550.240479
v -152.729431 -15.456787 -562.271973
v -164.567688 -2.399109 -570.811829
v -60.466125 82.514099 -617.867126
v -41.210632 102.979858 -610.071716
v -13.876648 72.830200 -590.353455
v -31.447815 50.506531 -596.933899
vn 0.3693 -0.7475 0.5522
vn -0.2406 0.7856 -0.5700
vn -0.3698 0.7463 -0.5534
vn -0.3217 0.1733 0.9309
vn 0.5423 0.8336 -0.1050
vn -0.7984 -0.5819 -0.1547
vn -0.1735 0.8944 -0.4122
vn 0.9351 0.3477 0.0682
vn -0.8851 -0.1624 -0.4362
vn 0.3790 -0.8654 0.3277
vn -0.9298 -0.1880 -0.3165
vn 0.9747 0.1730 0.1413
vn -0.9319 -0.2189 -0.2892
vn 0.2149 -0.9388 0.2693
vn 0.9299 0.3267 0.1690
vn 0.2186 -0.9419 0.2551
vn -0.1692 0.8890 -0.4255
vn 0.9816 0.1325 0.1376
vn 0.9362 0.3465 0.0580
vn 0.1846 -0.9080 0.3761
vn -0.9011 -0.3644 -0.2351
vn 0.9439 0.3185 0.0872
vn -0.8844 -0.4021 -0.2369
vn -0.7973 -0.5340 -0.2815
vn 0.7075 0.7034 -0.0685
vn -0.8952 -0.1198 -0.4293
vn 0.8423 0.4934 0.2169
vn -0.5700 0.7600 0.3123
vn -0.1900 0.9141 -0.3581
vn -0.9328 -0.3174 -0.1706
vn -0.1982 0.9230 -0.3298
vn 0.9533 0.2182 0.2088
vn -0.9315 -0.3217 -0.1695
vn -0.9544 -0.2131 -0.2091
vn 0.9275 0.3122 0.2057
vn 0.0274 -0.6359 0.7713
vn 0.9525 0.2227 0.2077
vn 0.9298 0.3285 0.1661
vn -0.9542 -0.2112 -0.2120
vn 0.1900 -0.9141 0.3581
vn 0.0947 0.3280 -0.9399
vn -0.8302 -0.4917 -0.2626
vn 0.9942 0.0308 0.1035
vn 0.1037 0.3020 -0.9476
vn 0.8908 0.4312 -0.1431
vn -0.9582 -0.2279 -0.1728
vn -0.3217 0.8821 0.3441
vn 0.3217 -0.8821 -0.3441
vn -0.0584 0.7015 -0.7102
vn 0.9907 0.0622 0.1208
vn -0.8497 -0.4650 -0.2485
vn 0.0180 -0.6150 0.7883
vn 0.3278 -0.8354 -0.4412
vn 0.9895 0.0716 0.1260
vn -0.8555 -0.4566 -0.2441
vn 0.1372 -0.8432 0.5198
vn 0.0741 0.3857 -0.9196
vn -0.8656 -0.0719 -0.4956
vn 0.3301 -0.7653 -0.5526
vn -0.2949 0.9485 0.1159
vn 0.7084 -0.5814 0.4001
vn 0.1297 0.9697 -0.2068
vn -0.6937 0.5990 -0.4000
vn -0.4446 -0.5106 0.7360
vn -0.1270 0.9171 0.3779
vn -0.1778 -0.7666 -0.6171
vn 0.7859 0.4281 -0.4461
vn 0.8993 0.4220 0.1148
vn -0.6783 -0.2182 -0.7017
vn 0.2851 -0.9297 0.2332
vn -0.5095 0.6580 -0.5545
vn 0.5166 -0.7523 0.4089
vn -0.5415 0.6535 -0.5289
vn -0.7864 -0.5224 0.3298
vn 0.6522 -0.6358 0.4127
vn -0.7962 -0.5239 0.3027
vn 0.7875 0.4172 -0.4537
vn 0.5003 -0.7700 0.3960
vn 0.6855 -0.6600 0.3075
vn -0.7929 -0.4505 0.4102
vn -0.6673 0.5788 -0.4688
vn 0.6862 -0.6484 0.3297
vn -0.6946 0.5480 -0.4660
vn -0.5593 -0.7064 -0.4337
vn 0.5348 0.8428 -0.0612
vn -0.5407 -0.3688 -0.7560
vn 0.2732 0.6836 0.6768
vn -0.9597 0.0483 0.2769
vn 0.7943 0.4622 -0.3943
vn -0.6448 0.6419 -0.4150
vn 0.7958 0.4800 -0.3692
vn 0.5587 -0.6921 0.4571
vn -0.6483 0.6392 -0.4136
vn -0.5544 0.6951 -0.4577
vn 0.6340 -0.6309 0.4473
vn -0.6542 -0.1031 0.7493
vn 0.5625 -0.6898 0.4559
vn 0.6542 -0.6357 0.4098
vn -0.5523 0.6950 -0.4604
vn -0.7943 -0.4622 0.3943
vn 0.4430 -0.1736 -0.8796
vn -0.7513 0.4567 -0.4765
vn 0.4170 -0.8319 0.3663
vn 0.4239 -0.1942 -0.8846
vn 0.7669 -0.6336 0.1017
vn -0.5736 0.7010 -0.4238
vn 0.6321 0.7345 0.2468
vn -0.6321 -0.7345 -0.2468
vn 0.6943 0.1726 -0.6987
vn 0.4421 -0.8115 0.3821
vn -0.7364 0.4884 -0.4681
vn -0.6410 -0.0820 0.7632
vn -0.5762 -0.7439 -0.3387
vn 0.4495 -0.8052 0.3867
vn -0.7317 0.4981 -0.4654
vn -0.7695 -0.3471 0.5360
vn 0.4848 -0.1265 -0.8654
vn -0.3578 0.6070 -0.7096
vn -0.4990 -0.7435 -0.4452
vn 0.7292 0.6835 0.0342
usemtl Matériau.012
s off
f 131//26 132//26 134//26 133//26
f 138//27 137//27 141//27 142//27
f 137//28 138//28 136//28 135//28
f 153//29 154//29 132//29 131//29
f 151//30 137//30 135//30 153//30
f 152//31 134//31 132//31 154//31
f 142//32 141//32 145//32 146//32
f 151//33 133//33 140//33 155//33
f 152//34 138//34 142//34 156//34
f 133//35 134//35 139//35 140//35
f 158//36 146//36 150//36 160//36
f 155//37 140//37 144//37 157//37
f 156//38 142//38 146//38 158//38
f 140//39 139//39 143//39 144//39
f 149//40 159//40 163//40 166//40
f 144//41 143//41 147//41 148//41
f 146//42 145//42 149//42 150//42
f 157//43 144//43 148//43 159//43
f 145//44 157//44 159//44 149//44
f 148//45 147//45 161//45 162//45
f 139//46 156//46 158//46 143//46
f 141//47 155//47 157//47 145//47
f 143//48 158//48 160//48 147//48
f 134//49 152//49 156//49 139//49
f 137//50 151//50 155//50 141//50
f 138//51 152//51 154//51 136//51
f 133//52 151//52 153//52 131//52
f 135//53 136//53 154//53 153//53
f 165//54 166//54 172//54 171//54
f 161//55 164//55 170//55 167//55
f 150//56 149//56 166//56 165//56
f 159//57 148//57 162//57 163//57
f 147//58 160//58 164//58 161//58
f 160//59 150//59 165//59 164//59
f 172//60 169//60 180//60 179//60
f 168//61 167//61 173//61 174//61
f 163//62 162//62 168//62 169//62
f 166//63 163//63 169//63 172//63
f 164//64 165//64 171//64 170//64
f 162//65 161//65 167//65 168//65
f 176//66 175//66 183//66 184//66
f 167//67 170//67 176//67 173//67
f 169//68 168//68 174//68 175//68
f 170//69 169//69 175//69 176//69
f 179//70 180//70 192//70 191//70
f 170//71 171//71 178//71 177//71
f 171//72 172//72 179//72 178//72
f 169//73 170//73 177//73 180//73
f 184//74 183//74 187//74 188//74
f 175//75 174//75 182//75 183//75
f 173//76 176//76 184//76 181//76
f 174//77 173//77 181//77 182//77
f 186//78 185//78 188//78 187//78
f 183//79 182//79 186//79 187//79
f 181//80 184//80 188//80 185//80
f 182//81 181//81 185//81 186//81
f 192//82 189//82 190//82 191//82
f 177//83 178//83 190//83 189//83
f 180//84 177//84 189//84 192//84
f 178//85 179//85 191//85 190//85
f 193//86 194//86 196//86 195//86
f 200//87 199//87 203//87 204//87
f 199//88 200//88 198//88 197//88
f 215//89 216//89 194//89 193//89
f 213//90 199//90 197//90 215//90
f 214//91 196//91 194//91 216//91
f 204//92 203//92 207//92 208//92
f 213//93 195//93 202//93 217//93
f 214//94 200//94 204//94 218//94
f 195//95 196//95 201//95 202//95
f 220//96 208//96 212//96 222//96
f 217//97 202//97 206//97 219//97
f 218//98 204//98 208//98 220//98
f 202//99 201//99 205//99 206//99
f 211//100 221//100 225//100 228//100
f 206//101 205//101 209//101 210//101
f 208//102 207//102 211//102 212//102
f 219//103 206//103 210//103 221//103
f 207//104 219//104 221//104 211//104
f 210//105 209//105 223//105 224//105
f 201//106 218//106 220//106 205//106
f 203//107 217//107 219//107 207//107
f 205//108 220//108 222//108 209//108
f 196//109 214//109 218//109 201//109
f 199//110 213//110 217//110 203//110
f 200//111 214//111 216//111 198//111
f 195//112 213//112 215//112 193//112
f 197//113 198//113 216//113 215//113
f 227//114 228//114 234//114 233//114
f 223//115 226//115 232//115 229//115
f 212//116 211//116 228//116 227//116
f 221//117 210//117 224//117 225//117
f 209//118 222//118 226//118 223//118
f 222//119 212//119 227//119 226//119
f 234//120 231//120 242//120 241//120
f 230//121 229//121 235//121 236//121
f 225//122 224//122 230//122 231//122
f 228//123 225//123 231//123 234//123
f 226//124 227//124 233//124 232//124
f 224//125 223//125 229//125 230//125
f 238//126 237//126 245//126 246//126
f 229//127 232//127 238//127 235//127
f 231//128 230//128 236//128 237//128
f 232//129 231//129 237//129 238//129
f 241//130 242//130 254//130 253//130
f 232//131 233//131 240//131 239//131
f 233//132 234//132 241//132 240//132
f 231//133 232//133 239//133 242//133
f 246//134 245//134 249//134 250//134
f 237//135 236//135 244//135 245//135
f 235//136 238//136 246//136 243//136
f 236//137 235//137 243//137 244//137
f 248//138 247//138 250//138 249//138
f 245//139 244//139 248//139 249//139
f 243//140 246//140 250//140 247//140
f 244//141 243//141 247//141 248//141
f 254//142 251//142 252//142 253//142
f 239//143 240//143 252//143 251//143
f 242//144 239//144 251//144 254//144
f 240//145 241//145 253//145 252//145
