# Blender v2.91.2 OBJ File: 'camionnete02.blend'
# www.blender.org
mtllib arme_000046.mtl
o Cube.046_Cube.010
v 226.294586 475.477722 -1124.974854
v 170.837524 262.190735 -1121.463623
v 302.023590 452.400818 -1330.672852
v 246.566498 239.113876 -1327.161621
v 26.873596 526.027405 -1204.064209
v -28.583511 312.740479 -1200.552734
v 102.602600 502.950500 -1409.761963
v 47.145493 289.663574 -1406.250732
v 122.030777 507.249939 -841.769531
v 66.573700 293.963074 -838.258118
v -132.847260 344.512756 -917.347168
v -77.390182 557.799683 -920.858643
v 74.844604 521.629028 -713.600281
v 19.387482 308.342041 -710.089050
v -180.033524 358.891785 -789.178101
v -124.576447 572.178711 -792.689514
v 46.969070 530.123474 -637.883911
v 11.439247 373.518005 -647.920532
v -187.981812 424.067810 -727.009644
v -152.451965 580.673218 -716.972900
v 138.297882 502.292908 -885.954712
v 82.840790 289.005981 -882.443298
v -61.123131 552.842590 -965.043884
v -116.580254 339.555664 -961.532471
v 275.288910 460.547729 -1258.055176
v 219.831818 247.260757 -1254.543945
v 75.867889 511.097351 -1337.144287
v 20.410828 297.810425 -1333.632812
v 202.313080 477.675720 -1370.217529
v 146.855988 264.388733 -1366.706299
v 126.584122 500.752563 -1164.519531
v 71.127014 287.465576 -1161.008057
v 22.320312 532.524841 -881.314026
v -33.136795 319.237915 -877.802612
v -24.865898 546.903870 -753.144897
v -73.498528 342.172791 -736.289734
v -52.741409 555.398376 -677.428406
v -78.858040 386.121155 -694.369324
v -16.869720 314.280823 -921.987854
v 38.587357 527.567749 -925.499268
v 120.121307 272.535583 -1294.088379
v 175.578400 485.822571 -1297.599609
v 252.168365 465.038269 -1350.445068
v 120.982269 274.828186 -1141.235840
v 16.718445 306.600464 -858.030396
v -39.881012 333.651306 -722.957214
v -45.240524 377.599670 -681.036804
v 88.442627 514.930298 -905.726929
v 225.433624 473.185120 -1277.827637
v 196.711273 251.751328 -1346.934082
v 176.439331 488.115173 -1144.747314
v 72.175522 519.887329 -861.541748
v 24.989319 534.266479 -733.372681
v -2.886169 542.760925 -657.656067
v 32.985519 301.643372 -902.215698
v 169.976501 259.898193 -1274.316162
v 22.601959 261.708313 -901.558167
v -27.253311 274.345764 -921.330444
v 159.592926 219.963120 -1273.658691
v 109.737732 232.600540 -1293.430908
v 60.743408 247.530563 -1160.350586
v 110.598694 234.893082 -1140.578369
v 330.223541 383.915466 -1186.618896
v 308.558746 390.517334 -1127.771973
v 284.036316 296.204041 -1126.219238
v 305.700989 289.602173 -1185.066162
v 373.317352 372.992004 -1169.528076
v 351.652557 379.593872 -1110.681396
v 327.130066 285.280579 -1109.128662
v 348.794830 278.678650 -1167.975342
v 439.264679 356.275513 -1143.374023
v 417.599823 362.877441 -1084.527100
v 393.077362 268.564148 -1082.974365
v 414.742035 261.962219 -1141.821289
v 481.700897 345.518616 -1126.543945
v 460.036102 352.120544 -1067.697266
v 435.513641 257.807251 -1066.144653
v 457.178375 251.205399 -1124.991211
v 445.495697 175.939621 -2022.690918
v 395.640472 188.577057 -2042.463135
v 451.097382 401.864075 -2045.974609
v 500.952728 389.226562 -2026.202393
vn 0.9048 -0.2293 0.3588
vn 0.3436 -0.1047 -0.9333
vn -0.9048 0.2293 -0.3588
vn 0.2516 0.9677 -0.0159
vn -0.2516 -0.9677 0.0159
vn -0.4163 -0.6536 0.6320
vn -0.3330 -0.9428 0.0171
vn -0.4428 0.0141 0.8965
vn -0.9054 0.2290 -0.3576
vn 0.9054 -0.2290 0.3576
vn 0.6719 -0.1865 -0.7168
vn -0.3308 -0.0155 0.9436
vn -0.2255 -0.9723 0.0613
vn -0.3760 -0.0347 0.9260
vn -0.2737 -0.9587 0.0773
vn -0.3436 0.1047 0.9333
vn 0.0402 0.0060 0.9992
vn 0.2894 -0.9336 0.2113
vn 0.7091 0.6805 0.1847
usemtl Matériau.011
s off
f 25//1 26//1 4//1 3//1
f 29//2 30//2 8//2 7//2
f 27//3 28//3 6//3 5//3
f 22//1 21//1 9//1 10//1
f 42//4 27//4 5//4 31//4
f 56//5 26//5 2//5 44//5
f 10//1 9//1 13//1 14//1
f 55//5 22//5 10//5 45//5
f 23//3 24//3 11//3 12//3
f 46//6 14//6 18//6 47//6
f 45//7 10//7 14//7 46//7
f 12//3 11//3 15//3 16//3
f 33//4 12//4 16//4 35//4
f 54//8 47//8 18//8 17//8
f 16//9 15//9 19//9 20//9
f 14//10 13//10 17//10 18//10
f 5//3 6//3 24//3 23//3
f 44//5 2//5 22//5 55//5
f 31//4 5//4 23//4 40//4
f 2//1 1//1 21//1 22//1
f 50//5 4//5 26//5 56//5
f 29//4 7//4 27//4 42//4
f 7//3 8//3 28//3 27//3
f 26//11 25//11 63//11 66//11
f 43//4 29//4 42//4 49//4
f 8//5 30//5 41//5 28//5
f 51//4 31//4 40//4 48//4
f 6//5 32//5 39//5 24//5
f 20//12 19//12 38//12 37//12
f 52//4 33//4 35//4 53//4
f 11//13 34//13 36//13 15//13
f 15//6 36//6 38//6 19//6
f 24//5 39//5 34//5 11//5
f 28//5 41//5 32//5 6//5
f 49//4 42//4 31//4 51//4
f 30//3 29//3 81//3 80//3
f 3//2 4//2 50//2 43//2
f 25//4 49//4 51//4 1//4
f 9//4 52//4 53//4 13//4
f 1//4 51//4 48//4 21//4
f 3//4 43//4 49//4 25//4
f 30//5 50//5 56//5 41//5
f 32//3 41//3 60//3 61//3
f 37//14 38//14 47//14 54//14
f 34//15 45//15 46//15 36//15
f 36//6 46//6 47//6 38//6
f 39//5 55//5 45//5 34//5
f 55//16 39//16 58//16 57//16
f 61//5 62//5 57//5 58//5
f 60//5 59//5 62//5 61//5
f 39//3 32//3 61//3 58//3
f 44//1 55//1 57//1 62//1
f 41//2 56//2 59//2 60//2
f 56//1 44//1 62//1 59//1
f 66//2 63//2 67//2 70//2
f 1//17 2//17 65//17 64//17
f 2//18 26//18 66//18 65//18
f 25//19 1//19 64//19 63//19
f 69//5 70//5 74//5 73//5
f 64//16 65//16 69//16 68//16
f 65//5 66//5 70//5 69//5
f 63//4 64//4 68//4 67//4
f 73//5 74//5 78//5 77//5
f 67//4 68//4 72//4 71//4
f 70//2 67//2 71//2 74//2
f 68//16 69//16 73//16 72//16
f 76//1 77//1 78//1 75//1
f 71//4 72//4 76//4 75//4
f 74//2 71//2 75//2 78//2
f 82//2 79//2 80//2 81//2
f 50//5 30//5 80//5 79//5
f 43//1 50//1 79//1 82//1
f 29//4 43//4 82//4 81//4
o Cube.048_Cube.024
v -563.087341 455.960480 181.731659
v -724.764526 340.308044 44.317734
v -423.880463 492.095276 -12.467415
v -586.199585 379.056763 -147.701965
v -682.049744 645.671692 58.492317
v -764.946045 586.373474 -11.963600
v -610.674438 664.199036 -41.078979
v -693.059692 605.681091 -111.108101
v -406.332214 489.867218 -438.493256
v -295.593658 528.825256 -391.144897
v -328.157837 649.014954 -413.875183
v -438.896362 610.056885 -461.223602
v -307.638306 497.835236 -631.074646
v -226.220856 526.478088 -596.262939
v -250.162720 614.844238 -612.974731
v -331.580200 586.201355 -647.786438
v -244.603638 505.384766 -751.222351
v -185.104797 526.316528 -725.782532
v -202.601166 590.893372 -737.995300
v -262.099884 569.961609 -763.435181
v -486.118896 597.513184 -14.687317
v -657.394043 478.002380 -158.215851
v -634.007202 559.093384 191.467682
v -805.647339 436.314087 45.585930
v -306.166504 589.779724 -406.143463
v -423.729187 548.421021 -456.409637
v -227.942017 570.395630 -620.706848
v -314.376709 539.987793 -657.663818
v -180.870850 557.596558 -755.819641
v -244.036194 535.374878 -782.827209
v -205.085693 496.299133 -836.171326
v -145.586853 517.230896 -810.731384
v -138.804199 553.373535 -850.730347
v -201.969635 531.151855 -877.737854
v -220.425171 564.991150 -856.814514
v -160.926392 585.922913 -831.374634
v -177.027039 491.038483 -897.466125
v -117.528381 511.970276 -872.026245
v -110.745850 548.112854 -912.025208
v -173.911133 525.891235 -939.032776
v -192.366669 559.730469 -918.109497
v -132.867920 580.662170 -892.669495
v -142.979309 468.306488 -925.998962
v -104.682495 481.779358 -909.624329
v -100.316833 505.042755 -935.369934
v -140.973450 490.739685 -952.753479
v -165.999390 557.964478 -983.926331
v -184.455017 591.803711 -963.002869
v -124.956177 612.735535 -937.563110
v -102.834229 580.186157 -956.918579
v -120.687805 451.654236 -945.367188
v -94.869141 460.737244 -934.327942
v -91.926025 476.420837 -951.684998
v -119.335632 466.778076 -963.404358
v -100.404236 444.829163 -972.414856
v -84.264709 450.507050 -965.514099
v -82.424866 460.310974 -976.364075
v -99.558838 454.283203 -983.690125
v -154.553162 584.529602 -1000.214783
v -166.824524 607.029724 -986.302551
v -127.263000 620.947571 -969.387268
v -112.553650 599.304993 -982.257141
v -302.130096 475.322693 470.326599
v -295.877197 296.212891 308.221191
v -153.401611 599.862244 323.630676
v -155.072144 430.681366 165.078735
v -462.598206 555.196045 288.116425
v -459.392151 463.361511 205.000458
v -387.051514 623.563965 217.685760
v -387.197510 532.307190 131.607300
v 0.259216 709.768738 -79.438957
v 81.725891 735.013672 13.839989
v 9.356812 831.224915 50.745018
v -71.537415 806.686401 -41.035561
v 110.261719 858.005249 -192.650543
v 170.841248 875.789917 -124.277473
v 118.054749 947.045898 -96.042336
v 57.475159 929.261414 -164.415680
v 179.287292 952.741943 -261.398987
v 223.557983 965.738647 -211.432648
v 184.982239 1017.811646 -190.798798
v 140.711609 1004.814880 -240.765076
v -259.831879 643.231201 291.767426
v -263.728363 460.318604 117.041733
v -419.848450 507.710846 441.099945
v -413.210205 317.563721 269.005096
v 52.119690 786.599792 32.228783
v -35.354004 760.919800 -66.498634
v 155.830750 923.550354 -119.497810
v 91.518005 904.669678 -192.084290
v 219.339050 1008.859375 -216.058655
v 172.340393 995.061768 -269.103912
v 228.753479 1007.806519 -319.549438
v 273.024109 1020.803223 -269.583069
v 270.495178 1074.354614 -278.419342
v 223.496399 1060.556885 -331.464813
v 191.607971 1068.706909 -302.478851
v 235.878662 1081.703613 -252.512573
v 263.547852 1048.406494 -360.938080
v 307.818665 1061.403198 -310.971802
v 305.289734 1114.954712 -319.808228
v 258.290833 1101.156982 -372.853455
v 226.402344 1109.306885 -343.867554
v 270.673035 1122.303589 -293.901337
v 306.587341 1056.790527 -384.758667
v 335.082458 1065.155884 -352.597656
v 333.454651 1099.624512 -358.285278
v 303.203674 1090.743530 -392.428192
v 258.861389 1154.971924 -387.356812
v 226.972900 1163.121826 -358.370972
v 271.243591 1176.118408 -308.404633
v 305.860229 1168.769653 -334.311554
v 335.496765 1061.385010 -401.860779
v 354.707214 1067.024658 -380.178558
v 353.610046 1090.262573 -384.013153
v 333.215515 1084.275269 -407.031311
v 359.801697 1077.686523 -420.112335
v 371.810364 1081.211914 -406.558563
v 371.124329 1095.738159 -408.955231
v 358.375671 1091.995361 -423.344360
v 261.471985 1187.576416 -381.685120
v 240.268799 1192.995361 -362.411987
v 269.704956 1201.637085 -329.188782
v 292.721924 1196.750732 -346.414429
vn 0.4692 -0.8667 0.1694
vn -0.3133 0.9172 -0.2463
vn -0.4695 0.8657 -0.1736
vn -0.4308 -0.3738 0.8214
vn 0.3601 0.8360 0.4140
vn -0.6361 -0.5231 -0.5672
vn -0.2246 0.9419 -0.2497
vn 0.8433 0.4056 0.3528
vn -0.7923 -0.0776 -0.6051
vn 0.4739 -0.8803 0.0241
vn -0.8548 -0.1996 -0.4790
vn 0.9226 0.2258 0.3128
vn -0.8566 -0.2356 -0.4590
vn 0.2883 -0.9514 0.1084
vn 0.8570 0.3656 0.3633
vn 0.2942 -0.9511 0.0946
vn -0.2182 0.9398 -0.2630
vn 0.9346 0.1877 0.3022
vn 0.8747 0.4089 0.2604
vn 0.2416 -0.9466 0.2137
vn -0.8159 -0.3858 -0.4306
vn 0.8819 0.3760 0.2844
vn -0.7949 -0.4207 -0.4372
vn -0.6467 -0.4719 -0.5992
vn 0.5722 0.7536 0.3236
vn -0.8082 -0.0075 -0.5888
vn 0.6967 0.4240 0.5786
vn -0.7428 0.4057 0.5325
vn -0.2499 0.9483 -0.1958
vn -0.8607 -0.3565 -0.3634
vn -0.2626 0.9502 -0.1678
vn 0.8878 0.2538 0.3839
vn -0.8591 -0.3608 -0.3630
vn -0.8894 -0.2488 -0.3834
vn 0.8517 0.3436 0.3956
vn 0.0058 -0.7788 0.6273
vn 0.8866 0.2582 0.3837
vn 0.8570 0.3680 0.3607
vn -0.8891 -0.2463 -0.3858
vn 0.2499 -0.9483 0.1958
vn 0.1715 0.5253 -0.8334
vn -0.7277 -0.4977 -0.4719
vn 0.9631 0.0971 0.2511
vn 0.1844 0.5025 -0.8447
vn 0.8450 0.5295 0.0754
vn -0.8960 -0.2712 -0.3517
vn -0.4631 0.7577 0.4597
vn 0.4631 -0.7577 -0.4597
vn -0.0516 0.8271 -0.5598
vn 0.9539 0.1237 0.2735
vn -0.7519 -0.4764 -0.4558
vn -0.0081 -0.7628 0.6466
vn 0.4757 -0.6912 -0.5439
vn 0.9509 0.1316 0.2802
vn -0.7591 -0.4697 -0.4507
vn 0.1695 -0.9179 0.3588
vn 0.1419 0.5754 -0.8054
vn -0.7829 -0.0432 -0.6207
vn 0.4836 -0.5994 -0.6378
vn -0.4162 0.8727 0.2554
vn 0.8020 -0.3989 0.4447
vn -0.6154 0.7587 -0.2135
vn -0.8025 0.3976 -0.4448
vn -0.3462 -0.6362 0.6895
vn -0.3737 0.8447 0.3832
vn 0.0758 -0.7629 -0.6421
vn -0.5276 0.8113 0.2517
vn 0.3771 0.6358 0.6734
vn -0.3767 -0.2035 -0.9037
vn 0.8160 -0.5556 0.1596
vn -0.6604 -0.0401 -0.7498
vn 0.7333 0.1762 0.6567
vn -0.6511 -0.0800 -0.7547
vn 0.6073 -0.7166 -0.3429
vn 0.6143 0.2371 0.7526
vn 0.6115 -0.7055 -0.3583
vn -0.5181 0.8192 0.2459
vn 0.7585 0.1594 0.6319
vn 0.6264 0.3377 0.7026
vn 0.5478 -0.7882 -0.2804
vn -0.5614 -0.2011 -0.8028
vn 0.6317 0.3088 0.7110
vn -0.5284 -0.2184 -0.8205
vn -0.1033 -0.5457 -0.8316
vn -0.0650 0.8208 0.5676
vn -0.3682 -0.4690 -0.8028
vn 0.0553 0.7208 0.6909
vn -0.9559 -0.2148 0.2004
vn -0.5581 0.7765 0.2925
vn -0.6212 -0.2311 -0.7488
vn -0.5737 0.7576 0.3112
vn 0.6817 0.1474 0.7166
vn -0.6181 -0.2342 -0.7504
vn -0.6851 -0.1443 -0.7140
vn 0.6139 0.1993 0.7638
vn 0.2213 -0.9735 0.0572
vn 0.6790 0.1506 0.7185
vn 0.6138 0.2405 0.7519
vn -0.6854 -0.1409 -0.7144
vn 0.5581 -0.7765 -0.2925
vn 0.0592 0.9521 -0.3001
vn -0.4340 -0.2394 -0.8685
vn 0.8240 0.1299 0.5514
vn 0.0808 0.9449 -0.3173
vn 0.5756 0.5370 0.6167
vn -0.6865 -0.1824 -0.7039
vn -0.7591 0.1769 0.6265
vn 0.7591 -0.1769 -0.6265
vn -0.2891 0.9573 0.0071
vn 0.8032 0.1337 0.5805
vn -0.4660 -0.2389 -0.8519
vn 0.2005 -0.9767 0.0764
vn 0.7557 -0.0717 -0.6509
vn 0.7968 0.1348 0.5891
vn -0.4757 -0.2386 -0.8466
vn 0.4542 -0.8735 -0.1753
vn 0.0102 0.9655 -0.2602
vn -0.6357 0.1814 -0.7503
vn 0.7398 0.0574 -0.6704
vn -0.7349 0.4011 0.5468
usemtl Matériau.012
s off
f 83//20 84//20 86//20 85//20
f 90//21 89//21 93//21 94//21
f 89//22 90//22 88//22 87//22
f 105//23 106//23 84//23 83//23
f 103//24 89//24 87//24 105//24
f 104//25 86//25 84//25 106//25
f 94//26 93//26 97//26 98//26
f 103//27 85//27 92//27 107//27
f 104//28 90//28 94//28 108//28
f 85//29 86//29 91//29 92//29
f 110//30 98//30 102//30 112//30
f 107//31 92//31 96//31 109//31
f 108//32 94//32 98//32 110//32
f 92//33 91//33 95//33 96//33
f 101//34 111//34 115//34 118//34
f 96//35 95//35 99//35 100//35
f 98//36 97//36 101//36 102//36
f 109//37 96//37 100//37 111//37
f 97//38 109//38 111//38 101//38
f 100//39 99//39 113//39 114//39
f 91//40 108//40 110//40 95//40
f 93//41 107//41 109//41 97//41
f 95//42 110//42 112//42 99//42
f 86//43 104//43 108//43 91//43
f 89//44 103//44 107//44 93//44
f 90//45 104//45 106//45 88//45
f 85//46 103//46 105//46 83//46
f 87//47 88//47 106//47 105//47
f 117//48 118//48 124//48 123//48
f 113//49 116//49 122//49 119//49
f 102//50 101//50 118//50 117//50
f 111//51 100//51 114//51 115//51
f 99//52 112//52 116//52 113//52
f 112//53 102//53 117//53 116//53
f 124//54 121//54 132//54 131//54
f 120//55 119//55 125//55 126//55
f 115//56 114//56 120//56 121//56
f 118//57 115//57 121//57 124//57
f 116//58 117//58 123//58 122//58
f 114//59 113//59 119//59 120//59
f 128//60 127//60 135//60 136//60
f 119//61 122//61 128//61 125//61
f 121//62 120//62 126//62 127//62
f 122//63 121//63 127//63 128//63
f 131//64 132//64 144//64 143//64
f 122//65 123//65 130//65 129//65
f 123//66 124//66 131//66 130//66
f 121//67 122//67 129//67 132//67
f 136//68 135//68 139//68 140//68
f 127//69 126//69 134//69 135//69
f 125//70 128//70 136//70 133//70
f 126//71 125//71 133//71 134//71
f 138//72 137//72 140//72 139//72
f 135//73 134//73 138//73 139//73
f 133//74 136//74 140//74 137//74
f 134//75 133//75 137//75 138//75
f 144//76 141//76 142//76 143//76
f 129//77 130//77 142//77 141//77
f 132//78 129//78 141//78 144//78
f 130//79 131//79 143//79 142//79
f 145//80 146//80 148//80 147//80
f 152//81 151//81 155//81 156//81
f 151//82 152//82 150//82 149//82
f 167//83 168//83 146//83 145//83
f 165//84 151//84 149//84 167//84
f 166//85 148//85 146//85 168//85
f 156//86 155//86 159//86 160//86
f 165//87 147//87 154//87 169//87
f 166//88 152//88 156//88 170//88
f 147//89 148//89 153//89 154//89
f 172//90 160//90 164//90 174//90
f 169//91 154//91 158//91 171//91
f 170//92 156//92 160//92 172//92
f 154//93 153//93 157//93 158//93
f 163//94 173//94 177//94 180//94
f 158//95 157//95 161//95 162//95
f 160//96 159//96 163//96 164//96
f 171//97 158//97 162//97 173//97
f 159//98 171//98 173//98 163//98
f 162//99 161//99 175//99 176//99
f 153//100 170//100 172//100 157//100
f 155//101 169//101 171//101 159//101
f 157//102 172//102 174//102 161//102
f 148//103 166//103 170//103 153//103
f 151//104 165//104 169//104 155//104
f 152//105 166//105 168//105 150//105
f 147//106 165//106 167//106 145//106
f 149//107 150//107 168//107 167//107
f 179//108 180//108 186//108 185//108
f 175//109 178//109 184//109 181//109
f 164//110 163//110 180//110 179//110
f 173//111 162//111 176//111 177//111
f 161//112 174//112 178//112 175//112
f 174//113 164//113 179//113 178//113
f 186//114 183//114 194//114 193//114
f 182//115 181//115 187//115 188//115
f 177//116 176//116 182//116 183//116
f 180//117 177//117 183//117 186//117
f 178//118 179//118 185//118 184//118
f 176//119 175//119 181//119 182//119
f 190//120 189//120 197//120 198//120
f 181//121 184//121 190//121 187//121
f 183//122 182//122 188//122 189//122
f 184//123 183//123 189//123 190//123
f 193//124 194//124 206//124 205//124
f 184//125 185//125 192//125 191//125
f 185//126 186//126 193//126 192//126
f 183//127 184//127 191//127 194//127
f 198//128 197//128 201//128 202//128
f 189//129 188//129 196//129 197//129
f 187//130 190//130 198//130 195//130
f 188//131 187//131 195//131 196//131
f 200//132 199//132 202//132 201//132
f 197//133 196//133 200//133 201//133
f 195//134 198//134 202//134 199//134
f 196//135 195//135 199//135 200//135
f 206//136 203//136 204//136 205//136
f 191//137 192//137 204//137 203//137
f 194//138 191//138 203//138 206//138
f 192//139 193//139 205//139 204//139
