# Blender v2.91.2 OBJ File: 'camionnete02.blend'
# www.blender.org
mtllib arme_000019.mtl
o Cube.046_Cube.010
v 310.935425 399.476379 -1064.638306
v 275.642212 183.357574 -1039.614990
v 406.510468 361.301666 -1259.541260
v 371.217163 145.182861 -1234.518188
v 115.490074 419.834900 -1164.466797
v 80.196770 203.716125 -1139.443481
v 211.065063 381.660217 -1359.369751
v 175.771759 165.541412 -1334.346558
v 179.347626 452.035309 -796.295349
v 144.054352 235.916534 -771.272095
v -51.391033 256.275116 -871.100525
v -16.097755 472.393951 -896.123779
v 119.795525 475.821747 -674.852539
v 84.502190 259.702911 -649.829285
v -110.943207 280.061493 -749.657715
v -75.649918 496.180328 -774.680908
v 84.614754 489.873627 -603.109619
v 64.969902 330.302765 -596.818481
v -130.475555 350.661407 -696.646851
v -110.830666 510.232330 -702.937927
v 199.877747 443.835114 -838.161743
v 164.584473 227.716400 -813.138489
v 4.432350 464.193756 -937.990234
v -30.860962 248.074982 -912.966919
v 372.769470 374.778534 -1190.734497
v 337.476257 158.659698 -1165.711304
v 177.324097 395.137054 -1290.562866
v 142.030853 179.018280 -1265.539673
v 308.787750 371.480988 -1309.455566
v 273.494507 155.362091 -1284.432373
v 213.212799 409.655701 -1114.552490
v 177.919464 193.536804 -1089.529175
v 81.624931 462.214630 -846.209534
v 46.331642 246.095825 -821.186157
v 22.072807 486.001068 -724.766724
v -8.444313 280.550476 -687.046509
v -13.107933 500.052948 -653.023743
v -21.614994 328.156189 -651.301270
v 66.861748 237.895660 -863.052673
v 102.155052 454.014435 -888.075989
v 239.753540 168.838989 -1215.625488
v 275.046814 384.957855 -1240.648682
v 357.649109 366.391327 -1284.498291
v 226.780823 188.447205 -1064.572144
v 95.192970 241.006195 -796.229187
v 24.503021 277.118500 -670.217896
v 11.332336 324.724213 -634.472595
v 151.016418 448.924835 -863.118835
v 323.908203 379.868134 -1215.691772
v 322.355835 150.272491 -1259.475098
v 262.074097 404.566010 -1089.595581
v 130.486267 457.124969 -821.252502
v 70.934135 480.911407 -699.809631
v 35.753410 494.963348 -628.066650
v 115.723106 232.806000 -838.095581
v 288.614807 163.749329 -1190.668457
v 109.114937 192.340729 -833.410339
v 60.253563 197.430359 -858.367371
v 282.006653 123.284035 -1185.983276
v 233.145355 128.373688 -1210.940186
v 171.311279 153.071564 -1084.843872
v 220.172668 147.981873 -1059.886963
v 428.070984 312.807953 -1106.503418
v 400.728546 323.729095 -1050.744995
v 385.122345 228.163544 -1039.679810
v 412.464661 217.242432 -1095.438477
v 470.305725 308.408569 -1084.931274
v 442.963257 319.329712 -1029.172607
v 427.356995 223.764221 -1018.107544
v 454.699280 212.843109 -1073.866089
v 534.938293 301.676178 -1051.918701
v 507.595886 312.597321 -996.160095
v 491.989502 217.031769 -985.095093
v 519.331848 206.110657 -1040.853760
v 576.528564 297.343903 -1030.675537
v 549.186157 308.265015 -974.916992
v 533.579895 212.699524 -963.851929
v 560.922180 201.778412 -1019.610474
v 636.338135 24.861641 -1899.768677
v 587.476807 29.951271 -1924.725830
v 622.769958 246.070099 -1949.749023
v 671.631409 240.980469 -1924.791870
vn 0.8867 -0.0924 0.4529
vn 0.4336 -0.1732 -0.8843
vn -0.8867 0.0924 -0.4529
vn 0.1601 0.9805 -0.1135
vn -0.1601 -0.9805 0.1135
vn -0.4078 -0.6177 0.6724
vn -0.2432 -0.9642 0.1054
vn -0.5203 0.0692 0.8512
vn -0.8874 0.0921 -0.4517
vn 0.8874 -0.0921 0.4517
vn 0.7476 -0.1956 -0.6347
vn -0.4106 0.0569 0.9100
vn -0.1378 -0.9773 0.1611
vn -0.4521 0.0313 0.8914
vn -0.1883 -0.9670 0.1715
vn -0.4336 0.1732 0.8843
vn -0.0497 0.1229 0.9912
vn 0.3557 -0.8687 0.3446
vn 0.6228 0.7668 0.1552
usemtl Matériau.011
s off
f 25//1 26//1 4//1 3//1
f 29//2 30//2 8//2 7//2
f 27//3 28//3 6//3 5//3
f 22//1 21//1 9//1 10//1
f 42//4 27//4 5//4 31//4
f 56//5 26//5 2//5 44//5
f 10//1 9//1 13//1 14//1
f 55//5 22//5 10//5 45//5
f 23//3 24//3 11//3 12//3
f 46//6 14//6 18//6 47//6
f 45//7 10//7 14//7 46//7
f 12//3 11//3 15//3 16//3
f 33//4 12//4 16//4 35//4
f 54//8 47//8 18//8 17//8
f 16//9 15//9 19//9 20//9
f 14//10 13//10 17//10 18//10
f 5//3 6//3 24//3 23//3
f 44//5 2//5 22//5 55//5
f 31//4 5//4 23//4 40//4
f 2//1 1//1 21//1 22//1
f 50//5 4//5 26//5 56//5
f 29//4 7//4 27//4 42//4
f 7//3 8//3 28//3 27//3
f 26//11 25//11 63//11 66//11
f 43//4 29//4 42//4 49//4
f 8//5 30//5 41//5 28//5
f 51//4 31//4 40//4 48//4
f 6//5 32//5 39//5 24//5
f 20//12 19//12 38//12 37//12
f 52//4 33//4 35//4 53//4
f 11//13 34//13 36//13 15//13
f 15//6 36//6 38//6 19//6
f 24//5 39//5 34//5 11//5
f 28//5 41//5 32//5 6//5
f 49//4 42//4 31//4 51//4
f 30//3 29//3 81//3 80//3
f 3//2 4//2 50//2 43//2
f 25//4 49//4 51//4 1//4
f 9//4 52//4 53//4 13//4
f 1//4 51//4 48//4 21//4
f 3//4 43//4 49//4 25//4
f 30//5 50//5 56//5 41//5
f 32//3 41//3 60//3 61//3
f 37//14 38//14 47//14 54//14
f 34//15 45//15 46//15 36//15
f 36//6 46//6 47//6 38//6
f 39//5 55//5 45//5 34//5
f 55//16 39//16 58//16 57//16
f 61//5 62//5 57//5 58//5
f 60//5 59//5 62//5 61//5
f 39//3 32//3 61//3 58//3
f 44//1 55//1 57//1 62//1
f 41//2 56//2 59//2 60//2
f 56//1 44//1 62//1 59//1
f 66//2 63//2 67//2 70//2
f 1//17 2//17 65//17 64//17
f 2//18 26//18 66//18 65//18
f 25//19 1//19 64//19 63//19
f 69//5 70//5 74//5 73//5
f 64//16 65//16 69//16 68//16
f 65//5 66//5 70//5 69//5
f 63//4 64//4 68//4 67//4
f 73//5 74//5 78//5 77//5
f 67//4 68//4 72//4 71//4
f 70//2 67//2 71//2 74//2
f 68//16 69//16 73//16 72//16
f 76//1 77//1 78//1 75//1
f 71//4 72//4 76//4 75//4
f 74//2 71//2 75//2 78//2
f 82//2 79//2 80//2 81//2
f 50//5 30//5 80//5 79//5
f 43//1 50//1 79//1 82//1
f 29//4 43//4 82//4 81//4
o Cube.048_Cube.024
v -563.931091 470.877319 182.275452
v -727.701355 342.737732 59.161186
v -422.977570 479.154022 -13.839699
v -587.213623 352.829285 -135.711243
v -677.697998 646.391968 35.367226
v -761.667542 580.691223 -27.756866
v -605.427185 650.635681 -65.186485
v -689.127747 585.463623 -128.124329
v -378.856934 425.621948 -436.001740
v -276.920166 480.940704 -385.293427
v -318.462769 593.770386 -424.869934
v -420.399628 538.451660 -475.578339
v -264.590637 421.986023 -619.908081
v -189.644470 462.657593 -582.626038
v -220.187469 545.612488 -611.723694
v -295.133728 504.940918 -649.005676
v -192.094727 422.417053 -734.842957
v -137.325012 452.139282 -707.597717
v -159.645508 512.761658 -728.861877
v -214.415161 483.039429 -756.107178
v -482.688873 584.880066 -29.706596
v -656.459717 451.032623 -159.192596
v -632.386902 576.045227 178.491608
v -806.249084 440.009338 47.790703
v -291.787292 538.386597 -408.339539
v -400.005859 479.658997 -462.172699
v -193.294678 503.118958 -612.270264
v -272.859375 459.941101 -651.849670
v -133.386597 480.098145 -740.784851
v -191.531494 448.544312 -769.708984
v -144.492004 407.945374 -814.749329
v -89.722229 437.667603 -787.504272
v -82.825623 469.571381 -830.941589
v -140.970398 438.017517 -859.865662
v -164.308899 471.906281 -844.688171
v -109.539185 501.628510 -817.443115
v -110.717224 398.735870 -872.598267
v -55.947510 428.458160 -845.353210
v -49.050903 460.361877 -888.790466
v -107.195862 428.808044 -917.714478
v -130.534302 462.696747 -902.536926
v -75.764587 492.418945 -875.291870
v -72.281799 376.580261 -895.445007
v -37.029053 395.711121 -877.908508
v -32.589966 416.246185 -905.867249
v -70.015259 395.936401 -924.484192
v -98.362122 456.255005 -965.414978
v -121.700562 490.143677 -950.237610
v -66.930847 519.865906 -922.992432
v -40.217285 487.808807 -936.490784
v -46.890625 360.248657 -910.869080
v -23.124084 373.146118 -899.046448
v -20.131531 386.990204 -917.895386
v -45.362488 373.297974 -930.446533
v -23.728516 352.553101 -935.238708
v -8.871765 360.615540 -927.848206
v -7.000977 369.269653 -939.631042
v -22.773193 360.710449 -947.476868
v -88.053711 481.853912 -983.867126
v -103.571777 504.386963 -973.775208
v -67.154724 524.149658 -955.659485
v -49.392456 502.834442 -964.634949
v -298.497864 594.736206 362.289398
v -293.331604 354.099182 340.732819
v -155.891235 624.082886 151.919769
v -157.452148 374.821411 141.974335
v -463.903015 549.028809 172.863159
v -461.254089 425.647430 161.810516
v -392.252594 563.732178 67.609428
v -391.584961 436.272308 59.901485
v -12.311462 342.509216 -166.929810
v 31.464417 437.561035 -240.277374
v -74.718506 433.475403 -309.024200
v -118.492493 338.097351 -235.695618
v 69.498596 207.832886 -315.458923
v 101.924683 275.992188 -369.900879
v 23.857971 272.748444 -420.459106
v -8.568115 204.589111 -366.017059
v 119.707397 124.955139 -410.728180
v 143.404053 174.765137 -450.513763
v 86.353821 172.394592 -487.460846
v 62.657227 122.584717 -447.675446
v -265.871765 634.283569 99.138298
v -267.503632 369.768066 88.540047
v -417.241028 603.234741 322.431610
v -411.756409 347.768829 299.546661
v -17.598389 432.059570 -281.013031
v -64.419983 333.641113 -202.401581
v 71.779175 263.644958 -408.215668
v 37.354980 191.285583 -350.418762
v 126.970337 156.643616 -486.571075
v 101.813599 103.764221 -444.333893
v 162.019287 61.115234 -465.451752
v 185.715942 110.925293 -505.237335
v 168.563293 85.929871 -550.328735
v 143.406555 33.050598 -508.091522
v 104.360901 52.927429 -510.044464
v 128.057373 102.737427 -549.830017
v 191.308594 15.185303 -505.509552
v 215.005127 64.995178 -545.294983
v 197.852661 39.999878 -590.386536
v 172.695862 -12.879517 -548.149231
v 133.650024 6.997559 -550.102112
v 157.346558 56.807495 -589.887573
v 233.968201 -3.157654 -523.780029
v 249.220703 28.902710 -549.388306
v 238.180481 12.814270 -578.411560
v 221.988098 -21.221680 -551.225342
v 159.720947 -42.807251 -593.345520
v 120.675232 -22.930054 -595.298340
v 144.371765 26.879639 -635.083923
v 184.877808 10.072144 -635.582764
v 263.230896 -16.198669 -534.868835
v 273.513733 5.415588 -552.133057
v 266.070801 -5.431030 -571.700012
v 255.154236 -28.377075 -553.371765
v 284.844910 -34.590393 -554.469116
v 291.272766 -21.078979 -565.261230
v 286.619995 -27.859009 -577.492615
v 279.796082 -42.203003 -566.035461
v 150.281006 -46.999023 -624.894775
v 124.318970 -33.782593 -626.193298
v 140.075134 -0.663208 -652.647156
v 167.008057 -11.838684 -652.978821
vn 0.4475 -0.8486 0.2823
vn -0.3262 0.8641 -0.3833
vn -0.4477 0.8477 -0.2846
vn -0.4435 -0.2578 0.8584
vn 0.3783 0.8726 0.3090
vn -0.6469 -0.5778 -0.4976
vn -0.2889 0.8793 -0.3786
vn 0.8213 0.4569 0.3417
vn -0.7708 -0.1552 -0.6179
vn 0.4837 -0.8605 0.1597
vn -0.7862 -0.3399 -0.5160
vn 0.8658 0.3540 0.3536
vn -0.7865 -0.3734 -0.4920
vn 0.3655 -0.8980 0.2449
vn 0.7831 0.4911 0.3815
vn 0.3725 -0.8987 0.2316
vn -0.2811 0.8764 -0.3911
vn 0.8822 0.3165 0.3487
vn 0.8058 0.5241 0.2759
vn 0.3094 -0.8862 0.3448
vn -0.7345 -0.5144 -0.4425
vn 0.8139 0.4951 0.3041
vn -0.7098 -0.5474 -0.4432
vn -0.6146 -0.5495 -0.5659
vn 0.5562 0.7929 0.2490
vn -0.8073 -0.0600 -0.5871
vn 0.7040 0.4769 0.5263
vn -0.7353 0.4864 0.4719
vn -0.3193 0.8891 -0.3280
vn -0.7877 -0.4825 -0.3831
vn -0.3346 0.8929 -0.3015
vn 0.8224 0.3861 0.4179
vn -0.7857 -0.4866 -0.3820
vn -0.8245 -0.3813 -0.4181
vn 0.7771 0.4725 0.4158
vn 0.0229 -0.6982 0.7156
vn 0.8208 0.3904 0.4171
vn 0.7832 0.4931 0.3787
vn -0.8241 -0.3791 -0.4208
vn 0.3193 -0.8891 0.3280
vn 0.1950 0.4428 -0.8751
vn -0.6329 -0.6205 -0.4630
vn 0.9235 0.2241 0.3112
vn 0.2109 0.4203 -0.8825
vn 0.7815 0.6193 0.0759
vn -0.8317 -0.4006 -0.3845
vn -0.5713 0.7527 0.3273
vn 0.5713 -0.7527 -0.3273
vn -0.0789 0.7488 -0.6581
vn 0.9099 0.2520 0.3295
vn -0.6603 -0.6001 -0.4515
vn 0.0060 -0.6817 0.7316
vn 0.5850 -0.6952 -0.4177
vn 0.9056 0.2602 0.3349
vn -0.6685 -0.5937 -0.4479
vn 0.2223 -0.8490 0.4794
vn 0.1585 0.4924 -0.8558
vn -0.7170 -0.1939 -0.6696
vn 0.5926 -0.6142 -0.5211
vn -0.5173 0.8481 0.1148
vn 0.8280 -0.0299 0.5599
vn -0.7580 -0.0450 -0.6507
vn -0.8275 0.0310 -0.5607
vn -0.3228 -0.0913 0.9421
vn -0.4447 0.8775 -0.1796
vn 0.0722 -0.9959 -0.0545
vn -0.8037 -0.0856 -0.5889
vn 0.2238 0.9154 -0.3346
vn -0.3484 -0.9348 -0.0688
vn 0.8983 -0.0377 0.4378
vn -0.4014 -0.7940 0.4565
vn 0.4398 0.6745 -0.5930
vn -0.3790 -0.7851 0.4899
vn 0.8688 -0.0181 0.4949
vn 0.2958 0.7296 -0.6166
vn 0.8740 -0.0283 0.4852
vn -0.7965 -0.0977 -0.5967
vn 0.4827 0.6619 -0.5735
vn 0.2874 0.6538 -0.7000
vn 0.8225 0.0604 0.5655
vn -0.2462 -0.7796 0.5759
vn 0.3233 0.6695 -0.6688
vn -0.2061 -0.7859 0.5830
vn 0.0175 -0.9922 0.1234
vn -0.1609 0.8537 -0.4953
vn -0.3790 -0.8573 -0.3485
vn 0.0197 0.9883 0.1510
vn -0.9484 -0.0484 0.3134
vn -0.8312 -0.0470 -0.5539
vn -0.3049 -0.7290 0.6129
vn -0.8442 -0.0260 -0.5354
vn 0.3950 0.7334 -0.5532
vn -0.3007 -0.7290 0.6149
vn -0.3997 -0.7324 0.5511
vn 0.3046 0.7516 -0.5851
vn 0.4981 0.3840 0.7774
vn 0.3910 0.7338 -0.5555
vn 0.2944 0.7279 -0.6193
vn -0.4010 -0.7339 0.5483
vn 0.8312 0.0470 0.5539
vn -0.1737 -0.5628 -0.8081
vn -0.1011 -0.8102 0.5774
vn 0.5723 0.6053 -0.5532
vn -0.1474 -0.5735 -0.8058
vn 0.1990 0.5046 -0.8401
vn -0.3914 -0.7115 0.5835
vn -0.9080 0.4187 -0.0166
vn 0.9080 -0.4187 0.0166
vn -0.5711 -0.3290 -0.7521
vn 0.5447 0.6283 -0.5555
vn -0.1347 -0.7997 0.5851
vn 0.4752 0.3999 0.7837
vn 0.8776 -0.4742 -0.0710
vn 0.5363 0.6350 -0.5560
vn -0.1449 -0.7963 0.5873
vn 0.7377 0.1708 0.6532
vn -0.2328 -0.5369 -0.8109
vn -0.4493 -0.8581 0.2485
vn 0.8267 -0.5342 -0.1764
vn -0.9373 0.2793 -0.2086
usemtl Matériau.012
s off
f 83//20 84//20 86//20 85//20
f 90//21 89//21 93//21 94//21
f 89//22 90//22 88//22 87//22
f 105//23 106//23 84//23 83//23
f 103//24 89//24 87//24 105//24
f 104//25 86//25 84//25 106//25
f 94//26 93//26 97//26 98//26
f 103//27 85//27 92//27 107//27
f 104//28 90//28 94//28 108//28
f 85//29 86//29 91//29 92//29
f 110//30 98//30 102//30 112//30
f 107//31 92//31 96//31 109//31
f 108//32 94//32 98//32 110//32
f 92//33 91//33 95//33 96//33
f 101//34 111//34 115//34 118//34
f 96//35 95//35 99//35 100//35
f 98//36 97//36 101//36 102//36
f 109//37 96//37 100//37 111//37
f 97//38 109//38 111//38 101//38
f 100//39 99//39 113//39 114//39
f 91//40 108//40 110//40 95//40
f 93//41 107//41 109//41 97//41
f 95//42 110//42 112//42 99//42
f 86//43 104//43 108//43 91//43
f 89//44 103//44 107//44 93//44
f 90//45 104//45 106//45 88//45
f 85//46 103//46 105//46 83//46
f 87//47 88//47 106//47 105//47
f 117//48 118//48 124//48 123//48
f 113//49 116//49 122//49 119//49
f 102//50 101//50 118//50 117//50
f 111//51 100//51 114//51 115//51
f 99//52 112//52 116//52 113//52
f 112//53 102//53 117//53 116//53
f 124//54 121//54 132//54 131//54
f 120//55 119//55 125//55 126//55
f 115//56 114//56 120//56 121//56
f 118//57 115//57 121//57 124//57
f 116//58 117//58 123//58 122//58
f 114//59 113//59 119//59 120//59
f 128//60 127//60 135//60 136//60
f 119//61 122//61 128//61 125//61
f 121//62 120//62 126//62 127//62
f 122//63 121//63 127//63 128//63
f 131//64 132//64 144//64 143//64
f 122//65 123//65 130//65 129//65
f 123//66 124//66 131//66 130//66
f 121//67 122//67 129//67 132//67
f 136//68 135//68 139//68 140//68
f 127//69 126//69 134//69 135//69
f 125//70 128//70 136//70 133//70
f 126//71 125//71 133//71 134//71
f 138//72 137//72 140//72 139//72
f 135//73 134//73 138//73 139//73
f 133//74 136//74 140//74 137//74
f 134//75 133//75 137//75 138//75
f 144//76 141//76 142//76 143//76
f 129//77 130//77 142//77 141//77
f 132//78 129//78 141//78 144//78
f 130//79 131//79 143//79 142//79
f 145//80 146//80 148//80 147//80
f 152//81 151//81 155//81 156//81
f 151//82 152//82 150//82 149//82
f 167//83 168//83 146//83 145//83
f 165//84 151//84 149//84 167//84
f 166//85 148//85 146//85 168//85
f 156//86 155//86 159//86 160//86
f 165//87 147//87 154//87 169//87
f 166//88 152//88 156//88 170//88
f 147//89 148//89 153//89 154//89
f 172//90 160//90 164//90 174//90
f 169//91 154//91 158//91 171//91
f 170//92 156//92 160//92 172//92
f 154//93 153//93 157//93 158//93
f 163//94 173//94 177//94 180//94
f 158//95 157//95 161//95 162//95
f 160//96 159//96 163//96 164//96
f 171//97 158//97 162//97 173//97
f 159//98 171//98 173//98 163//98
f 162//99 161//99 175//99 176//99
f 153//100 170//100 172//100 157//100
f 155//101 169//101 171//101 159//101
f 157//102 172//102 174//102 161//102
f 148//103 166//103 170//103 153//103
f 151//104 165//104 169//104 155//104
f 152//105 166//105 168//105 150//105
f 147//106 165//106 167//106 145//106
f 149//107 150//107 168//107 167//107
f 179//108 180//108 186//108 185//108
f 175//109 178//109 184//109 181//109
f 164//110 163//110 180//110 179//110
f 173//111 162//111 176//111 177//111
f 161//112 174//112 178//112 175//112
f 174//113 164//113 179//113 178//113
f 186//114 183//114 194//114 193//114
f 182//115 181//115 187//115 188//115
f 177//116 176//116 182//116 183//116
f 180//117 177//117 183//117 186//117
f 178//118 179//118 185//118 184//118
f 176//119 175//119 181//119 182//119
f 190//120 189//120 197//120 198//120
f 181//121 184//121 190//121 187//121
f 183//122 182//122 188//122 189//122
f 184//123 183//123 189//123 190//123
f 193//124 194//124 206//124 205//124
f 184//125 185//125 192//125 191//125
f 185//126 186//126 193//126 192//126
f 183//127 184//127 191//127 194//127
f 198//128 197//128 201//128 202//128
f 189//129 188//129 196//129 197//129
f 187//130 190//130 198//130 195//130
f 188//131 187//131 195//131 196//131
f 200//132 199//132 202//132 201//132
f 197//133 196//133 200//133 201//133
f 195//134 198//134 202//134 199//134
f 196//135 195//135 199//135 200//135
f 206//136 203//136 204//136 205//136
f 191//137 192//137 204//137 203//137
f 194//138 191//138 203//138 206//138
f 192//139 193//139 205//139 204//139
