# Blender v2.91.2 OBJ File: 'camionnete02.blend'
# www.blender.org
mtllib arme_000157.mtl
o Cube.046_Cube.010
v 174.323898 906.719177 -1166.043457
v 187.520859 693.715698 -1221.129639
v 235.583710 963.279419 -1370.071045
v 248.780655 750.276001 -1425.157349
v -36.986710 909.813599 -1228.632202
v -23.789795 696.810059 -1283.718262
v 24.273125 966.373779 -1432.659790
v 37.470032 753.370422 -1487.746094
v 89.981232 828.846802 -885.137878
v 103.178185 615.843384 -940.223938
v -108.132401 618.937744 -1002.812622
v -121.329376 831.941162 -947.726562
v 51.810688 793.604431 -758.009521
v 65.007614 580.601074 -813.095764
v -146.302994 583.695374 -875.684448
v -159.499985 796.698792 -820.598206
v 29.261185 772.784851 -682.907898
v 42.790276 621.320068 -735.479065
v -168.520370 624.414429 -798.067749
v -182.049454 775.879272 -745.496521
v 103.140259 840.996338 -928.964294
v 116.337212 627.992920 -984.050415
v -108.170395 844.090759 -991.552979
v -94.973450 631.087280 -1046.639160
v 213.957062 943.311890 -1298.043091
v 227.154007 730.308472 -1353.129272
v 2.646484 946.406250 -1360.631714
v 15.843445 733.402832 -1415.717773
v 129.928406 964.826660 -1401.365479
v 143.125336 751.823242 -1456.451782
v 68.668579 908.266418 -1197.337891
v 81.865555 695.262878 -1252.424072
v -15.674042 830.394043 -916.432129
v -2.477112 617.390503 -971.518250
v -53.844620 795.151672 -789.303833
v -35.662857 588.653259 -829.202209
v -76.394104 774.332031 -714.202148
v -50.644073 616.110229 -776.865112
v 10.681877 629.540039 -1015.344788
v -2.515060 842.543518 -960.258667
v 121.498726 731.855652 -1384.423462
v 108.301788 944.859131 -1329.337280
v 182.756088 964.053101 -1385.718262
v 134.693207 694.489319 -1236.776855
v 50.350533 616.617004 -955.871155
v -0.041054 588.131653 -818.651245
v -15.022247 615.588562 -766.314087
v 50.312607 841.769897 -944.611389
v 161.129410 944.085571 -1313.690308
v 195.953033 751.049622 -1440.804565
v 121.496208 907.492798 -1181.690796
v 37.153580 829.620361 -900.785034
v -1.016991 794.378052 -773.656738
v -23.566467 773.558472 -698.555054
v 63.509544 628.766479 -999.697632
v 174.326324 731.082092 -1368.776489
v 65.980515 588.884460 -1010.011719
v 13.152847 589.658081 -1025.658936
v 176.797272 691.200073 -1379.090576
v 123.969681 691.973755 -1394.737793
v 84.336479 655.380920 -1262.738159
v 137.164139 654.607300 -1247.091064
v 295.662720 872.393799 -1250.207031
v 278.137268 856.212891 -1191.838135
v 283.972961 762.024902 -1216.196533
v 301.498230 778.205872 -1274.565674
v 341.325775 871.725220 -1236.682007
v 323.800354 855.544189 -1178.313110
v 329.635925 761.356323 -1202.671631
v 347.161316 777.537231 -1261.040527
v 411.204895 870.701965 -1215.984375
v 393.679443 854.520996 -1157.615479
v 399.515015 760.333008 -1181.974121
v 417.040344 776.514038 -1240.343018
v 456.171204 870.043457 -1202.665771
v 438.645813 853.862549 -1144.296875
v 444.481384 759.674561 -1168.655396
v 462.006775 775.855591 -1227.024292
v 397.203491 936.861206 -2111.073730
v 344.375824 937.634766 -2126.721191
v 331.178711 1150.638306 -2071.634766
v 384.006470 1149.864624 -2055.987793
vn 0.9587 -0.0140 0.2840
vn 0.2779 0.2566 -0.9257
vn -0.9587 0.0140 -0.2840
vn -0.0599 0.9664 0.2499
vn 0.0599 -0.9664 -0.2499
vn -0.1399 -0.8927 0.4283
vn -0.0248 -0.9699 -0.2421
vn -0.3474 -0.3613 0.8653
vn -0.9591 0.0132 -0.2829
vn 0.9591 -0.0132 0.2829
vn 0.6328 0.2304 -0.7393
vn -0.2281 -0.3648 0.9027
vn 0.0900 -0.9741 -0.2075
vn -0.2665 -0.3921 0.8805
vn 0.0415 -0.9812 -0.1885
vn -0.2779 -0.2566 0.9257
vn 0.1218 -0.2414 0.9627
vn 0.5789 -0.8137 -0.0518
vn 0.4791 0.7982 0.3651
usemtl Matériau.011
s off
f 25//1 26//1 4//1 3//1
f 29//2 30//2 8//2 7//2
f 27//3 28//3 6//3 5//3
f 22//1 21//1 9//1 10//1
f 42//4 27//4 5//4 31//4
f 56//5 26//5 2//5 44//5
f 10//1 9//1 13//1 14//1
f 55//5 22//5 10//5 45//5
f 23//3 24//3 11//3 12//3
f 46//6 14//6 18//6 47//6
f 45//7 10//7 14//7 46//7
f 12//3 11//3 15//3 16//3
f 33//4 12//4 16//4 35//4
f 54//8 47//8 18//8 17//8
f 16//9 15//9 19//9 20//9
f 14//10 13//10 17//10 18//10
f 5//3 6//3 24//3 23//3
f 44//5 2//5 22//5 55//5
f 31//4 5//4 23//4 40//4
f 2//1 1//1 21//1 22//1
f 50//5 4//5 26//5 56//5
f 29//4 7//4 27//4 42//4
f 7//3 8//3 28//3 27//3
f 26//11 25//11 63//11 66//11
f 43//4 29//4 42//4 49//4
f 8//5 30//5 41//5 28//5
f 51//4 31//4 40//4 48//4
f 6//5 32//5 39//5 24//5
f 20//12 19//12 38//12 37//12
f 52//4 33//4 35//4 53//4
f 11//13 34//13 36//13 15//13
f 15//6 36//6 38//6 19//6
f 24//5 39//5 34//5 11//5
f 28//5 41//5 32//5 6//5
f 49//4 42//4 31//4 51//4
f 30//3 29//3 81//3 80//3
f 3//2 4//2 50//2 43//2
f 25//4 49//4 51//4 1//4
f 9//4 52//4 53//4 13//4
f 1//4 51//4 48//4 21//4
f 3//4 43//4 49//4 25//4
f 30//5 50//5 56//5 41//5
f 32//3 41//3 60//3 61//3
f 37//14 38//14 47//14 54//14
f 34//15 45//15 46//15 36//15
f 36//6 46//6 47//6 38//6
f 39//5 55//5 45//5 34//5
f 55//16 39//16 58//16 57//16
f 61//5 62//5 57//5 58//5
f 60//5 59//5 62//5 61//5
f 39//3 32//3 61//3 58//3
f 44//1 55//1 57//1 62//1
f 41//2 56//2 59//2 60//2
f 56//1 44//1 62//1 59//1
f 66//2 63//2 67//2 70//2
f 1//17 2//17 65//17 64//17
f 2//18 26//18 66//18 65//18
f 25//19 1//19 64//19 63//19
f 69//5 70//5 74//5 73//5
f 64//16 65//16 69//16 68//16
f 65//5 66//5 70//5 69//5
f 63//4 64//4 68//4 67//4
f 73//5 74//5 78//5 77//5
f 67//4 68//4 72//4 71//4
f 70//2 67//2 71//2 74//2
f 68//16 69//16 73//16 72//16
f 76//1 77//1 78//1 75//1
f 71//4 72//4 76//4 75//4
f 74//2 71//2 75//2 78//2
f 82//2 79//2 80//2 81//2
f 50//5 30//5 80//5 79//5
f 43//1 50//1 79//1 82//1
f 29//4 43//4 82//4 81//4
o Cube.048_Cube.024
v -516.812866 519.700928 157.859436
v -665.320557 363.363922 48.764328
v -386.943024 537.972656 -45.112320
v -534.491638 380.125916 -155.534698
v -660.913147 669.427429 9.039391
v -737.057190 589.269043 -46.896706
v -594.325317 678.795898 -95.029915
v -670.010376 598.236694 -150.399292
v -370.992493 539.827637 -502.943268
v -273.930634 598.317017 -446.546234
v -343.631958 703.407593 -435.576599
v -440.693787 644.918152 -491.973541
v -296.370544 628.594604 -685.819031
v -225.008545 671.597290 -644.354614
v -276.254547 748.862183 -636.289429
v -347.616608 705.859558 -677.753845
v -249.221344 686.790649 -799.203613
v -197.070953 718.216553 -768.901917
v -234.520844 774.680725 -763.007996
v -286.671265 743.254883 -793.309631
v -461.905945 632.955933 -62.699112
v -618.442444 465.794006 -177.916748
v -599.889343 613.685486 152.758789
v -757.548462 447.714478 36.940933
v -303.944550 654.409424 -444.310760
v -406.987671 592.315796 -504.183136
v -242.211304 717.435364 -655.850647
v -317.970947 671.782715 -699.870117
v -205.229095 755.886108 -789.225342
v -260.593109 722.523682 -821.394287
v -216.245087 713.180725 -883.326416
v -164.094604 744.606445 -853.024719
v -172.182007 790.110107 -881.594543
v -227.546143 756.747681 -913.763428
v -253.635132 776.274658 -884.411194
v -201.484680 807.700439 -854.109619
v -193.280304 733.257874 -943.671692
v -141.129944 764.683716 -913.370117
v -149.217346 810.187256 -941.939880
v -204.581451 776.824829 -974.108704
v -230.670319 796.351746 -944.756531
v -178.519958 827.777649 -914.454895
v -156.472168 730.801819 -977.275818
v -122.905212 751.029114 -957.772034
v -128.110596 780.317749 -976.161194
v -163.745972 758.843872 -996.866882
v -210.768555 820.250977 -1008.497864
v -236.857483 839.777954 -979.145691
v -184.707031 871.203674 -948.843933
v -155.404358 853.613281 -976.328918
v -131.889160 727.759583 -1000.422424
v -109.259277 741.396240 -987.273499
v -112.768616 761.141907 -999.670959
v -136.793091 746.664673 -1013.630066
v -112.882874 735.031494 -1028.269531
v -98.736633 743.556030 -1020.049988
v -100.930420 755.899231 -1027.799805
v -115.948303 746.849365 -1036.525879
v -209.466248 852.347168 -1016.875061
v -226.813171 865.330811 -997.358337
v -192.137756 886.226257 -977.210388
v -172.654053 874.530273 -995.485535
v -208.236206 507.994934 350.577179
v -344.540771 308.917908 364.250183
v -106.073303 425.889496 146.277863
v -243.107056 225.534485 161.380859
v -388.574341 547.865479 173.888748
v -458.461548 445.793121 180.899292
v -327.867432 505.168091 66.196869
v -406.453674 403.040100 76.882492
v -215.932007 73.445312 -65.865700
v -122.812134 64.799561 17.412468
v -38.505554 65.839966 -74.411232
v -128.916077 73.322815 -157.794250
v -206.910034 -142.441589 -80.112892
v -139.618103 -151.057800 -16.405540
v -75.641968 -151.147827 -83.993385
v -142.933960 -142.531616 -147.700836
v -198.388550 -277.764282 -89.115730
v -149.212524 -284.060730 -42.559204
v -102.459656 -284.126648 -91.951485
v -151.635742 -277.830017 -138.508026
v -183.234680 489.351562 93.816826
v -340.936493 280.081360 111.922501
v -303.916748 579.947998 312.777740
v -448.620911 368.603149 327.293335
v -78.458008 55.731140 -22.861977
v -175.624146 68.172424 -114.852028
v -106.837341 -170.148193 -49.423737
v -178.275940 -161.000916 -117.056938
v -126.165283 -311.334229 -67.530678
v -178.371765 -304.649658 -116.956123
v -207.208282 -371.420532 -92.466301
v -158.032166 -377.716919 -45.909874
v -131.698242 -414.767700 -75.675316
v -183.904663 -408.083130 -125.100700
v -157.674011 -379.760742 -145.915680
v -108.497864 -386.057251 -99.359200
v -212.627991 -438.734863 -95.845528
v -163.451965 -445.031494 -49.288994
v -137.118103 -482.082520 -79.054466
v -189.324585 -475.397827 -128.479797
v -163.093750 -447.075439 -149.294891
v -113.917664 -453.371582 -102.738426
v -224.008667 -480.973633 -71.835518
v -192.356323 -485.026489 -41.869148
v -175.406433 -508.874512 -61.027855
v -209.009277 -504.571777 -92.840767
v -167.108276 -517.393677 -157.625977
v -140.877380 -489.071045 -178.441132
v -91.701416 -495.367798 -131.884460
v -114.901855 -524.078247 -108.200523
v -233.159424 -509.282227 -55.580605
v -211.820312 -512.014404 -35.378105
v -200.393127 -528.092529 -48.294319
v -223.047302 -525.191650 -69.741859
v -236.130676 -542.994507 -48.927376
v -222.791199 -544.702515 -36.298576
v -215.647919 -554.752563 -44.372810
v -229.809387 -552.939209 -57.779686
v -142.250671 -536.362427 -168.776306
v -124.809509 -517.530396 -182.616486
v -92.111755 -521.717041 -151.660431
v -107.537903 -540.807129 -135.912659
vn 0.5777 -0.7572 0.3047
vn -0.4962 0.8275 -0.2627
vn -0.5777 0.7571 -0.3051
vn -0.3649 -0.2743 0.8897
vn 0.2612 0.9321 0.2508
vn -0.5815 -0.6895 -0.4318
vn -0.5234 0.8519 0.0172
vn 0.7617 0.5620 0.3223
vn -0.7817 -0.2363 -0.5772
vn 0.6548 -0.7556 0.0198
vn -0.7900 -0.3298 -0.5169
vn 0.8320 0.4185 0.3643
vn -0.7790 -0.3684 -0.5074
vn 0.5746 -0.8035 -0.1556
vn 0.7312 0.5119 0.4510
vn 0.5788 -0.7978 -0.1688
vn -0.5177 0.8555 0.0038
vn 0.8541 0.3904 0.3437
vn 0.7259 0.5837 0.3639
vn 0.5379 -0.8414 -0.0531
vn -0.6918 -0.4998 -0.5212
vn 0.7448 0.5499 0.3780
vn -0.6618 -0.5231 -0.5371
vn -0.5703 -0.5924 -0.5691
vn 0.4292 0.8529 0.2973
vn -0.8137 -0.2042 -0.5443
vn 0.6489 0.5990 0.4691
vn -0.7775 0.4000 0.4853
vn -0.5447 0.8357 0.0707
vn -0.7376 -0.5047 -0.4486
vn -0.5549 0.8261 0.0982
vn 0.7965 0.4144 0.4403
vn -0.7346 -0.5083 -0.4494
vn -0.7995 -0.4105 -0.4384
vn 0.7357 0.4818 0.4760
vn 0.2982 -0.8711 0.3903
vn 0.7940 0.4182 0.4413
vn 0.7303 0.5147 0.4492
vn -0.8002 -0.4075 -0.4401
vn 0.5447 -0.8357 -0.0708
vn -0.0700 0.7502 -0.6575
vn -0.5774 -0.5629 -0.5913
vn 0.9046 0.3301 0.2698
vn -0.0517 0.7363 -0.6746
vn 0.6449 0.7323 0.2189
vn -0.7961 -0.4413 -0.4140
vn -0.6322 0.4236 0.6487
vn 0.6322 -0.4236 -0.6487
vn -0.3507 0.8829 -0.3122
vn 0.8896 0.3456 0.2986
vn -0.6055 -0.5553 -0.5701
vn 0.2818 -0.8660 0.4131
vn 0.6166 -0.3371 -0.7115
vn 0.8849 0.3501 0.3072
vn -0.6139 -0.5529 -0.5634
vn 0.4731 -0.8759 0.0942
vn -0.1110 0.7791 -0.6170
vn -0.7819 -0.1275 -0.6102
vn 0.5878 -0.2266 -0.7766
vn -0.6405 0.5965 0.4837
vn 0.7128 -0.4489 0.5389
vn 0.0960 0.4928 -0.8648
vn -0.6951 0.4573 -0.5547
vn -0.2160 0.2133 0.9528
vn 0.1513 0.9418 -0.3003
vn -0.5192 -0.8499 0.0897
vn 0.6754 -0.0807 -0.7330
vn 0.9559 0.1781 -0.2337
vn -0.8474 -0.3613 -0.3891
vn 0.2225 -0.5528 0.8031
vn -0.6413 -0.0053 -0.7673
vn 0.6462 -0.1679 0.7445
vn -0.6695 0.0119 -0.7427
vn -0.6780 -0.0692 0.7318
vn 0.7640 -0.0914 0.6387
vn -0.6908 -0.0912 0.7173
vn 0.6782 -0.0931 -0.7290
vn 0.6281 -0.1881 0.7551
vn 0.7881 -0.1884 0.5860
vn -0.6844 0.0384 0.7281
vn -0.7783 0.0121 -0.6278
vn 0.7870 -0.1649 0.5945
vn -0.8013 -0.0051 -0.5982
vn -0.7813 -0.6049 0.1537
vn 0.6046 0.4638 -0.6475
vn -0.8366 -0.5058 -0.2104
vn 0.6158 0.7879 0.0028
vn -0.7650 0.5471 0.3399
vn 0.6861 -0.0187 -0.7273
vn -0.7576 0.0934 -0.6460
vn 0.6883 0.0119 -0.7254
vn 0.6832 -0.0920 0.7244
vn -0.7607 0.0929 -0.6425
vn -0.6794 0.0934 -0.7278
vn 0.7492 -0.0614 0.6595
vn -0.5514 0.5196 0.6527
vn 0.6866 -0.0915 0.7213
vn 0.7656 -0.0936 0.6365
vn -0.6776 0.0912 -0.7298
vn -0.6861 0.0187 0.7273
vn 0.3614 -0.7939 -0.4891
vn -0.8476 -0.0706 -0.5259
vn 0.5499 -0.2495 0.7971
vn 0.3444 -0.8107 -0.4734
vn 0.8429 -0.3313 0.4240
vn -0.6953 0.1236 -0.7080
vn 0.5642 0.6510 -0.5079
vn -0.5642 -0.6510 0.5079
vn 0.5883 -0.4368 -0.6805
vn 0.5740 -0.2246 0.7874
vn -0.8358 -0.0441 -0.5473
vn -0.5393 0.5436 0.6431
vn -0.5179 -0.7284 0.4485
vn 0.5811 -0.2171 0.7843
vn -0.8319 -0.0359 -0.5537
vn -0.6598 0.2010 0.7241
vn 0.3986 -0.7535 -0.5229
vn -0.5026 -0.1591 -0.8498
vn -0.4534 -0.8112 0.3692
vn 0.6427 0.4535 -0.6175
usemtl Matériau.012
s off
f 83//20 84//20 86//20 85//20
f 90//21 89//21 93//21 94//21
f 89//22 90//22 88//22 87//22
f 105//23 106//23 84//23 83//23
f 103//24 89//24 87//24 105//24
f 104//25 86//25 84//25 106//25
f 94//26 93//26 97//26 98//26
f 103//27 85//27 92//27 107//27
f 104//28 90//28 94//28 108//28
f 85//29 86//29 91//29 92//29
f 110//30 98//30 102//30 112//30
f 107//31 92//31 96//31 109//31
f 108//32 94//32 98//32 110//32
f 92//33 91//33 95//33 96//33
f 101//34 111//34 115//34 118//34
f 96//35 95//35 99//35 100//35
f 98//36 97//36 101//36 102//36
f 109//37 96//37 100//37 111//37
f 97//38 109//38 111//38 101//38
f 100//39 99//39 113//39 114//39
f 91//40 108//40 110//40 95//40
f 93//41 107//41 109//41 97//41
f 95//42 110//42 112//42 99//42
f 86//43 104//43 108//43 91//43
f 89//44 103//44 107//44 93//44
f 90//45 104//45 106//45 88//45
f 85//46 103//46 105//46 83//46
f 87//47 88//47 106//47 105//47
f 117//48 118//48 124//48 123//48
f 113//49 116//49 122//49 119//49
f 102//50 101//50 118//50 117//50
f 111//51 100//51 114//51 115//51
f 99//52 112//52 116//52 113//52
f 112//53 102//53 117//53 116//53
f 124//54 121//54 132//54 131//54
f 120//55 119//55 125//55 126//55
f 115//56 114//56 120//56 121//56
f 118//57 115//57 121//57 124//57
f 116//58 117//58 123//58 122//58
f 114//59 113//59 119//59 120//59
f 128//60 127//60 135//60 136//60
f 119//61 122//61 128//61 125//61
f 121//62 120//62 126//62 127//62
f 122//63 121//63 127//63 128//63
f 131//64 132//64 144//64 143//64
f 122//65 123//65 130//65 129//65
f 123//66 124//66 131//66 130//66
f 121//67 122//67 129//67 132//67
f 136//68 135//68 139//68 140//68
f 127//69 126//69 134//69 135//69
f 125//70 128//70 136//70 133//70
f 126//71 125//71 133//71 134//71
f 138//72 137//72 140//72 139//72
f 135//73 134//73 138//73 139//73
f 133//74 136//74 140//74 137//74
f 134//75 133//75 137//75 138//75
f 144//76 141//76 142//76 143//76
f 129//77 130//77 142//77 141//77
f 132//78 129//78 141//78 144//78
f 130//79 131//79 143//79 142//79
f 145//80 146//80 148//80 147//80
f 152//81 151//81 155//81 156//81
f 151//82 152//82 150//82 149//82
f 167//83 168//83 146//83 145//83
f 165//84 151//84 149//84 167//84
f 166//85 148//85 146//85 168//85
f 156//86 155//86 159//86 160//86
f 165//87 147//87 154//87 169//87
f 166//88 152//88 156//88 170//88
f 147//89 148//89 153//89 154//89
f 172//90 160//90 164//90 174//90
f 169//91 154//91 158//91 171//91
f 170//92 156//92 160//92 172//92
f 154//93 153//93 157//93 158//93
f 163//94 173//94 177//94 180//94
f 158//95 157//95 161//95 162//95
f 160//96 159//96 163//96 164//96
f 171//97 158//97 162//97 173//97
f 159//98 171//98 173//98 163//98
f 162//99 161//99 175//99 176//99
f 153//100 170//100 172//100 157//100
f 155//101 169//101 171//101 159//101
f 157//102 172//102 174//102 161//102
f 148//103 166//103 170//103 153//103
f 151//104 165//104 169//104 155//104
f 152//105 166//105 168//105 150//105
f 147//106 165//106 167//106 145//106
f 149//107 150//107 168//107 167//107
f 179//108 180//108 186//108 185//108
f 175//109 178//109 184//109 181//109
f 164//110 163//110 180//110 179//110
f 173//111 162//111 176//111 177//111
f 161//112 174//112 178//112 175//112
f 174//113 164//113 179//113 178//113
f 186//114 183//114 194//114 193//114
f 182//115 181//115 187//115 188//115
f 177//116 176//116 182//116 183//116
f 180//117 177//117 183//117 186//117
f 178//118 179//118 185//118 184//118
f 176//119 175//119 181//119 182//119
f 190//120 189//120 197//120 198//120
f 181//121 184//121 190//121 187//121
f 183//122 182//122 188//122 189//122
f 184//123 183//123 189//123 190//123
f 193//124 194//124 206//124 205//124
f 184//125 185//125 192//125 191//125
f 185//126 186//126 193//126 192//126
f 183//127 184//127 191//127 194//127
f 198//128 197//128 201//128 202//128
f 189//129 188//129 196//129 197//129
f 187//130 190//130 198//130 195//130
f 188//131 187//131 195//131 196//131
f 200//132 199//132 202//132 201//132
f 197//133 196//133 200//133 201//133
f 195//134 198//134 202//134 199//134
f 196//135 195//135 199//135 200//135
f 206//136 203//136 204//136 205//136
f 191//137 192//137 204//137 203//137
f 194//138 191//138 203//138 206//138
f 192//139 193//139 205//139 204//139
