# Blender v2.91.2 OBJ File: 'camionnete02.blend'
# www.blender.org
mtllib arme_000212.mtl
o Cube.046_Cube.010
v -105.641815 -132.457458 -1209.013916
v -131.564713 -340.613953 -1141.353027
v -71.152092 -203.624695 -1414.743774
v -97.075020 -411.781250 -1347.083008
v -321.784302 -118.848480 -1249.957031
v -347.707214 -327.005005 -1182.296143
v -287.294525 -190.015686 -1455.686890
v -313.217529 -398.172333 -1388.026001
v -153.127380 -34.474243 -925.764587
v -179.050278 -242.630753 -858.103821
v -395.192688 -229.021774 -899.046814
v -369.269775 -20.865234 -966.707581
v -174.617630 9.869629 -797.575684
v -200.540588 -198.286911 -729.914917
v -416.683044 -184.677933 -770.857849
v -390.760162 23.478607 -838.518677
v -187.313171 36.065964 -721.847412
v -203.883118 -119.737106 -685.252258
v -420.025635 -106.128098 -726.195251
v -403.455658 49.674988 -762.790405
v -148.774887 217.382690 -865.027344
v -364.917358 230.991638 -905.970398
v -161.470398 243.578979 -789.299072
v -377.612854 257.187988 -830.242065
v -145.718719 -49.761414 -969.956726
v -171.641647 -257.917938 -902.295898
v -361.861176 -36.152451 -1010.899719
v -387.784119 -244.308960 -943.238892
v -144.570007 34.239792 -948.099976
v -360.712494 47.848816 -989.043030
v -137.161362 18.952637 -992.291992
v -353.303833 32.561615 -1033.234863
v -132.154694 133.932617 -980.504883
v -348.297119 147.541626 -1021.447876
v -124.746094 118.645416 -1024.697021
v -340.888489 132.254456 -1065.640015
v -165.574615 77.581421 -822.808289
v -381.717072 91.190399 -863.751282
v -153.159271 177.274261 -855.213257
v -369.301758 190.883240 -896.156250
v -124.671280 330.026245 -954.831055
v -340.813782 343.635193 -995.774170
v -137.366821 356.222534 -879.102844
v -353.509247 369.831482 -920.045837
v -83.328079 -178.500458 -1342.114746
v -109.251007 -386.657013 -1274.454102
v -299.470551 -164.891449 -1383.057861
v -325.393372 -373.048035 -1315.396973
v -179.223343 -196.820190 -1435.215210
v -205.146240 -404.976776 -1367.554565
v -213.713058 -125.652954 -1229.485352
v -239.635971 -333.809509 -1161.824585
v -261.198547 -27.669739 -946.236084
v -287.121460 -235.826248 -878.575195
v -282.688873 16.674133 -818.047180
v -300.356537 -179.244751 -741.446289
v -295.384399 42.870468 -742.318848
v -302.610413 -126.278397 -711.330200
v -256.846130 224.187164 -885.498779
v -269.541626 250.383545 -809.770630
v -279.712891 -251.113449 -922.767334
v -253.789978 -42.956940 -990.428223
v -252.641251 41.044312 -968.571472
v -245.232605 25.757111 -1012.763489
v -240.225876 140.737183 -1000.976318
v -232.817291 125.449890 -1045.168457
v -273.645844 84.385910 -843.279785
v -261.230499 184.078796 -875.684692
v -232.742554 336.830719 -975.302612
v -245.438080 363.027039 -899.574341
v -217.322220 -379.852509 -1294.925415
v -191.399292 -171.695953 -1362.586304
v -125.187683 -200.222412 -1424.979492
v -185.600342 -337.211731 -1151.588745
v -233.085907 -239.228516 -868.339539
v -263.920197 -181.538895 -734.544250
v -266.174042 -128.572540 -704.428101
v -199.754318 -46.359177 -980.192383
v -191.197006 22.354813 -1002.527710
v -178.781677 122.047668 -1034.932739
v -137.363663 -175.098206 -1352.350586
v -151.110626 -408.379028 -1357.318726
v -159.677505 -129.055206 -1219.249756
v -207.162994 -31.072037 -936.000366
v -228.653259 13.271896 -807.811401
v -241.348785 39.468231 -732.083130
v -202.810486 220.784943 -875.263062
v -215.506012 246.981262 -799.534790
v -225.677246 -254.515701 -912.531616
v -198.605621 37.642059 -958.335693
v -186.190308 137.334900 -990.740662
v -219.610214 80.983658 -833.044067
v -207.194870 180.676544 -865.448914
v -178.706848 333.428467 -965.066833
v -191.402435 359.624756 -889.338501
v -163.286652 -383.254791 -1284.689819
v -230.530975 -293.490173 -899.863037
v -284.566589 -290.087921 -910.098816
v -168.140396 -422.229248 -1272.021240
v -222.175934 -418.827026 -1282.256958
v -244.489700 -372.784027 -1149.156006
v -190.454041 -376.186218 -1138.920288
v -5.665833 -229.451691 -1268.861572
v -15.532776 -209.091949 -1210.005737
v -26.995483 -301.136627 -1180.086670
v -17.128723 -321.496399 -1238.942749
v 41.041405 -232.392548 -1260.014282
v 31.174500 -212.032776 -1201.158325
v 19.711731 -304.077454 -1171.239380
v 29.578575 -324.437225 -1230.095215
v 112.518356 -236.892944 -1246.474609
v 102.651443 -216.533203 -1187.618774
v 91.188583 -308.577850 -1157.699829
v 101.055435 -328.937653 -1216.555786
v 158.512894 -239.788940 -1237.762207
v 148.645950 -219.429169 -1178.906250
v 137.183212 -311.473846 -1148.987305
v 147.050034 -331.833618 -1207.843262
v -37.804932 -642.176697 -2033.180420
v -91.840561 -638.774475 -2043.416260
v -65.917717 -430.617889 -2111.076904
v -11.882034 -434.020142 -2100.841309
v -205.118011 389.787781 -1015.995544
v -304.699860 396.057678 -1034.858887
v -216.816223 413.926270 -946.215942
v -316.398010 420.196167 -965.079346
v -117.234474 407.656250 -927.352661
v -105.536140 383.517883 -997.132019
v -155.327011 386.653015 -1006.563721
v -167.025330 410.791199 -936.784302
vn 0.9807 -0.0617 0.1858
vn 0.1565 -0.3229 -0.9334
vn -0.9807 0.0617 -0.1858
vn 0.1176 0.9444 -0.3070
vn -0.1176 -0.9444 0.3070
vn -0.1565 0.3229 0.9334
vn -0.1919 -0.4913 0.8496
vn -0.1995 -0.9259 0.3208
vn -0.2488 0.2190 0.9435
vn -0.9809 0.0617 -0.1844
vn 0.9809 -0.0617 0.1844
vn 0.1053 -0.6336 -0.7665
vn 0.1040 -0.6395 -0.7617
vn -0.1053 0.6336 0.7665
vn 0.5298 -0.3211 -0.7850
vn -0.8753 0.3924 -0.2825
vn -0.1267 0.2109 0.9693
vn -0.0824 -0.9350 0.3449
vn -0.0901 0.6999 0.7085
vn -0.1717 0.1846 0.9677
vn -0.1277 -0.9211 0.3677
vn 0.2420 0.2725 0.9312
vn 0.4430 -0.8217 0.3585
vn 0.6392 0.7536 -0.1535
vn 0.9606 -0.1698 0.2198
usemtl Matériau.011
s off
f 45//1 46//1 4//1 3//1
f 49//2 50//2 8//2 7//2
f 47//3 48//3 6//3 5//3
f 26//1 25//1 9//1 10//1
f 72//4 47//4 5//4 51//4
f 96//5 46//5 2//5 74//5
f 10//1 9//1 13//1 14//1
f 84//6 9//6 29//6 90//6
f 89//5 26//5 10//5 75//5
f 27//3 28//3 11//3 12//3
f 76//7 14//7 18//7 77//7
f 75//8 10//8 14//8 76//8
f 12//3 11//3 15//3 16//3
f 53//4 12//4 16//4 55//4
f 86//9 77//9 18//9 17//9
f 16//10 15//10 19//10 20//10
f 16//3 20//3 24//3 22//3
f 14//11 13//11 17//11 18//11
f 59//12 22//12 42//12 69//12
f 86//6 17//6 23//6 88//6
f 17//1 13//1 21//1 23//1
f 55//2 16//2 22//2 59//2
f 5//3 6//3 28//3 27//3
f 74//5 2//5 26//5 89//5
f 51//4 5//4 27//4 62//4
f 2//1 1//1 25//1 26//1
f 32//3 30//3 34//3 36//3
f 62//2 27//2 32//2 64//2
f 27//3 12//3 30//3 32//3
f 9//1 25//1 31//1 29//1
f 66//4 36//4 34//4 65//4
f 90//5 29//5 37//5 92//5
f 64//2 32//2 36//2 66//2
f 29//1 31//1 35//1 33//1
f 92//6 37//6 39//6 93//6
f 29//1 33//1 39//1 37//1
f 34//3 30//3 38//3 40//3
f 65//4 34//4 40//4 68//4
f 69//13 42//13 124//13 123//13
f 23//1 21//1 41//1 43//1
f 88//14 23//14 43//14 95//14
f 22//3 24//3 44//3 42//3
f 82//5 4//5 46//5 96//5
f 49//4 7//4 47//4 72//4
f 7//3 8//3 48//3 47//3
f 46//15 45//15 103//15 106//15
f 73//4 49//4 72//4 81//4
f 8//5 50//5 71//5 48//5
f 24//14 60//14 70//14 44//14
f 42//16 44//16 126//16 124//16
f 91//4 65//4 68//4 93//4
f 38//6 67//6 68//6 40//6
f 79//2 64//2 66//2 80//2
f 30//5 63//5 67//5 38//5
f 80//4 66//4 65//4 91//4
f 78//2 62//2 64//2 79//2
f 83//4 51//4 62//4 78//4
f 6//5 52//5 61//5 28//5
f 85//2 55//2 59//2 87//2
f 20//6 57//6 60//6 24//6
f 87//12 59//12 69//12 94//12
f 20//17 19//17 58//17 57//17
f 84//4 53//4 55//4 85//4
f 11//18 54//18 56//18 15//18
f 15//7 56//7 58//7 19//7
f 28//5 61//5 54//5 11//5
f 12//6 53//6 63//6 30//6
f 48//5 71//5 52//5 6//5
f 81//4 72//4 51//4 83//4
f 50//3 49//3 121//3 120//3
f 3//2 4//2 82//2 73//2
f 45//4 81//4 83//4 1//4
f 9//4 84//4 85//4 13//4
f 21//12 87//12 94//12 41//12
f 13//2 85//2 87//2 21//2
f 1//4 83//4 78//4 25//4
f 25//2 78//2 79//2 31//2
f 35//4 80//4 91//4 33//4
f 31//2 79//2 80//2 35//2
f 33//4 91//4 93//4 39//4
f 70//19 95//19 130//19 125//19
f 3//4 73//4 81//4 45//4
f 50//5 82//5 96//5 71//5
f 60//14 88//14 95//14 70//14
f 67//6 92//6 93//6 68//6
f 63//5 90//5 92//5 67//5
f 52//3 71//3 100//3 101//3
f 57//6 86//6 88//6 60//6
f 57//20 58//20 77//20 86//20
f 54//21 75//21 76//21 56//21
f 56//7 76//7 77//7 58//7
f 61//5 89//5 75//5 54//5
f 53//6 84//6 90//6 63//6
f 89//6 61//6 98//6 97//6
f 101//5 102//5 97//5 98//5
f 100//5 99//5 102//5 101//5
f 61//3 52//3 101//3 98//3
f 74//1 89//1 97//1 102//1
f 71//2 96//2 99//2 100//2
f 96//1 74//1 102//1 99//1
f 106//2 103//2 107//2 110//2
f 1//22 2//22 105//22 104//22
f 2//23 46//23 106//23 105//23
f 45//24 1//24 104//24 103//24
f 109//5 110//5 114//5 113//5
f 104//6 105//6 109//6 108//6
f 105//5 106//5 110//5 109//5
f 103//4 104//4 108//4 107//4
f 113//5 114//5 118//5 117//5
f 107//4 108//4 112//4 111//4
f 110//2 107//2 111//2 114//2
f 108//6 109//6 113//6 112//6
f 116//1 117//1 118//1 115//1
f 111//4 112//4 116//4 115//4
f 114//2 111//2 115//2 118//2
f 122//2 119//2 120//2 121//2
f 82//5 50//5 120//5 119//5
f 73//1 82//1 119//1 122//1
f 49//4 73//4 122//4 121//4
f 123//4 124//4 126//4 125//4
f 129//4 123//4 125//4 130//4
f 128//4 129//4 130//4 127//4
f 95//19 43//19 127//19 130//19
f 94//13 69//13 123//13 129//13
f 43//25 41//25 128//25 127//25
f 44//19 70//19 125//19 126//19
f 41//13 94//13 129//13 128//13
o Cube.048_Cube.024
v -463.679199 590.345886 110.977303
v -622.927917 413.062561 151.077240
v -404.053497 489.029236 -100.155952
v -565.836060 310.454254 -61.438629
v -659.654663 651.709412 -41.201813
v -741.305847 560.811279 -20.641457
v -629.082886 599.761475 -149.455750
v -710.507385 509.028534 -128.786652
v -512.757019 249.893616 -473.892548
v -400.578125 307.715820 -464.140228
v -452.144318 415.013672 -507.160370
v -564.323242 357.191467 -516.912720
v -457.258667 213.678894 -680.047852
v -374.782257 256.191101 -672.877502
v -412.694916 335.078857 -704.506958
v -495.171356 292.566711 -711.677063
v -421.544464 193.668884 -809.623840
v -361.271759 224.736206 -804.383972
v -388.977814 282.386353 -827.498291
v -449.250549 251.319061 -832.738098
v -489.480103 566.705444 -140.534088
v -659.728271 378.816071 -98.890053
v -552.829956 674.371582 83.542953
v -721.892029 486.163483 126.113998
v -421.670349 361.636292 -490.595734
v -540.762085 300.250916 -500.949066
v -387.037476 291.855957 -706.149902
v -474.596405 246.724060 -713.761963
v -367.276642 247.189575 -841.240173
v -431.263519 214.207764 -846.802917
v -399.356262 165.289795 -896.588318
v -339.083588 196.357117 -891.348450
v -345.266357 221.037018 -939.357666
v -409.253387 188.055176 -944.920471
v -427.213074 224.824188 -929.141174
v -366.940186 255.891479 -923.901672
v -383.953644 146.026245 -959.546326
v -323.680908 177.093567 -954.306396
v -329.863861 201.773499 -1002.315613
v -393.850769 168.791687 -1007.878357
v -411.810394 205.560669 -992.099304
v -351.537689 236.627960 -986.859436
v -353.827484 119.035522 -988.770203
v -315.032684 139.032104 -985.397400
v -319.012177 154.917480 -1016.298889
v -360.197815 133.688599 -1019.879333
v -399.417358 188.344360 -1059.776611
v -417.377106 225.113403 -1043.997192
v -357.104370 256.180725 -1038.757324
v -335.430481 221.326233 -1054.213745
v -334.018433 99.480713 -1008.123474
v -307.864105 112.961914 -1005.849548
v -310.547028 123.671387 -1026.682373
v -338.312988 109.359497 -1029.096313
v -318.977295 87.208008 -1036.631714
v -302.627960 95.635132 -1035.210327
v -304.305023 102.329773 -1048.233276
v -321.661896 93.383179 -1049.742310
v -395.016205 210.404999 -1084.189575
v -406.957733 234.853210 -1073.697754
v -366.881653 255.510254 -1070.213745
v -352.470459 232.334991 -1080.490967
v -313.276245 441.910339 476.044220
v -383.814362 250.696960 346.200500
v -141.852234 489.502319 311.458771
v -214.324432 300.205139 181.216614
v -446.314789 546.612061 284.553711
v -482.481628 448.571655 217.979187
v -349.198212 573.218384 201.201691
v -395.579437 473.955811 133.387329
v -120.394714 316.668182 -91.656990
v -63.176819 244.307007 -7.851540
v 47.538025 288.554993 -43.154106
v -6.705322 360.060577 -126.506157
v -85.231445 158.260681 -235.052002
v -44.690063 101.578735 -173.370361
v 38.896912 133.481750 -198.992188
v -1.644409 190.163757 -260.673950
v -60.503357 58.564758 -324.018982
v -30.876282 17.142334 -278.942810
v 30.207825 40.456665 -297.666901
v 0.580872 81.879028 -342.743042
v -217.417206 559.723999 270.073181
v -307.951599 360.164307 129.923950
v -413.001190 510.601807 442.919769
v -487.886047 307.605225 305.074646
v -6.376282 254.891113 -26.498810
v -64.915894 336.736877 -115.563911
v -0.524780 102.294250 -197.414886
v -43.564453 162.469177 -262.897400
v 2.195496 8.095520 -305.831512
v -29.257263 52.070557 -353.685394
v -58.082947 -9.924255 -388.547211
v -28.455933 -51.346558 -343.471039
v 10.364929 -65.441101 -378.777069
v -21.087952 -21.466064 -426.630829
v 7.866516 9.118286 -414.394806
v 37.493591 -32.304138 -369.318634
v -55.142517 -58.690735 -435.293610
v -25.515503 -100.113281 -390.217377
v 13.305298 -114.207764 -425.523468
v -18.147461 -70.232666 -473.377228
v 10.806946 -39.648254 -461.141083
v 40.434021 -81.070801 -416.064911
v -70.055786 -104.268433 -449.091949
v -50.986145 -130.930115 -420.078522
v -25.998962 -140.002319 -442.803406
v -46.243713 -111.697510 -473.604767
v 17.125916 -87.867493 -512.766541
v 46.080261 -57.283142 -500.530304
v 75.707458 -98.705627 -455.454376
v 48.578674 -131.842407 -464.912872
v -81.523254 -134.678223 -458.739410
v -68.667114 -152.652832 -439.179321
v -51.821472 -158.769104 -454.499908
v -65.469910 -139.686646 -475.265350
v -83.275269 -164.242493 -476.416473
v -75.238770 -175.478577 -464.189117
v -64.708313 -179.301636 -473.766144
v -73.240112 -167.373352 -486.746796
v 46.098450 -99.398376 -524.153931
v 65.350647 -79.062500 -516.017883
v 85.050049 -106.604736 -486.046112
v 67.011719 -128.637939 -492.334991
vn 0.7090 -0.5389 0.4548
vn -0.5352 0.6586 -0.5291
vn -0.7107 0.5342 -0.4577
vn -0.0493 0.2623 0.9637
vn 0.2363 0.9003 -0.3656
vn -0.6204 -0.7596 0.1954
vn -0.3890 0.8242 -0.4116
vn 0.8096 0.5463 -0.2148
vn -0.8972 -0.4015 -0.1840
vn 0.6453 -0.7148 0.2697
vn -0.9020 -0.3790 -0.2068
vn 0.9305 0.3651 0.0281
vn -0.8951 -0.4085 -0.1788
vn 0.4233 -0.8660 0.2661
vn 0.8593 0.5083 0.0570
vn 0.4260 -0.8690 0.2516
vn -0.3852 0.8190 -0.4252
vn 0.9448 0.3266 0.0247
vn 0.8500 0.5240 -0.0545
vn 0.3988 -0.8369 0.3749
vn -0.8306 -0.5426 -0.1250
vn 0.8661 0.4993 -0.0256
vn -0.8071 -0.5764 -0.1276
vn -0.6913 -0.7222 -0.0227
vn 0.4676 0.8326 -0.2969
vn -0.9216 -0.3807 -0.0753
vn 0.7013 0.6994 -0.1377
vn -0.6270 0.6577 0.4175
vn -0.4034 0.8427 -0.3565
vn -0.8641 -0.4998 -0.0585
vn -0.4102 0.8511 -0.3277
vn 0.9077 0.4084 0.0964
vn -0.8619 -0.5038 -0.0574
vn -0.9098 -0.4036 -0.0968
vn 0.8636 0.4953 0.0940
vn 0.2328 -0.5830 0.7784
vn 0.9059 0.4125 0.0954
vn 0.8585 0.5099 0.0540
vn -0.9103 -0.4018 -0.0998
vn 0.4034 -0.8427 0.3565
vn -0.0705 0.2973 -0.9522
vn -0.7392 -0.6549 -0.1571
vn 0.9736 0.2279 -0.0082
vn -0.0574 0.2733 -0.9602
vn 0.7680 0.5890 -0.2513
vn -0.9068 -0.4172 -0.0599
vn -0.4524 0.8175 0.3565
vn 0.4524 -0.8175 -0.3565
vn -0.2697 0.6440 -0.7159
vn 0.9659 0.2588 0.0087
vn -0.7621 -0.6319 -0.1416
vn 0.2213 -0.5635 0.7959
vn 0.4389 -0.7749 -0.4549
vn 0.9633 0.2679 0.0137
vn -0.7689 -0.6246 -0.1368
vn 0.3547 -0.7762 0.5213
vn -0.0999 0.3508 -0.9311
vn -0.8810 -0.2610 -0.3946
vn 0.4157 -0.7108 -0.5674
vn -0.4631 0.8774 0.1253
vn 0.6450 -0.5814 0.4959
vn 0.2483 0.9099 -0.3323
vn -0.6248 0.6010 -0.4985
vn -0.5037 -0.3504 0.7896
vn -0.0403 0.9698 0.2406
vn -0.2513 -0.8252 -0.5058
vn 0.8981 0.2873 -0.3330
vn 0.9336 0.3265 0.1476
vn -0.6379 -0.1777 -0.7493
vn 0.1612 -0.9039 0.3961
vn -0.3202 0.5724 -0.7548
vn 0.3452 -0.6928 0.6331
vn -0.3570 0.5748 -0.7363
vn -0.8843 -0.4017 0.2380
vn 0.4899 -0.5861 0.6453
vn -0.8888 -0.4075 0.2097
vn 0.8998 0.2751 -0.3386
vn 0.3318 -0.7114 0.6195
vn 0.5409 -0.6316 0.5554
vn -0.8998 -0.3157 0.3013
vn -0.4991 0.5206 -0.6927
vn 0.5397 -0.6152 0.5747
vn -0.5294 0.4926 -0.6907
vn -0.6253 -0.6716 -0.3975
vn 0.6217 0.7705 -0.1412
vn -0.5688 -0.4164 -0.7093
vn 0.3393 0.7398 0.5810
vn -0.9520 0.1864 0.2427
vn 0.8991 0.3300 -0.2877
vn -0.4816 0.5912 -0.6470
vn 0.8973 0.3520 -0.2663
vn 0.3843 -0.6272 0.6775
vn -0.4856 0.5890 -0.6459
vn -0.3797 0.6297 -0.6777
vn 0.4657 -0.5736 0.6739
vn -0.7976 0.0800 0.5978
vn 0.3885 -0.6253 0.6768
vn 0.4924 -0.5866 0.6430
vn -0.3771 0.6290 -0.6799
vn -0.8991 -0.3300 0.2877
vn 0.5902 -0.3626 -0.7212
vn -0.5916 0.4047 -0.6973
vn 0.2503 -0.7725 0.5836
vn 0.5706 -0.3826 -0.7267
vn 0.6641 -0.6494 0.3705
vn -0.4045 0.6431 -0.6502
vn 0.6401 0.7273 0.2476
vn -0.6401 -0.7273 -0.2476
vn 0.8336 -0.0049 -0.5524
vn 0.2737 -0.7511 0.6008
vn -0.5757 0.4364 -0.6915
vn -0.7854 0.1025 0.6104
vn -0.5681 -0.7572 -0.3224
vn 0.2806 -0.7445 0.6058
vn -0.5706 0.4461 -0.6895
vn -0.8918 -0.1921 0.4096
vn 0.6328 -0.3164 -0.7067
vn -0.1465 0.4839 -0.8628
vn -0.4716 -0.7816 -0.4083
vn 0.7721 0.6314 0.0728
usemtl Matériau.012
s off
f 131//26 132//26 134//26 133//26
f 138//27 137//27 141//27 142//27
f 137//28 138//28 136//28 135//28
f 153//29 154//29 132//29 131//29
f 151//30 137//30 135//30 153//30
f 152//31 134//31 132//31 154//31
f 142//32 141//32 145//32 146//32
f 151//33 133//33 140//33 155//33
f 152//34 138//34 142//34 156//34
f 133//35 134//35 139//35 140//35
f 158//36 146//36 150//36 160//36
f 155//37 140//37 144//37 157//37
f 156//38 142//38 146//38 158//38
f 140//39 139//39 143//39 144//39
f 149//40 159//40 163//40 166//40
f 144//41 143//41 147//41 148//41
f 146//42 145//42 149//42 150//42
f 157//43 144//43 148//43 159//43
f 145//44 157//44 159//44 149//44
f 148//45 147//45 161//45 162//45
f 139//46 156//46 158//46 143//46
f 141//47 155//47 157//47 145//47
f 143//48 158//48 160//48 147//48
f 134//49 152//49 156//49 139//49
f 137//50 151//50 155//50 141//50
f 138//51 152//51 154//51 136//51
f 133//52 151//52 153//52 131//52
f 135//53 136//53 154//53 153//53
f 165//54 166//54 172//54 171//54
f 161//55 164//55 170//55 167//55
f 150//56 149//56 166//56 165//56
f 159//57 148//57 162//57 163//57
f 147//58 160//58 164//58 161//58
f 160//59 150//59 165//59 164//59
f 172//60 169//60 180//60 179//60
f 168//61 167//61 173//61 174//61
f 163//62 162//62 168//62 169//62
f 166//63 163//63 169//63 172//63
f 164//64 165//64 171//64 170//64
f 162//65 161//65 167//65 168//65
f 176//66 175//66 183//66 184//66
f 167//67 170//67 176//67 173//67
f 169//68 168//68 174//68 175//68
f 170//69 169//69 175//69 176//69
f 179//70 180//70 192//70 191//70
f 170//71 171//71 178//71 177//71
f 171//72 172//72 179//72 178//72
f 169//73 170//73 177//73 180//73
f 184//74 183//74 187//74 188//74
f 175//75 174//75 182//75 183//75
f 173//76 176//76 184//76 181//76
f 174//77 173//77 181//77 182//77
f 186//78 185//78 188//78 187//78
f 183//79 182//79 186//79 187//79
f 181//80 184//80 188//80 185//80
f 182//81 181//81 185//81 186//81
f 192//82 189//82 190//82 191//82
f 177//83 178//83 190//83 189//83
f 180//84 177//84 189//84 192//84
f 178//85 179//85 191//85 190//85
f 193//86 194//86 196//86 195//86
f 200//87 199//87 203//87 204//87
f 199//88 200//88 198//88 197//88
f 215//89 216//89 194//89 193//89
f 213//90 199//90 197//90 215//90
f 214//91 196//91 194//91 216//91
f 204//92 203//92 207//92 208//92
f 213//93 195//93 202//93 217//93
f 214//94 200//94 204//94 218//94
f 195//95 196//95 201//95 202//95
f 220//96 208//96 212//96 222//96
f 217//97 202//97 206//97 219//97
f 218//98 204//98 208//98 220//98
f 202//99 201//99 205//99 206//99
f 211//100 221//100 225//100 228//100
f 206//101 205//101 209//101 210//101
f 208//102 207//102 211//102 212//102
f 219//103 206//103 210//103 221//103
f 207//104 219//104 221//104 211//104
f 210//105 209//105 223//105 224//105
f 201//106 218//106 220//106 205//106
f 203//107 217//107 219//107 207//107
f 205//108 220//108 222//108 209//108
f 196//109 214//109 218//109 201//109
f 199//110 213//110 217//110 203//110
f 200//111 214//111 216//111 198//111
f 195//112 213//112 215//112 193//112
f 197//113 198//113 216//113 215//113
f 227//114 228//114 234//114 233//114
f 223//115 226//115 232//115 229//115
f 212//116 211//116 228//116 227//116
f 221//117 210//117 224//117 225//117
f 209//118 222//118 226//118 223//118
f 222//119 212//119 227//119 226//119
f 234//120 231//120 242//120 241//120
f 230//121 229//121 235//121 236//121
f 225//122 224//122 230//122 231//122
f 228//123 225//123 231//123 234//123
f 226//124 227//124 233//124 232//124
f 224//125 223//125 229//125 230//125
f 238//126 237//126 245//126 246//126
f 229//127 232//127 238//127 235//127
f 231//128 230//128 236//128 237//128
f 232//129 231//129 237//129 238//129
f 241//130 242//130 254//130 253//130
f 232//131 233//131 240//131 239//131
f 233//132 234//132 241//132 240//132
f 231//133 232//133 239//133 242//133
f 246//134 245//134 249//134 250//134
f 237//135 236//135 244//135 245//135
f 235//136 238//136 246//136 243//136
f 236//137 235//137 243//137 244//137
f 248//138 247//138 250//138 249//138
f 245//139 244//139 248//139 249//139
f 243//140 246//140 250//140 247//140
f 244//141 243//141 247//141 248//141
f 254//142 251//142 252//142 253//142
f 239//143 240//143 252//143 251//143
f 242//144 239//144 251//144 254//144
f 240//145 241//145 253//145 252//145
