# Blender v2.91.2 OBJ File: 'camionnete02.blend'
# www.blender.org
mtllib arme_000099.mtl
o Cube.046_Cube.010
v 424.954773 826.185181 -880.240479
v 414.536499 629.261597 -978.686890
v 549.790283 902.082520 -1045.270142
v 539.372009 705.159058 -1143.716553
v 243.607986 889.744507 -988.187805
v 233.189682 692.821045 -1086.634277
v 368.443420 965.641968 -1153.217285
v 358.025146 768.718506 -1251.664062
v 253.081131 721.689331 -653.027405
v 242.662857 524.765869 -751.473755
v 61.316010 588.325195 -859.421021
v 71.734314 785.248779 -760.974670
v 175.297028 674.398071 -550.198425
v 164.878708 477.474640 -648.644836
v -16.468149 541.033936 -756.592163
v -6.049839 737.957520 -658.145752
v 129.345627 646.460571 -489.451752
v 129.584015 507.835541 -571.130432
v -51.762886 571.395020 -679.077698
v -52.001247 710.020020 -597.399048
v 279.896606 737.992554 -688.476807
v 269.478271 541.069092 -786.923157
v 98.549759 801.552002 -796.424133
v 88.131424 604.628418 -894.870544
v 505.719482 875.288452 -987.009583
v 495.301208 678.364990 -1085.456055
v 324.372620 938.847778 -1094.956787
v 313.954346 741.924316 -1193.403320
v 459.116821 933.862305 -1099.243652
v 448.698608 736.938721 -1197.690308
v 334.281433 857.964844 -934.214111
v 323.863098 661.041260 -1032.660645
v 162.407730 753.468994 -707.000916
v 151.989410 556.545410 -805.447327
v 84.623596 706.177734 -604.172058
v 75.840607 511.610870 -685.600647
v 38.672226 678.240356 -543.425415
v 52.041298 532.083374 -633.332397
v 178.804855 572.848755 -840.896851
v 189.223160 769.772339 -742.450439
v 404.627747 710.144531 -1139.429565
v 415.046082 907.068115 -1040.983154
v 504.453552 917.972412 -1072.256836
v 369.199768 645.151367 -1005.673706
v 197.326126 540.655640 -778.460571
v 106.411255 500.896332 -667.403381
v 82.611961 521.368774 -615.135132
v 234.559891 753.882446 -715.463562
v 460.382812 891.178345 -1013.996460
v 494.035339 721.048950 -1170.703491
v 379.618103 842.075073 -907.227356
v 207.744431 737.579102 -680.014160
v 129.960281 690.287964 -577.185303
v 84.008919 662.350464 -516.438599
v 224.141586 556.958862 -813.910034
v 449.964478 694.254761 -1112.442871
v 222.190903 520.087646 -832.342712
v 176.854172 535.977417 -859.329529
v 448.013733 657.383545 -1130.875732
v 402.677124 673.273438 -1157.862305
v 321.912415 624.170044 -1051.093262
v 367.249146 608.280151 -1024.106445
v 556.735535 779.876587 -939.182739
v 521.022217 758.163574 -891.970581
v 516.415466 671.085938 -935.502441
v 552.128662 692.799072 -982.714844
v 595.923706 766.141846 -915.856018
v 560.210327 744.428711 -868.643738
v 555.603516 657.351196 -912.175720
v 591.316772 679.064209 -959.387939
v 655.893921 745.123169 -880.158569
v 620.180603 723.410156 -832.946350
v 615.573730 636.332520 -876.478271
v 651.287048 658.045654 -923.690674
v 694.484070 731.597900 -857.187805
v 658.770813 709.884888 -809.975525
v 654.164001 622.807251 -853.507446
v 689.877258 644.520386 -900.719727
v 904.143677 970.386597 -1712.856689
v 858.806946 986.276489 -1739.843750
v 869.225159 1183.200073 -1641.397217
v 914.561951 1167.310181 -1614.410400
vn 0.8228 -0.2884 0.4898
vn 0.5664 0.3444 -0.7488
vn -0.8228 0.2884 -0.4898
vn 0.0473 0.8935 0.4467
vn -0.0473 -0.8935 -0.4467
vn -0.4117 -0.8965 0.1637
vn -0.1299 -0.8784 -0.4600
vn -0.6338 -0.4174 0.6512
vn -0.8236 0.2875 -0.4890
vn 0.8236 -0.2875 0.4890
vn 0.8445 0.2031 -0.4956
vn -0.5324 -0.4554 0.7136
vn -0.0321 -0.9154 -0.4013
vn -0.5673 -0.4685 0.6772
vn -0.0844 -0.9142 -0.3964
vn -0.5664 -0.3444 0.7488
vn -0.1969 -0.4300 0.8811
vn 0.4146 -0.9043 -0.1023
vn 0.4934 0.5860 0.6428
usemtl Matériau.011
s off
f 25//1 26//1 4//1 3//1
f 29//2 30//2 8//2 7//2
f 27//3 28//3 6//3 5//3
f 22//1 21//1 9//1 10//1
f 42//4 27//4 5//4 31//4
f 56//5 26//5 2//5 44//5
f 10//1 9//1 13//1 14//1
f 55//5 22//5 10//5 45//5
f 23//3 24//3 11//3 12//3
f 46//6 14//6 18//6 47//6
f 45//7 10//7 14//7 46//7
f 12//3 11//3 15//3 16//3
f 33//4 12//4 16//4 35//4
f 54//8 47//8 18//8 17//8
f 16//9 15//9 19//9 20//9
f 14//10 13//10 17//10 18//10
f 5//3 6//3 24//3 23//3
f 44//5 2//5 22//5 55//5
f 31//4 5//4 23//4 40//4
f 2//1 1//1 21//1 22//1
f 50//5 4//5 26//5 56//5
f 29//4 7//4 27//4 42//4
f 7//3 8//3 28//3 27//3
f 26//11 25//11 63//11 66//11
f 43//4 29//4 42//4 49//4
f 8//5 30//5 41//5 28//5
f 51//4 31//4 40//4 48//4
f 6//5 32//5 39//5 24//5
f 20//12 19//12 38//12 37//12
f 52//4 33//4 35//4 53//4
f 11//13 34//13 36//13 15//13
f 15//6 36//6 38//6 19//6
f 24//5 39//5 34//5 11//5
f 28//5 41//5 32//5 6//5
f 49//4 42//4 31//4 51//4
f 30//3 29//3 81//3 80//3
f 3//2 4//2 50//2 43//2
f 25//4 49//4 51//4 1//4
f 9//4 52//4 53//4 13//4
f 1//4 51//4 48//4 21//4
f 3//4 43//4 49//4 25//4
f 30//5 50//5 56//5 41//5
f 32//3 41//3 60//3 61//3
f 37//14 38//14 47//14 54//14
f 34//15 45//15 46//15 36//15
f 36//6 46//6 47//6 38//6
f 39//5 55//5 45//5 34//5
f 55//16 39//16 58//16 57//16
f 61//5 62//5 57//5 58//5
f 60//5 59//5 62//5 61//5
f 39//3 32//3 61//3 58//3
f 44//1 55//1 57//1 62//1
f 41//2 56//2 59//2 60//2
f 56//1 44//1 62//1 59//1
f 66//2 63//2 67//2 70//2
f 1//17 2//17 65//17 64//17
f 2//18 26//18 66//18 65//18
f 25//19 1//19 64//19 63//19
f 69//5 70//5 74//5 73//5
f 64//16 65//16 69//16 68//16
f 65//5 66//5 70//5 69//5
f 63//4 64//4 68//4 67//4
f 73//5 74//5 78//5 77//5
f 67//4 68//4 72//4 71//4
f 70//2 67//2 71//2 74//2
f 68//16 69//16 73//16 72//16
f 76//1 77//1 78//1 75//1
f 71//4 72//4 76//4 75//4
f 74//2 71//2 75//2 78//2
f 82//2 79//2 80//2 81//2
f 50//5 30//5 80//5 79//5
f 43//1 50//1 79//1 82//1
f 29//4 43//4 82//4 81//4
o Cube.048_Cube.024
v -565.002380 481.575195 181.668518
v -731.076904 347.034119 68.905556
v -422.014221 467.952454 -12.667229
v -588.414795 331.078247 -130.383911
v -672.466064 645.753601 17.878029
v -757.617065 576.770691 -39.938660
v -599.151978 638.768860 -81.763344
v -684.332703 569.014404 -139.499634
v -340.251953 485.632202 -467.731598
v -253.910278 508.800232 -378.115814
v -303.865540 623.634827 -359.673431
v -390.207184 600.466858 -449.289154
v -202.928101 585.433350 -602.169128
v -139.447815 602.466919 -536.281677
v -176.176086 686.895935 -522.722290
v -239.656403 669.862305 -588.609863
v -116.386169 650.124268 -684.579224
v -69.995483 662.572266 -636.429626
v -96.836121 724.271851 -626.520569
v -143.226685 711.823914 -674.670227
v -478.693665 573.031189 -38.913513
v -655.209473 428.215576 -161.300842
v -630.482666 587.733582 167.401978
v -806.791260 444.901672 47.690224
v -272.782135 569.051392 -370.001038
v -364.444427 544.455688 -465.139252
v -144.245056 652.350464 -540.505554
v -211.637238 634.267151 -610.453308
v -65.264465 704.094666 -648.762512
v -114.513733 690.879578 -699.879395
v -57.082825 682.543701 -750.097168
v -10.692200 694.991638 -701.947388
v -2.188782 745.448120 -720.224548
v -51.438171 732.233093 -771.341492
v -80.730896 751.804199 -745.218689
v -34.340332 764.252075 -697.068909
v -14.987366 707.057251 -796.991943
v 31.403198 719.505188 -748.842163
v 39.906433 769.961670 -767.119263
v -9.342834 756.746643 -818.236145
v -38.635620 776.317627 -792.113281
v 7.754944 788.765564 -743.963562
v 28.667603 702.046509 -820.640686
v 58.527039 710.058655 -789.648865
v 64.000244 742.535339 -801.412903
v 32.300720 734.029419 -834.314697
v 2.203064 805.804138 -842.042725
v -27.089783 825.375183 -815.919922
v 19.300842 837.823242 -767.770264
v 51.452332 819.019226 -790.925842
v 57.767700 697.484924 -837.425110
v 77.898071 702.886475 -816.531128
v 81.587952 724.781250 -824.462158
v 60.217041 719.046814 -846.643555
v 84.768555 704.922180 -857.555115
v 97.352295 708.298828 -844.494202
v 99.658875 721.985535 -849.451904
v 86.299744 718.400818 -863.317810
v 11.527893 837.664368 -842.177063
v -7.949280 850.677246 -824.807495
v 22.896301 858.954163 -792.791992
v 44.274353 846.451233 -808.188721
v -309.710388 606.961243 340.464142
v -302.588531 365.458252 345.273895
v -150.689148 602.041260 157.362549
v -149.542175 366.247040 158.261139
v -457.566315 539.757080 143.100220
v -453.914734 415.931763 145.566315
v -375.802002 543.327637 48.419281
v -375.443665 416.336121 49.679630
v 37.399353 362.697174 -177.856293
v 119.641479 446.159912 -129.983307
v 68.780334 537.368896 -200.489746
v -12.605530 455.337585 -248.140656
v 179.714294 339.810547 -339.455139
v 240.986877 400.030396 -303.673981
v 204.222107 468.141724 -355.348541
v 142.949402 407.921753 -391.129852
v 269.331177 328.294830 -440.954132
v 314.108398 372.302673 -414.805695
v 287.241272 422.077576 -452.568878
v 242.463928 378.069672 -478.717255
v -252.403137 611.477478 95.813286
v -254.392883 354.467224 96.135017
v -424.431152 610.015076 289.565979
v -416.870422 353.629822 294.672119
v 101.889404 492.252136 -166.959198
v 13.414856 405.297729 -218.625458
v 236.576111 431.911255 -342.318268
v 171.527588 367.980377 -380.304291
v 319.457336 392.741638 -452.913849
v 271.920837 346.021820 -480.673553
v 330.993713 305.604492 -508.358856
v 375.770935 349.612549 -482.210358
v 385.135681 372.162903 -530.748779
v 337.599182 325.443115 -558.508606
v 307.525208 357.166229 -554.949158
v 352.302429 401.174194 -528.800720
v 374.783997 290.275024 -557.546570
v 419.561218 334.282959 -531.398254
v 428.926208 356.833374 -579.936890
v 381.389587 310.113525 -607.696716
v 351.315491 341.836731 -604.137024
v 396.092712 385.844696 -577.988647
v 419.196960 270.829163 -569.355896
v 448.018127 299.154999 -552.525452
v 454.045837 313.669617 -583.767517
v 423.448669 283.598267 -601.635315
v 393.977356 327.807068 -659.030823
v 363.903381 359.530334 -655.471191
v 408.680603 403.538177 -629.322815
v 441.513977 374.526855 -631.271057
v 448.831360 256.282928 -577.072388
v 468.261902 275.379517 -565.725647
v 472.325745 285.164673 -586.788391
v 451.697693 264.891602 -598.834290
v 476.539856 247.725647 -595.743530
v 488.685852 259.663208 -588.650330
v 491.226257 265.780273 -601.816833
v 478.331604 253.107025 -609.346863
v 403.454163 350.255463 -681.576477
v 383.457458 371.348663 -679.209595
v 413.230286 400.610107 -661.822998
v 435.061707 381.320160 -663.118347
vn 0.4214 -0.8288 0.3681
vn -0.2810 0.9249 -0.2561
vn -0.4217 0.8271 -0.3715
vn -0.4587 -0.1656 0.8731
vn 0.4006 0.8864 0.2319
vn -0.6685 -0.6044 -0.4334
vn -0.3457 0.9339 0.0916
vn 0.7936 0.4118 0.4479
vn -0.7143 -0.0659 -0.6967
vn 0.5007 -0.8638 0.0564
vn -0.6604 -0.0385 -0.7500
vn 0.7584 0.1405 0.6364
vn -0.6595 -0.0796 -0.7475
vn 0.4412 -0.8751 -0.1989
vn 0.6559 0.2380 0.7163
vn 0.4500 -0.8682 -0.2090
vn -0.3360 0.9384 0.0811
vn 0.7800 0.1121 0.6157
vn 0.6881 0.3233 0.6496
vn 0.3712 -0.9208 -0.1196
vn -0.5971 -0.2232 -0.7705
vn 0.6960 0.2841 0.6595
vn -0.5685 -0.2497 -0.7839
vn -0.5753 -0.4586 -0.6773
vn 0.5155 0.7575 0.4005
vn -0.8085 -0.0812 -0.5828
vn 0.7118 0.5052 0.4880
vn -0.7260 0.5473 0.4162
vn -0.3836 0.9138 0.1333
vn -0.6613 -0.2301 -0.7139
vn -0.4026 0.9022 0.1546
vn 0.7030 0.1314 0.6989
vn -0.6590 -0.2340 -0.7148
vn -0.7057 -0.1273 -0.6970
vn 0.6478 0.2037 0.7340
vn 0.0161 -0.9717 0.2357
vn 0.7011 0.1355 0.7001
vn 0.6561 0.2413 0.7151
vn -0.7053 -0.1240 -0.6980
vn 0.3836 -0.9138 -0.1333
vn 0.2520 0.8501 -0.4625
vn -0.4809 -0.2979 -0.8246
vn 0.8374 0.0558 0.5437
vn 0.2715 0.8356 -0.4776
vn 0.6788 0.5101 0.5283
vn -0.7148 -0.1619 -0.6803
vn -0.7013 0.4380 0.5624
vn 0.7013 -0.4380 -0.5624
vn -0.0853 0.9815 -0.1715
vn 0.8180 0.0690 0.5710
vn -0.5119 -0.2879 -0.8093
vn -0.0048 -0.9670 0.2546
vn 0.7196 -0.3405 -0.6052
vn 0.8120 0.0729 0.5790
vn -0.5213 -0.2847 -0.8045
vn 0.2629 -0.9648 -0.0039
vn 0.2071 0.8802 -0.4271
vn -0.5904 0.1695 -0.7891
vn 0.7304 -0.2165 -0.6478
vn -0.6321 0.6344 0.4450
vn 0.7645 0.0209 0.6443
vn -0.5304 0.3744 -0.7606
vn -0.7650 -0.0218 -0.6437
vn -0.4054 0.0063 0.9141
vn -0.3772 0.8703 -0.3167
vn 0.0770 -0.9953 0.0588
vn -0.3461 0.7081 -0.6155
vn 0.4126 0.9108 0.0130
vn -0.3571 -0.7984 -0.4847
vn 0.7393 -0.2780 0.6133
vn -0.6345 -0.5751 -0.5163
vn 0.7373 0.5665 0.3680
vn -0.6340 -0.6022 -0.4852
vn 0.4468 -0.7395 0.5036
vn 0.6322 0.6910 0.3504
vn 0.4527 -0.7485 0.4846
vn -0.3340 0.7089 -0.6211
vn 0.7590 0.5336 0.3730
vn 0.6670 0.7040 0.2437
vn 0.3707 -0.7233 0.5826
vn -0.5715 -0.7180 -0.3973
vn 0.6668 0.6932 0.2735
vn -0.5425 -0.7456 -0.3870
vn -0.1142 -0.9819 -0.1511
vn -0.0111 0.9672 -0.2539
vn -0.3463 -0.8931 -0.2871
vn 0.0428 0.9987 0.0285
vn -0.9725 -0.0241 0.2316
vn -0.3836 0.7279 -0.5683
vn -0.6376 -0.6839 -0.3545
vn -0.4033 0.7346 -0.5456
vn 0.6794 0.6048 0.4155
vn -0.6353 -0.6872 -0.3523
vn -0.6821 -0.6007 -0.4171
vn 0.6233 0.6795 0.3870
vn 0.0034 -0.5134 0.8582
vn 0.6774 0.6085 0.4134
vn 0.6324 0.6924 0.3472
vn -0.6816 -0.5991 -0.4201
vn 0.3835 -0.7279 0.5683
vn 0.2717 0.2721 -0.9231
vn -0.4539 -0.8065 -0.3788
vn 0.8186 0.4441 0.3643
vn 0.2916 0.2516 -0.9228
vn 0.6628 0.7484 0.0254
vn -0.6919 -0.6132 -0.3810
vn -0.7180 0.6932 0.0629
vn 0.7180 -0.6932 -0.0629
vn -0.0747 0.5645 -0.8221
vn 0.7983 0.4724 0.3735
vn -0.4854 -0.7893 -0.3761
vn -0.0181 -0.4971 0.8675
vn 0.7382 -0.6549 -0.1618
vn 0.7921 0.4807 0.3762
vn -0.4949 -0.7838 -0.3752
vn 0.2582 -0.6740 0.6921
vn 0.2258 0.3174 -0.9210
vn -0.5623 -0.4557 -0.6901
vn 0.7511 -0.5980 -0.2797
vn -0.6439 0.7487 -0.1576
usemtl Matériau.012
s off
f 83//20 84//20 86//20 85//20
f 90//21 89//21 93//21 94//21
f 89//22 90//22 88//22 87//22
f 105//23 106//23 84//23 83//23
f 103//24 89//24 87//24 105//24
f 104//25 86//25 84//25 106//25
f 94//26 93//26 97//26 98//26
f 103//27 85//27 92//27 107//27
f 104//28 90//28 94//28 108//28
f 85//29 86//29 91//29 92//29
f 110//30 98//30 102//30 112//30
f 107//31 92//31 96//31 109//31
f 108//32 94//32 98//32 110//32
f 92//33 91//33 95//33 96//33
f 101//34 111//34 115//34 118//34
f 96//35 95//35 99//35 100//35
f 98//36 97//36 101//36 102//36
f 109//37 96//37 100//37 111//37
f 97//38 109//38 111//38 101//38
f 100//39 99//39 113//39 114//39
f 91//40 108//40 110//40 95//40
f 93//41 107//41 109//41 97//41
f 95//42 110//42 112//42 99//42
f 86//43 104//43 108//43 91//43
f 89//44 103//44 107//44 93//44
f 90//45 104//45 106//45 88//45
f 85//46 103//46 105//46 83//46
f 87//47 88//47 106//47 105//47
f 117//48 118//48 124//48 123//48
f 113//49 116//49 122//49 119//49
f 102//50 101//50 118//50 117//50
f 111//51 100//51 114//51 115//51
f 99//52 112//52 116//52 113//52
f 112//53 102//53 117//53 116//53
f 124//54 121//54 132//54 131//54
f 120//55 119//55 125//55 126//55
f 115//56 114//56 120//56 121//56
f 118//57 115//57 121//57 124//57
f 116//58 117//58 123//58 122//58
f 114//59 113//59 119//59 120//59
f 128//60 127//60 135//60 136//60
f 119//61 122//61 128//61 125//61
f 121//62 120//62 126//62 127//62
f 122//63 121//63 127//63 128//63
f 131//64 132//64 144//64 143//64
f 122//65 123//65 130//65 129//65
f 123//66 124//66 131//66 130//66
f 121//67 122//67 129//67 132//67
f 136//68 135//68 139//68 140//68
f 127//69 126//69 134//69 135//69
f 125//70 128//70 136//70 133//70
f 126//71 125//71 133//71 134//71
f 138//72 137//72 140//72 139//72
f 135//73 134//73 138//73 139//73
f 133//74 136//74 140//74 137//74
f 134//75 133//75 137//75 138//75
f 144//76 141//76 142//76 143//76
f 129//77 130//77 142//77 141//77
f 132//78 129//78 141//78 144//78
f 130//79 131//79 143//79 142//79
f 145//80 146//80 148//80 147//80
f 152//81 151//81 155//81 156//81
f 151//82 152//82 150//82 149//82
f 167//83 168//83 146//83 145//83
f 165//84 151//84 149//84 167//84
f 166//85 148//85 146//85 168//85
f 156//86 155//86 159//86 160//86
f 165//87 147//87 154//87 169//87
f 166//88 152//88 156//88 170//88
f 147//89 148//89 153//89 154//89
f 172//90 160//90 164//90 174//90
f 169//91 154//91 158//91 171//91
f 170//92 156//92 160//92 172//92
f 154//93 153//93 157//93 158//93
f 163//94 173//94 177//94 180//94
f 158//95 157//95 161//95 162//95
f 160//96 159//96 163//96 164//96
f 171//97 158//97 162//97 173//97
f 159//98 171//98 173//98 163//98
f 162//99 161//99 175//99 176//99
f 153//100 170//100 172//100 157//100
f 155//101 169//101 171//101 159//101
f 157//102 172//102 174//102 161//102
f 148//103 166//103 170//103 153//103
f 151//104 165//104 169//104 155//104
f 152//105 166//105 168//105 150//105
f 147//106 165//106 167//106 145//106
f 149//107 150//107 168//107 167//107
f 179//108 180//108 186//108 185//108
f 175//109 178//109 184//109 181//109
f 164//110 163//110 180//110 179//110
f 173//111 162//111 176//111 177//111
f 161//112 174//112 178//112 175//112
f 174//113 164//113 179//113 178//113
f 186//114 183//114 194//114 193//114
f 182//115 181//115 187//115 188//115
f 177//116 176//116 182//116 183//116
f 180//117 177//117 183//117 186//117
f 178//118 179//118 185//118 184//118
f 176//119 175//119 181//119 182//119
f 190//120 189//120 197//120 198//120
f 181//121 184//121 190//121 187//121
f 183//122 182//122 188//122 189//122
f 184//123 183//123 189//123 190//123
f 193//124 194//124 206//124 205//124
f 184//125 185//125 192//125 191//125
f 185//126 186//126 193//126 192//126
f 183//127 184//127 191//127 194//127
f 198//128 197//128 201//128 202//128
f 189//129 188//129 196//129 197//129
f 187//130 190//130 198//130 195//130
f 188//131 187//131 195//131 196//131
f 200//132 199//132 202//132 201//132
f 197//133 196//133 200//133 201//133
f 195//134 198//134 202//134 199//134
f 196//135 195//135 199//135 200//135
f 206//136 203//136 204//136 205//136
f 191//137 192//137 204//137 203//137
f 194//138 191//138 203//138 206//138
f 192//139 193//139 205//139 204//139
