# Blender v2.91.2 OBJ File: 'camionnete02.blend'
# www.blender.org
mtllib arme_000211.mtl
o Cube.046_Cube.010
v -103.944527 -140.574661 -1205.586304
v -134.680923 -347.816833 -1137.138794
v -70.269920 -213.372910 -1410.880005
v -101.006348 -420.615112 -1342.432617
v -319.584015 -122.403488 -1247.401489
v -350.320404 -329.645660 -1178.954102
v -285.909363 -195.201706 -1452.695190
v -316.645874 -402.443970 -1384.247925
v -150.307800 -40.345932 -922.937439
v -181.044220 -247.588058 -854.489990
v -396.683655 -229.416885 -896.305176
v -365.947235 -22.174728 -964.752625
v -171.290161 5.014206 -795.020142
v -202.026611 -202.227982 -726.572754
v -417.666077 -184.056793 -768.387939
v -386.929718 23.185394 -836.835449
v -183.685684 31.810928 -719.452454
v -203.807541 -123.430847 -682.257568
v -419.447052 -105.259628 -724.072815
v -399.325165 49.982147 -761.267639
v -140.648834 211.615738 -863.255981
v -356.288300 229.786911 -905.071289
v -153.044281 238.412430 -787.688293
v -368.683716 256.583618 -829.503540
v -143.074249 -55.983459 -967.035767
v -173.810669 -263.225616 -898.588440
v -358.713745 -37.812271 -1008.851074
v -389.450165 -245.054413 -940.403625
v -140.161499 28.066299 -945.532471
v -355.800934 46.237503 -987.347656
v -132.927917 12.428757 -989.630798
v -348.567383 30.599960 -1031.446045
v -125.440826 127.321213 -978.314087
v -341.080261 145.492447 -1020.129272
v -118.207329 111.683609 -1022.412476
v -333.846741 129.854874 -1064.227661
v -160.669647 72.401199 -820.506348
v -376.309113 90.572372 -862.321533
v -145.948990 171.656174 -853.288025
v -361.588470 189.827286 -895.103149
v -113.747368 323.312744 -953.446655
v -329.386841 341.483948 -995.261841
v -126.142876 350.109436 -877.878906
v -341.782257 368.280640 -919.694092
v -82.158142 -187.672897 -1338.405029
v -112.894569 -394.915100 -1269.957642
v -297.797577 -169.501694 -1380.220215
v -328.533936 -376.743866 -1311.772827
v -178.089661 -204.287277 -1431.787720
v -208.826096 -411.529541 -1363.340210
v -211.764267 -131.489090 -1226.493896
v -242.500671 -338.731262 -1158.046387
v -258.127502 -31.260300 -943.845032
v -288.863922 -238.502472 -875.397522
v -279.109924 14.099823 -815.927795
v -301.357239 -181.050171 -738.561340
v -291.505402 40.896500 -740.359985
v -302.558136 -127.917068 -708.679565
v -248.468536 220.701370 -884.163574
v -260.864014 247.498062 -808.595947
v -281.630432 -254.139999 -919.495972
v -250.893997 -46.897858 -987.943420
v -247.981216 37.151886 -966.440063
v -240.747665 21.514343 -1010.538330
v -233.260498 136.406845 -999.221680
v -226.027008 120.769241 -1043.320068
v -268.489380 81.486801 -841.414001
v -253.768677 180.741745 -874.195557
v -221.567108 332.398376 -974.354248
v -233.962585 359.195007 -898.786499
v -220.714294 -385.829468 -1290.865112
v -189.977859 -178.587265 -1359.312500
v -124.179749 -208.830093 -1421.333740
v -188.590820 -343.274048 -1147.592651
v -234.954086 -243.045273 -864.943787
v -265.005707 -184.113403 -731.512329
v -266.206543 -130.980286 -701.630493
v -196.984100 -51.440659 -977.489502
v -186.837830 16.971527 -1000.084595
v -172.117157 116.226456 -1032.866333
v -136.067993 -183.130081 -1348.858765
v -154.916199 -416.072327 -1352.886475
v -157.854446 -136.031876 -1216.040161
v -204.217651 -35.803131 -933.391235
v -225.200043 9.557022 -805.473999
v -237.595535 36.353714 -729.906250
v -194.558685 216.158524 -873.709839
v -206.954132 242.955215 -798.142090
v -227.720535 -258.682800 -909.042175
v -194.071350 32.609100 -955.986206
v -179.350677 131.864029 -988.767883
v -214.579529 76.943985 -830.960144
v -199.858810 176.198929 -863.741699
v -167.657196 327.855591 -963.900391
v -180.052719 354.652222 -888.332703
v -166.804459 -390.372284 -1280.411499
v -233.475525 -297.486084 -896.226318
v -287.385376 -292.943298 -906.680115
v -172.559464 -429.175598 -1267.595581
v -226.469254 -424.632812 -1278.049194
v -248.255661 -377.534546 -1145.230591
v -194.345779 -382.077332 -1134.776733
v -5.903366 -239.997971 -1264.643433
v -15.537125 -219.171646 -1205.912354
v -29.128326 -310.812042 -1175.645508
v -19.494720 -331.638367 -1234.376831
v 40.695152 -243.924728 -1255.607544
v 31.061447 -223.098343 -1196.876343
v 17.470184 -314.738708 -1166.609619
v 27.103859 -335.565094 -1225.340698
v 112.005783 -249.933853 -1241.779663
v 102.372040 -229.107468 -1183.048462
v 88.780762 -320.747833 -1152.781738
v 98.414398 -341.574219 -1211.512939
v 157.893280 -253.800644 -1232.881470
v 148.259552 -232.974289 -1174.150391
v 134.668350 -324.614624 -1143.883667
v 144.301971 -345.440979 -1202.614746
v -44.288292 -655.228149 -2027.315308
v -98.198181 -650.685303 -2037.769287
v -67.461838 -443.443115 -2106.216797
v -13.551895 -447.985901 -2095.762695
v -192.636871 384.559509 -1015.167542
v -291.987000 392.931335 -1034.432861
v -204.058624 409.251221 -945.535889
v -303.408630 417.623047 -964.801147
v -104.708603 400.879333 -926.270752
v -93.286743 376.187744 -995.902222
v -142.961761 380.373718 -1005.534851
v -154.383606 405.065186 -935.903320
vn 0.9784 -0.0824 0.1897
vn 0.1528 -0.3303 -0.9314
vn -0.9784 0.0824 -0.1897
vn 0.1395 0.9403 -0.3106
vn -0.1395 -0.9403 0.3106
vn -0.1528 0.3303 0.9314
vn -0.2057 -0.4832 0.8510
vn -0.2210 -0.9199 0.3239
vn -0.2474 0.2285 0.9416
vn -0.9786 0.0824 -0.1883
vn 0.9786 -0.0824 0.1883
vn 0.0942 -0.6391 -0.7634
vn 0.0927 -0.6450 -0.7586
vn -0.0942 0.6391 0.7634
vn 0.5255 -0.3361 -0.7816
vn -0.8655 0.4103 -0.2875
vn -0.1256 0.2178 0.9679
vn -0.1042 -0.9315 0.3486
vn -0.0774 0.7048 0.7052
vn -0.1711 0.1925 0.9663
vn -0.1492 -0.9165 0.3712
vn 0.2445 0.2712 0.9309
vn 0.4235 -0.8297 0.3637
vn 0.6561 0.7387 -0.1543
vn 0.1395 0.9403 -0.3105
vn 0.9559 -0.1899 0.2241
usemtl Matériau.011
s off
f 45//1 46//1 4//1 3//1
f 49//2 50//2 8//2 7//2
f 47//3 48//3 6//3 5//3
f 26//1 25//1 9//1 10//1
f 72//4 47//4 5//4 51//4
f 96//5 46//5 2//5 74//5
f 10//1 9//1 13//1 14//1
f 84//6 9//6 29//6 90//6
f 89//5 26//5 10//5 75//5
f 27//3 28//3 11//3 12//3
f 76//7 14//7 18//7 77//7
f 75//8 10//8 14//8 76//8
f 12//3 11//3 15//3 16//3
f 53//4 12//4 16//4 55//4
f 86//9 77//9 18//9 17//9
f 16//10 15//10 19//10 20//10
f 16//3 20//3 24//3 22//3
f 14//11 13//11 17//11 18//11
f 59//12 22//12 42//12 69//12
f 86//6 17//6 23//6 88//6
f 17//1 13//1 21//1 23//1
f 55//2 16//2 22//2 59//2
f 5//3 6//3 28//3 27//3
f 74//5 2//5 26//5 89//5
f 51//4 5//4 27//4 62//4
f 2//1 1//1 25//1 26//1
f 32//3 30//3 34//3 36//3
f 62//2 27//2 32//2 64//2
f 27//3 12//3 30//3 32//3
f 9//1 25//1 31//1 29//1
f 66//4 36//4 34//4 65//4
f 90//5 29//5 37//5 92//5
f 64//2 32//2 36//2 66//2
f 29//1 31//1 35//1 33//1
f 92//6 37//6 39//6 93//6
f 29//1 33//1 39//1 37//1
f 34//3 30//3 38//3 40//3
f 65//4 34//4 40//4 68//4
f 69//13 42//13 124//13 123//13
f 23//1 21//1 41//1 43//1
f 88//14 23//14 43//14 95//14
f 22//3 24//3 44//3 42//3
f 82//5 4//5 46//5 96//5
f 49//4 7//4 47//4 72//4
f 7//3 8//3 48//3 47//3
f 46//15 45//15 103//15 106//15
f 73//4 49//4 72//4 81//4
f 8//5 50//5 71//5 48//5
f 24//14 60//14 70//14 44//14
f 42//16 44//16 126//16 124//16
f 91//4 65//4 68//4 93//4
f 38//6 67//6 68//6 40//6
f 79//2 64//2 66//2 80//2
f 30//5 63//5 67//5 38//5
f 80//4 66//4 65//4 91//4
f 78//2 62//2 64//2 79//2
f 83//4 51//4 62//4 78//4
f 6//5 52//5 61//5 28//5
f 85//2 55//2 59//2 87//2
f 20//6 57//6 60//6 24//6
f 87//12 59//12 69//12 94//12
f 20//17 19//17 58//17 57//17
f 84//4 53//4 55//4 85//4
f 11//18 54//18 56//18 15//18
f 15//7 56//7 58//7 19//7
f 28//5 61//5 54//5 11//5
f 12//6 53//6 63//6 30//6
f 48//5 71//5 52//5 6//5
f 81//4 72//4 51//4 83//4
f 50//3 49//3 121//3 120//3
f 3//2 4//2 82//2 73//2
f 45//4 81//4 83//4 1//4
f 9//4 84//4 85//4 13//4
f 21//12 87//12 94//12 41//12
f 13//2 85//2 87//2 21//2
f 1//4 83//4 78//4 25//4
f 25//2 78//2 79//2 31//2
f 35//4 80//4 91//4 33//4
f 31//2 79//2 80//2 35//2
f 33//4 91//4 93//4 39//4
f 70//19 95//19 130//19 125//19
f 3//4 73//4 81//4 45//4
f 50//5 82//5 96//5 71//5
f 60//14 88//14 95//14 70//14
f 67//6 92//6 93//6 68//6
f 63//5 90//5 92//5 67//5
f 52//3 71//3 100//3 101//3
f 57//6 86//6 88//6 60//6
f 57//20 58//20 77//20 86//20
f 54//21 75//21 76//21 56//21
f 56//7 76//7 77//7 58//7
f 61//5 89//5 75//5 54//5
f 53//6 84//6 90//6 63//6
f 89//6 61//6 98//6 97//6
f 101//5 102//5 97//5 98//5
f 100//5 99//5 102//5 101//5
f 61//3 52//3 101//3 98//3
f 74//1 89//1 97//1 102//1
f 71//2 96//2 99//2 100//2
f 96//1 74//1 102//1 99//1
f 106//2 103//2 107//2 110//2
f 1//22 2//22 105//22 104//22
f 2//23 46//23 106//23 105//23
f 45//24 1//24 104//24 103//24
f 109//5 110//5 114//5 113//5
f 104//6 105//6 109//6 108//6
f 105//5 106//5 110//5 109//5
f 103//4 104//4 108//4 107//4
f 113//5 114//5 118//5 117//5
f 107//4 108//4 112//4 111//4
f 110//2 107//2 111//2 114//2
f 108//6 109//6 113//6 112//6
f 116//1 117//1 118//1 115//1
f 111//4 112//4 116//4 115//4
f 114//2 111//2 115//2 118//2
f 122//2 119//2 120//2 121//2
f 82//5 50//5 120//5 119//5
f 73//1 82//1 119//1 122//1
f 49//4 73//4 122//4 121//4
f 123//4 124//4 126//4 125//4
f 129//25 123//25 125//25 130//25
f 128//25 129//25 130//25 127//25
f 95//19 43//19 127//19 130//19
f 94//13 69//13 123//13 129//13
f 43//26 41//26 128//26 127//26
f 44//19 70//19 125//19 126//19
f 41//13 94//13 129//13 128//13
o Cube.048_Cube.024
v -464.499756 587.182190 114.487167
v -630.296692 414.246460 146.143555
v -400.133118 486.981659 -95.784935
v -568.084167 312.985718 -65.359108
v -652.814453 656.469482 -43.838951
v -737.823181 567.800415 -27.607864
v -619.811890 605.093872 -151.651337
v -704.536804 516.604370 -135.267456
v -505.264801 253.801666 -473.638214
v -391.879761 309.190002 -463.709015
v -440.918701 417.406097 -507.379303
v -554.303833 362.017761 -517.308533
v -449.817657 215.484344 -679.426819
v -366.454468 256.207153 -672.126465
v -402.509094 335.770020 -704.233826
v -485.872223 295.047302 -711.534119
v -414.075348 194.133850 -808.780945
v -353.154572 223.893494 -803.446045
v -379.502777 282.036987 -826.909729
v -440.423584 252.277405 -832.244507
v -481.661652 567.740723 -138.123077
v -658.522522 384.609894 -105.206444
v -550.050659 674.216614 85.044624
v -726.064514 490.624023 118.651764
v -411.685425 363.445129 -490.473053
v -532.057617 304.643616 -501.014069
v -377.801056 291.987793 -705.596313
v -466.301361 248.755585 -713.346252
v -358.529419 246.313232 -840.419861
v -423.204407 214.719666 -846.083435
v -392.196289 164.897949 -895.539551
v -331.275391 194.657532 -890.204773
v -336.738312 219.258789 -938.341553
v -401.413116 187.665283 -944.005188
v -418.618927 224.887634 -928.450439
v -357.698212 254.647217 -923.115540
v -376.988892 145.028259 -958.356628
v -316.068146 174.787903 -953.021606
v -321.531097 199.389130 -1001.158508
v -386.205872 167.795654 -1006.822205
v -403.411713 205.017883 -991.267273
v -342.490967 234.777527 -985.932556
v -347.355499 117.256470 -987.351501
v -308.143616 136.411377 -983.917664
v -311.659760 152.246094 -1014.901306
v -353.288086 131.910767 -1018.546448
v -391.151001 187.240662 -1058.823486
v -408.356750 224.462860 -1043.268677
v -347.436005 254.222534 -1037.933838
v -326.476105 218.834076 -1053.159912
v -327.909668 97.187988 -1006.546570
v -301.474121 110.101685 -1004.231628
v -303.844543 120.777039 -1025.119751
v -331.909149 107.067627 -1027.577393
v -313.037048 84.464539 -1034.945557
v -296.511871 92.537109 -1033.498413
v -297.993652 99.210327 -1046.556030
v -315.537140 90.640320 -1048.092285
v -386.176636 209.093323 -1083.313477
v -397.616913 233.842865 -1072.970825
v -357.110016 253.630371 -1069.423584
v -343.173462 230.100220 -1079.547729
v -314.600189 438.903687 478.163239
v -382.637451 249.259735 344.732941
v -143.599487 492.005157 314.331146
v -214.121338 304.340149 180.519592
v -449.402100 545.398926 288.908051
v -484.286682 448.163116 220.494598
v -352.640137 574.941650 205.873047
v -397.883759 476.404358 136.297760
v -124.257080 327.964966 -92.110847
v -64.089966 254.230530 -11.579262
v 45.218811 300.408142 -48.826950
v -11.974915 373.315430 -128.971222
v -91.520020 173.358582 -240.153534
v -48.778687 115.644897 -180.964172
v 33.773682 148.987549 -208.064728
v -8.967651 206.701294 -267.254181
v -68.285095 76.050720 -332.116638
v -37.050354 33.874390 -288.861786
v 23.277832 58.240784 -308.666504
v -7.956970 100.417114 -351.921326
v -220.216614 561.911621 274.232361
v -308.665131 363.950928 130.518524
v -415.335846 506.806671 446.503998
v -487.565796 305.476196 304.851257
v -7.926331 265.817352 -31.554810
v -69.642639 349.152893 -117.021172
v -5.293884 117.375000 -206.169403
v -50.669067 178.645264 -269.006165
v -4.639709 25.800964 -316.843201
v -37.799316 70.576233 -362.763519
v -66.977356 9.135986 -398.307312
v -35.742615 -33.040405 -355.052338
v 2.232910 -45.902649 -391.721741
v -30.926636 -1.127197 -437.642059
v -1.939697 29.449524 -425.464539
v 29.295044 -12.726807 -382.209656
v -64.851440 -38.478455 -446.269623
v -33.616638 -80.654846 -403.014740
v 4.358826 -93.517334 -439.684113
v -28.800659 -48.741821 -485.604401
v 0.186157 -18.164734 -473.426788
v 31.420898 -60.341003 -430.172058
v -79.703796 -83.864929 -460.746613
v -59.599426 -111.012024 -432.905487
v -35.156250 -119.291016 -456.508087
v -56.499634 -90.470947 -486.064850
v 5.550903 -65.082275 -526.343445
v 34.537781 -34.505310 -514.165833
v 65.772705 -76.681763 -470.911041
v 38.710510 -109.857727 -480.423004
v -91.142151 -114.152222 -470.805756
v -77.588379 -132.453979 -452.035919
v -61.109497 -138.035522 -467.948334
v -75.498535 -118.605774 -487.874664
v -93.096008 -143.306030 -489.131378
v -84.623291 -154.746582 -477.398102
v -74.322083 -158.235413 -487.344879
v -83.316895 -146.089844 -499.801178
v 34.310059 -76.047546 -538.782227
v 53.583740 -55.716431 -530.685120
v 74.352112 -83.760010 -501.924347
v 56.358215 -105.819153 -508.249054
vn 0.6758 -0.5655 0.4729
vn -0.5066 0.6734 -0.5384
vn -0.6773 0.5613 -0.4756
vn -0.0772 0.2506 0.9650
vn 0.2761 0.8976 -0.3435
vn -0.6491 -0.7436 0.1606
vn -0.3693 0.8307 -0.4166
vn 0.8294 0.5258 -0.1889
vn -0.9029 -0.3763 -0.2077
vn 0.6187 -0.7338 0.2807
vn -0.9093 -0.3600 -0.2086
vn 0.9382 0.3448 0.0301
vn -0.9032 -0.3895 -0.1804
vn 0.4032 -0.8740 0.2714
vn 0.8700 0.4896 0.0581
vn 0.4059 -0.8770 0.2569
vn -0.3656 0.8254 -0.4301
vn 0.9517 0.3059 0.0268
vn 0.8615 0.5050 -0.0535
vn 0.3789 -0.8438 0.3799
vn -0.8419 -0.5248 -0.1258
vn 0.8769 0.4800 -0.0245
vn -0.8191 -0.5591 -0.1282
vn -0.7091 -0.7036 -0.0452
vn 0.4985 0.8207 -0.2791
vn -0.9284 -0.3533 -0.1149
vn 0.7263 0.6798 -0.1017
vn -0.6223 0.6705 0.4039
vn -0.3835 0.8498 -0.3616
vn -0.8747 -0.4810 -0.0596
vn -0.3902 0.8585 -0.3328
vn 0.9161 0.3888 0.0981
vn -0.8726 -0.4850 -0.0585
vn -0.9181 -0.3839 -0.0985
vn 0.8739 0.4767 0.0951
vn 0.2171 -0.5846 0.7818
vn 0.9144 0.3930 0.0971
vn 0.8693 0.4912 0.0551
vn -0.9185 -0.3822 -0.1015
vn 0.3835 -0.8498 0.3616
vn -0.0604 0.2947 -0.9537
vn -0.7528 -0.6392 -0.1571
vn 0.9784 0.2065 -0.0055
vn -0.0478 0.2703 -0.9616
vn 0.7817 0.5709 -0.2509
vn -0.9155 -0.3975 -0.0616
vn -0.4356 0.8287 0.3513
vn 0.4356 -0.8287 -0.3513
vn -0.2529 0.6467 -0.7196
vn 0.9713 0.2376 0.0112
vn -0.7752 -0.6156 -0.1418
vn 0.2059 -0.5648 0.7991
vn 0.4235 -0.7863 -0.4499
vn 0.9689 0.2468 0.0162
vn -0.7819 -0.6082 -0.1370
vn 0.3357 -0.7815 0.5259
vn -0.0887 0.3489 -0.9330
vn -0.8851 -0.2433 -0.3968
vn 0.4021 -0.7222 -0.5628
vn -0.4442 0.8879 0.1198
vn 0.6531 -0.5825 0.4838
vn 0.2329 0.9195 -0.3167
vn -0.6336 0.6019 -0.4860
vn -0.4974 -0.3727 0.7834
vn -0.0529 0.9644 0.2593
vn -0.2405 -0.8187 -0.5214
vn 0.8859 0.3042 -0.3503
vn 0.9299 0.3389 0.1431
vn -0.6440 -0.1823 -0.7430
vn 0.1771 -0.9097 0.3756
vn -0.3461 0.5869 -0.7320
vn 0.3692 -0.7040 0.6067
vn -0.3824 0.5885 -0.7124
vn -0.8737 -0.4161 0.2521
vn 0.5128 -0.5962 0.6177
vn -0.8789 -0.4213 0.2238
vn 0.8876 0.2921 -0.3561
vn 0.3553 -0.7225 0.5931
vn 0.5618 -0.6391 0.5253
vn -0.8882 -0.3318 0.3179
vn -0.5227 0.5318 -0.6663
vn 0.5608 -0.6233 0.5450
vn -0.5526 0.5035 -0.6642
vn -0.6168 -0.6770 -0.4015
vn 0.6105 0.7812 -0.1308
vn -0.5640 -0.4106 -0.7165
vn 0.3292 0.7334 0.5948
vn -0.9542 0.1682 0.2475
vn 0.8877 0.3458 -0.3039
vn -0.5046 0.6014 -0.6194
vn 0.8864 0.3673 -0.2819
vn 0.4085 -0.6391 0.6517
vn -0.5086 0.5992 -0.6183
vn -0.4039 0.6417 -0.6519
vn 0.4893 -0.5847 0.6471
vn -0.7818 0.0578 0.6209
vn 0.4127 -0.6372 0.6509
vn 0.5153 -0.5967 0.6152
vn -0.4014 0.6410 -0.6542
vn -0.8877 -0.3458 0.3039
vn 0.5738 -0.3395 -0.7454
vn -0.6142 0.4151 -0.6712
vn 0.2734 -0.7835 0.5580
vn 0.5542 -0.3596 -0.7508
vn 0.6800 -0.6513 0.3368
vn -0.4282 0.6542 -0.6234
vn 0.6397 0.7276 0.2476
vn -0.6397 -0.7276 -0.2476
vn 0.8182 0.0166 -0.5747
vn 0.2971 -0.7623 0.5750
vn -0.5984 0.4469 -0.6650
vn -0.7694 0.0801 0.6337
vn -0.5695 -0.7550 -0.3250
vn 0.3040 -0.7558 0.5800
vn -0.5934 0.4565 -0.6630
vn -0.8784 -0.2107 0.4289
vn 0.6163 -0.2932 -0.7309
vn -0.1745 0.5027 -0.8467
vn -0.4751 -0.7764 -0.4140
vn 0.7678 0.6372 0.0669
usemtl Matériau.012
s off
f 131//27 132//27 134//27 133//27
f 138//28 137//28 141//28 142//28
f 137//29 138//29 136//29 135//29
f 153//30 154//30 132//30 131//30
f 151//31 137//31 135//31 153//31
f 152//32 134//32 132//32 154//32
f 142//33 141//33 145//33 146//33
f 151//34 133//34 140//34 155//34
f 152//35 138//35 142//35 156//35
f 133//36 134//36 139//36 140//36
f 158//37 146//37 150//37 160//37
f 155//38 140//38 144//38 157//38
f 156//39 142//39 146//39 158//39
f 140//40 139//40 143//40 144//40
f 149//41 159//41 163//41 166//41
f 144//42 143//42 147//42 148//42
f 146//43 145//43 149//43 150//43
f 157//44 144//44 148//44 159//44
f 145//45 157//45 159//45 149//45
f 148//46 147//46 161//46 162//46
f 139//47 156//47 158//47 143//47
f 141//48 155//48 157//48 145//48
f 143//49 158//49 160//49 147//49
f 134//50 152//50 156//50 139//50
f 137//51 151//51 155//51 141//51
f 138//52 152//52 154//52 136//52
f 133//53 151//53 153//53 131//53
f 135//54 136//54 154//54 153//54
f 165//55 166//55 172//55 171//55
f 161//56 164//56 170//56 167//56
f 150//57 149//57 166//57 165//57
f 159//58 148//58 162//58 163//58
f 147//59 160//59 164//59 161//59
f 160//60 150//60 165//60 164//60
f 172//61 169//61 180//61 179//61
f 168//62 167//62 173//62 174//62
f 163//63 162//63 168//63 169//63
f 166//64 163//64 169//64 172//64
f 164//65 165//65 171//65 170//65
f 162//66 161//66 167//66 168//66
f 176//67 175//67 183//67 184//67
f 167//68 170//68 176//68 173//68
f 169//69 168//69 174//69 175//69
f 170//70 169//70 175//70 176//70
f 179//71 180//71 192//71 191//71
f 170//72 171//72 178//72 177//72
f 171//73 172//73 179//73 178//73
f 169//74 170//74 177//74 180//74
f 184//75 183//75 187//75 188//75
f 175//76 174//76 182//76 183//76
f 173//77 176//77 184//77 181//77
f 174//78 173//78 181//78 182//78
f 186//79 185//79 188//79 187//79
f 183//80 182//80 186//80 187//80
f 181//81 184//81 188//81 185//81
f 182//82 181//82 185//82 186//82
f 192//83 189//83 190//83 191//83
f 177//84 178//84 190//84 189//84
f 180//85 177//85 189//85 192//85
f 178//86 179//86 191//86 190//86
f 193//87 194//87 196//87 195//87
f 200//88 199//88 203//88 204//88
f 199//89 200//89 198//89 197//89
f 215//90 216//90 194//90 193//90
f 213//91 199//91 197//91 215//91
f 214//92 196//92 194//92 216//92
f 204//93 203//93 207//93 208//93
f 213//94 195//94 202//94 217//94
f 214//95 200//95 204//95 218//95
f 195//96 196//96 201//96 202//96
f 220//97 208//97 212//97 222//97
f 217//98 202//98 206//98 219//98
f 218//99 204//99 208//99 220//99
f 202//100 201//100 205//100 206//100
f 211//101 221//101 225//101 228//101
f 206//102 205//102 209//102 210//102
f 208//103 207//103 211//103 212//103
f 219//104 206//104 210//104 221//104
f 207//105 219//105 221//105 211//105
f 210//106 209//106 223//106 224//106
f 201//107 218//107 220//107 205//107
f 203//108 217//108 219//108 207//108
f 205//109 220//109 222//109 209//109
f 196//110 214//110 218//110 201//110
f 199//111 213//111 217//111 203//111
f 200//112 214//112 216//112 198//112
f 195//113 213//113 215//113 193//113
f 197//114 198//114 216//114 215//114
f 227//115 228//115 234//115 233//115
f 223//116 226//116 232//116 229//116
f 212//117 211//117 228//117 227//117
f 221//118 210//118 224//118 225//118
f 209//119 222//119 226//119 223//119
f 222//120 212//120 227//120 226//120
f 234//121 231//121 242//121 241//121
f 230//122 229//122 235//122 236//122
f 225//123 224//123 230//123 231//123
f 228//124 225//124 231//124 234//124
f 226//125 227//125 233//125 232//125
f 224//126 223//126 229//126 230//126
f 238//127 237//127 245//127 246//127
f 229//128 232//128 238//128 235//128
f 231//129 230//129 236//129 237//129
f 232//130 231//130 237//130 238//130
f 241//131 242//131 254//131 253//131
f 232//132 233//132 240//132 239//132
f 233//133 234//133 241//133 240//133
f 231//134 232//134 239//134 242//134
f 246//135 245//135 249//135 250//135
f 237//136 236//136 244//136 245//136
f 235//137 238//137 246//137 243//137
f 236//138 235//138 243//138 244//138
f 248//139 247//139 250//139 249//139
f 245//140 244//140 248//140 249//140
f 243//141 246//141 250//141 247//141
f 244//142 243//142 247//142 248//142
f 254//143 251//143 252//143 253//143
f 239//144 240//144 252//144 251//144
f 242//145 239//145 251//145 254//145
f 240//146 241//146 253//146 252//146
