# Blender v2.91.2 OBJ File: 'camionnete02.blend'
# www.blender.org
mtllib arme_000188.mtl
o Cube.046_Cube.010
v 83.370331 14.390686 -1202.451416
v 21.829346 -195.221970 -1173.222046
v 141.322586 -31.575806 -1410.075317
v 79.781601 -241.188461 -1380.845947
v -120.181526 64.677155 -1270.400146
v -181.722549 -144.935516 -1241.170776
v -62.229248 18.710693 -1478.024048
v -123.770271 -190.902008 -1448.794800
v 3.581528 77.677368 -916.594360
v -57.959446 -131.935242 -887.364990
v -261.511230 -81.648796 -955.313660
v -199.970261 127.963867 -984.543030
v -32.528069 106.318817 -787.225159
v -94.069092 -103.293861 -757.995911
v -297.620941 -53.007393 -825.944580
v -236.079956 156.605286 -855.173950
v -53.860062 123.238831 -710.799805
v -94.905594 -32.101501 -702.255981
v -298.457489 18.184982 -770.204651
v -257.411926 173.525360 -778.748413
v 28.822647 315.283478 -816.364258
v -174.729202 365.569916 -884.312988
v 7.490677 332.203491 -739.938721
v -196.061142 382.490021 -807.887512
v 16.030090 67.803482 -961.193237
v -45.510914 -141.809143 -931.963989
v -187.521759 118.089966 -1029.142090
v -249.062775 -91.522675 -999.912659
v 23.896690 146.872101 -926.243164
v -179.655151 197.158600 -994.191956
v 36.345238 136.998199 -970.842041
v -167.206604 187.284668 -1038.790771
v 53.370651 247.262299 -940.242065
v -150.181152 297.548767 -1008.190674
v 65.819138 237.388397 -984.841003
v -137.732635 287.674896 -1052.789673
v -11.396820 174.866150 -799.797974
v -214.948669 225.152618 -867.746765
v 18.077148 275.256439 -813.796875
v -185.474716 325.542877 -881.745544
v 80.483917 434.687469 -882.757324
v -123.067932 484.973969 -950.706116
v 59.151917 451.607574 -806.331970
v -144.399887 501.894012 -874.280640
v 120.863602 -15.348206 -1336.777710
v 59.322617 -224.960876 -1307.548462
v -82.688194 34.938278 -1404.726318
v -144.229172 -174.674408 -1375.497070
v 39.546661 -6.432526 -1444.049805
v -21.994331 -216.045242 -1414.820435
v -18.405586 39.533936 -1236.425903
v -79.946579 -170.078751 -1207.196411
v -98.194344 102.820618 -950.568665
v -159.735336 -106.792007 -921.339294
v -134.303986 131.462067 -821.199585
v -187.694214 -68.604324 -780.126770
v -155.635956 148.382080 -744.774109
v -188.258286 -20.599121 -742.541199
v -72.953262 340.426666 -850.338562
v -94.285248 357.346771 -773.913147
v -147.286835 -116.665909 -965.938293
v -85.745857 92.946747 -995.167664
v -77.879227 172.015350 -960.217590
v -65.430710 162.141418 -1004.816406
v -48.405220 272.405609 -974.216309
v -35.956749 262.531616 -1018.815308
v -113.172737 200.009399 -833.772400
v -83.698761 300.399628 -847.771179
v -21.292023 459.830780 -916.731750
v -42.624008 476.750763 -840.306274
v -42.453323 -199.817627 -1341.522705
v 19.087700 9.795059 -1370.751831
v 90.434662 -19.004150 -1427.062500
v -29.058624 -182.650375 -1190.209229
v -108.847397 -119.363640 -904.352173
v -153.380341 -77.081390 -768.672302
v -153.944397 -29.076202 -731.086670
v -34.857864 80.375092 -978.180359
v -14.542763 149.569794 -987.829224
v 14.931198 249.960022 -1001.828125
v 69.975662 -2.776596 -1353.764893
v 28.893639 -228.616837 -1397.833252
v 32.482330 26.962280 -1219.438721
v -47.306412 90.248993 -933.581543
v -83.416054 118.890411 -804.212402
v -104.748024 135.810455 -727.786987
v -22.065308 327.855072 -833.351440
v -43.397263 344.775116 -756.925903
v -96.398865 -129.237534 -948.951111
v -26.991264 159.443726 -943.230347
v 2.482712 259.833923 -957.229187
v -62.284790 187.437775 -816.785156
v -32.810806 287.828033 -830.784058
v 29.595985 447.259186 -899.744446
v 8.263962 464.179108 -823.319092
v 8.434616 -212.389252 -1324.535522
v -107.921577 -168.484634 -943.478394
v -158.809555 -155.913025 -960.465393
v -3.088104 -251.636353 -1319.062866
v -53.976017 -239.064758 -1336.049805
v -91.469322 -209.325867 -1201.723633
v -40.581348 -221.897461 -1184.736450
v 179.050507 -86.714371 -1262.517090
v 162.471313 -73.564148 -1203.119507
v 135.258636 -166.252747 -1190.194458
v 151.837708 -179.402969 -1249.592285
v 223.036987 -97.581055 -1247.833862
v 206.457855 -84.430817 -1188.436157
v 179.245087 -177.119385 -1175.511108
v 195.824219 -190.269608 -1234.908936
v 290.350311 -114.210449 -1225.363770
v 273.771179 -101.060211 -1165.965942
v 246.558380 -193.748779 -1153.041016
v 263.137421 -206.899002 -1212.438965
v 333.665588 -124.911301 -1210.904419
v 317.086426 -111.761078 -1151.506836
v 289.873779 -204.449646 -1138.581909
v 306.452820 -217.599838 -1197.979614
v 219.278229 -379.625214 -2079.916992
v 168.390274 -367.053619 -2096.904297
v 229.931152 -157.440887 -2126.133789
v 280.819183 -170.012512 -2109.146484
v 18.712921 513.398315 -944.183411
v -75.068100 536.566406 -975.488953
v -0.943314 528.989136 -873.761414
v -94.724319 552.157227 -905.066956
v 92.837677 505.821014 -842.455933
v 112.494003 490.230255 -912.877747
v 65.603531 501.814362 -928.530579
v 45.947166 517.405029 -858.108704
vn 0.9235 -0.2282 0.3083
vn 0.2629 -0.2086 -0.9420
vn -0.9235 0.2282 -0.3083
vn 0.2792 0.9510 -0.1326
vn -0.2792 -0.9510 0.1326
vn -0.2629 0.2086 0.9420
vn -0.3834 -0.5722 0.7250
vn -0.3594 -0.9230 0.1376
vn -0.3676 0.1187 0.9224
vn -0.9240 0.2280 -0.3070
vn 0.9240 -0.2280 0.3070
vn 0.1483 -0.5288 -0.8357
vn 0.1456 -0.5351 -0.8321
vn -0.1483 0.5288 0.8357
vn 0.6051 -0.2815 -0.7447
vn -0.7647 0.5504 -0.3353
vn -0.2531 0.0895 0.9633
vn -0.2496 -0.9522 0.1761
vn -0.1161 0.5997 0.7917
vn -0.3001 0.0705 0.9513
vn -0.2959 -0.9352 0.1943
vn 0.1217 0.1019 0.9873
vn 0.2767 -0.9190 0.2807
vn 0.7424 0.6673 0.0595
vn 0.8853 -0.3359 0.3215
usemtl Matériau.011
s off
f 45//1 46//1 4//1 3//1
f 49//2 50//2 8//2 7//2
f 47//3 48//3 6//3 5//3
f 26//1 25//1 9//1 10//1
f 72//4 47//4 5//4 51//4
f 96//5 46//5 2//5 74//5
f 10//1 9//1 13//1 14//1
f 84//6 9//6 29//6 90//6
f 89//5 26//5 10//5 75//5
f 27//3 28//3 11//3 12//3
f 76//7 14//7 18//7 77//7
f 75//8 10//8 14//8 76//8
f 12//3 11//3 15//3 16//3
f 53//4 12//4 16//4 55//4
f 86//9 77//9 18//9 17//9
f 16//10 15//10 19//10 20//10
f 16//3 20//3 24//3 22//3
f 14//11 13//11 17//11 18//11
f 59//12 22//12 42//12 69//12
f 86//6 17//6 23//6 88//6
f 17//1 13//1 21//1 23//1
f 55//2 16//2 22//2 59//2
f 5//3 6//3 28//3 27//3
f 74//5 2//5 26//5 89//5
f 51//4 5//4 27//4 62//4
f 2//1 1//1 25//1 26//1
f 32//3 30//3 34//3 36//3
f 62//2 27//2 32//2 64//2
f 27//3 12//3 30//3 32//3
f 9//1 25//1 31//1 29//1
f 66//4 36//4 34//4 65//4
f 90//5 29//5 37//5 92//5
f 64//2 32//2 36//2 66//2
f 29//1 31//1 35//1 33//1
f 92//6 37//6 39//6 93//6
f 29//1 33//1 39//1 37//1
f 34//3 30//3 38//3 40//3
f 65//4 34//4 40//4 68//4
f 69//13 42//13 124//13 123//13
f 23//1 21//1 41//1 43//1
f 88//14 23//14 43//14 95//14
f 22//3 24//3 44//3 42//3
f 82//5 4//5 46//5 96//5
f 49//4 7//4 47//4 72//4
f 7//3 8//3 48//3 47//3
f 46//15 45//15 103//15 106//15
f 73//4 49//4 72//4 81//4
f 8//5 50//5 71//5 48//5
f 24//14 60//14 70//14 44//14
f 42//16 44//16 126//16 124//16
f 91//4 65//4 68//4 93//4
f 38//6 67//6 68//6 40//6
f 79//2 64//2 66//2 80//2
f 30//5 63//5 67//5 38//5
f 80//4 66//4 65//4 91//4
f 78//2 62//2 64//2 79//2
f 83//4 51//4 62//4 78//4
f 6//5 52//5 61//5 28//5
f 85//2 55//2 59//2 87//2
f 20//6 57//6 60//6 24//6
f 87//12 59//12 69//12 94//12
f 20//17 19//17 58//17 57//17
f 84//4 53//4 55//4 85//4
f 11//18 54//18 56//18 15//18
f 15//7 56//7 58//7 19//7
f 28//5 61//5 54//5 11//5
f 12//6 53//6 63//6 30//6
f 48//5 71//5 52//5 6//5
f 81//4 72//4 51//4 83//4
f 50//3 49//3 121//3 120//3
f 3//2 4//2 82//2 73//2
f 45//4 81//4 83//4 1//4
f 9//4 84//4 85//4 13//4
f 21//12 87//12 94//12 41//12
f 13//2 85//2 87//2 21//2
f 1//4 83//4 78//4 25//4
f 25//2 78//2 79//2 31//2
f 35//4 80//4 91//4 33//4
f 31//2 79//2 80//2 35//2
f 33//4 91//4 93//4 39//4
f 70//19 95//19 130//19 125//19
f 3//4 73//4 81//4 45//4
f 50//5 82//5 96//5 71//5
f 60//14 88//14 95//14 70//14
f 67//6 92//6 93//6 68//6
f 63//5 90//5 92//5 67//5
f 52//3 71//3 100//3 101//3
f 57//6 86//6 88//6 60//6
f 57//20 58//20 77//20 86//20
f 54//21 75//21 76//21 56//21
f 56//7 76//7 77//7 58//7
f 61//5 89//5 75//5 54//5
f 53//6 84//6 90//6 63//6
f 89//6 61//6 98//6 97//6
f 101//5 102//5 97//5 98//5
f 100//5 99//5 102//5 101//5
f 61//3 52//3 101//3 98//3
f 74//1 89//1 97//1 102//1
f 71//2 96//2 99//2 100//2
f 96//1 74//1 102//1 99//1
f 106//2 103//2 107//2 110//2
f 1//22 2//22 105//22 104//22
f 2//23 46//23 106//23 105//23
f 45//24 1//24 104//24 103//24
f 109//5 110//5 114//5 113//5
f 104//6 105//6 109//6 108//6
f 105//5 106//5 110//5 109//5
f 103//4 104//4 108//4 107//4
f 113//5 114//5 118//5 117//5
f 107//4 108//4 112//4 111//4
f 110//2 107//2 111//2 114//2
f 108//6 109//6 113//6 112//6
f 116//1 117//1 118//1 115//1
f 111//4 112//4 116//4 115//4
f 114//2 111//2 115//2 118//2
f 122//2 119//2 120//2 121//2
f 82//5 50//5 120//5 119//5
f 73//1 82//1 119//1 122//1
f 49//4 73//4 122//4 121//4
f 123//4 124//4 126//4 125//4
f 129//4 123//4 125//4 130//4
f 128//4 129//4 130//4 127//4
f 95//19 43//19 127//19 130//19
f 94//13 69//13 123//13 129//13
f 43//25 41//25 128//25 127//25
f 44//19 70//19 125//19 126//19
f 41//13 94//13 129//13 128//13
o Cube.048_Cube.024
v -490.229675 552.249146 147.916931
v -679.433411 418.295532 79.682808
v -369.856537 482.960785 -49.837929
v -558.862427 348.551331 -118.137672
v -597.053467 691.552368 -37.861343
v -694.063660 622.870667 -72.846962
v -535.334961 656.026367 -139.255859
v -631.864319 587.385925 -173.670502
v -386.210144 345.106140 -479.637482
v -270.829590 384.174377 -445.233429
v -301.414825 502.743652 -477.303986
v -416.795288 463.675385 -511.708038
v -303.352722 330.402283 -679.161926
v -218.522491 359.126160 -653.867188
v -241.009308 446.300903 -677.446106
v -325.839661 417.577057 -702.740845
v -250.124054 323.736267 -804.014282
v -188.131104 344.727264 -785.529297
v -204.564209 408.433472 -802.760498
v -266.557251 387.442474 -821.245422
v -418.112061 586.673889 -93.149620
v -618.117126 444.849670 -164.372131
v -545.992676 660.322021 116.747101
v -746.855774 518.113770 44.308193
v -280.704620 443.737762 -465.404694
v -403.195221 402.262085 -501.928864
v -220.875366 400.481384 -682.387817
v -310.933289 369.987488 -709.241272
v -185.397949 372.737915 -818.793762
v -251.210968 350.453308 -838.418030
v -217.965271 304.875488 -890.446838
v -155.972473 325.866394 -871.961792
v -151.362549 357.641479 -915.794556
v -217.175659 335.356934 -935.418762
v -232.810272 371.767456 -916.621826
v -170.817322 392.758484 -898.136841
v -195.174957 292.571960 -952.906921
v -133.181946 313.562958 -934.422058
v -128.572327 345.337982 -978.254578
v -194.385437 323.053497 -997.878723
v -210.020020 359.463989 -979.081848
v -148.027161 380.454956 -960.596741
v -164.285217 265.859619 -981.584412
v -124.383118 279.370575 -969.686462
v -121.416077 299.822693 -997.899597
v -163.776917 285.479187 -1010.530701
v -189.175598 350.260040 -1046.245728
v -204.810150 386.670532 -1027.448853
v -142.817322 407.661530 -1008.963928
v -123.362488 372.544586 -1026.621582
v -144.172119 246.544037 -1000.864197
v -117.271301 255.652710 -992.842957
v -115.270935 269.441040 -1011.863464
v -143.829407 259.770966 -1020.378967
v -126.382263 236.329498 -1028.590820
v -109.566223 242.023468 -1023.576721
v -108.315857 250.642639 -1035.466553
v -126.168030 244.597778 -1040.789795
v -178.281616 374.644043 -1065.963257
v -188.677246 398.853943 -1053.464844
v -147.457397 412.811035 -1041.173950
v -134.521729 389.461304 -1052.914917
v -295.023315 441.807465 468.019073
v -372.784576 250.365356 342.716888
v -138.720215 496.399414 287.682648
v -221.877991 306.928284 162.646362
v -449.184875 545.137451 292.270691
v -489.055237 446.979614 228.024780
v -360.742767 575.606384 199.381195
v -411.681244 475.981049 135.697571
v -174.056641 330.307434 -112.249947
v -94.933044 258.045135 -48.019493
v 1.587646 306.033234 -110.438942
v -74.661377 377.522034 -174.811859
v -174.635498 175.637146 -263.802856
v -117.947327 118.985962 -216.493561
v -44.869751 153.699158 -262.490479
v -101.557922 210.350403 -309.799805
v -172.156433 78.342651 -358.637024
v -130.729553 36.942688 -324.063904
v -77.325317 62.310669 -357.677917
v -118.752258 103.710693 -392.250916
v -220.241089 564.944641 253.874603
v -321.733276 364.826813 121.795776
v -399.386078 508.017670 445.986542
v -481.939240 304.778137 312.962830
v -45.502625 270.568481 -81.148170
v -127.357300 352.369751 -149.460388
v -81.760071 121.390137 -251.335022
v -141.941528 181.532471 -301.559570
v -105.772888 29.330627 -358.961090
v -149.752625 73.281738 -395.664642
v -185.399597 11.156494 -423.221283
v -143.972717 -30.243347 -388.648102
v -115.592468 -42.582520 -433.308197
v -159.572205 1.368591 -470.011810
v -129.098206 32.523865 -465.097443
v -87.671204 -8.875916 -430.524445
v -193.868164 -36.633362 -470.300568
v -152.441223 -78.033325 -435.727509
v -124.060974 -90.372559 -480.387604
v -168.040710 -46.421326 -517.091187
v -137.566589 -15.265869 -512.176819
v -96.139648 -56.665710 -477.603607
v -210.887054 -82.349365 -480.813751
v -184.222412 -108.996643 -458.560577
v -165.955261 -116.938843 -487.306305
v -194.263092 -88.649475 -510.930695
v -144.083435 -62.322998 -564.839539
v -113.609314 -31.167480 -559.925110
v -72.182373 -72.567505 -525.352051
v -100.103516 -106.274170 -528.135925
v -223.821716 -112.885986 -487.852203
v -205.845215 -130.850891 -472.849762
v -193.530182 -136.205383 -492.229462
v -212.614319 -117.133362 -508.156342
v -229.537506 -142.155273 -505.179474
v -218.300232 -153.385254 -495.801178
v -210.601685 -156.732239 -507.915558
v -222.531616 -144.810364 -517.871643
v -118.915283 -72.820679 -583.771057
v -98.652588 -52.104919 -580.503357
v -71.107239 -79.632263 -557.515320
v -89.672485 -102.044189 -559.366333
vn 0.3729 -0.7807 0.5015
vn -0.2543 0.8239 -0.5064
vn -0.3732 0.7799 -0.5025
vn -0.3814 0.0691 0.9218
vn 0.5072 0.8618 0.0067
vn -0.7600 -0.5974 -0.2559
vn -0.2151 0.9211 -0.3247
vn 0.9090 0.3853 0.1586
vn -0.8501 -0.1609 -0.5015
vn 0.4086 -0.8735 0.2646
vn -0.8968 -0.2121 -0.3884
vn 0.9516 0.2193 0.2155
vn -0.8981 -0.2458 -0.3647
vn 0.2667 -0.9467 0.1805
vn 0.8946 0.3658 0.2567
vn 0.2714 -0.9480 0.1663
vn -0.2098 0.9174 -0.3382
vn 0.9614 0.1800 0.2080
vn 0.9052 0.3981 0.1490
vn 0.2289 -0.9298 0.2881
vn -0.8598 -0.3941 -0.3246
vn 0.9133 0.3675 0.1754
vn -0.8405 -0.4302 -0.3294
vn -0.7496 -0.5420 -0.3799
vn 0.6711 0.7402 0.0421
vn -0.8630 -0.1153 -0.4919
vn 0.8044 0.5051 0.3128
vn -0.6221 0.7018 0.3472
vn -0.2356 0.9336 -0.2699
vn -0.8981 -0.3566 -0.2575
vn -0.2459 0.9388 -0.2413
vn 0.9236 0.2554 0.2860
vn -0.8966 -0.3609 -0.2567
vn -0.9250 -0.2503 -0.2859
vn 0.8913 0.3473 0.2914
vn 0.0329 -0.7134 0.6999
vn 0.9225 0.2599 0.2854
vn 0.8945 0.3679 0.2539
vn -0.9248 -0.2481 -0.2885
vn 0.2356 -0.9336 0.2699
vn 0.1191 0.4344 -0.8928
vn -0.7788 -0.5128 -0.3612
vn 0.9829 0.0837 0.1641
vn 0.1303 0.4101 -0.9027
vn 0.8642 0.5011 -0.0444
vn -0.9296 -0.2693 -0.2516
vn -0.4005 0.8164 0.4161
vn 0.4005 -0.8164 -0.4161
vn -0.0716 0.7698 -0.6342
vn 0.9764 0.1127 0.1844
vn -0.8009 -0.4891 -0.3455
vn 0.0211 -0.6952 0.7185
vn 0.4082 -0.7590 -0.5073
vn 0.9742 0.1213 0.1904
vn -0.8075 -0.4816 -0.3406
vn 0.1698 -0.8844 0.4348
vn 0.0935 0.4881 -0.8678
vn -0.8319 -0.0732 -0.5501
vn 0.4112 -0.6772 -0.6102
vn -0.3669 0.9089 0.1982
vn 0.7022 -0.5737 0.4216
vn 0.1617 0.9179 -0.3623
vn -0.6864 0.5901 -0.4250
vn -0.4132 -0.3752 0.8297
vn -0.0402 0.9652 0.2583
vn -0.2774 -0.8254 -0.4917
vn 0.7707 0.3187 -0.5517
vn 0.9280 0.3726 0.0064
vn -0.7377 -0.2542 -0.6254
vn 0.2397 -0.9039 0.3542
vn -0.5215 0.5771 -0.6285
vn 0.5180 -0.6940 0.5000
vn -0.5520 0.5781 -0.6009
vn -0.7807 -0.4307 0.4528
vn 0.6563 -0.5839 0.4778
vn -0.7922 -0.4362 0.4268
vn 0.7716 0.3066 -0.5574
vn 0.4998 -0.7131 0.4915
vn 0.6827 -0.6263 0.3764
vn -0.7805 -0.3464 0.5204
vn -0.6763 0.5191 -0.5227
vn 0.6846 -0.6116 0.3966
vn -0.7043 0.4902 -0.5134
vn -0.6362 -0.7123 -0.2964
vn 0.5774 0.7892 -0.2093
vn -0.6245 -0.4233 -0.6563
vn 0.3713 0.7430 0.5569
vn -0.9281 0.1556 0.3382
vn 0.7831 0.3604 -0.5068
vn -0.6489 0.5892 -0.4814
vn 0.7866 0.3820 -0.4851
vn 0.5639 -0.6285 0.5357
vn -0.6524 0.5870 -0.4794
vn -0.5596 0.6312 -0.5370
vn 0.6403 -0.5727 0.5120
vn -0.6123 0.0464 0.7893
vn 0.5678 -0.6266 0.5339
vn 0.6581 -0.5844 0.4748
vn -0.5576 0.6306 -0.5398
vn -0.7831 -0.3604 0.5068
vn 0.3859 -0.3325 -0.8605
vn -0.7641 0.4007 -0.5056
vn 0.4132 -0.7758 0.4769
vn 0.3660 -0.3529 -0.8611
vn 0.7528 -0.6372 0.1651
vn -0.5766 0.6434 -0.5036
vn 0.6665 0.7403 0.0879
vn -0.6665 -0.7403 -0.0879
vn 0.6573 0.0288 -0.7531
vn 0.4398 -0.7541 0.4878
vn -0.7479 0.4328 -0.5033
vn -0.5976 0.0690 0.7988
vn -0.6162 -0.7668 -0.1798
vn 0.4476 -0.7474 0.4909
vn -0.7427 0.4425 -0.5025
vn -0.7469 -0.2247 0.6259
vn 0.4298 -0.2853 -0.8567
vn -0.3806 0.4955 -0.7808
vn -0.5454 -0.7869 -0.2887
vn 0.7495 0.6514 -0.1180
usemtl Matériau.012
s off
f 131//26 132//26 134//26 133//26
f 138//27 137//27 141//27 142//27
f 137//28 138//28 136//28 135//28
f 153//29 154//29 132//29 131//29
f 151//30 137//30 135//30 153//30
f 152//31 134//31 132//31 154//31
f 142//32 141//32 145//32 146//32
f 151//33 133//33 140//33 155//33
f 152//34 138//34 142//34 156//34
f 133//35 134//35 139//35 140//35
f 158//36 146//36 150//36 160//36
f 155//37 140//37 144//37 157//37
f 156//38 142//38 146//38 158//38
f 140//39 139//39 143//39 144//39
f 149//40 159//40 163//40 166//40
f 144//41 143//41 147//41 148//41
f 146//42 145//42 149//42 150//42
f 157//43 144//43 148//43 159//43
f 145//44 157//44 159//44 149//44
f 148//45 147//45 161//45 162//45
f 139//46 156//46 158//46 143//46
f 141//47 155//47 157//47 145//47
f 143//48 158//48 160//48 147//48
f 134//49 152//49 156//49 139//49
f 137//50 151//50 155//50 141//50
f 138//51 152//51 154//51 136//51
f 133//52 151//52 153//52 131//52
f 135//53 136//53 154//53 153//53
f 165//54 166//54 172//54 171//54
f 161//55 164//55 170//55 167//55
f 150//56 149//56 166//56 165//56
f 159//57 148//57 162//57 163//57
f 147//58 160//58 164//58 161//58
f 160//59 150//59 165//59 164//59
f 172//60 169//60 180//60 179//60
f 168//61 167//61 173//61 174//61
f 163//62 162//62 168//62 169//62
f 166//63 163//63 169//63 172//63
f 164//64 165//64 171//64 170//64
f 162//65 161//65 167//65 168//65
f 176//66 175//66 183//66 184//66
f 167//67 170//67 176//67 173//67
f 169//68 168//68 174//68 175//68
f 170//69 169//69 175//69 176//69
f 179//70 180//70 192//70 191//70
f 170//71 171//71 178//71 177//71
f 171//72 172//72 179//72 178//72
f 169//73 170//73 177//73 180//73
f 184//74 183//74 187//74 188//74
f 175//75 174//75 182//75 183//75
f 173//76 176//76 184//76 181//76
f 174//77 173//77 181//77 182//77
f 186//78 185//78 188//78 187//78
f 183//79 182//79 186//79 187//79
f 181//80 184//80 188//80 185//80
f 182//81 181//81 185//81 186//81
f 192//82 189//82 190//82 191//82
f 177//83 178//83 190//83 189//83
f 180//84 177//84 189//84 192//84
f 178//85 179//85 191//85 190//85
f 193//86 194//86 196//86 195//86
f 200//87 199//87 203//87 204//87
f 199//88 200//88 198//88 197//88
f 215//89 216//89 194//89 193//89
f 213//90 199//90 197//90 215//90
f 214//91 196//91 194//91 216//91
f 204//92 203//92 207//92 208//92
f 213//93 195//93 202//93 217//93
f 214//94 200//94 204//94 218//94
f 195//95 196//95 201//95 202//95
f 220//96 208//96 212//96 222//96
f 217//97 202//97 206//97 219//97
f 218//98 204//98 208//98 220//98
f 202//99 201//99 205//99 206//99
f 211//100 221//100 225//100 228//100
f 206//101 205//101 209//101 210//101
f 208//102 207//102 211//102 212//102
f 219//103 206//103 210//103 221//103
f 207//104 219//104 221//104 211//104
f 210//105 209//105 223//105 224//105
f 201//106 218//106 220//106 205//106
f 203//107 217//107 219//107 207//107
f 205//108 220//108 222//108 209//108
f 196//109 214//109 218//109 201//109
f 199//110 213//110 217//110 203//110
f 200//111 214//111 216//111 198//111
f 195//112 213//112 215//112 193//112
f 197//113 198//113 216//113 215//113
f 227//114 228//114 234//114 233//114
f 223//115 226//115 232//115 229//115
f 212//116 211//116 228//116 227//116
f 221//117 210//117 224//117 225//117
f 209//118 222//118 226//118 223//118
f 222//119 212//119 227//119 226//119
f 234//120 231//120 242//120 241//120
f 230//121 229//121 235//121 236//121
f 225//122 224//122 230//122 231//122
f 228//123 225//123 231//123 234//123
f 226//124 227//124 233//124 232//124
f 224//125 223//125 229//125 230//125
f 238//126 237//126 245//126 246//126
f 229//127 232//127 238//127 235//127
f 231//128 230//128 236//128 237//128
f 232//129 231//129 237//129 238//129
f 241//130 242//130 254//130 253//130
f 232//131 233//131 240//131 239//131
f 233//132 234//132 241//132 240//132
f 231//133 232//133 239//133 242//133
f 246//134 245//134 249//134 250//134
f 237//135 236//135 244//135 245//135
f 235//136 238//136 246//136 243//136
f 236//137 235//137 243//137 244//137
f 248//138 247//138 250//138 249//138
f 245//139 244//139 248//139 249//139
f 243//140 246//140 250//140 247//140
f 244//141 243//141 247//141 248//141
f 254//142 251//142 252//142 253//142
f 239//143 240//143 252//143 251//143
f 242//144 239//144 251//144 254//144
f 240//145 241//145 253//145 252//145
