# Blender v2.91.2 OBJ File: 'camionnete02.blend'
# www.blender.org
mtllib arme_000038.mtl
o Cube.046_Cube.010
v 87.944595 154.236176 -1148.951904
v 23.034851 -55.643715 -1131.167969
v 155.746704 115.797768 -1355.118042
v 90.836975 -94.082146 -1337.334229
v -111.476265 209.481323 -1224.835938
v -176.386047 -0.398582 -1207.052002
v -43.674141 171.042908 -1431.001831
v -108.583923 -38.837021 -1413.218262
v -5.405533 207.158264 -865.101990
v -70.315292 -2.721581 -847.318054
v -269.736115 52.523537 -923.201965
v -204.826355 262.403412 -940.985901
v -47.652534 231.109009 -736.641174
v -112.562325 21.229126 -718.857361
v -311.983215 76.474266 -794.741211
v -247.073456 286.354156 -812.525146
v -72.610222 245.258026 -660.752380
v -115.503586 90.182503 -660.438354
v -314.924500 145.427673 -736.322266
v -272.031128 300.503204 -736.636292
v 17.056534 440.340057 -754.370178
v -182.364349 495.585175 -830.254150
v -7.901123 454.489105 -678.481323
v -207.321991 509.734222 -754.365234
v 9.158829 198.901428 -909.387756
v -55.750938 -10.978409 -891.603882
v -190.262054 254.146606 -985.271790
v -255.171829 44.266716 -967.487793
v 16.021667 276.441193 -870.972595
v -183.399200 331.686371 -946.856567
v 30.586029 268.184387 -915.258301
v -168.834869 323.429504 -991.142212
v 47.109055 376.959442 -879.489929
v -152.311798 432.204498 -955.373718
v 61.673340 368.702545 -923.775696
v -137.747467 423.947754 -999.659607
v -25.270515 299.850616 -745.415222
v -224.691422 355.095734 -821.299194
v 5.816864 400.368805 -753.932556
v -193.604034 455.613922 -829.816467
v 73.097672 561.659546 -813.321289
v -126.323227 616.904663 -889.205322
v 48.139954 575.808594 -737.432556
v -151.280884 631.053711 -813.316528
v 131.810455 129.367706 -1282.335083
v 66.900681 -80.512184 -1264.551147
v -67.610390 184.612823 -1358.218994
v -132.520142 -25.267052 -1340.434937
v 56.036285 143.420319 -1393.059937
v -8.873482 -66.459587 -1375.276123
v -11.765831 181.858734 -1186.893921
v -76.675598 -28.021141 -1169.109863
v -105.115944 234.780823 -903.043884
v -170.025696 24.900978 -885.259949
v -147.362976 258.731598 -774.583191
v -204.632904 57.831520 -744.196472
v -172.320663 272.880585 -698.694336
v -206.616211 104.326958 -704.804443
v -82.653915 467.962677 -792.312073
v -107.611588 482.111603 -716.423279
v -155.461380 16.644142 -929.545776
v -90.551620 226.524017 -947.329712
v -83.688759 304.063782 -908.914551
v -69.124428 295.806885 -953.200256
v -52.601349 404.581970 -917.431824
v -38.037056 396.325134 -961.717651
v -124.980957 327.473175 -783.357239
v -93.893570 427.991394 -791.874451
v -26.612793 589.282166 -851.263306
v -51.570496 603.431152 -775.374512
v -32.809731 -52.889618 -1302.493042
v 32.100052 156.990295 -1320.276855
v 105.891541 129.609039 -1374.088867
v -26.820374 -41.832420 -1150.138916
v -120.170517 11.089684 -866.289062
v -171.015411 48.518517 -731.404358
v -172.998703 95.013969 -692.012207
v -40.696381 212.712708 -928.358704
v -19.269226 281.995636 -934.229370
v 11.818161 382.513855 -942.746643
v 81.955231 143.179016 -1301.305908
v 40.981750 -80.270866 -1356.305054
v 38.089355 168.047455 -1167.922974
v -55.260742 220.969543 -884.072998
v -97.507774 244.920288 -755.612122
v -122.465462 259.069305 -679.723328
v -32.798676 454.151337 -773.341187
v -57.756348 468.300385 -697.452271
v -105.606163 2.832870 -910.574829
v -33.833542 290.252472 -889.943604
v -2.746155 390.770721 -898.460876
v -75.125755 313.661896 -764.386230
v -44.038345 414.180084 -772.903381
v 23.242462 575.470825 -832.292297
v -1.715256 589.619812 -756.403503
v 17.045441 -66.700890 -1283.522217
v -117.759628 -36.464279 -907.245056
v -167.614838 -22.653000 -926.216003
v 4.891937 -105.998032 -1280.192383
v -44.963181 -92.186768 -1299.163452
v -88.829071 -67.318306 -1165.780151
v -38.973824 -81.129578 -1146.809082
v 185.539001 54.478279 -1208.184570
v 166.141937 65.474861 -1149.203979
v 137.439636 -27.331932 -1141.339966
v 156.836578 -38.328484 -1200.320801
v 228.632812 42.540092 -1191.786621
v 209.235779 53.536644 -1132.805908
v 180.533386 -39.270073 -1124.942017
v 199.930420 -50.266655 -1183.922729
v 294.580109 24.270851 -1166.692383
v 275.183044 35.267433 -1107.711548
v 246.480591 -57.539253 -1099.847778
v 265.877625 -68.535851 -1158.828491
v 337.016296 12.514824 -1150.544434
v 317.619232 23.511421 -1091.563721
v 288.916962 -69.295326 -1083.699951
v 308.313904 -80.291893 -1142.680542
v 263.725098 -206.548248 -2033.599731
v 213.869904 -192.736938 -2052.570801
v 278.779480 17.143013 -2070.354736
v 328.634827 3.331703 -2051.383789
v 15.218872 643.424500 -874.548340
v -76.658936 668.877197 -909.509766
v -7.778290 656.461975 -804.620728
v -99.656036 681.914673 -839.582275
v 84.099487 631.009338 -769.659363
v 107.096725 617.971863 -839.586670
v 61.157837 630.698303 -857.067444
v 38.160583 643.735657 -787.140076
vn 0.9048 -0.2507 0.3443
vn 0.3076 -0.1744 -0.9354
vn -0.9048 0.2507 -0.3443
vn 0.2945 0.9522 -0.0807
vn -0.2945 -0.9522 0.0807
vn -0.3076 0.1744 0.9354
vn -0.4245 -0.5958 0.6818
vn -0.3746 -0.9235 0.0828
vn -0.4120 0.0866 0.9070
vn -0.9053 0.2504 -0.3430
vn 0.9053 -0.2504 0.3430
vn 0.1848 -0.4973 -0.8477
vn 0.1818 -0.5037 -0.8445
vn -0.1848 0.4973 0.8477
vn 0.6388 -0.2590 -0.7244
vn -0.7417 0.5718 -0.3505
vn -0.3000 0.0545 0.9524
vn -0.2671 -0.9555 0.1255
vn -0.1498 0.5695 0.8083
vn -0.3465 0.0365 0.9373
vn -0.3141 -0.9387 0.1421
vn 0.0732 0.0617 0.9954
vn 0.2536 -0.9325 0.2573
vn 0.7449 0.6559 0.1227
vn 0.8650 -0.3584 0.3513
usemtl Matériau.011
s off
f 45//1 46//1 4//1 3//1
f 49//2 50//2 8//2 7//2
f 47//3 48//3 6//3 5//3
f 26//1 25//1 9//1 10//1
f 72//4 47//4 5//4 51//4
f 96//5 46//5 2//5 74//5
f 10//1 9//1 13//1 14//1
f 84//6 9//6 29//6 90//6
f 89//5 26//5 10//5 75//5
f 27//3 28//3 11//3 12//3
f 76//7 14//7 18//7 77//7
f 75//8 10//8 14//8 76//8
f 12//3 11//3 15//3 16//3
f 53//4 12//4 16//4 55//4
f 86//9 77//9 18//9 17//9
f 16//10 15//10 19//10 20//10
f 16//3 20//3 24//3 22//3
f 14//11 13//11 17//11 18//11
f 59//12 22//12 42//12 69//12
f 86//6 17//6 23//6 88//6
f 17//1 13//1 21//1 23//1
f 55//2 16//2 22//2 59//2
f 5//3 6//3 28//3 27//3
f 74//5 2//5 26//5 89//5
f 51//4 5//4 27//4 62//4
f 2//1 1//1 25//1 26//1
f 32//3 30//3 34//3 36//3
f 62//2 27//2 32//2 64//2
f 27//3 12//3 30//3 32//3
f 9//1 25//1 31//1 29//1
f 66//4 36//4 34//4 65//4
f 90//5 29//5 37//5 92//5
f 64//2 32//2 36//2 66//2
f 29//1 31//1 35//1 33//1
f 92//6 37//6 39//6 93//6
f 29//1 33//1 39//1 37//1
f 34//3 30//3 38//3 40//3
f 65//4 34//4 40//4 68//4
f 69//13 42//13 124//13 123//13
f 23//1 21//1 41//1 43//1
f 88//14 23//14 43//14 95//14
f 22//3 24//3 44//3 42//3
f 82//5 4//5 46//5 96//5
f 49//4 7//4 47//4 72//4
f 7//3 8//3 48//3 47//3
f 46//15 45//15 103//15 106//15
f 73//4 49//4 72//4 81//4
f 8//5 50//5 71//5 48//5
f 24//14 60//14 70//14 44//14
f 42//16 44//16 126//16 124//16
f 91//4 65//4 68//4 93//4
f 38//6 67//6 68//6 40//6
f 79//2 64//2 66//2 80//2
f 30//5 63//5 67//5 38//5
f 80//4 66//4 65//4 91//4
f 78//2 62//2 64//2 79//2
f 83//4 51//4 62//4 78//4
f 6//5 52//5 61//5 28//5
f 85//2 55//2 59//2 87//2
f 20//6 57//6 60//6 24//6
f 87//12 59//12 69//12 94//12
f 20//17 19//17 58//17 57//17
f 84//4 53//4 55//4 85//4
f 11//18 54//18 56//18 15//18
f 15//7 56//7 58//7 19//7
f 28//5 61//5 54//5 11//5
f 12//6 53//6 63//6 30//6
f 48//5 71//5 52//5 6//5
f 81//4 72//4 51//4 83//4
f 50//3 49//3 121//3 120//3
f 3//2 4//2 82//2 73//2
f 45//4 81//4 83//4 1//4
f 9//4 84//4 85//4 13//4
f 21//12 87//12 94//12 41//12
f 13//2 85//2 87//2 21//2
f 1//4 83//4 78//4 25//4
f 25//2 78//2 79//2 31//2
f 35//4 80//4 91//4 33//4
f 31//2 79//2 80//2 35//2
f 33//4 91//4 93//4 39//4
f 70//19 95//19 130//19 125//19
f 3//4 73//4 81//4 45//4
f 50//5 82//5 96//5 71//5
f 60//14 88//14 95//14 70//14
f 67//6 92//6 93//6 68//6
f 63//5 90//5 92//5 67//5
f 52//3 71//3 100//3 101//3
f 57//6 86//6 88//6 60//6
f 57//20 58//20 77//20 86//20
f 54//21 75//21 76//21 56//21
f 56//7 76//7 77//7 58//7
f 61//5 89//5 75//5 54//5
f 53//6 84//6 90//6 63//6
f 89//6 61//6 98//6 97//6
f 101//5 102//5 97//5 98//5
f 100//5 99//5 102//5 101//5
f 61//3 52//3 101//3 98//3
f 74//1 89//1 97//1 102//1
f 71//2 96//2 99//2 100//2
f 96//1 74//1 102//1 99//1
f 106//2 103//2 107//2 110//2
f 1//22 2//22 105//22 104//22
f 2//23 46//23 106//23 105//23
f 45//24 1//24 104//24 103//24
f 109//5 110//5 114//5 113//5
f 104//6 105//6 109//6 108//6
f 105//5 106//5 110//5 109//5
f 103//4 104//4 108//4 107//4
f 113//5 114//5 118//5 117//5
f 107//4 108//4 112//4 111//4
f 110//2 107//2 111//2 114//2
f 108//6 109//6 113//6 112//6
f 116//1 117//1 118//1 115//1
f 111//4 112//4 116//4 115//4
f 114//2 111//2 115//2 118//2
f 122//2 119//2 120//2 121//2
f 82//5 50//5 120//5 119//5
f 73//1 82//1 119//1 122//1
f 49//4 73//4 122//4 121//4
f 123//4 124//4 126//4 125//4
f 129//4 123//4 125//4 130//4
f 128//4 129//4 130//4 127//4
f 95//19 43//19 127//19 130//19
f 94//13 69//13 123//13 129//13
f 43//25 41//25 128//25 127//25
f 44//19 70//19 125//19 126//19
f 41//13 94//13 129//13 128//13
o Cube.048_Cube.024
v -563.472900 462.047302 182.180344
v -725.959656 341.066376 50.426003
v -423.476471 486.830536 -13.227806
v -586.518616 368.926697 -142.644226
v -680.292236 646.328552 49.048912
v -763.603760 584.298279 -18.505234
v -608.512146 659.035583 -51.142319
v -691.201233 597.888916 -118.250679
v -413.960999 461.669891 -437.675262
v -300.075409 498.032227 -396.076141
v -327.895264 618.112061 -424.877441
v -441.780701 581.749695 -466.476593
v -321.393188 453.864380 -633.281738
v -237.662018 480.598877 -602.697021
v -258.115723 568.884277 -623.872375
v -341.846954 542.149841 -654.457031
v -262.066040 451.497131 -755.513245
v -200.876404 471.034302 -733.162354
v -215.823669 535.552124 -748.637085
v -277.013336 516.015015 -770.987854
v -484.657257 592.595337 -21.021324
v -656.556763 467.957214 -158.380005
v -633.402466 566.223511 186.420227
v -805.902161 437.787354 46.546768
v -308.365540 558.451050 -414.325348
v -429.269135 519.847961 -458.487946
v -238.196136 523.066467 -629.630920
v -327.087158 494.684601 -662.100342
v -196.220795 500.296478 -765.109863
v -261.181213 479.555359 -788.838135
v -225.814575 435.677887 -840.930420
v -164.625000 455.214996 -818.579468
v -157.532043 488.632050 -860.831299
v -222.492493 467.890930 -884.559509
v -238.699219 503.711914 -865.125488
v -177.509644 523.249023 -842.774658
v -200.053650 425.576416 -902.626160
v -138.863953 445.113586 -880.275330
v -131.771179 478.530518 -922.527039
v -196.731537 457.789429 -946.255188
v -212.938293 493.610413 -926.821045
v -151.748718 513.147522 -904.470215
v -168.026184 399.658691 -930.779968
v -128.641113 412.233856 -916.393860
v -124.075745 433.742920 -943.589294
v -165.887878 420.392731 -958.862061
v -188.856567 486.812927 -993.184265
v -205.063354 522.633911 -973.750061
v -143.873657 542.171143 -951.399231
v -123.896179 507.554108 -969.455994
v -147.160400 380.885925 -949.794128
v -120.608093 389.363770 -940.095398
v -117.530273 403.864594 -958.429749
v -145.718689 394.864288 -968.726379
v -128.106750 371.565002 -976.990906
v -111.508789 376.864594 -970.928040
v -109.584656 385.929199 -982.389221
v -127.205566 380.302979 -988.825867
v -176.761108 511.826111 -1011.352600
v -187.537292 535.643921 -998.430481
v -146.851562 548.634399 -983.569153
v -133.568176 525.617065 -995.575378
v -303.432617 532.021973 436.571228
v -297.388916 316.843628 326.756256
v -152.234680 611.632751 263.859161
v -153.783386 408.377686 155.302094
v -461.236603 562.868042 237.883698
v -458.137817 452.540039 181.578491
v -384.587830 609.197388 152.954590
v -384.507263 499.472107 93.669113
v 8.588989 628.908020 -143.386749
v 83.836609 673.630920 -52.459465
v 6.301514 771.633484 -37.074272
v -68.480652 727.912292 -126.621010
v 119.836731 759.338196 -275.687164
v 175.795959 791.549805 -208.664581
v 119.132751 864.339905 -196.338043
v 63.173401 832.128357 -263.360748
v 189.455566 843.278687 -356.761932
v 230.349976 866.818481 -307.782562
v 188.941101 920.012573 -298.774475
v 148.046753 896.472717 -347.753754
v -258.302155 645.505859 220.817047
v -261.642456 425.276703 99.868042
v -420.513550 556.540344 398.469940
v -414.097412 328.101990 281.887787
v 51.407288 726.471924 -44.847023
v -29.394958 679.960083 -141.624146
v 158.947815 838.709717 -213.281158
v 99.540100 804.513000 -284.433929
v 224.960754 908.214661 -320.268585
v 181.546326 883.224243 -372.266022
v 240.282166 889.247375 -421.291199
v 281.176331 912.787109 -372.311798
v 277.364014 963.765808 -390.719910
v 233.949768 938.775391 -442.717529
v 200.207825 950.550964 -417.295013
v 241.102051 974.090698 -368.315582
v 275.998352 923.331909 -467.493134
v 316.892761 946.871704 -418.513824
v 313.080566 997.850525 -436.921936
v 269.666077 972.860168 -488.919342
v 235.924072 984.635498 -463.496857
v 276.818481 1008.175354 -414.517639
v 320.019653 929.208862 -490.246246
v 346.341614 944.360352 -458.720612
v 343.887878 977.173096 -470.569244
v 315.943909 961.087891 -504.037506
v 269.260315 1023.227356 -512.787537
v 235.518372 1035.002808 -487.365021
v 276.412781 1058.542725 -438.385712
v 312.674866 1048.217773 -460.789948
v 349.685852 931.941528 -506.426178
v 367.431458 942.156128 -485.172394
v 365.777039 964.277710 -493.160431
v 346.937927 953.433472 -515.723816
v 374.431335 945.782837 -526.064636
v 385.524231 952.168213 -512.778503
v 384.490051 965.996460 -517.771667
v 372.713562 959.217712 -531.876404
v 270.451233 1056.402832 -512.928894
v 248.015808 1064.232422 -496.025177
v 275.206848 1079.884155 -463.458099
v 299.317932 1073.019165 -478.354950
vn 0.4603 -0.8615 0.2143
vn -0.2933 0.9118 -0.2874
vn -0.4606 0.8602 -0.2190
vn -0.4363 -0.3270 0.8383
vn 0.3673 0.8527 0.3716
vn -0.6393 -0.5442 -0.5432
vn -0.1898 0.9355 -0.2980
vn 0.8558 0.4077 0.3184
vn -0.7993 -0.0971 -0.5931
vn 0.4558 -0.8879 0.0628
vn -0.8783 -0.1864 -0.4404
vn 0.9417 0.1997 0.2709
vn -0.8811 -0.2210 -0.4182
vn 0.2484 -0.9561 0.1557
vn 0.8841 0.3451 0.3150
vn 0.2538 -0.9568 0.1417
vn -0.1839 0.9323 -0.3114
vn 0.9515 0.1606 0.2623
vn 0.9004 0.3815 0.2093
vn 0.2054 -0.9430 0.2618
vn -0.8463 -0.3711 -0.3822
vn 0.9069 0.3499 0.2349
vn -0.8271 -0.4073 -0.3874
vn -0.6630 -0.4913 -0.5648
vn 0.5892 0.7592 0.2767
vn -0.8060 -0.0310 -0.5911
vn 0.6995 0.4463 0.5581
vn -0.7400 0.4396 0.5090
vn -0.2130 0.9461 -0.2439
vn -0.8875 -0.3359 -0.3156
vn -0.2247 0.9503 -0.2156
vn 0.9105 0.2334 0.3413
vn -0.8860 -0.3403 -0.3149
vn -0.9119 -0.2283 -0.3410
vn 0.8789 0.3253 0.3487
vn -0.0089 -0.7407 0.6718
vn 0.9095 0.2379 0.3408
vn 0.8842 0.3474 0.3123
vn -0.9115 -0.2260 -0.3436
vn 0.2130 -0.9461 0.2439
vn 0.1676 0.4678 -0.8678
vn -0.7646 -0.4893 -0.4195
vn 0.9742 0.0660 0.2157
vn 0.1791 0.4437 -0.8781
vn 0.8701 0.4925 0.0184
vn -0.9184 -0.2485 -0.3078
vn -0.4130 0.8039 0.4279
vn 0.4130 -0.8039 -0.4279
vn -0.0325 0.7949 -0.6058
vn 0.9670 0.0942 0.2368
vn -0.7873 -0.4659 -0.4039
vn -0.0213 -0.7231 0.6905
vn 0.4258 -0.7431 -0.5162
vn 0.9646 0.1026 0.2431
vn -0.7940 -0.4586 -0.3991
vn 0.1395 -0.9027 0.4071
vn 0.1413 0.5207 -0.8420
vn -0.8040 -0.0420 -0.5931
vn 0.4347 -0.6573 -0.6156
vn -0.3676 0.9046 0.2158
vn 0.7935 -0.2749 0.5430
vn -0.6101 0.6843 -0.3993
vn -0.7941 0.2736 -0.5428
vn -0.3596 -0.4322 0.8270
vn -0.3628 0.9206 0.1444
vn 0.0744 -0.9043 -0.4204
vn -0.5677 0.8197 0.0765
vn 0.3529 0.7767 0.5217
vn -0.3522 -0.4062 -0.8432
vn 0.8153 -0.4946 0.3010
vn -0.6150 -0.2007 -0.7626
vn 0.6890 0.3200 0.6503
vn -0.6041 -0.2404 -0.7598
vn 0.6491 -0.7393 -0.1792
vn 0.5622 0.3930 0.7277
vn 0.6541 -0.7308 -0.1949
vn -0.5583 0.8268 0.0688
vn 0.7155 0.3014 0.6303
vn 0.5737 0.4835 0.6611
vn 0.5890 -0.8011 -0.1068
vn -0.5077 -0.3642 -0.7808
vn 0.5782 0.4579 0.6752
vn -0.4732 -0.3828 -0.7934
vn -0.0805 -0.7185 -0.6909
vn -0.0816 0.9258 0.3691
vn -0.3649 -0.6592 -0.6575
vn 0.0575 0.8786 0.4741
vn -0.9600 -0.1482 0.2376
vn -0.5995 0.7913 0.1203
vn -0.5694 -0.3866 -0.7254
vn -0.6155 0.7754 0.1413
vn 0.6345 0.3013 0.7118
vn -0.5662 -0.3899 -0.7262
vn -0.6381 -0.2980 -0.7100
vn 0.5624 0.3578 0.7454
vn 0.2501 -0.9375 0.2418
vn 0.6315 0.3047 0.7130
vn 0.5616 0.3962 0.7264
vn -0.6385 -0.2947 -0.7110
vn 0.5995 -0.7913 -0.1203
vn 0.0443 0.8855 -0.4625
vn -0.3756 -0.4080 -0.8321
vn 0.7865 0.2609 0.5598
vn 0.0670 0.8763 -0.4771
vn 0.5212 0.6621 0.5385
vn -0.6388 -0.3337 -0.6933
vn -0.7990 0.2522 0.5459
vn 0.7990 -0.2522 -0.5459
vn -0.3209 0.9300 -0.1790
vn 0.7639 0.2690 0.5866
vn -0.4085 -0.4059 -0.8175
vn 0.2283 -0.9382 0.2602
vn 0.7935 -0.1533 -0.5889
vn 0.7570 0.2713 0.5945
vn -0.4185 -0.4051 -0.8129
vn 0.4925 -0.8703 0.0071
vn -0.0073 0.9036 -0.4282
vn -0.5976 0.0180 -0.8016
vn 0.7744 -0.0305 -0.6319
vn -0.7779 0.4596 0.4286
usemtl Matériau.012
s off
f 131//26 132//26 134//26 133//26
f 138//27 137//27 141//27 142//27
f 137//28 138//28 136//28 135//28
f 153//29 154//29 132//29 131//29
f 151//30 137//30 135//30 153//30
f 152//31 134//31 132//31 154//31
f 142//32 141//32 145//32 146//32
f 151//33 133//33 140//33 155//33
f 152//34 138//34 142//34 156//34
f 133//35 134//35 139//35 140//35
f 158//36 146//36 150//36 160//36
f 155//37 140//37 144//37 157//37
f 156//38 142//38 146//38 158//38
f 140//39 139//39 143//39 144//39
f 149//40 159//40 163//40 166//40
f 144//41 143//41 147//41 148//41
f 146//42 145//42 149//42 150//42
f 157//43 144//43 148//43 159//43
f 145//44 157//44 159//44 149//44
f 148//45 147//45 161//45 162//45
f 139//46 156//46 158//46 143//46
f 141//47 155//47 157//47 145//47
f 143//48 158//48 160//48 147//48
f 134//49 152//49 156//49 139//49
f 137//50 151//50 155//50 141//50
f 138//51 152//51 154//51 136//51
f 133//52 151//52 153//52 131//52
f 135//53 136//53 154//53 153//53
f 165//54 166//54 172//54 171//54
f 161//55 164//55 170//55 167//55
f 150//56 149//56 166//56 165//56
f 159//57 148//57 162//57 163//57
f 147//58 160//58 164//58 161//58
f 160//59 150//59 165//59 164//59
f 172//60 169//60 180//60 179//60
f 168//61 167//61 173//61 174//61
f 163//62 162//62 168//62 169//62
f 166//63 163//63 169//63 172//63
f 164//64 165//64 171//64 170//64
f 162//65 161//65 167//65 168//65
f 176//66 175//66 183//66 184//66
f 167//67 170//67 176//67 173//67
f 169//68 168//68 174//68 175//68
f 170//69 169//69 175//69 176//69
f 179//70 180//70 192//70 191//70
f 170//71 171//71 178//71 177//71
f 171//72 172//72 179//72 178//72
f 169//73 170//73 177//73 180//73
f 184//74 183//74 187//74 188//74
f 175//75 174//75 182//75 183//75
f 173//76 176//76 184//76 181//76
f 174//77 173//77 181//77 182//77
f 186//78 185//78 188//78 187//78
f 183//79 182//79 186//79 187//79
f 181//80 184//80 188//80 185//80
f 182//81 181//81 185//81 186//81
f 192//82 189//82 190//82 191//82
f 177//83 178//83 190//83 189//83
f 180//84 177//84 189//84 192//84
f 178//85 179//85 191//85 190//85
f 193//86 194//86 196//86 195//86
f 200//87 199//87 203//87 204//87
f 199//88 200//88 198//88 197//88
f 215//89 216//89 194//89 193//89
f 213//90 199//90 197//90 215//90
f 214//91 196//91 194//91 216//91
f 204//92 203//92 207//92 208//92
f 213//93 195//93 202//93 217//93
f 214//94 200//94 204//94 218//94
f 195//95 196//95 201//95 202//95
f 220//96 208//96 212//96 222//96
f 217//97 202//97 206//97 219//97
f 218//98 204//98 208//98 220//98
f 202//99 201//99 205//99 206//99
f 211//100 221//100 225//100 228//100
f 206//101 205//101 209//101 210//101
f 208//102 207//102 211//102 212//102
f 219//103 206//103 210//103 221//103
f 207//104 219//104 221//104 211//104
f 210//105 209//105 223//105 224//105
f 201//106 218//106 220//106 205//106
f 203//107 217//107 219//107 207//107
f 205//108 220//108 222//108 209//108
f 196//109 214//109 218//109 201//109
f 199//110 213//110 217//110 203//110
f 200//111 214//111 216//111 198//111
f 195//112 213//112 215//112 193//112
f 197//113 198//113 216//113 215//113
f 227//114 228//114 234//114 233//114
f 223//115 226//115 232//115 229//115
f 212//116 211//116 228//116 227//116
f 221//117 210//117 224//117 225//117
f 209//118 222//118 226//118 223//118
f 222//119 212//119 227//119 226//119
f 234//120 231//120 242//120 241//120
f 230//121 229//121 235//121 236//121
f 225//122 224//122 230//122 231//122
f 228//123 225//123 231//123 234//123
f 226//124 227//124 233//124 232//124
f 224//125 223//125 229//125 230//125
f 238//126 237//126 245//126 246//126
f 229//127 232//127 238//127 235//127
f 231//128 230//128 236//128 237//128
f 232//129 231//129 237//129 238//129
f 241//130 242//130 254//130 253//130
f 232//131 233//131 240//131 239//131
f 233//132 234//132 241//132 240//132
f 231//133 232//133 239//133 242//133
f 246//134 245//134 249//134 250//134
f 237//135 236//135 244//135 245//135
f 235//136 238//136 246//136 243//136
f 236//137 235//137 243//137 244//137
f 248//138 247//138 250//138 249//138
f 245//139 244//139 248//139 249//139
f 243//140 246//140 250//140 247//140
f 244//141 243//141 247//141 248//141
f 254//142 251//142 252//142 253//142
f 239//143 240//143 252//143 251//143
f 242//144 239//144 251//144 254//144
f 240//145 241//145 253//145 252//145
