# Blender v2.91.2 OBJ File: 'camionnete02.blend'
# www.blender.org
mtllib arme_000141.mtl
o Cube.046_Cube.010
v 127.936279 100.080750 -1203.028442
v 123.746849 -110.294983 -1137.426392
v 183.136780 35.556946 -1406.421265
v 178.947327 -174.818848 -1340.819458
v -85.404907 87.516876 -1256.943237
v -89.594406 -122.858887 -1191.341187
v -30.204407 22.993073 -1460.335938
v -34.393898 -187.382721 -1394.734131
v 51.936108 188.917236 -922.996704
v 47.746635 -21.458511 -857.394775
v -165.594528 -34.022354 -911.309387
v -161.405045 176.353333 -976.911377
v 17.541088 229.121613 -796.263855
v 13.351582 18.745834 -730.661926
v -199.989609 6.181976 -784.576599
v -195.800156 216.557739 -850.178589
v -2.778000 252.872498 -721.395874
v -2.267124 95.883789 -686.144653
v -215.608353 83.320007 -740.059387
v -216.119217 240.308716 -775.310547
v 63.793545 175.057037 -966.686768
v 59.604088 -35.318619 -901.084778
v -149.547653 162.493225 -1020.601562
v -153.737137 -47.882492 -954.999451
v 163.649261 58.335846 -1334.617432
v 159.459808 -152.039948 -1269.015381
v -49.691917 45.771973 -1388.532104
v -53.881348 -164.603790 -1322.930054
v 76.466171 29.275024 -1433.378662
v 72.276718 -181.100800 -1367.776855
v 21.265701 93.798828 -1229.985840
v 17.076241 -116.576996 -1164.383911
v -54.734467 182.635315 -949.954041
v -58.923927 -27.740417 -884.351990
v -89.129517 222.839722 -823.221313
v -87.176941 25.537216 -748.174744
v -109.448578 246.590607 -748.353210
v -97.708679 77.551575 -718.156616
v -47.066551 -41.600586 -928.042114
v -42.877045 168.775146 -993.644165
v 52.789200 -158.321869 -1295.972778
v 56.978691 52.053894 -1361.574585
v 129.801514 32.415985 -1419.899902
v 70.411514 -113.435974 -1150.905151
v -5.588669 -24.599487 -870.873352
v -51.212814 27.655151 -739.085999
v -61.744537 79.669510 -709.067871
v 10.458256 171.916138 -980.165405
v 110.313965 55.194855 -1348.096191
v 125.612015 -177.959808 -1354.298096
v 74.600945 96.939758 -1216.507202
v -1.399197 185.776215 -936.475403
v -35.794243 225.980621 -809.742554
v -56.113304 249.731567 -734.874512
v 6.268768 -38.459625 -914.563477
v 106.124481 -155.180939 -1282.494141
v 5.484352 -77.849594 -902.280396
v -47.850952 -80.990540 -915.759033
v 105.340027 -194.570923 -1270.211182
v 52.004787 -197.711853 -1283.689697
v 16.291796 -155.966949 -1152.100708
v 69.627106 -152.825989 -1138.622070
v 242.455063 16.600159 -1256.891724
v 226.663116 35.059265 -1198.704590
v 224.810715 -57.966705 -1169.695923
v 240.602509 -76.425903 -1227.883423
v 288.556885 19.315094 -1245.241333
v 272.765015 37.774292 -1187.053955
v 270.912537 -55.251709 -1158.045410
v 286.704407 -73.710907 -1216.232788
v 359.107544 23.469879 -1227.412109
v 343.315613 41.929108 -1169.224854
v 341.463074 -51.096924 -1140.216187
v 357.254944 -69.556122 -1198.403564
v 404.505981 26.143372 -1215.939331
v 388.714050 44.602600 -1157.751953
v 386.861572 -48.423401 -1128.743408
v 402.653442 -66.882538 -1186.930786
v 306.956482 -389.932495 -2022.482300
v 253.621185 -393.073425 -2035.961182
v 257.810547 -182.697632 -2101.562988
v 311.145935 -179.556702 -2088.084473
vn 0.9679 0.0570 0.2446
vn 0.2504 -0.2927 -0.9228
vn -0.9679 -0.0570 -0.2446
vn 0.0190 0.9545 -0.2976
vn -0.0190 -0.9545 0.2976
vn -0.1806 -0.5188 0.8356
vn -0.1032 -0.9463 0.3065
vn -0.3297 0.1782 0.9271
vn -0.9683 -0.0571 -0.2432
vn 0.9683 0.0571 0.2432
vn 0.6111 -0.2467 -0.7521
vn -0.2093 0.1849 0.9602
vn 0.0125 -0.9412 0.3376
vn -0.2506 0.1533 0.9559
vn -0.0355 -0.9332 0.3577
vn -0.2504 0.2927 0.9228
vn 0.1507 0.2916 0.9446
vn 0.5182 -0.7646 0.3832
vn 0.5499 0.8275 -0.1133
usemtl Matériau.011
s off
f 25//1 26//1 4//1 3//1
f 29//2 30//2 8//2 7//2
f 27//3 28//3 6//3 5//3
f 22//1 21//1 9//1 10//1
f 42//4 27//4 5//4 31//4
f 56//5 26//5 2//5 44//5
f 10//1 9//1 13//1 14//1
f 55//5 22//5 10//5 45//5
f 23//3 24//3 11//3 12//3
f 46//6 14//6 18//6 47//6
f 45//7 10//7 14//7 46//7
f 12//3 11//3 15//3 16//3
f 33//4 12//4 16//4 35//4
f 54//8 47//8 18//8 17//8
f 16//9 15//9 19//9 20//9
f 14//10 13//10 17//10 18//10
f 5//3 6//3 24//3 23//3
f 44//5 2//5 22//5 55//5
f 31//4 5//4 23//4 40//4
f 2//1 1//1 21//1 22//1
f 50//5 4//5 26//5 56//5
f 29//4 7//4 27//4 42//4
f 7//3 8//3 28//3 27//3
f 26//11 25//11 63//11 66//11
f 43//4 29//4 42//4 49//4
f 8//5 30//5 41//5 28//5
f 51//4 31//4 40//4 48//4
f 6//5 32//5 39//5 24//5
f 20//12 19//12 38//12 37//12
f 52//4 33//4 35//4 53//4
f 11//13 34//13 36//13 15//13
f 15//6 36//6 38//6 19//6
f 24//5 39//5 34//5 11//5
f 28//5 41//5 32//5 6//5
f 49//4 42//4 31//4 51//4
f 30//3 29//3 81//3 80//3
f 3//2 4//2 50//2 43//2
f 25//4 49//4 51//4 1//4
f 9//4 52//4 53//4 13//4
f 1//4 51//4 48//4 21//4
f 3//4 43//4 49//4 25//4
f 30//5 50//5 56//5 41//5
f 32//3 41//3 60//3 61//3
f 37//14 38//14 47//14 54//14
f 34//15 45//15 46//15 36//15
f 36//6 46//6 47//6 38//6
f 39//5 55//5 45//5 34//5
f 55//16 39//16 58//16 57//16
f 61//5 62//5 57//5 58//5
f 60//5 59//5 62//5 61//5
f 39//3 32//3 61//3 58//3
f 44//1 55//1 57//1 62//1
f 41//2 56//2 59//2 60//2
f 56//1 44//1 62//1 59//1
f 66//2 63//2 67//2 70//2
f 1//17 2//17 65//17 64//17
f 2//18 26//18 66//18 65//18
f 25//19 1//19 64//19 63//19
f 69//5 70//5 74//5 73//5
f 64//16 65//16 69//16 68//16
f 65//5 66//5 70//5 69//5
f 63//4 64//4 68//4 67//4
f 73//5 74//5 78//5 77//5
f 67//4 68//4 72//4 71//4
f 70//2 67//2 71//2 74//2
f 68//16 69//16 73//16 72//16
f 76//1 77//1 78//1 75//1
f 71//4 72//4 76//4 75//4
f 74//2 71//2 75//2 78//2
f 82//2 79//2 80//2 81//2
f 50//5 30//5 80//5 79//5
f 43//1 50//1 79//1 82//1
f 29//4 43//4 82//4 81//4
o Cube.048_Cube.024
v -522.738037 541.729126 121.349380
v -693.857117 371.292542 113.155144
v -403.114136 430.178741 -56.538742
v -573.162964 257.174683 -65.019279
v -656.963684 603.047791 -87.346169
v -744.701172 515.660156 -91.547569
v -595.629089 545.852722 -178.554352
v -682.939209 458.254395 -181.993652
v -409.105042 183.854980 -443.917511
v -305.652710 254.876221 -427.297211
v -367.327271 355.448547 -473.167633
v -470.779541 284.427368 -489.787872
v -337.355133 156.593994 -646.402832
v -261.294647 208.810333 -634.183167
v -306.639221 282.753357 -667.908020
v -382.699738 230.536957 -680.127747
v -291.771515 142.292603 -773.617188
v -236.187531 180.451660 -764.687317
v -269.324799 234.488159 -789.332947
v -324.908783 196.329224 -798.262817
v -467.677246 508.800842 -124.353203
v -648.143799 326.493164 -131.754486
v -594.767822 627.342407 64.402901
v -776.431763 446.402924 55.703720
v -331.580597 306.051025 -454.884674
v -441.407898 230.653381 -472.529083
v -275.820862 243.011353 -668.072876
v -356.568512 187.577271 -681.045410
v -242.686798 202.338501 -801.799500
v -301.696075 161.828003 -811.279846
v -261.108887 117.639893 -859.130676
v -205.524933 155.798889 -850.200684
v -211.806671 179.975952 -898.452515
v -270.816010 139.465393 -907.932556
v -294.062073 173.614624 -893.203613
v -238.478088 211.773560 -884.273743
v -239.722260 100.983582 -921.075745
v -184.138245 139.142578 -912.145935
v -190.420319 163.319580 -960.397522
v -249.429535 122.809204 -969.877869
v -272.675507 156.958252 -955.148682
v -217.091522 195.117188 -946.218811
v -204.819153 78.150574 -948.471863
v -169.042175 102.711792 -942.724182
v -173.085571 118.273560 -973.781555
v -211.067047 92.198730 -979.883606
v -254.239136 142.008789 -1021.982971
v -277.485199 176.157898 -1007.253967
v -221.901184 214.316895 -998.324036
v -195.229919 182.519226 -1012.502747
v -181.639099 61.344666 -966.626404
v -157.519226 77.903076 -962.751404
v -160.245056 88.394348 -983.689392
v -185.851379 70.815430 -987.803162
v -163.528259 51.266113 -994.194763
v -148.450684 61.617065 -991.772400
v -150.154663 68.175232 -1004.861145
v -166.161316 57.186401 -1007.432678
v -251.125702 164.664978 -1046.046265
v -266.582245 187.371155 -1036.252686
v -229.623871 212.743591 -1030.314941
v -211.889709 191.600891 -1039.742798
v -287.932556 527.505554 459.958801
v -313.897827 313.699188 350.367767
v -175.633240 615.152893 264.764587
v -198.883667 399.415771 155.889023
v -477.175629 569.353394 293.327118
v -490.488708 459.728882 237.136719
v -412.004822 619.111267 192.179230
v -431.517792 503.678162 137.421997
v -95.112732 420.473236 -99.263969
v -12.395203 422.094910 -5.267342
v 51.666504 513.466187 -60.945213
v -28.167908 512.344604 -154.947662
v 40.335327 284.270905 -199.235229
v 101.503967 282.191528 -129.127045
v 150.723206 349.737427 -170.066895
v 89.554688 351.816772 -240.175140
v 127.534668 200.449890 -261.172394
v 172.235779 198.930389 -209.938232
v 208.204590 248.292175 -239.856659
v 163.503418 249.811615 -291.090729
v -277.299835 656.137085 235.918304
v -313.893494 422.841583 121.017090
v -408.429871 558.824646 443.824615
v -435.995209 331.842834 327.480255
v 27.125671 459.645569 -31.547386
v -61.198669 462.648010 -132.779938
v 138.125305 302.932556 -156.657104
v 73.187256 305.140198 -231.085510
v 206.182312 204.888306 -236.597717
v 158.726562 206.501556 -290.989105
v 176.168640 133.208008 -305.599304
v 220.869751 131.688538 -254.365112
v 263.126831 135.072510 -288.351898
v 215.671143 136.685791 -342.743286
v 219.170715 180.391296 -341.718689
v 263.871887 178.871765 -290.484497
v 211.830322 85.849792 -338.118195
v 256.531433 84.330261 -286.884155
v 298.788696 87.714233 -320.870941
v 251.332886 89.327454 -375.262268
v 254.832336 133.033203 -374.237671
v 299.533508 131.513611 -323.003448
v 228.642212 38.865906 -338.094421
v 257.414246 37.887817 -305.117218
v 284.613220 40.065918 -326.993042
v 254.068176 41.104248 -362.002319
v 293.253357 86.830078 -411.911407
v 296.752686 130.535767 -410.886597
v 341.453918 129.016113 -359.652557
v 340.709045 85.216858 -357.520050
v 238.692444 6.489075 -338.356415
v 258.089844 5.829773 -316.124359
v 276.426758 7.298035 -330.872528
v 255.833923 7.998108 -354.474670
v 256.613586 -21.529907 -347.486603
v 268.739075 -21.942078 -333.588898
v 280.201599 -21.024048 -342.808075
v 267.328918 -20.586487 -357.562103
v 324.145569 92.544800 -422.637115
v 326.472473 121.605164 -421.955719
v 356.194763 120.594910 -387.889465
v 355.699646 91.472168 -386.471649
vn 0.5043 -0.5339 0.6787
vn -0.4280 0.6001 -0.6758
vn -0.5042 0.5341 -0.6786
vn -0.3437 0.3023 0.8891
vn 0.3789 0.8770 -0.2955
vn -0.6789 -0.7341 0.0076
vn -0.4619 0.7741 -0.4329
vn 0.8287 0.5591 -0.0254
vn -0.8320 -0.4197 -0.3628
vn 0.5783 -0.6925 0.4314
vn -0.8347 -0.4846 -0.2616
vn 0.8753 0.4760 0.0850
vn -0.8259 -0.5133 -0.2333
vn 0.5096 -0.8102 0.2897
vn 0.7855 0.6091 0.1098
vn 0.5136 -0.8126 0.2754
vn -0.4567 0.7696 -0.4463
vn 0.8945 0.4395 0.0823
vn 0.7810 0.6245 -0.0021
vn 0.4753 -0.7852 0.3968
vn -0.7488 -0.6390 -0.1759
vn 0.7982 0.6017 0.0277
vn -0.7212 -0.6697 -0.1772
vn -0.6541 -0.7385 -0.1634
vn 0.5277 0.8231 -0.2100
vn -0.8606 -0.3635 -0.3566
vn 0.7377 0.6709 0.0754
vn -0.6989 0.6933 0.1755
vn -0.4817 0.7903 -0.3788
vn -0.7912 -0.6012 -0.1115
vn -0.4912 0.7975 -0.3504
vn 0.8433 0.5155 0.1519
vn -0.7886 -0.6049 -0.1103
vn -0.8460 -0.5110 -0.1523
vn 0.7891 0.5964 0.1469
vn 0.2556 -0.5572 0.7901
vn 0.8411 0.5194 0.1507
vn 0.7847 0.6106 0.1067
vn -0.8465 -0.5092 -0.1553
vn 0.4817 -0.7903 0.3788
vn -0.0494 0.2952 -0.9542
vn -0.6425 -0.7390 -0.2027
vn 0.9371 0.3454 0.0511
vn -0.0329 0.2730 -0.9615
vn 0.7036 0.6809 -0.2033
vn -0.8436 -0.5245 -0.1154
vn -0.5697 0.7527 0.3299
vn 0.5697 -0.7527 -0.3299
vn -0.3034 0.6127 -0.7297
vn 0.9246 0.3750 0.0675
vn -0.6689 -0.7190 -0.1885
vn 0.2408 -0.5395 0.8068
vn 0.5571 -0.7111 -0.4288
vn 0.9206 0.3837 0.0724
vn -0.6769 -0.7127 -0.1841
vn 0.4155 -0.7317 0.5404
vn -0.0863 0.3445 -0.9348
vn -0.8171 -0.3632 -0.4477
vn 0.5330 -0.6494 -0.5425
vn -0.5739 0.8129 0.0986
vn 0.8767 -0.2940 0.3806
vn -0.2238 0.8341 -0.5041
vn -0.8658 0.3171 -0.3871
vn -0.2272 -0.4222 0.8776
vn -0.3333 0.9158 0.2241
vn -0.0536 -0.9017 -0.4291
vn 0.5664 0.6680 -0.4827
vn 0.7251 0.6738 0.1425
vn -0.5687 -0.4003 -0.7186
vn 0.5099 -0.7066 0.4907
vn -0.5359 0.0398 -0.8433
vn 0.6425 -0.1445 0.7526
vn -0.5681 0.0244 -0.8226
vn -0.4793 -0.7717 0.4181
vn 0.6880 0.0230 0.7254
vn -0.4769 -0.7863 0.3928
vn 0.5763 0.6590 -0.4833
vn 0.6403 -0.1734 0.7483
vn 0.7634 -0.0044 0.6459
vn -0.5487 -0.6994 0.4580
vn -0.6518 -0.0905 -0.7530
vn 0.7485 0.0059 0.6632
vn -0.6591 -0.1292 -0.7409
vn -0.3784 -0.8500 -0.3666
vn 0.2583 0.9509 -0.1707
vn -0.5142 -0.6301 -0.5818
vn 0.1761 0.8500 0.4964
vn -0.9077 -0.0988 0.4077
vn 0.5384 0.7134 -0.4486
vn -0.6843 -0.0146 -0.7291
vn 0.5219 0.7346 -0.4335
vn 0.6262 -0.0630 0.7771
vn -0.6863 -0.0184 -0.7271
vn -0.6241 0.0676 -0.7784
vn 0.6588 0.0254 0.7519
vn -0.7312 -0.2613 0.6302
vn 0.6285 -0.0593 0.7755
vn 0.6904 0.0235 0.7230
vn -0.6214 0.0681 -0.7805
vn -0.5384 -0.7134 0.4486
vn 0.7474 -0.1091 -0.6553
vn -0.6548 -0.2347 -0.7184
vn 0.6155 -0.2779 0.7376
vn 0.7443 -0.1375 -0.6535
vn 0.8873 0.0074 0.4610
vn -0.6542 0.0700 -0.7531
vn 0.0484 0.9987 -0.0126
vn -0.0484 -0.9987 0.0126
vn 0.7105 0.3516 -0.6095
vn 0.6197 -0.2432 0.7462
vn -0.6619 -0.1996 -0.7226
vn -0.7361 -0.2336 0.6353
vn 0.0330 -0.9978 -0.0584
vn 0.6208 -0.2328 0.7486
vn -0.6638 -0.1888 -0.7237
vn -0.6260 -0.5728 0.5292
vn 0.7521 -0.0448 -0.6575
vn -0.3357 0.0489 -0.9407
vn 0.1315 -0.9808 -0.1438
vn 0.2256 0.9596 -0.1684
usemtl Matériau.012
s off
f 83//20 84//20 86//20 85//20
f 90//21 89//21 93//21 94//21
f 89//22 90//22 88//22 87//22
f 105//23 106//23 84//23 83//23
f 103//24 89//24 87//24 105//24
f 104//25 86//25 84//25 106//25
f 94//26 93//26 97//26 98//26
f 103//27 85//27 92//27 107//27
f 104//28 90//28 94//28 108//28
f 85//29 86//29 91//29 92//29
f 110//30 98//30 102//30 112//30
f 107//31 92//31 96//31 109//31
f 108//32 94//32 98//32 110//32
f 92//33 91//33 95//33 96//33
f 101//34 111//34 115//34 118//34
f 96//35 95//35 99//35 100//35
f 98//36 97//36 101//36 102//36
f 109//37 96//37 100//37 111//37
f 97//38 109//38 111//38 101//38
f 100//39 99//39 113//39 114//39
f 91//40 108//40 110//40 95//40
f 93//41 107//41 109//41 97//41
f 95//42 110//42 112//42 99//42
f 86//43 104//43 108//43 91//43
f 89//44 103//44 107//44 93//44
f 90//45 104//45 106//45 88//45
f 85//46 103//46 105//46 83//46
f 87//47 88//47 106//47 105//47
f 117//48 118//48 124//48 123//48
f 113//49 116//49 122//49 119//49
f 102//50 101//50 118//50 117//50
f 111//51 100//51 114//51 115//51
f 99//52 112//52 116//52 113//52
f 112//53 102//53 117//53 116//53
f 124//54 121//54 132//54 131//54
f 120//55 119//55 125//55 126//55
f 115//56 114//56 120//56 121//56
f 118//57 115//57 121//57 124//57
f 116//58 117//58 123//58 122//58
f 114//59 113//59 119//59 120//59
f 128//60 127//60 135//60 136//60
f 119//61 122//61 128//61 125//61
f 121//62 120//62 126//62 127//62
f 122//63 121//63 127//63 128//63
f 131//64 132//64 144//64 143//64
f 122//65 123//65 130//65 129//65
f 123//66 124//66 131//66 130//66
f 121//67 122//67 129//67 132//67
f 136//68 135//68 139//68 140//68
f 127//69 126//69 134//69 135//69
f 125//70 128//70 136//70 133//70
f 126//71 125//71 133//71 134//71
f 138//72 137//72 140//72 139//72
f 135//73 134//73 138//73 139//73
f 133//74 136//74 140//74 137//74
f 134//75 133//75 137//75 138//75
f 144//76 141//76 142//76 143//76
f 129//77 130//77 142//77 141//77
f 132//78 129//78 141//78 144//78
f 130//79 131//79 143//79 142//79
f 145//80 146//80 148//80 147//80
f 152//81 151//81 155//81 156//81
f 151//82 152//82 150//82 149//82
f 167//83 168//83 146//83 145//83
f 165//84 151//84 149//84 167//84
f 166//85 148//85 146//85 168//85
f 156//86 155//86 159//86 160//86
f 165//87 147//87 154//87 169//87
f 166//88 152//88 156//88 170//88
f 147//89 148//89 153//89 154//89
f 172//90 160//90 164//90 174//90
f 169//91 154//91 158//91 171//91
f 170//92 156//92 160//92 172//92
f 154//93 153//93 157//93 158//93
f 163//94 173//94 177//94 180//94
f 158//95 157//95 161//95 162//95
f 160//96 159//96 163//96 164//96
f 171//97 158//97 162//97 173//97
f 159//98 171//98 173//98 163//98
f 162//99 161//99 175//99 176//99
f 153//100 170//100 172//100 157//100
f 155//101 169//101 171//101 159//101
f 157//102 172//102 174//102 161//102
f 148//103 166//103 170//103 153//103
f 151//104 165//104 169//104 155//104
f 152//105 166//105 168//105 150//105
f 147//106 165//106 167//106 145//106
f 149//107 150//107 168//107 167//107
f 179//108 180//108 186//108 185//108
f 175//109 178//109 184//109 181//109
f 164//110 163//110 180//110 179//110
f 173//111 162//111 176//111 177//111
f 161//112 174//112 178//112 175//112
f 174//113 164//113 179//113 178//113
f 186//114 183//114 194//114 193//114
f 182//115 181//115 187//115 188//115
f 177//116 176//116 182//116 183//116
f 180//117 177//117 183//117 186//117
f 178//118 179//118 185//118 184//118
f 176//119 175//119 181//119 182//119
f 190//120 189//120 197//120 198//120
f 181//121 184//121 190//121 187//121
f 183//122 182//122 188//122 189//122
f 184//123 183//123 189//123 190//123
f 193//124 194//124 206//124 205//124
f 184//125 185//125 192//125 191//125
f 185//126 186//126 193//126 192//126
f 183//127 184//127 191//127 194//127
f 198//128 197//128 201//128 202//128
f 189//129 188//129 196//129 197//129
f 187//130 190//130 198//130 195//130
f 188//131 187//131 195//131 196//131
f 200//132 199//132 202//132 201//132
f 197//133 196//133 200//133 201//133
f 195//134 198//134 202//134 199//134
f 196//135 195//135 199//135 200//135
f 206//136 203//136 204//136 205//136
f 191//137 192//137 204//137 203//137
f 194//138 191//138 203//138 206//138
f 192//139 193//139 205//139 204//139
