# Blender v2.91.2 OBJ File: 'camionnete02.blend'
# www.blender.org
mtllib arme_000004.mtl
o Cube.046_Cube.010
v 366.649200 366.513763 -1021.327881
v 367.915314 146.110657 -1021.274902
v 485.270447 367.150543 -1207.090332
v 486.536560 146.747452 -1207.037476
v 180.889954 365.418182 -1139.950806
v 182.156021 145.015060 -1139.897827
v 299.511169 366.054993 -1325.713257
v 300.777283 145.651855 -1325.660400
v 203.331253 365.636993 -765.569702
v 204.597351 145.233932 -765.516724
v 18.838100 144.138336 -884.139648
v 17.572010 364.541443 -884.192566
v 129.419189 365.240234 -649.822205
v 130.685272 144.837128 -649.769348
v -55.074036 143.741531 -768.392212
v -56.340126 364.144653 -768.445190
v 85.755219 365.005829 -581.443909
v 94.114136 204.722015 -592.739990
v -91.645210 203.626450 -711.362915
v -100.004105 363.910278 -700.066772
v 128.156982 584.961914 -649.875061
v -57.602276 583.866333 -768.498047
v 84.493050 584.727539 -581.496704
v -101.266228 583.631958 -700.119629
v 228.811874 365.773773 -805.472656
v 230.077972 145.370712 -805.419739
v 43.052601 364.678223 -924.095581
v 44.318665 144.275116 -924.042664
v 202.913315 438.393707 -765.587158
v 17.154047 437.298187 -884.210144
v 228.393921 438.530487 -805.490112
v 42.634636 437.434906 -924.112976
v 202.306976 543.951782 -765.612549
v 16.547697 542.856201 -884.235352
v 227.787537 544.088562 -805.515503
v 42.028301 542.992981 -924.138367
v 130.671768 438.005890 -652.455811
v -55.087540 436.910309 -771.078735
v 130.065384 543.564026 -652.481140
v -55.693905 542.468384 -771.104065
v 154.939651 721.893494 -693.080322
v -30.819626 720.797913 -811.703308
v 111.275681 721.659119 -624.702026
v -74.483551 720.563477 -743.324890
v 443.393463 366.925751 -1141.510498
v 444.659576 146.522644 -1141.457642
v 257.634186 365.830170 -1260.133301
v 258.900299 145.427048 -1260.080444
v 392.390808 366.602783 -1266.401855
v 393.656921 146.199646 -1266.348999
v 273.769592 365.965973 -1080.639404
v 275.035675 145.562866 -1080.586426
v 110.451637 365.089203 -824.881104
v 111.717712 144.686127 -824.828125
v 36.539539 364.692474 -709.133728
v 37.805614 144.289337 -709.080811
v -7.124417 364.458038 -640.755371
v 1.234482 204.174240 -652.051453
v 35.277336 584.414185 -709.186462
v -8.386593 584.179749 -640.808167
v 137.198318 144.822922 -864.731140
v 135.932236 365.225983 -864.784119
v 110.033684 437.845947 -824.898682
v 135.514282 437.982666 -864.801514
v 109.427338 543.404053 -824.923950
v 134.907928 543.540771 -864.826965
v 37.792110 437.458130 -711.767334
v 37.185745 543.016235 -711.792603
v 62.059998 721.345764 -752.391846
v 18.396044 721.111267 -684.013489
v 351.779907 145.974854 -1200.769043
v 350.513824 366.377960 -1200.821899
v 438.830627 366.876648 -1236.745972
v 321.475494 145.836761 -1050.930664
v 158.157532 144.960037 -795.172485
v 84.245422 144.563232 -679.425110
v 47.674301 204.448120 -622.395752
v 182.372055 365.499878 -835.128357
v 181.954102 438.256561 -835.145813
v 181.347733 543.814636 -835.171204
v 396.953674 366.651855 -1171.166260
v 440.096741 146.473557 -1236.693237
v 320.209381 366.239868 -1050.983765
v 156.891449 365.363098 -795.225464
v 82.979347 364.966339 -679.477966
v 39.315388 364.731934 -611.099609
v 81.717178 584.688049 -679.530762
v 38.053242 584.453613 -611.152466
v 183.638153 145.096817 -835.075439
v 156.473511 438.119843 -795.242920
v 155.867142 543.677917 -795.268250
v 84.231934 437.732025 -682.111572
v 83.625565 543.290100 -682.136841
v 108.499847 721.619629 -722.736023
v 64.835876 721.385132 -654.357727
v 398.219727 146.248749 -1171.113403
v 183.875214 103.829361 -835.065552
v 137.435379 103.555443 -864.721252
v 398.456787 104.981285 -1171.103516
v 352.016998 104.707375 -1200.759155
v 275.272736 104.295387 -1080.576538
v 321.712555 104.569298 -1050.920776
v 500.649750 305.801117 -1057.970215
v 466.714203 305.618927 -1004.826721
v 467.274170 208.158936 -1004.803162
v 501.209625 208.341110 -1057.946899
v 540.791382 306.037903 -1032.336548
v 506.855865 305.855713 -979.192993
v 507.415771 208.395721 -979.169556
v 541.351257 208.577881 -1032.313110
v 602.220886 306.400208 -993.108826
v 568.285339 306.218018 -939.965210
v 568.845215 208.758057 -939.941772
v 602.780701 208.940231 -993.085449
v 641.749939 306.633362 -967.866211
v 607.814392 306.451172 -914.722656
v 608.374390 208.991180 -914.699219
v 642.309814 209.173355 -967.842773
v 829.790344 148.565842 -1846.958008
v 783.350525 148.291946 -1876.613770
v 782.084290 368.695068 -1876.666748
v 828.524231 368.968964 -1847.010986
vn 0.8428 0.0050 0.5382
vn 0.5382 0.0029 -0.8428
vn -0.8428 -0.0050 -0.5382
vn -0.0057 1.0000 -0.0002
vn 0.0057 -1.0000 0.0002
vn -0.5382 -0.0029 0.8428
vn -0.3533 -0.7492 0.5602
vn -0.5358 -0.0871 0.8398
vn -0.8435 -0.0055 -0.5371
vn 0.8435 0.0055 0.5371
vn 0.5060 -0.3480 -0.7892
vn -0.5060 0.3480 0.7892
vn 0.8264 0.0046 -0.5630
vn -0.1631 -0.0007 0.9866
vn 0.4698 -0.8312 0.2972
vn 0.4602 0.8367 0.2968
usemtl Matériau.011
s off
f 45//1 46//1 4//1 3//1
f 49//2 50//2 8//2 7//2
f 47//3 48//3 6//3 5//3
f 26//1 25//1 9//1 10//1
f 72//4 47//4 5//4 51//4
f 96//5 46//5 2//5 74//5
f 10//1 9//1 13//1 14//1
f 84//6 9//6 29//6 90//6
f 89//5 26//5 10//5 75//5
f 27//3 28//3 11//3 12//3
f 76//7 14//7 18//7 77//7
f 75//5 10//5 14//5 76//5
f 12//3 11//3 15//3 16//3
f 53//4 12//4 16//4 55//4
f 86//8 77//8 18//8 17//8
f 16//9 15//9 19//9 20//9
f 16//3 20//3 24//3 22//3
f 14//10 13//10 17//10 18//10
f 59//11 22//11 42//11 69//11
f 86//6 17//6 23//6 88//6
f 17//1 13//1 21//1 23//1
f 55//2 16//2 22//2 59//2
f 5//3 6//3 28//3 27//3
f 74//5 2//5 26//5 89//5
f 51//4 5//4 27//4 62//4
f 2//1 1//1 25//1 26//1
f 32//3 30//3 34//3 36//3
f 62//2 27//2 32//2 64//2
f 27//3 12//3 30//3 32//3
f 9//1 25//1 31//1 29//1
f 66//4 36//4 34//4 65//4
f 90//5 29//5 37//5 92//5
f 64//2 32//2 36//2 66//2
f 29//1 31//1 35//1 33//1
f 92//6 37//6 39//6 93//6
f 29//1 33//1 39//1 37//1
f 34//3 30//3 38//3 40//3
f 65//4 34//4 40//4 68//4
f 69//4 42//4 44//4 70//4
f 23//1 21//1 41//1 43//1
f 88//12 23//12 43//12 95//12
f 22//3 24//3 44//3 42//3
f 82//5 4//5 46//5 96//5
f 49//4 7//4 47//4 72//4
f 7//3 8//3 48//3 47//3
f 46//13 45//13 103//13 106//13
f 73//4 49//4 72//4 81//4
f 8//5 50//5 71//5 48//5
f 24//12 60//12 70//12 44//12
f 94//4 69//4 70//4 95//4
f 91//4 65//4 68//4 93//4
f 38//6 67//6 68//6 40//6
f 79//2 64//2 66//2 80//2
f 30//5 63//5 67//5 38//5
f 80//4 66//4 65//4 91//4
f 78//2 62//2 64//2 79//2
f 83//4 51//4 62//4 78//4
f 6//5 52//5 61//5 28//5
f 85//2 55//2 59//2 87//2
f 20//6 57//6 60//6 24//6
f 87//11 59//11 69//11 94//11
f 20//8 19//8 58//8 57//8
f 84//4 53//4 55//4 85//4
f 11//5 54//5 56//5 15//5
f 15//7 56//7 58//7 19//7
f 28//5 61//5 54//5 11//5
f 12//6 53//6 63//6 30//6
f 48//5 71//5 52//5 6//5
f 81//4 72//4 51//4 83//4
f 50//3 49//3 121//3 120//3
f 3//2 4//2 82//2 73//2
f 45//4 81//4 83//4 1//4
f 9//4 84//4 85//4 13//4
f 21//11 87//11 94//11 41//11
f 13//2 85//2 87//2 21//2
f 1//4 83//4 78//4 25//4
f 25//2 78//2 79//2 31//2
f 35//4 80//4 91//4 33//4
f 31//2 79//2 80//2 35//2
f 33//4 91//4 93//4 39//4
f 41//4 94//4 95//4 43//4
f 3//4 73//4 81//4 45//4
f 50//5 82//5 96//5 71//5
f 60//12 88//12 95//12 70//12
f 67//6 92//6 93//6 68//6
f 63//5 90//5 92//5 67//5
f 52//3 71//3 100//3 101//3
f 57//6 86//6 88//6 60//6
f 57//8 58//8 77//8 86//8
f 54//5 75//5 76//5 56//5
f 56//7 76//7 77//7 58//7
f 61//5 89//5 75//5 54//5
f 53//6 84//6 90//6 63//6
f 89//6 61//6 98//6 97//6
f 101//5 102//5 97//5 98//5
f 100//5 99//5 102//5 101//5
f 61//3 52//3 101//3 98//3
f 74//1 89//1 97//1 102//1
f 71//2 96//2 99//2 100//2
f 96//1 74//1 102//1 99//1
f 106//2 103//2 107//2 110//2
f 1//14 2//14 105//14 104//14
f 2//15 46//15 106//15 105//15
f 45//16 1//16 104//16 103//16
f 109//5 110//5 114//5 113//5
f 104//6 105//6 109//6 108//6
f 105//5 106//5 110//5 109//5
f 103//4 104//4 108//4 107//4
f 113//5 114//5 118//5 117//5
f 107//4 108//4 112//4 111//4
f 110//2 107//2 111//2 114//2
f 108//6 109//6 113//6 112//6
f 116//1 117//1 118//1 115//1
f 111//4 112//4 116//4 115//4
f 114//2 111//2 115//2 118//2
f 122//2 119//2 120//2 121//2
f 82//5 50//5 120//5 119//5
f 73//1 82//1 119//1 122//1
f 49//4 73//4 122//4 121//4
o Cube.047_Cube.022
v -225.856537 536.560913 301.268005
v -221.579468 295.891998 322.663177
v -107.323746 520.004272 91.331253
v -103.046677 279.335388 112.726425
v -406.480774 459.681427 137.576843
v -404.287811 336.283752 148.546753
v -345.705688 451.192413 29.936401
v -343.512726 327.794739 40.906311
v 36.531403 306.614075 -258.206421
v 34.291046 432.677612 -269.413330
v -75.993561 425.234314 -331.094299
v -73.753204 299.170776 -319.887390
v 127.211945 307.571014 -454.847412
v 125.564789 400.255798 -463.086914
v 44.481049 394.783295 -508.436157
v 46.128204 302.098541 -500.196655
v 182.160889 310.079651 -579.105896
v 180.957153 377.812439 -585.127258
v 121.702240 373.813232 -618.267883
v 122.905975 306.080414 -612.246521
v -221.736008 521.572876 47.748383
v -217.195374 266.073181 70.461990
v -347.573181 539.149719 270.622131
v -343.032532 283.650085 293.335754
v -18.175034 432.456726 -305.461365
v -15.796616 298.624756 -293.563843
v 94.223419 399.083099 -502.400635
v 95.972076 300.686798 -493.653320
v 164.616211 376.038757 -625.480957
v 165.894104 304.132050 -619.088501
v 231.382629 303.843140 -659.098511
v 230.178894 371.575958 -665.119873
v 213.641724 368.791718 -716.801453
v 214.919617 296.885010 -710.408997
v 171.961609 298.988708 -701.825806
v 170.757874 366.721527 -707.847168
v 265.594910 299.282166 -717.242981
v 264.391174 367.014984 -723.264343
v 247.853943 364.230774 -774.945984
v 249.131897 292.324036 -768.553528
v 206.173859 294.427765 -759.970276
v 204.970123 362.160583 -765.991638
v 307.620361 310.002441 -741.921875
v 306.845581 353.598969 -745.797607
v 296.201355 351.806885 -779.062683
v 297.023865 305.523804 -774.948181
v 238.018677 287.291687 -822.939880
v 195.060669 289.395386 -814.356628
v 193.856934 357.128204 -820.377991
v 236.740784 359.198395 -829.332336
v 336.864929 316.263702 -757.887146
v 336.342590 345.655273 -760.500061
v 329.166565 344.447113 -782.926453
v 329.721130 313.244324 -780.152527
v 359.086304 319.885681 -784.015259
v 358.759827 338.258698 -785.648560
v 354.274048 337.503448 -799.667664
v 354.620667 317.998230 -797.933655
v 224.625793 296.630615 -851.844177
v 196.062500 298.029419 -846.137024
v 195.262146 343.065796 -850.140686
v 223.776123 344.442322 -856.094543
vn 0.8713 0.0588 0.4873
vn -0.8016 -0.0671 -0.5940
vn -0.8713 -0.0588 -0.4873
vn -0.2417 0.0817 0.9669
vn -0.4347 0.8447 -0.3121
vn 0.0713 -0.9904 0.1183
vn -0.8306 -0.0639 -0.5532
vn 0.0999 0.9761 -0.1929
vn -0.2661 -0.9473 -0.1781
vn 0.9337 0.0481 0.3549
vn -0.0363 -0.9979 -0.0536
vn 0.0908 0.9887 -0.1192
vn -0.0119 -0.9997 -0.0204
vn 0.9067 0.0533 0.4184
vn -0.0717 0.9905 -0.1174
vn 0.9129 0.0522 0.4048
vn -0.8221 -0.0649 -0.5656
vn 0.1316 0.9846 -0.1152
vn -0.0713 0.9709 -0.2287
vn 0.8522 0.0613 0.5196
vn 0.1259 -0.9904 0.0567
vn -0.0471 0.9794 -0.1963
vn 0.1666 -0.9842 0.0598
vn 0.1349 -0.9907 -0.0181
vn -0.2988 0.8911 -0.3415
vn -0.4037 -0.9013 -0.1569
vn 0.0359 0.9976 -0.0584
vn -0.9183 0.0188 0.3954
vn -0.8624 -0.0600 -0.5027
vn 0.0623 -0.9915 0.1145
vn -0.8775 -0.0579 -0.4760
vn 0.0313 0.9977 -0.0606
vn 0.0666 -0.9910 0.1162
vn -0.0364 -0.9976 0.0593
vn -0.0645 0.9948 -0.0789
vn 0.4881 0.0859 0.8685
vn 0.0270 0.9977 -0.0624
vn -0.0730 0.9900 -0.1206
vn -0.0376 -0.9977 0.0561
vn 0.8624 0.0600 0.5027
vn -0.1358 -0.0901 -0.9866
vn 0.2709 -0.9616 0.0435
vn 0.2366 0.9632 -0.1276
vn -0.1074 -0.0899 -0.9901
vn -0.1326 0.8937 -0.4285
vn -0.0291 -0.9948 0.0980
vn -0.9798 0.0004 0.2002
vn 0.9798 -0.0004 -0.2002
vn -0.5686 -0.0829 -0.8184
vn 0.2033 0.9721 -0.1174
vn 0.2378 -0.9698 0.0552
vn 0.4630 0.0866 0.8821
vn 0.9525 -0.0101 -0.3042
vn 0.1933 0.9745 -0.1143
vn 0.2276 -0.9720 0.0588
vn 0.7549 0.0714 0.6519
vn -0.1994 -0.0903 -0.9758
vn -0.0997 -0.9594 -0.2638
vn 0.9044 -0.0218 -0.4261
vn -0.9991 -0.0211 -0.0372
usemtl Matériau.012
s off
f 123//17 124//17 126//17 125//17
f 130//18 129//18 133//18 134//18
f 129//19 130//19 128//19 127//19
f 145//20 146//20 124//20 123//20
f 143//21 129//21 127//21 145//21
f 144//22 126//22 124//22 146//22
f 134//23 133//23 137//23 138//23
f 143//24 125//24 132//24 147//24
f 144//25 130//25 134//25 148//25
f 125//26 126//26 131//26 132//26
f 150//27 138//27 142//27 152//27
f 147//28 132//28 136//28 149//28
f 148//29 134//29 138//29 150//29
f 132//30 131//30 135//30 136//30
f 141//31 151//31 155//31 158//31
f 136//32 135//32 139//32 140//32
f 138//33 137//33 141//33 142//33
f 149//34 136//34 140//34 151//34
f 137//35 149//35 151//35 141//35
f 140//36 139//36 153//36 154//36
f 131//37 148//37 150//37 135//37
f 133//38 147//38 149//38 137//38
f 135//39 150//39 152//39 139//39
f 126//40 144//40 148//40 131//40
f 129//41 143//41 147//41 133//41
f 130//42 144//42 146//42 128//42
f 125//43 143//43 145//43 123//43
f 127//44 128//44 146//44 145//44
f 157//45 158//45 164//45 163//45
f 153//46 156//46 162//46 159//46
f 142//47 141//47 158//47 157//47
f 151//48 140//48 154//48 155//48
f 139//49 152//49 156//49 153//49
f 152//50 142//50 157//50 156//50
f 164//51 161//51 172//51 171//51
f 160//52 159//52 165//52 166//52
f 155//53 154//53 160//53 161//53
f 158//54 155//54 161//54 164//54
f 156//55 157//55 163//55 162//55
f 154//56 153//56 159//56 160//56
f 168//57 167//57 175//57 176//57
f 159//58 162//58 168//58 165//58
f 161//59 160//59 166//59 167//59
f 162//60 161//60 167//60 168//60
f 171//61 172//61 184//61 183//61
f 162//62 163//62 170//62 169//62
f 163//63 164//63 171//63 170//63
f 161//64 162//64 169//64 172//64
f 176//65 175//65 179//65 180//65
f 167//66 166//66 174//66 175//66
f 165//67 168//67 176//67 173//67
f 166//68 165//68 173//68 174//68
f 178//69 177//69 180//69 179//69
f 175//70 174//70 178//70 179//70
f 173//71 176//71 180//71 177//71
f 174//72 173//72 177//72 178//72
f 184//73 181//73 182//73 183//73
f 169//74 170//74 182//74 181//74
f 172//75 169//75 181//75 184//75
f 170//76 171//76 183//76 182//76
o Cube.048_Cube.024
v -495.477692 395.648895 159.000183
v -656.972473 249.134460 54.834309
v -352.739258 376.263550 -35.029499
v -514.234009 229.749115 -139.195389
v -609.330261 546.424133 -13.147321
v -692.133179 471.302094 -66.556084
v -536.144287 536.484741 -112.631783
v -618.947144 461.362671 -166.040543
v -272.127380 278.964478 -450.289551
v -187.535614 355.709473 -395.726929
v -244.778534 455.858032 -447.843597
v -329.370300 379.113037 -502.406219
v -141.369049 285.116577 -622.788696
v -79.175293 341.541229 -582.673035
v -121.261597 415.172699 -620.990417
v -183.455353 358.748077 -661.106079
v -59.082214 291.815155 -730.723145
v -13.631836 333.049530 -701.407166
v -44.387939 386.858459 -729.408997
v -89.838318 345.624084 -758.724976
v -413.252197 477.848267 -66.822853
v -584.698792 322.305176 -177.407761
v -564.786621 498.428223 139.163589
v -736.233215 342.885132 28.578678
v -210.244812 407.699402 -424.597931
v -300.049377 326.225159 -482.522858
v -87.161743 378.582520 -615.739380
v -153.188049 318.680817 -658.327087
v -11.565002 359.045471 -736.314636
v -59.816162 315.270142 -767.437134
v -1.921387 281.469513 -804.791382
v 43.528992 322.703888 -775.475403
v 48.792114 352.462219 -820.630310
v 0.540955 308.686829 -851.752808
v -29.972473 338.462463 -841.465454
v 15.477905 379.696838 -812.149475
v 38.557129 275.091614 -858.576843
v 84.007507 316.325989 -829.260864
v 89.270630 346.084290 -874.415771
v 41.019470 302.308899 -905.538269
v 10.505981 332.084564 -895.250916
v 55.956360 373.318939 -865.934937
v 82.465820 259.170380 -876.145386
v 111.720154 285.711090 -857.276062
v 115.107788 304.865143 -886.340210
v 84.050720 276.688934 -906.372375
v 49.413818 327.790894 -954.394226
v 18.900391 357.566528 -944.106873
v 64.350769 398.800903 -914.790894
v 97.664978 371.566284 -923.271729
v 111.814514 246.970062 -887.941406
v 131.536987 264.863068 -875.220154
v 133.820862 277.776184 -894.814514
v 112.883057 258.780579 -908.319641
v 138.301025 242.232788 -909.519348
v 150.629761 253.417908 -901.567200
v 152.057495 261.490051 -913.815796
v 138.968994 249.615662 -922.258057
v 56.673767 353.630280 -973.930420
v 36.385010 373.428497 -967.090210
v 66.605530 400.845764 -947.597595
v 88.756592 382.737061 -953.236633
vn 0.4522 -0.7912 0.4117
vn -0.3732 0.7745 -0.5107
vn -0.4522 0.7912 -0.4117
vn -0.4495 -0.1326 0.8834
vn 0.3682 0.9122 0.1798
vn -0.6392 -0.6538 -0.4049
vn -0.4050 0.7826 -0.4728
vn 0.7712 0.5467 0.3262
vn -0.7335 -0.2706 -0.6235
vn 0.5338 -0.7944 0.2898
vn -0.6558 -0.5150 -0.5520
vn 0.7473 0.5334 0.3964
vn -0.6523 -0.5463 -0.5254
vn 0.4967 -0.7950 0.3482
vn 0.6386 0.6538 0.4058
vn 0.5050 -0.7952 0.3356
vn -0.3956 0.7804 -0.4843
vn 0.7706 0.4994 0.3960
vn 0.6653 0.6836 0.3001
vn 0.4297 -0.7876 0.4416
vn -0.5808 -0.6715 -0.4602
vn 0.6757 0.6586 0.3312
vn -0.5505 -0.6992 -0.4561
vn -0.5486 -0.6506 -0.5251
vn 0.5002 0.8486 0.1722
vn -0.8034 -0.1508 -0.5760
vn 0.6948 0.5565 0.4556
vn -0.7439 0.5435 0.3888
vn -0.4416 0.7896 -0.4260
vn -0.6445 -0.6464 -0.4084
vn -0.4598 0.7922 -0.4013
vn 0.6925 0.5607 0.4539
vn -0.6419 -0.6499 -0.4068
vn -0.6954 -0.5565 -0.4547
vn 0.6327 0.6367 0.4408
vn 0.0783 -0.6335 0.7697
vn 0.6903 0.5646 0.4525
vn 0.6386 0.6557 0.4028
vn -0.6952 -0.5544 -0.4575
vn 0.4416 -0.7896 0.4260
vn 0.1973 0.4142 -0.8885
vn -0.4600 -0.7575 -0.4632
vn 0.8316 0.4142 0.3699
vn 0.2177 0.3947 -0.8927
vn 0.6441 0.7594 0.0916
vn -0.7023 -0.5745 -0.4203
vn -0.7285 0.6507 0.2142
vn 0.7285 -0.6507 -0.2142
vn -0.1480 0.6762 -0.7217
vn 0.8114 0.4402 0.3846
vn -0.4916 -0.7420 -0.4558
vn 0.0571 -0.6195 0.7829
vn 0.7405 -0.5976 -0.3075
vn 0.8051 0.4478 0.3889
vn -0.5012 -0.7370 -0.4534
vn 0.3243 -0.7589 0.5647
vn 0.1506 0.4572 -0.8765
vn -0.5994 -0.3688 -0.7105
vn 0.7434 -0.5235 -0.4162
vn -0.6719 0.7406 -0.0000
usemtl Matériau.012
s off
f 185//77 186//77 188//77 187//77
f 192//78 191//78 195//78 196//78
f 191//79 192//79 190//79 189//79
f 207//80 208//80 186//80 185//80
f 205//81 191//81 189//81 207//81
f 206//82 188//82 186//82 208//82
f 196//83 195//83 199//83 200//83
f 205//84 187//84 194//84 209//84
f 206//85 192//85 196//85 210//85
f 187//86 188//86 193//86 194//86
f 212//87 200//87 204//87 214//87
f 209//88 194//88 198//88 211//88
f 210//89 196//89 200//89 212//89
f 194//90 193//90 197//90 198//90
f 203//91 213//91 217//91 220//91
f 198//92 197//92 201//92 202//92
f 200//93 199//93 203//93 204//93
f 211//94 198//94 202//94 213//94
f 199//95 211//95 213//95 203//95
f 202//96 201//96 215//96 216//96
f 193//97 210//97 212//97 197//97
f 195//98 209//98 211//98 199//98
f 197//99 212//99 214//99 201//99
f 188//100 206//100 210//100 193//100
f 191//101 205//101 209//101 195//101
f 192//102 206//102 208//102 190//102
f 187//103 205//103 207//103 185//103
f 189//104 190//104 208//104 207//104
f 219//105 220//105 226//105 225//105
f 215//106 218//106 224//106 221//106
f 204//107 203//107 220//107 219//107
f 213//108 202//108 216//108 217//108
f 201//109 214//109 218//109 215//109
f 214//110 204//110 219//110 218//110
f 226//111 223//111 234//111 233//111
f 222//112 221//112 227//112 228//112
f 217//113 216//113 222//113 223//113
f 220//114 217//114 223//114 226//114
f 218//115 219//115 225//115 224//115
f 216//116 215//116 221//116 222//116
f 230//117 229//117 237//117 238//117
f 221//118 224//118 230//118 227//118
f 223//119 222//119 228//119 229//119
f 224//120 223//120 229//120 230//120
f 233//121 234//121 246//121 245//121
f 224//122 225//122 232//122 231//122
f 225//123 226//123 233//123 232//123
f 223//124 224//124 231//124 234//124
f 238//125 237//125 241//125 242//125
f 229//126 228//126 236//126 237//126
f 227//127 230//127 238//127 235//127
f 228//128 227//128 235//128 236//128
f 240//129 239//129 242//129 241//129
f 237//130 236//130 240//130 241//130
f 235//131 238//131 242//131 239//131
f 236//132 235//132 239//132 240//132
f 246//133 243//133 244//133 245//133
f 231//134 232//134 244//134 243//134
f 234//135 231//135 243//135 246//135
f 232//136 233//136 245//136 244//136
