# Blender v2.91.2 OBJ File: 'camionnete02.blend'
# www.blender.org
mtllib arme_000099.mtl
o Cube.046_Cube.010
v 385.809082 625.587280 -1020.530823
v 375.390869 428.663727 -1118.977051
v 510.644592 701.484741 -1185.560547
v 500.226318 504.561249 -1284.006836
v 204.462311 689.146729 -1128.478149
v 194.043976 492.223175 -1226.924561
v 329.297729 765.044189 -1293.507568
v 318.879456 568.120605 -1391.954102
v 213.935455 521.091431 -793.317688
v 203.517136 324.167999 -891.764038
v 22.170338 387.727386 -999.711304
v 32.588646 584.650879 -901.264954
v 136.151352 473.800201 -690.488708
v 125.733032 276.876770 -788.935181
v -55.613827 340.436127 -896.882446
v -45.195518 537.359619 -798.436035
v 90.199966 445.862701 -629.742004
v 90.438339 307.237701 -711.420654
v -90.908554 370.797150 -819.367981
v -91.146912 509.422150 -737.689270
v 146.537430 670.114990 -592.346680
v -34.809395 733.674438 -700.294067
v 100.586075 642.177490 -531.599976
v -80.760765 705.736938 -639.547241
v 240.750900 537.394775 -828.767090
v 230.332626 340.471222 -927.213440
v 59.404091 600.954224 -936.714355
v 48.985756 404.030670 -1035.160767
v 217.374619 586.097412 -760.819702
v 36.027794 649.656860 -868.767090
v 244.190079 602.400635 -796.269104
v 62.843231 665.959961 -904.216370
v 222.364304 680.410400 -713.670593
v 41.017471 743.969727 -821.617859
v 249.179733 696.713623 -749.120056
v 67.832932 760.273071 -857.067322
v 141.348557 539.875000 -660.314941
v -39.998314 603.434448 -768.262268
v 146.338211 634.187988 -613.165833
v -35.008644 697.747437 -721.113037
v 182.015732 809.966064 -569.604126
v 0.668892 873.525513 -677.551514
v 136.064346 782.028564 -508.857513
v -45.282459 845.588013 -616.804810
v 466.573792 674.690552 -1127.299805
v 456.155518 477.767120 -1225.746338
v 285.226929 738.250000 -1235.247070
v 274.808655 541.326416 -1333.693604
v 419.971130 733.264526 -1239.534058
v 409.552856 536.340942 -1337.980469
v 295.135742 657.366943 -1074.504395
v 284.717407 460.443512 -1172.950928
v 123.262054 552.871094 -847.291260
v 112.843735 355.947662 -945.737610
v 45.477928 505.579987 -744.462402
v 36.694939 311.013031 -825.890930
v -0.473450 477.642487 -683.715698
v 12.895630 331.485565 -773.622742
v 55.863998 701.894775 -646.320251
v 9.912651 673.957153 -585.573608
v 139.659195 372.250885 -981.187134
v 150.077499 569.174438 -882.740723
v 126.701218 617.877075 -814.793396
v 153.516647 634.180298 -850.242798
v 131.690887 712.190063 -767.644226
v 158.506332 728.493286 -803.093689
v 50.675117 571.654785 -714.288635
v 55.664787 665.967773 -667.139404
v 91.342300 841.745850 -623.577881
v 45.390915 813.808228 -562.831177
v 365.482056 509.546783 -1279.719849
v 375.900391 706.470215 -1181.273438
v 465.307861 717.374512 -1212.547119
v 330.054138 444.553619 -1145.963989
v 158.180450 340.057831 -918.750916
v 67.265594 300.298523 -807.693665
v 43.466286 320.770966 -755.425476
v 195.414200 553.284546 -855.753845
v 198.853348 618.290405 -823.255920
v 203.843018 712.603516 -776.106812
v 421.237061 690.580444 -1154.286621
v 454.889587 520.451172 -1310.993896
v 340.472473 641.477173 -1047.517700
v 168.598770 536.981323 -820.304504
v 90.814621 489.690094 -717.475464
v 44.863243 461.752594 -656.728882
v 101.200745 686.004883 -619.333496
v 55.249374 658.067383 -558.586792
v 184.995895 356.361053 -954.200317
v 172.037918 601.987305 -787.806580
v 177.027573 696.300293 -740.657349
v 96.011826 555.764893 -687.301758
v 101.001495 650.077881 -640.152527
v 136.679031 825.855957 -596.590942
v 90.727638 797.918335 -535.844360
v 410.818787 493.656952 -1252.733154
v 183.045227 319.489838 -972.633057
v 137.708496 335.379669 -999.619812
v 408.868103 456.785736 -1271.165894
v 363.531372 472.675568 -1298.152710
v 282.766724 423.572235 -1191.383545
v 328.103455 407.682404 -1164.396729
v 517.589905 579.278687 -1079.472900
v 481.876526 557.565796 -1032.260864
v 477.269775 470.488129 -1075.792725
v 512.983032 492.201202 -1123.005005
v 556.777954 565.543945 -1056.146240
v 521.064697 543.830933 -1008.934021
v 516.457825 456.753326 -1052.466064
v 552.171143 478.466400 -1099.678223
v 616.748352 544.525269 -1020.448914
v 581.034973 522.812256 -973.236572
v 576.428162 435.734772 -1016.768555
v 612.141418 457.447784 -1063.980957
v 655.338440 531.000000 -997.478027
v 619.625122 509.287018 -950.265808
v 615.018372 422.209503 -993.797668
v 650.731567 443.922516 -1041.010010
v 864.998047 769.788818 -1853.146973
v 819.661316 785.678711 -1880.133789
v 830.079529 982.602295 -1781.687256
v 875.416321 966.712280 -1754.700439
v 122.106430 904.485352 -605.117371
v 38.555771 933.768677 -654.851135
v 79.764717 878.742310 -549.142456
v -3.785900 908.025635 -598.876343
v 163.315384 849.459106 -499.408783
v 205.657120 875.202026 -555.383423
v 163.881790 889.843872 -580.250244
v 121.540054 864.100708 -524.275696
vn 0.8228 -0.2884 0.4898
vn 0.5664 0.3444 -0.7488
vn -0.8228 0.2884 -0.4898
vn 0.0473 0.8935 0.4467
vn -0.0473 -0.8935 -0.4467
vn -0.5664 -0.3444 0.7488
vn -0.4117 -0.8965 0.1637
vn -0.1299 -0.8784 -0.4600
vn -0.6338 -0.4174 0.6512
vn -0.8236 0.2875 -0.4890
vn 0.8236 -0.2875 0.4890
vn 0.5138 0.0091 -0.8578
vn 0.5119 0.0017 -0.8590
vn -0.5138 -0.0091 0.8578
vn 0.8445 0.2031 -0.4956
vn -0.7526 0.5863 -0.2997
vn -0.5324 -0.4554 0.7136
vn -0.0321 -0.9154 -0.4013
vn -0.4901 0.0764 0.8683
vn -0.5673 -0.4685 0.6772
vn -0.0844 -0.9142 -0.3964
vn -0.1969 -0.4300 0.8811
vn 0.4146 -0.9043 -0.1023
vn 0.4934 0.5860 0.6428
vn 0.5664 0.3444 -0.7487
vn 0.8119 -0.3891 0.4352
usemtl Matériau.011
s off
f 45//1 46//1 4//1 3//1
f 49//2 50//2 8//2 7//2
f 47//3 48//3 6//3 5//3
f 26//1 25//1 9//1 10//1
f 72//4 47//4 5//4 51//4
f 96//5 46//5 2//5 74//5
f 10//1 9//1 13//1 14//1
f 84//6 9//6 29//6 90//6
f 89//5 26//5 10//5 75//5
f 27//3 28//3 11//3 12//3
f 76//7 14//7 18//7 77//7
f 75//8 10//8 14//8 76//8
f 12//3 11//3 15//3 16//3
f 53//4 12//4 16//4 55//4
f 86//9 77//9 18//9 17//9
f 16//10 15//10 19//10 20//10
f 16//3 20//3 24//3 22//3
f 14//11 13//11 17//11 18//11
f 59//12 22//12 42//12 69//12
f 86//6 17//6 23//6 88//6
f 17//1 13//1 21//1 23//1
f 55//2 16//2 22//2 59//2
f 5//3 6//3 28//3 27//3
f 74//5 2//5 26//5 89//5
f 51//4 5//4 27//4 62//4
f 2//1 1//1 25//1 26//1
f 32//3 30//3 34//3 36//3
f 62//2 27//2 32//2 64//2
f 27//3 12//3 30//3 32//3
f 9//1 25//1 31//1 29//1
f 66//4 36//4 34//4 65//4
f 90//5 29//5 37//5 92//5
f 64//2 32//2 36//2 66//2
f 29//1 31//1 35//1 33//1
f 92//6 37//6 39//6 93//6
f 29//1 33//1 39//1 37//1
f 34//3 30//3 38//3 40//3
f 65//4 34//4 40//4 68//4
f 69//13 42//13 124//13 123//13
f 23//1 21//1 41//1 43//1
f 88//14 23//14 43//14 95//14
f 22//3 24//3 44//3 42//3
f 82//5 4//5 46//5 96//5
f 49//4 7//4 47//4 72//4
f 7//3 8//3 48//3 47//3
f 46//15 45//15 103//15 106//15
f 73//4 49//4 72//4 81//4
f 8//5 50//5 71//5 48//5
f 24//14 60//14 70//14 44//14
f 42//16 44//16 126//16 124//16
f 91//4 65//4 68//4 93//4
f 38//6 67//6 68//6 40//6
f 79//2 64//2 66//2 80//2
f 30//5 63//5 67//5 38//5
f 80//4 66//4 65//4 91//4
f 78//2 62//2 64//2 79//2
f 83//4 51//4 62//4 78//4
f 6//5 52//5 61//5 28//5
f 85//2 55//2 59//2 87//2
f 20//6 57//6 60//6 24//6
f 87//12 59//12 69//12 94//12
f 20//17 19//17 58//17 57//17
f 84//4 53//4 55//4 85//4
f 11//18 54//18 56//18 15//18
f 15//7 56//7 58//7 19//7
f 28//5 61//5 54//5 11//5
f 12//6 53//6 63//6 30//6
f 48//5 71//5 52//5 6//5
f 81//4 72//4 51//4 83//4
f 50//3 49//3 121//3 120//3
f 3//2 4//2 82//2 73//2
f 45//4 81//4 83//4 1//4
f 9//4 84//4 85//4 13//4
f 21//12 87//12 94//12 41//12
f 13//2 85//2 87//2 21//2
f 1//4 83//4 78//4 25//4
f 25//2 78//2 79//2 31//2
f 35//4 80//4 91//4 33//4
f 31//2 79//2 80//2 35//2
f 33//4 91//4 93//4 39//4
f 70//19 95//19 130//19 125//19
f 3//4 73//4 81//4 45//4
f 50//5 82//5 96//5 71//5
f 60//14 88//14 95//14 70//14
f 67//6 92//6 93//6 68//6
f 63//5 90//5 92//5 67//5
f 52//3 71//3 100//3 101//3
f 57//6 86//6 88//6 60//6
f 57//20 58//20 77//20 86//20
f 54//21 75//21 76//21 56//21
f 56//7 76//7 77//7 58//7
f 61//5 89//5 75//5 54//5
f 53//6 84//6 90//6 63//6
f 89//6 61//6 98//6 97//6
f 101//5 102//5 97//5 98//5
f 100//5 99//5 102//5 101//5
f 61//3 52//3 101//3 98//3
f 74//1 89//1 97//1 102//1
f 71//2 96//2 99//2 100//2
f 96//1 74//1 102//1 99//1
f 106//2 103//2 107//2 110//2
f 1//22 2//22 105//22 104//22
f 2//23 46//23 106//23 105//23
f 45//24 1//24 104//24 103//24
f 109//5 110//5 114//5 113//5
f 104//6 105//6 109//6 108//6
f 105//5 106//5 110//5 109//5
f 103//4 104//4 108//4 107//4
f 113//5 114//5 118//5 117//5
f 107//4 108//4 112//4 111//4
f 110//2 107//2 111//2 114//2
f 108//6 109//6 113//6 112//6
f 116//1 117//1 118//1 115//1
f 111//4 112//4 116//4 115//4
f 114//25 111//25 115//25 118//25
f 122//2 119//2 120//2 121//2
f 82//5 50//5 120//5 119//5
f 73//1 82//1 119//1 122//1
f 49//4 73//4 122//4 121//4
f 123//4 124//4 126//4 125//4
f 129//4 123//4 125//4 130//4
f 128//4 129//4 130//4 127//4
f 95//19 43//19 127//19 130//19
f 94//13 69//13 123//13 129//13
f 43//26 41//26 128//26 127//26
f 44//19 70//19 125//19 126//19
f 41//13 94//13 129//13 128//13
o Cube.048_Cube.024
v -565.002380 481.575195 181.668518
v -731.076904 347.034119 68.905556
v -422.014221 467.952454 -12.667229
v -588.414795 331.078247 -130.383911
v -672.466064 645.753601 17.878029
v -757.617065 576.770691 -39.938660
v -599.151978 638.768860 -81.763344
v -684.332703 569.014404 -139.499634
v -340.251953 485.632202 -467.731598
v -253.910278 508.800232 -378.115814
v -303.865540 623.634827 -359.673431
v -390.207184 600.466858 -449.289154
v -202.928101 585.433350 -602.169128
v -139.447815 602.466919 -536.281677
v -176.176086 686.895935 -522.722290
v -239.656403 669.862305 -588.609863
v -116.386169 650.124268 -684.579224
v -69.995483 662.572266 -636.429626
v -96.836121 724.271851 -626.520569
v -143.226685 711.823914 -674.670227
v -478.693665 573.031189 -38.913513
v -655.209473 428.215576 -161.300842
v -630.482666 587.733582 167.401978
v -806.791260 444.901672 47.690224
v -272.782135 569.051392 -370.001038
v -364.444427 544.455688 -465.139252
v -144.245056 652.350464 -540.505554
v -211.637238 634.267151 -610.453308
v -65.264465 704.094666 -648.762512
v -114.513733 690.879578 -699.879395
v -57.082825 682.543701 -750.097168
v -10.692200 694.991638 -701.947388
v -2.188782 745.448120 -720.224548
v -51.438171 732.233093 -771.341492
v -80.730896 751.804199 -745.218689
v -34.340332 764.252075 -697.068909
v -14.987366 707.057251 -796.991943
v 31.403198 719.505188 -748.842163
v 39.906433 769.961670 -767.119263
v -9.342834 756.746643 -818.236145
v -38.635620 776.317627 -792.113281
v 7.754944 788.765564 -743.963562
v 28.667603 702.046509 -820.640686
v 58.527039 710.058655 -789.648865
v 64.000244 742.535339 -801.412903
v 32.300720 734.029419 -834.314697
v 2.203064 805.804138 -842.042725
v -27.089783 825.375183 -815.919922
v 19.300842 837.823242 -767.770264
v 51.452332 819.019226 -790.925842
v 57.767700 697.484924 -837.425110
v 77.898071 702.886475 -816.531128
v 81.587952 724.781250 -824.462158
v 60.217041 719.046814 -846.643555
v 84.768555 704.922180 -857.555115
v 97.352295 708.298828 -844.494202
v 99.658875 721.985535 -849.451904
v 86.299744 718.400818 -863.317810
v 11.527893 837.664368 -842.177063
v -7.949280 850.677246 -824.807495
v 22.896301 858.954163 -792.791992
v 44.274353 846.451233 -808.188721
v -309.710388 606.961243 340.464142
v -302.588531 365.458252 345.273895
v -150.689148 602.041260 157.362549
v -149.542175 366.247040 158.261139
v -457.566315 539.757080 143.100220
v -453.914734 415.931763 145.566315
v -375.802002 543.327637 48.419281
v -375.443665 416.336121 49.679630
v 37.399353 362.697174 -177.856293
v 119.641479 446.159912 -129.983307
v 68.780334 537.368896 -200.489746
v -12.605530 455.337585 -248.140656
v 179.714294 339.810547 -339.455139
v 240.986877 400.030396 -303.673981
v 204.222107 468.141724 -355.348541
v 142.949402 407.921753 -391.129852
v 269.331177 328.294830 -440.954132
v 314.108398 372.302673 -414.805695
v 287.241272 422.077576 -452.568878
v 242.463928 378.069672 -478.717255
v -252.403137 611.477478 95.813286
v -254.392883 354.467224 96.135017
v -424.431152 610.015076 289.565979
v -416.870422 353.629822 294.672119
v 101.889404 492.252136 -166.959198
v 13.414856 405.297729 -218.625458
v 236.576111 431.911255 -342.318268
v 171.527588 367.980377 -380.304291
v 319.457336 392.741638 -452.913849
v 271.920837 346.021820 -480.673553
v 330.993713 305.604492 -508.358856
v 375.770935 349.612549 -482.210358
v 385.135681 372.162903 -530.748779
v 337.599182 325.443115 -558.508606
v 307.525208 357.166229 -554.949158
v 352.302429 401.174194 -528.800720
v 374.783997 290.275024 -557.546570
v 419.561218 334.282959 -531.398254
v 428.926208 356.833374 -579.936890
v 381.389587 310.113525 -607.696716
v 351.315491 341.836731 -604.137024
v 396.092712 385.844696 -577.988647
v 419.196960 270.829163 -569.355896
v 448.018127 299.154999 -552.525452
v 454.045837 313.669617 -583.767517
v 423.448669 283.598267 -601.635315
v 393.977356 327.807068 -659.030823
v 363.903381 359.530334 -655.471191
v 408.680603 403.538177 -629.322815
v 441.513977 374.526855 -631.271057
v 448.831360 256.282928 -577.072388
v 468.261902 275.379517 -565.725647
v 472.325745 285.164673 -586.788391
v 451.697693 264.891602 -598.834290
v 476.539856 247.725647 -595.743530
v 488.685852 259.663208 -588.650330
v 491.226257 265.780273 -601.816833
v 478.331604 253.107025 -609.346863
v 403.454163 350.255463 -681.576477
v 383.457458 371.348663 -679.209595
v 413.230286 400.610107 -661.822998
v 435.061707 381.320160 -663.118347
vn 0.4214 -0.8288 0.3681
vn -0.2810 0.9249 -0.2561
vn -0.4217 0.8271 -0.3715
vn -0.4587 -0.1656 0.8731
vn 0.4006 0.8864 0.2319
vn -0.6685 -0.6044 -0.4334
vn -0.3457 0.9339 0.0916
vn 0.7936 0.4118 0.4479
vn -0.7143 -0.0659 -0.6967
vn 0.5007 -0.8638 0.0564
vn -0.6604 -0.0385 -0.7500
vn 0.7584 0.1405 0.6364
vn -0.6595 -0.0796 -0.7475
vn 0.4412 -0.8751 -0.1989
vn 0.6559 0.2380 0.7163
vn 0.4500 -0.8682 -0.2090
vn -0.3360 0.9384 0.0811
vn 0.7800 0.1121 0.6157
vn 0.6881 0.3233 0.6496
vn 0.3712 -0.9208 -0.1196
vn -0.5971 -0.2232 -0.7705
vn 0.6960 0.2841 0.6595
vn -0.5685 -0.2497 -0.7839
vn -0.5753 -0.4586 -0.6773
vn 0.5155 0.7575 0.4005
vn -0.8085 -0.0812 -0.5828
vn 0.7118 0.5052 0.4880
vn -0.7260 0.5473 0.4162
vn -0.3836 0.9138 0.1333
vn -0.6613 -0.2301 -0.7139
vn -0.4026 0.9022 0.1546
vn 0.7030 0.1314 0.6989
vn -0.6590 -0.2340 -0.7148
vn -0.7057 -0.1273 -0.6970
vn 0.6478 0.2037 0.7340
vn 0.0161 -0.9717 0.2357
vn 0.7011 0.1355 0.7001
vn 0.6561 0.2413 0.7151
vn -0.7053 -0.1240 -0.6980
vn 0.3836 -0.9138 -0.1333
vn 0.2520 0.8501 -0.4625
vn -0.4809 -0.2979 -0.8246
vn 0.8374 0.0558 0.5437
vn 0.2715 0.8356 -0.4776
vn 0.6788 0.5101 0.5283
vn -0.7148 -0.1619 -0.6803
vn -0.7013 0.4380 0.5624
vn 0.7013 -0.4380 -0.5624
vn -0.0853 0.9815 -0.1715
vn 0.8180 0.0690 0.5710
vn -0.5119 -0.2879 -0.8093
vn -0.0048 -0.9670 0.2546
vn 0.7196 -0.3405 -0.6052
vn 0.8120 0.0729 0.5790
vn -0.5213 -0.2847 -0.8045
vn 0.2629 -0.9648 -0.0039
vn 0.2071 0.8802 -0.4271
vn -0.5904 0.1695 -0.7891
vn 0.7304 -0.2165 -0.6478
vn -0.6321 0.6344 0.4450
vn 0.7645 0.0209 0.6443
vn -0.5304 0.3744 -0.7606
vn -0.7650 -0.0218 -0.6437
vn -0.4054 0.0063 0.9141
vn -0.3772 0.8703 -0.3167
vn 0.0770 -0.9953 0.0588
vn -0.3461 0.7081 -0.6155
vn 0.4126 0.9108 0.0130
vn -0.3571 -0.7984 -0.4847
vn 0.7393 -0.2780 0.6133
vn -0.6345 -0.5751 -0.5163
vn 0.7373 0.5665 0.3680
vn -0.6340 -0.6022 -0.4852
vn 0.4468 -0.7395 0.5036
vn 0.6322 0.6910 0.3504
vn 0.4527 -0.7485 0.4846
vn -0.3340 0.7089 -0.6211
vn 0.7590 0.5336 0.3730
vn 0.6670 0.7040 0.2437
vn 0.3707 -0.7233 0.5826
vn -0.5715 -0.7180 -0.3973
vn 0.6668 0.6932 0.2735
vn -0.5425 -0.7456 -0.3870
vn -0.1142 -0.9819 -0.1511
vn -0.0111 0.9672 -0.2539
vn -0.3463 -0.8931 -0.2871
vn 0.0428 0.9987 0.0285
vn -0.9725 -0.0241 0.2316
vn -0.3836 0.7279 -0.5683
vn -0.6376 -0.6839 -0.3545
vn -0.4033 0.7346 -0.5456
vn 0.6794 0.6048 0.4155
vn -0.6353 -0.6872 -0.3523
vn -0.6821 -0.6007 -0.4171
vn 0.6233 0.6795 0.3870
vn 0.0034 -0.5134 0.8582
vn 0.6774 0.6085 0.4134
vn 0.6324 0.6924 0.3472
vn -0.6816 -0.5991 -0.4201
vn 0.3835 -0.7279 0.5683
vn 0.2717 0.2721 -0.9231
vn -0.4539 -0.8065 -0.3788
vn 0.8186 0.4441 0.3643
vn 0.2916 0.2516 -0.9228
vn 0.6628 0.7484 0.0254
vn -0.6919 -0.6132 -0.3810
vn -0.7180 0.6932 0.0629
vn 0.7180 -0.6932 -0.0629
vn -0.0747 0.5645 -0.8221
vn 0.7983 0.4724 0.3735
vn -0.4854 -0.7893 -0.3761
vn -0.0181 -0.4971 0.8675
vn 0.7382 -0.6549 -0.1618
vn 0.7921 0.4807 0.3762
vn -0.4949 -0.7838 -0.3752
vn 0.2582 -0.6740 0.6921
vn 0.2258 0.3174 -0.9210
vn -0.5623 -0.4557 -0.6901
vn 0.7511 -0.5980 -0.2797
vn -0.6439 0.7487 -0.1576
usemtl Matériau.012
s off
f 131//27 132//27 134//27 133//27
f 138//28 137//28 141//28 142//28
f 137//29 138//29 136//29 135//29
f 153//30 154//30 132//30 131//30
f 151//31 137//31 135//31 153//31
f 152//32 134//32 132//32 154//32
f 142//33 141//33 145//33 146//33
f 151//34 133//34 140//34 155//34
f 152//35 138//35 142//35 156//35
f 133//36 134//36 139//36 140//36
f 158//37 146//37 150//37 160//37
f 155//38 140//38 144//38 157//38
f 156//39 142//39 146//39 158//39
f 140//40 139//40 143//40 144//40
f 149//41 159//41 163//41 166//41
f 144//42 143//42 147//42 148//42
f 146//43 145//43 149//43 150//43
f 157//44 144//44 148//44 159//44
f 145//45 157//45 159//45 149//45
f 148//46 147//46 161//46 162//46
f 139//47 156//47 158//47 143//47
f 141//48 155//48 157//48 145//48
f 143//49 158//49 160//49 147//49
f 134//50 152//50 156//50 139//50
f 137//51 151//51 155//51 141//51
f 138//52 152//52 154//52 136//52
f 133//53 151//53 153//53 131//53
f 135//54 136//54 154//54 153//54
f 165//55 166//55 172//55 171//55
f 161//56 164//56 170//56 167//56
f 150//57 149//57 166//57 165//57
f 159//58 148//58 162//58 163//58
f 147//59 160//59 164//59 161//59
f 160//60 150//60 165//60 164//60
f 172//61 169//61 180//61 179//61
f 168//62 167//62 173//62 174//62
f 163//63 162//63 168//63 169//63
f 166//64 163//64 169//64 172//64
f 164//65 165//65 171//65 170//65
f 162//66 161//66 167//66 168//66
f 176//67 175//67 183//67 184//67
f 167//68 170//68 176//68 173//68
f 169//69 168//69 174//69 175//69
f 170//70 169//70 175//70 176//70
f 179//71 180//71 192//71 191//71
f 170//72 171//72 178//72 177//72
f 171//73 172//73 179//73 178//73
f 169//74 170//74 177//74 180//74
f 184//75 183//75 187//75 188//75
f 175//76 174//76 182//76 183//76
f 173//77 176//77 184//77 181//77
f 174//78 173//78 181//78 182//78
f 186//79 185//79 188//79 187//79
f 183//80 182//80 186//80 187//80
f 181//81 184//81 188//81 185//81
f 182//82 181//82 185//82 186//82
f 192//83 189//83 190//83 191//83
f 177//84 178//84 190//84 189//84
f 180//85 177//85 189//85 192//85
f 178//86 179//86 191//86 190//86
f 193//87 194//87 196//87 195//87
f 200//88 199//88 203//88 204//88
f 199//89 200//89 198//89 197//89
f 215//90 216//90 194//90 193//90
f 213//91 199//91 197//91 215//91
f 214//92 196//92 194//92 216//92
f 204//93 203//93 207//93 208//93
f 213//94 195//94 202//94 217//94
f 214//95 200//95 204//95 218//95
f 195//96 196//96 201//96 202//96
f 220//97 208//97 212//97 222//97
f 217//98 202//98 206//98 219//98
f 218//99 204//99 208//99 220//99
f 202//100 201//100 205//100 206//100
f 211//101 221//101 225//101 228//101
f 206//102 205//102 209//102 210//102
f 208//103 207//103 211//103 212//103
f 219//104 206//104 210//104 221//104
f 207//105 219//105 221//105 211//105
f 210//106 209//106 223//106 224//106
f 201//107 218//107 220//107 205//107
f 203//108 217//108 219//108 207//108
f 205//109 220//109 222//109 209//109
f 196//110 214//110 218//110 201//110
f 199//111 213//111 217//111 203//111
f 200//112 214//112 216//112 198//112
f 195//113 213//113 215//113 193//113
f 197//114 198//114 216//114 215//114
f 227//115 228//115 234//115 233//115
f 223//116 226//116 232//116 229//116
f 212//117 211//117 228//117 227//117
f 221//118 210//118 224//118 225//118
f 209//119 222//119 226//119 223//119
f 222//120 212//120 227//120 226//120
f 234//121 231//121 242//121 241//121
f 230//122 229//122 235//122 236//122
f 225//123 224//123 230//123 231//123
f 228//124 225//124 231//124 234//124
f 226//125 227//125 233//125 232//125
f 224//126 223//126 229//126 230//126
f 238//127 237//127 245//127 246//127
f 229//128 232//128 238//128 235//128
f 231//129 230//129 236//129 237//129
f 232//130 231//130 237//130 238//130
f 241//131 242//131 254//131 253//131
f 232//132 233//132 240//132 239//132
f 233//133 234//133 241//133 240//133
f 231//134 232//134 239//134 242//134
f 246//135 245//135 249//135 250//135
f 237//136 236//136 244//136 245//136
f 235//137 238//137 246//137 243//137
f 236//138 235//138 243//138 244//138
f 248//139 247//139 250//139 249//139
f 245//140 244//140 248//140 249//140
f 243//141 246//141 250//141 247//141
f 244//142 243//142 247//142 248//142
f 254//143 251//143 252//143 253//143
f 239//144 240//144 252//144 251//144
f 242//145 239//145 251//145 254//145
f 240//146 241//146 253//146 252//146
