# Blender v2.91.2 OBJ File: 'camionnete02.blend'
# www.blender.org
mtllib arme_000210.mtl
o Cube.046_Cube.010
v -20.589737 81.827332 -1256.727051
v -56.542412 -124.543762 -1188.188965
v 12.731613 7.950714 -1461.692871
v -23.221130 -198.420380 -1393.155029
v -235.476227 104.899628 -1299.977295
v -271.428925 -101.471466 -1231.438965
v -202.154877 31.023041 -1504.943115
v -238.107620 -175.348083 -1436.405029
v -66.466591 183.540710 -974.529785
v -102.419273 -22.830307 -905.991516
v -317.305725 0.242004 -949.241577
v -281.353027 206.613068 -1017.779846
v -87.228806 229.572815 -846.816772
v -123.181557 23.201691 -778.278625
v -338.068024 46.274033 -821.528687
v -302.115356 252.645111 -890.066895
v -99.494255 256.766388 -771.369812
v -123.432846 102.088226 -734.087585
v -338.319366 125.160583 -777.337708
v -314.380768 279.838776 -814.619873
v -59.308899 167.671539 -1018.557678
v -95.261642 -38.699463 -950.019531
v -274.195404 190.743927 -1061.807861
v -310.148132 -15.627182 -993.269592
v 0.968140 34.031464 -1389.333984
v -34.984604 -172.339630 -1320.795654
v -213.918365 57.103790 -1432.583740
v -249.871033 -149.267334 -1364.045654
v -94.711647 19.486938 -1483.318115
v -130.664398 -186.884277 -1414.780029
v -128.032928 93.363525 -1278.352295
v -163.985687 -113.007629 -1209.813965
v -173.909790 195.076935 -996.154724
v -209.862488 -11.294159 -927.616455
v -194.672058 241.108978 -868.441895
v -221.917236 46.645081 -790.946472
v -206.937500 268.302612 -792.994873
v -222.086700 99.838531 -761.148315
v -202.704895 -27.163330 -971.644470
v -166.752182 179.207764 -1040.182861
v -142.427841 -160.803528 -1342.420654
v -106.475090 45.567688 -1410.958984
v -40.989990 13.718811 -1472.505615
v -110.264046 -118.775696 -1199.001465
v -156.140930 -17.062241 -916.804077
v -185.692627 42.755646 -783.655518
v -185.862061 95.949066 -753.857422
v -113.030525 173.439697 -1029.370239
v -52.753494 39.799530 -1400.146240
v -76.942764 -192.652344 -1403.967529
v -74.311363 87.595367 -1267.539795
v -120.188217 189.308838 -985.342285
v -140.950439 235.340912 -857.629333
v -153.215881 262.534546 -782.182251
v -148.983261 -32.931427 -960.832031
v -88.706268 -166.571594 -1331.608154
v -155.714905 -71.571594 -947.999207
v -209.436539 -65.803497 -958.811646
v -95.437943 -205.211761 -1318.775391
v -149.159515 -199.443695 -1329.587891
v -170.717316 -151.647797 -1196.981201
v -116.995728 -157.415894 -1186.168701
v 75.514374 -19.922211 -1315.001221
v 65.981674 1.212616 -1256.363770
v 50.083923 -90.042572 -1226.056885
v 59.616394 -111.177460 -1284.694336
v 121.950150 -24.908051 -1305.655273
v 112.417480 -3.773163 -1247.017822
v 96.519608 -95.028381 -1216.710938
v 106.052246 -116.163208 -1275.348389
v 193.011719 -32.537872 -1291.352783
v 183.479095 -11.403046 -1232.715332
v 167.581207 -102.658234 -1202.408447
v 177.113770 -123.793121 -1261.045898
v 238.738953 -37.447662 -1282.149414
v 229.206360 -16.312836 -1223.511963
v 213.308502 -107.567963 -1193.205078
v 222.841064 -128.702820 -1251.842529
v 32.524445 -435.350708 -2077.319336
v -21.197220 -429.582672 -2088.132080
v 14.755440 -223.211456 -2156.670166
v 68.477173 -228.979584 -2145.857666
vn 0.9750 -0.1047 0.1962
vn 0.1512 -0.3352 -0.9299
vn -0.9750 0.1047 -0.1962
vn 0.1631 0.9363 -0.3110
vn -0.1631 -0.9363 0.3110
vn -0.2224 -0.4770 0.8503
vn -0.2442 -0.9141 0.3238
vn -0.2482 0.2356 0.9396
vn -0.9752 0.1047 -0.1948
vn 0.9752 -0.1047 0.1948
vn 0.5226 -0.3493 -0.7777
vn -0.1268 0.2222 0.9667
vn -0.1279 -0.9283 0.3492
vn -0.1729 0.1979 0.9648
vn -0.1727 -0.9122 0.3715
vn -0.1512 0.3352 0.9299
vn 0.2447 0.2669 0.9321
vn 0.4019 -0.8386 0.3676
vn 0.6740 0.7231 -0.1511
usemtl Matériau.011
s off
f 25//1 26//1 4//1 3//1
f 29//2 30//2 8//2 7//2
f 27//3 28//3 6//3 5//3
f 22//1 21//1 9//1 10//1
f 42//4 27//4 5//4 31//4
f 56//5 26//5 2//5 44//5
f 10//1 9//1 13//1 14//1
f 55//5 22//5 10//5 45//5
f 23//3 24//3 11//3 12//3
f 46//6 14//6 18//6 47//6
f 45//7 10//7 14//7 46//7
f 12//3 11//3 15//3 16//3
f 33//4 12//4 16//4 35//4
f 54//8 47//8 18//8 17//8
f 16//9 15//9 19//9 20//9
f 14//10 13//10 17//10 18//10
f 5//3 6//3 24//3 23//3
f 44//5 2//5 22//5 55//5
f 31//4 5//4 23//4 40//4
f 2//1 1//1 21//1 22//1
f 50//5 4//5 26//5 56//5
f 29//4 7//4 27//4 42//4
f 7//3 8//3 28//3 27//3
f 26//11 25//11 63//11 66//11
f 43//4 29//4 42//4 49//4
f 8//5 30//5 41//5 28//5
f 51//4 31//4 40//4 48//4
f 6//5 32//5 39//5 24//5
f 20//12 19//12 38//12 37//12
f 52//4 33//4 35//4 53//4
f 11//13 34//13 36//13 15//13
f 15//6 36//6 38//6 19//6
f 24//5 39//5 34//5 11//5
f 28//5 41//5 32//5 6//5
f 49//4 42//4 31//4 51//4
f 30//3 29//3 81//3 80//3
f 3//2 4//2 50//2 43//2
f 25//4 49//4 51//4 1//4
f 9//4 52//4 53//4 13//4
f 1//4 51//4 48//4 21//4
f 3//4 43//4 49//4 25//4
f 30//5 50//5 56//5 41//5
f 32//3 41//3 60//3 61//3
f 37//14 38//14 47//14 54//14
f 34//15 45//15 46//15 36//15
f 36//6 46//6 47//6 38//6
f 39//5 55//5 45//5 34//5
f 55//16 39//16 58//16 57//16
f 61//5 62//5 57//5 58//5
f 60//5 59//5 62//5 61//5
f 39//3 32//3 61//3 58//3
f 44//1 55//1 57//1 62//1
f 41//2 56//2 59//2 60//2
f 56//1 44//1 62//1 59//1
f 66//2 63//2 67//2 70//2
f 1//17 2//17 65//17 64//17
f 2//18 26//18 66//18 65//18
f 25//19 1//19 64//19 63//19
f 69//5 70//5 74//5 73//5
f 64//16 65//16 69//16 68//16
f 65//5 66//5 70//5 69//5
f 63//4 64//4 68//4 67//4
f 73//5 74//5 78//5 77//5
f 67//4 68//4 72//4 71//4
f 70//2 67//2 71//2 74//2
f 68//16 69//16 73//16 72//16
f 76//1 77//1 78//1 75//1
f 71//4 72//4 76//4 75//4
f 74//2 71//2 75//2 78//2
f 82//2 79//2 80//2 81//2
f 50//5 30//5 80//5 79//5
f 43//1 50//1 79//1 82//1
f 29//4 43//4 82//4 81//4
o Cube.048_Cube.024
v -465.596313 583.885193 118.047035
v -637.600586 415.670776 140.762604
v -396.330872 484.803070 -91.195793
v -570.130005 315.731689 -69.560493
v -645.592896 661.184814 -46.136864
v -733.784302 574.936523 -34.489983
v -610.078491 610.382568 -153.421509
v -697.933838 524.322815 -141.576996
v -497.124603 258.165588 -473.464752
v -382.559265 310.940552 -462.872711
v -428.804138 420.190002 -507.015900
v -543.369507 367.414917 -517.607910
v -441.238586 218.257935 -678.831970
v -357.007568 257.059265 -671.044373
v -391.007874 337.381927 -703.499451
v -475.238953 298.580536 -711.286926
v -405.157562 195.886475 -807.919250
v -343.602661 224.242065 -802.228210
v -368.449615 282.940796 -825.945862
v -430.004517 254.585297 -831.636902
v -473.716217 568.630615 -135.306061
v -656.850830 390.629883 -111.647743
v -547.311646 673.914978 86.773209
v -729.915344 495.334717 110.888611
v -400.933777 365.595947 -489.842377
v -522.559082 309.568787 -501.087189
v -367.307953 293.039581 -704.638184
v -456.729523 251.847168 -712.905579
v -348.218292 246.721863 -839.268005
v -413.566376 216.618958 -845.309937
v -383.394714 166.018127 -894.491455
v -321.839661 194.373718 -888.800476
v -326.420441 219.018951 -937.006653
v -391.768555 188.916138 -943.048584
v -408.212067 226.549530 -927.659119
v -346.657135 254.904968 -921.968201
v -368.241425 145.704895 -957.179504
v -306.686432 174.060425 -951.488464
v -311.267120 198.705750 -999.694763
v -376.615387 168.602905 -1005.736511
v -393.058899 206.236206 -990.347107
v -331.503845 234.591736 -984.656189
v -339.068451 117.211914 -985.940735
v -299.448273 135.463013 -982.277771
v -302.396729 151.326172 -1013.305847
v -344.458405 131.950317 -1017.194641
v -380.772156 188.075195 -1057.796509
v -397.215759 225.708588 -1042.407349
v -335.660767 254.064178 -1036.716187
v -315.424072 218.178162 -1051.754761
v -319.966187 96.670410 -1004.979919
v -293.255341 108.974854 -1002.510437
v -295.243073 119.669312 -1023.428650
v -323.599823 106.606628 -1026.050415
v -305.206482 83.563049 -1033.262817
v -288.509155 91.254761 -1031.719116
v -289.751892 97.939941 -1044.795532
v -307.477936 89.774292 -1046.434326
v -375.136017 209.769012 -1082.284424
v -386.069305 234.791992 -1072.051758
v -345.140808 253.645874 -1068.267822
v -331.685089 229.784729 -1078.267212
v -315.837677 435.935852 480.160858
v -381.506409 247.914795 343.291260
v -145.292847 494.292419 317.159180
v -213.975739 308.312775 179.941528
v -452.323364 544.118103 293.081787
v -485.993561 447.714447 222.904907
v -355.930481 576.464600 210.415131
v -400.095947 478.682129 139.150940
v -128.100037 338.816437 -92.297279
v -65.159607 263.842987 -15.046898
v 42.722839 311.941956 -54.061256
v -17.247009 386.117584 -130.986389
v -97.813049 188.011963 -244.718414
v -53.003235 129.368652 -188.025299
v 28.498352 164.145630 -216.470276
v -16.311462 222.788788 -273.163544
v -76.089478 93.094910 -339.506226
v -43.343079 50.239258 -298.075562
v 16.217163 75.653809 -318.862823
v -16.529175 118.509399 -360.293457
v -222.906555 563.873535 278.291748
v -309.382080 367.567505 131.170715
v -417.521088 503.055084 449.890533
v -487.236572 303.447632 304.586548
v -9.652222 276.437317 -36.251144
v -74.355225 361.115082 -118.113258
v -10.210876 132.112488 -214.302643
v -57.781982 194.369507 -274.489502
v -11.602051 43.137146 -327.069824
v -46.366394 88.633728 -371.053497
v -75.892395 27.747437 -407.257080
v -43.146118 -15.108154 -365.826233
v -6.025269 -26.741211 -403.759674
v -40.789612 18.755249 -447.743439
v -11.779358 49.327271 -435.609406
v 20.967102 6.471558 -394.178711
v -74.580139 -18.719910 -456.360016
v -41.833679 -61.575684 -414.929291
v -4.712830 -73.208801 -452.862701
v -39.477112 -27.712158 -496.846405
v -10.466797 2.859985 -484.712433
v 22.279541 -39.995605 -443.281738
v -89.383972 -63.903748 -471.505524
v -68.306580 -91.488037 -444.838348
v -44.413635 -98.975708 -469.254364
v -66.789795 -69.691528 -497.564850
v -6.052917 -42.764038 -538.834351
v 22.957397 -12.191833 -526.700195
v 55.703796 -55.047668 -485.269501
v 28.711365 -88.260498 -494.850555
v -100.799744 -94.061462 -481.970612
v -86.589966 -112.658203 -463.992462
v -70.482056 -117.706177 -480.453278
v -85.567383 -97.963562 -499.539276
v -102.961365 -122.801025 -500.916962
v -94.078796 -134.425781 -489.678497
v -84.009338 -137.581299 -499.968170
v -93.439575 -125.240112 -511.899078
v 22.471436 -53.152954 -552.268250
v 41.760864 -32.825195 -544.200134
v 63.534363 -61.320435 -516.652344
v 45.586792 -83.404175 -523.022766
vn 0.6402 -0.5920 0.4895
vn -0.4759 0.6889 -0.5468
vn -0.6416 0.5885 -0.4920
vn -0.1062 0.2389 0.9652
vn 0.3158 0.8936 -0.3189
vn -0.6765 -0.7260 0.1236
vn -0.3473 0.8384 -0.4201
vn 0.8485 0.5043 -0.1606
vn -0.9072 -0.3498 -0.2336
vn 0.5904 -0.7529 0.2907
vn -0.9160 -0.3393 -0.2140
vn 0.9457 0.3231 0.0357
vn -0.9107 -0.3689 -0.1857
vn 0.3811 -0.8826 0.2752
vn 0.8807 0.4695 0.0631
vn 0.3839 -0.8858 0.2608
vn -0.3436 0.8330 -0.4337
vn 0.9583 0.2839 0.0326
vn 0.8732 0.4849 -0.0486
vn 0.3569 -0.8518 0.3836
vn -0.8529 -0.5055 -0.1306
vn 0.8879 0.4597 -0.0195
vn -0.8309 -0.5403 -0.1328
vn -0.7263 -0.6838 -0.0703
vn 0.5295 0.8079 -0.2587
vn -0.9331 -0.3244 -0.1554
vn 0.7498 0.6586 -0.0637
vn -0.6168 0.6834 0.3906
vn -0.3614 0.8579 -0.3653
vn -0.8851 -0.4608 -0.0646
vn -0.3681 0.8667 -0.3366
vn 0.9242 0.3677 0.1036
vn -0.8831 -0.4648 -0.0635
vn -0.9260 -0.3628 -0.1040
vn 0.8840 0.4565 0.1002
vn 0.1985 -0.5882 0.7840
vn 0.9226 0.3719 0.1025
vn 0.8800 0.4711 0.0601
vn -0.9264 -0.3610 -0.1069
vn 0.3614 -0.8579 0.3653
vn -0.0474 0.2945 -0.9545
vn -0.7663 -0.6219 -0.1611
vn 0.9830 0.1839 0.0006
vn -0.0353 0.2698 -0.9623
vn 0.7963 0.5524 -0.2466
vn -0.9240 -0.3764 -0.0670
vn -0.4187 0.8391 0.3473
vn 0.4187 -0.8391 -0.3473
vn -0.2332 0.6512 -0.7222
vn 0.9764 0.2151 0.0172
vn -0.7883 -0.5978 -0.1459
vn 0.1876 -0.5682 0.8012
vn 0.4082 -0.7965 -0.4460
vn 0.9742 0.2244 0.0222
vn -0.7948 -0.5902 -0.1413
vn 0.3142 -0.7882 0.5292
vn -0.0746 0.3494 -0.9340
vn -0.8878 -0.2234 -0.4023
vn 0.3890 -0.7322 -0.5591
vn -0.4244 0.8981 0.1156
vn 0.6608 -0.5834 0.4722
vn 0.2181 0.9283 -0.3012
vn -0.6420 0.6026 -0.4740
vn -0.4913 -0.3939 0.7768
vn -0.0647 0.9586 0.2772
vn -0.2302 -0.8120 -0.5363
vn 0.8735 0.3210 -0.3660
vn 0.9260 0.3508 0.1391
vn -0.6495 -0.1869 -0.7370
vn 0.1923 -0.9147 0.3554
vn -0.3706 0.6002 -0.7088
vn 0.3917 -0.7142 0.5801
vn -0.4063 0.6010 -0.6883
vn -0.8629 -0.4304 0.2648
vn 0.5343 -0.6053 0.5900
vn -0.8687 -0.4351 0.2366
vn 0.8752 0.3091 -0.3721
vn 0.3774 -0.7325 0.5666
vn 0.5813 -0.6455 0.4955
vn -0.8764 -0.3478 0.3329
vn -0.5449 0.5419 -0.6399
vn 0.5804 -0.6303 0.5156
vn -0.5745 0.5132 -0.6376
vn -0.6084 -0.6820 -0.4058
vn 0.5997 0.7911 -0.1204
vn -0.5594 -0.4047 -0.7234
vn 0.3198 0.7268 0.6078
vn -0.9560 0.1507 0.2516
vn 0.8762 0.3615 -0.3187
vn -0.5262 0.6106 -0.5919
vn 0.8752 0.3825 -0.2961
vn 0.4313 -0.6499 0.6257
vn -0.5301 0.6083 -0.5907
vn -0.4268 0.6526 -0.6260
vn 0.5115 -0.5946 0.6203
vn -0.7658 0.0357 0.6421
vn 0.4355 -0.6480 0.6249
vn 0.5367 -0.6057 0.5875
vn -0.4243 0.6520 -0.6284
vn -0.8762 -0.3615 0.3187
vn 0.5572 -0.3165 -0.7677
vn -0.6354 0.4244 -0.6451
vn 0.2952 -0.7935 0.5322
vn 0.5376 -0.3366 -0.7731
vn 0.6946 -0.6521 0.3037
vn -0.4504 0.6642 -0.5966
vn 0.6392 0.7280 0.2478
vn -0.6392 -0.7280 -0.2478
vn 0.8027 0.0380 -0.5951
vn 0.3191 -0.7724 0.5491
vn -0.6197 0.4562 -0.6386
vn -0.7533 0.0578 0.6552
vn -0.5708 -0.7529 -0.3277
vn 0.3261 -0.7660 0.5540
vn -0.6148 0.4658 -0.6365
vn -0.8649 -0.2293 0.4465
vn 0.5997 -0.2700 -0.7533
vn -0.2013 0.5204 -0.8299
vn -0.4785 -0.7713 -0.4196
vn 0.7633 0.6431 0.0619
usemtl Matériau.012
s off
f 83//20 84//20 86//20 85//20
f 90//21 89//21 93//21 94//21
f 89//22 90//22 88//22 87//22
f 105//23 106//23 84//23 83//23
f 103//24 89//24 87//24 105//24
f 104//25 86//25 84//25 106//25
f 94//26 93//26 97//26 98//26
f 103//27 85//27 92//27 107//27
f 104//28 90//28 94//28 108//28
f 85//29 86//29 91//29 92//29
f 110//30 98//30 102//30 112//30
f 107//31 92//31 96//31 109//31
f 108//32 94//32 98//32 110//32
f 92//33 91//33 95//33 96//33
f 101//34 111//34 115//34 118//34
f 96//35 95//35 99//35 100//35
f 98//36 97//36 101//36 102//36
f 109//37 96//37 100//37 111//37
f 97//38 109//38 111//38 101//38
f 100//39 99//39 113//39 114//39
f 91//40 108//40 110//40 95//40
f 93//41 107//41 109//41 97//41
f 95//42 110//42 112//42 99//42
f 86//43 104//43 108//43 91//43
f 89//44 103//44 107//44 93//44
f 90//45 104//45 106//45 88//45
f 85//46 103//46 105//46 83//46
f 87//47 88//47 106//47 105//47
f 117//48 118//48 124//48 123//48
f 113//49 116//49 122//49 119//49
f 102//50 101//50 118//50 117//50
f 111//51 100//51 114//51 115//51
f 99//52 112//52 116//52 113//52
f 112//53 102//53 117//53 116//53
f 124//54 121//54 132//54 131//54
f 120//55 119//55 125//55 126//55
f 115//56 114//56 120//56 121//56
f 118//57 115//57 121//57 124//57
f 116//58 117//58 123//58 122//58
f 114//59 113//59 119//59 120//59
f 128//60 127//60 135//60 136//60
f 119//61 122//61 128//61 125//61
f 121//62 120//62 126//62 127//62
f 122//63 121//63 127//63 128//63
f 131//64 132//64 144//64 143//64
f 122//65 123//65 130//65 129//65
f 123//66 124//66 131//66 130//66
f 121//67 122//67 129//67 132//67
f 136//68 135//68 139//68 140//68
f 127//69 126//69 134//69 135//69
f 125//70 128//70 136//70 133//70
f 126//71 125//71 133//71 134//71
f 138//72 137//72 140//72 139//72
f 135//73 134//73 138//73 139//73
f 133//74 136//74 140//74 137//74
f 134//75 133//75 137//75 138//75
f 144//76 141//76 142//76 143//76
f 129//77 130//77 142//77 141//77
f 132//78 129//78 141//78 144//78
f 130//79 131//79 143//79 142//79
f 145//80 146//80 148//80 147//80
f 152//81 151//81 155//81 156//81
f 151//82 152//82 150//82 149//82
f 167//83 168//83 146//83 145//83
f 165//84 151//84 149//84 167//84
f 166//85 148//85 146//85 168//85
f 156//86 155//86 159//86 160//86
f 165//87 147//87 154//87 169//87
f 166//88 152//88 156//88 170//88
f 147//89 148//89 153//89 154//89
f 172//90 160//90 164//90 174//90
f 169//91 154//91 158//91 171//91
f 170//92 156//92 160//92 172//92
f 154//93 153//93 157//93 158//93
f 163//94 173//94 177//94 180//94
f 158//95 157//95 161//95 162//95
f 160//96 159//96 163//96 164//96
f 171//97 158//97 162//97 173//97
f 159//98 171//98 173//98 163//98
f 162//99 161//99 175//99 176//99
f 153//100 170//100 172//100 157//100
f 155//101 169//101 171//101 159//101
f 157//102 172//102 174//102 161//102
f 148//103 166//103 170//103 153//103
f 151//104 165//104 169//104 155//104
f 152//105 166//105 168//105 150//105
f 147//106 165//106 167//106 145//106
f 149//107 150//107 168//107 167//107
f 179//108 180//108 186//108 185//108
f 175//109 178//109 184//109 181//109
f 164//110 163//110 180//110 179//110
f 173//111 162//111 176//111 177//111
f 161//112 174//112 178//112 175//112
f 174//113 164//113 179//113 178//113
f 186//114 183//114 194//114 193//114
f 182//115 181//115 187//115 188//115
f 177//116 176//116 182//116 183//116
f 180//117 177//117 183//117 186//117
f 178//118 179//118 185//118 184//118
f 176//119 175//119 181//119 182//119
f 190//120 189//120 197//120 198//120
f 181//121 184//121 190//121 187//121
f 183//122 182//122 188//122 189//122
f 184//123 183//123 189//123 190//123
f 193//124 194//124 206//124 205//124
f 184//125 185//125 192//125 191//125
f 185//126 186//126 193//126 192//126
f 183//127 184//127 191//127 194//127
f 198//128 197//128 201//128 202//128
f 189//129 188//129 196//129 197//129
f 187//130 190//130 198//130 195//130
f 188//131 187//131 195//131 196//131
f 200//132 199//132 202//132 201//132
f 197//133 196//133 200//133 201//133
f 195//134 198//134 202//134 199//134
f 196//135 195//135 199//135 200//135
f 206//136 203//136 204//136 205//136
f 191//137 192//137 204//137 203//137
f 194//138 191//138 203//138 206//138
f 192//139 193//139 205//139 204//139
