# Blender v2.91.2 OBJ File: 'camionnete02.blend'
# www.blender.org
mtllib arme_000029.mtl
o Cube.046_Cube.010
v 235.468735 338.662048 -1111.490967
v 178.651657 127.426872 -1084.460938
v 312.561829 292.181885 -1312.675781
v 255.744797 80.946739 -1285.645752
v 36.955353 381.069580 -1197.357910
v -19.861786 169.834412 -1170.327881
v 114.048477 334.589478 -1398.542725
v 57.231354 123.354256 -1371.512695
v 129.326752 402.655914 -834.499268
v 72.509659 191.420776 -807.469177
v -126.003716 233.828308 -893.335999
v -69.186600 445.063477 -920.366089
v 81.290604 431.617432 -709.142212
v 24.473450 220.382233 -682.112305
v -174.039948 262.789764 -767.979126
v -117.222855 474.024963 -795.009155
v 52.912918 448.726562 -635.086975
v 16.477005 292.180359 -627.733215
v -182.036438 334.587952 -713.600098
v -145.600494 491.134155 -720.953857
v 145.886887 392.671661 -877.714966
v 89.069778 181.436554 -850.684998
v -52.626518 435.079254 -963.581970
v -109.443665 223.844116 -936.551880
v 285.345581 308.590820 -1241.651367
v 228.528488 97.355629 -1214.621338
v 86.832214 350.998352 -1327.518311
v 30.015152 139.763214 -1300.488037
v 213.305191 313.385681 -1355.609131
v 156.488052 102.150459 -1328.579346
v 136.212051 359.865845 -1154.424316
v 79.394943 148.630585 -1127.394287
v 30.070068 423.859711 -877.432617
v -26.747032 212.624542 -850.402588
v -17.966125 452.821228 -752.075684
v -68.003571 251.551727 -712.694336
v -46.343758 469.930359 -678.020447
v -73.395584 299.965454 -676.026489
v -10.186958 202.640320 -893.618408
v 46.630157 413.875458 -920.648438
v 129.271805 118.559410 -1257.554688
v 186.088943 329.794617 -1284.584717
v 262.933533 302.783813 -1334.142334
v 129.023300 138.028748 -1105.927734
v 22.881302 202.022644 -828.935913
v -34.539055 244.402832 -698.219299
v -39.931061 292.816528 -661.551331
v 96.258530 403.273590 -899.181702
v 235.717270 319.192749 -1263.118164
v 206.116409 91.548592 -1307.112549
v 185.840378 349.263916 -1132.957764
v 79.698410 413.257843 -855.965942
v 31.662216 442.219299 -730.609009
v 3.284561 459.328430 -656.553711
v 39.441422 192.038452 -872.151733
v 178.900101 107.957527 -1236.088135
v 28.803177 152.487518 -867.090759
v -20.825165 163.089417 -888.557373
v 168.261856 68.406593 -1231.027100
v 118.633560 79.008492 -1252.493896
v 68.756699 109.079689 -1122.333496
v 118.385056 98.477821 -1100.866699
v 339.272156 240.186188 -1161.612549
v 317.217102 253.483337 -1104.056885
v 292.093323 160.077301 -1092.104492
v 314.148254 146.780121 -1149.660156
v 382.169861 231.022156 -1143.057373
v 360.114807 244.319336 -1085.501709
v 334.990906 150.913300 -1073.549316
v 357.045898 137.616119 -1131.104980
v 447.817078 216.998260 -1114.661865
v 425.762024 230.295441 -1057.106201
v 400.638062 136.889404 -1045.153564
v 422.692993 123.592232 -1102.709473
v 490.060120 207.973999 -1096.389648
v 468.005066 221.271179 -1038.833984
v 442.881226 127.865181 -1026.881592
v 464.936157 114.568031 -1084.437256
v 459.382324 -61.147209 -1968.042969
v 409.754028 -50.545341 -1989.509521
v 466.570984 160.689941 -2016.539551
v 516.199402 150.087952 -1995.072998
vn 0.9007 -0.1924 0.3896
vn 0.3498 -0.2109 -0.9128
vn -0.9007 0.1924 -0.3896
vn 0.2578 0.9584 -0.1226
vn -0.2578 -0.9584 0.1226
vn -0.4251 -0.5761 0.6982
vn -0.3390 -0.9331 0.1204
vn -0.4493 0.1172 0.8856
vn -0.9013 0.1922 -0.3883
vn 0.9013 -0.1922 0.3883
vn 0.6760 -0.2696 -0.6858
vn -0.3379 0.0925 0.9366
vn -0.2320 -0.9580 0.1685
vn -0.3830 0.0718 0.9209
vn -0.2802 -0.9424 0.1824
vn -0.3498 0.2109 0.9128
vn 0.0329 0.1182 0.9925
vn 0.2820 -0.9055 0.3172
vn 0.7120 0.6931 0.1127
usemtl Matériau.011
s off
f 25//1 26//1 4//1 3//1
f 29//2 30//2 8//2 7//2
f 27//3 28//3 6//3 5//3
f 22//1 21//1 9//1 10//1
f 42//4 27//4 5//4 31//4
f 56//5 26//5 2//5 44//5
f 10//1 9//1 13//1 14//1
f 55//5 22//5 10//5 45//5
f 23//3 24//3 11//3 12//3
f 46//6 14//6 18//6 47//6
f 45//7 10//7 14//7 46//7
f 12//3 11//3 15//3 16//3
f 33//4 12//4 16//4 35//4
f 54//8 47//8 18//8 17//8
f 16//9 15//9 19//9 20//9
f 14//10 13//10 17//10 18//10
f 5//3 6//3 24//3 23//3
f 44//5 2//5 22//5 55//5
f 31//4 5//4 23//4 40//4
f 2//1 1//1 21//1 22//1
f 50//5 4//5 26//5 56//5
f 29//4 7//4 27//4 42//4
f 7//3 8//3 28//3 27//3
f 26//11 25//11 63//11 66//11
f 43//4 29//4 42//4 49//4
f 8//5 30//5 41//5 28//5
f 51//4 31//4 40//4 48//4
f 6//5 32//5 39//5 24//5
f 20//12 19//12 38//12 37//12
f 52//4 33//4 35//4 53//4
f 11//13 34//13 36//13 15//13
f 15//6 36//6 38//6 19//6
f 24//5 39//5 34//5 11//5
f 28//5 41//5 32//5 6//5
f 49//4 42//4 31//4 51//4
f 30//3 29//3 81//3 80//3
f 3//2 4//2 50//2 43//2
f 25//4 49//4 51//4 1//4
f 9//4 52//4 53//4 13//4
f 1//4 51//4 48//4 21//4
f 3//4 43//4 49//4 25//4
f 30//5 50//5 56//5 41//5
f 32//3 41//3 60//3 61//3
f 37//14 38//14 47//14 54//14
f 34//15 45//15 46//15 36//15
f 36//6 46//6 47//6 38//6
f 39//5 55//5 45//5 34//5
f 55//16 39//16 58//16 57//16
f 61//5 62//5 57//5 58//5
f 60//5 59//5 62//5 61//5
f 39//3 32//3 61//3 58//3
f 44//1 55//1 57//1 62//1
f 41//2 56//2 59//2 60//2
f 56//1 44//1 62//1 59//1
f 66//2 63//2 67//2 70//2
f 1//17 2//17 65//17 64//17
f 2//18 26//18 66//18 65//18
f 25//19 1//19 64//19 63//19
f 69//5 70//5 74//5 73//5
f 64//16 65//16 69//16 68//16
f 65//5 66//5 70//5 69//5
f 63//4 64//4 68//4 67//4
f 73//5 74//5 78//5 77//5
f 67//4 68//4 72//4 71//4
f 70//2 67//2 71//2 74//2
f 68//16 69//16 73//16 72//16
f 76//1 77//1 78//1 75//1
f 71//4 72//4 76//4 75//4
f 74//2 71//2 75//2 78//2
f 82//2 79//2 80//2 81//2
f 50//5 30//5 80//5 79//5
f 43//1 50//1 79//1 82//1
f 29//4 43//4 82//4 81//4
o Cube.048_Cube.024
v -563.803223 468.218475 182.315170
v -727.174316 342.161926 56.548927
v -423.118561 481.472656 -13.719833
v -587.036255 358.218567 -137.558929
v -678.487366 646.482239 39.487049
v -762.252319 581.849487 -24.996841
v -606.354492 653.278076 -61.025612
v -689.614319 589.444458 -125.177254
v -402.085449 433.606171 -436.071655
v -291.455994 477.044983 -392.519073
v -323.098175 594.088501 -428.881195
v -433.727631 550.649780 -472.433868
v -301.930359 419.325043 -627.530640
v -220.593109 451.262207 -595.509705
v -243.857117 537.315247 -622.244141
v -325.194336 505.378082 -654.264893
v -237.967896 412.969391 -747.256409
v -178.527649 436.308655 -723.856018
v -195.528839 499.195068 -743.393066
v -254.968872 475.855865 -766.793457
v -483.253113 587.283508 -27.155449
v -656.278076 456.873077 -158.679047
v -632.708740 573.151733 180.955353
v -806.147278 439.327148 47.439018
v -301.536072 535.981384 -414.361389
v -418.982880 489.865814 -460.597626
v -221.859131 492.159637 -624.750488
v -308.208710 458.254456 -658.744507
v -173.877136 463.987549 -757.185364
v -236.980164 439.209991 -782.027771
v -197.884277 394.171387 -830.325317
v -138.443970 417.510590 -806.924988
v -131.141235 448.886780 -850.678955
v -194.244263 424.109192 -875.521362
v -212.640747 460.186768 -858.684814
v -153.200500 483.526001 -835.284363
v -169.409363 381.896912 -890.413147
v -109.969177 405.236176 -867.012756
v -102.666321 436.612305 -910.766907
v -165.769348 411.834839 -935.609253
v -184.165771 447.912323 -918.772522
v -124.725647 471.251526 -895.372131
v -135.295715 355.915771 -915.934875
v -97.036743 370.938232 -900.873047
v -92.336243 391.133606 -929.035583
v -132.952881 375.185455 -945.025513
v -157.326965 438.610718 -983.759949
v -175.723450 474.688202 -966.923279
v -116.283264 498.027466 -943.522888
v -94.223938 463.388214 -958.917542
v -112.967346 337.070129 -933.128479
v -87.174133 347.197876 -922.974182
v -84.005249 360.813019 -941.960754
v -111.387756 350.061218 -952.740662
v -92.528503 327.136047 -959.073669
v -76.404968 333.467041 -952.726135
v -74.423950 341.977997 -964.594788
v -91.541077 335.256897 -971.333679
v -145.595032 463.112488 -1002.840393
v -157.827026 487.100891 -991.645447
v -118.304504 502.619385 -976.086243
v -103.636902 479.587341 -986.322571
v -302.370605 578.414429 388.366272
v -297.394440 341.928680 338.895844
v -150.205139 623.720215 197.129486
v -153.860474 384.624847 149.231415
v -460.535217 556.678223 188.762146
v -457.983826 435.425385 163.397278
v -384.085968 582.209351 91.909416
v -384.389954 457.316864 66.151001
v -1.834167 435.752075 -195.272552
v 62.238098 545.995911 -192.626190
v -32.498474 602.695862 -254.382904
v -96.412170 493.042786 -256.879425
v 85.835144 406.862915 -391.157715
v 133.332336 486.880798 -389.662964
v 63.796387 529.002197 -434.957672
v 16.299255 448.984283 -436.452576
v 140.228210 391.454437 -514.729004
v 174.938538 449.930450 -513.636536
v 124.122620 480.712189 -546.737305
v 89.412415 422.236267 -547.829895
v -257.331635 643.876282 143.194855
v -261.788574 386.832642 91.449577
v -419.450348 592.564026 345.320709
v -414.167572 341.505371 292.801758
v 19.852478 575.262634 -228.868439
v -48.730896 459.721039 -231.026947
v 108.057617 505.948303 -428.737640
v 57.633545 420.999573 -430.324554
v 162.164551 460.701782 -553.878235
v 125.315247 398.622375 -555.037903
v 182.919128 367.616577 -595.163818
v 217.629272 426.092590 -594.071106
v 204.736816 437.146729 -645.683228
v 167.887634 375.067291 -646.843018
v 132.002991 398.637604 -637.887207
v 166.713257 457.113586 -636.794800
v 212.602966 351.088806 -653.624878
v 247.313293 409.564819 -652.532471
v 234.420959 420.618927 -704.144714
v 197.571777 358.539490 -705.304504
v 161.687073 382.109833 -696.348511
v 196.397339 440.585846 -695.256104
v 255.222107 340.325562 -677.244507
v 277.563721 377.963959 -676.541443
v 269.265442 385.078857 -709.761841
v 245.547241 345.121185 -710.508179
v 188.256165 365.088440 -759.866760
v 152.371338 388.658875 -750.910889
v 187.081665 447.134827 -749.818420
v 225.105225 427.167877 -758.706909
v 284.191223 331.711456 -692.604309
v 299.253296 357.086121 -692.130188
v 293.658936 361.882782 -714.526733
v 277.668701 334.944458 -715.029907
v 306.322571 325.483337 -718.314453
v 315.737915 341.345459 -718.018005
v 312.240784 344.343964 -732.018127
v 302.245178 327.504425 -732.332703
v 183.219299 382.665131 -787.574768
v 159.359131 398.337433 -781.619934
v 182.438293 437.218781 -780.893250
v 207.720703 423.942627 -786.803528
vn 0.4513 -0.8534 0.2607
vn -0.2989 0.8889 -0.3472
vn -0.4516 0.8521 -0.2646
vn -0.4414 -0.2788 0.8529
vn 0.3749 0.8671 0.3280
vn -0.6438 -0.5667 -0.5141
vn -0.2169 0.9091 -0.3558
vn 0.8468 0.4284 0.3153
vn -0.7901 -0.1293 -0.5991
vn 0.4594 -0.8797 0.1226
vn -0.8525 -0.2476 -0.4604
vn 0.9217 0.2546 0.2928
vn -0.8547 -0.2811 -0.4364
vn 0.2816 -0.9347 0.2170
vn 0.8565 0.3995 0.3267
vn 0.2875 -0.9360 0.2033
vn -0.2103 0.9054 -0.3688
vn 0.9335 0.2155 0.2867
vn 0.8753 0.4308 0.2198
vn 0.2341 -0.9178 0.3207
vn -0.8151 -0.4274 -0.3910
vn 0.8821 0.4009 0.2473
vn -0.7943 -0.4629 -0.3935
vn -0.6495 -0.5236 -0.5513
vn 0.5826 0.7748 0.2454
vn -0.8059 -0.0525 -0.5897
vn 0.7026 0.4679 0.5361
vn -0.7368 0.4726 0.4834
vn -0.2425 0.9216 -0.3032
vn -0.8603 -0.3904 -0.3279
vn -0.2554 0.9267 -0.2756
vn 0.8865 0.2905 0.3601
vn -0.8587 -0.3947 -0.3270
vn -0.8881 -0.2855 -0.3601
vn 0.8509 0.3813 0.3613
vn -0.0037 -0.7033 0.7109
vn 0.8854 0.2950 0.3593
vn 0.8566 0.4016 0.3239
vn -0.8877 -0.2834 -0.3628
vn 0.2425 -0.9216 0.3032
vn 0.1809 0.4273 -0.8858
vn -0.7274 -0.5437 -0.4187
vn 0.9618 0.1195 0.2463
vn 0.1937 0.4033 -0.8943
vn 0.8477 0.5300 0.0221
vn -0.8950 -0.3042 -0.3261
vn -0.4617 0.8071 0.3679
vn 0.4617 -0.8071 -0.3679
vn -0.0423 0.7591 -0.6496
vn 0.9526 0.1486 0.2655
vn -0.7515 -0.5206 -0.4053
vn -0.0176 -0.6852 0.7281
vn 0.4754 -0.7506 -0.4589
vn 0.9496 0.1572 0.2712
vn -0.7587 -0.5133 -0.4011
vn 0.1611 -0.8726 0.4611
vn 0.1515 0.4804 -0.8639
vn -0.7786 -0.1085 -0.6181
vn 0.4845 -0.6700 -0.5625
vn -0.4126 0.8981 0.1523
vn 0.7974 -0.1189 0.5916
vn -0.7070 0.2722 -0.6527
vn -0.7993 0.1152 -0.5898
vn -0.3592 -0.1983 0.9119
vn -0.4104 0.9070 -0.0943
vn 0.0700 -0.9832 -0.1684
vn -0.7126 0.4302 -0.5542
vn 0.3062 0.9519 0.0140
vn -0.3732 -0.8231 -0.4281
vn 0.8680 -0.2318 0.4392
vn -0.5501 -0.8201 -0.1574
vn 0.5961 0.8026 -0.0205
vn -0.5320 -0.8375 -0.1246
vn 0.7792 -0.4660 0.4192
vn 0.4630 0.8862 -0.0129
vn 0.7834 -0.4725 0.4037
vn -0.7046 0.4288 -0.5655
vn 0.6328 0.7742 -0.0123
vn 0.4588 0.8796 -0.1256
vn 0.7306 -0.4434 0.5192
vn -0.4138 -0.9091 -0.0476
vn 0.4847 0.8698 -0.0919
vn -0.3761 -0.9255 -0.0441
vn -0.0417 -0.9779 -0.2047
vn -0.1156 0.9792 -0.1668
vn -0.3689 -0.8071 -0.4609
vn 0.0335 0.9641 0.2636
vn -0.9600 -0.0766 0.2695
vn -0.7395 0.4483 -0.5022
vn -0.4714 -0.8819 0.0100
vn -0.7526 0.4556 -0.4753
vn 0.5515 0.8330 0.0438
vn -0.4676 -0.8839 0.0117
vn -0.5558 -0.8301 -0.0450
vn 0.4695 0.8826 0.0258
vn 0.4160 -0.2632 0.8705
vn 0.5480 0.8354 0.0420
vn 0.4619 0.8868 -0.0162
vn -0.5567 -0.8293 -0.0482
vn 0.7395 -0.4483 0.5022
vn -0.1124 0.0852 -0.9900
vn -0.2748 -0.9597 -0.0584
vn 0.7116 0.7020 -0.0274
vn -0.0880 0.0708 -0.9936
vn 0.3765 0.8648 -0.3322
vn -0.5501 -0.8351 -0.0063
vn -0.8436 0.4969 0.2037
vn 0.8436 -0.4969 -0.2037
vn -0.4854 0.3034 -0.8199
vn 0.6873 0.7261 -0.0162
vn -0.3078 -0.9503 -0.0475
vn 0.3943 -0.2506 0.8842
vn 0.8206 -0.4813 -0.3081
vn 0.6799 0.7332 -0.0128
vn -0.3178 -0.9471 -0.0441
vn 0.6464 -0.3959 0.6523
vn -0.1671 0.1175 -0.9789
vn -0.5732 -0.7351 -0.3621
vn 0.7798 -0.4548 -0.4303
vn -0.8591 0.5106 -0.0346
usemtl Matériau.012
s off
f 83//20 84//20 86//20 85//20
f 90//21 89//21 93//21 94//21
f 89//22 90//22 88//22 87//22
f 105//23 106//23 84//23 83//23
f 103//24 89//24 87//24 105//24
f 104//25 86//25 84//25 106//25
f 94//26 93//26 97//26 98//26
f 103//27 85//27 92//27 107//27
f 104//28 90//28 94//28 108//28
f 85//29 86//29 91//29 92//29
f 110//30 98//30 102//30 112//30
f 107//31 92//31 96//31 109//31
f 108//32 94//32 98//32 110//32
f 92//33 91//33 95//33 96//33
f 101//34 111//34 115//34 118//34
f 96//35 95//35 99//35 100//35
f 98//36 97//36 101//36 102//36
f 109//37 96//37 100//37 111//37
f 97//38 109//38 111//38 101//38
f 100//39 99//39 113//39 114//39
f 91//40 108//40 110//40 95//40
f 93//41 107//41 109//41 97//41
f 95//42 110//42 112//42 99//42
f 86//43 104//43 108//43 91//43
f 89//44 103//44 107//44 93//44
f 90//45 104//45 106//45 88//45
f 85//46 103//46 105//46 83//46
f 87//47 88//47 106//47 105//47
f 117//48 118//48 124//48 123//48
f 113//49 116//49 122//49 119//49
f 102//50 101//50 118//50 117//50
f 111//51 100//51 114//51 115//51
f 99//52 112//52 116//52 113//52
f 112//53 102//53 117//53 116//53
f 124//54 121//54 132//54 131//54
f 120//55 119//55 125//55 126//55
f 115//56 114//56 120//56 121//56
f 118//57 115//57 121//57 124//57
f 116//58 117//58 123//58 122//58
f 114//59 113//59 119//59 120//59
f 128//60 127//60 135//60 136//60
f 119//61 122//61 128//61 125//61
f 121//62 120//62 126//62 127//62
f 122//63 121//63 127//63 128//63
f 131//64 132//64 144//64 143//64
f 122//65 123//65 130//65 129//65
f 123//66 124//66 131//66 130//66
f 121//67 122//67 129//67 132//67
f 136//68 135//68 139//68 140//68
f 127//69 126//69 134//69 135//69
f 125//70 128//70 136//70 133//70
f 126//71 125//71 133//71 134//71
f 138//72 137//72 140//72 139//72
f 135//73 134//73 138//73 139//73
f 133//74 136//74 140//74 137//74
f 134//75 133//75 137//75 138//75
f 144//76 141//76 142//76 143//76
f 129//77 130//77 142//77 141//77
f 132//78 129//78 141//78 144//78
f 130//79 131//79 143//79 142//79
f 145//80 146//80 148//80 147//80
f 152//81 151//81 155//81 156//81
f 151//82 152//82 150//82 149//82
f 167//83 168//83 146//83 145//83
f 165//84 151//84 149//84 167//84
f 166//85 148//85 146//85 168//85
f 156//86 155//86 159//86 160//86
f 165//87 147//87 154//87 169//87
f 166//88 152//88 156//88 170//88
f 147//89 148//89 153//89 154//89
f 172//90 160//90 164//90 174//90
f 169//91 154//91 158//91 171//91
f 170//92 156//92 160//92 172//92
f 154//93 153//93 157//93 158//93
f 163//94 173//94 177//94 180//94
f 158//95 157//95 161//95 162//95
f 160//96 159//96 163//96 164//96
f 171//97 158//97 162//97 173//97
f 159//98 171//98 173//98 163//98
f 162//99 161//99 175//99 176//99
f 153//100 170//100 172//100 157//100
f 155//101 169//101 171//101 159//101
f 157//102 172//102 174//102 161//102
f 148//103 166//103 170//103 153//103
f 151//104 165//104 169//104 155//104
f 152//105 166//105 168//105 150//105
f 147//106 165//106 167//106 145//106
f 149//107 150//107 168//107 167//107
f 179//108 180//108 186//108 185//108
f 175//109 178//109 184//109 181//109
f 164//110 163//110 180//110 179//110
f 173//111 162//111 176//111 177//111
f 161//112 174//112 178//112 175//112
f 174//113 164//113 179//113 178//113
f 186//114 183//114 194//114 193//114
f 182//115 181//115 187//115 188//115
f 177//116 176//116 182//116 183//116
f 180//117 177//117 183//117 186//117
f 178//118 179//118 185//118 184//118
f 176//119 175//119 181//119 182//119
f 190//120 189//120 197//120 198//120
f 181//121 184//121 190//121 187//121
f 183//122 182//122 188//122 189//122
f 184//123 183//123 189//123 190//123
f 193//124 194//124 206//124 205//124
f 184//125 185//125 192//125 191//125
f 185//126 186//126 193//126 192//126
f 183//127 184//127 191//127 194//127
f 198//128 197//128 201//128 202//128
f 189//129 188//129 196//129 197//129
f 187//130 190//130 198//130 195//130
f 188//131 187//131 195//131 196//131
f 200//132 199//132 202//132 201//132
f 197//133 196//133 200//133 201//133
f 195//134 198//134 202//134 199//134
f 196//135 195//135 199//135 200//135
f 206//136 203//136 204//136 205//136
f 191//137 192//137 204//137 203//137
f 194//138 191//138 203//138 206//138
f 192//139 193//139 205//139 204//139
