# Blender v2.91.2 OBJ File: 'camionnete02.blend'
# www.blender.org
mtllib arme_000059.mtl
o Cube.046_Cube.010
v 366.649200 252.283890 -1021.327881
v 367.915314 31.880798 -1021.274902
v 485.270447 252.920670 -1207.090332
v 486.536560 32.517593 -1207.037476
v 180.889954 251.188309 -1139.950806
v 182.156021 30.785202 -1139.897827
v 299.511169 251.825119 -1325.713257
v 300.777283 31.421997 -1325.660400
v 203.331253 251.407120 -765.569702
v 204.597351 31.004074 -765.516724
v 18.838100 29.908478 -884.139648
v 17.572010 250.311569 -884.192566
v 129.419189 251.010361 -649.822205
v 130.685272 30.607269 -649.769348
v -55.074036 29.511673 -768.392212
v -56.340126 249.914780 -768.445190
v 85.755219 250.775955 -581.443909
v 94.114136 90.492157 -592.739990
v -91.645210 89.396591 -711.362915
v -100.004105 249.680405 -700.066772
v 128.156982 470.732056 -649.875061
v -57.602276 469.636475 -768.498047
v 84.493050 470.497681 -581.496704
v -101.266228 469.402100 -700.119629
v 228.811874 251.543900 -805.472656
v 230.077972 31.140854 -805.419739
v 43.052601 250.448349 -924.095581
v 44.318665 30.045258 -924.042664
v 202.913315 324.163818 -765.587158
v 17.154047 323.068298 -884.210144
v 228.393921 324.300598 -805.490112
v 42.634636 323.205017 -924.112976
v 202.306976 429.721924 -765.612549
v 16.547697 428.626343 -884.235352
v 227.787537 429.858704 -805.515503
v 42.028301 428.763123 -924.138367
v 130.671768 323.776001 -652.455811
v -55.087540 322.680420 -771.078735
v 130.065384 429.334167 -652.481140
v -55.693905 428.238525 -771.104065
v 154.939651 607.663635 -693.080322
v -30.819626 606.568054 -811.703308
v 111.275681 607.429260 -624.702026
v -74.483551 606.333618 -743.324890
v 443.393463 252.695877 -1141.510498
v 444.659576 32.292786 -1141.457642
v 257.634186 251.600296 -1260.133301
v 258.900299 31.197189 -1260.080444
v 392.390808 252.372910 -1266.401855
v 393.656921 31.969788 -1266.348999
v 273.769592 251.736099 -1080.639404
v 275.035675 31.333008 -1080.586426
v 110.451637 250.859329 -824.881104
v 111.717712 30.456268 -824.828125
v 36.539539 250.462601 -709.133728
v 37.805614 30.059479 -709.080811
v -7.124417 250.228165 -640.755371
v 1.234482 89.944382 -652.051453
v 35.277336 470.184326 -709.186462
v -8.386593 469.949890 -640.808167
v 137.198318 30.593063 -864.731140
v 135.932236 250.996109 -864.784119
v 110.033684 323.616089 -824.898682
v 135.514282 323.752808 -864.801514
v 109.427338 429.174194 -824.923950
v 134.907928 429.310913 -864.826965
v 37.792110 323.228271 -711.767334
v 37.185745 428.786377 -711.792603
v 62.059998 607.115906 -752.391846
v 18.396044 606.881409 -684.013489
v 351.779907 31.744995 -1200.769043
v 350.513824 252.148087 -1200.821899
v 438.830627 252.646774 -1236.745972
v 321.475494 31.606903 -1050.930664
v 158.157532 30.730179 -795.172485
v 84.245422 30.333374 -679.425110
v 47.674301 90.218262 -622.395752
v 182.372055 251.270004 -835.128357
v 181.954102 324.026672 -835.145813
v 181.347733 429.584778 -835.171204
v 396.953674 252.421982 -1171.166260
v 440.096741 32.243698 -1236.693237
v 320.209381 252.009995 -1050.983765
v 156.891449 251.133224 -795.225464
v 82.979347 250.736465 -679.477966
v 39.315388 250.502060 -611.099609
v 81.717178 470.458191 -679.530762
v 38.053242 470.223755 -611.152466
v 183.638153 30.866959 -835.075439
v 156.473511 323.889954 -795.242920
v 155.867142 429.448059 -795.268250
v 84.231934 323.502136 -682.111572
v 83.625565 429.060242 -682.136841
v 108.499847 607.389771 -722.736023
v 64.835876 607.155273 -654.357727
v 398.219727 32.018890 -1171.113403
v 183.875214 -10.400505 -835.065552
v 137.435379 -10.674423 -864.721252
v 398.456787 -9.248581 -1171.103516
v 352.016998 -9.522491 -1200.759155
v 275.272736 -9.934479 -1080.576538
v 321.712555 -9.660568 -1050.920776
v 500.649750 191.571243 -1057.970215
v 466.714203 191.389053 -1004.826721
v 467.274170 93.929077 -1004.803162
v 501.209625 94.111252 -1057.946899
v 540.791382 191.808029 -1032.336548
v 506.855865 191.625839 -979.192993
v 507.415771 94.165863 -979.169556
v 541.351257 94.348022 -1032.313110
v 602.220886 192.170334 -993.108826
v 568.285339 191.988144 -939.965210
v 568.845215 94.528198 -939.941772
v 602.780701 94.710373 -993.085449
v 641.749939 192.403488 -967.866211
v 607.814392 192.221298 -914.722656
v 608.374390 94.761322 -914.699219
v 642.309814 94.943497 -967.842773
v 829.790344 34.335983 -1846.958008
v 783.350525 34.062088 -1876.613770
v 782.084290 254.465195 -1876.666748
v 828.524231 254.739090 -1847.010986
vn 0.8428 0.0050 0.5382
vn 0.5382 0.0029 -0.8428
vn -0.8428 -0.0050 -0.5382
vn -0.0057 1.0000 -0.0002
vn 0.0057 -1.0000 0.0002
vn -0.5382 -0.0029 0.8428
vn -0.3533 -0.7492 0.5602
vn -0.5358 -0.0871 0.8398
vn -0.8435 -0.0055 -0.5371
vn 0.8435 0.0055 0.5371
vn 0.5060 -0.3480 -0.7892
vn -0.5060 0.3480 0.7892
vn 0.8264 0.0046 -0.5630
vn -0.1631 -0.0007 0.9866
vn 0.4698 -0.8312 0.2972
vn 0.4602 0.8367 0.2968
usemtl Matériau.011
s off
f 45//1 46//1 4//1 3//1
f 49//2 50//2 8//2 7//2
f 47//3 48//3 6//3 5//3
f 26//1 25//1 9//1 10//1
f 72//4 47//4 5//4 51//4
f 96//5 46//5 2//5 74//5
f 10//1 9//1 13//1 14//1
f 84//6 9//6 29//6 90//6
f 89//5 26//5 10//5 75//5
f 27//3 28//3 11//3 12//3
f 76//7 14//7 18//7 77//7
f 75//5 10//5 14//5 76//5
f 12//3 11//3 15//3 16//3
f 53//4 12//4 16//4 55//4
f 86//8 77//8 18//8 17//8
f 16//9 15//9 19//9 20//9
f 16//3 20//3 24//3 22//3
f 14//10 13//10 17//10 18//10
f 59//11 22//11 42//11 69//11
f 86//6 17//6 23//6 88//6
f 17//1 13//1 21//1 23//1
f 55//2 16//2 22//2 59//2
f 5//3 6//3 28//3 27//3
f 74//5 2//5 26//5 89//5
f 51//4 5//4 27//4 62//4
f 2//1 1//1 25//1 26//1
f 32//3 30//3 34//3 36//3
f 62//2 27//2 32//2 64//2
f 27//3 12//3 30//3 32//3
f 9//1 25//1 31//1 29//1
f 66//4 36//4 34//4 65//4
f 90//5 29//5 37//5 92//5
f 64//2 32//2 36//2 66//2
f 29//1 31//1 35//1 33//1
f 92//6 37//6 39//6 93//6
f 29//1 33//1 39//1 37//1
f 34//3 30//3 38//3 40//3
f 65//4 34//4 40//4 68//4
f 69//4 42//4 44//4 70//4
f 23//1 21//1 41//1 43//1
f 88//12 23//12 43//12 95//12
f 22//3 24//3 44//3 42//3
f 82//5 4//5 46//5 96//5
f 49//4 7//4 47//4 72//4
f 7//3 8//3 48//3 47//3
f 46//13 45//13 103//13 106//13
f 73//4 49//4 72//4 81//4
f 8//5 50//5 71//5 48//5
f 24//12 60//12 70//12 44//12
f 94//4 69//4 70//4 95//4
f 91//4 65//4 68//4 93//4
f 38//6 67//6 68//6 40//6
f 79//2 64//2 66//2 80//2
f 30//5 63//5 67//5 38//5
f 80//4 66//4 65//4 91//4
f 78//2 62//2 64//2 79//2
f 83//4 51//4 62//4 78//4
f 6//5 52//5 61//5 28//5
f 85//2 55//2 59//2 87//2
f 20//6 57//6 60//6 24//6
f 87//11 59//11 69//11 94//11
f 20//8 19//8 58//8 57//8
f 84//4 53//4 55//4 85//4
f 11//5 54//5 56//5 15//5
f 15//7 56//7 58//7 19//7
f 28//5 61//5 54//5 11//5
f 12//6 53//6 63//6 30//6
f 48//5 71//5 52//5 6//5
f 81//4 72//4 51//4 83//4
f 50//3 49//3 121//3 120//3
f 3//2 4//2 82//2 73//2
f 45//4 81//4 83//4 1//4
f 9//4 84//4 85//4 13//4
f 21//11 87//11 94//11 41//11
f 13//2 85//2 87//2 21//2
f 1//4 83//4 78//4 25//4
f 25//2 78//2 79//2 31//2
f 35//4 80//4 91//4 33//4
f 31//2 79//2 80//2 35//2
f 33//4 91//4 93//4 39//4
f 41//4 94//4 95//4 43//4
f 3//4 73//4 81//4 45//4
f 50//5 82//5 96//5 71//5
f 60//12 88//12 95//12 70//12
f 67//6 92//6 93//6 68//6
f 63//5 90//5 92//5 67//5
f 52//3 71//3 100//3 101//3
f 57//6 86//6 88//6 60//6
f 57//8 58//8 77//8 86//8
f 54//5 75//5 76//5 56//5
f 56//7 76//7 77//7 58//7
f 61//5 89//5 75//5 54//5
f 53//6 84//6 90//6 63//6
f 89//6 61//6 98//6 97//6
f 101//5 102//5 97//5 98//5
f 100//5 99//5 102//5 101//5
f 61//3 52//3 101//3 98//3
f 74//1 89//1 97//1 102//1
f 71//2 96//2 99//2 100//2
f 96//1 74//1 102//1 99//1
f 106//2 103//2 107//2 110//2
f 1//14 2//14 105//14 104//14
f 2//15 46//15 106//15 105//15
f 45//16 1//16 104//16 103//16
f 109//5 110//5 114//5 113//5
f 104//6 105//6 109//6 108//6
f 105//5 106//5 110//5 109//5
f 103//4 104//4 108//4 107//4
f 113//5 114//5 118//5 117//5
f 107//4 108//4 112//4 111//4
f 110//2 107//2 111//2 114//2
f 108//6 109//6 113//6 112//6
f 116//1 117//1 118//1 115//1
f 111//4 112//4 116//4 115//4
f 114//2 111//2 115//2 118//2
f 122//2 119//2 120//2 121//2
f 82//5 50//5 120//5 119//5
f 73//1 82//1 119//1 122//1
f 49//4 73//4 122//4 121//4
o Cube.047_Cube.022
v -251.594040 443.551697 290.256073
v -250.174011 205.015961 251.574524
v -134.188354 478.042664 81.872154
v -132.768341 239.506927 43.190613
v -433.858093 411.407501 113.969566
v -433.130005 289.103577 94.136459
v -373.660889 429.091980 7.125305
v -372.932800 306.788055 -12.707809
v 5.517059 355.982849 -310.543579
v 4.773224 480.929047 -290.281982
v -105.861816 490.131500 -351.091797
v -105.118011 365.185303 -371.353394
v 95.345398 404.463867 -501.519958
v 94.798523 496.327087 -486.623230
v 13.457123 503.092957 -531.331970
v 14.003998 411.229706 -546.228699
v 149.779388 436.969574 -621.712158
v 149.379730 504.102020 -610.825806
v 89.936493 509.046417 -643.498413
v 90.336151 441.913971 -654.384766
v -248.761505 491.555389 40.853905
v -247.253983 238.320374 -0.211311
v -373.402100 454.938965 262.079132
v -371.894592 201.703949 221.013916
v -47.848053 490.178864 -324.888794
v -47.058411 357.533112 -346.398987
v 63.274292 505.232422 -524.782593
v 63.854858 407.708282 -540.597290
v 132.842743 512.519653 -650.249939
v 133.266998 441.250244 -661.807190
v 198.572235 450.137787 -701.124756
v 198.172577 517.270264 -690.238403
v 181.377594 527.506592 -740.887756
v 181.801849 456.237244 -752.445007
v 138.910706 456.621399 -743.297058
v 138.511047 523.753845 -732.410706
v 232.472534 459.699341 -758.843079
v 232.072876 526.831787 -747.956726
v 215.277832 537.068176 -798.606079
v 215.702148 465.798828 -810.163330
v 172.810944 466.182922 -801.015442
v 172.411285 533.315369 -790.129089
v 274.518372 475.724365 -780.417603
v 274.261169 518.934448 -773.410522
v 263.450989 525.523193 -806.011292
v 263.724060 479.650299 -813.450134
v 204.291351 474.465698 -864.027893
v 161.400208 474.849823 -854.879944
v 161.000549 541.982300 -843.993591
v 203.867096 545.735046 -852.470642
v 303.767700 485.416016 -794.555725
v 303.594238 514.547119 -789.831726
v 296.306396 518.989014 -811.810303
v 296.490479 488.062805 -816.825317
v 325.917847 495.134399 -819.142456
v 325.809387 513.344604 -816.189453
v 321.253662 516.121277 -829.928528
v 321.368713 496.788940 -833.063477
v 190.888275 490.793793 -889.636292
v 162.369385 491.049194 -883.553711
v 162.103638 535.686401 -876.315186
v 190.606171 538.181702 -881.951782
vn 0.8740 -0.0727 0.4804
vn -0.8050 0.0903 -0.5864
vn -0.8740 0.0727 -0.4804
vn -0.2365 -0.1569 0.9589
vn -0.4257 0.9003 -0.0908
vn 0.0596 -0.9897 -0.1302
vn -0.8337 0.0836 -0.5459
vn 0.1111 0.9924 0.0532
vn -0.2785 -0.8711 -0.4044
vn 0.9357 -0.0510 0.3490
vn -0.0488 -0.9533 -0.2979
vn 0.1024 0.9865 0.1278
vn -0.0243 -0.9636 -0.2663
vn 0.9091 -0.0614 0.4120
vn -0.0601 0.9895 0.1312
vn 0.9153 -0.0592 0.3985
vn -0.8253 0.0856 -0.5582
vn 0.1432 0.9811 0.1304
vn -0.0604 0.9980 0.0185
vn 0.8551 -0.0780 0.5125
vn 0.1140 -0.9751 -0.1903
vn -0.0360 0.9980 0.0518
vn 0.1548 -0.9703 -0.1861
vn 0.1227 -0.9570 -0.2629
vn -0.2893 0.9510 -0.1089
vn -0.4154 -0.8303 -0.3715
vn 0.0479 0.9807 0.1893
vn -0.9163 -0.0694 0.3944
vn -0.8652 0.0752 -0.4957
vn 0.0507 -0.9897 -0.1342
vn -0.8803 0.0708 -0.4692
vn 0.0432 0.9814 0.1872
vn 0.0550 -0.9897 -0.1324
vn -0.0483 -0.9809 -0.1884
vn -0.0526 0.9841 0.1695
vn 0.4929 -0.1364 0.8593
vn 0.0389 0.9819 0.1855
vn -0.0614 0.9899 0.1279
vn -0.0496 -0.9802 -0.1915
vn 0.8652 -0.0752 0.4957
vn -0.1412 0.1576 -0.9774
vn 0.2592 -0.9455 -0.1971
vn 0.2479 0.9623 0.1123
vn -0.1128 0.1584 -0.9809
vn -0.1235 0.9732 -0.1938
vn -0.0409 -0.9878 -0.1503
vn -0.9788 -0.0384 0.2012
vn 0.9788 0.0384 -0.2012
vn -0.5732 0.1278 -0.8094
vn 0.2146 0.9687 0.1246
vn 0.2261 -0.9559 -0.1875
vn 0.4679 -0.1388 0.8728
vn 0.9510 0.0550 -0.3042
vn 0.2047 0.9704 0.1282
vn 0.2159 -0.9588 -0.1845
vn 0.7586 -0.0999 0.6439
vn -0.2047 0.1555 -0.9664
vn -0.1126 -0.8635 -0.4916
vn 0.9022 0.0743 -0.4249
vn -0.9994 -0.0004 -0.0340
usemtl Matériau.012
s off
f 123//17 124//17 126//17 125//17
f 130//18 129//18 133//18 134//18
f 129//19 130//19 128//19 127//19
f 145//20 146//20 124//20 123//20
f 143//21 129//21 127//21 145//21
f 144//22 126//22 124//22 146//22
f 134//23 133//23 137//23 138//23
f 143//24 125//24 132//24 147//24
f 144//25 130//25 134//25 148//25
f 125//26 126//26 131//26 132//26
f 150//27 138//27 142//27 152//27
f 147//28 132//28 136//28 149//28
f 148//29 134//29 138//29 150//29
f 132//30 131//30 135//30 136//30
f 141//31 151//31 155//31 158//31
f 136//32 135//32 139//32 140//32
f 138//33 137//33 141//33 142//33
f 149//34 136//34 140//34 151//34
f 137//35 149//35 151//35 141//35
f 140//36 139//36 153//36 154//36
f 131//37 148//37 150//37 135//37
f 133//38 147//38 149//38 137//38
f 135//39 150//39 152//39 139//39
f 126//40 144//40 148//40 131//40
f 129//41 143//41 147//41 133//41
f 130//42 144//42 146//42 128//42
f 125//43 143//43 145//43 123//43
f 127//44 128//44 146//44 145//44
f 157//45 158//45 164//45 163//45
f 153//46 156//46 162//46 159//46
f 142//47 141//47 158//47 157//47
f 151//48 140//48 154//48 155//48
f 139//49 152//49 156//49 153//49
f 152//50 142//50 157//50 156//50
f 164//51 161//51 172//51 171//51
f 160//52 159//52 165//52 166//52
f 155//53 154//53 160//53 161//53
f 158//54 155//54 161//54 164//54
f 156//55 157//55 163//55 162//55
f 154//56 153//56 159//56 160//56
f 168//57 167//57 175//57 176//57
f 159//58 162//58 168//58 165//58
f 161//59 160//59 166//59 167//59
f 162//60 161//60 167//60 168//60
f 171//61 172//61 184//61 183//61
f 162//62 163//62 170//62 169//62
f 163//63 164//63 171//63 170//63
f 161//64 162//64 169//64 172//64
f 176//65 175//65 179//65 180//65
f 167//66 166//66 174//66 175//66
f 165//67 168//67 176//67 173//67
f 166//68 165//68 173//68 174//68
f 178//69 177//69 180//69 179//69
f 175//70 174//70 178//70 179//70
f 173//71 176//71 180//71 177//71
f 174//72 173//72 177//72 178//72
f 184//73 181//73 182//73 183//73
f 169//74 170//74 182//74 181//74
f 172//75 169//75 181//75 184//75
f 170//76 171//76 183//76 182//76
o Cube.048_Cube.024
v -529.571228 328.927948 103.818596
v -693.291016 214.400391 -32.110981
v -387.929260 356.511749 -90.022209
v -551.649048 241.984192 -225.951782
v -642.332458 518.743347 -24.965675
v -726.276184 460.021881 -94.660576
v -569.708679 532.886353 -124.353287
v -653.652344 474.164856 -194.048187
v -310.324341 363.875153 -517.022888
v -224.567139 423.865234 -445.822296
v -280.814514 534.387024 -471.195587
v -366.571716 474.396912 -542.396179
v -180.256592 411.017975 -683.610596
v -117.205933 455.124054 -631.262329
v -158.560242 536.382141 -649.917297
v -221.610901 492.276093 -702.265564
v -98.367065 443.271484 -787.146423
v -52.290527 475.503601 -748.890991
v -82.511719 534.885986 -762.523865
v -128.588257 502.653870 -800.779297
v -447.340027 463.443298 -95.323235
v -621.148743 341.858246 -239.629211
v -597.710449 434.159698 110.462685
v -771.519165 312.574646 -33.843288
v -246.768036 481.613342 -460.804565
v -337.809906 417.926514 -536.392761
v -124.885498 499.264954 -654.105774
v -191.821533 452.440918 -709.679871
v -50.060242 509.288452 -776.317261
v -98.976135 475.070068 -816.930115
v -41.660828 450.918396 -861.888855
v 4.415710 483.150543 -823.633423
v 9.843018 523.076477 -860.084534
v -39.072937 488.858093 -900.697388
v -69.176514 515.497864 -883.159241
v -23.099976 547.729980 -844.903809
v -1.498657 457.581848 -915.876343
v 44.577881 489.813965 -877.620911
v 50.005310 529.739868 -914.072021
v 1.089294 495.521515 -954.684875
v -29.014221 522.161316 -937.146790
v 17.062317 554.393433 -898.891357
v 42.135864 446.020782 -937.148193
v 71.793213 466.767151 -912.524902
v 75.286621 492.465637 -935.986877
v 43.801636 470.440826 -962.127502
v 9.579407 532.183838 -995.800598
v -20.524109 558.823608 -978.262512
v 25.552429 591.055725 -940.007080
v 58.495422 566.402161 -955.187744
v 71.282043 436.796234 -951.802490
v 91.276184 450.782837 -935.202148
v 93.631348 468.108093 -951.019531
v 72.405029 453.259583 -968.642822
v 97.614258 437.248718 -974.073303
v 110.112854 445.991943 -963.696228
v 111.585144 456.822144 -973.583923
v 98.316284 447.540131 -984.600464
v 17.067688 561.966797 -1008.407715
v -2.948486 579.679932 -996.746277
v 27.688354 601.111511 -971.309753
v 49.592529 584.719055 -981.403687
vn 0.4444 -0.8731 0.2005
vn -0.3660 0.8806 -0.3011
vn -0.4444 0.8731 -0.2005
vn -0.4472 -0.3418 0.8266
vn 0.3801 0.8356 0.3966
vn -0.6489 -0.5267 -0.5491
vn -0.3975 0.8794 -0.2621
vn 0.7792 0.4410 0.4454
vn -0.7394 -0.1004 -0.6657
vn 0.5254 -0.8470 0.0809
vn -0.6644 -0.3557 -0.6573
vn 0.7554 0.4110 0.5103
vn -0.6612 -0.3926 -0.6392
vn 0.4885 -0.8616 0.1376
vn 0.6483 0.5266 0.5500
vn 0.4967 -0.8588 0.1253
vn -0.3882 0.8800 -0.2739
vn 0.7783 0.3779 0.5014
vn 0.6749 0.5812 0.4547
vn 0.4220 -0.8768 0.2305
vn -0.5909 -0.5308 -0.6075
vn 0.6851 0.5492 0.4786
vn -0.5610 -0.5590 -0.6106
vn -0.5588 -0.4949 -0.6654
vn 0.5112 0.7745 0.3727
vn -0.8077 0.0047 -0.5895
vn 0.7035 0.4193 0.5738
vn -0.7355 0.4387 0.5163
vn -0.4338 0.8750 -0.2147
vn -0.6541 -0.5186 -0.5506
vn -0.4519 0.8716 -0.1900
vn 0.7013 0.4239 0.5732
vn -0.6516 -0.5225 -0.5500
vn -0.7041 -0.4195 -0.5729
vn 0.6423 0.5014 0.5797
vn 0.0739 -0.8047 0.5890
vn 0.6990 0.4280 0.5729
vn 0.6483 0.5291 0.5476
vn -0.7039 -0.4168 -0.5751
vn 0.4338 -0.8750 0.2147
vn 0.1984 0.6186 -0.7602
vn -0.4712 -0.6148 -0.6324
vn 0.8382 0.3012 0.4547
vn 0.2186 0.6005 -0.7692
vn 0.6537 0.7063 0.2715
vn -0.7111 -0.4454 -0.5440
vn -0.7196 0.5854 0.3734
vn 0.7196 -0.5854 -0.3734
vn -0.1429 0.8350 -0.5314
vn 0.8183 0.3229 0.4755
vn -0.5026 -0.6012 -0.6212
vn 0.0530 -0.7942 0.6053
vn 0.7318 -0.5111 -0.4508
vn 0.8122 0.3292 0.4816
vn -0.5121 -0.5969 -0.6176
vn 0.3175 -0.8783 0.3576
vn 0.1523 0.6578 -0.7377
vn -0.6069 -0.1755 -0.7751
vn 0.7352 -0.4125 -0.5379
vn -0.6628 0.7249 0.1876
usemtl Matériau.012
s off
f 185//77 186//77 188//77 187//77
f 192//78 191//78 195//78 196//78
f 191//79 192//79 190//79 189//79
f 207//80 208//80 186//80 185//80
f 205//81 191//81 189//81 207//81
f 206//82 188//82 186//82 208//82
f 196//83 195//83 199//83 200//83
f 205//84 187//84 194//84 209//84
f 206//85 192//85 196//85 210//85
f 187//86 188//86 193//86 194//86
f 212//87 200//87 204//87 214//87
f 209//88 194//88 198//88 211//88
f 210//89 196//89 200//89 212//89
f 194//90 193//90 197//90 198//90
f 203//91 213//91 217//91 220//91
f 198//92 197//92 201//92 202//92
f 200//93 199//93 203//93 204//93
f 211//94 198//94 202//94 213//94
f 199//95 211//95 213//95 203//95
f 202//96 201//96 215//96 216//96
f 193//97 210//97 212//97 197//97
f 195//98 209//98 211//98 199//98
f 197//99 212//99 214//99 201//99
f 188//100 206//100 210//100 193//100
f 191//101 205//101 209//101 195//101
f 192//102 206//102 208//102 190//102
f 187//103 205//103 207//103 185//103
f 189//104 190//104 208//104 207//104
f 219//105 220//105 226//105 225//105
f 215//106 218//106 224//106 221//106
f 204//107 203//107 220//107 219//107
f 213//108 202//108 216//108 217//108
f 201//109 214//109 218//109 215//109
f 214//110 204//110 219//110 218//110
f 226//111 223//111 234//111 233//111
f 222//112 221//112 227//112 228//112
f 217//113 216//113 222//113 223//113
f 220//114 217//114 223//114 226//114
f 218//115 219//115 225//115 224//115
f 216//116 215//116 221//116 222//116
f 230//117 229//117 237//117 238//117
f 221//118 224//118 230//118 227//118
f 223//119 222//119 228//119 229//119
f 224//120 223//120 229//120 230//120
f 233//121 234//121 246//121 245//121
f 224//122 225//122 232//122 231//122
f 225//123 226//123 233//123 232//123
f 223//124 224//124 231//124 234//124
f 238//125 237//125 241//125 242//125
f 229//126 228//126 236//126 237//126
f 227//127 230//127 238//127 235//127
f 228//128 227//128 235//128 236//128
f 240//129 239//129 242//129 241//129
f 237//130 236//130 240//130 241//130
f 235//131 238//131 242//131 239//131
f 236//132 235//132 239//132 240//132
f 246//133 243//133 244//133 245//133
f 231//134 232//134 244//134 243//134
f 234//135 231//135 243//135 246//135
f 232//136 233//136 245//136 244//136
