# Blender v2.91.2 OBJ File: 'camionnete02.blend'
# www.blender.org
mtllib arme_000068.mtl
o Cube.046_Cube.010
v 265.174530 450.721985 -1105.553711
v 256.895294 231.059311 -1121.642578
v 361.996552 461.553467 -1303.258545
v 353.717316 241.890762 -1319.347656
v 67.346245 465.216248 -1201.642090
v 59.066978 245.553513 -1217.730957
v 164.168274 476.047668 -1399.346802
v 155.889023 256.384949 -1415.436157
v 131.869812 435.809204 -833.353027
v 123.590569 216.146561 -849.442078
v -74.237740 230.640747 -945.530334
v -65.958481 450.303467 -929.441345
v 71.540703 429.060242 -710.164246
v 63.261417 209.397552 -726.253296
v -134.566910 223.891739 -822.341614
v -126.287666 443.554443 -806.252625
v 35.900921 425.073242 -637.389954
v 35.984917 265.943115 -661.179626
v -161.843475 280.437317 -757.267944
v -161.927429 439.567444 -733.478271
v 79.794334 648.043884 -694.125000
v -118.033974 662.538086 -790.213379
v 44.154583 644.056824 -621.350647
v -153.673737 658.551086 -717.438965
v 152.667831 438.135864 -875.821289
v 144.388580 218.473221 -891.910339
v -45.160503 452.630127 -971.909668
v -53.439785 232.967407 -987.998657
v 134.602859 508.321533 -828.041931
v -63.225445 522.815796 -924.130249
v 155.400864 510.648193 -870.510132
v -42.427464 525.142334 -966.598450
v 138.568085 613.525085 -820.336365
v -59.260220 628.019287 -916.424622
v 159.366043 615.851685 -862.804688
v -38.462234 630.345947 -958.892883
v 75.637260 501.725098 -707.637451
v -122.191093 516.219299 -803.725708
v 79.602470 606.928589 -699.931885
v -118.225868 621.422791 -796.020142
v 107.434608 786.885254 -730.088074
v -90.393715 801.379456 -826.176392
v 71.794830 782.898254 -657.313721
v -126.033440 797.392456 -753.402039
v 327.815399 457.729614 -1233.462769
v 319.536163 238.066925 -1249.551880
v 129.987076 472.223816 -1329.550903
v 121.707840 252.561111 -1345.640015
v 263.082428 468.800598 -1351.302856
v 254.803192 249.137848 -1367.391846
v 166.260406 457.969116 -1153.597778
v 157.981186 238.306412 -1169.686890
v 32.955669 443.056335 -881.397156
v 24.676403 223.393646 -897.486145
v -27.373478 436.307373 -758.208435
v -32.040680 225.262924 -759.788391
v -63.013226 432.320312 -685.434143
v -50.433304 263.391754 -715.909058
v -19.119835 655.290955 -742.169067
v -54.759571 651.303955 -669.394836
v 45.474400 225.720306 -939.954468
v 53.753662 445.382996 -923.865540
v 35.688702 515.568665 -876.086060
v 56.486691 517.895264 -918.554260
v 39.653942 620.772156 -868.380493
v 60.451916 623.098755 -910.848816
v -23.276913 508.972229 -755.681580
v -19.311691 614.175720 -747.976013
v 8.520444 794.132385 -778.132263
v -27.119320 790.145325 -705.357849
v 220.621979 245.314026 -1297.595947
v 228.901245 464.976746 -1281.506714
v 312.539490 465.177002 -1327.280518
v 207.438217 234.682861 -1145.664673
v 74.133476 219.770111 -873.464111
v 1.308352 222.819550 -743.590332
v -17.084267 260.948364 -699.710876
v 103.210747 441.759399 -899.843323
v 105.943771 514.271729 -894.532227
v 109.908966 619.475220 -886.826782
v 278.358337 461.353210 -1257.484863
v 304.260254 245.514297 -1343.369751
v 215.717453 454.345581 -1129.575928
v 82.412727 439.432800 -857.375122
v 22.083591 432.683777 -734.186279
v -13.556169 428.696777 -661.411987
v 30.337261 651.667480 -718.147095
v -5.302480 647.680420 -645.372803
v 94.931473 222.096756 -915.932434
v 85.145775 511.945129 -852.063965
v 89.111000 617.148621 -844.358398
v 26.180168 505.348633 -731.659546
v 30.145386 610.552124 -723.953918
v 57.977562 790.508850 -754.110046
v 22.337776 786.521790 -681.335754
v 270.079010 241.690475 -1273.573975
v 93.381302 180.967941 -918.944885
v 43.924225 184.591461 -942.966919
v 268.528839 200.561630 -1276.586426
v 219.071823 204.185165 -1300.608276
v 156.430954 197.177567 -1172.699219
v 205.888062 193.554016 -1148.677246
v 391.430695 388.400024 -1161.769165
v 363.731567 385.301331 -1105.208984
v 360.070679 288.168701 -1112.323242
v 387.769714 291.267395 -1168.883545
v 434.180389 385.267883 -1141.005127
v 406.481262 382.169189 -1084.444946
v 402.820312 285.036621 -1091.559326
v 430.519348 288.135315 -1148.119385
v 499.601013 380.474792 -1109.229248
v 471.901855 377.376099 -1052.669189
v 468.240875 280.243530 -1059.783569
v 495.939972 283.342224 -1116.343872
v 541.698303 377.390503 -1088.782104
v 513.999207 374.291748 -1032.221924
v 510.338287 277.159180 -1039.336304
v 538.037354 280.257874 -1095.896484
v 622.339355 281.097961 -1992.867920
v 572.882263 284.721497 -2016.890015
v 581.161438 504.384216 -2000.801025
v 630.618591 500.760620 -1976.778931
v 36.658665 859.834473 -788.853455
v -54.485397 866.512268 -833.123596
v 3.818561 856.160583 -721.795776
v -87.325462 862.838379 -766.065918
v 94.962593 849.482849 -677.525757
v 127.802773 853.156738 -744.583313
v 82.230736 856.495728 -766.718262
v 49.390583 852.821716 -699.660828
vn 0.8976 -0.0658 0.4360
vn 0.4393 0.0491 -0.8970
vn -0.8976 0.0658 -0.4360
vn 0.0376 0.9966 0.0730
vn -0.0376 -0.9966 -0.0730
vn -0.4393 -0.0491 0.8970
vn -0.3200 -0.7775 0.5415
vn -0.1221 -0.9894 -0.0787
vn -0.5130 -0.1550 0.8443
vn -0.8982 0.0652 -0.4348
vn 0.8982 -0.0652 0.4348
vn 0.3982 -0.3035 -0.8656
vn 0.3967 -0.3108 -0.8637
vn -0.3982 0.3035 0.8656
vn 0.7570 0.0193 -0.6531
vn -0.8260 0.4147 -0.3818
vn -0.4019 -0.1645 0.9008
vn -0.0152 -0.9996 -0.0255
vn -0.3797 0.3872 0.8402
vn -0.4401 -0.1911 0.8774
vn -0.0664 -0.9977 -0.0138
vn -0.0507 -0.0711 0.9962
vn 0.4639 -0.8675 0.1797
vn 0.5266 0.7949 0.3014
vn 0.8873 -0.1798 0.4247
usemtl Matériau.011
s off
f 45//1 46//1 4//1 3//1
f 49//2 50//2 8//2 7//2
f 47//3 48//3 6//3 5//3
f 26//1 25//1 9//1 10//1
f 72//4 47//4 5//4 51//4
f 96//5 46//5 2//5 74//5
f 10//1 9//1 13//1 14//1
f 84//6 9//6 29//6 90//6
f 89//5 26//5 10//5 75//5
f 27//3 28//3 11//3 12//3
f 76//7 14//7 18//7 77//7
f 75//8 10//8 14//8 76//8
f 12//3 11//3 15//3 16//3
f 53//4 12//4 16//4 55//4
f 86//9 77//9 18//9 17//9
f 16//10 15//10 19//10 20//10
f 16//3 20//3 24//3 22//3
f 14//11 13//11 17//11 18//11
f 59//12 22//12 42//12 69//12
f 86//6 17//6 23//6 88//6
f 17//1 13//1 21//1 23//1
f 55//2 16//2 22//2 59//2
f 5//3 6//3 28//3 27//3
f 74//5 2//5 26//5 89//5
f 51//4 5//4 27//4 62//4
f 2//1 1//1 25//1 26//1
f 32//3 30//3 34//3 36//3
f 62//2 27//2 32//2 64//2
f 27//3 12//3 30//3 32//3
f 9//1 25//1 31//1 29//1
f 66//4 36//4 34//4 65//4
f 90//5 29//5 37//5 92//5
f 64//2 32//2 36//2 66//2
f 29//1 31//1 35//1 33//1
f 92//6 37//6 39//6 93//6
f 29//1 33//1 39//1 37//1
f 34//3 30//3 38//3 40//3
f 65//4 34//4 40//4 68//4
f 69//13 42//13 124//13 123//13
f 23//1 21//1 41//1 43//1
f 88//14 23//14 43//14 95//14
f 22//3 24//3 44//3 42//3
f 82//5 4//5 46//5 96//5
f 49//4 7//4 47//4 72//4
f 7//3 8//3 48//3 47//3
f 46//15 45//15 103//15 106//15
f 73//4 49//4 72//4 81//4
f 8//5 50//5 71//5 48//5
f 24//14 60//14 70//14 44//14
f 42//16 44//16 126//16 124//16
f 91//4 65//4 68//4 93//4
f 38//6 67//6 68//6 40//6
f 79//2 64//2 66//2 80//2
f 30//5 63//5 67//5 38//5
f 80//4 66//4 65//4 91//4
f 78//2 62//2 64//2 79//2
f 83//4 51//4 62//4 78//4
f 6//5 52//5 61//5 28//5
f 85//2 55//2 59//2 87//2
f 20//6 57//6 60//6 24//6
f 87//12 59//12 69//12 94//12
f 20//17 19//17 58//17 57//17
f 84//4 53//4 55//4 85//4
f 11//18 54//18 56//18 15//18
f 15//7 56//7 58//7 19//7
f 28//5 61//5 54//5 11//5
f 12//6 53//6 63//6 30//6
f 48//5 71//5 52//5 6//5
f 81//4 72//4 51//4 83//4
f 50//3 49//3 121//3 120//3
f 3//2 4//2 82//2 73//2
f 45//4 81//4 83//4 1//4
f 9//4 84//4 85//4 13//4
f 21//12 87//12 94//12 41//12
f 13//2 85//2 87//2 21//2
f 1//4 83//4 78//4 25//4
f 25//2 78//2 79//2 31//2
f 35//4 80//4 91//4 33//4
f 31//2 79//2 80//2 35//2
f 33//4 91//4 93//4 39//4
f 70//19 95//19 130//19 125//19
f 3//4 73//4 81//4 45//4
f 50//5 82//5 96//5 71//5
f 60//14 88//14 95//14 70//14
f 67//6 92//6 93//6 68//6
f 63//5 90//5 92//5 67//5
f 52//3 71//3 100//3 101//3
f 57//6 86//6 88//6 60//6
f 57//20 58//20 77//20 86//20
f 54//21 75//21 76//21 56//21
f 56//7 76//7 77//7 58//7
f 61//5 89//5 75//5 54//5
f 53//6 84//6 90//6 63//6
f 89//6 61//6 98//6 97//6
f 101//5 102//5 97//5 98//5
f 100//5 99//5 102//5 101//5
f 61//3 52//3 101//3 98//3
f 74//1 89//1 97//1 102//1
f 71//2 96//2 99//2 100//2
f 96//1 74//1 102//1 99//1
f 106//2 103//2 107//2 110//2
f 1//22 2//22 105//22 104//22
f 2//23 46//23 106//23 105//23
f 45//24 1//24 104//24 103//24
f 109//5 110//5 114//5 113//5
f 104//6 105//6 109//6 108//6
f 105//5 106//5 110//5 109//5
f 103//4 104//4 108//4 107//4
f 113//5 114//5 118//5 117//5
f 107//4 108//4 112//4 111//4
f 110//2 107//2 111//2 114//2
f 108//6 109//6 113//6 112//6
f 116//1 117//1 118//1 115//1
f 111//4 112//4 116//4 115//4
f 114//2 111//2 115//2 118//2
f 122//2 119//2 120//2 121//2
f 82//5 50//5 120//5 119//5
f 73//1 82//1 119//1 122//1
f 49//4 73//4 122//4 121//4
f 123//4 124//4 126//4 125//4
f 129//4 123//4 125//4 130//4
f 128//4 129//4 130//4 127//4
f 95//19 43//19 127//19 130//19
f 94//13 69//13 123//13 129//13
f 43//25 41//25 128//25 127//25
f 44//19 70//19 125//19 126//19
f 41//13 94//13 129//13 128//13
o Cube.048_Cube.024
v -562.877258 452.745697 181.371231
v -725.227112 341.129822 41.435585
v -423.930817 493.262756 -12.148323
v -586.097107 382.250732 -150.956268
v -681.424011 645.893921 63.173340
v -764.665222 588.665344 -8.575523
v -610.182312 666.668152 -36.049553
v -693.237610 609.634888 -107.547096
v -372.144531 513.883606 -440.592194
v -277.038391 570.852478 -379.502106
v -332.595490 683.122864 -397.706207
v -427.701630 626.154114 -458.796173
v -260.840302 558.625000 -620.872925
v -190.916168 600.509766 -575.958008
v -231.762970 683.053528 -589.342163
v -301.687225 641.168762 -634.256897
v -190.534058 589.354736 -733.027100
v -139.434448 619.963562 -700.203979
v -169.284790 680.285461 -709.984802
v -220.384460 649.676636 -742.807922
v -485.863251 598.882202 -11.598373
v -657.896729 481.118134 -158.882843
v -633.419006 555.844116 193.836609
v -805.773315 437.350128 45.277748
v -299.128540 629.323792 -391.557159
v -400.095398 568.844360 -456.411774
v -199.890808 645.029297 -597.560852
v -274.123993 600.563477 -645.243408
v -139.399475 653.886414 -727.550659
v -193.648163 621.391296 -762.396301
v -142.627930 595.976929 -813.783752
v -91.528198 626.585754 -780.960754
v -89.181030 666.627197 -817.613037
v -143.429749 634.132141 -852.458679
v -170.521423 661.476990 -831.439941
v -119.421692 692.085754 -798.616821
v -108.783264 601.922302 -872.018066
v -57.683533 632.531128 -839.195068
v -55.336426 672.572510 -875.847229
v -109.585144 640.077515 -910.692932
v -136.676758 667.422302 -889.674133
v -85.577026 698.031067 -856.851013
v -68.248291 589.294983 -898.240234
v -35.357788 608.996460 -877.113403
v -33.847107 634.769348 -900.704712
v -68.764465 613.853760 -923.133362
v -104.829895 676.806580 -952.347290
v -131.921570 704.151367 -931.328430
v -80.821960 734.760193 -898.505310
v -50.581360 709.301636 -917.501343
v -41.267700 579.362366 -916.204590
v -19.093811 592.644531 -901.961548
v -18.075256 610.019897 -917.866211
v -41.615662 595.919189 -932.987000
v -17.677734 579.242432 -941.365723
v -3.816528 587.545288 -932.462280
v -3.179749 598.406799 -942.404602
v -17.895142 589.592285 -951.856689
v -97.981628 706.463318 -965.599548
v -115.995422 724.645142 -951.623718
v -82.018494 744.997314 -929.799255
v -61.911255 728.069641 -942.429993
v -302.943542 436.437866 483.601135
v -293.874084 286.576599 294.242004
v -159.550110 588.710632 361.329254
v -156.663513 445.707092 174.875793
v -466.021698 541.733154 317.322083
v -461.371552 464.895020 220.232361
v -391.672058 624.741516 259.481262
v -391.019897 546.485718 159.029938
v -1.383972 711.671631 -47.219170
v 92.282532 716.511475 37.507591
v 52.347961 829.384033 76.125603
v -40.171570 825.350525 -7.278725
v 132.278137 821.652588 -177.334930
v 202.055969 823.838867 -115.793556
v 173.538391 907.418152 -86.428413
v 103.760559 905.231934 -147.969849
v 216.845886 892.371948 -256.788971
v 267.838501 893.969604 -211.815308
v 246.998291 955.048218 -190.355591
v 196.005554 953.450562 -235.329315
v -264.862183 636.501648 336.547516
v -266.170013 480.515015 132.581329
v -421.464325 470.674530 460.331360
v -411.835938 311.578278 259.303284
v 80.335815 774.034363 55.225761
v -20.419739 770.877686 -33.636925
v 201.008362 873.979858 -112.050636
v 126.930481 871.658813 -177.384338
v 274.919800 936.488525 -218.185822
v 220.784729 934.792480 -265.930939
v 273.095093 930.507568 -321.920929
v 324.087708 932.105164 -276.947235
v 335.162415 984.098999 -288.182343
v 281.027527 982.402832 -335.927490
v 255.634583 999.604614 -304.578217
v 306.627258 1001.202271 -259.604584
v 313.113220 959.117432 -368.311340
v 364.106140 960.715088 -323.337769
v 375.180847 1012.708862 -334.572754
v 321.045715 1011.012695 -382.317688
v 295.652649 1028.214600 -350.968445
v 346.645447 1029.812012 -305.994934
v 354.158630 954.900513 -396.375702
v 386.980530 955.928833 -367.428192
v 394.108826 989.394897 -374.659698
v 359.264587 988.303040 -405.391113
v 334.581726 1062.283691 -399.486664
v 309.188782 1079.485474 -368.137390
v 360.181335 1081.083252 -323.163757
v 388.716736 1063.979736 -351.741699
v 381.337463 951.044922 -416.270264
v 403.464905 951.738220 -396.754639
v 408.270813 974.300110 -401.630035
v 384.779724 973.564087 -422.348175
v 407.136780 959.678223 -437.470642
v 420.968811 960.111572 -425.270996
v 423.972961 974.215210 -428.318665
v 409.288269 973.755005 -441.269745
v 346.426941 1093.065674 -395.717377
v 329.542908 1104.503296 -374.872955
v 363.448425 1105.565552 -344.969208
v 382.422180 1094.193359 -363.971039
vn 0.4669 -0.8711 0.1522
vn -0.3827 0.8893 -0.2504
vn -0.4669 0.8710 -0.1527
vn -0.4304 -0.3928 0.8127
vn 0.3641 0.8240 0.4341
vn -0.6401 -0.5119 -0.5729
vn -0.3993 0.8923 -0.2104
vn 0.7961 0.4370 0.4186
vn -0.7676 -0.0930 -0.6341
vn 0.5335 -0.8454 0.0238
vn -0.7459 -0.3315 -0.5777
vn 0.8209 0.3853 0.4215
vn -0.7417 -0.3687 -0.5603
vn 0.4758 -0.8762 0.0763
vn 0.7224 0.5036 0.4738
vn 0.4826 -0.8735 0.0632
vn -0.3914 0.8927 -0.2232
vn 0.8416 0.3517 0.4098
vn 0.7394 0.5582 0.3764
vn 0.4201 -0.8902 0.1762
vn -0.6722 -0.5090 -0.5376
vn 0.7514 0.5257 0.3987
vn -0.6437 -0.5380 -0.5442
vn -0.5869 -0.4811 -0.6513
vn 0.5195 0.7683 0.3739
vn -0.8113 0.0115 -0.5845
vn 0.6993 0.4072 0.5875
vn -0.7404 0.3948 0.5441
vn -0.4300 0.8887 -0.1592
vn -0.7281 -0.4955 -0.4737
vn -0.4453 0.8855 -0.1326
vn 0.7747 0.3993 0.4903
vn -0.7256 -0.4994 -0.4734
vn -0.7774 -0.3948 -0.4896
vn 0.7192 0.4783 0.5039
vn 0.1179 -0.8111 0.5729
vn 0.7726 0.4034 0.4902
vn 0.7222 0.5061 0.4714
vn -0.7774 -0.3921 -0.4918
vn 0.4300 -0.8887 0.1592
vn 0.1274 0.6187 -0.7752
vn -0.5587 -0.5962 -0.5766
vn 0.8934 0.2737 0.3562
vn 0.1458 0.6001 -0.7866
vn 0.7010 0.6853 0.1974
vn -0.7818 -0.4207 -0.4602
vn -0.6544 0.6027 0.4567
vn 0.6544 -0.6027 -0.4567
vn -0.1789 0.8429 -0.5075
vn 0.8768 0.2958 0.3792
vn -0.5882 -0.5818 -0.5618
vn 0.0993 -0.8001 0.5915
vn 0.6597 -0.5281 -0.5347
vn 0.8716 0.3023 0.3860
vn -0.5971 -0.5772 -0.5571
vn 0.3309 -0.8897 0.3145
vn 0.0853 0.6590 -0.7473
vn -0.6971 -0.1521 -0.7006
vn 0.6559 -0.4290 -0.6211
vn -0.6154 0.7419 0.2662
vn 0.8145 -0.4448 0.3726
vn -0.5483 0.8306 -0.0978
vn -0.8138 0.4463 -0.3722
vn -0.3292 -0.7480 0.5762
vn -0.4046 0.7536 0.5181
vn 0.0880 -0.6452 -0.7589
vn -0.2631 0.9306 0.2546
vn 0.4571 0.5555 0.6946
vn -0.4120 -0.0974 -0.9060
vn 0.7570 -0.6459 0.0987
vn -0.7198 0.1240 -0.6830
vn 0.8169 -0.0164 0.5766
vn -0.7221 0.0830 -0.6868
vn 0.3561 -0.8638 -0.3564
vn 0.7289 0.0782 0.6801
vn 0.3594 -0.8536 -0.3772
vn -0.2508 0.9349 0.2512
vn 0.8338 -0.0387 0.5508
vn 0.7624 0.1705 0.6242
vn 0.2842 -0.9140 -0.2897
vn -0.6736 -0.0591 -0.7367
vn 0.7600 0.1424 0.6341
vn -0.6484 -0.0851 -0.7565
vn -0.1617 -0.4838 -0.8601
vn 0.0071 0.7994 0.6008
vn -0.3628 -0.3385 -0.8682
vn 0.0413 0.5866 0.8088
vn -0.9501 -0.2651 0.1643
vn -0.2959 0.9058 0.3033
vn -0.7334 -0.0704 -0.6761
vn -0.3140 0.8923 0.3243
vn 0.7656 -0.0274 0.6427
vn -0.7315 -0.0743 -0.6778
vn -0.7678 0.0313 -0.6399
vn 0.7195 0.0422 0.6932
vn -0.0440 -0.9954 0.0852
vn 0.7641 -0.0234 0.6447
vn 0.7293 0.0815 0.6794
vn -0.7672 0.0347 -0.6405
vn 0.2959 -0.9058 -0.3033
vn 0.2821 0.8927 -0.3515
vn -0.5687 -0.1322 -0.8119
vn 0.8804 -0.0868 0.4662
vn 0.2990 0.8795 -0.3703
vn 0.7586 0.3740 0.5336
vn -0.7783 -0.0048 -0.6278
vn -0.6155 0.3915 0.6840
vn 0.6155 -0.3915 -0.6840
vn -0.0188 0.9997 -0.0142
vn 0.8644 -0.0768 0.4969
vn -0.5975 -0.1226 -0.7925
vn -0.0628 -0.9923 0.1065
vn 0.6381 -0.2900 -0.7132
vn 0.8594 -0.0738 0.5059
vn -0.6061 -0.1196 -0.7863
vn 0.1823 -0.9680 -0.1723
vn 0.2429 0.9199 -0.3080
vn -0.6366 0.3303 -0.6969
vn 0.6556 -0.1620 -0.7376
vn -0.5403 0.5987 0.5913
usemtl Matériau.012
s off
f 131//26 132//26 134//26 133//26
f 138//27 137//27 141//27 142//27
f 137//28 138//28 136//28 135//28
f 153//29 154//29 132//29 131//29
f 151//30 137//30 135//30 153//30
f 152//31 134//31 132//31 154//31
f 142//32 141//32 145//32 146//32
f 151//33 133//33 140//33 155//33
f 152//34 138//34 142//34 156//34
f 133//35 134//35 139//35 140//35
f 158//36 146//36 150//36 160//36
f 155//37 140//37 144//37 157//37
f 156//38 142//38 146//38 158//38
f 140//39 139//39 143//39 144//39
f 149//40 159//40 163//40 166//40
f 144//41 143//41 147//41 148//41
f 146//42 145//42 149//42 150//42
f 157//43 144//43 148//43 159//43
f 145//44 157//44 159//44 149//44
f 148//45 147//45 161//45 162//45
f 139//46 156//46 158//46 143//46
f 141//47 155//47 157//47 145//47
f 143//48 158//48 160//48 147//48
f 134//49 152//49 156//49 139//49
f 137//50 151//50 155//50 141//50
f 138//51 152//51 154//51 136//51
f 133//52 151//52 153//52 131//52
f 135//53 136//53 154//53 153//53
f 165//54 166//54 172//54 171//54
f 161//55 164//55 170//55 167//55
f 150//56 149//56 166//56 165//56
f 159//57 148//57 162//57 163//57
f 147//58 160//58 164//58 161//58
f 160//59 150//59 165//59 164//59
f 172//60 169//60 180//60 179//60
f 168//61 167//61 173//61 174//61
f 163//62 162//62 168//62 169//62
f 166//63 163//63 169//63 172//63
f 164//64 165//64 171//64 170//64
f 162//65 161//65 167//65 168//65
f 176//66 175//66 183//66 184//66
f 167//67 170//67 176//67 173//67
f 169//68 168//68 174//68 175//68
f 170//69 169//69 175//69 176//69
f 179//70 180//70 192//70 191//70
f 170//71 171//71 178//71 177//71
f 171//72 172//72 179//72 178//72
f 169//73 170//73 177//73 180//73
f 184//74 183//74 187//74 188//74
f 175//75 174//75 182//75 183//75
f 173//76 176//76 184//76 181//76
f 174//77 173//77 181//77 182//77
f 186//78 185//78 188//78 187//78
f 183//79 182//79 186//79 187//79
f 181//80 184//80 188//80 185//80
f 182//81 181//81 185//81 186//81
f 192//82 189//82 190//82 191//82
f 177//83 178//83 190//83 189//83
f 180//84 177//84 189//84 192//84
f 178//85 179//85 191//85 190//85
f 193//86 194//86 196//86 195//86
f 200//87 199//87 203//87 204//87
f 199//88 200//88 198//88 197//88
f 215//89 216//89 194//89 193//89
f 213//90 199//90 197//90 215//90
f 214//91 196//91 194//91 216//91
f 204//92 203//92 207//92 208//92
f 213//93 195//93 202//93 217//93
f 214//94 200//94 204//94 218//94
f 195//95 196//95 201//95 202//95
f 220//96 208//96 212//96 222//96
f 217//97 202//97 206//97 219//97
f 218//98 204//98 208//98 220//98
f 202//99 201//99 205//99 206//99
f 211//100 221//100 225//100 228//100
f 206//101 205//101 209//101 210//101
f 208//102 207//102 211//102 212//102
f 219//103 206//103 210//103 221//103
f 207//104 219//104 221//104 211//104
f 210//105 209//105 223//105 224//105
f 201//106 218//106 220//106 205//106
f 203//107 217//107 219//107 207//107
f 205//108 220//108 222//108 209//108
f 196//109 214//109 218//109 201//109
f 199//110 213//110 217//110 203//110
f 200//111 214//111 216//111 198//111
f 195//112 213//112 215//112 193//112
f 197//113 198//113 216//113 215//113
f 227//114 228//114 234//114 233//114
f 223//115 226//115 232//115 229//115
f 212//116 211//116 228//116 227//116
f 221//117 210//117 224//117 225//117
f 209//118 222//118 226//118 223//118
f 222//119 212//119 227//119 226//119
f 234//120 231//120 242//120 241//120
f 230//121 229//121 235//121 236//121
f 225//122 224//122 230//122 231//122
f 228//123 225//123 231//123 234//123
f 226//124 227//124 233//124 232//124
f 224//125 223//125 229//125 230//125
f 238//126 237//126 245//126 246//126
f 229//127 232//127 238//127 235//127
f 231//128 230//128 236//128 237//128
f 232//129 231//129 237//129 238//129
f 241//130 242//130 254//130 253//130
f 232//131 233//131 240//131 239//131
f 233//132 234//132 241//132 240//132
f 231//133 232//133 239//133 242//133
f 246//134 245//134 249//134 250//134
f 237//135 236//135 244//135 245//135
f 235//136 238//136 246//136 243//136
f 236//137 235//137 243//137 244//137
f 248//138 247//138 250//138 249//138
f 245//139 244//139 248//139 249//139
f 243//140 246//140 250//140 247//140
f 244//141 243//141 247//141 248//141
f 254//142 251//142 252//142 253//142
f 239//143 240//143 252//143 251//143
f 242//144 239//144 251//144 254//144
f 240//145 241//145 253//145 252//145
