# Blender v2.91.2 OBJ File: 'camionnete02.blend'
# www.blender.org
mtllib arme_000052.mtl
o Cube.046_Cube.010
v 290.776306 584.436340 -1075.340576
v 254.269058 367.313812 -1085.544922
v 382.682373 578.394104 -1275.580078
v 346.175110 361.271606 -1285.784424
v 93.800156 621.858276 -1166.877930
v 57.292862 404.735748 -1177.082520
v 185.706192 615.816040 -1367.117432
v 149.198929 398.693542 -1377.322021
v 164.239883 592.755249 -799.650330
v 127.732605 375.632782 -809.854675
v -69.243530 413.054718 -901.392090
v -32.736267 630.177185 -891.187744
v 106.973862 596.520142 -674.882263
v 70.466568 379.397614 -685.086731
v -126.509613 416.819550 -776.624146
v -90.002335 633.942078 -766.419739
v 73.143631 598.744202 -601.175049
v 52.391220 440.406525 -620.843567
v -144.584991 477.828461 -712.380920
v -123.832558 636.166199 -692.712402
v 183.981918 591.457336 -842.662964
v 147.474625 374.334839 -852.867493
v -12.994270 628.879333 -934.200439
v -49.501572 411.756805 -944.404846
v 350.236694 580.527222 -1204.889160
v 313.729431 363.404694 -1215.093750
v 153.260498 617.949097 -1296.426758
v 116.753281 400.826599 -1306.631104
v 284.194275 597.105164 -1321.348633
v 247.686996 379.982544 -1331.553223
v 192.288254 603.147339 -1121.109131
v 155.780960 386.024750 -1131.313477
v 65.751816 611.466248 -845.418884
v 29.244530 394.343719 -855.623413
v 8.485771 615.231140 -720.650940
v -22.945747 406.520294 -716.666931
v -25.344440 617.455261 -646.943726
v -35.133999 447.658783 -673.347534
v 48.986526 393.045807 -898.636108
v 85.493820 610.168335 -888.431763
v 215.241287 382.115631 -1260.862549
v 251.748611 599.238220 -1250.657959
v 333.438354 587.749634 -1298.464355
v 205.025009 376.669312 -1108.429443
v 78.488571 384.988251 -832.739075
v 10.259621 400.211853 -701.235962
v -1.928619 441.350311 -657.916565
v 134.737869 600.812805 -865.547241
v 300.992615 589.882751 -1227.773682
v 296.931091 370.627045 -1308.668945
v 241.532272 593.791870 -1098.224854
v 114.995834 602.110718 -822.534729
v 57.729813 605.875671 -697.766663
v 23.899582 608.099731 -624.059387
v 98.230576 383.690338 -875.751831
v 264.485291 372.760193 -1237.978271
v 91.395111 343.037079 -877.662415
v 42.151047 352.392609 -900.546753
v 257.649841 332.106964 -1239.888916
v 208.405838 341.462402 -1262.773193
v 148.945480 345.371552 -1133.224365
v 198.189499 336.016022 -1110.339844
v 406.506897 505.285492 -1133.015381
v 380.214050 507.014130 -1075.730469
v 364.071045 411.004730 -1080.242676
v 390.363708 409.276184 -1137.528076
v 449.072388 497.198883 -1113.235107
v 422.779541 498.927460 -1055.949707
v 406.636475 402.918121 -1060.461914
v 432.929199 401.189545 -1117.747314
v 514.211182 484.823761 -1082.964355
v 487.918457 486.552277 -1025.678955
v 471.775330 390.542908 -1030.191284
v 498.067932 388.814392 -1087.476562
v 556.127197 476.860382 -1063.485352
v 529.834412 478.588989 -1006.200134
v 513.691406 382.579620 -1010.712402
v 539.984070 380.851105 -1067.997559
v 598.860168 350.777496 -1966.493652
v 549.616211 360.132935 -1989.378174
v 586.123352 577.255554 -1979.173584
v 635.367493 567.900024 -1956.289062
vn 0.8937 -0.1698 0.4153
vn 0.4170 -0.0274 -0.9085
vn -0.8937 0.1698 -0.4153
vn 0.1656 0.9851 0.0463
vn -0.1656 -0.9851 -0.0463
vn -0.4009 -0.7180 0.5691
vn -0.2487 -0.9673 -0.0501
vn -0.5050 -0.0693 0.8603
vn -0.8943 0.1693 -0.4141
vn 0.8943 -0.1693 0.4141
vn 0.7350 -0.0920 -0.6718
vn -0.3944 -0.0917 0.9143
vn -0.1425 -0.9898 0.0007
vn -0.4008 -0.7180 0.5691
vn -0.4364 -0.1136 0.8926
vn -0.1927 -0.9812 0.0136
vn -0.4170 0.0274 0.9085
vn -0.0317 -0.0416 0.9986
vn 0.3550 -0.9152 0.1905
vn 0.6313 0.7279 0.2678
usemtl Matériau.011
s off
f 25//1 26//1 4//1 3//1
f 29//2 30//2 8//2 7//2
f 27//3 28//3 6//3 5//3
f 22//1 21//1 9//1 10//1
f 42//4 27//4 5//4 31//4
f 56//5 26//5 2//5 44//5
f 10//1 9//1 13//1 14//1
f 55//5 22//5 10//5 45//5
f 23//3 24//3 11//3 12//3
f 46//6 14//6 18//6 47//6
f 45//7 10//7 14//7 46//7
f 12//3 11//3 15//3 16//3
f 33//4 12//4 16//4 35//4
f 54//8 47//8 18//8 17//8
f 16//9 15//9 19//9 20//9
f 14//10 13//10 17//10 18//10
f 5//3 6//3 24//3 23//3
f 44//5 2//5 22//5 55//5
f 31//4 5//4 23//4 40//4
f 2//1 1//1 21//1 22//1
f 50//5 4//5 26//5 56//5
f 29//4 7//4 27//4 42//4
f 7//3 8//3 28//3 27//3
f 26//11 25//11 63//11 66//11
f 43//4 29//4 42//4 49//4
f 8//5 30//5 41//5 28//5
f 51//4 31//4 40//4 48//4
f 6//5 32//5 39//5 24//5
f 20//12 19//12 38//12 37//12
f 52//4 33//4 35//4 53//4
f 11//13 34//13 36//13 15//13
f 15//14 36//14 38//14 19//14
f 24//5 39//5 34//5 11//5
f 28//5 41//5 32//5 6//5
f 49//4 42//4 31//4 51//4
f 30//3 29//3 81//3 80//3
f 3//2 4//2 50//2 43//2
f 25//4 49//4 51//4 1//4
f 9//4 52//4 53//4 13//4
f 1//4 51//4 48//4 21//4
f 3//4 43//4 49//4 25//4
f 30//5 50//5 56//5 41//5
f 32//3 41//3 60//3 61//3
f 37//15 38//15 47//15 54//15
f 34//16 45//16 46//16 36//16
f 36//6 46//6 47//6 38//6
f 39//5 55//5 45//5 34//5
f 55//17 39//17 58//17 57//17
f 61//5 62//5 57//5 58//5
f 60//5 59//5 62//5 61//5
f 39//3 32//3 61//3 58//3
f 44//1 55//1 57//1 62//1
f 41//2 56//2 59//2 60//2
f 56//1 44//1 62//1 59//1
f 66//2 63//2 67//2 70//2
f 1//18 2//18 65//18 64//18
f 2//19 26//19 66//19 65//19
f 25//20 1//20 64//20 63//20
f 69//5 70//5 74//5 73//5
f 64//17 65//17 69//17 68//17
f 65//5 66//5 70//5 69//5
f 63//4 64//4 68//4 67//4
f 73//5 74//5 78//5 77//5
f 67//4 68//4 72//4 71//4
f 70//2 67//2 71//2 74//2
f 68//17 69//17 73//17 72//17
f 76//1 77//1 78//1 75//1
f 71//4 72//4 76//4 75//4
f 74//2 71//2 75//2 78//2
f 82//2 79//2 80//2 81//2
f 50//5 30//5 80//5 79//5
f 43//1 50//1 79//1 82//1
f 29//4 43//4 82//4 81//4
o Cube.048_Cube.024
v -562.825684 452.288086 181.307617
v -724.044739 340.007019 40.598991
v -424.149017 495.262024 -11.875160
v -586.030945 384.781738 -151.028015
v -683.099060 645.029968 64.195831
v -765.760620 587.460388 -7.949463
v -611.995667 667.063965 -34.854408
v -694.355713 610.060303 -106.699623
v -387.855774 510.059174 -438.467010
v -284.639984 555.802734 -381.224884
v -325.995209 673.799805 -400.949707
v -429.210999 628.056152 -458.191864
v -276.808167 536.187866 -622.524719
v -200.921661 569.819641 -580.439087
v -231.327026 656.573669 -594.941040
v -307.213531 622.942017 -637.026855
v -206.303406 555.178833 -737.129700
v -150.846497 579.756470 -706.373962
v -173.066284 643.155212 -716.971985
v -228.523193 618.577637 -747.727600
v -487.046356 600.317139 -10.729988
v -658.175354 483.399506 -158.458099
v -634.333374 554.647461 194.346649
v -805.487183 435.447266 44.967125
v -299.462830 616.326416 -394.238617
v -409.039062 567.764038 -455.008148
v -204.773224 614.622925 -602.956787
v -285.336090 578.918701 -647.635925
v -147.267212 612.774841 -734.579895
v -206.141510 586.682739 -767.230835
v -160.197205 553.825195 -819.183899
v -104.740417 578.402771 -788.428101
v -98.350098 616.984619 -826.148499
v -157.224365 590.892395 -858.799622
v -180.038025 621.932129 -837.833984
v -124.581299 646.509766 -807.078125
v -127.496338 554.098511 -878.366760
v -72.039307 578.676147 -847.611328
v -65.649170 617.257874 -885.331543
v -124.523438 591.165771 -917.982544
v -147.337158 622.205505 -897.016907
v -91.880249 646.783081 -866.261230
v -89.630859 535.822510 -905.242981
v -53.935730 551.641968 -885.446960
v -49.822632 576.475342 -909.725769
v -87.717468 559.680969 -930.741699
v -116.303894 626.043701 -960.675476
v -139.117615 657.083435 -939.709656
v -83.660645 681.661011 -908.954163
v -57.429565 652.135864 -928.024475
v -64.634888 522.131348 -923.603088
v -40.570312 532.796387 -910.257019
v -37.797302 549.538330 -926.625244
v -63.344849 538.216064 -940.793579
v -41.955811 518.440674 -949.325134
v -26.912781 525.107544 -940.982300
v -25.179321 535.573120 -951.214233
v -41.149414 528.495361 -960.071106
v -106.119812 654.280396 -974.853210
v -121.289001 674.919128 -960.912781
v -84.415100 691.261108 -940.462891
v -66.973633 671.629456 -953.143188
v -300.391571 438.138000 482.868164
v -294.700531 286.558929 294.748596
v -152.643799 588.647217 358.435364
v -156.160461 442.764038 173.076111
v -463.170380 544.247681 316.813568
v -460.252411 466.528870 220.359406
v -387.981628 625.189636 257.805511
v -389.219055 546.619568 157.974487
v -14.905151 726.894653 -55.492393
v 77.620422 755.992676 26.275169
v 13.277283 857.856201 63.226433
v -78.530640 829.424744 -17.255974
v 85.820557 861.124634 -192.343201
v 154.537292 881.648071 -133.031738
v 107.758423 957.030457 -104.919411
v 39.041687 936.507080 -164.231018
v 149.349060 947.244385 -276.089294
v 199.566223 962.242554 -232.745148
v 165.380920 1017.331055 -212.201080
v 115.163635 1002.332886 -255.545227
v -258.982788 636.863037 333.921722
v -265.472839 478.714111 131.237289
v -418.591919 473.802917 460.119720
v -412.550201 312.883179 260.407593
v 52.142151 809.975647 42.815361
v -47.081238 780.340759 -42.827538
v 141.745178 930.220459 -130.519165
v 68.793762 908.432129 -193.485596
v 196.233765 1005.009033 -240.394470
v 142.921875 989.086670 -286.409637
v 193.419739 995.490845 -343.842926
v 243.636902 1010.488953 -300.498749
v 241.826355 1063.246216 -313.368378
v 188.514526 1047.323608 -359.383606
v 160.522400 1059.034180 -327.716827
v 210.739624 1074.032471 -284.372711
v 224.422302 1031.249756 -392.135468
v 274.639648 1046.247925 -348.791290
v 272.829102 1099.005371 -361.661041
v 219.517151 1083.082764 -407.676056
v 191.525085 1094.793213 -376.009247
v 241.742432 1109.791504 -332.665222
v 264.623718 1035.946045 -421.323151
v 296.946228 1045.599731 -393.424469
v 295.780945 1079.557129 -401.708160
v 261.466492 1069.308594 -431.326019
v 220.127869 1135.530762 -426.531860
v 192.135681 1147.241455 -394.865173
v 242.353027 1162.239624 -351.521149
v 273.439697 1151.453247 -380.516907
v 291.463806 1037.981689 -441.933594
v 313.254822 1044.489868 -423.125122
v 312.469421 1067.383179 -428.709991
v 289.335388 1060.473633 -448.677399
v 313.978394 1051.780884 -464.120819
v 327.600281 1055.849121 -452.363312
v 327.109070 1070.159912 -455.854279
v 312.647827 1065.840820 -468.336090
v 224.439636 1168.341187 -423.899841
v 205.827393 1176.127686 -402.844116
v 239.217468 1186.100342 -374.023987
v 259.887390 1178.928223 -393.303680
vn 0.4747 -0.8684 0.1433
vn -0.3427 0.9104 -0.2319
vn -0.4749 0.8678 -0.1463
vn -0.4272 -0.4017 0.8100
vn 0.3560 0.8248 0.4392
vn -0.6350 -0.5117 -0.5787
vn -0.2886 0.9310 -0.2235
vn 0.8192 0.4130 0.3979
vn -0.7758 -0.0710 -0.6269
vn 0.5007 -0.8655 0.0126
vn -0.7976 -0.2467 -0.5505
vn 0.8745 0.2870 0.3911
vn -0.7977 -0.2837 -0.5322
vn 0.3628 -0.9278 0.0872
vn 0.7933 0.4179 0.4427
vn 0.3695 -0.9263 0.0739
vn -0.2811 0.9301 -0.2365
vn 0.8905 0.2507 0.3798
vn 0.8144 0.4677 0.3435
vn 0.3085 -0.9323 0.1887
vn -0.7460 -0.4312 -0.5076
vn 0.8228 0.4345 0.3664
vn -0.7215 -0.4637 -0.5142
vn -0.6145 -0.4647 -0.6375
vn 0.5442 0.7546 0.3667
vn -0.8109 0.0079 -0.5851
vn 0.6952 0.4101 0.5904
vn -0.7443 0.3846 0.5460
vn -0.3181 0.9324 -0.1715
vn -0.7978 -0.4092 -0.4427
vn -0.3329 0.9318 -0.1444
vn 0.8324 0.3082 0.4606
vn -0.7959 -0.4134 -0.4424
vn -0.8345 -0.3034 -0.4600
vn 0.7877 0.3940 0.4735
vn 0.0299 -0.8065 0.5905
vn 0.8308 0.3126 0.4605
vn 0.7933 0.4204 0.4403
vn -0.8341 -0.3008 -0.4623
vn 0.3181 -0.9324 0.1715
vn 0.1833 0.5798 -0.7938
vn -0.6455 -0.5329 -0.5471
vn 0.9304 0.1655 0.3269
vn 0.1989 0.5588 -0.8051
vn 0.7874 0.5947 0.1623
vn -0.8412 -0.3279 -0.4299
vn -0.5598 0.6913 0.4570
vn 0.5598 -0.6913 -0.4570
vn -0.0846 0.8472 -0.5245
vn 0.9173 0.1901 0.3498
vn -0.6725 -0.5145 -0.5319
vn 0.0134 -0.7928 0.6094
vn 0.5724 -0.6197 -0.5369
vn 0.9132 0.1973 0.3565
vn -0.6807 -0.5088 -0.5271
vn 0.2240 -0.9173 0.3291
vn 0.1475 0.6258 -0.7660
vn -0.7299 -0.0777 -0.6791
vn 0.5788 -0.5229 -0.6257
vn -0.5088 0.8201 0.2620
vn 0.8084 -0.4581 0.3696
vn -0.6257 0.7686 -0.1332
vn -0.8094 0.4560 -0.3700
vn -0.3354 -0.7385 0.5849
vn -0.3898 0.7646 0.5132
vn 0.0739 -0.6528 -0.7539
vn -0.4688 0.8498 0.2408
vn 0.4185 0.5934 0.6876
vn -0.4188 -0.1556 -0.8947
vn 0.8166 -0.5716 0.0808
vn -0.7447 -0.0709 -0.6637
vn 0.8093 0.1994 0.5525
vn -0.7373 -0.1114 -0.6663
vn 0.5403 -0.7661 -0.3481
vn 0.7056 0.2693 0.6554
vn 0.5421 -0.7562 -0.3664
vn -0.4589 0.8568 0.2351
vn 0.8320 0.1765 0.5259
vn 0.7150 0.3651 0.5962
vn 0.4854 -0.8299 -0.2752
vn -0.6578 -0.2396 -0.7141
vn 0.7236 0.3335 0.6043
vn -0.6276 -0.2595 -0.7340
vn -0.1404 -0.5009 -0.8541
vn -0.0327 0.7901 0.6121
vn -0.3734 -0.3408 -0.8628
vn 0.0519 0.5920 0.8043
vn -0.9525 -0.2506 0.1731
vn -0.4945 0.8196 0.2894
vn -0.7118 -0.2627 -0.6514
vn -0.5084 0.8029 0.3112
vn 0.7654 0.1743 0.6195
vn -0.7090 -0.2661 -0.6531
vn -0.7683 -0.1709 -0.6168
vn 0.7053 0.2325 0.6697
vn 0.1948 -0.9745 0.1115
vn 0.7630 0.1778 0.6215
vn 0.7051 0.2726 0.6546
vn -0.7686 -0.1675 -0.6174
vn 0.4945 -0.8196 -0.2894
vn 0.0544 0.9225 -0.3823
vn -0.5403 -0.2882 -0.7906
vn 0.8867 0.1381 0.4412
vn 0.0736 0.9130 -0.4012
vn 0.6609 0.5590 0.5007
vn -0.7697 -0.2080 -0.6035
vn -0.6743 0.2568 0.6924
vn 0.6743 -0.2568 -0.6924
vn -0.2551 0.9661 -0.0388
vn 0.8696 0.1450 0.4721
vn -0.5701 -0.2850 -0.7706
vn 0.1763 -0.9753 0.1332
vn 0.6715 -0.1538 -0.7248
vn 0.8642 0.1470 0.4811
vn -0.5791 -0.2839 -0.7642
vn 0.4020 -0.9027 -0.1534
vn 0.0110 0.9410 -0.3383
vn -0.7130 0.1487 -0.6852
vn 0.6576 -0.0260 -0.7529
vn -0.6524 0.4728 0.5923
usemtl Matériau.012
s off
f 83//21 84//21 86//21 85//21
f 90//22 89//22 93//22 94//22
f 89//23 90//23 88//23 87//23
f 105//24 106//24 84//24 83//24
f 103//25 89//25 87//25 105//25
f 104//26 86//26 84//26 106//26
f 94//27 93//27 97//27 98//27
f 103//28 85//28 92//28 107//28
f 104//29 90//29 94//29 108//29
f 85//30 86//30 91//30 92//30
f 110//31 98//31 102//31 112//31
f 107//32 92//32 96//32 109//32
f 108//33 94//33 98//33 110//33
f 92//34 91//34 95//34 96//34
f 101//35 111//35 115//35 118//35
f 96//36 95//36 99//36 100//36
f 98//37 97//37 101//37 102//37
f 109//38 96//38 100//38 111//38
f 97//39 109//39 111//39 101//39
f 100//40 99//40 113//40 114//40
f 91//41 108//41 110//41 95//41
f 93//42 107//42 109//42 97//42
f 95//43 110//43 112//43 99//43
f 86//44 104//44 108//44 91//44
f 89//45 103//45 107//45 93//45
f 90//46 104//46 106//46 88//46
f 85//47 103//47 105//47 83//47
f 87//48 88//48 106//48 105//48
f 117//49 118//49 124//49 123//49
f 113//50 116//50 122//50 119//50
f 102//51 101//51 118//51 117//51
f 111//52 100//52 114//52 115//52
f 99//53 112//53 116//53 113//53
f 112//54 102//54 117//54 116//54
f 124//55 121//55 132//55 131//55
f 120//56 119//56 125//56 126//56
f 115//57 114//57 120//57 121//57
f 118//58 115//58 121//58 124//58
f 116//59 117//59 123//59 122//59
f 114//60 113//60 119//60 120//60
f 128//61 127//61 135//61 136//61
f 119//62 122//62 128//62 125//62
f 121//63 120//63 126//63 127//63
f 122//64 121//64 127//64 128//64
f 131//65 132//65 144//65 143//65
f 122//66 123//66 130//66 129//66
f 123//67 124//67 131//67 130//67
f 121//68 122//68 129//68 132//68
f 136//69 135//69 139//69 140//69
f 127//70 126//70 134//70 135//70
f 125//71 128//71 136//71 133//71
f 126//72 125//72 133//72 134//72
f 138//73 137//73 140//73 139//73
f 135//74 134//74 138//74 139//74
f 133//75 136//75 140//75 137//75
f 134//76 133//76 137//76 138//76
f 144//77 141//77 142//77 143//77
f 129//78 130//78 142//78 141//78
f 132//79 129//79 141//79 144//79
f 130//80 131//80 143//80 142//80
f 145//81 146//81 148//81 147//81
f 152//82 151//82 155//82 156//82
f 151//83 152//83 150//83 149//83
f 167//84 168//84 146//84 145//84
f 165//85 151//85 149//85 167//85
f 166//86 148//86 146//86 168//86
f 156//87 155//87 159//87 160//87
f 165//88 147//88 154//88 169//88
f 166//89 152//89 156//89 170//89
f 147//90 148//90 153//90 154//90
f 172//91 160//91 164//91 174//91
f 169//92 154//92 158//92 171//92
f 170//93 156//93 160//93 172//93
f 154//94 153//94 157//94 158//94
f 163//95 173//95 177//95 180//95
f 158//96 157//96 161//96 162//96
f 160//97 159//97 163//97 164//97
f 171//98 158//98 162//98 173//98
f 159//99 171//99 173//99 163//99
f 162//100 161//100 175//100 176//100
f 153//101 170//101 172//101 157//101
f 155//102 169//102 171//102 159//102
f 157//103 172//103 174//103 161//103
f 148//104 166//104 170//104 153//104
f 151//105 165//105 169//105 155//105
f 152//106 166//106 168//106 150//106
f 147//107 165//107 167//107 145//107
f 149//108 150//108 168//108 167//108
f 179//109 180//109 186//109 185//109
f 175//110 178//110 184//110 181//110
f 164//111 163//111 180//111 179//111
f 173//112 162//112 176//112 177//112
f 161//113 174//113 178//113 175//113
f 174//114 164//114 179//114 178//114
f 186//115 183//115 194//115 193//115
f 182//116 181//116 187//116 188//116
f 177//117 176//117 182//117 183//117
f 180//118 177//118 183//118 186//118
f 178//119 179//119 185//119 184//119
f 176//120 175//120 181//120 182//120
f 190//121 189//121 197//121 198//121
f 181//122 184//122 190//122 187//122
f 183//123 182//123 188//123 189//123
f 184//124 183//124 189//124 190//124
f 193//125 194//125 206//125 205//125
f 184//126 185//126 192//126 191//126
f 185//127 186//127 193//127 192//127
f 183//128 184//128 191//128 194//128
f 198//129 197//129 201//129 202//129
f 189//130 188//130 196//130 197//130
f 187//131 190//131 198//131 195//131
f 188//132 187//132 195//132 196//132
f 200//133 199//133 202//133 201//133
f 197//134 196//134 200//134 201//134
f 195//135 198//135 202//135 199//135
f 196//136 195//136 199//136 200//136
f 206//137 203//137 204//137 205//137
f 191//138 192//138 204//138 203//138
f 194//139 191//139 203//139 206//139
f 192//140 193//140 205//140 204//140
