# Blender v2.91.2 OBJ File: 'camionnete02.blend'
# www.blender.org
mtllib arme_000117.mtl
o Cube.046_Cube.010
v 168.952942 652.563232 -1210.022705
v 191.482483 433.311584 -1209.541504
v 235.600815 658.950989 -1420.013916
v 258.130310 439.699280 -1419.532959
v -39.923996 630.952942 -1276.974365
v -17.394547 411.701233 -1276.493164
v 26.723892 637.340637 -1486.965576
v 49.253326 418.088959 -1486.484619
v 77.192047 643.768555 -920.906189
v 99.721527 424.516968 -920.425110
v -109.155411 402.906616 -987.376587
v -131.684891 622.158325 -987.857605
v 35.664246 639.788513 -790.061890
v 58.193703 420.536774 -789.580872
v -150.683258 398.926453 -856.532349
v -173.212753 618.178101 -857.013428
v 11.131447 637.437195 -712.765076
v 31.778656 478.360321 -725.279419
v -177.098373 456.750031 -792.230957
v -197.745560 615.826843 -779.716492
v 91.508461 645.140747 -966.013611
v 114.037926 425.889069 -965.532593
v -117.368515 623.530457 -1032.965088
v -94.839066 404.278748 -1032.484131
v 212.072052 656.695923 -1345.880615
v 234.601517 437.444214 -1345.399658
v 3.195076 635.085571 -1412.832031
v 25.724609 415.833893 -1412.351074
v 131.162354 648.145874 -1453.489746
v 153.691818 428.894073 -1453.008789
v 64.514465 641.758179 -1243.498291
v 87.043976 422.506378 -1243.017334
v -27.246399 632.963440 -954.381836
v -4.716934 413.711761 -953.900757
v -68.774246 628.983337 -823.537659
v -42.042618 420.027924 -809.859497
v -93.307022 626.632019 -746.240784
v -59.854355 459.018494 -766.500854
v 9.599442 415.083862 -999.008362
v -12.930031 634.335571 -999.489380
v 130.163071 426.639008 -1378.875244
v 107.633591 645.890808 -1379.356201
v 183.381607 653.548401 -1436.751709
v 139.263199 427.908966 -1226.279541
v 47.502277 419.114349 -937.162903
v -6.831047 423.670868 -798.573120
v -24.642792 462.661469 -755.214478
v 39.289230 639.738159 -982.751465
v 159.852798 651.293335 -1362.618408
v 205.911072 434.296692 -1436.270996
v 116.733704 647.160706 -1226.760742
v 24.972809 638.366028 -937.644104
v -16.555023 634.385925 -806.799744
v -41.087784 632.034546 -729.502869
v 61.818680 420.486450 -982.270447
v 182.382233 432.041626 -1362.137451
v 66.037033 379.434570 -982.180359
v 13.817787 374.032013 -998.918213
v 186.600571 390.989746 -1362.047607
v 134.381378 385.587158 -1378.785156
v 91.262314 381.454498 -1242.927246
v 143.481567 386.857086 -1226.189453
v 294.382416 603.502747 -1279.631348
v 275.315552 601.675354 -1219.556396
v 285.278015 504.724487 -1219.343506
v 304.344696 506.551910 -1279.418701
v 339.519562 608.172729 -1265.163574
v 320.452759 606.345276 -1205.088379
v 330.415100 509.394409 -1204.875732
v 349.481934 511.221832 -1264.950684
v 408.593872 615.319092 -1243.023193
v 389.527100 613.491699 -1182.948242
v 399.489380 516.540833 -1182.735352
v 418.556152 518.368225 -1242.810547
v 453.042358 619.917664 -1228.776123
v 433.975525 618.090210 -1168.701172
v 443.937927 521.139465 -1168.488403
v 463.004639 522.966858 -1228.563477
v 424.862244 455.281921 -2126.132324
v 372.643005 449.879303 -2142.870117
v 350.113342 669.131042 -2143.351318
v 402.332703 674.533630 -2126.613281
vn 0.9477 0.0980 0.3038
vn 0.3024 0.0290 -0.9527
vn -0.9477 -0.0980 -0.3038
vn -0.1022 0.9948 -0.0022
vn 0.1022 -0.9948 0.0022
vn -0.1245 -0.7627 0.6347
vn 0.0175 -0.9998 0.0084
vn -0.3659 -0.1483 0.9188
vn -0.9480 -0.0986 -0.3025
vn 0.9480 0.0986 0.3025
vn 0.6509 0.0652 -0.7563
vn -0.2480 -0.1373 0.9590
vn 0.1310 -0.9903 0.0460
vn -0.2847 -0.1708 0.9433
vn 0.0821 -0.9945 0.0649
vn -0.3024 -0.0290 0.9527
vn 0.0949 0.0119 0.9954
vn 0.6082 -0.7755 0.1694
vn 0.4377 0.8837 0.1658
usemtl Matériau.011
s off
f 25//1 26//1 4//1 3//1
f 29//2 30//2 8//2 7//2
f 27//3 28//3 6//3 5//3
f 22//1 21//1 9//1 10//1
f 42//4 27//4 5//4 31//4
f 56//5 26//5 2//5 44//5
f 10//1 9//1 13//1 14//1
f 55//5 22//5 10//5 45//5
f 23//3 24//3 11//3 12//3
f 46//6 14//6 18//6 47//6
f 45//7 10//7 14//7 46//7
f 12//3 11//3 15//3 16//3
f 33//4 12//4 16//4 35//4
f 54//8 47//8 18//8 17//8
f 16//9 15//9 19//9 20//9
f 14//10 13//10 17//10 18//10
f 5//3 6//3 24//3 23//3
f 44//5 2//5 22//5 55//5
f 31//4 5//4 23//4 40//4
f 2//1 1//1 21//1 22//1
f 50//5 4//5 26//5 56//5
f 29//4 7//4 27//4 42//4
f 7//3 8//3 28//3 27//3
f 26//11 25//11 63//11 66//11
f 43//4 29//4 42//4 49//4
f 8//5 30//5 41//5 28//5
f 51//4 31//4 40//4 48//4
f 6//5 32//5 39//5 24//5
f 20//12 19//12 38//12 37//12
f 52//4 33//4 35//4 53//4
f 11//13 34//13 36//13 15//13
f 15//6 36//6 38//6 19//6
f 24//5 39//5 34//5 11//5
f 28//5 41//5 32//5 6//5
f 49//4 42//4 31//4 51//4
f 30//3 29//3 81//3 80//3
f 3//2 4//2 50//2 43//2
f 25//4 49//4 51//4 1//4
f 9//4 52//4 53//4 13//4
f 1//4 51//4 48//4 21//4
f 3//4 43//4 49//4 25//4
f 30//5 50//5 56//5 41//5
f 32//3 41//3 60//3 61//3
f 37//14 38//14 47//14 54//14
f 34//15 45//15 46//15 36//15
f 36//6 46//6 47//6 38//6
f 39//5 55//5 45//5 34//5
f 55//16 39//16 58//16 57//16
f 61//5 62//5 57//5 58//5
f 60//5 59//5 62//5 61//5
f 39//3 32//3 61//3 58//3
f 44//1 55//1 57//1 62//1
f 41//2 56//2 59//2 60//2
f 56//1 44//1 62//1 59//1
f 66//2 63//2 67//2 70//2
f 1//17 2//17 65//17 64//17
f 2//18 26//18 66//18 65//18
f 25//19 1//19 64//19 63//19
f 69//5 70//5 74//5 73//5
f 64//16 65//16 69//16 68//16
f 65//5 66//5 70//5 69//5
f 63//4 64//4 68//4 67//4
f 73//5 74//5 78//5 77//5
f 67//4 68//4 72//4 71//4
f 70//2 67//2 71//2 74//2
f 68//16 69//16 73//16 72//16
f 76//1 77//1 78//1 75//1
f 71//4 72//4 76//4 75//4
f 74//2 71//2 75//2 78//2
f 82//2 79//2 80//2 81//2
f 50//5 30//5 80//5 79//5
f 43//1 50//1 79//1 82//1
f 29//4 43//4 82//4 81//4
o Cube.048_Cube.024
v -542.142944 493.652557 155.567749
v -678.666382 319.327911 58.769936
v -411.376831 503.939392 -47.390259
v -547.273682 329.373627 -144.012360
v -694.075012 620.727844 -5.983536
v -764.074402 531.346802 -55.614479
v -627.027588 626.002258 -110.045799
v -696.611145 536.710083 -159.133728
v -387.125488 439.989380 -490.807648
v -294.252869 514.775696 -448.330353
v -367.890167 616.217529 -465.929718
v -460.762817 541.431274 -508.406952
v -309.011963 483.382202 -688.055847
v -240.729950 538.366699 -656.825684
v -294.869720 612.949036 -669.765137
v -363.151917 557.964539 -700.995361
v -259.808197 513.380371 -811.120667
v -209.908508 553.562378 -788.298218
v -249.473206 608.066101 -797.754089
v -299.372833 567.884155 -820.576660
v -492.266479 592.007263 -73.216118
v -636.364746 407.288818 -174.594849
v -631.197021 581.128540 142.220978
v -776.133362 396.061462 39.458214
v -326.245056 568.322571 -461.035736
v -424.840820 488.927673 -506.130524
v -259.074432 579.109985 -679.905640
v -331.564270 520.737061 -713.060425
v -218.616943 584.584167 -817.630798
v -271.591553 541.925964 -841.859924
v -224.725983 519.311646 -898.267334
v -174.826294 559.493530 -875.445007
v -183.434570 596.038452 -914.720703
v -236.409119 553.380310 -938.949768
v -264.205811 578.489563 -916.138245
v -214.306091 618.671509 -893.315613
v -200.289124 524.645996 -961.088074
v -150.389526 564.828003 -938.265503
v -158.997742 601.372742 -977.541199
v -211.972412 558.714722 -1001.770203
v -239.768951 583.823853 -978.958679
v -189.869385 624.005920 -956.136108
v -162.221008 515.445374 -992.011902
v -130.102966 541.308716 -977.321960
v -135.643616 564.830933 -1002.602112
v -169.741028 537.373901 -1018.197083
v -218.399475 591.877808 -1046.105347
v -246.196106 616.987000 -1023.294006
v -196.296448 657.169006 -1000.471375
v -165.424988 634.535950 -1021.876282
v -136.722717 507.768799 -1012.993958
v -115.069580 525.205139 -1003.090393
v -118.804993 541.063171 -1020.133484
v -141.792419 522.552368 -1030.647339
v -116.978943 508.659790 -1041.260010
v -103.443298 519.559448 -1035.069214
v -105.778320 529.472534 -1045.723145
v -120.148071 517.901123 -1052.295410
v -217.901550 620.892090 -1062.228882
v -236.383850 637.587463 -1047.061157
v -203.204956 664.304932 -1031.885986
v -182.678101 649.255981 -1046.118652
v -238.036041 583.038208 355.014740
v -323.613037 357.404785 367.808441
v -105.700134 518.237427 165.368423
v -190.604034 296.059570 175.602966
v -409.189331 574.143433 165.389450
v -453.067047 458.454803 171.949158
v -334.538055 545.164001 65.798393
v -384.869659 427.001404 73.400024
v -62.325073 162.965881 -101.084343
v 34.535583 179.270874 -22.821968
v 93.431885 249.501770 -108.120888
v -0.923157 233.567719 -186.335876
v 50.198364 -3.167664 -182.506989
v 121.295471 6.555908 -123.247169
v 166.439453 58.464050 -185.925995
v 95.342346 48.740356 -245.185852
v 123.176392 -105.807617 -233.547455
v 175.133118 -98.701660 -190.241089
v 208.123718 -60.767944 -236.045959
v 156.167053 -67.873840 -279.352295
v -193.911926 563.117859 105.917328
v -294.703552 324.281158 117.646767
v -345.058472 628.944336 308.114502
v -435.909027 389.406616 321.696625
v 70.438416 207.291351 -62.726570
v -32.222046 193.250854 -148.294739
v 154.083801 17.279419 -159.841400
v 78.605530 6.956787 -222.752991
v 204.787964 -101.882141 -222.006744
v 149.629517 -109.425842 -267.981781
v 161.486450 -185.233459 -266.477386
v 213.443115 -178.127319 -223.171051
v 250.063660 -186.181274 -262.494049
v 194.905029 -193.724915 -308.469055
v 200.371948 -151.424072 -318.677917
v 252.328674 -144.318054 -275.371582
v 189.669434 -241.573181 -291.045441
v 241.626160 -234.467224 -247.739105
v 278.246765 -242.521118 -287.062225
v 223.088318 -250.064880 -333.037262
v 228.554871 -207.763672 -343.246063
v 280.511719 -200.657776 -299.939667
v 204.275330 -288.395447 -281.856079
v 237.717590 -283.821716 -253.981598
v 261.288574 -289.005676 -279.292206
v 225.785461 -293.861145 -308.884186
v 258.716431 -264.416931 -373.427216
v 264.183228 -222.115906 -383.636108
v 316.140076 -215.009949 -340.329712
v 313.875061 -256.873230 -327.452301
v 212.782349 -320.606323 -275.577179
v 235.328247 -317.522949 -256.784943
v 251.219177 -321.017944 -273.848755
v 227.283997 -324.291260 -293.798889
v 227.877502 -351.305420 -279.970184
v 241.971130 -349.377808 -268.222992
v 251.904663 -351.562378 -278.889648
v 236.942566 -353.608643 -291.360596
v 287.801514 -263.835022 -389.419891
v 291.436462 -235.708496 -396.207794
v 325.983215 -230.983765 -367.412903
v 324.476990 -258.818970 -358.850433
vn 0.6229 -0.6904 0.3679
vn -0.5398 0.7489 -0.3843
vn -0.6229 0.6901 -0.3683
vn -0.3564 -0.2245 0.9070
vn 0.1956 0.9650 0.1749
vn -0.5272 -0.7592 -0.3817
vn -0.5527 0.8062 -0.2109
vn 0.7232 0.6442 0.2491
vn -0.7576 -0.3611 -0.5437
vn 0.6894 -0.7107 0.1402
vn -0.7588 -0.4816 -0.4384
vn 0.8033 0.5311 0.2696
vn -0.7468 -0.5162 -0.4193
vn 0.6072 -0.7917 0.0663
vn 0.6962 0.6388 0.3274
vn 0.6117 -0.7893 0.0522
vn -0.5467 0.8066 -0.2247
vn 0.8271 0.4997 0.2574
vn 0.6916 0.6864 0.2250
vn 0.5681 -0.8043 0.1740
vn -0.6548 -0.6430 -0.3973
vn 0.7112 0.6579 0.2476
vn -0.6234 -0.6682 -0.4060
vn -0.5242 -0.6997 -0.4855
vn 0.3799 0.9081 0.1763
vn -0.7905 -0.3038 -0.5317
vn 0.6023 0.6773 0.4225
vn -0.8080 0.3853 0.4458
vn -0.5754 0.8029 -0.1556
vn -0.7029 -0.6316 -0.3271
vn -0.5862 0.8001 -0.1269
vn 0.7652 0.5446 0.3432
vn -0.6999 -0.6351 -0.3268
vn -0.7684 -0.5406 -0.3425
vn 0.7009 0.6162 0.3593
vn 0.3136 -0.7326 0.6041
vn 0.7625 0.5484 0.3432
vn 0.6953 0.6411 0.3249
vn -0.7691 -0.5381 -0.3449
vn 0.5754 -0.8029 0.1556
vn -0.0719 0.5586 -0.8263
vn -0.5358 -0.7167 -0.4463
vn 0.8822 0.4252 0.2022
vn -0.0526 0.5417 -0.8389
vn 0.6109 0.7904 0.0452
vn -0.7649 -0.5641 -0.3111
vn -0.6696 0.5449 0.5047
vn 0.6696 -0.5449 -0.5047
vn -0.3694 0.7613 -0.5329
vn 0.8657 0.4467 0.2259
vn -0.5649 -0.7053 -0.4284
vn 0.2963 -0.7227 0.6245
vn 0.6533 -0.4776 -0.5875
vn 0.8606 0.4530 0.2329
vn -0.5736 -0.7016 -0.4228
vn 0.4993 -0.8038 0.3234
vn -0.1153 0.5950 -0.7954
vn -0.7544 -0.3089 -0.5792
vn 0.6231 -0.3881 -0.6791
vn -0.6778 0.6706 0.3014
vn 0.7524 -0.2552 0.6072
vn -0.1086 0.5524 -0.8265
vn -0.7431 0.2621 -0.6157
vn -0.3300 0.1777 0.9271
vn -0.0423 0.9437 -0.3281
vn -0.3070 -0.9475 0.0900
vn 0.5120 0.4877 -0.7072
vn 0.8486 0.5255 -0.0612
vn -0.6742 -0.5567 -0.4854
vn 0.3977 -0.5189 0.7567
vn -0.6573 -0.1183 -0.7443
vn 0.7468 -0.0113 0.6649
vn -0.6865 -0.1258 -0.7162
vn -0.4421 -0.6120 0.6558
vn 0.7919 0.1394 0.5946
vn -0.4436 -0.6316 0.6358
vn 0.5224 0.4791 -0.7054
vn 0.7400 -0.0417 0.6713
vn 0.8529 0.0882 0.5145
vn -0.5007 -0.5264 0.6871
vn -0.7633 -0.2141 -0.6096
vn 0.8401 0.1007 0.5330
vn -0.7703 -0.2482 -0.5875
vn -0.5907 -0.8062 -0.0329
vn 0.4828 0.7504 -0.4513
vn -0.6742 -0.6970 -0.2441
vn 0.4208 0.9072 0.0020
vn -0.8961 0.3550 0.2664
vn 0.4926 0.5430 -0.6801
vn -0.7884 -0.1325 -0.6007
vn 0.4795 0.5684 -0.6686
vn 0.7352 0.0732 0.6739
vn -0.7903 -0.1355 -0.5976
vn -0.7332 -0.0691 -0.6765
vn 0.7673 0.1503 0.6234
vn -0.6357 -0.0471 0.7705
vn 0.7374 0.0762 0.6711
vn 0.7940 0.1391 0.5918
vn -0.7308 -0.0694 -0.6791
vn -0.4926 -0.5430 0.6801
vn 0.6322 -0.3189 -0.7061
vn -0.7671 -0.3454 -0.5406
vn 0.7094 -0.1435 0.6900
vn 0.6282 -0.3457 -0.6970
vn 0.9473 0.0463 0.3170
vn -0.7589 -0.0585 -0.6486
vn 0.0882 0.9606 -0.2635
vn -0.0882 -0.9606 0.2635
vn 0.6224 0.1410 -0.7699
vn 0.7164 -0.1081 0.6893
vn -0.7732 -0.3118 -0.5522
vn -0.6386 -0.0187 0.7693
vn -0.0188 -0.9828 0.1838
vn 0.7183 -0.0976 0.6889
vn -0.7748 -0.3015 -0.5557
vn -0.5607 -0.3809 0.7352
vn 0.6392 -0.2575 -0.7246
vn -0.4742 -0.1482 -0.8678
vn 0.0660 -0.9943 0.0839
vn 0.2375 0.8720 -0.4280
usemtl Matériau.012
s off
f 83//20 84//20 86//20 85//20
f 90//21 89//21 93//21 94//21
f 89//22 90//22 88//22 87//22
f 105//23 106//23 84//23 83//23
f 103//24 89//24 87//24 105//24
f 104//25 86//25 84//25 106//25
f 94//26 93//26 97//26 98//26
f 103//27 85//27 92//27 107//27
f 104//28 90//28 94//28 108//28
f 85//29 86//29 91//29 92//29
f 110//30 98//30 102//30 112//30
f 107//31 92//31 96//31 109//31
f 108//32 94//32 98//32 110//32
f 92//33 91//33 95//33 96//33
f 101//34 111//34 115//34 118//34
f 96//35 95//35 99//35 100//35
f 98//36 97//36 101//36 102//36
f 109//37 96//37 100//37 111//37
f 97//38 109//38 111//38 101//38
f 100//39 99//39 113//39 114//39
f 91//40 108//40 110//40 95//40
f 93//41 107//41 109//41 97//41
f 95//42 110//42 112//42 99//42
f 86//43 104//43 108//43 91//43
f 89//44 103//44 107//44 93//44
f 90//45 104//45 106//45 88//45
f 85//46 103//46 105//46 83//46
f 87//47 88//47 106//47 105//47
f 117//48 118//48 124//48 123//48
f 113//49 116//49 122//49 119//49
f 102//50 101//50 118//50 117//50
f 111//51 100//51 114//51 115//51
f 99//52 112//52 116//52 113//52
f 112//53 102//53 117//53 116//53
f 124//54 121//54 132//54 131//54
f 120//55 119//55 125//55 126//55
f 115//56 114//56 120//56 121//56
f 118//57 115//57 121//57 124//57
f 116//58 117//58 123//58 122//58
f 114//59 113//59 119//59 120//59
f 128//60 127//60 135//60 136//60
f 119//61 122//61 128//61 125//61
f 121//62 120//62 126//62 127//62
f 122//63 121//63 127//63 128//63
f 131//64 132//64 144//64 143//64
f 122//65 123//65 130//65 129//65
f 123//66 124//66 131//66 130//66
f 121//67 122//67 129//67 132//67
f 136//68 135//68 139//68 140//68
f 127//69 126//69 134//69 135//69
f 125//70 128//70 136//70 133//70
f 126//71 125//71 133//71 134//71
f 138//72 137//72 140//72 139//72
f 135//73 134//73 138//73 139//73
f 133//74 136//74 140//74 137//74
f 134//75 133//75 137//75 138//75
f 144//76 141//76 142//76 143//76
f 129//77 130//77 142//77 141//77
f 132//78 129//78 141//78 144//78
f 130//79 131//79 143//79 142//79
f 145//80 146//80 148//80 147//80
f 152//81 151//81 155//81 156//81
f 151//82 152//82 150//82 149//82
f 167//83 168//83 146//83 145//83
f 165//84 151//84 149//84 167//84
f 166//85 148//85 146//85 168//85
f 156//86 155//86 159//86 160//86
f 165//87 147//87 154//87 169//87
f 166//88 152//88 156//88 170//88
f 147//89 148//89 153//89 154//89
f 172//90 160//90 164//90 174//90
f 169//91 154//91 158//91 171//91
f 170//92 156//92 160//92 172//92
f 154//93 153//93 157//93 158//93
f 163//94 173//94 177//94 180//94
f 158//95 157//95 161//95 162//95
f 160//96 159//96 163//96 164//96
f 171//97 158//97 162//97 173//97
f 159//98 171//98 173//98 163//98
f 162//99 161//99 175//99 176//99
f 153//100 170//100 172//100 157//100
f 155//101 169//101 171//101 159//101
f 157//102 172//102 174//102 161//102
f 148//103 166//103 170//103 153//103
f 151//104 165//104 169//104 155//104
f 152//105 166//105 168//105 150//105
f 147//106 165//106 167//106 145//106
f 149//107 150//107 168//107 167//107
f 179//108 180//108 186//108 185//108
f 175//109 178//109 184//109 181//109
f 164//110 163//110 180//110 179//110
f 173//111 162//111 176//111 177//111
f 161//112 174//112 178//112 175//112
f 174//113 164//113 179//113 178//113
f 186//114 183//114 194//114 193//114
f 182//115 181//115 187//115 188//115
f 177//116 176//116 182//116 183//116
f 180//117 177//117 183//117 186//117
f 178//118 179//118 185//118 184//118
f 176//119 175//119 181//119 182//119
f 190//120 189//120 197//120 198//120
f 181//121 184//121 190//121 187//121
f 183//122 182//122 188//122 189//122
f 184//123 183//123 189//123 190//123
f 193//124 194//124 206//124 205//124
f 184//125 185//125 192//125 191//125
f 185//126 186//126 193//126 192//126
f 183//127 184//127 191//127 194//127
f 198//128 197//128 201//128 202//128
f 189//129 188//129 196//129 197//129
f 187//130 190//130 198//130 195//130
f 188//131 187//131 195//131 196//131
f 200//132 199//132 202//132 201//132
f 197//133 196//133 200//133 201//133
f 195//134 198//134 202//134 199//134
f 196//135 195//135 199//135 200//135
f 206//136 203//136 204//136 205//136
f 191//137 192//137 204//137 203//137
f 194//138 191//138 203//138 206//138
f 192//139 193//139 205//139 204//139
