# Blender v2.91.2 OBJ File: 'camionnete02.blend'
# www.blender.org
mtllib arme_000007.mtl
o Cube.046_Cube.010
v 345.967407 329.998718 -1031.857544
v 340.212280 109.742294 -1026.104248
v 460.874817 322.087738 -1219.774414
v 455.119690 101.831329 -1214.021362
v 157.972031 331.906097 -1146.893188
v 152.216858 111.649643 -1141.139771
v 272.879425 323.995117 -1334.809937
v 267.124298 103.738678 -1329.057007
v 187.762650 340.890503 -773.133057
v 182.007507 120.634140 -767.379761
v -5.987826 122.541489 -882.415344
v -0.232685 342.797913 -888.168579
v 116.164658 345.819824 -656.043152
v 110.409515 125.563385 -650.289917
v -77.585892 127.470749 -765.325500
v -71.830750 347.727203 -771.078796
v 73.867737 348.731812 -586.871765
v 76.892609 188.026657 -594.156616
v -111.102829 189.934052 -709.192200
v -114.127686 350.639160 -701.907288
v 121.901993 565.395325 -661.778625
v -66.093384 567.302673 -776.814270
v 79.605087 568.307312 -592.607239
v -108.390289 570.214661 -707.642822
v 212.445511 339.191223 -813.498779
v 206.690353 118.934814 -807.745544
v 24.450146 341.098572 -928.534424
v 18.694979 120.842148 -922.781189
v 189.662445 413.598816 -775.032227
v 1.667113 415.506226 -890.067871
v 214.345322 411.899506 -815.397949
v 26.349945 413.806854 -930.433472
v 192.418823 519.086670 -777.787659
v 4.423458 520.994080 -892.823120
v 217.101624 517.387268 -818.153442
v 29.106304 519.294739 -933.188965
v 119.682678 418.416687 -660.588806
v -68.312698 420.324036 -775.624390
v 122.439011 523.904602 -663.344116
v -65.556374 525.811890 -778.379761
v 152.178940 700.249329 -709.022278
v -35.816425 702.156677 -824.057922
v 109.882019 703.161255 -639.850891
v -78.113297 705.068604 -754.886414
v 420.308899 324.880554 -1153.434082
v 414.553802 104.624146 -1147.680786
v 232.313538 326.787964 -1268.469604
v 226.558411 106.531494 -1262.716309
v 366.877106 323.041443 -1277.292236
v 361.121979 102.785004 -1271.539185
v 251.969711 330.952393 -1089.375366
v 246.214554 110.695969 -1083.622070
v 93.764984 341.844208 -830.650818
v 88.009827 121.587814 -824.897522
v 22.166962 346.773529 -713.560974
v 18.607321 136.611481 -693.983154
v -20.129944 349.685486 -644.389526
v -3.993204 178.730637 -656.132324
v 27.904285 566.348999 -719.296387
v -14.392595 569.260986 -650.125061
v 112.692688 119.888474 -865.263306
v 118.447830 340.144897 -871.016602
v 95.664795 414.552521 -832.550049
v 120.347626 412.853149 -872.915710
v 98.421143 520.040405 -835.305359
v 123.103973 518.341003 -875.671143
v 25.684994 419.370392 -718.106628
v 28.441326 524.858215 -720.861938
v 58.181248 701.203064 -766.540100
v 15.884342 704.114929 -697.368652
v 320.556091 105.577820 -1205.198608
v 326.311218 325.834290 -1210.951782
v 413.875977 322.564606 -1248.533325
v 293.213409 110.219131 -1054.863159
v 135.008667 121.110977 -796.138672
v 50.298759 136.289932 -674.591003
v 27.698242 178.409088 -636.740112
v 165.446686 339.668030 -842.257629
v 167.346466 412.376312 -844.156799
v 170.102783 517.864197 -846.912292
v 373.310059 325.357422 -1182.192871
v 408.120850 102.308167 -1242.780273
v 298.968567 330.475555 -1060.616577
v 140.763809 341.367340 -801.891968
v 69.165787 346.296661 -684.802002
v 26.868885 349.208649 -615.630615
v 74.903152 565.872131 -690.537476
v 32.606258 568.784119 -621.366089
v 159.691544 119.411652 -836.504456
v 142.663651 414.075684 -803.791138
v 145.419968 519.563599 -806.546509
v 72.683838 418.893524 -689.347656
v 75.440155 524.381409 -692.103027
v 105.180115 700.726135 -737.781189
v 62.883198 703.638123 -668.609741
v 367.554901 105.100967 -1176.439819
v 158.613953 78.171631 -835.427246
v 111.615112 78.648468 -864.186096
v 366.477356 63.860973 -1175.362549
v 319.478546 64.337799 -1204.121460
v 245.136978 69.455948 -1082.544922
v 292.135864 68.979126 -1053.785889
v 477.219727 264.073364 -1069.427490
v 444.346619 266.336517 -1015.667542
v 441.801880 168.941391 -1013.123352
v 474.674835 166.678177 -1066.883423
v 517.844482 263.661163 -1044.568970
v 484.971497 265.924347 -990.809021
v 482.426697 168.529221 -988.264954
v 515.299683 166.266037 -1042.024902
v 580.013428 263.030426 -1006.527527
v 547.140381 265.293610 -952.767517
v 544.595581 167.898514 -950.223450
v 577.468628 165.635300 -1003.983521
v 620.018433 262.624542 -982.048340
v 587.145264 264.887726 -928.288330
v 584.600525 167.492615 -925.744324
v 617.473511 165.229416 -979.504211
v 785.613770 76.319443 -1860.123047
v 738.614929 76.796280 -1888.881958
v 744.369934 297.052734 -1894.635132
v 791.368835 296.575867 -1865.876221
v 86.909302 765.867371 -781.260437
v 0.295512 766.746155 -834.260010
v 47.934986 768.550598 -717.522583
v -38.678757 769.429321 -770.522095
v 134.548767 767.671814 -664.523193
v 173.523117 764.988708 -728.260681
v 130.216232 765.428223 -754.760437
v 91.241882 768.111206 -691.022888
vn 0.8529 -0.0087 0.5219
vn 0.5213 -0.0359 -0.8526
vn -0.8529 0.0087 -0.5219
vn 0.0261 0.9993 -0.0261
vn -0.0261 -0.9993 0.0261
vn -0.5213 0.0359 0.8526
vn -0.3659 -0.7230 0.5860
vn -0.1098 -0.9939 0.0118
vn -0.5893 -0.0757 0.8043
vn -0.8537 0.0082 -0.5208
vn 0.8537 -0.0082 0.5208
vn 0.4791 -0.3841 -0.7893
vn 0.4775 -0.3912 -0.7868
vn -0.4791 0.3841 0.7893
vn 0.8149 -0.0364 -0.5784
vn -0.7883 0.3622 -0.4973
vn -0.4840 -0.0780 0.8716
vn -0.0083 -0.9971 0.0755
vn -0.4586 0.4650 0.7573
vn -0.5197 -0.1073 0.8476
vn -0.0604 -0.9948 0.0822
vn -0.1436 0.0296 0.9892
vn 0.4489 -0.8382 0.3098
vn 0.4924 0.8286 0.2662
vn 0.8443 -0.1234 0.5215
usemtl Matériau.011
s off
f 45//1 46//1 4//1 3//1
f 49//2 50//2 8//2 7//2
f 47//3 48//3 6//3 5//3
f 26//1 25//1 9//1 10//1
f 72//4 47//4 5//4 51//4
f 96//5 46//5 2//5 74//5
f 10//1 9//1 13//1 14//1
f 84//6 9//6 29//6 90//6
f 89//5 26//5 10//5 75//5
f 27//3 28//3 11//3 12//3
f 76//7 14//7 18//7 77//7
f 75//8 10//8 14//8 76//8
f 12//3 11//3 15//3 16//3
f 53//4 12//4 16//4 55//4
f 86//9 77//9 18//9 17//9
f 16//10 15//10 19//10 20//10
f 16//3 20//3 24//3 22//3
f 14//11 13//11 17//11 18//11
f 59//12 22//12 42//12 69//12
f 86//6 17//6 23//6 88//6
f 17//1 13//1 21//1 23//1
f 55//2 16//2 22//2 59//2
f 5//3 6//3 28//3 27//3
f 74//5 2//5 26//5 89//5
f 51//4 5//4 27//4 62//4
f 2//1 1//1 25//1 26//1
f 32//3 30//3 34//3 36//3
f 62//2 27//2 32//2 64//2
f 27//3 12//3 30//3 32//3
f 9//1 25//1 31//1 29//1
f 66//4 36//4 34//4 65//4
f 90//5 29//5 37//5 92//5
f 64//2 32//2 36//2 66//2
f 29//1 31//1 35//1 33//1
f 92//6 37//6 39//6 93//6
f 29//1 33//1 39//1 37//1
f 34//3 30//3 38//3 40//3
f 65//4 34//4 40//4 68//4
f 69//13 42//13 124//13 123//13
f 23//1 21//1 41//1 43//1
f 88//14 23//14 43//14 95//14
f 22//3 24//3 44//3 42//3
f 82//5 4//5 46//5 96//5
f 49//4 7//4 47//4 72//4
f 7//3 8//3 48//3 47//3
f 46//15 45//15 103//15 106//15
f 73//4 49//4 72//4 81//4
f 8//5 50//5 71//5 48//5
f 24//14 60//14 70//14 44//14
f 42//16 44//16 126//16 124//16
f 91//4 65//4 68//4 93//4
f 38//6 67//6 68//6 40//6
f 79//2 64//2 66//2 80//2
f 30//5 63//5 67//5 38//5
f 80//4 66//4 65//4 91//4
f 78//2 62//2 64//2 79//2
f 83//4 51//4 62//4 78//4
f 6//5 52//5 61//5 28//5
f 85//2 55//2 59//2 87//2
f 20//6 57//6 60//6 24//6
f 87//12 59//12 69//12 94//12
f 20//17 19//17 58//17 57//17
f 84//4 53//4 55//4 85//4
f 11//18 54//18 56//18 15//18
f 15//7 56//7 58//7 19//7
f 28//5 61//5 54//5 11//5
f 12//6 53//6 63//6 30//6
f 48//5 71//5 52//5 6//5
f 81//4 72//4 51//4 83//4
f 50//3 49//3 121//3 120//3
f 3//2 4//2 82//2 73//2
f 45//4 81//4 83//4 1//4
f 9//4 84//4 85//4 13//4
f 21//12 87//12 94//12 41//12
f 13//2 85//2 87//2 21//2
f 1//4 83//4 78//4 25//4
f 25//2 78//2 79//2 31//2
f 35//4 80//4 91//4 33//4
f 31//2 79//2 80//2 35//2
f 33//4 91//4 93//4 39//4
f 70//19 95//19 130//19 125//19
f 3//4 73//4 81//4 45//4
f 50//5 82//5 96//5 71//5
f 60//14 88//14 95//14 70//14
f 67//6 92//6 93//6 68//6
f 63//5 90//5 92//5 67//5
f 52//3 71//3 100//3 101//3
f 57//6 86//6 88//6 60//6
f 57//20 58//20 77//20 86//20
f 54//21 75//21 76//21 56//21
f 56//7 76//7 77//7 58//7
f 61//5 89//5 75//5 54//5
f 53//6 84//6 90//6 63//6
f 89//6 61//6 98//6 97//6
f 101//5 102//5 97//5 98//5
f 100//5 99//5 102//5 101//5
f 61//3 52//3 101//3 98//3
f 74//1 89//1 97//1 102//1
f 71//2 96//2 99//2 100//2
f 96//1 74//1 102//1 99//1
f 106//2 103//2 107//2 110//2
f 1//22 2//22 105//22 104//22
f 2//23 46//23 106//23 105//23
f 45//24 1//24 104//24 103//24
f 109//5 110//5 114//5 113//5
f 104//6 105//6 109//6 108//6
f 105//5 106//5 110//5 109//5
f 103//4 104//4 108//4 107//4
f 113//5 114//5 118//5 117//5
f 107//4 108//4 112//4 111//4
f 110//2 107//2 111//2 114//2
f 108//6 109//6 113//6 112//6
f 116//1 117//1 118//1 115//1
f 111//4 112//4 116//4 115//4
f 114//2 111//2 115//2 118//2
f 122//2 119//2 120//2 121//2
f 82//5 50//5 120//5 119//5
f 73//1 82//1 119//1 122//1
f 49//4 73//4 122//4 121//4
f 123//4 124//4 126//4 125//4
f 129//4 123//4 125//4 130//4
f 128//4 129//4 130//4 127//4
f 95//19 43//19 127//19 130//19
f 94//13 69//13 123//13 129//13
f 43//25 41//25 128//25 127//25
f 44//19 70//19 125//19 126//19
f 41//13 94//13 129//13 128//13
o Cube.048_Cube.024
v -564.209595 468.100037 182.413269
v -727.402283 342.412933 56.046867
v -422.857056 481.189148 -13.151772
v -586.172546 355.836731 -139.257050
v -678.090027 646.650085 39.299839
v -761.763428 582.206787 -25.491737
v -605.614624 653.361267 -60.971840
v -689.247681 589.021545 -125.724449
v -351.243164 451.311462 -438.966858
v -262.547058 515.505737 -375.447418
v -316.648346 624.563477 -410.118744
v -405.344452 560.369141 -473.638092
v -223.704407 479.101440 -611.747559
v -158.493103 526.298462 -565.046509
v -198.269653 606.480164 -590.537537
v -263.481049 559.283142 -637.238525
v -143.316162 499.285339 -719.433167
v -95.660461 533.776367 -685.304749
v -124.728699 592.372009 -703.933105
v -172.384338 557.881042 -738.061584
v -482.840698 587.069397 -26.734863
v -656.114014 454.044891 -160.637054
v -632.913879 573.162842 180.880463
v -806.162903 439.730560 46.727013
v -283.667633 572.138672 -395.417877
v -377.829498 503.988586 -462.851593
v -165.597717 568.268799 -591.827820
v -234.827698 518.163330 -641.406677
v -93.209167 564.749390 -715.853882
v -143.801453 528.132935 -752.085449
v -88.069458 498.357300 -795.639587
v -40.413818 532.848267 -761.511292
v -34.813965 568.996948 -801.687378
v -85.406128 532.380493 -837.919067
v -114.472961 561.333069 -822.415466
v -66.817444 595.824036 -788.286987
v -48.933472 498.842072 -850.777466
v -1.278015 533.333130 -816.648926
v 4.321899 569.481750 -856.825256
v -46.270325 532.865356 -893.056946
v -75.337097 561.817871 -877.553345
v -27.681458 596.308838 -843.424866
v -6.059998 484.190613 -871.689514
v 24.613708 506.390930 -849.722473
v 28.218201 529.658203 -875.582275
v -4.345886 506.089844 -898.902771
v -37.788635 565.245667 -937.624573
v -66.855469 594.198181 -922.121033
v -19.199829 628.689209 -887.992798
v 12.803650 601.862122 -901.393188
v 22.531982 472.866882 -885.958557
v 43.211365 487.833710 -871.148987
v 45.641357 503.519836 -888.582825
v 23.687622 487.630737 -904.304871
v 48.380371 470.527344 -908.673523
v 61.307373 479.883301 -899.415833
v 62.826477 489.688904 -910.314026
v 49.102905 479.756378 -920.142151
v -29.858521 593.499207 -953.145264
v -49.185364 612.750122 -942.836670
v -17.498596 635.683594 -920.144287
v 3.780945 617.845886 -929.054504
v -289.670654 594.828857 359.496674
v -285.935516 354.182495 337.750153
v -167.386780 619.037720 148.674957
v -164.974548 374.872345 129.572510
v -468.460022 548.907104 182.703400
v -466.544922 425.520935 171.553375
v -406.104858 560.969482 75.325653
v -404.524841 436.129181 64.814865
v -22.590515 429.068085 -227.712494
v -12.196716 554.835327 -242.802185
v -121.843567 556.352539 -306.023468
v -132.225403 430.497070 -290.964264
v 70.368164 414.077606 -422.713776
v 78.129456 506.118225 -434.087128
v -2.476685 507.168854 -480.591156
v -10.237854 415.128143 -469.217865
v 126.959595 406.732788 -546.039917
v 132.631531 473.994873 -554.351501
v 73.725647 474.762604 -588.335938
v 68.053772 407.500549 -580.024414
v -281.200012 628.897400 104.618004
v -278.636810 369.719116 84.335182
v -411.017151 603.230103 328.428040
v -407.051788 347.754211 305.341461
v -63.768127 558.001587 -280.083893
v -74.974915 425.099701 -263.661285
v 47.360413 506.697021 -473.863495
v 39.120911 408.984589 -461.789154
v 116.739746 472.444000 -594.893188
v 110.718384 401.037079 -586.069519
v 176.380920 392.816406 -624.934631
v 182.052612 460.078552 -633.245911
v 166.016846 457.144836 -685.077087
v 159.995483 385.737854 -676.253357
v 117.353149 392.413849 -668.473206
v 123.024902 459.675964 -676.784668
v 210.743347 382.829437 -682.306458
v 216.415100 450.091553 -690.617859
v 200.379333 447.157837 -742.449036
v 194.357971 375.750824 -733.625305
v 151.715454 382.426880 -725.844910
v 157.387207 449.689026 -734.156372
v 253.960022 388.433502 -706.617493
v 257.610779 431.727142 -711.967224
v 247.289246 429.838806 -745.328735
v 243.413574 383.877380 -739.649170
v 183.529541 369.945892 -787.992126
v 140.887085 376.621887 -780.211914
v 146.558838 443.883972 -788.523193
v 189.550781 441.352844 -796.815857
v 283.897095 391.183777 -722.287231
v 286.358276 420.371124 -725.893860
v 279.399963 419.098053 -748.385437
v 276.787048 388.112152 -744.556580
v 306.719299 391.652985 -748.143066
v 308.257812 409.898376 -750.397522
v 303.907959 409.102631 -764.457092
v 302.274658 389.732910 -762.063599
v 171.530518 379.553314 -817.416077
v 143.176880 383.992310 -812.242676
v 146.948120 428.715759 -817.768982
v 175.534058 427.032745 -823.282898
vn 0.4492 -0.8526 0.2669
vn -0.3633 0.8554 -0.3691
vn -0.4492 0.8525 -0.2673
vn -0.4447 -0.2784 0.8513
vn 0.3758 0.8661 0.3296
vn -0.6461 -0.5709 -0.5067
vn -0.3818 0.8607 -0.3368
vn 0.7851 0.4741 0.3986
vn -0.7449 -0.1542 -0.6492
vn 0.5217 -0.8404 0.1467
vn -0.6869 -0.3988 -0.6076
vn 0.7760 0.4375 0.4544
vn -0.6842 -0.4339 -0.5862
vn 0.4705 -0.8572 0.2094
vn 0.6725 0.5591 0.4849
vn 0.4785 -0.8558 0.1968
vn -0.3727 0.8600 -0.3487
vn 0.7979 0.4032 0.4482
vn 0.6983 0.6038 0.3844
vn 0.4056 -0.8618 0.3046
vn -0.6165 -0.5703 -0.5429
vn 0.7083 0.5739 0.4110
vn -0.5873 -0.5994 -0.5438
vn -0.5669 -0.5474 -0.6156
vn 0.5160 0.8015 0.3021
vn -0.8078 -0.0462 -0.5877
vn 0.7017 0.4666 0.5384
vn -0.7375 0.4738 0.4812
vn -0.4171 0.8618 -0.2885
vn -0.6782 -0.5511 -0.4862
vn -0.4348 0.8612 -0.2632
vn 0.7235 0.4577 0.5168
vn -0.6757 -0.5549 -0.4853
vn -0.7262 -0.4533 -0.5168
vn 0.6666 0.5370 0.5170
vn 0.0672 -0.7472 0.6612
vn 0.7214 0.4618 0.5161
vn 0.6725 0.5614 0.4823
vn -0.7260 -0.4508 -0.5193
vn 0.4171 -0.8618 0.2885
vn 0.1968 0.5387 -0.8192
vn -0.4994 -0.6593 -0.5620
vn 0.8548 0.3209 0.4078
vn 0.2163 0.5192 -0.8268
vn 0.6763 0.7116 0.1906
vn -0.7332 -0.4761 -0.4855
vn -0.6970 0.6366 0.3299
vn 0.6970 -0.6366 -0.3299
vn -0.1342 0.7845 -0.6054
vn 0.8360 0.3449 0.4269
vn -0.5303 -0.6439 -0.5516
vn 0.0469 -0.7346 0.6769
vn 0.7094 -0.5703 -0.4142
vn 0.8301 0.3520 0.4324
vn -0.5396 -0.6390 -0.5482
vn 0.3039 -0.8485 0.4332
vn 0.1522 0.5809 -0.7996
vn -0.6276 -0.2321 -0.7432
vn 0.7132 -0.4805 -0.5103
vn -0.6410 0.7564 0.1306
vn 0.8659 -0.0311 0.4993
vn -0.7978 0.0171 -0.6026
vn -0.8657 0.0314 -0.4995
vn -0.2529 -0.0910 0.9632
vn -0.4423 0.8832 -0.1560
vn 0.0687 -0.9959 -0.0591
vn -0.8253 0.0002 -0.5646
vn 0.1310 0.9854 -0.1086
vn -0.2931 -0.9191 -0.2632
vn 0.9289 -0.0241 0.3695
vn -0.1354 -0.9906 -0.0207
vn 0.1879 0.9701 -0.1537
vn -0.1118 -0.9936 0.0130
vn 0.9018 -0.0227 0.4316
vn 0.0295 0.9880 -0.1518
vn 0.9080 -0.0249 0.4182
vn -0.8168 -0.0024 -0.5769
vn 0.2312 0.9619 -0.1459
vn 0.0295 0.9645 -0.2623
vn 0.8470 -0.0057 0.5316
vn 0.0253 -0.9954 0.0921
vn 0.0586 0.9718 -0.2285
vn 0.0663 -0.9932 0.0957
vn 0.1044 -0.9892 -0.1025
vn -0.2706 0.9246 -0.2683
vn -0.4029 -0.8577 -0.3194
vn 0.0343 0.9905 0.1335
vn -0.9229 -0.0488 0.3820
vn -0.8572 0.0087 -0.5149
vn -0.0389 -0.9881 0.1487
vn -0.8724 0.0132 -0.4885
vn 0.1319 0.9868 -0.0935
vn -0.0346 -0.9880 0.1505
vn -0.1370 -0.9863 0.0922
vn 0.0366 0.9929 -0.1133
vn 0.4825 0.0672 0.8733
vn 0.1277 0.9872 -0.0954
vn 0.0282 0.9875 -0.1550
vn -0.1382 -0.9864 0.0889
vn 0.8572 -0.0087 0.5149
vn -0.1308 -0.1107 -0.9852
vn 0.1725 -0.9817 0.0803
vn 0.3337 0.9297 -0.1559
vn -0.1026 -0.1135 -0.9882
vn -0.0366 0.8869 -0.4605
vn -0.1300 -0.9828 0.1308
vn -0.9774 0.1051 0.1834
vn 0.9774 -0.1051 -0.1835
vn -0.5630 -0.0544 -0.8247
vn 0.3012 0.9422 -0.1465
vn 0.1386 -0.9861 0.0918
vn 0.4574 0.0710 0.8864
vn 0.9507 -0.1157 -0.2876
vn 0.2915 0.9457 -0.1437
vn 0.1282 -0.9872 0.0952
vn 0.7494 0.0186 0.6618
vn -0.1943 -0.1041 -0.9754
vn -0.1918 -0.9534 -0.2331
vn 0.9033 -0.1268 -0.4098
vn -0.9956 0.0774 -0.0534
usemtl Matériau.012
s off
f 131//26 132//26 134//26 133//26
f 138//27 137//27 141//27 142//27
f 137//28 138//28 136//28 135//28
f 153//29 154//29 132//29 131//29
f 151//30 137//30 135//30 153//30
f 152//31 134//31 132//31 154//31
f 142//32 141//32 145//32 146//32
f 151//33 133//33 140//33 155//33
f 152//34 138//34 142//34 156//34
f 133//35 134//35 139//35 140//35
f 158//36 146//36 150//36 160//36
f 155//37 140//37 144//37 157//37
f 156//38 142//38 146//38 158//38
f 140//39 139//39 143//39 144//39
f 149//40 159//40 163//40 166//40
f 144//41 143//41 147//41 148//41
f 146//42 145//42 149//42 150//42
f 157//43 144//43 148//43 159//43
f 145//44 157//44 159//44 149//44
f 148//45 147//45 161//45 162//45
f 139//46 156//46 158//46 143//46
f 141//47 155//47 157//47 145//47
f 143//48 158//48 160//48 147//48
f 134//49 152//49 156//49 139//49
f 137//50 151//50 155//50 141//50
f 138//51 152//51 154//51 136//51
f 133//52 151//52 153//52 131//52
f 135//53 136//53 154//53 153//53
f 165//54 166//54 172//54 171//54
f 161//55 164//55 170//55 167//55
f 150//56 149//56 166//56 165//56
f 159//57 148//57 162//57 163//57
f 147//58 160//58 164//58 161//58
f 160//59 150//59 165//59 164//59
f 172//60 169//60 180//60 179//60
f 168//61 167//61 173//61 174//61
f 163//62 162//62 168//62 169//62
f 166//63 163//63 169//63 172//63
f 164//64 165//64 171//64 170//64
f 162//65 161//65 167//65 168//65
f 176//66 175//66 183//66 184//66
f 167//67 170//67 176//67 173//67
f 169//68 168//68 174//68 175//68
f 170//69 169//69 175//69 176//69
f 179//70 180//70 192//70 191//70
f 170//71 171//71 178//71 177//71
f 171//72 172//72 179//72 178//72
f 169//73 170//73 177//73 180//73
f 184//74 183//74 187//74 188//74
f 175//75 174//75 182//75 183//75
f 173//76 176//76 184//76 181//76
f 174//77 173//77 181//77 182//77
f 186//78 185//78 188//78 187//78
f 183//79 182//79 186//79 187//79
f 181//80 184//80 188//80 185//80
f 182//81 181//81 185//81 186//81
f 192//82 189//82 190//82 191//82
f 177//83 178//83 190//83 189//83
f 180//84 177//84 189//84 192//84
f 178//85 179//85 191//85 190//85
f 193//86 194//86 196//86 195//86
f 200//87 199//87 203//87 204//87
f 199//88 200//88 198//88 197//88
f 215//89 216//89 194//89 193//89
f 213//90 199//90 197//90 215//90
f 214//91 196//91 194//91 216//91
f 204//92 203//92 207//92 208//92
f 213//93 195//93 202//93 217//93
f 214//94 200//94 204//94 218//94
f 195//95 196//95 201//95 202//95
f 220//96 208//96 212//96 222//96
f 217//97 202//97 206//97 219//97
f 218//98 204//98 208//98 220//98
f 202//99 201//99 205//99 206//99
f 211//100 221//100 225//100 228//100
f 206//101 205//101 209//101 210//101
f 208//102 207//102 211//102 212//102
f 219//103 206//103 210//103 221//103
f 207//104 219//104 221//104 211//104
f 210//105 209//105 223//105 224//105
f 201//106 218//106 220//106 205//106
f 203//107 217//107 219//107 207//107
f 205//108 220//108 222//108 209//108
f 196//109 214//109 218//109 201//109
f 199//110 213//110 217//110 203//110
f 200//111 214//111 216//111 198//111
f 195//112 213//112 215//112 193//112
f 197//113 198//113 216//113 215//113
f 227//114 228//114 234//114 233//114
f 223//115 226//115 232//115 229//115
f 212//116 211//116 228//116 227//116
f 221//117 210//117 224//117 225//117
f 209//118 222//118 226//118 223//118
f 222//119 212//119 227//119 226//119
f 234//120 231//120 242//120 241//120
f 230//121 229//121 235//121 236//121
f 225//122 224//122 230//122 231//122
f 228//123 225//123 231//123 234//123
f 226//124 227//124 233//124 232//124
f 224//125 223//125 229//125 230//125
f 238//126 237//126 245//126 246//126
f 229//127 232//127 238//127 235//127
f 231//128 230//128 236//128 237//128
f 232//129 231//129 237//129 238//129
f 241//130 242//130 254//130 253//130
f 232//131 233//131 240//131 239//131
f 233//132 234//132 241//132 240//132
f 231//133 232//133 239//133 242//133
f 246//134 245//134 249//134 250//134
f 237//135 236//135 244//135 245//135
f 235//136 238//136 246//136 243//136
f 236//137 235//137 243//137 244//137
f 248//138 247//138 250//138 249//138
f 245//139 244//139 248//139 249//139
f 243//140 246//140 250//140 247//140
f 244//141 243//141 247//141 248//141
f 254//142 251//142 252//142 253//142
f 239//143 240//143 252//143 251//143
f 242//144 239//144 251//144 254//144
f 240//145 241//145 253//145 252//145
