# Blender v2.91.2 OBJ File: 'camionnete02.blend'
# www.blender.org
mtllib arme_000154.mtl
o Cube.046_Cube.010
v 148.169403 561.274048 -1263.574341
v 161.347931 344.560150 -1301.528320
v 209.359161 601.406250 -1471.479004
v 222.537674 384.692322 -1509.433105
v -63.162651 559.380005 -1326.138550
v -49.984154 342.666016 -1364.092651
v -1.972862 599.512207 -1534.043091
v 11.205605 382.798187 -1571.997314
v 63.923225 506.019989 -977.330994
v 77.101738 289.306061 -1015.284912
v -134.230286 287.411957 -1077.849121
v -147.408783 504.125885 -1039.895020
v 25.796349 481.013916 -847.786865
v 38.974815 264.299988 -885.741028
v -172.357269 262.405853 -948.305054
v -185.535767 479.119843 -910.351074
v 3.272644 466.241425 -771.258179
v 16.784027 311.070953 -811.605652
v -194.548096 309.176849 -874.169800
v -208.059448 464.347351 -833.822205
v 12.658554 697.057861 -809.950195
v -198.673492 695.163818 -872.514404
v -9.865120 682.285400 -733.421509
v -221.197205 680.391357 -795.985596
v 77.067207 514.640625 -1021.990173
v 90.245705 297.926727 -1059.944092
v -134.264862 512.746582 -1084.554321
v -121.086372 296.032623 -1122.508301
v 59.572891 577.558960 -964.802063
v -151.759186 575.664917 -1027.366211
v 72.716888 586.179565 -1009.461243
v -138.615143 584.285400 -1072.025269
v 53.261318 681.350220 -946.624634
v -158.070709 679.456055 -1009.188721
v 66.405228 689.970825 -991.283936
v -144.926758 688.076660 -1053.847900
v 22.307732 553.118042 -838.185913
v -189.024353 551.223877 -900.750061
v 15.996124 656.909302 -820.008484
v -195.335968 655.015137 -882.572632
v 18.700829 840.879028 -834.714111
v -192.631256 838.984863 -897.278381
v -3.822884 826.106445 -758.185425
v -215.154877 824.212402 -820.749512
v 187.757294 587.238403 -1398.082153
v 200.935760 370.524445 -1436.036499
v -23.574760 585.344238 -1460.646240
v -10.396240 368.630280 -1498.600342
v 103.693146 600.459229 -1502.761108
v 116.871635 383.745270 -1540.715210
v 42.503395 560.327026 -1294.856445
v 55.681923 343.613068 -1332.810547
v -41.742775 505.072937 -1008.612915
v -28.564262 288.359039 -1046.566895
v -79.869698 480.066864 -879.069031
v -61.701180 271.046631 -902.403076
v -102.393364 465.294403 -802.540222
v -76.664497 302.584442 -852.413513
v -93.007484 696.110840 -841.232239
v -115.531151 681.338379 -764.703491
v -15.420334 296.979675 -1091.226318
v -28.598824 513.693604 -1053.272217
v -46.093132 576.611938 -996.084167
v -32.949135 585.232422 -1040.743286
v -52.404686 680.403076 -977.906616
v -39.260765 689.023682 -1022.565918
v -83.358330 552.170898 -869.468018
v -89.669884 655.962158 -851.290527
v -86.965218 839.931885 -865.996277
v -109.488899 825.159424 -789.467468
v 95.269753 369.577362 -1467.318359
v 82.091255 586.291382 -1429.364136
v 156.526184 600.932739 -1487.119873
v 108.514908 344.086609 -1317.169434
v 24.268715 288.832550 -1030.926025
v -26.075752 271.365936 -891.856323
v -41.039070 302.903717 -841.866699
v 24.234207 514.167114 -1037.631104
v 19.883858 585.705933 -1025.102295
v 13.572250 689.497314 -1006.924866
v 134.924240 586.764893 -1413.723267
v 169.704681 384.218781 -1525.074097
v 95.336357 560.800537 -1279.215576
v 11.090210 505.546478 -992.972046
v -27.036690 480.540375 -863.427979
v -49.560387 465.767883 -786.899170
v -40.174461 696.584473 -825.591248
v -62.698112 681.811890 -749.062500
v 37.412682 297.453217 -1075.585205
v 6.739906 577.085449 -980.443115
v 0.428314 680.876709 -962.265625
v -30.525307 552.644531 -853.827026
v -36.836876 656.435791 -835.649475
v -34.132164 840.405518 -850.355164
v -56.655861 825.632935 -773.826416
v 148.102707 370.050903 -1451.677490
v 39.880188 256.876495 -1082.691650
v -12.952827 256.402924 -1098.332520
v 150.570190 329.474182 -1458.783813
v 97.737244 329.000610 -1474.424805
v 58.149384 303.036346 -1339.916870
v 110.982399 303.509888 -1324.275879
v 269.479431 520.352661 -1344.778809
v 251.974030 508.871490 -1285.300781
v 257.801605 413.042786 -1302.083618
v 275.306793 424.523956 -1361.561768
v 315.147156 520.761963 -1331.259155
v 297.641785 509.280823 -1271.781128
v 303.469269 413.452118 -1288.563843
v 320.974548 424.933289 -1348.041992
v 385.033356 521.388428 -1310.569702
v 367.527985 509.907196 -1251.091553
v 373.355377 414.078552 -1267.874390
v 390.860687 425.559723 -1327.352539
v 430.004211 521.791504 -1297.256226
v 412.498871 510.310303 -1237.778198
v 418.326416 414.481659 -1254.561035
v 435.831635 425.962799 -1314.039185
v 370.724976 516.060913 -2208.080078
v 317.891998 515.587402 -2223.721191
v 304.713379 732.301392 -2185.767090
v 357.546509 732.774902 -2170.125977
v -68.307335 909.314331 -873.834229
v -165.672882 908.441650 -902.658997
v -89.061668 895.702271 -803.317017
v -186.427155 894.829590 -832.141724
v 8.303825 896.574951 -774.492432
v 29.058250 910.187134 -845.009338
v -19.624504 909.750854 -859.421753
v -40.378914 896.138550 -788.904785
vn 0.9588 0.0086 0.2839
vn 0.2776 0.1821 -0.9433
vn -0.9588 -0.0086 -0.2839
vn -0.0598 0.9832 0.1722
vn 0.0598 -0.9832 -0.1722
vn -0.2776 -0.1821 0.9433
vn -0.1398 -0.8558 0.4981
vn -0.0249 -0.9861 -0.1641
vn -0.3471 -0.2912 0.8915
vn -0.9592 -0.0093 -0.2827
vn 0.9592 0.0093 0.2827
vn 0.2810 -0.1743 -0.9438
vn 0.2806 -0.1819 -0.9424
vn -0.2810 0.1743 0.9438
vn 0.6325 0.1708 -0.7555
vn -0.9178 0.3404 -0.2044
vn -0.2278 -0.2918 0.9290
vn 0.0899 -0.9875 -0.1293
vn -0.2761 0.2615 0.9248
vn -0.2662 -0.3207 0.9090
vn 0.0414 -0.9931 -0.1097
vn 0.1221 -0.1640 0.9789
vn 0.5789 -0.8153 0.0130
vn 0.4792 0.8248 0.3002
vn 0.9593 -0.1044 0.2622
usemtl Matériau.011
s off
f 45//1 46//1 4//1 3//1
f 49//2 50//2 8//2 7//2
f 47//3 48//3 6//3 5//3
f 26//1 25//1 9//1 10//1
f 72//4 47//4 5//4 51//4
f 96//5 46//5 2//5 74//5
f 10//1 9//1 13//1 14//1
f 84//6 9//6 29//6 90//6
f 89//5 26//5 10//5 75//5
f 27//3 28//3 11//3 12//3
f 76//7 14//7 18//7 77//7
f 75//8 10//8 14//8 76//8
f 12//3 11//3 15//3 16//3
f 53//4 12//4 16//4 55//4
f 86//9 77//9 18//9 17//9
f 16//10 15//10 19//10 20//10
f 16//3 20//3 24//3 22//3
f 14//11 13//11 17//11 18//11
f 59//12 22//12 42//12 69//12
f 86//6 17//6 23//6 88//6
f 17//1 13//1 21//1 23//1
f 55//2 16//2 22//2 59//2
f 5//3 6//3 28//3 27//3
f 74//5 2//5 26//5 89//5
f 51//4 5//4 27//4 62//4
f 2//1 1//1 25//1 26//1
f 32//3 30//3 34//3 36//3
f 62//2 27//2 32//2 64//2
f 27//3 12//3 30//3 32//3
f 9//1 25//1 31//1 29//1
f 66//4 36//4 34//4 65//4
f 90//5 29//5 37//5 92//5
f 64//2 32//2 36//2 66//2
f 29//1 31//1 35//1 33//1
f 92//6 37//6 39//6 93//6
f 29//1 33//1 39//1 37//1
f 34//3 30//3 38//3 40//3
f 65//4 34//4 40//4 68//4
f 69//13 42//13 124//13 123//13
f 23//1 21//1 41//1 43//1
f 88//14 23//14 43//14 95//14
f 22//3 24//3 44//3 42//3
f 82//5 4//5 46//5 96//5
f 49//4 7//4 47//4 72//4
f 7//3 8//3 48//3 47//3
f 46//15 45//15 103//15 106//15
f 73//4 49//4 72//4 81//4
f 8//5 50//5 71//5 48//5
f 24//14 60//14 70//14 44//14
f 42//16 44//16 126//16 124//16
f 91//4 65//4 68//4 93//4
f 38//6 67//6 68//6 40//6
f 79//2 64//2 66//2 80//2
f 30//5 63//5 67//5 38//5
f 80//4 66//4 65//4 91//4
f 78//2 62//2 64//2 79//2
f 83//4 51//4 62//4 78//4
f 6//5 52//5 61//5 28//5
f 85//2 55//2 59//2 87//2
f 20//6 57//6 60//6 24//6
f 87//12 59//12 69//12 94//12
f 20//17 19//17 58//17 57//17
f 84//4 53//4 55//4 85//4
f 11//18 54//18 56//18 15//18
f 15//7 56//7 58//7 19//7
f 28//5 61//5 54//5 11//5
f 12//6 53//6 63//6 30//6
f 48//5 71//5 52//5 6//5
f 81//4 72//4 51//4 83//4
f 50//3 49//3 121//3 120//3
f 3//2 4//2 82//2 73//2
f 45//4 81//4 83//4 1//4
f 9//4 84//4 85//4 13//4
f 21//12 87//12 94//12 41//12
f 13//2 85//2 87//2 21//2
f 1//4 83//4 78//4 25//4
f 25//2 78//2 79//2 31//2
f 35//4 80//4 91//4 33//4
f 31//2 79//2 80//2 35//2
f 33//4 91//4 93//4 39//4
f 70//19 95//19 130//19 125//19
f 3//4 73//4 81//4 45//4
f 50//5 82//5 96//5 71//5
f 60//14 88//14 95//14 70//14
f 67//6 92//6 93//6 68//6
f 63//5 90//5 92//5 67//5
f 52//3 71//3 100//3 101//3
f 57//6 86//6 88//6 60//6
f 57//20 58//20 77//20 86//20
f 54//21 75//21 76//21 56//21
f 56//7 76//7 77//7 58//7
f 61//5 89//5 75//5 54//5
f 53//6 84//6 90//6 63//6
f 89//6 61//6 98//6 97//6
f 101//5 102//5 97//5 98//5
f 100//5 99//5 102//5 101//5
f 61//3 52//3 101//3 98//3
f 74//1 89//1 97//1 102//1
f 71//2 96//2 99//2 100//2
f 96//1 74//1 102//1 99//1
f 106//2 103//2 107//2 110//2
f 1//22 2//22 105//22 104//22
f 2//23 46//23 106//23 105//23
f 45//24 1//24 104//24 103//24
f 109//5 110//5 114//5 113//5
f 104//6 105//6 109//6 108//6
f 105//5 106//5 110//5 109//5
f 103//4 104//4 108//4 107//4
f 113//5 114//5 118//5 117//5
f 107//4 108//4 112//4 111//4
f 110//2 107//2 111//2 114//2
f 108//6 109//6 113//6 112//6
f 116//1 117//1 118//1 115//1
f 111//4 112//4 116//4 115//4
f 114//2 111//2 115//2 118//2
f 122//2 119//2 120//2 121//2
f 82//5 50//5 120//5 119//5
f 73//1 82//1 119//1 122//1
f 49//4 73//4 122//4 121//4
f 123//4 124//4 126//4 125//4
f 129//4 123//4 125//4 130//4
f 128//4 129//4 130//4 127//4
f 95//19 43//19 127//19 130//19
f 94//13 69//13 123//13 129//13
f 43//25 41//25 128//25 127//25
f 44//19 70//19 125//19 126//19
f 41//13 94//13 129//13 128//13
o Cube.048_Cube.024
v -519.726318 523.867249 154.613495
v -669.780273 359.858948 59.836731
v -389.962189 522.948669 -49.244217
v -538.990662 357.209381 -145.291382
v -662.664612 661.161865 -6.784081
v -739.601440 577.070190 -55.378769
v -596.130859 660.690857 -111.307610
v -672.611389 576.208496 -159.303711
v -374.024780 485.876953 -505.968292
v -276.943787 548.669128 -454.441193
v -346.641510 654.301208 -451.850861
v -443.722565 591.509033 -503.377960
v -299.465698 559.797546 -695.357422
v -228.089539 605.963745 -657.473389
v -279.333038 683.626831 -655.568970
v -350.709076 637.460632 -693.452942
v -252.355560 608.778687 -813.032104
v -200.194855 642.516296 -785.347107
v -237.642883 699.271423 -783.955383
v -289.803528 665.533813 -811.640320
v -464.088257 616.680359 -75.118889
v -622.227478 441.286743 -175.083679
v -601.958374 617.785400 141.268524
v -761.259033 443.670380 40.651382
v -306.957001 604.762207 -456.669159
v -410.020447 538.100586 -511.371613
v -245.296478 650.741211 -672.577026
v -321.070984 601.730103 -712.795593
v -208.359985 678.448120 -808.602783
v -263.735107 642.631470 -837.994019
v -219.408325 628.385254 -899.000427
v -167.247498 662.122864 -871.315369
v -175.344666 705.207153 -903.415222
v -230.719849 669.390503 -932.806335
v -256.798676 691.193420 -905.093384
v -204.638062 724.931152 -877.408325
v -196.464172 643.592651 -960.760681
v -144.303528 677.330444 -933.075684
v -152.400757 720.414734 -965.175354
v -207.775757 684.597961 -994.566467
v -233.854675 706.400940 -966.853699
v -181.693909 740.138611 -939.168640
v -159.667419 638.467529 -994.075134
v -126.093933 660.182983 -976.255432
v -131.305786 687.914307 -996.916687
v -166.948242 664.860718 -1015.834412
v -213.974640 725.147949 -1032.302246
v -240.053589 746.950867 -1004.589294
v -187.892822 780.688477 -976.904358
v -158.599609 760.964539 -1002.911194
v -135.092529 633.591187 -1016.914490
v -112.458069 648.231079 -1004.900940
v -115.971802 666.926819 -1018.830017
v -140.000977 651.384766 -1031.583862
v -116.095703 638.622131 -1045.258545
v -101.946716 647.773621 -1037.748901
v -104.143127 659.460693 -1046.456177
v -119.164001 649.745056 -1054.428711
v -212.675476 756.475159 -1043.209106
v -230.015686 770.972229 -1024.782471
v -195.333374 793.404663 -1006.374207
v -175.855835 780.290039 -1023.666687
v -218.479675 518.897034 365.812775
v -339.248901 309.597473 363.355743
v -110.994812 461.101868 156.244659
v -231.864014 250.078064 155.212830
v -401.409241 558.515747 191.751160
v -463.330994 451.202026 190.491364
v -337.914520 529.149963 81.377129
v -408.271790 420.684753 83.770668
v -187.549744 117.808594 -81.433662
v -94.238037 113.753540 1.996399
v -10.303833 130.329163 -88.688240
v -100.819031 133.479248 -172.289917
v -154.741638 -94.314819 -110.048622
v -87.071045 -99.787415 -46.394783
v -23.304688 -88.266113 -113.194252
v -90.975281 -82.793274 -176.848206
v -131.327820 -226.958557 -128.028748
v -81.875061 -230.957825 -81.511299
v -35.275452 -222.538269 -130.327454
v -84.728271 -218.538879 -176.844879
v -192.835419 522.552612 108.426956
v -333.580170 300.708801 109.578995
v -319.371033 586.093201 333.156830
v -447.582458 363.895905 330.548431
v -49.069824 112.427063 -38.345757
v -146.782593 120.329224 -130.258728
v -52.301941 -112.878235 -80.290977
v -124.142578 -107.068176 -147.867462
v -55.898010 -253.778198 -108.025826
v -108.398254 -249.532471 -157.409729
v -129.757996 -320.572754 -137.746033
v -80.305298 -324.571899 -91.228615
v -49.971375 -356.401855 -123.149529
v -102.471436 -352.155884 -172.533508
v -79.471252 -319.777710 -191.137543
v -30.018555 -323.776978 -144.620148
v -127.713745 -387.690308 -145.689850
v -78.260986 -391.689453 -99.172447
v -47.927002 -423.519409 -131.093292
v -100.427124 -419.273560 -180.477203
v -77.426941 -386.895264 -199.081360
v -27.974182 -390.894531 -152.563965
v -134.428223 -432.453979 -124.683861
v -102.597595 -435.028076 -94.742653
v -83.073059 -455.515503 -115.288795
v -116.865051 -452.782715 -147.074921
v -73.642090 -456.501465 -212.153198
v -50.641785 -424.122925 -230.757416
v -1.189026 -428.122314 -184.239899
v -21.141846 -460.747192 -162.769348
v -140.442505 -462.633057 -110.457863
v -118.983215 -464.368652 -90.272301
v -105.820374 -478.180908 -104.123878
v -128.601929 -476.338135 -125.553444
v -139.695068 -496.840454 -106.112541
v -126.280579 -497.925415 -93.494270
v -118.052307 -506.559326 -102.153130
v -132.293396 -505.407471 -115.548775
v -46.816406 -471.824829 -224.302887
v -31.523132 -450.296143 -236.673096
v 1.358582 -452.955200 -205.742920
v -11.908264 -474.648071 -191.466766
vn 0.5713 -0.7325 0.3703
vn -0.4917 0.8045 -0.3331
vn -0.5713 0.7323 -0.3706
vn -0.3662 -0.1912 0.9107
vn 0.2700 0.9482 0.1673
vn -0.5883 -0.7198 -0.3686
vn -0.5234 0.8506 -0.0505
vn 0.7652 0.5831 0.2730
vn -0.7838 -0.2800 -0.5543
vn 0.6505 -0.7548 0.0840
vn -0.7902 -0.3699 -0.4887
vn 0.8321 0.4461 0.3295
vn -0.7791 -0.4076 -0.4762
vn 0.5745 -0.8134 -0.0913
vn 0.7313 0.5461 0.4085
vn 0.5788 -0.8087 -0.1049
vn -0.5177 0.8531 -0.0642
vn 0.8542 0.4165 0.3113
vn 0.7260 0.6108 0.3160
vn 0.5378 -0.8429 0.0139
vn -0.6920 -0.5397 -0.4795
vn 0.7450 0.5782 0.3327
vn -0.6620 -0.5642 -0.4935
vn -0.5741 -0.6355 -0.5163
vn 0.4347 0.8726 0.2227
vn -0.8163 -0.2440 -0.5236
vn 0.6549 0.6322 0.4140
vn -0.7733 0.4483 0.4484
vn -0.5447 0.8387 0.0042
vn -0.7377 -0.5388 -0.4067
vn -0.5548 0.8313 0.0323
vn 0.7967 0.4481 0.4056
vn -0.7348 -0.5424 -0.4072
vn -0.7997 -0.4441 -0.4041
vn 0.7359 0.5181 0.4359
vn 0.2983 -0.8373 0.4583
vn 0.7941 0.4520 0.4063
vn 0.7304 0.5488 0.4065
vn -0.8003 -0.4413 -0.4060
vn 0.5447 -0.8387 -0.0042
vn -0.0702 0.6954 -0.7152
vn -0.5776 -0.6082 -0.5444
vn 0.9047 0.3505 0.2423
vn -0.0520 0.6803 -0.7311
vn 0.6450 0.7474 0.1596
vn -0.7963 -0.4729 -0.3773
vn -0.6320 0.4740 0.6131
vn 0.6320 -0.4740 -0.6131
vn -0.3508 0.8553 -0.3813
vn 0.8897 0.3683 0.2699
vn -0.6057 -0.5989 -0.5238
vn 0.2819 -0.8303 0.4807
vn 0.6163 -0.3927 -0.6826
vn 0.8850 0.3735 0.2780
vn -0.6141 -0.5960 -0.5174
vn 0.4732 -0.8657 0.1635
vn -0.1112 0.7275 -0.6770
vn -0.7821 -0.1757 -0.5978
vn 0.5875 -0.2877 -0.7563
vn -0.6403 0.6331 0.4349
vn 0.7462 -0.4332 0.5055
vn 0.0505 0.5603 -0.8267
vn -0.7291 0.4442 -0.5207
vn -0.2311 0.1220 0.9652
vn 0.0774 0.9712 -0.2254
vn -0.4531 -0.8912 0.0211
vn 0.6820 0.0438 -0.7300
vn 0.9392 0.2787 -0.2006
vn -0.8095 -0.3957 -0.4337
vn 0.2673 -0.5881 0.7633
vn -0.6348 -0.0237 -0.7723
vn 0.6589 -0.1460 0.7379
vn -0.6649 -0.0114 -0.7469
vn -0.6681 -0.1928 0.7187
vn 0.7678 -0.0500 0.6387
vn -0.6783 -0.2150 0.7026
vn 0.6862 0.0316 -0.7268
vn 0.6431 -0.1688 0.7470
vn 0.8026 -0.1399 0.5798
vn -0.6863 -0.0865 0.7222
vn -0.7733 -0.0310 -0.6333
vn 0.7987 -0.1175 0.5901
vn -0.7944 -0.0525 -0.6052
vn -0.7303 -0.6772 0.0901
vn 0.5667 0.5651 -0.5996
vn -0.7958 -0.5500 -0.2533
vn 0.5545 0.8295 0.0670
vn -0.8042 0.4596 0.3769
vn 0.6858 0.1061 -0.7200
vn -0.7617 0.0532 -0.6458
vn 0.6846 0.1366 -0.7160
vn 0.6873 -0.0653 0.7234
vn -0.7646 0.0521 -0.6424
vn -0.6837 0.0673 -0.7266
vn 0.7497 -0.0233 0.6613
vn -0.6070 0.4104 0.6806
vn 0.6906 -0.0642 0.7203
vn 0.7696 -0.0519 0.6364
vn -0.6816 0.0655 -0.7287
vn -0.6858 -0.1061 0.7200
vn 0.4479 -0.7144 -0.5376
vn -0.8333 -0.1274 -0.5379
vn 0.5720 -0.2411 0.7840
vn 0.4329 -0.7340 -0.5233
vn 0.8732 -0.2647 0.4092
vn -0.7029 0.0942 -0.7050
vn 0.4902 0.7419 -0.4574
vn -0.4902 -0.7419 0.4574
vn 0.6346 -0.3223 -0.7024
vn 0.5933 -0.2131 0.7763
vn -0.8244 -0.0984 -0.5573
vn -0.5976 0.4362 0.6728
vn -0.4355 -0.8096 0.3934
vn 0.5995 -0.2047 0.7738
vn -0.8215 -0.0895 -0.5631
vn -0.6797 0.0778 0.7293
vn 0.4806 -0.6679 -0.5683
vn -0.4798 -0.1553 -0.8635
vn -0.3621 -0.8793 0.3094
vn 0.5903 0.5621 -0.5792
usemtl Matériau.012
s off
f 131//26 132//26 134//26 133//26
f 138//27 137//27 141//27 142//27
f 137//28 138//28 136//28 135//28
f 153//29 154//29 132//29 131//29
f 151//30 137//30 135//30 153//30
f 152//31 134//31 132//31 154//31
f 142//32 141//32 145//32 146//32
f 151//33 133//33 140//33 155//33
f 152//34 138//34 142//34 156//34
f 133//35 134//35 139//35 140//35
f 158//36 146//36 150//36 160//36
f 155//37 140//37 144//37 157//37
f 156//38 142//38 146//38 158//38
f 140//39 139//39 143//39 144//39
f 149//40 159//40 163//40 166//40
f 144//41 143//41 147//41 148//41
f 146//42 145//42 149//42 150//42
f 157//43 144//43 148//43 159//43
f 145//44 157//44 159//44 149//44
f 148//45 147//45 161//45 162//45
f 139//46 156//46 158//46 143//46
f 141//47 155//47 157//47 145//47
f 143//48 158//48 160//48 147//48
f 134//49 152//49 156//49 139//49
f 137//50 151//50 155//50 141//50
f 138//51 152//51 154//51 136//51
f 133//52 151//52 153//52 131//52
f 135//53 136//53 154//53 153//53
f 165//54 166//54 172//54 171//54
f 161//55 164//55 170//55 167//55
f 150//56 149//56 166//56 165//56
f 159//57 148//57 162//57 163//57
f 147//58 160//58 164//58 161//58
f 160//59 150//59 165//59 164//59
f 172//60 169//60 180//60 179//60
f 168//61 167//61 173//61 174//61
f 163//62 162//62 168//62 169//62
f 166//63 163//63 169//63 172//63
f 164//64 165//64 171//64 170//64
f 162//65 161//65 167//65 168//65
f 176//66 175//66 183//66 184//66
f 167//67 170//67 176//67 173//67
f 169//68 168//68 174//68 175//68
f 170//69 169//69 175//69 176//69
f 179//70 180//70 192//70 191//70
f 170//71 171//71 178//71 177//71
f 171//72 172//72 179//72 178//72
f 169//73 170//73 177//73 180//73
f 184//74 183//74 187//74 188//74
f 175//75 174//75 182//75 183//75
f 173//76 176//76 184//76 181//76
f 174//77 173//77 181//77 182//77
f 186//78 185//78 188//78 187//78
f 183//79 182//79 186//79 187//79
f 181//80 184//80 188//80 185//80
f 182//81 181//81 185//81 186//81
f 192//82 189//82 190//82 191//82
f 177//83 178//83 190//83 189//83
f 180//84 177//84 189//84 192//84
f 178//85 179//85 191//85 190//85
f 193//86 194//86 196//86 195//86
f 200//87 199//87 203//87 204//87
f 199//88 200//88 198//88 197//88
f 215//89 216//89 194//89 193//89
f 213//90 199//90 197//90 215//90
f 214//91 196//91 194//91 216//91
f 204//92 203//92 207//92 208//92
f 213//93 195//93 202//93 217//93
f 214//94 200//94 204//94 218//94
f 195//95 196//95 201//95 202//95
f 220//96 208//96 212//96 222//96
f 217//97 202//97 206//97 219//97
f 218//98 204//98 208//98 220//98
f 202//99 201//99 205//99 206//99
f 211//100 221//100 225//100 228//100
f 206//101 205//101 209//101 210//101
f 208//102 207//102 211//102 212//102
f 219//103 206//103 210//103 221//103
f 207//104 219//104 221//104 211//104
f 210//105 209//105 223//105 224//105
f 201//106 218//106 220//106 205//106
f 203//107 217//107 219//107 207//107
f 205//108 220//108 222//108 209//108
f 196//109 214//109 218//109 201//109
f 199//110 213//110 217//110 203//110
f 200//111 214//111 216//111 198//111
f 195//112 213//112 215//112 193//112
f 197//113 198//113 216//113 215//113
f 227//114 228//114 234//114 233//114
f 223//115 226//115 232//115 229//115
f 212//116 211//116 228//116 227//116
f 221//117 210//117 224//117 225//117
f 209//118 222//118 226//118 223//118
f 222//119 212//119 227//119 226//119
f 234//120 231//120 242//120 241//120
f 230//121 229//121 235//121 236//121
f 225//122 224//122 230//122 231//122
f 228//123 225//123 231//123 234//123
f 226//124 227//124 233//124 232//124
f 224//125 223//125 229//125 230//125
f 238//126 237//126 245//126 246//126
f 229//127 232//127 238//127 235//127
f 231//128 230//128 236//128 237//128
f 232//129 231//129 237//129 238//129
f 241//130 242//130 254//130 253//130
f 232//131 233//131 240//131 239//131
f 233//132 234//132 241//132 240//132
f 231//133 232//133 239//133 242//133
f 246//134 245//134 249//134 250//134
f 237//135 236//135 244//135 245//135
f 235//136 238//136 246//136 243//136
f 236//137 235//137 243//137 244//137
f 248//138 247//138 250//138 249//138
f 245//139 244//139 248//139 249//139
f 243//140 246//140 250//140 247//140
f 244//141 243//141 247//141 248//141
f 254//142 251//142 252//142 253//142
f 239//143 240//143 252//143 251//143
f 242//144 239//144 251//144 254//144
f 240//145 241//145 253//145 252//145
