# Blender v2.91.2 OBJ File: 'camionnete02.blend'
# www.blender.org
mtllib arme_000106.mtl
o Cube.046_Cube.010
v 368.340332 817.295410 -965.202087
v 365.979492 610.686646 -1041.924561
v 479.060974 882.525391 -1144.269531
v 476.700134 675.916626 -1220.991943
v 177.776764 857.754761 -1068.292603
v 175.415894 651.145874 -1145.015137
v 288.497375 922.984741 -1247.359863
v 286.136536 716.375977 -1324.082520
v 215.899963 727.486572 -718.661926
v 213.539108 520.877808 -795.384399
v 22.975548 561.337097 -898.474915
v 25.336391 767.945923 -821.752502
v 146.910690 686.842163 -607.086182
v 144.549850 480.233398 -683.808777
v -46.013763 520.692749 -786.899231
v -43.652916 727.301514 -710.176758
v 106.154915 662.831299 -541.172363
v 111.393303 516.522705 -607.915894
v -79.170349 556.982056 -711.006409
v -84.408714 703.290649 -644.262878
v 239.683487 741.498413 -757.126648
v 237.322632 534.889648 -833.849182
v 49.119877 781.957764 -860.217224
v 46.759003 575.348938 -936.939819
v 439.973145 859.497192 -1081.052979
v 437.612305 652.888428 -1157.775757
v 249.409576 899.956543 -1184.143555
v 247.048752 693.347656 -1260.865967
v 383.779175 902.755127 -1195.814697
v 381.418335 696.146240 -1272.537109
v 273.058533 837.525146 -1016.747375
v 270.697693 630.916260 -1093.469849
v 120.618179 747.716248 -770.207153
v 118.257309 541.107422 -846.929626
v 51.628899 707.071899 -658.631470
v 51.626789 504.725586 -718.797974
v 10.873122 683.060974 -592.717651
v 29.269245 529.195557 -667.623230
v 142.040817 555.119263 -885.394470
v 144.401672 761.728088 -808.671997
v 342.330505 673.118042 -1209.320801
v 344.691345 879.726929 -1132.598267
v 431.420105 892.640259 -1170.041992
v 318.338562 620.801392 -1067.697144
v 165.898224 530.992676 -821.157043
v 83.751167 497.905090 -701.419434
v 61.393631 522.375061 -650.244629
v 192.042572 751.613220 -782.899292
v 392.332275 869.612061 -1106.825684
v 429.059265 686.031433 -1246.764648
v 320.699402 827.410278 -990.974854
v 168.259064 737.601440 -744.434631
v 99.269791 696.957031 -632.858765
v 58.514008 672.946167 -566.944946
v 189.681717 545.004456 -859.621887
v 389.971375 663.003296 -1183.548218
v 189.239716 506.319763 -873.987061
v 141.598785 516.434570 -899.759705
v 389.529358 624.318604 -1197.913574
v 341.888489 634.433350 -1223.686279
v 270.255676 592.231567 -1107.835083
v 317.896606 582.116760 -1082.062500
v 499.668762 773.046875 -1026.681763
v 467.993408 754.385681 -975.453613
v 466.949585 663.025330 -1009.379395
v 498.624817 681.686646 -1060.607666
v 540.848572 764.303894 -1004.404480
v 509.173218 745.642639 -953.176331
v 508.129272 654.282349 -987.102173
v 539.804626 672.943604 -1038.330322
v 603.866760 750.924377 -970.313171
v 572.191467 732.263062 -919.085022
v 571.147461 640.902771 -953.010864
v 602.822815 659.564087 -1004.239197
v 644.418213 742.314697 -948.375916
v 612.742920 723.653442 -897.147705
v 611.699036 632.293152 -931.073547
v 643.374207 650.954407 -982.301697
v 792.797791 900.324646 -1835.034180
v 745.156921 910.439453 -1860.806885
v 747.517639 1117.048340 -1784.084473
v 795.158630 1106.933472 -1758.311768
vn 0.8646 -0.1836 0.4677
vn 0.5023 0.2960 -0.8124
vn -0.8646 0.1836 -0.4677
vn 0.0107 0.9374 0.3481
vn -0.0107 -0.9374 -0.3481
vn -0.3418 -0.8972 0.2797
vn -0.0948 -0.9289 -0.3580
vn -0.5698 -0.3830 0.7271
vn -0.8653 0.1827 -0.4668
vn 0.8653 -0.1827 0.4668
vn 0.8020 0.1998 -0.5628
vn -0.4629 -0.4078 0.7870
vn 0.0082 -0.9534 -0.3017
vn -0.4987 -0.4269 0.7544
vn -0.0437 -0.9548 -0.2939
vn -0.5023 -0.2960 0.8124
vn -0.1216 -0.3443 0.9309
vn 0.4681 -0.8831 -0.0322
vn 0.4860 0.6805 0.5484
usemtl Matériau.011
s off
f 25//1 26//1 4//1 3//1
f 29//2 30//2 8//2 7//2
f 27//3 28//3 6//3 5//3
f 22//1 21//1 9//1 10//1
f 42//4 27//4 5//4 31//4
f 56//5 26//5 2//5 44//5
f 10//1 9//1 13//1 14//1
f 55//5 22//5 10//5 45//5
f 23//3 24//3 11//3 12//3
f 46//6 14//6 18//6 47//6
f 45//7 10//7 14//7 46//7
f 12//3 11//3 15//3 16//3
f 33//4 12//4 16//4 35//4
f 54//8 47//8 18//8 17//8
f 16//9 15//9 19//9 20//9
f 14//10 13//10 17//10 18//10
f 5//3 6//3 24//3 23//3
f 44//5 2//5 22//5 55//5
f 31//4 5//4 23//4 40//4
f 2//1 1//1 21//1 22//1
f 50//5 4//5 26//5 56//5
f 29//4 7//4 27//4 42//4
f 7//3 8//3 28//3 27//3
f 26//11 25//11 63//11 66//11
f 43//4 29//4 42//4 49//4
f 8//5 30//5 41//5 28//5
f 51//4 31//4 40//4 48//4
f 6//5 32//5 39//5 24//5
f 20//12 19//12 38//12 37//12
f 52//4 33//4 35//4 53//4
f 11//13 34//13 36//13 15//13
f 15//6 36//6 38//6 19//6
f 24//5 39//5 34//5 11//5
f 28//5 41//5 32//5 6//5
f 49//4 42//4 31//4 51//4
f 30//3 29//3 81//3 80//3
f 3//2 4//2 50//2 43//2
f 25//4 49//4 51//4 1//4
f 9//4 52//4 53//4 13//4
f 1//4 51//4 48//4 21//4
f 3//4 43//4 49//4 25//4
f 30//5 50//5 56//5 41//5
f 32//3 41//3 60//3 61//3
f 37//14 38//14 47//14 54//14
f 34//15 45//15 46//15 36//15
f 36//6 46//6 47//6 38//6
f 39//5 55//5 45//5 34//5
f 55//16 39//16 58//16 57//16
f 61//5 62//5 57//5 58//5
f 60//5 59//5 62//5 61//5
f 39//3 32//3 61//3 58//3
f 44//1 55//1 57//1 62//1
f 41//2 56//2 59//2 60//2
f 56//1 44//1 62//1 59//1
f 66//2 63//2 67//2 70//2
f 1//17 2//17 65//17 64//17
f 2//18 26//18 66//18 65//18
f 25//19 1//19 64//19 63//19
f 69//5 70//5 74//5 73//5
f 64//16 65//16 69//16 68//16
f 65//5 66//5 70//5 69//5
f 63//4 64//4 68//4 67//4
f 73//5 74//5 78//5 77//5
f 67//4 68//4 72//4 71//4
f 70//2 67//2 71//2 74//2
f 68//16 69//16 73//16 72//16
f 76//1 77//1 78//1 75//1
f 71//4 72//4 76//4 75//4
f 74//2 71//2 75//2 78//2
f 82//2 79//2 80//2 81//2
f 50//5 30//5 80//5 79//5
f 43//1 50//1 79//1 82//1
f 29//4 43//4 82//4 81//4
o Cube.048_Cube.024
v -561.320984 485.982086 176.405121
v -718.360596 338.000427 67.604706
v -419.040710 478.499817 -18.781700
v -576.214905 328.337585 -131.330872
v -681.073730 639.005920 10.353054
v -761.592346 563.131653 -45.431953
v -608.122620 635.169556 -89.724693
v -688.548889 558.673950 -145.280762
v -349.884521 476.960754 -475.297394
v -260.731018 514.816650 -393.803680
v -317.213776 627.709961 -384.453552
v -406.367371 589.854126 -465.947296
v -226.722687 569.951904 -627.203125
v -161.174988 597.784363 -567.287048
v -202.702393 680.786072 -560.412659
v -268.250092 652.953674 -620.328552
v -149.104919 630.585510 -720.824158
v -101.203613 650.925049 -677.038391
v -131.551331 711.581665 -672.014648
v -179.452698 691.242065 -715.800476
v -483.068878 578.874756 -46.575920
v -649.764404 420.059204 -163.767548
v -634.141174 587.021545 160.623795
v -800.858032 429.920837 45.118797
v -283.135437 574.328735 -390.880249
v -377.782837 534.140137 -477.395782
v -169.505981 646.542358 -576.368347
v -239.092896 616.994812 -639.976562
v -99.904724 691.096741 -693.865295
v -150.757812 669.503784 -740.349304
v -95.593079 659.345703 -792.725647
v -47.691711 679.685242 -748.939880
v -43.540283 728.315430 -772.816406
v -94.393555 706.722473 -819.300476
v -123.526794 727.160583 -793.667969
v -75.625549 747.500183 -749.882141
v -57.729126 681.208740 -844.304504
v -9.827759 701.548401 -800.518677
v -5.676392 750.178345 -824.395447
v -56.529602 728.585449 -870.879456
v -85.662964 749.023499 -845.246765
v -37.761536 769.363098 -801.461121
v -15.128601 676.359741 -869.834961
v 15.703308 689.451416 -841.651978
v 18.375366 720.752502 -857.020264
v -14.356506 706.854065 -886.940002
v -49.541382 775.419861 -900.280029
v -78.674500 795.857971 -874.647705
v -30.773315 816.197632 -830.861938
v 1.311829 797.012817 -853.796143
v 13.297119 671.805847 -887.739868
v 34.083008 680.631836 -868.739563
v 35.884521 701.734070 -879.100464
v 13.817566 692.364319 -899.271484
v 38.655518 678.672791 -910.086731
v 51.648987 684.190063 -898.209351
v 52.775208 697.381348 -904.686035
v 38.980835 691.524170 -917.295227
v -42.384338 807.590576 -904.264343
v -61.755554 821.179993 -887.220886
v -29.905334 834.704041 -858.107056
v -8.571533 821.947876 -873.356445
v -283.319458 609.178833 327.929504
v -307.017639 369.739563 350.396362
v -127.891418 571.791687 145.149506
v -156.894714 337.374054 163.813583
v -440.398254 547.297852 136.025070
v -452.548950 424.530609 147.544464
v -359.015686 534.083130 40.669144
v -375.576752 407.935852 51.878250
v 17.837463 264.675293 -158.216003
v 117.214050 330.996429 -116.409828
v 94.241699 420.612122 -201.821716
v -3.832581 355.543762 -243.632477
v 154.343750 182.648254 -304.943970
v 228.063293 229.884033 -273.395935
v 212.131042 296.692566 -336.196014
v 138.411377 249.456787 -367.744080
v 241.053650 133.801453 -397.471069
v 294.926941 168.320740 -374.416107
v 283.283813 217.143555 -420.309601
v 229.410583 182.624268 -443.364532
v -227.004852 589.679260 82.437057
v -262.973663 334.626373 102.725197
v -397.189148 623.180664 276.954559
v -422.347687 368.986267 300.805908
v 113.639160 373.669098 -160.361359
v 7.191956 305.463135 -205.915222
v 233.418213 255.756531 -316.187958
v 155.155823 205.610077 -349.680084
v 306.679016 180.852539 -414.459076
v 249.485779 144.206116 -438.934631
v 296.766785 86.440186 -456.745392
v 350.639954 120.959534 -433.690338
v 367.157043 132.942993 -484.047089
v 309.963989 96.296570 -508.522736
v 289.156250 134.798889 -511.367279
v 343.029724 169.318115 -488.312408
v 336.580505 53.359985 -500.249603
v 390.453674 87.879211 -477.194550
v 406.970764 99.862793 -527.551392
v 349.777649 63.216492 -552.027039
v 328.970032 101.718750 -554.871582
v 382.843201 136.238098 -531.816589
v 374.703430 21.717590 -506.209625
v 409.379211 43.936035 -491.370148
v 420.010559 51.649292 -523.782654
v 383.197815 28.061768 -539.536438
v 368.221130 69.324158 -604.269226
v 347.413513 107.826599 -607.113892
v 401.286682 142.345642 -584.058777
v 425.414124 105.970520 -579.793518
v 399.723694 -0.872803 -509.813873
v 423.101135 14.106262 -499.809540
v 430.268616 19.306030 -521.661194
v 405.450378 3.404175 -532.282043
v 424.811340 -18.870056 -525.185852
v 439.424744 -9.506531 -518.931824
v 443.905212 -6.255676 -532.591614
v 428.391174 -16.196411 -539.230835
v 383.976013 85.027283 -628.911316
v 370.140930 110.628235 -630.802673
v 405.961731 133.580505 -615.473022
v 422.004456 109.394165 -612.637085
vn 0.4807 -0.7897 0.3813
vn -0.3565 0.8856 -0.2978
vn -0.4808 0.7883 -0.3838
vn -0.4401 -0.1798 0.8798
vn 0.3392 0.9166 0.2115
vn -0.6263 -0.6575 -0.4189
vn -0.4020 0.9155 0.0145
vn 0.7753 0.4825 0.4075
vn -0.7275 -0.1490 -0.6697
vn 0.5599 -0.8239 0.0876
vn -0.6945 -0.1588 -0.7018
vn 0.7795 0.2539 0.5727
vn -0.6908 -0.1993 -0.6951
vn 0.4877 -0.8628 -0.1328
vn 0.6750 0.3529 0.6479
vn 0.4954 -0.8566 -0.1441
vn -0.3932 0.9195 0.0030
vn 0.8018 0.2247 0.5538
vn 0.6979 0.4324 0.5710
vn 0.4251 -0.9040 -0.0452
vn -0.6202 -0.3405 -0.7067
vn 0.7089 0.3950 0.5844
vn -0.5906 -0.3665 -0.7190
vn -0.5607 -0.5296 -0.6365
vn 0.4755 0.8071 0.3501
vn -0.8032 -0.1513 -0.5761
vn 0.6781 0.5630 0.4725
vn -0.7596 0.5036 0.4115
vn -0.4363 0.8978 0.0603
vn -0.6808 -0.3452 -0.6461
vn -0.4533 0.8874 0.0837
vn 0.7282 0.2482 0.6389
vn -0.6782 -0.3490 -0.6467
vn -0.7310 -0.2441 -0.6373
vn 0.6701 0.3203 0.6696
vn 0.0932 -0.9380 0.3337
vn 0.7260 0.2522 0.6398
vn 0.6749 0.3560 0.6463
vn -0.7309 -0.2409 -0.6386
vn 0.4363 -0.8978 -0.0603
vn 0.1702 0.8093 -0.5621
vn -0.5022 -0.4133 -0.7595
vn 0.8590 0.1647 0.4848
vn 0.1898 0.7946 -0.5767
vn 0.6698 0.6041 0.4317
vn -0.7369 -0.2771 -0.6166
vn -0.6987 0.4522 0.5543
vn 0.6987 -0.4522 -0.5543
vn -0.1595 0.9504 -0.2670
vn 0.8402 0.1795 0.5117
vn -0.5330 -0.4036 -0.7436
vn 0.0731 -0.9327 0.3533
vn 0.7082 -0.3590 -0.6080
vn 0.8344 0.1839 0.5196
vn -0.5424 -0.4005 -0.7385
vn 0.3262 -0.9419 0.0807
vn 0.1254 0.8403 -0.5275
vn -0.6408 0.0476 -0.7663
vn 0.7085 -0.2398 -0.6637
vn -0.6490 0.6388 0.4132
vn 0.7674 -0.0298 0.6405
vn -0.4447 0.3952 -0.8038
vn -0.7672 0.0300 -0.6407
vn -0.3926 0.1244 0.9112
vn -0.2707 0.8855 -0.3776
vn -0.0501 -0.9901 0.1315
vn -0.1288 0.6729 -0.7284
vn 0.5681 0.8189 -0.0819
vn -0.4821 -0.7756 -0.4075
vn 0.6693 -0.3367 0.6623
vn -0.7460 -0.4644 -0.4773
vn 0.8477 0.4077 0.3395
vn -0.7536 -0.4858 -0.4429
vn 0.2217 -0.7446 0.6296
vn 0.7795 0.5512 0.2976
vn 0.2247 -0.7589 0.6112
vn -0.1162 0.6707 -0.7326
vn 0.8598 0.3718 0.3499
vn 0.8200 0.5390 0.1928
vn 0.1490 -0.6994 0.6990
vn -0.7265 -0.5994 -0.3361
vn 0.8157 0.5337 0.2232
vn -0.7061 -0.6316 -0.3202
vn -0.2760 -0.9603 -0.0396
vn 0.1523 0.9155 -0.3723
vn -0.4601 -0.8599 -0.2210
vn 0.1686 0.9849 -0.0396
vn -0.9654 0.1174 0.2328
vn -0.1607 0.7093 -0.6864
vn -0.7827 -0.5436 -0.3030
vn -0.1788 0.7240 -0.6662
vn 0.8003 0.4664 0.3768
vn -0.7814 -0.5471 -0.3001
vn -0.8018 -0.4620 -0.3791
vn 0.7667 0.5478 0.3347
vn -0.1591 -0.3645 0.9175
vn 0.7994 0.4701 0.3741
vn 0.7802 0.5520 0.2943
vn -0.8008 -0.4610 -0.3823
vn 0.1607 -0.7093 0.6864
vn 0.3633 0.0542 -0.9301
vn -0.6368 -0.7112 -0.2977
vn 0.8941 0.2698 0.3575
vn 0.3771 0.0296 -0.9257
vn 0.8346 0.5501 -0.0293
vn -0.8157 -0.4661 -0.3425
vn -0.5129 0.8546 -0.0811
vn 0.5129 -0.8546 0.0811
vn 0.1025 0.4368 -0.8937
vn 0.8817 0.3033 0.3614
vn -0.6628 -0.6863 -0.2996
vn -0.1759 -0.3421 0.9231
vn 0.5456 -0.8378 -0.0204
vn 0.8778 0.3133 0.3625
vn -0.6706 -0.6785 -0.3001
vn 0.0500 -0.6075 0.7928
vn 0.3309 0.1096 -0.9373
vn -0.6394 -0.3943 -0.6601
vn 0.5768 -0.8042 -0.1437
vn -0.4196 0.8562 -0.3014
usemtl Matériau.012
s off
f 83//20 84//20 86//20 85//20
f 90//21 89//21 93//21 94//21
f 89//22 90//22 88//22 87//22
f 105//23 106//23 84//23 83//23
f 103//24 89//24 87//24 105//24
f 104//25 86//25 84//25 106//25
f 94//26 93//26 97//26 98//26
f 103//27 85//27 92//27 107//27
f 104//28 90//28 94//28 108//28
f 85//29 86//29 91//29 92//29
f 110//30 98//30 102//30 112//30
f 107//31 92//31 96//31 109//31
f 108//32 94//32 98//32 110//32
f 92//33 91//33 95//33 96//33
f 101//34 111//34 115//34 118//34
f 96//35 95//35 99//35 100//35
f 98//36 97//36 101//36 102//36
f 109//37 96//37 100//37 111//37
f 97//38 109//38 111//38 101//38
f 100//39 99//39 113//39 114//39
f 91//40 108//40 110//40 95//40
f 93//41 107//41 109//41 97//41
f 95//42 110//42 112//42 99//42
f 86//43 104//43 108//43 91//43
f 89//44 103//44 107//44 93//44
f 90//45 104//45 106//45 88//45
f 85//46 103//46 105//46 83//46
f 87//47 88//47 106//47 105//47
f 117//48 118//48 124//48 123//48
f 113//49 116//49 122//49 119//49
f 102//50 101//50 118//50 117//50
f 111//51 100//51 114//51 115//51
f 99//52 112//52 116//52 113//52
f 112//53 102//53 117//53 116//53
f 124//54 121//54 132//54 131//54
f 120//55 119//55 125//55 126//55
f 115//56 114//56 120//56 121//56
f 118//57 115//57 121//57 124//57
f 116//58 117//58 123//58 122//58
f 114//59 113//59 119//59 120//59
f 128//60 127//60 135//60 136//60
f 119//61 122//61 128//61 125//61
f 121//62 120//62 126//62 127//62
f 122//63 121//63 127//63 128//63
f 131//64 132//64 144//64 143//64
f 122//65 123//65 130//65 129//65
f 123//66 124//66 131//66 130//66
f 121//67 122//67 129//67 132//67
f 136//68 135//68 139//68 140//68
f 127//69 126//69 134//69 135//69
f 125//70 128//70 136//70 133//70
f 126//71 125//71 133//71 134//71
f 138//72 137//72 140//72 139//72
f 135//73 134//73 138//73 139//73
f 133//74 136//74 140//74 137//74
f 134//75 133//75 137//75 138//75
f 144//76 141//76 142//76 143//76
f 129//77 130//77 142//77 141//77
f 132//78 129//78 141//78 144//78
f 130//79 131//79 143//79 142//79
f 145//80 146//80 148//80 147//80
f 152//81 151//81 155//81 156//81
f 151//82 152//82 150//82 149//82
f 167//83 168//83 146//83 145//83
f 165//84 151//84 149//84 167//84
f 166//85 148//85 146//85 168//85
f 156//86 155//86 159//86 160//86
f 165//87 147//87 154//87 169//87
f 166//88 152//88 156//88 170//88
f 147//89 148//89 153//89 154//89
f 172//90 160//90 164//90 174//90
f 169//91 154//91 158//91 171//91
f 170//92 156//92 160//92 172//92
f 154//93 153//93 157//93 158//93
f 163//94 173//94 177//94 180//94
f 158//95 157//95 161//95 162//95
f 160//96 159//96 163//96 164//96
f 171//97 158//97 162//97 173//97
f 159//98 171//98 173//98 163//98
f 162//99 161//99 175//99 176//99
f 153//100 170//100 172//100 157//100
f 155//101 169//101 171//101 159//101
f 157//102 172//102 174//102 161//102
f 148//103 166//103 170//103 153//103
f 151//104 165//104 169//104 155//104
f 152//105 166//105 168//105 150//105
f 147//106 165//106 167//106 145//106
f 149//107 150//107 168//107 167//107
f 179//108 180//108 186//108 185//108
f 175//109 178//109 184//109 181//109
f 164//110 163//110 180//110 179//110
f 173//111 162//111 176//111 177//111
f 161//112 174//112 178//112 175//112
f 174//113 164//113 179//113 178//113
f 186//114 183//114 194//114 193//114
f 182//115 181//115 187//115 188//115
f 177//116 176//116 182//116 183//116
f 180//117 177//117 183//117 186//117
f 178//118 179//118 185//118 184//118
f 176//119 175//119 181//119 182//119
f 190//120 189//120 197//120 198//120
f 181//121 184//121 190//121 187//121
f 183//122 182//122 188//122 189//122
f 184//123 183//123 189//123 190//123
f 193//124 194//124 206//124 205//124
f 184//125 185//125 192//125 191//125
f 185//126 186//126 193//126 192//126
f 183//127 184//127 191//127 194//127
f 198//128 197//128 201//128 202//128
f 189//129 188//129 196//129 197//129
f 187//130 190//130 198//130 195//130
f 188//131 187//131 195//131 196//131
f 200//132 199//132 202//132 201//132
f 197//133 196//133 200//133 201//133
f 195//134 198//134 202//134 199//134
f 196//135 195//135 199//135 200//135
f 206//136 203//136 204//136 205//136
f 191//137 192//137 204//137 203//137
f 194//138 191//138 203//138 206//138
f 192//139 193//139 205//139 204//139
