# Blender v2.91.2 OBJ File: 'camionnete02.blend'
# www.blender.org
mtllib arme_000064.mtl
o Cube.046_Cube.010
v 286.131439 469.815552 -1086.716064
v 276.988556 250.559464 -1107.265381
v 388.534332 483.790771 -1281.388672
v 379.391479 264.534729 -1301.938232
v 91.172073 487.438416 -1188.004639
v 82.029129 268.182312 -1208.553955
v 193.574966 501.413635 -1382.677246
v 184.432053 282.157532 -1403.226807
v 145.142929 450.574402 -818.690369
v 136.000031 231.318344 -839.239807
v -58.959332 248.941177 -940.528320
v -49.816429 468.197266 -919.978882
v 81.336411 441.866516 -697.391052
v 72.193481 222.610428 -717.940613
v -122.765930 240.233261 -819.229065
v -113.623032 459.489380 -798.679626
v 43.642338 436.722290 -625.732910
v 43.439152 278.078918 -652.576721
v -151.520325 295.701782 -753.865234
v -151.317108 454.345154 -727.021423
v 90.451035 660.444824 -676.905090
v -104.508362 678.067627 -778.193726
v 52.756977 655.300537 -605.246948
v -142.202408 672.923401 -706.535522
v 167.139755 453.576355 -860.507263
v 157.996857 234.320297 -881.056702
v -27.819641 471.199219 -961.795898
v -36.962578 251.943146 -982.345276
v 148.161072 522.952454 -811.906799
v -46.798306 540.575378 -913.195435
v 170.157898 525.954407 -853.723633
v -24.801504 543.577271 -955.012207
v 152.539932 627.961243 -802.065063
v -42.419437 645.584106 -903.353455
v 174.536697 630.963135 -843.881958
v -20.422647 648.586060 -945.170471
v 85.796661 514.441406 -693.349060
v -109.162766 532.064209 -794.637695
v 90.175491 619.450195 -683.507263
v -104.783905 637.073059 -784.795837
v 119.924332 799.764465 -709.395203
v -75.035065 817.387390 -810.683838
v 82.230255 794.620239 -637.737122
v -112.729095 812.243103 -739.025635
v 352.382935 478.857117 -1212.663330
v 343.240051 259.601013 -1233.212891
v 157.423553 496.479980 -1313.951660
v 148.280701 277.223877 -1334.501221
v 291.054626 492.602234 -1332.032959
v 281.911743 273.346130 -1352.582520
v 188.651764 478.627014 -1137.360352
v 179.508865 259.370880 -1157.909668
v 47.663258 459.385803 -869.334595
v 38.520340 240.129745 -889.884033
v -16.143301 450.677979 -748.035278
v -22.031612 239.737366 -753.816711
v -53.837360 445.533691 -676.377197
v -41.420738 277.139893 -709.741760
v -7.028677 669.256226 -727.549438
v -44.722713 664.112000 -655.891296
v 60.517139 243.131699 -931.701050
v 69.660049 462.387756 -911.151550
v 50.681393 531.763916 -862.551147
v 72.678177 534.765808 -904.367981
v 55.060253 636.772705 -852.709290
v 77.057037 639.774658 -894.526245
v -11.683044 523.252869 -743.993408
v -7.304199 628.261597 -734.151550
v 22.444622 808.575928 -760.039490
v -15.249439 803.431641 -688.381409
v 245.760345 268.412415 -1283.856934
v 254.903259 487.668518 -1263.307617
v 339.794495 488.196472 -1306.710693
v 228.248703 254.965164 -1132.587646
v 87.260193 235.724045 -864.562012
v 10.833786 236.766586 -736.742004
v -8.555333 274.169128 -692.666992
v 118.399918 457.982056 -885.829346
v 121.418030 530.360107 -879.045837
v 125.796860 635.368958 -869.204041
v 303.643097 483.262817 -1237.985352
v 330.651611 268.940430 -1327.260498
v 237.391586 474.221313 -1112.038330
v 96.403107 454.980103 -844.012573
v 32.596539 446.272217 -722.713196
v -5.097523 441.127991 -651.055054
v 41.711185 664.850525 -702.227234
v 4.017147 659.706299 -630.569153
v 109.257004 238.726013 -906.378845
v 99.421234 527.358215 -837.229004
v 103.800079 632.367004 -827.387146
v 37.056805 518.847107 -718.671265
v 41.435654 623.855896 -708.829346
v 71.184509 804.170227 -734.717346
v 33.490421 799.025940 -663.059204
v 294.500153 264.006714 -1258.535156
v 107.545120 197.673294 -910.226501
v 58.805256 202.078995 -935.548645
v 292.788300 222.954025 -1262.382568
v 244.048477 227.359726 -1287.704590
v 177.796967 218.318161 -1161.757324
v 226.536835 213.912460 -1136.435303
v 413.540955 407.754700 -1140.568604
v 384.245209 403.756653 -1084.876221
v 380.202423 306.803833 -1093.962891
v 409.498047 310.801941 -1149.655518
v 455.670685 403.946533 -1118.680908
v 426.374908 399.948425 -1062.988281
v 422.332092 302.995667 -1072.074951
v 451.627777 306.993774 -1127.767822
v 520.142578 398.118835 -1085.185547
v 490.846832 394.120667 -1029.492920
v 486.803894 297.167908 -1038.579590
v 516.099670 301.166016 -1094.272461
v 561.629456 394.368713 -1063.631592
v 532.333740 390.370605 -1007.939087
v 528.290894 293.417847 -1017.025818
v 557.586548 297.415955 -1072.718506
v 667.064941 314.851990 -1966.796875
v 618.325134 319.257690 -1992.118896
v 627.467896 538.513855 -1971.569580
v 676.207825 534.108093 -1946.247559
v 51.267086 874.285400 -768.699585
v -38.555187 882.404663 -815.365601
v 16.534050 869.545227 -702.670410
v -73.288177 877.664490 -749.336426
v 106.356323 861.426025 -656.004639
v 141.089417 866.166199 -722.033630
v 96.178268 870.225952 -745.366516
v 61.445194 865.485596 -679.337524
vn 0.8845 -0.0800 0.4596
vn 0.4646 0.0634 -0.8832
vn -0.8845 0.0800 -0.4596
vn 0.0415 0.9948 0.0932
vn -0.0415 -0.9948 -0.0932
vn -0.4646 -0.0634 0.8832
vn -0.3397 -0.7856 0.5172
vn -0.1258 -0.9869 -0.1012
vn -0.5375 -0.1677 0.8264
vn -0.8852 0.0794 -0.4584
vn 0.8852 -0.0794 0.4584
vn 0.4206 -0.2895 -0.8598
vn 0.4190 -0.2969 -0.8581
vn -0.4206 0.2895 0.8598
vn 0.7752 0.0268 -0.6311
vn -0.8124 0.4273 -0.3967
vn -0.4280 -0.1791 0.8858
vn -0.0204 -0.9988 -0.0452
vn -0.4009 0.3735 0.8365
vn -0.4658 -0.2049 0.8609
vn -0.0720 -0.9968 -0.0349
vn -0.0790 -0.0898 0.9928
vn 0.4535 -0.8738 0.1758
vn 0.5227 0.7855 0.3313
vn 0.8739 -0.1937 0.4458
usemtl Matériau.011
s off
f 45//1 46//1 4//1 3//1
f 49//2 50//2 8//2 7//2
f 47//3 48//3 6//3 5//3
f 26//1 25//1 9//1 10//1
f 72//4 47//4 5//4 51//4
f 96//5 46//5 2//5 74//5
f 10//1 9//1 13//1 14//1
f 84//6 9//6 29//6 90//6
f 89//5 26//5 10//5 75//5
f 27//3 28//3 11//3 12//3
f 76//7 14//7 18//7 77//7
f 75//8 10//8 14//8 76//8
f 12//3 11//3 15//3 16//3
f 53//4 12//4 16//4 55//4
f 86//9 77//9 18//9 17//9
f 16//10 15//10 19//10 20//10
f 16//3 20//3 24//3 22//3
f 14//11 13//11 17//11 18//11
f 59//12 22//12 42//12 69//12
f 86//6 17//6 23//6 88//6
f 17//1 13//1 21//1 23//1
f 55//2 16//2 22//2 59//2
f 5//3 6//3 28//3 27//3
f 74//5 2//5 26//5 89//5
f 51//4 5//4 27//4 62//4
f 2//1 1//1 25//1 26//1
f 32//3 30//3 34//3 36//3
f 62//2 27//2 32//2 64//2
f 27//3 12//3 30//3 32//3
f 9//1 25//1 31//1 29//1
f 66//4 36//4 34//4 65//4
f 90//5 29//5 37//5 92//5
f 64//2 32//2 36//2 66//2
f 29//1 31//1 35//1 33//1
f 92//6 37//6 39//6 93//6
f 29//1 33//1 39//1 37//1
f 34//3 30//3 38//3 40//3
f 65//4 34//4 40//4 68//4
f 69//13 42//13 124//13 123//13
f 23//1 21//1 41//1 43//1
f 88//14 23//14 43//14 95//14
f 22//3 24//3 44//3 42//3
f 82//5 4//5 46//5 96//5
f 49//4 7//4 47//4 72//4
f 7//3 8//3 48//3 47//3
f 46//15 45//15 103//15 106//15
f 73//4 49//4 72//4 81//4
f 8//5 50//5 71//5 48//5
f 24//14 60//14 70//14 44//14
f 42//16 44//16 126//16 124//16
f 91//4 65//4 68//4 93//4
f 38//6 67//6 68//6 40//6
f 79//2 64//2 66//2 80//2
f 30//5 63//5 67//5 38//5
f 80//4 66//4 65//4 91//4
f 78//2 62//2 64//2 79//2
f 83//4 51//4 62//4 78//4
f 6//5 52//5 61//5 28//5
f 85//2 55//2 59//2 87//2
f 20//6 57//6 60//6 24//6
f 87//12 59//12 69//12 94//12
f 20//17 19//17 58//17 57//17
f 84//4 53//4 55//4 85//4
f 11//18 54//18 56//18 15//18
f 15//7 56//7 58//7 19//7
f 28//5 61//5 54//5 11//5
f 12//6 53//6 63//6 30//6
f 48//5 71//5 52//5 6//5
f 81//4 72//4 51//4 83//4
f 50//3 49//3 121//3 120//3
f 3//2 4//2 82//2 73//2
f 45//4 81//4 83//4 1//4
f 9//4 84//4 85//4 13//4
f 21//12 87//12 94//12 41//12
f 13//2 85//2 87//2 21//2
f 1//4 83//4 78//4 25//4
f 25//2 78//2 79//2 31//2
f 35//4 80//4 91//4 33//4
f 31//2 79//2 80//2 35//2
f 33//4 91//4 93//4 39//4
f 70//19 95//19 130//19 125//19
f 3//4 73//4 81//4 45//4
f 50//5 82//5 96//5 71//5
f 60//14 88//14 95//14 70//14
f 67//6 92//6 93//6 68//6
f 63//5 90//5 92//5 67//5
f 52//3 71//3 100//3 101//3
f 57//6 86//6 88//6 60//6
f 57//20 58//20 77//20 86//20
f 54//21 75//21 76//21 56//21
f 56//7 76//7 77//7 58//7
f 61//5 89//5 75//5 54//5
f 53//6 84//6 90//6 63//6
f 89//6 61//6 98//6 97//6
f 101//5 102//5 97//5 98//5
f 100//5 99//5 102//5 101//5
f 61//3 52//3 101//3 98//3
f 74//1 89//1 97//1 102//1
f 71//2 96//2 99//2 100//2
f 96//1 74//1 102//1 99//1
f 106//2 103//2 107//2 110//2
f 1//22 2//22 105//22 104//22
f 2//23 46//23 106//23 105//23
f 45//24 1//24 104//24 103//24
f 109//5 110//5 114//5 113//5
f 104//6 105//6 109//6 108//6
f 105//5 106//5 110//5 109//5
f 103//4 104//4 108//4 107//4
f 113//5 114//5 118//5 117//5
f 107//4 108//4 112//4 111//4
f 110//2 107//2 111//2 114//2
f 108//6 109//6 113//6 112//6
f 116//1 117//1 118//1 115//1
f 111//4 112//4 116//4 115//4
f 114//2 111//2 115//2 118//2
f 122//2 119//2 120//2 121//2
f 82//5 50//5 120//5 119//5
f 73//1 82//1 119//1 122//1
f 49//4 73//4 122//4 121//4
f 123//4 124//4 126//4 125//4
f 129//4 123//4 125//4 130//4
f 128//4 129//4 130//4 127//4
f 95//19 43//19 127//19 130//19
f 94//13 69//13 123//13 129//13
f 43//25 41//25 128//25 127//25
f 44//19 70//19 125//19 126//19
f 41//13 94//13 129//13 128//13
o Cube.048_Cube.024
v -562.722534 450.838440 181.109680
v -724.069336 340.223724 39.232491
v -424.205261 496.060730 -11.673813
v -585.664307 386.134003 -152.625305
v -683.078796 644.946655 66.363525
v -765.805786 588.231445 -6.380859
v -612.057129 668.133423 -32.481941
v -694.643127 611.645630 -105.038185
v -369.231537 524.422729 -438.752716
v -275.539215 579.589600 -373.937714
v -329.887604 692.548706 -391.519684
v -423.579926 637.381836 -456.334686
v -252.638367 571.872925 -614.951721
v -183.753784 612.432983 -567.298157
v -223.711914 695.482971 -580.224792
v -292.596619 654.923035 -627.878357
v -179.024963 604.280518 -724.481018
v -128.684998 633.921143 -689.656372
v -157.885925 694.613098 -699.103210
v -208.225952 664.972412 -733.927612
v -487.122559 601.077515 -9.249168
v -658.313232 484.506165 -158.870667
v -634.210815 553.043335 195.406281
v -805.500244 435.612213 44.786240
v -296.930298 638.423950 -385.475769
v -396.396301 579.857483 -454.284882
v -191.850311 657.415161 -588.280762
v -264.979919 614.355774 -638.870789
v -127.677979 668.359619 -716.331787
v -181.120056 636.892395 -753.302368
v -128.829468 612.131714 -803.722778
v -78.489441 641.772339 -768.898315
v -74.872803 682.491028 -804.691223
v -128.314941 651.023804 -841.661865
v -155.821960 678.138428 -820.885559
v -105.481934 707.779114 -786.061035
v -93.326660 618.967651 -860.861755
v -42.986633 648.608337 -826.037292
v -39.370056 689.326904 -861.830200
v -92.812134 657.859741 -898.800659
v -120.319092 684.974365 -878.024414
v -69.979004 714.615051 -843.199951
v -52.147400 606.578918 -886.178162
v -19.745789 625.657288 -863.763123
v -17.418030 651.865967 -886.801331
v -51.816284 631.612000 -910.597656
v -86.667847 695.346436 -939.589111
v -114.174744 722.461121 -918.812927
v -63.834778 752.101807 -883.988403
v -33.225708 726.813660 -902.618469
v -24.732788 596.815186 -903.568970
v -2.888428 609.677307 -888.457520
v -1.319092 627.346558 -903.989197
v -24.509521 613.691833 -920.031921
v -0.446167 597.021912 -928.057861
v 13.208923 605.062195 -918.611389
v 14.190002 616.107422 -928.320435
v -0.306580 607.571716 -938.349060
v -79.271973 725.205627 -952.070007
v -97.561646 743.234558 -938.255615
v -64.089905 762.942993 -915.100281
v -43.737549 746.128540 -927.487793
v -300.108612 421.549866 486.524994
v -293.917236 283.187805 288.496826
v -154.689758 582.976318 373.660278
v -156.831848 448.309967 177.412079
v -464.115326 537.559998 328.494080
v -460.940826 466.617859 226.959503
v -389.354370 624.376831 275.027527
v -390.653351 551.280640 170.003204
v -15.045837 715.514282 -43.519173
v 83.582336 737.843689 33.113976
v 35.316895 850.192505 63.563896
v -62.311340 828.626221 -11.986687
v 97.357117 823.201660 -194.053314
v 170.666931 838.427124 -138.781921
v 135.916077 921.589539 -115.598457
v 62.606384 906.364075 -170.869904
v 168.558716 892.761719 -286.560822
v 222.132507 903.888184 -246.169006
v 196.737122 964.662231 -229.226868
v 143.163269 953.535706 -269.618561
v -260.376648 633.136597 351.969757
v -266.515930 486.243561 138.392456
v -418.621887 457.834351 466.553864
v -412.048950 310.945923 256.322601
v 66.846863 795.756348 45.458366
v -39.008606 773.771606 -34.350761
v 164.791199 888.361267 -139.915710
v 86.963867 872.197510 -198.593048
v 224.394348 945.972168 -257.233276
v 167.519104 934.159973 -300.113861
v 215.967041 928.917603 -359.400879
v 269.540833 940.044006 -319.009003
v 274.463806 991.368652 -336.148468
v 217.588684 979.556519 -379.029266
v 192.823853 997.511841 -347.600067
v 246.397644 1008.638367 -307.208435
v 249.541687 956.098450 -411.420135
v 303.115295 967.224976 -371.028290
v 308.038391 1018.549683 -388.167725
v 251.163025 1006.737488 -431.048370
v 226.398254 1024.692749 -399.619293
v 279.972107 1035.819214 -359.227509
v 288.748352 952.815674 -442.114716
v 323.231506 959.977417 -416.116394
v 326.400208 993.012695 -427.148499
v 289.792175 985.409668 -454.748749
v 258.188782 1056.950928 -454.199127
v 233.423950 1074.906250 -422.769897
v 286.997803 1086.032837 -382.378235
v 315.063904 1068.763184 -411.318390
v 314.726257 949.450806 -463.635712
v 337.973816 954.278992 -446.108368
v 340.110291 976.550659 -453.546173
v 315.430115 971.424866 -472.153351
v 337.975037 958.181641 -487.570404
v 352.507263 961.199768 -476.613861
v 353.842590 975.121887 -481.262848
v 338.414734 971.917847 -492.894562
v 267.077454 1088.935059 -454.430695
v 250.611023 1100.873779 -433.533020
v 286.232849 1108.271851 -406.675964
v 304.894348 1096.789062 -425.918640
vn 0.4749 -0.8695 0.1359
vn -0.3828 0.8935 -0.2350
vn -0.4750 0.8693 -0.1368
vn -0.4266 -0.4111 0.8056
vn 0.3566 0.8195 0.4486
vn -0.6360 -0.5078 -0.5810
vn -0.3879 0.8988 -0.2043
vn 0.7912 0.4312 0.4336
vn -0.7616 -0.0816 -0.6429
vn 0.5358 -0.8442 0.0129
vn -0.7313 -0.3155 -0.6047
vn 0.8110 0.3718 0.4517
vn -0.7279 -0.3530 -0.5879
vn 0.4682 -0.8806 0.0727
vn 0.7119 0.4897 0.5034
vn 0.4754 -0.8777 0.0598
vn -0.3796 0.8994 -0.2168
vn 0.8319 0.3383 0.4399
vn 0.7319 0.5461 0.4076
vn 0.4096 -0.8962 0.1707
vn -0.6599 -0.4943 -0.5659
vn 0.7431 0.5131 0.4297
vn -0.6314 -0.5233 -0.5723
vn -0.5795 -0.4703 -0.6656
vn 0.5127 0.7631 0.3935
vn -0.8123 0.0153 -0.5830
vn 0.6957 0.4032 0.5945
vn -0.7438 0.3782 0.5510
vn -0.4201 0.8943 -0.1540
vn -0.7174 -0.4816 -0.5034
vn -0.4360 0.8908 -0.1279
vn 0.7630 0.3848 0.5194
vn -0.7150 -0.4855 -0.5031
vn -0.7657 -0.3803 -0.5187
vn 0.7076 0.4639 0.5330
vn 0.0969 -0.8227 0.5602
vn 0.7609 0.3889 0.5193
vn 0.7117 0.4923 0.5011
vn -0.7656 -0.3776 -0.5209
vn 0.4201 -0.8943 0.1540
vn 0.1528 0.6326 -0.7593
vn -0.5459 -0.5814 -0.6034
vn 0.8847 0.2610 0.3863
vn 0.1714 0.6140 -0.7704
vn 0.6992 0.6768 0.2301
vn -0.7710 -0.4067 -0.4900
vn -0.6633 0.5981 0.4498
vn 0.6633 -0.5981 -0.4498
vn -0.1595 0.8536 -0.4960
vn 0.8675 0.2827 0.4093
vn -0.5757 -0.5671 -0.5891
vn 0.0778 -0.8119 0.5785
vn 0.6713 -0.5221 -0.5261
vn 0.8622 0.2891 0.4160
vn -0.5847 -0.5625 -0.5846
vn 0.3166 -0.8977 0.3064
vn 0.1102 0.6726 -0.7318
vn -0.6781 -0.1341 -0.7227
vn 0.6705 -0.4213 -0.6106
vn -0.6182 0.7407 0.2632
vn 0.8140 -0.4736 0.3363
vn -0.5880 0.8028 -0.0987
vn -0.8146 0.4722 -0.3367
vn -0.3285 -0.7790 0.5340
vn -0.4029 0.7202 0.5647
vn 0.0762 -0.5993 -0.7969
vn -0.3380 0.9234 0.1819
vn 0.4554 0.5747 0.6800
vn -0.4340 -0.1325 -0.8911
vn 0.7836 -0.6177 0.0660
vn -0.7745 -0.0171 -0.6324
vn 0.8516 0.1256 0.5090
vn -0.7729 -0.0583 -0.6319
vn 0.4160 -0.8593 -0.2976
vn 0.7628 0.2178 0.6089
vn 0.4172 -0.8511 -0.3189
vn -0.3264 0.9285 0.1772
vn 0.8697 0.0983 0.4837
vn 0.7827 0.3064 0.5417
vn 0.3547 -0.9087 -0.2202
vn -0.7138 -0.1997 -0.6713
vn 0.7870 0.2750 0.5523
vn -0.6875 -0.2251 -0.6904
vn -0.1657 -0.4950 -0.8530
vn 0.0050 0.7965 0.6046
vn -0.3736 -0.2839 -0.8831
vn 0.0469 0.5297 0.8469
vn -0.9502 -0.2686 0.1580
vn -0.3646 0.9009 0.2354
vn -0.7678 -0.2100 -0.6053
vn -0.3797 0.8881 0.2590
vn 0.8073 0.1128 0.5792
vn -0.7656 -0.2139 -0.6067
vn -0.8097 -0.1088 -0.5767
vn 0.7580 0.1826 0.6261
vn 0.0635 -0.9805 0.1859
vn 0.8056 0.1167 0.5809
vn 0.7627 0.2210 0.6078
vn -0.8095 -0.1055 -0.5776
vn 0.3646 -0.9009 -0.2354
vn 0.1647 0.8731 -0.4589
vn -0.6075 -0.2701 -0.7470
vn 0.9150 0.0461 0.4008
vn 0.1816 0.8596 -0.4776
vn 0.7519 0.4979 0.4321
vn -0.8156 -0.1442 -0.5603
vn -0.6030 0.4020 0.6890
vn 0.6030 -0.4020 -0.6890
vn -0.1212 0.9864 -0.1109
vn 0.9002 0.0578 0.4315
vn -0.6356 -0.2612 -0.7264
vn 0.0459 -0.9770 0.2082
vn 0.6131 -0.3025 -0.7298
vn 0.8956 0.0612 0.4406
vn -0.6441 -0.2584 -0.7199
vn 0.2673 -0.9594 -0.0903
vn 0.1261 0.9009 -0.4153
vn -0.7138 0.1935 -0.6730
vn 0.6157 -0.1767 -0.7679
vn -0.5558 0.6044 0.5707
usemtl Matériau.012
s off
f 131//26 132//26 134//26 133//26
f 138//27 137//27 141//27 142//27
f 137//28 138//28 136//28 135//28
f 153//29 154//29 132//29 131//29
f 151//30 137//30 135//30 153//30
f 152//31 134//31 132//31 154//31
f 142//32 141//32 145//32 146//32
f 151//33 133//33 140//33 155//33
f 152//34 138//34 142//34 156//34
f 133//35 134//35 139//35 140//35
f 158//36 146//36 150//36 160//36
f 155//37 140//37 144//37 157//37
f 156//38 142//38 146//38 158//38
f 140//39 139//39 143//39 144//39
f 149//40 159//40 163//40 166//40
f 144//41 143//41 147//41 148//41
f 146//42 145//42 149//42 150//42
f 157//43 144//43 148//43 159//43
f 145//44 157//44 159//44 149//44
f 148//45 147//45 161//45 162//45
f 139//46 156//46 158//46 143//46
f 141//47 155//47 157//47 145//47
f 143//48 158//48 160//48 147//48
f 134//49 152//49 156//49 139//49
f 137//50 151//50 155//50 141//50
f 138//51 152//51 154//51 136//51
f 133//52 151//52 153//52 131//52
f 135//53 136//53 154//53 153//53
f 165//54 166//54 172//54 171//54
f 161//55 164//55 170//55 167//55
f 150//56 149//56 166//56 165//56
f 159//57 148//57 162//57 163//57
f 147//58 160//58 164//58 161//58
f 160//59 150//59 165//59 164//59
f 172//60 169//60 180//60 179//60
f 168//61 167//61 173//61 174//61
f 163//62 162//62 168//62 169//62
f 166//63 163//63 169//63 172//63
f 164//64 165//64 171//64 170//64
f 162//65 161//65 167//65 168//65
f 176//66 175//66 183//66 184//66
f 167//67 170//67 176//67 173//67
f 169//68 168//68 174//68 175//68
f 170//69 169//69 175//69 176//69
f 179//70 180//70 192//70 191//70
f 170//71 171//71 178//71 177//71
f 171//72 172//72 179//72 178//72
f 169//73 170//73 177//73 180//73
f 184//74 183//74 187//74 188//74
f 175//75 174//75 182//75 183//75
f 173//76 176//76 184//76 181//76
f 174//77 173//77 181//77 182//77
f 186//78 185//78 188//78 187//78
f 183//79 182//79 186//79 187//79
f 181//80 184//80 188//80 185//80
f 182//81 181//81 185//81 186//81
f 192//82 189//82 190//82 191//82
f 177//83 178//83 190//83 189//83
f 180//84 177//84 189//84 192//84
f 178//85 179//85 191//85 190//85
f 193//86 194//86 196//86 195//86
f 200//87 199//87 203//87 204//87
f 199//88 200//88 198//88 197//88
f 215//89 216//89 194//89 193//89
f 213//90 199//90 197//90 215//90
f 214//91 196//91 194//91 216//91
f 204//92 203//92 207//92 208//92
f 213//93 195//93 202//93 217//93
f 214//94 200//94 204//94 218//94
f 195//95 196//95 201//95 202//95
f 220//96 208//96 212//96 222//96
f 217//97 202//97 206//97 219//97
f 218//98 204//98 208//98 220//98
f 202//99 201//99 205//99 206//99
f 211//100 221//100 225//100 228//100
f 206//101 205//101 209//101 210//101
f 208//102 207//102 211//102 212//102
f 219//103 206//103 210//103 221//103
f 207//104 219//104 221//104 211//104
f 210//105 209//105 223//105 224//105
f 201//106 218//106 220//106 205//106
f 203//107 217//107 219//107 207//107
f 205//108 220//108 222//108 209//108
f 196//109 214//109 218//109 201//109
f 199//110 213//110 217//110 203//110
f 200//111 214//111 216//111 198//111
f 195//112 213//112 215//112 193//112
f 197//113 198//113 216//113 215//113
f 227//114 228//114 234//114 233//114
f 223//115 226//115 232//115 229//115
f 212//116 211//116 228//116 227//116
f 221//117 210//117 224//117 225//117
f 209//118 222//118 226//118 223//118
f 222//119 212//119 227//119 226//119
f 234//120 231//120 242//120 241//120
f 230//121 229//121 235//121 236//121
f 225//122 224//122 230//122 231//122
f 228//123 225//123 231//123 234//123
f 226//124 227//124 233//124 232//124
f 224//125 223//125 229//125 230//125
f 238//126 237//126 245//126 246//126
f 229//127 232//127 238//127 235//127
f 231//128 230//128 236//128 237//128
f 232//129 231//129 237//129 238//129
f 241//130 242//130 254//130 253//130
f 232//131 233//131 240//131 239//131
f 233//132 234//132 241//132 240//132
f 231//133 232//133 239//133 242//133
f 246//134 245//134 249//134 250//134
f 237//135 236//135 244//135 245//135
f 235//136 238//136 246//136 243//136
f 236//137 235//137 243//137 244//137
f 248//138 247//138 250//138 249//138
f 245//139 244//139 248//139 249//139
f 243//140 246//140 250//140 247//140
f 244//141 243//141 247//141 248//141
f 254//142 251//142 252//142 253//142
f 239//143 240//143 252//143 251//143
f 242//144 239//144 251//144 254//144
f 240//145 241//145 253//145 252//145
