# Blender v2.91.2 OBJ File: 'camionnete02.blend'
# www.blender.org
mtllib arme_000068.mtl
o Cube.046_Cube.010
v 306.928741 690.126282 -1056.610840
v 298.649475 470.463623 -1072.699829
v 403.750732 700.957764 -1254.315796
v 395.471527 481.295044 -1270.405029
v 109.100433 704.620483 -1152.699219
v 100.821152 484.957825 -1168.788208
v 205.922455 715.451965 -1350.404053
v 197.643204 495.789246 -1366.493286
v 173.623993 675.213562 -784.410217
v 165.344757 455.550842 -800.499207
v -32.483551 470.045044 -896.587524
v -24.204304 689.707764 -880.498535
v 113.294868 668.464600 -661.221436
v 105.015602 448.801819 -677.310547
v -92.812744 463.296021 -773.398865
v -84.533485 682.958801 -757.309875
v 77.655098 664.477539 -588.447205
v 77.739075 505.347412 -612.236877
v -120.089294 519.841614 -708.325195
v -120.173256 678.971741 -684.535400
v 194.422012 677.540222 -826.878479
v 186.142761 457.877502 -842.967529
v -3.406323 692.034485 -922.966858
v -11.685611 472.371704 -939.055847
v 369.569580 697.133911 -1184.519897
v 361.290344 477.471252 -1200.609009
v 171.741257 711.628113 -1280.608154
v 163.462036 491.965393 -1296.697266
v 304.836578 708.204895 -1302.360107
v 296.557373 488.542114 -1318.448975
v 208.014603 697.373474 -1104.655029
v 199.735367 477.710693 -1120.744019
v 74.709846 682.460632 -832.454346
v 66.430565 462.797913 -848.543274
v 14.380704 675.711670 -709.265625
v 9.713492 464.667236 -710.845581
v -21.259056 671.724670 -636.491272
v -8.679130 502.796082 -666.966309
v 87.228569 465.124573 -891.011658
v 95.507828 684.787292 -874.922668
v 262.376160 484.718323 -1248.653076
v 270.655426 704.381104 -1232.564087
v 354.293701 704.581299 -1278.337891
v 249.192429 474.087158 -1096.721924
v 115.887650 459.174438 -824.521362
v 43.062523 462.223877 -694.647461
v 24.669910 500.352661 -650.768066
v 144.964935 681.163696 -850.900513
v 320.112518 700.757507 -1208.541992
v 346.014435 484.918579 -1294.427124
v 257.471619 693.749878 -1080.633057
v 124.166924 678.837097 -808.432373
v 63.837765 672.088074 -685.243591
v 28.198013 668.101074 -612.469238
v 136.685654 461.501099 -866.989624
v 311.833221 481.094788 -1224.631104
v 135.135513 420.372192 -870.002014
v 85.678391 423.995728 -894.024109
v 310.283020 439.965881 -1227.643677
v 260.825989 443.589478 -1251.665649
v 198.185135 436.581848 -1123.756592
v 247.642258 432.958313 -1099.734375
v 433.184875 627.804260 -1112.826294
v 405.485748 624.705566 -1056.266235
v 401.824860 527.572998 -1063.380615
v 429.523865 530.671692 -1119.940796
v 475.934509 624.672241 -1092.062256
v 448.235413 621.573547 -1035.502197
v 444.574432 524.440918 -1042.616455
v 472.273560 527.539673 -1099.176636
v 541.355164 619.879089 -1060.286621
v 513.656006 616.780396 -1003.726379
v 509.994995 519.647827 -1010.840759
v 537.694092 522.746521 -1067.401001
v 583.452515 616.794800 -1039.839233
v 555.753357 613.696045 -983.279175
v 552.092407 516.563538 -990.393555
v 579.791443 519.662231 -1046.953613
v 664.093445 520.502258 -1943.925293
v 614.636414 524.125793 -1967.947266
v 622.915527 743.788513 -1951.858398
v 672.372681 740.164917 -1927.836182
vn 0.8976 -0.0658 0.4360
vn 0.4393 0.0491 -0.8970
vn -0.8976 0.0658 -0.4360
vn 0.0376 0.9966 0.0730
vn -0.0376 -0.9966 -0.0730
vn -0.3200 -0.7775 0.5415
vn -0.1221 -0.9894 -0.0787
vn -0.5130 -0.1550 0.8443
vn -0.8982 0.0652 -0.4348
vn 0.8982 -0.0652 0.4348
vn 0.7570 0.0193 -0.6531
vn -0.4019 -0.1645 0.9008
vn -0.0152 -0.9996 -0.0255
vn -0.4401 -0.1911 0.8774
vn -0.0664 -0.9977 -0.0138
vn -0.4393 -0.0491 0.8970
vn -0.0506 -0.0711 0.9962
vn 0.4639 -0.8675 0.1797
vn 0.5266 0.7949 0.3014
usemtl Matériau.011
s off
f 25//1 26//1 4//1 3//1
f 29//2 30//2 8//2 7//2
f 27//3 28//3 6//3 5//3
f 22//1 21//1 9//1 10//1
f 42//4 27//4 5//4 31//4
f 56//5 26//5 2//5 44//5
f 10//1 9//1 13//1 14//1
f 55//5 22//5 10//5 45//5
f 23//3 24//3 11//3 12//3
f 46//6 14//6 18//6 47//6
f 45//7 10//7 14//7 46//7
f 12//3 11//3 15//3 16//3
f 33//4 12//4 16//4 35//4
f 54//8 47//8 18//8 17//8
f 16//9 15//9 19//9 20//9
f 14//10 13//10 17//10 18//10
f 5//3 6//3 24//3 23//3
f 44//5 2//5 22//5 55//5
f 31//4 5//4 23//4 40//4
f 2//1 1//1 21//1 22//1
f 50//5 4//5 26//5 56//5
f 29//4 7//4 27//4 42//4
f 7//3 8//3 28//3 27//3
f 26//11 25//11 63//11 66//11
f 43//4 29//4 42//4 49//4
f 8//5 30//5 41//5 28//5
f 51//4 31//4 40//4 48//4
f 6//5 32//5 39//5 24//5
f 20//12 19//12 38//12 37//12
f 52//4 33//4 35//4 53//4
f 11//13 34//13 36//13 15//13
f 15//6 36//6 38//6 19//6
f 24//5 39//5 34//5 11//5
f 28//5 41//5 32//5 6//5
f 49//4 42//4 31//4 51//4
f 30//3 29//3 81//3 80//3
f 3//2 4//2 50//2 43//2
f 25//4 49//4 51//4 1//4
f 9//4 52//4 53//4 13//4
f 1//4 51//4 48//4 21//4
f 3//4 43//4 49//4 25//4
f 30//5 50//5 56//5 41//5
f 32//3 41//3 60//3 61//3
f 37//14 38//14 47//14 54//14
f 34//15 45//15 46//15 36//15
f 36//6 46//6 47//6 38//6
f 39//5 55//5 45//5 34//5
f 55//16 39//16 58//16 57//16
f 61//5 62//5 57//5 58//5
f 60//5 59//5 62//5 61//5
f 39//3 32//3 61//3 58//3
f 44//1 55//1 57//1 62//1
f 41//2 56//2 59//2 60//2
f 56//1 44//1 62//1 59//1
f 66//2 63//2 67//2 70//2
f 1//17 2//17 65//17 64//17
f 2//18 26//18 66//18 65//18
f 25//19 1//19 64//19 63//19
f 69//5 70//5 74//5 73//5
f 64//16 65//16 69//16 68//16
f 65//5 66//5 70//5 69//5
f 63//4 64//4 68//4 67//4
f 73//5 74//5 78//5 77//5
f 67//4 68//4 72//4 71//4
f 70//2 67//2 71//2 74//2
f 68//16 69//16 73//16 72//16
f 76//1 77//1 78//1 75//1
f 71//4 72//4 76//4 75//4
f 74//2 71//2 75//2 78//2
f 82//2 79//2 80//2 81//2
f 50//5 30//5 80//5 79//5
f 43//1 50//1 79//1 82//1
f 29//4 43//4 82//4 81//4
o Cube.048_Cube.024
v -562.877258 452.745697 181.371231
v -725.227112 341.129822 41.435585
v -423.930817 493.262756 -12.148323
v -586.097107 382.250732 -150.956268
v -681.424011 645.893921 63.173340
v -764.665222 588.665344 -8.575523
v -610.182312 666.668152 -36.049553
v -693.237610 609.634888 -107.547096
v -372.144531 513.883606 -440.592194
v -277.038391 570.852478 -379.502106
v -332.595490 683.122864 -397.706207
v -427.701630 626.154114 -458.796173
v -260.840302 558.625000 -620.872925
v -190.916168 600.509766 -575.958008
v -231.762970 683.053528 -589.342163
v -301.687225 641.168762 -634.256897
v -190.534058 589.354736 -733.027100
v -139.434448 619.963562 -700.203979
v -169.284790 680.285461 -709.984802
v -220.384460 649.676636 -742.807922
v -485.863251 598.882202 -11.598373
v -657.896729 481.118134 -158.882843
v -633.419006 555.844116 193.836609
v -805.773315 437.350128 45.277748
v -299.128540 629.323792 -391.557159
v -400.095398 568.844360 -456.411774
v -199.890808 645.029297 -597.560852
v -274.123993 600.563477 -645.243408
v -139.399475 653.886414 -727.550659
v -193.648163 621.391296 -762.396301
v -142.627930 595.976929 -813.783752
v -91.528198 626.585754 -780.960754
v -89.181030 666.627197 -817.613037
v -143.429749 634.132141 -852.458679
v -170.521423 661.476990 -831.439941
v -119.421692 692.085754 -798.616821
v -108.783264 601.922302 -872.018066
v -57.683533 632.531128 -839.195068
v -55.336426 672.572510 -875.847229
v -109.585144 640.077515 -910.692932
v -136.676758 667.422302 -889.674133
v -85.577026 698.031067 -856.851013
v -68.248291 589.294983 -898.240234
v -35.357788 608.996460 -877.113403
v -33.847107 634.769348 -900.704712
v -68.764465 613.853760 -923.133362
v -104.829895 676.806580 -952.347290
v -131.921570 704.151367 -931.328430
v -80.821960 734.760193 -898.505310
v -50.581360 709.301636 -917.501343
v -41.267700 579.362366 -916.204590
v -19.093811 592.644531 -901.961548
v -18.075256 610.019897 -917.866211
v -41.615662 595.919189 -932.987000
v -17.677734 579.242432 -941.365723
v -3.816528 587.545288 -932.462280
v -3.179749 598.406799 -942.404602
v -17.895142 589.592285 -951.856689
v -97.981628 706.463318 -965.599548
v -115.995422 724.645142 -951.623718
v -82.018494 744.997314 -929.799255
v -61.911255 728.069641 -942.429993
v -302.943542 436.437866 483.601135
v -293.874084 286.576599 294.242004
v -159.550110 588.710632 361.329254
v -156.663513 445.707092 174.875793
v -466.021698 541.733154 317.322083
v -461.371552 464.895020 220.232361
v -391.672058 624.741516 259.481262
v -391.019897 546.485718 159.029938
v -1.383972 711.671631 -47.219170
v 92.282532 716.511475 37.507591
v 52.347961 829.384033 76.125603
v -40.171570 825.350525 -7.278725
v 132.278137 821.652588 -177.334930
v 202.055969 823.838867 -115.793556
v 173.538391 907.418152 -86.428413
v 103.760559 905.231934 -147.969849
v 216.845886 892.371948 -256.788971
v 267.838501 893.969604 -211.815308
v 246.998291 955.048218 -190.355591
v 196.005554 953.450562 -235.329315
v -264.862183 636.501648 336.547516
v -266.170013 480.515015 132.581329
v -421.464325 470.674530 460.331360
v -411.835938 311.578278 259.303284
v 80.335815 774.034363 55.225761
v -20.419739 770.877686 -33.636925
v 201.008362 873.979858 -112.050636
v 126.930481 871.658813 -177.384338
v 274.919800 936.488525 -218.185822
v 220.784729 934.792480 -265.930939
v 273.095093 930.507568 -321.920929
v 324.087708 932.105164 -276.947235
v 335.162415 984.098999 -288.182343
v 281.027527 982.402832 -335.927490
v 255.634583 999.604614 -304.578217
v 306.627258 1001.202271 -259.604584
v 313.113220 959.117432 -368.311340
v 364.106140 960.715088 -323.337769
v 375.180847 1012.708862 -334.572754
v 321.045715 1011.012695 -382.317688
v 295.652649 1028.214600 -350.968445
v 346.645447 1029.812012 -305.994934
v 354.158630 954.900513 -396.375702
v 386.980530 955.928833 -367.428192
v 394.108826 989.394897 -374.659698
v 359.264587 988.303040 -405.391113
v 334.581726 1062.283691 -399.486664
v 309.188782 1079.485474 -368.137390
v 360.181335 1081.083252 -323.163757
v 388.716736 1063.979736 -351.741699
v 381.337463 951.044922 -416.270264
v 403.464905 951.738220 -396.754639
v 408.270813 974.300110 -401.630035
v 384.779724 973.564087 -422.348175
v 407.136780 959.678223 -437.470642
v 420.968811 960.111572 -425.270996
v 423.972961 974.215210 -428.318665
v 409.288269 973.755005 -441.269745
v 346.426941 1093.065674 -395.717377
v 329.542908 1104.503296 -374.872955
v 363.448425 1105.565552 -344.969208
v 382.422180 1094.193359 -363.971039
vn 0.4669 -0.8711 0.1522
vn -0.3827 0.8893 -0.2504
vn -0.4669 0.8710 -0.1527
vn -0.4304 -0.3928 0.8127
vn 0.3641 0.8240 0.4341
vn -0.6401 -0.5119 -0.5729
vn -0.3993 0.8923 -0.2104
vn 0.7961 0.4370 0.4186
vn -0.7676 -0.0930 -0.6341
vn 0.5335 -0.8454 0.0238
vn -0.7459 -0.3315 -0.5777
vn 0.8209 0.3853 0.4215
vn -0.7417 -0.3687 -0.5603
vn 0.4758 -0.8762 0.0763
vn 0.7224 0.5036 0.4738
vn 0.4826 -0.8735 0.0632
vn -0.3914 0.8927 -0.2232
vn 0.8416 0.3517 0.4098
vn 0.7394 0.5582 0.3764
vn 0.4201 -0.8902 0.1762
vn -0.6722 -0.5090 -0.5376
vn 0.7514 0.5257 0.3987
vn -0.6437 -0.5380 -0.5442
vn -0.5869 -0.4811 -0.6513
vn 0.5195 0.7683 0.3739
vn -0.8113 0.0115 -0.5845
vn 0.6993 0.4072 0.5875
vn -0.7404 0.3948 0.5441
vn -0.4300 0.8887 -0.1592
vn -0.7281 -0.4955 -0.4737
vn -0.4453 0.8855 -0.1326
vn 0.7747 0.3993 0.4903
vn -0.7256 -0.4994 -0.4734
vn -0.7774 -0.3948 -0.4896
vn 0.7192 0.4783 0.5039
vn 0.1179 -0.8111 0.5729
vn 0.7726 0.4034 0.4902
vn 0.7222 0.5061 0.4714
vn -0.7774 -0.3921 -0.4918
vn 0.4300 -0.8887 0.1592
vn 0.1274 0.6187 -0.7752
vn -0.5587 -0.5962 -0.5766
vn 0.8934 0.2737 0.3562
vn 0.1458 0.6001 -0.7866
vn 0.7010 0.6853 0.1974
vn -0.7818 -0.4207 -0.4602
vn -0.6544 0.6027 0.4567
vn 0.6544 -0.6027 -0.4567
vn -0.1789 0.8429 -0.5075
vn 0.8768 0.2958 0.3792
vn -0.5882 -0.5818 -0.5618
vn 0.0993 -0.8001 0.5915
vn 0.6597 -0.5281 -0.5347
vn 0.8716 0.3023 0.3860
vn -0.5971 -0.5772 -0.5571
vn 0.3309 -0.8897 0.3145
vn 0.0853 0.6590 -0.7473
vn -0.6971 -0.1521 -0.7006
vn 0.6559 -0.4290 -0.6211
vn -0.6154 0.7419 0.2662
vn 0.8145 -0.4448 0.3726
vn -0.5483 0.8306 -0.0978
vn -0.8138 0.4463 -0.3722
vn -0.3292 -0.7480 0.5762
vn -0.4046 0.7536 0.5181
vn 0.0880 -0.6452 -0.7589
vn -0.2631 0.9306 0.2546
vn 0.4571 0.5555 0.6946
vn -0.4120 -0.0974 -0.9060
vn 0.7570 -0.6459 0.0987
vn -0.7198 0.1240 -0.6830
vn 0.8169 -0.0164 0.5766
vn -0.7221 0.0830 -0.6868
vn 0.3561 -0.8638 -0.3564
vn 0.7289 0.0782 0.6801
vn 0.3594 -0.8536 -0.3772
vn -0.2508 0.9349 0.2512
vn 0.8338 -0.0387 0.5508
vn 0.7624 0.1705 0.6242
vn 0.2842 -0.9140 -0.2897
vn -0.6736 -0.0591 -0.7367
vn 0.7600 0.1424 0.6341
vn -0.6484 -0.0851 -0.7565
vn -0.1617 -0.4838 -0.8601
vn 0.0071 0.7994 0.6008
vn -0.3628 -0.3385 -0.8682
vn 0.0413 0.5866 0.8088
vn -0.9501 -0.2651 0.1643
vn -0.2959 0.9058 0.3033
vn -0.7334 -0.0704 -0.6761
vn -0.3140 0.8923 0.3243
vn 0.7656 -0.0274 0.6427
vn -0.7315 -0.0743 -0.6778
vn -0.7678 0.0313 -0.6399
vn 0.7195 0.0422 0.6932
vn -0.0440 -0.9954 0.0852
vn 0.7641 -0.0234 0.6447
vn 0.7293 0.0815 0.6794
vn -0.7672 0.0347 -0.6405
vn 0.2959 -0.9058 -0.3033
vn 0.2821 0.8927 -0.3515
vn -0.5687 -0.1322 -0.8119
vn 0.8804 -0.0868 0.4662
vn 0.2990 0.8795 -0.3703
vn 0.7586 0.3740 0.5336
vn -0.7783 -0.0048 -0.6278
vn -0.6155 0.3915 0.6840
vn 0.6155 -0.3915 -0.6840
vn -0.0188 0.9997 -0.0142
vn 0.8644 -0.0768 0.4969
vn -0.5975 -0.1226 -0.7925
vn -0.0628 -0.9923 0.1065
vn 0.6381 -0.2900 -0.7132
vn 0.8594 -0.0738 0.5059
vn -0.6061 -0.1196 -0.7863
vn 0.1823 -0.9680 -0.1723
vn 0.2429 0.9199 -0.3080
vn -0.6366 0.3303 -0.6969
vn 0.6556 -0.1620 -0.7376
vn -0.5403 0.5987 0.5913
usemtl Matériau.012
s off
f 83//20 84//20 86//20 85//20
f 90//21 89//21 93//21 94//21
f 89//22 90//22 88//22 87//22
f 105//23 106//23 84//23 83//23
f 103//24 89//24 87//24 105//24
f 104//25 86//25 84//25 106//25
f 94//26 93//26 97//26 98//26
f 103//27 85//27 92//27 107//27
f 104//28 90//28 94//28 108//28
f 85//29 86//29 91//29 92//29
f 110//30 98//30 102//30 112//30
f 107//31 92//31 96//31 109//31
f 108//32 94//32 98//32 110//32
f 92//33 91//33 95//33 96//33
f 101//34 111//34 115//34 118//34
f 96//35 95//35 99//35 100//35
f 98//36 97//36 101//36 102//36
f 109//37 96//37 100//37 111//37
f 97//38 109//38 111//38 101//38
f 100//39 99//39 113//39 114//39
f 91//40 108//40 110//40 95//40
f 93//41 107//41 109//41 97//41
f 95//42 110//42 112//42 99//42
f 86//43 104//43 108//43 91//43
f 89//44 103//44 107//44 93//44
f 90//45 104//45 106//45 88//45
f 85//46 103//46 105//46 83//46
f 87//47 88//47 106//47 105//47
f 117//48 118//48 124//48 123//48
f 113//49 116//49 122//49 119//49
f 102//50 101//50 118//50 117//50
f 111//51 100//51 114//51 115//51
f 99//52 112//52 116//52 113//52
f 112//53 102//53 117//53 116//53
f 124//54 121//54 132//54 131//54
f 120//55 119//55 125//55 126//55
f 115//56 114//56 120//56 121//56
f 118//57 115//57 121//57 124//57
f 116//58 117//58 123//58 122//58
f 114//59 113//59 119//59 120//59
f 128//60 127//60 135//60 136//60
f 119//61 122//61 128//61 125//61
f 121//62 120//62 126//62 127//62
f 122//63 121//63 127//63 128//63
f 131//64 132//64 144//64 143//64
f 122//65 123//65 130//65 129//65
f 123//66 124//66 131//66 130//66
f 121//67 122//67 129//67 132//67
f 136//68 135//68 139//68 140//68
f 127//69 126//69 134//69 135//69
f 125//70 128//70 136//70 133//70
f 126//71 125//71 133//71 134//71
f 138//72 137//72 140//72 139//72
f 135//73 134//73 138//73 139//73
f 133//74 136//74 140//74 137//74
f 134//75 133//75 137//75 138//75
f 144//76 141//76 142//76 143//76
f 129//77 130//77 142//77 141//77
f 132//78 129//78 141//78 144//78
f 130//79 131//79 143//79 142//79
f 145//80 146//80 148//80 147//80
f 152//81 151//81 155//81 156//81
f 151//82 152//82 150//82 149//82
f 167//83 168//83 146//83 145//83
f 165//84 151//84 149//84 167//84
f 166//85 148//85 146//85 168//85
f 156//86 155//86 159//86 160//86
f 165//87 147//87 154//87 169//87
f 166//88 152//88 156//88 170//88
f 147//89 148//89 153//89 154//89
f 172//90 160//90 164//90 174//90
f 169//91 154//91 158//91 171//91
f 170//92 156//92 160//92 172//92
f 154//93 153//93 157//93 158//93
f 163//94 173//94 177//94 180//94
f 158//95 157//95 161//95 162//95
f 160//96 159//96 163//96 164//96
f 171//97 158//97 162//97 173//97
f 159//98 171//98 173//98 163//98
f 162//99 161//99 175//99 176//99
f 153//100 170//100 172//100 157//100
f 155//101 169//101 171//101 159//101
f 157//102 172//102 174//102 161//102
f 148//103 166//103 170//103 153//103
f 151//104 165//104 169//104 155//104
f 152//105 166//105 168//105 150//105
f 147//106 165//106 167//106 145//106
f 149//107 150//107 168//107 167//107
f 179//108 180//108 186//108 185//108
f 175//109 178//109 184//109 181//109
f 164//110 163//110 180//110 179//110
f 173//111 162//111 176//111 177//111
f 161//112 174//112 178//112 175//112
f 174//113 164//113 179//113 178//113
f 186//114 183//114 194//114 193//114
f 182//115 181//115 187//115 188//115
f 177//116 176//116 182//116 183//116
f 180//117 177//117 183//117 186//117
f 178//118 179//118 185//118 184//118
f 176//119 175//119 181//119 182//119
f 190//120 189//120 197//120 198//120
f 181//121 184//121 190//121 187//121
f 183//122 182//122 188//122 189//122
f 184//123 183//123 189//123 190//123
f 193//124 194//124 206//124 205//124
f 184//125 185//125 192//125 191//125
f 185//126 186//126 193//126 192//126
f 183//127 184//127 191//127 194//127
f 198//128 197//128 201//128 202//128
f 189//129 188//129 196//129 197//129
f 187//130 190//130 198//130 195//130
f 188//131 187//131 195//131 196//131
f 200//132 199//132 202//132 201//132
f 197//133 196//133 200//133 201//133
f 195//134 198//134 202//134 199//134
f 196//135 195//135 199//135 200//135
f 206//136 203//136 204//136 205//136
f 191//137 192//137 204//137 203//137
f 194//138 191//138 203//138 206//138
f 192//139 193//139 205//139 204//139
