# Blender v2.91.2 OBJ File: 'camionnete02.blend'
# www.blender.org
mtllib arme_000258.mtl
o Cube.046_Cube.010
v 64.848953 354.248138 -1304.521240
v 62.485931 133.855057 -1305.171875
v 109.917938 354.401672 -1520.270752
v 107.554916 134.008606 -1520.921387
v -150.887711 356.694275 -1349.585938
v -153.250763 136.301132 -1350.236572
v -105.818680 356.847778 -1565.335449
v -108.181763 136.454666 -1565.986084
v 2.797844 354.036774 -1007.476990
v 0.434807 133.643692 -1008.127441
v -215.301773 136.089752 -1053.191895
v -212.938797 356.482849 -1052.541504
v -25.284279 353.941101 -873.044800
v -27.647354 133.548019 -873.695374
v -243.384018 135.994080 -918.759827
v -241.020981 356.387177 -918.109375
v -41.874008 353.884583 -793.628418
v -40.655869 193.575623 -807.336792
v -256.392578 196.021713 -852.401245
v -257.610718 356.330658 -838.692871
v -22.928596 573.652832 -872.396423
v -238.665237 576.098877 -917.460938
v -39.518288 573.596313 -792.979858
v -255.254959 576.042419 -838.044495
v 12.478996 354.069733 -1053.821289
v 10.115929 133.676666 -1054.471924
v -203.257675 356.515808 -1098.885986
v -205.620743 136.122726 -1099.536377
v 3.577919 426.790161 -1007.262207
v -212.158768 429.236298 -1052.326904
v 13.259041 426.823151 -1053.606445
v -202.477615 429.269226 -1098.671143
v 4.709671 532.343506 -1006.950684
v -211.026932 534.789551 -1052.015137
v 14.390747 532.376404 -1053.295166
v -201.345840 534.822510 -1098.359619
v -23.869553 426.696655 -875.868469
v -239.606216 429.142731 -920.933105
v -22.737808 532.250000 -875.556946
v -238.474472 534.696045 -920.621521
v -10.987701 710.465881 -922.134338
v -226.724380 712.911926 -967.198914
v -27.577446 710.409363 -842.717896
v -243.314011 712.855408 -887.782471
v 94.007172 354.347504 -1444.104736
v 91.644150 133.954407 -1444.755127
v -121.729462 356.793579 -1489.169189
v -124.092468 136.400467 -1489.819580
v 2.049614 355.624756 -1542.803223
v -0.313438 135.231628 -1543.453857
v -43.019356 355.471191 -1327.053467
v -45.382401 135.078110 -1327.704102
v -105.070450 355.259796 -1030.009277
v -107.433456 134.866730 -1030.659668
v -133.152634 355.164154 -895.577148
v -128.850998 144.446884 -883.586487
v -149.742325 355.107635 -816.160645
v -137.622681 184.923676 -838.840820
v -130.796906 574.875916 -894.928589
v -147.386627 574.819336 -815.512268
v -97.752380 134.899704 -1077.004028
v -95.389343 355.292755 -1076.353638
v -104.290421 428.013214 -1029.794556
v -94.609268 428.046143 -1076.138916
v -103.158630 533.566528 -1029.482910
v -93.477570 533.599426 -1075.827393
v -131.737900 427.919739 -898.400757
v -130.606125 533.473022 -898.089172
v -118.856049 711.688904 -944.666626
v -135.445740 711.632324 -865.250183
v -16.224182 135.177429 -1467.287354
v -13.861130 355.570557 -1466.636963
v 55.983822 355.013245 -1531.536865
v 8.551750 134.466583 -1316.437988
v -53.499359 134.255203 -1019.393616
v -92.483078 144.034515 -875.989807
v -101.254745 184.511322 -831.243958
v -41.455170 354.681244 -1065.087402
v -40.675140 427.434601 -1064.872803
v -39.543419 532.987915 -1064.561157
v 40.073021 354.959015 -1455.370850
v 53.620739 134.620117 -1532.187500
v 10.914711 354.859680 -1315.787598
v -51.136322 354.648254 -1018.743103
v -79.218475 354.552643 -884.310974
v -95.808167 354.496094 -804.894470
v -76.862747 574.264343 -883.662537
v -93.452438 574.207825 -804.246033
v -43.818237 134.288177 -1065.738037
v -50.356262 427.401672 -1018.528381
v -49.224510 532.955017 -1018.216919
v -77.803741 427.308197 -887.134644
v -76.671982 532.861511 -886.823059
v -64.921829 711.077393 -933.400452
v -81.511566 711.020813 -853.984070
v 37.709938 134.565918 -1456.021240
v -44.260651 93.022583 -1065.859619
v -98.194824 93.634094 -1077.125732
v 37.267441 93.300323 -1456.143066
v -16.666618 93.911835 -1467.409180
v -45.824860 93.812500 -1327.825928
v 8.109322 93.200989 -1316.559814
v 176.160339 291.819855 -1386.358398
v 163.266830 291.775940 -1324.636230
v 162.222092 194.320343 -1324.923584
v 175.115417 194.364273 -1386.646240
v 222.779892 291.291290 -1376.620361
v 209.886444 291.247345 -1314.897949
v 208.841583 193.791794 -1315.185547
v 221.734970 193.835709 -1376.907959
v 294.122681 290.482422 -1361.717773
v 281.229187 290.438477 -1299.995605
v 280.184326 192.982925 -1300.283203
v 293.077698 193.026855 -1362.005615
v 340.030823 289.961884 -1352.128418
v 327.137329 289.917938 -1290.406006
v 326.092590 192.462402 -1290.693604
v 338.985901 192.506332 -1352.416016
v 201.681381 135.124802 -2240.965576
v 147.747253 135.736313 -2252.231689
v 150.110138 356.129425 -2251.581299
v 204.044373 355.517914 -2240.314941
v -97.080307 777.276611 -965.821838
v -196.475143 778.403564 -986.584106
v -112.366776 777.224548 -892.643738
v -211.761581 778.351440 -913.406067
v -12.971970 776.097595 -871.881592
v 2.314629 776.149780 -945.059387
v -47.382782 776.713318 -955.440552
v -62.669373 776.660950 -882.262634
vn 0.9788 -0.0111 0.2045
vn 0.2045 0.0007 -0.9789
vn -0.9788 0.0111 -0.2045
vn 0.0107 0.9999 0.0030
vn -0.0107 -0.9999 -0.0030
vn -0.2045 -0.0007 0.9789
vn -0.1439 -0.7477 0.6482
vn -0.0944 -0.9955 0.0119
vn -0.2842 -0.1118 0.9522
vn -0.9791 0.0106 -0.2032
vn 0.9791 -0.0106 0.2032
vn 0.1877 -0.3500 -0.9177
vn 0.0107 0.9999 0.0029
vn 0.1871 -0.3573 -0.9151
vn -0.1877 0.3500 0.9177
vn 0.5732 -0.0037 -0.8194
vn -0.9115 0.3647 -0.1901
vn -0.1623 -0.1145 0.9801
vn 0.0227 -0.9990 0.0377
vn -0.1797 0.4323 0.8837
vn -0.2039 -0.1436 0.9684
vn -0.0242 -0.9978 0.0615
vn 0.1972 -0.0050 0.9804
vn 0.5311 -0.8401 0.1104
vn 0.5490 0.8278 0.1153
vn 0.9711 -0.1259 0.2028
usemtl Matériau.011
s off
f 45//1 46//1 4//1 3//1
f 49//2 50//2 8//2 7//2
f 47//3 48//3 6//3 5//3
f 26//1 25//1 9//1 10//1
f 72//4 47//4 5//4 51//4
f 96//5 46//5 2//5 74//5
f 10//1 9//1 13//1 14//1
f 84//6 9//6 29//6 90//6
f 89//5 26//5 10//5 75//5
f 27//3 28//3 11//3 12//3
f 76//7 14//7 18//7 77//7
f 75//8 10//8 14//8 76//8
f 12//3 11//3 15//3 16//3
f 53//4 12//4 16//4 55//4
f 86//9 77//9 18//9 17//9
f 16//10 15//10 19//10 20//10
f 16//3 20//3 24//3 22//3
f 14//11 13//11 17//11 18//11
f 59//12 22//12 42//12 69//12
f 86//6 17//6 23//6 88//6
f 17//1 13//1 21//1 23//1
f 55//2 16//2 22//2 59//2
f 5//3 6//3 28//3 27//3
f 74//5 2//5 26//5 89//5
f 51//4 5//4 27//4 62//4
f 2//1 1//1 25//1 26//1
f 32//3 30//3 34//3 36//3
f 62//2 27//2 32//2 64//2
f 27//3 12//3 30//3 32//3
f 9//1 25//1 31//1 29//1
f 66//13 36//13 34//13 65//13
f 90//5 29//5 37//5 92//5
f 64//2 32//2 36//2 66//2
f 29//1 31//1 35//1 33//1
f 92//6 37//6 39//6 93//6
f 29//1 33//1 39//1 37//1
f 34//3 30//3 38//3 40//3
f 65//4 34//4 40//4 68//4
f 69//14 42//14 124//14 123//14
f 23//1 21//1 41//1 43//1
f 88//15 23//15 43//15 95//15
f 22//3 24//3 44//3 42//3
f 82//5 4//5 46//5 96//5
f 49//4 7//4 47//4 72//4
f 7//3 8//3 48//3 47//3
f 46//16 45//16 103//16 106//16
f 73//4 49//4 72//4 81//4
f 8//5 50//5 71//5 48//5
f 24//15 60//15 70//15 44//15
f 42//17 44//17 126//17 124//17
f 91//4 65//4 68//4 93//4
f 38//6 67//6 68//6 40//6
f 79//2 64//2 66//2 80//2
f 30//5 63//5 67//5 38//5
f 80//13 66//13 65//13 91//13
f 78//2 62//2 64//2 79//2
f 83//4 51//4 62//4 78//4
f 6//5 52//5 61//5 28//5
f 85//2 55//2 59//2 87//2
f 20//6 57//6 60//6 24//6
f 87//12 59//12 69//12 94//12
f 20//18 19//18 58//18 57//18
f 84//4 53//4 55//4 85//4
f 11//19 54//19 56//19 15//19
f 15//7 56//7 58//7 19//7
f 28//5 61//5 54//5 11//5
f 12//6 53//6 63//6 30//6
f 48//5 71//5 52//5 6//5
f 81//4 72//4 51//4 83//4
f 50//3 49//3 121//3 120//3
f 3//2 4//2 82//2 73//2
f 45//4 81//4 83//4 1//4
f 9//4 84//4 85//4 13//4
f 21//12 87//12 94//12 41//12
f 13//2 85//2 87//2 21//2
f 1//4 83//4 78//4 25//4
f 25//2 78//2 79//2 31//2
f 35//13 80//13 91//13 33//13
f 31//2 79//2 80//2 35//2
f 33//4 91//4 93//4 39//4
f 70//20 95//20 130//20 125//20
f 3//4 73//4 81//4 45//4
f 50//5 82//5 96//5 71//5
f 60//15 88//15 95//15 70//15
f 67//6 92//6 93//6 68//6
f 63//5 90//5 92//5 67//5
f 52//3 71//3 100//3 101//3
f 57//6 86//6 88//6 60//6
f 57//21 58//21 77//21 86//21
f 54//22 75//22 76//22 56//22
f 56//7 76//7 77//7 58//7
f 61//5 89//5 75//5 54//5
f 53//6 84//6 90//6 63//6
f 89//6 61//6 98//6 97//6
f 101//5 102//5 97//5 98//5
f 100//5 99//5 102//5 101//5
f 61//3 52//3 101//3 98//3
f 74//1 89//1 97//1 102//1
f 71//2 96//2 99//2 100//2
f 96//1 74//1 102//1 99//1
f 106//2 103//2 107//2 110//2
f 1//23 2//23 105//23 104//23
f 2//24 46//24 106//24 105//24
f 45//25 1//25 104//25 103//25
f 109//5 110//5 114//5 113//5
f 104//6 105//6 109//6 108//6
f 105//5 106//5 110//5 109//5
f 103//4 104//4 108//4 107//4
f 113//5 114//5 118//5 117//5
f 107//4 108//4 112//4 111//4
f 110//2 107//2 111//2 114//2
f 108//6 109//6 113//6 112//6
f 116//1 117//1 118//1 115//1
f 111//4 112//4 116//4 115//4
f 114//2 111//2 115//2 118//2
f 122//2 119//2 120//2 121//2
f 82//5 50//5 120//5 119//5
f 73//1 82//1 119//1 122//1
f 49//4 73//4 122//4 121//4
f 123//4 124//4 126//4 125//4
f 129//4 123//4 125//4 130//4
f 128//4 129//4 130//4 127//4
f 95//20 43//20 127//20 130//20
f 94//14 69//14 123//14 129//14
f 43//26 41//26 128//26 127//26
f 44//20 70//20 125//20 126//20
f 41//14 94//14 129//14 128//14
o Cube.048_Cube.024
v -491.850830 554.478394 147.216522
v -640.448364 377.163330 77.390556
v -373.781433 538.318359 -63.012024
v -522.028931 360.273132 -133.259521
v -648.874451 670.729309 -17.585320
v -725.064514 579.814880 -53.387024
v -588.336914 662.443665 -125.375389
v -663.960938 571.582397 -160.556122
v -393.016663 444.360413 -507.917572
v -288.455078 507.956360 -475.590179
v -351.619476 617.147034 -486.092743
v -456.181000 553.551025 -518.420166
v -331.144409 479.913940 -712.366394
v -254.268341 526.671143 -688.598450
v -300.708191 606.950562 -696.320129
v -377.584137 560.193420 -720.088074
v -291.749695 504.949860 -839.987427
v -235.569702 539.119385 -822.618164
v -269.507324 597.786560 -828.261108
v -325.687256 563.617004 -845.630310
v -452.840027 626.614807 -93.135429
v -609.652832 438.622559 -166.061005
v -578.313721 643.859924 130.014038
v -736.068359 455.618103 55.885201
v -315.349213 564.840881 -485.236603
v -426.354187 497.325928 -519.556091
v -270.178192 569.362488 -709.895203
v -351.791565 519.723877 -735.127686
v -243.690979 571.105774 -851.070190
v -303.332947 534.830627 -869.509644
v -265.339935 507.437775 -930.302551
v -209.160004 541.607239 -912.933411
v -217.579651 579.132141 -951.315857
v -277.221588 542.856934 -969.755554
v -299.530029 570.792114 -944.349670
v -243.350037 604.961609 -926.980591
v -247.025818 510.379150 -995.325623
v -190.845825 544.548767 -977.956238
v -199.265381 582.073486 -1016.338684
v -258.907471 545.798340 -1034.778076
v -281.215790 573.733337 -1009.372498
v -225.035706 607.902893 -992.003357
v -213.606140 497.146027 -1029.939331
v -177.445618 519.139343 -1018.759705
v -182.864929 543.292480 -1043.464600
v -221.253723 519.943726 -1055.333374
v -266.070435 579.749023 -1078.398682
v -288.378906 607.684082 -1052.992920
v -232.198975 641.853577 -1035.623657
v -206.428436 616.024109 -1059.959106
v -191.419464 486.779724 -1053.383667
v -167.041077 501.607056 -1045.846558
v -170.694641 517.890381 -1062.501953
v -196.575256 502.149353 -1070.503540
v -174.702515 485.619293 -1083.529541
v -159.463257 494.888062 -1078.817993
v -161.747009 505.066895 -1089.229614
v -177.925354 495.226990 -1094.231567
v -263.964813 608.622742 -1094.644409
v -278.798096 627.197021 -1077.751587
v -241.443298 649.916748 -1066.202515
v -224.308044 632.742493 -1082.383667
v -314.588867 453.146118 469.940399
v -452.468170 293.464600 352.090149
v -129.484070 330.727631 378.738007
v -254.010162 183.354919 269.097015
v -300.972015 531.551392 227.046356
v -371.666595 449.678192 166.621277
v -198.421936 469.027618 191.096222
v -269.911621 393.221863 124.068344
v 41.776245 87.916626 28.001038
v -16.151306 -13.564392 68.294968
v 64.454712 -24.014160 161.191833
v 123.475220 75.849365 123.929634
v 172.476990 -48.121521 -78.312141
v 127.825562 -124.677917 -49.914436
v 187.892395 -133.549988 20.614456
v 232.543823 -56.993347 -7.783295
v 254.625122 -135.143555 -142.691620
v 221.994385 -191.089905 -121.938957
v 265.890442 -197.573486 -70.397285
v 298.521118 -141.627075 -91.149910
v -136.003235 409.519989 304.648926
v -273.911438 258.870728 174.792236
v -338.223236 545.287354 388.012238
v -484.599060 375.765656 262.899719
v 23.348877 -28.589600 112.552490
v 87.823242 81.954041 71.547729
v 167.692688 -142.045288 -24.651711
v 215.095520 -60.770996 -54.799255
v 259.080872 -211.282104 -111.193047
v 293.722290 -151.888062 -133.224609
v 308.245544 -187.533752 -199.618073
v 275.614624 -243.480103 -178.865326
v 322.245300 -269.721558 -169.421173
v 356.886658 -210.327454 -191.452698
v 360.218689 -199.136902 -149.178070
v 327.587952 -255.083374 -128.425446
v 347.646667 -225.315491 -239.519348
v 315.015991 -281.261963 -218.766754
v 361.646545 -307.503296 -209.322601
v 396.288025 -248.109314 -231.354126
v 399.619812 -236.918701 -189.079346
v 366.989075 -292.865051 -168.326660
v 350.112000 -256.040649 -278.762299
v 329.109192 -292.050903 -265.404846
v 359.123108 -308.941223 -259.326202
v 381.420349 -270.711914 -273.506836
v 444.879333 -275.209717 -228.009979
v 448.210999 -264.018921 -185.735138
v 415.580505 -319.965454 -164.982574
v 410.237854 -334.603760 -205.978394
v 351.542053 -275.759705 -306.302277
v 337.382385 -300.036865 -297.296906
v 357.617249 -311.424072 -293.199005
v 372.649353 -285.650696 -302.759094
v 364.295227 -298.348755 -329.032959
v 355.443909 -313.524536 -323.403625
v 368.092712 -320.642578 -320.841675
v 377.489563 -304.531738 -326.817993
v 465.981995 -297.598267 -215.541077
v 468.197449 -290.157288 -187.432190
v 446.500671 -327.356689 -173.633362
v 442.948425 -337.089844 -200.892029
vn 0.6191 -0.6752 0.4009
vn -0.5132 0.7670 -0.3851
vn -0.6193 0.6743 -0.4023
vn -0.3068 -0.1149 0.9448
vn 0.2415 0.9685 0.0610
vn -0.5794 -0.7698 -0.2676
vn -0.4772 0.8646 -0.1575
vn 0.7796 0.6090 0.1461
vn -0.8138 -0.3455 -0.4672
vn 0.6575 -0.7424 0.1284
vn -0.8491 -0.3904 -0.3557
vn 0.8813 0.4357 0.1829
vn -0.8392 -0.4262 -0.3377
vn 0.5178 -0.8554 0.0080
vn 0.7936 0.5544 0.2508
vn 0.5211 -0.8535 -0.0066
vn -0.4726 0.8644 -0.1718
vn 0.9000 0.4019 0.1685
vn 0.7838 0.6028 0.1492
vn 0.4888 -0.8642 0.1191
vn -0.7602 -0.5627 -0.3246
vn 0.8023 0.5722 0.1698
vn -0.7329 -0.5913 -0.3364
vn -0.6052 -0.6912 -0.3951
vn 0.4405 0.8930 0.0920
vn -0.8330 -0.3218 -0.4500
vn 0.6519 0.6907 0.3131
vn -0.7639 0.4631 0.4495
vn -0.4942 0.8635 -0.1001
vn -0.7993 -0.5465 -0.2499
vn -0.5024 0.8618 -0.0705
vn 0.8528 0.4529 0.2600
vn -0.7967 -0.5503 -0.2499
vn -0.8554 -0.4485 -0.2590
vn 0.7989 0.5312 0.2822
vn 0.2894 -0.7670 0.5727
vn 0.8505 0.4570 0.2602
vn 0.7926 0.5568 0.2484
vn -0.8560 -0.4460 -0.2613
vn 0.4943 -0.8635 0.1001
vn -0.0928 0.5683 -0.8176
vn -0.6560 -0.6491 -0.3852
vn 0.9405 0.3219 0.1084
vn -0.0769 0.5494 -0.8320
vn 0.6973 0.7164 -0.0219
vn -0.8513 -0.4725 -0.2280
vn -0.5488 0.6136 0.5677
vn 0.5488 -0.6136 -0.5677
vn -0.3340 0.8014 -0.4963
vn 0.9290 0.3450 0.1335
vn -0.6816 -0.6346 -0.3644
vn 0.2755 -0.7553 0.5947
vn 0.5317 -0.5444 -0.6488
vn 0.9254 0.3518 0.1410
vn -0.6892 -0.6299 -0.3580
vn 0.4362 -0.8569 0.2749
vn -0.1285 0.6091 -0.7826
vn -0.8397 -0.2185 -0.4971
vn 0.5025 -0.4515 -0.7373
vn -0.5636 0.7407 0.3657
vn 0.0026 -0.5968 0.8024
vn 0.7770 0.6273 0.0518
vn 0.0452 0.6030 -0.7964
vn -0.7905 0.2810 0.5441
vn 0.5665 0.8197 0.0847
vn -0.5692 -0.6962 -0.4374
vn 0.6883 -0.1395 0.7119
vn 0.7829 -0.1193 0.6106
vn -0.1061 0.0456 -0.9933
vn -0.3486 -0.8416 0.4124
vn 0.6071 0.7475 -0.2694
vn -0.5016 -0.8466 0.1782
vn 0.5755 0.7648 -0.2896
vn -0.6080 0.0444 -0.7927
vn -0.4399 -0.8263 0.3517
vn -0.5876 0.0430 -0.8080
vn 0.6977 -0.1468 0.7012
vn -0.4916 -0.8565 0.1573
vn -0.3413 -0.8787 0.3338
vn -0.6673 0.1163 -0.7356
vn 0.4734 0.7799 -0.4095
vn -0.3553 -0.8657 0.3525
vn 0.4568 0.7697 -0.4459
vn -0.5444 -0.3512 -0.7617
vn 0.9149 0.3938 0.0884
vn -0.5024 -0.2923 -0.8137
vn 0.6236 0.5842 0.5195
vn -0.6559 0.7240 -0.2136
vn 0.6559 -0.1053 0.7474
vn 0.4452 0.8270 -0.3434
vn 0.6377 -0.0881 0.7653
vn -0.5157 -0.8157 0.2621
vn 0.4424 0.8269 -0.3472
vn 0.5179 0.8158 -0.2574
vn -0.4745 -0.8076 0.3502
vn -0.8606 0.3734 -0.3464
vn -0.5131 -0.8161 0.2660
vn -0.4367 -0.8277 0.3524
vn 0.5209 0.8142 -0.2566
vn -0.6559 0.1053 -0.7474
vn 0.8636 -0.5042 -0.0014
vn 0.4298 0.7238 -0.5397
vn -0.4975 -0.8660 0.0500
vn 0.8588 -0.5115 -0.0286
vn -0.1247 -0.9291 0.3480
vn 0.4840 0.8358 -0.2594
vn 0.0990 0.2948 0.9504
vn -0.0990 -0.2948 -0.9504
vn 0.8405 -0.3311 0.4289
vn -0.5017 -0.8608 0.0854
vn 0.4338 0.7431 -0.5096
vn -0.8651 0.3855 -0.3209
vn -0.0044 -0.3455 -0.9384
vn -0.5028 -0.8590 0.0959
vn 0.4349 0.7488 -0.5002
vn -0.7517 0.2060 -0.6265
vn 0.8718 -0.4862 0.0600
vn 0.7680 0.6015 -0.2198
vn 0.1108 -0.4018 -0.9090
vn 0.3032 0.1709 0.9375
usemtl Matériau.012
s off
f 131//27 132//27 134//27 133//27
f 138//28 137//28 141//28 142//28
f 137//29 138//29 136//29 135//29
f 153//30 154//30 132//30 131//30
f 151//31 137//31 135//31 153//31
f 152//32 134//32 132//32 154//32
f 142//33 141//33 145//33 146//33
f 151//34 133//34 140//34 155//34
f 152//35 138//35 142//35 156//35
f 133//36 134//36 139//36 140//36
f 158//37 146//37 150//37 160//37
f 155//38 140//38 144//38 157//38
f 156//39 142//39 146//39 158//39
f 140//40 139//40 143//40 144//40
f 149//41 159//41 163//41 166//41
f 144//42 143//42 147//42 148//42
f 146//43 145//43 149//43 150//43
f 157//44 144//44 148//44 159//44
f 145//45 157//45 159//45 149//45
f 148//46 147//46 161//46 162//46
f 139//47 156//47 158//47 143//47
f 141//48 155//48 157//48 145//48
f 143//49 158//49 160//49 147//49
f 134//50 152//50 156//50 139//50
f 137//51 151//51 155//51 141//51
f 138//52 152//52 154//52 136//52
f 133//53 151//53 153//53 131//53
f 135//54 136//54 154//54 153//54
f 165//55 166//55 172//55 171//55
f 161//56 164//56 170//56 167//56
f 150//57 149//57 166//57 165//57
f 159//58 148//58 162//58 163//58
f 147//59 160//59 164//59 161//59
f 160//60 150//60 165//60 164//60
f 172//61 169//61 180//61 179//61
f 168//62 167//62 173//62 174//62
f 163//63 162//63 168//63 169//63
f 166//64 163//64 169//64 172//64
f 164//65 165//65 171//65 170//65
f 162//66 161//66 167//66 168//66
f 176//67 175//67 183//67 184//67
f 167//68 170//68 176//68 173//68
f 169//69 168//69 174//69 175//69
f 170//70 169//70 175//70 176//70
f 179//71 180//71 192//71 191//71
f 170//72 171//72 178//72 177//72
f 171//73 172//73 179//73 178//73
f 169//74 170//74 177//74 180//74
f 184//75 183//75 187//75 188//75
f 175//76 174//76 182//76 183//76
f 173//77 176//77 184//77 181//77
f 174//78 173//78 181//78 182//78
f 186//79 185//79 188//79 187//79
f 183//80 182//80 186//80 187//80
f 181//81 184//81 188//81 185//81
f 182//82 181//82 185//82 186//82
f 192//83 189//83 190//83 191//83
f 177//84 178//84 190//84 189//84
f 180//85 177//85 189//85 192//85
f 178//86 179//86 191//86 190//86
f 193//87 194//87 196//87 195//87
f 200//88 199//88 203//88 204//88
f 199//89 200//89 198//89 197//89
f 215//90 216//90 194//90 193//90
f 213//91 199//91 197//91 215//91
f 214//92 196//92 194//92 216//92
f 204//93 203//93 207//93 208//93
f 213//94 195//94 202//94 217//94
f 214//95 200//95 204//95 218//95
f 195//96 196//96 201//96 202//96
f 220//97 208//97 212//97 222//97
f 217//98 202//98 206//98 219//98
f 218//99 204//99 208//99 220//99
f 202//100 201//100 205//100 206//100
f 211//101 221//101 225//101 228//101
f 206//102 205//102 209//102 210//102
f 208//103 207//103 211//103 212//103
f 219//104 206//104 210//104 221//104
f 207//105 219//105 221//105 211//105
f 210//106 209//106 223//106 224//106
f 201//107 218//107 220//107 205//107
f 203//108 217//108 219//108 207//108
f 205//109 220//109 222//109 209//109
f 196//110 214//110 218//110 201//110
f 199//111 213//111 217//111 203//111
f 200//112 214//112 216//112 198//112
f 195//113 213//113 215//113 193//113
f 197//114 198//114 216//114 215//114
f 227//115 228//115 234//115 233//115
f 223//116 226//116 232//116 229//116
f 212//117 211//117 228//117 227//117
f 221//118 210//118 224//118 225//118
f 209//119 222//119 226//119 223//119
f 222//120 212//120 227//120 226//120
f 234//121 231//121 242//121 241//121
f 230//122 229//122 235//122 236//122
f 225//123 224//123 230//123 231//123
f 228//124 225//124 231//124 234//124
f 226//125 227//125 233//125 232//125
f 224//126 223//126 229//126 230//126
f 238//127 237//127 245//127 246//127
f 229//128 232//128 238//128 235//128
f 231//129 230//129 236//129 237//129
f 232//130 231//130 237//130 238//130
f 241//131 242//131 254//131 253//131
f 232//132 233//132 240//132 239//132
f 233//133 234//133 241//133 240//133
f 231//134 232//134 239//134 242//134
f 246//135 245//135 249//135 250//135
f 237//136 236//136 244//136 245//136
f 235//137 238//137 246//137 243//137
f 236//138 235//138 243//138 244//138
f 248//139 247//139 250//139 249//139
f 245//140 244//140 248//140 249//140
f 243//141 246//141 250//141 247//141
f 244//142 243//142 247//142 248//142
f 254//143 251//143 252//143 253//143
f 239//144 240//144 252//144 251//144
f 242//145 239//145 251//145 254//145
f 240//146 241//146 253//146 252//146
