# Blender v2.91.2 OBJ File: 'camionnete02.blend'
# www.blender.org
mtllib arme_000033.mtl
o Cube.046_Cube.010
v 211.902374 347.529785 -1127.432129
v 149.890320 137.360184 -1103.718262
v 283.563080 303.401001 -1331.138916
v 221.550995 93.231308 -1307.425049
v 12.909042 397.133179 -1208.180420
v -49.103050 186.963547 -1184.466309
v 84.569763 353.004333 -1411.886963
v 22.557648 142.834671 -1388.173096
v 113.239746 408.286438 -846.968201
v 51.227692 198.116806 -823.254150
v -147.765625 247.720200 -904.002197
v -85.753540 457.889832 -927.716309
v 68.588501 435.782898 -720.039734
v 6.576385 225.613205 -696.325806
v -192.416962 275.216553 -777.073792
v -130.404861 485.386230 -800.787903
v 42.210480 452.026489 -645.056213
v 1.661911 296.394470 -640.273560
v -197.331451 345.997925 -721.021606
v -156.782883 501.629883 -725.804199
v 128.632950 398.807251 -890.725708
v 66.620880 188.637680 -867.011719
v -70.360382 448.410706 -971.473877
v -132.372482 238.241043 -947.759766
v 258.264618 318.979797 -1259.224365
v 196.252533 108.810165 -1235.510254
v 59.271317 368.583252 -1339.972412
v -2.740761 158.413544 -1316.258301
v 184.066376 328.202698 -1371.513184
v 122.054321 118.032974 -1347.799072
v 112.405716 372.331543 -1167.806152
v 50.393616 162.161819 -1144.092285
v 13.743103 433.088196 -887.342163
v -48.268982 222.918503 -863.628113
v -30.908173 460.584534 -760.413818
v -85.619156 259.922058 -724.284302
v -57.286179 476.828186 -685.430237
v -88.933006 307.650085 -686.488220
v -32.875809 213.439316 -907.385681
v 29.136292 423.609009 -931.099792
v 96.755859 133.611847 -1275.884277
v 158.767975 343.781555 -1299.598145
v 233.814789 315.801880 -1351.325928
v 100.141937 149.760986 -1123.905029
v 1.479340 210.517654 -843.441223
v -52.073753 251.560135 -710.672180
v -55.387566 299.288208 -672.876038
v 78.884613 411.208130 -910.912720
v 208.516296 331.380676 -1279.411377
v 171.802643 105.632156 -1327.612061
v 162.154022 359.930664 -1147.619385
v 63.491425 420.687317 -867.155212
v 18.840149 448.183777 -740.226807
v -7.537865 464.427368 -665.243164
v 16.872528 201.038528 -887.198669
v 146.504150 121.211014 -1255.697266
v 5.261627 161.687088 -882.758606
v -44.486717 174.087967 -902.945618
v 134.893219 81.859604 -1251.257324
v 85.144958 94.260437 -1271.444336
v 38.782684 122.810455 -1139.652100
v 88.531036 110.409576 -1119.465088
v 311.924835 247.414658 -1181.813232
v 291.423920 260.039185 -1123.536133
v 264.002899 167.104263 -1113.049805
v 284.503723 154.479782 -1171.327148
v 354.926208 236.695663 -1164.364014
v 334.425323 249.320175 -1106.086914
v 307.004272 156.385269 -1095.600830
v 327.505127 143.760803 -1153.877930
v 420.732086 220.292099 -1137.661377
v 400.231232 232.916641 -1079.384033
v 372.810089 139.981781 -1068.897949
v 393.310883 127.357254 -1127.175293
v 463.077362 209.736679 -1120.478271
v 442.576385 222.361130 -1062.201172
v 415.155426 129.426285 -1051.715088
v 435.656281 116.801834 -1109.992188
v 407.222076 -39.339218 -1996.827637
v 357.473724 -26.938400 -2017.014648
v 419.485687 183.231339 -2040.728760
v 469.234100 170.830460 -2020.541748
vn 0.9028 -0.2251 0.3664
vn 0.3251 -0.2002 -0.9242
vn -0.9028 0.2251 -0.3664
vn 0.2814 0.9536 -0.1076
vn -0.2814 -0.9536 0.1076
vn -0.4263 -0.5796 0.6945
vn -0.3619 -0.9260 0.1076
vn -0.4277 0.1099 0.8972
vn -0.9034 0.2249 -0.3651
vn 0.9034 -0.2249 0.3651
vn 0.6542 -0.2726 -0.7055
vn -0.3160 0.0811 0.9453
vn -0.2546 -0.9549 0.1529
vn -0.3620 0.0619 0.9301
vn -0.3021 -0.9383 0.1682
vn -0.3251 0.2002 0.9242
vn 0.0564 0.0955 0.9938
vn 0.2635 -0.9194 0.2919
vn 0.7328 0.6711 0.1124
usemtl Matériau.011
s off
f 25//1 26//1 4//1 3//1
f 29//2 30//2 8//2 7//2
f 27//3 28//3 6//3 5//3
f 22//1 21//1 9//1 10//1
f 42//4 27//4 5//4 31//4
f 56//5 26//5 2//5 44//5
f 10//1 9//1 13//1 14//1
f 55//5 22//5 10//5 45//5
f 23//3 24//3 11//3 12//3
f 46//6 14//6 18//6 47//6
f 45//7 10//7 14//7 46//7
f 12//3 11//3 15//3 16//3
f 33//4 12//4 16//4 35//4
f 54//8 47//8 18//8 17//8
f 16//9 15//9 19//9 20//9
f 14//10 13//10 17//10 18//10
f 5//3 6//3 24//3 23//3
f 44//5 2//5 22//5 55//5
f 31//4 5//4 23//4 40//4
f 2//1 1//1 21//1 22//1
f 50//5 4//5 26//5 56//5
f 29//4 7//4 27//4 42//4
f 7//3 8//3 28//3 27//3
f 26//11 25//11 63//11 66//11
f 43//4 29//4 42//4 49//4
f 8//5 30//5 41//5 28//5
f 51//4 31//4 40//4 48//4
f 6//5 32//5 39//5 24//5
f 20//12 19//12 38//12 37//12
f 52//4 33//4 35//4 53//4
f 11//13 34//13 36//13 15//13
f 15//6 36//6 38//6 19//6
f 24//5 39//5 34//5 11//5
f 28//5 41//5 32//5 6//5
f 49//4 42//4 31//4 51//4
f 30//3 29//3 81//3 80//3
f 3//2 4//2 50//2 43//2
f 25//4 49//4 51//4 1//4
f 9//4 52//4 53//4 13//4
f 1//4 51//4 48//4 21//4
f 3//4 43//4 49//4 25//4
f 30//5 50//5 56//5 41//5
f 32//3 41//3 60//3 61//3
f 37//14 38//14 47//14 54//14
f 34//15 45//15 46//15 36//15
f 36//6 46//6 47//6 38//6
f 39//5 55//5 45//5 34//5
f 55//16 39//16 58//16 57//16
f 61//5 62//5 57//5 58//5
f 60//5 59//5 62//5 61//5
f 39//3 32//3 61//3 58//3
f 44//1 55//1 57//1 62//1
f 41//2 56//2 59//2 60//2
f 56//1 44//1 62//1 59//1
f 66//2 63//2 67//2 70//2
f 1//17 2//17 65//17 64//17
f 2//18 26//18 66//18 65//18
f 25//19 1//19 64//19 63//19
f 69//5 70//5 74//5 73//5
f 64//16 65//16 69//16 68//16
f 65//5 66//5 70//5 69//5
f 63//4 64//4 68//4 67//4
f 73//5 74//5 78//5 77//5
f 67//4 68//4 72//4 71//4
f 70//2 67//2 71//2 74//2
f 68//16 69//16 73//16 72//16
f 76//1 77//1 78//1 75//1
f 71//4 72//4 76//4 75//4
f 74//2 71//2 75//2 78//2
f 82//2 79//2 80//2 81//2
f 50//5 30//5 80//5 79//5
f 43//1 50//1 79//1 82//1
f 29//4 43//4 82//4 81//4
o Cube.048_Cube.024
v -563.677612 465.735718 182.299530
v -726.685303 341.681793 54.094040
v -423.256287 483.630615 -13.555527
v -586.814087 362.575012 -139.620209
v -679.216309 646.482178 43.332390
v -762.794922 582.876221 -22.402161
v -607.218384 655.657349 -57.087967
v -690.221985 592.906677 -122.432945
v -408.865082 444.812500 -436.878204
v -296.220581 484.294800 -394.747711
v -325.384827 602.914795 -427.934784
v -438.029388 563.432495 -470.065216
v -313.075745 432.029785 -630.662964
v -230.256897 461.058075 -599.687683
v -251.699158 548.270142 -624.087524
v -334.517975 519.241882 -655.062927
v -251.773560 426.573792 -751.816406
v -191.250671 447.787292 -729.180176
v -206.920471 511.520721 -747.011047
v -267.443420 490.307251 -769.647522
v -483.809479 589.459839 -24.722229
v -656.336304 461.436157 -158.566681
v -632.997559 570.400696 183.195816
v -806.050232 438.702148 47.089958
v -305.128571 543.944702 -415.112732
v -424.714630 502.029358 -459.839386
v -231.001099 502.604309 -628.017517
v -318.923462 471.787231 -660.901611
v -186.527100 476.053070 -762.002747
v -250.779602 453.532288 -786.033997
v -213.927002 408.524231 -836.091797
v -153.404175 429.737701 -813.455566
v -146.141846 461.855042 -856.675354
v -210.394409 439.334290 -880.706604
v -227.448364 475.517212 -862.721924
v -166.925354 496.730652 -840.085632
v -187.033691 396.804321 -897.013367
v -126.510864 418.017883 -874.377136
v -119.248596 450.135132 -917.596863
v -183.501099 427.614441 -941.628113
v -200.555115 463.797272 -923.643494
v -140.032166 485.010773 -901.007019
v -154.172974 370.478516 -923.794922
v -115.217224 384.132660 -909.224915
v -110.542847 404.805145 -937.043518
v -151.899231 390.309570 -952.511292
v -175.315735 455.199738 -989.364441
v -192.369751 491.382660 -971.379822
v -131.846863 512.596069 -948.743469
v -111.063354 477.720459 -965.333191
v -132.725220 351.419067 -941.851990
v -106.462219 360.624298 -932.029358
v -103.310852 374.561096 -950.783997
v -131.192139 364.788574 -961.211975
v -113.101013 341.507996 -968.427307
v -96.683716 347.262329 -962.287048
v -94.713684 355.974365 -974.010925
v -112.142639 349.865417 -980.529480
v -163.310364 479.788055 -1008.161560
v -174.649841 503.846588 -996.202942
v -134.407288 517.951660 -981.151917
v -120.588074 494.762360 -992.182800
v -303.155640 561.367310 409.219086
v -297.727051 331.475647 334.936249
v -150.540100 618.817749 226.867065
v -153.543823 394.177460 151.422638
v -460.558563 560.832031 207.837952
v -457.775146 442.960083 169.751068
v -383.574768 594.712219 116.130981
v -383.848389 475.109070 75.658493
v 3.301575 528.231140 -189.143127
v 75.386658 615.922302 -132.379944
v -10.006287 704.424438 -160.855072
v -81.769958 617.753296 -216.914551
v 102.077942 589.068481 -371.991608
v 155.599182 652.833984 -330.392212
v 93.052734 718.652710 -350.810394
v 39.531372 654.887207 -392.409882
v 163.708191 629.986389 -485.979767
v 202.820862 676.585266 -455.579498
v 157.112732 724.684692 -470.500763
v 118.000000 678.085815 -500.901031
v -256.896667 645.583984 176.969818
v -261.260651 402.428192 93.793640
v -420.092041 579.920715 367.476379
v -414.328918 335.862457 288.615967
v 38.415527 663.369080 -149.558472
v -38.866455 571.295105 -209.625824
v 134.772766 690.994263 -355.675995
v 77.953247 623.299377 -399.838837
v 193.842346 706.803650 -485.659882
v 152.319519 657.333130 -517.933533
v 209.963013 643.872925 -566.776794
v 249.075684 690.471863 -536.376404
v 240.810120 726.467163 -576.229248
v 199.287354 676.996643 -608.502930
v 164.858398 696.861267 -589.968445
v 203.971008 743.460266 -559.568176
v 242.309143 654.799194 -625.141052
v 281.421753 701.398071 -594.740662
v 273.156433 737.393433 -634.593689
v 231.633423 687.922913 -666.867188
v 197.204529 707.787598 -648.332825
v 236.317200 754.386536 -617.932495
v 285.500793 652.464844 -650.023743
v 310.675964 682.458435 -630.456360
v 305.355774 705.626953 -656.107788
v 278.629456 673.785034 -676.880920
v 226.773315 721.065613 -711.416809
v 192.344299 740.930237 -692.882263
v 231.457031 787.529175 -662.482056
v 268.296143 770.536072 -679.143127
v 314.705811 649.414001 -666.967407
v 331.678162 669.634827 -653.775635
v 328.091614 685.254395 -671.069336
v 310.073364 663.787476 -685.074036
v 338.039001 654.173157 -691.917480
v 348.648621 666.813477 -683.671143
v 346.406433 676.577454 -694.481445
v 335.143127 663.158203 -703.236023
v 225.141357 750.298401 -727.063538
v 202.248962 763.506592 -714.739685
v 228.255432 794.490845 -694.526062
v 252.750305 783.191956 -705.604370
vn 0.4549 -0.8571 0.2420
vn -0.2938 0.9002 -0.3214
vn -0.4552 0.8556 -0.2463
vn -0.4394 -0.2983 0.8473
vn 0.3718 0.8616 0.3456
vn -0.6419 -0.5576 -0.5263
vn -0.1991 0.9221 -0.3317
vn 0.8527 0.4177 0.3136
vn -0.7955 -0.1147 -0.5950
vn 0.4555 -0.8850 0.0966
vn -0.8682 -0.2144 -0.4475
vn 0.9341 0.2232 0.2787
vn -0.8708 -0.2484 -0.4242
vn 0.2603 -0.9464 0.1911
vn 0.8737 0.3691 0.3171
vn 0.2659 -0.9476 0.1772
vn -0.1930 0.9186 -0.3449
vn 0.9447 0.1840 0.2715
vn 0.8910 0.4022 0.2105
vn 0.2154 -0.9306 0.2961
vn -0.8344 -0.3967 -0.3827
vn 0.8976 0.3715 0.2372
vn -0.8145 -0.4326 -0.3865
vn -0.6581 -0.5090 -0.5548
vn 0.5878 0.7673 0.2565
vn -0.8057 -0.0441 -0.5906
vn 0.7014 0.4593 0.5451
vn -0.7382 0.4595 0.4939
vn -0.2233 0.9342 -0.2783
vn -0.8771 -0.3599 -0.3180
vn -0.2355 0.9391 -0.2504
vn 0.9013 0.2586 0.3474
vn -0.8756 -0.3642 -0.3172
vn -0.9028 -0.2536 -0.3474
vn 0.8683 0.3503 0.3513
vn -0.0084 -0.7183 0.6957
vn 0.9003 0.2631 0.3468
vn 0.8737 0.3712 0.3143
vn -0.9024 -0.2514 -0.3500
vn 0.2233 -0.9342 0.2783
vn 0.1744 0.4416 -0.8801
vn -0.7504 -0.5146 -0.4148
vn 0.9696 0.0882 0.2285
vn 0.1864 0.4174 -0.8894
vn 0.8622 0.5064 0.0156
vn -0.9095 -0.2728 -0.3136
vn -0.4319 0.8110 0.3946
vn 0.4319 -0.8110 -0.3946
vn -0.0348 0.7740 -0.6322
vn 0.9615 0.1170 0.2485
vn -0.7736 -0.4911 -0.4004
vn -0.0215 -0.7002 0.7136
vn 0.4452 -0.7529 -0.4847
vn 0.9589 0.1256 0.2544
vn -0.7805 -0.4838 -0.3959
vn 0.1466 -0.8865 0.4389
vn 0.1469 0.4949 -0.8564
vn -0.7937 -0.0740 -0.6038
vn 0.4544 -0.6703 -0.5867
vn -0.3846 0.9053 0.1800
vn 0.7920 -0.1872 0.5811
vn -0.6607 0.4949 -0.5645
vn -0.7939 0.1834 -0.5797
vn -0.3624 -0.2943 0.8843
vn -0.3844 0.9232 -0.0015
vn 0.0718 -0.9597 -0.2715
vn -0.6349 0.7164 -0.2891
vn 0.3371 0.9002 0.2757
vn -0.3672 -0.6517 -0.6637
vn 0.8429 -0.3686 0.3920
vn -0.6014 -0.5780 -0.5516
vn 0.6611 0.6403 0.3911
vn -0.5871 -0.6108 -0.5312
vn 0.7081 -0.6886 0.1561
vn 0.5322 0.7271 0.4336
vn 0.7124 -0.6881 0.1382
vn -0.6260 0.7203 -0.2987
vn 0.6920 0.6118 0.3831
vn 0.5355 0.7765 0.3320
vn 0.6541 -0.7133 0.2518
vn -0.4808 -0.7228 -0.4965
vn 0.5501 0.7550 0.3568
vn -0.4449 -0.7427 -0.5005
vn -0.0660 -0.8874 -0.4563
vn -0.0973 0.9901 0.1014
vn -0.3663 -0.7539 -0.5454
vn 0.0469 0.9360 0.3488
vn -0.9609 -0.1055 0.2562
vn -0.6636 0.7102 -0.2348
vn -0.5400 -0.7210 -0.4342
vn -0.6781 0.7049 -0.2081
vn 0.6119 0.6441 0.4590
vn -0.5365 -0.7240 -0.4336
vn -0.6158 -0.6406 -0.4587
vn 0.5356 0.7045 0.4657
vn 0.3306 -0.6944 0.6391
vn 0.6087 0.6475 0.4586
vn 0.5313 0.7293 0.4310
vn -0.6165 -0.6382 -0.4611
vn 0.6636 -0.7102 0.2348
vn -0.0345 0.5662 -0.8235
vn -0.3458 -0.7760 -0.5275
vn 0.7657 0.5483 0.3364
vn -0.0112 0.5529 -0.8332
vn 0.4671 0.8726 0.1429
vn -0.6133 -0.6643 -0.4273
vn -0.8134 0.4207 0.4017
vn 0.8134 -0.4207 -0.4017
vn -0.4001 0.7121 -0.5769
vn 0.7427 0.5663 0.3575
vn -0.3787 -0.7696 -0.5141
vn 0.3091 -0.6879 0.6567
vn 0.7993 -0.3541 -0.4856
vn 0.7356 0.5715 0.3636
vn -0.3886 -0.7675 -0.5098
vn 0.5646 -0.7278 0.3892
vn -0.0872 0.5946 -0.7993
vn -0.6030 -0.4024 -0.6888
vn 0.7695 -0.2675 -0.5800
vn -0.8109 0.5498 0.2005
usemtl Matériau.012
s off
f 83//20 84//20 86//20 85//20
f 90//21 89//21 93//21 94//21
f 89//22 90//22 88//22 87//22
f 105//23 106//23 84//23 83//23
f 103//24 89//24 87//24 105//24
f 104//25 86//25 84//25 106//25
f 94//26 93//26 97//26 98//26
f 103//27 85//27 92//27 107//27
f 104//28 90//28 94//28 108//28
f 85//29 86//29 91//29 92//29
f 110//30 98//30 102//30 112//30
f 107//31 92//31 96//31 109//31
f 108//32 94//32 98//32 110//32
f 92//33 91//33 95//33 96//33
f 101//34 111//34 115//34 118//34
f 96//35 95//35 99//35 100//35
f 98//36 97//36 101//36 102//36
f 109//37 96//37 100//37 111//37
f 97//38 109//38 111//38 101//38
f 100//39 99//39 113//39 114//39
f 91//40 108//40 110//40 95//40
f 93//41 107//41 109//41 97//41
f 95//42 110//42 112//42 99//42
f 86//43 104//43 108//43 91//43
f 89//44 103//44 107//44 93//44
f 90//45 104//45 106//45 88//45
f 85//46 103//46 105//46 83//46
f 87//47 88//47 106//47 105//47
f 117//48 118//48 124//48 123//48
f 113//49 116//49 122//49 119//49
f 102//50 101//50 118//50 117//50
f 111//51 100//51 114//51 115//51
f 99//52 112//52 116//52 113//52
f 112//53 102//53 117//53 116//53
f 124//54 121//54 132//54 131//54
f 120//55 119//55 125//55 126//55
f 115//56 114//56 120//56 121//56
f 118//57 115//57 121//57 124//57
f 116//58 117//58 123//58 122//58
f 114//59 113//59 119//59 120//59
f 128//60 127//60 135//60 136//60
f 119//61 122//61 128//61 125//61
f 121//62 120//62 126//62 127//62
f 122//63 121//63 127//63 128//63
f 131//64 132//64 144//64 143//64
f 122//65 123//65 130//65 129//65
f 123//66 124//66 131//66 130//66
f 121//67 122//67 129//67 132//67
f 136//68 135//68 139//68 140//68
f 127//69 126//69 134//69 135//69
f 125//70 128//70 136//70 133//70
f 126//71 125//71 133//71 134//71
f 138//72 137//72 140//72 139//72
f 135//73 134//73 138//73 139//73
f 133//74 136//74 140//74 137//74
f 134//75 133//75 137//75 138//75
f 144//76 141//76 142//76 143//76
f 129//77 130//77 142//77 141//77
f 132//78 129//78 141//78 144//78
f 130//79 131//79 143//79 142//79
f 145//80 146//80 148//80 147//80
f 152//81 151//81 155//81 156//81
f 151//82 152//82 150//82 149//82
f 167//83 168//83 146//83 145//83
f 165//84 151//84 149//84 167//84
f 166//85 148//85 146//85 168//85
f 156//86 155//86 159//86 160//86
f 165//87 147//87 154//87 169//87
f 166//88 152//88 156//88 170//88
f 147//89 148//89 153//89 154//89
f 172//90 160//90 164//90 174//90
f 169//91 154//91 158//91 171//91
f 170//92 156//92 160//92 172//92
f 154//93 153//93 157//93 158//93
f 163//94 173//94 177//94 180//94
f 158//95 157//95 161//95 162//95
f 160//96 159//96 163//96 164//96
f 171//97 158//97 162//97 173//97
f 159//98 171//98 173//98 163//98
f 162//99 161//99 175//99 176//99
f 153//100 170//100 172//100 157//100
f 155//101 169//101 171//101 159//101
f 157//102 172//102 174//102 161//102
f 148//103 166//103 170//103 153//103
f 151//104 165//104 169//104 155//104
f 152//105 166//105 168//105 150//105
f 147//106 165//106 167//106 145//106
f 149//107 150//107 168//107 167//107
f 179//108 180//108 186//108 185//108
f 175//109 178//109 184//109 181//109
f 164//110 163//110 180//110 179//110
f 173//111 162//111 176//111 177//111
f 161//112 174//112 178//112 175//112
f 174//113 164//113 179//113 178//113
f 186//114 183//114 194//114 193//114
f 182//115 181//115 187//115 188//115
f 177//116 176//116 182//116 183//116
f 180//117 177//117 183//117 186//117
f 178//118 179//118 185//118 184//118
f 176//119 175//119 181//119 182//119
f 190//120 189//120 197//120 198//120
f 181//121 184//121 190//121 187//121
f 183//122 182//122 188//122 189//122
f 184//123 183//123 189//123 190//123
f 193//124 194//124 206//124 205//124
f 184//125 185//125 192//125 191//125
f 185//126 186//126 193//126 192//126
f 183//127 184//127 191//127 194//127
f 198//128 197//128 201//128 202//128
f 189//129 188//129 196//129 197//129
f 187//130 190//130 198//130 195//130
f 188//131 187//131 195//131 196//131
f 200//132 199//132 202//132 201//132
f 197//133 196//133 200//133 201//133
f 195//134 198//134 202//134 199//134
f 196//135 195//135 199//135 200//135
f 206//136 203//136 204//136 205//136
f 191//137 192//137 204//137 203//137
f 194//138 191//138 203//138 206//138
f 192//139 193//139 205//139 204//139
