# Blender v2.91.2 OBJ File: 'camionnete02.blend'
# www.blender.org
mtllib arme_000179.mtl
o Cube.046_Cube.010
v 137.371429 259.193115 -1248.975586
v 95.866440 42.797897 -1254.412598
v 201.639313 252.160599 -1459.686890
v 160.134293 35.765366 -1465.124023
v -69.331429 300.457764 -1313.398071
v -110.836472 84.062500 -1318.834961
v -5.063530 293.425232 -1524.109375
v -46.568550 77.029953 -1529.546509
v 48.887276 268.875549 -958.867798
v 7.382296 52.480331 -964.304749
v -199.320541 93.744904 -1028.727173
v -157.815552 310.140137 -1023.290222
v 8.842445 273.257446 -827.574829
v -32.662575 56.862244 -833.011841
v -239.365463 98.126831 -897.434326
v -197.860474 314.522095 -891.997375
v -14.814285 275.846130 -750.012939
v -40.894562 117.973557 -766.878296
v -247.597488 159.238174 -831.300842
v -221.517181 317.110718 -814.435425
v 50.219109 488.983765 -822.154724
v -156.483765 530.248352 -886.577209
v 26.562393 491.572388 -744.592773
v -180.140472 532.837036 -809.015259
v 62.692459 267.364868 -1004.129822
v 21.187462 50.969681 -1009.566833
v -144.010406 308.629517 -1068.552490
v -185.515427 92.234283 -1073.989258
v 62.588402 340.309204 -957.072998
v -144.114471 381.573853 -1021.495483
v 76.393585 338.798584 -1002.335022
v -130.309296 380.063171 -1066.757568
v 82.466507 443.947876 -954.468994
v -124.236343 485.212402 -1018.891479
v 96.271606 442.437195 -999.731201
v -110.431206 483.701782 -1064.153564
v 23.448624 344.592102 -828.747498
v -183.254288 385.856689 -893.169922
v 43.326698 448.230713 -826.143616
v -163.376190 489.495300 -890.566040
v 90.913712 621.645569 -867.751221
v -115.789169 662.910156 -932.173767
v 67.256973 624.234192 -790.189331
v -139.445862 665.498840 -854.611816
v 178.950729 254.643295 -1385.299316
v 137.445740 38.248062 -1390.736450
v -27.752129 295.907898 -1449.721802
v -69.257080 79.512650 -1455.158691
v 98.287849 272.792908 -1491.898193
v 56.782860 56.397659 -1497.335205
v 34.019997 279.825439 -1281.186768
v -7.485001 63.430191 -1286.623657
v -54.464111 289.507812 -991.078918
v -95.969124 73.112610 -996.515869
v -94.508995 293.889771 -859.786011
v -128.939270 85.766464 -851.830566
v -118.165710 296.478394 -782.224121
v -134.490143 126.973999 -807.236633
v -53.132324 509.616089 -854.365906
v -76.789040 512.204712 -776.804077
v -82.163979 71.601990 -1041.778076
v -40.658981 287.997192 -1036.341064
v -40.763023 360.941528 -989.284241
v -26.957855 359.430847 -1034.546387
v -20.884903 464.580200 -986.680237
v -7.079788 463.069458 -1031.942383
v -79.902824 365.224426 -860.958801
v -60.024727 468.863037 -858.354736
v -12.437729 642.277893 -899.962402
v -36.094467 644.866516 -822.400513
v 34.094299 58.880371 -1422.947510
v 75.599319 275.275635 -1417.510498
v 149.963623 262.476746 -1475.792603
v 44.190735 53.114044 -1270.518188
v -44.293442 62.796478 -980.410339
v -94.094215 78.810257 -840.970581
v -99.645065 120.017776 -796.376526
v 11.016754 277.681030 -1020.235413
v 24.717827 349.114685 -1018.440735
v 44.595932 452.753296 -1015.836792
v 127.275055 264.959473 -1401.405029
v 108.458618 46.081497 -1481.229614
v 85.695694 269.509277 -1265.081421
v -2.788445 279.191650 -974.973450
v -42.833290 283.573608 -843.680359
v -66.490021 286.162231 -766.118469
v -1.456581 499.299927 -838.260315
v -25.113304 501.888550 -760.698425
v -30.488274 61.285843 -1025.672485
v 10.912689 350.625366 -973.178589
v 30.790779 454.264038 -970.574585
v -28.227104 354.908264 -844.853149
v -8.348999 458.546875 -842.249146
v 39.238014 631.961731 -883.856812
v 15.581253 634.550354 -806.294922
v 85.769974 48.564224 -1406.842041
v -38.259506 20.768784 -1026.690430
v -89.935226 31.084915 -1042.796143
v 77.998711 8.047180 -1407.860107
v 26.323067 18.363312 -1423.965576
v -15.256233 22.913132 -1287.641724
v 36.419472 12.596985 -1271.536133
v 242.914490 178.163254 -1321.636841
v 224.528519 180.175156 -1261.355835
v 206.175552 84.487366 -1263.760010
v 224.561386 82.475510 -1324.041138
v 287.581879 169.246201 -1307.715576
v 269.195953 171.258102 -1247.434570
v 250.842926 75.570343 -1249.838745
v 269.228821 73.558456 -1310.119629
v 355.937256 155.600296 -1286.411621
v 337.551300 157.612167 -1226.130615
v 319.198242 61.924423 -1228.534668
v 337.584106 59.912582 -1288.815796
v 399.923065 146.819290 -1272.702759
v 381.537109 148.831161 -1212.421631
v 363.184143 53.143417 -1214.825806
v 381.570007 51.131546 -1275.106812
v 319.591248 22.978500 -2173.456299
v 267.915497 33.294662 -2189.562012
v 309.420380 249.689926 -2184.125000
v 361.096222 239.373764 -2168.019531
v 22.544556 702.987183 -917.685303
v -72.688217 721.998718 -947.366272
v 0.746185 705.372437 -846.216064
v -94.486572 724.383972 -875.897034
v 95.978905 686.360901 -816.535278
v 117.777390 683.975647 -888.004272
v 70.161034 693.481506 -902.844727
v 48.362534 695.866638 -831.375671
vn 0.9378 -0.1872 0.2923
vn 0.2916 -0.0319 -0.9560
vn -0.9378 0.1872 -0.2923
vn 0.1883 0.9818 0.0247
vn -0.1883 -0.9818 -0.0247
vn -0.2916 0.0319 0.9560
vn -0.3345 -0.7125 0.6168
vn -0.2708 -0.9625 -0.0174
vn -0.3870 -0.0630 0.9199
vn -0.9383 0.1868 -0.2910
vn 0.9383 -0.1868 0.2910
vn 0.2070 -0.3742 -0.9039
vn 0.2049 -0.3812 -0.9015
vn -0.2070 0.3742 0.9039
vn 0.6371 -0.1030 -0.7639
vn -0.8102 0.5230 -0.2646
vn -0.2706 -0.0876 0.9587
vn -0.1592 -0.9871 0.0188
vn -0.1813 0.4538 0.8725
vn -0.3155 -0.1087 0.9427
vn -0.2071 -0.9776 0.0383
vn 0.1010 -0.0443 0.9939
vn 0.3604 -0.9221 0.1407
vn 0.6745 0.7155 0.1819
vn 0.9100 -0.2988 0.2875
usemtl Matériau.011
s off
f 45//1 46//1 4//1 3//1
f 49//2 50//2 8//2 7//2
f 47//3 48//3 6//3 5//3
f 26//1 25//1 9//1 10//1
f 72//4 47//4 5//4 51//4
f 96//5 46//5 2//5 74//5
f 10//1 9//1 13//1 14//1
f 84//6 9//6 29//6 90//6
f 89//5 26//5 10//5 75//5
f 27//3 28//3 11//3 12//3
f 76//7 14//7 18//7 77//7
f 75//8 10//8 14//8 76//8
f 12//3 11//3 15//3 16//3
f 53//4 12//4 16//4 55//4
f 86//9 77//9 18//9 17//9
f 16//10 15//10 19//10 20//10
f 16//3 20//3 24//3 22//3
f 14//11 13//11 17//11 18//11
f 59//12 22//12 42//12 69//12
f 86//6 17//6 23//6 88//6
f 17//1 13//1 21//1 23//1
f 55//2 16//2 22//2 59//2
f 5//3 6//3 28//3 27//3
f 74//5 2//5 26//5 89//5
f 51//4 5//4 27//4 62//4
f 2//1 1//1 25//1 26//1
f 32//3 30//3 34//3 36//3
f 62//2 27//2 32//2 64//2
f 27//3 12//3 30//3 32//3
f 9//1 25//1 31//1 29//1
f 66//4 36//4 34//4 65//4
f 90//5 29//5 37//5 92//5
f 64//2 32//2 36//2 66//2
f 29//1 31//1 35//1 33//1
f 92//6 37//6 39//6 93//6
f 29//1 33//1 39//1 37//1
f 34//3 30//3 38//3 40//3
f 65//4 34//4 40//4 68//4
f 69//13 42//13 124//13 123//13
f 23//1 21//1 41//1 43//1
f 88//14 23//14 43//14 95//14
f 22//3 24//3 44//3 42//3
f 82//5 4//5 46//5 96//5
f 49//4 7//4 47//4 72//4
f 7//3 8//3 48//3 47//3
f 46//15 45//15 103//15 106//15
f 73//4 49//4 72//4 81//4
f 8//5 50//5 71//5 48//5
f 24//14 60//14 70//14 44//14
f 42//16 44//16 126//16 124//16
f 91//4 65//4 68//4 93//4
f 38//6 67//6 68//6 40//6
f 79//2 64//2 66//2 80//2
f 30//5 63//5 67//5 38//5
f 80//4 66//4 65//4 91//4
f 78//2 62//2 64//2 79//2
f 83//4 51//4 62//4 78//4
f 6//5 52//5 61//5 28//5
f 85//2 55//2 59//2 87//2
f 20//6 57//6 60//6 24//6
f 87//12 59//12 69//12 94//12
f 20//17 19//17 58//17 57//17
f 84//4 53//4 55//4 85//4
f 11//18 54//18 56//18 15//18
f 15//7 56//7 58//7 19//7
f 28//5 61//5 54//5 11//5
f 12//6 53//6 63//6 30//6
f 48//5 71//5 52//5 6//5
f 81//4 72//4 51//4 83//4
f 50//3 49//3 121//3 120//3
f 3//2 4//2 82//2 73//2
f 45//4 81//4 83//4 1//4
f 9//4 84//4 85//4 13//4
f 21//12 87//12 94//12 41//12
f 13//2 85//2 87//2 21//2
f 1//4 83//4 78//4 25//4
f 25//2 78//2 79//2 31//2
f 35//4 80//4 91//4 33//4
f 31//2 79//2 80//2 35//2
f 33//4 91//4 93//4 39//4
f 70//19 95//19 130//19 125//19
f 3//4 73//4 81//4 45//4
f 50//5 82//5 96//5 71//5
f 60//14 88//14 95//14 70//14
f 67//6 92//6 93//6 68//6
f 63//5 90//5 92//5 67//5
f 52//3 71//3 100//3 101//3
f 57//6 86//6 88//6 60//6
f 57//20 58//20 77//20 86//20
f 54//21 75//21 76//21 56//21
f 56//7 76//7 77//7 58//7
f 61//5 89//5 75//5 54//5
f 53//6 84//6 90//6 63//6
f 89//6 61//6 98//6 97//6
f 101//5 102//5 97//5 98//5
f 100//5 99//5 102//5 101//5
f 61//3 52//3 101//3 98//3
f 74//1 89//1 97//1 102//1
f 71//2 96//2 99//2 100//2
f 96//1 74//1 102//1 99//1
f 106//2 103//2 107//2 110//2
f 1//22 2//22 105//22 104//22
f 2//23 46//23 106//23 105//23
f 45//24 1//24 104//24 103//24
f 109//5 110//5 114//5 113//5
f 104//6 105//6 109//6 108//6
f 105//5 106//5 110//5 109//5
f 103//4 104//4 108//4 107//4
f 113//5 114//5 118//5 117//5
f 107//4 108//4 112//4 111//4
f 110//2 107//2 111//2 114//2
f 108//6 109//6 113//6 112//6
f 116//1 117//1 118//1 115//1
f 111//4 112//4 116//4 115//4
f 114//2 111//2 115//2 118//2
f 122//2 119//2 120//2 121//2
f 82//5 50//5 120//5 119//5
f 73//1 82//1 119//1 122//1
f 49//4 73//4 122//4 121//4
f 123//4 124//4 126//4 125//4
f 129//4 123//4 125//4 130//4
f 128//4 129//4 130//4 127//4
f 95//19 43//19 127//19 130//19
f 94//13 69//13 123//13 129//13
f 43//25 41//25 128//25 127//25
f 44//19 70//19 125//19 126//19
f 41//13 94//13 129//13 128//13
o Cube.048_Cube.024
v -496.552032 539.126770 153.828552
v -674.359009 401.100616 65.902512
v -369.572632 504.674469 -48.870384
v -547.062988 365.852509 -137.151825
v -612.175171 692.449097 -14.854225
v -703.341736 621.679199 -59.936348
v -547.069336 674.784424 -118.783669
v -637.789185 603.917603 -163.270966
v -369.285492 426.613251 -495.577911
v -258.541595 470.301636 -452.569183
v -299.992920 589.088684 -466.499664
v -410.736816 545.400330 -509.508270
v -283.304993 451.348175 -692.775940
v -201.883606 483.468811 -661.154968
v -232.359589 570.803772 -671.396790
v -313.781006 538.683105 -703.017883
v -228.371094 469.446228 -815.741699
v -168.869202 492.919647 -792.633545
v -191.140686 556.742920 -800.118164
v -250.642365 533.269531 -823.226318
v -425.271149 609.115967 -79.658836
v -613.215576 462.469482 -171.844421
v -560.168091 645.792969 135.494720
v -748.932068 499.261200 42.150436
v -273.857941 531.125122 -463.436920
v -391.426208 484.744537 -509.095856
v -207.882568 528.408569 -682.918640
v -294.321411 494.308472 -716.488098
v -168.478821 525.961487 -821.035645
v -231.647156 501.041626 -845.567810
v -193.646667 467.534576 -903.212097
v -134.144958 491.007904 -880.104004
v -132.135498 529.593140 -918.305603
v -195.303955 504.673309 -942.837769
v -214.548035 536.049133 -918.990051
v -155.046204 559.522400 -895.881958
v -169.127136 467.415222 -966.226501
v -109.625427 490.888580 -943.118408
v -107.616272 529.473755 -981.319763
v -170.784607 504.553955 -1005.851990
v -190.028595 535.929688 -982.004333
v -130.526917 559.403015 -958.896179
v -135.522705 448.549683 -997.927673
v -97.224304 463.658325 -983.053894
v -95.930847 488.493927 -1007.642517
v -136.589539 472.454132 -1023.432678
v -167.693054 539.419373 -1049.228760
v -186.937073 570.795105 -1025.381104
v -127.435425 594.268494 -1002.273010
v -104.524719 564.339233 -1024.696655
v -113.451904 434.471619 -1019.468689
v -87.632019 444.657471 -1009.441223
v -86.760010 461.400940 -1026.018188
v -114.170898 450.587372 -1036.663574
v -94.475159 430.458466 -1047.988403
v -78.334961 436.825806 -1041.719971
v -77.789856 447.292267 -1052.082520
v -94.924622 440.532623 -1058.737183
v -158.975281 567.515015 -1064.613159
v -171.771057 588.377258 -1048.756348
v -132.207581 603.984985 -1033.391479
v -116.973938 584.084595 -1048.301270
v -261.536255 469.754395 429.248413
v -371.243958 267.947693 354.176239
v -118.869873 466.770508 230.904907
v -232.826111 266.385681 156.096390
v -419.472443 553.131958 246.396973
v -475.722687 449.660004 207.905396
v -337.858887 552.796143 143.159500
v -404.752014 448.859070 106.344284
v -196.792053 218.547455 -115.480782
v -117.635193 160.519470 -38.027725
v -22.426147 185.681519 -114.331596
v -98.811890 242.628296 -191.917786
v -212.174622 30.713074 -222.125519
v -155.657593 -15.147156 -164.127716
v -83.620361 2.557739 -220.325867
v -140.137390 48.417847 -278.323761
v -218.988251 -87.476318 -288.839203
v -177.686462 -120.990356 -246.455078
v -125.042542 -108.051819 -287.523956
v -166.344299 -74.537964 -329.908051
v -195.333984 536.952148 188.855743
v -329.191010 326.749176 110.685501
v -359.670319 542.650085 400.670013
v -476.138611 328.407410 320.971710
v -69.564880 161.537903 -75.165321
v -151.172363 227.757538 -158.911255
v -121.273865 -23.722656 -199.812988
v -181.273621 24.963684 -261.384796
v -154.954285 -138.618164 -279.182892
v -198.801361 -103.039062 -324.178741
v -238.565826 -168.019653 -333.448608
v -197.264038 -201.533447 -291.064514
v -171.837708 -226.400330 -332.141815
v -215.684662 -190.821167 -377.137848
v -183.641907 -161.207520 -381.583771
v -142.340149 -194.721436 -339.199615
v -251.602081 -225.653809 -366.318024
v -210.300293 -259.167725 -323.933838
v -184.873840 -284.034668 -365.011261
v -228.720795 -248.455322 -410.007141
v -196.677948 -218.841614 -414.453094
v -155.376160 -252.355591 -372.068939
v -271.161072 -271.506836 -364.071136
v -244.577057 -293.078186 -336.790314
v -228.211273 -309.084167 -363.230072
v -256.433563 -286.183289 -392.191925
v -208.026947 -277.298096 -452.979095
v -175.984192 -247.684204 -457.425018
v -134.682312 -281.198425 -415.040924
v -164.180054 -312.877380 -407.983063
v -285.789825 -302.050964 -362.524323
v -267.867615 -316.593994 -344.132294
v -256.834229 -327.384766 -361.957489
v -275.860870 -311.945496 -381.482635
v -293.699066 -334.394043 -371.522247
v -282.495728 -343.484985 -360.025238
v -275.598480 -350.229980 -371.167755
v -287.492432 -340.579102 -383.373169
v -184.375916 -293.664429 -469.556427
v -163.070129 -273.973755 -472.512665
v -135.608093 -296.257690 -444.330872
v -155.221497 -317.321533 -439.638092
vn 0.4275 -0.8074 0.4066
vn -0.3178 0.8614 -0.3961
vn -0.4277 0.8069 -0.4075
vn -0.3932 -0.0771 0.9162
vn 0.4396 0.8896 0.1241
vn -0.7102 -0.6156 -0.3416
vn -0.2988 0.9368 -0.1822
vn 0.8721 0.4325 0.2289
vn -0.8292 -0.1584 -0.5361
vn 0.4786 -0.8649 0.1514
vn -0.8682 -0.2304 -0.4394
vn 0.9239 0.2699 0.2713
vn -0.8665 -0.2675 -0.4214
vn 0.3542 -0.9344 0.0372
vn 0.8527 0.4021 0.3334
vn 0.3591 -0.9330 0.0231
vn -0.2930 0.9358 -0.1961
vn 0.9376 0.2333 0.2579
vn 0.8613 0.4519 0.2323
vn 0.3138 -0.9383 0.1451
vn -0.8147 -0.4160 -0.4039
vn 0.8721 0.4184 0.2539
vn -0.7920 -0.4490 -0.4138
vn -0.6982 -0.5435 -0.4659
vn 0.6068 0.7794 0.1562
vn -0.8477 -0.1160 -0.5177
vn 0.7607 0.5203 0.3882
vn -0.6769 0.6035 0.4214
vn -0.3210 0.9385 -0.1267
vn -0.8571 -0.3933 -0.3328
vn -0.3321 0.9382 -0.0979
vn 0.8918 0.2917 0.3458
vn -0.8552 -0.3975 -0.3327
vn -0.8937 -0.2868 -0.3449
vn 0.8509 0.3782 0.3646
vn 0.0936 -0.8088 0.5806
vn 0.8903 0.2961 0.3459
vn 0.8525 0.4046 0.3309
vn -0.8937 -0.2842 -0.3472
vn 0.3211 -0.9385 0.1267
vn 0.0864 0.5791 -0.8107
vn -0.7223 -0.5194 -0.4566
vn 0.9686 0.1477 0.2001
vn 0.1000 0.5578 -0.8240
vn 0.8127 0.5799 0.0564
vn -0.8969 -0.3113 -0.3142
vn -0.4811 0.6997 0.5281
vn 0.4811 -0.6997 -0.5281
vn -0.1382 0.8503 -0.5078
vn 0.9591 0.1724 0.2245
vn -0.7467 -0.5006 -0.4379
vn 0.0800 -0.7949 0.6015
vn 0.4843 -0.6282 -0.6090
vn 0.9560 0.1797 0.2318
vn -0.7540 -0.4947 -0.4321
vn 0.2491 -0.9223 0.2955
vn 0.0555 0.6255 -0.7782
vn -0.8152 -0.0623 -0.5758
vn 0.4805 -0.5312 -0.6978
vn -0.4542 0.8282 0.3283
vn 0.6750 -0.5561 0.4850
vn 0.2061 0.7870 -0.5815
vn -0.6576 0.5695 -0.4931
vn -0.3711 -0.1397 0.9180
vn 0.0837 0.9954 0.0463
vn -0.4111 -0.8674 -0.2805
vn 0.7540 0.1240 -0.6450
vn 0.9589 0.2627 -0.1076
vn -0.7997 -0.2802 -0.5310
vn 0.1713 -0.8187 0.5481
vn -0.5275 0.4267 -0.7346
vn 0.5128 -0.5722 0.6400
vn -0.5565 0.4365 -0.7069
vn -0.7742 -0.2567 0.5786
vn 0.6539 -0.4793 0.5854
vn -0.7873 -0.2680 0.5553
vn 0.7542 0.1108 -0.6473
vn 0.4927 -0.5917 0.6380
vn 0.6730 -0.5474 0.4974
vn -0.7668 -0.1582 0.6221
vn -0.6790 0.4064 -0.6114
vn 0.6758 -0.5287 0.5136
vn -0.7078 0.3824 -0.5940
vn -0.7328 -0.6719 -0.1076
vn 0.6346 0.6598 -0.4025
vn -0.7264 -0.4674 -0.5039
vn 0.5008 0.7880 0.3582
vn -0.8693 0.3387 0.3600
vn 0.7707 0.1751 -0.6126
vn -0.6464 0.4831 -0.5906
vn 0.7763 0.2012 -0.5974
vn 0.5627 -0.5024 0.6565
vn -0.6499 0.4816 -0.5880
vn -0.5584 0.5044 -0.6586
vn 0.6402 -0.4588 0.6162
vn -0.5674 0.2800 0.7743
vn 0.5666 -0.5012 0.6541
vn 0.6555 -0.4805 0.5826
vn -0.5566 0.5030 -0.6612
vn -0.7707 -0.1751 0.6126
vn 0.3252 -0.5615 -0.7609
vn -0.7710 0.3014 -0.5611
vn 0.4027 -0.6510 0.6434
vn 0.3044 -0.5803 -0.7554
vn 0.7314 -0.6156 0.2934
vn -0.5730 0.5256 -0.6288
vn 0.7024 0.6996 -0.1313
vn -0.7024 -0.6996 0.1313
vn 0.6176 -0.2007 -0.7605
vn 0.4308 -0.6288 0.6473
vn -0.7533 0.3320 -0.5678
vn -0.5513 0.3034 0.7772
vn -0.6582 -0.7513 0.0474
vn 0.4391 -0.6220 0.6483
vn -0.7476 0.3413 -0.5697
vn -0.7223 -0.0157 0.6914
vn 0.3713 -0.5175 -0.7710
vn -0.3986 0.3013 -0.8662
vn -0.5942 -0.8024 -0.0555
vn 0.7705 0.5567 -0.3106
usemtl Matériau.012
s off
f 131//26 132//26 134//26 133//26
f 138//27 137//27 141//27 142//27
f 137//28 138//28 136//28 135//28
f 153//29 154//29 132//29 131//29
f 151//30 137//30 135//30 153//30
f 152//31 134//31 132//31 154//31
f 142//32 141//32 145//32 146//32
f 151//33 133//33 140//33 155//33
f 152//34 138//34 142//34 156//34
f 133//35 134//35 139//35 140//35
f 158//36 146//36 150//36 160//36
f 155//37 140//37 144//37 157//37
f 156//38 142//38 146//38 158//38
f 140//39 139//39 143//39 144//39
f 149//40 159//40 163//40 166//40
f 144//41 143//41 147//41 148//41
f 146//42 145//42 149//42 150//42
f 157//43 144//43 148//43 159//43
f 145//44 157//44 159//44 149//44
f 148//45 147//45 161//45 162//45
f 139//46 156//46 158//46 143//46
f 141//47 155//47 157//47 145//47
f 143//48 158//48 160//48 147//48
f 134//49 152//49 156//49 139//49
f 137//50 151//50 155//50 141//50
f 138//51 152//51 154//51 136//51
f 133//52 151//52 153//52 131//52
f 135//53 136//53 154//53 153//53
f 165//54 166//54 172//54 171//54
f 161//55 164//55 170//55 167//55
f 150//56 149//56 166//56 165//56
f 159//57 148//57 162//57 163//57
f 147//58 160//58 164//58 161//58
f 160//59 150//59 165//59 164//59
f 172//60 169//60 180//60 179//60
f 168//61 167//61 173//61 174//61
f 163//62 162//62 168//62 169//62
f 166//63 163//63 169//63 172//63
f 164//64 165//64 171//64 170//64
f 162//65 161//65 167//65 168//65
f 176//66 175//66 183//66 184//66
f 167//67 170//67 176//67 173//67
f 169//68 168//68 174//68 175//68
f 170//69 169//69 175//69 176//69
f 179//70 180//70 192//70 191//70
f 170//71 171//71 178//71 177//71
f 171//72 172//72 179//72 178//72
f 169//73 170//73 177//73 180//73
f 184//74 183//74 187//74 188//74
f 175//75 174//75 182//75 183//75
f 173//76 176//76 184//76 181//76
f 174//77 173//77 181//77 182//77
f 186//78 185//78 188//78 187//78
f 183//79 182//79 186//79 187//79
f 181//80 184//80 188//80 185//80
f 182//81 181//81 185//81 186//81
f 192//82 189//82 190//82 191//82
f 177//83 178//83 190//83 189//83
f 180//84 177//84 189//84 192//84
f 178//85 179//85 191//85 190//85
f 193//86 194//86 196//86 195//86
f 200//87 199//87 203//87 204//87
f 199//88 200//88 198//88 197//88
f 215//89 216//89 194//89 193//89
f 213//90 199//90 197//90 215//90
f 214//91 196//91 194//91 216//91
f 204//92 203//92 207//92 208//92
f 213//93 195//93 202//93 217//93
f 214//94 200//94 204//94 218//94
f 195//95 196//95 201//95 202//95
f 220//96 208//96 212//96 222//96
f 217//97 202//97 206//97 219//97
f 218//98 204//98 208//98 220//98
f 202//99 201//99 205//99 206//99
f 211//100 221//100 225//100 228//100
f 206//101 205//101 209//101 210//101
f 208//102 207//102 211//102 212//102
f 219//103 206//103 210//103 221//103
f 207//104 219//104 221//104 211//104
f 210//105 209//105 223//105 224//105
f 201//106 218//106 220//106 205//106
f 203//107 217//107 219//107 207//107
f 205//108 220//108 222//108 209//108
f 196//109 214//109 218//109 201//109
f 199//110 213//110 217//110 203//110
f 200//111 214//111 216//111 198//111
f 195//112 213//112 215//112 193//112
f 197//113 198//113 216//113 215//113
f 227//114 228//114 234//114 233//114
f 223//115 226//115 232//115 229//115
f 212//116 211//116 228//116 227//116
f 221//117 210//117 224//117 225//117
f 209//118 222//118 226//118 223//118
f 222//119 212//119 227//119 226//119
f 234//120 231//120 242//120 241//120
f 230//121 229//121 235//121 236//121
f 225//122 224//122 230//122 231//122
f 228//123 225//123 231//123 234//123
f 226//124 227//124 233//124 232//124
f 224//125 223//125 229//125 230//125
f 238//126 237//126 245//126 246//126
f 229//127 232//127 238//127 235//127
f 231//128 230//128 236//128 237//128
f 232//129 231//129 237//129 238//129
f 241//130 242//130 254//130 253//130
f 232//131 233//131 240//131 239//131
f 233//132 234//132 241//132 240//132
f 231//133 232//133 239//133 242//133
f 246//134 245//134 249//134 250//134
f 237//135 236//135 244//135 245//135
f 235//136 238//136 246//136 243//136
f 236//137 235//137 243//137 244//137
f 248//138 247//138 250//138 249//138
f 245//139 244//139 248//139 249//139
f 243//140 246//140 250//140 247//140
f 244//141 243//141 247//141 248//141
f 254//142 251//142 252//142 253//142
f 239//143 240//143 252//143 251//143
f 242//144 239//144 251//144 254//144
f 240//145 241//145 253//145 252//145
