# Blender v2.91.2 OBJ File: 'camionnete02.blend'
# www.blender.org
mtllib arme_000022.mtl
o Cube.046_Cube.010
v 207.504974 132.588989 -1079.437988
v 164.697205 -81.848999 -1051.816406
v 297.188873 89.356781 -1276.076904
v 254.381042 -125.081238 -1248.455444
v 10.773224 159.541306 -1175.089966
v -32.034595 -54.896683 -1147.468384
v 100.457062 116.309113 -1371.728638
v 57.649246 -98.128937 -1344.107178
v 84.028091 192.111191 -808.705078
v 41.220291 -22.326782 -781.083557
v -155.511459 4.625526 -876.735352
v -112.703667 219.063507 -904.356873
v 28.146721 219.048889 -686.180603
v -14.661095 4.610909 -658.559143
v -211.392883 31.563232 -754.210876
v -168.585098 246.001221 -781.832520
v -4.865517 234.962524 -613.798767
v -30.337875 76.298157 -605.727600
v -227.069717 103.250504 -701.379395
v -201.597351 261.914856 -709.450500
v 70.822144 432.823975 -713.716736
v -125.909630 459.776306 -809.368591
v 37.809929 448.737579 -641.334778
v -158.921844 475.689941 -736.986633
v 103.292770 182.824615 -850.944397
v 60.484970 -31.613342 -823.322876
v -93.439018 209.776978 -946.596191
v -136.246826 -4.661034 -918.974670
v 98.159271 262.898804 -817.823181
v -98.572502 289.851135 -913.474976
v 117.423950 253.612213 -860.062317
v -79.307846 280.564545 -955.714111
v 118.661316 365.600037 -831.052002
v -78.070457 392.552338 -926.703735
v 137.925934 356.313446 -873.291260
v -58.805801 383.265808 -968.943115
v 43.540886 289.227661 -698.067993
v -153.190918 316.179993 -793.719788
v 64.042908 391.928894 -711.296753
v -132.688889 418.881226 -806.948547
v 118.232117 555.858154 -776.559082
v -78.499680 582.810425 -872.210938
v 85.219879 571.771729 -704.177185
v -111.511871 598.723999 -799.828979
v 265.527618 104.619064 -1206.657227
v 222.719849 -109.818924 -1179.035889
v 68.795868 131.571426 -1302.309082
v 25.988083 -82.866592 -1274.687622
v 198.822937 102.832947 -1323.902832
v 156.015152 -111.605072 -1296.281494
v 109.139099 146.065155 -1127.263916
v 66.331314 -68.372849 -1099.642456
v -14.337784 205.587341 -856.530884
v -57.145584 -8.850616 -828.909363
v -70.219177 232.525085 -734.006531
v -107.570572 28.663956 -693.887268
v -103.231415 248.438660 -661.624573
v -118.141472 77.002869 -658.262939
v -27.543739 446.300171 -761.542664
v -60.555962 462.213745 -689.160767
v -37.880920 -18.137177 -871.148743
v 4.926872 196.300781 -898.770203
v -0.206619 276.374969 -865.649048
v 19.058037 267.088379 -907.888245
v 20.295448 379.076233 -878.877808
v 39.560089 369.789612 -921.117188
v -54.825020 302.703827 -745.893860
v -34.322968 405.405060 -759.122559
v 19.866211 569.334351 -824.385010
v -13.146034 585.247864 -752.003052
v 124.353958 -96.342758 -1226.861694
v 167.161774 118.095276 -1254.483154
v 248.005920 96.094879 -1299.989746
v 115.514252 -75.110931 -1075.729370
v -7.962654 -15.588699 -804.996521
v -74.406387 24.120453 -677.762756
v -84.977272 72.459358 -642.138306
v 54.109818 189.562714 -874.857300
v 68.240982 260.350281 -883.975342
v 88.743011 363.051514 -897.204224
v 216.344727 111.357147 -1230.570312
v 205.198090 -118.343170 -1272.368408
v 158.322021 139.327057 -1103.351074
v 34.845146 198.849243 -832.618103
v -21.036240 225.786987 -710.093567
v -54.048477 241.700562 -637.711609
v 21.639221 439.562042 -737.629700
v -11.373001 455.475647 -665.247803
v 11.302025 -24.875259 -847.235840
v 48.976318 269.636871 -841.736084
v 69.478363 372.338104 -854.964844
v -5.642067 295.965729 -721.980957
v 14.859978 398.666992 -735.209656
v 69.049194 562.596252 -800.471985
v 36.036926 578.509766 -728.090149
v 173.536896 -103.080841 -1202.948853
v 3.286850 -65.025856 -842.064026
v -45.896095 -58.287781 -865.976990
v 165.521667 -143.231445 -1197.777100
v 116.338776 -136.493362 -1221.689819
v 58.316132 -108.523445 -1094.470581
v 107.499069 -115.261520 -1070.557617
v 320.338593 41.250305 -1123.149048
v 294.681519 53.618301 -1066.893921
v 275.752441 -41.203964 -1054.679810
v 301.409393 -53.571991 -1110.935181
v 362.851288 35.426025 -1102.479248
v 337.194214 47.794052 -1046.224121
v 318.265137 -47.028229 -1034.010132
v 343.922150 -59.396225 -1090.265381
v 427.909271 26.513077 -1070.847900
v 402.252289 38.881088 -1014.592773
v 383.323120 -55.941162 -1002.378784
v 408.980042 -68.309189 -1058.634033
v 469.773285 20.777710 -1050.493530
v 444.116241 33.145691 -994.238403
v 425.187225 -61.676575 -982.024414
v 450.844147 -74.044586 -1038.279541
v 499.826935 -260.368988 -1918.364380
v 450.644012 -253.630859 -1942.277344
v 493.451752 -39.192841 -1969.898926
v 542.634644 -45.930939 -1945.985840
v 57.408203 626.375610 -848.056885
v -33.230675 638.793152 -892.125854
v 26.989212 641.039124 -781.360657
v -63.649612 653.456604 -825.429688
v 117.628052 628.621582 -737.291870
v 148.047119 613.958191 -803.987671
v 102.727707 620.166992 -826.022278
v 72.308624 634.830261 -759.326294
vn 0.8926 -0.1223 0.4340
vn 0.4069 -0.1961 -0.8922
vn -0.8926 0.1223 -0.4340
vn 0.1942 0.9729 -0.1253
vn -0.1942 -0.9729 0.1253
vn -0.4069 0.1961 0.8922
vn -0.4155 -0.5968 0.6865
vn -0.2768 -0.9535 0.1189
vn -0.4981 0.0953 0.8619
vn -0.8932 0.1221 -0.4327
vn 0.8932 -0.1221 0.4327
vn 0.3129 -0.5249 -0.7916
vn 0.3104 -0.5314 -0.7882
vn -0.3129 0.5249 0.7916
vn 0.7253 -0.2284 -0.6494
vn -0.7658 0.4591 -0.4502
vn -0.3877 0.0792 0.9184
vn -0.1707 -0.9701 0.1723
vn -0.2827 0.5980 0.7500
vn -0.4305 0.0551 0.9009
vn -0.2206 -0.9579 0.1838
vn -0.0228 0.1322 0.9910
vn 0.3305 -0.8789 0.3440
vn 0.6545 0.7439 0.1349
vn 0.8644 -0.2332 0.4455
usemtl Matériau.011
s off
f 45//1 46//1 4//1 3//1
f 49//2 50//2 8//2 7//2
f 47//3 48//3 6//3 5//3
f 26//1 25//1 9//1 10//1
f 72//4 47//4 5//4 51//4
f 96//5 46//5 2//5 74//5
f 10//1 9//1 13//1 14//1
f 84//6 9//6 29//6 90//6
f 89//5 26//5 10//5 75//5
f 27//3 28//3 11//3 12//3
f 76//7 14//7 18//7 77//7
f 75//8 10//8 14//8 76//8
f 12//3 11//3 15//3 16//3
f 53//4 12//4 16//4 55//4
f 86//9 77//9 18//9 17//9
f 16//10 15//10 19//10 20//10
f 16//3 20//3 24//3 22//3
f 14//11 13//11 17//11 18//11
f 59//12 22//12 42//12 69//12
f 86//6 17//6 23//6 88//6
f 17//1 13//1 21//1 23//1
f 55//2 16//2 22//2 59//2
f 5//3 6//3 28//3 27//3
f 74//5 2//5 26//5 89//5
f 51//4 5//4 27//4 62//4
f 2//1 1//1 25//1 26//1
f 32//3 30//3 34//3 36//3
f 62//2 27//2 32//2 64//2
f 27//3 12//3 30//3 32//3
f 9//1 25//1 31//1 29//1
f 66//4 36//4 34//4 65//4
f 90//5 29//5 37//5 92//5
f 64//2 32//2 36//2 66//2
f 29//1 31//1 35//1 33//1
f 92//6 37//6 39//6 93//6
f 29//1 33//1 39//1 37//1
f 34//3 30//3 38//3 40//3
f 65//4 34//4 40//4 68//4
f 69//13 42//13 124//13 123//13
f 23//1 21//1 41//1 43//1
f 88//14 23//14 43//14 95//14
f 22//3 24//3 44//3 42//3
f 82//5 4//5 46//5 96//5
f 49//4 7//4 47//4 72//4
f 7//3 8//3 48//3 47//3
f 46//15 45//15 103//15 106//15
f 73//4 49//4 72//4 81//4
f 8//5 50//5 71//5 48//5
f 24//14 60//14 70//14 44//14
f 42//16 44//16 126//16 124//16
f 91//4 65//4 68//4 93//4
f 38//6 67//6 68//6 40//6
f 79//2 64//2 66//2 80//2
f 30//5 63//5 67//5 38//5
f 80//4 66//4 65//4 91//4
f 78//2 62//2 64//2 79//2
f 83//4 51//4 62//4 78//4
f 6//5 52//5 61//5 28//5
f 85//2 55//2 59//2 87//2
f 20//6 57//6 60//6 24//6
f 87//12 59//12 69//12 94//12
f 20//17 19//17 58//17 57//17
f 84//4 53//4 55//4 85//4
f 11//18 54//18 56//18 15//18
f 15//7 56//7 58//7 19//7
f 28//5 61//5 54//5 11//5
f 12//6 53//6 63//6 30//6
f 48//5 71//5 52//5 6//5
f 81//4 72//4 51//4 83//4
f 50//3 49//3 121//3 120//3
f 3//2 4//2 82//2 73//2
f 45//4 81//4 83//4 1//4
f 9//4 84//4 85//4 13//4
f 21//12 87//12 94//12 41//12
f 13//2 85//2 87//2 21//2
f 1//4 83//4 78//4 25//4
f 25//2 78//2 79//2 31//2
f 35//4 80//4 91//4 33//4
f 31//2 79//2 80//2 35//2
f 33//4 91//4 93//4 39//4
f 70//19 95//19 130//19 125//19
f 3//4 73//4 81//4 45//4
f 50//5 82//5 96//5 71//5
f 60//14 88//14 95//14 70//14
f 67//6 92//6 93//6 68//6
f 63//5 90//5 92//5 67//5
f 52//3 71//3 100//3 101//3
f 57//6 86//6 88//6 60//6
f 57//20 58//20 77//20 86//20
f 54//21 75//21 76//21 56//21
f 56//7 76//7 77//7 58//7
f 61//5 89//5 75//5 54//5
f 53//6 84//6 90//6 63//6
f 89//6 61//6 98//6 97//6
f 101//5 102//5 97//5 98//5
f 100//5 99//5 102//5 101//5
f 61//3 52//3 101//3 98//3
f 74//1 89//1 97//1 102//1
f 71//2 96//2 99//2 100//2
f 96//1 74//1 102//1 99//1
f 106//2 103//2 107//2 110//2
f 1//22 2//22 105//22 104//22
f 2//23 46//23 106//23 105//23
f 45//24 1//24 104//24 103//24
f 109//5 110//5 114//5 113//5
f 104//6 105//6 109//6 108//6
f 105//5 106//5 110//5 109//5
f 103//4 104//4 108//4 107//4
f 113//5 114//5 118//5 117//5
f 107//4 108//4 112//4 111//4
f 110//2 107//2 111//2 114//2
f 108//6 109//6 113//6 112//6
f 116//1 117//1 118//1 115//1
f 111//4 112//4 116//4 115//4
f 114//2 111//2 115//2 118//2
f 122//2 119//2 120//2 121//2
f 82//5 50//5 120//5 119//5
f 73//1 82//1 119//1 122//1
f 49//4 73//4 122//4 121//4
f 123//4 124//4 126//4 125//4
f 129//4 123//4 125//4 130//4
f 128//4 129//4 130//4 127//4
f 95//19 43//19 127//19 130//19
f 94//13 69//13 123//13 129//13
f 43//25 41//25 128//25 127//25
f 44//19 70//19 125//19 126//19
f 41//13 94//13 129//13 128//13
o Cube.048_Cube.024
v -563.921448 470.755432 182.277618
v -727.674622 342.707306 59.045609
v -422.986450 479.264069 -13.840904
v -587.248047 353.396484 -135.602844
v -677.738586 646.396606 35.559643
v -761.699402 580.742737 -27.624847
v -605.477234 650.759216 -64.995796
v -689.094727 585.734009 -127.952660
v -386.390442 424.078003 -435.496033
v -281.339050 475.898621 -387.522400
v -319.495361 589.909912 -427.122406
v -424.546692 538.089233 -475.095978
v -276.490845 414.737976 -621.846191
v -199.254639 452.837616 -586.574768
v -227.308044 536.661255 -615.689636
v -304.544189 498.561646 -650.960938
v -206.623474 411.561310 -738.355103
v -150.180359 439.404053 -712.579224
v -170.681458 500.661255 -733.855957
v -227.124573 472.818542 -759.631775
v -482.707642 584.999756 -29.593773
v -656.372192 451.693726 -158.962311
v -632.400146 575.912537 178.607727
v -806.244263 439.973663 47.781853
v -294.553070 533.687134 -410.718567
v -406.078033 478.673279 -461.648468
v -202.047577 493.181183 -616.471741
v -284.043304 452.733704 -653.916443
v -145.940308 466.941284 -746.080383
v -205.861816 437.382751 -773.444336
v -161.399719 394.697876 -819.169189
v -104.956543 422.540588 -793.393433
v -97.842834 453.830322 -837.240601
v -157.764221 424.271851 -864.604736
v -179.468689 459.130798 -849.201782
v -123.025574 486.973511 -823.426025
v -129.299133 383.781830 -877.670898
v -72.856018 411.624603 -851.895020
v -65.742371 442.914246 -895.742188
v -125.663818 413.355804 -923.106262
v -147.368347 448.214722 -907.703186
v -90.925110 476.057434 -881.927490
v -92.243835 360.019806 -901.173523
v -55.913879 377.940948 -884.582825
v -51.335144 398.080780 -912.805176
v -89.903809 379.055267 -930.418213
v -116.877441 440.086517 -971.220520
v -138.582031 474.945496 -955.817566
v -82.138855 502.788147 -930.041748
v -56.956116 469.644989 -943.856262
v -67.835266 342.625732 -917.016724
v -43.342651 354.707550 -905.831604
v -40.255798 368.285309 -924.858398
v -66.257690 355.458862 -936.732727
v -45.530151 333.877350 -941.826477
v -30.219421 341.429932 -934.834534
v -28.289734 349.917480 -946.728516
v -44.543823 341.899475 -954.151367
v -106.032043 465.137512 -990.111267
v -120.463623 488.315735 -979.869568
v -82.933899 506.828674 -962.730896
v -66.189514 484.791321 -971.916443
v -300.008911 593.608521 364.643951
v -295.100677 353.146515 341.160187
v -153.571472 624.141479 157.409042
v -155.864258 375.157593 144.879059
v -462.340515 549.930176 172.105682
v -459.823914 426.638580 160.064911
v -388.807831 565.376587 68.326035
v -388.433502 437.924225 59.426086
v -6.991028 345.550262 -164.119507
v 39.934631 442.086182 -233.490387
v -64.822449 442.047852 -304.522736
v -111.741943 345.239624 -235.181396
v 75.633545 214.241089 -315.190857
v 110.383606 283.512024 -366.718140
v 33.368347 283.283569 -418.964294
v -1.381653 214.012573 -367.437164
v 126.426086 133.561279 -412.024597
v 151.820984 184.183594 -449.679901
v 95.539246 184.016724 -487.860748
v 70.144470 133.394409 -450.205597
v -262.588898 635.281677 102.889435
v -265.019501 370.847900 89.574051
v -418.046875 602.760498 322.881592
v -412.836151 347.480408 297.950684
v -8.299316 438.778015 -275.335815
v -58.476501 338.754425 -200.933319
v 80.853577 272.936615 -406.029114
v 43.962158 199.397125 -351.326691
v 135.850098 167.519958 -486.637299
v 108.890381 113.778259 -446.661560
v 168.788391 70.753540 -467.891693
v 194.183289 121.375854 -505.546906
v 177.567810 98.144409 -551.768555
v 150.608032 44.402710 -511.792755
v 111.961365 65.028259 -513.912781
v 137.356262 115.650452 -551.568115
v 198.128845 25.608582 -508.795258
v 223.523743 76.230896 -546.450562
v 206.908325 52.999329 -592.672241
v 179.948547 -0.742310 -552.696472
v 141.301819 19.883362 -554.816467
v 166.696655 70.505615 -592.471741
v 240.845764 7.097046 -526.759155
v 257.191345 39.680359 -550.996277
v 246.496765 24.727051 -580.747070
v 229.144043 -9.863953 -555.016479
v 167.426453 -28.974304 -599.095398
v 128.779602 -8.348755 -601.215332
v 154.174438 42.273438 -638.870605
v 194.386169 24.767395 -639.071167
v 270.109131 -6.105469 -537.653564
v 281.128845 15.861206 -553.993408
v 273.919006 5.780029 -574.050720
v 262.220154 -17.540283 -556.703857
v 291.815918 -24.246216 -557.384705
v 298.704346 -10.514526 -567.598999
v 294.197388 -16.816040 -580.136963
v 286.884277 -31.393921 -569.293274
v 158.590515 -31.986816 -630.952881
v 132.893799 -18.272461 -632.362366
v 149.779114 15.387024 -657.399780
v 176.516357 3.746765 -657.533203
vn 0.4477 -0.8490 0.2806
vn -0.3162 0.8699 -0.3785
vn -0.4479 0.8480 -0.2835
vn -0.4434 -0.2588 0.8581
vn 0.3781 0.8724 0.3098
vn -0.6464 -0.5766 -0.4997
vn -0.2641 0.8867 -0.3795
vn 0.8303 0.4490 0.3303
vn -0.7772 -0.1502 -0.6110
vn 0.4744 -0.8666 0.1546
vn -0.8098 -0.3139 -0.4957
vn 0.8862 0.3238 0.3314
vn -0.8108 -0.3472 -0.4713
vn 0.3370 -0.9093 0.2443
vn 0.8093 0.4641 0.3600
vn 0.3436 -0.9103 0.2309
vn -0.2567 0.8834 -0.3921
vn 0.9010 0.2857 0.3264
vn 0.8308 0.4954 0.2536
vn 0.2836 -0.8946 0.3454
vn -0.7631 -0.4897 -0.4218
vn 0.8385 0.4664 0.2819
vn -0.7396 -0.5236 -0.4228
vn -0.6267 -0.5445 -0.5574
vn 0.5659 0.7881 0.2421
vn -0.8068 -0.0603 -0.5878
vn 0.7040 0.4764 0.5267
vn -0.7354 0.4858 0.4724
vn -0.2930 0.8980 -0.3283
vn -0.8136 -0.4553 -0.3615
vn -0.3075 0.9025 -0.3015
vn 0.8454 0.3580 0.3964
vn -0.8118 -0.4595 -0.3604
vn -0.8474 -0.3531 -0.3966
vn 0.8034 0.4460 0.3945
vn 0.0127 -0.6931 0.7208
vn 0.8440 0.3623 0.3955
vn 0.8094 0.4661 0.3572
vn -0.8470 -0.3510 -0.3993
vn 0.2930 -0.8980 0.3283
vn 0.1918 0.4285 -0.8829
vn -0.6660 -0.5997 -0.4436
vn 0.9380 0.1915 0.2888
vn 0.2067 0.4053 -0.8905
vn 0.8057 0.5899 0.0533
vn -0.8545 -0.3718 -0.3626
vn -0.5352 0.7761 0.3335
vn 0.5352 -0.7761 -0.3335
vn -0.0655 0.7462 -0.6625
vn 0.9259 0.2200 0.3072
vn -0.6923 -0.5782 -0.4318
vn -0.0032 -0.6758 0.7370
vn 0.5490 -0.7199 -0.4246
vn 0.9220 0.2284 0.3126
vn -0.7002 -0.5715 -0.4280
vn 0.2009 -0.8531 0.4815
vn 0.1576 0.4796 -0.8632
vn -0.7386 -0.1718 -0.6519
vn 0.5573 -0.6401 -0.5289
vn -0.4824 0.8678 0.1190
vn 0.8179 -0.0379 0.5741
vn -0.7470 -0.0240 -0.6644
vn -0.8176 0.0386 -0.5746
vn -0.3387 -0.0983 0.9357
vn -0.4385 0.8806 -0.1797
vn 0.0705 -0.9956 -0.0616
vn -0.7923 -0.0527 -0.6078
vn 0.2381 0.9192 -0.3138
vn -0.3535 -0.9308 -0.0934
vn 0.8907 -0.0526 0.4516
vn -0.4247 -0.8009 0.4221
vn 0.4638 0.6851 -0.5617
vn -0.4028 -0.7934 0.4563
vn 0.8576 -0.0492 0.5119
vn 0.3214 0.7435 -0.5865
vn 0.8628 -0.0594 0.5020
vn -0.7852 -0.0643 -0.6159
vn 0.5062 0.6711 -0.5417
vn 0.3135 0.6706 -0.6724
vn 0.8112 0.0276 0.5841
vn -0.2719 -0.7930 0.5451
vn 0.3488 0.6846 -0.6400
vn -0.2320 -0.8003 0.5529
vn 0.0075 -0.9943 0.1068
vn -0.1472 0.8641 -0.4813
vn -0.3754 -0.8533 -0.3620
vn 0.0203 0.9869 0.1600
vn -0.9536 -0.0485 0.2971
vn -0.8199 -0.0144 -0.5723
vn -0.3304 -0.7426 0.5826
vn -0.8329 0.0062 -0.5534
vn 0.4193 0.7435 -0.5209
vn -0.3263 -0.7428 0.5847
vn -0.4240 -0.7424 0.5188
vn 0.3300 0.7643 -0.5541
vn 0.4879 0.3500 0.7996
vn 0.4154 0.7441 -0.5233
vn 0.3200 0.7419 -0.5892
vn -0.4252 -0.7437 0.5158
vn 0.8199 0.0144 0.5723
vn -0.1661 -0.5335 -0.8293
vn -0.1273 -0.8263 0.5487
vn 0.5943 0.6123 -0.5214
vn -0.1400 -0.5448 -0.8268
vn 0.2256 0.5276 -0.8190
vn -0.4160 -0.7227 0.5520
vn -0.9001 0.4352 -0.0219
vn 0.9001 -0.4352 0.0219
vn -0.5605 -0.2945 -0.7740
vn 0.5672 0.6359 -0.5235
vn -0.1609 -0.8154 0.5561
vn 0.4652 0.3661 0.8059
vn 0.8706 -0.4873 -0.0680
vn 0.5589 0.6427 -0.5239
vn -0.1711 -0.8119 0.5582
vn 0.7264 0.1366 0.6735
vn -0.2247 -0.5065 -0.8324
vn -0.4692 -0.8575 0.2112
vn 0.8210 -0.5430 -0.1764
vn -0.9277 0.3025 -0.2189
usemtl Matériau.012
s off
f 131//26 132//26 134//26 133//26
f 138//27 137//27 141//27 142//27
f 137//28 138//28 136//28 135//28
f 153//29 154//29 132//29 131//29
f 151//30 137//30 135//30 153//30
f 152//31 134//31 132//31 154//31
f 142//32 141//32 145//32 146//32
f 151//33 133//33 140//33 155//33
f 152//34 138//34 142//34 156//34
f 133//35 134//35 139//35 140//35
f 158//36 146//36 150//36 160//36
f 155//37 140//37 144//37 157//37
f 156//38 142//38 146//38 158//38
f 140//39 139//39 143//39 144//39
f 149//40 159//40 163//40 166//40
f 144//41 143//41 147//41 148//41
f 146//42 145//42 149//42 150//42
f 157//43 144//43 148//43 159//43
f 145//44 157//44 159//44 149//44
f 148//45 147//45 161//45 162//45
f 139//46 156//46 158//46 143//46
f 141//47 155//47 157//47 145//47
f 143//48 158//48 160//48 147//48
f 134//49 152//49 156//49 139//49
f 137//50 151//50 155//50 141//50
f 138//51 152//51 154//51 136//51
f 133//52 151//52 153//52 131//52
f 135//53 136//53 154//53 153//53
f 165//54 166//54 172//54 171//54
f 161//55 164//55 170//55 167//55
f 150//56 149//56 166//56 165//56
f 159//57 148//57 162//57 163//57
f 147//58 160//58 164//58 161//58
f 160//59 150//59 165//59 164//59
f 172//60 169//60 180//60 179//60
f 168//61 167//61 173//61 174//61
f 163//62 162//62 168//62 169//62
f 166//63 163//63 169//63 172//63
f 164//64 165//64 171//64 170//64
f 162//65 161//65 167//65 168//65
f 176//66 175//66 183//66 184//66
f 167//67 170//67 176//67 173//67
f 169//68 168//68 174//68 175//68
f 170//69 169//69 175//69 176//69
f 179//70 180//70 192//70 191//70
f 170//71 171//71 178//71 177//71
f 171//72 172//72 179//72 178//72
f 169//73 170//73 177//73 180//73
f 184//74 183//74 187//74 188//74
f 175//75 174//75 182//75 183//75
f 173//76 176//76 184//76 181//76
f 174//77 173//77 181//77 182//77
f 186//78 185//78 188//78 187//78
f 183//79 182//79 186//79 187//79
f 181//80 184//80 188//80 185//80
f 182//81 181//81 185//81 186//81
f 192//82 189//82 190//82 191//82
f 177//83 178//83 190//83 189//83
f 180//84 177//84 189//84 192//84
f 178//85 179//85 191//85 190//85
f 193//86 194//86 196//86 195//86
f 200//87 199//87 203//87 204//87
f 199//88 200//88 198//88 197//88
f 215//89 216//89 194//89 193//89
f 213//90 199//90 197//90 215//90
f 214//91 196//91 194//91 216//91
f 204//92 203//92 207//92 208//92
f 213//93 195//93 202//93 217//93
f 214//94 200//94 204//94 218//94
f 195//95 196//95 201//95 202//95
f 220//96 208//96 212//96 222//96
f 217//97 202//97 206//97 219//97
f 218//98 204//98 208//98 220//98
f 202//99 201//99 205//99 206//99
f 211//100 221//100 225//100 228//100
f 206//101 205//101 209//101 210//101
f 208//102 207//102 211//102 212//102
f 219//103 206//103 210//103 221//103
f 207//104 219//104 221//104 211//104
f 210//105 209//105 223//105 224//105
f 201//106 218//106 220//106 205//106
f 203//107 217//107 219//107 207//107
f 205//108 220//108 222//108 209//108
f 196//109 214//109 218//109 201//109
f 199//110 213//110 217//110 203//110
f 200//111 214//111 216//111 198//111
f 195//112 213//112 215//112 193//112
f 197//113 198//113 216//113 215//113
f 227//114 228//114 234//114 233//114
f 223//115 226//115 232//115 229//115
f 212//116 211//116 228//116 227//116
f 221//117 210//117 224//117 225//117
f 209//118 222//118 226//118 223//118
f 222//119 212//119 227//119 226//119
f 234//120 231//120 242//120 241//120
f 230//121 229//121 235//121 236//121
f 225//122 224//122 230//122 231//122
f 228//123 225//123 231//123 234//123
f 226//124 227//124 233//124 232//124
f 224//125 223//125 229//125 230//125
f 238//126 237//126 245//126 246//126
f 229//127 232//127 238//127 235//127
f 231//128 230//128 236//128 237//128
f 232//129 231//129 237//129 238//129
f 241//130 242//130 254//130 253//130
f 232//131 233//131 240//131 239//131
f 233//132 234//132 241//132 240//132
f 231//133 232//133 239//133 242//133
f 246//134 245//134 249//134 250//134
f 237//135 236//135 244//135 245//135
f 235//136 238//136 246//136 243//136
f 236//137 235//137 243//137 244//137
f 248//138 247//138 250//138 249//138
f 245//139 244//139 248//139 249//139
f 243//140 246//140 250//140 247//140
f 244//141 243//141 247//141 248//141
f 254//142 251//142 252//142 253//142
f 239//143 240//143 252//143 251//143
f 242//144 239//144 251//144 254//144
f 240//145 241//145 253//145 252//145
