# Blender v2.91.2 OBJ File: 'camionnete02.blend'
# www.blender.org
mtllib arme_000213.mtl
o Cube.046_Cube.010
v -105.087296 -121.905731 -1212.450928
v -126.768898 -331.041870 -1146.336426
v -69.274918 -190.826111 -1418.718994
v -90.956573 -399.962311 -1352.604736
v -321.481537 -112.357330 -1253.211670
v -343.163208 -321.493530 -1187.097412
v -285.669159 -181.277710 -1459.479736
v -307.350891 -390.413940 -1393.365479
v -154.393814 -27.015976 -928.460449
v -176.075485 -236.152115 -862.346130
v -392.469696 -226.603729 -903.106934
v -370.788025 -17.467590 -969.221252
v -176.708191 15.927887 -799.936096
v -198.389908 -193.208282 -733.821838
v -414.784149 -183.659882 -774.582642
v -393.102509 25.476288 -840.696960
v -189.890594 41.297165 -724.009705
v -203.293884 -115.077194 -688.572693
v -419.688202 -105.528778 -729.333557
v -406.284882 50.845596 -764.770508
v -155.093567 224.417480 -865.845947
v -371.487854 233.965851 -906.606873
v -168.275940 249.786774 -789.919617
v -384.670197 259.335205 -830.680420
v -146.701050 -41.820557 -972.768127
v -168.382721 -250.956650 -906.653931
v -363.095337 -32.272141 -1013.528992
v -384.777039 -241.408279 -947.414673
v -147.236511 42.021408 -950.285278
v -363.630798 51.569839 -991.046204
v -139.543777 27.216888 -994.592957
v -355.938019 36.765274 -1035.353760
v -136.852463 142.183441 -981.949524
v -353.246704 151.731873 -1022.710327
v -129.159760 127.378845 -1026.257324
v -345.553986 136.927307 -1067.018066
v -169.046600 83.994675 -824.665833
v -385.440887 93.543060 -865.426636
v -158.662537 184.156708 -856.330017
v -375.056824 193.705078 -897.090881
v -133.314713 338.191223 -954.815125
v -349.708984 347.739563 -995.575928
v -146.497131 363.560486 -878.888733
v -362.891357 373.108887 -919.649475
v -81.917831 -166.495087 -1345.899902
v -103.599487 -375.631287 -1279.785889
v -298.312042 -156.946686 -1386.660645
v -319.993713 -366.082886 -1320.546387
v -177.472046 -186.051910 -1439.099365
v -199.153748 -395.188110 -1372.985107
v -213.284409 -117.131531 -1232.831299
v -234.966049 -326.267700 -1166.716797
v -262.590912 -22.241776 -948.840820
v -284.272552 -231.377899 -882.726501
v -284.905334 20.702103 -820.316528
v -298.575806 -176.099289 -745.174072
v -298.087708 46.071381 -744.390137
v -301.882538 -123.415283 -714.662476
v -263.290710 229.191711 -886.226379
v -276.473083 254.560974 -810.300049
v -276.579895 -246.182449 -927.034241
v -254.898209 -37.046371 -993.148560
v -255.433655 46.795624 -970.665710
v -247.740875 31.991074 -1014.973328
v -245.049545 146.957642 -1002.329895
v -237.356842 132.153046 -1046.637695
v -277.243744 88.768906 -845.046204
v -266.859650 188.930908 -876.710449
v -241.511871 342.965393 -975.195496
v -254.694275 368.334656 -899.269043
v -211.796600 -370.857056 -1300.166016
v -190.114899 -161.720886 -1366.280273
v -123.373421 -188.439026 -1428.908936
v -180.867493 -328.654785 -1156.526611
v -230.174057 -233.765030 -872.536377
v -262.096985 -177.708923 -738.302795
v -265.403748 -125.024902 -707.791199
v -200.799591 -39.433441 -982.958252
v -193.642349 29.603943 -1004.783142
v -183.258286 129.765961 -1036.447388
v -136.016357 -164.108002 -1356.090088
v -145.055145 -397.575226 -1362.794922
v -159.185867 -119.518646 -1222.641113
v -208.492371 -24.628922 -938.650696
v -230.806793 18.314987 -810.126282
v -243.989151 43.684265 -734.199951
v -209.192139 226.804596 -876.036255
v -222.374496 252.173889 -800.109802
v -222.481293 -248.569565 -916.844055
v -201.335083 44.408524 -960.475525
v -190.951019 144.570557 -992.139709
v -223.145172 86.381775 -834.856018
v -212.761093 186.543823 -866.520203
v -187.413269 340.578308 -965.005310
v -200.595673 365.947571 -889.078857
v -157.698120 -373.244202 -1289.976074
v -226.540894 -287.727448 -904.465027
v -280.639465 -285.340363 -914.655273
v -161.757706 -412.402069 -1277.596924
v -215.856216 -410.014984 -1287.787109
v -239.025696 -365.425598 -1154.337891
v -184.927124 -367.812683 -1144.147705
v -3.205200 -216.413208 -1273.057861
v -13.450500 -196.696259 -1214.048096
v -23.037766 -289.174133 -1184.812744
v -12.792648 -308.891113 -1243.822754
v 43.556450 -218.476593 -1264.249756
v 33.311172 -198.759613 -1205.239990
v 23.723824 -291.237488 -1176.004639
v 33.969063 -310.954468 -1235.014648
v 115.116669 -221.634186 -1250.770508
v 104.871399 -201.917206 -1191.760498
v 95.283981 -294.395081 -1162.525391
v 105.529205 -314.112061 -1221.535400
v 161.164780 -223.666107 -1242.096680
v 150.919479 -203.949127 -1183.086914
v 141.332184 -296.426971 -1153.851807
v 151.577362 -316.143921 -1212.861816
v -27.404293 -623.991516 -2040.424805
v -81.502892 -621.604431 -2050.614990
v -59.821323 -412.468292 -2116.729492
v -5.722664 -414.855377 -2106.539307
v -214.982819 396.771240 -1015.502014
v -314.680664 401.170349 -1034.281494
v -227.129654 420.147583 -945.539856
v -326.827423 424.546753 -964.319336
v -127.431877 415.748474 -926.760559
v -115.284912 392.372131 -996.722473
v -165.133835 394.571777 -1006.112244
v -177.280762 417.947998 -936.150208
vn 0.9818 -0.0433 0.1849
vn 0.1625 -0.3127 -0.9359
vn -0.9818 0.0433 -0.1849
vn 0.0984 0.9489 -0.3000
vn -0.0984 -0.9489 0.3000
vn -0.1625 0.3127 0.9359
vn -0.1815 -0.5013 0.8460
vn -0.1806 -0.9321 0.3139
vn -0.2527 0.2069 0.9452
vn -0.9821 0.0433 -0.1835
vn 0.9821 -0.0433 0.1835
vn 0.1177 -0.6256 -0.7712
vn 0.1165 -0.6316 -0.7665
vn -0.1177 0.6256 0.7712
vn 0.5357 -0.3045 -0.7876
vn -0.8832 0.3768 -0.2792
vn -0.1304 0.2010 0.9709
vn -0.0633 -0.9390 0.3379
vn -0.1039 0.6927 0.7137
vn -0.1749 0.1739 0.9691
vn -0.1089 -0.9262 0.3609
vn 0.2370 0.2704 0.9331
vn 0.4597 -0.8152 0.3522
vn 0.6238 0.7674 -0.1481
vn 0.9640 -0.1520 0.2182
usemtl Matériau.011
s off
f 45//1 46//1 4//1 3//1
f 49//2 50//2 8//2 7//2
f 47//3 48//3 6//3 5//3
f 26//1 25//1 9//1 10//1
f 72//4 47//4 5//4 51//4
f 96//5 46//5 2//5 74//5
f 10//1 9//1 13//1 14//1
f 84//6 9//6 29//6 90//6
f 89//5 26//5 10//5 75//5
f 27//3 28//3 11//3 12//3
f 76//7 14//7 18//7 77//7
f 75//8 10//8 14//8 76//8
f 12//3 11//3 15//3 16//3
f 53//4 12//4 16//4 55//4
f 86//9 77//9 18//9 17//9
f 16//10 15//10 19//10 20//10
f 16//3 20//3 24//3 22//3
f 14//11 13//11 17//11 18//11
f 59//12 22//12 42//12 69//12
f 86//6 17//6 23//6 88//6
f 17//1 13//1 21//1 23//1
f 55//2 16//2 22//2 59//2
f 5//3 6//3 28//3 27//3
f 74//5 2//5 26//5 89//5
f 51//4 5//4 27//4 62//4
f 2//1 1//1 25//1 26//1
f 32//3 30//3 34//3 36//3
f 62//2 27//2 32//2 64//2
f 27//3 12//3 30//3 32//3
f 9//1 25//1 31//1 29//1
f 66//4 36//4 34//4 65//4
f 90//5 29//5 37//5 92//5
f 64//2 32//2 36//2 66//2
f 29//1 31//1 35//1 33//1
f 92//6 37//6 39//6 93//6
f 29//1 33//1 39//1 37//1
f 34//3 30//3 38//3 40//3
f 65//4 34//4 40//4 68//4
f 69//13 42//13 124//13 123//13
f 23//1 21//1 41//1 43//1
f 88//14 23//14 43//14 95//14
f 22//3 24//3 44//3 42//3
f 82//5 4//5 46//5 96//5
f 49//4 7//4 47//4 72//4
f 7//3 8//3 48//3 47//3
f 46//15 45//15 103//15 106//15
f 73//4 49//4 72//4 81//4
f 8//5 50//5 71//5 48//5
f 24//14 60//14 70//14 44//14
f 42//16 44//16 126//16 124//16
f 91//4 65//4 68//4 93//4
f 38//6 67//6 68//6 40//6
f 79//2 64//2 66//2 80//2
f 30//5 63//5 67//5 38//5
f 80//4 66//4 65//4 91//4
f 78//2 62//2 64//2 79//2
f 83//4 51//4 62//4 78//4
f 6//5 52//5 61//5 28//5
f 85//2 55//2 59//2 87//2
f 20//6 57//6 60//6 24//6
f 87//12 59//12 69//12 94//12
f 20//17 19//17 58//17 57//17
f 84//4 53//4 55//4 85//4
f 11//18 54//18 56//18 15//18
f 15//7 56//7 58//7 19//7
f 28//5 61//5 54//5 11//5
f 12//6 53//6 63//6 30//6
f 48//5 71//5 52//5 6//5
f 81//4 72//4 51//4 83//4
f 50//3 49//3 121//3 120//3
f 3//2 4//2 82//2 73//2
f 45//4 81//4 83//4 1//4
f 9//4 84//4 85//4 13//4
f 21//12 87//12 94//12 41//12
f 13//2 85//2 87//2 21//2
f 1//4 83//4 78//4 25//4
f 25//2 78//2 79//2 31//2
f 35//4 80//4 91//4 33//4
f 31//2 79//2 80//2 35//2
f 33//4 91//4 93//4 39//4
f 70//19 95//19 130//19 125//19
f 3//4 73//4 81//4 45//4
f 50//5 82//5 96//5 71//5
f 60//14 88//14 95//14 70//14
f 67//6 92//6 93//6 68//6
f 63//5 90//5 92//5 67//5
f 52//3 71//3 100//3 101//3
f 57//6 86//6 88//6 60//6
f 57//20 58//20 77//20 86//20
f 54//21 75//21 76//21 56//21
f 56//7 76//7 77//7 58//7
f 61//5 89//5 75//5 54//5
f 53//6 84//6 90//6 63//6
f 89//6 61//6 98//6 97//6
f 101//5 102//5 97//5 98//5
f 100//5 99//5 102//5 101//5
f 61//3 52//3 101//3 98//3
f 74//1 89//1 97//1 102//1
f 71//2 96//2 99//2 100//2
f 96//1 74//1 102//1 99//1
f 106//2 103//2 107//2 110//2
f 1//22 2//22 105//22 104//22
f 2//23 46//23 106//23 105//23
f 45//24 1//24 104//24 103//24
f 109//5 110//5 114//5 113//5
f 104//6 105//6 109//6 108//6
f 105//5 106//5 110//5 109//5
f 103//4 104//4 108//4 107//4
f 113//5 114//5 118//5 117//5
f 107//4 108//4 112//4 111//4
f 110//2 107//2 111//2 114//2
f 108//6 109//6 113//6 112//6
f 116//1 117//1 118//1 115//1
f 111//4 112//4 116//4 115//4
f 114//2 111//2 115//2 118//2
f 122//2 119//2 120//2 121//2
f 82//5 50//5 120//5 119//5
f 73//1 82//1 119//1 122//1
f 49//4 73//4 122//4 121//4
f 123//4 124//4 126//4 125//4
f 129//4 123//4 125//4 130//4
f 128//4 129//4 130//4 127//4
f 95//19 43//19 127//19 130//19
f 94//13 69//13 123//13 129//13
f 43//25 41//25 128//25 127//25
f 44//19 70//19 125//19 126//19
f 41//13 94//13 129//13 128//13
o Cube.048_Cube.024
v -463.122681 593.302979 107.613403
v -615.678650 412.102570 155.473816
v -407.991516 490.932404 -104.231728
v -563.478455 308.184143 -57.910728
v -665.981079 647.032776 -38.304077
v -744.200745 554.126282 -13.764732
v -637.713745 594.544617 -146.923065
v -715.768188 501.783386 -122.318153
v -519.455139 246.657257 -474.345612
v -408.460938 306.657593 -464.203094
v -462.204376 413.210602 -506.401886
v -573.198608 353.210205 -516.544495
v -463.344086 213.108459 -680.785828
v -381.738678 257.222107 -673.328735
v -421.251984 335.562317 -704.354370
v -502.857513 291.448608 -711.811462
v -427.300415 194.790222 -810.520813
v -367.664246 227.027893 -805.071350
v -396.540131 284.277832 -827.744324
v -456.176331 252.040222 -833.193909
v -496.998596 565.591858 -142.517273
v -660.499512 373.378113 -92.874748
v -555.570312 674.383057 82.310104
v -717.527283 482.016602 133.119812
v -430.650818 360.337158 -490.247467
v -548.484802 296.639343 -501.015045
v -394.728363 292.879517 -706.329346
v -481.362579 246.047485 -714.246033
v -374.140198 249.629761 -841.756531
v -437.451324 215.405518 -847.541992
v -404.588928 167.514160 -897.702942
v -344.952911 199.751770 -892.253296
v -351.657501 224.659119 -940.074890
v -414.968506 190.434998 -945.860107
v -433.658478 226.715271 -929.800354
v -374.022186 258.952881 -924.350830
v -388.833313 149.035400 -960.808533
v -329.197205 181.273071 -955.359192
v -335.901855 206.180481 -1003.180359
v -399.212921 171.956299 -1008.965759
v -417.902802 208.236542 -992.905945
v -358.266663 240.474182 -987.456482
v -358.183746 122.876953 -990.244202
v -319.798767 143.626831 -986.736633
v -324.114105 159.658691 -1017.517029
v -364.864685 137.630127 -1021.240784
v -405.199707 191.779175 -1060.714478
v -423.889679 228.059448 -1044.654541
v -364.253540 260.297058 -1039.204956
v -341.888702 226.003357 -1054.928955
v -337.994110 103.870911 -1009.750305
v -312.116028 117.859863 -1007.385437
v -315.025269 128.668091 -1028.136841
v -342.498169 113.817017 -1030.647461
v -322.723175 92.117126 -1038.354980
v -306.546417 100.861816 -1036.876831
v -308.364990 107.618042 -1049.848755
v -325.538757 98.334534 -1051.418091
v -401.257233 214.105530 -1084.963867
v -413.684387 238.228760 -1074.285278
v -374.031647 259.663910 -1070.661865
v -359.160980 236.861572 -1081.116943
v -311.885468 444.914917 473.827667
v -385.033539 252.216309 347.676300
v -140.068970 486.786621 308.597595
v -214.584991 295.943939 182.047974
v -443.080261 547.734131 280.058563
v -480.585297 448.932129 215.377258
v -345.624268 571.295288 196.458069
v -393.191589 471.352509 130.454956
v -116.541199 305.037323 -90.908241
v -62.433350 234.163574 -3.884842
v 49.648865 276.499207 -37.064064
v -1.485168 346.489990 -123.564125
v -79.004944 142.890564 -229.439667
v -40.784180 87.327759 -165.306915
v 43.807678 117.804749 -189.316223
v 5.586731 173.367554 -253.449066
v -52.820557 40.847290 -315.273438
v -24.889282 0.242737 -268.405975
v 36.929321 22.515015 -285.951630
v 8.998047 63.119446 -332.819061
v -214.529541 557.309875 265.876984
v -307.242401 356.240479 129.407440
v -410.538910 514.391479 439.167542
v -488.194519 309.818085 305.242371
v -5.024963 243.763733 -21.109337
v -60.214050 323.993439 -113.713768
v 4.040771 87.041931 -188.107574
v -36.535461 146.028687 -256.192322
v 8.826904 -9.764709 -294.128876
v -20.825745 33.341980 -343.884399
v -49.297791 -29.197388 -378.057404
v -21.366516 -69.801819 -331.189850
v 18.279602 -85.113159 -365.042053
v -11.372864 -42.006531 -414.797546
v 17.539185 -11.413879 -402.482697
v 45.470520 -52.018433 -355.615326
v -45.550598 -79.102539 -423.526855
v -17.619324 -119.707153 -376.659393
v 22.026733 -135.018555 -410.511536
v -7.625671 -91.911743 -460.266998
v 21.286377 -61.318909 -447.952301
v 49.217773 -101.923462 -401.084839
v -60.537292 -124.855286 -436.649811
v -42.559265 -150.990479 -406.483398
v -17.040771 -160.845886 -428.272491
v -36.126770 -133.099976 -460.297882
v 28.552490 -110.826782 -498.215424
v 57.464722 -80.234070 -485.900604
v 85.395996 -120.838745 -439.033264
v 58.204956 -153.933533 -448.459808
v -72.040833 -155.377930 -445.889099
v -59.920471 -172.997681 -425.551788
v -42.716736 -179.641846 -440.241608
v -55.583801 -160.936340 -461.832123
v -73.600281 -185.341675 -462.898895
v -66.023621 -196.355957 -450.185760
v -55.269348 -200.509155 -459.368317
v -63.312866 -188.816223 -472.864777
v 57.712463 -122.904907 -508.503693
v 76.936768 -102.563354 -500.315582
v 95.508484 -129.561646 -469.152740
v 77.428894 -151.567017 -475.420502
vn 0.7395 -0.5132 0.4356
vn -0.5609 0.6450 -0.5190
vn -0.7414 0.5079 -0.4387
vn -0.0233 0.2736 0.9616
vn 0.1973 0.9017 -0.3847
vn -0.5912 -0.7738 0.2274
vn -0.4058 0.8192 -0.4053
vn 0.7899 0.5653 -0.2376
vn -0.8905 -0.4247 -0.1633
vn 0.6695 -0.6965 0.2581
vn -0.8943 -0.3956 -0.2093
vn 0.9230 0.3836 0.0305
vn -0.8868 -0.4251 -0.1815
vn 0.4408 -0.8593 0.2595
vn 0.8489 0.5251 0.0605
vn 0.4436 -0.8621 0.2450
vn -0.4019 0.8143 -0.4189
vn 0.9381 0.3454 0.0267
vn 0.8392 0.5414 -0.0509
vn 0.4158 -0.8315 0.3685
vn -0.8196 -0.5583 -0.1287
vn 0.8558 0.5168 -0.0222
vn -0.7954 -0.5916 -0.1317
vn -0.6736 -0.7391 -0.0035
vn 0.4378 0.8434 -0.3113
vn -0.9130 -0.4063 -0.0377
vn 0.6755 0.7173 -0.1709
vn -0.6309 0.6450 0.4312
vn -0.4205 0.8370 -0.3501
vn -0.8539 -0.5167 -0.0619
vn -0.4275 0.8451 -0.3212
vn 0.8993 0.4259 0.0992
vn -0.8516 -0.5206 -0.0608
vn -0.9015 -0.4211 -0.0995
vn 0.8535 0.5120 0.0974
vn 0.2449 -0.5839 0.7740
vn 0.8975 0.4300 0.0982
vn 0.8481 0.5267 0.0575
vn -0.9020 -0.4193 -0.1024
vn 0.4205 -0.8370 0.3501
vn -0.0770 0.3029 -0.9499
vn -0.7259 -0.6685 -0.1617
vn 0.9688 0.2476 -0.0069
vn -0.0634 0.2792 -0.9581
vn 0.7559 0.6063 -0.2472
vn -0.8983 -0.4350 -0.0627
vn -0.4686 0.8055 0.3628
vn 0.4686 -0.8055 -0.3628
vn -0.2830 0.6438 -0.7110
vn 0.9605 0.2782 0.0102
vn -0.7492 -0.6460 -0.1460
vn 0.2330 -0.5649 0.7916
vn 0.4543 -0.7624 -0.4608
vn 0.9577 0.2872 0.0153
vn -0.7562 -0.6390 -0.1411
vn 0.3706 -0.7727 0.5154
vn -0.1074 0.3556 -0.9284
vn -0.8758 -0.2757 -0.3963
vn 0.4297 -0.6980 -0.5728
vn -0.4807 0.8669 0.1320
vn 0.6365 -0.5800 0.5084
vn 0.2643 0.8996 -0.3477
vn -0.6154 0.5997 -0.5114
vn -0.5099 -0.3272 0.7955
vn -0.0271 0.9748 0.2213
vn -0.2627 -0.8313 -0.4898
vn 0.9100 0.2706 -0.3143
vn 0.9372 0.3137 0.1527
vn -0.6311 -0.1732 -0.7561
vn 0.1449 -0.8974 0.4168
vn -0.2931 0.5571 -0.7770
vn 0.3200 -0.6806 0.6590
vn -0.3304 0.5603 -0.7595
vn -0.8947 -0.3874 0.2225
vn 0.4657 -0.5750 0.6727
vn -0.8984 -0.3939 0.1942
vn 0.9117 0.2583 -0.3196
vn 0.3071 -0.6994 0.6454
vn 0.5187 -0.6231 0.5853
vn -0.9110 -0.2997 0.2833
vn -0.4742 0.5085 -0.7187
vn 0.5173 -0.6062 0.6041
vn -0.5048 0.4808 -0.7169
vn -0.6339 -0.6656 -0.3940
vn 0.6332 0.7590 -0.1514
vn -0.5738 -0.4220 -0.7019
vn 0.3498 0.7459 0.5669
vn -0.9495 0.2052 0.2372
vn 0.9101 0.3144 -0.2700
vn -0.4573 0.5800 -0.6742
vn 0.9079 0.3369 -0.2492
vn 0.3587 -0.6143 0.7028
vn -0.4613 0.5779 -0.6732
vn -0.3541 0.6168 -0.7030
vn 0.4408 -0.5616 0.7002
vn -0.8132 0.1020 0.5730
vn 0.3630 -0.6125 0.7022
vn 0.4682 -0.5756 0.6704
vn -0.3515 0.6160 -0.7050
vn -0.9101 -0.3144 0.2700
vn 0.6064 -0.3855 -0.6954
vn -0.5677 0.3934 -0.7232
vn 0.2260 -0.7605 0.6087
vn 0.5867 -0.4055 -0.7010
vn 0.6468 -0.6466 0.4044
vn -0.3796 0.6311 -0.6765
vn 0.6403 0.7269 0.2481
vn -0.6403 -0.7269 -0.2482
vn 0.8486 -0.0262 -0.5284
vn 0.2491 -0.7390 0.6260
vn -0.5516 0.4251 -0.7176
vn -0.8011 0.1247 0.5854
vn -0.5666 -0.7593 -0.3201
vn 0.2560 -0.7323 0.6310
vn -0.5465 0.4348 -0.7157
vn -0.9048 -0.1736 0.3888
vn 0.6491 -0.3394 -0.6808
vn -0.1174 0.4643 -0.8779
vn -0.4679 -0.7867 -0.4027
vn 0.7761 0.6256 0.0794
usemtl Matériau.012
s off
f 131//26 132//26 134//26 133//26
f 138//27 137//27 141//27 142//27
f 137//28 138//28 136//28 135//28
f 153//29 154//29 132//29 131//29
f 151//30 137//30 135//30 153//30
f 152//31 134//31 132//31 154//31
f 142//32 141//32 145//32 146//32
f 151//33 133//33 140//33 155//33
f 152//34 138//34 142//34 156//34
f 133//35 134//35 139//35 140//35
f 158//36 146//36 150//36 160//36
f 155//37 140//37 144//37 157//37
f 156//38 142//38 146//38 158//38
f 140//39 139//39 143//39 144//39
f 149//40 159//40 163//40 166//40
f 144//41 143//41 147//41 148//41
f 146//42 145//42 149//42 150//42
f 157//43 144//43 148//43 159//43
f 145//44 157//44 159//44 149//44
f 148//45 147//45 161//45 162//45
f 139//46 156//46 158//46 143//46
f 141//47 155//47 157//47 145//47
f 143//48 158//48 160//48 147//48
f 134//49 152//49 156//49 139//49
f 137//50 151//50 155//50 141//50
f 138//51 152//51 154//51 136//51
f 133//52 151//52 153//52 131//52
f 135//53 136//53 154//53 153//53
f 165//54 166//54 172//54 171//54
f 161//55 164//55 170//55 167//55
f 150//56 149//56 166//56 165//56
f 159//57 148//57 162//57 163//57
f 147//58 160//58 164//58 161//58
f 160//59 150//59 165//59 164//59
f 172//60 169//60 180//60 179//60
f 168//61 167//61 173//61 174//61
f 163//62 162//62 168//62 169//62
f 166//63 163//63 169//63 172//63
f 164//64 165//64 171//64 170//64
f 162//65 161//65 167//65 168//65
f 176//66 175//66 183//66 184//66
f 167//67 170//67 176//67 173//67
f 169//68 168//68 174//68 175//68
f 170//69 169//69 175//69 176//69
f 179//70 180//70 192//70 191//70
f 170//71 171//71 178//71 177//71
f 171//72 172//72 179//72 178//72
f 169//73 170//73 177//73 180//73
f 184//74 183//74 187//74 188//74
f 175//75 174//75 182//75 183//75
f 173//76 176//76 184//76 181//76
f 174//77 173//77 181//77 182//77
f 186//78 185//78 188//78 187//78
f 183//79 182//79 186//79 187//79
f 181//80 184//80 188//80 185//80
f 182//81 181//81 185//81 186//81
f 192//82 189//82 190//82 191//82
f 177//83 178//83 190//83 189//83
f 180//84 177//84 189//84 192//84
f 178//85 179//85 191//85 190//85
f 193//86 194//86 196//86 195//86
f 200//87 199//87 203//87 204//87
f 199//88 200//88 198//88 197//88
f 215//89 216//89 194//89 193//89
f 213//90 199//90 197//90 215//90
f 214//91 196//91 194//91 216//91
f 204//92 203//92 207//92 208//92
f 213//93 195//93 202//93 217//93
f 214//94 200//94 204//94 218//94
f 195//95 196//95 201//95 202//95
f 220//96 208//96 212//96 222//96
f 217//97 202//97 206//97 219//97
f 218//98 204//98 208//98 220//98
f 202//99 201//99 205//99 206//99
f 211//100 221//100 225//100 228//100
f 206//101 205//101 209//101 210//101
f 208//102 207//102 211//102 212//102
f 219//103 206//103 210//103 221//103
f 207//104 219//104 221//104 211//104
f 210//105 209//105 223//105 224//105
f 201//106 218//106 220//106 205//106
f 203//107 217//107 219//107 207//107
f 205//108 220//108 222//108 209//108
f 196//109 214//109 218//109 201//109
f 199//110 213//110 217//110 203//110
f 200//111 214//111 216//111 198//111
f 195//112 213//112 215//112 193//112
f 197//113 198//113 216//113 215//113
f 227//114 228//114 234//114 233//114
f 223//115 226//115 232//115 229//115
f 212//116 211//116 228//116 227//116
f 221//117 210//117 224//117 225//117
f 209//118 222//118 226//118 223//118
f 222//119 212//119 227//119 226//119
f 234//120 231//120 242//120 241//120
f 230//121 229//121 235//121 236//121
f 225//122 224//122 230//122 231//122
f 228//123 225//123 231//123 234//123
f 226//124 227//124 233//124 232//124
f 224//125 223//125 229//125 230//125
f 238//126 237//126 245//126 246//126
f 229//127 232//127 238//127 235//127
f 231//128 230//128 236//128 237//128
f 232//129 231//129 237//129 238//129
f 241//130 242//130 254//130 253//130
f 232//131 233//131 240//131 239//131
f 233//132 234//132 241//132 240//132
f 231//133 232//133 239//133 242//133
f 246//134 245//134 249//134 250//134
f 237//135 236//135 244//135 245//135
f 235//136 238//136 246//136 243//136
f 236//137 235//137 243//137 244//137
f 248//138 247//138 250//138 249//138
f 245//139 244//139 248//139 249//139
f 243//140 246//140 250//140 247//140
f 244//141 243//141 247//141 248//141
f 254//142 251//142 252//142 253//142
f 239//143 240//143 252//143 251//143
f 242//144 239//144 251//144 254//144
f 240//145 241//145 253//145 252//145
