# Blender v2.91.2 OBJ File: 'camionnete02.blend'
# www.blender.org
mtllib arme_000055.mtl
o Cube.046_Cube.010
v 256.029724 400.719543 -1097.793457
v 229.574753 182.474731 -1113.555664
v 354.938721 402.954529 -1294.748047
v 328.483704 184.709702 -1310.510254
v 60.847168 431.432983 -1195.464111
v 34.392136 213.188141 -1211.226074
v 159.756134 433.667969 -1392.418701
v 133.301132 215.423126 -1408.180908
v 119.851669 397.642426 -826.626160
v 93.396667 179.397614 -842.388123
v -101.785904 210.110992 -940.058594
v -75.330894 428.355835 -924.296631
v 58.222198 396.249817 -703.904907
v 31.767166 178.004990 -719.667053
v -163.415451 208.718384 -817.337463
v -136.960449 426.963257 -801.575500
v 21.814217 395.427155 -631.406860
v 8.803276 236.787231 -654.911316
v -186.379395 267.500671 -752.581909
v -173.368423 426.140564 -729.077332
v 84.595383 613.820007 -688.191589
v -110.587196 644.533386 -785.862244
v 48.187439 612.997253 -615.693481
v -146.995148 643.710754 -713.364014
v 141.097977 398.122498 -868.933105
v 114.642944 179.877686 -884.695251
v -54.084629 428.835938 -966.603760
v -80.539665 210.591095 -982.365845
v 128.584671 469.686676 -821.422913
v -66.597916 500.400146 -919.093445
v 149.830963 470.166748 -863.729980
v -45.351635 500.880188 -961.400452
v 141.254868 574.211121 -813.873962
v -53.927727 604.924561 -911.544434
v 162.501099 574.691223 -856.181091
v -32.681450 605.404663 -953.851624
v 68.348099 468.325531 -701.475464
v -126.834541 499.038940 -799.145935
v 81.018250 572.850037 -693.926514
v -114.164368 603.563416 -791.597046
v 124.000687 749.783569 -724.183105
v -71.181915 780.496948 -821.853699
v 87.592712 748.960876 -651.685120
v -107.589851 779.674255 -749.355530
v 320.020813 402.165527 -1225.217041
v 293.565796 183.920685 -1240.979248
v 124.838196 432.878937 -1322.887695
v 98.383194 214.634064 -1338.649658
v 257.347412 418.311279 -1343.583496
v 230.892441 200.066406 -1359.345703
v 158.438461 416.076294 -1146.628906
v 131.983444 197.831421 -1162.390869
v 22.260391 412.999115 -875.461304
v -4.194626 194.754303 -891.223389
v -39.369122 411.606537 -752.740234
v -61.617489 201.683899 -753.980530
v -75.777084 410.783844 -680.242126
v -77.102097 241.320938 -710.315674
v -12.995911 629.176697 -737.026794
v -49.403862 628.354004 -664.528809
v 17.051651 195.234390 -933.530518
v 43.506676 413.479187 -917.768494
v 30.993378 485.043396 -870.258179
v 52.239655 485.523438 -912.565247
v 43.663567 589.567810 -862.709167
v 64.909821 590.047913 -905.016296
v -29.243214 483.682281 -750.310730
v -16.573048 588.206726 -742.761780
v 26.409378 765.140320 -773.018433
v -9.998589 764.317505 -700.520325
v 195.974457 199.277390 -1289.814453
v 222.429489 417.522217 -1274.052246
v 306.143066 410.632874 -1319.165771
v 180.779099 190.153076 -1137.973145
v 44.601013 187.075958 -866.805786
v -28.714457 196.506378 -737.515747
v -44.199059 236.143387 -693.850769
v 92.302322 405.800842 -893.350769
v 101.035294 477.845093 -888.147583
v 113.705460 582.369507 -880.598694
v 271.225159 409.843872 -1249.634766
v 279.688110 192.388062 -1334.927979
v 207.234085 408.397949 -1122.211426
v 71.056038 405.320770 -851.043762
v 9.426514 403.928162 -728.322510
v -26.981445 403.105469 -655.824463
v 35.799751 621.498352 -712.609253
v -0.608192 620.675659 -640.111145
v 65.847305 187.556046 -909.112854
v 79.789032 477.365021 -845.840576
v 92.459183 581.889526 -838.291565
v 19.552437 476.003906 -725.893127
v 32.222610 580.528381 -718.344055
v 75.205063 757.461914 -748.600769
v 38.797073 756.639221 -676.102722
v 244.770096 191.599045 -1265.396973
v 60.893974 146.692673 -912.064087
v 12.098312 154.371002 -936.481689
v 239.816757 150.735687 -1268.348145
v 191.021133 158.414017 -1292.765625
v 127.030106 156.968048 -1165.342041
v 175.825775 149.289703 -1140.924561
v 377.074890 327.945282 -1152.900879
v 348.778687 327.305847 -1096.555420
v 337.080688 230.800217 -1103.525146
v 365.376770 231.439636 -1159.870605
v 419.252869 321.308258 -1131.794678
v 390.956665 320.668884 -1075.449341
v 379.258545 224.163239 -1082.419189
v 407.554749 224.802643 -1138.764648
v 483.798523 311.151581 -1099.495850
v 455.502319 310.512146 -1043.150391
v 443.804260 214.006561 -1050.120117
v 472.100342 214.645966 -1106.465576
v 525.332886 304.615845 -1078.711914
v 497.036682 303.976440 -1022.366455
v 485.338684 207.470825 -1029.336182
v 513.634766 208.110229 -1085.681763
v 604.623169 199.730621 -1981.960938
v 555.827576 207.408966 -2006.378662
v 582.282410 425.653870 -1990.616455
v 631.078186 417.975464 -1966.198975
v 60.013504 828.239624 -783.634705
v -29.911613 842.389954 -828.633850
v 26.465546 827.481567 -716.831482
v -63.459534 841.631897 -761.830566
v 116.390656 813.331238 -671.832581
v 149.938675 814.089355 -738.635559
v 104.976120 821.164612 -761.135010
v 71.428093 820.406311 -694.332031
vn 0.8856 -0.1393 0.4431
vn 0.4488 0.0101 -0.8936
vn -0.8856 0.1393 -0.4431
vn 0.1200 0.9902 0.0715
vn -0.1200 -0.9902 -0.0715
vn -0.4488 -0.0101 0.8936
vn -0.3879 -0.7467 0.5403
vn -0.2037 -0.9759 -0.0779
vn -0.5307 -0.1096 0.8405
vn -0.8862 0.1388 -0.4420
vn 0.8862 -0.1388 0.4420
vn 0.3782 -0.3378 -0.8619
vn 0.3761 -0.3450 -0.8600
vn -0.3782 0.3378 0.8619
vn 0.7610 -0.0455 -0.6471
vn -0.7856 0.4812 -0.3890
vn -0.4212 -0.1282 0.8979
vn -0.0983 -0.9949 -0.0238
vn -0.3526 0.4195 0.8365
vn -0.4613 -0.1515 0.8742
vn -0.1493 -0.9887 -0.0125
vn -0.0641 -0.0642 0.9959
vn 0.3885 -0.9027 0.1849
vn 0.5887 0.7489 0.3042
vn 0.8659 -0.2522 0.4320
usemtl Matériau.011
s off
f 45//1 46//1 4//1 3//1
f 49//2 50//2 8//2 7//2
f 47//3 48//3 6//3 5//3
f 26//1 25//1 9//1 10//1
f 72//4 47//4 5//4 51//4
f 96//5 46//5 2//5 74//5
f 10//1 9//1 13//1 14//1
f 84//6 9//6 29//6 90//6
f 89//5 26//5 10//5 75//5
f 27//3 28//3 11//3 12//3
f 76//7 14//7 18//7 77//7
f 75//8 10//8 14//8 76//8
f 12//3 11//3 15//3 16//3
f 53//4 12//4 16//4 55//4
f 86//9 77//9 18//9 17//9
f 16//10 15//10 19//10 20//10
f 16//3 20//3 24//3 22//3
f 14//11 13//11 17//11 18//11
f 59//12 22//12 42//12 69//12
f 86//6 17//6 23//6 88//6
f 17//1 13//1 21//1 23//1
f 55//2 16//2 22//2 59//2
f 5//3 6//3 28//3 27//3
f 74//5 2//5 26//5 89//5
f 51//4 5//4 27//4 62//4
f 2//1 1//1 25//1 26//1
f 32//3 30//3 34//3 36//3
f 62//2 27//2 32//2 64//2
f 27//3 12//3 30//3 32//3
f 9//1 25//1 31//1 29//1
f 66//4 36//4 34//4 65//4
f 90//5 29//5 37//5 92//5
f 64//2 32//2 36//2 66//2
f 29//1 31//1 35//1 33//1
f 92//6 37//6 39//6 93//6
f 29//1 33//1 39//1 37//1
f 34//3 30//3 38//3 40//3
f 65//4 34//4 40//4 68//4
f 69//13 42//13 124//13 123//13
f 23//1 21//1 41//1 43//1
f 88//14 23//14 43//14 95//14
f 22//3 24//3 44//3 42//3
f 82//5 4//5 46//5 96//5
f 49//4 7//4 47//4 72//4
f 7//3 8//3 48//3 47//3
f 46//15 45//15 103//15 106//15
f 73//4 49//4 72//4 81//4
f 8//5 50//5 71//5 48//5
f 24//14 60//14 70//14 44//14
f 42//16 44//16 126//16 124//16
f 91//4 65//4 68//4 93//4
f 38//6 67//6 68//6 40//6
f 79//2 64//2 66//2 80//2
f 30//5 63//5 67//5 38//5
f 80//4 66//4 65//4 91//4
f 78//2 62//2 64//2 79//2
f 83//4 51//4 62//4 78//4
f 6//5 52//5 61//5 28//5
f 85//2 55//2 59//2 87//2
f 20//6 57//6 60//6 24//6
f 87//12 59//12 69//12 94//12
f 20//17 19//17 58//17 57//17
f 84//4 53//4 55//4 85//4
f 11//18 54//18 56//18 15//18
f 15//7 56//7 58//7 19//7
f 28//5 61//5 54//5 11//5
f 12//6 53//6 63//6 30//6
f 48//5 71//5 52//5 6//5
f 81//4 72//4 51//4 83//4
f 50//3 49//3 121//3 120//3
f 3//2 4//2 82//2 73//2
f 45//4 81//4 83//4 1//4
f 9//4 84//4 85//4 13//4
f 21//12 87//12 94//12 41//12
f 13//2 85//2 87//2 21//2
f 1//4 83//4 78//4 25//4
f 25//2 78//2 79//2 31//2
f 35//4 80//4 91//4 33//4
f 31//2 79//2 80//2 35//2
f 33//4 91//4 93//4 39//4
f 70//19 95//19 130//19 125//19
f 3//4 73//4 81//4 45//4
f 50//5 82//5 96//5 71//5
f 60//14 88//14 95//14 70//14
f 67//6 92//6 93//6 68//6
f 63//5 90//5 92//5 67//5
f 52//3 71//3 100//3 101//3
f 57//6 86//6 88//6 60//6
f 57//20 58//20 77//20 86//20
f 54//21 75//21 76//21 56//21
f 56//7 76//7 77//7 58//7
f 61//5 89//5 75//5 54//5
f 53//6 84//6 90//6 63//6
f 89//6 61//6 98//6 97//6
f 101//5 102//5 97//5 98//5
f 100//5 99//5 102//5 101//5
f 61//3 52//3 101//3 98//3
f 74//1 89//1 97//1 102//1
f 71//2 96//2 99//2 100//2
f 96//1 74//1 102//1 99//1
f 106//2 103//2 107//2 110//2
f 1//22 2//22 105//22 104//22
f 2//23 46//23 106//23 105//23
f 45//24 1//24 104//24 103//24
f 109//5 110//5 114//5 113//5
f 104//6 105//6 109//6 108//6
f 105//5 106//5 110//5 109//5
f 103//4 104//4 108//4 107//4
f 113//5 114//5 118//5 117//5
f 107//4 108//4 112//4 111//4
f 110//2 107//2 111//2 114//2
f 108//6 109//6 113//6 112//6
f 116//1 117//1 118//1 115//1
f 111//4 112//4 116//4 115//4
f 114//2 111//2 115//2 118//2
f 122//2 119//2 120//2 121//2
f 82//5 50//5 120//5 119//5
f 73//1 82//1 119//1 122//1
f 49//4 73//4 122//4 121//4
f 123//4 124//4 126//4 125//4
f 129//4 123//4 125//4 130//4
f 128//4 129//4 130//4 127//4
f 95//19 43//19 127//19 130//19
f 94//13 69//13 123//13 129//13
f 43//25 41//25 128//25 127//25
f 44//19 70//19 125//19 126//19
f 41//13 94//13 129//13 128//13
o Cube.048_Cube.024
v -562.731079 451.031952 181.135834
v -723.798828 339.931335 39.321182
v -424.245239 496.343506 -11.649246
v -585.905029 386.639282 -152.234192
v -683.456055 644.767700 66.147682
v -766.039917 587.803345 -6.564644
v -612.450439 668.000183 -32.698631
v -694.822266 611.485474 -105.180779
v -378.902405 518.447876 -437.990448
v -279.847961 567.432495 -376.254242
v -325.701508 683.901794 -395.095856
v -424.755859 634.917114 -456.832001
v -262.866974 553.308716 -617.467590
v -190.039948 589.323303 -572.077698
v -223.752502 674.954102 -585.930603
v -296.579529 638.939514 -631.320312
v -189.379578 577.792969 -729.118591
v -136.158569 604.111938 -695.948364
v -160.795288 666.689819 -706.071838
v -214.016296 640.370850 -739.242065
v -487.371185 601.245728 -9.353714
v -658.430725 485.076721 -158.624634
v -634.438171 553.101685 195.302277
v -805.431396 435.154663 44.748619
v -296.888641 627.513367 -388.587341
v -402.047089 575.510132 -454.127838
v -195.101807 634.383667 -593.830017
v -272.416718 596.149719 -642.016907
v -133.082581 637.846924 -723.354370
v -189.583191 609.906006 -758.568787
v -140.466919 580.198853 -809.507019
v -87.245850 606.517822 -776.336609
v -81.283447 646.134583 -813.040649
v -137.784119 618.193726 -848.255005
v -162.660828 647.754395 -827.499207
v -109.439819 674.073425 -794.328918
v -105.796387 583.158203 -867.483154
v -52.575317 609.477234 -834.313049
v -46.613037 649.093872 -871.016724
v -103.113647 621.153015 -906.231201
v -127.990356 650.713745 -885.475403
v -74.769348 677.032654 -852.305115
v -66.255554 567.129517 -893.362427
v -31.999634 584.069824 -872.012146
v -28.161804 609.569336 -895.636780
v -64.528748 591.585083 -918.302734
v -94.989441 657.255798 -947.911987
v -119.866150 686.816467 -927.156250
v -66.645020 713.135498 -893.986023
v -38.488770 685.196655 -912.697510
v -40.060181 554.936951 -911.095886
v -16.965759 566.357666 -896.702148
v -14.378418 583.548645 -912.629211
v -38.895996 571.424194 -927.909973
v -16.369263 552.788208 -936.070007
v -1.932617 559.927368 -927.072327
v -0.315247 570.673706 -937.028625
v -15.641357 563.094604 -946.580872
v -85.588623 686.205505 -961.162781
v -102.129517 705.860779 -947.362000
v -66.742126 723.360596 -925.306580
v -48.020691 704.783691 -937.748230
v -299.638733 425.223328 485.749878
v -294.275177 283.805084 289.868103
v -152.192261 584.165527 369.790283
v -156.570862 446.582642 176.120331
v -463.292450 539.523193 326.114929
v -460.542389 467.014038 225.680817
v -388.169586 624.565552 271.310913
v -389.937561 550.474609 167.359131
v -21.604919 726.333313 -48.469658
v 75.324219 758.019470 27.265984
v 14.824524 863.221191 61.407433
v -81.320007 832.213989 -13.170860
v 74.709778 850.388672 -197.551056
v 146.657043 872.752930 -142.920441
v 102.753113 950.598755 -116.967873
v 30.805847 928.234497 -171.598602
v 135.610962 930.234009 -289.102417
v 188.189026 946.577332 -249.179077
v 156.104675 1003.466125 -230.213287
v 103.526611 987.122559 -270.136597
v -258.423462 633.866516 347.766693
v -266.125549 484.402954 136.630112
v -418.009705 461.727417 465.340057
v -412.315643 311.594543 257.387421
v 51.783508 813.385742 41.520439
v -52.104553 781.092896 -37.363426
v 134.919006 921.654175 -142.595825
v 58.538147 897.911682 -200.592804
v 185.284302 988.903625 -259.110962
v 129.466248 971.553040 -301.494507
v 177.164246 973.601440 -361.580444
v 229.742310 989.944946 -321.657074
v 228.285828 1041.914673 -337.444214
v 172.467834 1024.564087 -379.827698
v 146.305664 1038.651489 -347.570160
v 198.883728 1054.994995 -307.646545
v 206.398865 1005.889282 -413.299500
v 258.976990 1022.232727 -373.376099
v 257.520691 1074.202637 -389.163361
v 201.702576 1056.851929 -431.546936
v 175.540222 1070.939209 -399.288971
v 228.118347 1087.282715 -359.365631
v 245.184021 1008.055908 -444.622803
v 279.026184 1018.575317 -418.925964
v 278.088806 1052.026123 -429.087494
v 242.161194 1040.858154 -456.367828
v 202.361145 1108.121826 -453.402618
v 176.198914 1122.209106 -421.144836
v 228.777039 1138.552612 -381.221649
v 258.179382 1125.472656 -411.019226
v 271.002136 1008.340820 -466.592499
v 293.817688 1015.432861 -449.268341
v 293.185730 1037.984253 -456.119171
v 268.964294 1030.455322 -474.510712
v 292.643616 1020.371582 -490.603058
v 306.905701 1024.804932 -479.773468
v 306.510559 1038.901978 -484.055695
v 291.369568 1034.195557 -495.552582
v 207.413269 1140.927979 -452.878693
v 190.017578 1150.294800 -431.429993
v 224.977356 1161.161743 -404.884491
v 244.527405 1152.464600 -424.697235
vn 0.4765 -0.8688 0.1347
vn -0.3573 0.9055 -0.2288
vn -0.4767 0.8683 -0.1371
vn -0.4260 -0.4111 0.8059
vn 0.3546 0.8208 0.4478
vn -0.6347 -0.5081 -0.5822
vn -0.3219 0.9220 -0.2152
vn 0.8069 0.4175 0.4179
vn -0.7677 -0.0703 -0.6369
vn 0.5141 -0.8577 0.0102
vn -0.7665 -0.2695 -0.5830
vn 0.8469 0.3165 0.4273
vn -0.7655 -0.3069 -0.5655
vn 0.4005 -0.9127 0.0816
vn 0.7583 0.4427 0.4786
vn 0.4076 -0.9106 0.0686
vn -0.3138 0.9217 -0.2279
vn 0.8649 0.2812 0.4158
vn 0.7805 0.4955 0.3812
vn 0.3430 -0.9217 0.1811
vn -0.7082 -0.4525 -0.5420
vn 0.7896 0.4622 0.4037
vn -0.6821 -0.4838 -0.5483
vn -0.5984 -0.4629 -0.6540
vn 0.5303 0.7558 0.3842
vn -0.8120 0.0132 -0.5835
vn 0.6946 0.4052 0.5944
vn -0.7448 0.3772 0.5504
vn -0.3532 0.9210 -0.1642
vn -0.7632 -0.4342 -0.4786
vn -0.3688 0.9193 -0.1377
vn 0.8015 0.3345 0.4957
vn -0.7611 -0.4383 -0.4782
vn -0.8039 -0.3298 -0.4950
vn 0.7527 0.4179 0.5087
vn 0.0454 -0.8167 0.5752
vn 0.7998 0.3388 0.4956
vn 0.7583 0.4453 0.4762
vn -0.8036 -0.3271 -0.4972
vn 0.3532 -0.9210 0.1642
vn 0.1845 0.6040 -0.7753
vn -0.6020 -0.5489 -0.5799
vn 0.9104 0.1990 0.3627
vn 0.2014 0.5839 -0.7864
vn 0.7542 0.6250 0.2017
vn -0.8106 -0.3552 -0.4656
vn -0.6053 0.6563 0.4505
vn 0.6053 -0.6563 -0.4505
vn -0.1040 0.8536 -0.5104
vn 0.8954 0.2225 0.3856
vn -0.6303 -0.5320 -0.5653
vn 0.0276 -0.8042 0.5937
vn 0.6175 -0.5826 -0.5285
vn 0.8907 0.2294 0.3923
vn -0.6389 -0.5267 -0.5607
vn 0.2531 -0.9134 0.3187
vn 0.1458 0.6477 -0.7478
vn -0.7020 -0.0951 -0.7058
vn 0.6226 -0.4837 -0.6151
vn -0.5534 0.7913 0.2600
vn 0.8110 -0.4746 0.3420
vn -0.6257 0.7721 -0.1113
vn -0.8121 0.4723 -0.3427
vn -0.3314 -0.7692 0.5463
vn -0.3959 0.7325 0.5539
vn 0.0727 -0.6119 -0.7876
vn -0.4407 0.8720 0.2131
vn 0.4355 0.5883 0.6814
vn -0.4346 -0.1514 -0.8878
vn 0.8137 -0.5784 0.0574
vn -0.7779 -0.0923 -0.6216
vn 0.8390 0.2139 0.5004
vn -0.7714 -0.1330 -0.6223
vn 0.5083 -0.7961 -0.3285
vn 0.7422 0.2907 0.6038
vn 0.5090 -0.7873 -0.3480
vn -0.4305 0.8785 0.2073
vn 0.8603 0.1880 0.4739
vn 0.7504 0.3828 0.5389
vn 0.4555 -0.8544 -0.2501
vn -0.6968 -0.2654 -0.6664
vn 0.7598 0.3503 0.5477
vn -0.6680 -0.2871 -0.6865
vn -0.1552 -0.4966 -0.8540
vn -0.0171 0.7883 0.6151
vn -0.3758 -0.2958 -0.8782
vn 0.0505 0.5439 0.8376
vn -0.9512 -0.2619 0.1630
vn -0.4641 0.8451 0.2653
vn -0.7480 -0.2838 -0.6000
vn -0.4772 0.8300 0.2887
vn 0.7983 0.1926 0.5706
vn -0.7454 -0.2873 -0.6015
vn -0.8011 -0.1890 -0.5680
vn 0.7419 0.2548 0.6202
vn 0.1818 -0.9706 0.1579
vn 0.7961 0.1962 0.5725
vn 0.7417 0.2940 0.6028
vn -0.8013 -0.1856 -0.5688
vn 0.4641 -0.8451 -0.2653
vn 0.0527 0.8979 -0.4370
vn -0.5842 -0.3208 -0.7455
vn 0.9100 0.1437 0.3890
vn 0.0707 0.8870 -0.4563
vn 0.6953 0.5721 0.4350
vn -0.8025 -0.2252 -0.5525
vn -0.6342 0.3101 0.7083
vn 0.6342 -0.3101 -0.7083
vn -0.2385 0.9677 -0.0820
vn 0.8945 0.1527 0.4202
vn -0.6129 -0.3158 -0.7243
vn 0.1643 -0.9697 0.1805
vn 0.6318 -0.2090 -0.7464
vn 0.8896 0.1554 0.4294
vn -0.6215 -0.3142 -0.7176
vn 0.3769 -0.9184 -0.1204
vn 0.0118 0.9198 -0.3921
vn -0.7432 0.1249 -0.6573
vn 0.6189 -0.0828 -0.7811
vn -0.6133 0.5196 0.5949
usemtl Matériau.012
s off
f 131//26 132//26 134//26 133//26
f 138//27 137//27 141//27 142//27
f 137//28 138//28 136//28 135//28
f 153//29 154//29 132//29 131//29
f 151//30 137//30 135//30 153//30
f 152//31 134//31 132//31 154//31
f 142//32 141//32 145//32 146//32
f 151//33 133//33 140//33 155//33
f 152//34 138//34 142//34 156//34
f 133//35 134//35 139//35 140//35
f 158//36 146//36 150//36 160//36
f 155//37 140//37 144//37 157//37
f 156//38 142//38 146//38 158//38
f 140//39 139//39 143//39 144//39
f 149//40 159//40 163//40 166//40
f 144//41 143//41 147//41 148//41
f 146//42 145//42 149//42 150//42
f 157//43 144//43 148//43 159//43
f 145//44 157//44 159//44 149//44
f 148//45 147//45 161//45 162//45
f 139//46 156//46 158//46 143//46
f 141//47 155//47 157//47 145//47
f 143//48 158//48 160//48 147//48
f 134//49 152//49 156//49 139//49
f 137//50 151//50 155//50 141//50
f 138//51 152//51 154//51 136//51
f 133//52 151//52 153//52 131//52
f 135//53 136//53 154//53 153//53
f 165//54 166//54 172//54 171//54
f 161//55 164//55 170//55 167//55
f 150//56 149//56 166//56 165//56
f 159//57 148//57 162//57 163//57
f 147//58 160//58 164//58 161//58
f 160//59 150//59 165//59 164//59
f 172//60 169//60 180//60 179//60
f 168//61 167//61 173//61 174//61
f 163//62 162//62 168//62 169//62
f 166//63 163//63 169//63 172//63
f 164//64 165//64 171//64 170//64
f 162//65 161//65 167//65 168//65
f 176//66 175//66 183//66 184//66
f 167//67 170//67 176//67 173//67
f 169//68 168//68 174//68 175//68
f 170//69 169//69 175//69 176//69
f 179//70 180//70 192//70 191//70
f 170//71 171//71 178//71 177//71
f 171//72 172//72 179//72 178//72
f 169//73 170//73 177//73 180//73
f 184//74 183//74 187//74 188//74
f 175//75 174//75 182//75 183//75
f 173//76 176//76 184//76 181//76
f 174//77 173//77 181//77 182//77
f 186//78 185//78 188//78 187//78
f 183//79 182//79 186//79 187//79
f 181//80 184//80 188//80 185//80
f 182//81 181//81 185//81 186//81
f 192//82 189//82 190//82 191//82
f 177//83 178//83 190//83 189//83
f 180//84 177//84 189//84 192//84
f 178//85 179//85 191//85 190//85
f 193//86 194//86 196//86 195//86
f 200//87 199//87 203//87 204//87
f 199//88 200//88 198//88 197//88
f 215//89 216//89 194//89 193//89
f 213//90 199//90 197//90 215//90
f 214//91 196//91 194//91 216//91
f 204//92 203//92 207//92 208//92
f 213//93 195//93 202//93 217//93
f 214//94 200//94 204//94 218//94
f 195//95 196//95 201//95 202//95
f 220//96 208//96 212//96 222//96
f 217//97 202//97 206//97 219//97
f 218//98 204//98 208//98 220//98
f 202//99 201//99 205//99 206//99
f 211//100 221//100 225//100 228//100
f 206//101 205//101 209//101 210//101
f 208//102 207//102 211//102 212//102
f 219//103 206//103 210//103 221//103
f 207//104 219//104 221//104 211//104
f 210//105 209//105 223//105 224//105
f 201//106 218//106 220//106 205//106
f 203//107 217//107 219//107 207//107
f 205//108 220//108 222//108 209//108
f 196//109 214//109 218//109 201//109
f 199//110 213//110 217//110 203//110
f 200//111 214//111 216//111 198//111
f 195//112 213//112 215//112 193//112
f 197//113 198//113 216//113 215//113
f 227//114 228//114 234//114 233//114
f 223//115 226//115 232//115 229//115
f 212//116 211//116 228//116 227//116
f 221//117 210//117 224//117 225//117
f 209//118 222//118 226//118 223//118
f 222//119 212//119 227//119 226//119
f 234//120 231//120 242//120 241//120
f 230//121 229//121 235//121 236//121
f 225//122 224//122 230//122 231//122
f 228//123 225//123 231//123 234//123
f 226//124 227//124 233//124 232//124
f 224//125 223//125 229//125 230//125
f 238//126 237//126 245//126 246//126
f 229//127 232//127 238//127 235//127
f 231//128 230//128 236//128 237//128
f 232//129 231//129 237//129 238//129
f 241//130 242//130 254//130 253//130
f 232//131 233//131 240//131 239//131
f 233//132 234//132 241//132 240//132
f 231//133 232//133 239//133 242//133
f 246//134 245//134 249//134 250//134
f 237//135 236//135 244//135 245//135
f 235//136 238//136 246//136 243//136
f 236//137 235//137 243//137 244//137
f 248//138 247//138 250//138 249//138
f 245//139 244//139 248//139 249//139
f 243//140 246//140 250//140 247//140
f 244//141 243//141 247//141 248//141
f 254//142 251//142 252//142 253//142
f 239//143 240//143 252//143 251//143
f 242//144 239//144 251//144 254//144
f 240//145 241//145 253//145 252//145
