# Blender v2.91.2 OBJ File: 'camionnete02.blend'
# www.blender.org
mtllib arme_000051.mtl
o Cube.046_Cube.010
v 366.649200 238.702713 -1021.327881
v 367.915314 18.299622 -1021.274902
v 485.270447 239.339493 -1207.090332
v 486.536560 18.936417 -1207.037476
v 180.889954 237.607132 -1139.950806
v 182.156021 17.204025 -1139.897827
v 299.511169 238.243942 -1325.713257
v 300.777283 17.840820 -1325.660400
v 203.331253 237.825943 -765.569702
v 204.597351 17.422897 -765.516724
v 18.838100 16.327301 -884.139648
v 17.572010 236.730392 -884.192566
v 129.419189 237.429184 -649.822205
v 130.685272 17.026093 -649.769348
v -55.074036 15.930496 -768.392212
v -56.340126 236.333603 -768.445190
v 85.755219 237.194778 -581.443909
v 94.114136 76.910980 -592.739990
v -91.645210 75.815414 -711.362915
v -100.004105 236.099228 -700.066772
v 128.156982 457.150879 -649.875061
v -57.602276 456.055298 -768.498047
v 84.493050 456.916504 -581.496704
v -101.266228 455.820923 -700.119629
v 228.811874 237.962723 -805.472656
v 230.077972 17.559677 -805.419739
v 43.052601 236.867172 -924.095581
v 44.318665 16.464081 -924.042664
v 202.913315 310.582642 -765.587158
v 17.154047 309.487122 -884.210144
v 228.393921 310.719421 -805.490112
v 42.634636 309.623840 -924.112976
v 202.306976 416.140747 -765.612549
v 16.547697 415.045166 -884.235352
v 227.787537 416.277527 -805.515503
v 42.028301 415.181946 -924.138367
v 130.671768 310.194824 -652.455811
v -55.087540 309.099243 -771.078735
v 130.065384 415.752991 -652.481140
v -55.693905 414.657349 -771.104065
v 154.939651 594.082458 -693.080322
v -30.819626 592.986877 -811.703308
v 111.275681 593.848083 -624.702026
v -74.483551 592.752441 -743.324890
v 443.393463 239.114700 -1141.510498
v 444.659576 18.711609 -1141.457642
v 257.634186 238.019119 -1260.133301
v 258.900299 17.616013 -1260.080444
v 392.390808 238.791733 -1266.401855
v 393.656921 18.388611 -1266.348999
v 273.769592 238.154922 -1080.639404
v 275.035675 17.751831 -1080.586426
v 110.451637 237.278152 -824.881104
v 111.717712 16.875092 -824.828125
v 36.539539 236.881424 -709.133728
v 37.805614 16.478302 -709.080811
v -7.124417 236.646988 -640.755371
v 1.234482 76.363205 -652.051453
v 35.277336 456.603149 -709.186462
v -8.386593 456.368713 -640.808167
v 137.198318 17.011887 -864.731140
v 135.932236 237.414932 -864.784119
v 110.033684 310.034912 -824.898682
v 135.514282 310.171631 -864.801514
v 109.427338 415.593018 -824.923950
v 134.907928 415.729736 -864.826965
v 37.792110 309.647095 -711.767334
v 37.185745 415.205200 -711.792603
v 62.059998 593.534729 -752.391846
v 18.396044 593.300232 -684.013489
v 351.779907 18.163818 -1200.769043
v 350.513824 238.566910 -1200.821899
v 438.830627 239.065598 -1236.745972
v 321.475494 18.025726 -1050.930664
v 158.157532 17.149002 -795.172485
v 84.245422 16.752197 -679.425110
v 47.674301 76.637085 -622.395752
v 182.372055 237.688828 -835.128357
v 181.954102 310.445496 -835.145813
v 181.347733 416.003601 -835.171204
v 396.953674 238.840805 -1171.166260
v 440.096741 18.662521 -1236.693237
v 320.209381 238.428818 -1050.983765
v 156.891449 237.552048 -795.225464
v 82.979347 237.155289 -679.477966
v 39.315388 236.920883 -611.099609
v 81.717178 456.877014 -679.530762
v 38.053242 456.642578 -611.152466
v 183.638153 17.285782 -835.075439
v 156.473511 310.308777 -795.242920
v 155.867142 415.866882 -795.268250
v 84.231934 309.920959 -682.111572
v 83.625565 415.479065 -682.136841
v 108.499847 593.808594 -722.736023
v 64.835876 593.574097 -654.357727
v 398.219727 18.437714 -1171.113403
v 183.875214 -23.981682 -835.065552
v 137.435379 -24.255600 -864.721252
v 398.456787 -22.829758 -1171.103516
v 352.016998 -23.103668 -1200.759155
v 275.272736 -23.515656 -1080.576538
v 321.712555 -23.241745 -1050.920776
v 500.649750 177.990067 -1057.970215
v 466.714203 177.807877 -1004.826721
v 467.274170 80.347900 -1004.803162
v 501.209625 80.530075 -1057.946899
v 540.791382 178.226852 -1032.336548
v 506.855865 178.044662 -979.192993
v 507.415771 80.584686 -979.169556
v 541.351257 80.766846 -1032.313110
v 602.220886 178.589157 -993.108826
v 568.285339 178.406967 -939.965210
v 568.845215 80.947021 -939.941772
v 602.780701 81.129196 -993.085449
v 641.749939 178.822311 -967.866211
v 607.814392 178.640121 -914.722656
v 608.374390 81.180145 -914.699219
v 642.309814 81.362320 -967.842773
v 829.790344 20.754807 -1846.958008
v 783.350525 20.480911 -1876.613770
v 782.084290 240.884018 -1876.666748
v 828.524231 241.157913 -1847.010986
vn 0.8428 0.0050 0.5382
vn 0.5382 0.0029 -0.8428
vn -0.8428 -0.0050 -0.5382
vn -0.0057 1.0000 -0.0002
vn 0.0057 -1.0000 0.0002
vn -0.5382 -0.0029 0.8428
vn -0.3533 -0.7492 0.5602
vn -0.5358 -0.0871 0.8398
vn -0.8435 -0.0055 -0.5371
vn 0.8435 0.0055 0.5371
vn 0.5060 -0.3480 -0.7892
vn -0.5060 0.3480 0.7892
vn 0.8264 0.0046 -0.5630
vn -0.1631 -0.0007 0.9866
vn 0.4698 -0.8312 0.2972
vn 0.4602 0.8367 0.2968
usemtl Matériau.011
s off
f 45//1 46//1 4//1 3//1
f 49//2 50//2 8//2 7//2
f 47//3 48//3 6//3 5//3
f 26//1 25//1 9//1 10//1
f 72//4 47//4 5//4 51//4
f 96//5 46//5 2//5 74//5
f 10//1 9//1 13//1 14//1
f 84//6 9//6 29//6 90//6
f 89//5 26//5 10//5 75//5
f 27//3 28//3 11//3 12//3
f 76//7 14//7 18//7 77//7
f 75//5 10//5 14//5 76//5
f 12//3 11//3 15//3 16//3
f 53//4 12//4 16//4 55//4
f 86//8 77//8 18//8 17//8
f 16//9 15//9 19//9 20//9
f 16//3 20//3 24//3 22//3
f 14//10 13//10 17//10 18//10
f 59//11 22//11 42//11 69//11
f 86//6 17//6 23//6 88//6
f 17//1 13//1 21//1 23//1
f 55//2 16//2 22//2 59//2
f 5//3 6//3 28//3 27//3
f 74//5 2//5 26//5 89//5
f 51//4 5//4 27//4 62//4
f 2//1 1//1 25//1 26//1
f 32//3 30//3 34//3 36//3
f 62//2 27//2 32//2 64//2
f 27//3 12//3 30//3 32//3
f 9//1 25//1 31//1 29//1
f 66//4 36//4 34//4 65//4
f 90//5 29//5 37//5 92//5
f 64//2 32//2 36//2 66//2
f 29//1 31//1 35//1 33//1
f 92//6 37//6 39//6 93//6
f 29//1 33//1 39//1 37//1
f 34//3 30//3 38//3 40//3
f 65//4 34//4 40//4 68//4
f 69//4 42//4 44//4 70//4
f 23//1 21//1 41//1 43//1
f 88//12 23//12 43//12 95//12
f 22//3 24//3 44//3 42//3
f 82//5 4//5 46//5 96//5
f 49//4 7//4 47//4 72//4
f 7//3 8//3 48//3 47//3
f 46//13 45//13 103//13 106//13
f 73//4 49//4 72//4 81//4
f 8//5 50//5 71//5 48//5
f 24//12 60//12 70//12 44//12
f 94//4 69//4 70//4 95//4
f 91//4 65//4 68//4 93//4
f 38//6 67//6 68//6 40//6
f 79//2 64//2 66//2 80//2
f 30//5 63//5 67//5 38//5
f 80//4 66//4 65//4 91//4
f 78//2 62//2 64//2 79//2
f 83//4 51//4 62//4 78//4
f 6//5 52//5 61//5 28//5
f 85//2 55//2 59//2 87//2
f 20//6 57//6 60//6 24//6
f 87//11 59//11 69//11 94//11
f 20//8 19//8 58//8 57//8
f 84//4 53//4 55//4 85//4
f 11//5 54//5 56//5 15//5
f 15//7 56//7 58//7 19//7
f 28//5 61//5 54//5 11//5
f 12//6 53//6 63//6 30//6
f 48//5 71//5 52//5 6//5
f 81//4 72//4 51//4 83//4
f 50//3 49//3 121//3 120//3
f 3//2 4//2 82//2 73//2
f 45//4 81//4 83//4 1//4
f 9//4 84//4 85//4 13//4
f 21//11 87//11 94//11 41//11
f 13//2 85//2 87//2 21//2
f 1//4 83//4 78//4 25//4
f 25//2 78//2 79//2 31//2
f 35//4 80//4 91//4 33//4
f 31//2 79//2 80//2 35//2
f 33//4 91//4 93//4 39//4
f 41//4 94//4 95//4 43//4
f 3//4 73//4 81//4 45//4
f 50//5 82//5 96//5 71//5
f 60//12 88//12 95//12 70//12
f 67//6 92//6 93//6 68//6
f 63//5 90//5 92//5 67//5
f 52//3 71//3 100//3 101//3
f 57//6 86//6 88//6 60//6
f 57//8 58//8 77//8 86//8
f 54//5 75//5 76//5 56//5
f 56//7 76//7 77//7 58//7
f 61//5 89//5 75//5 54//5
f 53//6 84//6 90//6 63//6
f 89//6 61//6 98//6 97//6
f 101//5 102//5 97//5 98//5
f 100//5 99//5 102//5 101//5
f 61//3 52//3 101//3 98//3
f 74//1 89//1 97//1 102//1
f 71//2 96//2 99//2 100//2
f 96//1 74//1 102//1 99//1
f 106//2 103//2 107//2 110//2
f 1//14 2//14 105//14 104//14
f 2//15 46//15 106//15 105//15
f 45//16 1//16 104//16 103//16
f 109//5 110//5 114//5 113//5
f 104//6 105//6 109//6 108//6
f 105//5 106//5 110//5 109//5
f 103//4 104//4 108//4 107//4
f 113//5 114//5 118//5 117//5
f 107//4 108//4 112//4 111//4
f 110//2 107//2 111//2 114//2
f 108//6 109//6 113//6 112//6
f 116//1 117//1 118//1 115//1
f 111//4 112//4 116//4 115//4
f 114//2 111//2 115//2 118//2
f 122//2 119//2 120//2 121//2
f 82//5 50//5 120//5 119//5
f 73//1 82//1 119//1 122//1
f 49//4 73//4 122//4 121//4
o Cube.047_Cube.022
v -251.318481 449.557770 289.122101
v -249.525177 209.917038 258.030823
v -134.132538 477.611694 79.651299
v -132.339233 237.970947 48.560028
v -433.664246 411.530212 114.095589
v -432.744812 288.659698 98.154228
v -373.579773 425.914246 6.694054
v -372.660278 303.043732 -9.247307
v 5.475342 343.389038 -308.807465
v 4.536011 468.914032 -292.521698
v -106.161469 475.997253 -353.501434
v -105.222137 350.472229 -369.787201
v 95.073792 385.932587 -501.300751
v 94.383179 478.221375 -489.327118
v 12.995911 483.429138 -534.160889
v 13.686523 391.140320 -546.134521
v 149.359741 414.697052 -622.509277
v 148.855042 482.140472 -613.759033
v 89.378296 485.946228 -646.522949
v 89.882996 418.502777 -655.273193
v -248.760056 489.624756 38.319550
v -246.856262 235.216583 5.312347
v -373.167389 459.842041 260.698608
v -371.263580 205.433899 227.691422
v -48.127625 476.972992 -327.361176
v -47.130402 343.712769 -344.650543
v 62.814423 485.858368 -527.723877
v 63.547577 387.882446 -540.435425
v 132.273315 489.274780 -653.416870
v 132.809143 417.675262 -662.706299
v 198.068848 425.418884 -702.340210
v 197.564148 492.862335 -693.589966
v 180.712646 501.457703 -744.524902
v 181.248474 429.858215 -753.814331
v 138.363770 430.461121 -744.647705
v 137.859070 497.904572 -735.897461
v 231.908173 433.199799 -760.360962
v 231.403534 500.643250 -751.610718
v 214.552032 509.238617 -802.545654
v 215.087799 437.639099 -811.835083
v 172.203125 438.242035 -802.668457
v 171.698425 505.685486 -793.918213
v 273.910248 448.601837 -782.468018
v 273.585419 492.012115 -776.835938
v 262.738861 497.544586 -809.620483
v 263.083710 451.459229 -815.599609
v 203.620789 444.572693 -865.938110
v 160.736115 445.175598 -856.771606
v 160.231415 512.619080 -848.021362
v 203.084961 516.172241 -856.648682
v 303.132172 457.888519 -796.930786
v 302.913177 487.154541 -793.133789
v 295.600800 490.884369 -815.236328
v 295.833344 459.814880 -819.267334
v 325.246796 466.858337 -821.832031
v 325.109894 485.152893 -819.458496
v 320.538849 487.484436 -833.275146
v 320.684174 468.062531 -835.794922
v 190.170288 460.057281 -892.040894
v 161.655670 460.458191 -885.945801
v 161.320099 505.302185 -880.127686
v 189.814026 507.664703 -885.864258
vn 0.8745 -0.0560 0.4817
vn -0.8056 0.0703 -0.5883
vn -0.8745 0.0560 -0.4817
vn -0.2355 -0.1268 0.9636
vn -0.4273 0.8962 -0.1190
vn 0.0612 -0.9932 -0.0988
vn -0.8342 0.0648 -0.5476
vn 0.1094 0.9938 0.0216
vn -0.2773 -0.8840 -0.3763
vn 0.9361 -0.0384 0.3497
vn -0.0474 -0.9624 -0.2675
vn 0.1008 0.9902 0.0963
vn -0.0229 -0.9716 -0.2356
vn 0.9095 -0.0468 0.4130
vn -0.0616 0.9931 0.0997
vn 0.9157 -0.0450 0.3994
vn -0.8259 0.0665 -0.5599
vn 0.1416 0.9850 0.0990
vn -0.0620 0.9980 -0.0131
vn 0.8557 -0.0603 0.5140
vn 0.1155 -0.9804 -0.1594
vn -0.0376 0.9991 0.0201
vn 0.1563 -0.9754 -0.1553
vn 0.1241 -0.9646 -0.2325
vn -0.2910 0.9466 -0.1388
vn -0.4143 -0.8424 -0.3446
vn 0.0464 0.9863 0.1580
vn -0.9159 -0.0584 0.3972
vn -0.8657 0.0580 -0.4971
vn 0.0522 -0.9933 -0.1027
vn -0.8807 0.0544 -0.4705
vn 0.0417 0.9869 0.1560
vn 0.0565 -0.9933 -0.1010
vn -0.0468 -0.9865 -0.1571
vn -0.0542 0.9889 0.1382
vn 0.4938 -0.1082 0.8628
vn 0.0374 0.9873 0.1542
vn -0.0629 0.9933 0.0965
vn -0.0481 -0.9859 -0.1603
vn 0.8657 -0.0580 0.4971
vn -0.1422 0.1263 -0.9817
vn 0.2607 -0.9508 -0.1672
vn 0.2463 0.9658 0.0815
vn -0.1139 0.1270 -0.9853
vn -0.1253 0.9664 -0.2245
vn -0.0393 -0.9921 -0.1188
vn -0.9786 -0.0337 0.2031
vn 0.9786 0.0337 -0.2031
vn -0.5740 0.1011 -0.8126
vn 0.2131 0.9725 0.0936
vn 0.2276 -0.9610 -0.1572
vn 0.4688 -0.1102 0.8764
vn 0.9507 0.0469 -0.3066
vn 0.2031 0.9743 0.0972
vn 0.2174 -0.9638 -0.1542
vn 0.7592 -0.0781 0.6461
vn -0.2057 0.1244 -0.9707
vn -0.1115 -0.8788 -0.4639
vn 0.9018 0.0622 -0.4277
vn -0.9994 -0.0032 -0.0332
usemtl Matériau.012
s off
f 123//17 124//17 126//17 125//17
f 130//18 129//18 133//18 134//18
f 129//19 130//19 128//19 127//19
f 145//20 146//20 124//20 123//20
f 143//21 129//21 127//21 145//21
f 144//22 126//22 124//22 146//22
f 134//23 133//23 137//23 138//23
f 143//24 125//24 132//24 147//24
f 144//25 130//25 134//25 148//25
f 125//26 126//26 131//26 132//26
f 150//27 138//27 142//27 152//27
f 147//28 132//28 136//28 149//28
f 148//29 134//29 138//29 150//29
f 132//30 131//30 135//30 136//30
f 141//31 151//31 155//31 158//31
f 136//32 135//32 139//32 140//32
f 138//33 137//33 141//33 142//33
f 149//34 136//34 140//34 151//34
f 137//35 149//35 151//35 141//35
f 140//36 139//36 153//36 154//36
f 131//37 148//37 150//37 135//37
f 133//38 147//38 149//38 137//38
f 135//39 150//39 152//39 139//39
f 126//40 144//40 148//40 131//40
f 129//41 143//41 147//41 133//41
f 130//42 144//42 146//42 128//42
f 125//43 143//43 145//43 123//43
f 127//44 128//44 146//44 145//44
f 157//45 158//45 164//45 163//45
f 153//46 156//46 162//46 159//46
f 142//47 141//47 158//47 157//47
f 151//48 140//48 154//48 155//48
f 139//49 152//49 156//49 153//49
f 152//50 142//50 157//50 156//50
f 164//51 161//51 172//51 171//51
f 160//52 159//52 165//52 166//52
f 155//53 154//53 160//53 161//53
f 158//54 155//54 161//54 164//54
f 156//55 157//55 163//55 162//55
f 154//56 153//56 159//56 160//56
f 168//57 167//57 175//57 176//57
f 159//58 162//58 168//58 165//58
f 161//59 160//59 166//59 167//59
f 162//60 161//60 167//60 168//60
f 171//61 172//61 184//61 183//61
f 162//62 163//62 170//62 169//62
f 163//63 164//63 171//63 170//63
f 161//64 162//64 169//64 172//64
f 176//65 175//65 179//65 180//65
f 167//66 166//66 174//66 175//66
f 165//67 168//67 176//67 173//67
f 166//68 165//68 173//68 174//68
f 178//69 177//69 180//69 179//69
f 175//70 174//70 178//70 179//70
f 173//71 176//71 180//71 177//71
f 174//72 173//72 177//72 178//72
f 184//73 181//73 182//73 183//73
f 169//74 170//74 182//74 181//74
f 172//75 169//75 181//75 184//75
f 170//76 171//76 183//76 182//76
o Cube.048_Cube.024
v -527.851135 324.338013 100.122009
v -690.815002 204.731964 -32.296780
v -386.507263 347.271973 -94.540588
v -549.471130 227.665924 -226.959381
v -642.032532 509.509949 -34.058220
v -725.588684 448.184570 -101.953033
v -569.561584 521.268799 -133.867203
v -653.117737 459.943451 -201.762009
v -309.170837 342.742859 -521.629395
v -223.809570 405.393127 -452.267822
v -280.859253 514.724121 -480.810699
v -366.220520 452.073914 -550.172302
v -179.527283 385.938629 -689.612122
v -116.767700 432.000488 -638.615906
v -158.711945 512.383118 -659.601257
v -221.471497 466.321259 -710.597473
v -97.922546 415.745148 -794.101868
v -52.058716 449.406555 -756.834473
v -82.710999 508.149109 -772.170288
v -128.574829 474.487732 -809.437683
v -446.684540 453.576752 -102.912888
v -619.690796 326.600189 -243.491714
v -596.738464 429.229523 103.745468
v -769.744690 302.252960 -36.833363
v -246.430725 462.520142 -468.910553
v -337.052246 396.009216 -542.546448
v -124.774414 475.401001 -662.730408
v -191.401428 426.500671 -716.869141
v -50.084045 482.392883 -785.235107
v -98.774170 446.657135 -824.799011
v -41.309998 421.615417 -869.075562
v 4.553833 455.276825 -831.808167
v 9.677002 494.161316 -869.410950
v -39.013123 458.425568 -908.974854
v -69.297729 485.349518 -892.199097
v -23.433899 519.010925 -854.931702
v -1.223450 426.989319 -923.262756
v 44.640381 460.650726 -885.995361
v 49.763550 499.535217 -923.598145
v 1.073425 463.799500 -963.162048
v -29.211243 490.723419 -946.386292
v 16.652588 524.384827 -909.118896
v 42.481995 415.125153 -944.219604
v 72.002441 436.791473 -920.232300
v 75.300049 461.819641 -944.435486
v 43.960388 438.818176 -969.901001
v 9.280273 499.307739 -1005.334595
v -21.004333 526.231689 -988.558716
v 24.859497 559.893066 -951.291321
v 57.970398 535.043457 -965.770691
v 71.686035 405.685822 -958.619507
v 91.587952 420.292664 -942.447937
v 93.811096 437.165955 -958.765076
v 72.682800 421.659027 -975.933228
v 98.003235 405.677124 -980.912781
v 110.444153 414.808044 -970.803711
v 111.833862 425.355713 -981.003845
v 98.626343 415.662140 -991.735840
v 16.548950 528.763428 -1018.809265
v -3.587708 546.665466 -1007.654846
v 26.907715 569.047363 -982.875305
v 48.923645 552.524536 -992.502747
vn 0.4507 -0.8637 0.2255
vn -0.3725 0.8688 -0.3263
vn -0.4507 0.8637 -0.2255
vn -0.4443 -0.3207 0.8365
vn 0.3743 0.8495 0.3719
vn -0.6454 -0.5471 -0.5331
vn -0.4039 0.8685 -0.2873
vn 0.7762 0.4593 0.4318
vn -0.7390 -0.1250 -0.6620
vn 0.5315 -0.8405 0.1051
vn -0.6622 -0.3794 -0.6461
vn 0.7527 0.4311 0.4976
vn -0.6587 -0.4158 -0.6270
vn 0.4947 -0.8538 0.1623
vn 0.6448 0.5470 0.5339
vn 0.5029 -0.8512 0.1499
vn -0.3946 0.8688 -0.2991
vn 0.7759 0.3979 0.4896
vn 0.6709 0.5990 0.4371
vn 0.4284 -0.8667 0.2556
vn -0.5874 -0.5525 -0.5913
vn 0.6814 0.5678 0.4619
vn -0.5573 -0.5806 -0.5936
vn -0.5556 -0.5181 -0.6503
vn 0.5058 0.7886 0.3496
vn -0.8080 -0.0183 -0.5889
vn 0.7008 0.4409 0.5608
vn -0.7384 0.4483 0.5038
vn -0.4402 0.8653 -0.2398
vn -0.6507 -0.5391 -0.5348
vn -0.4582 0.8624 -0.2150
vn 0.6985 0.4454 0.5601
vn -0.6481 -0.5429 -0.5341
vn -0.7014 -0.4410 -0.5599
vn 0.6390 0.5226 0.5644
vn 0.0800 -0.7867 0.6121
vn 0.6963 0.4495 0.5596
vn 0.6447 0.5494 0.5315
vn -0.7012 -0.4384 -0.5622
vn 0.4402 -0.8653 0.2398
vn 0.1936 0.5976 -0.7781
vn -0.4671 -0.6363 -0.6139
vn 0.8362 0.3203 0.4451
vn 0.2139 0.5794 -0.7865
vn 0.6488 0.7186 0.2504
vn -0.7082 -0.4661 -0.5303
vn -0.7236 0.5909 0.3567
vn 0.7236 -0.5909 -0.3567
vn -0.1492 0.8181 -0.5554
vn 0.8162 0.3424 0.4653
vn -0.4986 -0.6226 -0.6031
vn 0.0590 -0.7758 0.6282
vn 0.7352 -0.5188 -0.4363
vn 0.8101 0.3489 0.4712
vn -0.5082 -0.6182 -0.5996
vn 0.3240 -0.8652 0.3828
vn 0.1472 0.6371 -0.7566
vn -0.6060 -0.2024 -0.7693
vn 0.7378 -0.4228 -0.5262
vn -0.6679 0.7253 0.1669
usemtl Matériau.012
s off
f 185//77 186//77 188//77 187//77
f 192//78 191//78 195//78 196//78
f 191//79 192//79 190//79 189//79
f 207//80 208//80 186//80 185//80
f 205//81 191//81 189//81 207//81
f 206//82 188//82 186//82 208//82
f 196//83 195//83 199//83 200//83
f 205//84 187//84 194//84 209//84
f 206//85 192//85 196//85 210//85
f 187//86 188//86 193//86 194//86
f 212//87 200//87 204//87 214//87
f 209//88 194//88 198//88 211//88
f 210//89 196//89 200//89 212//89
f 194//90 193//90 197//90 198//90
f 203//91 213//91 217//91 220//91
f 198//92 197//92 201//92 202//92
f 200//93 199//93 203//93 204//93
f 211//94 198//94 202//94 213//94
f 199//95 211//95 213//95 203//95
f 202//96 201//96 215//96 216//96
f 193//97 210//97 212//97 197//97
f 195//98 209//98 211//98 199//98
f 197//99 212//99 214//99 201//99
f 188//100 206//100 210//100 193//100
f 191//101 205//101 209//101 195//101
f 192//102 206//102 208//102 190//102
f 187//103 205//103 207//103 185//103
f 189//104 190//104 208//104 207//104
f 219//105 220//105 226//105 225//105
f 215//106 218//106 224//106 221//106
f 204//107 203//107 220//107 219//107
f 213//108 202//108 216//108 217//108
f 201//109 214//109 218//109 215//109
f 214//110 204//110 219//110 218//110
f 226//111 223//111 234//111 233//111
f 222//112 221//112 227//112 228//112
f 217//113 216//113 222//113 223//113
f 220//114 217//114 223//114 226//114
f 218//115 219//115 225//115 224//115
f 216//116 215//116 221//116 222//116
f 230//117 229//117 237//117 238//117
f 221//118 224//118 230//118 227//118
f 223//119 222//119 228//119 229//119
f 224//120 223//120 229//120 230//120
f 233//121 234//121 246//121 245//121
f 224//122 225//122 232//122 231//122
f 225//123 226//123 233//123 232//123
f 223//124 224//124 231//124 234//124
f 238//125 237//125 241//125 242//125
f 229//126 228//126 236//126 237//126
f 227//127 230//127 238//127 235//127
f 228//128 227//128 235//128 236//128
f 240//129 239//129 242//129 241//129
f 237//130 236//130 240//130 241//130
f 235//131 238//131 242//131 239//131
f 236//132 235//132 239//132 240//132
f 246//133 243//133 244//133 245//133
f 231//134 232//134 244//134 243//134
f 234//135 231//135 243//135 246//135
f 232//136 233//136 245//136 244//136
