# Blender v2.91.2 OBJ File: 'camionnete02.blend'
# www.blender.org
mtllib arme_000184.mtl
o Cube.046_Cube.010
v 110.975204 115.498657 -1225.372070
v 57.466469 -97.812508 -1210.734131
v 172.405640 85.708099 -1434.938110
v 118.896881 -127.603088 -1420.300293
v -93.822807 162.295837 -1292.057251
v -147.331573 -51.015381 -1277.419312
v -32.392326 132.505249 -1501.623047
v -85.901123 -80.805954 -1486.985596
v 26.397644 156.514404 -936.841125
v -27.111084 -56.796768 -922.203247
v -231.909058 -9.999634 -988.888306
v -178.400299 203.311523 -1003.526184
v -11.879189 175.076721 -806.261841
v -65.387955 -38.234467 -791.624023
v -270.185974 8.562653 -858.309082
v -216.677216 221.873871 -872.946960
v -34.491478 186.042480 -729.121521
v -69.479385 29.009354 -731.312134
v -274.277466 75.806519 -797.997253
v -239.289520 232.839661 -795.806580
v 41.464119 387.728455 -820.854431
v -163.333908 434.525574 -887.539612
v 18.851845 398.694214 -743.714111
v -185.946152 445.491394 -810.399231
v 39.593315 150.115173 -981.857178
v -13.915421 -63.195976 -967.219360
v -165.204681 196.912323 -1048.542358
v -218.713440 -16.398834 -1033.904541
v 44.061279 226.929993 -941.673157
v -160.736694 273.727203 -1008.358337
v 57.256958 220.530823 -986.689209
v -147.541016 267.327911 -1053.374268
v 69.688354 329.091614 -948.683716
v -135.109604 375.888672 -1015.368774
v 82.883972 322.692322 -993.699829
v -121.913956 369.489502 -1060.384888
v 6.649544 245.072784 -814.045227
v -198.148499 291.869934 -880.730347
v 32.276611 347.234344 -821.055664
v -172.521408 394.031494 -887.740845
v 88.948868 513.187195 -878.643372
v -115.849136 559.984375 -945.328491
v 66.336563 524.153015 -801.503113
v -138.461380 570.950134 -868.188171
v 150.718781 96.225098 -1360.954834
v 97.210022 -117.086090 -1346.317017
v -54.079208 143.022247 -1427.639893
v -107.587936 -70.288956 -1413.002075
v 70.006630 109.106689 -1468.280640
v 16.497864 -104.204529 -1453.642822
v 8.576233 138.897278 -1258.714600
v -44.932522 -74.413933 -1244.076782
v -76.001328 179.912933 -970.183594
v -129.510056 -33.398201 -955.545776
v -114.278206 198.475281 -839.604431
v -160.115479 -5.790543 -812.429993
v -136.890472 209.441040 -762.464111
v -162.874359 39.552155 -771.761536
v -60.934875 411.127075 -854.196960
v -83.547165 422.092773 -777.056702
v -116.314423 -39.797409 -1000.561890
v -62.805672 173.513763 -1015.199768
v -58.337685 250.328613 -975.015747
v -45.142044 243.929352 -1020.031799
v -32.710602 352.490173 -982.026184
v -19.514977 346.090942 -1027.042480
v -95.749474 268.471375 -847.387817
v -70.122375 370.632996 -854.398254
v -13.450165 536.585876 -911.985962
v -36.062439 547.551514 -834.845581
v -5.189003 -93.687523 -1379.659668
v 48.319794 119.623657 -1394.297241
v 121.206177 97.407394 -1451.609253
v 6.266987 -86.113220 -1227.405518
v -78.310593 -45.097488 -938.874512
v -125.591537 -13.679413 -801.188599
v -128.350388 31.663284 -760.520020
v -11.606163 161.814423 -998.528442
v 6.057457 232.230042 -1003.360535
v 31.684509 334.391632 -1010.371094
v 99.519272 107.924377 -1377.626099
v 67.697403 -115.903816 -1436.971558
v 59.775665 127.197937 -1242.043457
v -24.801842 168.213654 -953.512390
v -63.078712 186.776001 -822.933105
v -85.690987 197.741760 -745.792786
v -9.735382 399.427734 -837.525757
v -32.347641 410.393555 -760.385437
v -65.114929 -51.496689 -983.890686
v -7.138199 238.629333 -958.344482
v 18.488892 340.790863 -965.354980
v -44.549957 256.772064 -830.716492
v -18.922867 358.933655 -837.726990
v 37.749390 524.886536 -895.314636
v 15.137070 535.852234 -818.174316
v 46.010475 -105.386795 -1362.988281
v -75.133690 -91.436295 -981.149902
v -126.333191 -79.737030 -997.821106
v 35.991669 -145.326385 -1360.247559
v -15.207748 -133.627136 -1376.918823
v -54.951328 -114.353561 -1241.336060
v -3.751816 -126.052834 -1224.664673
v 211.043610 22.379501 -1290.946167
v 193.469406 30.902069 -1230.992798
v 169.808502 -63.421982 -1224.520020
v 187.382584 -71.944534 -1284.473511
v 255.299347 12.266891 -1276.535889
v 237.725189 20.789459 -1216.582520
v 214.064240 -73.534576 -1210.109863
v 231.638367 -82.057144 -1270.063232
v 323.024811 -3.208633 -1254.483765
v 305.450623 5.313950 -1194.530396
v 281.789581 -89.010056 -1188.057617
v 299.363708 -97.532623 -1248.011108
v 366.605255 -13.166946 -1240.293335
v 349.031067 -4.644379 -1180.339966
v 325.370148 -98.968384 -1173.867310
v 342.944244 -107.490952 -1233.820679
v 269.508514 -213.771301 -2125.435547
v 218.308990 -202.072021 -2142.106934
v 271.817657 11.239227 -2156.744873
v 323.017181 -0.460114 -2140.073486
v 24.648224 593.364075 -935.399841
v -69.706955 614.924561 -966.123230
v 3.812256 603.468445 -864.319092
v -90.542892 625.028931 -895.042542
v 98.167358 581.907959 -833.595886
v 119.003433 571.803650 -904.676331
v 71.825905 582.583984 -920.038086
v 50.989799 592.688110 -848.957520
vn 0.9292 -0.2123 0.3026
vn 0.2787 -0.1352 -0.9508
vn -0.9292 0.2123 -0.3026
vn 0.2428 0.9678 -0.0664
vn -0.2428 -0.9678 0.0664
vn -0.2787 0.1352 0.9508
vn -0.3666 -0.6335 0.6814
vn -0.3240 -0.9433 0.0724
vn -0.3796 0.0428 0.9242
vn -0.9297 0.2120 -0.3013
vn 0.9297 -0.2120 0.3013
vn 0.1759 -0.4660 -0.8671
vn 0.1733 -0.4726 -0.8640
vn -0.1759 0.4660 0.8671
vn 0.6219 -0.2078 -0.7550
vn -0.7829 0.5415 -0.3065
vn -0.2644 0.0154 0.9643
vn -0.2135 -0.9707 0.1100
vn -0.1461 0.5408 0.8283
vn -0.3105 -0.0045 0.9505
vn -0.2606 -0.9568 0.1288
vn 0.1094 0.0407 0.9932
vn 0.3102 -0.9243 0.2223
vn 0.7152 0.6900 0.1116
vn 0.8951 -0.3221 0.3082
usemtl Matériau.011
s off
f 45//1 46//1 4//1 3//1
f 49//2 50//2 8//2 7//2
f 47//3 48//3 6//3 5//3
f 26//1 25//1 9//1 10//1
f 72//4 47//4 5//4 51//4
f 96//5 46//5 2//5 74//5
f 10//1 9//1 13//1 14//1
f 84//6 9//6 29//6 90//6
f 89//5 26//5 10//5 75//5
f 27//3 28//3 11//3 12//3
f 76//7 14//7 18//7 77//7
f 75//8 10//8 14//8 76//8
f 12//3 11//3 15//3 16//3
f 53//4 12//4 16//4 55//4
f 86//9 77//9 18//9 17//9
f 16//10 15//10 19//10 20//10
f 16//3 20//3 24//3 22//3
f 14//11 13//11 17//11 18//11
f 59//12 22//12 42//12 69//12
f 86//6 17//6 23//6 88//6
f 17//1 13//1 21//1 23//1
f 55//2 16//2 22//2 59//2
f 5//3 6//3 28//3 27//3
f 74//5 2//5 26//5 89//5
f 51//4 5//4 27//4 62//4
f 2//1 1//1 25//1 26//1
f 32//3 30//3 34//3 36//3
f 62//2 27//2 32//2 64//2
f 27//3 12//3 30//3 32//3
f 9//1 25//1 31//1 29//1
f 66//4 36//4 34//4 65//4
f 90//5 29//5 37//5 92//5
f 64//2 32//2 36//2 66//2
f 29//1 31//1 35//1 33//1
f 92//6 37//6 39//6 93//6
f 29//1 33//1 39//1 37//1
f 34//3 30//3 38//3 40//3
f 65//4 34//4 40//4 68//4
f 69//13 42//13 124//13 123//13
f 23//1 21//1 41//1 43//1
f 88//14 23//14 43//14 95//14
f 22//3 24//3 44//3 42//3
f 82//5 4//5 46//5 96//5
f 49//4 7//4 47//4 72//4
f 7//3 8//3 48//3 47//3
f 46//15 45//15 103//15 106//15
f 73//4 49//4 72//4 81//4
f 8//5 50//5 71//5 48//5
f 24//14 60//14 70//14 44//14
f 42//16 44//16 126//16 124//16
f 91//4 65//4 68//4 93//4
f 38//6 67//6 68//6 40//6
f 79//2 64//2 66//2 80//2
f 30//5 63//5 67//5 38//5
f 80//4 66//4 65//4 91//4
f 78//2 62//2 64//2 79//2
f 83//4 51//4 62//4 78//4
f 6//5 52//5 61//5 28//5
f 85//2 55//2 59//2 87//2
f 20//6 57//6 60//6 24//6
f 87//12 59//12 69//12 94//12
f 20//17 19//17 58//17 57//17
f 84//4 53//4 55//4 85//4
f 11//18 54//18 56//18 15//18
f 15//7 56//7 58//7 19//7
f 28//5 61//5 54//5 11//5
f 12//6 53//6 63//6 30//6
f 48//5 71//5 52//5 6//5
f 81//4 72//4 51//4 83//4
f 50//3 49//3 121//3 120//3
f 3//2 4//2 82//2 73//2
f 45//4 81//4 83//4 1//4
f 9//4 84//4 85//4 13//4
f 21//12 87//12 94//12 41//12
f 13//2 85//2 87//2 21//2
f 1//4 83//4 78//4 25//4
f 25//2 78//2 79//2 31//2
f 35//4 80//4 91//4 33//4
f 31//2 79//2 80//2 35//2
f 33//4 91//4 93//4 39//4
f 70//19 95//19 130//19 125//19
f 3//4 73//4 81//4 45//4
f 50//5 82//5 96//5 71//5
f 60//14 88//14 95//14 70//14
f 67//6 92//6 93//6 68//6
f 63//5 90//5 92//5 67//5
f 52//3 71//3 100//3 101//3
f 57//6 86//6 88//6 60//6
f 57//20 58//20 77//20 86//20
f 54//21 75//21 76//21 56//21
f 56//7 76//7 77//7 58//7
f 61//5 89//5 75//5 54//5
f 53//6 84//6 90//6 63//6
f 89//6 61//6 98//6 97//6
f 101//5 102//5 97//5 98//5
f 100//5 99//5 102//5 101//5
f 61//3 52//3 101//3 98//3
f 74//1 89//1 97//1 102//1
f 71//2 96//2 99//2 100//2
f 96//1 74//1 102//1 99//1
f 106//2 103//2 107//2 110//2
f 1//22 2//22 105//22 104//22
f 2//23 46//23 106//23 105//23
f 45//24 1//24 104//24 103//24
f 109//5 110//5 114//5 113//5
f 104//6 105//6 109//6 108//6
f 105//5 106//5 110//5 109//5
f 103//4 104//4 108//4 107//4
f 113//5 114//5 118//5 117//5
f 107//4 108//4 112//4 111//4
f 110//2 107//2 111//2 114//2
f 108//6 109//6 113//6 112//6
f 116//1 117//1 118//1 115//1
f 111//4 112//4 116//4 115//4
f 114//2 111//2 115//2 118//2
f 122//2 119//2 120//2 121//2
f 82//5 50//5 120//5 119//5
f 73//1 82//1 119//1 122//1
f 49//4 73//4 122//4 121//4
f 123//4 124//4 126//4 125//4
f 129//4 123//4 125//4 130//4
f 128//4 129//4 130//4 127//4
f 95//19 43//19 127//19 130//19
f 94//13 69//13 123//13 129//13
f 43//25 41//25 128//25 127//25
f 44//19 70//19 125//19 126//19
f 41//13 94//13 129//13 128//13
o Cube.048_Cube.024
v -493.045837 546.785889 150.720093
v -677.519226 410.987915 73.739449
v -369.211517 492.031128 -49.441132
v -553.443359 355.629272 -126.590767
v -602.857422 692.605957 -28.188385
v -697.442139 622.978577 -67.658546
v -539.364075 664.531616 -130.816681
v -633.485779 594.889160 -169.701141
v -377.196350 379.055969 -487.425507
v -263.726868 420.175446 -449.261505
v -298.674133 539.345154 -473.754364
v -412.143585 498.225647 -511.918488
v -292.174622 380.858368 -686.572693
v -208.749329 411.090363 -658.513611
v -234.443329 498.706604 -676.521362
v -317.868622 468.474640 -704.580383
v -237.692230 384.566986 -811.006531
v -176.726135 406.660156 -790.501343
v -195.502960 470.688965 -803.661133
v -256.469177 448.595825 -824.166260
v -420.366699 596.404480 -87.509880
v -615.376282 452.413147 -168.021606
v -551.922729 654.628174 124.944473
v -747.763855 510.461823 43.220062
v -275.763885 480.522339 -465.557281
v -396.225739 436.868958 -506.073090
v -212.486755 454.128418 -684.261902
v -301.052979 422.033508 -714.050049
v -174.818542 436.904755 -821.809631
v -239.541534 413.450195 -843.578613
v -204.102844 372.749451 -898.141907
v -143.136780 394.842529 -877.636780
v -139.414001 429.615479 -919.220337
v -204.137024 406.160889 -940.989258
v -221.343750 440.610504 -919.997559
v -160.377502 462.703613 -899.492493
v -180.330261 365.514465 -961.027283
v -119.364075 387.607605 -940.522156
v -115.641541 422.380554 -982.105652
v -180.364624 398.925964 -1003.874451
v -197.571167 433.375549 -982.882874
v -136.605103 455.468597 -962.377747
v -148.179382 341.980072 -991.070251
v -108.938293 356.200378 -977.872009
v -106.542236 378.582184 -1004.637512
v -148.201538 363.485565 -1018.649109
v -175.825562 429.468567 -1050.277710
v -193.032104 463.918182 -1029.286133
v -132.066101 486.011261 -1008.780945
v -111.102478 452.923126 -1028.508911
v -127.164795 324.779785 -1011.365051
v -100.709595 334.366760 -1002.467102
v -99.094177 349.455963 -1020.511658
v -127.179688 339.278168 -1029.957764
v -108.758606 317.125488 -1039.511108
v -92.221130 323.118408 -1033.948853
v -91.211365 332.550812 -1045.228760
v -108.767883 326.188599 -1051.134033
v -165.733643 455.511780 -1068.220581
v -177.174561 478.417755 -1054.262939
v -136.637451 493.107727 -1040.628662
v -122.698425 471.107025 -1053.746216
v -280.941223 454.709167 452.738068
v -372.634308 257.241302 347.874542
v -129.447937 485.427612 263.134094
v -226.066193 289.743469 158.509949
v -436.413879 549.970825 273.618622
v -483.427521 448.723480 219.852142
v -350.342102 567.688843 175.468414
v -408.277985 465.388275 122.759605
v -182.654724 283.178986 -117.183449
v -103.923096 216.157043 -46.987206
v -7.581787 254.753784 -115.877647
v -83.479980 320.867432 -186.223938
v -189.975769 113.239136 -251.192261
v -133.677368 60.546997 -199.085541
v -60.762024 88.256409 -249.845734
v -117.060242 140.948547 -301.952454
v -191.728973 6.320190 -335.044098
v -150.586975 -32.186584 -296.965179
v -97.301208 -11.936829 -334.060028
v -138.443359 26.570007 -372.138947
v -208.785217 554.994202 226.063660
v -324.450928 348.915833 115.952255
v -382.707581 524.047180 428.311646
v -480.051086 314.410614 316.986145
v -54.930176 223.844910 -82.138817
v -136.221985 299.929657 -157.378143
v -98.165344 58.281250 -234.624023
v -157.932983 114.220581 -289.941620
v -126.536621 -44.126404 -331.281555
v -170.213989 -3.246765 -371.706970
v -207.869019 -67.032959 -391.782990
v -166.726929 -105.539673 -353.704071
v -139.565796 -123.310669 -397.277924
v -183.243164 -82.431152 -437.703522
v -151.950806 -51.718140 -436.712494
v -110.808716 -90.224915 -398.633545
v -218.421753 -119.355957 -433.292023
v -177.279724 -157.862671 -395.213104
v -150.118652 -175.633606 -438.787140
v -193.796021 -134.753906 -479.212433
v -162.503601 -104.041016 -478.221466
v -121.361450 -142.547729 -440.142609
v -236.722626 -165.484314 -438.523102
v -210.241364 -190.269287 -414.013428
v -192.759094 -201.707581 -442.060059
v -220.872131 -175.395325 -468.080048
v -171.202881 -156.283325 -525.394226
v -139.910400 -125.570312 -524.403259
v -98.768372 -164.077026 -486.324371
v -127.525452 -197.162964 -484.968719
v -250.513214 -196.258179 -442.005341
v -232.660370 -212.967590 -425.481567
v -220.874268 -220.679138 -444.389923
v -239.827332 -202.939819 -461.931976
v -257.269470 -227.058289 -455.980133
v -246.109467 -237.503540 -445.650909
v -238.741669 -242.323853 -457.470612
v -250.589539 -231.235107 -468.436310
v -146.681702 -169.387573 -543.533691
v -125.875000 -148.965942 -542.874695
v -98.519104 -174.569580 -517.555420
v -117.640076 -196.568665 -516.654236
vn 0.3935 -0.7947 0.4621
vn -0.2786 0.8427 -0.4607
vn -0.3937 0.7941 -0.4631
vn -0.3897 0.0073 0.9209
vn 0.4801 0.8753 0.0575
vn -0.7394 -0.6057 -0.2939
vn -0.2483 0.9316 -0.2654
vn 0.8942 0.4056 0.1896
vn -0.8404 -0.1594 -0.5179
vn 0.4365 -0.8731 0.2173
vn -0.8845 -0.2202 -0.4112
vn 0.9404 0.2410 0.2399
vn -0.8847 -0.2555 -0.3899
vn 0.3022 -0.9456 0.1204
vn 0.8774 0.3822 0.2900
vn 0.3070 -0.9458 0.1062
vn -0.2428 0.9291 -0.2791
vn 0.9519 0.2027 0.2298
vn 0.8876 0.4219 0.1848
vn 0.2629 -0.9374 0.2285
vn -0.8410 -0.4045 -0.3593
vn 0.8967 0.3900 0.2093
vn -0.8202 -0.4395 -0.3662
vn -0.7279 -0.5436 -0.4179
vn 0.6453 0.7584 0.0913
vn -0.8556 -0.1147 -0.5047
vn 0.7861 0.5118 0.3464
vn -0.6460 0.6625 0.3792
vn -0.2699 0.9397 -0.2101
vn -0.8812 -0.3731 -0.2902
vn -0.2806 0.9425 -0.1814
vn 0.9104 0.2713 0.3123
vn -0.8796 -0.3774 -0.2898
vn -0.9121 -0.2663 -0.3118
vn 0.8746 0.3613 0.3234
vn 0.0550 -0.7566 0.6516
vn 0.9092 0.2757 0.3120
vn 0.8773 0.3845 0.2874
vn -0.9119 -0.2639 -0.3144
vn 0.2699 -0.9397 0.2101
vn 0.1094 0.4971 -0.8608
vn -0.7551 -0.5173 -0.4028
vn 0.9775 0.1105 0.1799
vn 0.1216 0.4739 -0.8721
vn 0.8443 0.5359 -0.0018
vn -0.9162 -0.2876 -0.2789
vn -0.4357 0.7708 0.4648
vn 0.4357 -0.7708 -0.4648
vn -0.0965 0.8070 -0.5827
vn 0.9696 0.1378 0.2021
vn -0.7782 -0.4956 -0.3858
vn 0.0424 -0.7401 0.6712
vn 0.4419 -0.7072 -0.5518
vn 0.9671 0.1459 0.2086
vn -0.7851 -0.4887 -0.3805
vn 0.2008 -0.9041 0.3772
vn 0.0814 0.5480 -0.8325
vn -0.8238 -0.0685 -0.5628
vn 0.4425 -0.6187 -0.6491
vn -0.4039 0.8789 0.2538
vn 0.6899 -0.5690 0.4477
vn 0.1851 0.8699 -0.4571
vn -0.6733 0.5842 -0.4531
vn -0.3994 -0.2784 0.8735
vn 0.0142 0.9850 0.1718
vn -0.3357 -0.8501 -0.4058
vn 0.7665 0.2380 -0.5965
vn 0.9435 0.3284 -0.0452
vn -0.7654 -0.2671 -0.5856
vn 0.2071 -0.8755 0.4366
vn -0.5205 0.5196 -0.6775
vn 0.5120 -0.6495 0.5622
vn -0.5505 0.5244 -0.6496
vn -0.7811 -0.3596 0.5104
vn 0.6521 -0.5460 0.5260
vn -0.7933 -0.3676 0.4853
vn 0.7670 0.2253 -0.6008
vn 0.4929 -0.6690 0.5563
vn 0.6754 -0.5996 0.4293
vn -0.7776 -0.2686 0.5685
vn -0.6745 0.4773 -0.5633
vn 0.6777 -0.5832 0.4479
vn -0.7030 0.4503 -0.5505
vn -0.6800 -0.7007 -0.2160
vn 0.6053 0.7399 -0.2936
vn -0.6688 -0.4466 -0.5943
vn 0.4277 0.7684 0.4761
vn -0.9059 0.2329 0.3536
vn 0.7808 0.2840 -0.5565
vn -0.6446 0.5507 -0.5303
vn 0.7853 0.3077 -0.5373
vn 0.5598 -0.5818 0.5900
vn -0.6481 0.5488 -0.5280
vn -0.5555 0.5842 -0.5917
vn 0.6370 -0.5307 0.5591
vn -0.5947 0.1463 0.7905
vn 0.5637 -0.5801 0.5880
vn 0.6538 -0.5468 0.5231
vn -0.5536 0.5832 -0.5944
vn -0.7808 -0.2840 0.5565
vn 0.3603 -0.4324 -0.8266
vn -0.7646 0.3637 -0.5320
vn 0.4045 -0.7306 0.5501
vn 0.3399 -0.4523 -0.8246
vn 0.7408 -0.6349 0.2192
vn -0.5715 0.6003 -0.5595
vn 0.6854 0.7282 -0.0042
vn -0.6854 -0.7282 0.0042
vn 0.6422 -0.0688 -0.7634
vn 0.4318 -0.7085 0.5581
vn -0.7477 0.3954 -0.5335
vn -0.5794 0.1694 0.7973
vn -0.6377 -0.7656 -0.0852
vn 0.4399 -0.7018 0.5604
vn -0.7423 0.4050 -0.5339
vn -0.7389 -0.1372 0.6596
vn 0.4054 -0.3863 -0.8286
vn -0.3848 0.4186 -0.8226
vn -0.5695 -0.7991 -0.1927
vn 0.7620 0.6156 -0.2008
usemtl Matériau.012
s off
f 131//26 132//26 134//26 133//26
f 138//27 137//27 141//27 142//27
f 137//28 138//28 136//28 135//28
f 153//29 154//29 132//29 131//29
f 151//30 137//30 135//30 153//30
f 152//31 134//31 132//31 154//31
f 142//32 141//32 145//32 146//32
f 151//33 133//33 140//33 155//33
f 152//34 138//34 142//34 156//34
f 133//35 134//35 139//35 140//35
f 158//36 146//36 150//36 160//36
f 155//37 140//37 144//37 157//37
f 156//38 142//38 146//38 158//38
f 140//39 139//39 143//39 144//39
f 149//40 159//40 163//40 166//40
f 144//41 143//41 147//41 148//41
f 146//42 145//42 149//42 150//42
f 157//43 144//43 148//43 159//43
f 145//44 157//44 159//44 149//44
f 148//45 147//45 161//45 162//45
f 139//46 156//46 158//46 143//46
f 141//47 155//47 157//47 145//47
f 143//48 158//48 160//48 147//48
f 134//49 152//49 156//49 139//49
f 137//50 151//50 155//50 141//50
f 138//51 152//51 154//51 136//51
f 133//52 151//52 153//52 131//52
f 135//53 136//53 154//53 153//53
f 165//54 166//54 172//54 171//54
f 161//55 164//55 170//55 167//55
f 150//56 149//56 166//56 165//56
f 159//57 148//57 162//57 163//57
f 147//58 160//58 164//58 161//58
f 160//59 150//59 165//59 164//59
f 172//60 169//60 180//60 179//60
f 168//61 167//61 173//61 174//61
f 163//62 162//62 168//62 169//62
f 166//63 163//63 169//63 172//63
f 164//64 165//64 171//64 170//64
f 162//65 161//65 167//65 168//65
f 176//66 175//66 183//66 184//66
f 167//67 170//67 176//67 173//67
f 169//68 168//68 174//68 175//68
f 170//69 169//69 175//69 176//69
f 179//70 180//70 192//70 191//70
f 170//71 171//71 178//71 177//71
f 171//72 172//72 179//72 178//72
f 169//73 170//73 177//73 180//73
f 184//74 183//74 187//74 188//74
f 175//75 174//75 182//75 183//75
f 173//76 176//76 184//76 181//76
f 174//77 173//77 181//77 182//77
f 186//78 185//78 188//78 187//78
f 183//79 182//79 186//79 187//79
f 181//80 184//80 188//80 185//80
f 182//81 181//81 185//81 186//81
f 192//82 189//82 190//82 191//82
f 177//83 178//83 190//83 189//83
f 180//84 177//84 189//84 192//84
f 178//85 179//85 191//85 190//85
f 193//86 194//86 196//86 195//86
f 200//87 199//87 203//87 204//87
f 199//88 200//88 198//88 197//88
f 215//89 216//89 194//89 193//89
f 213//90 199//90 197//90 215//90
f 214//91 196//91 194//91 216//91
f 204//92 203//92 207//92 208//92
f 213//93 195//93 202//93 217//93
f 214//94 200//94 204//94 218//94
f 195//95 196//95 201//95 202//95
f 220//96 208//96 212//96 222//96
f 217//97 202//97 206//97 219//97
f 218//98 204//98 208//98 220//98
f 202//99 201//99 205//99 206//99
f 211//100 221//100 225//100 228//100
f 206//101 205//101 209//101 210//101
f 208//102 207//102 211//102 212//102
f 219//103 206//103 210//103 221//103
f 207//104 219//104 221//104 211//104
f 210//105 209//105 223//105 224//105
f 201//106 218//106 220//106 205//106
f 203//107 217//107 219//107 207//107
f 205//108 220//108 222//108 209//108
f 196//109 214//109 218//109 201//109
f 199//110 213//110 217//110 203//110
f 200//111 214//111 216//111 198//111
f 195//112 213//112 215//112 193//112
f 197//113 198//113 216//113 215//113
f 227//114 228//114 234//114 233//114
f 223//115 226//115 232//115 229//115
f 212//116 211//116 228//116 227//116
f 221//117 210//117 224//117 225//117
f 209//118 222//118 226//118 223//118
f 222//119 212//119 227//119 226//119
f 234//120 231//120 242//120 241//120
f 230//121 229//121 235//121 236//121
f 225//122 224//122 230//122 231//122
f 228//123 225//123 231//123 234//123
f 226//124 227//124 233//124 232//124
f 224//125 223//125 229//125 230//125
f 238//126 237//126 245//126 246//126
f 229//127 232//127 238//127 235//127
f 231//128 230//128 236//128 237//128
f 232//129 231//129 237//129 238//129
f 241//130 242//130 254//130 253//130
f 232//131 233//131 240//131 239//131
f 233//132 234//132 241//132 240//132
f 231//133 232//133 239//133 242//133
f 246//134 245//134 249//134 250//134
f 237//135 236//135 244//135 245//135
f 235//136 238//136 246//136 243//136
f 236//137 235//137 243//137 244//137
f 248//138 247//138 250//138 249//138
f 245//139 244//139 248//139 249//139
f 243//140 246//140 250//140 247//140
f 244//141 243//141 247//141 248//141
f 254//142 251//142 252//142 253//142
f 239//143 240//143 252//143 251//143
f 242//144 239//144 251//144 254//144
f 240//145 241//145 253//145 252//145
