# Blender v2.91.2 OBJ File: 'camionnete02.blend'
# www.blender.org
mtllib arme_000204.mtl
o Cube.046_Cube.010
v -51.119797 -152.160660 -1182.577148
v -117.059212 -353.783203 -1122.748535
v -12.901985 -225.304367 -1386.950439
v -78.841431 -426.926971 -1327.121826
v -257.930023 -101.391983 -1239.420166
v -323.869507 -303.014587 -1179.591553
v -219.712219 -174.535660 -1443.793457
v -285.651733 -376.158264 -1383.965088
v -103.738159 -51.456253 -901.195312
v -169.677582 -253.078796 -841.366760
v -376.487793 -202.310135 -898.209961
v -310.548340 -0.687576 -958.038513
v -127.551338 -5.880905 -773.851501
v -193.490845 -207.503464 -714.023071
v -400.301086 -156.734787 -770.866272
v -334.361633 44.887802 -830.694763
v -141.619171 21.042984 -698.622620
v -187.075485 -130.157196 -667.629150
v -393.885803 -79.388489 -724.472351
v -348.429443 71.811691 -755.465759
v -61.815750 195.118362 -833.495117
v -268.626038 245.887039 -890.338440
v -75.883560 222.042252 -758.266174
v -282.693787 272.810913 -815.109375
v -95.528694 -67.168015 -945.096008
v -161.468124 -268.790527 -885.267517
v -302.338959 -16.399307 -1001.939270
v -368.278442 -218.021866 -942.110718
v -81.971039 15.100845 -920.945129
v -288.781281 65.869583 -977.788452
v -73.761581 -0.610855 -964.845764
v -280.571838 50.157791 -1021.688965
v -50.390472 111.664352 -949.598938
v -257.200684 162.433060 -1006.442078
v -42.181122 95.952591 -993.499634
v -248.991287 146.721298 -1050.342773
v -105.246033 59.646133 -796.479553
v -312.056335 110.414810 -853.322815
v -73.665504 156.209671 -825.133362
v -280.475800 206.978348 -881.976624
v -12.011185 303.247559 -918.122803
v -218.821487 354.016174 -974.966125
v -26.079041 330.171387 -842.893921
v -232.889252 380.940063 -899.737122
v -26.394081 -199.482376 -1314.800293
v -92.333519 -401.104980 -1254.971924
v -233.204300 -148.713669 -1371.643555
v -299.143738 -350.336243 -1311.814941
v -116.307098 -199.920029 -1415.372070
v -182.246582 -401.542633 -1355.543701
v -154.524902 -126.776321 -1210.998535
v -220.464355 -328.398895 -1151.170166
v -207.143250 -26.071945 -929.616821
v -273.082672 -227.694473 -869.788330
v -230.956482 19.503448 -802.273132
v -287.431549 -171.590286 -732.575317
v -245.024292 46.427322 -727.044189
v -283.105682 -119.435501 -701.291809
v -165.220886 220.502762 -861.916687
v -179.288696 247.426559 -786.687805
v -264.873291 -243.406204 -913.689087
v -198.933838 -41.783691 -973.517639
v -185.376175 40.485199 -949.366760
v -177.166718 24.773453 -993.267395
v -153.795578 137.048752 -978.020508
v -145.586197 121.336929 -1021.921265
v -208.651199 85.030502 -824.901245
v -177.070633 181.594040 -853.554932
v -115.416321 328.631897 -946.544495
v -129.484161 355.555725 -871.315491
v -195.738663 -375.720581 -1283.393555
v -129.799164 -174.098007 -1343.221924
v -64.604477 -212.612167 -1401.161133
v -168.761795 -341.091064 -1136.959229
v -221.380157 -240.386627 -855.577637
v -252.568405 -180.148651 -722.992981
v -248.242477 -127.993866 -691.709351
v -147.231247 -54.475845 -959.306702
v -125.464172 12.081253 -979.056580
v -93.883636 108.644791 -1007.710388
v -78.096603 -186.790207 -1329.011230
v -130.543991 -414.234802 -1341.332764
v -102.822388 -139.468491 -1196.787842
v -155.440720 -38.764130 -915.406067
v -179.253937 6.811279 -788.062317
v -193.321747 33.735153 -712.833374
v -113.518311 207.810562 -847.705933
v -127.586105 234.734421 -772.476990
v -213.170700 -256.098389 -899.478271
v -133.673584 27.793030 -935.155945
v -102.093018 124.356583 -963.809692
v -156.948624 72.338303 -810.690369
v -125.368057 168.901871 -839.344055
v -63.713730 315.939697 -932.333679
v -77.781586 342.863525 -857.104675
v -144.036133 -388.412781 -1269.182617
v -225.516983 -293.849457 -888.276184
v -277.219543 -281.157288 -902.487000
v -156.382431 -426.163818 -1257.980713
v -208.084900 -413.471710 -1272.191406
v -232.810654 -366.149963 -1139.968018
v -181.108063 -378.842163 -1125.757324
v 35.500610 -263.919434 -1237.273438
v 24.567108 -242.994247 -1178.805908
v -4.590492 -332.149689 -1152.350098
v 6.342834 -353.074860 -1210.818115
v 80.191223 -274.890259 -1224.990234
v 69.257751 -253.965103 -1166.522217
v 40.100067 -343.120514 -1140.066650
v 51.033463 -364.045685 -1198.534668
v 148.582092 -291.679199 -1206.192627
v 137.648621 -270.753967 -1147.724609
v 108.490875 -359.909393 -1121.269287
v 119.424255 -380.834595 -1179.737061
v 192.590759 -302.482666 -1194.096680
v 181.657227 -281.557434 -1135.628662
v 152.499634 -370.712860 -1109.173096
v 163.433014 -391.638031 -1167.640869
v -4.990761 -654.525574 -2012.738281
v -56.693375 -641.833435 -2026.948975
v 9.246002 -440.210754 -2086.777588
v 60.948685 -452.903015 -2072.566650
v -76.115677 376.671997 -983.572510
v -171.397964 400.062317 -1009.761536
v -89.078400 401.480957 -914.252991
v -184.360626 424.871155 -940.442017
v 6.203796 378.090637 -888.064148
v 19.166641 353.281860 -957.383423
v -28.474442 364.977051 -970.477966
v -41.437332 389.785706 -901.158508
vn 0.9383 -0.2303 0.2579
vn 0.1734 -0.3319 -0.9273
vn -0.9383 0.2303 -0.2579
vn 0.2992 0.9148 -0.2714
vn -0.2992 -0.9148 0.2714
vn -0.1734 0.3319 0.9273
vn -0.3388 -0.4631 0.8190
vn -0.3776 -0.8828 0.2795
vn -0.2824 0.2450 0.9275
vn -0.9387 0.2303 -0.2565
vn 0.9387 -0.2303 0.2565
vn 0.0575 -0.6316 -0.7732
vn 0.0548 -0.6373 -0.7687
vn -0.0575 0.6316 0.7732
vn 0.5286 -0.3957 -0.7510
vn -0.7714 0.5396 -0.3374
vn -0.1659 0.2159 0.9622
vn -0.2660 -0.9120 0.3122
vn -0.0268 0.6952 0.7183
vn -0.2144 0.1977 0.9565
vn -0.3099 -0.8910 0.3319
vn 0.2098 0.2144 0.9539
vn 0.2682 -0.8900 0.3687
vn 0.7672 0.6358 -0.0841
vn 0.8977 -0.3339 0.2874
usemtl Matériau.011
s off
f 45//1 46//1 4//1 3//1
f 49//2 50//2 8//2 7//2
f 47//3 48//3 6//3 5//3
f 26//1 25//1 9//1 10//1
f 72//4 47//4 5//4 51//4
f 96//5 46//5 2//5 74//5
f 10//1 9//1 13//1 14//1
f 84//6 9//6 29//6 90//6
f 89//5 26//5 10//5 75//5
f 27//3 28//3 11//3 12//3
f 76//7 14//7 18//7 77//7
f 75//8 10//8 14//8 76//8
f 12//3 11//3 15//3 16//3
f 53//4 12//4 16//4 55//4
f 86//9 77//9 18//9 17//9
f 16//10 15//10 19//10 20//10
f 16//3 20//3 24//3 22//3
f 14//11 13//11 17//11 18//11
f 59//12 22//12 42//12 69//12
f 86//6 17//6 23//6 88//6
f 17//1 13//1 21//1 23//1
f 55//2 16//2 22//2 59//2
f 5//3 6//3 28//3 27//3
f 74//5 2//5 26//5 89//5
f 51//4 5//4 27//4 62//4
f 2//1 1//1 25//1 26//1
f 32//3 30//3 34//3 36//3
f 62//2 27//2 32//2 64//2
f 27//3 12//3 30//3 32//3
f 9//1 25//1 31//1 29//1
f 66//4 36//4 34//4 65//4
f 90//5 29//5 37//5 92//5
f 64//2 32//2 36//2 66//2
f 29//1 31//1 35//1 33//1
f 92//6 37//6 39//6 93//6
f 29//1 33//1 39//1 37//1
f 34//3 30//3 38//3 40//3
f 65//4 34//4 40//4 68//4
f 69//13 42//13 124//13 123//13
f 23//1 21//1 41//1 43//1
f 88//14 23//14 43//14 95//14
f 22//3 24//3 44//3 42//3
f 82//5 4//5 46//5 96//5
f 49//4 7//4 47//4 72//4
f 7//3 8//3 48//3 47//3
f 46//15 45//15 103//15 106//15
f 73//4 49//4 72//4 81//4
f 8//5 50//5 71//5 48//5
f 24//14 60//14 70//14 44//14
f 42//16 44//16 126//16 124//16
f 91//4 65//4 68//4 93//4
f 38//6 67//6 68//6 40//6
f 79//2 64//2 66//2 80//2
f 30//5 63//5 67//5 38//5
f 80//4 66//4 65//4 91//4
f 78//2 62//2 64//2 79//2
f 83//4 51//4 62//4 78//4
f 6//5 52//5 61//5 28//5
f 85//2 55//2 59//2 87//2
f 20//6 57//6 60//6 24//6
f 87//12 59//12 69//12 94//12
f 20//17 19//17 58//17 57//17
f 84//4 53//4 55//4 85//4
f 11//18 54//18 56//18 15//18
f 15//7 56//7 58//7 19//7
f 28//5 61//5 54//5 11//5
f 12//6 53//6 63//6 30//6
f 48//5 71//5 52//5 6//5
f 81//4 72//4 51//4 83//4
f 50//3 49//3 121//3 120//3
f 3//2 4//2 82//2 73//2
f 45//4 81//4 83//4 1//4
f 9//4 84//4 85//4 13//4
f 21//12 87//12 94//12 41//12
f 13//2 85//2 87//2 21//2
f 1//4 83//4 78//4 25//4
f 25//2 78//2 79//2 31//2
f 35//4 80//4 91//4 33//4
f 31//2 79//2 80//2 35//2
f 33//4 91//4 93//4 39//4
f 70//19 95//19 130//19 125//19
f 3//4 73//4 81//4 45//4
f 50//5 82//5 96//5 71//5
f 60//14 88//14 95//14 70//14
f 67//6 92//6 93//6 68//6
f 63//5 90//5 92//5 67//5
f 52//3 71//3 100//3 101//3
f 57//6 86//6 88//6 60//6
f 57//20 58//20 77//20 86//20
f 54//21 75//21 76//21 56//21
f 56//7 76//7 77//7 58//7
f 61//5 89//5 75//5 54//5
f 53//6 84//6 90//6 63//6
f 89//6 61//6 98//6 97//6
f 101//5 102//5 97//5 98//5
f 100//5 99//5 102//5 101//5
f 61//3 52//3 101//3 98//3
f 74//1 89//1 97//1 102//1
f 71//2 96//2 99//2 100//2
f 96//1 74//1 102//1 99//1
f 106//2 103//2 107//2 110//2
f 1//22 2//22 105//22 104//22
f 2//23 46//23 106//23 105//23
f 45//24 1//24 104//24 103//24
f 109//5 110//5 114//5 113//5
f 104//6 105//6 109//6 108//6
f 105//5 106//5 110//5 109//5
f 103//4 104//4 108//4 107//4
f 113//5 114//5 118//5 117//5
f 107//4 108//4 112//4 111//4
f 110//2 107//2 111//2 114//2
f 108//6 109//6 113//6 112//6
f 116//1 117//1 118//1 115//1
f 111//4 112//4 116//4 115//4
f 114//2 111//2 115//2 118//2
f 122//2 119//2 120//2 121//2
f 82//5 50//5 120//5 119//5
f 73//1 82//1 119//1 122//1
f 49//4 73//4 122//4 121//4
f 123//4 124//4 126//4 125//4
f 129//4 123//4 125//4 130//4
f 128//4 129//4 130//4 127//4
f 95//19 43//19 127//19 130//19
f 94//13 69//13 123//13 129//13
f 43//25 41//25 128//25 127//25
f 44//19 70//19 125//19 126//19
f 41//13 94//13 129//13 128//13
o Cube.048_Cube.024
v -476.199005 565.820068 135.902710
v -671.914185 427.100189 106.748833
v -379.546051 471.579956 -64.533257
v -575.509705 332.629333 -93.934181
v -604.022827 683.054443 -51.840523
v -704.371399 611.928894 -66.788521
v -554.466187 634.734985 -154.609680
v -654.290894 563.769226 -169.114838
v -444.990295 283.693756 -470.372040
v -325.801086 321.435852 -450.570465
v -354.955994 436.530823 -494.454132
v -474.145203 398.788757 -514.255737
v -380.204529 241.418823 -672.627258
v -292.573944 269.167603 -658.068542
v -314.009338 353.788025 -690.332825
v -401.639862 326.039215 -704.891479
v -338.203217 217.417664 -799.614319
v -274.163910 237.696167 -788.975037
v -289.828644 299.535645 -812.553406
v -353.867950 279.257202 -823.192444
v -432.619232 569.925964 -114.260338
v -639.661987 423.465576 -144.451599
v -535.314331 670.059387 98.481163
v -743.090027 522.791138 67.530785
v -335.331482 378.520874 -477.078217
v -461.865509 338.453033 -498.100189
v -295.959076 306.855408 -691.195557
v -388.989746 277.396667 -706.651306
v -273.351562 261.352234 -825.558289
v -341.337158 239.824066 -836.853149
v -314.285065 186.882812 -885.381653
v -250.245789 207.161316 -874.742493
v -248.347473 233.195923 -922.395447
v -316.332947 211.667816 -933.690491
v -329.030609 250.735352 -918.328369
v -264.991455 271.013733 -907.689209
v -297.402374 166.152222 -947.488586
v -233.363129 186.430786 -936.849365
v -231.464813 212.465332 -984.502380
v -299.450378 190.937256 -995.797302
v -312.148132 230.004608 -980.435120
v -248.108765 250.283081 -969.795959
v -270.035217 134.834534 -975.063293
v -228.816040 147.886841 -968.215149
v -227.594086 164.644226 -998.887268
v -271.353363 150.787598 -1006.157288
v -297.502319 211.868958 -1047.418701
v -310.200043 250.936401 -1032.056519
v -246.160767 271.214844 -1021.417419
v -229.516754 233.397003 -1036.123779
v -252.334076 112.463196 -993.380676
v -224.545227 121.262634 -988.763855
v -223.721558 132.559937 -1009.442078
v -253.222687 123.218262 -1014.343445
v -237.362823 98.205078 -1020.987732
v -219.991455 103.705750 -1018.101746
v -219.476654 110.767700 -1031.027832
v -237.918152 104.928162 -1034.091919
v -287.520111 233.194336 -1070.820190
v -295.962921 259.170776 -1060.605591
v -253.382538 272.654114 -1053.531494
v -242.315826 247.508575 -1063.309937
v -320.495850 421.407837 488.576080
v -375.927429 242.215118 336.211761
v -153.300110 503.736359 330.164276
v -214.197388 326.840515 177.846619
v -465.384979 536.664917 312.356720
v -493.806305 444.787842 234.235260
v -371.373047 581.832520 231.863220
v -410.882812 488.177612 153.036987
v -148.714050 388.845428 -90.525536
v -73.463196 309.604980 -30.194405
v 26.638977 367.484100 -76.378548
v -45.673157 446.088501 -136.660370
v -131.606262 257.215668 -261.617401
v -77.620300 195.382263 -217.763031
v -1.862305 237.468658 -251.682373
v -55.848267 299.302063 -295.536926
v -118.056885 174.391113 -368.492981
v -78.604675 129.203979 -336.444672
v -23.241760 159.960205 -361.232422
v -62.693909 205.147308 -393.280701
v -235.550110 571.412659 297.165894
v -313.589630 384.036743 134.929733
v -426.438568 484.431519 464.807373
v -485.286011 294.196442 303.053864
v -21.665833 327.443787 -56.602509
v -99.618652 416.728058 -119.926109
v -38.625977 203.297516 -248.520233
v -95.938660 268.941559 -295.077057
v -50.497009 127.027283 -369.668274
v -92.380310 174.998901 -403.691437
v -123.671021 116.821045 -442.753815
v -84.218750 71.634033 -410.705414
v -51.715271 66.218323 -453.907379
v -93.598572 114.189941 -487.930511
v -64.588013 144.836182 -475.986115
v -25.135864 99.649048 -443.937836
v -126.617737 76.048584 -496.614227
v -87.165710 30.861511 -464.565948
v -54.661926 25.445618 -507.767975
v -96.545349 73.417358 -541.791138
v -67.534729 104.063660 -529.846802
v -28.082458 58.876648 -497.798431
v -141.318970 32.007141 -514.898987
v -115.925415 2.922241 -494.270905
v -95.004272 -0.563904 -522.078125
v -121.962708 30.313416 -543.977295
v -68.073853 64.839600 -588.934753
v -39.063171 95.485962 -576.990295
v 0.389038 50.298767 -544.942078
v -26.190491 16.867920 -554.911499
v -152.697449 2.565125 -527.269653
v -135.577881 -17.043091 -513.362854
v -121.473511 -19.393433 -532.109802
v -139.648071 1.423340 -546.873535
v -156.029663 -24.045105 -548.958069
v -145.328003 -36.302368 -540.264587
v -136.511047 -37.771362 -551.983459
v -147.872375 -24.758728 -561.212463
v -41.059753 57.548462 -606.798645
v -21.770081 77.925720 -598.856506
v 4.462097 47.880371 -577.547241
v -13.210876 25.651672 -584.176086
vn 0.4290 -0.7201 0.5453
vn -0.2922 0.7684 -0.5694
vn -0.4297 0.7186 -0.5468
vn -0.2718 0.1849 0.9444
vn 0.5037 0.8496 -0.1567
vn -0.7845 -0.6133 -0.0918
vn -0.2106 0.8840 -0.4174
vn 0.9252 0.3793 0.0136
vn -0.8992 -0.1998 -0.3892
vn 0.4239 -0.8460 0.3233
vn -0.9337 -0.2171 -0.2848
vn 0.9736 0.2010 0.1086
vn -0.9341 -0.2477 -0.2572
vn 0.2487 -0.9291 0.2739
vn 0.9254 0.3538 0.1358
vn 0.2521 -0.9322 0.2596
vn -0.2066 0.8785 -0.4308
vn 0.9814 0.1606 0.1051
vn 0.9278 0.3724 0.0244
vn 0.2209 -0.8977 0.3812
vn -0.8976 -0.3915 -0.2023
vn 0.9371 0.3449 0.0537
vn -0.8800 -0.4288 -0.2041
vn -0.7922 -0.5649 -0.2309
vn 0.6778 0.7260 -0.1163
vn -0.9145 -0.1611 -0.3711
vn 0.8348 0.5286 0.1541
vn -0.5782 0.7467 0.3288
vn -0.2259 0.9039 -0.3631
vn -0.9286 -0.3446 -0.1374
vn -0.2335 0.9130 -0.3347
vn 0.9530 0.2465 0.1761
vn -0.9272 -0.3489 -0.1363
vn -0.9542 -0.2414 -0.1765
vn 0.9245 0.3398 0.1727
vn 0.0686 -0.6248 0.7778
vn 0.9520 0.2510 0.1750
vn 0.9252 0.3555 0.1328
vn -0.9542 -0.2396 -0.1794
vn 0.2259 -0.9039 0.3631
vn 0.0565 0.3181 -0.9464
vn -0.8242 -0.5173 -0.2305
vn 0.9957 0.0590 0.0719
vn 0.0659 0.2923 -0.9540
vn 0.8739 0.4531 -0.1762
vn -0.9565 -0.2559 -0.1399
vn -0.3349 0.8775 0.3432
vn 0.3349 -0.8775 -0.3432
vn -0.0996 0.6904 -0.7166
vn 0.9919 0.0905 0.0889
vn -0.8440 -0.4909 -0.2161
vn 0.0592 -0.6040 0.7948
vn 0.3367 -0.8319 -0.4411
vn 0.9906 0.0998 0.0940
vn -0.8499 -0.4827 -0.2116
vn 0.1763 -0.8324 0.5255
vn 0.0350 0.3755 -0.9261
vn -0.8782 -0.1017 -0.4673
vn 0.3336 -0.7633 -0.5533
vn -0.3170 0.9416 0.1135
vn 0.6971 -0.5838 0.4162
vn 0.1485 0.9633 -0.2236
vn -0.6816 0.6017 -0.4163
vn -0.4577 -0.4895 0.7422
vn -0.1162 0.9258 0.3596
vn -0.1855 -0.7753 -0.6037
vn 0.8063 0.4063 -0.4299
vn 0.9051 0.4073 0.1224
vn -0.6714 -0.2107 -0.7105
vn 0.2656 -0.9293 0.2567
vn -0.4814 0.6516 -0.5862
vn 0.4917 -0.7494 0.4434
vn -0.5143 0.6481 -0.5616
vn -0.8042 -0.5034 0.3160
vn 0.6290 -0.6347 0.4488
vn -0.8132 -0.5054 0.2885
vn 0.8078 0.3952 -0.4373
vn 0.4758 -0.7672 0.4302
vn 0.6653 -0.6619 0.3453
vn -0.8124 -0.4295 0.3944
vn -0.6431 0.5766 -0.5039
vn 0.6657 -0.6496 0.3672
vn -0.6710 0.5463 -0.5014
vn -0.5680 -0.7016 -0.4303
vn 0.5484 0.8333 -0.0700
vn -0.5411 -0.3747 -0.7529
vn 0.2794 0.6916 0.6660
vn -0.9607 0.0685 0.2689
vn 0.8134 0.4415 -0.3787
vn -0.6214 0.6407 -0.4510
vn 0.8143 0.4599 -0.3540
vn 0.5333 -0.6886 0.4913
vn -0.6251 0.6381 -0.4496
vn -0.5289 0.6916 -0.4919
vn 0.6097 -0.6287 0.4826
vn -0.6797 -0.0760 0.7295
vn 0.5372 -0.6864 0.4902
vn 0.6311 -0.6347 0.4460
vn -0.5267 0.6914 -0.4945
vn -0.8134 -0.4415 0.3787
vn 0.4688 -0.2008 -0.8602
vn -0.7286 0.4556 -0.5115
vn 0.3926 -0.8286 0.3992
vn 0.4496 -0.2212 -0.8654
vn 0.7538 -0.6416 0.1418
vn -0.5491 0.6986 -0.4587
vn 0.6345 0.7314 0.2501
vn -0.6345 -0.7313 -0.2501
vn 0.7192 0.1461 -0.6793
vn 0.4175 -0.8082 0.4154
vn -0.7136 0.4873 -0.5034
vn -0.6666 -0.0547 0.7434
vn -0.5757 -0.7437 -0.3399
vn 0.4248 -0.8019 0.4201
vn -0.7088 0.4969 -0.5007
vn -0.7916 -0.3234 0.5184
vn 0.5108 -0.1539 -0.8458
vn -0.3256 0.5947 -0.7351
vn -0.4951 -0.7470 -0.4438
vn 0.7376 0.6739 0.0422
usemtl Matériau.012
s off
f 131//26 132//26 134//26 133//26
f 138//27 137//27 141//27 142//27
f 137//28 138//28 136//28 135//28
f 153//29 154//29 132//29 131//29
f 151//30 137//30 135//30 153//30
f 152//31 134//31 132//31 154//31
f 142//32 141//32 145//32 146//32
f 151//33 133//33 140//33 155//33
f 152//34 138//34 142//34 156//34
f 133//35 134//35 139//35 140//35
f 158//36 146//36 150//36 160//36
f 155//37 140//37 144//37 157//37
f 156//38 142//38 146//38 158//38
f 140//39 139//39 143//39 144//39
f 149//40 159//40 163//40 166//40
f 144//41 143//41 147//41 148//41
f 146//42 145//42 149//42 150//42
f 157//43 144//43 148//43 159//43
f 145//44 157//44 159//44 149//44
f 148//45 147//45 161//45 162//45
f 139//46 156//46 158//46 143//46
f 141//47 155//47 157//47 145//47
f 143//48 158//48 160//48 147//48
f 134//49 152//49 156//49 139//49
f 137//50 151//50 155//50 141//50
f 138//51 152//51 154//51 136//51
f 133//52 151//52 153//52 131//52
f 135//53 136//53 154//53 153//53
f 165//54 166//54 172//54 171//54
f 161//55 164//55 170//55 167//55
f 150//56 149//56 166//56 165//56
f 159//57 148//57 162//57 163//57
f 147//58 160//58 164//58 161//58
f 160//59 150//59 165//59 164//59
f 172//60 169//60 180//60 179//60
f 168//61 167//61 173//61 174//61
f 163//62 162//62 168//62 169//62
f 166//63 163//63 169//63 172//63
f 164//64 165//64 171//64 170//64
f 162//65 161//65 167//65 168//65
f 176//66 175//66 183//66 184//66
f 167//67 170//67 176//67 173//67
f 169//68 168//68 174//68 175//68
f 170//69 169//69 175//69 176//69
f 179//70 180//70 192//70 191//70
f 170//71 171//71 178//71 177//71
f 171//72 172//72 179//72 178//72
f 169//73 170//73 177//73 180//73
f 184//74 183//74 187//74 188//74
f 175//75 174//75 182//75 183//75
f 173//76 176//76 184//76 181//76
f 174//77 173//77 181//77 182//77
f 186//78 185//78 188//78 187//78
f 183//79 182//79 186//79 187//79
f 181//80 184//80 188//80 185//80
f 182//81 181//81 185//81 186//81
f 192//82 189//82 190//82 191//82
f 177//83 178//83 190//83 189//83
f 180//84 177//84 189//84 192//84
f 178//85 179//85 191//85 190//85
f 193//86 194//86 196//86 195//86
f 200//87 199//87 203//87 204//87
f 199//88 200//88 198//88 197//88
f 215//89 216//89 194//89 193//89
f 213//90 199//90 197//90 215//90
f 214//91 196//91 194//91 216//91
f 204//92 203//92 207//92 208//92
f 213//93 195//93 202//93 217//93
f 214//94 200//94 204//94 218//94
f 195//95 196//95 201//95 202//95
f 220//96 208//96 212//96 222//96
f 217//97 202//97 206//97 219//97
f 218//98 204//98 208//98 220//98
f 202//99 201//99 205//99 206//99
f 211//100 221//100 225//100 228//100
f 206//101 205//101 209//101 210//101
f 208//102 207//102 211//102 212//102
f 219//103 206//103 210//103 221//103
f 207//104 219//104 221//104 211//104
f 210//105 209//105 223//105 224//105
f 201//106 218//106 220//106 205//106
f 203//107 217//107 219//107 207//107
f 205//108 220//108 222//108 209//108
f 196//109 214//109 218//109 201//109
f 199//110 213//110 217//110 203//110
f 200//111 214//111 216//111 198//111
f 195//112 213//112 215//112 193//112
f 197//113 198//113 216//113 215//113
f 227//114 228//114 234//114 233//114
f 223//115 226//115 232//115 229//115
f 212//116 211//116 228//116 227//116
f 221//117 210//117 224//117 225//117
f 209//118 222//118 226//118 223//118
f 222//119 212//119 227//119 226//119
f 234//120 231//120 242//120 241//120
f 230//121 229//121 235//121 236//121
f 225//122 224//122 230//122 231//122
f 228//123 225//123 231//123 234//123
f 226//124 227//124 233//124 232//124
f 224//125 223//125 229//125 230//125
f 238//126 237//126 245//126 246//126
f 229//127 232//127 238//127 235//127
f 231//128 230//128 236//128 237//128
f 232//129 231//129 237//129 238//129
f 241//130 242//130 254//130 253//130
f 232//131 233//131 240//131 239//131
f 233//132 234//132 241//132 240//132
f 231//133 232//133 239//133 242//133
f 246//134 245//134 249//134 250//134
f 237//135 236//135 244//135 245//135
f 235//136 238//136 246//136 243//136
f 236//137 235//137 243//137 244//137
f 248//138 247//138 250//138 249//138
f 245//139 244//139 248//139 249//139
f 243//140 246//140 250//140 247//140
f 244//141 243//141 247//141 248//141
f 254//142 251//142 252//142 253//142
f 239//143 240//143 252//143 251//143
f 242//144 239//144 251//144 254//144
f 240//145 241//145 253//145 252//145
