# Blender v2.91.2 OBJ File: 'camionnete02.blend'
# www.blender.org
mtllib arme_000108.mtl
o Cube.046_Cube.010
v 333.940887 797.834351 -1016.191223
v 334.771637 586.719604 -1079.507812
v 436.374756 854.267700 -1203.011108
v 437.205475 643.152832 -1266.327881
v 138.785263 826.556641 -1114.519531
v 139.615967 615.441895 -1177.835938
v 241.219147 882.989868 -1301.339355
v 242.049850 671.875122 -1364.656006
v 192.909683 720.136963 -758.977173
v 193.740402 509.022308 -822.293762
v -1.415180 537.744385 -920.621826
v -2.245899 748.859253 -857.305237
v 129.083847 684.973877 -642.570862
v 129.914551 473.859100 -705.887512
v -65.241074 502.581268 -804.215576
v -66.071793 713.696045 -740.899109
v 91.378357 664.201050 -573.803345
v 98.432175 514.082642 -631.275635
v -96.723495 542.804810 -729.603760
v -103.777267 692.923218 -672.131470
v 214.913147 732.259277 -799.107239
v 215.743881 521.144531 -862.423828
v 19.757545 760.981445 -897.435425
v 20.588236 549.866699 -960.752014
v 400.212402 834.344971 -1137.057861
v 401.043121 623.230225 -1200.374634
v 205.056808 863.067139 -1235.386108
v 205.887543 651.952393 -1298.702637
v 338.796936 868.628784 -1252.175293
v 339.627686 657.513916 -1315.491943
v 236.363052 812.195557 -1065.355225
v 237.193817 601.080688 -1128.671875
v 95.331894 734.498047 -808.141174
v 96.162598 523.383301 -871.457764
v 31.506031 699.334961 -691.734985
v 35.155064 493.601166 -738.898010
v -6.199432 678.562134 -622.967407
v 13.926421 520.723999 -688.587036
v 118.166061 535.505615 -911.587891
v 117.335342 746.620361 -848.271362
v 303.465332 637.591309 -1249.538574
v 302.634644 848.706055 -1186.221924
v 387.585876 861.448120 -1227.593018
v 285.982697 593.900146 -1104.089844
v 144.951477 516.202759 -846.875793
v 68.053543 488.759308 -722.322205
v 46.824898 515.882202 -672.011292
v 166.124252 739.439697 -823.689270
v 351.423523 841.525513 -1161.639893
v 388.416595 650.333374 -1290.909912
v 285.151978 805.015015 -1040.773438
v 144.120789 727.317505 -783.559265
v 80.294922 692.154419 -667.152893
v 42.589462 671.381592 -598.385376
v 166.954971 528.325073 -887.005920
v 352.254211 630.410767 -1224.956665
v 167.110504 488.796661 -898.861084
v 118.321594 495.977203 -923.443054
v 352.409760 590.882446 -1236.811890
v 303.620880 598.062988 -1261.393799
v 237.349304 561.552368 -1140.527100
v 286.138245 554.371826 -1115.945068
v 464.229248 753.172974 -1079.556396
v 434.924622 737.028442 -1026.110352
v 435.292053 643.675659 -1054.108154
v 464.596558 659.820190 -1107.554321
v 506.401337 746.966309 -1058.308228
v 477.096710 730.821777 -1004.862183
v 477.464081 637.468994 -1032.860107
v 506.768616 653.613525 -1086.306152
v 570.938049 737.468140 -1025.791870
v 541.633423 721.323608 -972.345764
v 542.000793 627.970703 -1000.343689
v 571.305359 644.115479 -1053.789795
v 612.466614 731.356201 -1004.867981
v 583.161987 715.211548 -951.421875
v 583.529480 621.858765 -979.419800
v 612.833984 638.003418 -1032.865967
v 724.931580 835.727417 -1904.648438
v 676.142639 842.907959 -1929.230469
v 675.311829 1054.022827 -1865.914062
v 724.100830 1046.842407 -1841.332031
vn 0.8854 -0.1303 0.4461
vn 0.4647 0.2560 -0.8476
vn -0.8854 0.1303 -0.4461
vn -0.0038 0.9578 0.2873
vn 0.0038 -0.9578 -0.2873
vn -0.3060 -0.8860 0.3485
vn -0.0808 -0.9522 -0.2946
vn -0.5326 -0.3502 0.7705
vn -0.8861 0.1295 -0.4451
vn 0.8861 -0.1295 0.4451
vn 0.7757 0.1841 -0.6037
vn -0.4230 -0.3683 0.8279
vn 0.0248 -0.9703 -0.2407
vn -0.4594 -0.3903 0.7979
vn -0.0268 -0.9726 -0.2309
vn -0.4647 -0.2560 0.8476
vn 0.4648 0.2560 -0.8476
vn -0.0788 -0.2867 0.9548
vn 0.4917 -0.8707 0.0066
vn 0.4854 0.7269 0.4857
usemtl Matériau.011
s off
f 25//1 26//1 4//1 3//1
f 29//2 30//2 8//2 7//2
f 27//3 28//3 6//3 5//3
f 22//1 21//1 9//1 10//1
f 42//4 27//4 5//4 31//4
f 56//5 26//5 2//5 44//5
f 10//1 9//1 13//1 14//1
f 55//5 22//5 10//5 45//5
f 23//3 24//3 11//3 12//3
f 46//6 14//6 18//6 47//6
f 45//7 10//7 14//7 46//7
f 12//3 11//3 15//3 16//3
f 33//4 12//4 16//4 35//4
f 54//8 47//8 18//8 17//8
f 16//9 15//9 19//9 20//9
f 14//10 13//10 17//10 18//10
f 5//3 6//3 24//3 23//3
f 44//5 2//5 22//5 55//5
f 31//4 5//4 23//4 40//4
f 2//1 1//1 21//1 22//1
f 50//5 4//5 26//5 56//5
f 29//4 7//4 27//4 42//4
f 7//3 8//3 28//3 27//3
f 26//11 25//11 63//11 66//11
f 43//4 29//4 42//4 49//4
f 8//5 30//5 41//5 28//5
f 51//4 31//4 40//4 48//4
f 6//5 32//5 39//5 24//5
f 20//12 19//12 38//12 37//12
f 52//4 33//4 35//4 53//4
f 11//13 34//13 36//13 15//13
f 15//6 36//6 38//6 19//6
f 24//5 39//5 34//5 11//5
f 28//5 41//5 32//5 6//5
f 49//4 42//4 31//4 51//4
f 30//3 29//3 81//3 80//3
f 3//2 4//2 50//2 43//2
f 25//4 49//4 51//4 1//4
f 9//4 52//4 53//4 13//4
f 1//4 51//4 48//4 21//4
f 3//4 43//4 49//4 25//4
f 30//5 50//5 56//5 41//5
f 32//3 41//3 60//3 61//3
f 37//14 38//14 47//14 54//14
f 34//15 45//15 46//15 36//15
f 36//6 46//6 47//6 38//6
f 39//5 55//5 45//5 34//5
f 55//16 39//16 58//16 57//16
f 61//5 62//5 57//5 58//5
f 60//5 59//5 62//5 61//5
f 39//3 32//3 61//3 58//3
f 44//1 55//1 57//1 62//1
f 41//2 56//2 59//2 60//2
f 56//1 44//1 62//1 59//1
f 66//17 63//17 67//17 70//17
f 1//18 2//18 65//18 64//18
f 2//19 26//19 66//19 65//19
f 25//20 1//20 64//20 63//20
f 69//5 70//5 74//5 73//5
f 64//16 65//16 69//16 68//16
f 65//5 66//5 70//5 69//5
f 63//4 64//4 68//4 67//4
f 73//5 74//5 78//5 77//5
f 67//4 68//4 72//4 71//4
f 70//2 67//2 71//2 74//2
f 68//16 69//16 73//16 72//16
f 76//1 77//1 78//1 75//1
f 71//4 72//4 76//4 75//4
f 74//2 71//2 75//2 78//2
f 82//2 79//2 80//2 81//2
f 50//5 30//5 80//5 79//5
f 43//1 50//1 79//1 82//1
f 29//4 43//4 82//4 81//4
o Cube.048_Cube.024
v -558.431030 487.417450 173.025574
v -711.639587 334.188873 66.041138
v -417.395660 483.380249 -23.163795
v -570.626587 328.188019 -133.131866
v -684.008728 635.923340 7.174587
v -762.563049 557.358765 -47.679329
v -611.695984 633.853333 -93.417213
v -690.091614 554.778015 -147.961792
v -356.567810 471.073181 -479.436310
v -265.713196 516.426270 -403.864044
v -325.028656 628.168213 -399.613312
v -415.883270 582.815063 -475.185577
v -241.539886 557.276978 -641.390137
v -174.741577 590.621521 -585.827576
v -218.351593 672.776733 -582.702454
v -285.149933 639.432129 -638.264832
v -169.031799 613.764160 -741.478271
v -120.216492 638.132080 -700.873901
v -152.086060 698.169922 -698.590149
v -200.901489 673.802124 -739.194336
v -484.656799 581.642212 -50.928368
v -647.150757 417.518402 -165.575592
v -634.425415 586.105042 157.327728
v -797.075256 423.434082 43.750534
v -289.689148 575.395386 -403.896118
v -386.142487 527.247437 -484.125275
v -184.774902 638.457764 -597.670410
v -255.689606 603.058350 -656.656677
v -120.657959 677.155884 -720.252747
v -172.481445 651.286438 -763.359070
v -118.929932 639.223267 -816.990540
v -70.114441 663.591064 -776.386414
v -68.196289 710.673401 -803.438049
v -120.019775 684.803894 -846.544495
v -148.802490 706.080872 -821.200317
v -99.987183 730.448730 -780.596130
v -83.546692 658.701538 -871.218506
v -34.731384 683.069397 -830.614197
v -32.813171 730.151611 -857.666016
v -84.636719 704.282104 -900.772339
v -113.419434 725.559143 -875.428162
v -64.604065 749.926941 -834.823975
v -41.751709 653.335510 -897.948547
v -10.331482 669.019958 -871.813477
v -9.096741 699.324646 -889.225403
v -42.453247 682.673706 -916.971069
v -80.027954 749.291443 -933.324463
v -108.810730 770.568359 -907.980286
v -59.995361 794.936218 -867.376038
v -28.204529 775.160828 -890.217957
v -13.856567 648.383728 -916.567932
v 7.326111 658.957703 -898.948364
v 8.158508 679.388306 -910.687012
v -14.329468 668.162720 -929.392456
v 10.492188 654.458435 -940.228455
v 23.733704 661.068420 -929.214233
v 24.254028 673.839844 -936.552185
v 10.196655 666.822571 -948.245239
v -73.936584 781.314941 -939.604187
v -93.074646 795.462158 -922.752258
v -60.616699 811.664612 -895.754028
v -39.478394 798.515808 -910.942078
v -273.630737 606.230225 330.775391
v -309.585052 368.335876 353.384003
v -121.602295 561.066162 147.450714
v -161.966919 328.246033 166.303162
v -434.344818 552.526978 139.419006
v -452.779572 430.551941 151.011078
v -353.862732 535.260742 43.551643
v -377.091644 409.996735 55.089489
v 6.992065 240.071655 -148.382660
v 109.990967 296.721649 -101.755196
v 101.369324 386.488434 -189.503784
v -0.102356 330.994049 -236.163300
v 142.440369 141.496094 -285.598297
v 218.740662 181.468140 -250.362427
v 213.524658 248.316193 -314.900665
v 137.224304 208.344238 -350.136627
v 228.779236 82.132690 -372.128510
v 284.538391 111.343689 -346.378479
v 280.726624 160.195557 -393.542267
v 224.967407 130.984375 -419.292267
v -219.234558 584.018555 84.876617
v -268.252655 330.974670 105.574432
v -386.797607 626.089050 280.182037
v -424.967529 373.534882 304.183838
v 113.610168 338.511841 -146.301514
v 3.436401 280.794403 -197.180328
v 229.230896 205.800476 -293.107147
v 148.228516 163.365479 -330.514343
v 299.828552 121.802185 -385.817535
v 240.633179 90.791199 -413.154114
v 282.576050 28.106506 -427.333282
v 338.335266 57.317444 -401.583069
v 358.895081 66.535034 -451.025482
v 299.699707 35.523987 -478.362213
v 283.224060 75.907837 -482.962677
v 338.983337 105.118835 -457.212738
v 321.166443 -9.763428 -467.937286
v 376.925598 19.447632 -442.187317
v 397.485657 28.665039 -491.629791
v 338.290100 -2.345947 -518.966492
v 321.814331 38.038086 -523.567017
v 377.573547 67.249146 -497.816925
v 356.058533 -45.289307 -471.187469
v 391.948303 -26.487610 -454.613495
v 405.181824 -20.554688 -486.437225
v 367.080383 -40.515076 -504.032623
v 360.258362 0.791992 -570.096375
v 343.782532 41.176086 -574.696777
v 399.541931 70.386963 -548.946960
v 419.453552 31.803101 -542.759705
v 378.750549 -70.412476 -472.989044
v 402.946350 -57.736755 -461.815338
v 411.867981 -53.737061 -483.270233
v 386.181091 -67.193604 -495.132538
v 402.668640 -91.206360 -486.594757
v 417.793762 -83.282776 -479.609772
v 423.370789 -80.782227 -493.021393
v 407.313660 -89.194336 -500.436676
v 378.963806 14.293701 -593.967896
v 368.008972 41.145630 -597.026794
v 405.084045 60.568359 -579.905212
v 418.323547 34.913391 -575.791199
vn 0.5074 -0.7726 0.3816
vn -0.3918 0.8639 -0.3165
vn -0.5075 0.7715 -0.3837
vn -0.4281 -0.1890 0.8838
vn 0.3123 0.9276 0.2050
vn -0.6079 -0.6780 -0.4132
vn -0.4272 0.9037 -0.0287
vn 0.7685 0.5134 0.3819
vn -0.7361 -0.1879 -0.6502
vn 0.5853 -0.8047 0.0997
vn -0.7140 -0.2218 -0.6641
vn 0.7916 0.3106 0.5262
vn -0.7089 -0.2617 -0.6550
vn 0.5072 -0.8565 -0.0957
vn 0.6871 0.4115 0.5988
vn 0.5143 -0.8508 -0.1076
vn -0.4189 0.9071 -0.0408
vn 0.8141 0.2809 0.5083
vn 0.7049 0.4865 0.5162
vn 0.4489 -0.8936 -0.0034
vn -0.6347 -0.4014 -0.6603
vn 0.7175 0.4503 0.5315
vn -0.6049 -0.4274 -0.6719
vn -0.5569 -0.5621 -0.6115
vn 0.4598 0.8280 0.3210
vn -0.8012 -0.1802 -0.5706
vn 0.6639 0.5856 0.4651
vn -0.7717 0.4820 0.4148
vn -0.4593 0.8881 0.0193
vn -0.6930 -0.4038 -0.5972
vn -0.4752 0.8788 0.0440
vn 0.7429 0.3078 0.5945
vn -0.6904 -0.4076 -0.5977
vn -0.7457 -0.3037 -0.5930
vn 0.6839 0.3803 0.6226
vn 0.1317 -0.9118 0.3889
vn 0.7406 0.3118 0.5952
vn 0.6868 0.4145 0.5970
vn -0.7457 -0.3006 -0.5946
vn 0.4593 -0.8881 -0.0193
vn 0.1271 0.7756 -0.6183
vn -0.5167 -0.4744 -0.7127
vn 0.8705 0.2180 0.4412
vn 0.1466 0.7605 -0.6326
vn 0.6671 0.6481 0.3674
vn -0.7500 -0.3355 -0.5701
vn -0.6914 0.4686 0.5500
vn 0.6914 -0.4686 -0.5500
vn -0.1959 0.9267 -0.3207
vn 0.8523 0.2341 0.4678
vn -0.5472 -0.4645 -0.6963
vn 0.1121 -0.9057 0.4088
vn 0.6963 -0.3787 -0.6098
vn 0.8466 0.2388 0.4756
vn -0.5564 -0.4614 -0.6911
vn 0.3555 -0.9258 0.1282
vn 0.0827 0.8075 -0.5840
vn -0.6685 -0.0186 -0.7435
vn 0.6912 -0.2634 -0.6729
vn -0.6520 0.6469 0.3956
vn 0.7679 -0.0684 0.6369
vn -0.3942 0.4298 -0.8124
vn -0.7668 0.0695 -0.6381
vn -0.3826 0.1445 0.9125
vn -0.2269 0.8982 -0.3764
vn -0.1007 -0.9861 0.1319
vn -0.0158 0.6678 -0.7442
vn 0.6279 0.7738 -0.0834
vn -0.5261 -0.7434 -0.4129
vn 0.6279 -0.3763 0.6813
vn -0.7615 -0.3941 -0.5145
vn 0.8644 0.3236 0.3849
vn -0.7733 -0.4139 -0.4803
vn 0.1065 -0.7504 0.6524
vn 0.8143 0.4734 0.3359
vn 0.1086 -0.7659 0.6337
vn -0.0031 0.6645 -0.7472
vn 0.8723 0.2877 0.3954
vn 0.8592 0.4550 0.2339
vn 0.0346 -0.6972 0.7160
vn -0.7644 -0.5276 -0.3706
vn 0.8522 0.4522 0.2631
vn -0.7485 -0.5613 -0.3531
vn -0.3399 -0.9399 -0.0320
vn 0.2189 0.8950 -0.3886
vn -0.5046 -0.8351 -0.2192
vn 0.2192 0.9749 -0.0396
vn -0.9573 0.1671 0.2360
vn -0.0459 0.7084 -0.7043
vn -0.8164 -0.4656 -0.3416
vn -0.0634 0.7253 -0.6855
vn 0.8215 0.3885 0.4174
vn -0.8156 -0.4691 -0.3387
vn -0.8224 -0.3840 -0.4199
vn 0.7991 0.4721 0.3723
vn -0.2490 -0.3280 0.9113
vn 0.8211 0.3922 0.4146
vn 0.8152 0.4741 0.3327
vn -0.8211 -0.3832 -0.4230
vn 0.0459 -0.7084 0.7043
vn 0.4201 -0.0020 -0.9075
vn -0.6893 -0.6473 -0.3254
vn 0.8952 0.1829 0.4064
vn 0.4310 -0.0277 -0.9019
vn 0.8877 0.4602 0.0130
vn -0.8388 -0.3860 -0.3841
vn -0.4153 0.9013 -0.1231
vn 0.4153 -0.9013 0.1231
vn 0.1991 0.4062 -0.8918
vn 0.8862 0.2176 0.4091
vn -0.7124 -0.6198 -0.3291
vn -0.2636 -0.3038 0.9155
vn 0.4554 -0.8900 0.0235
vn 0.8833 0.2279 0.4098
vn -0.7193 -0.6113 -0.3302
vn -0.0596 -0.5937 0.8025
vn 0.3941 0.0563 -0.9173
vn -0.6378 -0.3390 -0.6915
vn 0.4970 -0.8622 -0.0982
vn -0.3099 0.8889 -0.3374
usemtl Matériau.012
s off
f 83//21 84//21 86//21 85//21
f 90//22 89//22 93//22 94//22
f 89//23 90//23 88//23 87//23
f 105//24 106//24 84//24 83//24
f 103//25 89//25 87//25 105//25
f 104//26 86//26 84//26 106//26
f 94//27 93//27 97//27 98//27
f 103//28 85//28 92//28 107//28
f 104//29 90//29 94//29 108//29
f 85//30 86//30 91//30 92//30
f 110//31 98//31 102//31 112//31
f 107//32 92//32 96//32 109//32
f 108//33 94//33 98//33 110//33
f 92//34 91//34 95//34 96//34
f 101//35 111//35 115//35 118//35
f 96//36 95//36 99//36 100//36
f 98//37 97//37 101//37 102//37
f 109//38 96//38 100//38 111//38
f 97//39 109//39 111//39 101//39
f 100//40 99//40 113//40 114//40
f 91//41 108//41 110//41 95//41
f 93//42 107//42 109//42 97//42
f 95//43 110//43 112//43 99//43
f 86//44 104//44 108//44 91//44
f 89//45 103//45 107//45 93//45
f 90//46 104//46 106//46 88//46
f 85//47 103//47 105//47 83//47
f 87//48 88//48 106//48 105//48
f 117//49 118//49 124//49 123//49
f 113//50 116//50 122//50 119//50
f 102//51 101//51 118//51 117//51
f 111//52 100//52 114//52 115//52
f 99//53 112//53 116//53 113//53
f 112//54 102//54 117//54 116//54
f 124//55 121//55 132//55 131//55
f 120//56 119//56 125//56 126//56
f 115//57 114//57 120//57 121//57
f 118//58 115//58 121//58 124//58
f 116//59 117//59 123//59 122//59
f 114//60 113//60 119//60 120//60
f 128//61 127//61 135//61 136//61
f 119//62 122//62 128//62 125//62
f 121//63 120//63 126//63 127//63
f 122//64 121//64 127//64 128//64
f 131//65 132//65 144//65 143//65
f 122//66 123//66 130//66 129//66
f 123//67 124//67 131//67 130//67
f 121//68 122//68 129//68 132//68
f 136//69 135//69 139//69 140//69
f 127//70 126//70 134//70 135//70
f 125//71 128//71 136//71 133//71
f 126//72 125//72 133//72 134//72
f 138//73 137//73 140//73 139//73
f 135//74 134//74 138//74 139//74
f 133//75 136//75 140//75 137//75
f 134//76 133//76 137//76 138//76
f 144//77 141//77 142//77 143//77
f 129//78 130//78 142//78 141//78
f 132//79 129//79 141//79 144//79
f 130//80 131//80 143//80 142//80
f 145//81 146//81 148//81 147//81
f 152//82 151//82 155//82 156//82
f 151//83 152//83 150//83 149//83
f 167//84 168//84 146//84 145//84
f 165//85 151//85 149//85 167//85
f 166//86 148//86 146//86 168//86
f 156//87 155//87 159//87 160//87
f 165//88 147//88 154//88 169//88
f 166//89 152//89 156//89 170//89
f 147//90 148//90 153//90 154//90
f 172//91 160//91 164//91 174//91
f 169//92 154//92 158//92 171//92
f 170//93 156//93 160//93 172//93
f 154//94 153//94 157//94 158//94
f 163//95 173//95 177//95 180//95
f 158//96 157//96 161//96 162//96
f 160//97 159//97 163//97 164//97
f 171//98 158//98 162//98 173//98
f 159//99 171//99 173//99 163//99
f 162//100 161//100 175//100 176//100
f 153//101 170//101 172//101 157//101
f 155//102 169//102 171//102 159//102
f 157//103 172//103 174//103 161//103
f 148//104 166//104 170//104 153//104
f 151//105 165//105 169//105 155//105
f 152//106 166//106 168//106 150//106
f 147//107 165//107 167//107 145//107
f 149//108 150//108 168//108 167//108
f 179//109 180//109 186//109 185//109
f 175//110 178//110 184//110 181//110
f 164//111 163//111 180//111 179//111
f 173//112 162//112 176//112 177//112
f 161//113 174//113 178//113 175//113
f 174//114 164//114 179//114 178//114
f 186//115 183//115 194//115 193//115
f 182//116 181//116 187//116 188//116
f 177//117 176//117 182//117 183//117
f 180//118 177//118 183//118 186//118
f 178//119 179//119 185//119 184//119
f 176//120 175//120 181//120 182//120
f 190//121 189//121 197//121 198//121
f 181//122 184//122 190//122 187//122
f 183//123 182//123 188//123 189//123
f 184//124 183//124 189//124 190//124
f 193//125 194//125 206//125 205//125
f 184//126 185//126 192//126 191//126
f 185//127 186//127 193//127 192//127
f 183//128 184//128 191//128 194//128
f 198//129 197//129 201//129 202//129
f 189//130 188//130 196//130 197//130
f 187//131 190//131 198//131 195//131
f 188//132 187//132 195//132 196//132
f 200//133 199//133 202//133 201//133
f 197//134 196//134 200//134 201//134
f 195//135 198//135 202//135 199//135
f 196//136 195//136 199//136 200//136
f 206//137 203//137 204//137 205//137
f 191//138 192//138 204//138 203//138
f 194//139 191//139 203//139 206//139
f 192//140 193//140 205//140 204//140
