# Blender v2.91.2 OBJ File: 'camionnete02.blend'
# www.blender.org
mtllib arme_000062.mtl
o Cube.046_Cube.010
v 366.649200 259.307953 -1021.327881
v 367.915314 38.904861 -1021.274902
v 485.270447 259.944733 -1207.090332
v 486.536560 39.541656 -1207.037476
v 180.889954 258.212372 -1139.950806
v 182.156021 37.809265 -1139.897827
v 299.511169 258.849182 -1325.713257
v 300.777283 38.446060 -1325.660400
v 203.331253 258.431183 -765.569702
v 204.597351 38.028137 -765.516724
v 18.838100 36.932541 -884.139648
v 17.572010 257.335632 -884.192566
v 129.419189 258.034424 -649.822205
v 130.685272 37.631332 -649.769348
v -55.074036 36.535736 -768.392212
v -56.340126 256.938843 -768.445190
v 85.755219 257.800018 -581.443909
v 94.114136 97.516220 -592.739990
v -91.645210 96.420654 -711.362915
v -100.004105 256.704468 -700.066772
v 128.156982 477.756134 -649.875061
v -57.602276 476.660553 -768.498047
v 84.493050 477.521759 -581.496704
v -101.266228 476.426178 -700.119629
v 228.811874 258.567963 -805.472656
v 230.077972 38.164917 -805.419739
v 43.052601 257.472412 -924.095581
v 44.318665 37.069321 -924.042664
v 202.913315 331.187897 -765.587158
v 17.154047 330.092377 -884.210144
v 228.393921 331.324677 -805.490112
v 42.634636 330.229095 -924.112976
v 202.306976 436.746002 -765.612549
v 16.547697 435.650421 -884.235352
v 227.787537 436.882782 -805.515503
v 42.028301 435.787201 -924.138367
v 130.671768 330.800079 -652.455811
v -55.087540 329.704498 -771.078735
v 130.065384 436.358246 -652.481140
v -55.693905 435.262604 -771.104065
v 154.939651 614.687744 -693.080322
v -30.819626 613.592163 -811.703308
v 111.275681 614.453369 -624.702026
v -74.483551 613.357666 -743.324890
v 443.393463 259.719940 -1141.510498
v 444.659576 39.316849 -1141.457642
v 257.634186 258.624359 -1260.133301
v 258.900299 38.221252 -1260.080444
v 392.390808 259.396973 -1266.401855
v 393.656921 38.993851 -1266.348999
v 273.769592 258.760162 -1080.639404
v 275.035675 38.357071 -1080.586426
v 110.451637 257.883392 -824.881104
v 111.717712 37.480331 -824.828125
v 36.539539 257.486664 -709.133728
v 37.805614 37.083542 -709.080811
v -7.124417 257.252228 -640.755371
v 1.234482 96.968445 -652.051453
v 35.277336 477.208405 -709.186462
v -8.386593 476.973969 -640.808167
v 137.198318 37.617126 -864.731140
v 135.932236 258.020172 -864.784119
v 110.033684 330.640137 -824.898682
v 135.514282 330.776855 -864.801514
v 109.427338 436.198273 -824.923950
v 134.907928 436.334991 -864.826965
v 37.792110 330.252319 -711.767334
v 37.185745 435.810455 -711.792603
v 62.059998 614.140015 -752.391846
v 18.396044 613.905518 -684.013489
v 351.779907 38.769058 -1200.769043
v 350.513824 259.172150 -1200.821899
v 438.830627 259.670837 -1236.745972
v 321.475494 38.630966 -1050.930664
v 158.157532 37.754242 -795.172485
v 84.245422 37.357437 -679.425110
v 47.674301 97.242325 -622.395752
v 182.372055 258.294067 -835.128357
v 181.954102 331.050751 -835.145813
v 181.347733 436.608856 -835.171204
v 396.953674 259.446045 -1171.166260
v 440.096741 39.267761 -1236.693237
v 320.209381 259.034058 -1050.983765
v 156.891449 258.157288 -795.225464
v 82.979347 257.760529 -679.477966
v 39.315388 257.526123 -611.099609
v 81.717178 477.482269 -679.530762
v 38.053242 477.247833 -611.152466
v 183.638153 37.891022 -835.075439
v 156.473511 330.914032 -795.242920
v 155.867142 436.472137 -795.268250
v 84.231934 330.526215 -682.111572
v 83.625565 436.084320 -682.136841
v 108.499847 614.413818 -722.736023
v 64.835876 614.179321 -654.357727
v 398.219727 39.042953 -1171.113403
v 183.875214 -3.376442 -835.065552
v 137.435379 -3.650360 -864.721252
v 398.456787 -2.224518 -1171.103516
v 352.016998 -2.498428 -1200.759155
v 275.272736 -2.910416 -1080.576538
v 321.712555 -2.636505 -1050.920776
v 500.649750 198.595306 -1057.970215
v 466.714203 198.413116 -1004.826721
v 467.274170 100.953140 -1004.803162
v 501.209625 101.135315 -1057.946899
v 540.791382 198.832092 -1032.336548
v 506.855865 198.649902 -979.192993
v 507.415771 101.189926 -979.169556
v 541.351257 101.372086 -1032.313110
v 602.220886 199.194397 -993.108826
v 568.285339 199.012207 -939.965210
v 568.845215 101.552261 -939.941772
v 602.780701 101.734436 -993.085449
v 641.749939 199.427551 -967.866211
v 607.814392 199.245361 -914.722656
v 608.374390 101.785385 -914.699219
v 642.309814 101.967560 -967.842773
v 829.790344 41.360046 -1846.958008
v 783.350525 41.086151 -1876.613770
v 782.084290 261.489258 -1876.666748
v 828.524231 261.763153 -1847.010986
vn 0.8428 0.0050 0.5382
vn 0.5382 0.0029 -0.8428
vn -0.8428 -0.0050 -0.5382
vn -0.0057 1.0000 -0.0002
vn 0.0057 -1.0000 0.0002
vn -0.5382 -0.0029 0.8428
vn -0.3533 -0.7492 0.5602
vn -0.5358 -0.0871 0.8398
vn -0.8435 -0.0055 -0.5371
vn 0.8435 0.0055 0.5371
vn 0.5060 -0.3480 -0.7892
vn -0.5060 0.3480 0.7892
vn 0.8264 0.0046 -0.5630
vn -0.1631 -0.0007 0.9866
vn 0.4698 -0.8312 0.2972
vn 0.4602 0.8367 0.2968
usemtl Matériau.011
s off
f 45//1 46//1 4//1 3//1
f 49//2 50//2 8//2 7//2
f 47//3 48//3 6//3 5//3
f 26//1 25//1 9//1 10//1
f 72//4 47//4 5//4 51//4
f 96//5 46//5 2//5 74//5
f 10//1 9//1 13//1 14//1
f 84//6 9//6 29//6 90//6
f 89//5 26//5 10//5 75//5
f 27//3 28//3 11//3 12//3
f 76//7 14//7 18//7 77//7
f 75//5 10//5 14//5 76//5
f 12//3 11//3 15//3 16//3
f 53//4 12//4 16//4 55//4
f 86//8 77//8 18//8 17//8
f 16//9 15//9 19//9 20//9
f 16//3 20//3 24//3 22//3
f 14//10 13//10 17//10 18//10
f 59//11 22//11 42//11 69//11
f 86//6 17//6 23//6 88//6
f 17//1 13//1 21//1 23//1
f 55//2 16//2 22//2 59//2
f 5//3 6//3 28//3 27//3
f 74//5 2//5 26//5 89//5
f 51//4 5//4 27//4 62//4
f 2//1 1//1 25//1 26//1
f 32//3 30//3 34//3 36//3
f 62//2 27//2 32//2 64//2
f 27//3 12//3 30//3 32//3
f 9//1 25//1 31//1 29//1
f 66//4 36//4 34//4 65//4
f 90//5 29//5 37//5 92//5
f 64//2 32//2 36//2 66//2
f 29//1 31//1 35//1 33//1
f 92//6 37//6 39//6 93//6
f 29//1 33//1 39//1 37//1
f 34//3 30//3 38//3 40//3
f 65//4 34//4 40//4 68//4
f 69//4 42//4 44//4 70//4
f 23//1 21//1 41//1 43//1
f 88//12 23//12 43//12 95//12
f 22//3 24//3 44//3 42//3
f 82//5 4//5 46//5 96//5
f 49//4 7//4 47//4 72//4
f 7//3 8//3 48//3 47//3
f 46//13 45//13 103//13 106//13
f 73//4 49//4 72//4 81//4
f 8//5 50//5 71//5 48//5
f 24//12 60//12 70//12 44//12
f 94//4 69//4 70//4 95//4
f 91//4 65//4 68//4 93//4
f 38//6 67//6 68//6 40//6
f 79//2 64//2 66//2 80//2
f 30//5 63//5 67//5 38//5
f 80//4 66//4 65//4 91//4
f 78//2 62//2 64//2 79//2
f 83//4 51//4 62//4 78//4
f 6//5 52//5 61//5 28//5
f 85//2 55//2 59//2 87//2
f 20//6 57//6 60//6 24//6
f 87//11 59//11 69//11 94//11
f 20//8 19//8 58//8 57//8
f 84//4 53//4 55//4 85//4
f 11//5 54//5 56//5 15//5
f 15//7 56//7 58//7 19//7
f 28//5 61//5 54//5 11//5
f 12//6 53//6 63//6 30//6
f 48//5 71//5 52//5 6//5
f 81//4 72//4 51//4 83//4
f 50//3 49//3 121//3 120//3
f 3//2 4//2 82//2 73//2
f 45//4 81//4 83//4 1//4
f 9//4 84//4 85//4 13//4
f 21//11 87//11 94//11 41//11
f 13//2 85//2 87//2 21//2
f 1//4 83//4 78//4 25//4
f 25//2 78//2 79//2 31//2
f 35//4 80//4 91//4 33//4
f 31//2 79//2 80//2 35//2
f 33//4 91//4 93//4 39//4
f 41//4 94//4 95//4 43//4
f 3//4 73//4 81//4 45//4
f 50//5 82//5 96//5 71//5
f 60//12 88//12 95//12 70//12
f 67//6 92//6 93//6 68//6
f 63//5 90//5 92//5 67//5
f 52//3 71//3 100//3 101//3
f 57//6 86//6 88//6 60//6
f 57//8 58//8 77//8 86//8
f 54//5 75//5 76//5 56//5
f 56//7 76//7 77//7 58//7
f 61//5 89//5 75//5 54//5
f 53//6 84//6 90//6 63//6
f 89//6 61//6 98//6 97//6
f 101//5 102//5 97//5 98//5
f 100//5 99//5 102//5 101//5
f 61//3 52//3 101//3 98//3
f 74//1 89//1 97//1 102//1
f 71//2 96//2 99//2 100//2
f 96//1 74//1 102//1 99//1
f 106//2 103//2 107//2 110//2
f 1//14 2//14 105//14 104//14
f 2//15 46//15 106//15 105//15
f 45//16 1//16 104//16 103//16
f 109//5 110//5 114//5 113//5
f 104//6 105//6 109//6 108//6
f 105//5 106//5 110//5 109//5
f 103//4 104//4 108//4 107//4
f 113//5 114//5 118//5 117//5
f 107//4 108//4 112//4 111//4
f 110//2 107//2 111//2 114//2
f 108//6 109//6 113//6 112//6
f 116//1 117//1 118//1 115//1
f 111//4 112//4 116//4 115//4
f 114//2 111//2 115//2 118//2
f 122//2 119//2 120//2 121//2
f 82//5 50//5 120//5 119//5
f 73//1 82//1 119//1 122//1
f 49//4 73//4 122//4 121//4
o Cube.047_Cube.022
v -252.025223 444.564331 290.774353
v -250.599426 206.026886 252.103561
v -134.618958 479.048615 82.389656
v -133.193176 240.511185 43.718864
v -434.287354 412.407990 114.488106
v -433.556335 290.103149 94.660515
v -374.089905 430.089050 7.643440
v -373.358826 307.784241 -12.184151
v 5.091888 356.974365 -310.019653
v 4.345062 481.921448 -289.763733
v -106.289841 491.118591 -350.574646
v -105.543015 366.171509 -370.830566
v 94.920349 405.448853 -500.997620
v 94.371277 497.312744 -486.105042
v 13.030029 504.074707 -530.814636
v 13.579102 412.210785 -545.707214
v 149.354340 437.950439 -621.190979
v 148.953094 505.083344 -610.307678
v 89.509979 510.024902 -642.980896
v 89.911224 442.891968 -653.864197
v -249.192154 492.556885 41.370056
v -247.678497 239.320007 0.316254
v -373.833374 455.947510 262.596100
v -372.319702 202.710678 221.542297
v -48.276245 491.168518 -324.371277
v -47.483398 358.521790 -345.875488
v 62.847046 506.215637 -524.265015
v 63.429993 408.690796 -540.075317
v 132.416138 513.498779 -649.732300
v 132.842163 442.228912 -661.286255
v 198.147430 451.116150 -700.603821
v 197.746185 518.249084 -689.720520
v 180.951263 528.482788 -740.370483
v 181.377289 457.212952 -751.924438
v 138.485992 457.596497 -742.776855
v 138.084747 524.729431 -731.893555
v 232.047882 460.675903 -758.322327
v 231.646637 527.808838 -747.439026
v 214.851654 538.042542 -798.088989
v 215.277679 466.772675 -809.642944
v 172.386383 467.156250 -800.495361
v 171.985138 534.289185 -789.612061
v 274.093475 476.700928 -779.897339
v 273.835175 519.911377 -772.892212
v 263.025116 526.498291 -805.493347
v 263.299286 480.625122 -812.930115
v 203.867096 475.436859 -863.507996
v 160.975830 475.820435 -854.360352
v 160.574585 542.953369 -843.477051
v 203.441071 546.706726 -851.954041
v 303.342682 486.392639 -794.035706
v 303.168610 515.523926 -789.313049
v 295.880768 519.964661 -811.291809
v 296.065582 489.038269 -816.305481
v 325.492767 496.110413 -818.622803
v 325.383942 514.320740 -815.670593
v 320.828217 517.096680 -829.409851
v 320.943756 497.764191 -832.543945
v 190.463806 491.763489 -889.117249
v 161.944824 492.018494 -883.034790
v 161.678040 536.656067 -875.798340
v 190.180542 539.151733 -881.434875
vn 0.8740 -0.0727 0.4804
vn -0.8050 0.0903 -0.5864
vn -0.8740 0.0727 -0.4804
vn -0.2365 -0.1569 0.9589
vn -0.4257 0.9003 -0.0909
vn 0.0596 -0.9897 -0.1302
vn -0.8337 0.0835 -0.5459
vn 0.1110 0.9924 0.0531
vn -0.2784 -0.8712 -0.4044
vn 0.9357 -0.0510 0.3490
vn -0.0487 -0.9534 -0.2979
vn 0.1023 0.9865 0.1277
vn -0.0243 -0.9636 -0.2663
vn 0.9091 -0.0614 0.4120
vn -0.0601 0.9895 0.1311
vn 0.9153 -0.0591 0.3985
vn -0.8253 0.0856 -0.5582
vn 0.1431 0.9811 0.1303
vn -0.0604 0.9980 0.0185
vn 0.8551 -0.0780 0.5125
vn 0.1141 -0.9751 -0.1903
vn -0.0360 0.9980 0.0517
vn 0.1548 -0.9703 -0.1860
vn 0.1227 -0.9570 -0.2629
vn -0.2893 0.9510 -0.1090
vn -0.4154 -0.8304 -0.3714
vn 0.0479 0.9808 0.1893
vn -0.9163 -0.0694 0.3944
vn -0.8652 0.0752 -0.4957
vn 0.0507 -0.9897 -0.1341
vn -0.8803 0.0708 -0.4692
vn 0.0432 0.9814 0.1872
vn 0.0550 -0.9897 -0.1323
vn -0.0483 -0.9809 -0.1883
vn -0.0527 0.9841 0.1695
vn 0.4929 -0.1364 0.8593
vn 0.0389 0.9819 0.1855
vn -0.0614 0.9899 0.1279
vn -0.0496 -0.9802 -0.1915
vn 0.8652 -0.0752 0.4957
vn -0.1411 0.1576 -0.9774
vn 0.2593 -0.9455 -0.1970
vn 0.2478 0.9623 0.1122
vn -0.1128 0.1583 -0.9809
vn -0.1235 0.9732 -0.1938
vn -0.0409 -0.9878 -0.1502
vn -0.9788 -0.0385 0.2012
vn 0.9788 0.0385 -0.2012
vn -0.5732 0.1278 -0.8094
vn 0.2146 0.9687 0.1246
vn 0.2261 -0.9559 -0.1874
vn 0.4679 -0.1387 0.8728
vn 0.9510 0.0550 -0.3042
vn 0.2047 0.9704 0.1282
vn 0.2159 -0.9588 -0.1845
vn 0.7586 -0.0999 0.6439
vn -0.2047 0.1554 -0.9664
vn -0.1126 -0.8635 -0.4916
vn 0.9022 0.0743 -0.4248
vn -0.9994 -0.0005 -0.0340
usemtl Matériau.012
s off
f 123//17 124//17 126//17 125//17
f 130//18 129//18 133//18 134//18
f 129//19 130//19 128//19 127//19
f 145//20 146//20 124//20 123//20
f 143//21 129//21 127//21 145//21
f 144//22 126//22 124//22 146//22
f 134//23 133//23 137//23 138//23
f 143//24 125//24 132//24 147//24
f 144//25 130//25 134//25 148//25
f 125//26 126//26 131//26 132//26
f 150//27 138//27 142//27 152//27
f 147//28 132//28 136//28 149//28
f 148//29 134//29 138//29 150//29
f 132//30 131//30 135//30 136//30
f 141//31 151//31 155//31 158//31
f 136//32 135//32 139//32 140//32
f 138//33 137//33 141//33 142//33
f 149//34 136//34 140//34 151//34
f 137//35 149//35 151//35 141//35
f 140//36 139//36 153//36 154//36
f 131//37 148//37 150//37 135//37
f 133//38 147//38 149//38 137//38
f 135//39 150//39 152//39 139//39
f 126//40 144//40 148//40 131//40
f 129//41 143//41 147//41 133//41
f 130//42 144//42 146//42 128//42
f 125//43 143//43 145//43 123//43
f 127//44 128//44 146//44 145//44
f 157//45 158//45 164//45 163//45
f 153//46 156//46 162//46 159//46
f 142//47 141//47 158//47 157//47
f 151//48 140//48 154//48 155//48
f 139//49 152//49 156//49 153//49
f 152//50 142//50 157//50 156//50
f 164//51 161//51 172//51 171//51
f 160//52 159//52 165//52 166//52
f 155//53 154//53 160//53 161//53
f 158//54 155//54 161//54 164//54
f 156//55 157//55 163//55 162//55
f 154//56 153//56 159//56 160//56
f 168//57 167//57 175//57 176//57
f 159//58 162//58 168//58 165//58
f 161//59 160//59 166//59 167//59
f 162//60 161//60 167//60 168//60
f 171//61 172//61 184//61 183//61
f 162//62 163//62 170//62 169//62
f 163//63 164//63 171//63 170//63
f 161//64 162//64 169//64 172//64
f 176//65 175//65 179//65 180//65
f 167//66 166//66 174//66 175//66
f 165//67 168//67 176//67 173//67
f 166//68 165//68 173//68 174//68
f 178//69 177//69 180//69 179//69
f 175//70 174//70 178//70 179//70
f 173//71 176//71 180//71 177//71
f 174//72 173//72 177//72 178//72
f 184//73 181//73 182//73 183//73
f 169//74 170//74 182//74 181//74
f 172//75 169//75 181//75 184//75
f 170//76 171//76 183//76 182//76
o Cube.048_Cube.024
v -529.842407 333.748901 108.846863
v -693.565796 219.217163 -27.074806
v -388.198578 361.312927 -84.995422
v -551.921997 246.781219 -220.917099
v -642.596130 523.558716 -19.952168
v -726.541687 464.835114 -89.643005
v -569.971375 537.691589 -119.340530
v -653.916931 478.967957 -189.031387
v -310.591614 368.641388 -511.996338
v -224.832489 428.633667 -440.799896
v -281.075684 539.155640 -466.181732
v -366.834808 479.163330 -537.378174
v -180.521393 415.766968 -678.586975
v -117.469360 459.874634 -626.241699
v -158.820618 541.132874 -644.903015
v -221.872650 497.025177 -697.248291
v -98.630249 448.009674 -782.124939
v -52.552673 480.242981 -743.871704
v -82.771667 539.625427 -757.509094
v -128.849243 507.392120 -795.762329
v -447.605408 468.246277 -90.304726
v -621.417969 346.656738 -234.602310
v -597.977783 438.983643 115.482750
v -771.790344 317.394104 -28.814827
v -247.031189 486.381470 -455.786560
v -338.075043 422.692291 -531.370361
v -125.147217 504.014099 -649.088623
v -192.084717 457.188354 -704.659485
v -50.321045 514.025696 -771.300537
v -99.238098 479.806061 -811.911011
v -41.923523 455.648895 -856.867676
v 4.154114 487.882202 -818.614441
v 9.583008 527.805176 -855.068542
v -39.334045 493.585571 -895.679077
v -69.436646 520.227783 -878.143127
v -23.359070 552.461060 -839.889893
v -1.760742 462.306763 -910.855530
v 44.316833 494.540070 -872.602295
v 49.745728 534.463074 -909.056396
v 0.828674 500.243439 -949.666870
v -29.273926 526.885681 -932.130920
v 16.803650 559.118958 -893.877686
v 41.873352 450.742554 -932.126343
v 71.531433 471.489655 -907.504456
v 75.025879 497.186279 -930.968323
v 43.540161 475.160645 -957.107422
v 9.320374 536.902344 -990.785278
v -20.782288 563.544556 -973.249329
v 25.295349 595.777893 -934.996094
v 58.237366 571.121948 -950.174805
v 71.019287 441.515808 -946.779785
v 91.013916 455.502930 -930.180420
v 93.369751 472.826904 -945.999084
v 72.142944 457.977844 -963.621338
v 97.351624 441.965668 -969.050537
v 109.850525 450.709198 -958.674072
v 111.323242 461.538574 -968.562561
v 98.054138 452.256256 -979.578430
v 16.809875 566.684143 -1003.394592
v -3.205750 584.398865 -991.734619
v 27.431824 605.831177 -966.299622
v 49.335388 589.437195 -976.392212
vn 0.4443 -0.8731 0.2005
vn -0.3660 0.8806 -0.3011
vn -0.4443 0.8731 -0.2005
vn -0.4472 -0.3417 0.8266
vn 0.3801 0.8356 0.3966
vn -0.6489 -0.5268 -0.5491
vn -0.3975 0.8794 -0.2622
vn 0.7792 0.4410 0.4454
vn -0.7394 -0.1004 -0.6657
vn 0.5253 -0.8470 0.0809
vn -0.6645 -0.3557 -0.6572
vn 0.7554 0.4110 0.5103
vn -0.6612 -0.3927 -0.6392
vn 0.4885 -0.8616 0.1377
vn 0.6483 0.5266 0.5499
vn 0.4967 -0.8588 0.1254
vn -0.3882 0.8799 -0.2739
vn 0.7784 0.3779 0.5014
vn 0.6749 0.5812 0.4547
vn 0.4220 -0.8768 0.2305
vn -0.5909 -0.5308 -0.6075
vn 0.6851 0.5492 0.4786
vn -0.5610 -0.5590 -0.6105
vn -0.5588 -0.4950 -0.6654
vn 0.5112 0.7745 0.3726
vn -0.8077 0.0047 -0.5896
vn 0.7036 0.4193 0.5737
vn -0.7355 0.4387 0.5163
vn -0.4338 0.8750 -0.2148
vn -0.6541 -0.5186 -0.5506
vn -0.4519 0.8716 -0.1901
vn 0.7013 0.4239 0.5732
vn -0.6516 -0.5225 -0.5500
vn -0.7041 -0.4195 -0.5729
vn 0.6424 0.5014 0.5797
vn 0.0739 -0.8047 0.5891
vn 0.6991 0.4280 0.5728
vn 0.6483 0.5291 0.5475
vn -0.7039 -0.4168 -0.5751
vn 0.4338 -0.8750 0.2148
vn 0.1985 0.6186 -0.7603
vn -0.4712 -0.6148 -0.6324
vn 0.8382 0.3012 0.4547
vn 0.2186 0.6004 -0.7692
vn 0.6538 0.7063 0.2715
vn -0.7111 -0.4454 -0.5440
vn -0.7196 0.5855 0.3734
vn 0.7196 -0.5855 -0.3734
vn -0.1429 0.8350 -0.5314
vn 0.8183 0.3229 0.4755
vn -0.5026 -0.6012 -0.6212
vn 0.0530 -0.7942 0.6054
vn 0.7318 -0.5111 -0.4508
vn 0.8122 0.3293 0.4815
vn -0.5121 -0.5969 -0.6176
vn 0.3175 -0.8782 0.3576
vn 0.1523 0.6577 -0.7377
vn -0.6069 -0.1756 -0.7751
vn 0.7352 -0.4126 -0.5379
vn -0.6628 0.7249 0.1876
usemtl Matériau.012
s off
f 185//77 186//77 188//77 187//77
f 192//78 191//78 195//78 196//78
f 191//79 192//79 190//79 189//79
f 207//80 208//80 186//80 185//80
f 205//81 191//81 189//81 207//81
f 206//82 188//82 186//82 208//82
f 196//83 195//83 199//83 200//83
f 205//84 187//84 194//84 209//84
f 206//85 192//85 196//85 210//85
f 187//86 188//86 193//86 194//86
f 212//87 200//87 204//87 214//87
f 209//88 194//88 198//88 211//88
f 210//89 196//89 200//89 212//89
f 194//90 193//90 197//90 198//90
f 203//91 213//91 217//91 220//91
f 198//92 197//92 201//92 202//92
f 200//93 199//93 203//93 204//93
f 211//94 198//94 202//94 213//94
f 199//95 211//95 213//95 203//95
f 202//96 201//96 215//96 216//96
f 193//97 210//97 212//97 197//97
f 195//98 209//98 211//98 199//98
f 197//99 212//99 214//99 201//99
f 188//100 206//100 210//100 193//100
f 191//101 205//101 209//101 195//101
f 192//102 206//102 208//102 190//102
f 187//103 205//103 207//103 185//103
f 189//104 190//104 208//104 207//104
f 219//105 220//105 226//105 225//105
f 215//106 218//106 224//106 221//106
f 204//107 203//107 220//107 219//107
f 213//108 202//108 216//108 217//108
f 201//109 214//109 218//109 215//109
f 214//110 204//110 219//110 218//110
f 226//111 223//111 234//111 233//111
f 222//112 221//112 227//112 228//112
f 217//113 216//113 222//113 223//113
f 220//114 217//114 223//114 226//114
f 218//115 219//115 225//115 224//115
f 216//116 215//116 221//116 222//116
f 230//117 229//117 237//117 238//117
f 221//118 224//118 230//118 227//118
f 223//119 222//119 228//119 229//119
f 224//120 223//120 229//120 230//120
f 233//121 234//121 246//121 245//121
f 224//122 225//122 232//122 231//122
f 225//123 226//123 233//123 232//123
f 223//124 224//124 231//124 234//124
f 238//125 237//125 241//125 242//125
f 229//126 228//126 236//126 237//126
f 227//127 230//127 238//127 235//127
f 228//128 227//128 235//128 236//128
f 240//129 239//129 242//129 241//129
f 237//130 236//130 240//130 241//130
f 235//131 238//131 242//131 239//131
f 236//132 235//132 239//132 240//132
f 246//133 243//133 244//133 245//133
f 231//134 232//134 244//134 243//134
f 234//135 231//135 243//135 246//135
f 232//136 233//136 245//136 244//136
