# Blender v2.91.2 OBJ File: 'camionnete02.blend'
# www.blender.org
mtllib arme_000111.mtl
o Cube.046_Cube.010
v 275.960449 754.715942 -1093.982056
v 283.130249 538.179138 -1134.473145
v 365.049438 794.617859 -1291.593018
v 372.219238 578.081055 -1332.084229
v 74.488754 764.654297 -1182.804932
v 81.658539 548.117432 -1223.296021
v 163.577759 804.556091 -1380.415771
v 170.747574 588.019348 -1420.906860
v 153.302490 699.778931 -821.911011
v 160.472290 483.242126 -862.402100
v -40.999359 493.180420 -951.224854
v -48.169159 709.717224 -910.733765
v 97.791748 674.916321 -698.780945
v 104.961540 458.379517 -739.272034
v -96.510147 468.317810 -828.094788
v -103.679962 684.854675 -787.603760
v 64.998459 660.228577 -626.041260
v 75.847443 505.163757 -667.581055
v -125.624283 515.102112 -756.403870
v -136.473267 670.166931 -714.864014
v 172.439407 708.350098 -864.359070
v 179.609207 491.813293 -904.850159
v -29.032295 718.288452 -953.181946
v -21.862495 501.751587 -993.672974
v 333.598267 780.531250 -1221.830200
v 340.768066 563.994385 -1262.321289
v 132.126572 790.469543 -1310.653076
v 139.296402 573.932678 -1351.144165
v 264.313599 799.587036 -1336.004395
v 271.483398 583.050171 -1376.495483
v 175.224594 759.685120 -1138.393433
v 182.394424 543.148254 -1178.884521
v 52.566669 704.748047 -866.322327
v 59.736458 488.211243 -906.813354
v -2.944099 679.885498 -743.192261
v 7.686836 470.562805 -768.392517
v -35.737373 665.197815 -670.452637
v -11.944878 502.109619 -720.051025
v 78.873337 496.782471 -949.261536
v 71.703552 713.319214 -908.770508
v 240.032211 568.963501 -1306.732788
v 232.862411 785.500366 -1266.241577
v 314.681580 797.102417 -1313.798584
v 232.762299 540.663696 -1156.678833
v 110.104362 485.726685 -884.607788
v 41.650047 468.887451 -753.419189
v 22.018345 500.434204 -705.077637
v 122.071480 710.834656 -886.564758
v 283.230347 783.015808 -1244.036011
v 321.851318 580.565552 -1354.289795
v 225.592499 757.200562 -1116.187988
v 102.934570 702.263489 -844.116760
v 47.423809 677.400940 -720.986572
v 14.630535 662.713135 -648.246948
v 129.241272 494.297852 -927.055908
v 290.400085 566.479004 -1284.527100
v 130.583740 453.754333 -934.637268
v 80.215797 456.238892 -956.842896
v 291.742554 525.935425 -1292.108521
v 241.374680 528.419983 -1314.314209
v 183.736847 502.604736 -1186.465942
v 234.104782 500.120117 -1164.260254
v 404.453613 708.748413 -1160.022339
v 378.966736 697.333130 -1103.489136
v 382.137329 601.582764 -1121.393799
v 407.624023 612.998047 -1177.927124
v 447.990540 706.600830 -1140.828369
v 422.503723 695.185608 -1084.295044
v 425.674133 599.435181 -1102.199829
v 451.161011 610.850464 -1158.732910
v 514.616028 703.314331 -1111.455200
v 489.129150 691.899109 -1054.922119
v 492.299561 596.148682 -1072.826782
v 517.786377 607.563965 -1129.360107
v 557.488647 701.199463 -1092.554077
v 532.001770 689.784180 -1036.020752
v 535.172302 594.033936 -1053.925537
v 560.659058 605.449158 -1110.458740
v 614.525940 711.651123 -2003.478882
v 564.158020 714.135742 -2025.684570
v 556.988159 930.672607 -1985.193481
v 607.356140 928.187988 -1962.987793
vn 0.9141 -0.0451 0.4030
vn 0.4042 0.1810 -0.8966
vn -0.9141 0.0451 -0.4030
vn -0.0325 0.9824 0.1837
vn 0.0325 -0.9824 -0.1837
vn -0.2443 -0.8545 0.4584
vn -0.0525 -0.9811 -0.1865
vn -0.4718 -0.2857 0.8341
vn -0.9146 0.0444 -0.4019
vn 0.9146 -0.0444 0.4019
vn 0.7313 0.1487 -0.6657
vn -0.3584 -0.2929 0.8864
vn 0.0567 -0.9889 -0.1374
vn -0.3954 -0.3196 0.8611
vn 0.0059 -0.9922 -0.1243
vn -0.4042 -0.1810 0.8966
vn -0.0119 -0.1842 0.9828
vn 0.5315 -0.8442 0.0692
vn 0.4772 0.7945 0.3756
usemtl Matériau.011
s off
f 25//1 26//1 4//1 3//1
f 29//2 30//2 8//2 7//2
f 27//3 28//3 6//3 5//3
f 22//1 21//1 9//1 10//1
f 42//4 27//4 5//4 31//4
f 56//5 26//5 2//5 44//5
f 10//1 9//1 13//1 14//1
f 55//5 22//5 10//5 45//5
f 23//3 24//3 11//3 12//3
f 46//6 14//6 18//6 47//6
f 45//7 10//7 14//7 46//7
f 12//3 11//3 15//3 16//3
f 33//4 12//4 16//4 35//4
f 54//8 47//8 18//8 17//8
f 16//9 15//9 19//9 20//9
f 14//10 13//10 17//10 18//10
f 5//3 6//3 24//3 23//3
f 44//5 2//5 22//5 55//5
f 31//4 5//4 23//4 40//4
f 2//1 1//1 21//1 22//1
f 50//5 4//5 26//5 56//5
f 29//4 7//4 27//4 42//4
f 7//3 8//3 28//3 27//3
f 26//11 25//11 63//11 66//11
f 43//4 29//4 42//4 49//4
f 8//5 30//5 41//5 28//5
f 51//4 31//4 40//4 48//4
f 6//5 32//5 39//5 24//5
f 20//12 19//12 38//12 37//12
f 52//4 33//4 35//4 53//4
f 11//13 34//13 36//13 15//13
f 15//6 36//6 38//6 19//6
f 24//5 39//5 34//5 11//5
f 28//5 41//5 32//5 6//5
f 49//4 42//4 31//4 51//4
f 30//3 29//3 81//3 80//3
f 3//2 4//2 50//2 43//2
f 25//4 49//4 51//4 1//4
f 9//4 52//4 53//4 13//4
f 1//4 51//4 48//4 21//4
f 3//4 43//4 49//4 25//4
f 30//5 50//5 56//5 41//5
f 32//3 41//3 60//3 61//3
f 37//14 38//14 47//14 54//14
f 34//15 45//15 46//15 36//15
f 36//6 46//6 47//6 38//6
f 39//5 55//5 45//5 34//5
f 55//16 39//16 58//16 57//16
f 61//5 62//5 57//5 58//5
f 60//5 59//5 62//5 61//5
f 39//3 32//3 61//3 58//3
f 44//1 55//1 57//1 62//1
f 41//2 56//2 59//2 60//2
f 56//1 44//1 62//1 59//1
f 66//2 63//2 67//2 70//2
f 1//17 2//17 65//17 64//17
f 2//18 26//18 66//18 65//18
f 25//19 1//19 64//19 63//19
f 69//5 70//5 74//5 73//5
f 64//16 65//16 69//16 68//16
f 65//5 66//5 70//5 69//5
f 63//4 64//4 68//4 67//4
f 73//5 74//5 78//5 77//5
f 67//4 68//4 72//4 71//4
f 70//2 67//2 71//2 74//2
f 68//16 69//16 73//16 72//16
f 76//1 77//1 78//1 75//1
f 71//4 72//4 76//4 75//4
f 74//2 71//2 75//2 78//2
f 82//2 79//2 80//2 81//2
f 50//5 30//5 80//5 79//5
f 43//1 50//1 79//1 82//1
f 29//4 43//4 82//4 81//4
o Cube.048_Cube.024
v -553.260193 489.602600 167.195099
v -700.337097 328.429260 63.324654
v -414.930359 491.066559 -30.946945
v -561.814331 328.422363 -136.574432
v -688.172119 630.743225 2.245350
v -763.582581 548.105103 -51.011917
v -617.246460 631.493835 -99.347603
v -692.395447 548.546997 -152.183777
v -367.452332 460.511871 -484.765411
v -274.740845 517.451172 -420.072998
v -338.889130 626.498230 -424.119598
v -431.600647 569.558899 -488.812103
v -265.806946 533.195557 -661.618103
v -197.643463 575.058716 -614.054626
v -244.806702 655.232544 -617.029846
v -312.970337 613.369385 -664.593262
v -201.723419 581.363281 -771.340576
v -151.910400 611.956238 -736.582031
v -186.376709 670.546143 -738.756165
v -236.189758 639.953247 -773.514832
v -487.232422 585.817383 -58.342102
v -642.977295 413.804382 -168.710419
v -634.155701 584.392883 151.979126
v -790.295959 413.287567 41.707932
v -301.413727 575.047729 -424.910339
v -399.838379 514.599487 -493.589386
v -210.549561 620.878845 -630.277039
v -282.913544 576.436035 -680.771484
v -155.258667 648.593201 -759.929626
v -208.141235 616.114990 -796.830322
v -157.162537 600.474792 -852.022461
v -107.349487 631.067810 -817.263794
v -109.149780 674.970764 -849.224976
v -162.032349 642.492493 -886.125671
v -190.318848 665.213867 -861.486145
v -140.505798 695.806824 -826.727417
v -125.812927 615.362671 -910.053406
v -75.999878 645.955688 -875.294800
v -77.800110 689.858459 -907.255920
v -130.682800 657.380310 -944.156555
v -158.969238 680.101685 -919.517151
v -109.156189 710.694580 -884.758423
v -85.370422 608.821350 -938.544617
v -53.308044 628.512634 -916.171997
v -54.466858 656.770935 -936.743958
v -88.505005 635.866211 -960.495300
v -130.009827 698.735352 -981.519958
v -158.296326 721.456726 -956.880432
v -108.483215 752.049744 -922.121704
v -77.127258 731.213562 -944.619202
v -58.357483 603.009766 -958.188110
v -36.741882 616.285034 -943.105042
v -37.523071 635.336060 -956.974060
v -60.470764 621.242676 -972.986511
v -35.678894 607.458923 -983.790222
v -22.166748 615.757507 -974.361633
v -22.655029 627.666443 -983.031311
v -36.999817 618.856445 -993.040955
v -125.783447 730.107178 -991.519348
v -144.591553 745.214844 -975.136292
v -111.470154 765.556519 -952.024658
v -90.621155 751.702271 -966.983582
v -259.388916 599.498535 338.001495
v -314.144043 365.014709 358.416931
v -113.761597 544.773926 153.163696
v -171.238342 315.240417 170.007675
v -424.934723 560.860474 147.129791
v -453.009216 440.634094 157.597351
v -346.274536 538.398804 50.209023
v -379.737488 415.113373 60.994656
v -13.760925 207.381348 -132.439667
v 91.266846 248.361053 -75.709480
v 106.643250 335.562042 -164.859589
v 3.505615 295.528351 -221.628235
v 117.597656 84.117737 -252.616699
v 195.208130 112.334778 -209.704132
v 207.902893 177.142517 -275.277527
v 130.292358 148.925415 -318.190094
v 201.797485 8.999146 -328.336426
v 258.514221 29.619873 -296.976440
v 267.791321 76.980408 -344.896515
v 211.074646 56.359741 -376.256531
v -208.490906 575.929504 91.226303
v -277.296814 327.106934 109.983658
v -370.879517 628.881958 288.329865
v -429.008789 379.948486 310.003357
v 106.678040 287.375580 -119.887520
v -5.387390 246.631683 -181.851044
v 214.032349 133.339233 -251.341614
v 131.639160 103.383484 -296.898529
v 279.425354 36.265991 -334.621338
v 219.213623 14.374634 -367.913788
v 251.613647 -54.652893 -376.578094
v 308.330261 -34.032166 -345.218201
v 335.273621 -29.765442 -392.208099
v 275.061890 -51.656738 -425.500671
v 265.995789 -9.306091 -432.406982
v 322.712463 11.314636 -401.047028
v 287.600220 -99.470154 -412.192963
v 344.316833 -78.849609 -380.832916
v 371.260315 -74.582947 -427.822998
v 311.048462 -96.474243 -461.115387
v 301.982300 -54.123352 -468.021698
v 358.699036 -33.502625 -436.661774
v 316.359802 -140.236023 -411.121796
v 352.865784 -126.963440 -390.936859
v 370.208069 -124.217163 -421.182220
v 331.452454 -138.307556 -442.611023
v 338.559021 -98.483215 -509.549286
v 329.492859 -56.132324 -516.455688
v 386.209656 -35.511841 -485.095612
v 398.770813 -76.591858 -476.256866
v 334.700012 -168.729858 -410.089020
v 359.311340 -159.781860 -396.480804
v 371.003235 -157.930542 -416.871643
v 344.875183 -167.429932 -431.318207
v 356.209412 -193.512329 -420.707886
v 371.594421 -187.918945 -412.201202
v 378.902771 -186.761353 -424.947662
v 362.570129 -192.699707 -433.978546
v 361.657654 -88.908875 -531.385742
v 355.629456 -60.749146 -535.977905
v 393.341125 -47.038147 -515.126221
v 401.693176 -74.352783 -509.249237
vn 0.5495 -0.7443 0.3795
vn -0.4469 0.8256 -0.3443
vn -0.5495 0.7436 -0.3808
vn -0.4061 -0.2036 0.8909
vn 0.2696 0.9430 0.1949
vn -0.5784 -0.7088 -0.4038
vn -0.4700 0.8772 -0.0985
vn 0.7552 0.5620 0.3374
vn -0.7473 -0.2507 -0.6154
vn 0.6244 -0.7723 0.1173
vn -0.7388 -0.3214 -0.5923
vn 0.8044 0.3977 0.4413
vn -0.7313 -0.3599 -0.5794
vn 0.5405 -0.8406 -0.0348
vn 0.6994 0.5017 0.5091
vn 0.5467 -0.8360 -0.0477
vn -0.4625 0.8796 -0.1114
vn 0.8271 0.3672 0.4254
vn 0.7091 0.5678 0.4180
vn 0.4893 -0.8697 0.0642
vn -0.6511 -0.4962 -0.5743
vn 0.7242 0.5340 0.4363
vn -0.6208 -0.5220 -0.5849
vn -0.5482 -0.6133 -0.5686
vn 0.4333 0.8595 0.2713
vn -0.7974 -0.2254 -0.5598
vn 0.6412 0.6199 0.4522
vn -0.7884 0.4470 0.4228
vn -0.4986 0.8656 -0.0473
vn -0.7056 -0.4940 -0.5079
vn -0.5126 0.8584 -0.0208
vn 0.7597 0.4004 0.5124
vn -0.7029 -0.4978 -0.5081
vn -0.7627 -0.3963 -0.5112
vn 0.6991 0.4731 0.5362
vn 0.1957 -0.8581 0.4748
vn 0.7573 0.4044 0.5128
vn 0.6989 0.5044 0.5070
vn -0.7629 -0.3934 -0.5131
vn 0.4986 -0.8655 0.0473
vn 0.0560 0.7083 -0.7037
vn -0.5329 -0.5696 -0.6257
vn 0.8826 0.2998 0.3621
vn 0.0753 0.6925 -0.7175
vn 0.6555 0.7106 0.2555
vn -0.7641 -0.4256 -0.4848
vn -0.6807 0.4971 0.5380
vn 0.6807 -0.4971 -0.5380
vn -0.2566 0.8777 -0.4048
vn 0.8652 0.3178 0.3879
vn -0.5629 -0.5592 -0.6086
vn 0.1770 -0.8506 0.4951
vn 0.6781 -0.4142 -0.6072
vn 0.8598 0.3231 0.3955
vn -0.5719 -0.5559 -0.6032
vn 0.4051 -0.8913 0.2039
vn 0.0121 0.7420 -0.6703
vn -0.7073 -0.1264 -0.6955
vn 0.6641 -0.3068 -0.6818
vn -0.6584 0.6591 0.3635
vn 0.7654 -0.1346 0.6293
vn -0.3022 0.4840 -0.8212
vn -0.7623 0.1374 -0.6325
vn -0.3648 0.1650 0.9164
vn -0.1581 0.9175 -0.3650
vn -0.1786 -0.9763 0.1225
vn 0.1727 0.6382 -0.7502
vn 0.7159 0.6940 -0.0762
vn -0.5883 -0.6828 -0.4331
vn 0.5529 -0.4368 0.7096
vn -0.7565 -0.2818 -0.5902
vn 0.8588 0.1903 0.4757
vn -0.7749 -0.2984 -0.5572
vn -0.0870 -0.7365 0.6708
vn 0.8402 0.3461 0.4175
vn -0.0863 -0.7536 0.6516
vn 0.1853 0.6332 -0.7515
vn 0.8604 0.1554 0.4854
vn 0.8921 0.3176 0.3213
vn -0.1564 -0.6714 0.7244
vn -0.7964 -0.4086 -0.4457
vn 0.8815 0.3195 0.3476
vn -0.7882 -0.4440 -0.4261
vn -0.4365 -0.8992 -0.0304
vn 0.3206 0.8549 -0.4079
vn -0.5710 -0.7896 -0.2245
vn 0.2965 0.9546 -0.0300
vn -0.9395 0.2406 0.2438
vn 0.1459 0.6847 -0.7141
vn -0.8404 -0.3382 -0.4235
vn 0.1295 0.7047 -0.6975
vn 0.8247 0.2637 0.5003
vn -0.8405 -0.3417 -0.4204
vn -0.8245 -0.2592 -0.5030
vn 0.8212 0.3483 0.4520
vn -0.3950 -0.2555 0.8824
vn 0.8253 0.2673 0.4975
vn 0.8416 0.3465 0.4144
vn -0.8229 -0.2587 -0.5060
vn -0.1459 -0.6847 0.7141
vn 0.5085 -0.0974 -0.8556
vn -0.7472 -0.5374 -0.3910
vn 0.8646 0.0486 0.5001
vn 0.5144 -0.1244 -0.8485
vn 0.9445 0.3113 0.1048
vn -0.8448 -0.2574 -0.4692
vn -0.2468 0.9522 -0.1797
vn 0.2468 -0.9522 0.1797
vn 0.3567 0.3413 -0.8696
vn 0.8611 0.0844 0.5014
vn -0.7649 -0.5067 -0.3976
vn -0.4059 -0.2292 0.8847
vn 0.2987 -0.9506 0.0849
vn 0.8598 0.0951 0.5016
vn -0.7701 -0.4972 -0.3996
vn -0.2411 -0.5514 0.7986
vn 0.4936 -0.0360 -0.8690
vn -0.6073 -0.2528 -0.7532
vn 0.3570 -0.9336 -0.0317
vn -0.1226 0.9165 -0.3809
usemtl Matériau.012
s off
f 83//20 84//20 86//20 85//20
f 90//21 89//21 93//21 94//21
f 89//22 90//22 88//22 87//22
f 105//23 106//23 84//23 83//23
f 103//24 89//24 87//24 105//24
f 104//25 86//25 84//25 106//25
f 94//26 93//26 97//26 98//26
f 103//27 85//27 92//27 107//27
f 104//28 90//28 94//28 108//28
f 85//29 86//29 91//29 92//29
f 110//30 98//30 102//30 112//30
f 107//31 92//31 96//31 109//31
f 108//32 94//32 98//32 110//32
f 92//33 91//33 95//33 96//33
f 101//34 111//34 115//34 118//34
f 96//35 95//35 99//35 100//35
f 98//36 97//36 101//36 102//36
f 109//37 96//37 100//37 111//37
f 97//38 109//38 111//38 101//38
f 100//39 99//39 113//39 114//39
f 91//40 108//40 110//40 95//40
f 93//41 107//41 109//41 97//41
f 95//42 110//42 112//42 99//42
f 86//43 104//43 108//43 91//43
f 89//44 103//44 107//44 93//44
f 90//45 104//45 106//45 88//45
f 85//46 103//46 105//46 83//46
f 87//47 88//47 106//47 105//47
f 117//48 118//48 124//48 123//48
f 113//49 116//49 122//49 119//49
f 102//50 101//50 118//50 117//50
f 111//51 100//51 114//51 115//51
f 99//52 112//52 116//52 113//52
f 112//53 102//53 117//53 116//53
f 124//54 121//54 132//54 131//54
f 120//55 119//55 125//55 126//55
f 115//56 114//56 120//56 121//56
f 118//57 115//57 121//57 124//57
f 116//58 117//58 123//58 122//58
f 114//59 113//59 119//59 120//59
f 128//60 127//60 135//60 136//60
f 119//61 122//61 128//61 125//61
f 121//62 120//62 126//62 127//62
f 122//63 121//63 127//63 128//63
f 131//64 132//64 144//64 143//64
f 122//65 123//65 130//65 129//65
f 123//66 124//66 131//66 130//66
f 121//67 122//67 129//67 132//67
f 136//68 135//68 139//68 140//68
f 127//69 126//69 134//69 135//69
f 125//70 128//70 136//70 133//70
f 126//71 125//71 133//71 134//71
f 138//72 137//72 140//72 139//72
f 135//73 134//73 138//73 139//73
f 133//74 136//74 140//74 137//74
f 134//75 133//75 137//75 138//75
f 144//76 141//76 142//76 143//76
f 129//77 130//77 142//77 141//77
f 132//78 129//78 141//78 144//78
f 130//79 131//79 143//79 142//79
f 145//80 146//80 148//80 147//80
f 152//81 151//81 155//81 156//81
f 151//82 152//82 150//82 149//82
f 167//83 168//83 146//83 145//83
f 165//84 151//84 149//84 167//84
f 166//85 148//85 146//85 168//85
f 156//86 155//86 159//86 160//86
f 165//87 147//87 154//87 169//87
f 166//88 152//88 156//88 170//88
f 147//89 148//89 153//89 154//89
f 172//90 160//90 164//90 174//90
f 169//91 154//91 158//91 171//91
f 170//92 156//92 160//92 172//92
f 154//93 153//93 157//93 158//93
f 163//94 173//94 177//94 180//94
f 158//95 157//95 161//95 162//95
f 160//96 159//96 163//96 164//96
f 171//97 158//97 162//97 173//97
f 159//98 171//98 173//98 163//98
f 162//99 161//99 175//99 176//99
f 153//100 170//100 172//100 157//100
f 155//101 169//101 171//101 159//101
f 157//102 172//102 174//102 161//102
f 148//103 166//103 170//103 153//103
f 151//104 165//104 169//104 155//104
f 152//105 166//105 168//105 150//105
f 147//106 165//106 167//106 145//106
f 149//107 150//107 168//107 167//107
f 179//108 180//108 186//108 185//108
f 175//109 178//109 184//109 181//109
f 164//110 163//110 180//110 179//110
f 173//111 162//111 176//111 177//111
f 161//112 174//112 178//112 175//112
f 174//113 164//113 179//113 178//113
f 186//114 183//114 194//114 193//114
f 182//115 181//115 187//115 188//115
f 177//116 176//116 182//116 183//116
f 180//117 177//117 183//117 186//117
f 178//118 179//118 185//118 184//118
f 176//119 175//119 181//119 182//119
f 190//120 189//120 197//120 198//120
f 181//121 184//121 190//121 187//121
f 183//122 182//122 188//122 189//122
f 184//123 183//123 189//123 190//123
f 193//124 194//124 206//124 205//124
f 184//125 185//125 192//125 191//125
f 185//126 186//126 193//126 192//126
f 183//127 184//127 191//127 194//127
f 198//128 197//128 201//128 202//128
f 189//129 188//129 196//129 197//129
f 187//130 190//130 198//130 195//130
f 188//131 187//131 195//131 196//131
f 200//132 199//132 202//132 201//132
f 197//133 196//133 200//133 201//133
f 195//134 198//134 202//134 199//134
f 196//135 195//135 199//135 200//135
f 206//136 203//136 204//136 205//136
f 191//137 192//137 204//137 203//137
f 194//138 191//138 203//138 206//138
f 192//139 193//139 205//139 204//139
