# Blender v2.91.2 OBJ File: 'camionnete02.blend'
# www.blender.org
mtllib arme_000040.mtl
o Cube.046_Cube.010
v 85.870728 171.011414 -1154.180420
v 21.091660 -39.118462 -1139.073364
v 153.264587 135.367401 -1360.981567
v 88.485519 -74.762474 -1345.874390
v -113.730942 227.172394 -1228.907959
v -178.510071 17.042526 -1213.801025
v -46.337067 191.528381 -1435.708862
v -111.116188 -18.601501 -1420.602051
v -6.917328 220.086121 -869.456421
v -71.696419 9.956291 -854.349365
v -271.298065 66.117256 -929.076843
v -206.518967 276.247101 -944.183899
v -48.909966 242.295685 -740.599976
v -113.689095 32.165825 -725.493042
v -313.290771 88.326790 -800.220459
v -248.511673 298.456665 -815.327576
v -73.717392 255.416077 -664.477539
v -116.540672 100.329887 -666.150574
v -316.142395 156.490906 -740.878113
v -273.319092 311.577087 -739.204956
v 15.668823 451.775940 -755.660339
v -183.932831 507.936890 -830.387939
v -9.138565 464.896301 -679.537842
v -208.740219 521.057312 -754.265320
v 7.559326 212.429565 -913.878540
v -57.219772 2.299728 -898.771545
v -192.042358 268.590576 -988.606079
v -256.821472 58.460716 -973.499084
v 14.466736 289.451599 -874.443359
v -185.134918 345.612610 -949.170898
v 28.943405 281.795013 -918.865479
v -170.658264 337.955963 -993.592957
v 45.491547 390.089508 -881.678650
v -154.110107 446.250488 -956.406006
v 59.968140 382.432922 -926.100769
v -139.633484 438.593933 -1000.828308
v -26.576828 311.159149 -748.499329
v -226.178528 367.320129 -823.226868
v 4.447968 411.797058 -755.734558
v -195.153717 467.958008 -830.462097
v 71.533997 573.900024 -813.097839
v -128.067703 630.060974 -887.825378
v 46.726578 587.020386 -736.975403
v -152.875061 643.181335 -811.702820
v 129.472473 147.950867 -1287.974243
v 64.693344 -62.179024 -1272.867432
v -70.129189 204.111816 -1362.701904
v -134.908279 -6.018059 -1347.594727
v 53.463776 163.447906 -1398.345215
v -11.315308 -46.681984 -1383.238281
v -13.930107 199.091919 -1191.544189
v -78.709198 -11.037971 -1176.437134
v -106.718155 248.166595 -906.820129
v -171.497223 38.036789 -891.713074
v -148.710815 270.376190 -777.963745
v -205.828094 69.060310 -750.150635
v -173.518219 283.496582 -701.841248
v -207.750931 115.023537 -710.135925
v -84.132004 479.856506 -793.024109
v -108.939392 492.976868 -716.901672
v -157.020599 30.380211 -936.135315
v -92.241524 240.510040 -951.242371
v -85.334099 317.532104 -911.807190
v -70.857445 309.875458 -956.229248
v -54.309273 418.169983 -919.042358
v -39.832664 410.513397 -963.464539
v -126.377670 339.239685 -785.863159
v -95.352859 439.877625 -793.098328
v -28.266846 601.980530 -850.461609
v -53.074265 615.100830 -774.339050
v -35.107468 -34.098534 -1310.231079
v 29.671646 176.031342 -1325.338013
v 103.364197 149.407654 -1379.663086
v -28.808800 -25.078209 -1157.755249
v -121.596848 23.996544 -873.031250
v -172.180130 59.592934 -737.553406
v -174.102951 105.556160 -697.538696
v -42.341080 226.469788 -932.560425
v -20.957047 295.835236 -937.547424
v 10.067734 396.473145 -944.782654
v 79.572037 161.991089 -1306.656250
v 38.585083 -60.722237 -1364.556396
v 35.970276 185.051636 -1172.862549
v -56.817757 234.126343 -888.138367
v -98.810402 256.335938 -759.281921
v -123.617805 269.456299 -683.159302
v -34.231567 465.816223 -774.342224
v -59.038963 478.936584 -698.219727
v -107.120193 16.339973 -917.453491
v -35.433670 303.491821 -893.125244
v -4.408875 404.129791 -900.360474
v -76.477264 325.199402 -767.181274
v -45.452438 425.837341 -774.416443
v 21.633606 587.940247 -831.779724
v -3.173843 601.060608 -755.657166
v 14.792923 -48.138771 -1291.549194
v -119.249168 -23.003979 -914.624817
v -169.149597 -8.963737 -933.306641
v 2.663910 -87.482719 -1288.720703
v -47.236465 -73.442505 -1307.402466
v -90.838219 -50.381927 -1173.608521
v -40.937775 -64.422157 -1154.926636
v 183.387329 72.101372 -1214.943359
v 164.107056 82.298531 -1155.781250
v 135.462524 -10.618782 -1149.100952
v 154.742676 -20.815910 -1208.263306
v 226.520233 59.965279 -1198.795288
v 207.239960 70.162437 -1139.633057
v 178.595367 -22.754860 -1132.952759
v 197.875580 -32.951988 -1192.115112
v 292.527283 41.393196 -1174.083496
v 273.247070 51.590340 -1114.921143
v 244.602417 -41.326897 -1108.240967
v 263.882568 -51.524055 -1167.403442
v 335.001984 29.442284 -1158.181763
v 315.721741 39.639442 -1099.019409
v 287.077148 -53.277855 -1092.339233
v 306.357361 -63.474968 -1151.501587
v 259.987305 -177.819366 -2043.936768
v 210.086853 -163.779144 -2062.618652
v 274.865845 46.350792 -2077.725830
v 324.766357 32.310524 -2059.043945
v 13.492462 656.449402 -873.106018
v -78.468643 682.324097 -907.534668
v -9.366211 668.539124 -802.963013
v -101.327255 694.413757 -837.391724
v 82.594849 642.664490 -768.534485
v 105.453629 630.574829 -838.677124
v 59.473114 643.512268 -855.891479
v 36.614319 655.601746 -785.748779
vn 0.9056 -0.2548 0.3390
vn 0.3058 -0.1617 -0.9383
vn -0.9056 0.2548 -0.3390
vn 0.2939 0.9534 -0.0685
vn -0.2939 -0.9534 0.0685
vn -0.3058 0.1617 0.9383
vn -0.4228 -0.6050 0.6747
vn -0.3740 -0.9247 0.0712
vn -0.4102 0.0742 0.9090
vn -0.9062 0.2546 -0.3378
vn 0.9062 -0.2546 0.3378
vn 0.1833 -0.4858 -0.8546
vn 0.1803 -0.4923 -0.8516
vn -0.1833 0.4858 0.8546
vn 0.6375 -0.2489 -0.7292
vn -0.7427 0.5761 -0.3413
vn -0.2981 0.0416 0.9536
vn -0.2664 -0.9572 0.1132
vn -0.1484 0.5585 0.8161
vn -0.3446 0.0238 0.9384
vn -0.3134 -0.9407 0.1301
vn 0.0753 0.0484 0.9960
vn 0.2546 -0.9357 0.2442
vn 0.7448 0.6545 0.1299
vn 0.8658 -0.3626 0.3447
usemtl Matériau.011
s off
f 45//1 46//1 4//1 3//1
f 49//2 50//2 8//2 7//2
f 47//3 48//3 6//3 5//3
f 26//1 25//1 9//1 10//1
f 72//4 47//4 5//4 51//4
f 96//5 46//5 2//5 74//5
f 10//1 9//1 13//1 14//1
f 84//6 9//6 29//6 90//6
f 89//5 26//5 10//5 75//5
f 27//3 28//3 11//3 12//3
f 76//7 14//7 18//7 77//7
f 75//8 10//8 14//8 76//8
f 12//3 11//3 15//3 16//3
f 53//4 12//4 16//4 55//4
f 86//9 77//9 18//9 17//9
f 16//10 15//10 19//10 20//10
f 16//3 20//3 24//3 22//3
f 14//11 13//11 17//11 18//11
f 59//12 22//12 42//12 69//12
f 86//6 17//6 23//6 88//6
f 17//1 13//1 21//1 23//1
f 55//2 16//2 22//2 59//2
f 5//3 6//3 28//3 27//3
f 74//5 2//5 26//5 89//5
f 51//4 5//4 27//4 62//4
f 2//1 1//1 25//1 26//1
f 32//3 30//3 34//3 36//3
f 62//2 27//2 32//2 64//2
f 27//3 12//3 30//3 32//3
f 9//1 25//1 31//1 29//1
f 66//4 36//4 34//4 65//4
f 90//5 29//5 37//5 92//5
f 64//2 32//2 36//2 66//2
f 29//1 31//1 35//1 33//1
f 92//6 37//6 39//6 93//6
f 29//1 33//1 39//1 37//1
f 34//3 30//3 38//3 40//3
f 65//4 34//4 40//4 68//4
f 69//13 42//13 124//13 123//13
f 23//1 21//1 41//1 43//1
f 88//14 23//14 43//14 95//14
f 22//3 24//3 44//3 42//3
f 82//5 4//5 46//5 96//5
f 49//4 7//4 47//4 72//4
f 7//3 8//3 48//3 47//3
f 46//15 45//15 103//15 106//15
f 73//4 49//4 72//4 81//4
f 8//5 50//5 71//5 48//5
f 24//14 60//14 70//14 44//14
f 42//16 44//16 126//16 124//16
f 91//4 65//4 68//4 93//4
f 38//6 67//6 68//6 40//6
f 79//2 64//2 66//2 80//2
f 30//5 63//5 67//5 38//5
f 80//4 66//4 65//4 91//4
f 78//2 62//2 64//2 79//2
f 83//4 51//4 62//4 78//4
f 6//5 52//5 61//5 28//5
f 85//2 55//2 59//2 87//2
f 20//6 57//6 60//6 24//6
f 87//12 59//12 69//12 94//12
f 20//17 19//17 58//17 57//17
f 84//4 53//4 55//4 85//4
f 11//18 54//18 56//18 15//18
f 15//7 56//7 58//7 19//7
f 28//5 61//5 54//5 11//5
f 12//6 53//6 63//6 30//6
f 48//5 71//5 52//5 6//5
f 81//4 72//4 51//4 83//4
f 50//3 49//3 121//3 120//3
f 3//2 4//2 82//2 73//2
f 45//4 81//4 83//4 1//4
f 9//4 84//4 85//4 13//4
f 21//12 87//12 94//12 41//12
f 13//2 85//2 87//2 21//2
f 1//4 83//4 78//4 25//4
f 25//2 78//2 79//2 31//2
f 35//4 80//4 91//4 33//4
f 31//2 79//2 80//2 35//2
f 33//4 91//4 93//4 39//4
f 70//19 95//19 130//19 125//19
f 3//4 73//4 81//4 45//4
f 50//5 82//5 96//5 71//5
f 60//14 88//14 95//14 70//14
f 67//6 92//6 93//6 68//6
f 63//5 90//5 92//5 67//5
f 52//3 71//3 100//3 101//3
f 57//6 86//6 88//6 60//6
f 57//20 58//20 77//20 86//20
f 54//21 75//21 76//21 56//21
f 56//7 76//7 77//7 58//7
f 61//5 89//5 75//5 54//5
f 53//6 84//6 90//6 63//6
f 89//6 61//6 98//6 97//6
f 101//5 102//5 97//5 98//5
f 100//5 99//5 102//5 101//5
f 61//3 52//3 101//3 98//3
f 74//1 89//1 97//1 102//1
f 71//2 96//2 99//2 100//2
f 96//1 74//1 102//1 99//1
f 106//2 103//2 107//2 110//2
f 1//22 2//22 105//22 104//22
f 2//23 46//23 106//23 105//23
f 45//24 1//24 104//24 103//24
f 109//5 110//5 114//5 113//5
f 104//6 105//6 109//6 108//6
f 105//5 106//5 110//5 109//5
f 103//4 104//4 108//4 107//4
f 113//5 114//5 118//5 117//5
f 107//4 108//4 112//4 111//4
f 110//2 107//2 111//2 114//2
f 108//6 109//6 113//6 112//6
f 116//1 117//1 118//1 115//1
f 111//4 112//4 116//4 115//4
f 114//2 111//2 115//2 118//2
f 122//2 119//2 120//2 121//2
f 82//5 50//5 120//5 119//5
f 73//1 82//1 119//1 122//1
f 49//4 73//4 122//4 121//4
f 123//4 124//4 126//4 125//4
f 129//4 123//4 125//4 130//4
f 128//4 129//4 130//4 127//4
f 95//19 43//19 127//19 130//19
f 94//13 69//13 123//13 129//13
f 43//25 41//25 128//25 127//25
f 44//19 70//19 125//19 126//19
f 41//13 94//13 129//13 128//13
o Cube.048_Cube.024
v -563.380005 460.491577 182.095627
v -725.653931 340.842010 48.871338
v -423.574829 488.177979 -13.059532
v -586.409241 371.586670 -143.895691
v -680.743591 646.208496 51.461365
v -763.945923 584.860901 -16.846451
v -609.061584 660.404175 -48.600136
v -691.638367 599.939026 -116.447945
v -414.703949 468.661346 -437.822815
v -300.749115 504.517853 -395.975037
v -328.681976 624.959229 -423.109528
v -442.636841 589.102661 -464.957306
v -322.536469 463.518036 -633.706116
v -238.754333 489.880585 -602.938538
v -259.291229 578.431702 -622.888428
v -343.073364 552.069153 -653.655945
v -263.460571 462.814758 -756.080017
v -202.233521 482.080139 -733.595703
v -217.241699 546.792114 -748.174744
v -278.468658 527.526794 -770.659058
v -485.021759 593.883179 -19.429382
v -656.693787 470.644226 -158.285675
v -633.564575 564.429321 187.742798
v -805.838257 437.406525 46.308861
v -309.104004 565.171570 -413.396851
v -430.081024 527.105469 -457.823456
v -239.363068 532.704529 -629.300659
v -328.308075 504.717468 -661.964050
v -197.657074 511.769379 -765.158203
v -262.656921 491.316772 -789.028259
v -227.378265 448.157104 -841.775696
v -166.151428 467.422485 -819.291138
v -159.160706 501.405273 -861.106445
v -224.160522 480.952698 -884.976501
v -240.343292 516.502747 -865.031555
v -179.116394 535.768127 -842.546997
v -201.740051 438.894440 -903.653870
v -140.513123 458.159790 -881.169556
v -133.522522 492.142578 -922.984558
v -198.522339 471.690033 -946.854614
v -214.705078 507.240051 -926.909607
v -153.478088 526.505371 -904.425293
v -169.759216 413.370972 -932.217834
v -130.350220 425.771210 -917.745667
v -125.850586 447.644379 -944.660217
v -167.688110 434.479950 -960.024353
v -190.757202 501.342651 -993.407043
v -206.940002 536.892639 -973.462097
v -145.713013 556.158020 -950.977722
v -125.757385 521.795227 -969.537048
v -148.924255 394.864227 -951.524414
v -122.355774 403.224121 -941.767761
v -119.322266 417.970459 -959.912781
v -147.527771 409.095367 -970.270813
v -129.922607 385.917053 -978.882751
v -113.314392 391.142944 -972.783508
v -111.418091 400.361023 -984.126404
v -129.049744 394.813110 -990.601257
v -178.710510 526.602417 -1011.263977
v -189.470764 550.240051 -998.002014
v -148.760071 563.049805 -983.051941
v -135.491272 540.201599 -995.392517
v -303.296875 518.372314 446.642120
v -297.082947 311.095123 322.565063
v -152.812683 609.132080 279.060486
v -154.031311 414.269165 157.371552
v -461.597168 562.210449 250.811676
v -458.411133 455.933594 187.193909
v -385.253845 614.123657 169.017029
v -385.064514 508.833832 102.494545
v 8.505005 657.356201 -123.402977
v 83.911804 691.974854 -28.407524
v 7.256165 788.623169 -3.375984
v -67.665588 754.910950 -96.874886
v 121.317017 799.358948 -241.725372
v 177.409302 824.117126 -171.712921
v 121.407043 895.841614 -152.208801
v 65.314697 871.083374 -222.221436
v 191.932495 890.356506 -313.827972
v 232.923889 908.449463 -262.663635
v 191.998108 960.864746 -248.410339
v 151.006714 942.771667 -299.574493
v -258.985168 645.567444 238.786163
v -262.044464 434.642639 103.425560
v -420.508240 545.160889 410.521912
v -413.911438 325.110596 278.798828
v 51.996277 744.086243 -15.474220
v -28.998047 708.336609 -116.568718
v 161.020325 871.662964 -171.584137
v 101.471313 845.378906 -245.910950
v 227.958679 950.942627 -270.926697
v 184.441223 931.734619 -325.243866
v 243.354980 942.093445 -373.321777
v 284.346436 960.186279 -322.157410
v 281.063660 1012.793579 -335.345245
v 237.546082 993.585632 -389.662354
v 203.853210 1003.068298 -363.236237
v 244.844604 1021.161194 -312.071991
v 279.509155 980.308472 -415.801392
v 320.500610 998.401367 -364.637238
v 317.217896 1051.008789 -377.825012
v 273.700378 1031.800781 -432.141968
v 240.007263 1041.283325 -405.715668
v 280.998718 1059.376221 -354.551605
v 323.641418 988.019653 -437.778625
v 350.025940 999.665283 -404.846588
v 347.913025 1033.526245 -413.334961
v 319.902649 1021.162842 -448.296356
v 273.831970 1084.316406 -450.818390
v 240.138916 1093.799072 -424.392181
v 281.130554 1111.892090 -373.227997
v 317.349548 1103.524414 -396.501282
v 353.372864 992.079834 -453.554657
v 371.160583 999.931030 -431.352905
v 369.736267 1022.759277 -437.075592
v 350.852478 1014.424194 -460.645660
v 378.298035 1007.587708 -471.661041
v 389.417175 1012.495544 -457.782257
v 388.526794 1026.765503 -461.359528
v 376.722351 1021.555298 -476.093414
v 275.337463 1117.324463 -447.617096
v 252.934387 1123.629395 -430.045776
v 280.190125 1135.659668 -396.026001
v 304.272644 1130.095825 -411.500824
vn 0.4625 -0.8631 0.2027
vn -0.2952 0.9151 -0.2747
vn -0.4629 0.8618 -0.2074
vn -0.4349 -0.3390 0.8342
vn 0.3654 0.8486 0.3825
vn -0.6383 -0.5386 -0.5500
vn -0.1909 0.9393 -0.2851
vn 0.8555 0.4051 0.3225
vn -0.7998 -0.0909 -0.5934
vn 0.4575 -0.8878 0.0503
vn -0.8791 -0.1809 -0.4410
vn 0.9421 0.1965 0.2716
vn -0.8818 -0.2158 -0.4193
vn 0.2491 -0.9579 0.1424
vn 0.8846 0.3413 0.3178
vn 0.2545 -0.9585 0.1284
vn -0.1850 0.9363 -0.2985
vn 0.9520 0.1576 0.2624
vn 0.9006 0.3791 0.2125
vn 0.2064 -0.9463 0.2488
vn -0.8469 -0.3664 -0.3854
vn 0.9072 0.3471 0.2377
vn -0.8277 -0.4024 -0.3911
vn -0.6629 -0.4851 -0.5704
vn 0.5880 0.7566 0.2860
vn -0.8063 -0.0253 -0.5910
vn 0.6988 0.4407 0.5634
vn -0.7408 0.4311 0.5151
vn -0.2139 0.9492 -0.2307
vn -0.8880 -0.3320 -0.3182
vn -0.2255 0.9530 -0.2024
vn 0.9111 0.2292 0.3425
vn -0.8865 -0.3364 -0.3176
vn -0.9125 -0.2241 -0.3422
vn 0.8795 0.3211 0.3512
vn -0.0072 -0.7496 0.6618
vn 0.9101 0.2337 0.3421
vn 0.8847 0.3436 0.3151
vn -0.9121 -0.2218 -0.3447
vn 0.2139 -0.9492 0.2307
vn 0.1656 0.4794 -0.8618
vn -0.7653 -0.4840 -0.4244
vn 0.9746 0.0635 0.2146
vn 0.1771 0.4555 -0.8724
vn 0.8699 0.4927 0.0232
vn -0.9189 -0.2448 -0.3092
vn -0.4125 0.7980 0.4395
vn 0.4125 -0.7980 -0.4395
vn -0.0341 0.8029 -0.5951
vn 0.9674 0.0915 0.2361
vn -0.7879 -0.4608 -0.4085
vn -0.0196 -0.7322 0.6808
vn 0.4251 -0.7359 -0.5270
vn 0.9650 0.0998 0.2424
vn -0.7946 -0.4536 -0.4035
vn 0.1408 -0.9080 0.3947
vn 0.1393 0.5320 -0.8352
vn -0.8052 -0.0344 -0.5920
vn 0.4338 -0.6488 -0.6252
vn -0.3676 0.9014 0.2286
vn 0.7953 -0.3089 0.5216
vn -0.6051 0.7190 -0.3420
vn -0.7957 0.3081 -0.5215
vn -0.3570 -0.4876 0.7967
vn -0.3617 0.9091 0.2068
vn 0.0752 -0.8737 -0.4806
vn -0.5600 0.8133 0.1579
vn 0.3543 0.7321 0.5818
vn -0.3510 -0.3340 -0.8748
vn 0.8125 -0.5200 0.2634
vn -0.6149 -0.1170 -0.7799
vn 0.6907 0.2456 0.6802
vn -0.6044 -0.1568 -0.7811
vn 0.6426 -0.7237 -0.2516
vn 0.5641 0.3123 0.7644
vn 0.6477 -0.7138 -0.2665
vn -0.5507 0.8210 0.1508
vn 0.7167 0.2295 0.6585
vn 0.5766 0.4089 0.7073
vn 0.5816 -0.7919 -0.1859
vn -0.5092 -0.2788 -0.8143
vn 0.5800 0.3827 0.7191
vn -0.4748 -0.2964 -0.8287
vn -0.0822 -0.6604 -0.7464
vn -0.0800 0.8943 0.4403
vn -0.3651 -0.6141 -0.6997
vn 0.0582 0.8460 0.5301
vn -0.9592 -0.1659 0.2291
vn -0.5923 0.7809 0.1984
vn -0.5712 -0.3061 -0.7616
vn -0.6085 0.7631 0.2177
vn 0.6355 0.2219 0.7395
vn -0.5680 -0.3093 -0.7627
vn -0.6391 -0.2188 -0.7373
vn 0.5639 0.2755 0.7785
vn 0.2406 -0.9595 0.1465
vn 0.6326 0.2252 0.7410
vn 0.5635 0.3156 0.7635
vn -0.6395 -0.2154 -0.7380
vn 0.5923 -0.7809 -0.1984
vn 0.0538 0.9271 -0.3710
vn -0.3774 -0.3185 -0.8696
vn 0.7875 0.1956 0.5844
vn 0.0765 0.9192 -0.3864
vn 0.5261 0.5994 0.6032
vn -0.6402 -0.2560 -0.7243
vn -0.7979 0.2037 0.5672
vn 0.7979 -0.2037 -0.5673
vn -0.3116 0.9464 -0.0850
vn 0.7649 0.2011 0.6119
vn -0.4103 -0.3176 -0.8549
vn 0.2188 -0.9618 0.1648
vn 0.7935 -0.1009 -0.6001
vn 0.7580 0.2027 0.6200
vn -0.4202 -0.3172 -0.8502
vn 0.4842 -0.8713 -0.0798
vn 0.0024 0.9422 -0.3351
vn -0.5954 0.1044 -0.7966
vn 0.7757 0.0258 -0.6306
vn -0.7746 0.4216 0.4715
usemtl Matériau.012
s off
f 131//26 132//26 134//26 133//26
f 138//27 137//27 141//27 142//27
f 137//28 138//28 136//28 135//28
f 153//29 154//29 132//29 131//29
f 151//30 137//30 135//30 153//30
f 152//31 134//31 132//31 154//31
f 142//32 141//32 145//32 146//32
f 151//33 133//33 140//33 155//33
f 152//34 138//34 142//34 156//34
f 133//35 134//35 139//35 140//35
f 158//36 146//36 150//36 160//36
f 155//37 140//37 144//37 157//37
f 156//38 142//38 146//38 158//38
f 140//39 139//39 143//39 144//39
f 149//40 159//40 163//40 166//40
f 144//41 143//41 147//41 148//41
f 146//42 145//42 149//42 150//42
f 157//43 144//43 148//43 159//43
f 145//44 157//44 159//44 149//44
f 148//45 147//45 161//45 162//45
f 139//46 156//46 158//46 143//46
f 141//47 155//47 157//47 145//47
f 143//48 158//48 160//48 147//48
f 134//49 152//49 156//49 139//49
f 137//50 151//50 155//50 141//50
f 138//51 152//51 154//51 136//51
f 133//52 151//52 153//52 131//52
f 135//53 136//53 154//53 153//53
f 165//54 166//54 172//54 171//54
f 161//55 164//55 170//55 167//55
f 150//56 149//56 166//56 165//56
f 159//57 148//57 162//57 163//57
f 147//58 160//58 164//58 161//58
f 160//59 150//59 165//59 164//59
f 172//60 169//60 180//60 179//60
f 168//61 167//61 173//61 174//61
f 163//62 162//62 168//62 169//62
f 166//63 163//63 169//63 172//63
f 164//64 165//64 171//64 170//64
f 162//65 161//65 167//65 168//65
f 176//66 175//66 183//66 184//66
f 167//67 170//67 176//67 173//67
f 169//68 168//68 174//68 175//68
f 170//69 169//69 175//69 176//69
f 179//70 180//70 192//70 191//70
f 170//71 171//71 178//71 177//71
f 171//72 172//72 179//72 178//72
f 169//73 170//73 177//73 180//73
f 184//74 183//74 187//74 188//74
f 175//75 174//75 182//75 183//75
f 173//76 176//76 184//76 181//76
f 174//77 173//77 181//77 182//77
f 186//78 185//78 188//78 187//78
f 183//79 182//79 186//79 187//79
f 181//80 184//80 188//80 185//80
f 182//81 181//81 185//81 186//81
f 192//82 189//82 190//82 191//82
f 177//83 178//83 190//83 189//83
f 180//84 177//84 189//84 192//84
f 178//85 179//85 191//85 190//85
f 193//86 194//86 196//86 195//86
f 200//87 199//87 203//87 204//87
f 199//88 200//88 198//88 197//88
f 215//89 216//89 194//89 193//89
f 213//90 199//90 197//90 215//90
f 214//91 196//91 194//91 216//91
f 204//92 203//92 207//92 208//92
f 213//93 195//93 202//93 217//93
f 214//94 200//94 204//94 218//94
f 195//95 196//95 201//95 202//95
f 220//96 208//96 212//96 222//96
f 217//97 202//97 206//97 219//97
f 218//98 204//98 208//98 220//98
f 202//99 201//99 205//99 206//99
f 211//100 221//100 225//100 228//100
f 206//101 205//101 209//101 210//101
f 208//102 207//102 211//102 212//102
f 219//103 206//103 210//103 221//103
f 207//104 219//104 221//104 211//104
f 210//105 209//105 223//105 224//105
f 201//106 218//106 220//106 205//106
f 203//107 217//107 219//107 207//107
f 205//108 220//108 222//108 209//108
f 196//109 214//109 218//109 201//109
f 199//110 213//110 217//110 203//110
f 200//111 214//111 216//111 198//111
f 195//112 213//112 215//112 193//112
f 197//113 198//113 216//113 215//113
f 227//114 228//114 234//114 233//114
f 223//115 226//115 232//115 229//115
f 212//116 211//116 228//116 227//116
f 221//117 210//117 224//117 225//117
f 209//118 222//118 226//118 223//118
f 222//119 212//119 227//119 226//119
f 234//120 231//120 242//120 241//120
f 230//121 229//121 235//121 236//121
f 225//122 224//122 230//122 231//122
f 228//123 225//123 231//123 234//123
f 226//124 227//124 233//124 232//124
f 224//125 223//125 229//125 230//125
f 238//126 237//126 245//126 246//126
f 229//127 232//127 238//127 235//127
f 231//128 230//128 236//128 237//128
f 232//129 231//129 237//129 238//129
f 241//130 242//130 254//130 253//130
f 232//131 233//131 240//131 239//131
f 233//132 234//132 241//132 240//132
f 231//133 232//133 239//133 242//133
f 246//134 245//134 249//134 250//134
f 237//135 236//135 244//135 245//135
f 235//136 238//136 246//136 243//136
f 236//137 235//137 243//137 244//137
f 248//138 247//138 250//138 249//138
f 245//139 244//139 248//139 249//139
f 243//140 246//140 250//140 247//140
f 244//141 243//141 247//141 248//141
f 254//142 251//142 252//142 253//142
f 239//143 240//143 252//143 251//143
f 242//144 239//144 251//144 254//144
f 240//145 241//145 253//145 252//145
