# Blender v2.91.2 OBJ File: 'camionnete02.blend'
# www.blender.org
mtllib arme_000245.mtl
o Cube.046_Cube.010
v 668.952087 474.725494 -271.241180
v 660.101196 346.055817 -449.972534
v 884.927917 504.638458 -303.471100
v 876.076965 375.968842 -482.202423
v 625.879883 651.157959 -396.122925
v 617.028992 522.488281 -574.854309
v 841.855652 681.070923 -428.352814
v 833.004822 552.401367 -607.084229
v 371.596313 433.541107 -226.867035
v 362.745239 304.871460 -405.598328
v 319.672974 481.303864 -530.480042
v 328.524048 609.973633 -351.748688
v 237.023132 414.902435 -206.784668
v 228.172241 286.232819 -385.516083
v 185.099915 462.665253 -510.397827
v 193.950928 591.334961 -331.666473
v 157.523438 403.891632 -194.921051
v 164.401703 312.000580 -326.819092
v 121.329407 488.433136 -451.700836
v 114.451141 580.324097 -319.802765
v 417.989197 439.966583 -233.790192
v 409.138306 311.296967 -412.521484
v 374.916992 616.399170 -358.671936
v 366.066040 487.729401 -537.403259
v 808.681946 494.078278 -292.092957
v 799.830872 365.408600 -470.824341
v 765.609558 670.510742 -416.974670
v 756.758606 541.840942 -595.705994
v 863.391785 592.854736 -365.911926
v 854.540955 464.185089 -544.643433
v 647.416077 562.941650 -333.682037
v 638.565063 434.272003 -512.413391
v 350.060120 521.757324 -289.307861
v 341.209106 393.087616 -468.039185
v 215.487061 503.118683 -269.225555
v 198.004700 371.462372 -433.314026
v 135.987305 492.107819 -257.361877
v 155.004120 388.837677 -393.734467
v 387.602112 399.513153 -474.962402
v 396.453125 528.182861 -296.231049
v 778.294739 453.624786 -533.265198
v 787.145569 582.294556 -354.533752
v 874.159851 548.746460 -334.691467
v 649.333130 390.163910 -481.192963
v 351.977173 348.979584 -436.818787
v 205.265686 341.720123 -412.262024
v 162.265045 359.095490 -372.682495
v 407.221130 484.074738 -265.010590
v 797.913757 538.186401 -323.313385
v 865.309021 420.076935 -513.422913
v 658.184143 518.833618 -302.461639
v 360.828247 477.649200 -258.087463
v 226.255066 459.010590 -238.005127
v 146.755341 447.999725 -226.141449
v 398.370239 355.405060 -443.741943
v 789.062927 409.516754 -502.044800
v 396.713013 331.313446 -477.206970
v 385.944824 375.421539 -508.427399
v 787.405701 385.425140 -535.509888
v 776.637512 429.533234 -566.730225
v 636.907837 410.180328 -545.878418
v 647.675903 366.072174 -514.657959
v 785.399231 378.418243 -283.482056
v 723.612122 369.860626 -274.261597
v 719.698303 312.964081 -353.294678
v 781.485413 321.521820 -362.515198
v 794.706970 340.292206 -256.495789
v 732.919861 331.734528 -247.275299
v 729.006165 274.838104 -326.308441
v 790.793152 283.395782 -335.528931
v 808.950745 281.947174 -215.198181
v 747.163757 273.389496 -205.977692
v 743.249939 216.493073 -285.010895
v 805.037048 225.050781 -294.231415
v 818.116394 244.402802 -188.623718
v 756.329407 235.845154 -179.403259
v 752.415710 178.948669 -258.436340
v 814.202698 187.506378 -267.656830
v 1574.830566 518.346924 -619.303833
v 1564.062256 562.454956 -650.524292
v 1572.913330 691.124756 -471.792969
v 1583.681396 647.016602 -440.572479
vn 0.1954 -0.8005 0.5666
vn 0.9799 0.1357 -0.1462
vn -0.1954 0.8005 -0.5666
vn 0.0402 0.5838 0.8109
vn -0.0402 -0.5838 -0.8109
vn -0.6811 -0.5265 -0.5089
vn -0.0864 -0.5228 -0.8481
vn -0.9910 -0.1340 0.0073
vn -0.1967 0.8000 -0.5668
vn 0.1967 -0.8000 0.5668
vn 0.9777 -0.1902 0.0885
vn -0.9689 -0.2351 0.0775
vn -0.0643 -0.6203 -0.7817
vn -0.9756 -0.2177 0.0288
vn -0.1046 -0.5914 -0.7995
vn -0.9799 -0.1357 0.1462
vn -0.8239 -0.4398 0.3574
vn 0.0743 -0.9286 -0.3637
vn 0.1413 0.0452 0.9889
usemtl Matériau.011
s off
f 25//1 26//1 4//1 3//1
f 29//2 30//2 8//2 7//2
f 27//3 28//3 6//3 5//3
f 22//1 21//1 9//1 10//1
f 42//4 27//4 5//4 31//4
f 56//5 26//5 2//5 44//5
f 10//1 9//1 13//1 14//1
f 55//5 22//5 10//5 45//5
f 23//3 24//3 11//3 12//3
f 46//6 14//6 18//6 47//6
f 45//7 10//7 14//7 46//7
f 12//3 11//3 15//3 16//3
f 33//4 12//4 16//4 35//4
f 54//8 47//8 18//8 17//8
f 16//9 15//9 19//9 20//9
f 14//10 13//10 17//10 18//10
f 5//3 6//3 24//3 23//3
f 44//5 2//5 22//5 55//5
f 31//4 5//4 23//4 40//4
f 2//1 1//1 21//1 22//1
f 50//5 4//5 26//5 56//5
f 29//4 7//4 27//4 42//4
f 7//3 8//3 28//3 27//3
f 26//11 25//11 63//11 66//11
f 43//4 29//4 42//4 49//4
f 8//5 30//5 41//5 28//5
f 51//4 31//4 40//4 48//4
f 6//5 32//5 39//5 24//5
f 20//12 19//12 38//12 37//12
f 52//4 33//4 35//4 53//4
f 11//13 34//13 36//13 15//13
f 15//6 36//6 38//6 19//6
f 24//5 39//5 34//5 11//5
f 28//5 41//5 32//5 6//5
f 49//4 42//4 31//4 51//4
f 30//3 29//3 81//3 80//3
f 3//2 4//2 50//2 43//2
f 25//4 49//4 51//4 1//4
f 9//4 52//4 53//4 13//4
f 1//4 51//4 48//4 21//4
f 3//4 43//4 49//4 25//4
f 30//5 50//5 56//5 41//5
f 32//3 41//3 60//3 61//3
f 37//14 38//14 47//14 54//14
f 34//15 45//15 46//15 36//15
f 36//6 46//6 47//6 38//6
f 39//5 55//5 45//5 34//5
f 55//16 39//16 58//16 57//16
f 61//5 62//5 57//5 58//5
f 60//5 59//5 62//5 61//5
f 39//3 32//3 61//3 58//3
f 44//1 55//1 57//1 62//1
f 41//2 56//2 59//2 60//2
f 56//1 44//1 62//1 59//1
f 66//2 63//2 67//2 70//2
f 1//17 2//17 65//17 64//17
f 2//18 26//18 66//18 65//18
f 25//19 1//19 64//19 63//19
f 69//5 70//5 74//5 73//5
f 64//16 65//16 69//16 68//16
f 65//5 66//5 70//5 69//5
f 63//4 64//4 68//4 67//4
f 73//5 74//5 78//5 77//5
f 67//4 68//4 72//4 71//4
f 70//2 67//2 71//2 74//2
f 68//16 69//16 73//16 72//16
f 76//1 77//1 78//1 75//1
f 71//4 72//4 76//4 75//4
f 74//2 71//2 75//2 78//2
f 82//2 79//2 80//2 81//2
f 50//5 30//5 80//5 79//5
f 43//1 50//1 79//1 82//1
f 29//4 43//4 82//4 81//4
o Cube.048_Cube.024
v -491.850830 554.478394 147.216522
v -640.448364 377.163330 77.390556
v -373.781433 538.318359 -63.012024
v -526.736938 364.732239 -148.043091
v -648.874451 670.729309 -17.585320
v -725.064514 579.814880 -53.387024
v -588.336914 662.443665 -125.375389
v -664.870728 572.163940 -162.896606
v -243.944092 530.539062 -458.821808
v -230.200928 480.333557 -343.439056
v -241.091156 595.492371 -292.033844
v -254.834351 645.697815 -407.416565
v -30.397827 565.508850 -450.656891
v -20.293640 528.596619 -365.824860
v -28.300476 613.263977 -328.030579
v -38.404724 650.176147 -412.862518
v 103.314819 588.443481 -442.861084
v 110.699036 561.468506 -380.867035
v 104.847717 623.342285 -353.247467
v 97.463501 650.317261 -415.241516
v -453.256165 626.439575 -93.392967
v -612.758850 443.678040 -179.709473
v -578.313721 643.859924 130.014038
v -736.068359 455.618103 55.885201
v -229.679779 537.051697 -314.543213
v -244.269867 590.351074 -437.036133
v -5.306580 572.103760 -345.533356
v -16.033691 611.290588 -435.592926
v 134.902161 594.902161 -366.903229
v 127.063049 623.539490 -432.717651
v 196.776062 596.748169 -450.379547
v 204.160217 569.773132 -388.385590
v 237.587952 609.640747 -372.720978
v 229.748901 638.277954 -438.535492
v 198.731506 664.066772 -421.320648
v 206.115540 637.091858 -359.326630
v 263.834106 603.933289 -455.240509
v 271.218323 576.958252 -393.246338
v 304.646179 616.825806 -377.581940
v 296.806946 645.463074 -443.396210
v 265.789612 671.251892 -426.181580
v 273.173706 644.276917 -364.187531
v 308.240173 581.245178 -457.108124
v 312.992798 563.882629 -417.205444
v 334.508972 589.543579 -407.122955
v 329.463196 607.976013 -449.484589
v 335.403625 683.814453 -431.306000
v 304.386169 709.603271 -414.091156
v 311.770264 682.628418 -352.097260
v 343.242737 655.177246 -365.491486
v 338.086243 565.382812 -459.741486
v 341.290466 553.677490 -432.840149
v 355.795837 570.977356 -426.042633
v 352.394348 583.404053 -454.601837
v 372.303406 561.052185 -459.637909
v 374.306458 553.735046 -442.821625
v 383.373962 564.549438 -438.572296
v 381.247620 572.317444 -456.424957
v 352.277405 704.139587 -411.200897
v 331.653381 721.286865 -399.754608
v 336.563171 703.350891 -358.534180
v 357.489685 685.098328 -367.440125
v -304.039185 461.201447 460.268829
v -439.734253 289.311401 358.101227
v -120.120544 354.050537 349.541321
v -242.751373 195.633026 254.083588
v -323.489655 538.188293 217.318207
v -393.064331 450.055450 164.934021
v -220.472626 484.240906 170.463989
v -292.065704 402.023987 111.601219
v 32.293274 123.329102 -17.666153
v -12.077759 17.689575 28.692093
v 78.693054 14.980530 112.296509
v 124.612061 119.129883 68.833687
v 161.853149 -2.142761 -137.510040
v 127.221558 -81.935669 -104.422523
v 195.096497 -85.023254 -40.825768
v 229.728088 -5.230042 -73.913521
v 243.677734 -82.495178 -210.408051
v 218.369385 -140.806946 -186.228027
v 267.971375 -143.063110 -139.752411
v 293.279785 -84.751587 -163.932404
v -141.301941 431.306458 276.583771
v -279.093292 268.300415 162.482193
v -344.157898 550.233948 381.373291
v -488.214966 367.751495 272.909790
v 33.110962 6.481995 68.405052
v 83.117126 121.698975 20.628159
v 170.920227 -95.624878 -83.631660
v 207.685852 -10.914673 -118.758125
v 257.985352 -157.682556 -179.566223
v 284.853210 -95.777588 -205.236328
v 295.099670 -130.688477 -272.807434
v 269.791260 -189.000000 -248.627441
v 319.235657 -211.106934 -244.294098
v 346.103455 -149.201721 -269.964203
v 353.019226 -137.371643 -228.302399
v 327.710999 -195.683472 -204.122345
v 333.033142 -165.370422 -316.742157
v 307.724792 -223.682068 -292.562164
v 357.169128 -245.789124 -288.228760
v 384.037048 -183.883911 -313.898773
v 390.952820 -172.053711 -272.237061
v 365.644470 -230.365356 -248.056976
v 333.852112 -196.144348 -356.015625
v 317.562317 -233.677002 -340.452179
v 349.387146 -247.906067 -337.662964
v 366.680969 -208.060547 -354.185699
v 434.836975 -206.737854 -315.842072
v 441.752625 -194.907532 -274.180267
v 416.444519 -253.219543 -250.000275
v 407.969177 -268.642822 -290.171906
v 333.972473 -215.929871 -383.544769
v 322.990051 -241.233337 -373.052277
v 344.445862 -250.826294 -371.172180
v 356.104797 -223.963379 -382.311096
v 346.072449 -237.570190 -407.521332
v 339.207336 -253.387695 -400.962250
v 352.619324 -259.384155 -399.786682
v 359.907532 -242.592102 -406.749969
v 458.994934 -227.139648 -305.732758
v 463.593323 -219.273682 -278.031311
v 446.765320 -258.045959 -261.953674
v 441.129944 -268.301331 -288.664337
vn 0.6158 -0.6939 0.3732
vn -0.1115 0.9755 -0.1898
vn -0.6183 0.6804 -0.3934
vn -0.3068 -0.1149 0.9448
vn 0.2428 0.9682 0.0609
vn -0.5873 -0.7660 -0.2614
vn -0.0089 0.9165 0.3999
vn 0.7836 0.4317 0.4467
vn -0.5466 0.0250 -0.8370
vn 0.4508 -0.8772 0.1651
vn -0.0211 0.5099 -0.8600
vn 0.1943 -0.4562 0.8684
vn -0.0351 0.4759 -0.8788
vn 0.1626 -0.8975 -0.4099
vn 0.1020 -0.3401 0.9348
vn 0.1774 -0.8945 -0.4103
vn 0.0060 0.9172 0.3984
vn 0.2136 -0.4861 0.8474
vn 0.1935 -0.2742 0.9420
vn 0.0487 -0.9137 -0.4034
vn -0.0215 0.3320 -0.9430
vn 0.1806 -0.3123 0.9327
vn -0.0011 0.2980 -0.9546
vn -0.5040 -0.3692 -0.7808
vn 0.4807 0.7848 0.3911
vn -0.8499 -0.2974 -0.4350
vn 0.6511 0.6922 0.3114
vn -0.7639 0.4631 0.4495
vn -0.0683 0.9118 0.4049
vn -0.1049 0.3489 -0.9313
vn -0.0989 0.9081 0.4069
vn 0.1129 -0.4474 0.8872
vn -0.1039 0.3446 -0.9330
vn -0.1147 0.4516 -0.8848
vn 0.0744 -0.3671 0.9272
vn -0.4425 -0.8404 -0.3130
vn 0.1120 -0.4433 0.8893
vn 0.1040 -0.3373 0.9356
vn -0.1127 0.4543 -0.8837
vn 0.0683 -0.9118 -0.4049
vn 0.7370 0.6474 0.1939
vn 0.0717 0.2205 -0.9728
vn 0.2816 -0.5461 0.7890
vn 0.7558 0.6286 0.1835
vn 0.3213 -0.0916 0.9426
vn -0.1425 0.4252 -0.8938
vn -0.7132 0.6077 0.3494
vn 0.7132 -0.6077 -0.3494
vn 0.3562 0.8716 0.3368
vn 0.2549 -0.5312 0.8080
vn 0.0432 0.2422 -0.9693
vn -0.4678 -0.8295 -0.3052
vn 0.7838 -0.5299 -0.3239
vn 0.2468 -0.5266 0.8135
vn 0.0344 0.2487 -0.9680
vn -0.1147 -0.9158 -0.3848
vn 0.6925 0.6881 0.2169
vn 0.1192 0.6464 -0.7536
vn 0.8572 -0.4269 -0.2879
vn -0.5284 0.7536 0.3909
vn 0.1402 -0.5868 0.7975
vn 0.7218 0.6913 -0.0329
vn -0.0928 0.5972 -0.7967
vn -0.7482 0.2182 0.6266
vn 0.5004 0.8655 0.0226
vn -0.5517 -0.7460 -0.3729
vn 0.7706 -0.0740 0.6330
vn 0.8516 -0.0468 0.5220
vn -0.2164 0.0271 -0.9759
vn -0.2290 -0.8642 0.4480
vn 0.5085 0.7937 -0.3338
vn -0.4054 -0.8843 0.2317
vn 0.4736 0.8080 -0.3504
vn -0.6917 -0.0147 -0.7221
vn -0.3272 -0.8573 0.3975
vn -0.6730 -0.0145 -0.7395
vn 0.7793 -0.0806 0.6214
vn -0.3970 -0.8935 0.2099
vn -0.2271 -0.9012 0.3690
vn -0.7504 0.0525 -0.6589
vn 0.3582 0.8133 -0.4586
vn -0.2400 -0.8894 0.3891
vn 0.3387 0.8014 -0.4929
vn -0.5916 -0.4033 -0.6981
vn 0.8822 0.4707 -0.0115
vn -0.5607 -0.3414 -0.7543
vn 0.6240 0.6398 0.4487
vn -0.7345 0.6638 -0.1413
vn 0.7395 -0.0423 0.6719
vn 0.3333 0.8584 -0.3899
vn 0.7218 -0.0265 0.6916
vn -0.4129 -0.8540 0.3167
vn 0.3302 0.8581 -0.3933
vn 0.4156 0.8543 -0.3122
vn -0.3633 -0.8415 0.3998
vn -0.9216 0.2959 -0.2511
vn -0.4099 -0.8540 0.3203
vn -0.3239 -0.8583 0.3979
vn 0.4188 0.8529 -0.3117
vn -0.7395 0.0423 -0.6719
vn 0.8982 -0.4292 -0.0950
vn 0.3057 0.7525 -0.5833
vn -0.4135 -0.9045 0.1038
vn 0.8911 -0.4372 -0.1216
vn -0.0067 -0.9331 0.3597
vn 0.3801 0.8713 -0.3105
vn 0.1757 0.3111 0.9340
vn -0.1757 -0.3111 -0.9340
vn 0.9071 -0.2547 0.3353
vn -0.4143 -0.8994 0.1395
vn 0.3112 0.7724 -0.5537
vn -0.9244 0.3078 -0.2253
vn -0.0763 -0.3535 -0.9323
vn -0.4145 -0.8976 0.1501
vn 0.3128 0.7782 -0.5445
vn -0.8298 0.1357 -0.5413
vn 0.9114 -0.4100 -0.0349
vn 0.6857 0.6623 -0.3019
vn 0.0457 -0.3995 -0.9156
vn 0.3870 0.2048 0.8990
usemtl Matériau.012
s off
f 83//20 84//20 86//20 85//20
f 90//21 89//21 93//21 94//21
f 89//22 90//22 88//22 87//22
f 105//23 106//23 84//23 83//23
f 103//24 89//24 87//24 105//24
f 104//25 86//25 84//25 106//25
f 94//26 93//26 97//26 98//26
f 103//27 85//27 92//27 107//27
f 104//28 90//28 94//28 108//28
f 85//29 86//29 91//29 92//29
f 110//30 98//30 102//30 112//30
f 107//31 92//31 96//31 109//31
f 108//32 94//32 98//32 110//32
f 92//33 91//33 95//33 96//33
f 101//34 111//34 115//34 118//34
f 96//35 95//35 99//35 100//35
f 98//36 97//36 101//36 102//36
f 109//37 96//37 100//37 111//37
f 97//38 109//38 111//38 101//38
f 100//39 99//39 113//39 114//39
f 91//40 108//40 110//40 95//40
f 93//41 107//41 109//41 97//41
f 95//42 110//42 112//42 99//42
f 86//43 104//43 108//43 91//43
f 89//44 103//44 107//44 93//44
f 90//45 104//45 106//45 88//45
f 85//46 103//46 105//46 83//46
f 87//47 88//47 106//47 105//47
f 117//48 118//48 124//48 123//48
f 113//49 116//49 122//49 119//49
f 102//50 101//50 118//50 117//50
f 111//51 100//51 114//51 115//51
f 99//52 112//52 116//52 113//52
f 112//53 102//53 117//53 116//53
f 124//54 121//54 132//54 131//54
f 120//55 119//55 125//55 126//55
f 115//56 114//56 120//56 121//56
f 118//57 115//57 121//57 124//57
f 116//58 117//58 123//58 122//58
f 114//59 113//59 119//59 120//59
f 128//60 127//60 135//60 136//60
f 119//61 122//61 128//61 125//61
f 121//62 120//62 126//62 127//62
f 122//63 121//63 127//63 128//63
f 131//64 132//64 144//64 143//64
f 122//65 123//65 130//65 129//65
f 123//66 124//66 131//66 130//66
f 121//67 122//67 129//67 132//67
f 136//68 135//68 139//68 140//68
f 127//69 126//69 134//69 135//69
f 125//70 128//70 136//70 133//70
f 126//71 125//71 133//71 134//71
f 138//72 137//72 140//72 139//72
f 135//73 134//73 138//73 139//73
f 133//74 136//74 140//74 137//74
f 134//75 133//75 137//75 138//75
f 144//76 141//76 142//76 143//76
f 129//77 130//77 142//77 141//77
f 132//78 129//78 141//78 144//78
f 130//79 131//79 143//79 142//79
f 145//80 146//80 148//80 147//80
f 152//81 151//81 155//81 156//81
f 151//82 152//82 150//82 149//82
f 167//83 168//83 146//83 145//83
f 165//84 151//84 149//84 167//84
f 166//85 148//85 146//85 168//85
f 156//86 155//86 159//86 160//86
f 165//87 147//87 154//87 169//87
f 166//88 152//88 156//88 170//88
f 147//89 148//89 153//89 154//89
f 172//90 160//90 164//90 174//90
f 169//91 154//91 158//91 171//91
f 170//92 156//92 160//92 172//92
f 154//93 153//93 157//93 158//93
f 163//94 173//94 177//94 180//94
f 158//95 157//95 161//95 162//95
f 160//96 159//96 163//96 164//96
f 171//97 158//97 162//97 173//97
f 159//98 171//98 173//98 163//98
f 162//99 161//99 175//99 176//99
f 153//100 170//100 172//100 157//100
f 155//101 169//101 171//101 159//101
f 157//102 172//102 174//102 161//102
f 148//103 166//103 170//103 153//103
f 151//104 165//104 169//104 155//104
f 152//105 166//105 168//105 150//105
f 147//106 165//106 167//106 145//106
f 149//107 150//107 168//107 167//107
f 179//108 180//108 186//108 185//108
f 175//109 178//109 184//109 181//109
f 164//110 163//110 180//110 179//110
f 173//111 162//111 176//111 177//111
f 161//112 174//112 178//112 175//112
f 174//113 164//113 179//113 178//113
f 186//114 183//114 194//114 193//114
f 182//115 181//115 187//115 188//115
f 177//116 176//116 182//116 183//116
f 180//117 177//117 183//117 186//117
f 178//118 179//118 185//118 184//118
f 176//119 175//119 181//119 182//119
f 190//120 189//120 197//120 198//120
f 181//121 184//121 190//121 187//121
f 183//122 182//122 188//122 189//122
f 184//123 183//123 189//123 190//123
f 193//124 194//124 206//124 205//124
f 184//125 185//125 192//125 191//125
f 185//126 186//126 193//126 192//126
f 183//127 184//127 191//127 194//127
f 198//128 197//128 201//128 202//128
f 189//129 188//129 196//129 197//129
f 187//130 190//130 198//130 195//130
f 188//131 187//131 195//131 196//131
f 200//132 199//132 202//132 201//132
f 197//133 196//133 200//133 201//133
f 195//134 198//134 202//134 199//134
f 196//135 195//135 199//135 200//135
f 206//136 203//136 204//136 205//136
f 191//137 192//137 204//137 203//137
f 194//138 191//138 203//138 206//138
f 192//139 193//139 205//139 204//139
