# Blender v2.91.2 OBJ File: 'camionnete02.blend'
# www.blender.org
mtllib arme_000003.mtl
o Cube.046_Cube.010
v 362.628174 367.044342 -1023.529541
v 362.480316 146.641266 -1022.287231
v 480.530090 365.915619 -1209.746948
v 480.382202 145.512527 -1208.504761
v 176.407288 366.504761 -1141.430420
v 176.259338 146.101639 -1140.187988
v 294.309143 365.376038 -1327.647705
v 294.161285 144.972900 -1326.405640
v 200.300629 368.598389 -767.144958
v 200.152740 148.195297 -765.902588
v 13.931847 147.655685 -883.803284
v 14.079737 368.058807 -885.045532
v 126.836784 369.301697 -651.113892
v 126.688881 148.898590 -649.871704
v -59.532070 148.358963 -767.772339
v -59.384174 368.762115 -769.014648
v 83.437607 369.717194 -582.568176
v 90.724075 209.324356 -593.027527
v -95.496902 208.784760 -710.928284
v -102.783371 369.177582 -700.468750
v 126.984184 589.023438 -652.352417
v -59.236717 588.483826 -770.253174
v 83.585037 589.438904 -583.806519
v -102.635880 588.899353 -701.707275
v 225.626740 368.355927 -807.145569
v 225.478851 147.952835 -805.903259
v 39.405804 367.816345 -925.046326
v 39.257889 147.413223 -923.804016
v 200.349457 441.355103 -767.554993
v 14.128540 440.815552 -885.455750
v 225.675537 441.112640 -807.555664
v 39.454609 440.573029 -925.456299
v 200.420319 546.913269 -768.150024
v 14.199392 546.373596 -886.050598
v 225.746368 546.670715 -808.150757
v 39.525475 546.131165 -926.051331
v 128.545990 442.042511 -654.146545
v -57.674961 441.502899 -772.047302
v 128.616821 547.600647 -654.741516
v -57.604118 547.061035 -772.642212
v 154.477203 725.544739 -696.401550
v -31.743721 725.005127 -814.302368
v 111.078026 725.960205 -627.855835
v -75.142860 725.420593 -745.756470
v 438.907074 366.314117 -1144.006470
v 438.759216 145.910995 -1142.764282
v 252.686127 365.774536 -1261.907227
v 252.538269 145.371384 -1260.664917
v 387.419617 365.645844 -1268.697388
v 387.271729 145.242706 -1267.455200
v 269.517761 366.774597 -1082.479980
v 269.369873 146.371445 -1081.237671
v 107.190186 368.328552 -826.095215
v 107.042274 147.925491 -824.852905
v 33.726307 369.031891 -710.064331
v 35.303043 158.491013 -694.765076
v -9.672854 369.447357 -641.518494
v 11.051882 199.236267 -656.434998
v 33.873718 588.753723 -711.302734
v -9.525420 589.169128 -642.756958
v 132.368378 147.683029 -864.853638
v 132.516266 368.086090 -866.095947
v 107.239006 441.085327 -826.505371
v 132.565063 440.842804 -866.505981
v 107.309860 546.643494 -827.100281
v 132.635925 546.400940 -867.101074
v 35.435520 441.772736 -713.096985
v 35.506351 547.330872 -713.691833
v 61.366726 725.274963 -755.351990
v 17.967562 725.690369 -686.806152
v 345.648682 145.641190 -1201.714600
v 345.796570 366.044312 -1202.956787
v 433.974854 365.780762 -1239.222168
v 315.925079 146.506348 -1051.762329
v 153.597504 148.060410 -795.377808
v 66.695351 158.581970 -674.889893
v 42.444199 199.327225 -636.559753
v 179.071503 368.221008 -836.620667
v 179.120300 440.977692 -837.030823
v 179.191162 546.535828 -837.625854
v 392.351837 366.179230 -1173.481812
v 433.826965 145.377625 -1237.980103
v 316.072968 366.909454 -1053.004761
v 153.745422 368.463470 -796.620056
v 80.281525 369.166809 -680.589111
v 36.882366 369.582245 -612.043274
v 80.428970 588.888550 -681.827637
v 37.029823 589.304016 -613.281738
v 178.923615 147.817947 -835.378479
v 153.794220 441.220215 -797.030151
v 153.865082 546.778381 -797.625122
v 81.990746 441.907623 -683.621765
v 82.061584 547.465759 -684.216675
v 107.921989 725.409851 -725.876709
v 64.522804 725.825256 -657.330933
v 392.203918 145.776108 -1172.239624
v 178.895905 106.550461 -835.145874
v 132.340668 106.415543 -864.621033
v 392.176239 104.508621 -1172.006958
v 345.621033 104.373703 -1201.482056
v 269.342163 105.103958 -1081.005005
v 315.897400 105.238876 -1051.529907
v 496.093353 305.273682 -1060.356812
v 462.363617 305.596588 -1007.083191
v 462.298340 208.136597 -1006.533752
v 496.027985 207.813690 -1059.807617
v 536.334778 305.390320 -1034.879395
v 502.605042 305.713196 -981.605530
v 502.539703 208.253235 -981.056152
v 536.269409 207.930313 -1034.329956
v 597.916992 305.568787 -995.890442
v 564.187195 305.891663 -942.616699
v 564.121765 208.431702 -942.067322
v 597.851440 208.108795 -995.341187
v 637.544250 305.683594 -970.801514
v 603.814453 306.006500 -917.527771
v 603.749268 208.546524 -916.978394
v 637.478821 208.223618 -970.252136
v 821.157410 141.669846 -1849.739746
v 774.602173 141.534927 -1879.214844
v 774.749878 361.938049 -1880.457153
v 821.305237 362.072937 -1850.982056
v 88.633499 790.939270 -768.320801
v 2.837240 790.690674 -822.640320
v 48.643513 791.322083 -705.159424
v -37.152702 791.073425 -759.479004
v 134.439789 791.570740 -650.839905
v 174.429810 791.187988 -714.001099
v 131.531677 791.063782 -741.160828
v 91.541649 791.446350 -677.999634
vn 0.8449 0.0024 0.5349
vn 0.5349 -0.0051 -0.8449
vn -0.8449 -0.0024 -0.5349
vn 0.0007 1.0000 -0.0056
vn -0.0007 -1.0000 0.0056
vn -0.5349 0.0051 0.8449
vn -0.3559 -0.7439 0.5656
vn -0.0843 -0.9964 -0.0098
vn -0.5993 -0.1072 0.7933
vn -0.8456 -0.0029 -0.5338
vn 0.8456 0.0029 0.5338
vn 0.5007 -0.3555 -0.7892
vn 0.4992 -0.3627 -0.7869
vn -0.5007 0.3555 0.7892
vn 0.8242 -0.0037 -0.5662
vn -0.7898 0.3521 -0.5022
vn -0.4949 -0.1081 0.8622
vn 0.0164 -0.9983 0.0554
vn -0.4819 0.4375 0.7592
vn -0.5295 -0.1378 0.8370
vn -0.0359 -0.9975 0.0612
vn -0.1593 0.0057 0.9872
vn 0.4656 -0.8326 0.2999
vn 0.4668 0.8353 0.2905
vn 0.8392 -0.1124 0.5320
usemtl Matériau.011
s off
f 45//1 46//1 4//1 3//1
f 49//2 50//2 8//2 7//2
f 47//3 48//3 6//3 5//3
f 26//1 25//1 9//1 10//1
f 72//4 47//4 5//4 51//4
f 96//5 46//5 2//5 74//5
f 10//1 9//1 13//1 14//1
f 84//6 9//6 29//6 90//6
f 89//5 26//5 10//5 75//5
f 27//3 28//3 11//3 12//3
f 76//7 14//7 18//7 77//7
f 75//8 10//8 14//8 76//8
f 12//3 11//3 15//3 16//3
f 53//4 12//4 16//4 55//4
f 86//9 77//9 18//9 17//9
f 16//10 15//10 19//10 20//10
f 16//3 20//3 24//3 22//3
f 14//11 13//11 17//11 18//11
f 59//12 22//12 42//12 69//12
f 86//6 17//6 23//6 88//6
f 17//1 13//1 21//1 23//1
f 55//2 16//2 22//2 59//2
f 5//3 6//3 28//3 27//3
f 74//5 2//5 26//5 89//5
f 51//4 5//4 27//4 62//4
f 2//1 1//1 25//1 26//1
f 32//3 30//3 34//3 36//3
f 62//2 27//2 32//2 64//2
f 27//3 12//3 30//3 32//3
f 9//1 25//1 31//1 29//1
f 66//4 36//4 34//4 65//4
f 90//5 29//5 37//5 92//5
f 64//2 32//2 36//2 66//2
f 29//1 31//1 35//1 33//1
f 92//6 37//6 39//6 93//6
f 29//1 33//1 39//1 37//1
f 34//3 30//3 38//3 40//3
f 65//4 34//4 40//4 68//4
f 69//13 42//13 124//13 123//13
f 23//1 21//1 41//1 43//1
f 88//14 23//14 43//14 95//14
f 22//3 24//3 44//3 42//3
f 82//5 4//5 46//5 96//5
f 49//4 7//4 47//4 72//4
f 7//3 8//3 48//3 47//3
f 46//15 45//15 103//15 106//15
f 73//4 49//4 72//4 81//4
f 8//5 50//5 71//5 48//5
f 24//14 60//14 70//14 44//14
f 42//16 44//16 126//16 124//16
f 91//4 65//4 68//4 93//4
f 38//6 67//6 68//6 40//6
f 79//2 64//2 66//2 80//2
f 30//5 63//5 67//5 38//5
f 80//4 66//4 65//4 91//4
f 78//2 62//2 64//2 79//2
f 83//4 51//4 62//4 78//4
f 6//5 52//5 61//5 28//5
f 85//2 55//2 59//2 87//2
f 20//6 57//6 60//6 24//6
f 87//12 59//12 69//12 94//12
f 20//17 19//17 58//17 57//17
f 84//4 53//4 55//4 85//4
f 11//18 54//18 56//18 15//18
f 15//7 56//7 58//7 19//7
f 28//5 61//5 54//5 11//5
f 12//6 53//6 63//6 30//6
f 48//5 71//5 52//5 6//5
f 81//4 72//4 51//4 83//4
f 50//3 49//3 121//3 120//3
f 3//2 4//2 82//2 73//2
f 45//4 81//4 83//4 1//4
f 9//4 84//4 85//4 13//4
f 21//12 87//12 94//12 41//12
f 13//2 85//2 87//2 21//2
f 1//4 83//4 78//4 25//4
f 25//2 78//2 79//2 31//2
f 35//4 80//4 91//4 33//4
f 31//2 79//2 80//2 35//2
f 33//4 91//4 93//4 39//4
f 70//19 95//19 130//19 125//19
f 3//4 73//4 81//4 45//4
f 50//5 82//5 96//5 71//5
f 60//14 88//14 95//14 70//14
f 67//6 92//6 93//6 68//6
f 63//5 90//5 92//5 67//5
f 52//3 71//3 100//3 101//3
f 57//6 86//6 88//6 60//6
f 57//20 58//20 77//20 86//20
f 54//21 75//21 76//21 56//21
f 56//7 76//7 77//7 58//7
f 61//5 89//5 75//5 54//5
f 53//6 84//6 90//6 63//6
f 89//6 61//6 98//6 97//6
f 101//5 102//5 97//5 98//5
f 100//5 99//5 102//5 101//5
f 61//3 52//3 101//3 98//3
f 74//1 89//1 97//1 102//1
f 71//2 96//2 99//2 100//2
f 96//1 74//1 102//1 99//1
f 106//2 103//2 107//2 110//2
f 1//22 2//22 105//22 104//22
f 2//23 46//23 106//23 105//23
f 45//24 1//24 104//24 103//24
f 109//5 110//5 114//5 113//5
f 104//6 105//6 109//6 108//6
f 105//5 106//5 110//5 109//5
f 103//4 104//4 108//4 107//4
f 113//5 114//5 118//5 117//5
f 107//4 108//4 112//4 111//4
f 110//2 107//2 111//2 114//2
f 108//6 109//6 113//6 112//6
f 116//1 117//1 118//1 115//1
f 111//4 112//4 116//4 115//4
f 114//2 111//2 115//2 118//2
f 122//2 119//2 120//2 121//2
f 82//5 50//5 120//5 119//5
f 73//1 82//1 119//1 122//1
f 49//4 73//4 122//4 121//4
f 123//4 124//4 126//4 125//4
f 129//4 123//4 125//4 130//4
f 128//4 129//4 130//4 127//4
f 95//19 43//19 127//19 130//19
f 94//13 69//13 123//13 129//13
f 43//25 41//25 128//25 127//25
f 44//19 70//19 125//19 126//19
f 41//13 94//13 129//13 128//13
o Cube.048_Cube.024
v -564.294800 467.236664 182.443024
v -727.307861 342.326721 55.078217
v -422.820953 481.818146 -12.928596
v -585.859985 356.974823 -140.239594
v -678.213684 646.711731 40.522255
v -761.794983 582.666931 -24.781235
v -605.676025 654.188171 -59.650230
v -689.249634 590.164185 -124.945702
v -346.370056 458.363220 -439.302399
v -260.333008 523.487976 -373.128174
v -316.703979 631.815430 -406.446442
v -402.740906 566.690674 -472.620636
v -216.993927 492.929138 -609.474670
v -153.737610 540.810303 -560.821716
v -195.182800 620.455139 -585.318054
v -258.439178 572.573975 -633.970886
v -135.534912 517.357544 -715.463013
v -89.308044 552.348511 -679.908142
v -119.595520 610.551880 -697.809875
v -165.822571 575.560974 -733.364502
v -482.883179 587.738464 -25.802040
v -655.947998 455.212616 -160.963898
v -633.077148 572.256226 181.608765
v -806.135498 439.648926 46.395393
v -282.605591 579.960022 -392.286316
v -373.944489 510.822083 -462.538361
v -161.518677 583.124695 -586.863525
v -228.673157 532.292908 -638.514343
v -87.196167 583.992554 -709.787842
v -136.271790 546.845337 -747.533569
v -79.136597 519.399475 -790.799316
v -32.909607 554.390381 -755.244629
v -27.638855 591.484619 -794.594971
v -76.714417 554.337463 -832.340820
v -106.750793 582.215332 -816.716003
v -60.523865 617.206177 -781.161194
v -39.197021 522.011230 -845.297424
v 7.029968 557.002197 -809.742737
v 12.300659 594.096313 -849.093018
v -36.774841 556.949158 -886.838928
v -66.811279 584.827026 -871.214111
v -20.584412 619.817871 -835.659241
v 4.352173 508.889893 -865.826050
v 34.106384 531.411987 -842.941040
v 37.498901 555.287903 -868.269104
v 5.911194 531.377930 -892.564331
v -28.459900 590.440491 -930.609802
v -58.496338 618.318298 -914.984985
v -12.269348 653.309204 -879.430359
v 20.615662 627.587646 -892.864075
v 33.439880 498.594116 -879.870483
v 53.499329 513.777893 -864.442078
v 55.786438 529.874329 -881.517517
v 34.490845 513.754883 -897.896729
v 59.680603 497.380432 -902.220703
v 72.219910 506.871979 -892.576172
v 73.649719 516.934021 -903.250244
v 60.337708 506.857635 -913.489197
v -21.028687 619.198914 -945.434631
v -41.000244 637.735168 -935.045349
v -10.263306 661.001099 -911.404663
v 11.602234 643.898499 -920.336853
v -287.670258 594.671875 359.089508
v -284.541138 354.040497 337.082184
v -169.436218 616.207336 148.713928
v -166.554138 374.769135 127.208504
v -469.033569 549.122986 184.839813
v -467.429138 425.744568 173.556046
v -408.480103 560.074646 77.121246
v -406.933960 436.372681 65.947937
v -27.688232 459.163635 -233.709534
v -26.766479 585.724182 -227.850769
v -137.220032 589.396057 -289.567780
v -138.138672 462.817291 -295.434631
v 62.947937 484.148254 -428.779633
v 63.653687 577.113831 -424.539642
v -17.551880 579.800110 -469.921417
v -18.257629 486.834534 -474.161469
v 117.918030 501.881561 -551.782471
v 118.433838 569.819580 -548.683899
v 59.089722 571.782593 -581.848267
v 58.573975 503.844666 -584.946777
v -283.919861 626.102478 106.432961
v -280.859924 369.793304 83.602188
v -409.439636 603.247131 329.772491
v -406.117676 347.787231 306.408997
v -79.190369 591.533752 -263.506989
v -80.209351 457.296265 -269.629425
v 32.284851 582.001404 -463.543915
v 31.535583 483.307068 -468.045074
v 102.044983 573.873779 -588.853088
v 101.497437 501.749268 -592.142578
v 166.949463 505.171051 -632.066956
v 167.465271 573.109070 -628.968384
v 150.852234 577.683105 -680.497925
v 150.304749 505.558594 -683.787537
v 107.415833 507.574066 -674.845520
v 107.931580 575.512085 -671.746948
v 201.023132 507.573853 -690.421570
v 201.538879 575.511902 -687.322998
v 184.925964 580.085999 -738.852722
v 184.378418 507.961487 -742.142090
v 141.489502 509.976898 -733.200134
v 142.005127 577.914917 -730.101501
v 243.302429 520.440369 -713.595581
v 243.634338 564.169067 -711.601074
v 232.941467 567.113159 -744.768494
v 232.589050 520.689880 -746.885803
v 173.130249 510.533936 -796.672729
v 130.241211 512.549438 -787.730652
v 130.757019 580.487427 -784.632080
v 173.677734 582.658447 -793.383118
v 272.693359 528.044739 -728.684631
v 272.917175 557.525391 -727.339966
v 265.708435 559.510254 -749.700867
v 265.470764 528.212891 -751.128113
v 294.994385 534.570984 -754.173157
v 295.134216 552.999695 -753.332642
v 290.627808 554.240479 -767.310303
v 290.479248 534.676147 -768.202637
v 159.973206 523.990906 -824.019470
v 131.455688 525.330994 -818.073730
v 131.798584 570.503845 -816.013367
v 160.337158 571.947449 -821.832092
vn 0.4497 -0.8540 0.2618
vn -0.3699 0.8552 -0.3630
vn -0.4497 0.8539 -0.2618
vn -0.4451 -0.2848 0.8490
vn 0.3749 0.8640 0.3360
vn -0.6456 -0.5683 -0.5102
vn -0.3988 0.8574 -0.3254
vn 0.7780 0.4755 0.4106
vn -0.7399 -0.1517 -0.6554
vn 0.5289 -0.8369 0.1409
vn -0.6671 -0.4037 -0.6262
vn 0.7574 0.4478 0.4751
vn -0.6638 -0.4392 -0.6054
vn 0.4892 -0.8490 0.1995
vn 0.6504 0.5660 0.5065
vn 0.4974 -0.8471 0.1870
vn -0.3895 0.8571 -0.3372
vn 0.7803 0.4141 0.4686
vn 0.6766 0.6134 0.4073
vn 0.4231 -0.8572 0.2935
vn -0.5933 -0.5746 -0.5638
vn 0.6870 0.5833 0.4335
vn -0.5634 -0.6029 -0.5649
vn -0.5578 -0.5443 -0.6266
vn 0.5082 0.8017 0.3147
vn -0.8077 -0.0423 -0.5881
vn 0.7010 0.4634 0.5422
vn -0.7382 0.4698 0.4841
vn -0.4349 0.8566 -0.2776
vn -0.6563 -0.5582 -0.5077
vn -0.4529 0.8550 -0.2527
vn 0.7035 0.4654 0.5371
vn -0.6537 -0.5620 -0.5068
vn -0.7064 -0.4610 -0.5371
vn 0.6446 0.5431 0.5380
vn 0.0765 -0.7586 0.6471
vn 0.7013 0.4694 0.5365
vn 0.6504 0.5684 0.5039
vn -0.7062 -0.4585 -0.5395
vn 0.4349 -0.8566 0.2776
vn 0.1952 0.5602 -0.8051
vn -0.4737 -0.6602 -0.5829
vn 0.8400 0.3342 0.4275
vn 0.2153 0.5414 -0.8127
vn 0.6547 0.7246 0.2154
vn -0.7132 -0.4847 -0.5063
vn -0.7182 0.6118 0.3317
vn 0.7182 -0.6118 -0.3317
vn -0.1453 0.7930 -0.5916
vn 0.8202 0.3573 0.4467
vn -0.5051 -0.6458 -0.5726
vn 0.0556 -0.7468 0.6627
vn 0.7301 -0.5434 -0.4144
vn 0.8141 0.3642 0.4523
vn -0.5145 -0.6412 -0.5693
vn 0.3191 -0.8492 0.4208
vn 0.1492 0.6009 -0.7853
vn -0.6101 -0.2328 -0.7574
vn 0.7330 -0.4516 -0.5086
vn -0.6622 0.7369 0.1357
vn 0.8727 -0.0331 0.4872
vn -0.8040 0.0384 -0.5934
vn -0.8726 0.0332 -0.4872
vn -0.2392 -0.0915 0.9667
vn -0.4341 0.8877 -0.1533
vn 0.0666 -0.9959 -0.0609
vn -0.8320 0.0317 -0.5538
vn 0.1100 0.9933 -0.0354
vn -0.2771 -0.9038 -0.3262
vn 0.9345 -0.0214 0.3552
vn -0.0616 -0.9805 -0.1865
vn 0.1151 0.9933 0.0131
vn -0.0373 -0.9874 -0.1539
vn 0.9079 -0.0260 0.4185
vn -0.0466 0.9988 0.0164
vn 0.9140 -0.0254 0.4048
vn -0.8236 0.0321 -0.5663
vn 0.1565 0.9875 0.0171
vn -0.0466 0.9942 -0.0964
vn 0.8536 -0.0302 0.5201
vn 0.1007 -0.9919 -0.0767
vn -0.0212 0.9978 -0.0630
vn 0.1416 -0.9872 -0.0730
vn 0.1240 -0.9765 -0.1761
vn -0.2907 0.9368 -0.1945
vn -0.4085 -0.8569 -0.3143
vn 0.0400 0.9915 0.1239
vn -0.9174 -0.0481 0.3952
vn -0.8637 0.0295 -0.5031
vn 0.0372 -0.9991 -0.0194
vn -0.8788 0.0284 -0.4763
vn 0.0566 0.9957 0.0733
vn 0.0415 -0.9990 -0.0177
vn -0.0617 -0.9953 -0.0745
vn -0.0392 0.9977 0.0552
vn 0.4903 -0.0434 0.8705
vn 0.0523 0.9961 0.0716
vn -0.0478 0.9988 0.0132
vn -0.0630 -0.9950 -0.0777
vn 0.8637 -0.0295 0.5031
vn -0.1382 0.0462 -0.9893
vn 0.2463 -0.9653 -0.0865
vn 0.2610 0.9653 0.0015
vn -0.1099 0.0461 -0.9929
vn -0.1100 0.9461 -0.3046
vn -0.0544 -0.9979 -0.0359
vn -0.9794 -0.0018 0.2019
vn 0.9794 0.0018 -0.2019
vn -0.5707 0.0417 -0.8201
vn 0.2279 0.9736 0.0130
vn 0.2131 -0.9741 -0.0759
vn 0.4652 -0.0439 0.8841
vn 0.9519 0.0067 -0.3063
vn 0.2179 0.9758 0.0164
vn 0.2028 -0.9765 -0.0726
vn 0.7566 -0.0355 0.6529
vn -0.2018 0.0462 -0.9783
vn -0.1241 -0.9127 -0.3894
vn 0.9035 0.0127 -0.4284
vn -0.9993 0.0092 -0.0361
usemtl Matériau.012
s off
f 131//26 132//26 134//26 133//26
f 138//27 137//27 141//27 142//27
f 137//28 138//28 136//28 135//28
f 153//29 154//29 132//29 131//29
f 151//30 137//30 135//30 153//30
f 152//31 134//31 132//31 154//31
f 142//32 141//32 145//32 146//32
f 151//33 133//33 140//33 155//33
f 152//34 138//34 142//34 156//34
f 133//35 134//35 139//35 140//35
f 158//36 146//36 150//36 160//36
f 155//37 140//37 144//37 157//37
f 156//38 142//38 146//38 158//38
f 140//39 139//39 143//39 144//39
f 149//40 159//40 163//40 166//40
f 144//41 143//41 147//41 148//41
f 146//42 145//42 149//42 150//42
f 157//43 144//43 148//43 159//43
f 145//44 157//44 159//44 149//44
f 148//45 147//45 161//45 162//45
f 139//46 156//46 158//46 143//46
f 141//47 155//47 157//47 145//47
f 143//48 158//48 160//48 147//48
f 134//49 152//49 156//49 139//49
f 137//50 151//50 155//50 141//50
f 138//51 152//51 154//51 136//51
f 133//52 151//52 153//52 131//52
f 135//53 136//53 154//53 153//53
f 165//54 166//54 172//54 171//54
f 161//55 164//55 170//55 167//55
f 150//56 149//56 166//56 165//56
f 159//57 148//57 162//57 163//57
f 147//58 160//58 164//58 161//58
f 160//59 150//59 165//59 164//59
f 172//60 169//60 180//60 179//60
f 168//61 167//61 173//61 174//61
f 163//62 162//62 168//62 169//62
f 166//63 163//63 169//63 172//63
f 164//64 165//64 171//64 170//64
f 162//65 161//65 167//65 168//65
f 176//66 175//66 183//66 184//66
f 167//67 170//67 176//67 173//67
f 169//68 168//68 174//68 175//68
f 170//69 169//69 175//69 176//69
f 179//70 180//70 192//70 191//70
f 170//71 171//71 178//71 177//71
f 171//72 172//72 179//72 178//72
f 169//73 170//73 177//73 180//73
f 184//74 183//74 187//74 188//74
f 175//75 174//75 182//75 183//75
f 173//76 176//76 184//76 181//76
f 174//77 173//77 181//77 182//77
f 186//78 185//78 188//78 187//78
f 183//79 182//79 186//79 187//79
f 181//80 184//80 188//80 185//80
f 182//81 181//81 185//81 186//81
f 192//82 189//82 190//82 191//82
f 177//83 178//83 190//83 189//83
f 180//84 177//84 189//84 192//84
f 178//85 179//85 191//85 190//85
f 193//86 194//86 196//86 195//86
f 200//87 199//87 203//87 204//87
f 199//88 200//88 198//88 197//88
f 215//89 216//89 194//89 193//89
f 213//90 199//90 197//90 215//90
f 214//91 196//91 194//91 216//91
f 204//92 203//92 207//92 208//92
f 213//93 195//93 202//93 217//93
f 214//94 200//94 204//94 218//94
f 195//95 196//95 201//95 202//95
f 220//96 208//96 212//96 222//96
f 217//97 202//97 206//97 219//97
f 218//98 204//98 208//98 220//98
f 202//99 201//99 205//99 206//99
f 211//100 221//100 225//100 228//100
f 206//101 205//101 209//101 210//101
f 208//102 207//102 211//102 212//102
f 219//103 206//103 210//103 221//103
f 207//104 219//104 221//104 211//104
f 210//105 209//105 223//105 224//105
f 201//106 218//106 220//106 205//106
f 203//107 217//107 219//107 207//107
f 205//108 220//108 222//108 209//108
f 196//109 214//109 218//109 201//109
f 199//110 213//110 217//110 203//110
f 200//111 214//111 216//111 198//111
f 195//112 213//112 215//112 193//112
f 197//113 198//113 216//113 215//113
f 227//114 228//114 234//114 233//114
f 223//115 226//115 232//115 229//115
f 212//116 211//116 228//116 227//116
f 221//117 210//117 224//117 225//117
f 209//118 222//118 226//118 223//118
f 222//119 212//119 227//119 226//119
f 234//120 231//120 242//120 241//120
f 230//121 229//121 235//121 236//121
f 225//122 224//122 230//122 231//122
f 228//123 225//123 231//123 234//123
f 226//124 227//124 233//124 232//124
f 224//125 223//125 229//125 230//125
f 238//126 237//126 245//126 246//126
f 229//127 232//127 238//127 235//127
f 231//128 230//128 236//128 237//128
f 232//129 231//129 237//129 238//129
f 241//130 242//130 254//130 253//130
f 232//131 233//131 240//131 239//131
f 233//132 234//132 241//132 240//132
f 231//133 232//133 239//133 242//133
f 246//134 245//134 249//134 250//134
f 237//135 236//135 244//135 245//135
f 235//136 238//136 246//136 243//136
f 236//137 235//137 243//137 244//137
f 248//138 247//138 250//138 249//138
f 245//139 244//139 248//139 249//139
f 243//140 246//140 250//140 247//140
f 244//141 243//141 247//141 248//141
f 254//142 251//142 252//142 253//142
f 239//143 240//143 252//143 251//143
f 242//144 239//144 251//144 254//144
f 240//145 241//145 253//145 252//145
