# Blender v2.91.2 OBJ File: 'camionnete02.blend'
# www.blender.org
mtllib arme_000040.mtl
o Cube.046_Cube.010
v 366.649200 228.680115 -1021.327881
v 367.915314 8.277023 -1021.274902
v 485.270447 229.316895 -1207.090332
v 486.536560 8.913818 -1207.037476
v 180.889954 227.584534 -1139.950806
v 182.156021 7.181427 -1139.897827
v 299.511169 228.221344 -1325.713257
v 300.777283 7.818222 -1325.660400
v 203.331253 227.803345 -765.569702
v 204.597351 7.400299 -765.516724
v 18.838100 6.304703 -884.139648
v 17.572010 226.707794 -884.192566
v 129.419189 227.406586 -649.822205
v 130.685272 7.003494 -649.769348
v -55.074036 5.907898 -768.392212
v -56.340126 226.311005 -768.445190
v 85.755219 227.172180 -581.443909
v 94.114136 66.888382 -592.739990
v -91.645210 65.792816 -711.362915
v -100.004105 226.076630 -700.066772
v 128.156982 447.128296 -649.875061
v -57.602276 446.032715 -768.498047
v 84.493050 446.893921 -581.496704
v -101.266228 445.798340 -700.119629
v 228.811874 227.940125 -805.472656
v 230.077972 7.537079 -805.419739
v 43.052601 226.844574 -924.095581
v 44.318665 6.441483 -924.042664
v 202.913315 300.560059 -765.587158
v 17.154047 299.464539 -884.210144
v 228.393921 300.696838 -805.490112
v 42.634636 299.601257 -924.112976
v 202.306976 406.118164 -765.612549
v 16.547697 405.022583 -884.235352
v 227.787537 406.254944 -805.515503
v 42.028301 405.159363 -924.138367
v 130.671768 300.172241 -652.455811
v -55.087540 299.076660 -771.078735
v 130.065384 405.730408 -652.481140
v -55.693905 404.634766 -771.104065
v 154.939651 584.059875 -693.080322
v -30.819626 582.964294 -811.703308
v 111.275681 583.825500 -624.702026
v -74.483551 582.729858 -743.324890
v 443.393463 229.092102 -1141.510498
v 444.659576 8.689011 -1141.457642
v 257.634186 227.996521 -1260.133301
v 258.900299 7.593414 -1260.080444
v 392.390808 228.769135 -1266.401855
v 393.656921 8.366013 -1266.348999
v 273.769592 228.132324 -1080.639404
v 275.035675 7.729233 -1080.586426
v 110.451637 227.255554 -824.881104
v 111.717712 6.852493 -824.828125
v 36.539539 226.858826 -709.133728
v 37.805614 6.455704 -709.080811
v -7.124417 226.624390 -640.755371
v 1.234482 66.340607 -652.051453
v 35.277336 446.580566 -709.186462
v -8.386593 446.346130 -640.808167
v 137.198318 6.989288 -864.731140
v 135.932236 227.392334 -864.784119
v 110.033684 300.012299 -824.898682
v 135.514282 300.149017 -864.801514
v 109.427338 405.570435 -824.923950
v 134.907928 405.707153 -864.826965
v 37.792110 299.624481 -711.767334
v 37.185745 405.182617 -711.792603
v 62.059998 583.512146 -752.391846
v 18.396044 583.277649 -684.013489
v 351.779907 8.141220 -1200.769043
v 350.513824 228.544312 -1200.821899
v 438.830627 229.042999 -1236.745972
v 321.475494 8.003128 -1050.930664
v 158.157532 7.126404 -795.172485
v 84.245422 6.729599 -679.425110
v 47.674301 66.614487 -622.395752
v 182.372055 227.666229 -835.128357
v 181.954102 300.422913 -835.145813
v 181.347733 405.981018 -835.171204
v 396.953674 228.818207 -1171.166260
v 440.096741 8.639923 -1236.693237
v 320.209381 228.406219 -1050.983765
v 156.891449 227.529449 -795.225464
v 82.979347 227.132690 -679.477966
v 39.315388 226.898285 -611.099609
v 81.717178 446.854431 -679.530762
v 38.053242 446.619995 -611.152466
v 183.638153 7.263184 -835.075439
v 156.473511 300.286194 -795.242920
v 155.867142 405.844299 -795.268250
v 84.231934 299.898376 -682.111572
v 83.625565 405.456482 -682.136841
v 108.499847 583.786011 -722.736023
v 64.835876 583.551514 -654.357727
v 398.219727 8.415115 -1171.113403
v 183.875214 -34.004280 -835.065552
v 137.435379 -34.278198 -864.721252
v 398.456787 -32.852356 -1171.103516
v 352.016998 -33.126266 -1200.759155
v 275.272736 -33.538254 -1080.576538
v 321.712555 -33.264343 -1050.920776
v 500.649750 167.967468 -1057.970215
v 466.714203 167.785278 -1004.826721
v 467.274170 70.325302 -1004.803162
v 501.209625 70.507477 -1057.946899
v 540.791382 168.204254 -1032.336548
v 506.855865 168.022064 -979.192993
v 507.415771 70.562088 -979.169556
v 541.351257 70.744247 -1032.313110
v 602.220886 168.566559 -993.108826
v 568.285339 168.384369 -939.965210
v 568.845215 70.924423 -939.941772
v 602.780701 71.106598 -993.085449
v 641.749939 168.799713 -967.866211
v 607.814392 168.617523 -914.722656
v 608.374390 71.157547 -914.699219
v 642.309814 71.339722 -967.842773
v 829.790344 10.732208 -1846.958008
v 783.350525 10.458313 -1876.613770
v 782.084290 230.861420 -1876.666748
v 828.524231 231.135315 -1847.010986
vn 0.8428 0.0050 0.5382
vn 0.5382 0.0029 -0.8428
vn -0.8428 -0.0050 -0.5382
vn -0.0057 1.0000 -0.0002
vn 0.0057 -1.0000 0.0002
vn -0.5382 -0.0029 0.8428
vn -0.3533 -0.7492 0.5602
vn -0.5358 -0.0871 0.8398
vn -0.8435 -0.0055 -0.5371
vn 0.8435 0.0055 0.5371
vn 0.5060 -0.3480 -0.7892
vn -0.5060 0.3480 0.7892
vn 0.8264 0.0046 -0.5630
vn -0.1631 -0.0007 0.9866
vn 0.4698 -0.8312 0.2972
vn 0.4602 0.8367 0.2968
usemtl Matériau.011
s off
f 45//1 46//1 4//1 3//1
f 49//2 50//2 8//2 7//2
f 47//3 48//3 6//3 5//3
f 26//1 25//1 9//1 10//1
f 72//4 47//4 5//4 51//4
f 96//5 46//5 2//5 74//5
f 10//1 9//1 13//1 14//1
f 84//6 9//6 29//6 90//6
f 89//5 26//5 10//5 75//5
f 27//3 28//3 11//3 12//3
f 76//7 14//7 18//7 77//7
f 75//5 10//5 14//5 76//5
f 12//3 11//3 15//3 16//3
f 53//4 12//4 16//4 55//4
f 86//8 77//8 18//8 17//8
f 16//9 15//9 19//9 20//9
f 16//3 20//3 24//3 22//3
f 14//10 13//10 17//10 18//10
f 59//11 22//11 42//11 69//11
f 86//6 17//6 23//6 88//6
f 17//1 13//1 21//1 23//1
f 55//2 16//2 22//2 59//2
f 5//3 6//3 28//3 27//3
f 74//5 2//5 26//5 89//5
f 51//4 5//4 27//4 62//4
f 2//1 1//1 25//1 26//1
f 32//3 30//3 34//3 36//3
f 62//2 27//2 32//2 64//2
f 27//3 12//3 30//3 32//3
f 9//1 25//1 31//1 29//1
f 66//4 36//4 34//4 65//4
f 90//5 29//5 37//5 92//5
f 64//2 32//2 36//2 66//2
f 29//1 31//1 35//1 33//1
f 92//6 37//6 39//6 93//6
f 29//1 33//1 39//1 37//1
f 34//3 30//3 38//3 40//3
f 65//4 34//4 40//4 68//4
f 69//4 42//4 44//4 70//4
f 23//1 21//1 41//1 43//1
f 88//12 23//12 43//12 95//12
f 22//3 24//3 44//3 42//3
f 82//5 4//5 46//5 96//5
f 49//4 7//4 47//4 72//4
f 7//3 8//3 48//3 47//3
f 46//13 45//13 103//13 106//13
f 73//4 49//4 72//4 81//4
f 8//5 50//5 71//5 48//5
f 24//12 60//12 70//12 44//12
f 94//4 69//4 70//4 95//4
f 91//4 65//4 68//4 93//4
f 38//6 67//6 68//6 40//6
f 79//2 64//2 66//2 80//2
f 30//5 63//5 67//5 38//5
f 80//4 66//4 65//4 91//4
f 78//2 62//2 64//2 79//2
f 83//4 51//4 62//4 78//4
f 6//5 52//5 61//5 28//5
f 85//2 55//2 59//2 87//2
f 20//6 57//6 60//6 24//6
f 87//11 59//11 69//11 94//11
f 20//8 19//8 58//8 57//8
f 84//4 53//4 55//4 85//4
f 11//5 54//5 56//5 15//5
f 15//7 56//7 58//7 19//7
f 28//5 61//5 54//5 11//5
f 12//6 53//6 63//6 30//6
f 48//5 71//5 52//5 6//5
f 81//4 72//4 51//4 83//4
f 50//3 49//3 121//3 120//3
f 3//2 4//2 82//2 73//2
f 45//4 81//4 83//4 1//4
f 9//4 84//4 85//4 13//4
f 21//11 87//11 94//11 41//11
f 13//2 85//2 87//2 21//2
f 1//4 83//4 78//4 25//4
f 25//2 78//2 79//2 31//2
f 35//4 80//4 91//4 33//4
f 31//2 79//2 80//2 35//2
f 33//4 91//4 93//4 39//4
f 41//4 94//4 95//4 43//4
f 3//4 73//4 81//4 45//4
f 50//5 82//5 96//5 71//5
f 60//12 88//12 95//12 70//12
f 67//6 92//6 93//6 68//6
f 63//5 90//5 92//5 67//5
f 52//3 71//3 100//3 101//3
f 57//6 86//6 88//6 60//6
f 57//8 58//8 77//8 86//8
f 54//5 75//5 76//5 56//5
f 56//7 76//7 77//7 58//7
f 61//5 89//5 75//5 54//5
f 53//6 84//6 90//6 63//6
f 89//6 61//6 98//6 97//6
f 101//5 102//5 97//5 98//5
f 100//5 99//5 102//5 101//5
f 61//3 52//3 101//3 98//3
f 74//1 89//1 97//1 102//1
f 71//2 96//2 99//2 100//2
f 96//1 74//1 102//1 99//1
f 106//2 103//2 107//2 110//2
f 1//14 2//14 105//14 104//14
f 2//15 46//15 106//15 105//15
f 45//16 1//16 104//16 103//16
f 109//5 110//5 114//5 113//5
f 104//6 105//6 109//6 108//6
f 105//5 106//5 110//5 109//5
f 103//4 104//4 108//4 107//4
f 113//5 114//5 118//5 117//5
f 107//4 108//4 112//4 111//4
f 110//2 107//2 111//2 114//2
f 108//6 109//6 113//6 112//6
f 116//1 117//1 118//1 115//1
f 111//4 112//4 116//4 115//4
f 114//2 111//2 115//2 118//2
f 122//2 119//2 120//2 121//2
f 82//5 50//5 120//5 119//5
f 73//1 82//1 119//1 122//1
f 49//4 73//4 122//4 121//4
o Cube.047_Cube.022
v -251.789185 467.979065 285.964783
v -248.874481 226.500519 277.179260
v -134.636414 477.075714 74.801193
v -131.721710 235.597168 66.015686
v -433.875732 413.074677 115.200745
v -432.381287 289.261871 110.696175
v -373.808228 417.738770 6.931259
v -372.313782 293.925964 2.426697
v 5.771118 308.137329 -299.567413
v 4.244385 434.625000 -294.965546
v -106.456207 435.521851 -356.343170
v -104.929474 309.034210 -360.945038
v 95.261871 333.104034 -495.168030
v 94.139374 426.100586 -491.784607
v 12.749786 426.759979 -536.910828
v 13.872284 333.763428 -540.294250
v 149.470886 350.782349 -618.515991
v 148.650574 418.742981 -616.043457
v 89.172150 419.224884 -649.021118
v 89.992462 351.264221 -651.493652
v -249.298920 484.680847 32.531013
v -246.204590 228.321655 23.204124
v -373.671021 475.023651 256.707214
v -370.576721 218.664444 247.380325
v -48.439667 439.181396 -330.403168
v -46.818848 304.899170 -335.288666
v 62.553589 430.005615 -530.724426
v 63.745239 331.278320 -534.316345
v 132.054565 422.100403 -656.191833
v 132.925415 349.951813 -658.816711
v 198.167114 354.298096 -698.994629
v 197.346802 422.258759 -696.522095
v 180.479584 426.026367 -748.034485
v 181.350464 353.877747 -750.659363
v 138.459167 355.127106 -741.589417
v 137.638855 423.087769 -739.116882
v 231.997253 356.834442 -757.485229
v 231.176941 424.795105 -755.012695
v 214.309753 428.562683 -806.525024
v 215.180603 356.414062 -809.149902
v 172.289276 357.663452 -800.080017
v 171.468964 425.624115 -797.607483
v 273.937927 370.319855 -780.920959
v 273.409973 414.063049 -779.329529
v 262.553345 416.488068 -812.485657
v 263.113892 370.049286 -814.175232
v 203.706848 358.258881 -863.662781
v 160.815552 359.508240 -854.592896
v 159.995239 427.468933 -852.120361
v 202.835999 430.407501 -861.037903
v 303.123474 378.364105 -796.179871
v 302.767517 407.854553 -795.106995
v 295.448303 409.489441 -817.459961
v 295.826233 378.181702 -818.598999
v 325.208008 385.094116 -821.803406
v 324.985474 403.528961 -821.132690
v 320.410217 404.550934 -835.105896
v 320.646423 384.980103 -835.817932
v 190.197174 371.199371 -891.086792
v 161.678192 372.030090 -885.056030
v 161.132782 417.217987 -883.411987
v 189.618134 419.171875 -889.341431
vn 0.8745 -0.0071 0.4849
vn -0.8056 0.0118 -0.5923
vn -0.8745 0.0071 -0.4849
vn -0.2353 -0.0382 0.9712
vn -0.4314 0.8794 -0.2014
vn 0.0658 -0.9978 -0.0065
vn -0.8343 0.0100 -0.5513
vn 0.1048 0.9920 -0.0705
vn -0.2730 -0.9163 -0.2929
vn 0.9361 -0.0015 0.3518
vn -0.0428 -0.9832 -0.1773
vn 0.0962 0.9954 0.0043
vn -0.0183 -0.9893 -0.1447
vn 0.9095 -0.0041 0.4156
vn -0.0663 0.9978 0.0074
vn 0.9157 -0.0036 0.4019
vn -0.8259 0.0105 -0.5637
vn 0.1370 0.9905 0.0075
vn -0.0666 0.9922 -0.1054
vn 0.8557 -0.0085 0.5174
vn 0.1201 -0.9904 -0.0680
vn -0.0422 0.9965 -0.0725
vn 0.1608 -0.9849 -0.0644
vn 0.1286 -0.9814 -0.1423
vn -0.2953 0.9283 -0.2258
vn -0.4102 -0.8726 -0.2652
vn 0.0418 0.9969 0.0661
vn -0.9158 -0.0256 0.4008
vn -0.8658 0.0078 -0.5004
vn 0.0569 -0.9983 -0.0104
vn -0.8808 0.0066 -0.4735
vn 0.0371 0.9973 0.0640
vn 0.0612 -0.9981 -0.0086
vn -0.0422 -0.9970 -0.0652
vn -0.0588 0.9972 0.0461
vn 0.4939 -0.0257 0.8691
vn 0.0328 0.9975 0.0622
vn -0.0676 0.9977 0.0042
vn -0.0435 -0.9967 -0.0684
vn 0.8658 -0.0078 0.5004
vn -0.1423 0.0343 -0.9892
vn 0.2651 -0.9610 -0.0785
vn 0.2418 0.9703 -0.0082
vn -0.1140 0.0347 -0.9929
vn -0.1297 0.9409 -0.3129
vn -0.0347 -0.9990 -0.0265
vn -0.9785 -0.0193 0.2053
vn 0.9785 0.0193 -0.2053
vn -0.5741 0.0228 -0.8185
vn 0.2086 0.9780 0.0032
vn 0.2321 -0.9703 -0.0676
vn 0.4689 -0.0265 0.8829
vn 0.9506 0.0227 -0.3096
vn 0.1986 0.9801 0.0067
vn 0.2219 -0.9729 -0.0643
vn 0.7593 -0.0145 0.6506
vn -0.2059 0.0331 -0.9780
vn -0.1072 -0.9185 -0.3806
vn 0.9017 0.0266 -0.4316
vn -0.9994 -0.0109 -0.0328
usemtl Matériau.012
s off
f 123//17 124//17 126//17 125//17
f 130//18 129//18 133//18 134//18
f 129//19 130//19 128//19 127//19
f 145//20 146//20 124//20 123//20
f 143//21 129//21 127//21 145//21
f 144//22 126//22 124//22 146//22
f 134//23 133//23 137//23 138//23
f 143//24 125//24 132//24 147//24
f 144//25 130//25 134//25 148//25
f 125//26 126//26 131//26 132//26
f 150//27 138//27 142//27 152//27
f 147//28 132//28 136//28 149//28
f 148//29 134//29 138//29 150//29
f 132//30 131//30 135//30 136//30
f 141//31 151//31 155//31 158//31
f 136//32 135//32 139//32 140//32
f 138//33 137//33 141//33 142//33
f 149//34 136//34 140//34 151//34
f 137//35 149//35 151//35 141//35
f 140//36 139//36 153//36 154//36
f 131//37 148//37 150//37 135//37
f 133//38 147//38 149//38 137//38
f 135//39 150//39 152//39 139//39
f 126//40 144//40 148//40 131//40
f 129//41 143//41 147//41 133//41
f 130//42 144//42 146//42 128//42
f 125//43 143//43 145//43 123//43
f 127//44 128//44 146//44 145//44
f 157//45 158//45 164//45 163//45
f 153//46 156//46 162//46 159//46
f 142//47 141//47 158//47 157//47
f 151//48 140//48 154//48 155//48
f 139//49 152//49 156//49 153//49
f 152//50 142//50 157//50 156//50
f 164//51 161//51 172//51 171//51
f 160//52 159//52 165//52 166//52
f 155//53 154//53 160//53 161//53
f 158//54 155//54 161//54 164//54
f 156//55 157//55 163//55 162//55
f 154//56 153//56 159//56 160//56
f 168//57 167//57 175//57 176//57
f 159//58 162//58 168//58 165//58
f 161//59 160//59 166//59 167//59
f 162//60 161//60 167//60 168//60
f 171//61 172//61 184//61 183//61
f 162//62 163//62 170//62 169//62
f 163//63 164//63 171//63 170//63
f 161//64 162//64 169//64 172//64
f 176//65 175//65 179//65 180//65
f 167//66 166//66 174//66 175//66
f 165//67 168//67 176//67 173//67
f 166//68 165//68 173//68 174//68
f 178//69 177//69 180//69 179//69
f 175//70 174//70 178//70 179//70
f 173//71 176//71 180//71 177//71
f 174//72 173//72 177//72 178//72
f 184//73 181//73 182//73 183//73
f 169//74 170//74 182//74 181//74
f 172//75 169//75 181//75 184//75
f 170//76 171//76 183//76 182//76
o Cube.048_Cube.024
v -525.422241 330.315430 112.202957
v -686.792419 197.362732 -8.961525
v -384.109406 337.333923 -83.702637
v -545.479553 204.381226 -204.867126
v -641.609985 501.306061 -38.106613
v -724.348999 433.137512 -100.231033
v -569.154968 504.904633 -138.552902
v -651.893921 436.736053 -200.677322
v -306.176971 295.347870 -508.637970
v -221.650513 364.989136 -445.171417
v -279.950562 470.626312 -483.440521
v -364.477020 400.985046 -546.907043
v -176.837036 324.804138 -679.795898
v -114.691284 376.005981 -633.133911
v -157.554779 453.672791 -661.270264
v -219.700562 402.470978 -707.932251
v -95.455994 346.063660 -786.524597
v -50.040710 383.481293 -752.424622
v -81.364807 440.239197 -772.986267
v -126.780090 402.821564 -807.086243
v -445.526978 441.733398 -101.611450
v -616.841248 300.587738 -230.242462
v -595.547974 434.282410 106.366486
v -766.862244 293.136780 -22.264526
v -244.923279 420.116028 -466.887695
v -334.658539 346.183258 -534.265259
v -123.178955 416.964783 -661.054382
v -189.154358 362.607727 -710.591858
v -48.419250 413.802063 -783.675415
v -96.633179 374.078644 -819.876709
v -38.820557 345.842194 -861.710144
v 6.594727 383.259827 -827.610168
v 11.306641 418.664551 -868.555481
v -36.907288 378.941132 -904.756836
v -67.529236 406.902588 -890.476196
v -22.113953 444.320221 -856.376221
v 1.269165 346.798737 -916.152344
v 46.684448 384.216370 -882.052368
v 51.396362 419.621124 -922.997742
v 3.182434 379.897705 -959.199097
v -27.439575 407.859161 -944.918396
v 17.975708 445.276794 -910.818420
v 45.138550 333.618530 -935.948303
v 74.370300 357.702545 -913.999695
v 77.403198 380.490967 -940.354370
v 46.370056 354.922821 -963.655518
v 11.023621 411.565948 -1004.391357
v -19.598389 439.527405 -990.110718
v 25.816895 476.945038 -956.010742
v 59.237549 451.289368 -968.190002
v 74.470459 323.270386 -949.434937
v 94.177734 339.507172 -934.637817
v 96.222473 354.870514 -952.405396
v 75.300781 337.633179 -968.114380
v 100.814514 321.570190 -971.631470
v 113.133789 331.720001 -962.381592
v 114.411987 341.323792 -973.488342
v 101.333557 330.548492 -983.308228
v 17.961243 439.775269 -1020.458313
v -2.399719 458.367188 -1010.962830
v 27.797485 483.246643 -988.289368
v 50.019287 466.187866 -996.387634
vn 0.4606 -0.8345 0.3023
vn -0.3823 0.8314 -0.4032
vn -0.4606 0.8345 -0.3023
vn -0.4416 -0.2495 0.8618
vn 0.3638 0.8839 0.2941
vn -0.6382 -0.6005 -0.4818
vn -0.4138 0.8343 -0.3643
vn 0.7702 0.5055 0.3890
vn -0.7367 -0.1928 -0.6482
vn 0.5412 -0.8213 0.1804
vn -0.6569 -0.4438 -0.6096
vn 0.7469 0.4830 0.4570
vn -0.6530 -0.4783 -0.5873
vn 0.5046 -0.8298 0.2385
vn 0.6376 0.6004 0.4827
vn 0.5127 -0.8283 0.2260
vn -0.4045 0.8336 -0.3761
vn 0.7705 0.4495 0.4520
vn 0.6632 0.6438 0.3816
vn 0.4383 -0.8350 0.3326
vn -0.5801 -0.6104 -0.5394
vn 0.6741 0.6150 0.4091
vn -0.5496 -0.6382 -0.5392
vn -0.5486 -0.5810 -0.6012
vn 0.4960 0.8228 0.2774
vn -0.8070 -0.0807 -0.5850
vn 0.6948 0.4978 0.5190
vn -0.7443 0.4829 0.4613
vn -0.4501 0.8349 -0.3167
vn -0.6436 -0.5927 -0.4843
vn -0.4681 0.8341 -0.2918
vn 0.6925 0.5022 0.5180
vn -0.6410 -0.5964 -0.4832
vn -0.6954 -0.4979 -0.5182
vn 0.6321 0.5788 0.5153
vn 0.0885 -0.7275 0.6804
vn 0.6902 0.5062 0.5171
vn 0.6375 0.6026 0.4800
vn -0.6953 -0.4955 -0.5207
vn 0.4501 -0.8349 0.3167
vn 0.1875 0.5275 -0.8286
vn -0.4588 -0.6944 -0.5543
vn 0.8318 0.3689 0.4147
vn 0.2080 0.5088 -0.8354
vn 0.6399 0.7459 0.1849
vn -0.7019 -0.5203 -0.4864
vn -0.7310 0.6120 0.3020
vn 0.7310 -0.6120 -0.3020
vn -0.1581 0.7630 -0.6267
vn 0.8115 0.3925 0.4328
vn -0.4905 -0.6802 -0.5448
vn 0.0673 -0.7155 0.6954
vn 0.7419 -0.5471 -0.3877
vn 0.8053 0.3995 0.4381
vn -0.5000 -0.6756 -0.5417
vn 0.3337 -0.8234 0.4591
vn 0.1407 0.5682 -0.8108
vn -0.6026 -0.2779 -0.7481
vn 0.7435 -0.4596 -0.4859
vn -0.6767 0.7294 0.1009
usemtl Matériau.012
s off
f 185//77 186//77 188//77 187//77
f 192//78 191//78 195//78 196//78
f 191//79 192//79 190//79 189//79
f 207//80 208//80 186//80 185//80
f 205//81 191//81 189//81 207//81
f 206//82 188//82 186//82 208//82
f 196//83 195//83 199//83 200//83
f 205//84 187//84 194//84 209//84
f 206//85 192//85 196//85 210//85
f 187//86 188//86 193//86 194//86
f 212//87 200//87 204//87 214//87
f 209//88 194//88 198//88 211//88
f 210//89 196//89 200//89 212//89
f 194//90 193//90 197//90 198//90
f 203//91 213//91 217//91 220//91
f 198//92 197//92 201//92 202//92
f 200//93 199//93 203//93 204//93
f 211//94 198//94 202//94 213//94
f 199//95 211//95 213//95 203//95
f 202//96 201//96 215//96 216//96
f 193//97 210//97 212//97 197//97
f 195//98 209//98 211//98 199//98
f 197//99 212//99 214//99 201//99
f 188//100 206//100 210//100 193//100
f 191//101 205//101 209//101 195//101
f 192//102 206//102 208//102 190//102
f 187//103 205//103 207//103 185//103
f 189//104 190//104 208//104 207//104
f 219//105 220//105 226//105 225//105
f 215//106 218//106 224//106 221//106
f 204//107 203//107 220//107 219//107
f 213//108 202//108 216//108 217//108
f 201//109 214//109 218//109 215//109
f 214//110 204//110 219//110 218//110
f 226//111 223//111 234//111 233//111
f 222//112 221//112 227//112 228//112
f 217//113 216//113 222//113 223//113
f 220//114 217//114 223//114 226//114
f 218//115 219//115 225//115 224//115
f 216//116 215//116 221//116 222//116
f 230//117 229//117 237//117 238//117
f 221//118 224//118 230//118 227//118
f 223//119 222//119 228//119 229//119
f 224//120 223//120 229//120 230//120
f 233//121 234//121 246//121 245//121
f 224//122 225//122 232//122 231//122
f 225//123 226//123 233//123 232//123
f 223//124 224//124 231//124 234//124
f 238//125 237//125 241//125 242//125
f 229//126 228//126 236//126 237//126
f 227//127 230//127 238//127 235//127
f 228//128 227//128 235//128 236//128
f 240//129 239//129 242//129 241//129
f 237//130 236//130 240//130 241//130
f 235//131 238//131 242//131 239//131
f 236//132 235//132 239//132 240//132
f 246//133 243//133 244//133 245//133
f 231//134 232//134 244//134 243//134
f 234//135 231//135 243//135 246//135
f 232//136 233//136 245//136 244//136
