# Blender v2.91.2 OBJ File: 'camionnete02.blend'
# www.blender.org
mtllib arme_000106.mtl
o Cube.046_Cube.010
v 335.420532 600.805359 -1081.398438
v 333.059692 394.196533 -1158.120850
v 446.141174 666.035339 -1260.465576
v 443.780334 459.426575 -1337.188232
v 144.856964 641.264709 -1184.489014
v 142.496094 434.655884 -1261.211548
v 255.577560 706.494629 -1363.556152
v 253.216736 499.885925 -1440.278809
v 182.980164 510.996582 -834.858276
v 180.619324 304.387817 -911.580627
v -9.944242 344.847076 -1014.671204
v -7.583395 551.455811 -937.948730
v 113.990921 470.352173 -723.282532
v 111.630051 263.743408 -800.005066
v -78.933556 304.202698 -903.095581
v -76.572716 510.811523 -826.373108
v 73.235123 446.341309 -657.368652
v 78.473511 300.032654 -724.112183
v -112.090141 340.491974 -827.202759
v -117.328514 486.800659 -760.459229
v 116.344437 676.322266 -646.797241
v -74.219139 716.781616 -749.887878
v 75.588676 652.311340 -580.883423
v -114.974907 692.770752 -683.973877
v 206.763687 525.008301 -873.323059
v 204.402817 318.399597 -950.045471
v 16.200092 565.467773 -976.413574
v 13.839220 358.858917 -1053.135986
v 183.759491 579.199707 -809.531616
v -6.804081 619.659058 -912.622131
v 207.543015 593.211487 -847.996277
v 16.979414 633.670776 -951.086853
v 184.890198 678.151245 -772.786682
v -5.673368 718.610596 -875.877258
v 208.673676 692.163086 -811.251587
v 18.110130 732.622437 -914.341980
v 116.329506 539.473938 -700.477661
v -74.234108 579.933228 -803.568237
v 117.460190 638.425476 -663.732727
v -73.103416 678.884766 -766.823364
v 143.541840 819.704956 -640.799133
v -47.021744 860.164185 -743.889771
v 102.786057 795.694092 -574.885376
v -87.777489 836.153320 -677.975891
v 407.053345 643.007202 -1197.249268
v 404.692505 436.398376 -1273.972168
v 216.489746 683.466431 -1300.339844
v 214.128937 476.857605 -1377.062500
v 350.859375 686.265015 -1312.010986
v 348.498535 479.656250 -1388.733643
v 240.138763 621.035034 -1132.943604
v 237.777908 414.426208 -1209.666138
v 87.698387 531.226196 -886.403503
v 85.337524 324.617432 -963.125854
v 18.709112 490.581848 -774.827759
v 18.707005 288.235535 -834.994263
v -22.046665 466.570923 -708.913940
v -3.650543 312.705505 -783.819519
v 21.062634 696.551941 -698.342529
v -19.693115 672.541077 -632.428589
v 109.121025 338.629272 -1001.590759
v 111.481895 545.238037 -924.868225
v 88.477707 599.429382 -861.076843
v 112.261215 613.441101 -899.541565
v 89.608421 698.380981 -824.331909
v 113.391907 712.392700 -862.796692
v 21.047693 559.703613 -752.022949
v 22.178391 658.655151 -715.278015
v 48.260040 839.934570 -692.344482
v 7.504264 815.923706 -626.430664
v 309.410706 456.628052 -1325.517090
v 311.771545 663.236816 -1248.794678
v 398.500244 676.150146 -1286.238281
v 285.418823 404.311401 -1183.893555
v 132.978424 314.502625 -937.353271
v 50.831379 281.415070 -817.615784
v 28.473841 305.885010 -766.440918
v 159.122772 535.123169 -899.095581
v 159.902084 603.326294 -873.768982
v 161.032791 702.277893 -837.024170
v 359.412476 653.122009 -1223.021973
v 396.139465 469.541443 -1362.960938
v 287.779663 610.920288 -1107.171143
v 135.339279 521.111328 -860.630920
v 66.349991 480.466980 -749.055115
v 25.594219 456.456116 -683.141296
v 68.703552 686.437134 -672.569885
v 27.947790 662.426208 -606.656067
v 156.761932 328.514465 -975.818115
v 136.118607 589.314575 -835.304260
v 137.249313 688.266113 -798.559265
v 68.688591 549.588745 -726.250305
v 69.819283 648.540283 -689.505371
v 95.900963 829.819702 -666.571777
v 55.145172 805.808838 -600.658020
v 357.051575 446.513245 -1299.744629
v 156.319901 289.829742 -990.183411
v 108.678993 299.944550 -1015.955994
v 356.609558 407.828552 -1314.109863
v 308.968689 417.943359 -1339.882324
v 237.335876 375.741547 -1224.031494
v 284.976746 365.626740 -1198.258789
v 466.748901 556.556824 -1142.878052
v 435.073669 537.895630 -1091.649902
v 434.029785 446.535278 -1125.575684
v 465.705017 465.196533 -1176.803955
v 507.928772 547.813843 -1120.600830
v 476.253418 529.152588 -1069.372559
v 475.209595 437.792297 -1103.298584
v 506.884827 456.453552 -1154.526733
v 570.947021 534.434265 -1086.509521
v 539.271729 515.773071 -1035.281250
v 538.227783 424.412720 -1069.207275
v 569.903076 443.074036 -1120.435547
v 611.498413 525.824585 -1064.572266
v 579.823181 507.163391 -1013.343994
v 578.779358 415.803101 -1047.269775
v 610.454529 434.464355 -1098.498047
v 759.878052 683.834534 -1951.230469
v 712.237183 693.949341 -1977.003174
v 714.597839 900.558228 -1900.280762
v 762.238831 890.443420 -1874.508057
v 75.686127 906.047852 -682.328674
v -12.110901 924.688354 -729.824951
v 38.131882 883.923096 -621.592529
v -49.665104 902.563599 -669.088745
v 125.928909 865.282593 -574.096558
v 163.483185 887.407349 -634.832397
v 119.584686 896.727661 -658.580444
v 82.030396 874.602783 -597.844543
vn 0.8646 -0.1836 0.4677
vn 0.5023 0.2960 -0.8124
vn -0.8646 0.1836 -0.4677
vn 0.0107 0.9374 0.3481
vn -0.0107 -0.9374 -0.3481
vn -0.5023 -0.2960 0.8124
vn -0.3418 -0.8972 0.2797
vn -0.0948 -0.9289 -0.3580
vn -0.5698 -0.3830 0.7271
vn -0.8653 0.1827 -0.4668
vn 0.8653 -0.1827 0.4668
vn 0.4667 -0.0516 -0.8829
vn 0.4652 -0.0592 -0.8832
vn -0.4667 0.0516 0.8829
vn 0.8020 0.1998 -0.5628
vn -0.8047 0.5038 -0.3140
vn -0.4629 -0.4078 0.7870
vn 0.0082 -0.9534 -0.3017
vn -0.4482 0.1390 0.8831
vn -0.4987 -0.4269 0.7544
vn -0.0437 -0.9548 -0.2939
vn -0.1216 -0.3443 0.9309
vn 0.4681 -0.8831 -0.0322
vn 0.4860 0.6805 0.5484
vn 0.8576 -0.2900 0.4246
usemtl Matériau.011
s off
f 45//1 46//1 4//1 3//1
f 49//2 50//2 8//2 7//2
f 47//3 48//3 6//3 5//3
f 26//1 25//1 9//1 10//1
f 72//4 47//4 5//4 51//4
f 96//5 46//5 2//5 74//5
f 10//1 9//1 13//1 14//1
f 84//6 9//6 29//6 90//6
f 89//5 26//5 10//5 75//5
f 27//3 28//3 11//3 12//3
f 76//7 14//7 18//7 77//7
f 75//8 10//8 14//8 76//8
f 12//3 11//3 15//3 16//3
f 53//4 12//4 16//4 55//4
f 86//9 77//9 18//9 17//9
f 16//10 15//10 19//10 20//10
f 16//3 20//3 24//3 22//3
f 14//11 13//11 17//11 18//11
f 59//12 22//12 42//12 69//12
f 86//6 17//6 23//6 88//6
f 17//1 13//1 21//1 23//1
f 55//2 16//2 22//2 59//2
f 5//3 6//3 28//3 27//3
f 74//5 2//5 26//5 89//5
f 51//4 5//4 27//4 62//4
f 2//1 1//1 25//1 26//1
f 32//3 30//3 34//3 36//3
f 62//2 27//2 32//2 64//2
f 27//3 12//3 30//3 32//3
f 9//1 25//1 31//1 29//1
f 66//4 36//4 34//4 65//4
f 90//5 29//5 37//5 92//5
f 64//2 32//2 36//2 66//2
f 29//1 31//1 35//1 33//1
f 92//6 37//6 39//6 93//6
f 29//1 33//1 39//1 37//1
f 34//3 30//3 38//3 40//3
f 65//4 34//4 40//4 68//4
f 69//13 42//13 124//13 123//13
f 23//1 21//1 41//1 43//1
f 88//14 23//14 43//14 95//14
f 22//3 24//3 44//3 42//3
f 82//5 4//5 46//5 96//5
f 49//4 7//4 47//4 72//4
f 7//3 8//3 48//3 47//3
f 46//15 45//15 103//15 106//15
f 73//4 49//4 72//4 81//4
f 8//5 50//5 71//5 48//5
f 24//14 60//14 70//14 44//14
f 42//16 44//16 126//16 124//16
f 91//4 65//4 68//4 93//4
f 38//6 67//6 68//6 40//6
f 79//2 64//2 66//2 80//2
f 30//5 63//5 67//5 38//5
f 80//4 66//4 65//4 91//4
f 78//2 62//2 64//2 79//2
f 83//4 51//4 62//4 78//4
f 6//5 52//5 61//5 28//5
f 85//2 55//2 59//2 87//2
f 20//6 57//6 60//6 24//6
f 87//12 59//12 69//12 94//12
f 20//17 19//17 58//17 57//17
f 84//4 53//4 55//4 85//4
f 11//18 54//18 56//18 15//18
f 15//7 56//7 58//7 19//7
f 28//5 61//5 54//5 11//5
f 12//6 53//6 63//6 30//6
f 48//5 71//5 52//5 6//5
f 81//4 72//4 51//4 83//4
f 50//3 49//3 121//3 120//3
f 3//2 4//2 82//2 73//2
f 45//4 81//4 83//4 1//4
f 9//4 84//4 85//4 13//4
f 21//12 87//12 94//12 41//12
f 13//2 85//2 87//2 21//2
f 1//4 83//4 78//4 25//4
f 25//2 78//2 79//2 31//2
f 35//4 80//4 91//4 33//4
f 31//2 79//2 80//2 35//2
f 33//4 91//4 93//4 39//4
f 70//19 95//19 130//19 125//19
f 3//4 73//4 81//4 45//4
f 50//5 82//5 96//5 71//5
f 60//14 88//14 95//14 70//14
f 67//6 92//6 93//6 68//6
f 63//5 90//5 92//5 67//5
f 52//3 71//3 100//3 101//3
f 57//6 86//6 88//6 60//6
f 57//20 58//20 77//20 86//20
f 54//21 75//21 76//21 56//21
f 56//7 76//7 77//7 58//7
f 61//5 89//5 75//5 54//5
f 53//6 84//6 90//6 63//6
f 89//6 61//6 98//6 97//6
f 101//5 102//5 97//5 98//5
f 100//5 99//5 102//5 101//5
f 61//3 52//3 101//3 98//3
f 74//1 89//1 97//1 102//1
f 71//2 96//2 99//2 100//2
f 96//1 74//1 102//1 99//1
f 106//2 103//2 107//2 110//2
f 1//22 2//22 105//22 104//22
f 2//23 46//23 106//23 105//23
f 45//24 1//24 104//24 103//24
f 109//5 110//5 114//5 113//5
f 104//6 105//6 109//6 108//6
f 105//5 106//5 110//5 109//5
f 103//4 104//4 108//4 107//4
f 113//5 114//5 118//5 117//5
f 107//4 108//4 112//4 111//4
f 110//2 107//2 111//2 114//2
f 108//6 109//6 113//6 112//6
f 116//1 117//1 118//1 115//1
f 111//4 112//4 116//4 115//4
f 114//2 111//2 115//2 118//2
f 122//2 119//2 120//2 121//2
f 82//5 50//5 120//5 119//5
f 73//1 82//1 119//1 122//1
f 49//4 73//4 122//4 121//4
f 123//4 124//4 126//4 125//4
f 129//4 123//4 125//4 130//4
f 128//4 129//4 130//4 127//4
f 95//19 43//19 127//19 130//19
f 94//13 69//13 123//13 129//13
f 43//25 41//25 128//25 127//25
f 44//19 70//19 125//19 126//19
f 41//13 94//13 129//13 128//13
o Cube.048_Cube.024
v -561.320984 485.982086 176.405121
v -718.360596 338.000427 67.604706
v -419.040710 478.499817 -18.781700
v -576.214905 328.337585 -131.330872
v -681.073730 639.005920 10.353054
v -761.592346 563.131653 -45.431953
v -608.122620 635.169556 -89.724693
v -688.548889 558.673950 -145.280762
v -349.884521 476.960754 -475.297394
v -260.731018 514.816650 -393.803680
v -317.213776 627.709961 -384.453552
v -406.367371 589.854126 -465.947296
v -226.722687 569.951904 -627.203125
v -161.174988 597.784363 -567.287048
v -202.702393 680.786072 -560.412659
v -268.250092 652.953674 -620.328552
v -149.104919 630.585510 -720.824158
v -101.203613 650.925049 -677.038391
v -131.551331 711.581665 -672.014648
v -179.452698 691.242065 -715.800476
v -483.068878 578.874756 -46.575920
v -649.764404 420.059204 -163.767548
v -634.141174 587.021545 160.623795
v -800.858032 429.920837 45.118797
v -283.135437 574.328735 -390.880249
v -377.782837 534.140137 -477.395782
v -169.505981 646.542358 -576.368347
v -239.092896 616.994812 -639.976562
v -99.904724 691.096741 -693.865295
v -150.757812 669.503784 -740.349304
v -95.593079 659.345703 -792.725647
v -47.691711 679.685242 -748.939880
v -43.540283 728.315430 -772.816406
v -94.393555 706.722473 -819.300476
v -123.526794 727.160583 -793.667969
v -75.625549 747.500183 -749.882141
v -57.729126 681.208740 -844.304504
v -9.827759 701.548401 -800.518677
v -5.676392 750.178345 -824.395447
v -56.529602 728.585449 -870.879456
v -85.662964 749.023499 -845.246765
v -37.761536 769.363098 -801.461121
v -15.128601 676.359741 -869.834961
v 15.703308 689.451416 -841.651978
v 18.375366 720.752502 -857.020264
v -14.356506 706.854065 -886.940002
v -49.541382 775.419861 -900.280029
v -78.674500 795.857971 -874.647705
v -30.773315 816.197632 -830.861938
v 1.311829 797.012817 -853.796143
v 13.297119 671.805847 -887.739868
v 34.083008 680.631836 -868.739563
v 35.884521 701.734070 -879.100464
v 13.817566 692.364319 -899.271484
v 38.655518 678.672791 -910.086731
v 51.648987 684.190063 -898.209351
v 52.775208 697.381348 -904.686035
v 38.980835 691.524170 -917.295227
v -42.384338 807.590576 -904.264343
v -61.755554 821.179993 -887.220886
v -29.905334 834.704041 -858.107056
v -8.571533 821.947876 -873.356445
v -283.319458 609.178833 327.929504
v -307.017639 369.739563 350.396362
v -127.891418 571.791687 145.149506
v -156.894714 337.374054 163.813583
v -440.398254 547.297852 136.025070
v -452.548950 424.530609 147.544464
v -359.015686 534.083130 40.669144
v -375.576752 407.935852 51.878250
v 17.837463 264.675293 -158.216003
v 117.214050 330.996429 -116.409828
v 94.241699 420.612122 -201.821716
v -3.832581 355.543762 -243.632477
v 154.343750 182.648254 -304.943970
v 228.063293 229.884033 -273.395935
v 212.131042 296.692566 -336.196014
v 138.411377 249.456787 -367.744080
v 241.053650 133.801453 -397.471069
v 294.926941 168.320740 -374.416107
v 283.283813 217.143555 -420.309601
v 229.410583 182.624268 -443.364532
v -227.004852 589.679260 82.437057
v -262.973663 334.626373 102.725197
v -397.189148 623.180664 276.954559
v -422.347687 368.986267 300.805908
v 113.639160 373.669098 -160.361359
v 7.191956 305.463135 -205.915222
v 233.418213 255.756531 -316.187958
v 155.155823 205.610077 -349.680084
v 306.679016 180.852539 -414.459076
v 249.485779 144.206116 -438.934631
v 296.766785 86.440186 -456.745392
v 350.639954 120.959534 -433.690338
v 367.157043 132.942993 -484.047089
v 309.963989 96.296570 -508.522736
v 289.156250 134.798889 -511.367279
v 343.029724 169.318115 -488.312408
v 336.580505 53.359985 -500.249603
v 390.453674 87.879211 -477.194550
v 406.970764 99.862793 -527.551392
v 349.777649 63.216492 -552.027039
v 328.970032 101.718750 -554.871582
v 382.843201 136.238098 -531.816589
v 374.703430 21.717590 -506.209625
v 409.379211 43.936035 -491.370148
v 420.010559 51.649292 -523.782654
v 383.197815 28.061768 -539.536438
v 368.221130 69.324158 -604.269226
v 347.413513 107.826599 -607.113892
v 401.286682 142.345642 -584.058777
v 425.414124 105.970520 -579.793518
v 399.723694 -0.872803 -509.813873
v 423.101135 14.106262 -499.809540
v 430.268616 19.306030 -521.661194
v 405.450378 3.404175 -532.282043
v 424.811340 -18.870056 -525.185852
v 439.424744 -9.506531 -518.931824
v 443.905212 -6.255676 -532.591614
v 428.391174 -16.196411 -539.230835
v 383.976013 85.027283 -628.911316
v 370.140930 110.628235 -630.802673
v 405.961731 133.580505 -615.473022
v 422.004456 109.394165 -612.637085
vn 0.4807 -0.7897 0.3813
vn -0.3565 0.8856 -0.2978
vn -0.4808 0.7883 -0.3838
vn -0.4401 -0.1798 0.8798
vn 0.3392 0.9166 0.2115
vn -0.6263 -0.6575 -0.4189
vn -0.4020 0.9155 0.0145
vn 0.7753 0.4825 0.4075
vn -0.7275 -0.1490 -0.6697
vn 0.5599 -0.8239 0.0876
vn -0.6945 -0.1588 -0.7018
vn 0.7795 0.2539 0.5727
vn -0.6908 -0.1993 -0.6951
vn 0.4877 -0.8628 -0.1328
vn 0.6750 0.3529 0.6479
vn 0.4954 -0.8566 -0.1441
vn -0.3932 0.9195 0.0030
vn 0.8018 0.2247 0.5538
vn 0.6979 0.4324 0.5710
vn 0.4251 -0.9040 -0.0452
vn -0.6202 -0.3405 -0.7067
vn 0.7089 0.3950 0.5844
vn -0.5906 -0.3665 -0.7190
vn -0.5607 -0.5296 -0.6365
vn 0.4755 0.8071 0.3501
vn -0.8032 -0.1513 -0.5761
vn 0.6781 0.5630 0.4725
vn -0.7596 0.5036 0.4115
vn -0.4363 0.8978 0.0603
vn -0.6808 -0.3452 -0.6461
vn -0.4533 0.8874 0.0837
vn 0.7282 0.2482 0.6389
vn -0.6782 -0.3490 -0.6467
vn -0.7310 -0.2441 -0.6373
vn 0.6701 0.3203 0.6696
vn 0.0932 -0.9380 0.3337
vn 0.7260 0.2522 0.6398
vn 0.6749 0.3560 0.6463
vn -0.7309 -0.2409 -0.6386
vn 0.4363 -0.8978 -0.0603
vn 0.1702 0.8093 -0.5621
vn -0.5022 -0.4133 -0.7595
vn 0.8590 0.1647 0.4848
vn 0.1898 0.7946 -0.5767
vn 0.6698 0.6041 0.4317
vn -0.7369 -0.2771 -0.6166
vn -0.6987 0.4522 0.5543
vn 0.6987 -0.4522 -0.5543
vn -0.1595 0.9504 -0.2670
vn 0.8402 0.1795 0.5117
vn -0.5330 -0.4036 -0.7436
vn 0.0731 -0.9327 0.3533
vn 0.7082 -0.3590 -0.6080
vn 0.8344 0.1839 0.5196
vn -0.5424 -0.4005 -0.7385
vn 0.3262 -0.9419 0.0807
vn 0.1254 0.8403 -0.5275
vn -0.6408 0.0476 -0.7663
vn 0.7085 -0.2398 -0.6637
vn -0.6490 0.6388 0.4132
vn 0.7674 -0.0298 0.6405
vn -0.4447 0.3952 -0.8038
vn -0.7672 0.0300 -0.6407
vn -0.3926 0.1244 0.9112
vn -0.2707 0.8855 -0.3776
vn -0.0501 -0.9901 0.1315
vn -0.1288 0.6729 -0.7284
vn 0.5681 0.8189 -0.0819
vn -0.4821 -0.7756 -0.4075
vn 0.6693 -0.3367 0.6623
vn -0.7460 -0.4644 -0.4773
vn 0.8477 0.4077 0.3395
vn -0.7536 -0.4858 -0.4429
vn 0.2217 -0.7446 0.6296
vn 0.7795 0.5512 0.2976
vn 0.2247 -0.7589 0.6112
vn -0.1162 0.6707 -0.7326
vn 0.8598 0.3718 0.3499
vn 0.8200 0.5390 0.1928
vn 0.1490 -0.6994 0.6990
vn -0.7265 -0.5994 -0.3361
vn 0.8157 0.5337 0.2232
vn -0.7061 -0.6316 -0.3202
vn -0.2760 -0.9603 -0.0396
vn 0.1523 0.9155 -0.3723
vn -0.4601 -0.8599 -0.2210
vn 0.1686 0.9849 -0.0396
vn -0.9654 0.1174 0.2328
vn -0.1607 0.7093 -0.6864
vn -0.7827 -0.5436 -0.3030
vn -0.1788 0.7240 -0.6662
vn 0.8003 0.4664 0.3768
vn -0.7814 -0.5471 -0.3001
vn -0.8018 -0.4620 -0.3791
vn 0.7667 0.5478 0.3347
vn -0.1591 -0.3645 0.9175
vn 0.7994 0.4701 0.3741
vn 0.7802 0.5520 0.2943
vn -0.8008 -0.4610 -0.3823
vn 0.1607 -0.7093 0.6864
vn 0.3633 0.0542 -0.9301
vn -0.6368 -0.7112 -0.2977
vn 0.8941 0.2698 0.3575
vn 0.3771 0.0296 -0.9257
vn 0.8346 0.5501 -0.0293
vn -0.8157 -0.4661 -0.3425
vn -0.5129 0.8546 -0.0811
vn 0.5129 -0.8546 0.0811
vn 0.1025 0.4368 -0.8937
vn 0.8817 0.3033 0.3614
vn -0.6628 -0.6863 -0.2996
vn -0.1759 -0.3421 0.9231
vn 0.5456 -0.8378 -0.0204
vn 0.8778 0.3133 0.3625
vn -0.6706 -0.6785 -0.3001
vn 0.0500 -0.6075 0.7928
vn 0.3309 0.1096 -0.9373
vn -0.6394 -0.3943 -0.6601
vn 0.5768 -0.8042 -0.1437
vn -0.4196 0.8562 -0.3014
usemtl Matériau.012
s off
f 131//26 132//26 134//26 133//26
f 138//27 137//27 141//27 142//27
f 137//28 138//28 136//28 135//28
f 153//29 154//29 132//29 131//29
f 151//30 137//30 135//30 153//30
f 152//31 134//31 132//31 154//31
f 142//32 141//32 145//32 146//32
f 151//33 133//33 140//33 155//33
f 152//34 138//34 142//34 156//34
f 133//35 134//35 139//35 140//35
f 158//36 146//36 150//36 160//36
f 155//37 140//37 144//37 157//37
f 156//38 142//38 146//38 158//38
f 140//39 139//39 143//39 144//39
f 149//40 159//40 163//40 166//40
f 144//41 143//41 147//41 148//41
f 146//42 145//42 149//42 150//42
f 157//43 144//43 148//43 159//43
f 145//44 157//44 159//44 149//44
f 148//45 147//45 161//45 162//45
f 139//46 156//46 158//46 143//46
f 141//47 155//47 157//47 145//47
f 143//48 158//48 160//48 147//48
f 134//49 152//49 156//49 139//49
f 137//50 151//50 155//50 141//50
f 138//51 152//51 154//51 136//51
f 133//52 151//52 153//52 131//52
f 135//53 136//53 154//53 153//53
f 165//54 166//54 172//54 171//54
f 161//55 164//55 170//55 167//55
f 150//56 149//56 166//56 165//56
f 159//57 148//57 162//57 163//57
f 147//58 160//58 164//58 161//58
f 160//59 150//59 165//59 164//59
f 172//60 169//60 180//60 179//60
f 168//61 167//61 173//61 174//61
f 163//62 162//62 168//62 169//62
f 166//63 163//63 169//63 172//63
f 164//64 165//64 171//64 170//64
f 162//65 161//65 167//65 168//65
f 176//66 175//66 183//66 184//66
f 167//67 170//67 176//67 173//67
f 169//68 168//68 174//68 175//68
f 170//69 169//69 175//69 176//69
f 179//70 180//70 192//70 191//70
f 170//71 171//71 178//71 177//71
f 171//72 172//72 179//72 178//72
f 169//73 170//73 177//73 180//73
f 184//74 183//74 187//74 188//74
f 175//75 174//75 182//75 183//75
f 173//76 176//76 184//76 181//76
f 174//77 173//77 181//77 182//77
f 186//78 185//78 188//78 187//78
f 183//79 182//79 186//79 187//79
f 181//80 184//80 188//80 185//80
f 182//81 181//81 185//81 186//81
f 192//82 189//82 190//82 191//82
f 177//83 178//83 190//83 189//83
f 180//84 177//84 189//84 192//84
f 178//85 179//85 191//85 190//85
f 193//86 194//86 196//86 195//86
f 200//87 199//87 203//87 204//87
f 199//88 200//88 198//88 197//88
f 215//89 216//89 194//89 193//89
f 213//90 199//90 197//90 215//90
f 214//91 196//91 194//91 216//91
f 204//92 203//92 207//92 208//92
f 213//93 195//93 202//93 217//93
f 214//94 200//94 204//94 218//94
f 195//95 196//95 201//95 202//95
f 220//96 208//96 212//96 222//96
f 217//97 202//97 206//97 219//97
f 218//98 204//98 208//98 220//98
f 202//99 201//99 205//99 206//99
f 211//100 221//100 225//100 228//100
f 206//101 205//101 209//101 210//101
f 208//102 207//102 211//102 212//102
f 219//103 206//103 210//103 221//103
f 207//104 219//104 221//104 211//104
f 210//105 209//105 223//105 224//105
f 201//106 218//106 220//106 205//106
f 203//107 217//107 219//107 207//107
f 205//108 220//108 222//108 209//108
f 196//109 214//109 218//109 201//109
f 199//110 213//110 217//110 203//110
f 200//111 214//111 216//111 198//111
f 195//112 213//112 215//112 193//112
f 197//113 198//113 216//113 215//113
f 227//114 228//114 234//114 233//114
f 223//115 226//115 232//115 229//115
f 212//116 211//116 228//116 227//116
f 221//117 210//117 224//117 225//117
f 209//118 222//118 226//118 223//118
f 222//119 212//119 227//119 226//119
f 234//120 231//120 242//120 241//120
f 230//121 229//121 235//121 236//121
f 225//122 224//122 230//122 231//122
f 228//123 225//123 231//123 234//123
f 226//124 227//124 233//124 232//124
f 224//125 223//125 229//125 230//125
f 238//126 237//126 245//126 246//126
f 229//127 232//127 238//127 235//127
f 231//128 230//128 236//128 237//128
f 232//129 231//129 237//129 238//129
f 241//130 242//130 254//130 253//130
f 232//131 233//131 240//131 239//131
f 233//132 234//132 241//132 240//132
f 231//133 232//133 239//133 242//133
f 246//134 245//134 249//134 250//134
f 237//135 236//135 244//135 245//135
f 235//136 238//136 246//136 243//136
f 236//137 235//137 243//137 244//137
f 248//138 247//138 250//138 249//138
f 245//139 244//139 248//139 249//139
f 243//140 246//140 250//140 247//140
f 244//141 243//141 247//141 248//141
f 254//142 251//142 252//142 253//142
f 239//143 240//143 252//143 251//143
f 242//144 239//144 251//144 254//144
f 240//145 241//145 253//145 252//145
