# Blender v2.91.2 OBJ File: 'camionnete02.blend'
# www.blender.org
mtllib arme_000132.mtl
o Cube.046_Cube.010
v 117.915031 287.714600 -1251.986328
v 129.231506 72.815323 -1204.348389
v 172.161713 244.207932 -1461.135986
v 183.478180 29.308640 -1413.498047
v -95.411812 265.251404 -1302.643799
v -84.095375 50.352142 -1255.005859
v -41.165108 221.744705 -1511.792969
v -29.848701 6.845444 -1464.155518
v 43.228081 347.614624 -964.028748
v 54.544552 132.715408 -916.390930
v -158.782257 110.252228 -967.048279
v -170.098724 325.151489 -1014.686157
v 9.427391 374.723389 -833.709045
v 20.743824 159.824081 -786.071228
v -192.583008 137.360931 -836.728516
v -203.899506 352.260132 -884.366394
v -10.540596 390.737915 -756.721985
v 1.190811 231.758987 -734.894653
v -212.136078 209.295883 -785.552063
v -223.867462 368.274841 -807.379272
v 54.880653 338.269104 -1008.955383
v 66.197113 123.369873 -961.317627
v -158.446198 315.805908 -1059.612793
v -147.129761 100.906708 -1011.974976
v 153.010895 259.567139 -1387.299561
v 164.327377 44.667831 -1339.661865
v -60.315880 237.103958 -1437.956787
v -48.999413 22.204697 -1390.319092
v 65.498260 232.976364 -1486.464600
v 76.814743 18.077011 -1438.826660
v 11.251595 276.482971 -1277.314941
v 22.568069 61.583710 -1229.677246
v -63.435310 336.383057 -989.357422
v -52.118858 121.483780 -941.719543
v -97.236046 363.491821 -859.037659
v -80.418800 161.221512 -801.003479
v -117.204018 379.506348 -782.050598
v -93.603462 209.727463 -766.495056
v -40.466324 112.138260 -986.646301
v -51.782784 327.037537 -1034.284180
v 57.663971 33.436203 -1364.990479
v 46.347523 248.335556 -1412.628418
v 118.830017 238.592148 -1473.800049
v 75.899788 67.199524 -1217.012939
v 1.212837 127.099579 -929.055237
v -44.457092 165.008240 -792.463928
v -57.641731 213.514206 -757.955383
v 1.548935 332.653320 -1021.619690
v 99.679214 253.951309 -1399.964111
v 130.146454 23.692825 -1426.162598
v 64.583282 282.098755 -1264.650635
v -10.103638 341.998779 -976.693115
v -43.904350 369.107605 -846.373230
v -63.872307 385.122131 -769.386230
v 12.865379 117.754074 -973.981995
v 110.995659 39.052017 -1352.326416
v 14.984261 77.517120 -965.062378
v -38.347458 71.901321 -977.726685
v 113.114464 -1.184952 -1343.406738
v 59.782837 -6.800705 -1356.071045
v 24.686935 21.346771 -1220.757568
v 78.018654 26.962570 -1208.093262
v 236.307495 216.950485 -1314.918701
v 220.788391 229.396988 -1255.084717
v 225.792572 134.370758 -1234.019531
v 241.311462 121.924210 -1293.854004
v 282.406189 221.804611 -1303.972168
v 266.887146 234.251175 -1244.137939
v 271.891235 139.224945 -1223.072998
v 287.410248 126.778412 -1282.907227
v 352.952057 229.233078 -1287.220215
v 337.433014 241.679611 -1227.385986
v 342.437042 146.653381 -1206.321045
v 357.956055 134.206818 -1266.155273
v 398.347412 234.013107 -1276.440430
v 382.828430 246.459641 -1216.606201
v 387.832520 151.433456 -1195.541260
v 403.351471 138.986954 -1255.375488
v 308.357361 -119.234512 -2113.258545
v 255.025665 -124.850296 -2125.922852
v 243.709076 90.049026 -2173.560791
v 297.040863 95.664810 -2160.896484
vn 0.9679 0.1019 0.2298
vn 0.2461 -0.1974 -0.9489
vn -0.9679 -0.1019 -0.2298
vn -0.0513 0.9750 -0.2161
vn 0.0513 -0.9750 0.2161
vn -0.1252 -0.5975 0.7920
vn -0.0330 -0.9733 0.2273
vn -0.3176 0.0778 0.9450
vn -0.9682 -0.1021 -0.2285
vn 0.9682 0.1021 0.2285
vn 0.6071 -0.1414 -0.7819
vn -0.1971 0.0898 0.9763
vn 0.0829 -0.9630 0.2565
vn -0.2363 0.0560 0.9701
vn 0.0350 -0.9599 0.2781
vn -0.2461 0.1974 0.9489
vn 0.1546 0.2216 0.9628
vn 0.5769 -0.7569 0.3071
vn 0.4912 0.8694 -0.0534
usemtl Matériau.011
s off
f 25//1 26//1 4//1 3//1
f 29//2 30//2 8//2 7//2
f 27//3 28//3 6//3 5//3
f 22//1 21//1 9//1 10//1
f 42//4 27//4 5//4 31//4
f 56//5 26//5 2//5 44//5
f 10//1 9//1 13//1 14//1
f 55//5 22//5 10//5 45//5
f 23//3 24//3 11//3 12//3
f 46//6 14//6 18//6 47//6
f 45//7 10//7 14//7 46//7
f 12//3 11//3 15//3 16//3
f 33//4 12//4 16//4 35//4
f 54//8 47//8 18//8 17//8
f 16//9 15//9 19//9 20//9
f 14//10 13//10 17//10 18//10
f 5//3 6//3 24//3 23//3
f 44//5 2//5 22//5 55//5
f 31//4 5//4 23//4 40//4
f 2//1 1//1 21//1 22//1
f 50//5 4//5 26//5 56//5
f 29//4 7//4 27//4 42//4
f 7//3 8//3 28//3 27//3
f 26//11 25//11 63//11 66//11
f 43//4 29//4 42//4 49//4
f 8//5 30//5 41//5 28//5
f 51//4 31//4 40//4 48//4
f 6//5 32//5 39//5 24//5
f 20//12 19//12 38//12 37//12
f 52//4 33//4 35//4 53//4
f 11//13 34//13 36//13 15//13
f 15//6 36//6 38//6 19//6
f 24//5 39//5 34//5 11//5
f 28//5 41//5 32//5 6//5
f 49//4 42//4 31//4 51//4
f 30//3 29//3 81//3 80//3
f 3//2 4//2 50//2 43//2
f 25//4 49//4 51//4 1//4
f 9//4 52//4 53//4 13//4
f 1//4 51//4 48//4 21//4
f 3//4 43//4 49//4 25//4
f 30//5 50//5 56//5 41//5
f 32//3 41//3 60//3 61//3
f 37//14 38//14 47//14 54//14
f 34//15 45//15 46//15 36//15
f 36//6 46//6 47//6 38//6
f 39//5 55//5 45//5 34//5
f 55//16 39//16 58//16 57//16
f 61//5 62//5 57//5 58//5
f 60//5 59//5 62//5 61//5
f 39//3 32//3 61//3 58//3
f 44//1 55//1 57//1 62//1
f 41//2 56//2 59//2 60//2
f 56//1 44//1 62//1 59//1
f 66//2 63//2 67//2 70//2
f 1//17 2//17 65//17 64//17
f 2//18 26//18 66//18 65//18
f 25//19 1//19 64//19 63//19
f 69//5 70//5 74//5 73//5
f 64//16 65//16 69//16 68//16
f 65//5 66//5 70//5 69//5
f 63//4 64//4 68//4 67//4
f 73//5 74//5 78//5 77//5
f 67//4 68//4 72//4 71//4
f 70//2 67//2 71//2 74//2
f 68//16 69//16 73//16 72//16
f 76//1 77//1 78//1 75//1
f 71//4 72//4 76//4 75//4
f 74//2 71//2 75//2 78//2
f 82//2 79//2 80//2 81//2
f 50//5 30//5 80//5 79//5
f 43//1 50//1 79//1 82//1
f 29//4 43//4 82//4 81//4
o Cube.048_Cube.024
v -527.719421 526.473450 132.858276
v -684.734985 346.328705 96.920860
v -405.086151 458.875153 -64.091194
v -560.975647 277.305237 -100.184303
v -672.861389 612.319275 -59.221497
v -753.367676 519.954041 -77.647621
v -609.983826 577.659729 -160.203003
v -690.022583 485.219818 -177.993713
v -404.396881 271.528076 -478.288116
v -305.466736 347.766815 -457.718536
v -374.757446 447.393677 -493.717438
v -473.687683 371.154968 -514.286987
v -336.074524 266.115112 -683.700500
v -263.338806 322.167511 -668.577332
v -314.282837 395.415405 -695.044373
v -387.018616 339.363007 -710.167725
v -292.831757 265.557983 -812.524536
v -239.677551 306.520386 -801.472656
v -276.906677 360.049011 -820.814575
v -330.061066 319.086639 -831.866333
v -477.843018 542.582275 -115.630135
v -643.271545 350.799133 -152.520447
v -608.140747 614.429260 93.399330
v -774.832153 423.183411 55.247337
v -335.389343 399.183167 -480.372162
v -440.415924 318.246338 -502.209442
v -280.926758 358.004028 -699.165344
v -358.144745 298.497467 -715.220520
v -248.527344 330.925476 -836.467834
v -304.957153 287.438843 -848.200745
v -262.751678 250.232361 -900.392639
v -209.597412 291.194702 -889.340942
v -218.658936 318.817322 -935.244019
v -275.088715 275.330719 -946.976807
v -300.160004 306.483917 -928.965820
v -247.005676 347.446289 -917.914124
v -241.864197 240.269592 -963.925964
v -188.709961 281.231995 -952.874268
v -197.771484 308.854614 -998.777283
v -254.201324 265.368103 -1010.510071
v -279.272491 296.521179 -992.498962
v -226.118347 337.483521 -981.447083
v -206.226044 222.209930 -993.824158
v -172.013184 248.575562 -986.710388
v -177.845581 266.355011 -1016.256042
v -214.166901 238.364685 -1023.808167
v -261.562439 288.461975 -1060.701660
v -286.633728 319.615173 -1042.690430
v -233.479340 360.577576 -1031.638672
v -205.132660 331.948608 -1048.968506
v -182.448792 208.580231 -1013.779114
v -159.383362 226.355225 -1008.983215
v -163.315369 238.341614 -1028.902100
v -187.802185 219.471344 -1033.993408
v -164.405762 202.078186 -1042.445435
v -149.987244 213.189636 -1039.447510
v -152.445251 220.682373 -1051.899048
v -167.752197 208.886353 -1055.081787
v -260.548889 313.198669 -1082.817505
v -277.219116 333.912781 -1070.841675
v -241.876129 361.149170 -1063.493042
v -223.027985 342.113342 -1075.016235
v -270.470947 555.065674 426.600372
v -319.934448 327.468628 362.175842
v -148.244995 586.638916 221.520569
v -194.663879 358.093323 157.806152
v -452.646027 582.304321 249.398193
v -478.007355 465.608917 216.365967
v -381.825714 602.553467 142.658371
v -413.777649 481.311005 111.579880
v -82.866821 318.372314 -100.774330
v -3.170105 326.681824 -4.689201
v 70.725525 402.722839 -70.329689
v -6.054932 394.674194 -166.353119
v 42.274841 157.438782 -173.791351
v 100.869812 160.536987 -101.555000
v 157.343628 216.635864 -149.769897
v 98.748657 213.537659 -222.006470
v 123.125366 58.000549 -218.969696
v 165.945740 60.264587 -166.180176
v 207.216125 101.260925 -201.415039
v 164.395691 98.996826 -254.204468
v -244.478821 632.063110 182.354034
v -306.030090 386.367462 115.495094
v -386.508606 595.477844 400.853302
v -439.020264 353.855499 332.458771
v 40.406799 356.405212 -34.296349
v -44.201294 351.931641 -138.602020
v 140.062134 173.645935 -130.213928
v 77.856262 170.356934 -206.901703
v 201.078064 59.177856 -191.931488
v 155.618896 56.774231 -247.974030
v 166.611206 -19.120544 -250.935577
v 209.431519 -16.856506 -198.146027
v 252.814392 -22.300354 -230.403107
v 207.355225 -24.703979 -286.445526
v 214.863892 18.187988 -291.676117
v 257.684326 20.452148 -238.886658
v 198.676819 -73.743591 -274.603058
v 241.497192 -71.479492 -221.813629
v 284.880127 -76.923645 -254.070526
v 239.421021 -79.327271 -310.113037
v 246.929565 -36.434937 -315.343506
v 289.749939 -34.170776 -262.554108
v 211.047363 -121.481934 -266.978516
v 238.608948 -120.024536 -233.000214
v 266.532654 -123.528870 -253.762787
v 237.272522 -125.075989 -289.834747
v 282.002197 -90.932678 -344.155182
v 289.510803 -48.040222 -349.385712
v 332.331238 -45.776245 -296.596161
v 327.461365 -88.528992 -288.112610
v 218.052856 -154.286438 -262.066162
v 236.634094 -153.303833 -239.158905
v 255.459473 -155.666443 -253.156372
v 235.733215 -156.709290 -277.475189
v 233.560364 -184.813293 -266.214935
v 245.175659 -184.199158 -251.895355
v 256.943542 -185.675781 -260.645325
v 244.612427 -186.327698 -275.847137
v 313.597595 -89.608215 -354.255829
v 318.590149 -61.088379 -357.733643
v 347.061951 -59.583130 -322.633331
v 343.823792 -88.009888 -316.992371
vn 0.5664 -0.6020 0.5629
vn -0.4943 0.6546 -0.5720
vn -0.5663 0.6022 -0.5626
vn -0.3391 0.1091 0.9344
vn 0.2975 0.9445 -0.1391
vn -0.6160 -0.7791 -0.1164
vn -0.5225 0.7743 -0.3569
vn 0.7841 0.6192 0.0425
vn -0.8094 -0.4266 -0.4034
vn 0.6384 -0.7009 0.3181
vn -0.8072 -0.5166 -0.2855
vn 0.8439 0.5255 0.1081
vn -0.7958 -0.5469 -0.2599
vn 0.5690 -0.7950 0.2102
vn 0.7461 0.6497 0.1457
vn 0.5728 -0.7960 0.1957
vn -0.5174 0.7713 -0.3706
vn 0.8653 0.4907 0.1019
vn 0.7379 0.6740 0.0357
vn 0.5358 -0.7815 0.3197
vn -0.7092 -0.6714 -0.2149
vn 0.7573 0.6500 0.0630
vn -0.6797 -0.6999 -0.2193
vn -0.6020 -0.7558 -0.2575
vn 0.4610 0.8822 -0.0964
vn -0.8384 -0.3675 -0.4026
vn 0.6834 0.7068 0.1830
vn -0.7467 0.5893 0.3085
vn -0.5420 0.7846 -0.3012
vn -0.7524 -0.6421 -0.1467
vn -0.5512 0.7887 -0.2721
vn 0.8111 0.5570 0.1786
vn -0.7496 -0.6457 -0.1458
vn -0.8140 -0.5527 -0.1787
vn 0.7515 0.6342 0.1816
vn 0.3114 -0.6024 0.7350
vn 0.8086 0.5609 0.1779
vn 0.7452 0.6514 0.1428
vn -0.8147 -0.5507 -0.1815
vn 0.5420 -0.7846 0.3012
vn -0.0925 0.3695 -0.9246
vn -0.5973 -0.7614 -0.2520
vn 0.9132 0.4027 0.0620
vn -0.0748 0.3491 -0.9341
vn 0.6520 0.7415 -0.1585
vn -0.8098 -0.5690 -0.1430
vn -0.6097 0.6823 0.4034
vn 0.6097 -0.6823 -0.4034
vn -0.3612 0.6493 -0.6693
vn 0.8993 0.4298 0.0811
vn -0.6246 -0.7445 -0.2357
vn 0.2958 -0.5871 0.7535
vn 0.5919 -0.6337 -0.4981
vn 0.8949 0.4378 0.0868
vn -0.6328 -0.7392 -0.2307
vn 0.4761 -0.7442 0.4685
vn -0.1321 0.4143 -0.9005
vn -0.8023 -0.3792 -0.4609
vn 0.5609 -0.5644 -0.6056
vn -0.6236 0.7612 0.1780
vn 0.8350 -0.3043 0.4585
vn -0.1242 0.7468 -0.6534
vn -0.8213 0.3243 -0.4693
vn -0.2795 -0.2048 0.9381
vn -0.2255 0.9740 0.0226
vn -0.1532 -0.9592 -0.2377
vn 0.6400 0.5361 -0.5504
vn 0.7975 0.6015 0.0467
vn -0.6029 -0.4554 -0.6551
vn 0.4263 -0.6508 0.6282
vn -0.5045 -0.0402 -0.8624
vn 0.6029 -0.0862 0.7931
vn -0.5386 -0.0494 -0.8411
vn -0.5610 -0.6556 0.5054
vn 0.6652 0.0711 0.7433
vn -0.5593 -0.6740 0.4826
vn 0.6491 0.5264 -0.5491
vn 0.5988 -0.1147 0.7926
vn 0.7401 0.0256 0.6720
vn -0.6246 -0.5724 0.5312
vn -0.6346 -0.1448 -0.7591
vn 0.7260 0.0403 0.6865
vn -0.6459 -0.1805 -0.7418
vn -0.4762 -0.8503 -0.2241
vn 0.3691 0.8694 -0.3287
vn -0.5789 -0.6758 -0.4561
vn 0.2712 0.9093 0.3155
vn -0.9157 0.0880 0.3922
vn 0.6154 0.5885 -0.5244
vn -0.6606 -0.0637 -0.7480
vn 0.6005 0.6131 -0.5134
vn 0.5942 -0.0005 0.8043
vn -0.6630 -0.0669 -0.7456
vn -0.5917 0.0046 -0.8062
vn 0.6356 0.0800 0.7678
vn -0.7707 -0.0992 0.6294
vn 0.5969 0.0028 0.8023
vn 0.6678 0.0710 0.7410
vn -0.5888 0.0045 -0.8082
vn -0.6154 -0.5885 0.5244
vn 0.7532 -0.2708 -0.5994
vn -0.6521 -0.2814 -0.7040
vn 0.5648 -0.2171 0.7962
vn 0.7475 -0.2982 -0.5936
vn 0.8701 -0.0013 0.4929
vn -0.6221 0.0135 -0.7828
vn 0.1413 0.9775 -0.1565
vn -0.1413 -0.9775 0.1565
vn 0.7580 0.1930 -0.6231
vn 0.5719 -0.1820 0.7999
vn -0.6557 -0.2469 -0.7135
vn -0.7732 -0.0707 0.6302
vn -0.0580 -0.9943 0.0897
vn 0.5739 -0.1715 0.8008
vn -0.6566 -0.2362 -0.7163
vn -0.6919 -0.4303 0.5797
vn 0.7640 -0.2082 -0.6108
vn -0.3015 -0.0632 -0.9514
vn 0.0441 -0.9990 0.0070
vn 0.3186 0.9001 -0.2971
usemtl Matériau.012
s off
f 83//20 84//20 86//20 85//20
f 90//21 89//21 93//21 94//21
f 89//22 90//22 88//22 87//22
f 105//23 106//23 84//23 83//23
f 103//24 89//24 87//24 105//24
f 104//25 86//25 84//25 106//25
f 94//26 93//26 97//26 98//26
f 103//27 85//27 92//27 107//27
f 104//28 90//28 94//28 108//28
f 85//29 86//29 91//29 92//29
f 110//30 98//30 102//30 112//30
f 107//31 92//31 96//31 109//31
f 108//32 94//32 98//32 110//32
f 92//33 91//33 95//33 96//33
f 101//34 111//34 115//34 118//34
f 96//35 95//35 99//35 100//35
f 98//36 97//36 101//36 102//36
f 109//37 96//37 100//37 111//37
f 97//38 109//38 111//38 101//38
f 100//39 99//39 113//39 114//39
f 91//40 108//40 110//40 95//40
f 93//41 107//41 109//41 97//41
f 95//42 110//42 112//42 99//42
f 86//43 104//43 108//43 91//43
f 89//44 103//44 107//44 93//44
f 90//45 104//45 106//45 88//45
f 85//46 103//46 105//46 83//46
f 87//47 88//47 106//47 105//47
f 117//48 118//48 124//48 123//48
f 113//49 116//49 122//49 119//49
f 102//50 101//50 118//50 117//50
f 111//51 100//51 114//51 115//51
f 99//52 112//52 116//52 113//52
f 112//53 102//53 117//53 116//53
f 124//54 121//54 132//54 131//54
f 120//55 119//55 125//55 126//55
f 115//56 114//56 120//56 121//56
f 118//57 115//57 121//57 124//57
f 116//58 117//58 123//58 122//58
f 114//59 113//59 119//59 120//59
f 128//60 127//60 135//60 136//60
f 119//61 122//61 128//61 125//61
f 121//62 120//62 126//62 127//62
f 122//63 121//63 127//63 128//63
f 131//64 132//64 144//64 143//64
f 122//65 123//65 130//65 129//65
f 123//66 124//66 131//66 130//66
f 121//67 122//67 129//67 132//67
f 136//68 135//68 139//68 140//68
f 127//69 126//69 134//69 135//69
f 125//70 128//70 136//70 133//70
f 126//71 125//71 133//71 134//71
f 138//72 137//72 140//72 139//72
f 135//73 134//73 138//73 139//73
f 133//74 136//74 140//74 137//74
f 134//75 133//75 137//75 138//75
f 144//76 141//76 142//76 143//76
f 129//77 130//77 142//77 141//77
f 132//78 129//78 141//78 144//78
f 130//79 131//79 143//79 142//79
f 145//80 146//80 148//80 147//80
f 152//81 151//81 155//81 156//81
f 151//82 152//82 150//82 149//82
f 167//83 168//83 146//83 145//83
f 165//84 151//84 149//84 167//84
f 166//85 148//85 146//85 168//85
f 156//86 155//86 159//86 160//86
f 165//87 147//87 154//87 169//87
f 166//88 152//88 156//88 170//88
f 147//89 148//89 153//89 154//89
f 172//90 160//90 164//90 174//90
f 169//91 154//91 158//91 171//91
f 170//92 156//92 160//92 172//92
f 154//93 153//93 157//93 158//93
f 163//94 173//94 177//94 180//94
f 158//95 157//95 161//95 162//95
f 160//96 159//96 163//96 164//96
f 171//97 158//97 162//97 173//97
f 159//98 171//98 173//98 163//98
f 162//99 161//99 175//99 176//99
f 153//100 170//100 172//100 157//100
f 155//101 169//101 171//101 159//101
f 157//102 172//102 174//102 161//102
f 148//103 166//103 170//103 153//103
f 151//104 165//104 169//104 155//104
f 152//105 166//105 168//105 150//105
f 147//106 165//106 167//106 145//106
f 149//107 150//107 168//107 167//107
f 179//108 180//108 186//108 185//108
f 175//109 178//109 184//109 181//109
f 164//110 163//110 180//110 179//110
f 173//111 162//111 176//111 177//111
f 161//112 174//112 178//112 175//112
f 174//113 164//113 179//113 178//113
f 186//114 183//114 194//114 193//114
f 182//115 181//115 187//115 188//115
f 177//116 176//116 182//116 183//116
f 180//117 177//117 183//117 186//117
f 178//118 179//118 185//118 184//118
f 176//119 175//119 181//119 182//119
f 190//120 189//120 197//120 198//120
f 181//121 184//121 190//121 187//121
f 183//122 182//122 188//122 189//122
f 184//123 183//123 189//123 190//123
f 193//124 194//124 206//124 205//124
f 184//125 185//125 192//125 191//125
f 185//126 186//126 193//126 192//126
f 183//127 184//127 191//127 194//127
f 198//128 197//128 201//128 202//128
f 189//129 188//129 196//129 197//129
f 187//130 190//130 198//130 195//130
f 188//131 187//131 195//131 196//131
f 200//132 199//132 202//132 201//132
f 197//133 196//133 200//133 201//133
f 195//134 198//134 202//134 199//134
f 196//135 195//135 199//135 200//135
f 206//136 203//136 204//136 205//136
f 191//137 192//137 204//137 203//137
f 194//138 191//138 203//138 206//138
f 192//139 193//139 205//139 204//139
