# Blender v2.91.2 OBJ File: 'camionnete02.blend'
# www.blender.org
mtllib arme_000041.mtl
o Cube.046_Cube.010
v 193.219849 404.436096 -1143.364380
v 128.955444 194.047180 -1129.736572
v 260.877930 370.362701 -1350.343750
v 196.613525 159.973755 -1336.716187
v -6.458832 460.602203 -1217.882202
v -70.723267 250.213257 -1204.254517
v 61.199249 426.528778 -1424.861572
v -3.065193 216.139832 -1411.234009
v 100.068085 451.348419 -858.394653
v 35.803680 240.959564 -844.766907
v -163.875000 297.125610 -919.284668
v -99.610580 507.514496 -932.912415
v 57.910828 472.579376 -729.427124
v -6.353638 262.190460 -715.799316
v -206.032318 318.356506 -790.317078
v -141.767914 528.745422 -803.944885
v 33.006134 485.121674 -653.238831
v -9.426445 329.943604 -655.999146
v -209.105179 386.109741 -730.516907
v -166.672546 541.287720 -727.756592
v 114.601486 444.029205 -902.855164
v 50.337067 233.640381 -889.227478
v -85.077225 500.195343 -977.372986
v -149.341675 289.806427 -963.745117
v 236.992523 382.391693 -1277.273682
v 172.728119 172.002747 -1263.645996
v 37.313828 438.557709 -1351.791382
v -26.950523 228.168793 -1338.163696
v 161.038574 398.445770 -1387.602661
v 96.774170 188.056793 -1373.975098
v 93.380554 432.519165 -1180.623291
v 29.116089 222.130219 -1166.995483
v 0.228729 479.431488 -895.653503
v -64.035690 269.042572 -882.025696
v -41.928543 500.662445 -766.685913
v -98.564041 299.020355 -740.286072
v -66.833183 513.204712 -690.497742
v -100.636055 344.706512 -699.962708
v -49.502304 261.723358 -926.486328
v 14.762131 472.112274 -940.114014
v 72.888748 200.085785 -1300.904907
v 137.153198 410.474762 -1314.532471
v 210.958282 384.404266 -1368.973145
v 79.035751 208.088715 -1148.366089
v -14.116035 255.001068 -863.396362
v -64.903091 289.552124 -727.724243
v -66.975090 335.238281 -687.400818
v 64.681824 458.070770 -921.484558
v 187.072876 396.433197 -1295.903198
v 146.693848 174.015259 -1355.345581
v 143.300171 418.477661 -1161.993896
v 50.148407 465.389923 -877.024109
v 7.991119 486.620941 -748.056519
v -16.913528 499.163177 -671.868225
v 0.417389 247.681854 -907.856934
v 122.808411 186.044281 -1282.275513
v -11.615234 208.289398 -905.305237
v -61.534927 222.330963 -923.934631
v 110.775757 146.651794 -1279.723999
v 60.856125 160.693298 -1298.353271
v 17.083466 182.737762 -1164.443970
v 67.003143 168.696228 -1145.814575
v 291.035767 306.184418 -1204.711548
v 271.679901 315.932190 -1145.498291
v 243.262970 222.900360 -1139.472168
v 262.618652 213.152557 -1198.685547
v 334.185303 294.047241 -1188.608765
v 314.829407 303.795074 -1129.395508
v 286.412384 210.763214 -1123.369263
v 305.768158 201.015411 -1182.582764
v 400.217773 275.473480 -1163.966431
v 380.861877 285.221283 -1104.752930
v 352.444855 192.189484 -1098.726807
v 371.800598 182.441681 -1157.940430
v 442.708801 263.521454 -1148.109253
v 423.352966 273.269257 -1088.895874
v 394.936035 180.237457 -1082.869873
v 414.291748 170.489685 -1142.083252
v 368.963837 62.077812 -2035.312256
v 319.044189 76.119331 -2053.941895
v 383.308472 286.508362 -2067.569336
v 433.228271 272.466766 -2048.939941
vn 0.9060 -0.2548 0.3381
vn 0.3070 -0.1546 -0.9391
vn -0.9060 0.2548 -0.3381
vn 0.2916 0.9545 -0.0618
vn -0.2916 -0.9545 0.0618
vn -0.4219 -0.6106 0.6702
vn -0.3717 -0.9261 0.0647
vn -0.4112 0.0671 0.9091
vn -0.9065 0.2546 -0.3368
vn 0.9065 -0.2546 0.3368
vn 0.6387 -0.2424 -0.7303
vn -0.2990 0.0344 0.9536
vn -0.2641 -0.9586 0.1065
vn -0.3455 0.0166 0.9383
vn -0.3111 -0.9423 0.1235
vn -0.3070 0.1546 0.9391
vn 0.0743 0.0418 0.9964
vn 0.2567 -0.9367 0.2381
vn 0.7431 0.6555 0.1350
usemtl Matériau.011
s off
f 25//1 26//1 4//1 3//1
f 29//2 30//2 8//2 7//2
f 27//3 28//3 6//3 5//3
f 22//1 21//1 9//1 10//1
f 42//4 27//4 5//4 31//4
f 56//5 26//5 2//5 44//5
f 10//1 9//1 13//1 14//1
f 55//5 22//5 10//5 45//5
f 23//3 24//3 11//3 12//3
f 46//6 14//6 18//6 47//6
f 45//7 10//7 14//7 46//7
f 12//3 11//3 15//3 16//3
f 33//4 12//4 16//4 35//4
f 54//8 47//8 18//8 17//8
f 16//9 15//9 19//9 20//9
f 14//10 13//10 17//10 18//10
f 5//3 6//3 24//3 23//3
f 44//5 2//5 22//5 55//5
f 31//4 5//4 23//4 40//4
f 2//1 1//1 21//1 22//1
f 50//5 4//5 26//5 56//5
f 29//4 7//4 27//4 42//4
f 7//3 8//3 28//3 27//3
f 26//11 25//11 63//11 66//11
f 43//4 29//4 42//4 49//4
f 8//5 30//5 41//5 28//5
f 51//4 31//4 40//4 48//4
f 6//5 32//5 39//5 24//5
f 20//12 19//12 38//12 37//12
f 52//4 33//4 35//4 53//4
f 11//13 34//13 36//13 15//13
f 15//6 36//6 38//6 19//6
f 24//5 39//5 34//5 11//5
f 28//5 41//5 32//5 6//5
f 49//4 42//4 31//4 51//4
f 30//3 29//3 81//3 80//3
f 3//2 4//2 50//2 43//2
f 25//4 49//4 51//4 1//4
f 9//4 52//4 53//4 13//4
f 1//4 51//4 48//4 21//4
f 3//4 43//4 49//4 25//4
f 30//5 50//5 56//5 41//5
f 32//3 41//3 60//3 61//3
f 37//14 38//14 47//14 54//14
f 34//15 45//15 46//15 36//15
f 36//6 46//6 47//6 38//6
f 39//5 55//5 45//5 34//5
f 55//16 39//16 58//16 57//16
f 61//5 62//5 57//5 58//5
f 60//5 59//5 62//5 61//5
f 39//3 32//3 61//3 58//3
f 44//1 55//1 57//1 62//1
f 41//2 56//2 59//2 60//2
f 56//1 44//1 62//1 59//1
f 66//2 63//2 67//2 70//2
f 1//17 2//17 65//17 64//17
f 2//18 26//18 66//18 65//18
f 25//19 1//19 64//19 63//19
f 69//5 70//5 74//5 73//5
f 64//16 65//16 69//16 68//16
f 65//5 66//5 70//5 69//5
f 63//4 64//4 68//4 67//4
f 73//5 74//5 78//5 77//5
f 67//4 68//4 72//4 71//4
f 70//2 67//2 71//2 74//2
f 68//16 69//16 73//16 72//16
f 76//1 77//1 78//1 75//1
f 71//4 72//4 76//4 75//4
f 74//2 71//2 75//2 78//2
f 82//2 79//2 80//2 81//2
f 50//5 30//5 80//5 79//5
f 43//1 50//1 79//1 82//1
f 29//4 43//4 82//4 81//4
o Cube.048_Cube.024
v -563.332031 459.712372 182.045486
v -725.500854 340.737488 48.090996
v -423.625427 488.852478 -12.968575
v -586.360474 372.907867 -144.525055
v -680.969116 646.136108 52.669956
v -764.117554 585.134338 -16.012245
v -609.337585 661.077087 -47.319183
v -691.865112 600.952759 -115.537819
v -414.558472 472.156219 -437.885223
v -300.729492 508.013611 -395.697205
v -328.941467 628.565674 -422.039520
v -442.770508 592.708374 -464.227509
v -322.212708 468.570740 -633.719177
v -238.523010 494.933929 -602.701538
v -259.265137 583.566467 -622.069031
v -342.954803 557.203369 -653.086670
v -263.031647 468.844421 -756.044067
v -201.872314 488.110229 -733.377014
v -217.030365 552.881775 -747.530396
v -278.189728 533.615967 -770.197571
v -485.206329 594.520508 -18.625130
v -656.778381 471.967773 -158.243652
v -633.643799 563.523376 188.396851
v -805.805908 437.216888 46.187729
v -309.221710 568.762817 -412.715088
v -430.065338 530.695801 -457.502899
v -239.216888 537.933838 -628.773499
v -328.063782 509.946075 -661.702576
v -197.343567 518.023987 -764.733826
v -262.271606 497.570923 -788.797852
v -226.840210 454.858032 -841.805847
v -165.680908 474.123840 -819.138611
v -158.740173 508.406494 -860.716736
v -223.668152 487.953430 -884.780884
v -239.957062 523.326965 -864.609558
v -178.797729 542.592773 -841.942322
v -201.126526 446.078888 -903.723206
v -139.967163 465.344727 -881.056213
v -133.026367 499.627289 -922.634277
v -197.954620 479.174316 -946.698242
v -214.243256 514.547729 -926.527039
v -153.083923 533.813538 -903.859741
v -169.057556 420.829651 -932.431763
v -129.692078 433.230225 -917.841858
v -125.224548 455.296356 -944.604004
v -167.015930 442.131683 -960.092834
v -190.224365 509.160919 -993.042175
v -206.513123 544.534363 -972.870911
v -145.353821 563.800293 -950.203552
v -125.296326 529.614014 -968.977966
v -148.159851 402.506409 -951.845276
v -121.620667 410.866455 -942.009155
v -118.608765 425.742859 -960.051331
v -146.783386 416.867615 -970.493713
v -129.112732 393.792358 -979.247131
v -112.522705 399.018372 -973.098450
v -110.640015 408.317749 -984.376770
v -128.252258 402.769714 -990.904480
v -178.226074 534.571045 -1010.717102
v -189.056702 558.091370 -997.304871
v -148.391174 570.901489 -982.232971
v -135.054504 548.170654 -994.716736
v -303.176636 511.290100 451.329041
v -296.904633 308.328400 320.314636
v -153.028137 607.887878 286.760193
v -154.179626 417.180908 158.517700
v -461.780121 561.541199 257.292725
v -458.564301 457.477020 190.118011
v -385.597351 616.311829 177.204987
v -385.385193 513.288757 107.160149
v 7.866760 669.046387 -114.461128
v 83.483826 700.739624 -18.607033
v 7.018555 796.721252 9.404869
v -68.107971 765.888489 -84.930275
v 120.693298 814.312683 -228.738983
v 176.943909 836.909668 -158.125305
v 121.085632 908.110229 -136.413391
v 64.834900 885.513184 -207.027161
v 191.324280 907.294312 -298.248322
v 232.431519 923.807861 -246.644623
v 191.611023 975.840271 -230.777985
v 150.503784 959.326660 -282.381653
v -259.276245 645.572876 247.853912
v -262.285034 439.244812 105.428253
v -420.463745 539.153320 416.283539
v -413.805237 323.684387 277.195648
v 51.677063 752.487427 -4.096138
v -29.546021 719.858521 -106.058769
v 160.628235 884.455261 -156.564026
v 100.911133 860.465698 -231.529144
v 227.517456 966.533752 -253.640930
v 183.877014 949.002441 -308.424561
v 242.723694 960.688599 -356.279694
v 283.830994 977.202087 -304.675873
v 280.606445 1030.180786 -316.299133
v 236.966125 1012.649414 -371.082764
v 203.333191 1021.397766 -344.328644
v 244.440491 1037.911377 -292.724976
v 278.863525 1000.087402 -397.676483
v 319.970886 1016.600891 -346.072876
v 316.746277 1069.579590 -357.696106
v 273.105774 1052.048340 -412.479462
v 239.472900 1060.796631 -385.725464
v 280.580261 1077.310059 -334.121918
v 322.969666 1008.378418 -419.494232
v 349.428650 1019.007324 -386.279297
v 347.353210 1053.107422 -393.760742
v 319.263855 1041.823242 -429.022339
v 273.286072 1105.092163 -429.597687
v 239.653198 1113.840332 -402.843597
v 280.760559 1130.354004 -351.239990
v 316.926575 1122.623413 -374.814026
v 352.680359 1012.858398 -435.196075
v 370.518127 1020.024170 -412.803558
v 369.119080 1043.013550 -417.847290
v 350.181824 1035.406128 -441.619934
v 377.598083 1028.856934 -452.880768
v 388.748718 1033.336426 -438.882935
v 387.873840 1047.707031 -442.035583
v 376.036194 1042.951660 -456.896210
v 274.847717 1137.989014 -425.425873
v 252.484741 1143.805786 -407.636688
v 279.817444 1154.785767 -373.324768
v 303.864807 1149.645630 -388.999481
vn 0.4637 -0.8638 0.1969
vn -0.2968 0.9163 -0.2688
vn -0.4640 0.8626 -0.2016
vn -0.4342 -0.3450 0.8321
vn 0.3645 0.8466 0.3879
vn -0.6378 -0.5358 -0.5532
vn -0.1930 0.9407 -0.2789
vn 0.8548 0.4043 0.3254
vn -0.7996 -0.0882 -0.5940
vn 0.4590 -0.8873 0.0447
vn -0.8782 -0.1801 -0.4430
vn 0.9414 0.1970 0.2737
vn -0.8809 -0.2152 -0.4215
vn 0.2514 -0.9583 0.1361
vn 0.8835 0.3414 0.3208
vn 0.2568 -0.9587 0.1221
vn -0.1871 0.9378 -0.2923
vn 0.9514 0.1582 0.2643
vn 0.8995 0.3799 0.2159
vn 0.2086 -0.9475 0.2425
vn -0.8457 -0.3659 -0.3886
vn 0.9061 0.3478 0.2408
vn -0.8263 -0.4019 -0.3945
vn -0.6620 -0.4823 -0.5737
vn 0.5868 0.7556 0.2911
vn -0.8065 -0.0224 -0.5908
vn 0.6984 0.4379 0.5661
vn -0.7412 0.4268 0.5182
vn -0.2161 0.9502 -0.2245
vn -0.8869 -0.3321 -0.3212
vn -0.2277 0.9538 -0.1962
vn 0.9103 0.2292 0.3448
vn -0.8854 -0.3365 -0.3207
vn -0.9117 -0.2241 -0.3445
vn 0.8784 0.3209 0.3541
vn -0.0058 -0.7541 0.6567
vn 0.9092 0.2337 0.3445
vn 0.8835 0.3436 0.3182
vn -0.9113 -0.2217 -0.3470
vn 0.2161 -0.9502 0.2245
vn 0.1652 0.4857 -0.8584
vn -0.7637 -0.4830 -0.4283
vn 0.9743 0.0645 0.2158
vn 0.1767 0.4618 -0.8692
vn 0.8687 0.4947 0.0273
vn -0.9181 -0.2450 -0.3117
vn -0.4148 0.7939 0.4445
vn 0.4148 -0.7939 -0.4445
vn -0.0356 0.8069 -0.5897
vn 0.9670 0.0923 0.2375
vn -0.7864 -0.4600 -0.4123
vn -0.0183 -0.7369 0.6758
vn 0.4274 -0.7313 -0.5316
vn 0.9646 0.1006 0.2439
vn -0.7931 -0.4529 -0.4073
vn 0.1427 -0.9103 0.3887
vn 0.1387 0.5380 -0.8315
vn -0.8046 -0.0324 -0.5929
vn 0.4359 -0.6435 -0.6292
vn -0.3701 0.8990 0.2344
vn 0.7964 -0.3254 0.5098
vn -0.6059 0.7293 -0.3177
vn -0.7967 0.3246 -0.5097
vn -0.3554 -0.5147 0.7803
vn -0.3628 0.9010 0.2379
vn 0.0755 -0.8569 -0.5099
vn -0.5585 0.8091 0.1827
vn 0.3551 0.7131 0.6045
vn -0.3523 -0.3060 -0.8844
vn 0.8130 -0.5280 0.2455
vn -0.6164 -0.0930 -0.7819
vn 0.6922 0.2244 0.6859
vn -0.6060 -0.1328 -0.7843
vn 0.6410 -0.7169 -0.2740
vn 0.5659 0.2887 0.7723
vn 0.6461 -0.7066 -0.2886
vn -0.5491 0.8170 0.1760
vn 0.7182 0.2089 0.6637
vn 0.5784 0.3870 0.7181
vn 0.5801 -0.7869 -0.2103
vn -0.5110 -0.2539 -0.8212
vn 0.5819 0.3603 0.7291
vn -0.4767 -0.2711 -0.8362
vn -0.0831 -0.6362 -0.7670
vn -0.0796 0.8797 0.4687
vn -0.3653 -0.5905 -0.7196
vn 0.0579 0.8274 0.5586
vn -0.9587 -0.1746 0.2246
vn -0.5908 0.7756 0.2224
vn -0.5730 -0.2826 -0.7693
vn -0.6070 0.7573 0.2412
vn 0.6371 0.1990 0.7446
vn -0.5698 -0.2858 -0.7705
vn -0.6407 -0.1960 -0.7424
vn 0.5657 0.2515 0.7853
vn 0.2394 -0.9638 0.1177
vn 0.6342 0.2023 0.7462
vn 0.5653 0.2921 0.7715
vn -0.6411 -0.1926 -0.7429
vn 0.5908 -0.7756 -0.2224
vn 0.0546 0.9375 -0.3435
vn -0.3794 -0.2921 -0.8779
vn 0.7888 0.1771 0.5885
vn 0.0773 0.9301 -0.3592
vn 0.5281 0.5806 0.6197
vn -0.6418 -0.2335 -0.7304
vn -0.7967 0.1881 0.5744
vn 0.7967 -0.1881 -0.5744
vn -0.3103 0.9490 -0.0565
vn 0.7663 0.1818 0.6162
vn -0.4122 -0.2916 -0.8632
vn 0.2176 -0.9665 0.1360
vn 0.7924 -0.0843 -0.6042
vn 0.7594 0.1832 0.6243
vn -0.4222 -0.2913 -0.8584
vn 0.4827 -0.8693 -0.1063
vn 0.0032 0.9517 -0.3071
vn -0.5966 0.1288 -0.7921
vn 0.7746 0.0432 -0.6309
vn -0.7731 0.4086 0.4851
usemtl Matériau.012
s off
f 83//20 84//20 86//20 85//20
f 90//21 89//21 93//21 94//21
f 89//22 90//22 88//22 87//22
f 105//23 106//23 84//23 83//23
f 103//24 89//24 87//24 105//24
f 104//25 86//25 84//25 106//25
f 94//26 93//26 97//26 98//26
f 103//27 85//27 92//27 107//27
f 104//28 90//28 94//28 108//28
f 85//29 86//29 91//29 92//29
f 110//30 98//30 102//30 112//30
f 107//31 92//31 96//31 109//31
f 108//32 94//32 98//32 110//32
f 92//33 91//33 95//33 96//33
f 101//34 111//34 115//34 118//34
f 96//35 95//35 99//35 100//35
f 98//36 97//36 101//36 102//36
f 109//37 96//37 100//37 111//37
f 97//38 109//38 111//38 101//38
f 100//39 99//39 113//39 114//39
f 91//40 108//40 110//40 95//40
f 93//41 107//41 109//41 97//41
f 95//42 110//42 112//42 99//42
f 86//43 104//43 108//43 91//43
f 89//44 103//44 107//44 93//44
f 90//45 104//45 106//45 88//45
f 85//46 103//46 105//46 83//46
f 87//47 88//47 106//47 105//47
f 117//48 118//48 124//48 123//48
f 113//49 116//49 122//49 119//49
f 102//50 101//50 118//50 117//50
f 111//51 100//51 114//51 115//51
f 99//52 112//52 116//52 113//52
f 112//53 102//53 117//53 116//53
f 124//54 121//54 132//54 131//54
f 120//55 119//55 125//55 126//55
f 115//56 114//56 120//56 121//56
f 118//57 115//57 121//57 124//57
f 116//58 117//58 123//58 122//58
f 114//59 113//59 119//59 120//59
f 128//60 127//60 135//60 136//60
f 119//61 122//61 128//61 125//61
f 121//62 120//62 126//62 127//62
f 122//63 121//63 127//63 128//63
f 131//64 132//64 144//64 143//64
f 122//65 123//65 130//65 129//65
f 123//66 124//66 131//66 130//66
f 121//67 122//67 129//67 132//67
f 136//68 135//68 139//68 140//68
f 127//69 126//69 134//69 135//69
f 125//70 128//70 136//70 133//70
f 126//71 125//71 133//71 134//71
f 138//72 137//72 140//72 139//72
f 135//73 134//73 138//73 139//73
f 133//74 136//74 140//74 137//74
f 134//75 133//75 137//75 138//75
f 144//76 141//76 142//76 143//76
f 129//77 130//77 142//77 141//77
f 132//78 129//78 141//78 144//78
f 130//79 131//79 143//79 142//79
f 145//80 146//80 148//80 147//80
f 152//81 151//81 155//81 156//81
f 151//82 152//82 150//82 149//82
f 167//83 168//83 146//83 145//83
f 165//84 151//84 149//84 167//84
f 166//85 148//85 146//85 168//85
f 156//86 155//86 159//86 160//86
f 165//87 147//87 154//87 169//87
f 166//88 152//88 156//88 170//88
f 147//89 148//89 153//89 154//89
f 172//90 160//90 164//90 174//90
f 169//91 154//91 158//91 171//91
f 170//92 156//92 160//92 172//92
f 154//93 153//93 157//93 158//93
f 163//94 173//94 177//94 180//94
f 158//95 157//95 161//95 162//95
f 160//96 159//96 163//96 164//96
f 171//97 158//97 162//97 173//97
f 159//98 171//98 173//98 163//98
f 162//99 161//99 175//99 176//99
f 153//100 170//100 172//100 157//100
f 155//101 169//101 171//101 159//101
f 157//102 172//102 174//102 161//102
f 148//103 166//103 170//103 153//103
f 151//104 165//104 169//104 155//104
f 152//105 166//105 168//105 150//105
f 147//106 165//106 167//106 145//106
f 149//107 150//107 168//107 167//107
f 179//108 180//108 186//108 185//108
f 175//109 178//109 184//109 181//109
f 164//110 163//110 180//110 179//110
f 173//111 162//111 176//111 177//111
f 161//112 174//112 178//112 175//112
f 174//113 164//113 179//113 178//113
f 186//114 183//114 194//114 193//114
f 182//115 181//115 187//115 188//115
f 177//116 176//116 182//116 183//116
f 180//117 177//117 183//117 186//117
f 178//118 179//118 185//118 184//118
f 176//119 175//119 181//119 182//119
f 190//120 189//120 197//120 198//120
f 181//121 184//121 190//121 187//121
f 183//122 182//122 188//122 189//122
f 184//123 183//123 189//123 190//123
f 193//124 194//124 206//124 205//124
f 184//125 185//125 192//125 191//125
f 185//126 186//126 193//126 192//126
f 183//127 184//127 191//127 194//127
f 198//128 197//128 201//128 202//128
f 189//129 188//129 196//129 197//129
f 187//130 190//130 198//130 195//130
f 188//131 187//131 195//131 196//131
f 200//132 199//132 202//132 201//132
f 197//133 196//133 200//133 201//133
f 195//134 198//134 202//134 199//134
f 196//135 195//135 199//135 200//135
f 206//136 203//136 204//136 205//136
f 191//137 192//137 204//137 203//137
f 194//138 191//138 203//138 206//138
f 192//139 193//139 205//139 204//139
