# Blender v2.91.2 OBJ File: 'camionnete02.blend'
# www.blender.org
mtllib arme_000012.mtl
o Cube.046_Cube.010
v 309.745758 260.831696 -1046.518311
v 292.908234 41.515762 -1032.513672
v 418.096466 240.327148 -1237.355225
v 401.258911 21.011223 -1223.350586
v 118.550278 268.525696 -1155.899292
v 101.712692 49.209778 -1141.894531
v 226.901001 248.021210 -1346.736206
v 210.063446 28.705238 -1332.731689
v 160.568268 289.062317 -783.773499
v 143.730713 69.746460 -769.768860
v -47.464756 77.440453 -879.149719
v -30.627197 296.756378 -893.154358
v 93.055695 301.838593 -664.864136
v 76.218109 82.522675 -650.859558
v -114.977409 90.216675 -760.240417
v -98.139847 309.532623 -774.245117
v 53.172241 309.386230 -594.617920
v 47.734825 148.586212 -596.084473
v -143.460739 156.280243 -705.465393
v -138.023300 317.080261 -703.998779
v 109.841171 520.476501 -678.825562
v -81.354317 528.170532 -788.206482
v 69.957748 528.024109 -608.579285
v -121.237740 535.718201 -717.960144
v 183.842712 284.657837 -824.766479
v 167.005157 65.341957 -810.761841
v -7.352783 292.351868 -934.147461
v -24.190369 73.035950 -920.142700
v 166.126480 361.460205 -788.396545
v -25.069012 369.154236 -897.777527
v 189.400909 357.055695 -829.389526
v -1.794594 364.749664 -938.770264
v 174.190552 466.497620 -795.103821
v -17.004940 474.191650 -904.484619
v 197.464935 462.093048 -836.096863
v 6.269489 469.787140 -945.477722
v 100.139771 373.947662 -672.174805
v -91.055756 381.641663 -781.555664
v 108.203812 478.985077 -678.882080
v -82.991684 486.679077 -788.263000
v 145.472137 651.820007 -731.868774
v -45.723358 659.514038 -841.249695
v 105.588699 659.367615 -661.622498
v -85.606758 667.061646 -771.003357
v 379.845276 247.565887 -1169.983887
v 363.007751 28.249962 -1155.979370
v 188.649811 255.259918 -1279.364868
v 171.812286 35.943977 -1265.360107
v 322.498718 244.174194 -1292.045654
v 305.661194 24.858231 -1278.041260
v 214.148010 264.678711 -1101.208618
v 197.310471 45.362770 -1087.204102
v 64.970535 292.909332 -838.463928
v 48.132973 73.593468 -824.459229
v -2.542072 305.685608 -719.554565
v -16.234131 96.814804 -692.176819
v -42.425499 313.233215 -649.308350
v -35.440491 141.361633 -655.241882
v 14.243412 524.323547 -733.515991
v -25.639992 531.871155 -663.269714
v 71.407387 69.188942 -865.452332
v 88.244965 288.504822 -879.456970
v 70.528732 365.307190 -843.087036
v 93.803162 360.902649 -884.079956
v 78.592812 470.344666 -849.794189
v 101.867203 465.940094 -890.787231
v 4.542011 377.794678 -726.865234
v 12.606068 482.832123 -733.572449
v 49.874374 655.667053 -786.559204
v 9.990944 663.214600 -716.312988
v 267.410004 32.096977 -1210.669800
v 284.247559 251.412903 -1224.674438
v 370.297638 242.250671 -1264.700439
v 245.109344 43.439262 -1059.858887
v 95.931839 71.669960 -797.114075
v 15.996769 95.517776 -673.737915
v -3.209585 140.064606 -636.802917
v 136.043823 286.581329 -852.111694
v 141.602020 358.979126 -856.734680
v 149.666077 464.016571 -863.442078
v 332.046448 249.489380 -1197.329224
v 353.460052 22.934731 -1250.696045
v 261.946869 262.755188 -1073.863647
v 112.769409 290.985809 -811.118774
v 45.256790 303.762115 -692.209412
v 5.373360 311.309692 -621.963135
v 62.042313 522.400024 -706.170776
v 22.158894 529.947632 -635.924500
v 119.206284 67.265457 -838.107056
v 118.327606 363.383667 -815.741760
v 126.391663 468.421143 -822.449036
v 52.340881 375.871155 -699.520020
v 60.404938 480.908600 -706.227173
v 97.673279 653.743530 -759.213928
v 57.789833 661.291077 -688.967712
v 315.208862 30.173470 -1183.324585
v 116.053696 26.201538 -835.484863
v 68.254799 28.125034 -862.830078
v 312.056274 -10.890434 -1180.702515
v 264.257416 -8.966949 -1208.047607
v 194.157867 4.298851 -1084.581909
v 241.956757 2.375359 -1057.236694
v 436.197296 186.854004 -1085.532959
v 405.199982 192.720001 -1030.937622
v 397.754669 95.740738 -1024.744751
v 428.751892 89.874748 -1079.340210
v 477.513702 185.191376 -1061.896362
v 446.516357 191.057343 -1007.301025
v 439.070984 94.078117 -1001.108276
v 470.068329 88.212120 -1055.703491
v 540.740845 182.647003 -1025.724854
v 509.743561 188.513031 -971.129517
v 502.298126 91.533783 -964.936768
v 533.295410 85.667786 -1019.532227
v 581.426758 181.009735 -1002.448975
v 550.429443 186.875732 -947.853699
v 542.984131 89.896500 -941.660889
v 573.981445 84.030510 -996.256287
v 709.413086 -44.426247 -1877.631470
v 661.614258 -42.502739 -1904.976929
v 678.451660 176.813202 -1918.981445
v 726.250610 174.889679 -1891.636230
v 81.394943 718.183655 -804.492249
v -6.693226 721.728455 -854.886597
v 44.644516 725.138367 -739.764038
v -43.443596 728.683105 -790.158386
v 132.732681 721.593567 -689.369873
v 169.483139 714.638916 -754.097839
v 125.439072 716.411438 -779.295044
v 88.688599 723.365906 -714.566956
vn 0.8675 -0.0349 0.4963
vn 0.4916 -0.0930 -0.8658
vn -0.8675 0.0349 -0.4963
vn 0.0764 0.9951 -0.0635
vn -0.0764 -0.9951 0.0635
vn -0.4916 0.0930 0.8658
vn -0.3837 -0.6818 0.6228
vn -0.1601 -0.9858 0.0516
vn -0.5667 -0.0165 0.8238
vn -0.8682 0.0345 -0.4951
vn 0.8682 -0.0345 0.4951
vn 0.4336 -0.4361 -0.7886
vn 0.4317 -0.4430 -0.7857
vn -0.4336 0.4361 0.7886
vn 0.7933 -0.0993 -0.6007
vn -0.7841 0.3853 -0.4866
vn -0.4595 -0.0219 0.8879
vn -0.0569 -0.9920 0.1123
vn -0.4101 0.5146 0.7530
vn -0.4975 -0.0501 0.8660
vn -0.1086 -0.9868 0.1204
vn -0.1106 0.0718 0.9913
vn 0.4149 -0.8491 0.3268
vn 0.5424 0.8106 0.2208
vn 0.8529 -0.1490 0.5003
usemtl Matériau.011
s off
f 45//1 46//1 4//1 3//1
f 49//2 50//2 8//2 7//2
f 47//3 48//3 6//3 5//3
f 26//1 25//1 9//1 10//1
f 72//4 47//4 5//4 51//4
f 96//5 46//5 2//5 74//5
f 10//1 9//1 13//1 14//1
f 84//6 9//6 29//6 90//6
f 89//5 26//5 10//5 75//5
f 27//3 28//3 11//3 12//3
f 76//7 14//7 18//7 77//7
f 75//8 10//8 14//8 76//8
f 12//3 11//3 15//3 16//3
f 53//4 12//4 16//4 55//4
f 86//9 77//9 18//9 17//9
f 16//10 15//10 19//10 20//10
f 16//3 20//3 24//3 22//3
f 14//11 13//11 17//11 18//11
f 59//12 22//12 42//12 69//12
f 86//6 17//6 23//6 88//6
f 17//1 13//1 21//1 23//1
f 55//2 16//2 22//2 59//2
f 5//3 6//3 28//3 27//3
f 74//5 2//5 26//5 89//5
f 51//4 5//4 27//4 62//4
f 2//1 1//1 25//1 26//1
f 32//3 30//3 34//3 36//3
f 62//2 27//2 32//2 64//2
f 27//3 12//3 30//3 32//3
f 9//1 25//1 31//1 29//1
f 66//4 36//4 34//4 65//4
f 90//5 29//5 37//5 92//5
f 64//2 32//2 36//2 66//2
f 29//1 31//1 35//1 33//1
f 92//6 37//6 39//6 93//6
f 29//1 33//1 39//1 37//1
f 34//3 30//3 38//3 40//3
f 65//4 34//4 40//4 68//4
f 69//13 42//13 124//13 123//13
f 23//1 21//1 41//1 43//1
f 88//14 23//14 43//14 95//14
f 22//3 24//3 44//3 42//3
f 82//5 4//5 46//5 96//5
f 49//4 7//4 47//4 72//4
f 7//3 8//3 48//3 47//3
f 46//15 45//15 103//15 106//15
f 73//4 49//4 72//4 81//4
f 8//5 50//5 71//5 48//5
f 24//14 60//14 70//14 44//14
f 42//16 44//16 126//16 124//16
f 91//4 65//4 68//4 93//4
f 38//6 67//6 68//6 40//6
f 79//2 64//2 66//2 80//2
f 30//5 63//5 67//5 38//5
f 80//4 66//4 65//4 91//4
f 78//2 62//2 64//2 79//2
f 83//4 51//4 62//4 78//4
f 6//5 52//5 61//5 28//5
f 85//2 55//2 59//2 87//2
f 20//6 57//6 60//6 24//6
f 87//12 59//12 69//12 94//12
f 20//17 19//17 58//17 57//17
f 84//4 53//4 55//4 85//4
f 11//18 54//18 56//18 15//18
f 15//7 56//7 58//7 19//7
f 28//5 61//5 54//5 11//5
f 12//6 53//6 63//6 30//6
f 48//5 71//5 52//5 6//5
f 81//4 72//4 51//4 83//4
f 50//3 49//3 121//3 120//3
f 3//2 4//2 82//2 73//2
f 45//4 81//4 83//4 1//4
f 9//4 84//4 85//4 13//4
f 21//12 87//12 94//12 41//12
f 13//2 85//2 87//2 21//2
f 1//4 83//4 78//4 25//4
f 25//2 78//2 79//2 31//2
f 35//4 80//4 91//4 33//4
f 31//2 79//2 80//2 35//2
f 33//4 91//4 93//4 39//4
f 70//19 95//19 130//19 125//19
f 3//4 73//4 81//4 45//4
f 50//5 82//5 96//5 71//5
f 60//14 88//14 95//14 70//14
f 67//6 92//6 93//6 68//6
f 63//5 90//5 92//5 67//5
f 52//3 71//3 100//3 101//3
f 57//6 86//6 88//6 60//6
f 57//20 58//20 77//20 86//20
f 54//21 75//21 76//21 56//21
f 56//7 76//7 77//7 58//7
f 61//5 89//5 75//5 54//5
f 53//6 84//6 90//6 63//6
f 89//6 61//6 98//6 97//6
f 101//5 102//5 97//5 98//5
f 100//5 99//5 102//5 101//5
f 61//3 52//3 101//3 98//3
f 74//1 89//1 97//1 102//1
f 71//2 96//2 99//2 100//2
f 96//1 74//1 102//1 99//1
f 106//2 103//2 107//2 110//2
f 1//22 2//22 105//22 104//22
f 2//23 46//23 106//23 105//23
f 45//24 1//24 104//24 103//24
f 109//5 110//5 114//5 113//5
f 104//6 105//6 109//6 108//6
f 105//5 106//5 110//5 109//5
f 103//4 104//4 108//4 107//4
f 113//5 114//5 118//5 117//5
f 107//4 108//4 112//4 111//4
f 110//2 107//2 111//2 114//2
f 108//6 109//6 113//6 112//6
f 116//1 117//1 118//1 115//1
f 111//4 112//4 116//4 115//4
f 114//2 111//2 115//2 118//2
f 122//2 119//2 120//2 121//2
f 82//5 50//5 120//5 119//5
f 73//1 82//1 119//1 122//1
f 49//4 73//4 122//4 121//4
f 123//4 124//4 126//4 125//4
f 129//4 123//4 125//4 130//4
f 128//4 129//4 130//4 127//4
f 95//19 43//19 127//19 130//19
f 94//13 69//13 123//13 129//13
f 43//25 41//25 128//25 127//25
f 44//19 70//19 125//19 126//19
f 41//13 94//13 129//13 128//13
o Cube.048_Cube.024
v -564.067017 469.530518 182.350296
v -727.557190 342.571167 57.651283
v -422.918274 480.143158 -13.511803
v -586.693176 354.065521 -137.561310
v -677.887024 646.528503 37.274349
v -761.713013 581.432922 -26.662331
v -605.516113 651.969910 -63.149651
v -689.227173 587.140442 -126.990273
v -361.239319 439.187653 -437.989990
v -267.408813 500.847229 -379.538666
v -316.926056 611.299683 -416.564697
v -410.756561 549.640137 -475.016022
v -237.973816 454.184296 -615.394348
v -168.987610 499.517792 -572.419556
v -205.393860 580.724915 -599.641846
v -274.380188 535.391418 -642.616577
v -160.104004 466.341980 -726.093628
v -109.689697 499.471100 -694.688232
v -136.294983 558.816162 -714.581909
v -186.709229 525.687073 -745.987183
v -482.769073 585.947144 -28.270996
v -656.356934 452.232666 -160.027710
v -632.642700 574.653931 179.658813
v -806.207703 439.871033 47.275444
v -286.223724 557.770752 -400.937378
v -385.836365 492.311554 -462.990631
v -174.778076 540.835571 -600.500305
v -248.015472 492.708496 -646.123291
v -106.623596 529.181396 -726.413330
v -160.144531 494.010803 -759.754089
v -107.415222 459.850037 -803.825378
v -57.000916 492.979156 -772.419983
v -50.831360 527.352051 -814.045166
v -104.352417 492.181427 -847.385864
v -131.394104 523.140991 -832.097473
v -80.979797 556.270142 -800.692200
v -70.069214 456.350708 -860.084412
v -19.655090 489.479889 -828.678955
v -13.485657 523.852783 -870.304260
v -67.006592 488.682098 -903.644836
v -94.048279 519.641663 -888.356323
v -43.633972 552.770813 -856.950989
v -28.684937 438.751801 -881.711304
v 3.764404 460.075500 -861.497009
v 7.735474 482.199799 -888.289307
v -26.713501 459.562012 -909.749268
v -58.292419 518.989197 -949.604126
v -85.334167 549.948792 -934.315430
v -34.919800 583.077881 -902.910278
v -4.771423 554.159851 -916.263367
v -1.175598 425.454163 -896.399841
v 20.700867 439.830078 -882.771851
v 23.377991 454.745605 -900.834534
v 0.153381 439.483887 -915.302185
v 23.787781 420.969727 -919.772888
v 37.463013 429.956268 -911.254028
v 39.136536 439.280121 -922.545105
v 24.618530 429.739838 -931.589111
v -49.421204 546.226807 -966.380798
v -67.401489 566.812134 -956.215149
v -33.880493 588.840210 -935.333252
v -13.834412 569.612183 -944.212097
v -293.359741 594.992004 360.385651
v -288.707428 354.331055 338.979431
v -162.943909 622.588135 148.612152
v -161.989197 374.990723 134.252197
v -467.067505 548.675293 178.697235
v -464.682129 425.281677 167.721649
v -401.072937 562.312012 71.832703
v -399.710205 435.874481 62.752254
v -17.740845 381.180664 -205.241760
v 9.277588 496.222626 -253.318390
v -99.056030 494.392456 -318.742340
v -126.059326 379.138580 -270.706055
v 72.758301 300.994415 -384.884644
v 92.843079 384.500854 -420.722443
v 13.204956 382.999451 -468.853302
v -6.879883 299.492981 -433.015533
v 128.101318 252.598175 -499.168793
v 142.779053 313.623749 -525.358643
v 84.580444 312.526489 -560.531799
v 69.902710 251.501068 -534.342102
v -275.357208 632.428223 101.116478
v -274.333008 369.647339 85.853783
v -413.799042 603.205811 325.922394
v -408.860016 347.714478 303.196991
v -41.108398 494.770081 -292.497742
v -70.109741 374.191101 -240.749969
v 62.512512 378.002838 -460.308380
v 41.190063 289.350464 -422.262207
v 126.905945 302.972626 -564.514404
v 111.323792 238.186584 -536.710938
v 175.364807 211.160095 -569.236633
v 190.042603 272.185577 -595.426453
v 173.863892 257.112366 -645.057678
v 158.281738 192.326294 -617.253967
v 116.907837 206.320435 -613.275269
v 131.585510 267.345947 -639.464905
v 208.190491 181.355774 -620.287964
v 222.868164 242.381226 -646.477600
v 206.689697 227.308044 -696.109009
v 191.107300 162.522095 -668.305298
v 149.733337 176.516235 -664.326416
v 164.411133 237.541687 -690.516052
v 251.817871 174.408325 -643.493408
v 261.265320 213.687683 -660.350464
v 250.851868 203.985657 -692.295959
v 240.822388 162.285828 -674.400085
v 179.708313 143.343140 -719.383179
v 138.334229 157.337402 -715.404297
v 153.011963 218.362640 -741.594055
v 195.290527 208.129120 -747.186829
v 281.884949 168.841858 -658.133057
v 288.254089 195.322876 -669.497498
v 281.233887 188.781982 -691.034546
v 274.472046 160.669189 -678.969482
v 304.615967 159.199585 -682.214478
v 308.597412 175.753235 -689.318665
v 304.208801 171.664612 -702.781433
v 299.981995 154.090820 -695.239380
v 169.169617 145.894043 -750.759399
v 141.659424 155.198914 -748.113770
v 151.418884 195.775513 -765.527588
v 179.530334 188.971130 -769.246277
vn 0.4483 -0.8504 0.2752
vn -0.3499 0.8570 -0.3784
vn -0.4484 0.8500 -0.2764
vn -0.4441 -0.2678 0.8550
vn 0.3771 0.8695 0.3190
vn -0.6467 -0.5749 -0.5012
vn -0.3477 0.8671 -0.3566
vn 0.7988 0.4697 0.3759
vn -0.7546 -0.1572 -0.6370
vn 0.5075 -0.8475 0.1555
vn -0.7253 -0.3834 -0.5718
vn 0.8113 0.4121 0.4147
vn -0.7237 -0.4179 -0.5493
vn 0.4323 -0.8728 0.2266
vn 0.7153 0.5398 0.4438
vn 0.4400 -0.8722 0.2137
vn -0.3390 0.8655 -0.3688
vn 0.8312 0.3764 0.4091
vn 0.7401 0.5796 0.3410
vn 0.3704 -0.8706 0.3238
vn -0.6618 -0.5560 -0.5030
vn 0.7494 0.5501 0.3684
vn -0.6342 -0.5866 -0.5037
vn -0.5849 -0.5511 -0.5951
vn 0.5313 0.7999 0.2791
vn -0.8079 -0.0529 -0.5870
vn 0.7029 0.4720 0.5322
vn -0.7364 0.4803 0.4765
vn -0.3814 0.8718 -0.3074
vn -0.7205 -0.5316 -0.4452
vn -0.3982 0.8730 -0.2816
vn 0.7619 0.4371 0.4779
vn -0.7182 -0.5355 -0.4442
vn -0.7645 -0.4325 -0.4780
vn 0.7092 0.5192 0.4769
vn 0.0497 -0.7260 0.6859
vn 0.7600 0.4413 0.4771
vn 0.7153 0.5420 0.4411
vn -0.7642 -0.4302 -0.4805
vn 0.3814 -0.8718 0.3074
vn 0.1981 0.4985 -0.8439
vn -0.5501 -0.6516 -0.5223
vn 0.8826 0.2898 0.3702
vn 0.2164 0.4778 -0.8514
vn 0.7175 0.6815 0.1441
vn -0.7716 -0.4539 -0.4456
vn -0.6527 0.6834 0.3269
vn 0.6527 -0.6834 -0.3269
vn -0.1130 0.7687 -0.6296
vn 0.8656 0.3155 0.3888
vn -0.5797 -0.6343 -0.5115
vn 0.0306 -0.7118 0.7017
vn 0.6658 -0.6208 -0.4139
vn 0.8603 0.3231 0.3943
vn -0.5887 -0.6288 -0.5081
vn 0.2736 -0.8475 0.4548
vn 0.1563 0.5437 -0.8246
vn -0.6618 -0.2249 -0.7151
vn 0.6712 -0.5348 -0.5133
vn -0.5970 0.7930 0.1218
vn 0.8520 -0.0285 0.5227
vn -0.7840 -0.0168 -0.6205
vn -0.8517 0.0292 -0.5232
vn -0.2797 -0.0904 0.9558
vn -0.4498 0.8779 -0.1638
vn 0.0716 -0.9959 -0.0562
vn -0.8167 -0.0491 -0.5750
vn 0.1719 0.9579 -0.2301
vn -0.3204 -0.9340 -0.1581
vn 0.9176 -0.0291 0.3964
vn -0.2673 -0.9317 0.2462
vn 0.3143 0.8569 -0.4086
vn -0.2444 -0.9283 0.2803
vn 0.8896 -0.0182 0.4563
vn 0.1623 0.8951 -0.4153
vn 0.8956 -0.0248 0.4442
vn -0.8085 -0.0569 -0.5857
vn 0.3586 0.8459 -0.3947
vn 0.1594 0.8422 -0.5151
vn 0.8374 0.0327 0.5455
vn -0.1089 -0.9257 0.3621
vn 0.1932 0.8546 -0.4821
vn -0.0680 -0.9279 0.3666
vn 0.0654 -0.9977 0.0182
vn -0.2255 0.8935 -0.3884
vn -0.3927 -0.8585 -0.3297
vn 0.0258 0.9892 0.1446
vn -0.9331 -0.0497 0.3560
vn -0.8472 -0.0240 -0.5307
vn -0.1716 -0.8948 0.4121
vn -0.8618 -0.0104 -0.5072
vn 0.2636 0.8969 -0.3550
vn -0.1674 -0.8948 0.4139
vn -0.2685 -0.8961 0.3534
vn 0.1699 0.9095 -0.3794
vn 0.4854 0.2436 0.8397
vn 0.2594 0.8973 -0.3571
vn 0.1610 0.8939 -0.4183
vn -0.2697 -0.8970 0.3502
vn 0.8472 0.0240 0.5307
vn -0.1425 -0.3612 -0.9215
vn 0.0388 -0.9349 0.3529
vn 0.4559 0.7993 -0.3914
vn -0.1149 -0.3683 -0.9226
vn 0.0839 0.7219 -0.6869
vn -0.2612 -0.8831 0.3899
vn -0.9548 0.2765 0.1092
vn 0.9548 -0.2765 -0.1092
vn -0.5635 -0.2076 -0.7996
vn 0.4254 0.8180 -0.3871
vn 0.0046 -0.9315 0.3637
vn 0.4610 0.2540 0.8503
vn 0.9271 -0.3120 -0.2075
vn 0.4162 0.8234 -0.3857
vn -0.0058 -0.9302 0.3669
vn 0.7438 0.1045 0.6602
vn -0.2045 -0.3441 -0.9164
vn -0.3177 -0.9477 0.0297
vn 0.8789 -0.3503 -0.3237
vn -0.9760 0.1869 -0.1114
usemtl Matériau.012
s off
f 131//26 132//26 134//26 133//26
f 138//27 137//27 141//27 142//27
f 137//28 138//28 136//28 135//28
f 153//29 154//29 132//29 131//29
f 151//30 137//30 135//30 153//30
f 152//31 134//31 132//31 154//31
f 142//32 141//32 145//32 146//32
f 151//33 133//33 140//33 155//33
f 152//34 138//34 142//34 156//34
f 133//35 134//35 139//35 140//35
f 158//36 146//36 150//36 160//36
f 155//37 140//37 144//37 157//37
f 156//38 142//38 146//38 158//38
f 140//39 139//39 143//39 144//39
f 149//40 159//40 163//40 166//40
f 144//41 143//41 147//41 148//41
f 146//42 145//42 149//42 150//42
f 157//43 144//43 148//43 159//43
f 145//44 157//44 159//44 149//44
f 148//45 147//45 161//45 162//45
f 139//46 156//46 158//46 143//46
f 141//47 155//47 157//47 145//47
f 143//48 158//48 160//48 147//48
f 134//49 152//49 156//49 139//49
f 137//50 151//50 155//50 141//50
f 138//51 152//51 154//51 136//51
f 133//52 151//52 153//52 131//52
f 135//53 136//53 154//53 153//53
f 165//54 166//54 172//54 171//54
f 161//55 164//55 170//55 167//55
f 150//56 149//56 166//56 165//56
f 159//57 148//57 162//57 163//57
f 147//58 160//58 164//58 161//58
f 160//59 150//59 165//59 164//59
f 172//60 169//60 180//60 179//60
f 168//61 167//61 173//61 174//61
f 163//62 162//62 168//62 169//62
f 166//63 163//63 169//63 172//63
f 164//64 165//64 171//64 170//64
f 162//65 161//65 167//65 168//65
f 176//66 175//66 183//66 184//66
f 167//67 170//67 176//67 173//67
f 169//68 168//68 174//68 175//68
f 170//69 169//69 175//69 176//69
f 179//70 180//70 192//70 191//70
f 170//71 171//71 178//71 177//71
f 171//72 172//72 179//72 178//72
f 169//73 170//73 177//73 180//73
f 184//74 183//74 187//74 188//74
f 175//75 174//75 182//75 183//75
f 173//76 176//76 184//76 181//76
f 174//77 173//77 181//77 182//77
f 186//78 185//78 188//78 187//78
f 183//79 182//79 186//79 187//79
f 181//80 184//80 188//80 185//80
f 182//81 181//81 185//81 186//81
f 192//82 189//82 190//82 191//82
f 177//83 178//83 190//83 189//83
f 180//84 177//84 189//84 192//84
f 178//85 179//85 191//85 190//85
f 193//86 194//86 196//86 195//86
f 200//87 199//87 203//87 204//87
f 199//88 200//88 198//88 197//88
f 215//89 216//89 194//89 193//89
f 213//90 199//90 197//90 215//90
f 214//91 196//91 194//91 216//91
f 204//92 203//92 207//92 208//92
f 213//93 195//93 202//93 217//93
f 214//94 200//94 204//94 218//94
f 195//95 196//95 201//95 202//95
f 220//96 208//96 212//96 222//96
f 217//97 202//97 206//97 219//97
f 218//98 204//98 208//98 220//98
f 202//99 201//99 205//99 206//99
f 211//100 221//100 225//100 228//100
f 206//101 205//101 209//101 210//101
f 208//102 207//102 211//102 212//102
f 219//103 206//103 210//103 221//103
f 207//104 219//104 221//104 211//104
f 210//105 209//105 223//105 224//105
f 201//106 218//106 220//106 205//106
f 203//107 217//107 219//107 207//107
f 205//108 220//108 222//108 209//108
f 196//109 214//109 218//109 201//109
f 199//110 213//110 217//110 203//110
f 200//111 214//111 216//111 198//111
f 195//112 213//112 215//112 193//112
f 197//113 198//113 216//113 215//113
f 227//114 228//114 234//114 233//114
f 223//115 226//115 232//115 229//115
f 212//116 211//116 228//116 227//116
f 221//117 210//117 224//117 225//117
f 209//118 222//118 226//118 223//118
f 222//119 212//119 227//119 226//119
f 234//120 231//120 242//120 241//120
f 230//121 229//121 235//121 236//121
f 225//122 224//122 230//122 231//122
f 228//123 225//123 231//123 234//123
f 226//124 227//124 233//124 232//124
f 224//125 223//125 229//125 230//125
f 238//126 237//126 245//126 246//126
f 229//127 232//127 238//127 235//127
f 231//128 230//128 236//128 237//128
f 232//129 231//129 237//129 238//129
f 241//130 242//130 254//130 253//130
f 232//131 233//131 240//131 239//131
f 233//132 234//132 241//132 240//132
f 231//133 232//133 239//133 242//133
f 246//134 245//134 249//134 250//134
f 237//135 236//135 244//135 245//135
f 235//136 238//136 246//136 243//136
f 236//137 235//137 243//137 244//137
f 248//138 247//138 250//138 249//138
f 245//139 244//139 248//139 249//139
f 243//140 246//140 250//140 247//140
f 244//141 243//141 247//141 248//141
f 254//142 251//142 252//142 253//142
f 239//143 240//143 252//143 251//143
f 242//144 239//144 251//144 254//144
f 240//145 241//145 253//145 252//145
