# Blender v2.91.2 OBJ File: 'camionnete02.blend'
# www.blender.org
mtllib arme_000165.mtl
o Cube.046_Cube.010
v 155.789551 624.566345 -1257.740356
v 151.716797 410.541931 -1310.238770
v 219.012711 673.731567 -1463.080811
v 214.939926 459.707214 -1515.579346
v -55.315475 643.419800 -1318.224365
v -59.388290 429.395386 -1370.722778
v 7.907669 692.585083 -1523.564575
v 3.834846 478.560669 -1576.063354
v 68.743805 556.875427 -975.027283
v 64.671013 342.851074 -1027.525635
v -146.433990 361.704468 -1088.009644
v -142.361206 575.728882 -1035.511108
v 29.349937 526.240906 -847.080933
v 25.277130 312.216492 -899.579468
v -185.827942 331.069885 -960.063293
v -181.755157 545.094299 -907.564880
v 6.077759 508.143372 -771.496094
v 7.165253 355.468994 -822.267273
v -203.939880 374.322388 -882.751160
v -205.027344 526.996826 -831.979919
v 33.410103 739.603638 -794.744751
v -177.694962 758.457092 -855.228699
v 10.137951 721.506104 -719.159851
v -200.967102 740.359558 -779.643799
v 82.324577 567.436462 -1019.135681
v 78.251770 353.412109 -1071.634155
v -128.780502 586.289917 -1079.619629
v -132.853317 372.265503 -1132.118164
v 70.088272 627.526489 -957.697144
v -141.016785 646.380005 -1018.181030
v 83.669029 638.087524 -1001.805481
v -127.436035 656.940918 -1062.289307
v 72.038879 730.029663 -932.553955
v -139.066147 748.883057 -993.037781
v 85.619576 740.590637 -976.662415
v -125.485428 759.444092 -1037.146240
v 31.584740 597.584351 -832.642639
v -179.520355 616.437744 -893.126526
v 33.535332 700.087524 -807.499390
v -177.569733 718.940918 -867.983276
v 50.631214 883.854919 -809.886414
v -160.473862 902.708374 -870.370361
v 27.359024 865.757385 -734.301514
v -183.745972 884.610840 -794.785400
v 196.692963 656.374756 -1390.589355
v 192.620178 442.350403 -1443.087891
v -14.412086 675.228149 -1451.073242
v -18.484833 461.203735 -1503.571655
v 113.460159 683.158325 -1493.322876
v 109.387405 469.133911 -1545.821411
v 50.237038 633.993103 -1287.982300
v 46.164284 419.968628 -1340.480713
v -36.808701 566.302124 -1005.269226
v -40.881470 352.277771 -1057.767578
v -76.202591 535.667603 -877.322815
v -74.630386 327.919250 -914.768860
v -99.474762 517.570068 -801.737976
v -86.843277 357.084534 -862.636963
v -72.142426 749.030396 -824.986694
v -95.414566 730.932861 -749.401855
v -27.300766 362.838806 -1101.876099
v -23.227959 576.863159 -1049.377686
v -35.464249 636.953247 -987.939148
v -21.883507 647.514160 -1032.047485
v -33.513626 739.456421 -962.795776
v -19.932915 750.017334 -1006.904297
v -73.967804 607.011108 -862.884644
v -72.017181 709.514221 -837.741333
v -54.921341 893.281616 -840.128418
v -78.193512 875.184082 -764.543457
v 87.067657 451.777100 -1473.329834
v 91.140450 665.801514 -1420.831299
v 166.236465 678.444946 -1478.201782
v 98.940529 415.255310 -1325.359863
v 11.894768 347.564453 -1042.646729
v -39.043205 324.741028 -904.572754
v -51.256104 353.906311 -852.440857
v 29.548317 572.149780 -1034.256592
v 30.892754 642.800842 -1016.926514
v 32.843346 745.303955 -991.783325
v 143.916687 661.088135 -1405.710205
v 162.163651 464.420593 -1530.700317
v 103.013252 629.279724 -1272.861328
v 15.967541 561.588806 -990.148315
v -23.426353 530.954224 -862.201904
v -46.698517 512.856689 -786.617004
v -19.366150 744.317017 -809.865723
v -42.638306 726.219482 -734.280884
v 25.475513 358.125488 -1086.755127
v 17.312008 632.239868 -972.818115
v 19.262615 734.743042 -947.674866
v -21.191544 602.297729 -847.763611
v -19.240921 704.800842 -822.620361
v -2.145020 888.568298 -825.007385
v -25.417213 870.470703 -749.422485
v 139.843872 447.063721 -1458.208740
v 24.712944 318.052307 -1096.584717
v -28.063316 322.765625 -1111.705688
v 139.081268 406.990601 -1468.038452
v 86.305092 411.703918 -1483.159424
v 45.401649 379.895508 -1350.310425
v 98.177963 375.182129 -1335.189453
v 273.141022 579.862976 -1342.681885
v 255.053940 565.797607 -1283.937500
v 253.253143 471.158203 -1307.151733
v 271.340088 485.223633 -1365.896240
v 318.759766 575.788940 -1329.611938
v 300.672668 561.723511 -1270.867432
v 298.871765 467.084106 -1294.081543
v 316.958801 481.149475 -1352.826172
v 388.570862 569.554260 -1309.610352
v 370.483826 555.488831 -1250.865723
v 368.682831 460.849487 -1274.080078
v 386.769867 474.914856 -1332.824707
v 433.493439 565.542297 -1296.739502
v 415.406403 551.476929 -1237.995117
v 413.605530 456.837524 -1261.209351
v 431.692474 470.902893 -1319.953857
v 369.864044 625.938171 -2205.282471
v 317.087830 630.651489 -2220.403320
v 321.160461 844.675903 -2167.905029
v 373.936859 839.962524 -2152.783936
v -30.901009 961.364014 -843.487488
v -128.161987 970.050232 -871.353882
v -52.345032 944.688110 -773.840088
v -149.605957 953.374268 -801.706421
v 44.915894 936.001953 -745.973877
v 66.360001 952.677856 -815.621094
v 17.729534 957.021057 -829.554138
v -3.714569 940.344971 -759.906921
vn 0.9578 -0.0855 0.2744
vn 0.2868 0.2231 -0.9316
vn -0.9578 0.0855 -0.2744
vn 0.0185 0.9710 0.2382
vn -0.0185 -0.9710 -0.2382
vn -0.2868 -0.2231 0.9316
vn -0.2044 -0.8739 0.4410
vn -0.1031 -0.9678 -0.2295
vn -0.3649 -0.3227 0.8733
vn -0.9582 0.0848 -0.2733
vn 0.9582 -0.0848 0.2733
vn 0.2621 -0.1316 -0.9560
vn 0.2612 -0.1393 -0.9552
vn -0.2621 0.1316 0.9560
vn 0.6406 0.1714 -0.7485
vn -0.8891 0.4241 -0.1722
vn -0.2458 -0.3351 0.9095
vn 0.0114 -0.9805 -0.1959
vn -0.2506 0.2193 0.9429
vn -0.2865 -0.3595 0.8880
vn -0.0373 -0.9836 -0.1764
vn 0.1132 -0.2387 0.9645
vn 0.5131 -0.8570 -0.0472
vn 0.5439 0.7626 0.3501
vn 0.2869 0.2231 -0.9316
vn 0.9493 -0.1965 0.2452
usemtl Matériau.011
s off
f 45//1 46//1 4//1 3//1
f 49//2 50//2 8//2 7//2
f 47//3 48//3 6//3 5//3
f 26//1 25//1 9//1 10//1
f 72//4 47//4 5//4 51//4
f 96//5 46//5 2//5 74//5
f 10//1 9//1 13//1 14//1
f 84//6 9//6 29//6 90//6
f 89//5 26//5 10//5 75//5
f 27//3 28//3 11//3 12//3
f 76//7 14//7 18//7 77//7
f 75//8 10//8 14//8 76//8
f 12//3 11//3 15//3 16//3
f 53//4 12//4 16//4 55//4
f 86//9 77//9 18//9 17//9
f 16//10 15//10 19//10 20//10
f 16//3 20//3 24//3 22//3
f 14//11 13//11 17//11 18//11
f 59//12 22//12 42//12 69//12
f 86//6 17//6 23//6 88//6
f 17//1 13//1 21//1 23//1
f 55//2 16//2 22//2 59//2
f 5//3 6//3 28//3 27//3
f 74//5 2//5 26//5 89//5
f 51//4 5//4 27//4 62//4
f 2//1 1//1 25//1 26//1
f 32//3 30//3 34//3 36//3
f 62//2 27//2 32//2 64//2
f 27//3 12//3 30//3 32//3
f 9//1 25//1 31//1 29//1
f 66//4 36//4 34//4 65//4
f 90//5 29//5 37//5 92//5
f 64//2 32//2 36//2 66//2
f 29//1 31//1 35//1 33//1
f 92//6 37//6 39//6 93//6
f 29//1 33//1 39//1 37//1
f 34//3 30//3 38//3 40//3
f 65//4 34//4 40//4 68//4
f 69//13 42//13 124//13 123//13
f 23//1 21//1 41//1 43//1
f 88//14 23//14 43//14 95//14
f 22//3 24//3 44//3 42//3
f 82//5 4//5 46//5 96//5
f 49//4 7//4 47//4 72//4
f 7//3 8//3 48//3 47//3
f 46//15 45//15 103//15 106//15
f 73//4 49//4 72//4 81//4
f 8//5 50//5 71//5 48//5
f 24//14 60//14 70//14 44//14
f 42//16 44//16 126//16 124//16
f 91//4 65//4 68//4 93//4
f 38//6 67//6 68//6 40//6
f 79//2 64//2 66//2 80//2
f 30//5 63//5 67//5 38//5
f 80//4 66//4 65//4 91//4
f 78//2 62//2 64//2 79//2
f 83//4 51//4 62//4 78//4
f 6//5 52//5 61//5 28//5
f 85//2 55//2 59//2 87//2
f 20//6 57//6 60//6 24//6
f 87//12 59//12 69//12 94//12
f 20//17 19//17 58//17 57//17
f 84//4 53//4 55//4 85//4
f 11//18 54//18 56//18 15//18
f 15//7 56//7 58//7 19//7
f 28//5 61//5 54//5 11//5
f 12//6 53//6 63//6 30//6
f 48//5 71//5 52//5 6//5
f 81//4 72//4 51//4 83//4
f 50//3 49//3 121//3 120//3
f 3//2 4//2 82//2 73//2
f 45//4 81//4 83//4 1//4
f 9//4 84//4 85//4 13//4
f 21//12 87//12 94//12 41//12
f 13//2 85//2 87//2 21//2
f 1//4 83//4 78//4 25//4
f 25//2 78//2 79//2 31//2
f 35//4 80//4 91//4 33//4
f 31//2 79//2 80//2 35//2
f 33//4 91//4 93//4 39//4
f 70//19 95//19 130//19 125//19
f 3//4 73//4 81//4 45//4
f 50//5 82//5 96//5 71//5
f 60//14 88//14 95//14 70//14
f 67//6 92//6 93//6 68//6
f 63//5 90//5 92//5 67//5
f 52//3 71//3 100//3 101//3
f 57//6 86//6 88//6 60//6
f 57//20 58//20 77//20 86//20
f 54//21 75//21 76//21 56//21
f 56//7 76//7 77//7 58//7
f 61//5 89//5 75//5 54//5
f 53//6 84//6 90//6 63//6
f 89//6 61//6 98//6 97//6
f 101//5 102//5 97//5 98//5
f 100//5 99//5 102//5 101//5
f 61//3 52//3 101//3 98//3
f 74//1 89//1 97//1 102//1
f 71//2 96//2 99//2 100//2
f 96//1 74//1 102//1 99//1
f 106//2 103//2 107//2 110//2
f 1//22 2//22 105//22 104//22
f 2//23 46//23 106//23 105//23
f 45//24 1//24 104//24 103//24
f 109//5 110//5 114//5 113//5
f 104//6 105//6 109//6 108//6
f 105//5 106//5 110//5 109//5
f 103//4 104//4 108//4 107//4
f 113//5 114//5 118//5 117//5
f 107//4 108//4 112//4 111//4
f 110//2 107//2 111//2 114//2
f 108//6 109//6 113//6 112//6
f 116//1 117//1 118//1 115//1
f 111//4 112//4 116//4 115//4
f 114//2 111//2 115//2 118//2
f 122//25 119//25 120//25 121//25
f 82//5 50//5 120//5 119//5
f 73//1 82//1 119//1 122//1
f 49//4 73//4 122//4 121//4
f 123//4 124//4 126//4 125//4
f 129//4 123//4 125//4 130//4
f 128//4 129//4 130//4 127//4
f 95//19 43//19 127//19 130//19
f 94//13 69//13 123//13 129//13
f 43//26 41//26 128//26 127//26
f 44//19 70//19 125//19 126//19
f 41//13 94//13 129//13 128//13
o Cube.048_Cube.024
v -507.600525 520.921509 158.392395
v -665.368713 375.107758 47.734764
v -378.367126 535.653381 -45.272163
v -535.457153 388.596191 -156.985657
v -644.188538 681.128113 13.451401
v -725.080688 606.365295 -43.285873
v -577.926941 688.681580 -90.973106
v -658.373657 613.593262 -147.142334
v -367.314423 539.257568 -501.814911
v -265.366577 590.650146 -447.151703
v -326.530426 700.989746 -436.817841
v -428.478271 649.597168 -491.480988
v -288.023712 619.736450 -686.551697
v -213.069427 657.521423 -646.362000
v -258.038483 738.645569 -638.764221
v -332.992737 700.860596 -678.954041
v -237.736115 672.714905 -801.139221
v -182.960388 700.327637 -771.769226
v -215.823303 759.612122 -766.216858
v -270.598938 731.999390 -795.586731
v -448.041016 634.977966 -60.545570
v -614.571289 479.301666 -177.248718
v -585.342346 619.458313 155.649506
v -752.832581 464.659058 38.172844
v -290.885986 648.939331 -445.327820
v -399.116119 594.379761 -503.359589
v -226.769653 704.423523 -658.266602
v -306.342957 664.310059 -700.932861
v -188.379272 738.274841 -792.487305
v -246.530396 708.960510 -823.667358
v -203.734863 695.442993 -885.920349
v -148.959229 723.055786 -856.550354
v -153.787476 768.708740 -885.614319
v -211.938660 739.394409 -916.794250
v -236.097961 761.248779 -887.431030
v -181.322327 788.861572 -858.060974
v -179.943176 712.943726 -946.745789
v -125.167542 740.556580 -917.375793
v -129.995972 786.209351 -946.439697
v -188.147095 756.895081 -977.619690
v -212.306213 778.749451 -948.256470
v -157.530823 806.362244 -918.886414
v -143.813049 707.218506 -980.686218
v -108.556458 724.991577 -961.782043
v -111.664246 754.376221 -980.489197
v -149.093445 735.507935 -1000.558533
v -191.307526 800.259155 -1012.494812
v -215.466858 822.113525 -983.131653
v -160.691101 849.726318 -953.761658
v -133.156311 829.573486 -981.315002
v -119.800232 701.988831 -1004.039612
v -96.031311 713.970947 -991.294861
v -98.126343 733.781250 -1003.906799
v -123.360107 721.060852 -1017.436829
v -100.594055 707.420898 -1032.167603
v -85.735718 714.911133 -1024.200806
v -87.045410 727.294800 -1032.084717
v -102.819336 719.343140 -1040.542480
v -187.597961 832.053345 -1021.293030
v -203.661804 846.584595 -1001.768982
v -167.240662 864.944824 -982.240540
v -148.932495 851.544922 -1000.561096
v -215.660126 495.022522 363.037201
v -357.500610 299.374390 363.851166
v -105.215820 415.861908 161.183533
v -249.181641 220.009705 162.938782
v -386.755981 545.580566 180.006088
v -459.481567 445.266327 180.423462
v -321.786255 504.288483 73.889496
v -403.943451 404.573792 77.410034
v -231.458954 79.479614 -73.430794
v -143.900146 54.133484 12.355598
v -56.216248 50.339539 -76.126442
v -141.126953 74.354553 -161.954773
v -248.298492 -134.485229 -102.188896
v -185.454041 -155.502747 -36.844299
v -119.039978 -159.270996 -101.929054
v -181.884338 -138.253174 -167.273773
v -256.008667 -268.956787 -120.183998
v -210.082886 -284.316162 -72.430946
v -161.548279 -287.069702 -119.994133
v -207.474121 -271.710449 -167.747131
v -178.187805 482.631989 107.565056
v -343.248077 278.793274 111.092247
v -307.660858 570.753357 323.521423
v -458.242065 363.048767 324.385559
v -99.225708 42.002136 -26.825966
v -189.969666 72.350403 -121.180214
v -153.825745 -176.392151 -69.897362
v -220.542755 -154.079224 -139.268768
v -189.462830 -312.604980 -98.376305
v -238.218872 -296.299072 -149.071991
v -276.064667 -360.368042 -130.297028
v -230.138763 -375.727173 -82.544029
v -207.244110 -413.800659 -113.824226
v -256.000000 -397.494629 -164.520020
v -225.605103 -371.402344 -182.375031
v -179.679260 -386.761841 -134.622009
v -289.525330 -426.121460 -138.500641
v -243.599487 -441.480835 -90.747597
v -220.704803 -479.554565 -122.027809
v -269.460754 -463.248535 -172.723450
v -239.065674 -437.155884 -190.578613
v -193.139771 -452.515259 -142.825653
v -307.040771 -468.053467 -117.884438
v -277.480377 -477.939697 -87.147926
v -262.744263 -502.446045 -107.281639
v -294.126129 -491.950562 -139.912109
v -251.281189 -505.743042 -203.875397
v -220.885986 -479.650513 -221.730499
v -174.960388 -495.010010 -173.977509
v -202.525269 -522.048950 -153.179688
v -320.297211 -495.976562 -103.959297
v -300.368530 -502.641479 -83.237572
v -290.433838 -519.163208 -96.811211
v -311.590668 -512.087280 -118.809959
v -327.662903 -529.408081 -99.756859
v -315.205109 -533.574341 -86.803490
v -308.994659 -543.901978 -95.288521
v -322.220123 -539.479126 -109.039955
v -228.462189 -526.919312 -215.403778
v -208.252136 -509.569946 -227.275848
v -177.715393 -519.782471 -195.524231
v -196.043701 -537.761230 -181.695618
vn 0.5367 -0.7939 0.2857
vn -0.4446 0.8602 -0.2499
vn -0.5368 0.7937 -0.2863
vn -0.3733 -0.2698 0.8876
vn 0.3145 0.9114 0.2653
vn -0.6219 -0.6476 -0.4403
vn -0.4551 0.8904 0.0117
vn 0.7990 0.5098 0.3191
vn -0.7997 -0.1820 -0.5722
vn 0.6047 -0.7964 0.0084
vn -0.8190 -0.2732 -0.5046
vn 0.8661 0.3565 0.3505
vn -0.8109 -0.3124 -0.4948
vn 0.5084 -0.8478 -0.1511
vn 0.7738 0.4585 0.4370
vn 0.5129 -0.8425 -0.1644
vn -0.4493 0.8934 -0.0019
vn 0.8857 0.3265 0.3301
vn 0.7732 0.5295 0.3491
vn 0.4700 -0.8814 -0.0478
vn -0.7344 -0.4503 -0.5077
vn 0.7896 0.4944 0.3634
vn -0.7065 -0.4761 -0.5236
vn -0.6120 -0.5504 -0.5679
vn 0.4849 0.8213 0.3007
vn -0.8275 -0.1489 -0.5414
vn 0.6846 0.5533 0.4745
vn -0.7505 0.4336 0.4987
vn -0.4770 0.8765 0.0656
vn -0.7796 -0.4509 -0.4347
vn -0.4876 0.8681 0.0933
vn 0.8312 0.3561 0.4269
vn -0.7770 -0.4546 -0.4354
vn -0.8339 -0.3520 -0.4251
vn 0.7763 0.4285 0.4624
vn 0.2336 -0.8870 0.3983
vn 0.8290 0.3601 0.4279
vn 0.7731 0.4614 0.4352
vn -0.8343 -0.3490 -0.4267
vn 0.4770 -0.8765 -0.0656
vn -0.0185 0.7454 -0.6663
vn -0.6261 -0.5231 -0.5783
vn 0.9305 0.2616 0.2564
vn -0.0016 0.7301 -0.6834
vn 0.7024 0.6822 0.2030
vn -0.8327 -0.3826 -0.4003
vn -0.5900 0.4795 0.6496
vn 0.5900 -0.4795 -0.6496
vn -0.2842 0.9039 -0.3198
vn 0.9171 0.2786 0.2852
vn -0.6532 -0.5131 -0.5568
vn 0.2179 -0.8804 0.4212
vn 0.5804 -0.3927 -0.7133
vn 0.9129 0.2835 0.2937
vn -0.6614 -0.5099 -0.5501
vn 0.4044 -0.9091 0.1005
vn -0.0567 0.7780 -0.6257
vn -0.7962 -0.0733 -0.6006
vn 0.5597 -0.2810 -0.7796
vn -0.5866 0.6505 0.4825
vn 0.6725 -0.4873 0.5571
vn 0.1706 0.5280 -0.8319
vn -0.6544 0.4954 -0.5713
vn -0.2532 0.1875 0.9490
vn 0.1940 0.9452 -0.2626
vn -0.5444 -0.8380 0.0375
vn 0.6925 -0.1174 -0.7118
vn 0.9672 0.1264 -0.2205
vn -0.8603 -0.3139 -0.4018
vn 0.1624 -0.6047 0.7797
vn -0.6025 0.1239 -0.7884
vn 0.5867 -0.2944 0.7544
vn -0.6295 0.1430 -0.7637
vn -0.7132 -0.0306 0.7003
vn 0.7180 -0.2269 0.6580
vn -0.7278 -0.0498 0.6840
vn 0.6933 -0.1304 -0.7087
vn 0.5663 -0.3131 0.7624
vn 0.7324 -0.3225 0.5996
vn -0.7061 0.0771 0.7039
vn -0.7424 0.1494 -0.6531
vn 0.7346 -0.2995 0.6089
vn -0.7687 0.1334 -0.6256
vn -0.8089 -0.5736 0.1295
vn 0.6450 0.4457 -0.6207
vn -0.8390 -0.4756 -0.2644
vn 0.6345 0.7709 0.0557
vn -0.7652 0.5561 0.3242
vn 0.7102 -0.0578 -0.7016
vn -0.7111 0.2285 -0.6649
vn 0.7160 -0.0279 -0.6976
vn 0.6340 -0.2228 0.7405
vn -0.7144 0.2281 -0.6615
vn -0.6300 0.2240 -0.7436
vn 0.7061 -0.1966 0.6803
vn -0.5120 0.5417 0.6667
vn 0.6376 -0.2225 0.7375
vn 0.7194 -0.2291 0.6557
vn -0.6283 0.2217 -0.7457
vn -0.7102 0.0578 0.7016
vn 0.2828 -0.7999 -0.5293
vn -0.8257 0.0697 -0.5597
vn 0.4794 -0.3668 0.7973
vn 0.2632 -0.8155 -0.5155
vn 0.7764 -0.4606 0.4302
vn -0.6429 0.2546 -0.7224
vn 0.6615 0.6064 -0.4412
vn -0.6615 -0.6064 0.4412
vn 0.5600 -0.4625 -0.6874
vn 0.5068 -0.3445 0.7902
vn -0.8098 0.0958 -0.5788
vn -0.4967 0.5646 0.6592
vn -0.6225 -0.6851 0.3783
vn 0.5148 -0.3378 0.7879
vn -0.8048 0.1038 -0.5845
vn -0.6616 0.2353 0.7120
vn 0.3262 -0.7624 -0.5589
vn -0.4801 -0.0403 -0.8763
vn -0.5652 -0.7701 0.2959
vn 0.7201 0.4081 -0.5612
usemtl Matériau.012
s off
f 131//27 132//27 134//27 133//27
f 138//28 137//28 141//28 142//28
f 137//29 138//29 136//29 135//29
f 153//30 154//30 132//30 131//30
f 151//31 137//31 135//31 153//31
f 152//32 134//32 132//32 154//32
f 142//33 141//33 145//33 146//33
f 151//34 133//34 140//34 155//34
f 152//35 138//35 142//35 156//35
f 133//36 134//36 139//36 140//36
f 158//37 146//37 150//37 160//37
f 155//38 140//38 144//38 157//38
f 156//39 142//39 146//39 158//39
f 140//40 139//40 143//40 144//40
f 149//41 159//41 163//41 166//41
f 144//42 143//42 147//42 148//42
f 146//43 145//43 149//43 150//43
f 157//44 144//44 148//44 159//44
f 145//45 157//45 159//45 149//45
f 148//46 147//46 161//46 162//46
f 139//47 156//47 158//47 143//47
f 141//48 155//48 157//48 145//48
f 143//49 158//49 160//49 147//49
f 134//50 152//50 156//50 139//50
f 137//51 151//51 155//51 141//51
f 138//52 152//52 154//52 136//52
f 133//53 151//53 153//53 131//53
f 135//54 136//54 154//54 153//54
f 165//55 166//55 172//55 171//55
f 161//56 164//56 170//56 167//56
f 150//57 149//57 166//57 165//57
f 159//58 148//58 162//58 163//58
f 147//59 160//59 164//59 161//59
f 160//60 150//60 165//60 164//60
f 172//61 169//61 180//61 179//61
f 168//62 167//62 173//62 174//62
f 163//63 162//63 168//63 169//63
f 166//64 163//64 169//64 172//64
f 164//65 165//65 171//65 170//65
f 162//66 161//66 167//66 168//66
f 176//67 175//67 183//67 184//67
f 167//68 170//68 176//68 173//68
f 169//69 168//69 174//69 175//69
f 170//70 169//70 175//70 176//70
f 179//71 180//71 192//71 191//71
f 170//72 171//72 178//72 177//72
f 171//73 172//73 179//73 178//73
f 169//74 170//74 177//74 180//74
f 184//75 183//75 187//75 188//75
f 175//76 174//76 182//76 183//76
f 173//77 176//77 184//77 181//77
f 174//78 173//78 181//78 182//78
f 186//79 185//79 188//79 187//79
f 183//80 182//80 186//80 187//80
f 181//81 184//81 188//81 185//81
f 182//82 181//82 185//82 186//82
f 192//83 189//83 190//83 191//83
f 177//84 178//84 190//84 189//84
f 180//85 177//85 189//85 192//85
f 178//86 179//86 191//86 190//86
f 193//87 194//87 196//87 195//87
f 200//88 199//88 203//88 204//88
f 199//89 200//89 198//89 197//89
f 215//90 216//90 194//90 193//90
f 213//91 199//91 197//91 215//91
f 214//92 196//92 194//92 216//92
f 204//93 203//93 207//93 208//93
f 213//94 195//94 202//94 217//94
f 214//95 200//95 204//95 218//95
f 195//96 196//96 201//96 202//96
f 220//97 208//97 212//97 222//97
f 217//98 202//98 206//98 219//98
f 218//99 204//99 208//99 220//99
f 202//100 201//100 205//100 206//100
f 211//101 221//101 225//101 228//101
f 206//102 205//102 209//102 210//102
f 208//103 207//103 211//103 212//103
f 219//104 206//104 210//104 221//104
f 207//105 219//105 221//105 211//105
f 210//106 209//106 223//106 224//106
f 201//107 218//107 220//107 205//107
f 203//108 217//108 219//108 207//108
f 205//109 220//109 222//109 209//109
f 196//110 214//110 218//110 201//110
f 199//111 213//111 217//111 203//111
f 200//112 214//112 216//112 198//112
f 195//113 213//113 215//113 193//113
f 197//114 198//114 216//114 215//114
f 227//115 228//115 234//115 233//115
f 223//116 226//116 232//116 229//116
f 212//117 211//117 228//117 227//117
f 221//118 210//118 224//118 225//118
f 209//119 222//119 226//119 223//119
f 222//120 212//120 227//120 226//120
f 234//121 231//121 242//121 241//121
f 230//122 229//122 235//122 236//122
f 225//123 224//123 230//123 231//123
f 228//124 225//124 231//124 234//124
f 226//125 227//125 233//125 232//125
f 224//126 223//126 229//126 230//126
f 238//127 237//127 245//127 246//127
f 229//128 232//128 238//128 235//128
f 231//129 230//129 236//129 237//129
f 232//130 231//130 237//130 238//130
f 241//131 242//131 254//131 253//131
f 232//132 233//132 240//132 239//132
f 233//133 234//133 241//133 240//133
f 231//134 232//134 239//134 242//134
f 246//135 245//135 249//135 250//135
f 237//136 236//136 244//136 245//136
f 235//137 238//137 246//137 243//137
f 236//138 235//138 243//138 244//138
f 248//139 247//139 250//139 249//139
f 245//140 244//140 248//140 249//140
f 243//141 246//141 250//141 247//141
f 244//142 243//142 247//142 248//142
f 254//143 251//143 252//143 253//143
f 239//144 240//144 252//144 251//144
f 242//145 239//145 251//145 254//145
f 240//146 241//146 253//146 252//146
