# Blender v2.91.2 OBJ File: 'camionnete02.blend'
# www.blender.org
mtllib arme_000055.mtl
o Cube.046_Cube.010
v 317.236023 635.924500 -1048.950073
v 290.781006 417.679657 -1064.712158
v 416.144958 638.159485 -1245.904785
v 389.690002 419.914612 -1261.666992
v 122.053421 666.637878 -1146.620850
v 95.598404 448.393066 -1162.382568
v 220.962387 668.872864 -1343.575195
v 194.507385 450.628052 -1359.337402
v 181.057938 632.847351 -777.782654
v 154.602951 414.602539 -793.544739
v -40.579647 445.315948 -891.215210
v -14.124634 663.560852 -875.453125
v 119.428452 631.454773 -655.061462
v 92.973419 413.209930 -670.823669
v -102.209198 443.923309 -768.494141
v -75.754189 662.168213 -752.731995
v 83.020462 630.632080 -582.563416
v 70.009529 471.992157 -606.067871
v -125.173126 502.705627 -703.738403
v -112.162163 661.345520 -680.233887
v 202.304245 633.327393 -820.089783
v 175.849228 415.082611 -835.851807
v 7.121628 664.040894 -917.760376
v -19.333408 445.796021 -933.522339
v 381.227051 637.370483 -1176.373779
v 354.772034 419.125610 -1192.135986
v 186.044449 668.083862 -1274.044189
v 159.589462 449.838989 -1289.806152
v 318.553650 653.516174 -1294.739990
v 292.098694 435.271301 -1310.502197
v 219.644730 651.281250 -1097.785400
v 193.189713 433.036316 -1113.547363
v 83.466644 648.204041 -826.617920
v 57.011627 429.959229 -842.379883
v 21.837135 646.811523 -703.896729
v -0.411236 436.888824 -705.137146
v -14.570827 645.988831 -631.398621
v -15.895840 476.525879 -661.472168
v 78.257904 430.439301 -884.687073
v 104.712921 648.684143 -868.925049
v 257.180725 434.482300 -1240.970947
v 283.635742 652.727234 -1225.208740
v 367.349365 645.837830 -1270.322266
v 241.985367 425.358002 -1089.129761
v 105.807266 422.280884 -817.962402
v 32.491791 431.711304 -688.672302
v 17.007187 471.348328 -645.007263
v 153.508591 641.005798 -844.507324
v 332.431458 645.048828 -1200.791260
v 340.894348 427.592957 -1286.084473
v 268.440369 643.602905 -1073.367920
v 132.262283 640.525696 -802.200317
v 70.632774 639.133118 -679.479126
v 34.224815 638.310425 -606.981018
v 127.053574 422.760956 -860.269470
v 305.976379 426.803955 -1216.553467
v 122.100235 381.897583 -863.220703
v 73.304581 389.575928 -887.638306
v 301.023010 385.940582 -1219.504639
v 252.227402 393.618927 -1243.922363
v 188.236359 392.172974 -1116.498779
v 237.032028 384.494629 -1092.081055
v 438.281128 563.150208 -1104.057129
v 409.984985 562.510803 -1047.711914
v 398.286926 466.005127 -1054.681641
v 426.583008 466.644562 -1111.027344
v 480.459045 556.513245 -1082.951416
v 452.162842 555.873840 -1026.605957
v 440.464783 459.368164 -1033.575684
v 468.760925 460.007599 -1089.921143
v 545.004761 546.356506 -1050.652466
v 516.708557 545.717102 -994.307007
v 505.010437 449.211487 -1001.276733
v 533.306580 449.850891 -1057.622314
v 586.539124 539.820740 -1029.868408
v 558.242920 539.181335 -973.523010
v 546.544922 442.675781 -980.492798
v 574.841003 443.315186 -1036.838257
v 665.829407 434.935547 -1933.117432
v 617.033752 442.613892 -1957.535156
v 643.488647 660.858826 -1941.773193
v 692.284363 653.180420 -1917.355469
vn 0.8856 -0.1393 0.4431
vn 0.4488 0.0101 -0.8936
vn -0.8856 0.1393 -0.4431
vn 0.1200 0.9902 0.0715
vn -0.1200 -0.9902 -0.0715
vn -0.3879 -0.7467 0.5403
vn -0.2037 -0.9759 -0.0779
vn -0.5307 -0.1096 0.8405
vn -0.8862 0.1389 -0.4420
vn 0.8862 -0.1388 0.4420
vn 0.7610 -0.0455 -0.6471
vn -0.4212 -0.1282 0.8979
vn -0.0983 -0.9949 -0.0238
vn -0.8856 0.1394 -0.4431
vn -0.4613 -0.1515 0.8742
vn -0.1493 -0.9887 -0.0125
vn -0.4488 -0.0101 0.8936
vn -0.0641 -0.0642 0.9959
vn 0.3885 -0.9027 0.1849
vn 0.5887 0.7489 0.3042
usemtl Matériau.011
s off
f 25//1 26//1 4//1 3//1
f 29//2 30//2 8//2 7//2
f 27//3 28//3 6//3 5//3
f 22//1 21//1 9//1 10//1
f 42//4 27//4 5//4 31//4
f 56//5 26//5 2//5 44//5
f 10//1 9//1 13//1 14//1
f 55//5 22//5 10//5 45//5
f 23//3 24//3 11//3 12//3
f 46//6 14//6 18//6 47//6
f 45//7 10//7 14//7 46//7
f 12//3 11//3 15//3 16//3
f 33//4 12//4 16//4 35//4
f 54//8 47//8 18//8 17//8
f 16//9 15//9 19//9 20//9
f 14//10 13//10 17//10 18//10
f 5//3 6//3 24//3 23//3
f 44//5 2//5 22//5 55//5
f 31//4 5//4 23//4 40//4
f 2//1 1//1 21//1 22//1
f 50//5 4//5 26//5 56//5
f 29//4 7//4 27//4 42//4
f 7//3 8//3 28//3 27//3
f 26//11 25//11 63//11 66//11
f 43//4 29//4 42//4 49//4
f 8//5 30//5 41//5 28//5
f 51//4 31//4 40//4 48//4
f 6//5 32//5 39//5 24//5
f 20//12 19//12 38//12 37//12
f 52//4 33//4 35//4 53//4
f 11//13 34//13 36//13 15//13
f 15//6 36//6 38//6 19//6
f 24//5 39//5 34//5 11//5
f 28//5 41//5 32//5 6//5
f 49//4 42//4 31//4 51//4
f 30//3 29//3 81//3 80//3
f 3//2 4//2 50//2 43//2
f 25//4 49//4 51//4 1//4
f 9//4 52//4 53//4 13//4
f 1//4 51//4 48//4 21//4
f 3//4 43//4 49//4 25//4
f 30//5 50//5 56//5 41//5
f 32//14 41//14 60//14 61//14
f 37//15 38//15 47//15 54//15
f 34//16 45//16 46//16 36//16
f 36//6 46//6 47//6 38//6
f 39//5 55//5 45//5 34//5
f 55//17 39//17 58//17 57//17
f 61//5 62//5 57//5 58//5
f 60//5 59//5 62//5 61//5
f 39//3 32//3 61//3 58//3
f 44//1 55//1 57//1 62//1
f 41//2 56//2 59//2 60//2
f 56//1 44//1 62//1 59//1
f 66//2 63//2 67//2 70//2
f 1//18 2//18 65//18 64//18
f 2//19 26//19 66//19 65//19
f 25//20 1//20 64//20 63//20
f 69//5 70//5 74//5 73//5
f 64//17 65//17 69//17 68//17
f 65//5 66//5 70//5 69//5
f 63//4 64//4 68//4 67//4
f 73//5 74//5 78//5 77//5
f 67//4 68//4 72//4 71//4
f 70//2 67//2 71//2 74//2
f 68//17 69//17 73//17 72//17
f 76//1 77//1 78//1 75//1
f 71//4 72//4 76//4 75//4
f 74//2 71//2 75//2 78//2
f 82//2 79//2 80//2 81//2
f 50//5 30//5 80//5 79//5
f 43//1 50//1 79//1 82//1
f 29//4 43//4 82//4 81//4
o Cube.048_Cube.024
v -562.731079 451.031952 181.135834
v -723.798828 339.931335 39.321182
v -424.245239 496.343506 -11.649246
v -585.905029 386.639282 -152.234192
v -683.456055 644.767700 66.147682
v -766.039917 587.803345 -6.564644
v -612.450439 668.000183 -32.698631
v -694.822266 611.485474 -105.180779
v -378.902405 518.447876 -437.990448
v -279.847961 567.432495 -376.254242
v -325.701508 683.901794 -395.095856
v -424.755859 634.917114 -456.832001
v -262.866974 553.308716 -617.467590
v -190.039948 589.323303 -572.077698
v -223.752502 674.954102 -585.930603
v -296.579529 638.939514 -631.320312
v -189.379578 577.792969 -729.118591
v -136.158569 604.111938 -695.948364
v -160.795288 666.689819 -706.071838
v -214.016296 640.370850 -739.242065
v -487.371185 601.245728 -9.353714
v -658.430725 485.076721 -158.624634
v -634.438171 553.101685 195.302277
v -805.431396 435.154663 44.748619
v -296.888641 627.513367 -388.587341
v -402.047089 575.510132 -454.127838
v -195.101807 634.383667 -593.830017
v -272.416718 596.149719 -642.016907
v -133.082581 637.846924 -723.354370
v -189.583191 609.906006 -758.568787
v -140.466919 580.198853 -809.507019
v -87.245850 606.517822 -776.336609
v -81.283447 646.134583 -813.040649
v -137.784119 618.193726 -848.255005
v -162.660828 647.754395 -827.499207
v -109.439819 674.073425 -794.328918
v -105.796387 583.158203 -867.483154
v -52.575317 609.477234 -834.313049
v -46.613037 649.093872 -871.016724
v -103.113647 621.153015 -906.231201
v -127.990356 650.713745 -885.475403
v -74.769348 677.032654 -852.305115
v -66.255554 567.129517 -893.362427
v -31.999634 584.069824 -872.012146
v -28.161804 609.569336 -895.636780
v -64.528748 591.585083 -918.302734
v -94.989441 657.255798 -947.911987
v -119.866150 686.816467 -927.156250
v -66.645020 713.135498 -893.986023
v -38.488770 685.196655 -912.697510
v -40.060181 554.936951 -911.095886
v -16.965759 566.357666 -896.702148
v -14.378418 583.548645 -912.629211
v -38.895996 571.424194 -927.909973
v -16.369263 552.788208 -936.070007
v -1.932617 559.927368 -927.072327
v -0.315247 570.673706 -937.028625
v -15.641357 563.094604 -946.580872
v -85.588623 686.205505 -961.162781
v -102.129517 705.860779 -947.362000
v -66.742126 723.360596 -925.306580
v -48.020691 704.783691 -937.748230
v -299.638733 425.223328 485.749878
v -294.275177 283.805084 289.868103
v -152.192261 584.165527 369.790283
v -156.570862 446.582642 176.120331
v -463.292450 539.523193 326.114929
v -460.542389 467.014038 225.680817
v -388.169586 624.565552 271.310913
v -389.937561 550.474609 167.359131
v -21.604919 726.333313 -48.469658
v 75.324219 758.019470 27.265984
v 14.824524 863.221191 61.407433
v -81.320007 832.213989 -13.170860
v 74.709778 850.388672 -197.551056
v 146.657043 872.752930 -142.920441
v 102.753113 950.598755 -116.967873
v 30.805847 928.234497 -171.598602
v 135.610962 930.234009 -289.102417
v 188.189026 946.577332 -249.179077
v 156.104675 1003.466125 -230.213287
v 103.526611 987.122559 -270.136597
v -258.423462 633.866516 347.766693
v -266.125549 484.402954 136.630112
v -418.009705 461.727417 465.340057
v -412.315643 311.594543 257.387421
v 51.783508 813.385742 41.520439
v -52.104553 781.092896 -37.363426
v 134.919006 921.654175 -142.595825
v 58.538147 897.911682 -200.592804
v 185.284302 988.903625 -259.110962
v 129.466248 971.553040 -301.494507
v 177.164246 973.601440 -361.580444
v 229.742310 989.944946 -321.657074
v 228.285828 1041.914673 -337.444214
v 172.467834 1024.564087 -379.827698
v 146.305664 1038.651489 -347.570160
v 198.883728 1054.994995 -307.646545
v 206.398865 1005.889282 -413.299500
v 258.976990 1022.232727 -373.376099
v 257.520691 1074.202637 -389.163361
v 201.702576 1056.851929 -431.546936
v 175.540222 1070.939209 -399.288971
v 228.118347 1087.282715 -359.365631
v 245.184021 1008.055908 -444.622803
v 279.026184 1018.575317 -418.925964
v 278.088806 1052.026123 -429.087494
v 242.161194 1040.858154 -456.367828
v 202.361145 1108.121826 -453.402618
v 176.198914 1122.209106 -421.144836
v 228.777039 1138.552612 -381.221649
v 258.179382 1125.472656 -411.019226
v 271.002136 1008.340820 -466.592499
v 293.817688 1015.432861 -449.268341
v 293.185730 1037.984253 -456.119171
v 268.964294 1030.455322 -474.510712
v 292.643616 1020.371582 -490.603058
v 306.905701 1024.804932 -479.773468
v 306.510559 1038.901978 -484.055695
v 291.369568 1034.195557 -495.552582
v 207.413269 1140.927979 -452.878693
v 190.017578 1150.294800 -431.429993
v 224.977356 1161.161743 -404.884491
v 244.527405 1152.464600 -424.697235
vn 0.4765 -0.8688 0.1347
vn -0.3573 0.9055 -0.2288
vn -0.4767 0.8683 -0.1371
vn -0.4260 -0.4111 0.8059
vn 0.3546 0.8208 0.4478
vn -0.6347 -0.5081 -0.5822
vn -0.3219 0.9220 -0.2152
vn 0.8069 0.4175 0.4179
vn -0.7677 -0.0703 -0.6369
vn 0.5141 -0.8577 0.0102
vn -0.7665 -0.2695 -0.5830
vn 0.8469 0.3165 0.4273
vn -0.7655 -0.3069 -0.5655
vn 0.4005 -0.9127 0.0816
vn 0.7583 0.4427 0.4786
vn 0.4076 -0.9106 0.0686
vn -0.3138 0.9217 -0.2279
vn 0.8649 0.2812 0.4158
vn 0.7805 0.4955 0.3812
vn 0.3430 -0.9217 0.1811
vn -0.7082 -0.4525 -0.5420
vn 0.7896 0.4622 0.4037
vn -0.6821 -0.4838 -0.5483
vn -0.5984 -0.4629 -0.6540
vn 0.5303 0.7558 0.3842
vn -0.8120 0.0132 -0.5835
vn 0.6946 0.4052 0.5944
vn -0.7448 0.3772 0.5504
vn -0.3532 0.9210 -0.1642
vn -0.7632 -0.4342 -0.4786
vn -0.3688 0.9193 -0.1377
vn 0.8015 0.3345 0.4957
vn -0.7611 -0.4383 -0.4782
vn -0.8039 -0.3298 -0.4950
vn 0.7527 0.4179 0.5087
vn 0.0454 -0.8167 0.5752
vn 0.7998 0.3388 0.4956
vn 0.7583 0.4453 0.4762
vn -0.8036 -0.3271 -0.4972
vn 0.3532 -0.9210 0.1642
vn 0.1845 0.6040 -0.7753
vn -0.6020 -0.5489 -0.5799
vn 0.9104 0.1990 0.3627
vn 0.2014 0.5839 -0.7864
vn 0.7542 0.6250 0.2017
vn -0.8106 -0.3552 -0.4656
vn -0.6053 0.6563 0.4505
vn 0.6053 -0.6563 -0.4505
vn -0.1040 0.8536 -0.5104
vn 0.8954 0.2225 0.3856
vn -0.6303 -0.5320 -0.5653
vn 0.0276 -0.8042 0.5937
vn 0.6175 -0.5826 -0.5285
vn 0.8907 0.2294 0.3923
vn -0.6389 -0.5267 -0.5607
vn 0.2531 -0.9134 0.3187
vn 0.1458 0.6477 -0.7478
vn -0.7020 -0.0951 -0.7058
vn 0.6226 -0.4837 -0.6151
vn -0.5534 0.7913 0.2600
vn 0.8110 -0.4746 0.3420
vn -0.6257 0.7721 -0.1113
vn -0.8121 0.4723 -0.3427
vn -0.3314 -0.7692 0.5463
vn -0.3959 0.7325 0.5539
vn 0.0727 -0.6119 -0.7876
vn -0.4407 0.8720 0.2131
vn 0.4355 0.5883 0.6814
vn -0.4346 -0.1514 -0.8878
vn 0.8137 -0.5784 0.0574
vn -0.7779 -0.0923 -0.6216
vn 0.8390 0.2139 0.5004
vn -0.7714 -0.1330 -0.6223
vn 0.5083 -0.7961 -0.3285
vn 0.7422 0.2907 0.6038
vn 0.5090 -0.7873 -0.3480
vn -0.4305 0.8785 0.2073
vn 0.8603 0.1880 0.4739
vn 0.7504 0.3828 0.5389
vn 0.4555 -0.8544 -0.2501
vn -0.6968 -0.2654 -0.6664
vn 0.7598 0.3503 0.5477
vn -0.6680 -0.2871 -0.6865
vn -0.1552 -0.4966 -0.8540
vn -0.0171 0.7883 0.6151
vn -0.3758 -0.2958 -0.8782
vn 0.0505 0.5439 0.8376
vn -0.9512 -0.2619 0.1630
vn -0.4641 0.8451 0.2653
vn -0.7480 -0.2838 -0.6000
vn -0.4772 0.8300 0.2887
vn 0.7983 0.1926 0.5706
vn -0.7454 -0.2873 -0.6015
vn -0.8011 -0.1890 -0.5680
vn 0.7419 0.2548 0.6202
vn 0.1818 -0.9706 0.1579
vn 0.7961 0.1962 0.5725
vn 0.7417 0.2940 0.6028
vn -0.8013 -0.1856 -0.5688
vn 0.4641 -0.8451 -0.2653
vn 0.0527 0.8979 -0.4370
vn -0.5842 -0.3208 -0.7455
vn 0.9100 0.1437 0.3890
vn 0.0707 0.8870 -0.4563
vn 0.6953 0.5721 0.4350
vn -0.8025 -0.2252 -0.5525
vn -0.6342 0.3101 0.7083
vn 0.6342 -0.3101 -0.7083
vn -0.2385 0.9677 -0.0820
vn 0.8945 0.1527 0.4202
vn -0.6129 -0.3158 -0.7243
vn 0.1643 -0.9697 0.1805
vn 0.6318 -0.2090 -0.7464
vn 0.8896 0.1554 0.4294
vn -0.6215 -0.3142 -0.7176
vn 0.3769 -0.9184 -0.1204
vn 0.0118 0.9198 -0.3921
vn -0.7432 0.1249 -0.6573
vn 0.6189 -0.0828 -0.7811
vn -0.6133 0.5196 0.5949
usemtl Matériau.012
s off
f 83//21 84//21 86//21 85//21
f 90//22 89//22 93//22 94//22
f 89//23 90//23 88//23 87//23
f 105//24 106//24 84//24 83//24
f 103//25 89//25 87//25 105//25
f 104//26 86//26 84//26 106//26
f 94//27 93//27 97//27 98//27
f 103//28 85//28 92//28 107//28
f 104//29 90//29 94//29 108//29
f 85//30 86//30 91//30 92//30
f 110//31 98//31 102//31 112//31
f 107//32 92//32 96//32 109//32
f 108//33 94//33 98//33 110//33
f 92//34 91//34 95//34 96//34
f 101//35 111//35 115//35 118//35
f 96//36 95//36 99//36 100//36
f 98//37 97//37 101//37 102//37
f 109//38 96//38 100//38 111//38
f 97//39 109//39 111//39 101//39
f 100//40 99//40 113//40 114//40
f 91//41 108//41 110//41 95//41
f 93//42 107//42 109//42 97//42
f 95//43 110//43 112//43 99//43
f 86//44 104//44 108//44 91//44
f 89//45 103//45 107//45 93//45
f 90//46 104//46 106//46 88//46
f 85//47 103//47 105//47 83//47
f 87//48 88//48 106//48 105//48
f 117//49 118//49 124//49 123//49
f 113//50 116//50 122//50 119//50
f 102//51 101//51 118//51 117//51
f 111//52 100//52 114//52 115//52
f 99//53 112//53 116//53 113//53
f 112//54 102//54 117//54 116//54
f 124//55 121//55 132//55 131//55
f 120//56 119//56 125//56 126//56
f 115//57 114//57 120//57 121//57
f 118//58 115//58 121//58 124//58
f 116//59 117//59 123//59 122//59
f 114//60 113//60 119//60 120//60
f 128//61 127//61 135//61 136//61
f 119//62 122//62 128//62 125//62
f 121//63 120//63 126//63 127//63
f 122//64 121//64 127//64 128//64
f 131//65 132//65 144//65 143//65
f 122//66 123//66 130//66 129//66
f 123//67 124//67 131//67 130//67
f 121//68 122//68 129//68 132//68
f 136//69 135//69 139//69 140//69
f 127//70 126//70 134//70 135//70
f 125//71 128//71 136//71 133//71
f 126//72 125//72 133//72 134//72
f 138//73 137//73 140//73 139//73
f 135//74 134//74 138//74 139//74
f 133//75 136//75 140//75 137//75
f 134//76 133//76 137//76 138//76
f 144//77 141//77 142//77 143//77
f 129//78 130//78 142//78 141//78
f 132//79 129//79 141//79 144//79
f 130//80 131//80 143//80 142//80
f 145//81 146//81 148//81 147//81
f 152//82 151//82 155//82 156//82
f 151//83 152//83 150//83 149//83
f 167//84 168//84 146//84 145//84
f 165//85 151//85 149//85 167//85
f 166//86 148//86 146//86 168//86
f 156//87 155//87 159//87 160//87
f 165//88 147//88 154//88 169//88
f 166//89 152//89 156//89 170//89
f 147//90 148//90 153//90 154//90
f 172//91 160//91 164//91 174//91
f 169//92 154//92 158//92 171//92
f 170//93 156//93 160//93 172//93
f 154//94 153//94 157//94 158//94
f 163//95 173//95 177//95 180//95
f 158//96 157//96 161//96 162//96
f 160//97 159//97 163//97 164//97
f 171//98 158//98 162//98 173//98
f 159//99 171//99 173//99 163//99
f 162//100 161//100 175//100 176//100
f 153//101 170//101 172//101 157//101
f 155//102 169//102 171//102 159//102
f 157//103 172//103 174//103 161//103
f 148//104 166//104 170//104 153//104
f 151//105 165//105 169//105 155//105
f 152//106 166//106 168//106 150//106
f 147//107 165//107 167//107 145//107
f 149//108 150//108 168//108 167//108
f 179//109 180//109 186//109 185//109
f 175//110 178//110 184//110 181//110
f 164//111 163//111 180//111 179//111
f 173//112 162//112 176//112 177//112
f 161//113 174//113 178//113 175//113
f 174//114 164//114 179//114 178//114
f 186//115 183//115 194//115 193//115
f 182//116 181//116 187//116 188//116
f 177//117 176//117 182//117 183//117
f 180//118 177//118 183//118 186//118
f 178//119 179//119 185//119 184//119
f 176//120 175//120 181//120 182//120
f 190//121 189//121 197//121 198//121
f 181//122 184//122 190//122 187//122
f 183//123 182//123 188//123 189//123
f 184//124 183//124 189//124 190//124
f 193//125 194//125 206//125 205//125
f 184//126 185//126 192//126 191//126
f 185//127 186//127 193//127 192//127
f 183//128 184//128 191//128 194//128
f 198//129 197//129 201//129 202//129
f 189//130 188//130 196//130 197//130
f 187//131 190//131 198//131 195//131
f 188//132 187//132 195//132 196//132
f 200//133 199//133 202//133 201//133
f 197//134 196//134 200//134 201//134
f 195//135 198//135 202//135 199//135
f 196//136 195//136 199//136 200//136
f 206//137 203//137 204//137 205//137
f 191//138 192//138 204//138 203//138
f 194//139 191//139 203//139 206//139
f 192//140 193//140 205//140 204//140
