# Blender v2.91.2 OBJ File: 'camionnete02.blend'
# www.blender.org
mtllib arme_000194.mtl
o Cube.046_Cube.010
v 35.880066 -97.976257 -1173.620361
v -34.195915 -301.782715 -1127.453369
v 87.247620 -161.975800 -1378.179688
v 17.171593 -365.782227 -1332.012939
v -166.678101 -43.698334 -1241.467041
v -236.754166 -247.504791 -1195.300049
v -115.310570 -107.697815 -1446.026367
v -185.386642 -311.504333 -1399.859619
v -34.842834 -9.861633 -891.982666
v -104.918839 -213.668030 -845.815674
v -307.477020 -159.390106 -913.662354
v -237.401001 44.416321 -959.829346
v -66.849541 30.016068 -764.523010
v -136.925598 -173.790375 -718.356140
v -339.483795 -119.512428 -786.202698
v -269.407806 84.294037 -832.369690
v -85.757721 53.574020 -689.225647
v -133.417480 -98.655014 -668.172791
v -335.975769 -44.377045 -736.019470
v -288.315948 107.851990 -757.072327
v 3.009827 233.192474 -810.547302
v -199.548401 287.470398 -878.393982
v -15.898346 256.750427 -735.249878
v -218.456543 311.028351 -803.096558
v -23.808746 -23.609100 -935.923279
v -93.884766 -227.415558 -889.756348
v -226.366943 30.668808 -1003.770081
v -296.442993 -173.137619 -957.603027
v -11.710220 57.416443 -907.222717
v -214.268387 111.694366 -975.069458
v -0.676102 43.668915 -951.163330
v -203.234314 97.946838 -1019.009949
v 21.851486 155.025879 -929.333557
v -180.706711 209.303802 -997.180115
v 32.885498 141.278351 -973.274231
v -169.672638 195.556274 -1041.120850
v -42.993538 96.392822 -782.643860
v -245.551758 150.670746 -850.490601
v -9.431870 194.002289 -804.754700
v -211.990082 248.280212 -872.601379
v 58.437653 344.802155 -886.739746
v -144.120575 399.080109 -954.586487
v 39.529465 368.360077 -811.442444
v -163.028702 422.637970 -879.289001
v 69.113266 -139.381989 -1305.964111
v -0.962769 -343.188446 -1259.797119
v -133.444931 -85.104034 -1373.810547
v -203.520920 -288.910522 -1327.643555
v -14.031487 -134.836792 -1412.103027
v -84.107521 -338.643311 -1365.936279
v -65.399025 -70.837296 -1207.543701
v -135.475037 -274.643768 -1161.376709
v -136.121902 17.277344 -925.905945
v -206.197906 -186.529053 -879.738953
v -168.128647 57.155060 -798.446350
v -229.386841 -136.625488 -741.344971
v -187.036819 80.712982 -723.148987
v -227.021332 -85.961517 -707.506287
v -98.269272 260.331482 -844.470642
v -117.177429 283.889343 -769.173279
v -195.163864 -200.276581 -923.679626
v -125.087860 3.529846 -969.846680
v -112.989304 84.555420 -941.146057
v -101.955200 70.807831 -985.086609
v -79.427597 182.164886 -963.256836
v -68.393570 168.417328 -1007.197510
v -144.272659 123.531769 -816.567261
v -110.710968 221.141266 -838.677979
v -42.841476 371.941193 -920.663086
v -61.749649 395.498993 -845.365723
v -102.241852 -316.049469 -1293.720459
v -32.165810 -112.242981 -1339.887207
v 36.608093 -148.406281 -1395.141113
v -84.835487 -288.213226 -1144.415039
v -155.558395 -200.098557 -862.777405
v -195.240479 -145.775421 -729.907715
v -192.874939 -95.111450 -696.068970
v -74.448280 -10.039642 -952.884949
v -51.315689 57.238342 -968.124939
v -17.754028 154.847839 -990.235840
v 18.473724 -125.812500 -1322.925537
v -33.467949 -352.212799 -1348.974365
v -14.759483 -84.406799 -1190.582275
v -85.482399 3.707825 -908.944336
v -117.489113 43.585571 -781.484741
v -136.397278 67.143494 -706.187256
v -47.629700 246.761963 -827.508972
v -66.537872 270.319855 -752.211548
v -144.524307 -213.846069 -906.718079
v -62.349747 70.985931 -924.184387
v -28.788071 168.595367 -946.295227
v -93.633110 109.962280 -799.605591
v -60.071411 207.571777 -821.716370
v 7.798126 358.371674 -903.701416
v -11.110077 381.929474 -828.403992
v -51.602337 -329.618958 -1276.758789
v -157.645081 -252.006042 -898.073853
v -208.284637 -238.436554 -915.035522
v -64.723167 -367.778931 -1268.114746
v -115.362656 -354.209442 -1285.076172
v -148.595856 -312.803772 -1152.732666
v -97.956253 -326.373230 -1135.770996
v 125.688980 -207.557434 -1227.575439
v 110.993591 -189.248291 -1169.054443
v 80.006836 -279.369415 -1148.639893
v 94.702057 -297.678589 -1207.160889
v 169.460754 -219.286652 -1212.914307
v 154.765350 -200.977448 -1154.393311
v 123.778534 -291.098602 -1133.978516
v 138.473862 -309.407776 -1192.499756
v 236.445526 -237.236023 -1190.477783
v 221.750122 -218.926849 -1131.956787
v 190.763245 -309.047943 -1111.542236
v 205.458527 -327.357117 -1170.063232
v 279.549347 -248.786255 -1176.040283
v 264.853973 -230.477081 -1117.519287
v 233.867188 -320.598206 -1097.104736
v 248.562439 -338.907349 -1155.625732
v 135.284576 -562.463135 -2020.990723
v 84.645050 -548.893677 -2037.952393
v 154.720917 -345.087189 -2084.119385
v 205.360535 -358.656708 -2067.157715
v -1.116608 421.419708 -952.824890
v -94.439835 446.426788 -984.083435
v -18.539429 443.126984 -883.442383
v -111.862640 468.134064 -914.700928
v 74.783752 418.119965 -852.183960
v 92.206680 396.412628 -921.566345
v 45.545135 408.916290 -937.195557
v 28.122131 430.623444 -867.813171
vn 0.9190 -0.2463 0.3078
vn 0.2331 -0.2904 -0.9281
vn -0.9190 0.2463 -0.3078
vn 0.3179 0.9247 -0.2095
vn -0.3179 -0.9247 0.2095
vn -0.2331 0.2904 0.9281
vn -0.3925 -0.4981 0.7732
vn -0.3967 -0.8927 0.2138
vn -0.3420 0.2042 0.9173
vn -0.9195 0.2462 -0.3065
vn 0.9195 -0.2462 0.3065
vn 0.1068 -0.5962 -0.7957
vn 0.1038 -0.6021 -0.7916
vn -0.1068 0.5962 0.7957
vn 0.5759 -0.3638 -0.7321
vn -0.7467 0.5580 -0.3621
vn -0.2280 0.1729 0.9582
vn -0.2875 -0.9239 0.2523
vn -0.0724 0.6621 0.7459
vn -0.2761 0.1553 0.9485
vn -0.3326 -0.9036 0.2701
vn 0.1474 0.1700 0.9744
vn 0.2419 -0.9071 0.3445
vn 0.7723 0.6353 -0.0048
vn 0.8764 -0.3509 0.3299
usemtl Matériau.011
s off
f 45//1 46//1 4//1 3//1
f 49//2 50//2 8//2 7//2
f 47//3 48//3 6//3 5//3
f 26//1 25//1 9//1 10//1
f 72//4 47//4 5//4 51//4
f 96//5 46//5 2//5 74//5
f 10//1 9//1 13//1 14//1
f 84//6 9//6 29//6 90//6
f 89//5 26//5 10//5 75//5
f 27//3 28//3 11//3 12//3
f 76//7 14//7 18//7 77//7
f 75//8 10//8 14//8 76//8
f 12//3 11//3 15//3 16//3
f 53//4 12//4 16//4 55//4
f 86//9 77//9 18//9 17//9
f 16//10 15//10 19//10 20//10
f 16//3 20//3 24//3 22//3
f 14//11 13//11 17//11 18//11
f 59//12 22//12 42//12 69//12
f 86//6 17//6 23//6 88//6
f 17//1 13//1 21//1 23//1
f 55//2 16//2 22//2 59//2
f 5//3 6//3 28//3 27//3
f 74//5 2//5 26//5 89//5
f 51//4 5//4 27//4 62//4
f 2//1 1//1 25//1 26//1
f 32//3 30//3 34//3 36//3
f 62//2 27//2 32//2 64//2
f 27//3 12//3 30//3 32//3
f 9//1 25//1 31//1 29//1
f 66//4 36//4 34//4 65//4
f 90//5 29//5 37//5 92//5
f 64//2 32//2 36//2 66//2
f 29//1 31//1 35//1 33//1
f 92//6 37//6 39//6 93//6
f 29//1 33//1 39//1 37//1
f 34//3 30//3 38//3 40//3
f 65//4 34//4 40//4 68//4
f 69//13 42//13 124//13 123//13
f 23//1 21//1 41//1 43//1
f 88//14 23//14 43//14 95//14
f 22//3 24//3 44//3 42//3
f 82//5 4//5 46//5 96//5
f 49//4 7//4 47//4 72//4
f 7//3 8//3 48//3 47//3
f 46//15 45//15 103//15 106//15
f 73//4 49//4 72//4 81//4
f 8//5 50//5 71//5 48//5
f 24//14 60//14 70//14 44//14
f 42//16 44//16 126//16 124//16
f 91//4 65//4 68//4 93//4
f 38//6 67//6 68//6 40//6
f 79//2 64//2 66//2 80//2
f 30//5 63//5 67//5 38//5
f 80//4 66//4 65//4 91//4
f 78//2 62//2 64//2 79//2
f 83//4 51//4 62//4 78//4
f 6//5 52//5 61//5 28//5
f 85//2 55//2 59//2 87//2
f 20//6 57//6 60//6 24//6
f 87//12 59//12 69//12 94//12
f 20//17 19//17 58//17 57//17
f 84//4 53//4 55//4 85//4
f 11//18 54//18 56//18 15//18
f 15//7 56//7 58//7 19//7
f 28//5 61//5 54//5 11//5
f 12//6 53//6 63//6 30//6
f 48//5 71//5 52//5 6//5
f 81//4 72//4 51//4 83//4
f 50//3 49//3 121//3 120//3
f 3//2 4//2 82//2 73//2
f 45//4 81//4 83//4 1//4
f 9//4 84//4 85//4 13//4
f 21//12 87//12 94//12 41//12
f 13//2 85//2 87//2 21//2
f 1//4 83//4 78//4 25//4
f 25//2 78//2 79//2 31//2
f 35//4 80//4 91//4 33//4
f 31//2 79//2 80//2 35//2
f 33//4 91//4 93//4 39//4
f 70//19 95//19 130//19 125//19
f 3//4 73//4 81//4 45//4
f 50//5 82//5 96//5 71//5
f 60//14 88//14 95//14 70//14
f 67//6 92//6 93//6 68//6
f 63//5 90//5 92//5 67//5
f 52//3 71//3 100//3 101//3
f 57//6 86//6 88//6 60//6
f 57//20 58//20 77//20 86//20
f 54//21 75//21 76//21 56//21
f 56//7 76//7 77//7 58//7
f 61//5 89//5 75//5 54//5
f 53//6 84//6 90//6 63//6
f 89//6 61//6 98//6 97//6
f 101//5 102//5 97//5 98//5
f 100//5 99//5 102//5 101//5
f 61//3 52//3 101//3 98//3
f 74//1 89//1 97//1 102//1
f 71//2 96//2 99//2 100//2
f 96//1 74//1 102//1 99//1
f 106//2 103//2 107//2 110//2
f 1//22 2//22 105//22 104//22
f 2//23 46//23 106//23 105//23
f 45//24 1//24 104//24 103//24
f 109//5 110//5 114//5 113//5
f 104//6 105//6 109//6 108//6
f 105//5 106//5 110//5 109//5
f 103//4 104//4 108//4 107//4
f 113//5 114//5 118//5 117//5
f 107//4 108//4 112//4 111//4
f 110//2 107//2 111//2 114//2
f 108//6 109//6 113//6 112//6
f 116//1 117//1 118//1 115//1
f 111//4 112//4 116//4 115//4
f 114//2 111//2 115//2 118//2
f 122//2 119//2 120//2 121//2
f 82//5 50//5 120//5 119//5
f 73//1 82//1 119//1 122//1
f 49//4 73//4 122//4 121//4
f 123//4 124//4 126//4 125//4
f 129//4 123//4 125//4 130//4
f 128//4 129//4 130//4 127//4
f 95//19 43//19 127//19 130//19
f 94//13 69//13 123//13 129//13
f 43//25 41//25 128//25 127//25
f 44//19 70//19 125//19 126//19
f 41//13 94//13 129//13 128//13
o Cube.048_Cube.024
v -486.000397 558.356201 143.823273
v -680.860413 426.921112 87.681175
v -371.975891 472.625122 -51.231026
v -566.689880 340.914093 -107.361244
v -591.866272 689.219788 -48.523949
v -691.776489 621.829346 -77.309593
v -533.402710 645.263123 -148.533783
v -632.802490 577.976013 -176.776886
v -402.928436 307.071228 -469.544769
v -285.220947 343.307983 -440.313202
v -311.235107 460.409515 -480.725189
v -428.942627 424.172791 -509.956757
v -325.132446 273.685547 -668.855347
v -238.591217 300.327637 -647.363525
v -257.717468 386.423309 -677.075439
v -344.258667 359.781158 -698.567261
v -274.960846 255.256592 -793.791565
v -211.717712 274.726318 -778.085571
v -225.694763 337.643860 -799.798767
v -288.938049 318.174194 -815.504456
v -417.633423 574.991211 -100.204765
v -623.593079 436.083832 -158.633484
v -538.774048 666.090637 106.822754
v -745.641968 526.556152 47.221024
v -292.894073 401.579315 -464.762543
v -417.855042 363.109558 -495.795441
v -239.734711 339.492035 -678.892273
v -331.608765 311.208252 -701.708435
v -208.471924 300.009949 -813.424011
v -275.612274 279.340515 -830.097717
v -245.540833 228.521484 -879.115540
v -182.297668 247.991028 -863.409668
v -177.240112 276.146667 -909.603821
v -244.380493 255.477234 -926.277710
v -257.984741 293.869507 -910.015747
v -194.741577 313.339142 -894.309937
v -224.670593 210.542938 -940.867065
v -161.427429 230.012573 -925.161255
v -156.369934 258.168152 -971.355286
v -223.510345 237.498718 -988.029236
v -237.114532 275.890991 -971.767151
v -173.871399 295.360596 -956.061462
v -195.615692 180.375000 -967.993225
v -154.908997 192.906738 -957.884094
v -151.653625 211.029266 -987.617126
v -194.868896 197.725281 -998.349060
v -218.152863 260.736084 -1038.407959
v -231.757111 299.128418 -1022.146179
v -168.513977 318.598083 -1006.440247
v -151.012512 281.405579 -1021.734192
v -176.795288 158.771179 -986.115173
v -149.351990 167.219727 -979.299866
v -147.157288 179.437500 -999.345032
v -176.291748 170.468323 -1006.580261
v -160.076599 145.705994 -1013.306580
v -142.921448 150.987366 -1009.046204
v -141.549500 158.624756 -1021.576721
v -159.761780 153.017944 -1026.099609
v -206.623138 283.050903 -1060.114258
v -215.668732 308.578430 -1049.301270
v -173.617676 321.523987 -1038.858276
v -161.980713 296.794220 -1049.027588
v -311.379974 425.319702 483.523804
v -372.597443 243.537842 336.536407
v -150.575623 505.439087 316.979492
v -217.696136 325.795715 170.293182
v -463.642517 537.404419 311.525543
v -495.030426 444.199799 236.160950
v -373.039795 581.460938 226.376831
v -415.608215 486.375702 150.923370
v -165.011536 382.410034 -100.003700
v -85.239380 305.301453 -42.677170
v 11.165100 363.096375 -96.331917
v -65.692688 439.583130 -153.758850
v -157.119690 247.053436 -268.846161
v -99.817139 186.776672 -227.082458
v -26.795654 228.811737 -266.604462
v -84.098206 289.088409 -308.368256
v -149.326233 161.928955 -374.482208
v -107.450317 117.879639 -343.961731
v -54.087219 148.598206 -372.843842
v -95.963074 192.647522 -403.364319
v -234.341766 572.472290 286.099548
v -318.897736 382.109741 130.555893
v -418.354675 487.766663 463.088867
v -483.344543 294.782715 307.043549
v -35.416565 323.052155 -72.727486
v -118.158508 410.088562 -133.032257
v -62.905640 194.364136 -260.386902
v -123.739319 258.355286 -304.724274
v -81.444031 115.214539 -378.820923
v -125.900452 161.978333 -411.222076
v -158.909424 102.613770 -446.941620
v -117.033508 58.564453 -416.421112
v -87.225403 52.474854 -461.438995
v -131.681824 99.238831 -493.840179
v -102.328918 130.434204 -484.421051
v -60.453003 86.384827 -453.900543
v -164.748169 60.586182 -499.587860
v -122.872314 16.536865 -469.067474
v -93.064026 10.447205 -514.085510
v -137.520569 57.211121 -546.486511
v -108.167542 88.406738 -537.067261
v -66.291626 44.357422 -506.546844
v -180.065125 15.993835 -515.928894
v -153.111450 -12.358826 -496.284332
v -133.925293 -16.278442 -525.260376
v -162.539978 13.821411 -546.115479
v -111.946472 47.830566 -595.114624
v -82.593506 79.026123 -585.695374
v -40.717590 34.976562 -555.174927
v -67.489990 1.066650 -562.713318
v -191.861389 -13.834961 -526.903015
v -173.690002 -32.949524 -513.658997
v -160.755310 -35.592224 -533.194153
v -180.046326 -15.299683 -547.254028
v -196.239624 -40.968445 -547.740417
v -184.880371 -52.917114 -539.461426
v -176.794739 -54.568970 -551.672852
v -188.853821 -41.883911 -560.461853
v -86.017517 40.395386 -614.465393
v -66.500244 61.137695 -608.202332
v -38.656433 31.848877 -587.908875
v -56.457764 9.301575 -592.921387
vn 0.3568 -0.7600 0.5433
vn -0.2334 0.7980 -0.5556
vn -0.3571 0.7590 -0.5444
vn -0.3603 0.1402 0.9222
vn 0.5354 0.8426 -0.0575
vn -0.7842 -0.5860 -0.2041
vn -0.1812 0.9030 -0.3896
vn 0.9258 0.3600 0.1152
vn -0.8655 -0.1620 -0.4740
vn 0.3809 -0.8690 0.3157
vn -0.9134 -0.1995 -0.3547
vn 0.9647 0.1912 0.1809
vn -0.9157 -0.2313 -0.3286
vn 0.2286 -0.9417 0.2470
vn 0.9152 0.3428 0.2119
vn 0.2329 -0.9442 0.2328
vn -0.1764 0.8980 -0.4030
vn 0.9727 0.1510 0.1761
vn 0.9249 0.3664 0.1018
vn 0.1939 -0.9151 0.3536
vn -0.8832 -0.3777 -0.2780
vn 0.9322 0.3376 0.1304
vn -0.8656 -0.4149 -0.2804
vn -0.7768 -0.5374 -0.3284
vn 0.6984 0.7154 -0.0202
vn -0.8760 -0.1166 -0.4680
vn 0.8268 0.4960 0.2654
vn -0.5914 0.7432 0.3128
vn -0.2000 0.9205 -0.3356
vn -0.9183 -0.3336 -0.2132
vn -0.2095 0.9283 -0.3073
vn 0.9399 0.2337 0.2489
vn -0.9169 -0.3379 -0.2122
vn -0.9411 -0.2286 -0.2491
vn 0.9119 0.3272 0.2479
vn 0.0165 -0.6597 0.7513
vn 0.9390 0.2382 0.2480
vn 0.9152 0.3447 0.2089
vn -0.9408 -0.2266 -0.2520
vn 0.2000 -0.9205 0.3356
vn 0.1188 0.3604 -0.9252
vn -0.8083 -0.5024 -0.3070
vn 0.9889 0.0509 0.1393
vn 0.1287 0.3349 -0.9334
vn 0.8843 0.4564 -0.0980
vn -0.9458 -0.2447 -0.2135
vn -0.3550 0.8627 0.3602
vn 0.3550 -0.8627 -0.3602
vn -0.0512 0.7226 -0.6894
vn 0.9841 0.0816 0.1575
vn -0.8290 -0.4766 -0.2928
vn 0.0060 -0.6396 0.7687
vn 0.3633 -0.8127 -0.4556
vn 0.9825 0.0907 0.1629
vn -0.8351 -0.4685 -0.2883
vn 0.1400 -0.8561 0.4974
vn 0.0961 0.4169 -0.9039
vn -0.8460 -0.0762 -0.5277
vn 0.3677 -0.7390 -0.5645
vn -0.3221 0.9370 0.1353
vn 0.7146 -0.5761 0.3968
vn 0.1310 0.9588 -0.2519
vn -0.6997 0.5935 -0.3978
vn -0.4257 -0.4779 0.7683
vn -0.1038 0.9314 0.3488
vn -0.2083 -0.7855 -0.5827
vn 0.7733 0.4042 -0.4885
vn 0.9066 0.4157 0.0734
vn -0.7021 -0.2340 -0.6726
vn 0.2796 -0.9234 0.2628
vn -0.5243 0.6332 -0.5694
vn 0.5272 -0.7340 0.4281
vn -0.5555 0.6300 -0.5427
vn -0.7773 -0.5038 0.3768
vn 0.6628 -0.6181 0.4226
vn -0.7880 -0.5065 0.3501
vn 0.7746 0.3929 -0.4956
vn 0.5102 -0.7524 0.4166
vn 0.6929 -0.6472 0.3177
vn -0.7814 -0.4283 0.4539
vn -0.6797 0.5585 -0.4755
vn 0.6942 -0.6347 0.3394
vn -0.7070 0.5280 -0.4705
vn -0.5820 -0.7139 -0.3894
vn 0.5418 0.8335 -0.1085
vn -0.5707 -0.3880 -0.7237
vn 0.3043 0.7030 0.6428
vn -0.9490 0.0714 0.3070
vn 0.7832 0.4407 -0.4386
vn -0.6555 0.6240 -0.4254
vn 0.7855 0.4596 -0.4144
vn 0.5705 -0.6719 0.4723
vn -0.6590 0.6214 -0.4238
vn -0.5663 0.6749 -0.4732
vn 0.6456 -0.6114 0.4575
vn -0.6320 -0.0659 0.7721
vn 0.5743 -0.6696 0.4709
vn 0.6647 -0.6181 0.4197
vn -0.5642 0.6746 -0.4760
vn -0.7832 -0.4407 0.4386
vn 0.4165 -0.2159 -0.8831
vn -0.7641 0.4365 -0.4750
vn 0.4259 -0.8153 0.3923
vn 0.3973 -0.2367 -0.8867
vn 0.7683 -0.6308 0.1086
vn -0.5844 0.6824 -0.4390
vn 0.6406 0.7431 0.1935
vn -0.6406 -0.7431 -0.1936
vn 0.6738 0.1375 -0.7260
vn 0.4516 -0.7943 0.4064
vn -0.7490 0.4686 -0.4685
vn -0.6183 -0.0441 0.7847
vn -0.5874 -0.7569 -0.2865
vn 0.4591 -0.7878 0.4106
vn -0.7441 0.4783 -0.4664
vn -0.7541 -0.3192 0.5740
vn 0.4588 -0.1683 -0.8724
vn -0.3774 0.5744 -0.7264
vn -0.5133 -0.7618 -0.3951
vn 0.7312 0.6819 -0.0191
usemtl Matériau.012
s off
f 131//26 132//26 134//26 133//26
f 138//27 137//27 141//27 142//27
f 137//28 138//28 136//28 135//28
f 153//29 154//29 132//29 131//29
f 151//30 137//30 135//30 153//30
f 152//31 134//31 132//31 154//31
f 142//32 141//32 145//32 146//32
f 151//33 133//33 140//33 155//33
f 152//34 138//34 142//34 156//34
f 133//35 134//35 139//35 140//35
f 158//36 146//36 150//36 160//36
f 155//37 140//37 144//37 157//37
f 156//38 142//38 146//38 158//38
f 140//39 139//39 143//39 144//39
f 149//40 159//40 163//40 166//40
f 144//41 143//41 147//41 148//41
f 146//42 145//42 149//42 150//42
f 157//43 144//43 148//43 159//43
f 145//44 157//44 159//44 149//44
f 148//45 147//45 161//45 162//45
f 139//46 156//46 158//46 143//46
f 141//47 155//47 157//47 145//47
f 143//48 158//48 160//48 147//48
f 134//49 152//49 156//49 139//49
f 137//50 151//50 155//50 141//50
f 138//51 152//51 154//51 136//51
f 133//52 151//52 153//52 131//52
f 135//53 136//53 154//53 153//53
f 165//54 166//54 172//54 171//54
f 161//55 164//55 170//55 167//55
f 150//56 149//56 166//56 165//56
f 159//57 148//57 162//57 163//57
f 147//58 160//58 164//58 161//58
f 160//59 150//59 165//59 164//59
f 172//60 169//60 180//60 179//60
f 168//61 167//61 173//61 174//61
f 163//62 162//62 168//62 169//62
f 166//63 163//63 169//63 172//63
f 164//64 165//64 171//64 170//64
f 162//65 161//65 167//65 168//65
f 176//66 175//66 183//66 184//66
f 167//67 170//67 176//67 173//67
f 169//68 168//68 174//68 175//68
f 170//69 169//69 175//69 176//69
f 179//70 180//70 192//70 191//70
f 170//71 171//71 178//71 177//71
f 171//72 172//72 179//72 178//72
f 169//73 170//73 177//73 180//73
f 184//74 183//74 187//74 188//74
f 175//75 174//75 182//75 183//75
f 173//76 176//76 184//76 181//76
f 174//77 173//77 181//77 182//77
f 186//78 185//78 188//78 187//78
f 183//79 182//79 186//79 187//79
f 181//80 184//80 188//80 185//80
f 182//81 181//81 185//81 186//81
f 192//82 189//82 190//82 191//82
f 177//83 178//83 190//83 189//83
f 180//84 177//84 189//84 192//84
f 178//85 179//85 191//85 190//85
f 193//86 194//86 196//86 195//86
f 200//87 199//87 203//87 204//87
f 199//88 200//88 198//88 197//88
f 215//89 216//89 194//89 193//89
f 213//90 199//90 197//90 215//90
f 214//91 196//91 194//91 216//91
f 204//92 203//92 207//92 208//92
f 213//93 195//93 202//93 217//93
f 214//94 200//94 204//94 218//94
f 195//95 196//95 201//95 202//95
f 220//96 208//96 212//96 222//96
f 217//97 202//97 206//97 219//97
f 218//98 204//98 208//98 220//98
f 202//99 201//99 205//99 206//99
f 211//100 221//100 225//100 228//100
f 206//101 205//101 209//101 210//101
f 208//102 207//102 211//102 212//102
f 219//103 206//103 210//103 221//103
f 207//104 219//104 221//104 211//104
f 210//105 209//105 223//105 224//105
f 201//106 218//106 220//106 205//106
f 203//107 217//107 219//107 207//107
f 205//108 220//108 222//108 209//108
f 196//109 214//109 218//109 201//109
f 199//110 213//110 217//110 203//110
f 200//111 214//111 216//111 198//111
f 195//112 213//112 215//112 193//112
f 197//113 198//113 216//113 215//113
f 227//114 228//114 234//114 233//114
f 223//115 226//115 232//115 229//115
f 212//116 211//116 228//116 227//116
f 221//117 210//117 224//117 225//117
f 209//118 222//118 226//118 223//118
f 222//119 212//119 227//119 226//119
f 234//120 231//120 242//120 241//120
f 230//121 229//121 235//121 236//121
f 225//122 224//122 230//122 231//122
f 228//123 225//123 231//123 234//123
f 226//124 227//124 233//124 232//124
f 224//125 223//125 229//125 230//125
f 238//126 237//126 245//126 246//126
f 229//127 232//127 238//127 235//127
f 231//128 230//128 236//128 237//128
f 232//129 231//129 237//129 238//129
f 241//130 242//130 254//130 253//130
f 232//131 233//131 240//131 239//131
f 233//132 234//132 241//132 240//132
f 231//133 232//133 239//133 242//133
f 246//134 245//134 249//134 250//134
f 237//135 236//135 244//135 245//135
f 235//136 238//136 246//136 243//136
f 236//137 235//137 243//137 244//137
f 248//138 247//138 250//138 249//138
f 245//139 244//139 248//139 249//139
f 243//140 246//140 250//140 247//140
f 244//141 243//141 247//141 248//141
f 254//142 251//142 252//142 253//142
f 239//143 240//143 252//143 251//143
f 242//144 239//144 251//144 254//144
f 240//145 241//145 253//145 252//145
