# Blender v2.91.2 OBJ File: 'camionnete02.blend'
# www.blender.org
mtllib arme_000158.mtl
o Cube.046_Cube.010
v 176.125214 921.459839 -1160.913940
v 188.184540 709.118774 -1218.749390
v 237.474564 980.329468 -1364.260254
v 249.533859 767.988403 -1422.095825
v -35.227402 926.432251 -1223.239258
v -23.168137 714.091064 -1281.074707
v 26.121948 985.301880 -1426.585449
v 38.181206 772.960815 -1484.421143
v 91.659332 840.408081 -880.946472
v 103.718620 628.066895 -938.781799
v -107.633987 633.039307 -1001.107117
v -119.693268 845.380371 -943.271606
v 53.433010 803.726685 -754.242554
v 65.492256 591.385620 -812.078125
v -145.860367 596.357910 -874.403259
v -157.919632 808.699097 -816.567932
v 30.850555 782.057007 -679.391724
v 43.557640 631.214600 -733.921021
v -167.795029 636.187012 -796.246338
v -180.502090 787.029419 -741.716919
v 104.837578 853.053589 -924.626465
v 116.896866 640.712402 -982.461914
v -106.515060 858.026001 -986.951782
v -94.455795 645.684814 -1044.787109
v 215.816315 959.546753 -1292.472656
v 227.875595 747.205566 -1350.308350
v 4.463715 964.519165 -1354.798096
v 16.523003 752.177979 -1412.633301
v 131.798248 982.815674 -1395.422852
v 143.857544 770.474609 -1453.258545
v 70.448921 923.946045 -1192.076660
v 82.508217 711.604858 -1249.912109
v -14.016968 842.894165 -912.109009
v -1.957687 630.552979 -969.944397
v -52.243317 806.213013 -785.405273
v -35.151459 600.155396 -827.975586
v -74.825729 784.543213 -710.554382
v -49.942047 627.012329 -775.274109
v 11.220528 643.198608 -1013.624512
v -0.838737 855.539795 -955.789124
v 122.199272 749.691772 -1381.470947
v 110.140038 962.032959 -1323.635376
v 184.636444 981.572632 -1379.841431
v 135.346344 710.361816 -1234.330811
v 50.880444 629.309937 -954.363159
v 0.477417 599.317261 -817.469055
v -14.313141 626.174072 -764.767578
v 51.999428 854.296631 -940.207703
v 162.978180 960.789917 -1308.054077
v 196.695709 769.231445 -1437.677124
v 123.287025 922.703003 -1176.495361
v 38.821167 841.651123 -896.527710
v 0.594833 804.969849 -769.823914
v -21.987579 783.300171 -694.973022
v 64.058685 641.955566 -998.043274
v 175.037415 748.448608 -1365.889648
v 66.316643 602.197510 -1008.872131
v 13.478477 603.440674 -1024.453369
v 177.295319 708.690674 -1376.718506
v 124.457222 709.933838 -1392.299805
v 84.766136 671.846924 -1260.740967
v 137.604294 670.603760 -1245.159668
v 297.206177 887.604980 -1245.637451
v 279.655151 870.763306 -1187.463623
v 284.987793 776.868164 -1213.037842
v 302.538635 793.709839 -1271.211914
v 342.878326 886.530518 -1232.169434
v 325.327332 869.688843 -1173.995361
v 330.659882 775.793701 -1199.569580
v 348.210815 792.635376 -1257.743652
v 412.771301 884.886230 -1211.558838
v 395.220337 868.044556 -1153.385010
v 400.552856 774.149414 -1178.959229
v 418.103699 790.991089 -1237.133301
v 457.746582 883.828125 -1198.296387
v 440.195618 866.986450 -1140.122314
v 445.528198 773.091309 -1165.696533
v 463.079041 789.932983 -1223.870605
v 398.240173 962.629761 -2105.708008
v 345.402039 963.872803 -2121.289551
v 333.342651 1176.213989 -2063.454102
v 386.180847 1174.970825 -2047.872803
vn 0.9589 -0.0226 0.2828
vn 0.2783 0.2671 -0.9226
vn -0.9589 0.0226 -0.2828
vn -0.0547 0.9634 0.2624
vn 0.0547 -0.9634 -0.2624
vn -0.1441 -0.8975 0.4169
vn -0.0299 -0.9666 -0.2546
vn -0.3484 -0.3706 0.8610
vn -0.9593 0.0217 -0.2817
vn 0.9593 -0.0217 0.2817
vn 0.6332 0.2367 -0.7369
vn -0.2291 -0.3753 0.8982
vn 0.0848 -0.9718 -0.2201
vn -0.2677 -0.4020 0.8756
vn 0.0363 -0.9789 -0.2011
vn -0.2783 -0.2671 0.9226
vn 0.1215 -0.2544 0.9594
vn 0.5747 -0.8159 -0.0628
vn 0.4835 0.7910 0.3749
usemtl Matériau.011
s off
f 25//1 26//1 4//1 3//1
f 29//2 30//2 8//2 7//2
f 27//3 28//3 6//3 5//3
f 22//1 21//1 9//1 10//1
f 42//4 27//4 5//4 31//4
f 56//5 26//5 2//5 44//5
f 10//1 9//1 13//1 14//1
f 55//5 22//5 10//5 45//5
f 23//3 24//3 11//3 12//3
f 46//6 14//6 18//6 47//6
f 45//7 10//7 14//7 46//7
f 12//3 11//3 15//3 16//3
f 33//4 12//4 16//4 35//4
f 54//8 47//8 18//8 17//8
f 16//9 15//9 19//9 20//9
f 14//10 13//10 17//10 18//10
f 5//3 6//3 24//3 23//3
f 44//5 2//5 22//5 55//5
f 31//4 5//4 23//4 40//4
f 2//1 1//1 21//1 22//1
f 50//5 4//5 26//5 56//5
f 29//4 7//4 27//4 42//4
f 7//3 8//3 28//3 27//3
f 26//11 25//11 63//11 66//11
f 43//4 29//4 42//4 49//4
f 8//5 30//5 41//5 28//5
f 51//4 31//4 40//4 48//4
f 6//5 32//5 39//5 24//5
f 20//12 19//12 38//12 37//12
f 52//4 33//4 35//4 53//4
f 11//13 34//13 36//13 15//13
f 15//6 36//6 38//6 19//6
f 24//5 39//5 34//5 11//5
f 28//5 41//5 32//5 6//5
f 49//4 42//4 31//4 51//4
f 30//3 29//3 81//3 80//3
f 3//2 4//2 50//2 43//2
f 25//4 49//4 51//4 1//4
f 9//4 52//4 53//4 13//4
f 1//4 51//4 48//4 21//4
f 3//4 43//4 49//4 25//4
f 30//5 50//5 56//5 41//5
f 32//3 41//3 60//3 61//3
f 37//14 38//14 47//14 54//14
f 34//15 45//15 46//15 36//15
f 36//6 46//6 47//6 38//6
f 39//5 55//5 45//5 34//5
f 55//16 39//16 58//16 57//16
f 61//5 62//5 57//5 58//5
f 60//5 59//5 62//5 61//5
f 39//3 32//3 61//3 58//3
f 44//1 55//1 57//1 62//1
f 41//2 56//2 59//2 60//2
f 56//1 44//1 62//1 59//1
f 66//2 63//2 67//2 70//2
f 1//17 2//17 65//17 64//17
f 2//18 26//18 66//18 65//18
f 25//19 1//19 64//19 63//19
f 69//5 70//5 74//5 73//5
f 64//16 65//16 69//16 68//16
f 65//5 66//5 70//5 69//5
f 63//4 64//4 68//4 67//4
f 73//5 74//5 78//5 77//5
f 67//4 68//4 72//4 71//4
f 70//2 67//2 71//2 74//2
f 68//16 69//16 73//16 72//16
f 76//1 77//1 78//1 75//1
f 71//4 72//4 76//4 75//4
f 74//2 71//2 75//2 78//2
f 82//2 79//2 80//2 81//2
f 50//5 30//5 80//5 79//5
f 43//1 50//1 79//1 82//1
f 29//4 43//4 82//4 81//4
o Cube.048_Cube.024
v -515.644409 518.985840 158.338501
v -664.557739 364.746796 46.836670
v -385.872620 540.260132 -44.403374
v -533.857910 384.563477 -157.223694
v -659.525879 671.402283 12.059086
v -735.877869 592.319580 -45.110992
v -592.988281 682.310242 -91.892342
v -668.881958 602.829651 -148.500946
v -370.409119 548.838013 -502.025360
v -272.996368 606.103271 -444.980927
v -342.151215 711.396362 -432.588165
v -439.564026 654.131287 -489.632599
v -295.513489 639.571289 -683.821106
v -223.893463 681.673889 -641.880676
v -274.737701 759.087769 -632.769165
v -346.357788 716.985168 -674.709656
v -248.178528 698.981567 -796.496216
v -195.839447 729.749634 -765.846863
v -232.995880 786.322754 -759.188171
v -285.334839 755.554688 -789.837708
v -460.645081 635.675110 -60.399925
v -617.630493 470.773590 -178.169525
v -598.524048 613.216187 154.815887
v -756.614014 449.472443 36.442947
v -302.722137 662.313904 -441.992950
v -406.137878 601.519897 -502.552765
v -240.873871 727.742859 -652.768250
v -316.907410 683.045715 -697.293030
v -203.825500 767.718567 -785.675293
v -259.389832 735.054565 -818.213562
v -215.149841 726.284302 -880.306580
v -162.810791 757.052307 -849.657166
v -170.694153 802.960327 -877.630737
v -226.258514 770.296326 -910.168884
v -252.219238 789.575989 -880.540955
v -199.880157 820.344116 -849.891541
v -192.141663 747.019531 -940.412231
v -139.802734 777.787781 -909.762878
v -147.686035 823.695618 -937.736511
v -203.250305 791.031555 -970.274597
v -229.210968 810.311279 -940.646790
v -176.872070 841.079346 -909.997192
v -155.379089 744.809387 -974.083191
v -121.690735 764.613342 -954.355530
v -126.764832 794.162292 -972.360901
v -162.528992 773.137817 -993.304260
v -209.249512 834.927429 -1004.095886
v -235.210327 854.207214 -974.467834
v -182.871277 884.975220 -943.818420
v -153.685181 867.591553 -971.557556
v -130.834229 741.940491 -997.292664
v -108.122681 755.291870 -983.992615
v -111.543396 775.212830 -996.131409
v -135.654724 761.038757 -1010.250793
v -111.818115 749.473694 -1025.063477
v -97.620789 757.819702 -1016.749451
v -99.759216 770.272705 -1024.337646
v -114.831482 761.412231 -1033.163940
v -207.792175 867.121826 -1012.060730
v -225.053741 879.941040 -992.360657
v -190.252899 900.399170 -971.981506
v -170.846741 888.840576 -990.425598
v -206.981262 505.219086 348.733002
v -346.255402 308.353821 364.365051
v -105.395691 419.123596 145.705170
v -245.589661 221.126465 162.733337
v -386.289520 545.698975 171.137360
v -457.699280 444.760681 179.152344
v -325.894012 500.799103 64.121971
v -406.085205 400.036743 75.770126
v -222.089294 66.443176 -63.238182
v -129.393066 56.011841 20.300350
v -44.928101 54.040527 -71.356636
v -134.935974 63.255371 -154.981079
v -218.807587 -149.715820 -75.731102
v -151.888916 -159.608704 -11.816429
v -87.811768 -161.952576 -79.267845
v -154.730469 -152.059509 -143.182617
v -213.885071 -285.286011 -83.628395
v -164.981873 -292.515686 -36.920326
v -118.155151 -294.228333 -86.213020
v -167.058472 -286.998840 -132.921021
v -181.470032 483.051453 92.318924
v -342.481995 276.537109 112.398285
v -301.494385 578.136475 309.859894
v -449.351074 369.139771 326.455200
v -85.217896 45.415649 -19.806953
v -181.845032 59.700623 -112.096443
v -119.567871 -179.833435 -44.611755
v -190.610229 -169.330750 -112.465050
v -142.624329 -320.595337 -61.623657
v -194.541199 -312.920227 -111.210030
v -225.195801 -378.697754 -86.244621
v -176.292542 -385.927002 -39.536613
v -150.901428 -423.907104 -68.948372
v -202.818420 -416.231812 -118.534706
v -175.802063 -388.788818 -139.521881
v -126.898743 -396.018188 -92.813835
v -232.404602 -445.868774 -89.093987
v -183.501221 -453.098389 -42.385994
v -158.110352 -491.078369 -71.797737
v -210.027283 -483.403076 -121.384026
v -183.010681 -455.959717 -142.371338
v -134.107422 -463.189331 -95.663292
v -244.953735 -487.593140 -64.769203
v -213.476807 -492.246704 -34.705254
v -197.133881 -516.692383 -53.636330
v -230.550385 -511.752319 -85.552849
v -188.885559 -526.211060 -150.145386
v -161.869080 -498.767700 -171.132538
v -112.965759 -505.997681 -124.424477
v -136.968567 -533.886353 -100.558983
v -254.887207 -515.514893 -48.306374
v -233.666412 -518.652344 -28.038109
v -222.648621 -535.133301 -40.800865
v -245.176941 -531.802368 -62.318138
v -258.769867 -549.080811 -41.388710
v -245.504608 -551.041748 -28.718727
v -238.616943 -561.344238 -36.696983
v -252.699890 -559.262573 -50.147469
v -164.522461 -545.925903 -161.090942
v -146.558899 -527.678589 -175.045593
v -114.042419 -532.485474 -143.988922
v -130.002136 -551.029297 -128.120392
vn 0.5763 -0.7633 0.2919
vn -0.4937 0.8331 -0.2495
vn -0.5763 0.7631 -0.2923
vn -0.3649 -0.2878 0.8854
vn 0.2634 0.9274 0.2656
vn -0.5833 -0.6811 -0.4426
vn -0.5190 0.8543 0.0287
vn 0.7638 0.5547 0.3300
vn -0.7828 -0.2252 -0.5801
vn 0.6523 -0.7579 0.0078
vn -0.7922 -0.3191 -0.5203
vn 0.8345 0.4095 0.3687
vn -0.7813 -0.3579 -0.5113
vn 0.5703 -0.8044 -0.1665
vn 0.7342 0.5023 0.4568
vn 0.5746 -0.7985 -0.1796
vn -0.5134 0.8580 0.0153
vn 0.8564 0.3816 0.3478
vn 0.7292 0.5753 0.3706
vn 0.5335 -0.8433 -0.0645
vn -0.6949 -0.4895 -0.5268
vn 0.7480 0.5412 0.3842
vn -0.6649 -0.5128 -0.5431
vn -0.5726 -0.5820 -0.5774
vn 0.4321 0.8469 0.3099
vn -0.8145 -0.1936 -0.5469
vn 0.6505 0.5900 0.4783
vn -0.7763 0.3937 0.4922
vn -0.5403 0.8374 0.0821
vn -0.7406 -0.4952 -0.4543
vn -0.5506 0.8276 0.1094
vn 0.7990 0.4046 0.4448
vn -0.7377 -0.4987 -0.4551
vn -0.8020 -0.4008 -0.4429
vn 0.7386 0.4719 0.4814
vn 0.2941 -0.8775 0.3787
vn 0.7965 0.4084 0.4458
vn 0.7333 0.5052 0.4550
vn -0.8026 -0.3978 -0.4445
vn 0.5403 -0.8374 -0.0821
vn -0.0668 0.7589 -0.6478
vn -0.5809 -0.5523 -0.5979
vn 0.9065 0.3220 0.2730
vn -0.0486 0.7452 -0.6650
vn 0.6488 0.7261 0.2276
vn -0.7988 -0.4319 -0.4189
vn -0.6294 0.4185 0.6548
vn 0.6294 -0.4185 -0.6548
vn -0.3465 0.8887 -0.3004
vn 0.8916 0.3372 0.3021
vn -0.6089 -0.5449 -0.5765
vn 0.2778 -0.8726 0.4016
vn 0.6141 -0.3311 -0.7164
vn 0.8870 0.3417 0.3107
vn -0.6173 -0.5424 -0.5698
vn 0.4688 -0.8795 0.0824
vn -0.1076 0.7875 -0.6068
vn -0.7832 -0.1157 -0.6109
vn 0.5859 -0.2195 -0.7801
vn -0.6370 0.5935 0.4920
vn 0.7044 -0.4533 0.5462
vn 0.1081 0.4824 -0.8692
vn -0.6866 0.4613 -0.5620
vn -0.2151 0.2276 0.9497
vn 0.1665 0.9357 -0.3110
vn -0.5320 -0.8410 0.0982
vn 0.6744 -0.1046 -0.7309
vn 0.9586 0.1570 -0.2375
vn -0.8543 -0.3517 -0.3826
vn 0.2112 -0.5490 0.8087
vn -0.6397 0.0056 -0.7686
vn 0.6400 -0.1790 0.7472
vn -0.6676 0.0238 -0.7442
vn -0.6810 -0.0452 0.7309
vn 0.7601 -0.1066 0.6410
vn -0.6943 -0.0670 0.7166
vn 0.6768 -0.1171 -0.7268
vn 0.6214 -0.1987 0.7579
vn 0.7817 -0.2046 0.5891
vn -0.6845 0.0625 0.7263
vn -0.7765 0.0278 -0.6295
vn 0.7813 -0.1810 0.5973
vn -0.8001 0.0114 -0.5998
vn -0.7913 -0.5894 0.1627
vn 0.6129 0.4443 -0.6534
vn -0.8435 -0.4957 -0.2067
vn 0.6273 0.7787 -0.0049
vn -0.7576 0.5623 0.3316
vn 0.6867 -0.0429 -0.7256
vn -0.7537 0.1084 -0.6483
vn 0.6897 -0.0123 -0.7240
vn 0.6791 -0.1043 0.7266
vn -0.7567 0.1079 -0.6448
vn -0.6753 0.1056 -0.7299
vn 0.7461 -0.0760 0.6615
vn -0.5385 0.5394 0.6473
vn 0.6825 -0.1039 0.7234
vn 0.7616 -0.1088 0.6388
vn -0.6735 0.1033 -0.7319
vn -0.6867 0.0429 0.7256
vn 0.3409 -0.8072 -0.4819
vn -0.8482 -0.0522 -0.5271
vn 0.5415 -0.2577 0.8002
vn 0.3235 -0.8234 -0.4662
vn 0.8329 -0.3503 0.4284
vn -0.6904 0.1364 -0.7105
vn 0.5823 0.6315 -0.5119
vn -0.5823 -0.6315 0.5119
vn 0.5777 -0.4578 -0.6758
vn 0.5664 -0.2335 0.7904
vn -0.8356 -0.0262 -0.5487
vn -0.5258 0.5630 0.6376
vn -0.5380 -0.7107 0.4533
vn 0.5736 -0.2262 0.7873
vn -0.8316 -0.0182 -0.5551
vn -0.6555 0.2244 0.7211
vn 0.3793 -0.7680 -0.5160
vn -0.5050 -0.1525 -0.8495
vn -0.4756 -0.7958 0.3748
vn 0.6557 0.4311 -0.6198
usemtl Matériau.012
s off
f 83//20 84//20 86//20 85//20
f 90//21 89//21 93//21 94//21
f 89//22 90//22 88//22 87//22
f 105//23 106//23 84//23 83//23
f 103//24 89//24 87//24 105//24
f 104//25 86//25 84//25 106//25
f 94//26 93//26 97//26 98//26
f 103//27 85//27 92//27 107//27
f 104//28 90//28 94//28 108//28
f 85//29 86//29 91//29 92//29
f 110//30 98//30 102//30 112//30
f 107//31 92//31 96//31 109//31
f 108//32 94//32 98//32 110//32
f 92//33 91//33 95//33 96//33
f 101//34 111//34 115//34 118//34
f 96//35 95//35 99//35 100//35
f 98//36 97//36 101//36 102//36
f 109//37 96//37 100//37 111//37
f 97//38 109//38 111//38 101//38
f 100//39 99//39 113//39 114//39
f 91//40 108//40 110//40 95//40
f 93//41 107//41 109//41 97//41
f 95//42 110//42 112//42 99//42
f 86//43 104//43 108//43 91//43
f 89//44 103//44 107//44 93//44
f 90//45 104//45 106//45 88//45
f 85//46 103//46 105//46 83//46
f 87//47 88//47 106//47 105//47
f 117//48 118//48 124//48 123//48
f 113//49 116//49 122//49 119//49
f 102//50 101//50 118//50 117//50
f 111//51 100//51 114//51 115//51
f 99//52 112//52 116//52 113//52
f 112//53 102//53 117//53 116//53
f 124//54 121//54 132//54 131//54
f 120//55 119//55 125//55 126//55
f 115//56 114//56 120//56 121//56
f 118//57 115//57 121//57 124//57
f 116//58 117//58 123//58 122//58
f 114//59 113//59 119//59 120//59
f 128//60 127//60 135//60 136//60
f 119//61 122//61 128//61 125//61
f 121//62 120//62 126//62 127//62
f 122//63 121//63 127//63 128//63
f 131//64 132//64 144//64 143//64
f 122//65 123//65 130//65 129//65
f 123//66 124//66 131//66 130//66
f 121//67 122//67 129//67 132//67
f 136//68 135//68 139//68 140//68
f 127//69 126//69 134//69 135//69
f 125//70 128//70 136//70 133//70
f 126//71 125//71 133//71 134//71
f 138//72 137//72 140//72 139//72
f 135//73 134//73 138//73 139//73
f 133//74 136//74 140//74 137//74
f 134//75 133//75 137//75 138//75
f 144//76 141//76 142//76 143//76
f 129//77 130//77 142//77 141//77
f 132//78 129//78 141//78 144//78
f 130//79 131//79 143//79 142//79
f 145//80 146//80 148//80 147//80
f 152//81 151//81 155//81 156//81
f 151//82 152//82 150//82 149//82
f 167//83 168//83 146//83 145//83
f 165//84 151//84 149//84 167//84
f 166//85 148//85 146//85 168//85
f 156//86 155//86 159//86 160//86
f 165//87 147//87 154//87 169//87
f 166//88 152//88 156//88 170//88
f 147//89 148//89 153//89 154//89
f 172//90 160//90 164//90 174//90
f 169//91 154//91 158//91 171//91
f 170//92 156//92 160//92 172//92
f 154//93 153//93 157//93 158//93
f 163//94 173//94 177//94 180//94
f 158//95 157//95 161//95 162//95
f 160//96 159//96 163//96 164//96
f 171//97 158//97 162//97 173//97
f 159//98 171//98 173//98 163//98
f 162//99 161//99 175//99 176//99
f 153//100 170//100 172//100 157//100
f 155//101 169//101 171//101 159//101
f 157//102 172//102 174//102 161//102
f 148//103 166//103 170//103 153//103
f 151//104 165//104 169//104 155//104
f 152//105 166//105 168//105 150//105
f 147//106 165//106 167//106 145//106
f 149//107 150//107 168//107 167//107
f 179//108 180//108 186//108 185//108
f 175//109 178//109 184//109 181//109
f 164//110 163//110 180//110 179//110
f 173//111 162//111 176//111 177//111
f 161//112 174//112 178//112 175//112
f 174//113 164//113 179//113 178//113
f 186//114 183//114 194//114 193//114
f 182//115 181//115 187//115 188//115
f 177//116 176//116 182//116 183//116
f 180//117 177//117 183//117 186//117
f 178//118 179//118 185//118 184//118
f 176//119 175//119 181//119 182//119
f 190//120 189//120 197//120 198//120
f 181//121 184//121 190//121 187//121
f 183//122 182//122 188//122 189//122
f 184//123 183//123 189//123 190//123
f 193//124 194//124 206//124 205//124
f 184//125 185//125 192//125 191//125
f 185//126 186//126 193//126 192//126
f 183//127 184//127 191//127 194//127
f 198//128 197//128 201//128 202//128
f 189//129 188//129 196//129 197//129
f 187//130 190//130 198//130 195//130
f 188//131 187//131 195//131 196//131
f 200//132 199//132 202//132 201//132
f 197//133 196//133 200//133 201//133
f 195//134 198//134 202//134 199//134
f 196//135 195//135 199//135 200//135
f 206//136 203//136 204//136 205//136
f 191//137 192//137 204//137 203//137
f 194//138 191//138 203//138 206//138
f 192//139 193//139 205//139 204//139
