# Blender v2.91.2 OBJ File: 'camionnete02.blend'
# www.blender.org
mtllib arme_000257.mtl
o Cube.046_Cube.010
v 109.319122 378.051941 -1286.366089
v 101.050400 158.006546 -1295.893921
v 165.555359 385.161194 -1499.359131
v 157.286652 165.115829 -1508.886963
v -103.632057 388.473572 -1342.243408
v -111.900841 168.428146 -1351.771240
v -47.395821 395.582825 -1555.236328
v -55.664604 175.537430 -1564.764404
v 31.892960 368.263855 -993.116821
v 23.624214 148.218475 -1002.644653
v -189.326965 158.640060 -1058.521973
v -181.058197 378.685425 -1048.994141
v -3.147400 363.834106 -860.402161
v -11.416176 143.788696 -869.930054
v -224.367401 154.210297 -925.807373
v -216.098663 374.255737 -916.279541
v -23.847748 361.217163 -782.000366
v -26.240776 201.582870 -801.988464
v -239.192047 212.004501 -857.865784
v -236.798981 371.638794 -837.877686
v 5.095764 583.199219 -850.903809
v -207.855469 593.620850 -906.781128
v -15.604546 580.582336 -772.501953
v -228.555725 591.004028 -828.379211
v 43.972900 369.790955 -1038.869019
v 35.704140 149.745590 -1048.396973
v -168.978302 380.212585 -1094.746338
v -177.247101 160.167191 -1104.274170
v 34.622543 440.902466 -989.971619
v -178.328644 451.324158 -1045.848877
v 46.702484 442.429565 -1035.723755
v -166.248718 452.851196 -1091.601074
v 38.582737 546.289307 -985.408386
v -174.368408 556.710938 -1041.285645
v 50.662613 547.816345 -1031.160645
v -162.288544 558.238037 -1087.037964
v 0.374119 436.572815 -860.256531
v -212.577118 446.994446 -916.133789
v 4.334297 541.959656 -855.693359
v -208.616913 552.381226 -911.570618
v 23.297115 721.413086 -894.491699
v -189.654114 731.834656 -950.369141
v 2.596767 718.796204 -816.089966
v -210.354401 729.217773 -871.967285
v 145.702209 382.651428 -1424.166016
v 137.433472 162.606033 -1433.693970
v -67.248962 393.072998 -1480.043335
v -75.517662 173.027618 -1489.571045
v 59.079758 390.372070 -1527.297729
v 50.811008 170.326630 -1536.825684
v 2.843540 383.262756 -1314.304810
v -5.425209 163.217331 -1323.832642
v -74.582603 373.474609 -1021.055420
v -82.851357 153.429260 -1030.583252
v -109.623024 369.044922 -888.340820
v -111.636253 157.986923 -884.529724
v -130.323334 366.427979 -809.939026
v -121.632530 196.957687 -838.716492
v -101.379845 588.410095 -878.842346
v -122.080147 585.793152 -800.440613
v -70.771461 154.956375 -1076.335571
v -62.502693 375.001770 -1066.807739
v -71.853050 446.113281 -1017.910217
v -59.773109 447.640320 -1063.662354
v -67.892845 551.500122 -1013.346985
v -55.812950 553.027161 -1059.099365
v -106.101494 441.783691 -888.195251
v -102.141289 547.170532 -883.631897
v -83.178490 726.623901 -922.430359
v -103.878822 724.006958 -844.028625
v 30.957855 167.816818 -1461.632568
v 39.226635 387.862244 -1452.104614
v 112.317627 387.766602 -1513.328369
v 47.812599 160.611938 -1309.863281
v -29.613594 150.823868 -1016.614014
v -75.737892 156.230103 -875.110107
v -85.734123 195.200867 -829.296936
v -9.264877 372.396362 -1052.838379
v -6.535339 445.034973 -1049.693115
v -2.575161 550.421814 -1045.129883
v 92.464439 385.256836 -1438.135254
v 104.048843 167.721237 -1522.856445
v 56.081284 380.657349 -1300.335449
v -21.344833 370.869202 -1007.086121
v -56.385231 366.439514 -874.371460
v -77.085533 363.822571 -795.969666
v -48.142036 585.804626 -864.873108
v -68.842339 583.187683 -786.471313
v -17.533669 152.350983 -1062.366211
v -18.615242 443.507874 -1003.940918
v -14.655052 548.894653 -999.377686
v -52.863701 439.178223 -874.225891
v -48.903488 544.565063 -869.662598
v -29.940659 724.018494 -908.460999
v -50.640999 721.401489 -830.059204
v 84.195633 165.211426 -1447.663330
v -19.081863 111.150497 -1064.150146
v -72.319664 113.755875 -1078.119507
v 82.647408 124.010941 -1449.447266
v 29.409660 126.616318 -1463.416504
v -6.973434 122.016830 -1325.616577
v 46.264374 119.411438 -1311.647217
v 223.019012 315.603516 -1364.834961
v 206.930756 313.569702 -1303.901245
v 203.274536 216.267838 -1308.114380
v 219.362640 218.301682 -1369.048096
v 269.036621 313.351501 -1352.760376
v 252.948395 311.317627 -1291.826538
v 249.292114 214.015823 -1296.039673
v 265.380280 216.049667 -1356.973389
v 339.458313 309.905151 -1334.282104
v 323.370056 307.871277 -1273.348389
v 319.713715 210.569504 -1277.561523
v 335.801880 212.603363 -1338.495361
v 384.773682 307.687439 -1322.391602
v 368.685486 305.653625 -1261.458008
v 365.029205 208.351807 -1265.671021
v 381.117340 210.385651 -1326.604736
v 288.795929 191.076859 -2222.578857
v 235.558136 193.682266 -2236.548340
v 243.826813 413.727722 -2227.020264
v 297.064697 411.122253 -2213.050781
v -58.569237 792.314941 -939.824158
v -156.680786 797.116394 -965.568115
v -77.643440 789.903564 -867.581055
v -175.754913 794.705017 -893.325012
v 20.468040 785.102112 -841.837219
v 39.542339 787.513550 -914.080078
v -9.513397 789.914368 -926.952026
v -28.587700 787.502808 -854.709167
vn 0.9662 -0.0473 0.2535
vn 0.2551 0.0323 -0.9664
vn -0.9662 0.0473 -0.2535
vn 0.0375 0.9984 0.0432
vn -0.0375 -0.9984 -0.0432
vn -0.2551 -0.0323 0.9664
vn -0.1976 -0.7675 0.6098
vn -0.1217 -0.9920 -0.0325
vn -0.3363 -0.1399 0.9313
vn -0.9665 0.0468 -0.2523
vn 0.9665 -0.0468 0.2523
vn 0.2258 -0.3199 -0.9201
vn 0.2248 -0.3272 -0.9178
vn -0.2258 0.3199 0.9201
vn 0.6148 0.0110 -0.7886
vn -0.8902 0.3980 -0.2217
vn -0.2162 -0.1472 0.9652
vn -0.0062 -1.0000 -0.0010
vn -0.2138 0.4031 0.8898
vn -0.2579 -0.1746 0.9503
vn -0.0542 -0.9983 0.0205
vn 0.1456 -0.0483 0.9882
vn 0.5018 -0.8587 0.1038
vn 0.5644 0.8065 0.1759
vn 0.9555 -0.1617 0.2469
usemtl Matériau.011
s off
f 45//1 46//1 4//1 3//1
f 49//2 50//2 8//2 7//2
f 47//3 48//3 6//3 5//3
f 26//1 25//1 9//1 10//1
f 72//4 47//4 5//4 51//4
f 96//5 46//5 2//5 74//5
f 10//1 9//1 13//1 14//1
f 84//6 9//6 29//6 90//6
f 89//5 26//5 10//5 75//5
f 27//3 28//3 11//3 12//3
f 76//7 14//7 18//7 77//7
f 75//8 10//8 14//8 76//8
f 12//3 11//3 15//3 16//3
f 53//4 12//4 16//4 55//4
f 86//9 77//9 18//9 17//9
f 16//10 15//10 19//10 20//10
f 16//3 20//3 24//3 22//3
f 14//11 13//11 17//11 18//11
f 59//12 22//12 42//12 69//12
f 86//6 17//6 23//6 88//6
f 17//1 13//1 21//1 23//1
f 55//2 16//2 22//2 59//2
f 5//3 6//3 28//3 27//3
f 74//5 2//5 26//5 89//5
f 51//4 5//4 27//4 62//4
f 2//1 1//1 25//1 26//1
f 32//3 30//3 34//3 36//3
f 62//2 27//2 32//2 64//2
f 27//3 12//3 30//3 32//3
f 9//1 25//1 31//1 29//1
f 66//4 36//4 34//4 65//4
f 90//5 29//5 37//5 92//5
f 64//2 32//2 36//2 66//2
f 29//1 31//1 35//1 33//1
f 92//6 37//6 39//6 93//6
f 29//1 33//1 39//1 37//1
f 34//3 30//3 38//3 40//3
f 65//4 34//4 40//4 68//4
f 69//13 42//13 124//13 123//13
f 23//1 21//1 41//1 43//1
f 88//14 23//14 43//14 95//14
f 22//3 24//3 44//3 42//3
f 82//5 4//5 46//5 96//5
f 49//4 7//4 47//4 72//4
f 7//3 8//3 48//3 47//3
f 46//15 45//15 103//15 106//15
f 73//4 49//4 72//4 81//4
f 8//5 50//5 71//5 48//5
f 24//14 60//14 70//14 44//14
f 42//16 44//16 126//16 124//16
f 91//4 65//4 68//4 93//4
f 38//6 67//6 68//6 40//6
f 79//2 64//2 66//2 80//2
f 30//5 63//5 67//5 38//5
f 80//4 66//4 65//4 91//4
f 78//2 62//2 64//2 79//2
f 83//4 51//4 62//4 78//4
f 6//5 52//5 61//5 28//5
f 85//2 55//2 59//2 87//2
f 20//6 57//6 60//6 24//6
f 87//12 59//12 69//12 94//12
f 20//17 19//17 58//17 57//17
f 84//4 53//4 55//4 85//4
f 11//18 54//18 56//18 15//18
f 15//7 56//7 58//7 19//7
f 28//5 61//5 54//5 11//5
f 12//6 53//6 63//6 30//6
f 48//5 71//5 52//5 6//5
f 81//4 72//4 51//4 83//4
f 50//3 49//3 121//3 120//3
f 3//2 4//2 82//2 73//2
f 45//4 81//4 83//4 1//4
f 9//4 84//4 85//4 13//4
f 21//12 87//12 94//12 41//12
f 13//2 85//2 87//2 21//2
f 1//4 83//4 78//4 25//4
f 25//2 78//2 79//2 31//2
f 35//4 80//4 91//4 33//4
f 31//2 79//2 80//2 35//2
f 33//4 91//4 93//4 39//4
f 70//19 95//19 130//19 125//19
f 3//4 73//4 81//4 45//4
f 50//5 82//5 96//5 71//5
f 60//14 88//14 95//14 70//14
f 67//6 92//6 93//6 68//6
f 63//5 90//5 92//5 67//5
f 52//3 71//3 100//3 101//3
f 57//6 86//6 88//6 60//6
f 57//20 58//20 77//20 86//20
f 54//21 75//21 76//21 56//21
f 56//7 76//7 77//7 58//7
f 61//5 89//5 75//5 54//5
f 53//6 84//6 90//6 63//6
f 89//6 61//6 98//6 97//6
f 101//5 102//5 97//5 98//5
f 100//5 99//5 102//5 101//5
f 61//3 52//3 101//3 98//3
f 74//1 89//1 97//1 102//1
f 71//2 96//2 99//2 100//2
f 96//1 74//1 102//1 99//1
f 106//2 103//2 107//2 110//2
f 1//22 2//22 105//22 104//22
f 2//23 46//23 106//23 105//23
f 45//24 1//24 104//24 103//24
f 109//5 110//5 114//5 113//5
f 104//6 105//6 109//6 108//6
f 105//5 106//5 110//5 109//5
f 103//4 104//4 108//4 107//4
f 113//5 114//5 118//5 117//5
f 107//4 108//4 112//4 111//4
f 110//2 107//2 111//2 114//2
f 108//6 109//6 113//6 112//6
f 116//1 117//1 118//1 115//1
f 111//4 112//4 116//4 115//4
f 114//2 111//2 115//2 118//2
f 122//2 119//2 120//2 121//2
f 82//5 50//5 120//5 119//5
f 73//1 82//1 119//1 122//1
f 49//4 73//4 122//4 121//4
f 123//4 124//4 126//4 125//4
f 129//4 123//4 125//4 130//4
f 128//4 129//4 130//4 127//4
f 95//19 43//19 127//19 130//19
f 94//13 69//13 123//13 129//13
f 43//25 41//25 128//25 127//25
f 44//19 70//19 125//19 126//19
f 41//13 94//13 129//13 128//13
o Cube.048_Cube.024
v -491.850830 554.478394 147.216522
v -640.448364 377.163330 77.390556
v -373.781433 538.318359 -63.012024
v -522.648193 360.116302 -133.834198
v -648.874451 670.729309 -17.585320
v -725.064514 579.814880 -53.387024
v -588.336914 662.443665 -125.375389
v -664.064087 571.550171 -160.640717
v -386.831390 450.824280 -511.202972
v -282.419067 510.078400 -471.082489
v -341.982727 621.375916 -480.445770
v -446.395050 562.121826 -520.566345
v -313.454895 492.372925 -710.655029
v -236.688721 535.937927 -681.157471
v -280.481140 617.766357 -688.041565
v -357.247498 574.201416 -717.539185
v -266.803650 521.125427 -835.004822
v -210.703979 552.962219 -813.448303
v -242.706940 612.761353 -818.479065
v -298.806702 580.924622 -840.035461
v -452.861145 626.597229 -93.132439
v -610.186157 438.533020 -166.639832
v -578.313721 643.859924 130.014038
v -736.068359 455.618103 55.885201
v -307.230255 568.046143 -479.819977
v -418.076782 505.140564 -522.412842
v -250.310211 579.856628 -701.524719
v -331.807007 533.607056 -732.839783
v -216.466309 586.236633 -840.983765
v -276.023193 552.438049 -863.868408
v -235.666931 526.303711 -923.684814
v -179.567078 558.140442 -902.128601
v -184.960571 597.335876 -939.368896
v -244.517334 563.537231 -962.253845
v -267.357544 591.113708 -936.928894
v -211.257812 622.950439 -915.372620
v -213.917145 531.201050 -987.520691
v -157.817444 563.037720 -965.964294
v -163.210815 602.233032 -1003.204651
v -222.767578 568.434570 -1026.089600
v -245.607971 596.010986 -1000.764709
v -189.508118 627.847656 -979.208313
v -179.108582 518.340088 -1020.883484
v -142.999573 538.831970 -1007.008728
v -146.471191 564.060242 -1030.978516
v -184.805176 542.305664 -1045.708496
v -226.730103 604.224060 -1068.634888
v -249.570496 631.800537 -1043.310059
v -193.470642 663.637268 -1021.753845
v -167.173401 638.022705 -1045.750122
v -156.018188 508.240540 -1043.558960
v -131.674622 522.055542 -1034.204834
v -134.014954 539.063721 -1050.364746
v -159.858765 524.397461 -1060.295166
v -137.790710 507.751343 -1072.835083
v -122.573181 516.387329 -1066.987793
v -124.036194 527.019409 -1077.089600
v -140.191345 517.851318 -1083.297363
v -223.003052 633.625549 -1083.591797
v -238.189941 651.961426 -1066.752808
v -200.888519 673.130066 -1052.419800
v -183.402893 656.098633 -1068.375488
v -314.236206 453.390137 469.654144
v -452.132324 293.368896 352.285309
v -129.148865 331.334015 377.931793
v -253.693268 183.653381 268.726715
v -301.529816 531.732544 226.690521
v -372.233032 449.685181 166.512238
v -198.956329 469.415100 190.450272
v -270.487793 393.431000 123.669388
v 41.558899 88.757935 26.763062
v -16.027649 -12.831726 67.271614
v 64.884094 -23.073730 159.925568
v 123.576111 76.902100 122.445961
v 172.225403 -47.039978 -79.898659
v 127.825256 -123.681213 -51.336189
v 188.126160 -132.397888 19.012062
v 232.526428 -55.756592 -9.550377
v 254.362915 -133.910156 -144.496613
v 221.915649 -189.918640 -123.623512
v 265.982788 -196.288574 -72.213921
v 298.429993 -140.280212 -93.087013
v -136.063416 410.084229 303.833740
v -274.044464 259.090759 174.455170
v -338.318298 545.449463 387.764435
v -484.712006 375.567261 263.162933
v 23.639893 -27.755310 111.413727
v 87.751404 82.910522 70.170990
v 167.806519 -140.953552 -26.188942
v 214.942688 -59.589417 -56.511421
v 259.078064 -210.027039 -112.983727
v 293.524536 -150.567200 -135.142883
v 307.921204 -186.206909 -201.567230
v 275.473999 -242.215149 -180.694122
v 322.189514 -268.352966 -171.382690
v 356.635925 -208.893250 -193.542023
v 360.072937 -197.679626 -151.282013
v 327.625916 -253.687927 -130.408875
v 347.281189 -223.919312 -241.574860
v 314.834045 -279.927429 -220.701752
v 361.549622 -306.065491 -211.390411
v 395.996155 -246.605530 -233.549805
v 399.433044 -235.391846 -191.289490
v 366.985779 -291.400208 -170.416473
v 349.692566 -254.653748 -280.813721
v 328.807678 -290.703796 -267.378601
v 358.876282 -307.527649 -261.385376
v 381.048035 -269.256042 -275.648346
v 444.655334 -273.600525 -230.343994
v 448.092224 -262.386597 -188.083832
v 415.645203 -318.395142 -167.210785
v 410.208801 -333.060303 -208.184601
v 351.080627 -274.380310 -308.350433
v 337.000671 -298.684021 -299.293030
v 357.272278 -310.026489 -295.252594
v 372.219788 -284.224731 -304.868195
v 363.812561 -296.950317 -331.111633
v 355.011047 -312.143066 -325.449829
v 367.682922 -319.233154 -322.923859
v 377.026794 -303.104126 -328.934723
v 465.844055 -295.939026 -217.931641
v 468.129333 -288.482788 -189.832153
v 446.554626 -325.723267 -175.953369
v 442.939880 -335.474487 -203.197357
vn 0.6190 -0.6761 0.3997
vn -0.4951 0.7830 -0.3766
vn -0.6193 0.6745 -0.4019
vn -0.3068 -0.1149 0.9448
vn 0.2416 0.9685 0.0610
vn -0.5805 -0.7697 -0.2656
vn -0.4448 0.8835 -0.1471
vn 0.7821 0.6002 0.1677
vn -0.8078 -0.3293 -0.4888
vn 0.6480 -0.7509 0.1277
vn -0.8397 -0.3518 -0.4138
vn 0.8820 0.4026 0.2448
vn -0.8317 -0.3885 -0.3968
vn 0.4935 -0.8698 0.0004
vn 0.7941 0.5212 0.3128
vn 0.4975 -0.8673 -0.0139
vn -0.4395 0.8836 -0.1612
vn 0.9006 0.3689 0.2300
vn 0.7910 0.5736 0.2128
vn 0.4584 -0.8820 0.1095
vn -0.7572 -0.5276 -0.3851
vn 0.8075 0.5418 0.2331
vn -0.7301 -0.5565 -0.3965
vn -0.6047 -0.6791 -0.4162
vn 0.4435 0.8889 0.1150
vn -0.8348 -0.3192 -0.4485
vn 0.6518 0.6908 0.3130
vn -0.7639 0.4631 0.4495
vn -0.4649 0.8807 -0.0908
vn -0.7997 -0.5131 -0.3118
vn -0.4746 0.8780 -0.0617
vn 0.8500 0.4177 0.3210
vn -0.7971 -0.5170 -0.3119
vn -0.8526 -0.4133 -0.3199
vn 0.7971 0.4966 0.3435
vn 0.2384 -0.7964 0.5558
vn 0.8478 0.4219 0.3212
vn 0.7934 0.5236 0.3105
vn -0.8530 -0.4107 -0.3221
vn 0.4649 -0.8807 0.0908
vn -0.0348 0.6016 -0.7980
vn -0.6523 -0.6146 -0.4436
vn 0.9420 0.2901 0.1690
vn -0.0186 0.5829 -0.8123
vn 0.7166 0.6962 0.0422
vn -0.8507 -0.4386 -0.2897
vn -0.5608 0.6071 0.5629
vn 0.5608 -0.6071 -0.5629
vn -0.2859 0.8291 -0.4804
vn 0.9298 0.3126 0.1944
vn -0.6785 -0.6001 -0.4236
vn 0.2237 -0.7852 0.5775
vn 0.5499 -0.5343 -0.6420
vn 0.9259 0.3192 0.2019
vn -0.6864 -0.5955 -0.4174
vn 0.3980 -0.8790 0.2625
vn -0.0711 0.6421 -0.7633
vn -0.8183 -0.1748 -0.5476
vn 0.5279 -0.4373 -0.7281
vn -0.5617 0.7422 0.3656
vn 0.0064 -0.5964 0.8026
vn 0.7758 0.6290 0.0492
vn 0.0414 0.6028 -0.7968
vn -0.7895 0.2795 0.5464
vn 0.5650 0.8209 0.0827
vn -0.5690 -0.6976 -0.4354
vn 0.6908 -0.1378 0.7098
vn 0.7850 -0.1174 0.6082
vn -0.1092 0.0450 -0.9930
vn -0.3455 -0.8422 0.4138
vn 0.6047 0.7487 -0.2715
vn -0.4992 -0.8476 0.1800
vn 0.5730 0.7659 -0.2916
vn -0.6105 0.0428 -0.7909
vn -0.4370 -0.8271 0.3534
vn -0.5902 0.0415 -0.8062
vn 0.7001 -0.1451 0.6991
vn -0.4893 -0.8575 0.1592
vn -0.3384 -0.8793 0.3352
vn -0.6698 0.1146 -0.7336
vn 0.4705 0.7807 -0.4112
vn -0.3524 -0.8664 0.3539
vn 0.4538 0.7705 -0.4476
vn -0.5460 -0.3527 -0.7599
vn 0.9144 0.3958 0.0854
vn -0.5043 -0.2936 -0.8121
vn 0.6239 0.5857 0.5174
vn -0.6581 0.7225 -0.2118
vn 0.6584 -0.1036 0.7455
vn 0.4423 0.8278 -0.3451
vn 0.6402 -0.0864 0.7633
vn -0.5131 -0.8167 0.2640
vn 0.4396 0.8277 -0.3488
vn 0.5154 0.8168 -0.2593
vn -0.4717 -0.8085 0.3519
vn -0.8624 0.3714 -0.3439
vn -0.5105 -0.8171 0.2679
vn -0.4339 -0.8285 0.3541
vn 0.5183 0.8152 -0.2585
vn -0.6584 0.1036 -0.7455
vn 0.8646 -0.5024 -0.0039
vn 0.4266 0.7246 -0.5413
vn -0.4955 -0.8671 0.0519
vn 0.8598 -0.5097 -0.0311
vn -0.1217 -0.9293 0.3488
vn 0.4814 0.8367 -0.2612
vn 0.1013 0.2954 0.9500
vn -0.1013 -0.2954 -0.9500
vn 0.8425 -0.3291 0.4265
vn -0.4996 -0.8618 0.0872
vn 0.4306 0.7438 -0.5112
vn -0.8669 0.3835 -0.3184
vn -0.0065 -0.3459 -0.9383
vn -0.5007 -0.8601 0.0978
vn 0.4317 0.7496 -0.5018
vn -0.7540 0.2042 -0.6243
vn 0.8730 -0.4843 0.0575
vn 0.7661 0.6031 -0.2223
vn 0.1089 -0.4019 -0.9092
vn 0.3056 0.1719 0.9365
usemtl Matériau.012
s off
f 131//26 132//26 134//26 133//26
f 138//27 137//27 141//27 142//27
f 137//28 138//28 136//28 135//28
f 153//29 154//29 132//29 131//29
f 151//30 137//30 135//30 153//30
f 152//31 134//31 132//31 154//31
f 142//32 141//32 145//32 146//32
f 151//33 133//33 140//33 155//33
f 152//34 138//34 142//34 156//34
f 133//35 134//35 139//35 140//35
f 158//36 146//36 150//36 160//36
f 155//37 140//37 144//37 157//37
f 156//38 142//38 146//38 158//38
f 140//39 139//39 143//39 144//39
f 149//40 159//40 163//40 166//40
f 144//41 143//41 147//41 148//41
f 146//42 145//42 149//42 150//42
f 157//43 144//43 148//43 159//43
f 145//44 157//44 159//44 149//44
f 148//45 147//45 161//45 162//45
f 139//46 156//46 158//46 143//46
f 141//47 155//47 157//47 145//47
f 143//48 158//48 160//48 147//48
f 134//49 152//49 156//49 139//49
f 137//50 151//50 155//50 141//50
f 138//51 152//51 154//51 136//51
f 133//52 151//52 153//52 131//52
f 135//53 136//53 154//53 153//53
f 165//54 166//54 172//54 171//54
f 161//55 164//55 170//55 167//55
f 150//56 149//56 166//56 165//56
f 159//57 148//57 162//57 163//57
f 147//58 160//58 164//58 161//58
f 160//59 150//59 165//59 164//59
f 172//60 169//60 180//60 179//60
f 168//61 167//61 173//61 174//61
f 163//62 162//62 168//62 169//62
f 166//63 163//63 169//63 172//63
f 164//64 165//64 171//64 170//64
f 162//65 161//65 167//65 168//65
f 176//66 175//66 183//66 184//66
f 167//67 170//67 176//67 173//67
f 169//68 168//68 174//68 175//68
f 170//69 169//69 175//69 176//69
f 179//70 180//70 192//70 191//70
f 170//71 171//71 178//71 177//71
f 171//72 172//72 179//72 178//72
f 169//73 170//73 177//73 180//73
f 184//74 183//74 187//74 188//74
f 175//75 174//75 182//75 183//75
f 173//76 176//76 184//76 181//76
f 174//77 173//77 181//77 182//77
f 186//78 185//78 188//78 187//78
f 183//79 182//79 186//79 187//79
f 181//80 184//80 188//80 185//80
f 182//81 181//81 185//81 186//81
f 192//82 189//82 190//82 191//82
f 177//83 178//83 190//83 189//83
f 180//84 177//84 189//84 192//84
f 178//85 179//85 191//85 190//85
f 193//86 194//86 196//86 195//86
f 200//87 199//87 203//87 204//87
f 199//88 200//88 198//88 197//88
f 215//89 216//89 194//89 193//89
f 213//90 199//90 197//90 215//90
f 214//91 196//91 194//91 216//91
f 204//92 203//92 207//92 208//92
f 213//93 195//93 202//93 217//93
f 214//94 200//94 204//94 218//94
f 195//95 196//95 201//95 202//95
f 220//96 208//96 212//96 222//96
f 217//97 202//97 206//97 219//97
f 218//98 204//98 208//98 220//98
f 202//99 201//99 205//99 206//99
f 211//100 221//100 225//100 228//100
f 206//101 205//101 209//101 210//101
f 208//102 207//102 211//102 212//102
f 219//103 206//103 210//103 221//103
f 207//104 219//104 221//104 211//104
f 210//105 209//105 223//105 224//105
f 201//106 218//106 220//106 205//106
f 203//107 217//107 219//107 207//107
f 205//108 220//108 222//108 209//108
f 196//109 214//109 218//109 201//109
f 199//110 213//110 217//110 203//110
f 200//111 214//111 216//111 198//111
f 195//112 213//112 215//112 193//112
f 197//113 198//113 216//113 215//113
f 227//114 228//114 234//114 233//114
f 223//115 226//115 232//115 229//115
f 212//116 211//116 228//116 227//116
f 221//117 210//117 224//117 225//117
f 209//118 222//118 226//118 223//118
f 222//119 212//119 227//119 226//119
f 234//120 231//120 242//120 241//120
f 230//121 229//121 235//121 236//121
f 225//122 224//122 230//122 231//122
f 228//123 225//123 231//123 234//123
f 226//124 227//124 233//124 232//124
f 224//125 223//125 229//125 230//125
f 238//126 237//126 245//126 246//126
f 229//127 232//127 238//127 235//127
f 231//128 230//128 236//128 237//128
f 232//129 231//129 237//129 238//129
f 241//130 242//130 254//130 253//130
f 232//131 233//131 240//131 239//131
f 233//132 234//132 241//132 240//132
f 231//133 232//133 239//133 242//133
f 246//134 245//134 249//134 250//134
f 237//135 236//135 244//135 245//135
f 235//136 238//136 246//136 243//136
f 236//137 235//137 243//137 244//137
f 248//138 247//138 250//138 249//138
f 245//139 244//139 248//139 249//139
f 243//140 246//140 250//140 247//140
f 244//141 243//141 247//141 248//141
f 254//142 251//142 252//142 253//142
f 239//143 240//143 252//143 251//143
f 242//144 239//144 251//144 254//144
f 240//145 241//145 253//145 252//145
