# Blender v2.91.2 OBJ File: 'camionnete02.blend'
# www.blender.org
mtllib arme_000212.mtl
o Cube.046_Cube.010
v -36.896347 99.527802 -1262.959961
v -62.819221 -108.628754 -1195.299194
v -2.406624 28.360535 -1468.689819
v -28.329559 -179.796051 -1401.029053
v -253.038849 113.136780 -1303.903076
v -278.961761 -95.019806 -1236.242188
v -218.549072 41.969513 -1509.632812
v -244.472031 -166.187103 -1441.972168
v -84.381889 197.510956 -979.710754
v -110.304779 -10.645538 -912.049866
v -326.447235 2.963425 -952.992859
v -300.524323 211.119995 -1020.653748
v -105.872147 241.854858 -851.521729
v -131.795090 33.698288 -783.860962
v -347.937561 47.307266 -824.803955
v -322.014648 255.463806 -892.464783
v -118.567711 268.051208 -775.793457
v -135.137665 112.248108 -739.198303
v -351.280151 125.857117 -780.141357
v -334.710175 281.660248 -816.736450
v -76.973244 182.223785 -1023.902771
v -102.896164 -25.932709 -956.241943
v -293.115723 195.832825 -1064.845947
v -319.038635 -12.323746 -997.184998
v -14.582611 53.484741 -1396.060913
v -40.505512 -154.671814 -1328.400024
v -230.725052 67.093750 -1437.003906
v -256.647888 -141.062805 -1369.343018
v -110.477875 35.165009 -1489.161377
v -136.400787 -172.991608 -1421.500488
v -144.967560 106.332275 -1283.431519
v -170.890472 -101.824310 -1215.770752
v -192.453064 204.315521 -1000.182129
v -218.376007 -3.841080 -932.521301
v -213.943390 248.659393 -871.993225
v -231.611038 52.740448 -795.392334
v -226.638916 274.855682 -796.265015
v -233.864960 105.706848 -765.276245
v -210.967422 -19.128250 -976.713501
v -185.044495 189.028259 -1044.374268
v -148.576736 -147.867340 -1348.871582
v -122.653793 60.289337 -1416.532349
v -56.442192 31.762817 -1478.925537
v -116.854881 -105.226532 -1205.534912
v -164.340424 -7.243317 -922.285583
v -195.174713 50.446304 -788.490295
v -197.428589 103.412659 -758.374268
v -131.008850 185.626099 -1034.138428
v -68.618202 56.887024 -1406.296631
v -82.365128 -176.393799 -1411.264893
v -90.932037 102.930054 -1273.195801
v -138.417526 200.913208 -989.946533
v -159.907806 245.257141 -861.757446
v -172.603333 271.453491 -786.029236
v -156.931778 -22.530502 -966.477661
v -94.541168 -151.269592 -1338.635864
v -161.785492 -61.504974 -953.809143
v -215.821121 -58.102722 -964.044922
v -99.394936 -190.244049 -1325.967407
v -153.430435 -186.841797 -1336.203125
v -175.744202 -140.798767 -1203.102173
v -121.708588 -144.201019 -1192.866333
v 63.079651 2.533569 -1322.807739
v 53.212677 22.893250 -1263.951904
v 41.749977 -69.151428 -1234.032837
v 51.616760 -89.511169 -1292.888916
v 109.786804 -0.407288 -1313.960205
v 99.919922 19.952454 -1255.104370
v 88.457153 -72.092255 -1225.185425
v 98.324005 -92.451965 -1284.041382
v 181.263794 -4.907715 -1300.420776
v 171.396881 15.452026 -1241.564819
v 159.934021 -76.592651 -1211.645874
v 169.800873 -96.952393 -1270.501831
v 227.258331 -7.803711 -1291.708252
v 217.391388 12.556091 -1232.852295
v 205.928650 -79.488617 -1202.933472
v 215.795471 -99.848328 -1261.789429
v 30.940498 -410.191467 -2087.126465
v -23.095131 -406.789307 -2097.362305
v 2.827660 -198.632690 -2165.023193
v 56.863342 -202.034851 -2154.787354
vn 0.9807 -0.0617 0.1858
vn 0.1565 -0.3229 -0.9334
vn -0.9807 0.0617 -0.1858
vn 0.1176 0.9444 -0.3070
vn -0.1176 -0.9444 0.3070
vn -0.1919 -0.4913 0.8496
vn -0.1995 -0.9259 0.3208
vn -0.2488 0.2190 0.9435
vn -0.9809 0.0617 -0.1844
vn 0.9809 -0.0617 0.1844
vn 0.5298 -0.3211 -0.7850
vn -0.1267 0.2109 0.9693
vn -0.0824 -0.9350 0.3449
vn -0.1717 0.1846 0.9677
vn -0.1277 -0.9211 0.3677
vn -0.1919 -0.4912 0.8496
vn -0.1565 0.3229 0.9334
vn 0.2420 0.2725 0.9312
vn 0.4430 -0.8217 0.3585
vn 0.6392 0.7536 -0.1535
usemtl Matériau.011
s off
f 25//1 26//1 4//1 3//1
f 29//2 30//2 8//2 7//2
f 27//3 28//3 6//3 5//3
f 22//1 21//1 9//1 10//1
f 42//4 27//4 5//4 31//4
f 56//5 26//5 2//5 44//5
f 10//1 9//1 13//1 14//1
f 55//5 22//5 10//5 45//5
f 23//3 24//3 11//3 12//3
f 46//6 14//6 18//6 47//6
f 45//7 10//7 14//7 46//7
f 12//3 11//3 15//3 16//3
f 33//4 12//4 16//4 35//4
f 54//8 47//8 18//8 17//8
f 16//9 15//9 19//9 20//9
f 14//10 13//10 17//10 18//10
f 5//3 6//3 24//3 23//3
f 44//5 2//5 22//5 55//5
f 31//4 5//4 23//4 40//4
f 2//1 1//1 21//1 22//1
f 50//5 4//5 26//5 56//5
f 29//4 7//4 27//4 42//4
f 7//3 8//3 28//3 27//3
f 26//11 25//11 63//11 66//11
f 43//4 29//4 42//4 49//4
f 8//5 30//5 41//5 28//5
f 51//4 31//4 40//4 48//4
f 6//5 32//5 39//5 24//5
f 20//12 19//12 38//12 37//12
f 52//4 33//4 35//4 53//4
f 11//13 34//13 36//13 15//13
f 15//6 36//6 38//6 19//6
f 24//5 39//5 34//5 11//5
f 28//5 41//5 32//5 6//5
f 49//4 42//4 31//4 51//4
f 30//3 29//3 81//3 80//3
f 3//2 4//2 50//2 43//2
f 25//4 49//4 51//4 1//4
f 9//4 52//4 53//4 13//4
f 1//4 51//4 48//4 21//4
f 3//4 43//4 49//4 25//4
f 30//5 50//5 56//5 41//5
f 32//3 41//3 60//3 61//3
f 37//14 38//14 47//14 54//14
f 34//15 45//15 46//15 36//15
f 36//16 46//16 47//16 38//16
f 39//5 55//5 45//5 34//5
f 55//17 39//17 58//17 57//17
f 61//5 62//5 57//5 58//5
f 60//5 59//5 62//5 61//5
f 39//3 32//3 61//3 58//3
f 44//1 55//1 57//1 62//1
f 41//2 56//2 59//2 60//2
f 56//1 44//1 62//1 59//1
f 66//2 63//2 67//2 70//2
f 1//18 2//18 65//18 64//18
f 2//19 26//19 66//19 65//19
f 25//20 1//20 64//20 63//20
f 69//5 70//5 74//5 73//5
f 64//17 65//17 69//17 68//17
f 65//5 66//5 70//5 69//5
f 63//4 64//4 68//4 67//4
f 73//5 74//5 78//5 77//5
f 67//4 68//4 72//4 71//4
f 70//2 67//2 71//2 74//2
f 68//17 69//17 73//17 72//17
f 76//1 77//1 78//1 75//1
f 71//4 72//4 76//4 75//4
f 74//2 71//2 75//2 78//2
f 82//2 79//2 80//2 81//2
f 50//5 30//5 80//5 79//5
f 43//1 50//1 79//1 82//1
f 29//4 43//4 82//4 81//4
o Cube.048_Cube.024
v -463.679199 590.345886 110.977303
v -622.927917 413.062561 151.077240
v -404.053497 489.029236 -100.155952
v -565.836060 310.454254 -61.438629
v -659.654663 651.709412 -41.201813
v -741.305847 560.811279 -20.641457
v -629.082886 599.761475 -149.455750
v -710.507385 509.028534 -128.786652
v -512.757019 249.893616 -473.892548
v -400.578125 307.715820 -464.140228
v -452.144318 415.013672 -507.160370
v -564.323242 357.191467 -516.912720
v -457.258667 213.678894 -680.047852
v -374.782257 256.191101 -672.877502
v -412.694916 335.078857 -704.506958
v -495.171356 292.566711 -711.677063
v -421.544464 193.668884 -809.623840
v -361.271759 224.736206 -804.383972
v -388.977814 282.386353 -827.498291
v -449.250549 251.319061 -832.738098
v -489.480103 566.705444 -140.534088
v -659.728271 378.816071 -98.890053
v -552.829956 674.371582 83.542953
v -721.892029 486.163483 126.113998
v -421.670349 361.636292 -490.595734
v -540.762085 300.250916 -500.949066
v -387.037476 291.855957 -706.149902
v -474.596405 246.724060 -713.761963
v -367.276642 247.189575 -841.240173
v -431.263519 214.207764 -846.802917
v -399.356262 165.289795 -896.588318
v -339.083588 196.357117 -891.348450
v -345.266357 221.037018 -939.357666
v -409.253387 188.055176 -944.920471
v -427.213074 224.824188 -929.141174
v -366.940186 255.891479 -923.901672
v -383.953644 146.026245 -959.546326
v -323.680908 177.093567 -954.306396
v -329.863861 201.773499 -1002.315613
v -393.850769 168.791687 -1007.878357
v -411.810394 205.560669 -992.099304
v -351.537689 236.627960 -986.859436
v -353.827484 119.035522 -988.770203
v -315.032684 139.032104 -985.397400
v -319.012177 154.917480 -1016.298889
v -360.197815 133.688599 -1019.879333
v -399.417358 188.344360 -1059.776611
v -417.377106 225.113403 -1043.997192
v -357.104370 256.180725 -1038.757324
v -335.430481 221.326233 -1054.213745
v -334.018433 99.480713 -1008.123474
v -307.864105 112.961914 -1005.849548
v -310.547028 123.671387 -1026.682373
v -338.312988 109.359497 -1029.096313
v -318.977295 87.208008 -1036.631714
v -302.627960 95.635132 -1035.210327
v -304.305023 102.329773 -1048.233276
v -321.661896 93.383179 -1049.742310
v -395.016205 210.404999 -1084.189575
v -406.957733 234.853210 -1073.697754
v -366.881653 255.510254 -1070.213745
v -352.470459 232.334991 -1080.490967
v -313.276245 441.910339 476.044220
v -383.814362 250.696960 346.200500
v -141.852234 489.502319 311.458771
v -214.324432 300.205139 181.216614
v -446.314789 546.612061 284.553711
v -482.481628 448.571655 217.979187
v -349.198212 573.218384 201.201691
v -395.579437 473.955811 133.387329
v -120.394714 316.668182 -91.656990
v -63.176819 244.307007 -7.851540
v 47.538025 288.554993 -43.154106
v -6.705322 360.060577 -126.506157
v -85.231445 158.260681 -235.052002
v -44.690063 101.578735 -173.370361
v 38.896912 133.481750 -198.992188
v -1.644409 190.163757 -260.673950
v -60.503357 58.564758 -324.018982
v -30.876282 17.142334 -278.942810
v 30.207825 40.456665 -297.666901
v 0.580872 81.879028 -342.743042
v -217.417206 559.723999 270.073181
v -307.951599 360.164307 129.923950
v -413.001190 510.601807 442.919769
v -487.886047 307.605225 305.074646
v -6.376282 254.891113 -26.498810
v -64.915894 336.736877 -115.563911
v -0.524780 102.294250 -197.414886
v -43.564453 162.469177 -262.897400
v 2.195496 8.095520 -305.831512
v -29.257263 52.070557 -353.685394
v -58.082947 -9.924255 -388.547211
v -28.455933 -51.346558 -343.471039
v 10.364929 -65.441101 -378.777069
v -21.087952 -21.466064 -426.630829
v 7.866516 9.118286 -414.394806
v 37.493591 -32.304138 -369.318634
v -55.142517 -58.690735 -435.293610
v -25.515503 -100.113281 -390.217377
v 13.305298 -114.207764 -425.523468
v -18.147461 -70.232666 -473.377228
v 10.806946 -39.648254 -461.141083
v 40.434021 -81.070801 -416.064911
v -70.055786 -104.268433 -449.091949
v -50.986145 -130.930115 -420.078522
v -25.998962 -140.002319 -442.803406
v -46.243713 -111.697510 -473.604767
v 17.125916 -87.867493 -512.766541
v 46.080261 -57.283142 -500.530304
v 75.707458 -98.705627 -455.454376
v 48.578674 -131.842407 -464.912872
v -81.523254 -134.678223 -458.739410
v -68.667114 -152.652832 -439.179321
v -51.821472 -158.769104 -454.499908
v -65.469910 -139.686646 -475.265350
v -83.275269 -164.242493 -476.416473
v -75.238770 -175.478577 -464.189117
v -64.708313 -179.301636 -473.766144
v -73.240112 -167.373352 -486.746796
v 46.098450 -99.398376 -524.153931
v 65.350647 -79.062500 -516.017883
v 85.050049 -106.604736 -486.046112
v 67.011719 -128.637939 -492.334991
vn 0.7090 -0.5389 0.4548
vn -0.5352 0.6586 -0.5291
vn -0.7107 0.5342 -0.4577
vn -0.0493 0.2623 0.9637
vn 0.2363 0.9003 -0.3656
vn -0.6204 -0.7596 0.1954
vn -0.3890 0.8242 -0.4116
vn 0.8096 0.5463 -0.2148
vn -0.8972 -0.4015 -0.1840
vn 0.6453 -0.7148 0.2697
vn -0.9020 -0.3790 -0.2068
vn 0.9305 0.3651 0.0281
vn -0.8951 -0.4085 -0.1788
vn 0.4233 -0.8660 0.2661
vn 0.8593 0.5083 0.0570
vn 0.4260 -0.8690 0.2516
vn -0.3852 0.8190 -0.4252
vn 0.9448 0.3266 0.0247
vn 0.8500 0.5240 -0.0545
vn 0.3988 -0.8369 0.3749
vn -0.8306 -0.5426 -0.1250
vn 0.8661 0.4993 -0.0256
vn -0.8071 -0.5764 -0.1276
vn -0.6913 -0.7222 -0.0227
vn 0.4676 0.8326 -0.2969
vn -0.9216 -0.3807 -0.0753
vn 0.7013 0.6994 -0.1377
vn -0.6270 0.6577 0.4175
vn -0.4034 0.8427 -0.3565
vn -0.8641 -0.4998 -0.0585
vn -0.4102 0.8511 -0.3277
vn 0.9077 0.4084 0.0964
vn -0.8619 -0.5038 -0.0574
vn -0.9098 -0.4036 -0.0968
vn 0.8636 0.4953 0.0940
vn 0.2328 -0.5830 0.7784
vn 0.9059 0.4125 0.0954
vn 0.8585 0.5099 0.0540
vn -0.9103 -0.4018 -0.0998
vn 0.4034 -0.8427 0.3565
vn -0.0705 0.2973 -0.9522
vn -0.7392 -0.6549 -0.1571
vn 0.9736 0.2279 -0.0082
vn -0.0574 0.2733 -0.9602
vn 0.7680 0.5890 -0.2513
vn -0.9068 -0.4172 -0.0599
vn -0.4524 0.8175 0.3565
vn 0.4524 -0.8175 -0.3565
vn -0.2697 0.6440 -0.7159
vn 0.9659 0.2588 0.0087
vn -0.7621 -0.6319 -0.1416
vn 0.2213 -0.5635 0.7959
vn 0.4389 -0.7749 -0.4549
vn 0.9633 0.2679 0.0137
vn -0.7689 -0.6246 -0.1368
vn 0.3547 -0.7762 0.5213
vn -0.0999 0.3508 -0.9311
vn -0.8810 -0.2610 -0.3946
vn 0.4157 -0.7108 -0.5674
vn -0.4631 0.8774 0.1253
vn 0.6450 -0.5814 0.4959
vn 0.2483 0.9099 -0.3323
vn -0.6248 0.6010 -0.4985
vn -0.5037 -0.3504 0.7896
vn -0.0403 0.9698 0.2406
vn -0.2513 -0.8252 -0.5058
vn 0.8981 0.2873 -0.3330
vn 0.9336 0.3265 0.1476
vn -0.6379 -0.1777 -0.7493
vn 0.1612 -0.9039 0.3961
vn -0.3202 0.5724 -0.7548
vn 0.3452 -0.6928 0.6331
vn -0.3570 0.5748 -0.7363
vn -0.8843 -0.4017 0.2380
vn 0.4899 -0.5861 0.6453
vn -0.8888 -0.4075 0.2097
vn 0.8998 0.2751 -0.3386
vn 0.3318 -0.7114 0.6195
vn 0.5409 -0.6316 0.5554
vn -0.8998 -0.3157 0.3013
vn -0.4991 0.5206 -0.6927
vn 0.5397 -0.6152 0.5747
vn -0.5294 0.4926 -0.6907
vn -0.6253 -0.6716 -0.3975
vn 0.6217 0.7705 -0.1412
vn -0.5688 -0.4164 -0.7093
vn 0.3393 0.7398 0.5810
vn -0.9520 0.1864 0.2427
vn 0.8991 0.3300 -0.2877
vn -0.4816 0.5912 -0.6470
vn 0.8973 0.3520 -0.2663
vn 0.3843 -0.6272 0.6775
vn -0.4856 0.5890 -0.6459
vn -0.3797 0.6297 -0.6777
vn 0.4657 -0.5736 0.6739
vn -0.7976 0.0800 0.5978
vn 0.3885 -0.6253 0.6768
vn 0.4924 -0.5866 0.6430
vn -0.3771 0.6290 -0.6799
vn -0.8991 -0.3300 0.2877
vn 0.5902 -0.3626 -0.7212
vn -0.5916 0.4047 -0.6973
vn 0.2503 -0.7725 0.5836
vn 0.5706 -0.3826 -0.7267
vn 0.6641 -0.6494 0.3705
vn -0.4045 0.6431 -0.6502
vn 0.6401 0.7273 0.2476
vn -0.6401 -0.7273 -0.2476
vn 0.8336 -0.0049 -0.5524
vn 0.2737 -0.7511 0.6008
vn -0.5757 0.4364 -0.6915
vn -0.7854 0.1025 0.6104
vn -0.5681 -0.7572 -0.3224
vn 0.2806 -0.7445 0.6058
vn -0.5706 0.4461 -0.6895
vn -0.8918 -0.1921 0.4096
vn 0.6328 -0.3164 -0.7067
vn -0.1465 0.4839 -0.8628
vn -0.4716 -0.7816 -0.4083
vn 0.7721 0.6314 0.0728
usemtl Matériau.012
s off
f 83//21 84//21 86//21 85//21
f 90//22 89//22 93//22 94//22
f 89//23 90//23 88//23 87//23
f 105//24 106//24 84//24 83//24
f 103//25 89//25 87//25 105//25
f 104//26 86//26 84//26 106//26
f 94//27 93//27 97//27 98//27
f 103//28 85//28 92//28 107//28
f 104//29 90//29 94//29 108//29
f 85//30 86//30 91//30 92//30
f 110//31 98//31 102//31 112//31
f 107//32 92//32 96//32 109//32
f 108//33 94//33 98//33 110//33
f 92//34 91//34 95//34 96//34
f 101//35 111//35 115//35 118//35
f 96//36 95//36 99//36 100//36
f 98//37 97//37 101//37 102//37
f 109//38 96//38 100//38 111//38
f 97//39 109//39 111//39 101//39
f 100//40 99//40 113//40 114//40
f 91//41 108//41 110//41 95//41
f 93//42 107//42 109//42 97//42
f 95//43 110//43 112//43 99//43
f 86//44 104//44 108//44 91//44
f 89//45 103//45 107//45 93//45
f 90//46 104//46 106//46 88//46
f 85//47 103//47 105//47 83//47
f 87//48 88//48 106//48 105//48
f 117//49 118//49 124//49 123//49
f 113//50 116//50 122//50 119//50
f 102//51 101//51 118//51 117//51
f 111//52 100//52 114//52 115//52
f 99//53 112//53 116//53 113//53
f 112//54 102//54 117//54 116//54
f 124//55 121//55 132//55 131//55
f 120//56 119//56 125//56 126//56
f 115//57 114//57 120//57 121//57
f 118//58 115//58 121//58 124//58
f 116//59 117//59 123//59 122//59
f 114//60 113//60 119//60 120//60
f 128//61 127//61 135//61 136//61
f 119//62 122//62 128//62 125//62
f 121//63 120//63 126//63 127//63
f 122//64 121//64 127//64 128//64
f 131//65 132//65 144//65 143//65
f 122//66 123//66 130//66 129//66
f 123//67 124//67 131//67 130//67
f 121//68 122//68 129//68 132//68
f 136//69 135//69 139//69 140//69
f 127//70 126//70 134//70 135//70
f 125//71 128//71 136//71 133//71
f 126//72 125//72 133//72 134//72
f 138//73 137//73 140//73 139//73
f 135//74 134//74 138//74 139//74
f 133//75 136//75 140//75 137//75
f 134//76 133//76 137//76 138//76
f 144//77 141//77 142//77 143//77
f 129//78 130//78 142//78 141//78
f 132//79 129//79 141//79 144//79
f 130//80 131//80 143//80 142//80
f 145//81 146//81 148//81 147//81
f 152//82 151//82 155//82 156//82
f 151//83 152//83 150//83 149//83
f 167//84 168//84 146//84 145//84
f 165//85 151//85 149//85 167//85
f 166//86 148//86 146//86 168//86
f 156//87 155//87 159//87 160//87
f 165//88 147//88 154//88 169//88
f 166//89 152//89 156//89 170//89
f 147//90 148//90 153//90 154//90
f 172//91 160//91 164//91 174//91
f 169//92 154//92 158//92 171//92
f 170//93 156//93 160//93 172//93
f 154//94 153//94 157//94 158//94
f 163//95 173//95 177//95 180//95
f 158//96 157//96 161//96 162//96
f 160//97 159//97 163//97 164//97
f 171//98 158//98 162//98 173//98
f 159//99 171//99 173//99 163//99
f 162//100 161//100 175//100 176//100
f 153//101 170//101 172//101 157//101
f 155//102 169//102 171//102 159//102
f 157//103 172//103 174//103 161//103
f 148//104 166//104 170//104 153//104
f 151//105 165//105 169//105 155//105
f 152//106 166//106 168//106 150//106
f 147//107 165//107 167//107 145//107
f 149//108 150//108 168//108 167//108
f 179//109 180//109 186//109 185//109
f 175//110 178//110 184//110 181//110
f 164//111 163//111 180//111 179//111
f 173//112 162//112 176//112 177//112
f 161//113 174//113 178//113 175//113
f 174//114 164//114 179//114 178//114
f 186//115 183//115 194//115 193//115
f 182//116 181//116 187//116 188//116
f 177//117 176//117 182//117 183//117
f 180//118 177//118 183//118 186//118
f 178//119 179//119 185//119 184//119
f 176//120 175//120 181//120 182//120
f 190//121 189//121 197//121 198//121
f 181//122 184//122 190//122 187//122
f 183//123 182//123 188//123 189//123
f 184//124 183//124 189//124 190//124
f 193//125 194//125 206//125 205//125
f 184//126 185//126 192//126 191//126
f 185//127 186//127 193//127 192//127
f 183//128 184//128 191//128 194//128
f 198//129 197//129 201//129 202//129
f 189//130 188//130 196//130 197//130
f 187//131 190//131 198//131 195//131
f 188//132 187//132 195//132 196//132
f 200//133 199//133 202//133 201//133
f 197//134 196//134 200//134 201//134
f 195//135 198//135 202//135 199//135
f 196//136 195//136 199//136 200//136
f 206//137 203//137 204//137 205//137
f 191//138 192//138 204//138 203//138
f 194//139 191//139 203//139 206//139
f 192//140 193//140 205//140 204//140
