# Blender v2.91.2 OBJ File: 'camionnete02.blend'
# www.blender.org
mtllib arme_000202.mtl
o Cube.046_Cube.010
v 85.436935 66.467575 -1213.731201
v 13.746262 -134.188919 -1157.370361
v 126.611572 -5.594742 -1417.914307
v 54.920868 -206.251266 -1361.553589
v -118.877014 122.352402 -1274.655640
v -190.567734 -78.304077 -1218.294922
v -77.702362 50.290085 -1478.838867
v -149.393127 -150.366409 -1422.478027
v 28.747604 165.683090 -932.611450
v -42.943100 -34.973373 -876.250610
v -247.257004 20.911469 -937.175049
v -175.566299 221.567978 -993.535828
v 3.092026 210.584641 -805.386169
v -68.598740 9.928162 -749.025391
v -272.912659 65.813034 -809.949829
v -201.221970 266.469543 -866.310669
v -12.064224 237.110428 -730.227295
v -61.524109 86.675583 -701.741455
v -265.838074 142.560532 -762.665833
v -216.378174 292.995361 -791.151611
v 37.592209 150.203598 -976.471191
v -34.098511 -50.452820 -920.110474
v -166.721771 206.088516 -1037.395752
v -238.412491 5.432037 -981.034912
v 112.075653 19.845474 -1345.831543
v 40.384918 -180.811050 -1289.470703
v -92.238297 75.730331 -1406.755859
v -163.928986 -124.926163 -1350.395020
v 24.454636 22.347672 -1448.376587
v -47.236115 -178.308884 -1392.015991
v -16.720032 94.409988 -1244.193604
v -88.410721 -106.246536 -1187.832642
v -73.409348 193.625504 -963.073608
v -145.100082 -7.030945 -906.712769
v -99.064972 238.527115 -835.848389
v -161.285583 48.093613 -769.307129
v -114.221176 265.052917 -760.689453
v -156.515137 99.844681 -737.423523
v -136.255508 -22.510422 -950.572632
v -64.564789 178.146103 -1006.933533
v -61.772034 -152.868637 -1319.932861
v 9.918686 47.787888 -1376.293579
v 75.533157 8.376511 -1433.145386
v -37.332245 -120.217728 -1172.601562
v -94.021606 -21.002167 -891.481689
v -126.843246 38.672791 -759.036804
v -122.072784 90.423813 -727.153015
v -13.486267 164.174850 -991.702332
v 60.997162 33.816696 -1361.062744
v 3.842392 -192.280075 -1376.784790
v 34.358444 80.438797 -1228.962402
v -22.330917 179.654251 -947.842590
v -47.986504 224.555893 -820.617310
v -63.142715 251.081680 -745.458374
v -85.177017 -36.481644 -935.341553
v -10.693619 -166.839798 -1304.701782
v -98.600113 -74.051804 -924.788818
v -149.678589 -60.080582 -940.019836
v -24.116737 -204.410019 -1294.149048
v -75.195175 -190.438797 -1309.380005
v -101.833862 -143.816696 -1177.279907
v -50.755363 -157.787918 -1162.048828
v 170.780396 -46.674026 -1267.585815
v 159.000977 -26.058182 -1209.172485
v 127.300232 -114.786484 -1184.250122
v 139.079437 -135.402267 -1242.663574
v 214.931519 -58.750412 -1254.420532
v 203.152161 -38.134598 -1196.007080
v 171.451294 -126.862839 -1171.084839
v 183.230621 -147.478653 -1229.498291
v 282.496887 -77.231216 -1234.273315
v 270.717499 -56.615372 -1175.859741
v 239.016632 -145.343613 -1150.937500
v 250.795898 -165.959457 -1209.351074
v 325.974274 -89.123398 -1221.308716
v 314.194885 -68.507553 -1162.895264
v 282.494141 -157.235794 -1137.973145
v 294.273438 -177.851578 -1196.386597
v 139.109283 -429.018311 -2047.565308
v 88.030746 -415.047058 -2062.796387
v 159.721375 -214.390457 -2119.157227
v 210.799988 -228.361710 -2103.926025
vn 0.9270 -0.2536 0.2764
vn 0.1868 -0.3270 -0.9264
vn -0.9270 0.2536 -0.2764
vn 0.3253 0.9104 -0.2557
vn -0.3253 -0.9104 0.2557
vn -0.3672 -0.4631 0.8066
vn -0.4031 -0.8767 0.2623
vn -0.2977 0.2426 0.9233
vn -0.9274 0.2535 -0.2751
vn 0.9274 -0.2535 0.2751
vn 0.5365 -0.4003 -0.7429
vn -0.1826 0.2105 0.9604
vn -0.2929 -0.9088 0.2972
vn -0.2314 0.1935 0.9534
vn -0.3369 -0.8869 0.3161
vn -0.1868 0.3270 0.9264
vn 0.1930 0.2008 0.9604
vn 0.2402 -0.8992 0.3658
vn 0.7828 0.6194 -0.0607
usemtl Matériau.011
s off
f 25//1 26//1 4//1 3//1
f 29//2 30//2 8//2 7//2
f 27//3 28//3 6//3 5//3
f 22//1 21//1 9//1 10//1
f 42//4 27//4 5//4 31//4
f 56//5 26//5 2//5 44//5
f 10//1 9//1 13//1 14//1
f 55//5 22//5 10//5 45//5
f 23//3 24//3 11//3 12//3
f 46//6 14//6 18//6 47//6
f 45//7 10//7 14//7 46//7
f 12//3 11//3 15//3 16//3
f 33//4 12//4 16//4 35//4
f 54//8 47//8 18//8 17//8
f 16//9 15//9 19//9 20//9
f 14//10 13//10 17//10 18//10
f 5//3 6//3 24//3 23//3
f 44//5 2//5 22//5 55//5
f 31//4 5//4 23//4 40//4
f 2//1 1//1 21//1 22//1
f 50//5 4//5 26//5 56//5
f 29//4 7//4 27//4 42//4
f 7//3 8//3 28//3 27//3
f 26//11 25//11 63//11 66//11
f 43//4 29//4 42//4 49//4
f 8//5 30//5 41//5 28//5
f 51//4 31//4 40//4 48//4
f 6//5 32//5 39//5 24//5
f 20//12 19//12 38//12 37//12
f 52//4 33//4 35//4 53//4
f 11//13 34//13 36//13 15//13
f 15//6 36//6 38//6 19//6
f 24//5 39//5 34//5 11//5
f 28//5 41//5 32//5 6//5
f 49//4 42//4 31//4 51//4
f 30//3 29//3 81//3 80//3
f 3//2 4//2 50//2 43//2
f 25//4 49//4 51//4 1//4
f 9//4 52//4 53//4 13//4
f 1//4 51//4 48//4 21//4
f 3//4 43//4 49//4 25//4
f 30//5 50//5 56//5 41//5
f 32//3 41//3 60//3 61//3
f 37//14 38//14 47//14 54//14
f 34//15 45//15 46//15 36//15
f 36//6 46//6 47//6 38//6
f 39//5 55//5 45//5 34//5
f 55//16 39//16 58//16 57//16
f 61//5 62//5 57//5 58//5
f 60//5 59//5 62//5 61//5
f 39//3 32//3 61//3 58//3
f 44//1 55//1 57//1 62//1
f 41//2 56//2 59//2 60//2
f 56//1 44//1 62//1 59//1
f 66//2 63//2 67//2 70//2
f 1//17 2//17 65//17 64//17
f 2//18 26//18 66//18 65//18
f 25//19 1//19 64//19 63//19
f 69//5 70//5 74//5 73//5
f 64//16 65//16 69//16 68//16
f 65//5 66//5 70//5 69//5
f 63//4 64//4 68//4 67//4
f 73//5 74//5 78//5 77//5
f 67//4 68//4 72//4 71//4
f 70//2 67//2 71//2 74//2
f 68//16 69//16 73//16 72//16
f 76//1 77//1 78//1 75//1
f 71//4 72//4 76//4 75//4
f 74//2 71//2 75//2 78//2
f 82//2 79//2 80//2 81//2
f 50//5 30//5 80//5 79//5
f 43//1 50//1 79//1 82//1
f 29//4 43//4 82//4 81//4
o Cube.048_Cube.024
v -479.599426 562.304016 139.215607
v -677.670166 429.933716 98.673782
v -376.680908 468.842072 -58.446228
v -574.760498 336.284058 -99.057686
v -595.374084 686.560913 -51.799545
v -696.930481 618.690979 -72.586449
v -542.604858 638.640381 -153.146301
v -643.620850 570.912109 -173.439941
v -431.250732 288.812866 -468.561798
v -311.733582 323.707947 -445.744843
v -337.354004 439.828033 -489.130951
v -456.871155 404.932922 -511.947968
v -362.888855 246.999573 -669.732971
v -275.017212 272.655212 -652.957397
v -293.853882 358.029327 -684.856018
v -381.725616 332.373657 -701.631470
v -318.587006 223.258118 -795.984802
v -254.371399 242.006897 -783.725769
v -268.137177 304.397186 -807.036621
v -332.352692 285.648376 -819.295837
v -424.605896 569.576782 -108.620247
v -633.985474 429.830688 -150.660309
v -533.956116 668.883545 101.176567
v -744.232605 528.356140 58.136452
v -319.406921 381.236084 -471.894989
v -446.289062 344.190674 -496.118073
v -276.827118 310.716980 -685.778870
v -370.113739 283.480347 -703.588318
v -252.217499 265.979950 -820.047119
v -320.390106 246.075775 -833.061829
v -293.428345 193.001770 -881.495789
v -229.212860 211.750610 -869.236389
v -225.672546 238.180786 -916.577026
v -293.845123 218.276611 -929.591858
v -306.020752 257.471497 -914.132019
v -241.805298 276.220306 -901.872742
v -275.616821 172.482300 -943.412781
v -211.401398 191.231140 -931.153381
v -207.860870 217.661255 -978.494080
v -276.033569 197.757141 -991.508972
v -288.209229 236.952057 -976.049011
v -223.993744 255.700745 -963.789734
v -248.334015 140.822693 -970.679138
v -207.001526 152.890381 -962.788269
v -204.722687 169.902466 -993.259216
v -248.602356 157.091064 -1001.636292
v -272.466827 219.121918 -1042.865723
v -284.642517 258.316772 -1027.405884
v -220.427032 277.065613 -1015.146790
v -204.294250 239.026093 -1029.850952
v -230.723419 118.235352 -988.817810
v -202.858093 126.371094 -983.497986
v -201.321808 137.840027 -1004.040588
v -230.904266 129.202942 -1009.688171
v -215.453949 103.906372 -1016.224060
v -198.034973 108.992188 -1012.898621
v -197.074677 116.161499 -1025.740112
v -215.566956 110.762268 -1029.270386
v -261.494659 240.437683 -1065.828613
v -269.590515 266.498932 -1055.549194
v -226.892731 278.965210 -1047.397705
v -216.165894 253.672241 -1057.174927
v -320.633392 418.893372 489.683929
v -374.636047 241.353973 334.890381
v -154.726074 505.465637 331.742706
v -214.617859 330.237823 177.120209
v -467.649384 535.050659 315.833038
v -495.338043 444.021149 236.466095
v -374.421478 582.495361 235.540771
v -413.292297 489.594360 155.572906
v -153.700073 397.535126 -90.321938
v -76.176941 317.986786 -33.324883
v 22.175964 377.792725 -80.850471
v -52.416748 456.740387 -137.851379
v -139.446655 269.342621 -264.261597
v -83.767639 207.277527 -222.923676
v -9.301819 250.806580 -257.868317
v -64.980896 312.871704 -299.206451
v -127.675232 188.696045 -372.997406
v -86.985657 143.339661 -342.788086
v -32.567078 175.150208 -368.325104
v -73.256592 220.506561 -398.534424
v -237.935364 572.649292 299.989044
v -314.864990 386.891296 135.490997
v -427.413513 481.010010 467.315887
v -484.743988 292.530029 302.983490
v -25.232849 336.873535 -60.681709
v -105.630493 426.492310 -120.371742
v -45.623657 216.189301 -254.464783
v -104.733887 282.079102 -298.350128
v -59.681274 142.091003 -376.721863
v -102.878296 190.242493 -408.792755
v -134.519165 132.478088 -448.185028
v -93.829712 87.121765 -417.975647
v -62.342712 82.869995 -462.051971
v -105.539612 131.021362 -494.122772
v -76.560974 161.746948 -482.305573
v -35.871399 116.390625 -452.096222
v -138.368469 92.697937 -502.726532
v -97.678833 47.341614 -472.517181
v -66.191895 43.089722 -516.593567
v -109.388855 91.241211 -548.664368
v -80.410095 121.966980 -536.846985
v -39.720581 76.610657 -506.637726
v -153.060791 48.853210 -521.485352
v -126.870728 19.659302 -502.040924
v -106.604065 16.922607 -530.410950
v -134.407959 47.915588 -551.053528
v -81.996887 83.859253 -596.642517
v -53.018127 114.584961 -584.825134
v -12.328552 69.228516 -554.615967
v -38.799866 35.707947 -564.571472
v -164.436340 19.528992 -534.135193
v -146.779846 -0.152710 -521.026306
v -133.116638 -1.997925 -540.152649
v -151.861145 18.896790 -554.069336
v -168.026489 -6.702271 -556.240051
v -156.989136 -19.005554 -548.045471
v -148.448181 -20.158813 -560.001404
v -160.165649 -7.097473 -568.700806
v -55.355896 77.196594 -615.294983
v -36.087708 97.626526 -607.437439
v -9.032654 67.468567 -587.350891
v -26.633667 45.180115 -593.970642
vn 0.3832 -0.7417 0.5505
vn -0.2525 0.7821 -0.5697
vn -0.3838 0.7405 -0.5518
vn -0.3089 0.1760 0.9347
vn 0.5343 0.8371 -0.1177
vn -0.7963 -0.5886 -0.1393
vn -0.1816 0.8923 -0.4133
vn 0.9336 0.3542 0.0543
vn -0.8894 -0.1703 -0.4243
vn 0.3890 -0.8615 0.3264
vn -0.9316 -0.1936 -0.3077
vn 0.9751 0.1783 0.1321
vn -0.9333 -0.2244 -0.2803
vn 0.2220 -0.9369 0.2702
vn 0.9297 0.3318 0.1598
vn 0.2256 -0.9400 0.2559
vn -0.1775 0.8868 -0.4266
vn 0.9821 0.1378 0.1285
vn 0.9350 0.3514 0.0487
vn 0.1925 -0.9059 0.3772
vn -0.9013 -0.3696 -0.2261
vn 0.9430 0.3234 0.0779
vn -0.8845 -0.4072 -0.2278
vn -0.7973 -0.5404 -0.2687
vn 0.7015 0.7081 -0.0806
vn -0.9007 -0.1286 -0.4150
vn 0.8417 0.5010 0.2015
vn -0.5710 0.7574 0.3168
vn -0.1977 0.9121 -0.3592
vn -0.9327 -0.3225 -0.1614
vn -0.2058 0.9210 -0.3308
vn 0.9540 0.2236 0.1996
vn -0.9314 -0.3269 -0.1603
vn -0.9551 -0.2185 -0.2000
vn 0.9277 0.3175 0.1965
vn 0.0374 -0.6334 0.7729
vn 0.9532 0.2281 0.1986
vn 0.9296 0.3336 0.1569
vn -0.9549 -0.2166 -0.2029
vn 0.1977 -0.9121 0.3592
vn 0.0847 0.3256 -0.9417
vn -0.8300 -0.4967 -0.2538
vn 0.9949 0.0361 0.0946
vn 0.0938 0.2997 -0.9494
vn 0.8874 0.4352 -0.1523
vn -0.9586 -0.2332 -0.1636
vn -0.3231 0.8815 0.3443
vn 0.3231 -0.8815 -0.3443
vn -0.0682 0.6991 -0.7118
vn 0.9914 0.0675 0.1119
vn -0.8495 -0.4700 -0.2396
vn 0.0280 -0.6125 0.7900
vn 0.3281 -0.8350 -0.4417
vn 0.9902 0.0769 0.1170
vn -0.8553 -0.4616 -0.2352
vn 0.1461 -0.8409 0.5210
vn 0.0640 0.3833 -0.9214
vn -0.8696 -0.0778 -0.4877
vn 0.3291 -0.7653 -0.5532
vn -0.2987 0.9473 0.1157
vn 0.7052 -0.5824 0.4044
vn 0.1345 0.9684 -0.2101
vn -0.6903 0.6000 -0.4043
vn -0.4486 -0.5059 0.7367
vn -0.1246 0.9190 0.3739
vn -0.1791 -0.7683 -0.6145
vn 0.7912 0.4230 -0.4416
vn 0.9007 0.4183 0.1175
vn -0.6761 -0.2161 -0.7044
vn 0.2802 -0.9299 0.2385
vn -0.5023 0.6573 -0.5618
vn 0.5103 -0.7523 0.4168
vn -0.5346 0.6531 -0.5364
vn -0.7910 -0.5178 0.3258
vn 0.6464 -0.6363 0.4211
vn -0.8007 -0.5194 0.2986
vn 0.7928 0.4120 -0.4492
vn 0.4941 -0.7700 0.4037
vn 0.6804 -0.6611 0.3163
vn -0.7980 -0.4456 0.4058
vn -0.6612 0.5790 -0.4770
vn 0.6811 -0.6493 0.3384
vn -0.6887 0.5484 -0.4744
vn -0.5611 -0.7051 -0.4337
vn 0.5383 0.8405 -0.0624
vn -0.5401 -0.3697 -0.7561
vn 0.2741 0.6852 0.6748
vn -0.9603 0.0532 0.2740
vn 0.7993 0.4573 -0.3899
vn -0.6389 0.6423 -0.4234
vn 0.8006 0.4752 -0.3649
vn 0.5522 -0.6920 0.4650
vn -0.6424 0.6397 -0.4220
vn -0.5479 0.6950 -0.4656
vn 0.6278 -0.6311 0.4556
vn -0.6608 -0.0970 0.7443
vn 0.5561 -0.6897 0.4638
vn 0.6483 -0.6362 0.4183
vn -0.5458 0.6949 -0.4683
vn -0.7993 -0.4573 0.3899
vn 0.4496 -0.1795 -0.8750
vn -0.7456 0.4573 -0.4848
vn 0.4108 -0.8317 0.3737
vn 0.4305 -0.2000 -0.8802
vn 0.7636 -0.6360 0.1111
vn -0.5674 0.7012 -0.4318
vn 0.6329 0.7333 0.2485
vn -0.6329 -0.7333 -0.2485
vn 0.7007 0.1666 -0.6937
vn 0.4358 -0.8113 0.3896
vn -0.7307 0.4890 -0.4765
vn -0.6475 -0.0759 0.7582
vn -0.5762 -0.7433 -0.3399
vn 0.4432 -0.8051 0.3943
vn -0.7259 0.4986 -0.4738
vn -0.7753 -0.3416 0.5313
vn 0.4914 -0.1324 -0.8608
vn -0.3496 0.6049 -0.7154
vn -0.4981 -0.7438 -0.4458
vn 0.7315 0.6809 0.0370
usemtl Matériau.012
s off
f 83//20 84//20 86//20 85//20
f 90//21 89//21 93//21 94//21
f 89//22 90//22 88//22 87//22
f 105//23 106//23 84//23 83//23
f 103//24 89//24 87//24 105//24
f 104//25 86//25 84//25 106//25
f 94//26 93//26 97//26 98//26
f 103//27 85//27 92//27 107//27
f 104//28 90//28 94//28 108//28
f 85//29 86//29 91//29 92//29
f 110//30 98//30 102//30 112//30
f 107//31 92//31 96//31 109//31
f 108//32 94//32 98//32 110//32
f 92//33 91//33 95//33 96//33
f 101//34 111//34 115//34 118//34
f 96//35 95//35 99//35 100//35
f 98//36 97//36 101//36 102//36
f 109//37 96//37 100//37 111//37
f 97//38 109//38 111//38 101//38
f 100//39 99//39 113//39 114//39
f 91//40 108//40 110//40 95//40
f 93//41 107//41 109//41 97//41
f 95//42 110//42 112//42 99//42
f 86//43 104//43 108//43 91//43
f 89//44 103//44 107//44 93//44
f 90//45 104//45 106//45 88//45
f 85//46 103//46 105//46 83//46
f 87//47 88//47 106//47 105//47
f 117//48 118//48 124//48 123//48
f 113//49 116//49 122//49 119//49
f 102//50 101//50 118//50 117//50
f 111//51 100//51 114//51 115//51
f 99//52 112//52 116//52 113//52
f 112//53 102//53 117//53 116//53
f 124//54 121//54 132//54 131//54
f 120//55 119//55 125//55 126//55
f 115//56 114//56 120//56 121//56
f 118//57 115//57 121//57 124//57
f 116//58 117//58 123//58 122//58
f 114//59 113//59 119//59 120//59
f 128//60 127//60 135//60 136//60
f 119//61 122//61 128//61 125//61
f 121//62 120//62 126//62 127//62
f 122//63 121//63 127//63 128//63
f 131//64 132//64 144//64 143//64
f 122//65 123//65 130//65 129//65
f 123//66 124//66 131//66 130//66
f 121//67 122//67 129//67 132//67
f 136//68 135//68 139//68 140//68
f 127//69 126//69 134//69 135//69
f 125//70 128//70 136//70 133//70
f 126//71 125//71 133//71 134//71
f 138//72 137//72 140//72 139//72
f 135//73 134//73 138//73 139//73
f 133//74 136//74 140//74 137//74
f 134//75 133//75 137//75 138//75
f 144//76 141//76 142//76 143//76
f 129//77 130//77 142//77 141//77
f 132//78 129//78 141//78 144//78
f 130//79 131//79 143//79 142//79
f 145//80 146//80 148//80 147//80
f 152//81 151//81 155//81 156//81
f 151//82 152//82 150//82 149//82
f 167//83 168//83 146//83 145//83
f 165//84 151//84 149//84 167//84
f 166//85 148//85 146//85 168//85
f 156//86 155//86 159//86 160//86
f 165//87 147//87 154//87 169//87
f 166//88 152//88 156//88 170//88
f 147//89 148//89 153//89 154//89
f 172//90 160//90 164//90 174//90
f 169//91 154//91 158//91 171//91
f 170//92 156//92 160//92 172//92
f 154//93 153//93 157//93 158//93
f 163//94 173//94 177//94 180//94
f 158//95 157//95 161//95 162//95
f 160//96 159//96 163//96 164//96
f 171//97 158//97 162//97 173//97
f 159//98 171//98 173//98 163//98
f 162//99 161//99 175//99 176//99
f 153//100 170//100 172//100 157//100
f 155//101 169//101 171//101 159//101
f 157//102 172//102 174//102 161//102
f 148//103 166//103 170//103 153//103
f 151//104 165//104 169//104 155//104
f 152//105 166//105 168//105 150//105
f 147//106 165//106 167//106 145//106
f 149//107 150//107 168//107 167//107
f 179//108 180//108 186//108 185//108
f 175//109 178//109 184//109 181//109
f 164//110 163//110 180//110 179//110
f 173//111 162//111 176//111 177//111
f 161//112 174//112 178//112 175//112
f 174//113 164//113 179//113 178//113
f 186//114 183//114 194//114 193//114
f 182//115 181//115 187//115 188//115
f 177//116 176//116 182//116 183//116
f 180//117 177//117 183//117 186//117
f 178//118 179//118 185//118 184//118
f 176//119 175//119 181//119 182//119
f 190//120 189//120 197//120 198//120
f 181//121 184//121 190//121 187//121
f 183//122 182//122 188//122 189//122
f 184//123 183//123 189//123 190//123
f 193//124 194//124 206//124 205//124
f 184//125 185//125 192//125 191//125
f 185//126 186//126 193//126 192//126
f 183//127 184//127 191//127 194//127
f 198//128 197//128 201//128 202//128
f 189//129 188//129 196//129 197//129
f 187//130 190//130 198//130 195//130
f 188//131 187//131 195//131 196//131
f 200//132 199//132 202//132 201//132
f 197//133 196//133 200//133 201//133
f 195//134 198//134 202//134 199//134
f 196//135 195//135 199//135 200//135
f 206//136 203//136 204//136 205//136
f 191//137 192//137 204//137 203//137
f 194//138 191//138 203//138 206//138
f 192//139 193//139 205//139 204//139
