# Blender v2.91.2 OBJ File: 'camionnete02.blend'
# www.blender.org
mtllib arme_000120.mtl
o Cube.046_Cube.010
v 132.592789 621.936951 -1240.572266
v 160.535034 403.574707 -1229.789551
v 192.439651 619.121216 -1452.679688
v 220.381897 400.758972 -1441.896973
v -77.684853 592.119019 -1299.507080
v -49.742638 373.756775 -1288.724365
v -17.837944 589.303284 -1511.614258
v 10.104240 370.941040 -1500.831787
v 50.195496 625.813660 -948.542542
v 78.137726 407.451416 -937.759827
v -132.139893 377.633484 -996.694458
v -160.082153 595.995789 -1007.477234
v 12.905342 627.568176 -816.379822
v 40.847542 409.205841 -805.597107
v -169.430115 379.387909 -864.531799
v -197.372345 597.750183 -875.314575
v -9.124054 628.604553 -738.304077
v 15.043236 469.614899 -743.461121
v -195.234467 439.796997 -802.395813
v -219.401733 598.786682 -797.238770
v 63.051010 625.208801 -994.104553
v 90.993225 406.846558 -983.321777
v -147.226654 595.390869 -1053.039307
v -119.284447 377.028625 -1042.256470
v 171.311859 620.115295 -1377.799316
v 199.254089 401.753021 -1367.016357
v -38.965782 590.297363 -1436.733887
v -11.023529 371.935089 -1425.951172
v 87.300842 604.212280 -1482.146973
v 115.243088 385.849976 -1471.364258
v 27.453972 607.028015 -1270.039795
v 55.396229 388.665710 -1259.256836
v -54.943306 610.904724 -978.009827
v -27.001091 392.542419 -967.226990
v -92.233513 612.659180 -845.847229
v -59.932640 405.348389 -822.546326
v -114.262871 613.695618 -767.771423
v -77.332558 446.082397 -780.647949
v -14.145607 391.937561 -1012.789062
v -42.087837 610.299805 -1023.571899
v 94.115257 386.844025 -1396.483887
v 66.173065 605.206360 -1407.266357
v 139.870300 611.666809 -1467.413086
v 107.965622 396.120209 -1244.523193
v 25.568306 399.996918 -952.493469
v -24.484947 410.374939 -812.611450
v -41.884850 451.108948 -770.713013
v 10.481606 617.754333 -1008.838135
v 118.742462 612.660767 -1392.532959
v 167.812515 393.304474 -1456.630615
v 80.023369 614.482483 -1255.306152
v -2.373924 618.359131 -963.276245
v -39.664085 620.113647 -831.113464
v -61.693474 621.150024 -753.037720
v 38.423805 399.392059 -998.055420
v 146.684647 394.298523 -1381.750244
v 43.655632 358.506714 -996.036560
v -8.913795 351.052246 -1010.770142
v 151.916412 353.413147 -1379.731201
v 99.347076 345.958679 -1394.464844
v 60.627987 347.780365 -1257.238037
v 113.197411 355.234833 -1242.504395
v 256.949493 572.290833 -1311.674316
v 239.828278 573.096313 -1250.994141
v 252.184204 476.538788 -1246.225830
v 269.305237 475.733246 -1306.906494
v 302.389313 578.734314 -1298.938965
v 285.268158 579.539856 -1238.258545
v 297.623962 482.982300 -1233.490479
v 314.745148 482.176788 -1294.170898
v 371.926819 588.594971 -1279.449707
v 354.805634 589.400452 -1218.769531
v 367.161469 492.842926 -1214.001221
v 384.282532 492.037384 -1274.681885
v 416.673309 594.940063 -1266.908691
v 399.552155 595.745605 -1206.228271
v 411.908020 499.188141 -1201.460205
v 429.029114 498.382568 -1262.140625
v 364.421143 384.054626 -2153.443359
v 311.851685 376.600128 -2168.177002
v 283.909302 594.962463 -2178.959717
v 336.478882 602.416931 -2164.226074
vn 0.9540 0.1353 0.2674
vn 0.2715 -0.0128 -0.9623
vn -0.9540 -0.1353 -0.2674
vn -0.1268 0.9907 -0.0489
vn 0.1268 -0.9907 0.0489
vn -0.0857 -0.7319 0.6760
vn 0.0425 -0.9974 0.0581
vn -0.3331 -0.1095 0.9365
vn -0.9543 -0.1358 -0.2661
vn 0.9543 0.1358 0.2661
vn 0.6250 0.0415 -0.7795
vn -0.2143 -0.0938 0.9722
vn 0.1568 -0.9834 0.0915
vn -0.2506 -0.1289 0.9595
vn 0.1086 -0.9877 0.1122
vn -0.2715 0.0128 0.9623
vn 0.1258 0.0650 0.9899
vn 0.6322 -0.7516 0.1883
vn 0.4207 0.9009 0.1067
usemtl Matériau.011
s off
f 25//1 26//1 4//1 3//1
f 29//2 30//2 8//2 7//2
f 27//3 28//3 6//3 5//3
f 22//1 21//1 9//1 10//1
f 42//4 27//4 5//4 31//4
f 56//5 26//5 2//5 44//5
f 10//1 9//1 13//1 14//1
f 55//5 22//5 10//5 45//5
f 23//3 24//3 11//3 12//3
f 46//6 14//6 18//6 47//6
f 45//7 10//7 14//7 46//7
f 12//3 11//3 15//3 16//3
f 33//4 12//4 16//4 35//4
f 54//8 47//8 18//8 17//8
f 16//9 15//9 19//9 20//9
f 14//10 13//10 17//10 18//10
f 5//3 6//3 24//3 23//3
f 44//5 2//5 22//5 55//5
f 31//4 5//4 23//4 40//4
f 2//1 1//1 21//1 22//1
f 50//5 4//5 26//5 56//5
f 29//4 7//4 27//4 42//4
f 7//3 8//3 28//3 27//3
f 26//11 25//11 63//11 66//11
f 43//4 29//4 42//4 49//4
f 8//5 30//5 41//5 28//5
f 51//4 31//4 40//4 48//4
f 6//5 32//5 39//5 24//5
f 20//12 19//12 38//12 37//12
f 52//4 33//4 35//4 53//4
f 11//13 34//13 36//13 15//13
f 15//6 36//6 38//6 19//6
f 24//5 39//5 34//5 11//5
f 28//5 41//5 32//5 6//5
f 49//4 42//4 31//4 51//4
f 30//3 29//3 81//3 80//3
f 3//2 4//2 50//2 43//2
f 25//4 49//4 51//4 1//4
f 9//4 52//4 53//4 13//4
f 1//4 51//4 48//4 21//4
f 3//4 43//4 49//4 25//4
f 30//5 50//5 56//5 41//5
f 32//3 41//3 60//3 61//3
f 37//14 38//14 47//14 54//14
f 34//15 45//15 46//15 36//15
f 36//6 46//6 47//6 38//6
f 39//5 55//5 45//5 34//5
f 55//16 39//16 58//16 57//16
f 61//5 62//5 57//5 58//5
f 60//5 59//5 62//5 61//5
f 39//3 32//3 61//3 58//3
f 44//1 55//1 57//1 62//1
f 41//2 56//2 59//2 60//2
f 56//1 44//1 62//1 59//1
f 66//2 63//2 67//2 70//2
f 1//17 2//17 65//17 64//17
f 2//18 26//18 66//18 65//18
f 25//19 1//19 64//19 63//19
f 69//5 70//5 74//5 73//5
f 64//16 65//16 69//16 68//16
f 65//5 66//5 70//5 69//5
f 63//4 64//4 68//4 67//4
f 73//5 74//5 78//5 77//5
f 67//4 68//4 72//4 71//4
f 70//2 67//2 71//2 74//2
f 68//16 69//16 73//16 72//16
f 76//1 77//1 78//1 75//1
f 71//4 72//4 76//4 75//4
f 74//2 71//2 75//2 78//2
f 82//2 79//2 80//2 81//2
f 50//5 30//5 80//5 79//5
f 43//1 50//1 79//1 82//1
f 29//4 43//4 82//4 81//4
o Cube.048_Cube.024
v -537.327698 495.252777 151.280334
v -671.430542 317.041962 58.248665
v -410.675323 507.204132 -54.179878
v -544.039124 329.116272 -146.633514
v -695.261963 617.520752 -8.211571
v -764.020203 526.147095 -55.911507
v -630.323730 623.648560 -113.556755
v -698.632019 532.468872 -160.704132
v -395.220520 433.619995 -493.825714
v -302.936279 512.602539 -458.216766
v -379.572754 611.286133 -478.490631
v -471.856995 532.303589 -514.099670
v -324.431396 468.666931 -695.449402
v -256.581848 526.736633 -669.268921
v -312.926758 599.291016 -684.174683
v -380.776245 541.221313 -710.355286
v -279.869781 493.464264 -821.406677
v -230.286285 535.900879 -802.274292
v -271.462280 588.922607 -813.167358
v -321.045837 546.486084 -832.299622
v -494.114807 593.154114 -79.060753
v -635.527710 404.672272 -176.149719
v -628.685059 580.486389 139.037598
v -771.051636 391.293640 40.273033
v -336.624298 564.677612 -472.551971
v -434.595428 480.827942 -510.355194
v -276.642395 565.812988 -693.760437
v -348.672974 504.164764 -721.554260
v -240.674561 565.173828 -832.832031
v -293.313599 520.122131 -853.143433
v -247.697021 495.742249 -909.838623
v -198.113373 538.178833 -890.706299
v -208.850037 572.460388 -931.470398
v -261.488983 527.408691 -951.781860
v -289.167908 553.002686 -929.369324
v -239.584351 595.439209 -910.236938
v -225.382812 498.421722 -973.611267
v -175.799255 540.858337 -954.478943
v -186.536072 575.139893 -995.242981
v -239.175018 530.088257 -1015.554382
v -266.853760 555.682251 -993.141785
v -217.270233 598.118774 -974.009460
v -188.088196 488.533752 -1005.257141
v -156.173523 515.848267 -992.942444
v -163.084229 537.913818 -1019.180481
v -196.965576 508.916016 -1032.253906
v -247.807495 560.785156 -1061.269531
v -275.486359 586.379150 -1038.856934
v -225.902832 628.815796 -1019.724792
v -195.168610 605.836853 -1040.958130
v -163.079163 480.385345 -1026.645996
v -141.563293 498.800018 -1018.343811
v -146.222290 513.675964 -1036.032593
v -169.064148 494.126434 -1044.846436
v -144.260254 480.286072 -1055.549683
v -130.810364 491.797333 -1050.359619
v -133.722717 501.096405 -1061.417480
v -148.001404 488.875824 -1066.927124
v -248.532684 588.941284 -1078.840942
v -266.936646 605.958984 -1063.938477
v -233.967926 634.175659 -1051.217041
v -213.532379 618.896667 -1065.335571
v -233.405426 577.548706 360.768768
v -326.862366 354.924561 370.862701
v -105.563965 512.062744 168.662582
v -197.211517 291.706604 176.976913
v -405.844025 577.474243 172.101715
v -453.761993 463.328674 177.277191
v -332.546722 547.352661 71.259529
v -387.286438 430.915039 77.866508
v -81.397278 152.917175 -87.014153
v 8.986389 164.893127 -1.013268
v 81.679321 224.381012 -83.498421
v -6.010864 212.519623 -169.397858
v 21.201843 -27.327026 -149.279205
v 87.316711 -20.861023 -84.101860
v 142.742432 22.960083 -144.672241
v 76.627563 16.493958 -209.849640
v 88.083862 -139.047852 -188.152496
v 136.399719 -134.322510 -140.521698
v 176.904114 -102.298645 -184.785767
v 128.588257 -107.024109 -232.416443
v -191.705963 560.324341 110.453659
v -300.572266 324.434998 120.077927
v -338.996582 627.891479 315.195648
v -438.212616 391.548615 325.911621
v 51.090393 186.862000 -38.465309
v -44.376099 177.525269 -132.577942
v 124.139343 -15.338745 -117.907600
v 53.950134 -22.203186 -187.101257
v 168.326477 -142.054199 -169.148499
v 117.033264 -147.070740 -219.714355
v 121.248962 -223.440002 -213.422119
v 169.564697 -218.714539 -165.791351
v 208.596436 -232.369446 -201.037628
v 157.303101 -237.385986 -251.603607
v 167.766052 -196.428955 -263.288055
v 216.081909 -191.703857 -215.657318
v 145.881897 -283.465332 -232.454254
v 194.197693 -278.739868 -184.823517
v 233.229370 -292.395020 -220.069824
v 181.936035 -297.411499 -270.635651
v 192.398926 -256.454407 -282.320282
v 240.714844 -251.729004 -234.689514
v 154.964478 -330.836792 -219.665680
v 186.063171 -327.795532 -189.007843
v 211.186157 -336.584473 -211.694275
v 178.171021 -339.813477 -244.241272
v 219.464722 -317.296143 -306.731506
v 229.927795 -276.339172 -318.416138
v 278.243591 -271.614075 -270.785370
v 270.758118 -312.279907 -256.165649
v 159.689392 -363.285156 -211.056152
v 180.655334 -361.234619 -190.387512
v 197.592468 -367.160278 -205.682159
v 175.334473 -369.336792 -227.624481
v 172.047119 -395.453003 -212.508423
v 185.153198 -394.171143 -199.588226
v 195.740784 -397.875000 -209.148987
v 181.827026 -399.235840 -222.865326
v 249.782043 -320.331787 -319.910919
v 256.738892 -293.098755 -327.680084
v 288.864807 -289.956787 -296.009735
v 283.887512 -316.996094 -286.288910
vn 0.6461 -0.6727 0.3606
vn -0.5675 0.7252 -0.3899
vn -0.6461 0.6726 -0.3608
vn -0.3339 -0.2264 0.9150
vn 0.1756 0.9706 0.1647
vn -0.5152 -0.7739 -0.3683
vn -0.5788 0.7814 -0.2331
vn 0.7128 0.6667 0.2178
vn -0.7610 -0.3923 -0.5167
vn 0.7083 -0.6918 0.1407
vn -0.7601 -0.5208 -0.3886
vn 0.7980 0.5626 0.2162
vn -0.7467 -0.5540 -0.3682
vn 0.6284 -0.7731 0.0862
vn 0.6901 0.6706 0.2719
vn 0.6324 -0.7713 0.0719
vn -0.5733 0.7812 -0.2471
vn 0.8221 0.5312 0.2048
vn 0.6812 0.7127 0.1675
vn 0.5930 -0.7811 0.1956
vn -0.6509 -0.6774 -0.3429
vn 0.7022 0.6860 0.1908
vn -0.6191 -0.7023 -0.3513
vn -0.5175 -0.7232 -0.4574
vn 0.3631 0.9203 0.1459
vn -0.7919 -0.3275 -0.5154
vn 0.5937 0.6944 0.4065
vn -0.8085 0.3691 0.4584
vn -0.5996 0.7804 -0.1770
vn -0.6970 -0.6635 -0.2718
vn -0.6095 0.7789 -0.1479
vn 0.7619 0.5790 0.2903
vn -0.6939 -0.6670 -0.2715
vn -0.7652 -0.5749 -0.2896
vn 0.6964 0.6497 0.3048
vn 0.3505 -0.6933 0.6296
vn 0.7591 0.5827 0.2901
vn 0.6891 0.6727 0.2694
vn -0.7660 -0.5726 -0.2921
vn 0.5996 -0.7804 0.1770
vn -0.1115 0.5138 -0.8506
vn -0.5317 -0.7508 -0.3920
vn 0.8774 0.4552 0.1517
vn -0.0922 0.4968 -0.8629
vn 0.5923 0.8056 -0.0146
vn -0.7601 -0.5968 -0.2572
vn -0.6667 0.5544 0.4982
vn 0.6667 -0.5544 -0.4982
vn -0.4046 0.7244 -0.5582
vn 0.8611 0.4775 0.1748
vn -0.5604 -0.7391 -0.3737
vn 0.3335 -0.6828 0.6501
vn 0.6461 -0.4917 -0.5837
vn 0.8560 0.4840 0.1816
vn -0.5691 -0.7353 -0.3680
vn 0.5289 -0.7745 0.3470
vn -0.1549 0.5507 -0.8202
vn -0.7643 -0.3554 -0.5380
vn 0.6109 -0.4078 -0.6786
vn -0.6844 0.6693 0.2892
vn 0.7494 -0.2884 0.5961
vn -0.0401 0.5571 -0.8295
vn -0.7370 0.2971 -0.6072
vn -0.3182 0.1758 0.9316
vn -0.0143 0.9494 -0.3138
vn -0.3399 -0.9372 0.0783
vn 0.6186 0.3970 -0.6780
vn 0.8825 0.4660 -0.0642
vn -0.6916 -0.5177 -0.5036
vn 0.3442 -0.5290 0.7757
vn -0.5964 -0.0993 -0.7965
vn 0.6777 -0.0431 0.7340
vn -0.6286 -0.1024 -0.7709
vn -0.5563 -0.5294 0.6405
vn 0.7453 0.0992 0.6593
vn -0.5583 -0.5503 0.6209
vn 0.6277 0.3874 -0.6752
vn 0.6693 -0.0716 0.7395
vn 0.8080 0.0381 0.5880
vn -0.6092 -0.4375 0.6614
vn -0.7229 -0.1770 -0.6679
vn 0.7960 0.0545 0.6029
vn -0.7351 -0.2089 -0.6449
vn -0.6309 -0.7755 -0.0255
vn 0.5237 0.7035 -0.4804
vn -0.6999 -0.6691 -0.2499
vn 0.4514 0.8922 0.0138
vn -0.8814 0.3826 0.2770
vn 0.6022 0.4551 -0.6560
vn -0.7406 -0.0930 -0.6654
vn 0.5906 0.4822 -0.6470
vn 0.6756 0.0431 0.7360
vn -0.7430 -0.0956 -0.6624
vn -0.6729 -0.0395 -0.7387
vn 0.7194 0.1139 0.6852
vn -0.7037 0.0563 0.7083
vn 0.6783 0.0458 0.7334
vn 0.7476 0.0985 0.6568
vn -0.6703 -0.0401 -0.7410
vn -0.6022 -0.4551 0.6560
vn 0.6587 -0.4161 -0.6269
vn -0.7457 -0.3032 -0.5934
vn 0.6274 -0.1689 0.7602
vn 0.6513 -0.4418 -0.6169
vn 0.9151 -0.0237 0.4026
vn -0.6998 -0.0249 -0.7139
vn 0.2049 0.9316 -0.3002
vn -0.2049 -0.9316 0.3002
vn 0.6996 0.0384 -0.7135
vn 0.6378 -0.1344 0.7584
vn -0.7474 -0.2699 -0.6071
vn -0.7037 0.0847 0.7054
vn -0.1310 -0.9647 0.2286
vn 0.6407 -0.1241 0.7577
vn -0.7477 -0.2596 -0.6112
vn -0.6588 -0.2845 0.6965
vn 0.6733 -0.3568 -0.6476
vn -0.4068 -0.1530 -0.9006
vn -0.0391 -0.9897 0.1379
vn 0.3589 0.8203 -0.4454
usemtl Matériau.012
s off
f 83//20 84//20 86//20 85//20
f 90//21 89//21 93//21 94//21
f 89//22 90//22 88//22 87//22
f 105//23 106//23 84//23 83//23
f 103//24 89//24 87//24 105//24
f 104//25 86//25 84//25 106//25
f 94//26 93//26 97//26 98//26
f 103//27 85//27 92//27 107//27
f 104//28 90//28 94//28 108//28
f 85//29 86//29 91//29 92//29
f 110//30 98//30 102//30 112//30
f 107//31 92//31 96//31 109//31
f 108//32 94//32 98//32 110//32
f 92//33 91//33 95//33 96//33
f 101//34 111//34 115//34 118//34
f 96//35 95//35 99//35 100//35
f 98//36 97//36 101//36 102//36
f 109//37 96//37 100//37 111//37
f 97//38 109//38 111//38 101//38
f 100//39 99//39 113//39 114//39
f 91//40 108//40 110//40 95//40
f 93//41 107//41 109//41 97//41
f 95//42 110//42 112//42 99//42
f 86//43 104//43 108//43 91//43
f 89//44 103//44 107//44 93//44
f 90//45 104//45 106//45 88//45
f 85//46 103//46 105//46 83//46
f 87//47 88//47 106//47 105//47
f 117//48 118//48 124//48 123//48
f 113//49 116//49 122//49 119//49
f 102//50 101//50 118//50 117//50
f 111//51 100//51 114//51 115//51
f 99//52 112//52 116//52 113//52
f 112//53 102//53 117//53 116//53
f 124//54 121//54 132//54 131//54
f 120//55 119//55 125//55 126//55
f 115//56 114//56 120//56 121//56
f 118//57 115//57 121//57 124//57
f 116//58 117//58 123//58 122//58
f 114//59 113//59 119//59 120//59
f 128//60 127//60 135//60 136//60
f 119//61 122//61 128//61 125//61
f 121//62 120//62 126//62 127//62
f 122//63 121//63 127//63 128//63
f 131//64 132//64 144//64 143//64
f 122//65 123//65 130//65 129//65
f 123//66 124//66 131//66 130//66
f 121//67 122//67 129//67 132//67
f 136//68 135//68 139//68 140//68
f 127//69 126//69 134//69 135//69
f 125//70 128//70 136//70 133//70
f 126//71 125//71 133//71 134//71
f 138//72 137//72 140//72 139//72
f 135//73 134//73 138//73 139//73
f 133//74 136//74 140//74 137//74
f 134//75 133//75 137//75 138//75
f 144//76 141//76 142//76 143//76
f 129//77 130//77 142//77 141//77
f 132//78 129//78 141//78 144//78
f 130//79 131//79 143//79 142//79
f 145//80 146//80 148//80 147//80
f 152//81 151//81 155//81 156//81
f 151//82 152//82 150//82 149//82
f 167//83 168//83 146//83 145//83
f 165//84 151//84 149//84 167//84
f 166//85 148//85 146//85 168//85
f 156//86 155//86 159//86 160//86
f 165//87 147//87 154//87 169//87
f 166//88 152//88 156//88 170//88
f 147//89 148//89 153//89 154//89
f 172//90 160//90 164//90 174//90
f 169//91 154//91 158//91 171//91
f 170//92 156//92 160//92 172//92
f 154//93 153//93 157//93 158//93
f 163//94 173//94 177//94 180//94
f 158//95 157//95 161//95 162//95
f 160//96 159//96 163//96 164//96
f 171//97 158//97 162//97 173//97
f 159//98 171//98 173//98 163//98
f 162//99 161//99 175//99 176//99
f 153//100 170//100 172//100 157//100
f 155//101 169//101 171//101 159//101
f 157//102 172//102 174//102 161//102
f 148//103 166//103 170//103 153//103
f 151//104 165//104 169//104 155//104
f 152//105 166//105 168//105 150//105
f 147//106 165//106 167//106 145//106
f 149//107 150//107 168//107 167//107
f 179//108 180//108 186//108 185//108
f 175//109 178//109 184//109 181//109
f 164//110 163//110 180//110 179//110
f 173//111 162//111 176//111 177//111
f 161//112 174//112 178//112 175//112
f 174//113 164//113 179//113 178//113
f 186//114 183//114 194//114 193//114
f 182//115 181//115 187//115 188//115
f 177//116 176//116 182//116 183//116
f 180//117 177//117 183//117 186//117
f 178//118 179//118 185//118 184//118
f 176//119 175//119 181//119 182//119
f 190//120 189//120 197//120 198//120
f 181//121 184//121 190//121 187//121
f 183//122 182//122 188//122 189//122
f 184//123 183//123 189//123 190//123
f 193//124 194//124 206//124 205//124
f 184//125 185//125 192//125 191//125
f 185//126 186//126 193//126 192//126
f 183//127 184//127 191//127 194//127
f 198//128 197//128 201//128 202//128
f 189//129 188//129 196//129 197//129
f 187//130 190//130 198//130 195//130
f 188//131 187//131 195//131 196//131
f 200//132 199//132 202//132 201//132
f 197//133 196//133 200//133 201//133
f 195//134 198//134 202//134 199//134
f 196//135 195//135 199//135 200//135
f 206//136 203//136 204//136 205//136
f 191//137 192//137 204//137 203//137
f 194//138 191//138 203//138 206//138
f 192//139 193//139 205//139 204//139
