# Blender v2.91.2 OBJ File: 'camionnete02.blend'
# www.blender.org
mtllib arme_000219.mtl
o Cube.046_Cube.010
v 17.848709 240.126114 -1239.313721
v 2.105873 23.607864 -1201.220215
v 75.747543 199.199753 -1448.004639
v 60.004700 -17.318497 -1409.910889
v -194.233795 245.025192 -1299.114502
v -209.976654 28.506943 -1261.020752
v -136.334915 204.098923 -1507.804932
v -152.077820 -12.419388 -1469.711670
v -61.866554 296.473572 -951.987854
v -77.609390 79.955307 -913.894165
v -289.691864 84.854446 -973.694702
v -273.949005 301.372681 -1011.788391
v -97.942902 321.974548 -821.953918
v -113.685783 105.456253 -783.860291
v -325.768280 110.355331 -843.660889
v -310.025452 326.873596 -881.754578
v -119.255226 337.039307 -745.135803
v -126.983414 177.020432 -730.215698
v -339.065979 181.919601 -790.016357
v -331.337769 341.938477 -804.936279
v -49.429482 287.682312 -996.815979
v -65.172333 71.164078 -958.722290
v -261.511993 292.581421 -1056.616699
v -277.254883 76.063202 -1018.522827
v 55.307419 213.648056 -1374.330322
v 39.564575 -2.870255 -1336.236816
v -156.775040 218.547165 -1434.130859
v -172.517853 2.028885 -1396.037109
v -30.293701 201.649368 -1477.905029
v -46.036545 -14.868973 -1439.811279
v -88.192566 242.575699 -1269.214111
v -103.935379 26.057373 -1231.120361
v -167.907776 298.923157 -981.888062
v -183.650635 82.404831 -943.794373
v -203.984161 324.424072 -851.854187
v -213.258209 119.360458 -802.590027
v -225.296478 339.488892 -775.036072
v -222.224838 167.616409 -766.417419
v -171.213608 73.613602 -988.622559
v -155.470764 290.131897 -1026.716309
v -66.476639 -0.420700 -1366.136963
v -50.733791 216.097641 -1404.230469
v 22.726959 200.424606 -1462.954590
v -50.914783 24.832611 -1216.170166
v -130.630035 81.180099 -928.844299
v -177.506287 118.534592 -792.509155
v -186.472900 166.790543 -756.336487
v -102.450104 288.907104 -1011.766052
v 2.286835 214.872818 -1389.280518
v 6.984085 -16.093719 -1424.861084
v -35.171936 241.350906 -1254.264160
v -114.887192 297.698364 -966.938110
v -150.963547 323.199280 -836.904053
v -172.275848 338.264099 -760.085876
v -118.192970 72.388855 -973.672424
v -13.456070 -1.645477 -1351.187012
v -121.140587 31.848770 -966.539856
v -174.161224 33.073532 -981.489990
v -16.403702 -42.185562 -1344.054443
v -69.424263 -40.960754 -1359.004395
v -106.883034 -14.482681 -1223.987793
v -53.862381 -15.707489 -1209.037842
v 129.873444 158.579636 -1300.839844
v 113.309509 170.287888 -1241.136963
v 106.348343 74.545792 -1224.292236
v 122.912079 62.837433 -1283.995117
v 175.703278 157.520920 -1287.917480
v 159.139404 169.229294 -1228.214355
v 152.178162 73.487106 -1211.369629
v 168.741974 61.778793 -1271.072754
v 245.837646 155.900833 -1268.141846
v 229.273804 167.609207 -1208.438721
v 222.312500 71.867020 -1191.594238
v 238.876251 60.158661 -1251.297119
v 290.968262 154.858261 -1255.416504
v 274.404327 166.566635 -1195.713379
v 267.443176 70.824493 -1178.868896
v 284.006927 59.116180 -1238.571777
v 197.193085 -150.544205 -2110.450195
v 144.172485 -149.319443 -2125.400146
v 159.915222 67.198929 -2163.494141
v 212.935944 65.974075 -2148.543945
vn 0.9622 -0.0222 0.2713
vn 0.2627 -0.1857 -0.9468
vn -0.9622 0.0222 -0.2713
vn 0.0714 0.9824 -0.1728
vn -0.0714 -0.9824 0.1728
vn -0.2279 -0.6108 0.7583
vn -0.1554 -0.9712 0.1808
vn -0.3473 0.0756 0.9347
vn -0.9626 0.0220 -0.2700
vn 0.9626 -0.0220 0.2700
vn 0.6201 -0.1795 -0.7637
vn -0.2277 0.0721 0.9711
vn -0.0405 -0.9758 0.2149
vn -0.2702 0.0434 0.9618
vn -0.0886 -0.9680 0.2348
vn -0.2627 0.1857 0.9468
vn 0.1372 0.1620 0.9772
vn 0.4714 -0.8315 0.2938
vn 0.5905 0.8070 0.0056
usemtl Matériau.011
s off
f 25//1 26//1 4//1 3//1
f 29//2 30//2 8//2 7//2
f 27//3 28//3 6//3 5//3
f 22//1 21//1 9//1 10//1
f 42//4 27//4 5//4 31//4
f 56//5 26//5 2//5 44//5
f 10//1 9//1 13//1 14//1
f 55//5 22//5 10//5 45//5
f 23//3 24//3 11//3 12//3
f 46//6 14//6 18//6 47//6
f 45//7 10//7 14//7 46//7
f 12//3 11//3 15//3 16//3
f 33//4 12//4 16//4 35//4
f 54//8 47//8 18//8 17//8
f 16//9 15//9 19//9 20//9
f 14//10 13//10 17//10 18//10
f 5//3 6//3 24//3 23//3
f 44//5 2//5 22//5 55//5
f 31//4 5//4 23//4 40//4
f 2//1 1//1 21//1 22//1
f 50//5 4//5 26//5 56//5
f 29//4 7//4 27//4 42//4
f 7//3 8//3 28//3 27//3
f 26//11 25//11 63//11 66//11
f 43//4 29//4 42//4 49//4
f 8//5 30//5 41//5 28//5
f 51//4 31//4 40//4 48//4
f 6//5 32//5 39//5 24//5
f 20//12 19//12 38//12 37//12
f 52//4 33//4 35//4 53//4
f 11//13 34//13 36//13 15//13
f 15//6 36//6 38//6 19//6
f 24//5 39//5 34//5 11//5
f 28//5 41//5 32//5 6//5
f 49//4 42//4 31//4 51//4
f 30//3 29//3 81//3 80//3
f 3//2 4//2 50//2 43//2
f 25//4 49//4 51//4 1//4
f 9//4 52//4 53//4 13//4
f 1//4 51//4 48//4 21//4
f 3//4 43//4 49//4 25//4
f 30//5 50//5 56//5 41//5
f 32//3 41//3 60//3 61//3
f 37//14 38//14 47//14 54//14
f 34//15 45//15 46//15 36//15
f 36//6 46//6 47//6 38//6
f 39//5 55//5 45//5 34//5
f 55//16 39//16 58//16 57//16
f 61//5 62//5 57//5 58//5
f 60//5 59//5 62//5 61//5
f 39//3 32//3 61//3 58//3
f 44//1 55//1 57//1 62//1
f 41//2 56//2 59//2 60//2
f 56//1 44//1 62//1 59//1
f 66//2 63//2 67//2 70//2
f 1//17 2//17 65//17 64//17
f 2//18 26//18 66//18 65//18
f 25//19 1//19 64//19 63//19
f 69//5 70//5 74//5 73//5
f 64//16 65//16 69//16 68//16
f 65//5 66//5 70//5 69//5
f 63//4 64//4 68//4 67//4
f 73//5 74//5 78//5 77//5
f 67//4 68//4 72//4 71//4
f 70//2 67//2 71//2 74//2
f 68//16 69//16 73//16 72//16
f 76//1 77//1 78//1 75//1
f 71//4 72//4 76//4 75//4
f 74//2 71//2 75//2 78//2
f 82//2 79//2 80//2 81//2
f 50//5 30//5 80//5 79//5
f 43//1 50//1 79//1 82//1
f 29//4 43//4 82//4 81//4
o Cube.048_Cube.024
v -462.948303 603.396057 95.615204
v -585.090576 407.912048 168.174393
v -425.583862 500.146729 -119.654472
v -553.243286 301.469971 -50.053940
v -688.743896 628.200562 -21.565910
v -751.369629 527.970459 15.637207
v -669.586121 575.261719 -131.940704
v -732.462280 474.983398 -94.937584
v -536.021851 253.617920 -487.831024
v -429.915558 316.774384 -459.985748
v -485.563171 425.260498 -493.996857
v -591.669312 362.103973 -521.842102
v -459.904785 248.677917 -690.496521
v -381.893158 295.111969 -670.023987
v -422.806519 374.873352 -695.029724
v -500.818207 328.439331 -715.502258
v -411.447937 248.348907 -817.452087
v -354.438049 282.282288 -802.491089
v -384.337036 340.570862 -820.764954
v -441.346863 306.637482 -835.725769
v -527.242188 562.637573 -146.630554
v -660.754028 354.136597 -72.513008
v -566.897278 672.421509 81.798737
v -696.566406 464.891266 158.829224
v -452.664551 372.244049 -481.381866
v -565.309326 305.195679 -510.943024
v -393.861694 333.999329 -699.583313
v -476.680725 284.703827 -721.317322
v -358.868195 308.981018 -836.639893
v -419.391266 272.956573 -852.522949
v -379.547638 233.226624 -904.711304
v -322.537659 267.160004 -889.750305
v -326.329742 297.525818 -934.647522
v -386.852814 261.501282 -950.530457
v -408.906647 294.618652 -932.081238
v -351.896729 328.551971 -917.120361
v -357.207672 223.503632 -967.786194
v -300.197693 257.437103 -952.825256
v -303.989960 287.802734 -997.722351
v -364.513062 251.778290 -1013.605164
v -386.566681 284.895508 -995.156189
v -329.556732 318.828888 -980.195251
v -322.633484 202.624573 -997.091858
v -285.938934 224.465973 -987.462097
v -288.379791 244.011047 -1016.360291
v -327.335693 220.823730 -1026.583374
v -366.955811 277.627502 -1062.926147
v -389.009521 310.744781 -1044.477173
v -331.999603 344.678162 -1029.516113
v -306.432770 313.651978 -1047.043335
v -299.748901 187.126465 -1016.724304
v -275.010345 201.851318 -1010.232361
v -276.655975 215.028076 -1029.714600
v -302.918976 199.395844 -1036.606812
v -281.349457 179.734253 -1044.944946
v -265.885132 188.938965 -1040.886597
v -266.913818 197.175903 -1053.065308
v -283.331055 187.403931 -1057.373779
v -362.120941 302.963745 -1083.824585
v -376.784790 324.983826 -1071.557495
v -338.878082 347.546478 -1061.609741
v -321.878326 326.916779 -1073.263916
v -303.418243 460.940033 460.169220
v -393.115540 262.286987 355.819183
v -129.562073 466.679688 294.734772
v -217.175720 269.774780 190.330048
v -421.679993 551.764221 252.574799
v -467.670288 449.909241 199.071625
v -322.423706 556.201477 169.661987
v -377.460999 453.748413 114.220703
v -94.440857 234.649017 -80.187874
v -61.436279 173.179321 22.693382
v 57.251892 205.476166 5.732338
v 27.168701 265.937775 -96.149269
v -44.842590 54.142151 -189.040192
v -22.376160 5.708069 -112.813805
v 67.033875 28.712280 -124.549080
v 44.567444 77.146545 -200.775482
v -11.347412 -59.400757 -255.763123
v 5.070740 -94.795898 -200.057800
v 70.410461 -77.984619 -208.633698
v 53.992249 -42.589600 -264.338928
v -196.459412 538.624695 243.451691
v -302.946747 331.784393 128.765259
v -394.503845 534.729858 415.232819
v -489.728638 323.835175 304.452393
v -1.371399 177.812256 15.571556
v -33.811768 247.748688 -94.495399
v 25.601990 0.302002 -126.888680
v 1.751038 51.721008 -207.812195
v 41.963379 -109.682495 -217.831818
v 24.533447 -72.106384 -276.969696
v -1.876160 -137.157715 -307.961273
v 14.542053 -172.552734 -252.255890
v 58.302124 -194.039307 -276.247589
v 40.872253 -156.463135 -335.385651
v 69.275452 -125.932068 -321.799194
v 85.693542 -161.327087 -266.093903
v 6.215759 -192.713501 -345.646149
v 22.633850 -228.108459 -289.940826
v 66.393982 -249.595032 -313.932526
v 48.964050 -212.018677 -373.070526
v 77.367310 -181.487671 -359.483978
v 93.785339 -216.882690 -303.778778
v -9.434509 -239.025452 -355.665680
v 1.133057 -261.807678 -319.810730
v 29.299561 -275.637695 -335.253143
v 18.080627 -251.451355 -373.317535
v 89.778137 -237.445496 -401.255859
v 118.181274 -206.914429 -387.669312
v 134.599426 -242.309448 -331.964081
v 107.208008 -275.021729 -342.117828
v -21.269531 -269.912964 -363.096497
v -14.145142 -285.272278 -338.924103
v 4.843811 -294.596130 -349.335114
v -2.719421 -278.290405 -374.997040
v -21.944702 -301.739258 -376.371704
v -17.491150 -311.340454 -361.261230
v -5.620911 -317.168579 -367.769073
v -10.348938 -306.975830 -383.810638
v 119.362305 -252.142700 -404.544678
v 138.247986 -231.842041 -395.510864
v 149.164551 -255.376648 -358.471680
v 130.951599 -277.127625 -365.222992
vn 0.8457 -0.4149 0.3357
vn -0.6280 0.6232 -0.4662
vn -0.8485 0.4051 -0.3404
vn 0.0762 0.3048 0.9494
vn 0.0355 0.9032 -0.4277
vn -0.4606 -0.8244 0.3290
vn -0.4133 0.8445 -0.3407
vn 0.7156 0.6400 -0.2799
vn -0.8555 -0.4983 -0.1404
vn 0.7464 -0.6344 0.2009
vn -0.8484 -0.4059 -0.3398
vn 0.8936 0.4176 0.1645
vn -0.8418 -0.4383 -0.3152
vn 0.4633 -0.8644 0.1951
vn 0.8093 0.5508 0.2040
vn 0.4676 -0.8653 0.1807
vn -0.4079 0.8415 -0.3544
vn 0.9111 0.3809 0.1576
vn 0.8087 0.5805 0.0950
vn 0.4272 -0.8516 0.3038
vn -0.7722 -0.5739 -0.2727
vn 0.8240 0.5532 0.1220
vn -0.7460 -0.6054 -0.2773
vn -0.6081 -0.7938 0.0095
vn 0.3299 0.8907 -0.3127
vn -0.8601 -0.4999 0.1018
vn 0.5561 0.7828 -0.2793
vn -0.6377 0.5846 0.5016
vn -0.4338 0.8546 -0.2854
vn -0.8147 -0.5425 -0.2049
vn -0.4438 0.8586 -0.2565
vn 0.8616 0.4499 0.2351
vn -0.8122 -0.5464 -0.2041
vn -0.8640 -0.4452 -0.2351
vn 0.8113 0.5334 0.2393
vn 0.2072 -0.6646 0.7179
vn 0.8596 0.4540 0.2345
vn 0.8087 0.5527 0.2012
vn -0.8643 -0.4431 -0.2378
vn 0.4338 -0.8546 0.2854
vn -0.0087 0.4156 -0.9095
vn -0.6699 -0.6748 -0.3096
vn 0.9502 0.2895 0.1156
vn 0.0069 0.3937 -0.9192
vn 0.7398 0.6655 -0.0991
vn -0.8633 -0.4634 -0.2001
vn -0.5435 0.7321 0.4106
vn 0.5435 -0.7321 -0.4106
vn -0.2540 0.7143 -0.6521
vn 0.9386 0.3173 0.1353
vn -0.6958 -0.6555 -0.2936
vn 0.1927 -0.6484 0.7365
vn 0.5356 -0.6778 -0.5037
vn 0.9349 0.3255 0.1412
vn -0.7035 -0.6494 -0.2886
vn 0.3658 -0.8137 0.4517
vn -0.0438 0.4638 -0.8849
vn -0.8200 -0.2629 -0.5084
vn 0.5176 -0.6011 -0.6090
vn -0.5384 0.8213 0.1888
vn 0.5767 -0.5683 0.5869
vn 0.3685 0.8290 -0.4206
vn -0.5504 0.5881 -0.5926
vn -0.5490 -0.1808 0.8160
vn 0.0622 0.9925 0.1050
vn -0.3350 -0.8555 -0.3949
vn 0.9676 0.1834 -0.1734
vn 0.9524 0.2339 0.1953
vn -0.5769 -0.1485 -0.8032
vn 0.0433 -0.8477 0.5287
vn -0.1135 0.4638 -0.8787
vn 0.1494 -0.6029 0.7837
vn -0.1529 0.4710 -0.8688
vn -0.9447 -0.3118 0.1013
vn 0.2998 -0.5034 0.8104
vn -0.9439 -0.3218 0.0737
vn 0.9693 0.1705 -0.1774
vn 0.1401 -0.6226 0.7699
vn 0.3638 -0.5650 0.7405
vn -0.9652 -0.2163 0.1470
vn -0.3049 0.4319 -0.8488
vn 0.3620 -0.5448 0.7564
vn -0.3372 0.4062 -0.8493
vn -0.6799 -0.6212 -0.3897
vn 0.7054 0.6800 -0.2001
vn -0.6027 -0.4470 -0.6610
vn 0.4171 0.7705 0.4821
vn -0.9284 0.3201 0.1886
vn 0.9630 0.2326 -0.1361
vn -0.2910 0.5077 -0.8109
vn 0.9589 0.2578 -0.1188
vn 0.1868 -0.5332 0.8251
vn -0.2953 0.5060 -0.8104
vn -0.1821 0.5355 -0.8247
vn 0.2716 -0.4853 0.8311
vn -0.8913 0.2148 0.3992
vn 0.1912 -0.5318 0.8250
vn 0.3027 -0.5044 0.8087
vn -0.1791 0.5343 -0.8261
vn -0.9630 -0.2326 0.1361
vn 0.6896 -0.5018 -0.5221
vn -0.4040 0.3218 -0.8563
vn 0.0626 -0.6841 0.7267
vn 0.6699 -0.5213 -0.5287
vn 0.5194 -0.6181 0.5901
vn -0.2107 0.5543 -0.8052
vn 0.6368 0.7218 0.2710
vn -0.6368 -0.7218 -0.2710
vn 0.9237 -0.1356 -0.3584
vn 0.0837 -0.6615 0.7452
vn -0.3869 0.3532 -0.8518
vn -0.8800 0.2384 0.4108
vn -0.5541 -0.7668 -0.3239
vn 0.0900 -0.6547 0.7505
vn -0.3816 0.3627 -0.8502
vn -0.9686 -0.0779 0.2360
vn 0.7322 -0.4562 -0.5057
vn 0.0702 0.3503 -0.9340
vn -0.4448 -0.8095 -0.3833
vn 0.7925 0.5929 0.1432
usemtl Matériau.012
s off
f 83//20 84//20 86//20 85//20
f 90//21 89//21 93//21 94//21
f 89//22 90//22 88//22 87//22
f 105//23 106//23 84//23 83//23
f 103//24 89//24 87//24 105//24
f 104//25 86//25 84//25 106//25
f 94//26 93//26 97//26 98//26
f 103//27 85//27 92//27 107//27
f 104//28 90//28 94//28 108//28
f 85//29 86//29 91//29 92//29
f 110//30 98//30 102//30 112//30
f 107//31 92//31 96//31 109//31
f 108//32 94//32 98//32 110//32
f 92//33 91//33 95//33 96//33
f 101//34 111//34 115//34 118//34
f 96//35 95//35 99//35 100//35
f 98//36 97//36 101//36 102//36
f 109//37 96//37 100//37 111//37
f 97//38 109//38 111//38 101//38
f 100//39 99//39 113//39 114//39
f 91//40 108//40 110//40 95//40
f 93//41 107//41 109//41 97//41
f 95//42 110//42 112//42 99//42
f 86//43 104//43 108//43 91//43
f 89//44 103//44 107//44 93//44
f 90//45 104//45 106//45 88//45
f 85//46 103//46 105//46 83//46
f 87//47 88//47 106//47 105//47
f 117//48 118//48 124//48 123//48
f 113//49 116//49 122//49 119//49
f 102//50 101//50 118//50 117//50
f 111//51 100//51 114//51 115//51
f 99//52 112//52 116//52 113//52
f 112//53 102//53 117//53 116//53
f 124//54 121//54 132//54 131//54
f 120//55 119//55 125//55 126//55
f 115//56 114//56 120//56 121//56
f 118//57 115//57 121//57 124//57
f 116//58 117//58 123//58 122//58
f 114//59 113//59 119//59 120//59
f 128//60 127//60 135//60 136//60
f 119//61 122//61 128//61 125//61
f 121//62 120//62 126//62 127//62
f 122//63 121//63 127//63 128//63
f 131//64 132//64 144//64 143//64
f 122//65 123//65 130//65 129//65
f 123//66 124//66 131//66 130//66
f 121//67 122//67 129//67 132//67
f 136//68 135//68 139//68 140//68
f 127//69 126//69 134//69 135//69
f 125//70 128//70 136//70 133//70
f 126//71 125//71 133//71 134//71
f 138//72 137//72 140//72 139//72
f 135//73 134//73 138//73 139//73
f 133//74 136//74 140//74 137//74
f 134//75 133//75 137//75 138//75
f 144//76 141//76 142//76 143//76
f 129//77 130//77 142//77 141//77
f 132//78 129//78 141//78 144//78
f 130//79 131//79 143//79 142//79
f 145//80 146//80 148//80 147//80
f 152//81 151//81 155//81 156//81
f 151//82 152//82 150//82 149//82
f 167//83 168//83 146//83 145//83
f 165//84 151//84 149//84 167//84
f 166//85 148//85 146//85 168//85
f 156//86 155//86 159//86 160//86
f 165//87 147//87 154//87 169//87
f 166//88 152//88 156//88 170//88
f 147//89 148//89 153//89 154//89
f 172//90 160//90 164//90 174//90
f 169//91 154//91 158//91 171//91
f 170//92 156//92 160//92 172//92
f 154//93 153//93 157//93 158//93
f 163//94 173//94 177//94 180//94
f 158//95 157//95 161//95 162//95
f 160//96 159//96 163//96 164//96
f 171//97 158//97 162//97 173//97
f 159//98 171//98 173//98 163//98
f 162//99 161//99 175//99 176//99
f 153//100 170//100 172//100 157//100
f 155//101 169//101 171//101 159//101
f 157//102 172//102 174//102 161//102
f 148//103 166//103 170//103 153//103
f 151//104 165//104 169//104 155//104
f 152//105 166//105 168//105 150//105
f 147//106 165//106 167//106 145//106
f 149//107 150//107 168//107 167//107
f 179//108 180//108 186//108 185//108
f 175//109 178//109 184//109 181//109
f 164//110 163//110 180//110 179//110
f 173//111 162//111 176//111 177//111
f 161//112 174//112 178//112 175//112
f 174//113 164//113 179//113 178//113
f 186//114 183//114 194//114 193//114
f 182//115 181//115 187//115 188//115
f 177//116 176//116 182//116 183//116
f 180//117 177//117 183//117 186//117
f 178//118 179//118 185//118 184//118
f 176//119 175//119 181//119 182//119
f 190//120 189//120 197//120 198//120
f 181//121 184//121 190//121 187//121
f 183//122 182//122 188//122 189//122
f 184//123 183//123 189//123 190//123
f 193//124 194//124 206//124 205//124
f 184//125 185//125 192//125 191//125
f 185//126 186//126 193//126 192//126
f 183//127 184//127 191//127 194//127
f 198//128 197//128 201//128 202//128
f 189//129 188//129 196//129 197//129
f 187//130 190//130 198//130 195//130
f 188//131 187//131 195//131 196//131
f 200//132 199//132 202//132 201//132
f 197//133 196//133 200//133 201//133
f 195//134 198//134 202//134 199//134
f 196//135 195//135 199//135 200//135
f 206//136 203//136 204//136 205//136
f 191//137 192//137 204//137 203//137
f 194//138 191//138 203//138 206//138
f 192//139 193//139 205//139 204//139
