# Blender v2.91.2 OBJ File: 'camionnete02.blend'
# www.blender.org
mtllib arme_000035.mtl
o Cube.046_Cube.010
v 203.057159 357.462891 -1133.887939
v 139.367981 147.558975 -1112.366455
v 272.730194 315.323120 -1338.702393
v 209.041016 105.419266 -1317.181152
v 3.887711 409.843384 -1212.417725
v -59.801491 199.939468 -1190.896484
v 73.560730 367.703674 -1417.232178
v 9.871552 157.799744 -1395.710938
v 107.131165 415.480896 -851.898865
v 43.442017 205.577072 -830.377502
v -155.727417 257.957520 -908.907288
v -92.038254 467.861389 -930.428589
v 63.718399 441.737915 -724.280151
v 0.029205 231.834030 -702.758911
v -199.140259 284.214539 -781.288635
v -135.451065 494.118408 -802.809937
v 38.072052 457.249390 -648.888916
v -3.818565 301.930908 -645.771118
v -202.988052 354.311462 -724.300842
v -161.097427 509.629883 -727.418579
v 122.097397 406.429016 -895.894287
v 58.408234 196.525162 -874.373047
v -77.072052 458.809570 -974.424072
v -140.761246 248.905655 -952.902771
v 248.133453 330.199829 -1266.396729
v 184.444244 120.295883 -1244.875488
v 48.964005 382.580261 -1344.926514
v -14.725166 172.676361 -1323.405029
v 173.145477 341.513428 -1377.967529
v 109.456268 131.609451 -1356.446289
v 103.472443 383.653137 -1173.152832
v 39.783264 173.749207 -1151.631592
v 7.546463 441.671204 -891.163635
v -56.142723 231.767258 -869.642334
v -35.866318 467.928162 -763.545105
v -92.073524 267.306946 -729.546265
v -61.512657 483.439575 -688.153687
v -94.668091 314.573486 -691.119263
v -41.176521 222.715378 -913.637878
v 22.512665 432.619263 -935.159180
v 84.859528 146.486115 -1284.140381
v 148.548737 356.390076 -1305.661377
v 222.937836 328.418335 -1358.334961
v 89.575623 160.654099 -1131.999023
v -6.350380 218.672195 -850.010010
v -58.498405 258.476868 -716.308105
v -61.092972 305.743347 -677.880981
v 72.305038 419.524170 -915.526672
v 198.341095 343.294922 -1286.029053
v 159.248657 118.514359 -1336.813721
v 153.264801 370.558044 -1153.520508
v 57.338806 428.575989 -871.531311
v 13.926025 454.833069 -743.912598
v -11.720329 470.344482 -668.521301
v 8.615845 209.620255 -894.005493
v 134.651855 133.391006 -1264.507812
v -3.309052 170.318634 -889.975891
v -53.101433 183.413742 -909.608276
v 122.726898 94.089340 -1260.478271
v 72.934601 107.184479 -1280.110840
v 27.858307 134.447571 -1147.602051
v 77.650696 121.352432 -1127.969482
v 301.758820 257.179138 -1190.332275
v 281.826538 269.234558 -1131.738281
v 253.663940 176.417191 -1122.221680
v 273.596100 164.361771 -1180.815918
v 344.798309 245.860031 -1173.362549
v 324.865997 257.915466 -1114.768555
v 296.703339 165.098083 -1105.251953
v 316.635590 153.042633 -1163.846191
v 410.662384 228.538101 -1147.393555
v 390.730072 240.593552 -1088.799316
v 362.567444 147.776199 -1079.282959
v 382.499603 135.720749 -1137.876953
v 453.045135 217.391617 -1130.682617
v 433.112823 229.447098 -1072.088623
v 404.950165 136.629761 -1062.572021
v 424.882416 124.574326 -1121.166016
v 388.138214 -19.922409 -2009.668457
v 338.345825 -6.827316 -2029.300781
v 402.034882 203.076706 -2050.822021
v 451.827362 189.981522 -2031.189697
vn 0.9036 -0.2377 0.3563
vn 0.3161 -0.1912 -0.9293
vn -0.9036 0.2377 -0.3563
vn 0.2890 0.9523 -0.0976
vn -0.2890 -0.9523 0.0976
vn -0.4260 -0.5847 0.6904
vn -0.3692 -0.9241 0.0986
vn -0.4197 0.1021 0.9019
vn -0.9042 0.2374 -0.3550
vn 0.9042 -0.2374 0.3550
vn 0.6462 -0.2693 -0.7141
vn -0.3079 0.0717 0.9487
vn -0.2619 -0.9545 0.1427
vn -0.3542 0.0531 0.9337
vn -0.3091 -0.9377 0.1586
vn -0.3161 0.1912 0.9293
vn 0.0650 0.0822 0.9945
vn 0.2576 -0.9254 0.2780
vn 0.7396 0.6631 0.1152
usemtl Matériau.011
s off
f 25//1 26//1 4//1 3//1
f 29//2 30//2 8//2 7//2
f 27//3 28//3 6//3 5//3
f 22//1 21//1 9//1 10//1
f 42//4 27//4 5//4 31//4
f 56//5 26//5 2//5 44//5
f 10//1 9//1 13//1 14//1
f 55//5 22//5 10//5 45//5
f 23//3 24//3 11//3 12//3
f 46//6 14//6 18//6 47//6
f 45//7 10//7 14//7 46//7
f 12//3 11//3 15//3 16//3
f 33//4 12//4 16//4 35//4
f 54//8 47//8 18//8 17//8
f 16//9 15//9 19//9 20//9
f 14//10 13//10 17//10 18//10
f 5//3 6//3 24//3 23//3
f 44//5 2//5 22//5 55//5
f 31//4 5//4 23//4 40//4
f 2//1 1//1 21//1 22//1
f 50//5 4//5 26//5 56//5
f 29//4 7//4 27//4 42//4
f 7//3 8//3 28//3 27//3
f 26//11 25//11 63//11 66//11
f 43//4 29//4 42//4 49//4
f 8//5 30//5 41//5 28//5
f 51//4 31//4 40//4 48//4
f 6//5 32//5 39//5 24//5
f 20//12 19//12 38//12 37//12
f 52//4 33//4 35//4 53//4
f 11//13 34//13 36//13 15//13
f 15//6 36//6 38//6 19//6
f 24//5 39//5 34//5 11//5
f 28//5 41//5 32//5 6//5
f 49//4 42//4 31//4 51//4
f 30//3 29//3 81//3 80//3
f 3//2 4//2 50//2 43//2
f 25//4 49//4 51//4 1//4
f 9//4 52//4 53//4 13//4
f 1//4 51//4 48//4 21//4
f 3//4 43//4 49//4 25//4
f 30//5 50//5 56//5 41//5
f 32//3 41//3 60//3 61//3
f 37//14 38//14 47//14 54//14
f 34//15 45//15 46//15 36//15
f 36//6 46//6 47//6 38//6
f 39//5 55//5 45//5 34//5
f 55//16 39//16 58//16 57//16
f 61//5 62//5 57//5 58//5
f 60//5 59//5 62//5 61//5
f 39//3 32//3 61//3 58//3
f 44//1 55//1 57//1 62//1
f 41//2 56//2 59//2 60//2
f 56//1 44//1 62//1 59//1
f 66//2 63//2 67//2 70//2
f 1//17 2//17 65//17 64//17
f 2//18 26//18 66//18 65//18
f 25//19 1//19 64//19 63//19
f 69//5 70//5 74//5 73//5
f 64//16 65//16 69//16 68//16
f 65//5 66//5 70//5 69//5
f 63//4 64//4 68//4 67//4
f 73//5 74//5 78//5 77//5
f 67//4 68//4 72//4 71//4
f 70//2 67//2 71//2 74//2
f 68//16 69//16 73//16 72//16
f 76//1 77//1 78//1 75//1
f 71//4 72//4 76//4 75//4
f 74//2 71//2 75//2 78//2
f 82//2 79//2 80//2 81//2
f 50//5 30//5 80//5 79//5
f 43//1 50//1 79//1 82//1
f 29//4 43//4 82//4 81//4
o Cube.048_Cube.024
v -563.601257 464.314636 182.267212
v -726.405518 341.430786 52.683769
v -423.338898 484.864380 -13.441071
v -586.694580 365.032288 -140.794037
v -679.631775 646.444702 45.534412
v -763.106079 583.438721 -20.906647
v -607.715393 656.981201 -54.810730
v -690.589600 594.847168 -120.836922
v -411.410400 451.326660 -437.253143
v -298.094055 489.274628 -395.516022
v -326.461945 608.562073 -426.954956
v -439.778290 570.614075 -468.692047
v -317.254517 440.190125 -631.937927
v -233.941803 468.090332 -601.251770
v -254.798553 555.793152 -624.366455
v -338.111267 527.892944 -655.052490
v -256.951233 435.750580 -753.632874
v -196.067322 456.139648 -731.208008
v -211.309204 520.231689 -748.099670
v -272.192993 499.842590 -770.524597
v -484.133301 590.681580 -23.308510
v -656.403687 463.976685 -158.500641
v -633.156982 568.804077 184.452911
v -805.993774 438.347717 46.884117
v -306.630707 549.256714 -415.047180
v -426.929932 508.970276 -459.356232
v -234.538147 510.001495 -629.042542
v -322.984894 480.381927 -661.619507
v -191.349396 484.781555 -763.703735
v -255.985046 463.135986 -787.510681
v -219.925781 418.451904 -838.428894
v -159.041870 438.840912 -816.004028
v -151.832275 471.445007 -858.866821
v -216.468140 449.799469 -882.673706
v -233.059082 485.897034 -864.094177
v -172.175232 506.286133 -841.669250
v -193.614136 407.278748 -899.706238
v -132.730225 427.667847 -877.281311
v -125.520813 460.271912 -920.143860
v -190.156494 438.626373 -943.950745
v -206.747498 474.723938 -925.371399
v -145.863647 495.113007 -902.946533
v -161.198792 381.011078 -927.080994
v -122.010559 394.134583 -912.647156
v -117.370178 415.120422 -940.235779
v -158.973206 401.188141 -955.559204
v -182.099609 466.748779 -991.394714
v -198.690613 502.846375 -972.815247
v -137.806702 523.235535 -950.390381
v -117.463928 488.394348 -967.587830
v -140.062683 361.997192 -945.549255
v -113.643127 370.844727 -935.818176
v -110.514648 384.992798 -954.417725
v -138.562256 375.600037 -964.748474
v -120.735291 352.255920 -972.403381
v -104.220093 357.786652 -966.320374
v -102.264404 366.630707 -977.947327
v -119.797302 360.759155 -984.405090
v -170.023376 491.469910 -1009.970886
v -181.054932 515.471619 -997.617126
v -140.572449 529.028564 -982.706482
v -127.046265 505.862244 -994.141541
v -303.368958 550.601685 420.301117
v -297.678284 325.691956 332.092316
v -151.170959 615.831543 241.631500
v -153.565002 399.667786 152.770020
v -460.769531 562.209900 219.252289
v -457.851776 446.892426 174.025177
v -383.817810 600.780396 130.153687
v -383.960876 484.821869 82.081604
v 6.058899 572.931763 -173.834198
v 80.129700 642.479431 -98.341881
v -1.277222 738.347168 -107.189827
v -74.955017 669.875488 -181.663666
v 110.830627 669.183838 -337.082184
v 165.868286 719.662720 -281.550171
v 106.304993 790.937805 -287.306549
v 51.267395 740.459045 -342.838745
v 176.312317 732.097717 -438.175812
v 216.533081 768.986938 -397.593597
v 173.004944 821.073914 -401.800262
v 132.784241 784.184631 -442.382324
v -257.313965 645.602600 194.381927
v -261.290680 411.306732 95.745468
v -420.326050 571.541626 379.762665
v -414.284698 332.772186 286.118195
v 45.462402 694.109619 -104.368523
v -34.009094 621.220825 -184.553986
v 147.034607 763.368591 -297.807526
v 88.605286 709.779114 -356.761566
v 209.333069 805.547058 -420.179138
v 166.633728 766.384705 -463.261993
v 224.719788 761.869568 -513.214844
v 264.940369 798.758728 -472.632538
v 258.874146 843.112061 -503.425568
v 216.174927 803.949524 -546.508545
v 182.151184 820.551636 -524.367371
v 222.372009 857.440918 -483.785370
v 258.655701 784.291321 -567.230042
v 298.876404 821.180542 -526.647766
v 292.810425 865.533875 -557.441223
v 250.110962 826.371399 -600.523865
v 216.087219 842.973572 -578.382690
v 256.307983 879.862732 -537.800598
v 302.231689 785.817322 -591.497559
v 328.120056 809.561218 -565.376770
v 324.215515 838.109375 -585.197083
v 296.731995 812.902222 -612.927490
v 247.435364 868.862671 -636.496765
v 213.411682 885.464844 -614.355652
v 253.632385 922.354187 -573.773438
v 290.134583 908.025208 -593.413818
v 331.643127 785.442566 -608.354797
v 349.096375 801.450012 -590.744812
v 346.464050 820.696472 -604.107239
v 327.935364 803.702515 -622.802246
v 355.650330 794.717224 -631.316101
v 366.560608 804.723633 -620.307922
v 364.915100 816.754822 -628.660767
v 353.332458 806.131653 -640.347229
v 247.239746 900.908813 -645.159973
v 224.616760 911.947876 -630.437927
v 251.360046 936.475830 -603.454285
v 275.630920 926.948425 -616.513489
vn 0.4570 -0.8589 0.2313
vn -0.2928 0.9053 -0.3077
vn -0.4573 0.8575 -0.2358
vn -0.4382 -0.3094 0.8439
vn 0.3700 0.8582 0.3556
vn -0.6408 -0.5525 -0.5330
vn -0.1935 0.9280 -0.3183
vn 0.8546 0.4131 0.3146
vn -0.7974 -0.1074 -0.5938
vn 0.4549 -0.8867 0.0830
vn -0.8735 -0.2010 -0.4433
vn 0.9382 0.2114 0.2741
vn -0.8763 -0.2352 -0.4205
vn 0.2533 -0.9511 0.1769
vn 0.8793 0.3573 0.3148
vn 0.2588 -0.9521 0.1630
vn -0.1875 0.9246 -0.3316
vn 0.9484 0.1722 0.2663
vn 0.8962 0.3916 0.2085
vn 0.2095 -0.9361 0.2824
vn -0.8408 -0.3844 -0.3812
vn 0.9027 0.3605 0.2348
vn -0.8213 -0.4205 -0.3855
vn -0.6609 -0.5016 -0.5581
vn 0.5891 0.7638 0.2639
vn -0.8058 -0.0391 -0.5909
vn 0.7006 0.4544 0.5501
vn -0.7389 0.4519 0.4998
vn -0.2172 0.9396 -0.2646
vn -0.8828 -0.3481 -0.3156
vn -0.2291 0.9442 -0.2365
vn 0.9063 0.2462 0.3436
vn -0.8813 -0.3524 -0.3148
vn -0.9077 -0.2412 -0.3434
vn 0.8740 0.3381 0.3489
vn -0.0094 -0.7270 0.6865
vn 0.9053 0.2507 0.3430
vn 0.8794 0.3594 0.3121
vn -0.9073 -0.2389 -0.3460
vn 0.2172 -0.9396 0.2646
vn 0.1714 0.4513 -0.8758
vn -0.7581 -0.5027 -0.4154
vn 0.9721 0.0767 0.2219
vn 0.1831 0.4271 -0.8855
vn 0.8667 0.4986 0.0152
vn -0.9143 -0.2608 -0.3098
vn -0.4215 0.8097 0.4083
vn 0.4215 -0.8097 -0.4083
vn -0.0329 0.7823 -0.6220
vn 0.9644 0.1054 0.2424
vn -0.7810 -0.4792 -0.4005
vn -0.0221 -0.7091 0.7048
vn 0.4347 -0.7505 -0.4978
vn 0.9619 0.1139 0.2484
vn -0.7878 -0.4718 -0.3959
vn 0.1421 -0.8933 0.4263
vn 0.1445 0.5046 -0.8512
vn -0.7990 -0.0593 -0.5983
vn 0.4438 -0.6667 -0.5988
vn -0.3752 0.9063 0.1946
vn 0.7918 -0.2225 0.5689
vn -0.6364 0.5871 -0.5003
vn -0.7932 0.2196 -0.5680
vn -0.3621 -0.3483 0.8647
vn -0.3731 0.9262 0.0539
vn 0.0729 -0.9413 -0.3297
vn -0.6010 0.7891 -0.1269
vn 0.3460 0.8535 0.3897
vn -0.3604 -0.5492 -0.7540
vn 0.8297 -0.4281 0.3582
vn -0.6114 -0.4134 -0.6747
vn 0.6781 0.5053 0.5337
vn -0.5988 -0.4506 -0.6621
vn 0.6781 -0.7349 0.0050
vn 0.5504 0.5881 0.5926
vn 0.6827 -0.7306 -0.0125
vn -0.5919 0.7945 -0.1357
vn 0.7067 0.4805 0.5193
vn 0.5577 0.6589 0.5049
vn 0.6211 -0.7783 0.0919
vn -0.4976 -0.5718 -0.6523
vn 0.5672 0.6348 0.5247
vn -0.4624 -0.5918 -0.6603
vn -0.0738 -0.8214 -0.5656
vn -0.0894 0.9708 0.2226
vn -0.3654 -0.7195 -0.5905
vn 0.0525 0.9167 0.3962
vn -0.9607 -0.1220 0.2492
vn -0.6312 0.7719 -0.0761
vn -0.5579 -0.5817 -0.5920
vn -0.6463 0.7613 -0.0515
vn 0.6264 0.4982 0.5995
vn -0.5545 -0.5849 -0.5920
vn -0.6301 -0.4947 -0.5985
vn 0.5523 0.5587 0.6188
vn 0.2907 -0.8336 0.4696
vn 0.6233 0.5017 0.5998
vn 0.5497 0.5908 0.5906
vn -0.6307 -0.4918 -0.6004
vn 0.6312 -0.7719 0.0761
vn 0.0040 0.7380 -0.6748
vn -0.3641 -0.6222 -0.6930
vn 0.7789 0.4261 0.4603
vn 0.0270 0.7262 -0.6869
vn 0.4969 0.7978 0.3415
vn -0.6292 -0.5249 -0.5732
vn -0.8050 0.3530 0.4769
vn 0.8050 -0.3530 -0.4769
vn -0.3607 0.8398 -0.4059
vn 0.7561 0.4398 0.4846
vn -0.3970 -0.6177 -0.6789
vn 0.2691 -0.8303 0.4880
vn 0.7951 -0.2687 -0.5437
vn 0.7492 0.4438 0.4917
vn -0.4069 -0.6162 -0.6743
vn 0.5284 -0.8196 0.2214
vn -0.0480 0.7623 -0.6454
vn -0.6035 -0.2115 -0.7688
vn 0.7705 -0.1619 -0.6165
vn -0.7933 0.5239 0.3100
usemtl Matériau.012
s off
f 83//20 84//20 86//20 85//20
f 90//21 89//21 93//21 94//21
f 89//22 90//22 88//22 87//22
f 105//23 106//23 84//23 83//23
f 103//24 89//24 87//24 105//24
f 104//25 86//25 84//25 106//25
f 94//26 93//26 97//26 98//26
f 103//27 85//27 92//27 107//27
f 104//28 90//28 94//28 108//28
f 85//29 86//29 91//29 92//29
f 110//30 98//30 102//30 112//30
f 107//31 92//31 96//31 109//31
f 108//32 94//32 98//32 110//32
f 92//33 91//33 95//33 96//33
f 101//34 111//34 115//34 118//34
f 96//35 95//35 99//35 100//35
f 98//36 97//36 101//36 102//36
f 109//37 96//37 100//37 111//37
f 97//38 109//38 111//38 101//38
f 100//39 99//39 113//39 114//39
f 91//40 108//40 110//40 95//40
f 93//41 107//41 109//41 97//41
f 95//42 110//42 112//42 99//42
f 86//43 104//43 108//43 91//43
f 89//44 103//44 107//44 93//44
f 90//45 104//45 106//45 88//45
f 85//46 103//46 105//46 83//46
f 87//47 88//47 106//47 105//47
f 117//48 118//48 124//48 123//48
f 113//49 116//49 122//49 119//49
f 102//50 101//50 118//50 117//50
f 111//51 100//51 114//51 115//51
f 99//52 112//52 116//52 113//52
f 112//53 102//53 117//53 116//53
f 124//54 121//54 132//54 131//54
f 120//55 119//55 125//55 126//55
f 115//56 114//56 120//56 121//56
f 118//57 115//57 121//57 124//57
f 116//58 117//58 123//58 122//58
f 114//59 113//59 119//59 120//59
f 128//60 127//60 135//60 136//60
f 119//61 122//61 128//61 125//61
f 121//62 120//62 126//62 127//62
f 122//63 121//63 127//63 128//63
f 131//64 132//64 144//64 143//64
f 122//65 123//65 130//65 129//65
f 123//66 124//66 131//66 130//66
f 121//67 122//67 129//67 132//67
f 136//68 135//68 139//68 140//68
f 127//69 126//69 134//69 135//69
f 125//70 128//70 136//70 133//70
f 126//71 125//71 133//71 134//71
f 138//72 137//72 140//72 139//72
f 135//73 134//73 138//73 139//73
f 133//74 136//74 140//74 137//74
f 134//75 133//75 137//75 138//75
f 144//76 141//76 142//76 143//76
f 129//77 130//77 142//77 141//77
f 132//78 129//78 141//78 144//78
f 130//79 131//79 143//79 142//79
f 145//80 146//80 148//80 147//80
f 152//81 151//81 155//81 156//81
f 151//82 152//82 150//82 149//82
f 167//83 168//83 146//83 145//83
f 165//84 151//84 149//84 167//84
f 166//85 148//85 146//85 168//85
f 156//86 155//86 159//86 160//86
f 165//87 147//87 154//87 169//87
f 166//88 152//88 156//88 170//88
f 147//89 148//89 153//89 154//89
f 172//90 160//90 164//90 174//90
f 169//91 154//91 158//91 171//91
f 170//92 156//92 160//92 172//92
f 154//93 153//93 157//93 158//93
f 163//94 173//94 177//94 180//94
f 158//95 157//95 161//95 162//95
f 160//96 159//96 163//96 164//96
f 171//97 158//97 162//97 173//97
f 159//98 171//98 173//98 163//98
f 162//99 161//99 175//99 176//99
f 153//100 170//100 172//100 157//100
f 155//101 169//101 171//101 159//101
f 157//102 172//102 174//102 161//102
f 148//103 166//103 170//103 153//103
f 151//104 165//104 169//104 155//104
f 152//105 166//105 168//105 150//105
f 147//106 165//106 167//106 145//106
f 149//107 150//107 168//107 167//107
f 179//108 180//108 186//108 185//108
f 175//109 178//109 184//109 181//109
f 164//110 163//110 180//110 179//110
f 173//111 162//111 176//111 177//111
f 161//112 174//112 178//112 175//112
f 174//113 164//113 179//113 178//113
f 186//114 183//114 194//114 193//114
f 182//115 181//115 187//115 188//115
f 177//116 176//116 182//116 183//116
f 180//117 177//117 183//117 186//117
f 178//118 179//118 185//118 184//118
f 176//119 175//119 181//119 182//119
f 190//120 189//120 197//120 198//120
f 181//121 184//121 190//121 187//121
f 183//122 182//122 188//122 189//122
f 184//123 183//123 189//123 190//123
f 193//124 194//124 206//124 205//124
f 184//125 185//125 192//125 191//125
f 185//126 186//126 193//126 192//126
f 183//127 184//127 191//127 194//127
f 198//128 197//128 201//128 202//128
f 189//129 188//129 196//129 197//129
f 187//130 190//130 198//130 195//130
f 188//131 187//131 195//131 196//131
f 200//132 199//132 202//132 201//132
f 197//133 196//133 200//133 201//133
f 195//134 198//134 202//134 199//134
f 196//135 195//135 199//135 200//135
f 206//136 203//136 204//136 205//136
f 191//137 192//137 204//137 203//137
f 194//138 191//138 203//138 206//138
f 192//139 193//139 205//139 204//139
