# Blender v2.91.2 OBJ File: 'camionnete02.blend'
# www.blender.org
mtllib arme_000234.mtl
o Cube.046_Cube.010
v 541.255493 375.176819 -768.563721
v 505.935913 205.138824 -904.279297
v 734.490723 413.830078 -867.281250
v 699.171265 243.792053 -1002.996887
v 441.296814 509.980774 -911.445679
v 405.977234 339.942688 -1047.161255
v 634.531982 548.633972 -1010.163147
v 599.212524 378.596008 -1145.878906
v 275.208801 321.958984 -632.649292
v 239.889221 151.920959 -768.364868
v 139.930481 286.724854 -911.246765
v 175.250061 456.762878 -775.531189
v 154.805115 297.874329 -571.138977
v 119.485626 127.836365 -706.854614
v 19.526825 262.640259 -849.736511
v 54.846405 432.678284 -714.020935
v 83.676117 283.646301 -534.801575
v 69.945709 162.232849 -639.484924
v -30.013062 297.036804 -782.366882
v -16.282684 418.450256 -677.683411
v 190.015564 467.386780 -435.843048
v 90.056824 602.190674 -578.724976
v 118.886505 453.158630 -399.505524
v 18.927765 587.962585 -542.387451
v 316.716980 330.261902 -653.854431
v 281.397400 160.223938 -789.570007
v 216.758240 465.065857 -796.736389
v 181.438660 295.027832 -932.451904
v 286.868103 378.089783 -587.848633
v 186.909363 512.893738 -730.730469
v 328.376221 386.392761 -609.053650
v 228.417419 521.196594 -751.935547
v 303.783752 459.526489 -522.850098
v 203.824951 594.330322 -665.731873
v 345.291870 467.829407 -544.055237
v 245.333130 602.633301 -686.937012
v 169.185730 354.549561 -527.728516
v 69.226959 489.353455 -670.610474
v 186.101379 435.986206 -462.729980
v 86.142639 570.790100 -605.611938
v 256.844238 581.896729 -374.559631
v 156.885559 716.700623 -517.441650
v 185.715210 567.668640 -338.222229
v 85.756470 702.472473 -481.104095
v 666.272705 400.184326 -832.430969
v 630.953247 230.146271 -968.146606
v 566.313904 534.988220 -975.312805
v 530.994446 364.950134 -1111.028320
v 684.511353 481.231995 -938.722229
v 649.191895 311.194031 -1074.437744
v 491.276184 442.578857 -840.004700
v 455.956604 272.540771 -975.720276
v 225.229370 389.360901 -704.090210
v 189.909851 219.322876 -839.805786
v 104.825775 365.276367 -642.579956
v 65.508270 195.351593 -761.507507
v 33.696747 351.048218 -606.242554
v 32.103424 218.545288 -716.079956
v 140.036133 534.788696 -507.283905
v 68.907166 520.560608 -470.946533
v 231.418030 227.625854 -861.010864
v 266.737610 397.663879 -725.295410
v 236.888672 445.491760 -659.289551
v 278.396790 453.794617 -680.494629
v 253.804382 526.928406 -594.290955
v 295.312500 535.231384 -615.496155
v 119.206390 421.951599 -599.169556
v 136.122040 503.388184 -534.170898
v 206.864929 649.298767 -446.000641
v 135.735840 635.070618 -409.663208
v 580.973816 297.548218 -1039.587402
v 616.293396 467.586243 -903.871887
v 709.500977 447.531067 -903.001709
v 480.946228 238.839783 -939.999817
v 214.899597 185.621918 -804.085327
v 82.358917 172.626953 -737.421143
v 48.953979 195.820557 -691.993530
v 291.727234 363.962830 -689.574951
v 303.386536 420.093689 -644.774170
v 320.302124 501.530396 -579.775635
v 641.283081 433.885315 -868.151428
v 674.181580 277.493042 -1038.717285
v 516.265869 408.877869 -804.284302
v 250.219116 355.659973 -668.369812
v 129.815491 331.575378 -606.859497
v 58.686432 317.347229 -570.522034
v 165.025879 501.087708 -471.563477
v 93.896820 486.859619 -435.226044
v 256.407776 193.924927 -825.290527
v 261.878357 411.790771 -623.569031
v 278.794067 493.227478 -558.570435
v 144.196045 388.250549 -563.449036
v 161.111694 469.687195 -498.450439
v 231.854614 615.597656 -410.280121
v 160.725555 601.369568 -373.942719
v 605.963562 263.847290 -1003.867004
v 249.794617 162.087585 -850.701355
v 224.804932 195.788544 -886.421814
v 599.350464 232.010040 -1029.277954
v 574.360718 265.710938 -1064.998413
v 449.343506 240.703461 -1001.131226
v 474.333191 207.002472 -965.410706
v 663.691956 288.958008 -792.237366
v 608.410583 277.899963 -763.996094
v 592.792664 202.710785 -824.007935
v 648.074097 213.768951 -852.249512
v 685.292603 259.827637 -761.361511
v 630.011230 248.769562 -733.120056
v 614.393311 173.580475 -793.131958
v 669.674683 184.638580 -821.373474
v 718.348389 215.248901 -714.111328
v 663.067078 204.190796 -685.869873
v 647.449097 129.001740 -745.881836
v 702.730469 140.059875 -774.123474
v 739.619385 186.562988 -683.706543
v 684.338074 175.504944 -655.465088
v 668.720154 100.315796 -715.477051
v 724.001465 111.373962 -743.718567
v 1308.996216 404.476196 -1363.022583
v 1284.006714 438.177185 -1398.743164
v 1319.326050 608.215332 -1263.027588
v 1344.315796 574.514343 -1227.307007
v 246.875793 694.501770 -406.260437
v 200.822510 756.609009 -472.089447
v 181.334106 681.391296 -372.777313
v 135.280884 743.498474 -438.606354
v 227.387451 619.284058 -306.948456
v 292.929077 632.394470 -340.431244
v 269.902405 663.448181 -373.345703
v 204.360840 650.337646 -339.862915
vn 0.4535 -0.6116 0.6483
vn 0.8767 0.1754 -0.4479
vn -0.4535 0.6116 -0.6483
vn 0.1602 0.7715 0.6158
vn -0.1602 -0.7715 -0.6158
vn -0.8767 -0.1754 0.4479
vn -0.7023 -0.6931 -0.1626
vn -0.2232 -0.7260 -0.6505
vn -0.9235 -0.2098 0.3212
vn -0.4548 0.6110 -0.6480
vn 0.4548 -0.6110 0.6480
vn 0.7648 -0.1063 -0.6354
vn 0.7613 -0.1124 -0.6386
vn -0.7648 0.1063 0.6354
vn 0.9845 -0.0795 -0.1567
vn 0.1602 0.7715 0.6157
vn -0.3673 0.8453 -0.3880
vn -0.8690 -0.2877 0.4026
vn -0.1703 -0.8013 -0.5736
vn -0.7209 0.1759 0.6703
vn -0.8906 -0.2838 0.3553
vn -0.2176 -0.7813 -0.5849
vn -0.6275 -0.4019 0.6669
vn 0.1166 -0.9809 -0.1558
vn 0.3839 0.3059 0.8712
vn -0.1602 -0.7715 -0.6157
vn 0.4321 -0.6962 0.5732
usemtl Matériau.011
s off
f 45//1 46//1 4//1 3//1
f 49//2 50//2 8//2 7//2
f 47//3 48//3 6//3 5//3
f 26//1 25//1 9//1 10//1
f 72//4 47//4 5//4 51//4
f 96//5 46//5 2//5 74//5
f 10//1 9//1 13//1 14//1
f 84//6 9//6 29//6 90//6
f 89//5 26//5 10//5 75//5
f 27//3 28//3 11//3 12//3
f 76//7 14//7 18//7 77//7
f 75//8 10//8 14//8 76//8
f 12//3 11//3 15//3 16//3
f 53//4 12//4 16//4 55//4
f 86//9 77//9 18//9 17//9
f 16//10 15//10 19//10 20//10
f 16//3 20//3 24//3 22//3
f 14//11 13//11 17//11 18//11
f 59//12 22//12 42//12 69//12
f 86//6 17//6 23//6 88//6
f 17//1 13//1 21//1 23//1
f 55//2 16//2 22//2 59//2
f 5//3 6//3 28//3 27//3
f 74//5 2//5 26//5 89//5
f 51//4 5//4 27//4 62//4
f 2//1 1//1 25//1 26//1
f 32//3 30//3 34//3 36//3
f 62//2 27//2 32//2 64//2
f 27//3 12//3 30//3 32//3
f 9//1 25//1 31//1 29//1
f 66//4 36//4 34//4 65//4
f 90//5 29//5 37//5 92//5
f 64//2 32//2 36//2 66//2
f 29//1 31//1 35//1 33//1
f 92//6 37//6 39//6 93//6
f 29//1 33//1 39//1 37//1
f 34//3 30//3 38//3 40//3
f 65//4 34//4 40//4 68//4
f 69//13 42//13 124//13 123//13
f 23//1 21//1 41//1 43//1
f 88//14 23//14 43//14 95//14
f 22//3 24//3 44//3 42//3
f 82//5 4//5 46//5 96//5
f 49//4 7//4 47//4 72//4
f 7//3 8//3 48//3 47//3
f 46//15 45//15 103//15 106//15
f 73//16 49//16 72//16 81//16
f 8//5 50//5 71//5 48//5
f 24//14 60//14 70//14 44//14
f 42//17 44//17 126//17 124//17
f 91//4 65//4 68//4 93//4
f 38//6 67//6 68//6 40//6
f 79//2 64//2 66//2 80//2
f 30//5 63//5 67//5 38//5
f 80//16 66//16 65//16 91//16
f 78//2 62//2 64//2 79//2
f 83//4 51//4 62//4 78//4
f 6//5 52//5 61//5 28//5
f 85//2 55//2 59//2 87//2
f 20//6 57//6 60//6 24//6
f 87//12 59//12 69//12 94//12
f 20//18 19//18 58//18 57//18
f 84//4 53//4 55//4 85//4
f 11//19 54//19 56//19 15//19
f 15//7 56//7 58//7 19//7
f 28//5 61//5 54//5 11//5
f 12//6 53//6 63//6 30//6
f 48//5 71//5 52//5 6//5
f 81//4 72//4 51//4 83//4
f 50//3 49//3 121//3 120//3
f 3//2 4//2 82//2 73//2
f 45//4 81//4 83//4 1//4
f 9//4 84//4 85//4 13//4
f 21//12 87//12 94//12 41//12
f 13//2 85//2 87//2 21//2
f 1//4 83//4 78//4 25//4
f 25//2 78//2 79//2 31//2
f 35//4 80//4 91//4 33//4
f 31//2 79//2 80//2 35//2
f 33//4 91//4 93//4 39//4
f 70//20 95//20 130//20 125//20
f 3//4 73//4 81//4 45//4
f 50//5 82//5 96//5 71//5
f 60//14 88//14 95//14 70//14
f 67//6 92//6 93//6 68//6
f 63//5 90//5 92//5 67//5
f 52//3 71//3 100//3 101//3
f 57//6 86//6 88//6 60//6
f 57//21 58//21 77//21 86//21
f 54//22 75//22 76//22 56//22
f 56//7 76//7 77//7 58//7
f 61//5 89//5 75//5 54//5
f 53//6 84//6 90//6 63//6
f 89//6 61//6 98//6 97//6
f 101//5 102//5 97//5 98//5
f 100//5 99//5 102//5 101//5
f 61//3 52//3 101//3 98//3
f 74//1 89//1 97//1 102//1
f 71//2 96//2 99//2 100//2
f 96//1 74//1 102//1 99//1
f 106//2 103//2 107//2 110//2
f 1//23 2//23 105//23 104//23
f 2//24 46//24 106//24 105//24
f 45//25 1//25 104//25 103//25
f 109//5 110//5 114//5 113//5
f 104//6 105//6 109//6 108//6
f 105//26 106//26 110//26 109//26
f 103//4 104//4 108//4 107//4
f 113//5 114//5 118//5 117//5
f 107//4 108//4 112//4 111//4
f 110//2 107//2 111//2 114//2
f 108//6 109//6 113//6 112//6
f 116//1 117//1 118//1 115//1
f 111//4 112//4 116//4 115//4
f 114//2 111//2 115//2 118//2
f 122//2 119//2 120//2 121//2
f 82//5 50//5 120//5 119//5
f 73//1 82//1 119//1 122//1
f 49//16 73//16 122//16 121//16
f 123//4 124//4 126//4 125//4
f 129//16 123//16 125//16 130//16
f 128//4 129//4 130//4 127//4
f 95//20 43//20 127//20 130//20
f 94//13 69//13 123//13 129//13
f 43//27 41//27 128//27 127//27
f 44//20 70//20 125//20 126//20
f 41//13 94//13 129//13 128//13
o Cube.048_Cube.024
v -477.708771 573.293640 132.828247
v -621.694214 380.214844 113.173019
v -391.990143 531.983276 -89.305321
v -543.016663 339.161133 -121.850014
v -666.025452 655.513489 -19.181770
v -739.850769 556.516602 -29.259567
v -622.075195 634.332520 -133.075897
v -696.543823 535.565186 -144.588776
v -340.223877 464.658844 -509.091522
v -289.704407 446.657440 -394.434052
v -304.127991 569.763000 -368.751038
v -354.647491 587.764404 -483.408600
v -139.617371 518.219971 -570.571533
v -102.474365 504.984863 -486.272675
v -113.078918 595.494934 -467.389984
v -150.221924 608.729919 -551.688782
v -13.468994 553.437988 -606.794922
v 13.674683 543.765991 -545.190491
v 5.925049 609.909424 -531.391296
v -21.218689 619.581482 -592.995667
v -481.386139 610.434204 -118.454521
v -638.550720 408.029785 -150.221558
v -572.129211 654.590515 117.452728
v -724.987427 449.613586 96.586273
v -290.267609 508.686462 -380.141449
v -343.900269 527.797241 -501.864532
v -89.472595 553.306152 -481.249237
v -128.904541 567.356812 -570.742859
v 35.349182 581.543030 -546.496033
v 6.532837 591.811035 -611.896729
v 72.513000 567.322083 -642.499817
v 99.656677 557.650085 -580.895264
v 129.604614 602.827271 -584.684265
v 100.788330 613.095337 -650.085083
v 71.765137 639.728271 -630.802368
v 98.908813 630.056335 -569.197937
v 134.158203 578.601257 -667.890564
v 161.301819 568.929321 -606.286072
v 191.249695 614.106506 -610.075073
v 162.433472 624.374512 -675.475891
v 133.410156 651.007446 -656.192932
v 160.553833 641.335449 -594.588562
v 179.459900 559.961243 -677.399658
v 196.931091 553.735840 -637.747742
v 216.207092 582.814331 -640.186646
v 197.659302 589.423401 -682.282104
v 196.616821 667.615356 -683.748535
v 167.593567 694.248291 -664.465820
v 194.737183 684.576294 -602.861206
v 225.433044 657.347290 -618.347778
v 209.643921 546.492737 -684.940491
v 221.422424 542.295715 -658.208313
v 234.417908 561.899658 -659.852417
v 221.913574 566.355286 -688.232056
v 242.971191 545.195679 -693.726807
v 250.334045 542.572083 -677.016052
v 258.457703 554.826660 -678.043823
v 250.641052 557.612061 -695.784241
v 214.859375 693.704590 -674.335632
v 195.561340 711.413086 -661.514099
v 213.609558 704.982056 -620.552551
v 234.019653 686.877197 -630.849792
v -296.333008 469.673401 450.313416
v -419.802460 281.372498 362.588745
v -115.873840 397.226746 313.171539
v -229.064270 219.034790 227.939178
v -362.234802 546.646240 215.659515
v -425.541077 450.099060 170.680603
v -259.425262 511.144775 152.233078
v -327.744293 418.136749 101.641983
v -17.603149 151.495544 -66.736153
v -40.855286 59.246765 12.101208
v 70.512146 73.794800 63.876015
v 96.042236 164.811340 -12.606102
v 77.681458 1.722656 -190.754059
v 58.447571 -68.711304 -133.046326
v 142.002075 -58.921265 -93.248573
v 161.236145 11.512634 -150.956543
v 138.732178 -93.354004 -266.246765
v 124.676086 -144.825989 -224.074615
v 185.736755 -137.671631 -194.990967
v 199.792725 -86.199524 -237.163055
v -157.519470 472.454712 245.791290
v -288.509125 286.988983 145.231140
v -359.923279 553.072815 381.308807
v -491.001343 353.168152 288.178253
v 14.429199 55.791809 37.556389
v 42.201965 157.494690 -45.770782
v 106.966675 -78.153503 -123.775002
v 127.385864 -3.379211 -185.038940
v 165.336487 -160.357727 -226.099854
v 180.258606 -105.713745 -270.870819
v 172.133667 -154.406372 -329.630005
v 158.077698 -205.878357 -287.457764
v 207.717224 -227.136047 -293.479065
v 222.639343 -172.492065 -338.249939
v 240.793213 -152.097900 -303.928192
v 226.737366 -203.569946 -261.756012
v 197.340576 -198.145691 -374.613434
v 183.284668 -249.617920 -332.441284
v 232.924194 -270.875671 -338.462646
v 247.846252 -216.231567 -383.233459
v 266.000305 -195.837280 -348.911682
v 251.944336 -247.309387 -306.739532
v 188.261475 -236.624207 -405.061523
v 179.214172 -269.754639 -377.917236
v 211.165039 -283.437073 -381.793121
v 220.769653 -248.265259 -410.610138
v 296.986389 -239.579346 -395.351898
v 315.140259 -219.185059 -361.029938
v 301.084351 -270.657349 -318.857758
v 282.064270 -294.223389 -350.580872
v 181.370667 -261.846558 -426.641602
v 175.271301 -284.181946 -408.341583
v 196.811646 -293.406494 -410.954590
v 203.286804 -269.694458 -430.382202
v 187.054749 -288.263245 -448.075836
v 183.242004 -302.225464 -436.636353
v 196.706970 -307.991699 -438.269440
v 200.754700 -293.169067 -450.413971
v 324.076233 -257.631531 -388.847168
v 336.147034 -244.070923 -366.026001
v 326.800964 -278.295532 -337.985199
v 314.154236 -293.964905 -359.078308
vn 0.7153 -0.5962 0.3646
vn -0.2630 0.9096 -0.3217
vn -0.7194 0.5810 -0.3806
vn -0.1508 0.0118 0.9885
vn 0.1772 0.9775 -0.1144
vn -0.5624 -0.8253 -0.0512
vn -0.0430 0.9839 0.1734
vn 0.8062 0.5415 0.2386
vn -0.7033 -0.1691 -0.6905
vn 0.5557 -0.8074 0.1980
vn -0.3194 0.2717 -0.9078
vn 0.4787 -0.2035 0.8541
vn -0.3325 0.2331 -0.9139
vn 0.1842 -0.9553 -0.2312
vn 0.3904 -0.0824 0.9170
vn 0.1977 -0.9513 -0.2365
vn -0.0292 0.9854 0.1676
vn 0.4962 -0.2359 0.8356
vn 0.4696 -0.0094 0.8828
vn 0.0797 -0.9788 -0.1888
vn -0.3144 0.0792 -0.9460
vn 0.4606 -0.0496 0.8862
vn -0.2928 0.0452 -0.9551
vn -0.6005 -0.5450 -0.5852
vn 0.4697 0.8616 0.1926
vn -0.8823 -0.4008 -0.2469
vn 0.6381 0.7630 0.1034
vn -0.7190 0.4855 0.4974
vn -0.0977 0.9757 0.1962
vn -0.3935 0.0915 -0.9148
vn -0.1257 0.9701 0.2077
vn 0.4046 -0.1969 0.8931
vn -0.3924 0.0871 -0.9157
vn -0.4063 0.2015 -0.8912
vn 0.3661 -0.1127 0.9237
vn -0.3767 -0.9261 0.0206
vn 0.4036 -0.1926 0.8944
vn 0.3920 -0.0793 0.9165
vn -0.4046 0.2045 -0.8914
vn 0.0977 -0.9757 -0.1962
vn 0.6560 0.7345 -0.1737
vn -0.2164 -0.0281 -0.9759
vn 0.5550 -0.3029 0.7748
vn 0.6740 0.7153 -0.1847
vn 0.5642 0.1774 0.8064
vn -0.4312 0.1714 -0.8858
vn -0.6816 0.6148 0.3968
vn 0.6816 -0.6148 -0.3968
vn 0.2958 0.9550 0.0196
vn 0.5322 -0.2859 0.7969
vn -0.2460 -0.0087 -0.9692
vn -0.4005 -0.9157 0.0327
vn 0.7438 -0.5275 -0.4105
vn 0.5252 -0.2808 0.8033
vn -0.2550 -0.0027 -0.9669
vn -0.0712 -0.9897 -0.1240
vn 0.6133 0.7758 -0.1484
vn -0.1785 0.4420 -0.8791
vn 0.8077 -0.4130 -0.4207
vn -0.5165 0.7814 0.3503
vn 0.3394 -0.5717 0.7470
vn 0.6255 0.7479 -0.2224
vn -0.2993 0.5871 -0.7522
vn -0.6706 0.0971 0.7354
vn 0.3434 0.9389 -0.0212
vn -0.4890 -0.8129 -0.3164
vn 0.9254 0.0550 0.3749
vn 0.9240 0.0462 0.3796
vn -0.3873 -0.0285 -0.9215
vn -0.1292 -0.8475 0.5148
vn 0.3466 0.6976 -0.6270
vn -0.2744 -0.8091 0.5197
vn 0.3076 0.7085 -0.6351
vn -0.8713 -0.1614 -0.4634
vn -0.1515 -0.7483 0.6459
vn -0.8580 -0.1645 -0.4867
vn 0.9300 0.0450 0.3649
vn -0.2710 -0.8230 0.4992
vn -0.0620 -0.7985 0.5988
vn -0.9118 -0.0809 -0.4026
vn 0.1656 0.6918 -0.7028
vn -0.0673 -0.7818 0.6199
vn 0.1375 0.6731 -0.7266
vn -0.6777 -0.4693 -0.5661
vn 0.8370 0.5337 -0.1204
vn -0.6117 -0.4082 -0.6776
vn 0.5702 0.7194 0.3968
vn -0.8341 0.5515 -0.0098
vn 0.9046 0.0937 0.4158
vn 0.1595 0.7510 -0.6408
vn 0.8927 0.1136 0.4361
vn -0.2571 -0.7613 0.5952
vn 0.1556 0.7499 -0.6430
vn 0.2610 0.7625 -0.5919
vn -0.1862 -0.7320 0.6554
vn -0.9689 0.2463 -0.0223
vn -0.2532 -0.7607 0.5977
vn -0.1482 -0.7493 0.6455
vn 0.2643 0.7613 -0.5921
vn -0.9046 -0.0937 -0.4158
vn 0.8524 -0.4504 -0.2656
vn 0.0822 0.6064 -0.7909
vn -0.3173 -0.8563 0.4076
vn 0.8384 -0.4637 -0.2866
vn 0.1474 -0.8342 0.5313
vn 0.2267 0.7799 -0.5834
vn 0.4243 0.5017 0.7538
vn -0.4243 -0.5017 -0.7538
vn 0.9774 -0.1878 0.0965
vn -0.3079 -0.8436 0.4399
vn 0.0951 0.6320 -0.7691
vn -0.9647 0.2635 0.0001
vn -0.3267 -0.5440 -0.7729
vn -0.3050 -0.8396 0.4495
vn 0.0990 0.6397 -0.7622
vn -0.9576 0.0266 -0.2867
vn 0.8816 -0.4189 -0.2174
vn 0.5320 0.5740 -0.6225
vn -0.2028 -0.5869 -0.7839
vn 0.6215 0.3880 0.6806
usemtl Matériau.012
s off
f 131//28 132//28 134//28 133//28
f 138//29 137//29 141//29 142//29
f 137//30 138//30 136//30 135//30
f 153//31 154//31 132//31 131//31
f 151//32 137//32 135//32 153//32
f 152//33 134//33 132//33 154//33
f 142//34 141//34 145//34 146//34
f 151//35 133//35 140//35 155//35
f 152//36 138//36 142//36 156//36
f 133//37 134//37 139//37 140//37
f 158//38 146//38 150//38 160//38
f 155//39 140//39 144//39 157//39
f 156//40 142//40 146//40 158//40
f 140//41 139//41 143//41 144//41
f 149//42 159//42 163//42 166//42
f 144//43 143//43 147//43 148//43
f 146//44 145//44 149//44 150//44
f 157//45 144//45 148//45 159//45
f 145//46 157//46 159//46 149//46
f 148//47 147//47 161//47 162//47
f 139//48 156//48 158//48 143//48
f 141//49 155//49 157//49 145//49
f 143//50 158//50 160//50 147//50
f 134//51 152//51 156//51 139//51
f 137//52 151//52 155//52 141//52
f 138//53 152//53 154//53 136//53
f 133//54 151//54 153//54 131//54
f 135//55 136//55 154//55 153//55
f 165//56 166//56 172//56 171//56
f 161//57 164//57 170//57 167//57
f 150//58 149//58 166//58 165//58
f 159//59 148//59 162//59 163//59
f 147//60 160//60 164//60 161//60
f 160//61 150//61 165//61 164//61
f 172//62 169//62 180//62 179//62
f 168//63 167//63 173//63 174//63
f 163//64 162//64 168//64 169//64
f 166//65 163//65 169//65 172//65
f 164//66 165//66 171//66 170//66
f 162//67 161//67 167//67 168//67
f 176//68 175//68 183//68 184//68
f 167//69 170//69 176//69 173//69
f 169//70 168//70 174//70 175//70
f 170//71 169//71 175//71 176//71
f 179//72 180//72 192//72 191//72
f 170//73 171//73 178//73 177//73
f 171//74 172//74 179//74 178//74
f 169//75 170//75 177//75 180//75
f 184//76 183//76 187//76 188//76
f 175//77 174//77 182//77 183//77
f 173//78 176//78 184//78 181//78
f 174//79 173//79 181//79 182//79
f 186//80 185//80 188//80 187//80
f 183//81 182//81 186//81 187//81
f 181//82 184//82 188//82 185//82
f 182//83 181//83 185//83 186//83
f 192//84 189//84 190//84 191//84
f 177//85 178//85 190//85 189//85
f 180//86 177//86 189//86 192//86
f 178//87 179//87 191//87 190//87
f 193//88 194//88 196//88 195//88
f 200//89 199//89 203//89 204//89
f 199//90 200//90 198//90 197//90
f 215//91 216//91 194//91 193//91
f 213//92 199//92 197//92 215//92
f 214//93 196//93 194//93 216//93
f 204//94 203//94 207//94 208//94
f 213//95 195//95 202//95 217//95
f 214//96 200//96 204//96 218//96
f 195//97 196//97 201//97 202//97
f 220//98 208//98 212//98 222//98
f 217//99 202//99 206//99 219//99
f 218//100 204//100 208//100 220//100
f 202//101 201//101 205//101 206//101
f 211//102 221//102 225//102 228//102
f 206//103 205//103 209//103 210//103
f 208//104 207//104 211//104 212//104
f 219//105 206//105 210//105 221//105
f 207//106 219//106 221//106 211//106
f 210//107 209//107 223//107 224//107
f 201//108 218//108 220//108 205//108
f 203//109 217//109 219//109 207//109
f 205//110 220//110 222//110 209//110
f 196//111 214//111 218//111 201//111
f 199//112 213//112 217//112 203//112
f 200//113 214//113 216//113 198//113
f 195//114 213//114 215//114 193//114
f 197//115 198//115 216//115 215//115
f 227//116 228//116 234//116 233//116
f 223//117 226//117 232//117 229//117
f 212//118 211//118 228//118 227//118
f 221//119 210//119 224//119 225//119
f 209//120 222//120 226//120 223//120
f 222//121 212//121 227//121 226//121
f 234//122 231//122 242//122 241//122
f 230//123 229//123 235//123 236//123
f 225//124 224//124 230//124 231//124
f 228//125 225//125 231//125 234//125
f 226//126 227//126 233//126 232//126
f 224//127 223//127 229//127 230//127
f 238//128 237//128 245//128 246//128
f 229//129 232//129 238//129 235//129
f 231//130 230//130 236//130 237//130
f 232//131 231//131 237//131 238//131
f 241//132 242//132 254//132 253//132
f 232//133 233//133 240//133 239//133
f 233//134 234//134 241//134 240//134
f 231//135 232//135 239//135 242//135
f 246//136 245//136 249//136 250//136
f 237//137 236//137 244//137 245//137
f 235//138 238//138 246//138 243//138
f 236//139 235//139 243//139 244//139
f 248//140 247//140 250//140 249//140
f 245//141 244//141 248//141 249//141
f 243//142 246//142 250//142 247//142
f 244//143 243//143 247//143 248//143
f 254//144 251//144 252//144 253//144
f 239//145 240//145 252//145 251//145
f 242//146 239//146 251//146 254//146
f 240//147 241//147 253//147 252//147
