# Blender v2.91.2 OBJ File: 'camionnete02.blend'
# www.blender.org
mtllib arme_000233.mtl
o Cube.046_Cube.010
v 563.551880 536.733704 -641.910767
v 525.213989 359.945374 -767.828247
v 750.474487 574.829163 -752.308960
v 712.136719 398.040955 -878.226440
v 453.237732 662.724670 -785.215149
v 414.899841 485.936340 -911.132629
v 640.160217 700.820129 -895.613159
v 601.822571 524.031921 -1021.530823
v 306.196411 484.283630 -489.914520
v 267.858582 307.495361 -615.832031
v 157.544312 433.486328 -759.136230
v 195.882141 610.274597 -633.218750
v 189.726074 460.546570 -421.126068
v 151.388306 283.758240 -547.043701
v 41.074036 409.749207 -690.347961
v 79.411896 586.537537 -564.430420
v 120.920715 446.523743 -380.489044
v 104.614410 320.172546 -478.763336
v -5.699829 446.163513 -622.067627
v 10.606445 572.514709 -523.793335
v 346.348572 492.466797 -513.628662
v 308.010742 315.678528 -639.546204
v 236.034363 618.457825 -656.932983
v 197.696533 441.669495 -782.850525
v 684.485046 561.380310 -713.335022
v 646.147278 384.592102 -839.252563
v 574.170776 687.371277 -856.639282
v 535.833008 510.582947 -982.556763
v 695.317383 637.824707 -823.961060
v 656.979614 461.036438 -949.878662
v 508.394775 599.729187 -713.562866
v 470.056946 422.940857 -839.480469
v 251.039246 547.279114 -561.566528
v 212.701416 370.490784 -687.484070
v 134.569031 523.542053 -492.778229
v 93.105225 347.554382 -601.742249
v 65.763611 509.519226 -452.141205
v 61.565491 372.108704 -555.700684
v 252.853638 378.674011 -711.198364
v 291.191528 555.462341 -585.280884
v 590.990051 447.587585 -910.904724
v 629.327881 624.375793 -784.987061
v 722.895996 606.326843 -788.134888
v 497.635498 391.443115 -803.654419
v 240.280029 338.993103 -651.658081
v 111.701538 326.315430 -577.584656
v 80.161804 350.869690 -531.542969
v 318.769958 523.964539 -549.454712
v 656.906494 592.878113 -749.161011
v 684.558167 429.538635 -914.052551
v 535.973389 568.231506 -677.736938
v 278.617859 515.781433 -525.740601
v 162.147522 492.044250 -456.952118
v 93.342133 478.021484 -416.315094
v 280.432190 347.176270 -675.372314
v 618.568665 416.089783 -875.078674
v 273.253967 314.075073 -698.948608
v 245.675354 345.572815 -734.774658
v 611.390442 382.988586 -898.655029
v 583.811890 414.486328 -934.481018
v 462.878723 389.839661 -863.056885
v 490.457275 358.341980 -827.230774
v 686.566895 452.087097 -668.122925
v 633.091492 441.188599 -636.540039
v 616.138977 363.014526 -692.219238
v 669.614380 373.913147 -723.802490
v 710.405396 424.861206 -637.155762
v 656.929810 413.962708 -605.572693
v 639.977295 335.788696 -661.252075
v 693.452637 346.687195 -692.835144
v 746.885620 383.196838 -589.765991
v 693.410156 372.298279 -558.182922
v 676.457581 294.124329 -613.862305
v 729.932983 305.022888 -645.445496
v 770.360229 356.386292 -559.271301
v 716.884766 345.487732 -527.688110
v 699.932251 267.313782 -583.367554
v 753.407715 278.212341 -614.950684
v 1298.634766 554.689880 -1276.730957
v 1271.056274 586.187561 -1312.557007
v 1309.393921 762.976013 -1186.639648
v 1336.972778 731.478088 -1150.813477
vn 0.5005 -0.5716 0.6502
vn 0.8481 0.1728 -0.5009
vn -0.5005 0.5716 -0.6502
vn 0.1739 0.8021 0.5713
vn -0.1739 -0.8021 -0.5713
vn -0.6935 -0.7143 -0.0941
vn -0.2396 -0.7596 -0.6047
vn -0.9005 -0.2141 0.3785
vn -0.5017 0.5710 -0.6498
vn 0.5017 -0.5710 0.6498
vn 0.9766 -0.0660 -0.2046
vn -0.8401 -0.2869 0.4603
vn -0.1811 -0.8301 -0.5274
vn -0.8642 -0.2857 0.4141
vn -0.2294 -0.8117 -0.5371
vn -0.8481 -0.1728 0.5009
vn -0.5827 -0.3838 0.7163
vn 0.1311 -0.9844 -0.1177
vn 0.4212 0.3535 0.8352
usemtl Matériau.011
s off
f 25//1 26//1 4//1 3//1
f 29//2 30//2 8//2 7//2
f 27//3 28//3 6//3 5//3
f 22//1 21//1 9//1 10//1
f 42//4 27//4 5//4 31//4
f 56//5 26//5 2//5 44//5
f 10//1 9//1 13//1 14//1
f 55//5 22//5 10//5 45//5
f 23//3 24//3 11//3 12//3
f 46//6 14//6 18//6 47//6
f 45//7 10//7 14//7 46//7
f 12//3 11//3 15//3 16//3
f 33//4 12//4 16//4 35//4
f 54//8 47//8 18//8 17//8
f 16//9 15//9 19//9 20//9
f 14//10 13//10 17//10 18//10
f 5//3 6//3 24//3 23//3
f 44//5 2//5 22//5 55//5
f 31//4 5//4 23//4 40//4
f 2//1 1//1 21//1 22//1
f 50//5 4//5 26//5 56//5
f 29//4 7//4 27//4 42//4
f 7//3 8//3 28//3 27//3
f 26//11 25//11 63//11 66//11
f 43//4 29//4 42//4 49//4
f 8//5 30//5 41//5 28//5
f 51//4 31//4 40//4 48//4
f 6//5 32//5 39//5 24//5
f 20//12 19//12 38//12 37//12
f 52//4 33//4 35//4 53//4
f 11//13 34//13 36//13 15//13
f 15//6 36//6 38//6 19//6
f 24//5 39//5 34//5 11//5
f 28//5 41//5 32//5 6//5
f 49//4 42//4 31//4 51//4
f 30//3 29//3 81//3 80//3
f 3//2 4//2 50//2 43//2
f 25//4 49//4 51//4 1//4
f 9//4 52//4 53//4 13//4
f 1//4 51//4 48//4 21//4
f 3//4 43//4 49//4 25//4
f 30//5 50//5 56//5 41//5
f 32//3 41//3 60//3 61//3
f 37//14 38//14 47//14 54//14
f 34//15 45//15 46//15 36//15
f 36//6 46//6 47//6 38//6
f 39//5 55//5 45//5 34//5
f 55//16 39//16 58//16 57//16
f 61//5 62//5 57//5 58//5
f 60//5 59//5 62//5 61//5
f 39//3 32//3 61//3 58//3
f 44//1 55//1 57//1 62//1
f 41//2 56//2 59//2 60//2
f 56//1 44//1 62//1 59//1
f 66//2 63//2 67//2 70//2
f 1//17 2//17 65//17 64//17
f 2//18 26//18 66//18 65//18
f 25//19 1//19 64//19 63//19
f 69//5 70//5 74//5 73//5
f 64//16 65//16 69//16 68//16
f 65//5 66//5 70//5 69//5
f 63//4 64//4 68//4 67//4
f 73//5 74//5 78//5 77//5
f 67//4 68//4 72//4 71//4
f 70//2 67//2 71//2 74//2
f 68//16 69//16 73//16 72//16
f 76//1 77//1 78//1 75//1
f 71//4 72//4 76//4 75//4
f 74//2 71//2 75//2 78//2
f 82//2 79//2 80//2 81//2
f 50//5 30//5 80//5 79//5
f 43//1 50//1 79//1 82//1
f 29//4 43//4 82//4 81//4
o Cube.048_Cube.024
v -475.720093 576.330811 129.950470
v -618.148804 381.426727 118.814285
v -395.310638 530.322998 -93.242622
v -545.098755 335.116241 -116.686165
v -668.723206 652.888489 -19.110069
v -741.750305 552.955688 -24.819862
v -627.495056 629.299011 -133.547424
v -701.196899 529.532104 -140.619385
v -357.420532 451.162292 -514.755493
v -300.634918 439.499969 -402.229889
v -316.562286 563.327759 -381.358459
v -373.347961 574.990112 -493.884064
v -161.558411 506.009888 -589.061035
v -119.808411 497.435425 -506.329620
v -131.518616 588.476440 -490.984467
v -173.268616 597.050903 -573.715881
v -38.303040 542.146851 -633.424255
v -7.792664 535.880737 -572.965393
v -16.350281 602.412292 -561.751343
v -46.860657 608.678406 -622.210388
v -486.226624 607.149170 -121.983971
v -642.073120 402.316833 -144.312836
v -571.343994 656.293884 115.024307
v -722.549561 449.379211 103.201904
v -301.896759 502.094543 -390.718384
v -362.181671 514.475586 -510.178131
v -107.688538 546.196655 -504.166595
v -152.011414 555.299438 -591.996155
v 12.903320 574.001160 -577.101379
v -19.487305 580.653320 -641.286011
v 45.372070 556.164429 -674.197876
v 75.882507 549.898376 -613.738892
v 104.538513 595.467773 -621.119873
v 72.147949 602.119995 -685.304504
v 43.550903 629.000061 -665.730042
v 74.061340 622.733948 -605.270996
v 105.343384 567.547180 -703.282471
v 135.853882 561.281189 -642.823486
v 164.509644 606.850464 -650.204285
v 132.119202 613.502747 -714.389038
v 103.522156 640.382690 -694.814575
v 134.032593 634.116638 -634.355652
v 150.512817 549.437622 -714.322693
v 170.150940 545.404419 -675.408081
v 188.595520 574.735352 -680.158875
v 167.747192 579.017090 -721.471558
v 164.816772 657.020630 -726.379578
v 136.219788 683.900574 -706.804932
v 166.730164 677.634521 -646.346069
v 197.207336 650.368347 -662.194885
v 180.570679 536.268555 -722.833801
v 193.810120 533.549500 -696.598572
v 206.244934 553.323608 -699.801392
v 192.189575 556.210205 -727.653320
v 213.420105 535.263733 -733.297852
v 221.696228 533.564026 -716.897827
v 229.469360 545.925049 -718.899963
v 220.683289 547.729492 -736.310547
v 182.911804 683.888672 -719.118591
v 163.897156 701.761536 -706.103088
v 184.183899 697.595093 -665.903198
v 204.448669 679.465454 -676.441406
v -296.104767 470.139038 449.831818
v -417.848877 280.445465 362.698090
v -116.011292 402.044525 310.290771
v -227.970764 221.724609 225.236359
v -366.235779 547.332520 216.479858
v -428.657349 450.071320 171.803940
v -263.509155 514.059814 151.408936
v -331.301544 419.963440 101.323471
v -24.316345 153.004761 -68.575615
v -44.654419 63.911926 14.601513
v 68.637695 80.167297 61.563225
v 91.321655 168.052307 -19.340820
v 66.009521 -1.564880 -190.399323
v 48.905518 -69.731873 -129.393036
v 133.925110 -58.668396 -93.194389
v 151.029236 9.498657 -154.200867
v 124.035095 -99.566284 -264.525146
v 111.535583 -149.381775 -219.942413
v 173.666809 -141.296631 -193.489075
v 186.166321 -91.481323 -238.071716
v -159.530457 477.077271 243.643738
v -289.517120 289.200409 143.681824
v -361.849823 552.922974 382.117584
v -491.096130 351.539825 289.614380
v 11.552734 61.203857 37.952446
v 36.250122 159.633545 -50.137657
v 97.731506 -78.943665 -121.622566
v 115.889587 -6.575928 -186.388306
v 152.071716 -165.082886 -222.924805
v 165.341370 -112.197571 -270.254730
v 154.931091 -163.041931 -326.788879
v 142.431580 -212.857239 -282.206146
v 191.781738 -234.453430 -289.304382
v 205.051453 -181.568176 -336.634399
v 224.521545 -159.945923 -303.818817
v 212.021973 -209.761353 -259.236084
v 178.358276 -208.504578 -371.019440
v 165.858704 -258.319885 -326.436920
v 215.208923 -279.916321 -333.535156
v 228.478577 -227.030884 -380.865051
v 247.948608 -205.408447 -348.049377
v 235.449097 -255.223938 -303.466614
v 168.083191 -248.075989 -399.631317
v 160.037842 -280.140137 -370.935425
v 191.802368 -294.040588 -375.504333
v 200.343323 -260.000732 -405.968353
v 277.095398 -250.943726 -393.953918
v 296.565369 -229.321167 -361.138092
v 284.065979 -279.136597 -316.555573
v 263.825562 -303.828857 -346.623962
v 160.347595 -274.073242 -419.969482
v 154.923523 -295.689880 -400.623444
v 176.338318 -305.061523 -403.703796
v 182.096558 -282.112488 -424.241821
v 165.181885 -301.291138 -440.595032
v 161.791260 -314.803955 -428.501434
v 175.177856 -320.661865 -430.426880
v 178.777222 -306.316467 -443.265411
v 304.392517 -268.808105 -387.808289
v 317.338501 -254.431030 -365.988678
v 309.027222 -287.554077 -336.344879
v 295.569214 -303.971985 -356.337799
vn 0.7307 -0.5794 0.3611
vn -0.2916 0.8939 -0.3404
vn -0.7350 0.5641 -0.3763
vn -0.1255 0.0350 0.9915
vn 0.1640 0.9760 -0.1430
vn -0.5549 -0.8318 -0.0156
vn -0.0568 0.9897 0.1312
vn 0.8057 0.5574 0.2001
vn -0.7258 -0.2018 -0.6576
vn 0.5736 -0.7942 0.2007
vn -0.3721 0.2230 -0.9010
vn 0.5268 -0.1540 0.8359
vn -0.3846 0.1839 -0.9046
vn 0.1941 -0.9609 -0.1976
vn 0.4391 -0.0321 0.8979
vn 0.2072 -0.9568 -0.2037
vn -0.0434 0.9913 0.1246
vn 0.5440 -0.1869 0.8180
vn 0.5147 0.0409 0.8564
vn 0.0925 -0.9845 -0.1487
vn -0.3647 0.0291 -0.9307
vn 0.5069 0.0008 0.8620
vn -0.3428 -0.0048 -0.9394
vn -0.6116 -0.5731 -0.5455
vn 0.4640 0.8719 0.1562
vn -0.8842 -0.4153 -0.2140
vn 0.6326 0.7715 0.0680
vn -0.7110 0.4908 0.5037
vn -0.1100 0.9814 0.1572
vn -0.4423 0.0412 -0.8959
vn -0.1373 0.9758 0.1704
vn 0.4547 -0.1472 0.8784
vn -0.4411 0.0367 -0.8967
vn -0.4564 0.1519 -0.8767
vn 0.4159 -0.0625 0.9073
vn -0.3536 -0.9318 0.0819
vn 0.4537 -0.1428 0.8796
vn 0.4406 -0.0290 0.8972
vn -0.4547 0.1549 -0.8770
vn 0.1100 -0.9814 -0.1572
vn 0.6289 0.7393 -0.2408
vn -0.2659 -0.0773 -0.9609
vn 0.6012 -0.2554 0.7572
vn 0.6468 0.7199 -0.2518
vn 0.6008 0.2259 0.7668
vn -0.4803 0.1216 -0.8686
vn -0.6742 0.6180 0.4043
vn 0.6742 -0.6180 -0.4043
vn 0.2742 0.9609 -0.0388
vn 0.5792 -0.2379 0.7797
vn -0.2955 -0.0583 -0.9536
vn -0.3769 -0.9214 0.0947
vn 0.7336 -0.5302 -0.4251
vn 0.5725 -0.2326 0.7862
vn -0.3046 -0.0524 -0.9511
vn -0.0546 -0.9956 -0.0757
vn 0.5866 0.7808 -0.2151
vn -0.2339 0.3973 -0.8874
vn 0.7942 -0.4150 -0.4438
vn -0.5157 0.7857 0.3417
vn 0.3581 -0.5702 0.7393
vn 0.6131 0.7505 -0.2467
vn -0.3190 0.5860 -0.7449
vn -0.6623 0.0831 0.7446
vn 0.3242 0.9457 -0.0211
vn -0.4808 -0.8185 -0.3144
vn 0.9392 0.0668 0.3368
vn 0.9292 0.0558 0.3654
vn -0.4033 -0.0374 -0.9143
vn -0.1233 -0.8427 0.5241
vn 0.3233 0.6727 -0.6655
vn -0.2553 -0.7883 0.5598
vn 0.2840 0.6833 -0.6726
vn -0.8886 -0.1765 -0.4233
vn -0.1277 -0.7231 0.6789
vn -0.8760 -0.1804 -0.4472
vn 0.9432 0.0563 0.3274
vn -0.2528 -0.8030 0.5398
vn -0.0400 -0.7753 0.6303
vn -0.9265 -0.0936 -0.3643
vn 0.1395 0.6645 -0.7341
vn -0.0445 -0.7577 0.6511
vn 0.1105 0.6450 -0.7561
vn -0.6853 -0.4774 -0.5499
vn 0.8326 0.5383 -0.1301
vn -0.6143 -0.4139 -0.6718
vn 0.5616 0.7263 0.3964
vn -0.8424 0.5388 0.0041
vn 0.9199 0.1069 0.3773
vn 0.1359 0.7259 -0.6742
vn 0.9088 0.1276 0.3973
vn -0.2352 -0.7378 0.6328
vn 0.1318 0.7249 -0.6762
vn 0.2392 0.7391 -0.6297
vn -0.1619 -0.7064 0.6891
vn -0.9688 0.2478 0.0052
vn -0.2312 -0.7370 0.6351
vn -0.1244 -0.7241 0.6784
vn 0.2424 0.7378 -0.6300
vn -0.9199 -0.1069 -0.3773
vn 0.8412 -0.4622 -0.2806
vn 0.0527 0.5761 -0.8157
vn -0.3025 -0.8396 0.4513
vn 0.8263 -0.4763 -0.3005
vn 0.1666 -0.8141 0.5564
vn 0.2052 0.7569 -0.6205
vn 0.4532 0.5286 0.7177
vn -0.4532 -0.5286 -0.7177
vn 0.9802 -0.1866 0.0663
vn -0.2919 -0.8257 0.4828
vn 0.0665 0.6025 -0.7954
vn -0.9637 0.2658 0.0268
vn -0.3565 -0.5718 -0.7389
vn -0.2887 -0.8213 0.4920
vn 0.0707 0.6104 -0.7889
vn -0.9678 0.0183 -0.2509
vn 0.8722 -0.4290 -0.2348
vn 0.5086 0.5489 -0.6634
vn -0.2332 -0.6154 -0.7530
vn 0.6474 0.4116 0.6415
usemtl Matériau.012
s off
f 83//20 84//20 86//20 85//20
f 90//21 89//21 93//21 94//21
f 89//22 90//22 88//22 87//22
f 105//23 106//23 84//23 83//23
f 103//24 89//24 87//24 105//24
f 104//25 86//25 84//25 106//25
f 94//26 93//26 97//26 98//26
f 103//27 85//27 92//27 107//27
f 104//28 90//28 94//28 108//28
f 85//29 86//29 91//29 92//29
f 110//30 98//30 102//30 112//30
f 107//31 92//31 96//31 109//31
f 108//32 94//32 98//32 110//32
f 92//33 91//33 95//33 96//33
f 101//34 111//34 115//34 118//34
f 96//35 95//35 99//35 100//35
f 98//36 97//36 101//36 102//36
f 109//37 96//37 100//37 111//37
f 97//38 109//38 111//38 101//38
f 100//39 99//39 113//39 114//39
f 91//40 108//40 110//40 95//40
f 93//41 107//41 109//41 97//41
f 95//42 110//42 112//42 99//42
f 86//43 104//43 108//43 91//43
f 89//44 103//44 107//44 93//44
f 90//45 104//45 106//45 88//45
f 85//46 103//46 105//46 83//46
f 87//47 88//47 106//47 105//47
f 117//48 118//48 124//48 123//48
f 113//49 116//49 122//49 119//49
f 102//50 101//50 118//50 117//50
f 111//51 100//51 114//51 115//51
f 99//52 112//52 116//52 113//52
f 112//53 102//53 117//53 116//53
f 124//54 121//54 132//54 131//54
f 120//55 119//55 125//55 126//55
f 115//56 114//56 120//56 121//56
f 118//57 115//57 121//57 124//57
f 116//58 117//58 123//58 122//58
f 114//59 113//59 119//59 120//59
f 128//60 127//60 135//60 136//60
f 119//61 122//61 128//61 125//61
f 121//62 120//62 126//62 127//62
f 122//63 121//63 127//63 128//63
f 131//64 132//64 144//64 143//64
f 122//65 123//65 130//65 129//65
f 123//66 124//66 131//66 130//66
f 121//67 122//67 129//67 132//67
f 136//68 135//68 139//68 140//68
f 127//69 126//69 134//69 135//69
f 125//70 128//70 136//70 133//70
f 126//71 125//71 133//71 134//71
f 138//72 137//72 140//72 139//72
f 135//73 134//73 138//73 139//73
f 133//74 136//74 140//74 137//74
f 134//75 133//75 137//75 138//75
f 144//76 141//76 142//76 143//76
f 129//77 130//77 142//77 141//77
f 132//78 129//78 141//78 144//78
f 130//79 131//79 143//79 142//79
f 145//80 146//80 148//80 147//80
f 152//81 151//81 155//81 156//81
f 151//82 152//82 150//82 149//82
f 167//83 168//83 146//83 145//83
f 165//84 151//84 149//84 167//84
f 166//85 148//85 146//85 168//85
f 156//86 155//86 159//86 160//86
f 165//87 147//87 154//87 169//87
f 166//88 152//88 156//88 170//88
f 147//89 148//89 153//89 154//89
f 172//90 160//90 164//90 174//90
f 169//91 154//91 158//91 171//91
f 170//92 156//92 160//92 172//92
f 154//93 153//93 157//93 158//93
f 163//94 173//94 177//94 180//94
f 158//95 157//95 161//95 162//95
f 160//96 159//96 163//96 164//96
f 171//97 158//97 162//97 173//97
f 159//98 171//98 173//98 163//98
f 162//99 161//99 175//99 176//99
f 153//100 170//100 172//100 157//100
f 155//101 169//101 171//101 159//101
f 157//102 172//102 174//102 161//102
f 148//103 166//103 170//103 153//103
f 151//104 165//104 169//104 155//104
f 152//105 166//105 168//105 150//105
f 147//106 165//106 167//106 145//106
f 149//107 150//107 168//107 167//107
f 179//108 180//108 186//108 185//108
f 175//109 178//109 184//109 181//109
f 164//110 163//110 180//110 179//110
f 173//111 162//111 176//111 177//111
f 161//112 174//112 178//112 175//112
f 174//113 164//113 179//113 178//113
f 186//114 183//114 194//114 193//114
f 182//115 181//115 187//115 188//115
f 177//116 176//116 182//116 183//116
f 180//117 177//117 183//117 186//117
f 178//118 179//118 185//118 184//118
f 176//119 175//119 181//119 182//119
f 190//120 189//120 197//120 198//120
f 181//121 184//121 190//121 187//121
f 183//122 182//122 188//122 189//122
f 184//123 183//123 189//123 190//123
f 193//124 194//124 206//124 205//124
f 184//125 185//125 192//125 191//125
f 185//126 186//126 193//126 192//126
f 183//127 184//127 191//127 194//127
f 198//128 197//128 201//128 202//128
f 189//129 188//129 196//129 197//129
f 187//130 190//130 198//130 195//130
f 188//131 187//131 195//131 196//131
f 200//132 199//132 202//132 201//132
f 197//133 196//133 200//133 201//133
f 195//134 198//134 202//134 199//134
f 196//135 195//135 199//135 200//135
f 206//136 203//136 204//136 205//136
f 191//137 192//137 204//137 203//137
f 194//138 191//138 203//138 206//138
f 192//139 193//139 205//139 204//139
