# Blender v2.91.2 OBJ File: 'camionnete02.blend'
# www.blender.org
mtllib arme_000094.mtl
o Cube.046_Cube.010
v 350.396423 565.997314 -1063.927002
v 335.519592 361.386932 -1144.502197
v 467.380920 627.017212 -1240.478027
v 452.504089 422.406891 -1321.053467
v 164.191177 620.680786 -1168.408569
v 149.314255 416.070404 -1248.983887
v 281.175659 681.700684 -1344.959473
v 266.298767 477.090363 -1425.535156
v 189.331955 481.984894 -820.850952
v 174.455063 277.374542 -901.426392
v -11.750214 332.058014 -1005.907898
v 3.126690 536.668335 -925.332458
v 116.439713 443.963715 -710.843018
v 101.562805 239.353424 -791.418579
v -84.642517 294.036865 -895.900085
v -69.765610 498.647186 -815.324707
v 73.378220 421.502594 -645.855408
v 69.894211 276.377777 -715.245789
v -116.311142 331.061279 -819.727356
v -112.827118 476.186005 -750.336914
v 131.270615 647.941528 -630.516724
v -54.934669 702.625000 -734.998413
v 88.209137 625.480347 -565.529114
v -97.996155 680.163818 -670.010559
v 214.460999 495.092316 -858.775269
v 199.584091 290.482025 -939.350708
v 28.255699 549.775879 -963.256836
v 13.378769 345.165497 -1043.832275
v 194.242935 549.528320 -794.252380
v 8.037651 604.211792 -898.734070
v 219.371964 562.635742 -832.176697
v 33.166656 617.319214 -936.658264
v 201.367996 647.522827 -755.662292
v 15.162697 702.206177 -860.143738
v 226.496964 660.630127 -793.586609
v 40.291718 715.313599 -898.068054
v 122.998154 512.366455 -686.730896
v -63.207150 567.049927 -791.212463
v 130.123199 610.360962 -648.140747
v -56.082119 665.044434 -752.622253
v 167.691330 789.105469 -621.542725
v -18.513966 843.788940 -726.024414
v 124.629837 766.644287 -556.555115
v -61.575420 821.327759 -661.036621
v 426.081787 605.475342 -1178.149902
v 411.204956 400.864960 -1258.725586
v 239.876511 660.158813 -1282.631592
v 224.999619 455.548370 -1363.207031
v 374.278320 654.359009 -1292.718750
v 359.401428 449.748627 -1373.294434
v 257.293884 593.338989 -1116.167725
v 242.416916 388.728668 -1196.743164
v 96.229324 509.326630 -873.091736
v 81.352417 304.716248 -953.667053
v 23.337063 471.305511 -763.083862
v 10.883778 270.498230 -827.001099
v -19.724421 448.844330 -698.096191
v -10.470440 295.463898 -775.637634
v 38.167953 675.283325 -682.757507
v -4.893507 652.822144 -617.769897
v 106.481430 317.823730 -991.591431
v 121.358353 522.434082 -911.016052
v 101.140305 576.869995 -846.493225
v 126.269302 589.977417 -884.417419
v 108.265350 674.864502 -807.902954
v 133.394363 687.971924 -845.827332
v 29.895508 539.708252 -738.971680
v 37.020546 637.702637 -700.381470
v 74.588669 816.447266 -673.783569
v 31.527184 793.986084 -608.795898
v 318.102234 428.206696 -1310.966309
v 332.979126 632.817017 -1230.390869
v 420.829651 640.688110 -1266.598145
v 288.968201 375.057770 -1170.622681
v 127.903732 291.045441 -927.546814
v 42.273453 261.279938 -809.388000
v 20.919243 286.245575 -758.024475
v 167.909668 508.763153 -884.895630
v 172.820633 576.306641 -858.297058
v 179.945679 674.301147 -819.706970
v 379.530457 619.146240 -1204.270386
v 405.952759 436.077728 -1347.173828
v 303.845154 579.668213 -1090.047363
v 142.780640 495.655731 -846.971375
v 69.888367 457.634613 -736.963501
v 26.826893 435.173431 -671.975769
v 84.719307 661.612427 -656.637146
v 41.657829 639.151245 -591.649414
v 153.032776 304.152893 -965.471069
v 147.691620 563.199219 -820.372864
v 154.816666 661.193604 -781.782654
v 76.446838 526.037354 -712.851318
v 83.571869 624.031860 -674.261047
v 121.140015 802.776367 -647.663208
v 78.078522 780.315186 -582.675537
v 364.653564 414.535858 -1284.845947
v 150.247269 265.842407 -980.557739
v 103.695938 279.513214 -1006.678101
v 361.868042 376.225372 -1299.932617
v 315.316772 389.896210 -1326.052979
v 239.631424 350.418182 -1211.829834
v 286.182800 336.747284 -1185.709473
v 479.319092 514.345825 -1124.720947
v 445.851746 496.889008 -1074.212646
v 439.273499 406.412323 -1109.842041
v 472.740662 423.869171 -1160.350586
v 519.557129 502.529022 -1102.143066
v 486.089844 485.072235 -1051.634766
v 479.511475 394.595612 -1087.264404
v 512.978760 412.052399 -1137.772705
v 581.134094 484.445587 -1067.591797
v 547.666809 466.988739 -1017.083374
v 541.088379 376.512177 -1052.713013
v 574.555664 393.969025 -1103.221436
v 620.758118 472.809174 -1045.358398
v 587.290771 455.352264 -994.850098
v 580.712524 364.875702 -1030.479736
v 614.179626 382.332489 -1080.988037
v 790.269409 636.540039 -1927.177490
v 743.718140 650.210938 -1953.297852
v 758.594910 854.821289 -1872.722412
v 805.146301 841.150391 -1846.602051
v 106.143539 880.433472 -662.227905
v 20.354469 905.627319 -710.365051
v 66.464706 859.736572 -602.345215
v -19.324318 884.930542 -650.482361
v 152.253769 834.542725 -554.208252
v 191.932632 855.239502 -614.090698
v 149.038101 867.836548 -638.159180
v 109.359238 847.139648 -578.276733
vn 0.8448 -0.2481 0.4740
vn 0.5308 0.2769 -0.8010
vn -0.8448 0.2481 -0.4740
vn 0.0675 0.9283 0.3656
vn -0.0675 -0.9283 -0.3656
vn -0.5308 -0.2769 0.8010
vn -0.4031 -0.8777 0.2590
vn -0.1507 -0.9142 -0.3763
vn -0.6026 -0.3578 0.7133
vn -0.8456 0.2473 -0.4732
vn 0.8456 -0.2473 0.4732
vn 0.4734 -0.0663 -0.8784
vn 0.4714 -0.0738 -0.8788
vn -0.4734 0.0663 0.8784
vn 0.8204 0.1569 -0.5499
vn -0.7661 0.5610 -0.3137
vn -0.4984 -0.3906 0.7740
vn -0.0502 -0.9463 -0.3193
vn -0.4492 0.1523 0.8803
vn -0.5350 -0.4067 0.7406
vn -0.1023 -0.9445 -0.3121
vn -0.1555 -0.3521 0.9229
vn 0.4099 -0.9111 -0.0433
vn 0.5224 0.6373 0.5665
vn 0.8315 -0.3531 0.4289
usemtl Matériau.011
s off
f 45//1 46//1 4//1 3//1
f 49//2 50//2 8//2 7//2
f 47//3 48//3 6//3 5//3
f 26//1 25//1 9//1 10//1
f 72//4 47//4 5//4 51//4
f 96//5 46//5 2//5 74//5
f 10//1 9//1 13//1 14//1
f 84//6 9//6 29//6 90//6
f 89//5 26//5 10//5 75//5
f 27//3 28//3 11//3 12//3
f 76//7 14//7 18//7 77//7
f 75//8 10//8 14//8 76//8
f 12//3 11//3 15//3 16//3
f 53//4 12//4 16//4 55//4
f 86//9 77//9 18//9 17//9
f 16//10 15//10 19//10 20//10
f 16//3 20//3 24//3 22//3
f 14//11 13//11 17//11 18//11
f 59//12 22//12 42//12 69//12
f 86//6 17//6 23//6 88//6
f 17//1 13//1 21//1 23//1
f 55//2 16//2 22//2 59//2
f 5//3 6//3 28//3 27//3
f 74//5 2//5 26//5 89//5
f 51//4 5//4 27//4 62//4
f 2//1 1//1 25//1 26//1
f 32//3 30//3 34//3 36//3
f 62//2 27//2 32//2 64//2
f 27//3 12//3 30//3 32//3
f 9//1 25//1 31//1 29//1
f 66//4 36//4 34//4 65//4
f 90//5 29//5 37//5 92//5
f 64//2 32//2 36//2 66//2
f 29//1 31//1 35//1 33//1
f 92//6 37//6 39//6 93//6
f 29//1 33//1 39//1 37//1
f 34//3 30//3 38//3 40//3
f 65//4 34//4 40//4 68//4
f 69//13 42//13 124//13 123//13
f 23//1 21//1 41//1 43//1
f 88//14 23//14 43//14 95//14
f 22//3 24//3 44//3 42//3
f 82//5 4//5 46//5 96//5
f 49//4 7//4 47//4 72//4
f 7//3 8//3 48//3 47//3
f 46//15 45//15 103//15 106//15
f 73//4 49//4 72//4 81//4
f 8//5 50//5 71//5 48//5
f 24//14 60//14 70//14 44//14
f 42//16 44//16 126//16 124//16
f 91//4 65//4 68//4 93//4
f 38//6 67//6 68//6 40//6
f 79//2 64//2 66//2 80//2
f 30//5 63//5 67//5 38//5
f 80//4 66//4 65//4 91//4
f 78//2 62//2 64//2 79//2
f 83//4 51//4 62//4 78//4
f 6//5 52//5 61//5 28//5
f 85//2 55//2 59//2 87//2
f 20//6 57//6 60//6 24//6
f 87//12 59//12 69//12 94//12
f 20//17 19//17 58//17 57//17
f 84//4 53//4 55//4 85//4
f 11//18 54//18 56//18 15//18
f 15//7 56//7 58//7 19//7
f 28//5 61//5 54//5 11//5
f 12//6 53//6 63//6 30//6
f 48//5 71//5 52//5 6//5
f 81//4 72//4 51//4 83//4
f 50//3 49//3 121//3 120//3
f 3//2 4//2 82//2 73//2
f 45//4 81//4 83//4 1//4
f 9//4 84//4 85//4 13//4
f 21//12 87//12 94//12 41//12
f 13//2 85//2 87//2 21//2
f 1//4 83//4 78//4 25//4
f 25//2 78//2 79//2 31//2
f 35//4 80//4 91//4 33//4
f 31//2 79//2 80//2 35//2
f 33//4 91//4 93//4 39//4
f 70//19 95//19 130//19 125//19
f 3//4 73//4 81//4 45//4
f 50//5 82//5 96//5 71//5
f 60//14 88//14 95//14 70//14
f 67//6 92//6 93//6 68//6
f 63//5 90//5 92//5 67//5
f 52//3 71//3 100//3 101//3
f 57//6 86//6 88//6 60//6
f 57//20 58//20 77//20 86//20
f 54//21 75//21 76//21 56//21
f 56//7 76//7 77//7 58//7
f 61//5 89//5 75//5 54//5
f 53//6 84//6 90//6 63//6
f 89//6 61//6 98//6 97//6
f 101//5 102//5 97//5 98//5
f 100//5 99//5 102//5 101//5
f 61//3 52//3 101//3 98//3
f 74//1 89//1 97//1 102//1
f 71//2 96//2 99//2 100//2
f 96//1 74//1 102//1 99//1
f 106//2 103//2 107//2 110//2
f 1//22 2//22 105//22 104//22
f 2//23 46//23 106//23 105//23
f 45//24 1//24 104//24 103//24
f 109//5 110//5 114//5 113//5
f 104//6 105//6 109//6 108//6
f 105//5 106//5 110//5 109//5
f 103//4 104//4 108//4 107//4
f 113//5 114//5 118//5 117//5
f 107//4 108//4 112//4 111//4
f 110//2 107//2 111//2 114//2
f 108//6 109//6 113//6 112//6
f 116//1 117//1 118//1 115//1
f 111//4 112//4 116//4 115//4
f 114//2 111//2 115//2 118//2
f 122//2 119//2 120//2 121//2
f 82//5 50//5 120//5 119//5
f 73//1 82//1 119//1 122//1
f 49//4 73//4 122//4 121//4
f 123//4 124//4 126//4 125//4
f 129//4 123//4 125//4 130//4
f 128//4 129//4 130//4 127//4
f 95//19 43//19 127//19 130//19
f 94//13 69//13 123//13 129//13
f 43//25 41//25 128//25 127//25
f 44//19 70//19 125//19 126//19
f 41//13 94//13 129//13 128//13
o Cube.048_Cube.024
v -564.386169 477.844360 181.929413
v -732.879578 348.917816 66.233833
v -422.225311 467.155029 -13.195152
v -590.867554 336.160889 -132.553406
v -669.785461 647.939758 22.904766
v -756.176758 581.835571 -36.415611
v -596.895630 642.459106 -77.141075
v -683.261353 575.712402 -136.280762
v -349.095825 476.516663 -468.072296
v -258.693024 506.994080 -384.879272
v -307.799713 623.159485 -374.073486
v -398.202454 592.682129 -457.266632
v -218.227051 563.934875 -616.810181
v -151.760864 586.342529 -555.644653
v -187.865173 671.749939 -547.700073
v -254.331360 649.342285 -608.865540
v -135.646362 621.014038 -708.397705
v -87.073853 637.389282 -663.698853
v -113.458435 699.803894 -657.893066
v -162.031006 683.428650 -702.591797
v -477.323975 573.799194 -36.443352
v -656.251099 435.178528 -160.986450
v -628.250488 585.343201 170.698029
v -807.127014 448.471924 47.872925
v -277.200134 567.784058 -381.104156
v -373.173828 535.428589 -469.423798
v -156.776733 635.695557 -563.911560
v -227.338745 611.907104 -628.846252
v -82.944153 677.683105 -679.759521
v -134.509827 660.298828 -727.213013
v -79.471680 647.484863 -779.138245
v -30.899109 663.860046 -734.439270
v -23.282593 712.531799 -757.357971
v -74.848389 695.147522 -804.811462
v -102.905457 716.989624 -779.136292
v -54.332886 733.364807 -734.437256
v -39.616211 667.737122 -829.866943
v 8.956482 684.112366 -785.168152
v 16.572876 732.783875 -808.086731
v -34.992920 715.399719 -855.540161
v -63.049927 737.241821 -829.864929
v -14.477295 753.616943 -785.166077
v 2.894531 660.564392 -854.996826
v 34.158569 671.104370 -826.226318
v 39.060852 702.432129 -840.977966
v 5.870300 691.242615 -871.521484
v -24.593506 762.192383 -883.983093
v -52.650635 784.034424 -858.307922
v -4.078003 800.409729 -813.609070
v 26.972290 779.576660 -836.529602
v 31.185181 654.478455 -872.658875
v 52.262451 661.584229 -853.262390
v 55.567566 682.704529 -863.207581
v 33.191345 675.160889 -883.799194
v 57.216675 660.067139 -894.583862
v 70.392334 664.509094 -882.458984
v 72.458435 677.711609 -888.675903
v 58.470825 672.995972 -901.548035
v -15.302490 793.891113 -887.286255
v -33.958069 808.414185 -870.214355
v -1.661438 819.302246 -840.493591
v 18.984192 805.450134 -855.733765
v -318.756287 594.025635 367.037201
v -301.174194 354.184998 343.269257
v -162.828613 614.916870 184.347778
v -150.111328 383.720520 156.975769
v -465.467285 544.091370 163.781769
v -456.452423 421.118347 151.595276
v -385.161774 561.721985 70.211960
v -378.998322 436.262024 56.077396
v 41.189636 442.710388 -174.346222
v 116.022156 513.723389 -101.696739
v 64.984192 617.955139 -150.372955
v -8.976990 548.505005 -222.444550
v 194.039978 466.336182 -325.905182
v 249.957153 517.433167 -271.836517
v 213.073547 595.215820 -307.199432
v 157.156250 544.118713 -361.268127
v 290.131653 483.946350 -420.362213
v 330.995300 521.287415 -380.849579
v 304.041138 578.129883 -406.692291
v 263.177551 540.788818 -446.204987
v -265.258118 627.349121 125.506462
v -254.949158 374.737915 94.362389
v -433.986542 598.002625 317.368500
v -415.320953 343.382263 292.135864
v 98.389832 567.258728 -126.617317
v 17.648254 493.477173 -204.689697
v 246.331543 557.935547 -301.427704
v 186.968445 503.689697 -358.828156
v 337.634094 550.912048 -412.104889
v 294.252441 511.269958 -454.052582
v 356.833679 481.171600 -486.722321
v 397.697083 518.512695 -447.209625
v 408.869812 552.962585 -487.713837
v 365.488220 513.320435 -529.661438
v 333.716492 542.097534 -520.392212
v 374.580139 579.438599 -480.879608
v 404.244202 480.294800 -534.925110
v 445.107727 517.635803 -495.412262
v 456.280579 552.085693 -535.916870
v 412.898865 512.443604 -577.864319
v 381.127136 541.220764 -568.595154
v 421.990662 578.561829 -529.082336
v 450.203796 465.949951 -548.042297
v 476.505920 489.984711 -522.609741
v 483.697327 512.158447 -548.680603
v 455.774475 486.642578 -575.680359
v 427.695740 543.015259 -622.058533
v 395.924133 571.792480 -612.789490
v 436.787781 609.133545 -573.276855
v 471.077454 582.657410 -580.110962
v 480.938171 454.818451 -557.032471
v 498.670349 471.021973 -539.886597
v 503.518616 485.970917 -557.462891
v 484.693787 468.768860 -575.665344
v 510.122375 452.199768 -575.226196
v 521.206970 462.328796 -564.508057
v 524.237488 471.673584 -575.495117
v 512.470032 460.920349 -586.873718
v 437.402527 570.757202 -637.492615
v 416.276917 589.891479 -631.329468
v 443.447571 614.720032 -605.056824
v 466.247375 597.115784 -609.601013
vn 0.4097 -0.8441 0.3458
vn -0.2875 0.9188 -0.2706
vn -0.4099 0.8432 -0.3479
vn -0.4585 -0.1815 0.8700
vn 0.4149 0.8738 0.2538
vn -0.6774 -0.5823 -0.4495
vn -0.3416 0.9395 0.0270
vn 0.8075 0.4049 0.4290
vn -0.7344 -0.0673 -0.6754
vn 0.4930 -0.8679 0.0614
vn -0.6945 -0.1004 -0.7124
vn 0.7871 0.1920 0.5861
vn -0.6935 -0.1412 -0.7065
vn 0.4320 -0.8904 -0.1432
vn 0.6884 0.2964 0.6620
vn 0.4402 -0.8845 -0.1543
vn -0.3323 0.9430 0.0157
vn 0.8077 0.1618 0.5669
vn 0.7174 0.3755 0.5868
vn 0.3658 -0.9289 -0.0572
vn -0.6321 -0.2865 -0.7200
vn 0.7258 0.3372 0.5996
vn -0.6042 -0.3141 -0.7323
vn -0.5955 -0.4613 -0.6577
vn 0.5370 0.7533 0.3798
vn -0.8101 -0.0562 -0.5837
vn 0.7211 0.4809 0.4988
vn -0.7162 0.5473 0.4331
vn -0.3775 0.9232 0.0720
vn -0.6937 -0.2883 -0.6601
vn -0.3955 0.9135 0.0951
vn 0.7347 0.1885 0.6517
vn -0.6914 -0.2923 -0.6607
vn -0.7373 -0.1843 -0.6500
vn 0.6811 0.2638 0.6830
vn 0.0276 -0.9479 0.3173
vn 0.7328 0.1926 0.6526
vn 0.6885 0.2995 0.6605
vn -0.7369 -0.1811 -0.6513
vn 0.3775 -0.9232 -0.0720
vn 0.2297 0.8063 -0.5450
vn -0.5186 -0.3659 -0.7728
vn 0.8618 0.0994 0.4975
vn 0.2485 0.7906 -0.5597
vn 0.7023 0.5512 0.4505
vn -0.7456 -0.2172 -0.6300
vn -0.6746 0.4871 0.5547
vn 0.6746 -0.4871 -0.5547
vn -0.0938 0.9634 -0.2511
vn 0.8436 0.1149 0.5245
vn -0.5489 -0.3545 -0.7570
vn 0.0076 -0.9416 0.3367
vn 0.6908 -0.3937 -0.6065
vn 0.8380 0.1195 0.5324
vn -0.5580 -0.3509 -0.7520
vn 0.2630 -0.9625 0.0669
vn 0.1866 0.8395 -0.5103
vn -0.6266 0.1032 -0.7725
vn 0.6996 -0.2738 -0.6599
vn -0.6110 0.6725 0.4176
vn 0.7699 -0.0197 0.6379
vn -0.5244 0.4903 -0.6962
vn -0.7694 0.0206 -0.6384
vn -0.3965 -0.1193 0.9103
vn -0.4095 0.8876 -0.2112
vn 0.1204 -0.9909 -0.0595
vn -0.3426 0.8299 -0.4403
vn 0.3764 0.9094 0.1768
vn -0.3132 -0.7088 -0.6320
vn 0.7354 -0.3443 0.5836
vn -0.5726 -0.4452 -0.6884
vn 0.6852 0.4750 0.5522
vn -0.5726 -0.4793 -0.6652
vn 0.4515 -0.8281 0.3321
vn 0.5746 0.5994 0.5573
vn 0.4589 -0.8320 0.3117
vn -0.3303 0.8324 -0.4450
vn 0.7075 0.4456 0.5486
vn 0.6152 0.6402 0.4601
vn 0.3699 -0.8353 0.4068
vn -0.5099 -0.6115 -0.6050
vn 0.6110 0.6257 0.4849
vn -0.4803 -0.6398 -0.5999
vn -0.0747 -0.9441 -0.3212
vn -0.0491 0.9945 -0.0926
vn -0.3102 -0.8674 -0.3890
vn 0.0059 0.9904 0.1380
vn -0.9683 -0.0939 0.2314
vn -0.3839 0.8357 -0.3928
vn -0.5802 -0.5916 -0.5599
vn -0.4053 0.8357 -0.3706
vn 0.6220 0.5010 0.6018
vn -0.5778 -0.5953 -0.5584
vn -0.6248 -0.4967 -0.6025
vn 0.5641 0.5786 0.5891
vn -0.0234 -0.7144 0.6993
vn 0.6199 0.5050 0.6005
vn 0.5750 0.6015 0.5546
vn -0.6242 -0.4943 -0.6050
vn 0.3839 -0.8357 0.3928
vn 0.3136 0.5067 -0.8031
vn -0.3894 -0.6979 -0.6010
vn 0.7719 0.3632 0.5218
vn 0.3344 0.4875 -0.8065
vn 0.6221 0.7385 0.2602
vn -0.6362 -0.5183 -0.5715
vn -0.7540 0.6306 0.1838
vn 0.7540 -0.6306 -0.1838
vn -0.0524 0.7523 -0.6567
vn 0.7497 0.3876 0.5364
vn -0.4218 -0.6830 -0.5964
vn -0.0462 -0.7017 0.7109
vn 0.7782 -0.5678 -0.2683
vn 0.7429 0.3947 0.5406
vn -0.4316 -0.6782 -0.5948
vn 0.2487 -0.8191 0.5169
vn 0.2655 0.5485 -0.7929
vn -0.4960 -0.2832 -0.8209
vn 0.7955 -0.4824 -0.3668
vn -0.6694 0.7428 -0.0097
usemtl Matériau.012
s off
f 131//26 132//26 134//26 133//26
f 138//27 137//27 141//27 142//27
f 137//28 138//28 136//28 135//28
f 153//29 154//29 132//29 131//29
f 151//30 137//30 135//30 153//30
f 152//31 134//31 132//31 154//31
f 142//32 141//32 145//32 146//32
f 151//33 133//33 140//33 155//33
f 152//34 138//34 142//34 156//34
f 133//35 134//35 139//35 140//35
f 158//36 146//36 150//36 160//36
f 155//37 140//37 144//37 157//37
f 156//38 142//38 146//38 158//38
f 140//39 139//39 143//39 144//39
f 149//40 159//40 163//40 166//40
f 144//41 143//41 147//41 148//41
f 146//42 145//42 149//42 150//42
f 157//43 144//43 148//43 159//43
f 145//44 157//44 159//44 149//44
f 148//45 147//45 161//45 162//45
f 139//46 156//46 158//46 143//46
f 141//47 155//47 157//47 145//47
f 143//48 158//48 160//48 147//48
f 134//49 152//49 156//49 139//49
f 137//50 151//50 155//50 141//50
f 138//51 152//51 154//51 136//51
f 133//52 151//52 153//52 131//52
f 135//53 136//53 154//53 153//53
f 165//54 166//54 172//54 171//54
f 161//55 164//55 170//55 167//55
f 150//56 149//56 166//56 165//56
f 159//57 148//57 162//57 163//57
f 147//58 160//58 164//58 161//58
f 160//59 150//59 165//59 164//59
f 172//60 169//60 180//60 179//60
f 168//61 167//61 173//61 174//61
f 163//62 162//62 168//62 169//62
f 166//63 163//63 169//63 172//63
f 164//64 165//64 171//64 170//64
f 162//65 161//65 167//65 168//65
f 176//66 175//66 183//66 184//66
f 167//67 170//67 176//67 173//67
f 169//68 168//68 174//68 175//68
f 170//69 169//69 175//69 176//69
f 179//70 180//70 192//70 191//70
f 170//71 171//71 178//71 177//71
f 171//72 172//72 179//72 178//72
f 169//73 170//73 177//73 180//73
f 184//74 183//74 187//74 188//74
f 175//75 174//75 182//75 183//75
f 173//76 176//76 184//76 181//76
f 174//77 173//77 181//77 182//77
f 186//78 185//78 188//78 187//78
f 183//79 182//79 186//79 187//79
f 181//80 184//80 188//80 185//80
f 182//81 181//81 185//81 186//81
f 192//82 189//82 190//82 191//82
f 177//83 178//83 190//83 189//83
f 180//84 177//84 189//84 192//84
f 178//85 179//85 191//85 190//85
f 193//86 194//86 196//86 195//86
f 200//87 199//87 203//87 204//87
f 199//88 200//88 198//88 197//88
f 215//89 216//89 194//89 193//89
f 213//90 199//90 197//90 215//90
f 214//91 196//91 194//91 216//91
f 204//92 203//92 207//92 208//92
f 213//93 195//93 202//93 217//93
f 214//94 200//94 204//94 218//94
f 195//95 196//95 201//95 202//95
f 220//96 208//96 212//96 222//96
f 217//97 202//97 206//97 219//97
f 218//98 204//98 208//98 220//98
f 202//99 201//99 205//99 206//99
f 211//100 221//100 225//100 228//100
f 206//101 205//101 209//101 210//101
f 208//102 207//102 211//102 212//102
f 219//103 206//103 210//103 221//103
f 207//104 219//104 221//104 211//104
f 210//105 209//105 223//105 224//105
f 201//106 218//106 220//106 205//106
f 203//107 217//107 219//107 207//107
f 205//108 220//108 222//108 209//108
f 196//109 214//109 218//109 201//109
f 199//110 213//110 217//110 203//110
f 200//111 214//111 216//111 198//111
f 195//112 213//112 215//112 193//112
f 197//113 198//113 216//113 215//113
f 227//114 228//114 234//114 233//114
f 223//115 226//115 232//115 229//115
f 212//116 211//116 228//116 227//116
f 221//117 210//117 224//117 225//117
f 209//118 222//118 226//118 223//118
f 222//119 212//119 227//119 226//119
f 234//120 231//120 242//120 241//120
f 230//121 229//121 235//121 236//121
f 225//122 224//122 230//122 231//122
f 228//123 225//123 231//123 234//123
f 226//124 227//124 233//124 232//124
f 224//125 223//125 229//125 230//125
f 238//126 237//126 245//126 246//126
f 229//127 232//127 238//127 235//127
f 231//128 230//128 236//128 237//128
f 232//129 231//129 237//129 238//129
f 241//130 242//130 254//130 253//130
f 232//131 233//131 240//131 239//131
f 233//132 234//132 241//132 240//132
f 231//133 232//133 239//133 242//133
f 246//134 245//134 249//134 250//134
f 237//135 236//135 244//135 245//135
f 235//136 238//136 246//136 243//136
f 236//137 235//137 243//137 244//137
f 248//138 247//138 250//138 249//138
f 245//139 244//139 248//139 249//139
f 243//140 246//140 250//140 247//140
f 244//141 243//141 247//141 248//141
f 254//142 251//142 252//142 253//142
f 239//143 240//143 252//143 251//143
f 242//144 239//144 251//144 254//144
f 240//145 241//145 253//145 252//145
