# Blender v2.91.2 OBJ File: 'camionnete02.blend'
# www.blender.org
mtllib arme_000117.mtl
o Cube.046_Cube.010
v 157.221146 406.280029 -1235.716553
v 179.750641 187.028351 -1235.235596
v 223.868988 412.667786 -1445.708008
v 246.398453 193.416107 -1445.227051
v -51.655838 384.669739 -1302.668213
v -29.126389 165.418030 -1302.187012
v 14.992043 391.057465 -1512.659424
v 37.521507 171.805756 -1512.178467
v 65.460228 397.485382 -946.600159
v 87.989700 178.233734 -946.118958
v -120.887222 156.623413 -1013.070496
v -143.416702 375.875092 -1013.551575
v 23.932442 393.505280 -815.755798
v 46.461884 174.253601 -815.274841
v -162.415085 152.643250 -882.226318
v -184.944565 371.894928 -882.707397
v -0.600365 391.153961 -738.458923
v 20.046829 232.077118 -750.973328
v -188.830185 210.466827 -817.924805
v -209.477371 369.543671 -805.410400
v 1.472580 612.079102 -816.235413
v -207.404373 590.468811 -883.187012
v -23.060188 609.727783 -738.938538
v -231.937149 588.117554 -805.890076
v 79.776642 398.857513 -991.707520
v 102.306107 179.605865 -991.226501
v -129.100342 377.247223 -1058.659180
v -106.570892 157.995514 -1058.177979
v 58.023079 469.862000 -946.758911
v -150.853897 448.251740 -1013.710449
v 72.339493 471.234161 -991.866333
v -136.537460 449.623779 -1058.817871
v 47.233006 574.868713 -946.989319
v -161.643936 553.258362 -1013.940674
v 61.549366 576.240784 -992.096802
v -147.327560 554.630432 -1059.048340
v 17.433868 465.971832 -818.871948
v -191.443130 444.361481 -885.823486
v 6.643776 570.978516 -819.102295
v -202.233200 549.368164 -886.053833
v 2.980087 749.632751 -865.337402
v -205.896866 728.022339 -932.289001
v -21.552727 747.281372 -788.040527
v -230.429642 725.671082 -854.991943
v 200.340210 410.412720 -1371.574463
v 222.869705 191.161041 -1371.093506
v -8.536728 388.802368 -1438.525879
v 13.992783 169.550690 -1438.044922
v 119.430496 401.862610 -1479.183838
v 141.959961 182.610901 -1478.702637
v 52.782684 395.474915 -1269.192383
v 75.312149 176.223206 -1268.711182
v -38.978226 386.680237 -980.075806
v -16.448761 167.428589 -979.594727
v -80.506073 382.700104 -849.231628
v -53.774429 173.744720 -835.553467
v -105.038864 380.348816 -771.934631
v -71.586182 212.735291 -792.194763
v -102.965912 601.273987 -849.711182
v -127.498672 598.922668 -772.414307
v -2.132385 168.800720 -1024.702148
v -24.661865 388.052338 -1025.183350
v -46.415390 459.056885 -980.234680
v -32.098984 460.428955 -1025.342041
v -57.205460 564.063538 -980.464966
v -42.889084 565.435608 -1025.572510
v -87.004654 455.166687 -852.347717
v -97.794693 560.173340 -852.578003
v -101.458420 738.827576 -898.813171
v -125.991196 736.476196 -821.516235
v 118.431213 180.355865 -1404.569092
v 95.901749 399.607544 -1405.050293
v 171.649796 407.265198 -1462.445801
v 127.531380 181.625793 -1251.973389
v 35.770447 172.831146 -962.856873
v -18.562874 177.387695 -824.267029
v -36.374603 216.378265 -780.908386
v 27.557404 393.454926 -1008.445374
v 20.120239 465.831512 -1008.604187
v 9.330154 570.838196 -1008.834595
v 148.121002 405.010132 -1388.312256
v 194.179260 188.013489 -1461.964844
v 105.001854 400.877472 -1252.454590
v 13.240982 392.082825 -963.338013
v -28.286819 388.102692 -832.493713
v -52.819626 385.751373 -755.196838
v -50.746658 606.676575 -832.973328
v -75.279419 604.325256 -755.676453
v 50.086861 174.203278 -1007.964417
v 5.803848 464.459442 -963.496765
v -4.986221 569.466125 -963.727112
v -34.785385 460.569275 -835.609863
v -45.575455 565.575928 -835.840149
v -49.239120 744.230103 -882.075256
v -73.771942 741.878784 -804.778381
v 170.650421 185.758453 -1387.831543
v 54.305214 133.151398 -1007.874329
v 2.085953 127.748810 -1024.612061
v 174.868713 144.706543 -1387.741455
v 122.649582 139.303955 -1404.479248
v 79.530457 135.171295 -1268.621094
v 131.749725 140.573898 -1251.883301
v 282.650574 357.219574 -1305.325195
v 263.583740 355.392151 -1245.250244
v 273.546143 258.441315 -1245.037354
v 292.612854 260.268707 -1305.112549
v 327.787750 361.889465 -1290.857422
v 308.720978 360.062042 -1230.782471
v 318.683319 263.111206 -1230.569824
v 337.750092 264.938629 -1290.644775
v 396.862061 369.035889 -1268.717285
v 377.795288 367.208466 -1208.642090
v 387.757629 270.257629 -1208.429443
v 406.824341 272.085052 -1268.504395
v 441.310547 373.634491 -1254.469971
v 422.243713 371.807068 -1194.395020
v 432.206116 274.856262 -1194.182373
v 451.272888 276.683655 -1254.257324
v 413.130432 208.998718 -2151.826172
v 360.911255 203.596130 -2168.563965
v 338.381653 422.847839 -2169.045166
v 390.600952 428.250427 -2152.307129
v -85.147141 806.562500 -918.032593
v -181.381607 796.606079 -948.878784
v -107.752777 804.395874 -846.807617
v -203.987167 794.439514 -877.653809
v -11.518387 814.352295 -815.961609
v 11.087318 816.518982 -887.186401
v -37.029892 811.540894 -902.609436
v -59.635574 809.374023 -831.384644
vn 0.9477 0.0980 0.3038
vn 0.3024 0.0290 -0.9527
vn -0.9477 -0.0980 -0.3038
vn -0.1022 0.9948 -0.0022
vn 0.1022 -0.9948 0.0022
vn -0.3024 -0.0290 0.9527
vn -0.1245 -0.7627 0.6347
vn 0.0175 -0.9998 0.0084
vn -0.3659 -0.1483 0.9188
vn -0.9480 -0.0986 -0.3025
vn 0.9480 0.0986 0.3025
vn 0.3190 -0.3217 -0.8915
vn 0.3189 -0.3290 -0.8888
vn -0.3190 0.3217 0.8915
vn 0.6509 0.0652 -0.7563
vn -0.9224 0.2608 -0.2848
vn -0.2480 -0.1373 0.9590
vn 0.1310 -0.9903 0.0460
vn -0.3168 0.4045 0.8579
vn -0.2847 -0.1708 0.9433
vn 0.0821 -0.9945 0.0649
vn 0.0949 0.0119 0.9954
vn 0.6082 -0.7755 0.1694
vn 0.4377 0.8837 0.1658
vn 0.9532 -0.0169 0.3020
usemtl Matériau.011
s off
f 45//1 46//1 4//1 3//1
f 49//2 50//2 8//2 7//2
f 47//3 48//3 6//3 5//3
f 26//1 25//1 9//1 10//1
f 72//4 47//4 5//4 51//4
f 96//5 46//5 2//5 74//5
f 10//1 9//1 13//1 14//1
f 84//6 9//6 29//6 90//6
f 89//5 26//5 10//5 75//5
f 27//3 28//3 11//3 12//3
f 76//7 14//7 18//7 77//7
f 75//8 10//8 14//8 76//8
f 12//3 11//3 15//3 16//3
f 53//4 12//4 16//4 55//4
f 86//9 77//9 18//9 17//9
f 16//10 15//10 19//10 20//10
f 16//3 20//3 24//3 22//3
f 14//11 13//11 17//11 18//11
f 59//12 22//12 42//12 69//12
f 86//6 17//6 23//6 88//6
f 17//1 13//1 21//1 23//1
f 55//2 16//2 22//2 59//2
f 5//3 6//3 28//3 27//3
f 74//5 2//5 26//5 89//5
f 51//4 5//4 27//4 62//4
f 2//1 1//1 25//1 26//1
f 32//3 30//3 34//3 36//3
f 62//2 27//2 32//2 64//2
f 27//3 12//3 30//3 32//3
f 9//1 25//1 31//1 29//1
f 66//4 36//4 34//4 65//4
f 90//5 29//5 37//5 92//5
f 64//2 32//2 36//2 66//2
f 29//1 31//1 35//1 33//1
f 92//6 37//6 39//6 93//6
f 29//1 33//1 39//1 37//1
f 34//3 30//3 38//3 40//3
f 65//4 34//4 40//4 68//4
f 69//13 42//13 124//13 123//13
f 23//1 21//1 41//1 43//1
f 88//14 23//14 43//14 95//14
f 22//3 24//3 44//3 42//3
f 82//5 4//5 46//5 96//5
f 49//4 7//4 47//4 72//4
f 7//3 8//3 48//3 47//3
f 46//15 45//15 103//15 106//15
f 73//4 49//4 72//4 81//4
f 8//5 50//5 71//5 48//5
f 24//14 60//14 70//14 44//14
f 42//16 44//16 126//16 124//16
f 91//4 65//4 68//4 93//4
f 38//6 67//6 68//6 40//6
f 79//2 64//2 66//2 80//2
f 30//5 63//5 67//5 38//5
f 80//4 66//4 65//4 91//4
f 78//2 62//2 64//2 79//2
f 83//4 51//4 62//4 78//4
f 6//5 52//5 61//5 28//5
f 85//2 55//2 59//2 87//2
f 20//6 57//6 60//6 24//6
f 87//12 59//12 69//12 94//12
f 20//17 19//17 58//17 57//17
f 84//4 53//4 55//4 85//4
f 11//18 54//18 56//18 15//18
f 15//7 56//7 58//7 19//7
f 28//5 61//5 54//5 11//5
f 12//6 53//6 63//6 30//6
f 48//5 71//5 52//5 6//5
f 81//4 72//4 51//4 83//4
f 50//3 49//3 121//3 120//3
f 3//2 4//2 82//2 73//2
f 45//4 81//4 83//4 1//4
f 9//4 84//4 85//4 13//4
f 21//12 87//12 94//12 41//12
f 13//2 85//2 87//2 21//2
f 1//4 83//4 78//4 25//4
f 25//2 78//2 79//2 31//2
f 35//4 80//4 91//4 33//4
f 31//2 79//2 80//2 35//2
f 33//4 91//4 93//4 39//4
f 70//19 95//19 130//19 125//19
f 3//4 73//4 81//4 45//4
f 50//5 82//5 96//5 71//5
f 60//14 88//14 95//14 70//14
f 67//6 92//6 93//6 68//6
f 63//5 90//5 92//5 67//5
f 52//3 71//3 100//3 101//3
f 57//6 86//6 88//6 60//6
f 57//20 58//20 77//20 86//20
f 54//21 75//21 76//21 56//21
f 56//7 76//7 77//7 58//7
f 61//5 89//5 75//5 54//5
f 53//6 84//6 90//6 63//6
f 89//6 61//6 98//6 97//6
f 101//5 102//5 97//5 98//5
f 100//5 99//5 102//5 101//5
f 61//3 52//3 101//3 98//3
f 74//1 89//1 97//1 102//1
f 71//2 96//2 99//2 100//2
f 96//1 74//1 102//1 99//1
f 106//2 103//2 107//2 110//2
f 1//22 2//22 105//22 104//22
f 2//23 46//23 106//23 105//23
f 45//24 1//24 104//24 103//24
f 109//5 110//5 114//5 113//5
f 104//6 105//6 109//6 108//6
f 105//5 106//5 110//5 109//5
f 103//4 104//4 108//4 107//4
f 113//5 114//5 118//5 117//5
f 107//4 108//4 112//4 111//4
f 110//2 107//2 111//2 114//2
f 108//6 109//6 113//6 112//6
f 116//1 117//1 118//1 115//1
f 111//4 112//4 116//4 115//4
f 114//2 111//2 115//2 118//2
f 122//2 119//2 120//2 121//2
f 82//5 50//5 120//5 119//5
f 73//1 82//1 119//1 122//1
f 49//4 73//4 122//4 121//4
f 123//4 124//4 126//4 125//4
f 129//4 123//4 125//4 130//4
f 128//4 129//4 130//4 127//4
f 95//19 43//19 127//19 130//19
f 94//13 69//13 123//13 129//13
f 43//25 41//25 128//25 127//25
f 44//19 70//19 125//19 126//19
f 41//13 94//13 129//13 128//13
o Cube.048_Cube.024
v -542.142944 493.652557 155.567749
v -678.666382 319.327911 58.769936
v -411.376831 503.939392 -47.390259
v -547.273682 329.373627 -144.012360
v -694.075012 620.727844 -5.983536
v -764.074402 531.346802 -55.614479
v -627.027588 626.002258 -110.045799
v -696.611145 536.710083 -159.133728
v -387.125488 439.989380 -490.807648
v -294.252869 514.775696 -448.330353
v -367.890167 616.217529 -465.929718
v -460.762817 541.431274 -508.406952
v -309.011963 483.382202 -688.055847
v -240.729950 538.366699 -656.825684
v -294.869720 612.949036 -669.765137
v -363.151917 557.964539 -700.995361
v -259.808197 513.380371 -811.120667
v -209.908508 553.562378 -788.298218
v -249.473206 608.066101 -797.754089
v -299.372833 567.884155 -820.576660
v -492.266479 592.007263 -73.216118
v -636.364746 407.288818 -174.594849
v -631.197021 581.128540 142.220978
v -776.133362 396.061462 39.458214
v -326.245056 568.322571 -461.035736
v -424.840820 488.927673 -506.130524
v -259.074432 579.109985 -679.905640
v -331.564270 520.737061 -713.060425
v -218.616943 584.584167 -817.630798
v -271.591553 541.925964 -841.859924
v -224.725983 519.311646 -898.267334
v -174.826294 559.493530 -875.445007
v -183.434570 596.038452 -914.720703
v -236.409119 553.380310 -938.949768
v -264.205811 578.489563 -916.138245
v -214.306091 618.671509 -893.315613
v -200.289124 524.645996 -961.088074
v -150.389526 564.828003 -938.265503
v -158.997742 601.372742 -977.541199
v -211.972412 558.714722 -1001.770203
v -239.768951 583.823853 -978.958679
v -189.869385 624.005920 -956.136108
v -162.221008 515.445374 -992.011902
v -130.102966 541.308716 -977.321960
v -135.643616 564.830933 -1002.602112
v -169.741028 537.373901 -1018.197083
v -218.399475 591.877808 -1046.105347
v -246.196106 616.987000 -1023.294006
v -196.296448 657.169006 -1000.471375
v -165.424988 634.535950 -1021.876282
v -136.722717 507.768799 -1012.993958
v -115.069580 525.205139 -1003.090393
v -118.804993 541.063171 -1020.133484
v -141.792419 522.552368 -1030.647339
v -116.978943 508.659790 -1041.260010
v -103.443298 519.559448 -1035.069214
v -105.778320 529.472534 -1045.723145
v -120.148071 517.901123 -1052.295410
v -217.901550 620.892090 -1062.228882
v -236.383850 637.587463 -1047.061157
v -203.204956 664.304932 -1031.885986
v -182.678101 649.255981 -1046.118652
v -238.036041 583.038208 355.014740
v -323.613037 357.404785 367.808441
v -105.700134 518.237427 165.368423
v -190.604034 296.059570 175.602966
v -409.189331 574.143433 165.389450
v -453.067047 458.454803 171.949158
v -334.538055 545.164001 65.798393
v -384.869659 427.001404 73.400024
v -62.325073 162.965881 -101.084343
v 34.535583 179.270874 -22.821968
v 93.431885 249.501770 -108.120888
v -0.923157 233.567719 -186.335876
v 50.198364 -3.167664 -182.506989
v 121.295471 6.555908 -123.247169
v 166.439453 58.464050 -185.925995
v 95.342346 48.740356 -245.185852
v 123.176392 -105.807617 -233.547455
v 175.133118 -98.701660 -190.241089
v 208.123718 -60.767944 -236.045959
v 156.167053 -67.873840 -279.352295
v -193.911926 563.117859 105.917328
v -294.703552 324.281158 117.646767
v -345.058472 628.944336 308.114502
v -435.909027 389.406616 321.696625
v 70.438416 207.291351 -62.726570
v -32.222046 193.250854 -148.294739
v 154.083801 17.279419 -159.841400
v 78.605530 6.956787 -222.752991
v 204.787964 -101.882141 -222.006744
v 149.629517 -109.425842 -267.981781
v 161.486450 -185.233459 -266.477386
v 213.443115 -178.127319 -223.171051
v 250.063660 -186.181274 -262.494049
v 194.905029 -193.724915 -308.469055
v 200.371948 -151.424072 -318.677917
v 252.328674 -144.318054 -275.371582
v 189.669434 -241.573181 -291.045441
v 241.626160 -234.467224 -247.739105
v 278.246765 -242.521118 -287.062225
v 223.088318 -250.064880 -333.037262
v 228.554871 -207.763672 -343.246063
v 280.511719 -200.657776 -299.939667
v 204.275330 -288.395447 -281.856079
v 237.717590 -283.821716 -253.981598
v 261.288574 -289.005676 -279.292206
v 225.785461 -293.861145 -308.884186
v 258.716431 -264.416931 -373.427216
v 264.183228 -222.115906 -383.636108
v 316.140076 -215.009949 -340.329712
v 313.875061 -256.873230 -327.452301
v 212.782349 -320.606323 -275.577179
v 235.328247 -317.522949 -256.784943
v 251.219177 -321.017944 -273.848755
v 227.283997 -324.291260 -293.798889
v 227.877502 -351.305420 -279.970184
v 241.971130 -349.377808 -268.222992
v 251.904663 -351.562378 -278.889648
v 236.942566 -353.608643 -291.360596
v 287.801514 -263.835022 -389.419891
v 291.436462 -235.708496 -396.207794
v 325.983215 -230.983765 -367.412903
v 324.476990 -258.818970 -358.850433
vn 0.6229 -0.6904 0.3679
vn -0.5398 0.7489 -0.3843
vn -0.6229 0.6901 -0.3683
vn -0.3564 -0.2245 0.9070
vn 0.1956 0.9650 0.1749
vn -0.5272 -0.7592 -0.3817
vn -0.5527 0.8062 -0.2109
vn 0.7232 0.6442 0.2491
vn -0.7576 -0.3611 -0.5437
vn 0.6894 -0.7107 0.1402
vn -0.7588 -0.4816 -0.4384
vn 0.8033 0.5311 0.2696
vn -0.7468 -0.5162 -0.4193
vn 0.6072 -0.7917 0.0663
vn 0.6962 0.6388 0.3274
vn 0.6117 -0.7893 0.0522
vn -0.5467 0.8066 -0.2247
vn 0.8271 0.4997 0.2574
vn 0.6916 0.6864 0.2250
vn 0.5681 -0.8043 0.1740
vn -0.6548 -0.6430 -0.3973
vn 0.7112 0.6579 0.2476
vn -0.6234 -0.6682 -0.4060
vn -0.5242 -0.6997 -0.4855
vn 0.3799 0.9081 0.1763
vn -0.7905 -0.3038 -0.5317
vn 0.6023 0.6773 0.4225
vn -0.8080 0.3853 0.4458
vn -0.5754 0.8029 -0.1556
vn -0.7029 -0.6316 -0.3271
vn -0.5862 0.8001 -0.1269
vn 0.7652 0.5446 0.3432
vn -0.6999 -0.6351 -0.3268
vn -0.7684 -0.5406 -0.3425
vn 0.7009 0.6162 0.3593
vn 0.3136 -0.7326 0.6041
vn 0.7625 0.5484 0.3432
vn 0.6953 0.6411 0.3249
vn -0.7691 -0.5381 -0.3449
vn 0.5754 -0.8029 0.1556
vn -0.0719 0.5586 -0.8263
vn -0.5358 -0.7167 -0.4463
vn 0.8822 0.4252 0.2022
vn -0.0526 0.5417 -0.8389
vn 0.6109 0.7904 0.0452
vn -0.7649 -0.5641 -0.3111
vn -0.6696 0.5449 0.5047
vn 0.6696 -0.5449 -0.5047
vn -0.3694 0.7613 -0.5329
vn 0.8657 0.4467 0.2259
vn -0.5649 -0.7053 -0.4284
vn 0.2963 -0.7227 0.6245
vn 0.6533 -0.4776 -0.5875
vn 0.8606 0.4530 0.2329
vn -0.5736 -0.7016 -0.4228
vn 0.4993 -0.8038 0.3234
vn -0.1153 0.5950 -0.7954
vn -0.7544 -0.3089 -0.5792
vn 0.6231 -0.3881 -0.6791
vn -0.6778 0.6706 0.3014
vn 0.7524 -0.2552 0.6072
vn -0.1086 0.5524 -0.8265
vn -0.7431 0.2621 -0.6157
vn -0.3300 0.1777 0.9271
vn -0.0423 0.9437 -0.3281
vn -0.3070 -0.9475 0.0900
vn 0.5120 0.4877 -0.7072
vn 0.8486 0.5255 -0.0612
vn -0.6742 -0.5567 -0.4854
vn 0.3977 -0.5189 0.7567
vn -0.6573 -0.1183 -0.7443
vn 0.7468 -0.0113 0.6649
vn -0.6865 -0.1258 -0.7162
vn -0.4421 -0.6120 0.6558
vn 0.7919 0.1394 0.5946
vn -0.4436 -0.6316 0.6358
vn 0.5224 0.4791 -0.7054
vn 0.7400 -0.0417 0.6713
vn 0.8529 0.0882 0.5145
vn -0.5007 -0.5264 0.6871
vn -0.7633 -0.2141 -0.6096
vn 0.8401 0.1007 0.5330
vn -0.7703 -0.2482 -0.5875
vn -0.5907 -0.8062 -0.0329
vn 0.4828 0.7504 -0.4513
vn -0.6742 -0.6970 -0.2441
vn 0.4208 0.9072 0.0020
vn -0.8961 0.3550 0.2664
vn 0.4926 0.5430 -0.6801
vn -0.7884 -0.1325 -0.6007
vn 0.4795 0.5684 -0.6686
vn 0.7352 0.0732 0.6739
vn -0.7903 -0.1355 -0.5976
vn -0.7332 -0.0691 -0.6765
vn 0.7673 0.1503 0.6234
vn -0.6357 -0.0471 0.7705
vn 0.7374 0.0762 0.6711
vn 0.7940 0.1391 0.5918
vn -0.7308 -0.0694 -0.6791
vn -0.4926 -0.5430 0.6801
vn 0.6322 -0.3189 -0.7061
vn -0.7671 -0.3454 -0.5406
vn 0.7094 -0.1435 0.6900
vn 0.6282 -0.3457 -0.6970
vn 0.9473 0.0463 0.3170
vn -0.7589 -0.0585 -0.6486
vn 0.0882 0.9606 -0.2635
vn -0.0882 -0.9606 0.2635
vn 0.6224 0.1410 -0.7699
vn 0.7164 -0.1081 0.6893
vn -0.7732 -0.3118 -0.5522
vn -0.6386 -0.0187 0.7693
vn -0.0188 -0.9828 0.1838
vn 0.7183 -0.0976 0.6889
vn -0.7748 -0.3015 -0.5557
vn -0.5607 -0.3809 0.7352
vn 0.6392 -0.2575 -0.7246
vn -0.4742 -0.1482 -0.8678
vn 0.0660 -0.9943 0.0839
vn 0.2375 0.8720 -0.4280
usemtl Matériau.012
s off
f 131//26 132//26 134//26 133//26
f 138//27 137//27 141//27 142//27
f 137//28 138//28 136//28 135//28
f 153//29 154//29 132//29 131//29
f 151//30 137//30 135//30 153//30
f 152//31 134//31 132//31 154//31
f 142//32 141//32 145//32 146//32
f 151//33 133//33 140//33 155//33
f 152//34 138//34 142//34 156//34
f 133//35 134//35 139//35 140//35
f 158//36 146//36 150//36 160//36
f 155//37 140//37 144//37 157//37
f 156//38 142//38 146//38 158//38
f 140//39 139//39 143//39 144//39
f 149//40 159//40 163//40 166//40
f 144//41 143//41 147//41 148//41
f 146//42 145//42 149//42 150//42
f 157//43 144//43 148//43 159//43
f 145//44 157//44 159//44 149//44
f 148//45 147//45 161//45 162//45
f 139//46 156//46 158//46 143//46
f 141//47 155//47 157//47 145//47
f 143//48 158//48 160//48 147//48
f 134//49 152//49 156//49 139//49
f 137//50 151//50 155//50 141//50
f 138//51 152//51 154//51 136//51
f 133//52 151//52 153//52 131//52
f 135//53 136//53 154//53 153//53
f 165//54 166//54 172//54 171//54
f 161//55 164//55 170//55 167//55
f 150//56 149//56 166//56 165//56
f 159//57 148//57 162//57 163//57
f 147//58 160//58 164//58 161//58
f 160//59 150//59 165//59 164//59
f 172//60 169//60 180//60 179//60
f 168//61 167//61 173//61 174//61
f 163//62 162//62 168//62 169//62
f 166//63 163//63 169//63 172//63
f 164//64 165//64 171//64 170//64
f 162//65 161//65 167//65 168//65
f 176//66 175//66 183//66 184//66
f 167//67 170//67 176//67 173//67
f 169//68 168//68 174//68 175//68
f 170//69 169//69 175//69 176//69
f 179//70 180//70 192//70 191//70
f 170//71 171//71 178//71 177//71
f 171//72 172//72 179//72 178//72
f 169//73 170//73 177//73 180//73
f 184//74 183//74 187//74 188//74
f 175//75 174//75 182//75 183//75
f 173//76 176//76 184//76 181//76
f 174//77 173//77 181//77 182//77
f 186//78 185//78 188//78 187//78
f 183//79 182//79 186//79 187//79
f 181//80 184//80 188//80 185//80
f 182//81 181//81 185//81 186//81
f 192//82 189//82 190//82 191//82
f 177//83 178//83 190//83 189//83
f 180//84 177//84 189//84 192//84
f 178//85 179//85 191//85 190//85
f 193//86 194//86 196//86 195//86
f 200//87 199//87 203//87 204//87
f 199//88 200//88 198//88 197//88
f 215//89 216//89 194//89 193//89
f 213//90 199//90 197//90 215//90
f 214//91 196//91 194//91 216//91
f 204//92 203//92 207//92 208//92
f 213//93 195//93 202//93 217//93
f 214//94 200//94 204//94 218//94
f 195//95 196//95 201//95 202//95
f 220//96 208//96 212//96 222//96
f 217//97 202//97 206//97 219//97
f 218//98 204//98 208//98 220//98
f 202//99 201//99 205//99 206//99
f 211//100 221//100 225//100 228//100
f 206//101 205//101 209//101 210//101
f 208//102 207//102 211//102 212//102
f 219//103 206//103 210//103 221//103
f 207//104 219//104 221//104 211//104
f 210//105 209//105 223//105 224//105
f 201//106 218//106 220//106 205//106
f 203//107 217//107 219//107 207//107
f 205//108 220//108 222//108 209//108
f 196//109 214//109 218//109 201//109
f 199//110 213//110 217//110 203//110
f 200//111 214//111 216//111 198//111
f 195//112 213//112 215//112 193//112
f 197//113 198//113 216//113 215//113
f 227//114 228//114 234//114 233//114
f 223//115 226//115 232//115 229//115
f 212//116 211//116 228//116 227//116
f 221//117 210//117 224//117 225//117
f 209//118 222//118 226//118 223//118
f 222//119 212//119 227//119 226//119
f 234//120 231//120 242//120 241//120
f 230//121 229//121 235//121 236//121
f 225//122 224//122 230//122 231//122
f 228//123 225//123 231//123 234//123
f 226//124 227//124 233//124 232//124
f 224//125 223//125 229//125 230//125
f 238//126 237//126 245//126 246//126
f 229//127 232//127 238//127 235//127
f 231//128 230//128 236//128 237//128
f 232//129 231//129 237//129 238//129
f 241//130 242//130 254//130 253//130
f 232//131 233//131 240//131 239//131
f 233//132 234//132 241//132 240//132
f 231//133 232//133 239//133 242//133
f 246//134 245//134 249//134 250//134
f 237//135 236//135 244//135 245//135
f 235//136 238//136 246//136 243//136
f 236//137 235//137 243//137 244//137
f 248//138 247//138 250//138 249//138
f 245//139 244//139 248//139 249//139
f 243//140 246//140 250//140 247//140
f 244//141 243//141 247//141 248//141
f 254//142 251//142 252//142 253//142
f 239//143 240//143 252//143 251//143
f 242//144 239//144 251//144 254//144
f 240//145 241//145 253//145 252//145
