# Blender v2.91.2 OBJ File: 'camionnete02.blend'
# www.blender.org
mtllib arme_000172.mtl
o Cube.046_Cube.010
v 217.614777 694.960449 -1201.934692
v 194.875473 478.170990 -1234.559326
v 282.708862 719.604248 -1411.062744
v 259.969543 502.814789 -1443.687378
v 8.271088 726.171387 -1263.418213
v -14.468243 509.381866 -1296.042603
v 73.365181 750.815063 -1472.545898
v 50.625843 534.025635 -1505.170776
v 127.993141 661.030762 -914.006958
v 105.253815 444.241364 -946.631409
v -104.089859 475.452240 -1008.114685
v -81.350540 692.241699 -975.490173
v 87.433502 645.675415 -783.700500
v 64.694138 428.885956 -816.325195
v -144.649567 460.096832 -877.808411
v -121.910248 676.886353 -845.183838
v 63.472626 636.604126 -706.721436
v 51.095573 480.400726 -743.268372
v -158.248169 511.611725 -804.751587
v -145.871094 667.815063 -768.204712
v 141.975800 666.324463 -958.928894
v 119.236465 449.535004 -991.553467
v -67.367935 697.535400 -1020.412231
v -90.107269 480.745880 -1053.036743
v 259.728638 710.904297 -1337.234131
v 236.989304 494.114777 -1369.858887
v 50.384949 742.115112 -1398.717285
v 27.645649 525.325684 -1431.341919
v 178.037018 735.209717 -1441.804443
v 155.297684 518.420288 -1474.429077
v 112.942940 710.565918 -1232.676392
v 90.203659 493.776398 -1265.300903
v 23.321304 676.636230 -944.748474
v 0.581982 459.846771 -977.372986
v -17.238365 661.280884 -814.442139
v -33.669411 451.609863 -832.666504
v -41.199219 652.209595 -737.463074
v -42.838959 486.346527 -783.404114
v 14.564602 465.140411 -1022.295166
v 37.303917 681.929932 -989.670532
v 132.317459 509.720184 -1400.600464
v 155.056793 726.509644 -1367.975708
v 230.372986 727.406982 -1426.433594
v 142.539536 485.973724 -1249.930176
v 52.917892 452.044067 -962.002258
v 1.620846 446.348450 -822.301880
v -7.548706 481.085052 -773.039551
v 89.639870 674.127197 -974.299622
v 207.392731 718.707031 -1352.604980
v 207.633621 510.617462 -1459.058228
v 165.278839 702.763184 -1217.305664
v 75.657204 668.833496 -929.377747
v 35.097557 653.478149 -799.071289
v 11.136696 644.406860 -722.092285
v 66.900528 457.337738 -1006.924377
v 184.653336 501.917511 -1385.229736
v 62.642910 416.746857 -1013.032776
v 10.306957 424.549561 -1028.403564
v 180.395691 461.326630 -1391.338135
v 128.059814 469.129364 -1406.708984
v 85.945984 453.185547 -1271.409546
v 138.281921 445.382843 -1256.038696
v 329.890411 632.836670 -1282.679077
v 311.268066 625.786499 -1222.851074
v 301.213104 529.924316 -1237.277222
v 319.835297 536.974609 -1297.105347
v 375.128418 626.092163 -1269.393066
v 356.506104 619.041992 -1209.564941
v 346.451111 523.179932 -1223.991211
v 365.073364 530.230103 -1283.819214
v 444.357086 615.770996 -1249.060913
v 425.734741 608.720703 -1189.232910
v 415.679749 512.858643 -1203.659180
v 434.301971 519.908936 -1263.487305
v 488.904846 609.129395 -1235.977539
v 470.282562 602.079102 -1176.149536
v 460.227570 506.217133 -1190.575684
v 478.849792 513.267334 -1250.403809
v 421.480347 591.577271 -2146.083496
v 369.144440 599.380005 -2161.454102
v 391.883606 816.169556 -2128.829590
v 444.219666 808.366821 -2113.458984
vn 0.9498 -0.1416 0.2790
vn 0.2953 0.1118 -0.9488
vn -0.9498 0.1416 -0.2790
vn 0.1032 0.9836 0.1480
vn -0.1032 -0.9836 -0.1480
vn -0.2733 -0.8094 0.5198
vn -0.1871 -0.9724 -0.1395
vn -0.3821 -0.2093 0.9001
vn -0.9502 0.1410 -0.2778
vn 0.9502 -0.1410 0.2778
vn 0.6453 0.0471 -0.7625
vn -0.2642 -0.2285 0.9370
vn -0.0738 -0.9917 -0.1051
vn -0.3070 -0.2512 0.9179
vn -0.1224 -0.9888 -0.0853
vn -0.2953 -0.1118 0.9488
vn 0.1022 -0.1585 0.9820
vn 0.4380 -0.8984 0.0305
vn 0.6101 0.7422 0.2774
usemtl Matériau.011
s off
f 25//1 26//1 4//1 3//1
f 29//2 30//2 8//2 7//2
f 27//3 28//3 6//3 5//3
f 22//1 21//1 9//1 10//1
f 42//4 27//4 5//4 31//4
f 56//5 26//5 2//5 44//5
f 10//1 9//1 13//1 14//1
f 55//5 22//5 10//5 45//5
f 23//3 24//3 11//3 12//3
f 46//6 14//6 18//6 47//6
f 45//7 10//7 14//7 46//7
f 12//3 11//3 15//3 16//3
f 33//4 12//4 16//4 35//4
f 54//8 47//8 18//8 17//8
f 16//9 15//9 19//9 20//9
f 14//10 13//10 17//10 18//10
f 5//3 6//3 24//3 23//3
f 44//5 2//5 22//5 55//5
f 31//4 5//4 23//4 40//4
f 2//1 1//1 21//1 22//1
f 50//5 4//5 26//5 56//5
f 29//4 7//4 27//4 42//4
f 7//3 8//3 28//3 27//3
f 26//11 25//11 63//11 66//11
f 43//4 29//4 42//4 49//4
f 8//5 30//5 41//5 28//5
f 51//4 31//4 40//4 48//4
f 6//5 32//5 39//5 24//5
f 20//12 19//12 38//12 37//12
f 52//4 33//4 35//4 53//4
f 11//13 34//13 36//13 15//13
f 15//6 36//6 38//6 19//6
f 24//5 39//5 34//5 11//5
f 28//5 41//5 32//5 6//5
f 49//4 42//4 31//4 51//4
f 30//3 29//3 81//3 80//3
f 3//2 4//2 50//2 43//2
f 25//4 49//4 51//4 1//4
f 9//4 52//4 53//4 13//4
f 1//4 51//4 48//4 21//4
f 3//4 43//4 49//4 25//4
f 30//5 50//5 56//5 41//5
f 32//3 41//3 60//3 61//3
f 37//14 38//14 47//14 54//14
f 34//15 45//15 46//15 36//15
f 36//6 46//6 47//6 38//6
f 39//5 55//5 45//5 34//5
f 55//16 39//16 58//16 57//16
f 61//5 62//5 57//5 58//5
f 60//5 59//5 62//5 61//5
f 39//3 32//3 61//3 58//3
f 44//1 55//1 57//1 62//1
f 41//2 56//2 59//2 60//2
f 56//1 44//1 62//1 59//1
f 66//2 63//2 67//2 70//2
f 1//17 2//17 65//17 64//17
f 2//18 26//18 66//18 65//18
f 25//19 1//19 64//19 63//19
f 69//5 70//5 74//5 73//5
f 64//16 65//16 69//16 68//16
f 65//5 66//5 70//5 69//5
f 63//4 64//4 68//4 67//4
f 73//5 74//5 78//5 77//5
f 67//4 68//4 72//4 71//4
f 70//2 67//2 71//2 74//2
f 68//16 69//16 73//16 72//16
f 76//1 77//1 78//1 75//1
f 71//4 72//4 76//4 75//4
f 74//2 71//2 75//2 78//2
f 82//2 79//2 80//2 81//2
f 50//5 30//5 80//5 79//5
f 43//1 50//1 79//1 82//1
f 29//4 43//4 82//4 81//4
o Cube.048_Cube.024
v -501.625183 528.607117 156.904602
v -669.387451 387.398865 55.348694
v -372.595245 522.189941 -47.319939
v -539.887451 379.941559 -149.571655
v -627.700623 688.641785 2.553669
v -713.717041 616.240356 -49.516884
v -561.543396 685.351501 -102.157951
v -647.121521 612.731873 -153.640564
v -365.180939 491.868988 -501.374908
v -258.696198 539.142334 -451.889008
v -310.173859 654.782288 -451.587799
v -416.658569 607.508911 -501.073761
v -281.214630 548.089172 -692.896423
v -202.924683 582.845581 -656.513184
v -240.772217 667.866638 -656.291748
v -319.062225 633.110229 -692.674927
v -227.771393 585.902222 -811.975708
v -170.558167 611.301758 -785.387329
v -198.216705 673.434021 -785.225403
v -255.429810 648.034485 -811.813782
v -435.453674 624.917664 -68.569221
v -612.696289 474.485443 -175.389679
v -572.532532 631.841797 148.212799
v -750.632812 481.931946 40.398727
v -279.160126 599.319946 -455.364960
v -392.206818 549.133423 -507.900421
v -212.716797 629.463440 -672.641235
v -295.831207 592.565186 -711.266418
v -172.947205 647.523499 -809.488525
v -233.686127 620.558777 -837.715271
v -192.820496 597.812561 -898.561340
v -135.607239 623.212097 -871.972961
v -136.838501 666.267212 -905.093384
v -197.577454 639.302429 -933.320190
v -219.499115 665.727783 -906.032471
v -162.285889 691.127319 -879.443970
v -168.244080 607.594238 -960.789612
v -111.030701 632.993774 -934.201355
v -112.262146 676.048950 -967.321594
v -173.001038 649.084106 -995.548401
v -194.922852 675.509460 -968.260437
v -137.709534 700.908936 -941.672241
v -133.073425 595.731750 -994.142639
v -96.247742 612.080322 -977.028992
v -97.040344 639.792908 -998.346985
v -136.135315 622.436890 -1016.515320
v -172.823120 689.195618 -1034.249146
v -194.744934 715.620972 -1006.961243
v -137.531616 741.020508 -980.373108
v -112.084167 716.160339 -1006.022400
v -109.827148 586.361816 -1016.971375
v -85.000305 597.383545 -1005.433655
v -85.534607 616.066528 -1019.805847
v -111.891296 604.365662 -1032.054321
v -90.513611 587.544678 -1045.522583
v -74.994080 594.434509 -1038.310181
v -75.328064 606.113525 -1047.294556
v -91.803955 598.799072 -1054.951294
v -166.519165 719.621033 -1045.936646
v -181.095276 737.191528 -1027.792358
v -143.053284 754.080017 -1010.113586
v -126.133118 737.550232 -1027.168213
v -235.354248 485.209320 393.332794
v -366.141083 284.633331 360.749908
v -109.017761 437.133423 190.368011
v -243.024658 237.245087 158.279480
v -398.885345 550.975464 208.230927
v -465.943420 448.134552 191.524780
v -325.672058 526.406494 101.964539
v -402.818207 423.837311 87.712502
v -218.585480 135.162720 -97.736015
v -136.328186 93.042419 -13.408348
v -44.489685 100.304626 -97.303169
v -124.059509 141.156433 -181.709381
v -240.276886 -70.457092 -162.090424
v -181.488403 -104.201355 -98.322853
v -111.990601 -99.794617 -160.061951
v -170.779236 -66.050232 -223.829559
v -251.045349 -199.804993 -202.327911
v -208.083496 -224.464600 -155.727356
v -157.295471 -221.244263 -200.845490
v -200.257385 -196.584412 -247.446014
v -182.466003 506.382446 141.326889
v -337.241791 297.755951 108.745071
v -329.098755 561.000366 358.283173
v -467.945068 348.064301 323.692413
v -90.063232 85.639587 -52.000824
v -174.950867 134.364624 -144.077881
v -148.853027 -120.592407 -132.898712
v -211.264282 -84.768616 -200.595795
v -187.018372 -248.896423 -185.018066
v -232.627625 -222.717041 -234.490265
v -273.262390 -287.521851 -228.263275
v -230.300476 -312.181458 -181.662781
v -206.983337 -345.475220 -217.719177
v -252.592651 -319.295776 -267.191376
v -220.568665 -291.801208 -279.107147
v -177.606750 -316.461182 -232.506653
v -288.231903 -350.503296 -247.790680
v -245.270020 -375.162964 -201.190155
v -221.952911 -408.456665 -237.246582
v -267.562317 -382.276978 -286.718781
v -235.538177 -354.782349 -298.634613
v -192.576233 -379.442139 -252.034119
v -308.008820 -394.548218 -235.180756
v -280.356201 -410.420776 -205.186127
v -265.348053 -431.850342 -228.394073
v -294.704742 -414.999756 -260.237000
v -249.089630 -419.772827 -323.590790
v -217.065430 -392.278076 -335.506622
v -174.103699 -416.938110 -288.906036
v -203.480347 -445.952148 -274.118622
v -322.778564 -423.850586 -226.662262
v -304.136017 -434.551392 -206.440643
v -294.017914 -448.998901 -222.086792
v -313.809326 -437.638428 -243.554596
v -331.336243 -457.219116 -228.364075
v -319.682495 -463.908325 -215.723328
v -313.357483 -472.939209 -225.503876
v -325.729401 -465.838013 -238.923462
v -226.351746 -439.627075 -337.405121
v -205.058472 -421.345581 -345.328064
v -176.492554 -437.742065 -314.342773
v -196.025452 -457.034058 -304.510284
vn 0.4829 -0.8100 0.3326
vn -0.3816 0.8713 -0.3086
vn -0.4830 0.8096 -0.3334
vn -0.3867 -0.1896 0.9025
vn 0.3766 0.9024 0.2094
vn -0.6659 -0.6291 -0.4010
vn -0.3778 0.9233 -0.0691
vn 0.8366 0.4705 0.2805
vn -0.8145 -0.1630 -0.5568
vn 0.5435 -0.8369 0.0648
vn -0.8442 -0.2471 -0.4756
vn 0.8967 0.3117 0.3143
vn -0.8394 -0.2859 -0.4622
vn 0.4331 -0.8983 -0.0738
vn 0.8143 0.4287 0.3913
vn 0.4379 -0.8947 -0.0876
vn -0.3719 0.9245 -0.0828
vn 0.9135 0.2784 0.2967
vn 0.8188 0.4912 0.2973
vn 0.3930 -0.9190 0.0322
vn -0.7751 -0.4304 -0.4626
vn 0.8323 0.4563 0.3147
vn -0.7495 -0.4599 -0.4761
vn -0.6548 -0.5427 -0.5261
vn 0.5461 0.8023 0.2412
vn -0.8378 -0.1252 -0.5314
vn 0.7226 0.5333 0.4398
vn -0.7173 0.5129 0.4717
vn -0.4003 0.9163 -0.0140
vn -0.8194 -0.4204 -0.3897
vn -0.4113 0.9114 0.0143
vn 0.8627 0.3213 0.3905
vn -0.8171 -0.4245 -0.3901
vn -0.8650 -0.3168 -0.3891
vn 0.8144 0.4010 0.4194
vn 0.1615 -0.8637 0.4775
vn 0.8608 0.3255 0.3911
vn 0.8138 0.4315 0.3892
vn -0.8652 -0.3139 -0.3910
vn 0.4003 -0.9163 0.0140
vn 0.0381 0.6804 -0.7319
vn -0.6740 -0.5183 -0.5264
vn 0.9519 0.2035 0.2292
vn 0.0534 0.6621 -0.7475
vn 0.7598 0.6354 0.1379
vn -0.8661 -0.3451 -0.3616
vn -0.5406 0.5854 0.6042
vn 0.5406 -0.5854 -0.6042
vn -0.2097 0.8919 -0.4008
vn 0.9402 0.2241 0.2564
vn -0.7000 -0.5041 -0.5059
vn 0.1467 -0.8536 0.4998
vn 0.5378 -0.5043 -0.6756
vn 0.9365 0.2302 0.2644
vn -0.7078 -0.4996 -0.4995
vn 0.3268 -0.9273 0.1826
vn 0.0032 0.7196 -0.6943
vn -0.8056 -0.0595 -0.5895
vn 0.5260 -0.3978 -0.7518
vn -0.5244 0.7395 0.4221
vn 0.6641 -0.5251 0.5322
vn 0.2064 0.6479 -0.7332
vn -0.6461 0.5355 -0.5439
vn -0.3137 0.0505 0.9482
vn 0.1614 0.9783 -0.1299
vn -0.4990 -0.8606 -0.1020
vn 0.7242 -0.0256 -0.6891
vn 0.9686 0.1745 -0.1773
vn -0.8392 -0.2946 -0.4571
vn 0.1476 -0.7103 0.6883
vn -0.5577 0.2735 -0.7837
vn 0.5381 -0.4353 0.7218
vn -0.5853 0.2892 -0.7575
vn -0.7485 -0.1176 0.6526
vn 0.6766 -0.3580 0.6435
vn -0.7628 -0.1333 0.6327
vn 0.7243 -0.0390 -0.6884
vn 0.5172 -0.4543 0.7253
vn 0.6911 -0.4433 0.5708
vn -0.7384 -0.0123 0.6742
vn -0.7035 0.2817 -0.6525
vn 0.6942 -0.4219 0.5832
vn -0.7316 0.2625 -0.6292
vn -0.7875 -0.6155 0.0321
vn 0.6537 0.5360 -0.5342
vn -0.7963 -0.4764 -0.3727
vn 0.5874 0.7869 0.1894
vn -0.8108 0.4725 0.3455
vn 0.7429 0.0307 -0.6687
vn -0.6693 0.3605 -0.6496
vn 0.7494 0.0594 -0.6594
vn 0.5886 -0.3643 0.7216
vn -0.6727 0.3597 -0.6466
vn -0.5844 0.3658 -0.7243
vn 0.6645 -0.3314 0.6699
vn -0.5290 0.4445 0.7229
vn 0.5924 -0.3637 0.7189
vn 0.6780 -0.3599 0.6409
vn -0.5827 0.3638 -0.7267
vn -0.7429 -0.0307 0.6687
vn 0.2855 -0.7129 -0.6405
vn -0.7938 0.1911 -0.5774
vn 0.4271 -0.5097 0.7468
vn 0.2648 -0.7298 -0.6303
vn 0.7395 -0.5534 0.3832
vn -0.5975 0.3930 -0.6990
vn 0.7008 0.6450 -0.3048
vn -0.7008 -0.6450 0.3048
vn 0.5803 -0.3649 -0.7281
vn 0.4555 -0.4876 0.7448
vn -0.7762 0.2194 -0.5912
vn -0.5126 0.4677 0.7201
vn -0.6610 -0.7138 0.2316
vn 0.4639 -0.4809 0.7440
vn -0.7706 0.2280 -0.5952
vn -0.6897 0.1407 0.7103
vn 0.3314 -0.6727 -0.6615
vn -0.4359 0.1213 -0.8918
vn -0.6021 -0.7862 0.1390
vn 0.7595 0.4668 -0.4531
usemtl Matériau.012
s off
f 83//20 84//20 86//20 85//20
f 90//21 89//21 93//21 94//21
f 89//22 90//22 88//22 87//22
f 105//23 106//23 84//23 83//23
f 103//24 89//24 87//24 105//24
f 104//25 86//25 84//25 106//25
f 94//26 93//26 97//26 98//26
f 103//27 85//27 92//27 107//27
f 104//28 90//28 94//28 108//28
f 85//29 86//29 91//29 92//29
f 110//30 98//30 102//30 112//30
f 107//31 92//31 96//31 109//31
f 108//32 94//32 98//32 110//32
f 92//33 91//33 95//33 96//33
f 101//34 111//34 115//34 118//34
f 96//35 95//35 99//35 100//35
f 98//36 97//36 101//36 102//36
f 109//37 96//37 100//37 111//37
f 97//38 109//38 111//38 101//38
f 100//39 99//39 113//39 114//39
f 91//40 108//40 110//40 95//40
f 93//41 107//41 109//41 97//41
f 95//42 110//42 112//42 99//42
f 86//43 104//43 108//43 91//43
f 89//44 103//44 107//44 93//44
f 90//45 104//45 106//45 88//45
f 85//46 103//46 105//46 83//46
f 87//47 88//47 106//47 105//47
f 117//48 118//48 124//48 123//48
f 113//49 116//49 122//49 119//49
f 102//50 101//50 118//50 117//50
f 111//51 100//51 114//51 115//51
f 99//52 112//52 116//52 113//52
f 112//53 102//53 117//53 116//53
f 124//54 121//54 132//54 131//54
f 120//55 119//55 125//55 126//55
f 115//56 114//56 120//56 121//56
f 118//57 115//57 121//57 124//57
f 116//58 117//58 123//58 122//58
f 114//59 113//59 119//59 120//59
f 128//60 127//60 135//60 136//60
f 119//61 122//61 128//61 125//61
f 121//62 120//62 126//62 127//62
f 122//63 121//63 127//63 128//63
f 131//64 132//64 144//64 143//64
f 122//65 123//65 130//65 129//65
f 123//66 124//66 131//66 130//66
f 121//67 122//67 129//67 132//67
f 136//68 135//68 139//68 140//68
f 127//69 126//69 134//69 135//69
f 125//70 128//70 136//70 133//70
f 126//71 125//71 133//71 134//71
f 138//72 137//72 140//72 139//72
f 135//73 134//73 138//73 139//73
f 133//74 136//74 140//74 137//74
f 134//75 133//75 137//75 138//75
f 144//76 141//76 142//76 143//76
f 129//77 130//77 142//77 141//77
f 132//78 129//78 141//78 144//78
f 130//79 131//79 143//79 142//79
f 145//80 146//80 148//80 147//80
f 152//81 151//81 155//81 156//81
f 151//82 152//82 150//82 149//82
f 167//83 168//83 146//83 145//83
f 165//84 151//84 149//84 167//84
f 166//85 148//85 146//85 168//85
f 156//86 155//86 159//86 160//86
f 165//87 147//87 154//87 169//87
f 166//88 152//88 156//88 170//88
f 147//89 148//89 153//89 154//89
f 172//90 160//90 164//90 174//90
f 169//91 154//91 158//91 171//91
f 170//92 156//92 160//92 172//92
f 154//93 153//93 157//93 158//93
f 163//94 173//94 177//94 180//94
f 158//95 157//95 161//95 162//95
f 160//96 159//96 163//96 164//96
f 171//97 158//97 162//97 173//97
f 159//98 171//98 173//98 163//98
f 162//99 161//99 175//99 176//99
f 153//100 170//100 172//100 157//100
f 155//101 169//101 171//101 159//101
f 157//102 172//102 174//102 161//102
f 148//103 166//103 170//103 153//103
f 151//104 165//104 169//104 155//104
f 152//105 166//105 168//105 150//105
f 147//106 165//106 167//106 145//106
f 149//107 150//107 168//107 167//107
f 179//108 180//108 186//108 185//108
f 175//109 178//109 184//109 181//109
f 164//110 163//110 180//110 179//110
f 173//111 162//111 176//111 177//111
f 161//112 174//112 178//112 175//112
f 174//113 164//113 179//113 178//113
f 186//114 183//114 194//114 193//114
f 182//115 181//115 187//115 188//115
f 177//116 176//116 182//116 183//116
f 180//117 177//117 183//117 186//117
f 178//118 179//118 185//118 184//118
f 176//119 175//119 181//119 182//119
f 190//120 189//120 197//120 198//120
f 181//121 184//121 190//121 187//121
f 183//122 182//122 188//122 189//122
f 184//123 183//123 189//123 190//123
f 193//124 194//124 206//124 205//124
f 184//125 185//125 192//125 191//125
f 185//126 186//126 193//126 192//126
f 183//127 184//127 191//127 194//127
f 198//128 197//128 201//128 202//128
f 189//129 188//129 196//129 197//129
f 187//130 190//130 198//130 195//130
f 188//131 187//131 195//131 196//131
f 200//132 199//132 202//132 201//132
f 197//133 196//133 200//133 201//133
f 195//134 198//134 202//134 199//134
f 196//135 195//135 199//135 200//135
f 206//136 203//136 204//136 205//136
f 191//137 192//137 204//137 203//137
f 194//138 191//138 203//138 206//138
f 192//139 193//139 205//139 204//139
