# Blender v2.91.2 OBJ File: 'camionnete02.blend'
# www.blender.org
mtllib arme_000131.mtl
o Cube.046_Cube.010
v 116.102524 328.595154 -1258.233887
v 130.105804 112.956161 -1214.842285
v 170.283051 289.836975 -1468.332275
v 184.286285 74.197922 -1424.940918
v -97.081612 304.580322 -1308.780029
v -83.078438 88.941299 -1265.388428
v -42.901070 265.822144 -1518.878296
v -28.897919 50.183060 -1475.487061
v 41.506680 381.957581 -968.969910
v 55.509903 166.318588 -925.578369
v -157.674225 142.303726 -976.124451
v -171.677460 357.942749 -1019.515930
v 7.747215 406.107605 -838.058838
v 21.750389 190.468552 -794.667419
v -191.433777 166.453720 -845.213379
v -205.437012 382.092773 -888.604980
v -12.196434 420.374329 -760.722534
v 1.485176 261.150452 -742.042480
v -211.699066 237.135696 -792.588623
v -225.380615 396.359497 -811.268555
v 53.145027 373.632019 -1014.100403
v 67.148239 157.993073 -970.708862
v -160.039154 349.617249 -1064.646484
v -146.035950 133.978195 -1021.254883
v 151.155655 303.519775 -1394.161011
v 165.158875 87.880753 -1350.769775
v -62.028496 279.504944 -1444.707153
v -48.025261 63.865936 -1401.315552
v 63.690960 277.829529 -1493.605347
v 77.694176 62.190445 -1450.213867
v 9.510460 316.587830 -1283.506958
v 23.513680 100.948700 -1240.115356
v -65.085381 369.950134 -994.242859
v -51.082161 154.311142 -950.851318
v -98.844902 394.100159 -863.331909
v -79.462685 190.949295 -809.312683
v -118.788506 408.366882 -785.995605
v -93.127586 238.610367 -773.827698
v -39.443832 145.985626 -995.981873
v -53.447060 361.624634 -1039.373413
v 58.566772 75.873306 -1376.042725
v 44.563560 291.512451 -1419.434082
v 116.987045 283.833313 -1480.968872
v 76.809738 106.952438 -1227.478760
v 2.213844 160.314850 -938.214905
v -43.525032 194.997574 -800.791992
v -57.189934 242.658646 -765.306824
v -0.151001 367.628357 -1026.736816
v 97.859589 297.516113 -1406.797729
v 130.990265 68.194183 -1437.577393
v 62.806465 322.591492 -1270.870483
v -11.789368 375.953796 -981.606384
v -45.548851 400.103943 -850.695374
v -65.492485 414.370605 -773.359070
v 13.852196 151.989319 -983.345459
v 111.862778 81.877045 -1363.406128
v 16.474136 111.613861 -975.220947
v -36.821915 105.610153 -987.857422
v 114.484665 41.501572 -1355.281738
v 61.188698 35.497864 -1367.918335
v 26.135605 60.573257 -1231.990967
v 79.431633 66.576965 -1219.354370
v 235.153320 260.494141 -1322.840210
v 219.653198 271.582214 -1262.734741
v 225.845398 176.228867 -1243.547363
v 241.345398 165.140778 -1303.653076
v 281.221252 265.683655 -1311.917847
v 265.721130 276.771729 -1251.812012
v 271.913300 181.418335 -1232.624756
v 287.413330 170.330261 -1292.730469
v 351.719940 273.625244 -1295.202637
v 336.219818 284.713257 -1235.096802
v 342.411865 189.359940 -1215.909546
v 357.911896 178.271820 -1276.015259
v 397.084900 278.735474 -1284.446533
v 381.584808 289.823547 -1224.340820
v 387.777008 194.470230 -1205.153564
v 403.277008 183.382172 -1265.259155
v 308.983826 -59.133652 -2127.790771
v 255.687775 -65.137344 -2140.427246
v 241.684418 150.501755 -2183.818848
v 294.980591 156.505417 -2171.182129
vn 0.9672 0.1090 0.2293
vn 0.2458 -0.1758 -0.9532
vn -0.9672 -0.1090 -0.2293
vn -0.0635 0.9784 -0.1969
vn 0.0635 -0.9784 0.1969
vn -0.1159 -0.6143 0.7805
vn -0.0208 -0.9779 0.2082
vn -0.3158 0.0555 0.9472
vn -0.9675 -0.1092 -0.2280
vn 0.9675 0.1092 0.2280
vn 0.6066 -0.1188 -0.7861
vn -0.1954 0.0684 0.9783
vn 0.0950 -0.9668 0.2374
vn -0.2342 0.0342 0.9716
vn 0.0472 -0.9647 0.2592
vn -0.2458 0.1758 0.9532
vn 0.1546 0.2045 0.9666
vn 0.5867 -0.7558 0.2907
vn 0.4807 0.8761 -0.0376
usemtl Matériau.011
s off
f 25//1 26//1 4//1 3//1
f 29//2 30//2 8//2 7//2
f 27//3 28//3 6//3 5//3
f 22//1 21//1 9//1 10//1
f 42//4 27//4 5//4 31//4
f 56//5 26//5 2//5 44//5
f 10//1 9//1 13//1 14//1
f 55//5 22//5 10//5 45//5
f 23//3 24//3 11//3 12//3
f 46//6 14//6 18//6 47//6
f 45//7 10//7 14//7 46//7
f 12//3 11//3 15//3 16//3
f 33//4 12//4 16//4 35//4
f 54//8 47//8 18//8 17//8
f 16//9 15//9 19//9 20//9
f 14//10 13//10 17//10 18//10
f 5//3 6//3 24//3 23//3
f 44//5 2//5 22//5 55//5
f 31//4 5//4 23//4 40//4
f 2//1 1//1 21//1 22//1
f 50//5 4//5 26//5 56//5
f 29//4 7//4 27//4 42//4
f 7//3 8//3 28//3 27//3
f 26//11 25//11 63//11 66//11
f 43//4 29//4 42//4 49//4
f 8//5 30//5 41//5 28//5
f 51//4 31//4 40//4 48//4
f 6//5 32//5 39//5 24//5
f 20//12 19//12 38//12 37//12
f 52//4 33//4 35//4 53//4
f 11//13 34//13 36//13 15//13
f 15//6 36//6 38//6 19//6
f 24//5 39//5 34//5 11//5
f 28//5 41//5 32//5 6//5
f 49//4 42//4 31//4 51//4
f 30//3 29//3 81//3 80//3
f 3//2 4//2 50//2 43//2
f 25//4 49//4 51//4 1//4
f 9//4 52//4 53//4 13//4
f 1//4 51//4 48//4 21//4
f 3//4 43//4 49//4 25//4
f 30//5 50//5 56//5 41//5
f 32//3 41//3 60//3 61//3
f 37//14 38//14 47//14 54//14
f 34//15 45//15 46//15 36//15
f 36//6 46//6 47//6 38//6
f 39//5 55//5 45//5 34//5
f 55//16 39//16 58//16 57//16
f 61//5 62//5 57//5 58//5
f 60//5 59//5 62//5 61//5
f 39//3 32//3 61//3 58//3
f 44//1 55//1 57//1 62//1
f 41//2 56//2 59//2 60//2
f 56//1 44//1 62//1 59//1
f 66//2 63//2 67//2 70//2
f 1//17 2//17 65//17 64//17
f 2//18 26//18 66//18 65//18
f 25//19 1//19 64//19 63//19
f 69//5 70//5 74//5 73//5
f 64//16 65//16 69//16 68//16
f 65//5 66//5 70//5 69//5
f 63//4 64//4 68//4 67//4
f 73//5 74//5 78//5 77//5
f 67//4 68//4 72//4 71//4
f 70//2 67//2 71//2 74//2
f 68//16 69//16 73//16 72//16
f 76//1 77//1 78//1 75//1
f 71//4 72//4 76//4 75//4
f 74//2 71//2 75//2 78//2
f 82//2 79//2 80//2 81//2
f 50//5 30//5 80//5 79//5
f 43//1 50//1 79//1 82//1
f 29//4 43//4 82//4 81//4
o Cube.048_Cube.024
v -528.360291 523.040283 135.048019
v -682.428528 341.713318 92.845291
v -405.476227 465.146149 -64.815254
v -558.443115 282.618835 -107.120949
v -675.815063 613.641174 -53.044807
v -754.810059 520.669800 -74.683281
v -612.808899 583.957275 -155.520294
v -691.332153 490.944580 -176.544037
v -403.834351 291.047974 -483.677887
v -305.761261 368.046082 -461.870392
v -376.331238 467.523071 -495.735443
v -474.404358 390.524872 -517.543030
v -336.021790 290.468414 -689.329712
v -263.916168 347.079163 -673.296204
v -315.800873 420.216858 -698.194641
v -387.906494 363.606049 -714.228027
v -293.132599 292.946625 -818.249146
v -240.438690 334.317017 -806.532166
v -278.355377 387.765076 -824.727661
v -331.049133 346.394653 -836.444519
v -479.887146 549.499146 -112.834404
v -642.200562 356.636719 -156.361938
v -610.452881 611.036438 99.294785
v -774.015259 418.535583 54.491409
v -336.355804 419.534454 -483.436859
v -440.472595 337.791443 -506.588226
v -282.013763 383.294250 -703.132019
v -358.562714 323.194916 -720.153320
v -249.675232 359.294159 -841.020142
v -305.616058 315.374390 -853.459167
v -263.115936 279.702209 -906.476685
v -210.422119 321.072571 -894.759644
v -219.938538 349.477173 -940.090088
v -275.879486 305.557373 -952.528992
v -301.269531 336.050842 -933.847595
v -248.575745 377.421204 -922.130676
v -242.287567 271.233643 -970.245911
v -189.593689 312.604126 -958.529053
v -199.110413 341.008606 -1003.858948
v -255.051331 297.088898 -1016.298035
v -280.441376 327.582245 -997.616760
v -227.747375 368.952637 -985.899963
v -206.520142 254.188934 -1000.582214
v -172.603455 280.817200 -993.040466
v -178.728821 299.099915 -1022.217590
v -214.735504 270.830750 -1030.223877
v -262.825562 321.070160 -1066.008911
v -288.215485 351.563599 -1047.327637
v -235.521667 392.933990 -1035.610718
v -206.884613 364.989990 -1053.569946
v -182.637634 241.236938 -1020.860779
v -159.772034 259.188965 -1015.776306
v -163.901550 271.514709 -1035.446533
v -188.176331 252.456421 -1040.844116
v -164.598206 235.512604 -1049.694458
v -150.304626 246.734680 -1046.516113
v -152.885986 254.439575 -1058.812378
v -168.060486 242.525970 -1062.186523
v -262.167572 346.244720 -1087.638672
v -279.049774 366.520233 -1075.217163
v -244.012970 394.027863 -1067.426514
v -224.971802 375.447479 -1079.367798
v -266.042480 559.146423 419.117767
v -321.379211 330.428955 364.129486
v -142.482117 578.584167 213.469086
v -194.805237 349.093170 159.121643
v -446.965149 583.716248 240.250183
v -475.337830 466.446381 212.056122
v -375.370422 597.542603 133.109985
v -410.439850 476.016083 106.942841
v -83.049683 296.217834 -99.145180
v -3.269226 305.482208 -3.231377
v 72.477844 377.751984 -70.994987
v -4.385132 368.690155 -166.837738
v 38.319641 130.262085 -167.113312
v 96.897705 134.129395 -94.900307
v 154.733643 187.412659 -144.669373
v 96.155579 183.545349 -216.882507
v 116.838501 27.635254 -209.165802
v 159.646545 30.461487 -156.393341
v 201.912170 69.400330 -192.764008
v 159.104187 66.574097 -245.536316
v -237.392731 624.906738 172.134644
v -305.268585 378.500854 115.245308
v -380.895691 601.498230 391.263336
v -439.642456 358.686371 332.886505
v 41.022095 333.293457 -33.618233
v -43.561462 327.709167 -137.890137
v 136.418762 145.446533 -123.869698
v 74.230957 141.340942 -200.532684
v 194.769470 27.776062 -182.040131
v 149.323547 24.775696 -238.064453
v 158.518188 -51.412598 -238.742126
v 201.326050 -48.586121 -185.969666
v 244.600769 -56.015259 -217.974945
v 199.154785 -59.015686 -273.999420
v 207.682617 -16.488220 -280.493866
v 250.490540 -13.661987 -227.721436
v 189.305237 -107.460754 -260.714417
v 232.113220 -104.634521 -207.942017
v 275.388062 -112.063660 -239.947296
v 229.942017 -115.064148 -295.971649
v 238.469727 -72.536682 -302.466248
v 281.277710 -69.710388 -249.693756
v 200.533936 -155.229309 -251.648010
v 228.087463 -153.410339 -217.680756
v 255.941406 -158.192200 -238.281128
v 226.689819 -160.123169 -274.341431
v 272.271118 -128.684265 -329.578888
v 280.798950 -86.156799 -336.073364
v 323.606873 -83.330627 -283.301025
v 317.717102 -125.683777 -273.554474
v 206.755371 -188.028809 -245.747375
v 225.331177 -186.802490 -222.847473
v 244.109680 -190.026367 -236.735748
v 224.389099 -191.328186 -261.046692
v 221.539673 -219.024292 -248.957062
v 233.151611 -218.257324 -234.642120
v 244.890198 -220.272644 -243.323822
v 232.562683 -221.086548 -258.520752
v 303.899292 -128.409424 -339.659943
v 309.569580 -100.132446 -343.978210
v 338.033020 -98.253052 -308.889160
v 334.116882 -126.414185 -302.408508
vn 0.5791 -0.6134 0.5370
vn -0.5068 0.6647 -0.5489
vn -0.5791 0.6136 -0.5368
vn -0.3367 0.0675 0.9392
vn 0.2806 0.9542 -0.1040
vn -0.6029 -0.7847 -0.1443
vn -0.5327 0.7749 -0.3403
vn 0.7748 0.6294 0.0594
vn -0.8045 -0.4261 -0.4137
vn 0.6497 -0.7011 0.2939
vn -0.8018 -0.5206 -0.2935
vn 0.8379 0.5333 0.1162
vn -0.7900 -0.5512 -0.2685
vn 0.5790 -0.7921 0.1931
vn 0.7388 0.6555 0.1565
vn 0.5827 -0.7928 0.1786
vn -0.5275 0.7722 -0.3542
vn 0.8597 0.4990 0.1093
vn 0.7299 0.6820 0.0470
vn 0.5459 -0.7811 0.3030
vn -0.7018 -0.6755 -0.2262
vn 0.7497 0.6577 0.0738
vn -0.6720 -0.7036 -0.2312
vn -0.5915 -0.7565 -0.2792
vn 0.4474 0.8916 -0.0699
vn -0.8336 -0.3665 -0.4132
vn 0.6720 0.7110 0.2073
vn -0.7553 0.5641 0.3337
vn -0.5521 0.7838 -0.2844
vn -0.7452 -0.6481 -0.1573
vn -0.5613 0.7873 -0.2552
vn 0.8049 0.5630 0.1875
vn -0.7422 -0.6516 -0.1566
vn -0.8079 -0.5587 -0.1874
vn 0.7444 0.6395 0.1921
vn 0.3205 -0.6128 0.7223
vn 0.8023 0.5669 0.1868
vn 0.7378 0.6573 0.1537
vn -0.8086 -0.5568 -0.1902
vn 0.5521 -0.7838 0.2844
vn -0.0994 0.3863 -0.9170
vn -0.5889 -0.7634 -0.2654
vn 0.9086 0.4123 0.0676
vn -0.0815 0.3664 -0.9269
vn 0.6426 0.7522 -0.1457
vn -0.8034 -0.5757 -0.1521
vn -0.6166 0.6670 0.4182
vn 0.6166 -0.6670 -0.4182
vn -0.3707 0.6579 -0.6555
vn 0.8943 0.4389 0.0872
vn -0.6163 -0.7472 -0.2487
vn 0.3049 -0.5982 0.7411
vn 0.5980 -0.6167 -0.5120
vn 0.8898 0.4467 0.0931
vn -0.6246 -0.7420 -0.2435
vn 0.4862 -0.7475 0.4526
vn -0.1395 0.4303 -0.8919
vn -0.7990 -0.3797 -0.4662
vn 0.5659 -0.5458 -0.6180
vn -0.6321 0.7501 0.1945
vn 0.8252 -0.3070 0.4741
vn -0.1034 0.7249 -0.6810
vn -0.8111 0.3260 -0.4856
vn -0.2873 -0.1576 0.9448
vn -0.1988 0.9798 -0.0193
vn -0.1781 -0.9639 -0.1977
vn 0.6531 0.5041 -0.5651
vn 0.8132 0.5813 0.0269
vn -0.6138 -0.4642 -0.6386
vn 0.4087 -0.6373 0.6533
vn -0.5045 -0.0540 -0.8617
vn 0.5999 -0.0768 0.7964
vn -0.5388 -0.0618 -0.8402
vn -0.5769 -0.6268 0.5237
vn 0.6659 0.0775 0.7420
vn -0.5756 -0.6459 0.5015
vn 0.6620 0.4943 -0.5635
vn 0.5951 -0.1051 0.7967
vn 0.7398 0.0282 0.6722
vn -0.6386 -0.5413 0.5470
vn -0.6371 -0.1524 -0.7556
vn 0.7262 0.0437 0.6861
vn -0.6492 -0.1873 -0.7372
vn -0.4994 -0.8445 -0.1935
vn 0.3934 0.8464 -0.3591
vn -0.5955 -0.6789 -0.4295
vn 0.2949 0.9143 0.2776
vn -0.9140 0.1286 0.3847
vn 0.6297 0.5578 -0.5407
vn -0.6612 -0.0704 -0.7469
vn 0.6154 0.5831 -0.5304
vn 0.5932 0.0095 0.8050
vn -0.6637 -0.0735 -0.7444
vn -0.5906 -0.0054 -0.8070
vn 0.6366 0.0878 0.7662
vn -0.7735 -0.0621 0.6308
vn 0.5960 0.0126 0.8029
vn 0.6685 0.0772 0.7397
vn -0.5877 -0.0057 -0.8090
vn -0.6297 -0.5578 0.5407
vn 0.7472 -0.3063 -0.5897
vn -0.6579 -0.2868 -0.6964
vn 0.5586 -0.2065 0.8033
vn 0.7408 -0.3334 -0.5831
vn 0.8693 -0.0071 0.4943
vn -0.6208 0.0048 -0.7839
vn 0.1646 0.9688 -0.1854
vn -0.1646 -0.9688 0.1854
vn 0.7630 0.1563 -0.6273
vn 0.5666 -0.1715 0.8059
vn -0.6606 -0.2525 -0.7070
vn -0.7753 -0.0336 0.6307
vn -0.0817 -0.9895 0.1193
vn 0.5689 -0.1610 0.8065
vn -0.6613 -0.2419 -0.7100
vn -0.7025 -0.3963 0.5911
vn 0.7594 -0.2444 -0.6029
vn -0.3019 -0.0845 -0.9496
vn 0.0205 -0.9991 0.0369
vn 0.3402 0.8831 -0.3232
usemtl Matériau.012
s off
f 83//20 84//20 86//20 85//20
f 90//21 89//21 93//21 94//21
f 89//22 90//22 88//22 87//22
f 105//23 106//23 84//23 83//23
f 103//24 89//24 87//24 105//24
f 104//25 86//25 84//25 106//25
f 94//26 93//26 97//26 98//26
f 103//27 85//27 92//27 107//27
f 104//28 90//28 94//28 108//28
f 85//29 86//29 91//29 92//29
f 110//30 98//30 102//30 112//30
f 107//31 92//31 96//31 109//31
f 108//32 94//32 98//32 110//32
f 92//33 91//33 95//33 96//33
f 101//34 111//34 115//34 118//34
f 96//35 95//35 99//35 100//35
f 98//36 97//36 101//36 102//36
f 109//37 96//37 100//37 111//37
f 97//38 109//38 111//38 101//38
f 100//39 99//39 113//39 114//39
f 91//40 108//40 110//40 95//40
f 93//41 107//41 109//41 97//41
f 95//42 110//42 112//42 99//42
f 86//43 104//43 108//43 91//43
f 89//44 103//44 107//44 93//44
f 90//45 104//45 106//45 88//45
f 85//46 103//46 105//46 83//46
f 87//47 88//47 106//47 105//47
f 117//48 118//48 124//48 123//48
f 113//49 116//49 122//49 119//49
f 102//50 101//50 118//50 117//50
f 111//51 100//51 114//51 115//51
f 99//52 112//52 116//52 113//52
f 112//53 102//53 117//53 116//53
f 124//54 121//54 132//54 131//54
f 120//55 119//55 125//55 126//55
f 115//56 114//56 120//56 121//56
f 118//57 115//57 121//57 124//57
f 116//58 117//58 123//58 122//58
f 114//59 113//59 119//59 120//59
f 128//60 127//60 135//60 136//60
f 119//61 122//61 128//61 125//61
f 121//62 120//62 126//62 127//62
f 122//63 121//63 127//63 128//63
f 131//64 132//64 144//64 143//64
f 122//65 123//65 130//65 129//65
f 123//66 124//66 131//66 130//66
f 121//67 122//67 129//67 132//67
f 136//68 135//68 139//68 140//68
f 127//69 126//69 134//69 135//69
f 125//70 128//70 136//70 133//70
f 126//71 125//71 133//71 134//71
f 138//72 137//72 140//72 139//72
f 135//73 134//73 138//73 139//73
f 133//74 136//74 140//74 137//74
f 134//75 133//75 137//75 138//75
f 144//76 141//76 142//76 143//76
f 129//77 130//77 142//77 141//77
f 132//78 129//78 141//78 144//78
f 130//79 131//79 143//79 142//79
f 145//80 146//80 148//80 147//80
f 152//81 151//81 155//81 156//81
f 151//82 152//82 150//82 149//82
f 167//83 168//83 146//83 145//83
f 165//84 151//84 149//84 167//84
f 166//85 148//85 146//85 168//85
f 156//86 155//86 159//86 160//86
f 165//87 147//87 154//87 169//87
f 166//88 152//88 156//88 170//88
f 147//89 148//89 153//89 154//89
f 172//90 160//90 164//90 174//90
f 169//91 154//91 158//91 171//91
f 170//92 156//92 160//92 172//92
f 154//93 153//93 157//93 158//93
f 163//94 173//94 177//94 180//94
f 158//95 157//95 161//95 162//95
f 160//96 159//96 163//96 164//96
f 171//97 158//97 162//97 173//97
f 159//98 171//98 173//98 163//98
f 162//99 161//99 175//99 176//99
f 153//100 170//100 172//100 157//100
f 155//101 169//101 171//101 159//101
f 157//102 172//102 174//102 161//102
f 148//103 166//103 170//103 153//103
f 151//104 165//104 169//104 155//104
f 152//105 166//105 168//105 150//105
f 147//106 165//106 167//106 145//106
f 149//107 150//107 168//107 167//107
f 179//108 180//108 186//108 185//108
f 175//109 178//109 184//109 181//109
f 164//110 163//110 180//110 179//110
f 173//111 162//111 176//111 177//111
f 161//112 174//112 178//112 175//112
f 174//113 164//113 179//113 178//113
f 186//114 183//114 194//114 193//114
f 182//115 181//115 187//115 188//115
f 177//116 176//116 182//116 183//116
f 180//117 177//117 183//117 186//117
f 178//118 179//118 185//118 184//118
f 176//119 175//119 181//119 182//119
f 190//120 189//120 197//120 198//120
f 181//121 184//121 190//121 187//121
f 183//122 182//122 188//122 189//122
f 184//123 183//123 189//123 190//123
f 193//124 194//124 206//124 205//124
f 184//125 185//125 192//125 191//125
f 185//126 186//126 193//126 192//126
f 183//127 184//127 191//127 194//127
f 198//128 197//128 201//128 202//128
f 189//129 188//129 196//129 197//129
f 187//130 190//130 198//130 195//130
f 188//131 187//131 195//131 196//131
f 200//132 199//132 202//132 201//132
f 197//133 196//133 200//133 201//133
f 195//134 198//134 202//134 199//134
f 196//135 195//135 199//135 200//135
f 206//136 203//136 204//136 205//136
f 191//137 192//137 204//137 203//137
f 194//138 191//138 203//138 206//138
f 192//139 193//139 205//139 204//139
