# Blender v2.91.2 OBJ File: 'camionnete02.blend'
# www.blender.org
mtllib arme_000011.mtl
o Cube.046_Cube.010
v 366.649200 294.850586 -1021.327881
v 367.915314 74.447502 -1021.274902
v 485.270447 295.487366 -1207.090332
v 486.536560 75.084297 -1207.037476
v 180.889954 293.755005 -1139.950806
v 182.156021 73.351906 -1139.897827
v 299.511169 294.391815 -1325.713257
v 300.777283 73.988701 -1325.660400
v 203.331253 293.973816 -765.569702
v 204.597351 73.570778 -765.516724
v 18.838100 72.475182 -884.139648
v 17.572010 292.878265 -884.192566
v 129.419189 293.577057 -649.822205
v 130.685272 73.173973 -649.769348
v -55.074036 72.078377 -768.392212
v -56.340126 292.481476 -768.445190
v 85.755219 293.342651 -581.443909
v 94.114136 133.058868 -592.739990
v -91.645210 131.963287 -711.362915
v -100.004105 292.247101 -700.066772
v 128.156982 513.298767 -649.875061
v -57.602276 512.203186 -768.498047
v 84.493050 513.064392 -581.496704
v -101.266228 511.968811 -700.119629
v 228.811874 294.110596 -805.472656
v 230.077972 73.707558 -805.419739
v 43.052601 293.015045 -924.095581
v 44.318665 72.611961 -924.042664
v 202.913315 366.730530 -765.587158
v 17.154047 365.635010 -884.210144
v 228.393921 366.867310 -805.490112
v 42.634636 365.771729 -924.112976
v 202.306976 472.288635 -765.612549
v 16.547697 471.193054 -884.235352
v 227.787537 472.425415 -805.515503
v 42.028301 471.329834 -924.138367
v 130.671768 366.342712 -652.455811
v -55.087540 365.247131 -771.078735
v 130.065384 471.900879 -652.481140
v -55.693905 470.805237 -771.104065
v 154.939651 650.230347 -693.080322
v -30.819626 649.134766 -811.703308
v 111.275681 649.995972 -624.702026
v -74.483551 648.900330 -743.324890
v 443.393463 295.262573 -1141.510498
v 444.659576 74.859489 -1141.457642
v 257.634186 294.166992 -1260.133301
v 258.900299 73.763893 -1260.080444
v 392.390808 294.939606 -1266.401855
v 393.656921 74.536491 -1266.348999
v 273.769592 294.302795 -1080.639404
v 275.035675 73.899712 -1080.586426
v 110.451637 293.426025 -824.881104
v 111.717712 73.022972 -824.828125
v 36.539539 293.029297 -709.133728
v 37.805614 72.626183 -709.080811
v -7.124417 292.794861 -640.755371
v 1.234482 132.511078 -652.051453
v 35.277336 512.751038 -709.186462
v -8.386593 512.516602 -640.808167
v 137.198318 73.159767 -864.731140
v 135.932236 293.562805 -864.784119
v 110.033684 366.182770 -824.898682
v 135.514282 366.319489 -864.801514
v 109.427338 471.740906 -824.923950
v 134.907928 471.877625 -864.826965
v 37.792110 365.794952 -711.767334
v 37.185745 471.353088 -711.792603
v 62.059998 649.682617 -752.391846
v 18.396044 649.448120 -684.013489
v 351.779907 74.311699 -1200.769043
v 350.513824 294.714783 -1200.821899
v 438.830627 295.213470 -1236.745972
v 321.475494 74.173607 -1050.930664
v 158.157532 73.296883 -795.172485
v 84.245422 72.900078 -679.425110
v 47.674301 132.784973 -622.395752
v 182.372055 293.836700 -835.128357
v 181.954102 366.593384 -835.145813
v 181.347733 472.151489 -835.171204
v 396.953674 294.988678 -1171.166260
v 440.096741 74.810402 -1236.693237
v 320.209381 294.576691 -1050.983765
v 156.891449 293.699921 -795.225464
v 82.979347 293.303162 -679.477966
v 39.315388 293.068756 -611.099609
v 81.717178 513.024902 -679.530762
v 38.053242 512.790466 -611.152466
v 183.638153 73.433662 -835.075439
v 156.473511 366.456665 -795.242920
v 155.867142 472.014771 -795.268250
v 84.231934 366.068848 -682.111572
v 83.625565 471.626953 -682.136841
v 108.499847 649.956482 -722.736023
v 64.835876 649.721985 -654.357727
v 398.219727 74.585594 -1171.113403
v 183.875214 32.166199 -835.065552
v 137.435379 31.892281 -864.721252
v 398.456787 33.318123 -1171.103516
v 352.016998 33.044212 -1200.759155
v 275.272736 32.632225 -1080.576538
v 321.712555 32.906136 -1050.920776
v 500.649750 234.137939 -1057.970215
v 466.714203 233.955750 -1004.826721
v 467.274170 136.495789 -1004.803162
v 501.209625 136.677948 -1057.946899
v 540.791382 234.374725 -1032.336548
v 506.855865 234.192535 -979.192993
v 507.415771 136.732574 -979.169556
v 541.351257 136.914734 -1032.313110
v 602.220886 234.737030 -993.108826
v 568.285339 234.554840 -939.965210
v 568.845215 137.094910 -939.941772
v 602.780701 137.277069 -993.085449
v 641.749939 234.970184 -967.866211
v 607.814392 234.787994 -914.722656
v 608.374390 137.328033 -914.699219
v 642.309814 137.510193 -967.842773
v 829.790344 76.902687 -1846.958008
v 783.350525 76.628792 -1876.613770
v 782.084290 297.031891 -1876.666748
v 828.524231 297.305786 -1847.010986
vn 0.8428 0.0050 0.5382
vn 0.5382 0.0029 -0.8428
vn -0.8428 -0.0050 -0.5382
vn -0.0057 1.0000 -0.0002
vn 0.0057 -1.0000 0.0002
vn -0.5382 -0.0029 0.8428
vn -0.3533 -0.7492 0.5602
vn -0.5358 -0.0871 0.8398
vn -0.8435 -0.0055 -0.5371
vn 0.8435 0.0055 0.5371
vn 0.5060 -0.3480 -0.7892
vn -0.5060 0.3480 0.7892
vn 0.8264 0.0046 -0.5630
vn -0.1631 -0.0007 0.9866
vn 0.4698 -0.8312 0.2972
vn 0.4602 0.8367 0.2968
usemtl Matériau.011
s off
f 45//1 46//1 4//1 3//1
f 49//2 50//2 8//2 7//2
f 47//3 48//3 6//3 5//3
f 26//1 25//1 9//1 10//1
f 72//4 47//4 5//4 51//4
f 96//5 46//5 2//5 74//5
f 10//1 9//1 13//1 14//1
f 84//6 9//6 29//6 90//6
f 89//5 26//5 10//5 75//5
f 27//3 28//3 11//3 12//3
f 76//7 14//7 18//7 77//7
f 75//5 10//5 14//5 76//5
f 12//3 11//3 15//3 16//3
f 53//4 12//4 16//4 55//4
f 86//8 77//8 18//8 17//8
f 16//9 15//9 19//9 20//9
f 16//3 20//3 24//3 22//3
f 14//10 13//10 17//10 18//10
f 59//11 22//11 42//11 69//11
f 86//6 17//6 23//6 88//6
f 17//1 13//1 21//1 23//1
f 55//2 16//2 22//2 59//2
f 5//3 6//3 28//3 27//3
f 74//5 2//5 26//5 89//5
f 51//4 5//4 27//4 62//4
f 2//1 1//1 25//1 26//1
f 32//3 30//3 34//3 36//3
f 62//2 27//2 32//2 64//2
f 27//3 12//3 30//3 32//3
f 9//1 25//1 31//1 29//1
f 66//4 36//4 34//4 65//4
f 90//5 29//5 37//5 92//5
f 64//2 32//2 36//2 66//2
f 29//1 31//1 35//1 33//1
f 92//6 37//6 39//6 93//6
f 29//1 33//1 39//1 37//1
f 34//3 30//3 38//3 40//3
f 65//4 34//4 40//4 68//4
f 69//4 42//4 44//4 70//4
f 23//1 21//1 41//1 43//1
f 88//12 23//12 43//12 95//12
f 22//3 24//3 44//3 42//3
f 82//5 4//5 46//5 96//5
f 49//4 7//4 47//4 72//4
f 7//3 8//3 48//3 47//3
f 46//13 45//13 103//13 106//13
f 73//4 49//4 72//4 81//4
f 8//5 50//5 71//5 48//5
f 24//12 60//12 70//12 44//12
f 94//4 69//4 70//4 95//4
f 91//4 65//4 68//4 93//4
f 38//6 67//6 68//6 40//6
f 79//2 64//2 66//2 80//2
f 30//5 63//5 67//5 38//5
f 80//4 66//4 65//4 91//4
f 78//2 62//2 64//2 79//2
f 83//4 51//4 62//4 78//4
f 6//5 52//5 61//5 28//5
f 85//2 55//2 59//2 87//2
f 20//6 57//6 60//6 24//6
f 87//11 59//11 69//11 94//11
f 20//8 19//8 58//8 57//8
f 84//4 53//4 55//4 85//4
f 11//5 54//5 56//5 15//5
f 15//7 56//7 58//7 19//7
f 28//5 61//5 54//5 11//5
f 12//6 53//6 63//6 30//6
f 48//5 71//5 52//5 6//5
f 81//4 72//4 51//4 83//4
f 50//3 49//3 121//3 120//3
f 3//2 4//2 82//2 73//2
f 45//4 81//4 83//4 1//4
f 9//4 84//4 85//4 13//4
f 21//11 87//11 94//11 41//11
f 13//2 85//2 87//2 21//2
f 1//4 83//4 78//4 25//4
f 25//2 78//2 79//2 31//2
f 35//4 80//4 91//4 33//4
f 31//2 79//2 80//2 35//2
f 33//4 91//4 93//4 39//4
f 41//4 94//4 95//4 43//4
f 3//4 73//4 81//4 45//4
f 50//5 82//5 96//5 71//5
f 60//12 88//12 95//12 70//12
f 67//6 92//6 93//6 68//6
f 63//5 90//5 92//5 67//5
f 52//3 71//3 100//3 101//3
f 57//6 86//6 88//6 60//6
f 57//8 58//8 77//8 86//8
f 54//5 75//5 76//5 56//5
f 56//7 76//7 77//7 58//7
f 61//5 89//5 75//5 54//5
f 53//6 84//6 90//6 63//6
f 89//6 61//6 98//6 97//6
f 101//5 102//5 97//5 98//5
f 100//5 99//5 102//5 101//5
f 61//3 52//3 101//3 98//3
f 74//1 89//1 97//1 102//1
f 71//2 96//2 99//2 100//2
f 96//1 74//1 102//1 99//1
f 106//2 103//2 107//2 110//2
f 1//14 2//14 105//14 104//14
f 2//15 46//15 106//15 105//15
f 45//16 1//16 104//16 103//16
f 109//5 110//5 114//5 113//5
f 104//6 105//6 109//6 108//6
f 105//5 106//5 110//5 109//5
f 103//4 104//4 108//4 107//4
f 113//5 114//5 118//5 117//5
f 107//4 108//4 112//4 111//4
f 110//2 107//2 111//2 114//2
f 108//6 109//6 113//6 112//6
f 116//1 117//1 118//1 115//1
f 111//4 112//4 116//4 115//4
f 114//2 111//2 115//2 118//2
f 122//2 119//2 120//2 121//2
f 82//5 50//5 120//5 119//5
f 73//1 82//1 119//1 122//1
f 49//4 73//4 122//4 121//4
o Cube.047_Cube.022
v -239.524017 523.626831 297.482758
v -235.246948 282.957947 318.877930
v -120.991226 507.070251 87.546005
v -116.714157 266.401337 108.941177
v -420.148254 446.747375 133.791595
v -417.955292 323.349701 144.761505
v -359.373169 438.258362 26.151154
v -357.180206 314.860657 37.121063
v 22.863922 293.679993 -261.991699
v 20.623566 419.743561 -273.198608
v -89.661041 412.300262 -334.879578
v -87.420685 286.236694 -323.672668
v 113.544464 294.636963 -458.632629
v 111.897308 387.321747 -466.872131
v 30.813568 381.849243 -512.221375
v 32.460724 289.164490 -503.981873
v 168.493408 297.145569 -582.891113
v 167.289673 364.878387 -588.912476
v 108.034760 360.879181 -622.053101
v 109.238495 293.146362 -616.031738
v -235.403488 508.638794 43.963135
v -230.862854 253.139145 66.676743
v -361.240662 526.215698 266.836884
v -356.700012 270.716003 289.550476
v -31.842514 419.522675 -309.246582
v -29.464096 285.690674 -297.349060
v 80.555939 386.149048 -506.185852
v 82.304596 287.752747 -497.438538
v 150.948730 363.104706 -629.266174
v 152.226624 291.197998 -622.873718
v 217.715149 290.909088 -662.883728
v 216.511414 358.641907 -668.905090
v 199.974243 355.857666 -720.586670
v 201.252136 283.950958 -714.194214
v 158.294128 286.054688 -705.611023
v 157.090393 353.787476 -711.632385
v 251.927429 286.348114 -721.028198
v 250.723694 354.080933 -727.049561
v 234.186462 351.296722 -778.731201
v 235.464417 279.390015 -772.338745
v 192.506378 281.493713 -763.755493
v 191.302643 349.226532 -769.776855
v 293.952881 297.068359 -745.707092
v 293.178101 340.664917 -749.582825
v 282.533875 338.872833 -782.847900
v 283.356384 292.589752 -778.733398
v 224.351196 274.357605 -826.725098
v 181.393188 276.461334 -818.141846
v 180.189453 344.194153 -824.163208
v 223.073303 346.264343 -833.117554
v 323.197449 303.329651 -761.672363
v 322.675110 332.721222 -764.285278
v 315.499084 331.513062 -786.711670
v 316.053650 300.310303 -783.937744
v 345.418823 306.951599 -787.800476
v 345.092346 325.324646 -789.433777
v 340.606567 324.569397 -803.452881
v 340.953186 305.064148 -801.718872
v 210.958313 283.696594 -855.629395
v 182.395020 285.095367 -849.922241
v 181.594666 330.131775 -853.925903
v 210.108643 331.508240 -859.879761
vn 0.8713 0.0588 0.4873
vn -0.8016 -0.0671 -0.5940
vn -0.8713 -0.0588 -0.4873
vn -0.2417 0.0817 0.9669
vn -0.4347 0.8447 -0.3121
vn 0.0713 -0.9904 0.1183
vn -0.8306 -0.0639 -0.5532
vn 0.0999 0.9761 -0.1929
vn -0.2661 -0.9473 -0.1781
vn 0.9337 0.0481 0.3549
vn -0.0363 -0.9979 -0.0536
vn 0.0908 0.9887 -0.1192
vn -0.0119 -0.9997 -0.0204
vn 0.9067 0.0533 0.4184
vn -0.0717 0.9905 -0.1174
vn 0.9129 0.0522 0.4048
vn -0.8221 -0.0649 -0.5656
vn 0.1316 0.9846 -0.1152
vn -0.0713 0.9709 -0.2287
vn 0.8522 0.0613 0.5196
vn 0.1259 -0.9904 0.0567
vn -0.0471 0.9794 -0.1963
vn 0.1666 -0.9842 0.0598
vn 0.1349 -0.9907 -0.0181
vn -0.2988 0.8911 -0.3415
vn -0.4037 -0.9013 -0.1569
vn 0.0359 0.9976 -0.0584
vn -0.9183 0.0188 0.3954
vn -0.8624 -0.0600 -0.5027
vn 0.0623 -0.9915 0.1145
vn -0.8775 -0.0579 -0.4760
vn 0.0313 0.9977 -0.0606
vn 0.0666 -0.9910 0.1162
vn -0.0364 -0.9976 0.0593
vn -0.0645 0.9948 -0.0789
vn 0.4881 0.0859 0.8685
vn 0.0270 0.9977 -0.0624
vn -0.0730 0.9900 -0.1206
vn -0.0376 -0.9977 0.0561
vn 0.8624 0.0600 0.5027
vn -0.1358 -0.0901 -0.9866
vn 0.2709 -0.9616 0.0435
vn 0.2366 0.9632 -0.1276
vn -0.1074 -0.0899 -0.9901
vn -0.1326 0.8937 -0.4285
vn -0.0291 -0.9948 0.0980
vn -0.9798 0.0004 0.2002
vn 0.9798 -0.0004 -0.2002
vn -0.5686 -0.0829 -0.8184
vn 0.2033 0.9721 -0.1174
vn 0.2378 -0.9698 0.0552
vn 0.4630 0.0866 0.8821
vn 0.9525 -0.0101 -0.3042
vn 0.1933 0.9745 -0.1143
vn 0.2276 -0.9720 0.0588
vn 0.7549 0.0714 0.6519
vn -0.1994 -0.0903 -0.9758
vn -0.0997 -0.9594 -0.2638
vn 0.9044 -0.0218 -0.4261
vn -0.9991 -0.0211 -0.0372
usemtl Matériau.012
s off
f 123//17 124//17 126//17 125//17
f 130//18 129//18 133//18 134//18
f 129//19 130//19 128//19 127//19
f 145//20 146//20 124//20 123//20
f 143//21 129//21 127//21 145//21
f 144//22 126//22 124//22 146//22
f 134//23 133//23 137//23 138//23
f 143//24 125//24 132//24 147//24
f 144//25 130//25 134//25 148//25
f 125//26 126//26 131//26 132//26
f 150//27 138//27 142//27 152//27
f 147//28 132//28 136//28 149//28
f 148//29 134//29 138//29 150//29
f 132//30 131//30 135//30 136//30
f 141//31 151//31 155//31 158//31
f 136//32 135//32 139//32 140//32
f 138//33 137//33 141//33 142//33
f 149//34 136//34 140//34 151//34
f 137//35 149//35 151//35 141//35
f 140//36 139//36 153//36 154//36
f 131//37 148//37 150//37 135//37
f 133//38 147//38 149//38 137//38
f 135//39 150//39 152//39 139//39
f 126//40 144//40 148//40 131//40
f 129//41 143//41 147//41 133//41
f 130//42 144//42 146//42 128//42
f 125//43 143//43 145//43 123//43
f 127//44 128//44 146//44 145//44
f 157//45 158//45 164//45 163//45
f 153//46 156//46 162//46 159//46
f 142//47 141//47 158//47 157//47
f 151//48 140//48 154//48 155//48
f 139//49 152//49 156//49 153//49
f 152//50 142//50 157//50 156//50
f 164//51 161//51 172//51 171//51
f 160//52 159//52 165//52 166//52
f 155//53 154//53 160//53 161//53
f 158//54 155//54 161//54 164//54
f 156//55 157//55 163//55 162//55
f 154//56 153//56 159//56 160//56
f 168//57 167//57 175//57 176//57
f 159//58 162//58 168//58 165//58
f 161//59 160//59 166//59 167//59
f 162//60 161//60 167//60 168//60
f 171//61 172//61 184//61 183//61
f 162//62 163//62 170//62 169//62
f 163//63 164//63 171//63 170//63
f 161//64 162//64 169//64 172//64
f 176//65 175//65 179//65 180//65
f 167//66 166//66 174//66 175//66
f 165//67 168//67 176//67 173//67
f 166//68 165//68 173//68 174//68
f 178//69 177//69 180//69 179//69
f 175//70 174//70 178//70 179//70
f 173//71 176//71 180//71 177//71
f 174//72 173//72 177//72 178//72
f 184//73 181//73 182//73 183//73
f 169//74 170//74 182//74 181//74
f 172//75 169//75 181//75 184//75
f 170//76 171//76 183//76 182//76
o Cube.048_Cube.024
v -512.195923 370.425446 147.790436
v -673.690674 223.911011 43.624557
v -369.457458 351.040100 -46.239250
v -530.952271 204.525665 -150.405136
v -626.048462 521.200684 -24.357071
v -708.851379 446.078644 -77.765839
v -552.862488 511.261261 -123.841537
v -635.665405 436.139221 -177.250290
v -288.845581 253.741028 -461.499298
v -204.253815 330.486023 -406.936676
v -261.496735 430.634583 -459.053345
v -346.088501 353.889587 -513.615967
v -158.087250 259.893127 -633.998413
v -95.893494 316.317780 -593.882751
v -137.979797 389.949249 -632.200134
v -200.173553 333.524628 -672.315796
v -75.800415 266.591705 -741.932861
v -30.350037 307.826080 -712.616882
v -61.106140 361.635010 -740.618713
v -106.556519 320.400635 -769.934692
v -429.970398 452.624817 -78.032608
v -601.416992 297.081726 -188.617508
v -581.504883 473.204773 127.953842
v -752.951416 317.661682 17.368927
v -226.963013 382.475952 -435.807678
v -316.767578 301.001709 -493.732605
v -103.879944 353.359070 -626.949097
v -169.906250 293.457367 -669.536804
v -28.283203 333.822021 -747.524353
v -76.534363 290.046692 -778.646851
v -18.639587 256.246063 -816.001099
v 26.810791 297.480438 -786.685120
v 32.073914 327.238770 -831.840027
v -16.177246 283.463379 -862.962524
v -46.690674 313.239014 -852.675171
v -1.240295 354.473389 -823.359192
v 21.838928 249.868164 -869.786560
v 67.289307 291.102539 -840.470581
v 72.552429 320.860840 -885.625488
v 24.301270 277.085449 -916.747986
v -6.212219 306.861115 -906.460632
v 39.238159 348.095490 -877.144653
v 65.747620 233.946930 -887.355103
v 95.001953 260.487640 -868.485779
v 98.389587 279.641693 -897.549927
v 67.332520 251.465485 -917.582092
v 32.695618 302.567444 -965.603943
v 2.182190 332.343079 -955.316589
v 47.632568 373.577454 -926.000610
v 80.946777 346.342834 -934.481445
v 95.096313 221.746613 -899.151123
v 114.818787 239.639618 -886.429871
v 117.102661 252.552734 -906.024231
v 96.164856 233.557129 -919.529358
v 121.582825 217.009338 -920.729065
v 133.911560 228.194458 -912.776917
v 135.339294 236.266602 -925.025513
v 122.250793 224.392212 -933.467773
v 39.955566 328.406830 -985.140137
v 19.666809 348.205048 -978.299927
v 49.887329 375.622314 -958.807312
v 72.038391 357.513611 -964.446350
vn 0.4522 -0.7912 0.4117
vn -0.3732 0.7745 -0.5107
vn -0.4522 0.7912 -0.4117
vn -0.4495 -0.1326 0.8834
vn 0.3682 0.9122 0.1798
vn -0.6392 -0.6538 -0.4049
vn -0.4050 0.7826 -0.4728
vn 0.7712 0.5467 0.3262
vn -0.7335 -0.2706 -0.6235
vn 0.5338 -0.7944 0.2898
vn -0.6558 -0.5150 -0.5520
vn 0.7473 0.5334 0.3964
vn -0.6523 -0.5463 -0.5254
vn 0.4967 -0.7950 0.3482
vn 0.6386 0.6538 0.4058
vn 0.5050 -0.7952 0.3356
vn -0.3956 0.7804 -0.4843
vn 0.7706 0.4994 0.3960
vn 0.6653 0.6836 0.3001
vn 0.4297 -0.7876 0.4416
vn -0.5808 -0.6715 -0.4602
vn 0.6757 0.6586 0.3312
vn -0.5505 -0.6992 -0.4561
vn -0.5486 -0.6506 -0.5251
vn 0.5002 0.8486 0.1722
vn -0.8034 -0.1508 -0.5760
vn 0.6948 0.5565 0.4556
vn -0.7439 0.5435 0.3888
vn -0.4416 0.7896 -0.4260
vn -0.6445 -0.6464 -0.4084
vn -0.4598 0.7922 -0.4013
vn 0.6925 0.5607 0.4539
vn -0.6419 -0.6499 -0.4068
vn -0.6954 -0.5565 -0.4547
vn 0.6327 0.6367 0.4408
vn 0.0783 -0.6335 0.7697
vn 0.6903 0.5646 0.4525
vn 0.6386 0.6557 0.4028
vn -0.6952 -0.5544 -0.4575
vn 0.4416 -0.7896 0.4260
vn 0.1973 0.4142 -0.8885
vn -0.4600 -0.7575 -0.4632
vn 0.8316 0.4142 0.3699
vn 0.2177 0.3947 -0.8927
vn 0.6441 0.7594 0.0916
vn -0.7023 -0.5745 -0.4203
vn -0.7285 0.6507 0.2142
vn 0.7285 -0.6507 -0.2142
vn -0.1480 0.6762 -0.7217
vn 0.8114 0.4402 0.3846
vn -0.4916 -0.7420 -0.4558
vn 0.0571 -0.6195 0.7829
vn 0.7405 -0.5976 -0.3075
vn 0.8051 0.4478 0.3889
vn -0.5012 -0.7370 -0.4534
vn 0.3243 -0.7589 0.5647
vn 0.1506 0.4572 -0.8765
vn -0.5994 -0.3688 -0.7105
vn 0.7434 -0.5235 -0.4162
vn -0.6719 0.7406 -0.0000
usemtl Matériau.012
s off
f 185//77 186//77 188//77 187//77
f 192//78 191//78 195//78 196//78
f 191//79 192//79 190//79 189//79
f 207//80 208//80 186//80 185//80
f 205//81 191//81 189//81 207//81
f 206//82 188//82 186//82 208//82
f 196//83 195//83 199//83 200//83
f 205//84 187//84 194//84 209//84
f 206//85 192//85 196//85 210//85
f 187//86 188//86 193//86 194//86
f 212//87 200//87 204//87 214//87
f 209//88 194//88 198//88 211//88
f 210//89 196//89 200//89 212//89
f 194//90 193//90 197//90 198//90
f 203//91 213//91 217//91 220//91
f 198//92 197//92 201//92 202//92
f 200//93 199//93 203//93 204//93
f 211//94 198//94 202//94 213//94
f 199//95 211//95 213//95 203//95
f 202//96 201//96 215//96 216//96
f 193//97 210//97 212//97 197//97
f 195//98 209//98 211//98 199//98
f 197//99 212//99 214//99 201//99
f 188//100 206//100 210//100 193//100
f 191//101 205//101 209//101 195//101
f 192//102 206//102 208//102 190//102
f 187//103 205//103 207//103 185//103
f 189//104 190//104 208//104 207//104
f 219//105 220//105 226//105 225//105
f 215//106 218//106 224//106 221//106
f 204//107 203//107 220//107 219//107
f 213//108 202//108 216//108 217//108
f 201//109 214//109 218//109 215//109
f 214//110 204//110 219//110 218//110
f 226//111 223//111 234//111 233//111
f 222//112 221//112 227//112 228//112
f 217//113 216//113 222//113 223//113
f 220//114 217//114 223//114 226//114
f 218//115 219//115 225//115 224//115
f 216//116 215//116 221//116 222//116
f 230//117 229//117 237//117 238//117
f 221//118 224//118 230//118 227//118
f 223//119 222//119 228//119 229//119
f 224//120 223//120 229//120 230//120
f 233//121 234//121 246//121 245//121
f 224//122 225//122 232//122 231//122
f 225//123 226//123 233//123 232//123
f 223//124 224//124 231//124 234//124
f 238//125 237//125 241//125 242//125
f 229//126 228//126 236//126 237//126
f 227//127 230//127 238//127 235//127
f 228//128 227//128 235//128 236//128
f 240//129 239//129 242//129 241//129
f 237//130 236//130 240//130 241//130
f 235//131 238//131 242//131 239//131
f 236//132 235//132 239//132 240//132
f 246//133 243//133 244//133 245//133
f 231//134 232//134 244//134 243//134
f 234//135 231//135 243//135 246//135
f 232//136 233//136 245//136 244//136
