# Blender v2.91.2 OBJ File: 'camionnete02.blend'
# www.blender.org
mtllib arme_000152.mtl
o Cube.046_Cube.010
v 168.812729 686.593689 -1218.673584
v 179.793076 467.462189 -1239.648315
v 229.849731 709.801758 -1429.184814
v 240.829987 490.670288 -1450.159668
v -42.689102 681.914856 -1280.513672
v -31.708847 462.783356 -1301.488403
v 18.347862 705.122925 -1491.024780
v 29.328110 485.991455 -1511.999756
v 84.776924 654.640686 -928.841492
v 95.757202 435.509277 -949.816162
v -115.744629 430.830475 -1011.656067
v -126.724915 649.961975 -990.681396
v 46.745239 640.179932 -797.673218
v 57.725491 421.048492 -818.648071
v -153.776352 416.369659 -880.487976
v -164.756683 635.501160 -859.513306
v 24.277771 631.637146 -720.185059
v 36.180885 473.669342 -748.342529
v -175.321014 468.990570 -810.182495
v -187.224121 626.958374 -782.024963
v 97.888092 659.625916 -974.060547
v 108.868355 440.494537 -995.035278
v -113.613800 654.947205 -1035.900635
v -102.633514 435.815735 -1056.875244
v 208.301727 701.608582 -1354.867920
v 219.282043 482.477112 -1375.842773
v -3.200089 696.929749 -1416.707764
v 7.780228 477.798279 -1437.682495
v 124.098770 707.462341 -1460.104858
v 135.079086 488.330872 -1481.079712
v 63.061817 684.254333 -1249.593750
v 74.042137 465.122772 -1270.568359
v -20.973984 652.301331 -959.761353
v -9.993698 433.169861 -980.736084
v -59.005722 637.840576 -828.593262
v -42.923264 427.468781 -835.601196
v -81.473160 629.297791 -751.104980
v -57.450867 462.951233 -788.194031
v 3.117416 438.155090 -1025.955322
v -7.862869 657.286560 -1004.980591
v 113.531113 480.137634 -1406.762695
v 102.550850 699.269165 -1385.787720
v 176.974274 708.632019 -1444.644775
v 126.917557 466.292480 -1255.108398
v 42.881737 434.339569 -965.276184
v -7.269218 428.257507 -825.176514
v -21.796799 463.739929 -777.769287
v 45.012619 658.456238 -989.520508
v 155.426300 700.438904 -1370.328003
v 187.954529 489.500549 -1465.619629
v 115.937241 685.424011 -1234.133789
v 31.901436 653.471008 -944.301514
v -6.130249 639.010254 -813.133240
v -28.597687 630.467468 -735.645020
v 55.992870 439.324829 -1010.495361
v 166.406525 481.307373 -1391.302734
v 58.048820 398.295441 -1014.422546
v 5.173332 397.125732 -1029.882568
v 168.462433 440.278015 -1395.229980
v 115.587006 439.108307 -1410.689941
v 76.098007 424.093384 -1274.495728
v 128.973495 425.263092 -1259.035645
v 289.509949 638.276306 -1296.663696
v 272.048279 631.636841 -1236.440063
v 276.903809 534.739136 -1245.714722
v 294.365295 541.378601 -1305.938599
v 335.214355 639.287415 -1283.300537
v 317.752686 632.648010 -1223.076782
v 322.608124 535.750305 -1232.351562
v 340.069733 542.389709 -1292.575317
v 405.156677 640.834717 -1262.850586
v 387.695038 634.195251 -1202.626709
v 392.550415 537.297546 -1211.901611
v 410.011963 543.937012 -1272.125488
v 450.163727 641.830383 -1249.691284
v 432.702087 635.190857 -1189.467529
v 437.557526 538.293213 -1198.742188
v 455.019104 544.932678 -1258.966064
v 388.472870 565.743713 -2157.188965
v 335.597412 564.574036 -2172.648926
v 324.617035 783.705566 -2151.673828
v 377.492554 784.875305 -2136.214111
vn 0.9596 0.0212 0.2806
vn 0.2769 0.1053 -0.9551
vn -0.9596 -0.0212 -0.2806
vn -0.0498 0.9942 0.0952
vn 0.0498 -0.9942 -0.0952
vn -0.1468 -0.8130 0.5635
vn -0.0348 -0.9956 -0.0867
vn -0.3476 -0.2174 0.9121
vn -0.9599 -0.0219 -0.2793
vn 0.9599 0.0219 0.2793
vn 0.6322 0.1052 -0.7676
vn -0.2282 -0.2163 0.9493
vn 0.0800 -0.9954 -0.0521
vn -0.2670 -0.2463 0.9317
vn 0.0315 -0.9990 -0.0321
vn -0.2769 -0.1053 0.9551
vn 0.1230 -0.0884 0.9885
vn 0.5710 -0.8175 0.0754
vn 0.4879 0.8409 0.2342
usemtl Matériau.011
s off
f 25//1 26//1 4//1 3//1
f 29//2 30//2 8//2 7//2
f 27//3 28//3 6//3 5//3
f 22//1 21//1 9//1 10//1
f 42//4 27//4 5//4 31//4
f 56//5 26//5 2//5 44//5
f 10//1 9//1 13//1 14//1
f 55//5 22//5 10//5 45//5
f 23//3 24//3 11//3 12//3
f 46//6 14//6 18//6 47//6
f 45//7 10//7 14//7 46//7
f 12//3 11//3 15//3 16//3
f 33//4 12//4 16//4 35//4
f 54//8 47//8 18//8 17//8
f 16//9 15//9 19//9 20//9
f 14//10 13//10 17//10 18//10
f 5//3 6//3 24//3 23//3
f 44//5 2//5 22//5 55//5
f 31//4 5//4 23//4 40//4
f 2//1 1//1 21//1 22//1
f 50//5 4//5 26//5 56//5
f 29//4 7//4 27//4 42//4
f 7//3 8//3 28//3 27//3
f 26//11 25//11 63//11 66//11
f 43//4 29//4 42//4 49//4
f 8//5 30//5 41//5 28//5
f 51//4 31//4 40//4 48//4
f 6//5 32//5 39//5 24//5
f 20//12 19//12 38//12 37//12
f 52//4 33//4 35//4 53//4
f 11//13 34//13 36//13 15//13
f 15//6 36//6 38//6 19//6
f 24//5 39//5 34//5 11//5
f 28//5 41//5 32//5 6//5
f 49//4 42//4 31//4 51//4
f 30//3 29//3 81//3 80//3
f 3//2 4//2 50//2 43//2
f 25//4 49//4 51//4 1//4
f 9//4 52//4 53//4 13//4
f 1//4 51//4 48//4 21//4
f 3//4 43//4 49//4 25//4
f 30//5 50//5 56//5 41//5
f 32//3 41//3 60//3 61//3
f 37//14 38//14 47//14 54//14
f 34//15 45//15 46//15 36//15
f 36//6 46//6 47//6 38//6
f 39//5 55//5 45//5 34//5
f 55//16 39//16 58//16 57//16
f 61//5 62//5 57//5 58//5
f 60//5 59//5 62//5 61//5
f 39//3 32//3 61//3 58//3
f 44//1 55//1 57//1 62//1
f 41//2 56//2 59//2 60//2
f 56//1 44//1 62//1 59//1
f 66//2 63//2 67//2 70//2
f 1//17 2//17 65//17 64//17
f 2//18 26//18 66//18 65//18
f 25//19 1//19 64//19 63//19
f 69//5 70//5 74//5 73//5
f 64//16 65//16 69//16 68//16
f 65//5 66//5 70//5 69//5
f 63//4 64//4 68//4 67//4
f 73//5 74//5 78//5 77//5
f 67//4 68//4 72//4 71//4
f 70//2 67//2 71//2 74//2
f 68//16 69//16 73//16 72//16
f 76//1 77//1 78//1 75//1
f 71//4 72//4 76//4 75//4
f 74//2 71//2 75//2 78//2
f 82//2 79//2 80//2 81//2
f 50//5 30//5 80//5 79//5
f 43//1 50//1 79//1 82//1
f 29//4 43//4 82//4 81//4
o Cube.048_Cube.024
v -521.099854 527.721436 150.747742
v -673.987305 358.846436 70.099014
v -391.944153 507.871887 -52.531319
v -543.783325 337.085632 -134.344910
v -662.313599 653.452698 -21.242561
v -740.703308 566.865784 -62.593430
v -596.091919 643.275330 -125.469460
v -674.029785 556.318420 -166.191132
v -377.491058 433.810486 -504.997467
v -279.673157 499.465851 -458.697784
v -348.337555 605.660767 -464.219635
v -446.155396 540.005371 -510.519318
v -302.710144 492.013306 -699.707092
v -230.792328 540.284546 -665.666382
v -281.275940 618.361450 -669.726135
v -353.193787 570.090088 -703.766785
v -255.432739 531.211182 -820.926819
v -202.875977 566.487244 -796.050354
v -239.768860 623.544739 -799.017212
v -292.325531 588.268799 -823.893616
v -464.657166 600.308716 -85.962624
v -625.791138 419.702606 -170.848816
v -601.879272 621.512085 129.799957
v -764.188110 442.230469 44.181412
v -309.147278 555.508057 -465.235382
v -412.993073 485.806793 -514.388306
v -247.603729 583.916809 -684.182068
v -323.953430 532.670898 -720.320374
v -210.753052 600.576843 -822.020447
v -266.548401 563.126953 -848.429810
v -222.519714 543.734985 -908.221741
v -169.963196 579.010986 -883.345276
v -177.725769 619.541260 -918.690002
v -233.521057 582.091492 -945.099426
v -259.315735 606.243164 -919.122131
v -206.759186 641.519226 -894.245667
v -199.589478 553.857788 -971.021057
v -147.032959 589.133850 -946.144592
v -154.795532 629.664001 -981.489319
v -210.590942 592.214233 -1007.898621
v -236.385559 616.366028 -981.921448
v -183.828918 651.641907 -957.045105
v -162.930481 545.790283 -1003.902039
v -129.102112 568.495850 -987.890198
v -134.098694 594.583374 -1010.639832
v -170.011597 570.478577 -1027.638428
v -216.494507 629.760132 -1048.668335
v -242.289032 653.911865 -1022.691101
v -189.732574 689.187866 -997.814636
v -160.699219 667.210022 -1022.258850
v -138.463135 538.907349 -1026.336548
v -115.657043 554.214844 -1015.541809
v -119.025513 571.802368 -1030.879028
v -143.237000 555.551636 -1042.339111
v -119.492004 541.527344 -1055.021362
v -105.235657 551.096191 -1048.273438
v -107.341309 562.090332 -1057.860962
v -122.476257 551.931763 -1065.024780
v -214.920044 660.128052 -1061.985596
v -232.071350 676.186890 -1044.712891
v -197.125732 699.642395 -1028.172241
v -177.821106 685.028931 -1044.425537
v -229.529114 525.913269 381.926697
v -335.376404 309.581970 362.059540
v -117.576477 492.310089 169.602631
v -223.055939 274.001892 151.071991
v -413.903687 566.187012 209.548126
v -468.174530 455.267822 199.361694
v -348.116028 550.039673 97.887085
v -410.584717 437.024933 91.182487
v -164.783691 163.768494 -93.719261
v -72.258423 162.071838 -9.330772
v 10.667358 192.727112 -97.245094
v -79.001831 193.754700 -181.838135
v -112.506104 -41.889893 -136.884338
v -45.213440 -45.835205 -72.719032
v 17.855225 -23.788635 -137.505981
v -49.437500 -19.843323 -201.671387
v -76.929260 -170.222961 -163.916748
v -27.752625 -173.106201 -117.025444
v 18.337097 -156.994873 -164.370941
v -30.839478 -154.111694 -211.262177
v -203.308441 551.577087 125.839325
v -327.828888 320.864471 108.426842
v -334.700989 588.299438 353.507599
v -447.070892 358.637085 332.416138
v -26.796692 167.797729 -48.935738
v -123.963928 173.494629 -141.587158
v -9.081787 -53.239929 -106.908043
v -80.521240 -49.051453 -175.027405
v 0.442444 -191.504272 -144.686646
v -51.764587 -188.443481 -194.467407
v -66.739990 -262.360535 -180.267761
v -17.563354 -265.243591 -133.376495
v 15.842102 -291.805054 -167.003937
v -36.364990 -288.744141 -216.784760
v -16.240784 -253.157898 -232.662323
v 32.935791 -256.040955 -185.771088
v -58.510620 -328.265503 -192.950470
v -9.333984 -331.148682 -146.059174
v 24.071411 -357.710327 -179.686554
v -28.135559 -354.649048 -229.467316
v -8.011353 -319.062622 -245.345062
v 41.165222 -321.945801 -198.453888
v -61.310425 -374.858154 -175.303680
v -29.657776 -376.713867 -145.121887
v -8.156189 -393.810425 -166.766296
v -41.759460 -391.840210 -198.807983
v 2.225769 -386.910278 -263.292145
v 22.350037 -351.323853 -279.169769
v 71.526611 -354.207153 -232.278595
v 54.432800 -389.971313 -213.511383
v -64.679993 -406.409302 -163.366089
v -43.340637 -407.660278 -143.018341
v -28.845032 -419.186646 -157.610352
v -51.499390 -417.858276 -179.212128
v -60.857178 -440.634399 -161.463196
v -47.517822 -441.416382 -148.743561
v -38.456238 -448.621338 -157.865234
v -52.617859 -447.790894 -171.368591
v 30.448792 -398.827759 -276.078156
v 43.829712 -375.165894 -286.635498
v 76.527771 -377.082764 -255.456818
v 65.161926 -400.862915 -242.978241
vn 0.5607 -0.7082 0.4290
vn -0.4817 0.7812 -0.3971
vn -0.5607 0.7081 -0.4292
vn -0.3666 -0.1094 0.9239
vn 0.2854 0.9544 0.0878
vn -0.6006 -0.7384 -0.3066
vn -0.5152 0.8492 -0.1157
vn 0.7737 0.5927 0.2236
vn -0.7892 -0.3131 -0.5283
vn 0.6405 -0.7543 0.1439
vn -0.7950 -0.3990 -0.4569
vn 0.8372 0.4622 0.2922
vn -0.7843 -0.4358 -0.4416
vn 0.5664 -0.8236 -0.0287
vn 0.7376 0.5691 0.3634
vn 0.5706 -0.8201 -0.0426
vn -0.5096 0.8506 -0.1295
vn 0.8590 0.4310 0.2763
vn 0.7327 0.6264 0.2661
vn 0.5297 -0.8445 0.0785
vn -0.6984 -0.5685 -0.4347
vn 0.7514 0.5950 0.2853
vn -0.6687 -0.5944 -0.4468
vn -0.5840 -0.6674 -0.4621
vn 0.4473 0.8817 0.1500
vn -0.8215 -0.2734 -0.5004
vn 0.6659 0.6538 0.3593
vn -0.7648 0.4962 0.4109
vn -0.5365 0.8418 -0.0602
vn -0.7440 -0.5616 -0.3622
vn -0.5467 0.8367 -0.0316
vn 0.8020 0.4705 0.3680
vn -0.7411 -0.5652 -0.3624
vn -0.8050 -0.4663 -0.3668
vn 0.7420 0.5432 0.3929
vn 0.2914 -0.8019 0.5216
vn 0.7995 0.4744 0.3684
vn 0.7368 0.5716 0.3612
vn -0.8056 -0.4636 -0.3689
vn 0.5365 -0.8418 0.0602
vn -0.0653 0.6382 -0.7671
vn -0.5849 -0.6430 -0.4943
vn 0.9086 0.3594 0.2126
vn -0.0473 0.6217 -0.7818
vn 0.6526 0.7511 0.0997
vn -0.8018 -0.4929 -0.3379
vn -0.6258 0.5265 0.5755
vn 0.6258 -0.5265 -0.5755
vn -0.3435 0.8264 -0.4462
vn 0.8939 0.3794 0.2387
vn -0.6128 -0.6319 -0.4745
vn 0.2751 -0.7931 0.5434
vn 0.6107 -0.4508 -0.6510
vn 0.8893 0.3852 0.2464
vn -0.6212 -0.6284 -0.4682
vn 0.4652 -0.8549 0.2296
vn -0.1059 0.6736 -0.7315
vn -0.7854 -0.2140 -0.5809
vn 0.5827 -0.3515 -0.7327
vn -0.6330 0.6714 0.3854
vn 0.7727 -0.4179 0.4777
vn 0.0112 0.6227 -0.7824
vn -0.7563 0.4314 -0.4919
vn -0.2439 0.0303 0.9693
vn 0.0096 0.9889 -0.1485
vn -0.3899 -0.9194 -0.0525
vn 0.6819 0.1580 -0.7142
vn 0.9176 0.3641 -0.1594
vn -0.7724 -0.4162 -0.4798
vn 0.3055 -0.6218 0.7211
vn -0.6228 -0.0248 -0.7820
vn 0.6627 -0.1391 0.7359
vn -0.6541 -0.0171 -0.7562
vn -0.6544 -0.3039 0.6924
vn 0.7632 -0.0267 0.6456
vn -0.6624 -0.3257 0.6746
vn 0.6872 0.1460 -0.7117
vn 0.6488 -0.1638 0.7431
vn 0.8066 -0.1086 0.5810
vn -0.6822 -0.2002 0.7032
vn -0.7613 -0.0546 -0.6461
vn 0.8005 -0.0876 0.5930
vn -0.7806 -0.0800 -0.6199
vn -0.6796 -0.7333 0.0217
vn 0.5282 0.6526 -0.5432
vn -0.7542 -0.5824 -0.3033
vn 0.4951 0.8580 0.1367
vn -0.8362 0.3721 0.4029
vn 0.6800 0.2195 -0.6996
vn -0.7573 0.0310 -0.6523
vn 0.6759 0.2495 -0.6935
vn 0.6837 -0.0553 0.7277
vn -0.7602 0.0293 -0.6490
vn -0.6802 0.0579 -0.7307
vn 0.7425 -0.0034 0.6698
vn -0.6482 0.3035 0.6984
vn 0.6869 -0.0537 0.7248
vn 0.7652 -0.0282 0.6432
vn -0.6780 0.0564 -0.7329
vn -0.6800 -0.2195 0.6996
vn 0.5162 -0.6301 -0.5801
vn -0.8132 -0.1628 -0.5588
vn 0.5843 -0.2447 0.7738
vn 0.5029 -0.6520 -0.5675
vn 0.8899 -0.2138 0.4030
vn -0.7020 0.0813 -0.7076
vn 0.4248 0.8144 -0.3954
vn -0.4248 -0.8144 0.3954
vn 0.6679 -0.2119 -0.7135
vn 0.6030 -0.2144 0.7684
vn -0.8068 -0.1317 -0.5759
vn -0.6411 0.3305 0.6926
vn -0.3636 -0.8721 0.3276
vn 0.6084 -0.2053 0.7666
vn -0.8047 -0.1222 -0.5810
vn -0.6908 -0.0370 0.7221
vn 0.5447 -0.5788 -0.6069
vn -0.4556 -0.1349 -0.8799
vn -0.2833 -0.9285 0.2400
vn 0.5420 0.6537 -0.5282
usemtl Matériau.012
s off
f 83//20 84//20 86//20 85//20
f 90//21 89//21 93//21 94//21
f 89//22 90//22 88//22 87//22
f 105//23 106//23 84//23 83//23
f 103//24 89//24 87//24 105//24
f 104//25 86//25 84//25 106//25
f 94//26 93//26 97//26 98//26
f 103//27 85//27 92//27 107//27
f 104//28 90//28 94//28 108//28
f 85//29 86//29 91//29 92//29
f 110//30 98//30 102//30 112//30
f 107//31 92//31 96//31 109//31
f 108//32 94//32 98//32 110//32
f 92//33 91//33 95//33 96//33
f 101//34 111//34 115//34 118//34
f 96//35 95//35 99//35 100//35
f 98//36 97//36 101//36 102//36
f 109//37 96//37 100//37 111//37
f 97//38 109//38 111//38 101//38
f 100//39 99//39 113//39 114//39
f 91//40 108//40 110//40 95//40
f 93//41 107//41 109//41 97//41
f 95//42 110//42 112//42 99//42
f 86//43 104//43 108//43 91//43
f 89//44 103//44 107//44 93//44
f 90//45 104//45 106//45 88//45
f 85//46 103//46 105//46 83//46
f 87//47 88//47 106//47 105//47
f 117//48 118//48 124//48 123//48
f 113//49 116//49 122//49 119//49
f 102//50 101//50 118//50 117//50
f 111//51 100//51 114//51 115//51
f 99//52 112//52 116//52 113//52
f 112//53 102//53 117//53 116//53
f 124//54 121//54 132//54 131//54
f 120//55 119//55 125//55 126//55
f 115//56 114//56 120//56 121//56
f 118//57 115//57 121//57 124//57
f 116//58 117//58 123//58 122//58
f 114//59 113//59 119//59 120//59
f 128//60 127//60 135//60 136//60
f 119//61 122//61 128//61 125//61
f 121//62 120//62 126//62 127//62
f 122//63 121//63 127//63 128//63
f 131//64 132//64 144//64 143//64
f 122//65 123//65 130//65 129//65
f 123//66 124//66 131//66 130//66
f 121//67 122//67 129//67 132//67
f 136//68 135//68 139//68 140//68
f 127//69 126//69 134//69 135//69
f 125//70 128//70 136//70 133//70
f 126//71 125//71 133//71 134//71
f 138//72 137//72 140//72 139//72
f 135//73 134//73 138//73 139//73
f 133//74 136//74 140//74 137//74
f 134//75 133//75 137//75 138//75
f 144//76 141//76 142//76 143//76
f 129//77 130//77 142//77 141//77
f 132//78 129//78 141//78 144//78
f 130//79 131//79 143//79 142//79
f 145//80 146//80 148//80 147//80
f 152//81 151//81 155//81 156//81
f 151//82 152//82 150//82 149//82
f 167//83 168//83 146//83 145//83
f 165//84 151//84 149//84 167//84
f 166//85 148//85 146//85 168//85
f 156//86 155//86 159//86 160//86
f 165//87 147//87 154//87 169//87
f 166//88 152//88 156//88 170//88
f 147//89 148//89 153//89 154//89
f 172//90 160//90 164//90 174//90
f 169//91 154//91 158//91 171//91
f 170//92 156//92 160//92 172//92
f 154//93 153//93 157//93 158//93
f 163//94 173//94 177//94 180//94
f 158//95 157//95 161//95 162//95
f 160//96 159//96 163//96 164//96
f 171//97 158//97 162//97 173//97
f 159//98 171//98 173//98 163//98
f 162//99 161//99 175//99 176//99
f 153//100 170//100 172//100 157//100
f 155//101 169//101 171//101 159//101
f 157//102 172//102 174//102 161//102
f 148//103 166//103 170//103 153//103
f 151//104 165//104 169//104 155//104
f 152//105 166//105 168//105 150//105
f 147//106 165//106 167//106 145//106
f 149//107 150//107 168//107 167//107
f 179//108 180//108 186//108 185//108
f 175//109 178//109 184//109 181//109
f 164//110 163//110 180//110 179//110
f 173//111 162//111 176//111 177//111
f 161//112 174//112 178//112 175//112
f 174//113 164//113 179//113 178//113
f 186//114 183//114 194//114 193//114
f 182//115 181//115 187//115 188//115
f 177//116 176//116 182//116 183//116
f 180//117 177//117 183//117 186//117
f 178//118 179//118 185//118 184//118
f 176//119 175//119 181//119 182//119
f 190//120 189//120 197//120 198//120
f 181//121 184//121 190//121 187//121
f 183//122 182//122 188//122 189//122
f 184//123 183//123 189//123 190//123
f 193//124 194//124 206//124 205//124
f 184//125 185//125 192//125 191//125
f 185//126 186//126 193//126 192//126
f 183//127 184//127 191//127 194//127
f 198//128 197//128 201//128 202//128
f 189//129 188//129 196//129 197//129
f 187//130 190//130 198//130 195//130
f 188//131 187//131 195//131 196//131
f 200//132 199//132 202//132 201//132
f 197//133 196//133 200//133 201//133
f 195//134 198//134 202//134 199//134
f 196//135 195//135 199//135 200//135
f 206//136 203//136 204//136 205//136
f 191//137 192//137 204//137 203//137
f 194//138 191//138 203//138 206//138
f 192//139 193//139 205//139 204//139
