# Blender v2.91.2 OBJ File: 'camionnete02.blend'
# www.blender.org
mtllib arme_000147.mtl
o Cube.046_Cube.010
v 153.564026 354.798157 -1236.408203
v 155.705551 136.197540 -1208.331177
v 212.514679 328.311066 -1447.126953
v 214.656158 109.710449 -1419.049927
v -58.802017 345.241180 -1294.618408
v -56.660530 126.640610 -1266.541504
v 0.148628 318.754181 -1505.336914
v 2.290100 100.153534 -1477.260254
v 72.400673 391.265594 -946.290283
v 74.542175 172.665009 -918.213440
v -137.823853 163.108063 -976.423523
v -139.965347 381.708679 -1004.500488
v 35.668968 407.769562 -814.992798
v 37.810440 189.168915 -786.915955
v -174.555603 179.612000 -845.126160
v -176.697113 398.212555 -873.203125
v 13.969479 417.519318 -737.428223
v 19.315479 256.884857 -729.920471
v -193.050613 247.327972 -788.130676
v -198.396591 407.962372 -795.638428
v 85.063675 385.575958 -991.554016
v 87.205147 166.975433 -963.477173
v -127.302399 376.019073 -1049.764282
v -125.160919 157.418488 -1021.687256
v 191.703247 337.661835 -1372.736694
v 193.844742 119.061234 -1344.659912
v -20.662781 328.104889 -1430.946777
v -18.521248 109.504318 -1402.869873
v 106.331657 323.532623 -1476.231934
v 108.473129 104.931976 -1448.155151
v 47.380997 350.019684 -1265.513306
v 49.522530 131.419067 -1237.436401
v -33.782326 386.487152 -975.395325
v -31.640839 167.886536 -947.318359
v -70.514069 402.991119 -844.097961
v -62.738602 195.806976 -804.369568
v -92.213531 412.740814 -766.533325
v -75.209808 241.468048 -765.937378
v -18.977875 162.196930 -992.582153
v -21.119362 380.797516 -1020.659119
v 87.661713 114.282730 -1373.764893
v 85.520248 332.883392 -1401.841675
v 159.423203 325.921844 -1461.679443
v 102.614044 133.808319 -1222.883789
v 21.450645 170.275787 -932.765930
v -26.938866 197.418060 -794.556824
v -39.410057 243.079102 -756.124573
v 31.972164 383.186737 -1006.106506
v 138.611725 335.272614 -1387.289307
v 161.564667 107.321228 -1433.602539
v 100.472481 352.408905 -1250.960938
v 19.309158 388.876373 -960.842896
v -17.422569 405.380341 -829.545349
v -39.122025 415.130035 -751.980713
v 34.113636 164.586151 -978.029663
v 140.753204 116.671982 -1359.212402
v 34.514622 123.656189 -972.772583
v -18.576904 121.266968 -987.325134
v 141.154144 75.741974 -1353.955444
v 88.062683 73.352783 -1368.507812
v 49.923470 90.489090 -1232.179321
v 103.015015 92.878311 -1217.626831
v 271.187012 285.501129 -1302.344482
v 254.322220 293.078613 -1242.061401
v 255.269287 196.415680 -1229.645874
v 272.133942 188.838196 -1289.929199
v 317.078186 287.566376 -1289.765625
v 300.213379 295.143829 -1229.482666
v 301.160400 198.480927 -1217.067139
v 318.025146 190.903412 -1277.350342
v 387.306274 290.726776 -1270.515991
v 370.441467 298.304291 -1210.232910
v 371.388489 201.641327 -1197.817627
v 388.253174 194.063873 -1258.100708
v 432.497192 292.760468 -1258.129028
v 415.632385 300.337982 -1197.846069
v 416.579468 203.675049 -1185.430664
v 433.444153 196.097565 -1245.713745
v 355.228943 20.306488 -2125.853271
v 302.137451 17.917206 -2140.405762
v 299.995850 236.517853 -2168.482910
v 353.087463 238.907074 -2153.930176
vn 0.9635 0.0434 0.2641
vn 0.2675 -0.1202 -0.9560
vn -0.9635 -0.0434 -0.2641
vn -0.0097 0.9918 -0.1274
vn 0.0097 -0.9918 0.1274
vn -0.1705 -0.6614 0.7304
vn -0.0748 -0.9878 0.1364
vn -0.3430 0.0043 0.9393
vn -0.9639 -0.0437 -0.2628
vn 0.9639 0.0437 0.2628
vn 0.6250 -0.0934 -0.7750
vn -0.2232 0.0088 0.9747
vn 0.0404 -0.9847 0.1695
vn -0.2633 -0.0228 0.9644
vn -0.0079 -0.9817 0.1900
vn -0.2675 0.1202 0.9560
vn 0.1333 0.1275 0.9828
vn 0.5398 -0.8032 0.2520
vn 0.5235 0.8511 0.0395
usemtl Matériau.011
s off
f 25//1 26//1 4//1 3//1
f 29//2 30//2 8//2 7//2
f 27//3 28//3 6//3 5//3
f 22//1 21//1 9//1 10//1
f 42//4 27//4 5//4 31//4
f 56//5 26//5 2//5 44//5
f 10//1 9//1 13//1 14//1
f 55//5 22//5 10//5 45//5
f 23//3 24//3 11//3 12//3
f 46//6 14//6 18//6 47//6
f 45//7 10//7 14//7 46//7
f 12//3 11//3 15//3 16//3
f 33//4 12//4 16//4 35//4
f 54//8 47//8 18//8 17//8
f 16//9 15//9 19//9 20//9
f 14//10 13//10 17//10 18//10
f 5//3 6//3 24//3 23//3
f 44//5 2//5 22//5 55//5
f 31//4 5//4 23//4 40//4
f 2//1 1//1 21//1 22//1
f 50//5 4//5 26//5 56//5
f 29//4 7//4 27//4 42//4
f 7//3 8//3 28//3 27//3
f 26//11 25//11 63//11 66//11
f 43//4 29//4 42//4 49//4
f 8//5 30//5 41//5 28//5
f 51//4 31//4 40//4 48//4
f 6//5 32//5 39//5 24//5
f 20//12 19//12 38//12 37//12
f 52//4 33//4 35//4 53//4
f 11//13 34//13 36//13 15//13
f 15//6 36//6 38//6 19//6
f 24//5 39//5 34//5 11//5
f 28//5 41//5 32//5 6//5
f 49//4 42//4 31//4 51//4
f 30//3 29//3 81//3 80//3
f 3//2 4//2 50//2 43//2
f 25//4 49//4 51//4 1//4
f 9//4 52//4 53//4 13//4
f 1//4 51//4 48//4 21//4
f 3//4 43//4 49//4 25//4
f 30//5 50//5 56//5 41//5
f 32//3 41//3 60//3 61//3
f 37//14 38//14 47//14 54//14
f 34//15 45//15 46//15 36//15
f 36//6 46//6 47//6 38//6
f 39//5 55//5 45//5 34//5
f 55//16 39//16 58//16 57//16
f 61//5 62//5 57//5 58//5
f 60//5 59//5 62//5 61//5
f 39//3 32//3 61//3 58//3
f 44//1 55//1 57//1 62//1
f 41//2 56//2 59//2 60//2
f 56//1 44//1 62//1 59//1
f 66//2 63//2 67//2 70//2
f 1//17 2//17 65//17 64//17
f 2//18 26//18 66//18 65//18
f 25//19 1//19 64//19 63//19
f 69//5 70//5 74//5 73//5
f 64//16 65//16 69//16 68//16
f 65//5 66//5 70//5 69//5
f 63//4 64//4 68//4 67//4
f 73//5 74//5 78//5 77//5
f 67//4 68//4 72//4 71//4
f 70//2 67//2 71//2 74//2
f 68//16 69//16 73//16 72//16
f 76//1 77//1 78//1 75//1
f 71//4 72//4 76//4 75//4
f 74//2 71//2 75//2 78//2
f 82//2 79//2 80//2 81//2
f 50//5 30//5 80//5 79//5
f 43//1 50//1 79//1 82//1
f 29//4 43//4 82//4 81//4
o Cube.048_Cube.024
v -522.470215 537.074036 136.012695
v -685.306885 362.950378 96.481552
v -397.394012 464.020508 -57.421242
v -559.178223 287.563965 -97.684792
v -659.097107 627.656372 -60.094978
v -742.588074 538.378296 -80.363731
v -594.967102 590.199829 -159.274017
v -678.020630 500.635193 -178.833466
v -392.158447 288.902130 -481.738678
v -291.220428 359.101349 -451.635162
v -355.766113 464.169220 -480.222382
v -456.704041 393.970032 -510.325958
v -317.891907 299.444336 -684.876282
v -243.680054 351.056427 -662.743408
v -291.135376 428.304626 -683.761536
v -365.347351 376.692627 -705.894287
v -270.819763 308.864655 -812.003479
v -216.586670 346.582031 -795.829163
v -251.266479 403.034058 -811.188904
v -305.499573 365.316711 -827.363220
v -465.494965 550.212402 -111.104774
v -637.185730 363.984070 -152.050598
v -598.379272 627.894287 94.176254
v -771.250549 443.040649 52.209061
v -318.577454 413.468994 -470.288544
v -425.735504 338.943939 -502.247040
v -259.035706 390.161316 -690.388123
v -337.820679 335.368805 -713.884766
v -223.491394 374.372375 -828.671448
v -281.066376 334.330719 -845.842590
v -238.665527 300.394104 -900.065186
v -184.432373 338.111511 -883.890808
v -191.102875 370.097595 -927.302856
v -248.677887 330.055969 -944.473877
v -273.147034 360.397034 -924.369812
v -218.914001 398.114349 -908.195557
v -216.236938 295.415833 -963.659363
v -162.004028 333.133301 -947.485168
v -168.674377 365.119324 -990.897034
v -226.249420 325.077698 -1008.068176
v -250.718536 355.418640 -987.964050
v -196.485413 393.136047 -971.789856
v -180.382629 278.771973 -994.115295
v -145.475220 303.048950 -983.704651
v -149.768616 323.636993 -1011.647034
v -186.827209 297.863983 -1022.699158
v -231.254211 352.879089 -1056.117554
v -255.723419 383.220001 -1036.013306
v -201.490326 420.937469 -1019.839172
v -173.679138 392.920685 -1038.946411
v -156.517517 266.095154 -1014.587219
v -132.983948 282.462036 -1007.568420
v -135.878418 296.341919 -1026.406372
v -160.862244 278.966461 -1033.857666
v -137.860962 261.519775 -1043.232910
v -123.149841 271.750916 -1038.845459
v -124.959106 280.427368 -1050.621338
v -140.576843 269.565765 -1055.279175
v -228.684082 379.455383 -1075.843994
v -244.953918 399.629517 -1062.476440
v -208.893738 424.708252 -1051.721924
v -190.401703 406.079590 -1064.426636
v -262.605347 532.663025 427.951630
v -324.310455 310.301483 356.220245
v -145.566101 568.993286 219.236023
v -205.677216 344.399475 148.467896
v -450.021912 575.057495 259.404755
v -481.659851 461.046509 222.626068
v -381.913666 596.960266 150.359009
v -420.833313 478.529510 116.105606
v -117.351440 305.628967 -109.147026
v -29.120239 306.828522 -20.269493
v 46.126953 374.055298 -93.536430
v -39.177185 372.848328 -182.583801
v -16.276245 131.811218 -189.538055
v 48.444763 129.561829 -122.700951
v 105.920227 178.983032 -176.693298
v 41.199219 181.232422 -243.530457
v 49.666260 24.044800 -239.576782
v 96.963501 22.401001 -190.732971
v 138.965759 58.517334 -230.189850
v 91.668579 60.161255 -279.033600
v -240.981201 619.555603 185.247375
v -317.237152 379.088043 111.818565
v -377.673401 578.952942 408.525055
v -443.180969 342.888763 332.373352
v 14.533142 331.344391 -54.307503
v -78.920593 334.592438 -150.816803
v 86.105347 138.227844 -154.884796
v 17.395996 140.616028 -225.840607
v 129.400635 17.401062 -219.393555
v 79.188782 19.146362 -271.247070
v 82.035828 -57.506531 -273.665985
v 129.333008 -59.150330 -224.822235
v 168.926697 -69.408875 -260.589844
v 118.714905 -67.663696 -312.443451
v 130.094727 -25.840637 -319.137543
v 177.391907 -27.484497 -270.293823
v 106.126404 -115.409790 -298.942566
v 153.423645 -117.053589 -250.098816
v 193.017395 -127.312195 -285.866364
v 142.805542 -125.566956 -337.719971
v 154.185242 -83.743713 -344.414093
v 201.482483 -85.387634 -295.570343
v 114.156860 -164.092468 -291.484528
v 144.600037 -165.150574 -260.046051
v 170.084778 -171.753601 -283.068085
v 137.765686 -170.630188 -316.444000
v 180.816162 -141.888550 -375.076477
v 192.195923 -100.065369 -381.770538
v 239.493164 -101.709412 -332.926819
v 231.028076 -143.633667 -323.222870
v 118.165039 -197.393799 -286.556396
v 138.688965 -198.107117 -265.361450
v 155.870178 -202.559021 -280.882355
v 134.081543 -201.801575 -303.383362
v 130.035034 -229.408325 -291.431915
v 142.864685 -229.854126 -278.182587
v 153.604858 -232.636658 -287.884918
v 139.984497 -232.163391 -301.950470
v 211.370789 -143.959045 -387.889496
v 218.937256 -116.150269 -392.340363
v 250.385803 -117.243225 -359.863495
v 244.757202 -145.119263 -353.411316
vn 0.5278 -0.6207 0.5798
vn -0.4492 0.6927 -0.5642
vn -0.5278 0.6207 -0.5798
vn -0.3591 0.1259 0.9248
vn 0.3374 0.9318 -0.1340
vn -0.6436 -0.7547 -0.1277
vn -0.4833 0.8230 -0.2985
vn 0.8045 0.5883 0.0815
vn -0.8113 -0.3841 -0.4408
vn 0.6053 -0.7332 0.3100
vn -0.8162 -0.4572 -0.3531
vn 0.8586 0.4806 0.1783
vn -0.8068 -0.4901 -0.3301
vn 0.5334 -0.8321 0.1518
vn 0.7642 0.6046 0.2245
vn 0.5376 -0.8319 0.1374
vn -0.4779 0.8210 -0.3123
vn 0.8789 0.4458 0.1696
vn 0.7602 0.6391 0.1170
vn 0.4974 -0.8272 0.2612
vn -0.7261 -0.6214 -0.2943
vn 0.7779 0.6120 0.1425
vn -0.6975 -0.6505 -0.3006
vn -0.6218 -0.7246 -0.2971
vn 0.4922 0.8686 -0.0562
vn -0.8419 -0.3349 -0.4232
vn 0.7050 0.6808 0.1987
vn -0.7313 0.6188 0.2869
vn -0.5041 0.8289 -0.2427
vn -0.7702 -0.5968 -0.2249
vn -0.5141 0.8307 -0.2136
vn 0.8248 0.5069 0.2505
vn -0.7675 -0.6005 -0.2243
vn -0.8276 -0.5025 -0.2503
vn 0.7680 0.5858 0.2589
vn 0.2672 -0.6779 0.6849
vn 0.8225 0.5109 0.2501
vn 0.7634 0.6066 0.2218
vn -0.8281 -0.5003 -0.2529
vn 0.5041 -0.8289 0.2427
vn -0.0511 0.4548 -0.8891
vn -0.6164 -0.7119 -0.3365
vn 0.9248 0.3599 0.1231
vn -0.0339 0.4347 -0.8999
vn 0.6827 0.7271 -0.0725
vn -0.8250 -0.5221 -0.2162
vn -0.5967 0.6661 0.4475
vn 0.5967 -0.6661 -0.4475
vn -0.3172 0.7205 -0.6166
vn 0.9113 0.3858 0.1442
vn -0.6435 -0.6956 -0.3195
vn 0.2516 -0.6638 0.7043
vn 0.5835 -0.6084 -0.5379
vn 0.9070 0.3934 0.1505
vn -0.6517 -0.6904 -0.3142
vn 0.4347 -0.8013 0.4111
vn -0.0898 0.4988 -0.8621
vn -0.8011 -0.3048 -0.5150
vn 0.5583 -0.5286 -0.6394
vn -0.6010 0.7654 0.2301
vn 0.8368 -0.3597 0.4127
vn -0.1119 0.7672 -0.6316
vn -0.8230 0.3791 -0.4230
vn -0.2523 -0.2330 0.9392
vn -0.1834 0.9804 0.0714
vn -0.2036 -0.9409 -0.2707
vn 0.6409 0.4610 -0.6137
vn 0.8259 0.5637 -0.0063
vn -0.6611 -0.4294 -0.6153
vn 0.4170 -0.6912 0.5902
vn -0.5798 0.0034 -0.8148
vn 0.6589 -0.1398 0.7391
vn -0.6126 -0.0020 -0.7904
vn -0.5788 -0.5885 0.5645
vn 0.7317 0.0094 0.6816
vn -0.5809 -0.6072 0.5421
vn 0.6489 0.4503 -0.6132
vn 0.6512 -0.1680 0.7401
vn 0.7950 -0.0444 0.6050
vn -0.6310 -0.4988 0.5942
vn -0.7104 -0.0861 -0.6986
vn 0.7835 -0.0287 0.6207
vn -0.7236 -0.1202 -0.6797
vn -0.5189 -0.8329 -0.1925
vn 0.3919 0.8521 -0.3468
vn -0.6246 -0.6309 -0.4602
vn 0.3189 0.8830 0.3445
vn -0.8954 0.1093 0.4316
vn 0.6240 0.5158 -0.5869
vn -0.7268 -0.0026 -0.6868
vn 0.6128 0.5420 -0.5751
vn 0.6594 -0.0538 0.7499
vn -0.7293 -0.0055 -0.6842
vn -0.6566 0.0576 -0.7521
vn 0.7055 0.0215 0.7084
vn -0.7185 -0.0120 0.6954
vn 0.6622 -0.0509 0.7476
vn 0.7340 0.0090 0.6791
vn -0.6540 0.0572 -0.7543
vn -0.6240 -0.5158 0.5869
vn 0.6659 -0.3539 -0.6567
vn -0.7368 -0.2195 -0.6395
vn 0.6073 -0.2662 0.7486
vn 0.6579 -0.3804 -0.6499
vn 0.9053 -0.0865 0.4160
vn -0.6838 0.0698 -0.7263
vn 0.2265 0.9559 -0.1872
vn -0.2265 -0.9559 0.1872
vn 0.7161 0.1067 -0.6898
vn 0.6183 -0.2320 0.7509
vn -0.7377 -0.1849 -0.6493
vn -0.7180 0.0166 0.6958
vn -0.1516 -0.9819 0.1138
vn 0.6214 -0.2218 0.7515
vn -0.7378 -0.1742 -0.6522
vn -0.6788 -0.3500 0.6455
vn 0.6820 -0.2928 -0.6702
vn -0.3888 -0.0415 -0.9204
vn -0.0581 -0.9981 0.0227
vn 0.3819 0.8590 -0.3409
usemtl Matériau.012
s off
f 83//20 84//20 86//20 85//20
f 90//21 89//21 93//21 94//21
f 89//22 90//22 88//22 87//22
f 105//23 106//23 84//23 83//23
f 103//24 89//24 87//24 105//24
f 104//25 86//25 84//25 106//25
f 94//26 93//26 97//26 98//26
f 103//27 85//27 92//27 107//27
f 104//28 90//28 94//28 108//28
f 85//29 86//29 91//29 92//29
f 110//30 98//30 102//30 112//30
f 107//31 92//31 96//31 109//31
f 108//32 94//32 98//32 110//32
f 92//33 91//33 95//33 96//33
f 101//34 111//34 115//34 118//34
f 96//35 95//35 99//35 100//35
f 98//36 97//36 101//36 102//36
f 109//37 96//37 100//37 111//37
f 97//38 109//38 111//38 101//38
f 100//39 99//39 113//39 114//39
f 91//40 108//40 110//40 95//40
f 93//41 107//41 109//41 97//41
f 95//42 110//42 112//42 99//42
f 86//43 104//43 108//43 91//43
f 89//44 103//44 107//44 93//44
f 90//45 104//45 106//45 88//45
f 85//46 103//46 105//46 83//46
f 87//47 88//47 106//47 105//47
f 117//48 118//48 124//48 123//48
f 113//49 116//49 122//49 119//49
f 102//50 101//50 118//50 117//50
f 111//51 100//51 114//51 115//51
f 99//52 112//52 116//52 113//52
f 112//53 102//53 117//53 116//53
f 124//54 121//54 132//54 131//54
f 120//55 119//55 125//55 126//55
f 115//56 114//56 120//56 121//56
f 118//57 115//57 121//57 124//57
f 116//58 117//58 123//58 122//58
f 114//59 113//59 119//59 120//59
f 128//60 127//60 135//60 136//60
f 119//61 122//61 128//61 125//61
f 121//62 120//62 126//62 127//62
f 122//63 121//63 127//63 128//63
f 131//64 132//64 144//64 143//64
f 122//65 123//65 130//65 129//65
f 123//66 124//66 131//66 130//66
f 121//67 122//67 129//67 132//67
f 136//68 135//68 139//68 140//68
f 127//69 126//69 134//69 135//69
f 125//70 128//70 136//70 133//70
f 126//71 125//71 133//71 134//71
f 138//72 137//72 140//72 139//72
f 135//73 134//73 138//73 139//73
f 133//74 136//74 140//74 137//74
f 134//75 133//75 137//75 138//75
f 144//76 141//76 142//76 143//76
f 129//77 130//77 142//77 141//77
f 132//78 129//78 141//78 144//78
f 130//79 131//79 143//79 142//79
f 145//80 146//80 148//80 147//80
f 152//81 151//81 155//81 156//81
f 151//82 152//82 150//82 149//82
f 167//83 168//83 146//83 145//83
f 165//84 151//84 149//84 167//84
f 166//85 148//85 146//85 168//85
f 156//86 155//86 159//86 160//86
f 165//87 147//87 154//87 169//87
f 166//88 152//88 156//88 170//88
f 147//89 148//89 153//89 154//89
f 172//90 160//90 164//90 174//90
f 169//91 154//91 158//91 171//91
f 170//92 156//92 160//92 172//92
f 154//93 153//93 157//93 158//93
f 163//94 173//94 177//94 180//94
f 158//95 157//95 161//95 162//95
f 160//96 159//96 163//96 164//96
f 171//97 158//97 162//97 173//97
f 159//98 171//98 173//98 163//98
f 162//99 161//99 175//99 176//99
f 153//100 170//100 172//100 157//100
f 155//101 169//101 171//101 159//101
f 157//102 172//102 174//102 161//102
f 148//103 166//103 170//103 153//103
f 151//104 165//104 169//104 155//104
f 152//105 166//105 168//105 150//105
f 147//106 165//106 167//106 145//106
f 149//107 150//107 168//107 167//107
f 179//108 180//108 186//108 185//108
f 175//109 178//109 184//109 181//109
f 164//110 163//110 180//110 179//110
f 173//111 162//111 176//111 177//111
f 161//112 174//112 178//112 175//112
f 174//113 164//113 179//113 178//113
f 186//114 183//114 194//114 193//114
f 182//115 181//115 187//115 188//115
f 177//116 176//116 182//116 183//116
f 180//117 177//117 183//117 186//117
f 178//118 179//118 185//118 184//118
f 176//119 175//119 181//119 182//119
f 190//120 189//120 197//120 198//120
f 181//121 184//121 190//121 187//121
f 183//122 182//122 188//122 189//122
f 184//123 183//123 189//123 190//123
f 193//124 194//124 206//124 205//124
f 184//125 185//125 192//125 191//125
f 185//126 186//126 193//126 192//126
f 183//127 184//127 191//127 194//127
f 198//128 197//128 201//128 202//128
f 189//129 188//129 196//129 197//129
f 187//130 190//130 198//130 195//130
f 188//131 187//131 195//131 196//131
f 200//132 199//132 202//132 201//132
f 197//133 196//133 200//133 201//133
f 195//134 198//134 202//134 199//134
f 196//135 195//135 199//135 200//135
f 206//136 203//136 204//136 205//136
f 191//137 192//137 204//137 203//137
f 194//138 191//138 203//138 206//138
f 192//139 193//139 205//139 204//139
