# Blender v2.91.2 OBJ File: 'camionnete02.blend'
# www.blender.org
mtllib arme_000083.mtl
o Cube.046_Cube.010
v 218.928467 364.049805 -1150.912598
v 208.053162 144.054535 -1158.844482
v 303.660583 367.196198 -1354.357178
v 292.785248 147.200928 -1362.289062
v 15.750523 377.137451 -1235.331543
v 4.875136 157.142181 -1243.263184
v 100.482635 380.283844 -1438.775879
v 89.607285 160.288574 -1446.707764
v 102.269119 359.717834 -870.809937
v 91.393784 139.722595 -878.741699
v -111.784164 152.810242 -963.160278
v -100.908813 372.805511 -955.228516
v 49.473167 357.757355 -744.044922
v 38.597782 137.762085 -751.976807
v -164.580231 150.849731 -836.395386
v -153.704865 370.845032 -828.463623
v 18.283625 356.599182 -669.157898
v 15.739677 196.755554 -687.375854
v -187.438370 209.843231 -771.794556
v -184.894424 369.686890 -753.576538
v 60.314877 577.072510 -736.137634
v -142.863129 590.160156 -820.556396
v 29.125362 575.914307 -661.250610
v -174.052628 589.002014 -745.669250
v 120.470169 360.393707 -914.511047
v 109.594818 140.398468 -922.442871
v -82.707840 373.481384 -998.929749
v -93.583206 153.486115 -1006.861511
v 105.859177 432.339935 -868.191528
v -97.318802 445.427643 -952.610291
v 124.060196 433.015808 -911.892639
v -79.117798 446.103455 -996.311340
v 111.067749 537.702759 -864.392761
v -92.110199 550.790344 -948.811340
v 129.268723 538.378540 -908.093933
v -73.909210 551.466187 -992.512573
v 54.256458 430.423737 -744.291626
v -148.921570 443.511414 -828.710388
v 59.465015 535.786560 -740.492859
v -143.712982 548.874207 -824.911560
v 86.756531 714.334290 -778.497009
v -116.421463 727.421875 -862.915710
v 55.567001 713.176086 -703.609985
v -147.610947 726.263733 -788.028687
v 273.747559 366.085419 -1282.535156
v 262.872192 146.090149 -1290.466797
v 70.569550 379.173096 -1366.953613
v 59.694241 159.177795 -1374.885254
v 202.071594 373.740051 -1396.566406
v 191.196274 153.744751 -1404.498291
v 117.339523 370.593658 -1193.122070
v 106.464172 150.598358 -1201.053711
v 0.680164 366.261658 -913.019165
v -10.195190 146.266418 -920.950928
v -52.115849 364.301208 -786.254272
v -58.441822 153.380096 -780.229065
v -83.305374 363.143036 -711.367249
v -73.855103 193.159546 -736.668579
v -41.274128 583.616333 -778.346985
v -72.463638 582.458191 -703.459961
v 8.005796 146.942291 -964.652161
v 18.881151 366.937531 -956.720398
v 4.270184 438.883789 -910.400879
v 22.471199 439.559601 -954.101990
v 9.478781 544.246582 -906.602051
v 27.679758 544.922424 -950.303284
v -47.332554 436.967590 -786.501038
v -42.123974 542.330383 -782.702209
v -14.832470 720.878174 -820.706360
v -46.021996 719.719849 -745.819336
v 161.283173 152.633972 -1332.676270
v 172.158569 372.629272 -1324.744385
v 252.866150 370.468140 -1375.461670
v 157.258621 147.326447 -1179.949219
v 40.599281 142.994507 -899.846375
v -24.190975 151.173828 -765.998169
v -39.604244 190.953278 -722.437622
v 69.675674 363.665619 -935.615723
v 73.265671 436.287659 -932.997375
v 78.474243 541.650513 -929.198547
v 222.953033 369.357361 -1303.639648
v 241.990784 150.472839 -1383.393799
v 168.133987 367.321747 -1172.017334
v 51.474651 362.989746 -891.914612
v -1.321356 361.029266 -765.149536
v -32.510876 359.871094 -690.262512
v 9.520386 580.344421 -757.242371
v -21.669128 579.186279 -682.355347
v 58.800304 143.670380 -943.547546
v 55.064686 435.611847 -889.296265
v 60.273258 540.974670 -885.497375
v 3.461943 433.695679 -765.396423
v 8.670525 539.058472 -761.597534
v 35.962059 717.606201 -799.601562
v 4.772514 716.447937 -724.714600
v 212.077652 149.362061 -1311.571533
v 56.764042 102.479256 -945.032654
v 5.969550 105.751167 -966.137329
v 210.041367 108.170967 -1313.056885
v 159.246933 111.442848 -1334.161377
v 104.427887 109.407234 -1202.539062
v 155.222397 106.135353 -1181.434326
v 341.075470 298.642700 -1212.449951
v 316.835022 297.742584 -1154.248047
v 312.026215 200.462921 -1157.755371
v 336.266510 201.363068 -1215.957520
v 384.981201 295.814545 -1194.207764
v 360.740753 294.914398 -1136.005615
v 355.931885 197.634766 -1139.512939
v 380.172241 198.534912 -1197.715088
v 452.170898 291.486572 -1166.291016
v 427.930481 290.586426 -1108.088989
v 423.121521 193.306793 -1111.596436
v 447.361877 194.206940 -1169.798584
v 495.406677 288.701569 -1148.327148
v 471.166199 287.801422 -1090.125000
v 466.357391 190.521790 -1093.632324
v 490.597717 191.421906 -1151.834473
v 520.352295 160.809601 -2051.747314
v 469.557800 164.081512 -2072.852051
v 480.432953 384.076813 -2064.920166
v 531.227539 380.804871 -2043.815430
v 13.092285 785.904297 -835.378540
v -80.516495 791.934021 -874.272217
v -15.647152 784.837036 -766.374146
v -109.255890 790.866821 -805.267761
v 77.961594 778.807312 -727.480591
v 106.701126 779.874634 -796.484802
v 59.896744 782.889587 -815.931580
v 31.157219 781.822144 -746.927368
vn 0.9218 -0.0594 0.3830
vn 0.3844 0.0143 -0.9230
vn -0.9218 0.0594 -0.3830
vn 0.0493 0.9981 0.0360
vn -0.0493 -0.9981 -0.0360
vn -0.3844 -0.0143 0.9230
vn -0.2923 -0.7554 0.5864
vn -0.1341 -0.9903 -0.0369
vn -0.4620 -0.1211 0.8786
vn -0.9224 0.0589 -0.3818
vn 0.9224 -0.0589 0.3818
vn 0.3427 -0.3367 -0.8770
vn 0.3413 -0.3439 -0.8748
vn -0.3427 0.3367 0.8770
vn 0.7162 -0.0102 -0.6979
vn -0.8445 0.4092 -0.3454
vn -0.3477 -0.1298 0.9286
vn -0.0241 -0.9997 0.0101
vn -0.3252 0.4192 0.8476
vn -0.3875 -0.1568 0.9084
vn -0.0745 -0.9969 0.0248
vn 0.0093 -0.0365 0.9993
vn 0.4675 -0.8652 0.1813
vn 0.5498 0.7997 0.2414
vn 0.9101 -0.1737 0.3763
usemtl Matériau.011
s off
f 45//1 46//1 4//1 3//1
f 49//2 50//2 8//2 7//2
f 47//3 48//3 6//3 5//3
f 26//1 25//1 9//1 10//1
f 72//4 47//4 5//4 51//4
f 96//5 46//5 2//5 74//5
f 10//1 9//1 13//1 14//1
f 84//6 9//6 29//6 90//6
f 89//5 26//5 10//5 75//5
f 27//3 28//3 11//3 12//3
f 76//7 14//7 18//7 77//7
f 75//8 10//8 14//8 76//8
f 12//3 11//3 15//3 16//3
f 53//4 12//4 16//4 55//4
f 86//9 77//9 18//9 17//9
f 16//10 15//10 19//10 20//10
f 16//3 20//3 24//3 22//3
f 14//11 13//11 17//11 18//11
f 59//12 22//12 42//12 69//12
f 86//6 17//6 23//6 88//6
f 17//1 13//1 21//1 23//1
f 55//2 16//2 22//2 59//2
f 5//3 6//3 28//3 27//3
f 74//5 2//5 26//5 89//5
f 51//4 5//4 27//4 62//4
f 2//1 1//1 25//1 26//1
f 32//3 30//3 34//3 36//3
f 62//2 27//2 32//2 64//2
f 27//3 12//3 30//3 32//3
f 9//1 25//1 31//1 29//1
f 66//4 36//4 34//4 65//4
f 90//5 29//5 37//5 92//5
f 64//2 32//2 36//2 66//2
f 29//1 31//1 35//1 33//1
f 92//6 37//6 39//6 93//6
f 29//1 33//1 39//1 37//1
f 34//3 30//3 38//3 40//3
f 65//4 34//4 40//4 68//4
f 69//13 42//13 124//13 123//13
f 23//1 21//1 41//1 43//1
f 88//14 23//14 43//14 95//14
f 22//3 24//3 44//3 42//3
f 82//5 4//5 46//5 96//5
f 49//4 7//4 47//4 72//4
f 7//3 8//3 48//3 47//3
f 46//15 45//15 103//15 106//15
f 73//4 49//4 72//4 81//4
f 8//5 50//5 71//5 48//5
f 24//14 60//14 70//14 44//14
f 42//16 44//16 126//16 124//16
f 91//4 65//4 68//4 93//4
f 38//6 67//6 68//6 40//6
f 79//2 64//2 66//2 80//2
f 30//5 63//5 67//5 38//5
f 80//4 66//4 65//4 91//4
f 78//2 62//2 64//2 79//2
f 83//4 51//4 62//4 78//4
f 6//5 52//5 61//5 28//5
f 85//2 55//2 59//2 87//2
f 20//6 57//6 60//6 24//6
f 87//12 59//12 69//12 94//12
f 20//17 19//17 58//17 57//17
f 84//4 53//4 55//4 85//4
f 11//18 54//18 56//18 15//18
f 15//7 56//7 58//7 19//7
f 28//5 61//5 54//5 11//5
f 12//6 53//6 63//6 30//6
f 48//5 71//5 52//5 6//5
f 81//4 72//4 51//4 83//4
f 50//3 49//3 121//3 120//3
f 3//2 4//2 82//2 73//2
f 45//4 81//4 83//4 1//4
f 9//4 84//4 85//4 13//4
f 21//12 87//12 94//12 41//12
f 13//2 85//2 87//2 21//2
f 1//4 83//4 78//4 25//4
f 25//2 78//2 79//2 31//2
f 35//4 80//4 91//4 33//4
f 31//2 79//2 80//2 35//2
f 33//4 91//4 93//4 39//4
f 70//19 95//19 130//19 125//19
f 3//4 73//4 81//4 45//4
f 50//5 82//5 96//5 71//5
f 60//14 88//14 95//14 70//14
f 67//6 92//6 93//6 68//6
f 63//5 90//5 92//5 67//5
f 52//3 71//3 100//3 101//3
f 57//6 86//6 88//6 60//6
f 57//20 58//20 77//20 86//20
f 54//21 75//21 76//21 56//21
f 56//7 76//7 77//7 58//7
f 61//5 89//5 75//5 54//5
f 53//6 84//6 90//6 63//6
f 89//6 61//6 98//6 97//6
f 101//5 102//5 97//5 98//5
f 100//5 99//5 102//5 101//5
f 61//3 52//3 101//3 98//3
f 74//1 89//1 97//1 102//1
f 71//2 96//2 99//2 100//2
f 96//1 74//1 102//1 99//1
f 106//2 103//2 107//2 110//2
f 1//22 2//22 105//22 104//22
f 2//23 46//23 106//23 105//23
f 45//24 1//24 104//24 103//24
f 109//5 110//5 114//5 113//5
f 104//6 105//6 109//6 108//6
f 105//5 106//5 110//5 109//5
f 103//4 104//4 108//4 107//4
f 113//5 114//5 118//5 117//5
f 107//4 108//4 112//4 111//4
f 110//2 107//2 111//2 114//2
f 108//6 109//6 113//6 112//6
f 116//1 117//1 118//1 115//1
f 111//4 112//4 116//4 115//4
f 114//2 111//2 115//2 118//2
f 122//2 119//2 120//2 121//2
f 82//5 50//5 120//5 119//5
f 73//1 82//1 119//1 122//1
f 49//4 73//4 122//4 121//4
f 123//4 124//4 126//4 125//4
f 129//4 123//4 125//4 130//4
f 128//4 129//4 130//4 127//4
f 95//19 43//19 127//19 130//19
f 94//13 69//13 123//13 129//13
f 43//25 41//25 128//25 127//25
f 44//19 70//19 125//19 126//19
f 41//13 94//13 129//13 128//13
o Cube.048_Cube.024
v -563.671814 466.618958 182.298676
v -731.558899 347.060944 56.134651
v -422.726685 475.623230 -13.790459
v -589.672058 355.883911 -139.104553
v -671.950867 649.499146 40.309917
v -758.031250 588.198425 -24.377899
v -599.684326 654.115906 -60.230446
v -685.476868 592.776978 -124.491982
v -376.403442 455.967712 -451.291351
v -277.345947 514.081482 -398.065186
v -333.067139 626.188843 -416.765930
v -432.124664 568.075134 -469.992157
v -275.907043 493.459961 -639.403931
v -203.077698 536.186523 -600.270691
v -244.045197 618.610352 -614.019958
v -316.874481 575.883789 -653.153137
v -212.304749 519.668091 -756.595093
v -159.082031 550.892029 -727.997131
v -189.020569 611.126343 -738.044861
v -242.243286 579.902344 -766.642761
v -479.049286 583.511108 -26.721519
v -656.400940 456.491974 -159.131134
v -628.753113 573.971130 181.433319
v -806.985901 447.045593 47.494682
v -299.690430 572.314636 -410.785767
v -404.852112 510.619781 -467.291901
v -213.014130 580.025452 -622.823608
v -290.331421 534.665955 -664.368225
v -160.452942 583.858765 -756.456116
v -216.955475 550.710632 -786.816345
v -169.336182 523.070068 -840.276733
v -116.113525 554.294006 -811.678772
v -115.695251 593.035645 -849.772583
v -172.197693 559.887512 -880.132874
v -197.760620 588.191467 -858.478333
v -144.537842 619.415527 -829.880432
v -139.042053 526.699280 -900.618530
v -85.819397 557.923340 -872.020508
v -85.401306 596.664734 -910.114197
v -141.903748 563.516602 -940.474548
v -167.466431 591.820618 -918.820129
v -114.243713 623.044556 -890.222229
v -100.267151 512.797607 -928.785339
v -66.010071 532.895020 -910.378235
v -65.741028 557.831177 -934.897278
v -102.109070 536.495300 -954.438904
v -139.410034 598.753906 -983.588440
v -164.972595 627.057983 -961.934265
v -111.750000 658.281860 -933.336243
v -82.907593 631.902100 -953.228210
v -74.500427 502.000183 -947.990051
v -51.405273 515.549377 -935.580505
v -51.223755 532.360657 -952.110657
v -75.742065 517.976562 -965.284973
v -52.481140 500.795715 -974.509705
v -38.044189 509.265533 -966.752258
v -37.930603 519.774414 -977.085632
v -53.257324 510.782715 -985.320984
v -133.157349 627.873962 -998.250671
v -150.154480 646.693604 -983.852112
v -114.766052 667.454834 -964.836975
v -95.588196 649.914490 -978.063660
v -319.483521 535.867981 435.023987
v -296.645264 320.132355 328.562256
v -174.660400 618.953491 263.866577
v -153.655334 418.305847 160.296326
v -472.549805 554.317627 231.159698
v -460.839935 443.703857 176.573792
v -396.695618 604.976562 147.643799
v -387.525055 494.040161 90.299118
v 37.697937 607.464355 -114.350578
v 107.312622 603.514038 -10.537865
v 72.959045 720.732666 17.298088
v 4.552368 726.007507 -84.829048
v 211.718506 697.080200 -206.964752
v 263.945251 692.533691 -130.070282
v 239.575806 779.689331 -108.365364
v 187.349060 784.235779 -185.259949
v 321.254700 754.983032 -262.776733
v 359.421326 751.660400 -206.583282
v 341.612244 815.352600 -190.721588
v 303.445862 818.675171 -246.914978
v -278.387054 647.140930 217.995239
v -260.552185 427.744049 101.338051
v -436.599243 552.550659 392.995361
v -412.353577 323.520630 279.973114
v 98.743652 662.304993 5.349602
v 23.330933 668.869873 -105.682121
v 268.178833 742.520630 -126.519783
v 212.733643 747.347168 -208.152649
v 373.020691 792.836243 -210.849213
v 332.502136 796.363586 -270.505524
v 396.037903 784.331238 -311.834229
v 434.204529 781.008667 -255.640686
v 454.003845 830.977539 -263.597778
v 413.485291 834.504700 -323.254089
v 383.476135 855.464783 -299.096405
v 421.642639 852.142334 -242.902802
v 449.436462 806.676636 -346.781281
v 487.603088 803.354004 -290.587830
v 507.402771 853.322998 -298.545074
v 466.883972 856.850159 -358.201263
v 436.874573 877.810181 -334.043518
v 475.041199 874.487671 -277.850067
v 495.283264 796.813599 -363.837891
v 519.849426 794.675049 -327.668549
v 532.593445 826.837769 -332.790405
v 506.513367 829.107971 -371.188385
v 490.420105 905.647095 -371.301849
v 460.410828 926.607056 -347.144043
v 498.577576 923.284668 -290.950562
v 530.938660 902.119873 -311.645569
v 525.832947 789.192383 -376.406311
v 542.394836 787.750549 -352.022156
v 550.986511 809.433838 -355.475067
v 533.403992 810.964478 -381.361969
v 556.912048 794.095520 -390.536041
v 567.264832 793.194214 -375.292877
v 572.635559 806.748596 -377.451416
v 561.644470 807.705383 -393.633453
v 504.664734 934.875977 -364.607697
v 484.711121 948.812561 -348.544922
v 510.088440 946.603271 -311.181061
v 531.606018 932.530579 -324.941406
vn 0.4211 -0.8675 0.2648
vn -0.3559 0.8746 -0.3292
vn -0.4210 0.8677 -0.2641
vn -0.4506 -0.2663 0.8521
vn 0.4064 0.8515 0.3313
vn -0.6660 -0.5448 -0.5095
vn -0.4047 0.8884 -0.2168
vn 0.8196 0.4440 0.3621
vn -0.7822 -0.1270 -0.6099
vn 0.5098 -0.8553 0.0924
vn -0.7820 -0.3439 -0.5198
vn 0.8478 0.3917 0.3576
vn -0.7770 -0.3805 -0.5014
vn 0.4730 -0.8776 0.0778
vn 0.7536 0.5126 0.4116
vn 0.4791 -0.8754 0.0642
vn -0.3976 0.8883 -0.2300
vn 0.8675 0.3574 0.3459
vn 0.7650 0.5637 0.3115
vn 0.4233 -0.8876 0.1813
vn -0.7074 -0.5207 -0.4780
vn 0.7781 0.5318 0.3342
vn -0.6795 -0.5502 -0.4854
vn -0.6186 -0.5166 -0.5920
vn 0.5545 0.7790 0.2928
vn -0.8080 -0.0211 -0.5888
vn 0.7193 0.4402 0.5374
vn -0.7190 0.4968 0.4860
vn -0.4323 0.8868 -0.1637
vn -0.7591 -0.5044 -0.4115
vn -0.4459 0.8847 -0.1361
vn 0.8060 0.4084 0.4285
vn -0.7567 -0.5084 -0.4112
vn -0.8086 -0.4039 -0.4278
vn 0.7520 0.4884 0.4427
vn 0.1464 -0.7922 0.5925
vn 0.8039 0.4126 0.4284
vn 0.7532 0.5150 0.4091
vn -0.8087 -0.4013 -0.4301
vn 0.4323 -0.8868 0.1637
vn 0.0847 0.5906 -0.8025
vn -0.5971 -0.6102 -0.5208
vn 0.9154 0.2772 0.2919
vn 0.1023 0.5714 -0.8143
vn 0.7167 0.6850 0.1308
vn -0.8113 -0.4288 -0.3974
vn -0.6210 0.6241 0.4742
vn 0.6210 -0.6241 -0.4742
vn -0.2031 0.8267 -0.5247
vn 0.9003 0.3002 0.3152
vn -0.6255 -0.5950 -0.5047
vn 0.1290 -0.7804 0.6119
vn 0.6222 -0.5523 -0.5549
vn 0.8956 0.3069 0.3220
vn -0.6341 -0.5902 -0.4997
vn 0.3428 -0.8816 0.3246
vn 0.0447 0.6322 -0.7735
vn -0.7394 -0.1693 -0.6516
vn 0.6138 -0.4562 -0.6443
vn -0.5926 0.7564 0.2770
vn 0.7976 -0.2026 0.5681
vn -0.4570 0.8102 -0.3670
vn -0.7934 0.2133 -0.5702
vn -0.3580 -0.4434 0.8217
vn -0.4212 0.8985 0.1235
vn 0.1436 -0.9030 -0.4049
vn -0.2008 0.9614 0.1880
vn 0.4111 0.7224 0.5559
vn -0.3079 -0.2916 -0.9056
vn 0.6906 -0.5986 0.4059
vn -0.5089 0.1911 -0.8394
vn 0.6421 -0.1100 0.7587
vn -0.5152 0.1505 -0.8437
vn 0.3238 -0.9094 -0.2611
vn 0.5432 0.0084 0.8396
vn 0.3334 -0.9003 -0.2797
vn -0.1880 0.9646 0.1847
vn 0.6615 -0.1236 0.7397
vn 0.6005 0.0945 0.7940
vn 0.2321 -0.9489 -0.2138
vn -0.4738 0.0023 -0.8806
vn 0.5855 0.0791 0.8068
vn -0.4479 -0.0270 -0.8937
vn -0.1044 -0.6883 -0.7179
vn -0.0199 0.9494 0.3134
vn -0.3024 -0.6888 -0.6588
vn -0.0007 0.8899 0.4561
vn -0.9560 -0.2049 0.2101
vn -0.2478 0.9426 0.2240
vn -0.5476 -0.0000 -0.8367
vn -0.2720 0.9319 0.2399
vn 0.5748 -0.1017 0.8120
vn -0.5458 -0.0042 -0.8379
vn -0.5770 0.1059 -0.8098
vn 0.5265 -0.0258 0.8498
vn -0.1856 -0.9803 0.0681
vn 0.5733 -0.0976 0.8135
vn 0.5441 0.0117 0.8389
vn -0.5759 0.1092 -0.8102
vn 0.2478 -0.9426 -0.2240
vn 0.4673 0.8426 -0.2676
vn -0.3634 -0.0848 -0.9278
vn 0.7212 -0.1792 0.6691
vn 0.4866 0.8270 -0.2816
vn 0.6441 0.2945 0.7060
vn -0.5946 0.0718 -0.8008
vn -0.7119 0.4808 0.5119
vn 0.7119 -0.4808 -0.5119
vn 0.1083 0.9940 -0.0148
vn 0.6995 -0.1665 0.6949
vn -0.3947 -0.0713 -0.9161
vn -0.2085 -0.9744 0.0840
vn 0.7533 -0.3835 -0.5343
vn 0.6929 -0.1627 0.7024
vn -0.4041 -0.0671 -0.9122
vn 0.0987 -0.9872 -0.1254
vn 0.4223 0.8755 -0.2350
vn -0.4001 0.3854 -0.8315
vn 0.7918 -0.2592 -0.5531
vn -0.5913 0.6749 0.4415
usemtl Matériau.012
s off
f 131//26 132//26 134//26 133//26
f 138//27 137//27 141//27 142//27
f 137//28 138//28 136//28 135//28
f 153//29 154//29 132//29 131//29
f 151//30 137//30 135//30 153//30
f 152//31 134//31 132//31 154//31
f 142//32 141//32 145//32 146//32
f 151//33 133//33 140//33 155//33
f 152//34 138//34 142//34 156//34
f 133//35 134//35 139//35 140//35
f 158//36 146//36 150//36 160//36
f 155//37 140//37 144//37 157//37
f 156//38 142//38 146//38 158//38
f 140//39 139//39 143//39 144//39
f 149//40 159//40 163//40 166//40
f 144//41 143//41 147//41 148//41
f 146//42 145//42 149//42 150//42
f 157//43 144//43 148//43 159//43
f 145//44 157//44 159//44 149//44
f 148//45 147//45 161//45 162//45
f 139//46 156//46 158//46 143//46
f 141//47 155//47 157//47 145//47
f 143//48 158//48 160//48 147//48
f 134//49 152//49 156//49 139//49
f 137//50 151//50 155//50 141//50
f 138//51 152//51 154//51 136//51
f 133//52 151//52 153//52 131//52
f 135//53 136//53 154//53 153//53
f 165//54 166//54 172//54 171//54
f 161//55 164//55 170//55 167//55
f 150//56 149//56 166//56 165//56
f 159//57 148//57 162//57 163//57
f 147//58 160//58 164//58 161//58
f 160//59 150//59 165//59 164//59
f 172//60 169//60 180//60 179//60
f 168//61 167//61 173//61 174//61
f 163//62 162//62 168//62 169//62
f 166//63 163//63 169//63 172//63
f 164//64 165//64 171//64 170//64
f 162//65 161//65 167//65 168//65
f 176//66 175//66 183//66 184//66
f 167//67 170//67 176//67 173//67
f 169//68 168//68 174//68 175//68
f 170//69 169//69 175//69 176//69
f 179//70 180//70 192//70 191//70
f 170//71 171//71 178//71 177//71
f 171//72 172//72 179//72 178//72
f 169//73 170//73 177//73 180//73
f 184//74 183//74 187//74 188//74
f 175//75 174//75 182//75 183//75
f 173//76 176//76 184//76 181//76
f 174//77 173//77 181//77 182//77
f 186//78 185//78 188//78 187//78
f 183//79 182//79 186//79 187//79
f 181//80 184//80 188//80 185//80
f 182//81 181//81 185//81 186//81
f 192//82 189//82 190//82 191//82
f 177//83 178//83 190//83 189//83
f 180//84 177//84 189//84 192//84
f 178//85 179//85 191//85 190//85
f 193//86 194//86 196//86 195//86
f 200//87 199//87 203//87 204//87
f 199//88 200//88 198//88 197//88
f 215//89 216//89 194//89 193//89
f 213//90 199//90 197//90 215//90
f 214//91 196//91 194//91 216//91
f 204//92 203//92 207//92 208//92
f 213//93 195//93 202//93 217//93
f 214//94 200//94 204//94 218//94
f 195//95 196//95 201//95 202//95
f 220//96 208//96 212//96 222//96
f 217//97 202//97 206//97 219//97
f 218//98 204//98 208//98 220//98
f 202//99 201//99 205//99 206//99
f 211//100 221//100 225//100 228//100
f 206//101 205//101 209//101 210//101
f 208//102 207//102 211//102 212//102
f 219//103 206//103 210//103 221//103
f 207//104 219//104 221//104 211//104
f 210//105 209//105 223//105 224//105
f 201//106 218//106 220//106 205//106
f 203//107 217//107 219//107 207//107
f 205//108 220//108 222//108 209//108
f 196//109 214//109 218//109 201//109
f 199//110 213//110 217//110 203//110
f 200//111 214//111 216//111 198//111
f 195//112 213//112 215//112 193//112
f 197//113 198//113 216//113 215//113
f 227//114 228//114 234//114 233//114
f 223//115 226//115 232//115 229//115
f 212//116 211//116 228//116 227//116
f 221//117 210//117 224//117 225//117
f 209//118 222//118 226//118 223//118
f 222//119 212//119 227//119 226//119
f 234//120 231//120 242//120 241//120
f 230//121 229//121 235//121 236//121
f 225//122 224//122 230//122 231//122
f 228//123 225//123 231//123 234//123
f 226//124 227//124 233//124 232//124
f 224//125 223//125 229//125 230//125
f 238//126 237//126 245//126 246//126
f 229//127 232//127 238//127 235//127
f 231//128 230//128 236//128 237//128
f 232//129 231//129 237//129 238//129
f 241//130 242//130 254//130 253//130
f 232//131 233//131 240//131 239//131
f 233//132 234//132 241//132 240//132
f 231//133 232//133 239//133 242//133
f 246//134 245//134 249//134 250//134
f 237//135 236//135 244//135 245//135
f 235//136 238//136 246//136 243//136
f 236//137 235//137 243//137 244//137
f 248//138 247//138 250//138 249//138
f 245//139 244//139 248//139 249//139
f 243//140 246//140 250//140 247//140
f 244//141 243//141 247//141 248//141
f 254//142 251//142 252//142 253//142
f 239//143 240//143 252//143 251//143
f 242//144 239//144 251//144 254//144
f 240//145 241//145 253//145 252//145
