# Blender v2.91.2 OBJ File: 'camionnete02.blend'
# www.blender.org
mtllib arme_000218.mtl
o Cube.046_Cube.010
v -58.163471 -27.840408 -1223.491455
v -72.082535 -243.101288 -1178.234985
v -6.044464 -75.123413 -1432.362183
v -19.963593 -290.384277 -1387.105957
v -271.866455 -25.351456 -1277.379639
v -285.785583 -240.612366 -1232.123169
v -219.747437 -72.634460 -1486.250366
v -233.666580 -287.895386 -1440.994263
v -129.921005 37.258881 -935.917725
v -143.840118 -178.001938 -890.661377
v -357.543091 -175.513016 -944.549500
v -343.623962 39.747864 -989.805847
v -162.395935 66.720627 -805.771667
v -176.315094 -148.540222 -760.515381
v -390.018097 -146.051285 -814.403442
v -376.098969 69.209595 -859.659851
v -181.580750 84.125290 -728.887207
v -188.336563 -75.368034 -708.772644
v -402.039612 -72.879082 -762.660767
v -395.283783 86.614273 -782.775330
v -148.519897 281.316071 -850.888062
v -362.222870 283.804962 -904.776306
v -167.704651 298.720673 -774.003601
v -381.407654 301.209686 -827.891846
v -118.725487 27.102219 -980.784424
v -132.644577 -188.158646 -935.528076
v -332.428497 29.591141 -1034.672607
v -346.347626 -185.669708 -989.416321
v -125.326187 108.318146 -950.857117
v -339.029175 110.807098 -1004.745361
v -114.130669 98.161438 -995.723877
v -327.833618 100.650391 -1049.612061
v -118.659866 211.413452 -972.531860
v -332.362854 213.902374 -1026.419922
v -107.464417 201.256744 -1017.398682
v -321.167358 203.745728 -1071.286865
v -157.067169 137.113983 -823.652649
v -370.770203 139.602905 -877.540771
v -150.400864 240.209320 -845.327271
v -364.103851 242.698242 -899.215454
v -127.768753 403.919464 -927.517395
v -341.471802 406.408356 -981.405701
v -146.953552 421.324127 -850.633057
v -360.656525 423.813019 -904.521240
v -24.444084 -58.431030 -1358.624512
v -38.363243 -273.691956 -1313.368164
v -238.147095 -55.942093 -1412.512451
v -252.066162 -271.203003 -1367.256226
v -112.895950 -73.878937 -1459.306396
v -126.815102 -289.139832 -1414.050171
v -165.014954 -26.595932 -1250.435547
v -178.934052 -241.856812 -1205.179199
v -236.772476 38.503387 -962.861755
v -250.691559 -176.757462 -917.605347
v -269.247467 67.965149 -832.715698
v -276.423950 -135.481110 -776.839294
v -288.432220 85.369781 -755.831299
v -284.530090 -86.140892 -741.949036
v -255.371399 282.560547 -877.832092
v -274.556152 299.965149 -800.947754
v -239.496109 -186.914154 -962.472168
v -225.576965 28.346664 -1007.728577
v -232.177673 109.562592 -977.801270
v -220.982178 99.405914 -1022.667908
v -225.511322 212.657928 -999.475891
v -214.315872 202.501251 -1044.342651
v -263.918701 138.358429 -850.596741
v -257.252350 241.453827 -872.271423
v -234.620285 405.163910 -954.461548
v -253.805069 422.568512 -877.577087
v -145.214691 -272.447449 -1340.312256
v -131.295563 -57.186554 -1385.568481
v -59.470161 -74.501160 -1445.834229
v -125.508286 -242.479034 -1191.707153
v -197.265854 -177.379700 -904.133362
v -240.398865 -135.900681 -767.755127
v -248.504959 -86.560471 -732.864807
v -172.151215 27.724426 -994.256470
v -167.556442 98.783661 -1009.195923
v -160.890121 201.878967 -1030.870728
v -77.869843 -57.808807 -1372.096558
v -73.389313 -289.762085 -1400.578003
v -111.589226 -27.218201 -1236.963623
v -183.346741 37.881119 -949.389771
v -215.821716 67.342896 -819.243591
v -235.006485 84.747543 -742.359192
v -201.945618 281.938263 -864.360107
v -221.130386 299.342926 -787.475708
v -186.070343 -187.536407 -949.000183
v -178.751923 108.940399 -964.329163
v -172.085602 212.035736 -986.003845
v -210.492935 137.736206 -837.124695
v -203.826599 240.831604 -858.799316
v -181.194489 404.541718 -940.989441
v -200.379272 421.946320 -864.105042
v -91.789024 -273.069702 -1326.840210
v -188.676483 -227.841064 -940.526550
v -242.102264 -227.218826 -953.998596
v -94.395195 -313.374359 -1318.366577
v -147.820862 -312.752136 -1331.838501
v -181.540253 -282.161499 -1196.705566
v -128.114456 -282.783691 -1183.233521
v 52.356628 -110.985748 -1285.596069
v 37.446228 -97.458893 -1225.841797
v 31.291473 -192.645020 -1205.829712
v 46.201675 -206.171906 -1265.584351
v 98.536697 -111.523621 -1273.951294
v 83.626328 -97.996765 -1214.196899
v 77.471512 -193.182892 -1194.184937
v 92.381821 -206.709747 -1253.939453
v 169.206940 -112.346680 -1256.130859
v 154.296555 -98.819809 -1196.376465
v 148.141708 -194.005936 -1176.364502
v 163.052002 -207.532822 -1236.119141
v 214.682373 -112.876343 -1244.663696
v 199.772034 -99.349487 -1184.909302
v 193.617218 -194.535614 -1164.897339
v 208.527435 -208.062469 -1224.651855
v 97.831848 -445.095428 -2086.758057
v 44.406113 -444.473175 -2100.230225
v 58.325119 -229.212280 -2145.486572
v 111.750961 -229.834503 -2132.014648
v -208.740723 463.792267 -987.874573
v -307.198608 464.938995 -1012.702148
v -226.418427 479.829742 -917.029663
v -324.876282 480.976471 -941.857239
v -127.960579 478.683075 -892.202209
v -110.282761 462.645721 -963.046997
v -159.511688 463.219147 -975.460693
v -177.189499 479.256378 -904.615967
vn 0.9696 -0.0113 0.2445
vn 0.2365 -0.2145 -0.9477
vn -0.9696 0.0113 -0.2445
vn 0.0632 0.9767 -0.2053
vn -0.0632 -0.9767 0.2053
vn -0.2365 0.2145 0.9477
vn -0.2043 -0.5873 0.7831
vn -0.1469 -0.9654 0.2153
vn -0.3210 0.1039 0.9414
vn -0.9699 0.0111 -0.2431
vn 0.9699 -0.0111 0.2431
vn 0.1993 -0.5434 -0.8155
vn 0.1982 -0.5499 -0.8114
vn -0.1993 0.5434 0.8155
vn 0.5989 -0.2017 -0.7750
vn -0.8843 0.3566 -0.3014
vn -0.2004 0.1018 0.9744
vn -0.0311 -0.9687 0.2463
vn -0.1858 0.6162 0.7654
vn -0.2431 0.0728 0.9673
vn -0.0786 -0.9604 0.2673
vn 0.1641 0.1928 0.9674
vn 0.4823 -0.8208 0.3061
vn 0.5877 0.8083 -0.0363
vn 0.0631 0.9767 -0.2053
vn 0.9559 -0.1234 0.2665
usemtl Matériau.011
s off
f 45//1 46//1 4//1 3//1
f 49//2 50//2 8//2 7//2
f 47//3 48//3 6//3 5//3
f 26//1 25//1 9//1 10//1
f 72//4 47//4 5//4 51//4
f 96//5 46//5 2//5 74//5
f 10//1 9//1 13//1 14//1
f 84//6 9//6 29//6 90//6
f 89//5 26//5 10//5 75//5
f 27//3 28//3 11//3 12//3
f 76//7 14//7 18//7 77//7
f 75//8 10//8 14//8 76//8
f 12//3 11//3 15//3 16//3
f 53//4 12//4 16//4 55//4
f 86//9 77//9 18//9 17//9
f 16//10 15//10 19//10 20//10
f 16//3 20//3 24//3 22//3
f 14//11 13//11 17//11 18//11
f 59//12 22//12 42//12 69//12
f 86//6 17//6 23//6 88//6
f 17//1 13//1 21//1 23//1
f 55//2 16//2 22//2 59//2
f 5//3 6//3 28//3 27//3
f 74//5 2//5 26//5 89//5
f 51//4 5//4 27//4 62//4
f 2//1 1//1 25//1 26//1
f 32//3 30//3 34//3 36//3
f 62//2 27//2 32//2 64//2
f 27//3 12//3 30//3 32//3
f 9//1 25//1 31//1 29//1
f 66//4 36//4 34//4 65//4
f 90//5 29//5 37//5 92//5
f 64//2 32//2 36//2 66//2
f 29//1 31//1 35//1 33//1
f 92//6 37//6 39//6 93//6
f 29//1 33//1 39//1 37//1
f 34//3 30//3 38//3 40//3
f 65//4 34//4 40//4 68//4
f 69//13 42//13 124//13 123//13
f 23//1 21//1 41//1 43//1
f 88//14 23//14 43//14 95//14
f 22//3 24//3 44//3 42//3
f 82//5 4//5 46//5 96//5
f 49//4 7//4 47//4 72//4
f 7//3 8//3 48//3 47//3
f 46//15 45//15 103//15 106//15
f 73//4 49//4 72//4 81//4
f 8//5 50//5 71//5 48//5
f 24//14 60//14 70//14 44//14
f 42//16 44//16 126//16 124//16
f 91//4 65//4 68//4 93//4
f 38//6 67//6 68//6 40//6
f 79//2 64//2 66//2 80//2
f 30//5 63//5 67//5 38//5
f 80//4 66//4 65//4 91//4
f 78//2 62//2 64//2 79//2
f 83//4 51//4 62//4 78//4
f 6//5 52//5 61//5 28//5
f 85//2 55//2 59//2 87//2
f 20//6 57//6 60//6 24//6
f 87//12 59//12 69//12 94//12
f 20//17 19//17 58//17 57//17
f 84//4 53//4 55//4 85//4
f 11//18 54//18 56//18 15//18
f 15//7 56//7 58//7 19//7
f 28//5 61//5 54//5 11//5
f 12//6 53//6 63//6 30//6
f 48//5 71//5 52//5 6//5
f 81//4 72//4 51//4 83//4
f 50//3 49//3 121//3 120//3
f 3//2 4//2 82//2 73//2
f 45//4 81//4 83//4 1//4
f 9//4 84//4 85//4 13//4
f 21//12 87//12 94//12 41//12
f 13//2 85//2 87//2 21//2
f 1//4 83//4 78//4 25//4
f 25//2 78//2 79//2 31//2
f 35//4 80//4 91//4 33//4
f 31//2 79//2 80//2 35//2
f 33//4 91//4 93//4 39//4
f 70//19 95//19 130//19 125//19
f 3//4 73//4 81//4 45//4
f 50//5 82//5 96//5 71//5
f 60//14 88//14 95//14 70//14
f 67//6 92//6 93//6 68//6
f 63//5 90//5 92//5 67//5
f 52//3 71//3 100//3 101//3
f 57//6 86//6 88//6 60//6
f 57//20 58//20 77//20 86//20
f 54//21 75//21 76//21 56//21
f 56//7 76//7 77//7 58//7
f 61//5 89//5 75//5 54//5
f 53//6 84//6 90//6 63//6
f 89//6 61//6 98//6 97//6
f 101//5 102//5 97//5 98//5
f 100//5 99//5 102//5 101//5
f 61//3 52//3 101//3 98//3
f 74//1 89//1 97//1 102//1
f 71//2 96//2 99//2 100//2
f 96//1 74//1 102//1 99//1
f 106//2 103//2 107//2 110//2
f 1//22 2//22 105//22 104//22
f 2//23 46//23 106//23 105//23
f 45//24 1//24 104//24 103//24
f 109//5 110//5 114//5 113//5
f 104//6 105//6 109//6 108//6
f 105//5 106//5 110//5 109//5
f 103//4 104//4 108//4 107//4
f 113//5 114//5 118//5 117//5
f 107//4 108//4 112//4 111//4
f 110//2 107//2 111//2 114//2
f 108//6 109//6 113//6 112//6
f 116//1 117//1 118//1 115//1
f 111//4 112//4 116//4 115//4
f 114//2 111//2 115//2 118//2
f 122//2 119//2 120//2 121//2
f 82//5 50//5 120//5 119//5
f 73//1 82//1 119//1 122//1
f 49//4 73//4 122//4 121//4
f 123//4 124//4 126//4 125//4
f 129//25 123//25 125//25 130//25
f 128//4 129//4 130//4 127//4
f 95//19 43//19 127//19 130//19
f 94//13 69//13 123//13 129//13
f 43//26 41//26 128//26 127//26
f 44//19 70//19 125//19 126//19
f 41//13 94//13 129//13 128//13
o Cube.048_Cube.024
v -462.868103 602.882996 96.222015
v -587.769470 408.780792 167.786957
v -423.953217 498.734070 -118.338463
v -553.929443 301.672729 -49.392082
v -686.999207 629.590820 -23.703979
v -751.039673 530.069214 12.989342
v -667.046509 576.190735 -133.715149
v -731.266052 476.655792 -97.172096
v -536.731995 248.250183 -483.839569
v -430.098145 312.515442 -460.995941
v -487.055420 419.743683 -496.781525
v -593.689331 355.478455 -519.625183
v -466.355103 237.170380 -688.328918
v -387.955566 284.419617 -671.533630
v -429.831848 363.256287 -697.843933
v -508.231384 316.007019 -714.639282
v -421.503754 232.995911 -816.535095
v -364.210419 267.524994 -804.261353
v -394.813110 325.137756 -823.488586
v -452.106537 290.608704 -835.762268
v -524.652832 562.156067 -146.679871
v -660.716248 355.277374 -73.259285
v -565.965942 672.882690 81.000870
v -698.564148 466.819275 156.975861
v -453.632263 367.231201 -483.457489
v -566.837280 299.005798 -507.708832
v -400.887573 322.333466 -701.939697
v -484.118408 272.172577 -719.769958
v -369.695038 293.131897 -839.086609
v -430.519073 256.474915 -852.116638
v -392.030090 215.234192 -904.149597
v -334.736816 249.763367 -891.875916
v -339.899963 278.701111 -937.572388
v -400.723785 242.044189 -950.602478
v -422.360687 275.665894 -932.576965
v -365.067383 310.195099 -920.303284
v -371.448120 203.601044 -967.498596
v -314.154846 238.130188 -955.224915
v -319.318024 267.067902 -1000.921326
v -380.141907 230.410980 -1013.951355
v -401.778778 264.032715 -995.925720
v -344.485443 298.561737 -983.652283
v -337.644623 181.903931 -997.107483
v -300.767517 204.128754 -989.207458
v -304.090729 222.754730 -1018.620056
v -343.240479 199.160339 -1027.006836
v -384.065704 254.699554 -1063.965088
v -405.702576 288.321259 -1045.939453
v -348.409149 322.850342 -1033.665894
v -323.241669 291.356415 -1050.935181
v -315.270996 165.857849 -1016.888245
v -290.409363 180.841187 -1011.562073
v -292.649811 193.398315 -1031.391357
v -319.043488 177.491577 -1037.045410
v -297.650848 157.633850 -1045.374634
v -282.109741 167.000122 -1042.045288
v -283.510254 174.849670 -1054.440918
v -300.009247 164.906189 -1057.975342
v -379.909912 279.382233 -1085.771851
v -394.296661 301.737732 -1073.786377
v -356.201660 324.696533 -1065.625610
v -339.467316 303.755859 -1077.108032
v -304.717560 458.655121 462.316772
v -391.681335 260.575073 354.617340
v -131.210876 470.391418 296.387421
v -216.650452 274.028198 188.542755
v -425.384521 551.444458 256.987946
v -469.973267 449.883301 201.767426
v -326.417328 559.039917 173.652374
v -380.230103 456.781067 116.616333
v -97.989258 245.879761 -82.615120
v -61.261841 183.005615 18.199333
v 56.568481 216.741791 -1.843414
v 22.777649 278.623566 -101.742317
v -50.094910 67.752197 -196.053314
v -24.848511 18.244751 -121.402916
v 63.941956 42.318787 -135.465576
v 38.695618 91.826294 -210.116180
v -17.618958 -44.301575 -265.732269
v 0.830750 -80.481018 -211.178558
v 65.717590 -62.887939 -221.455353
v 47.268005 -26.708557 -276.009033
v -199.467285 542.146851 246.552612
v -303.693085 335.788269 128.531403
v -397.187164 531.792419 419.176270
v -489.509949 321.506104 304.840027
v -1.497925 188.327637 9.251038
v -37.952454 259.813843 -98.540443
v 22.722046 13.549072 -137.030212
v -4.080078 66.107422 -216.280884
v 37.295471 -94.700562 -230.328522
v 17.708862 -56.291687 -288.243896
v -9.038757 -121.059204 -319.538818
v 9.411011 -157.238403 -264.985138
v 52.609497 -177.883362 -290.673706
v 33.022888 -139.474548 -348.589020
v 61.546936 -108.903931 -335.349182
v 79.996582 -145.083252 -280.795441
v -1.596252 -175.881104 -358.413147
v 16.853455 -212.060547 -303.859406
v 60.051880 -232.705505 -329.547913
v 40.465393 -194.296448 -387.463348
v 68.989319 -163.725769 -374.223419
v 87.439026 -199.905334 -319.669769
v -17.118347 -222.165894 -368.752502
v -5.243103 -245.453064 -333.638763
v 22.561829 -258.741272 -350.173340
v 9.954773 -234.019043 -387.450867
v 80.626587 -218.837891 -417.321259
v 109.150696 -188.267273 -404.081329
v 127.600464 -224.446777 -349.527802
v 100.213318 -257.246826 -359.405884
v -28.890137 -253.036255 -376.353424
v -20.884216 -268.735840 -352.680695
v -2.138977 -277.694458 -363.828094
v -10.638123 -261.027405 -388.959503
v -29.679077 -284.635986 -390.152863
v -24.674438 -294.450012 -375.354645
v -12.956543 -300.049988 -382.322845
v -18.269531 -289.631348 -398.032745
v 110.230286 -233.187012 -421.768188
v 129.196411 -212.860107 -412.964874
v 141.463745 -236.916138 -376.691376
v 123.253723 -258.725525 -383.259369
vn 0.8379 -0.4212 0.3473
vn -0.6294 0.6170 -0.4725
vn -0.8405 0.4122 -0.3516
vn 0.0679 0.3064 0.9495
vn 0.0494 0.9018 -0.4293
vn -0.4722 -0.8195 0.3248
vn -0.4256 0.8324 -0.3550
vn 0.7191 0.6331 -0.2865
vn -0.8585 -0.4962 -0.1291
vn 0.7431 -0.6364 0.2068
vn -0.8563 -0.4184 -0.3028
vn 0.8965 0.4248 0.1260
vn -0.8488 -0.4500 -0.2774
vn 0.4716 -0.8567 0.2087
vn 0.8129 0.5590 0.1638
vn 0.4755 -0.8580 0.1943
vn -0.4206 0.8289 -0.3687
vn 0.9139 0.3880 0.1198
vn 0.8091 0.5852 0.0539
vn 0.4385 -0.8406 0.3179
vn -0.7776 -0.5841 -0.2326
vn 0.8253 0.5589 0.0813
vn -0.7515 -0.6157 -0.2370
vn -0.6109 -0.7914 0.0218
vn 0.3355 0.8846 -0.3238
vn -0.8653 -0.4927 0.0923
vn 0.5671 0.7766 -0.2745
vn -0.6379 0.5921 0.4925
vn -0.4446 0.8442 -0.2995
vn -0.8183 -0.5507 -0.1647
vn -0.4538 0.8491 -0.2705
vn 0.8663 0.4592 0.1965
vn -0.8158 -0.5546 -0.1639
vn -0.8688 -0.4545 -0.1965
vn 0.8159 0.5426 0.1995
vn 0.2297 -0.6413 0.7321
vn 0.8643 0.4633 0.1957
vn 0.8122 0.5608 0.1609
vn -0.8692 -0.4525 -0.1993
vn 0.4446 -0.8442 0.2995
vn -0.0358 0.3869 -0.9214
vn -0.6761 -0.6858 -0.2693
vn 0.9521 0.2954 0.0795
vn -0.0204 0.3648 -0.9309
vn 0.7344 0.6640 -0.1407
vn -0.8670 -0.4716 -0.1610
vn -0.5342 0.7432 0.4028
vn 0.5342 -0.7432 -0.4028
vn -0.2748 0.6929 -0.6666
vn 0.9410 0.3238 0.0987
vn -0.7016 -0.6661 -0.2532
vn 0.2156 -0.6246 0.7506
vn 0.5235 -0.6919 -0.4973
vn 0.9374 0.3321 0.1044
vn -0.7092 -0.6599 -0.2481
vn 0.3812 -0.7983 0.4663
vn -0.0704 0.4358 -0.8973
vn -0.8332 -0.2807 -0.4765
vn 0.5022 -0.6185 -0.6044
vn -0.5356 0.8254 0.1783
vn 0.5877 -0.5704 0.5737
vn 0.3505 0.8411 -0.4120
vn -0.5623 0.5904 -0.5790
vn -0.5423 -0.2050 0.8148
vn 0.0465 0.9913 0.1234
vn -0.3230 -0.8532 -0.4095
vn 0.9601 0.1958 -0.1998
vn 0.9508 0.2472 0.1867
vn -0.5873 -0.1524 -0.7949
vn 0.0603 -0.8565 0.5126
vn -0.1447 0.4776 -0.8666
vn 0.1795 -0.6147 0.7681
vn -0.1838 0.4843 -0.8554
vn -0.9382 -0.3227 0.1247
vn 0.3292 -0.5142 0.7919
vn -0.9382 -0.3322 0.0970
vn 0.9617 0.1829 -0.2039
vn 0.1694 -0.6343 0.7543
vn 0.3916 -0.5740 0.7191
vn -0.9582 -0.2282 0.1727
vn -0.3348 0.4433 -0.8315
vn 0.3898 -0.5542 0.7354
vn -0.3669 0.4174 -0.8314
vn -0.6733 -0.6294 -0.3879
vn 0.6934 0.6939 -0.1943
vn -0.5985 -0.4442 -0.6667
vn 0.4059 0.7681 0.4952
vn -0.9326 0.3014 0.1987
vn 0.9562 0.2443 -0.1614
vn -0.3204 0.5186 -0.7927
vn 0.9523 0.2691 -0.1436
vn 0.2170 -0.5454 0.8096
vn -0.3247 0.5168 -0.7921
vn -0.2123 0.5477 -0.8093
vn 0.3015 -0.4968 0.8138
vn -0.8806 0.1993 0.4300
vn 0.2214 -0.5439 0.8094
vn 0.3320 -0.5152 0.7901
vn -0.2094 0.5465 -0.8108
vn -0.9562 -0.2443 0.1614
vn 0.6779 -0.4860 -0.5516
vn -0.4331 0.3324 -0.8378
vn 0.0912 -0.6957 0.7125
vn 0.6581 -0.5056 -0.5579
vn 0.5430 -0.6230 0.5631
vn -0.2405 0.5659 -0.7886
vn 0.6381 0.7233 0.2639
vn -0.6381 -0.7233 -0.2639
vn 0.9134 -0.1204 -0.3888
vn 0.1127 -0.6733 0.7307
vn -0.4162 0.3639 -0.8333
vn -0.8691 0.2227 0.4416
vn -0.5567 -0.7666 -0.3201
vn 0.1191 -0.6665 0.7359
vn -0.4109 0.3734 -0.8317
vn -0.9602 -0.0914 0.2641
vn 0.7205 -0.4403 -0.5357
vn 0.0382 0.3669 -0.9295
vn -0.4488 -0.8071 -0.3835
vn 0.7910 0.5981 0.1291
usemtl Matériau.012
s off
f 131//27 132//27 134//27 133//27
f 138//28 137//28 141//28 142//28
f 137//29 138//29 136//29 135//29
f 153//30 154//30 132//30 131//30
f 151//31 137//31 135//31 153//31
f 152//32 134//32 132//32 154//32
f 142//33 141//33 145//33 146//33
f 151//34 133//34 140//34 155//34
f 152//35 138//35 142//35 156//35
f 133//36 134//36 139//36 140//36
f 158//37 146//37 150//37 160//37
f 155//38 140//38 144//38 157//38
f 156//39 142//39 146//39 158//39
f 140//40 139//40 143//40 144//40
f 149//41 159//41 163//41 166//41
f 144//42 143//42 147//42 148//42
f 146//43 145//43 149//43 150//43
f 157//44 144//44 148//44 159//44
f 145//45 157//45 159//45 149//45
f 148//46 147//46 161//46 162//46
f 139//47 156//47 158//47 143//47
f 141//48 155//48 157//48 145//48
f 143//49 158//49 160//49 147//49
f 134//50 152//50 156//50 139//50
f 137//51 151//51 155//51 141//51
f 138//52 152//52 154//52 136//52
f 133//53 151//53 153//53 131//53
f 135//54 136//54 154//54 153//54
f 165//55 166//55 172//55 171//55
f 161//56 164//56 170//56 167//56
f 150//57 149//57 166//57 165//57
f 159//58 148//58 162//58 163//58
f 147//59 160//59 164//59 161//59
f 160//60 150//60 165//60 164//60
f 172//61 169//61 180//61 179//61
f 168//62 167//62 173//62 174//62
f 163//63 162//63 168//63 169//63
f 166//64 163//64 169//64 172//64
f 164//65 165//65 171//65 170//65
f 162//66 161//66 167//66 168//66
f 176//67 175//67 183//67 184//67
f 167//68 170//68 176//68 173//68
f 169//69 168//69 174//69 175//69
f 170//70 169//70 175//70 176//70
f 179//71 180//71 192//71 191//71
f 170//72 171//72 178//72 177//72
f 171//73 172//73 179//73 178//73
f 169//74 170//74 177//74 180//74
f 184//75 183//75 187//75 188//75
f 175//76 174//76 182//76 183//76
f 173//77 176//77 184//77 181//77
f 174//78 173//78 181//78 182//78
f 186//79 185//79 188//79 187//79
f 183//80 182//80 186//80 187//80
f 181//81 184//81 188//81 185//81
f 182//82 181//82 185//82 186//82
f 192//83 189//83 190//83 191//83
f 177//84 178//84 190//84 189//84
f 180//85 177//85 189//85 192//85
f 178//86 179//86 191//86 190//86
f 193//87 194//87 196//87 195//87
f 200//88 199//88 203//88 204//88
f 199//89 200//89 198//89 197//89
f 215//90 216//90 194//90 193//90
f 213//91 199//91 197//91 215//91
f 214//92 196//92 194//92 216//92
f 204//93 203//93 207//93 208//93
f 213//94 195//94 202//94 217//94
f 214//95 200//95 204//95 218//95
f 195//96 196//96 201//96 202//96
f 220//97 208//97 212//97 222//97
f 217//98 202//98 206//98 219//98
f 218//99 204//99 208//99 220//99
f 202//100 201//100 205//100 206//100
f 211//101 221//101 225//101 228//101
f 206//102 205//102 209//102 210//102
f 208//103 207//103 211//103 212//103
f 219//104 206//104 210//104 221//104
f 207//105 219//105 221//105 211//105
f 210//106 209//106 223//106 224//106
f 201//107 218//107 220//107 205//107
f 203//108 217//108 219//108 207//108
f 205//109 220//109 222//109 209//109
f 196//110 214//110 218//110 201//110
f 199//111 213//111 217//111 203//111
f 200//112 214//112 216//112 198//112
f 195//113 213//113 215//113 193//113
f 197//114 198//114 216//114 215//114
f 227//115 228//115 234//115 233//115
f 223//116 226//116 232//116 229//116
f 212//117 211//117 228//117 227//117
f 221//118 210//118 224//118 225//118
f 209//119 222//119 226//119 223//119
f 222//120 212//120 227//120 226//120
f 234//121 231//121 242//121 241//121
f 230//122 229//122 235//122 236//122
f 225//123 224//123 230//123 231//123
f 228//124 225//124 231//124 234//124
f 226//125 227//125 233//125 232//125
f 224//126 223//126 229//126 230//126
f 238//127 237//127 245//127 246//127
f 229//128 232//128 238//128 235//128
f 231//129 230//129 236//129 237//129
f 232//130 231//130 237//130 238//130
f 241//131 242//131 254//131 253//131
f 232//132 233//132 240//132 239//132
f 233//133 234//133 241//133 240//133
f 231//134 232//134 239//134 242//134
f 246//135 245//135 249//135 250//135
f 237//136 236//136 244//136 245//136
f 235//137 238//137 246//137 243//137
f 236//138 235//138 243//138 244//138
f 248//139 247//139 250//139 249//139
f 245//140 244//140 248//140 249//140
f 243//141 246//141 250//141 247//141
f 244//142 243//142 247//142 248//142
f 254//143 251//143 252//143 253//143
f 239//144 240//144 252//144 251//144
f 242//145 239//145 251//145 254//145
f 240//146 241//146 253//146 252//146
