# Blender v2.91.2 OBJ File: 'camionnete02.blend'
# www.blender.org
mtllib arme_000229.mtl
o Cube.046_Cube.010
v 358.845154 306.166534 -1001.239563
v 314.842407 105.018829 -1079.868164
v 512.134705 333.604279 -1157.215820
v 468.131958 132.456573 -1235.844482
v 206.709778 391.991180 -1135.656982
v 162.707001 190.843414 -1214.285400
v 359.999268 419.428864 -1291.633057
v 315.996582 218.281189 -1370.261963
v 147.795959 268.390228 -786.491089
v 103.793182 67.242523 -865.119690
v -48.342224 153.067108 -999.537048
v -4.339478 354.214874 -920.908447
v 52.282318 251.293976 -689.303284
v 8.279541 50.146210 -767.931946
v -143.855927 135.970825 -902.349243
v -99.853149 337.118561 -823.720642
v -4.142883 241.194275 -631.889160
v -26.606506 96.498932 -698.574951
v -178.742020 182.323578 -832.992371
v -156.278366 327.018890 -766.306458
v 96.149017 451.819855 -610.917786
v -55.986389 537.644409 -745.335144
v 39.723846 441.720123 -553.503601
v -112.411591 527.544800 -687.920959
v 180.723511 274.284027 -819.995789
v 136.720764 73.136322 -898.624390
v 28.588104 360.108612 -954.413208
v -15.414673 158.960907 -1033.041748
v 162.321594 334.790558 -760.535217
v 10.186188 420.615265 -894.952576
v 195.249146 340.684357 -794.039917
v 43.113708 426.508942 -928.457214
v 183.395966 431.126678 -722.877441
v 31.260498 516.951294 -857.294800
v 216.323486 437.020416 -756.382202
v 64.188080 522.845093 -890.799500
v 68.966705 318.080719 -665.544067
v -83.168762 403.905304 -799.961365
v 90.041046 414.416840 -627.886230
v -62.094391 500.241425 -762.303650
v 159.083008 583.030151 -598.370239
v 6.947571 668.854736 -732.787659
v 102.657776 572.930420 -540.956177
v -49.477631 658.755005 -675.373413
v 458.018799 323.917938 -1102.151367
v 414.016052 122.770233 -1180.780029
v 305.883362 409.742584 -1236.568726
v 261.880554 208.594788 -1315.197266
v 436.066956 376.516632 -1224.424561
v 392.064270 175.368927 -1303.053223
v 282.777527 349.078888 -1068.448242
v 238.774780 147.931122 -1147.076904
v 71.728241 311.302521 -853.699768
v 27.725464 110.154816 -932.328369
v -23.785400 294.206268 -756.511963
v -67.275574 97.112915 -818.373535
v -80.210602 284.106537 -699.097778
v -90.799316 128.368652 -771.605957
v 20.081299 494.732147 -678.126343
v -36.343842 484.632416 -620.712280
v 60.653046 116.048615 -965.833069
v 104.655792 317.196320 -887.204529
v 86.253906 377.702911 -827.743958
v 119.181427 383.596588 -861.248535
v 107.328247 474.039032 -790.086121
v 140.255768 479.932770 -823.590881
v -7.101013 360.993073 -732.752747
v 13.973328 457.329132 -695.094910
v 83.015259 625.942505 -665.578979
v 26.590057 615.842651 -608.164795
v 337.948242 165.682526 -1247.988770
v 381.950989 366.830231 -1169.359863
v 474.100830 355.060455 -1190.820068
v 276.808594 126.474976 -1113.472412
v 65.759338 88.698700 -898.724060
v -41.629227 82.644989 -795.713989
v -65.152985 113.900726 -748.946411
v 142.689636 295.740143 -853.600098
v 157.215271 362.140533 -827.644226
v 178.289642 458.476593 -789.986511
v 419.984924 345.374115 -1135.755737
v 430.098145 153.912750 -1269.448730
v 320.811340 327.622711 -1034.843994
v 109.762085 289.846405 -820.095520
v 14.248413 272.750153 -722.907654
v -42.176758 262.650421 -665.493408
v 58.115204 473.275970 -644.522095
v 1.690002 463.176239 -587.107910
v 98.686890 94.592468 -932.228821
v 124.287781 356.246735 -794.139587
v 145.362061 452.582855 -756.481812
v 30.932831 339.536896 -699.148376
v 52.007172 435.872955 -661.490540
v 121.049103 604.486328 -631.974609
v 64.623932 594.386475 -574.560486
v 375.982117 144.226379 -1214.384399
v 90.447998 56.930298 -946.950867
v 52.414124 78.386414 -980.555237
v 367.743225 106.564270 -1229.106689
v 329.709412 128.020355 -1262.710815
v 230.535828 110.268951 -1161.799072
v 268.569702 88.812805 -1128.194580
v 482.219421 226.686127 -1039.272217
v 438.365845 218.836700 -994.650208
v 418.908386 129.891144 -1029.418823
v 462.761902 137.740692 -1074.041260
v 515.095154 208.139923 -1010.225586
v 471.241577 200.290436 -965.603333
v 451.784119 111.344940 -1000.372070
v 495.637634 119.194489 -1044.994385
v 565.405457 179.758331 -965.774658
v 521.551880 171.908844 -921.152405
v 502.094299 82.963379 -955.921143
v 545.947876 90.812897 -1000.543518
v 597.779541 161.495087 -937.171143
v 553.925964 153.645599 -892.548889
v 534.468445 64.700104 -927.317566
v 578.321960 72.549622 -971.939819
v 933.683411 244.050995 -1781.860107
v 895.649597 265.507172 -1815.464355
v 939.652283 466.654938 -1736.835938
v 977.686218 445.198761 -1703.231445
v 124.897705 682.757446 -650.042542
v 54.805420 722.298828 -711.971802
v 72.904907 673.451050 -597.138367
v 2.812683 712.992432 -659.067627
v 142.997284 633.909790 -535.209351
v 194.990021 643.216187 -588.113220
v 159.943909 662.986938 -619.077759
v 107.951111 653.680298 -566.173889
vn 0.6902 -0.3894 0.6099
vn 0.6955 0.1245 -0.7077
vn -0.6902 0.3894 -0.6099
vn 0.1996 0.9126 0.3567
vn -0.1996 -0.9126 -0.3567
vn -0.6955 -0.1245 0.7077
vn -0.6113 -0.7647 0.2036
vn -0.2754 -0.8825 -0.3812
vn -0.7679 -0.1935 0.6107
vn -0.6913 0.3888 -0.6091
vn 0.6913 -0.3888 0.6091
vn 0.5813 -0.2035 -0.7878
vn 0.5779 -0.2104 -0.7885
vn -0.5813 0.2035 0.7878
vn 0.9110 -0.0388 -0.4106
vn -0.5747 0.6875 -0.4439
vn -0.6834 -0.2436 0.6881
vn -0.1939 -0.9314 -0.3079
vn -0.5405 0.2829 0.7924
vn -0.7169 -0.2536 0.6494
vn -0.2450 -0.9188 -0.3094
vn -0.3678 -0.2677 0.8906
vn 0.2144 -0.9760 0.0390
vn 0.5474 0.5463 0.6340
vn 0.6627 -0.4917 0.5648
usemtl Matériau.011
s off
f 45//1 46//1 4//1 3//1
f 49//2 50//2 8//2 7//2
f 47//3 48//3 6//3 5//3
f 26//1 25//1 9//1 10//1
f 72//4 47//4 5//4 51//4
f 96//5 46//5 2//5 74//5
f 10//1 9//1 13//1 14//1
f 84//6 9//6 29//6 90//6
f 89//5 26//5 10//5 75//5
f 27//3 28//3 11//3 12//3
f 76//7 14//7 18//7 77//7
f 75//8 10//8 14//8 76//8
f 12//3 11//3 15//3 16//3
f 53//4 12//4 16//4 55//4
f 86//9 77//9 18//9 17//9
f 16//10 15//10 19//10 20//10
f 16//3 20//3 24//3 22//3
f 14//11 13//11 17//11 18//11
f 59//12 22//12 42//12 69//12
f 86//6 17//6 23//6 88//6
f 17//1 13//1 21//1 23//1
f 55//2 16//2 22//2 59//2
f 5//3 6//3 28//3 27//3
f 74//5 2//5 26//5 89//5
f 51//4 5//4 27//4 62//4
f 2//1 1//1 25//1 26//1
f 32//3 30//3 34//3 36//3
f 62//2 27//2 32//2 64//2
f 27//3 12//3 30//3 32//3
f 9//1 25//1 31//1 29//1
f 66//4 36//4 34//4 65//4
f 90//5 29//5 37//5 92//5
f 64//2 32//2 36//2 66//2
f 29//1 31//1 35//1 33//1
f 92//6 37//6 39//6 93//6
f 29//1 33//1 39//1 37//1
f 34//3 30//3 38//3 40//3
f 65//4 34//4 40//4 68//4
f 69//13 42//13 124//13 123//13
f 23//1 21//1 41//1 43//1
f 88//14 23//14 43//14 95//14
f 22//3 24//3 44//3 42//3
f 82//5 4//5 46//5 96//5
f 49//4 7//4 47//4 72//4
f 7//3 8//3 48//3 47//3
f 46//15 45//15 103//15 106//15
f 73//4 49//4 72//4 81//4
f 8//5 50//5 71//5 48//5
f 24//14 60//14 70//14 44//14
f 42//16 44//16 126//16 124//16
f 91//4 65//4 68//4 93//4
f 38//6 67//6 68//6 40//6
f 79//2 64//2 66//2 80//2
f 30//5 63//5 67//5 38//5
f 80//4 66//4 65//4 91//4
f 78//2 62//2 64//2 79//2
f 83//4 51//4 62//4 78//4
f 6//5 52//5 61//5 28//5
f 85//2 55//2 59//2 87//2
f 20//6 57//6 60//6 24//6
f 87//12 59//12 69//12 94//12
f 20//17 19//17 58//17 57//17
f 84//4 53//4 55//4 85//4
f 11//18 54//18 56//18 15//18
f 15//7 56//7 58//7 19//7
f 28//5 61//5 54//5 11//5
f 12//6 53//6 63//6 30//6
f 48//5 71//5 52//5 6//5
f 81//4 72//4 51//4 83//4
f 50//3 49//3 121//3 120//3
f 3//2 4//2 82//2 73//2
f 45//4 81//4 83//4 1//4
f 9//4 84//4 85//4 13//4
f 21//12 87//12 94//12 41//12
f 13//2 85//2 87//2 21//2
f 1//4 83//4 78//4 25//4
f 25//2 78//2 79//2 31//2
f 35//4 80//4 91//4 33//4
f 31//2 79//2 80//2 35//2
f 33//4 91//4 93//4 39//4
f 70//19 95//19 130//19 125//19
f 3//4 73//4 81//4 45//4
f 50//5 82//5 96//5 71//5
f 60//14 88//14 95//14 70//14
f 67//6 92//6 93//6 68//6
f 63//5 90//5 92//5 67//5
f 52//3 71//3 100//3 101//3
f 57//6 86//6 88//6 60//6
f 57//20 58//20 77//20 86//20
f 54//21 75//21 76//21 56//21
f 56//7 76//7 77//7 58//7
f 61//5 89//5 75//5 54//5
f 53//6 84//6 90//6 63//6
f 89//6 61//6 98//6 97//6
f 101//5 102//5 97//5 98//5
f 100//5 99//5 102//5 101//5
f 61//3 52//3 101//3 98//3
f 74//1 89//1 97//1 102//1
f 71//2 96//2 99//2 100//2
f 96//1 74//1 102//1 99//1
f 106//2 103//2 107//2 110//2
f 1//22 2//22 105//22 104//22
f 2//23 46//23 106//23 105//23
f 45//24 1//24 104//24 103//24
f 109//5 110//5 114//5 113//5
f 104//6 105//6 109//6 108//6
f 105//5 106//5 110//5 109//5
f 103//4 104//4 108//4 107//4
f 113//5 114//5 118//5 117//5
f 107//4 108//4 112//4 111//4
f 110//2 107//2 111//2 114//2
f 108//6 109//6 113//6 112//6
f 116//1 117//1 118//1 115//1
f 111//4 112//4 116//4 115//4
f 114//2 111//2 115//2 118//2
f 122//2 119//2 120//2 121//2
f 82//5 50//5 120//5 119//5
f 73//1 82//1 119//1 122//1
f 49//4 73//4 122//4 121//4
f 123//4 124//4 126//4 125//4
f 129//4 123//4 125//4 130//4
f 128//4 129//4 130//4 127//4
f 95//19 43//19 127//19 130//19
f 94//13 69//13 123//13 129//13
f 43//25 41//25 128//25 127//25
f 44//19 70//19 125//19 126//19
f 41//13 94//13 129//13 128//13
o Cube.048_Cube.024
v -468.858032 588.149292 117.030617
v -602.937866 388.470032 140.447662
v -409.238983 521.778748 -107.553596
v -551.409058 319.797241 -93.602104
v -679.003784 642.160645 -18.068840
v -747.750244 539.779541 -6.062248
v -648.435486 608.130493 -133.219452
v -717.903992 505.699097 -122.220833
v -428.678009 388.825623 -526.567688
v -348.127258 404.547333 -430.198425
v -373.244751 528.608521 -429.443207
v -453.795441 512.886841 -525.812561
v -260.889191 440.665588 -653.260498
v -201.666565 452.224487 -582.407593
v -220.133453 543.437134 -581.852417
v -279.356110 531.878174 -652.705261
v -154.971313 475.364471 -730.998962
v -111.692139 483.811615 -679.220520
v -125.187561 550.468567 -678.814758
v -168.466736 542.021423 -730.593140
v -505.829224 592.099609 -134.222992
v -653.722595 380.377808 -117.795097
v -568.933716 662.850830 104.172073
v -711.275940 450.866791 129.032166
v -354.032043 467.929138 -430.480164
v -439.546539 451.238647 -532.787964
v -195.015778 501.107819 -592.175171
v -257.887878 488.836670 -667.394287
v -96.857971 521.607056 -695.033203
v -142.804016 512.639404 -750.002502
v -84.150757 486.463440 -792.005249
v -40.871643 494.910522 -740.226929
v -19.862793 539.861694 -762.368103
v -65.809021 530.894104 -817.337097
v -92.420715 559.176270 -796.955078
v -49.141479 567.623291 -745.176819
v -33.515503 495.750854 -835.844116
v 9.763611 504.198059 -784.065735
v 30.772461 549.149109 -806.206970
v -15.173828 540.181519 -861.175903
v -41.785461 568.463623 -840.793884
v 1.493652 576.910706 -789.015625
v 10.000427 478.937073 -853.557617
v 37.857300 484.374084 -820.230469
v 51.379700 513.307129 -834.481567
v 21.806213 507.535095 -869.862671
v 9.001221 582.461975 -888.280396
v -17.610596 610.744019 -867.898193
v 25.668640 619.191162 -816.119995
v 54.947388 591.429565 -833.311218
v 38.835999 466.417267 -866.250305
v 57.616333 470.082703 -843.781799
v 66.732727 489.588623 -853.389648
v 46.795105 485.697266 -877.242554
v 68.571106 465.563080 -883.705261
v 80.311035 467.854431 -869.660034
v 86.009827 480.047729 -875.666016
v 73.546509 477.615173 -890.576782
v 25.042114 611.439209 -890.526428
v 7.347656 630.244324 -876.974121
v 36.124512 635.860901 -842.546021
v 55.592346 617.401917 -853.976746
v -296.175079 470.964539 449.219330
v -410.111725 276.323212 362.439423
v -117.683838 421.802979 300.218536
v -224.037750 233.432648 214.336609
v -382.486664 549.741333 221.898376
v -440.905182 449.943329 177.403839
v -280.349243 526.059998 150.328796
v -345.499847 427.952057 101.467377
v -49.987000 162.902588 -71.356071
v -56.416931 87.585083 26.569462
v 62.602295 109.511597 52.979294
v 71.618347 183.701965 -43.033615
v 22.473694 -8.971130 -181.357941
v 15.600220 -67.198608 -109.084999
v 105.007263 -51.906433 -88.261620
v 111.880676 6.321106 -160.534698
v 69.636780 -117.493652 -248.173950
v 64.613770 -160.045593 -195.357727
v 129.951172 -148.870178 -180.140320
v 134.974243 -106.318359 -232.956451
v -168.543884 495.961121 236.935059
v -293.632416 299.018982 137.870270
v -370.215149 551.188354 387.227325
v -491.172913 344.552612 295.099640
v 2.676514 87.396851 40.838562
v 12.601379 171.474487 -63.519814
v 65.139221 -75.729797 -107.554420
v 72.436096 -13.913940 -184.280945
v 104.396606 -176.483459 -202.119202
v 109.729187 -131.309387 -258.189941
v 91.408386 -189.807190 -304.363495
v 86.385254 -232.358887 -251.547302
v 134.318787 -255.335693 -262.801849
v 139.651367 -210.161804 -318.872589
v 163.643616 -184.165833 -292.948578
v 158.620544 -226.717651 -240.132416
v 108.340576 -241.561035 -344.449188
v 103.317566 -284.112915 -291.632996
v 151.251099 -307.089905 -302.887634
v 156.583557 -261.915771 -358.958466
v 180.575928 -235.919739 -333.034302
v 175.552795 -278.471619 -280.218201
v 94.273987 -284.795898 -365.015930
v 91.040894 -312.184753 -331.020630
v 121.893494 -326.973999 -338.264709
v 125.325745 -297.897400 -374.354980
v 202.906921 -288.058350 -375.614746
v 226.899170 -262.062195 -349.690582
v 221.876160 -304.614075 -296.874573
v 197.574341 -333.232300 -319.544006
v 83.824463 -313.415405 -379.884064
v 81.644836 -331.880249 -356.965332
v 102.444885 -341.850952 -361.849365
v 104.758850 -322.248047 -386.180237
v 85.768005 -343.430420 -396.763763
v 84.405457 -354.972778 -382.437042
v 97.407776 -361.205322 -385.489899
v 98.854309 -348.951660 -400.699432
v 231.017395 -305.136719 -371.123810
v 246.970154 -287.851746 -353.886597
v 243.630188 -316.144775 -318.768463
v 227.471680 -335.173584 -333.841522
vn 0.7889 -0.5108 0.3416
vn -0.4136 0.8164 -0.4031
vn -0.7934 0.4957 -0.3532
vn -0.0270 0.1343 0.9906
vn 0.1055 0.9607 -0.2568
vn -0.5161 -0.8469 0.1280
vn -0.1400 0.9892 -0.0444
vn 0.7900 0.6122 0.0330
vn -0.8013 -0.3293 -0.4996
vn 0.6447 -0.7367 0.2039
vn -0.5797 0.0064 -0.8148
vn 0.7079 0.0583 0.7039
vn -0.5881 -0.0334 -0.8081
vn 0.2557 -0.9651 -0.0563
vn 0.6222 0.1840 0.7609
vn 0.2666 -0.9615 -0.0660
vn -0.1286 0.9902 -0.0541
vn 0.7245 0.0237 0.6888
vn 0.6783 0.2519 0.6902
vn 0.1703 -0.9852 0.0184
vn -0.5567 -0.1885 -0.8090
vn 0.6765 0.2134 0.7049
vn -0.5335 -0.2218 -0.8162
vn -0.6382 -0.6776 -0.3654
vn 0.4283 0.9036 -0.0020
vn -0.8817 -0.4652 -0.0783
vn 0.6016 0.7952 -0.0760
vn -0.6779 0.5166 0.5230
vn -0.1851 0.9827 -0.0056
vn -0.6259 -0.1749 -0.7600
vn -0.2081 0.9780 0.0144
vn 0.6463 0.0687 0.7600
vn -0.6244 -0.1793 -0.7602
vn -0.6481 -0.0639 -0.7588
vn 0.6052 0.1546 0.7809
vn -0.2190 -0.9173 0.3327
vn 0.6451 0.0731 0.7606
vn 0.6232 0.1870 0.7594
vn -0.6469 -0.0609 -0.7601
vn 0.1851 -0.9827 0.0056
vn 0.4740 0.7157 -0.5129
vn -0.4552 -0.2917 -0.8413
vn 0.7747 -0.0517 0.6302
vn 0.4912 0.6958 -0.5240
vn 0.7215 0.4201 0.5504
vn -0.6661 -0.0935 -0.7400
vn -0.6379 0.6397 0.4288
vn 0.6379 -0.6397 -0.4288
vn 0.1479 0.9490 -0.2785
vn 0.7562 -0.0315 0.6536
vn -0.4845 -0.2737 -0.8309
vn -0.2400 -0.9061 0.3484
vn 0.6810 -0.5541 -0.4788
vn 0.7505 -0.0255 0.6604
vn -0.4934 -0.2681 -0.8274
vn 0.0446 -0.9912 0.1244
vn 0.4337 0.7586 -0.4863
vn -0.4626 0.1889 -0.8662
vn 0.7226 -0.4413 -0.5320
vn -0.5167 0.8015 0.3011
vn 0.4308 -0.5650 0.7037
vn 0.5531 0.7606 -0.3399
vn -0.3958 0.5822 -0.7103
vn -0.6283 0.0211 0.7777
vn 0.2444 0.9696 -0.0101
vn -0.4441 -0.8387 -0.3151
vn 0.9789 0.1051 0.1751
vn 0.9455 0.1000 0.3098
vn -0.4618 -0.0763 -0.8837
vn -0.0928 -0.8248 0.5578
vn 0.2109 0.5635 -0.7988
vn -0.1579 -0.6942 0.7022
vn 0.1709 0.5734 -0.8012
vn -0.9409 -0.2269 -0.2516
vn -0.0150 -0.6136 0.7895
vn -0.9318 -0.2342 -0.2773
vn 0.9813 0.0930 0.1683
vn -0.1589 -0.7117 0.6843
vn 0.0649 -0.6734 0.7364
vn -0.9701 -0.1355 -0.2015
vn 0.0189 0.5474 -0.8367
vn 0.0630 -0.6531 0.7546
vn -0.0129 0.5252 -0.8509
vn -0.7055 -0.5162 -0.4857
vn 0.8087 0.5637 -0.1681
vn -0.6202 -0.4340 -0.6535
vn 0.5235 0.7506 0.4031
vn -0.8730 0.4840 0.0606
vn 0.9653 0.1507 0.2132
vn 0.0238 0.6170 -0.7866
vn 0.9571 0.1742 0.2314
vn -0.1280 -0.6337 0.7630
vn 0.0195 0.6157 -0.7877
vn 0.1325 0.6354 -0.7608
vn -0.0474 -0.5952 0.8022
vn -0.9594 0.2570 0.1158
vn -0.1237 -0.6326 0.7645
vn -0.0118 -0.6147 0.7887
vn 0.1356 0.6340 -0.7613
vn -0.9653 -0.1507 -0.2132
vn 0.7938 -0.5083 -0.3340
vn -0.0783 0.4489 -0.8901
vn -0.2210 -0.7603 0.6108
vn 0.7762 -0.5249 -0.3491
vn 0.2583 -0.7250 0.6385
vn 0.1001 0.6547 -0.7492
vn 0.5512 0.6233 0.5546
vn -0.5512 -0.6233 -0.5546
vn 0.9809 -0.1861 -0.0566
vn -0.2059 -0.7421 0.6379
vn -0.0619 0.4778 -0.8763
vn -0.9513 0.2780 0.1335
vn -0.4583 -0.6703 -0.5836
vn -0.2014 -0.7364 0.6458
vn -0.0569 0.4866 -0.8718
vn -0.9949 -0.0077 -0.1008
vn 0.8311 -0.4690 -0.2988
vn 0.3957 0.4392 -0.8066
vn -0.3381 -0.7169 -0.6097
vn 0.7328 0.4942 0.4678
usemtl Matériau.012
s off
f 131//26 132//26 134//26 133//26
f 138//27 137//27 141//27 142//27
f 137//28 138//28 136//28 135//28
f 153//29 154//29 132//29 131//29
f 151//30 137//30 135//30 153//30
f 152//31 134//31 132//31 154//31
f 142//32 141//32 145//32 146//32
f 151//33 133//33 140//33 155//33
f 152//34 138//34 142//34 156//34
f 133//35 134//35 139//35 140//35
f 158//36 146//36 150//36 160//36
f 155//37 140//37 144//37 157//37
f 156//38 142//38 146//38 158//38
f 140//39 139//39 143//39 144//39
f 149//40 159//40 163//40 166//40
f 144//41 143//41 147//41 148//41
f 146//42 145//42 149//42 150//42
f 157//43 144//43 148//43 159//43
f 145//44 157//44 159//44 149//44
f 148//45 147//45 161//45 162//45
f 139//46 156//46 158//46 143//46
f 141//47 155//47 157//47 145//47
f 143//48 158//48 160//48 147//48
f 134//49 152//49 156//49 139//49
f 137//50 151//50 155//50 141//50
f 138//51 152//51 154//51 136//51
f 133//52 151//52 153//52 131//52
f 135//53 136//53 154//53 153//53
f 165//54 166//54 172//54 171//54
f 161//55 164//55 170//55 167//55
f 150//56 149//56 166//56 165//56
f 159//57 148//57 162//57 163//57
f 147//58 160//58 164//58 161//58
f 160//59 150//59 165//59 164//59
f 172//60 169//60 180//60 179//60
f 168//61 167//61 173//61 174//61
f 163//62 162//62 168//62 169//62
f 166//63 163//63 169//63 172//63
f 164//64 165//64 171//64 170//64
f 162//65 161//65 167//65 168//65
f 176//66 175//66 183//66 184//66
f 167//67 170//67 176//67 173//67
f 169//68 168//68 174//68 175//68
f 170//69 169//69 175//69 176//69
f 179//70 180//70 192//70 191//70
f 170//71 171//71 178//71 177//71
f 171//72 172//72 179//72 178//72
f 169//73 170//73 177//73 180//73
f 184//74 183//74 187//74 188//74
f 175//75 174//75 182//75 183//75
f 173//76 176//76 184//76 181//76
f 174//77 173//77 181//77 182//77
f 186//78 185//78 188//78 187//78
f 183//79 182//79 186//79 187//79
f 181//80 184//80 188//80 185//80
f 182//81 181//81 185//81 186//81
f 192//82 189//82 190//82 191//82
f 177//83 178//83 190//83 189//83
f 180//84 177//84 189//84 192//84
f 178//85 179//85 191//85 190//85
f 193//86 194//86 196//86 195//86
f 200//87 199//87 203//87 204//87
f 199//88 200//88 198//88 197//88
f 215//89 216//89 194//89 193//89
f 213//90 199//90 197//90 215//90
f 214//91 196//91 194//91 216//91
f 204//92 203//92 207//92 208//92
f 213//93 195//93 202//93 217//93
f 214//94 200//94 204//94 218//94
f 195//95 196//95 201//95 202//95
f 220//96 208//96 212//96 222//96
f 217//97 202//97 206//97 219//97
f 218//98 204//98 208//98 220//98
f 202//99 201//99 205//99 206//99
f 211//100 221//100 225//100 228//100
f 206//101 205//101 209//101 210//101
f 208//102 207//102 211//102 212//102
f 219//103 206//103 210//103 221//103
f 207//104 219//104 221//104 211//104
f 210//105 209//105 223//105 224//105
f 201//106 218//106 220//106 205//106
f 203//107 217//107 219//107 207//107
f 205//108 220//108 222//108 209//108
f 196//109 214//109 218//109 201//109
f 199//110 213//110 217//110 203//110
f 200//111 214//111 216//111 198//111
f 195//112 213//112 215//112 193//112
f 197//113 198//113 216//113 215//113
f 227//114 228//114 234//114 233//114
f 223//115 226//115 232//115 229//115
f 212//116 211//116 228//116 227//116
f 221//117 210//117 224//117 225//117
f 209//118 222//118 226//118 223//118
f 222//119 212//119 227//119 226//119
f 234//120 231//120 242//120 241//120
f 230//121 229//121 235//121 236//121
f 225//122 224//122 230//122 231//122
f 228//123 225//123 231//123 234//123
f 226//124 227//124 233//124 232//124
f 224//125 223//125 229//125 230//125
f 238//126 237//126 245//126 246//126
f 229//127 232//127 238//127 235//127
f 231//128 230//128 236//128 237//128
f 232//129 231//129 237//129 238//129
f 241//130 242//130 254//130 253//130
f 232//131 233//131 240//131 239//131
f 233//132 234//132 241//132 240//132
f 231//133 232//133 239//133 242//133
f 246//134 245//134 249//134 250//134
f 237//135 236//135 244//135 245//135
f 235//136 238//136 246//136 243//136
f 236//137 235//137 243//137 244//137
f 248//138 247//138 250//138 249//138
f 245//139 244//139 248//139 249//139
f 243//140 246//140 250//140 247//140
f 244//141 243//141 247//141 248//141
f 254//142 251//142 252//142 253//142
f 239//143 240//143 252//143 251//143
f 242//144 239//144 251//144 254//144
f 240//145 241//145 253//145 252//145
