# Blender v2.91.2 OBJ File: 'camionnete02.blend'
# www.blender.org
mtllib arme_000235.mtl
o Cube.046_Cube.010
v 607.980835 529.472168 -529.402466
v 576.088196 366.144348 -673.922363
v 806.627686 567.996521 -616.777710
v 774.734985 404.668762 -761.297668
v 517.973022 672.367249 -671.031067
v 486.080261 509.039490 -815.551025
v 716.619751 710.891541 -758.406311
v 684.727051 547.563843 -902.926270
v 334.483704 476.431824 -409.104065
v 302.591003 313.104065 -553.623901
v 212.583008 455.999084 -695.252441
v 244.475769 619.326904 -550.732544
v 210.708252 452.427490 -354.660980
v 178.815491 289.099731 -499.181000
v 88.807495 431.994812 -640.809570
v 120.700256 595.322632 -496.289642
v 137.587219 438.246887 -322.498627
v 126.674744 321.700378 -432.889771
v 36.666748 464.595520 -574.518311
v 47.579224 581.142029 -464.127167
v 377.154297 484.707031 -427.872772
v 345.261597 321.379272 -572.392700
v 287.146301 627.602173 -569.501404
v 255.253601 464.274353 -714.021362
v 736.499268 554.396240 -585.931580
v 704.606567 391.068481 -730.451538
v 646.491272 697.291260 -727.560181
v 614.598511 533.963501 -872.080078
v 761.623657 639.444092 -687.592041
v 729.731079 476.116272 -832.112061
v 562.976990 600.919739 -600.216797
v 531.084290 437.591919 -744.736694
v 289.479675 547.879333 -479.918304
v 257.586975 384.551514 -624.438232
v 165.704224 523.875061 -425.475311
v 128.984894 360.038696 -553.433838
v 92.583252 509.694397 -393.312866
v 93.826263 382.021484 -508.733490
v 300.257568 392.826843 -643.207031
v 332.150330 556.154602 -498.687103
v 659.602539 462.515930 -801.265869
v 691.495239 625.843750 -656.745850
v 784.125610 603.720276 -652.184753
v 553.586243 401.868164 -709.329590
v 280.088989 348.827759 -589.031128
v 144.158081 335.950134 -529.558777
v 108.999359 357.932800 -484.858368
v 354.652283 520.430786 -463.279907
v 713.997314 590.120056 -621.338745
v 752.233032 440.392517 -796.704834
v 585.479004 565.195984 -564.809692
v 311.981750 512.155579 -444.511230
v 188.206177 488.151306 -390.068176
v 115.085205 473.970642 -357.905731
v 322.759644 357.103088 -607.799927
v 682.104492 426.792297 -765.858765
v 316.788086 326.522156 -634.859253
v 294.286072 362.245911 -670.266357
v 676.133118 396.211365 -792.918213
v 653.631104 431.935120 -828.325256
v 525.112732 407.011047 -771.796143
v 547.614685 371.287292 -736.389038
v 729.703003 441.653809 -550.768555
v 672.873474 430.632690 -525.772034
v 658.770874 358.410706 -589.677185
v 715.600464 369.432068 -614.673889
v 749.153320 410.775085 -520.163513
v 692.323730 399.753906 -495.166901
v 678.221130 327.531921 -559.072083
v 735.050537 338.553162 -584.068726
v 778.918335 363.520569 -473.327850
v 722.088867 352.499451 -448.331238
v 707.986328 280.277527 -512.236450
v 764.815796 291.298767 -537.233154
v 798.071899 333.112976 -443.189728
v 741.242310 322.091736 -418.193085
v 727.139771 249.869843 -482.098236
v 783.969360 260.891083 -507.094879
v 1404.825439 566.952209 -1083.748779
v 1382.323486 602.676025 -1119.156006
v 1414.216187 766.003906 -974.636047
v 1436.718140 730.280090 -939.228943
vn 0.4084 -0.6483 0.6426
vn 0.9013 0.1748 -0.3964
vn -0.4084 0.6483 -0.6426
vn 0.1447 0.7410 0.6557
vn -0.1447 -0.7410 -0.6557
vn -0.7070 -0.6699 -0.2266
vn -0.2049 -0.6927 -0.6915
vn -0.9423 -0.2028 0.2663
vn -0.4096 0.6477 -0.6424
vn 0.4096 -0.6477 0.6424
vn 0.9893 -0.0944 -0.1116
vn -0.8936 -0.2852 0.3467
vn -0.1574 -0.7723 -0.6154
vn -0.9127 -0.2789 0.2987
vn -0.2037 -0.7509 -0.6282
vn -0.9013 -0.1748 0.3964
vn -0.6679 -0.4158 0.6173
vn 0.1047 -0.9757 -0.1923
vn 0.3460 0.2603 0.9014
usemtl Matériau.011
s off
f 25//1 26//1 4//1 3//1
f 29//2 30//2 8//2 7//2
f 27//3 28//3 6//3 5//3
f 22//1 21//1 9//1 10//1
f 42//4 27//4 5//4 31//4
f 56//5 26//5 2//5 44//5
f 10//1 9//1 13//1 14//1
f 55//5 22//5 10//5 45//5
f 23//3 24//3 11//3 12//3
f 46//6 14//6 18//6 47//6
f 45//7 10//7 14//7 46//7
f 12//3 11//3 15//3 16//3
f 33//4 12//4 16//4 35//4
f 54//8 47//8 18//8 17//8
f 16//9 15//9 19//9 20//9
f 14//10 13//10 17//10 18//10
f 5//3 6//3 24//3 23//3
f 44//5 2//5 22//5 55//5
f 31//4 5//4 23//4 40//4
f 2//1 1//1 21//1 22//1
f 50//5 4//5 26//5 56//5
f 29//4 7//4 27//4 42//4
f 7//3 8//3 28//3 27//3
f 26//11 25//11 63//11 66//11
f 43//4 29//4 42//4 49//4
f 8//5 30//5 41//5 28//5
f 51//4 31//4 40//4 48//4
f 6//5 32//5 39//5 24//5
f 20//12 19//12 38//12 37//12
f 52//4 33//4 35//4 53//4
f 11//13 34//13 36//13 15//13
f 15//6 36//6 38//6 19//6
f 24//5 39//5 34//5 11//5
f 28//5 41//5 32//5 6//5
f 49//4 42//4 31//4 51//4
f 30//3 29//3 81//3 80//3
f 3//2 4//2 50//2 43//2
f 25//4 49//4 51//4 1//4
f 9//4 52//4 53//4 13//4
f 1//4 51//4 48//4 21//4
f 3//4 43//4 49//4 25//4
f 30//5 50//5 56//5 41//5
f 32//3 41//3 60//3 61//3
f 37//14 38//14 47//14 54//14
f 34//15 45//15 46//15 36//15
f 36//6 46//6 47//6 38//6
f 39//5 55//5 45//5 34//5
f 55//16 39//16 58//16 57//16
f 61//5 62//5 57//5 58//5
f 60//5 59//5 62//5 61//5
f 39//3 32//3 61//3 58//3
f 44//1 55//1 57//1 62//1
f 41//2 56//2 59//2 60//2
f 56//1 44//1 62//1 59//1
f 66//2 63//2 67//2 70//2
f 1//17 2//17 65//17 64//17
f 2//18 26//18 66//18 65//18
f 25//19 1//19 64//19 63//19
f 69//5 70//5 74//5 73//5
f 64//16 65//16 69//16 68//16
f 65//5 66//5 70//5 69//5
f 63//4 64//4 68//4 67//4
f 73//5 74//5 78//5 77//5
f 67//4 68//4 72//4 71//4
f 70//2 67//2 71//2 74//2
f 68//16 69//16 73//16 72//16
f 76//1 77//1 78//1 75//1
f 71//4 72//4 76//4 75//4
f 74//2 71//2 75//2 78//2
f 82//2 79//2 80//2 81//2
f 50//5 30//5 80//5 79//5
f 43//1 50//1 79//1 82//1
f 29//4 43//4 82//4 81//4
o Cube.048_Cube.024
v -479.737152 570.320740 135.486298
v -625.020874 379.235748 107.616745
v -388.844421 533.424805 -85.363792
v -540.817993 343.154022 -126.639778
v -663.366760 658.034119 -19.164352
v -737.857849 560.059570 -33.453911
v -616.763550 639.116577 -132.400391
v -691.861389 541.435852 -148.190063
v -323.801422 477.027588 -502.709686
v -279.427643 453.085175 -386.604828
v -292.657715 575.282593 -356.349640
v -337.031372 599.225098 -472.454681
v -119.352905 528.705872 -551.920471
v -86.728394 511.102875 -466.557404
v -96.455383 600.945190 -444.313171
v -129.079956 618.548218 -529.676208
v 9.120728 562.635010 -580.367249
v 32.962280 549.770996 -517.985168
v 25.853821 615.426697 -501.729279
v 2.012268 628.290649 -564.111389
v -476.730957 613.447754 -114.856697
v -634.916992 413.642670 -155.681580
v -572.958252 652.914795 119.711197
v -727.194824 450.054565 90.124268
v -279.466553 514.451721 -369.683258
v -326.574768 539.869507 -492.942963
v -73.033020 558.870239 -458.815155
v -107.667969 577.557983 -549.438660
v 55.423279 587.082642 -516.590637
v 30.112488 600.739380 -582.816895
v 97.034790 576.118042 -611.186462
v 120.876404 563.254028 -548.804321
v 151.870178 607.880005 -549.162659
v 126.559448 621.536804 -615.389099
v 97.147522 647.963745 -596.414001
v 120.989197 635.099731 -534.031921
v 160.081299 587.099304 -633.017334
v 183.922913 574.235352 -570.635193
v 214.916565 618.861206 -570.993591
v 189.605896 632.518005 -637.220032
v 160.194031 658.944946 -618.244995
v 184.035706 646.080872 -555.862854
v 205.420288 567.884155 -641.096863
v 220.766052 559.604187 -600.944336
v 240.715271 588.327820 -601.174927
v 224.423889 597.118042 -643.801941
v 225.013672 675.306030 -641.928833
v 195.601990 701.733032 -622.953918
v 219.443542 688.869019 -560.571716
v 250.324524 661.649292 -575.702576
v 235.668152 554.084534 -647.727783
v 246.013916 548.502319 -620.658020
v 259.463196 567.867065 -620.813538
v 248.479919 573.793213 -649.551270
v 269.359497 552.425903 -654.920349
v 275.826721 548.936462 -637.998657
v 284.234070 561.041504 -638.095886
v 277.368347 564.746094 -656.060364
v 243.280823 700.565430 -630.513000
v 223.724426 718.137085 -617.896362
v 239.576965 709.583618 -576.417664
v 260.110168 691.484924 -586.478333
v -296.655457 469.126221 450.903839
v -421.752197 282.261810 362.416199
v -115.839905 392.500671 316.160675
v -230.197754 216.438782 230.614166
v -358.279449 545.933533 215.036438
v -422.420074 450.122986 169.666351
v -255.408447 508.279541 153.245270
v -324.204773 416.373627 102.087753
v -10.944336 150.170166 -64.341881
v -36.856567 55.007935 10.065731
v 72.445129 67.764954 66.420723
v 100.565369 161.669006 -5.554070
v 89.322205 5.162354 -190.083099
v 68.149353 -67.358459 -135.737000
v 150.133667 -58.904358 -92.514748
v 171.306702 13.616516 -146.861053
v 153.414612 -87.006531 -266.653198
v 137.941589 -140.003662 -226.937592
v 197.854736 -133.825500 -195.351379
v 213.327637 -80.828247 -235.066895
v -155.603149 467.915710 248.086792
v -287.517120 284.868958 146.805573
v -358.070251 553.127808 380.670197
v -490.875824 354.748230 286.729645
v 17.447571 50.771973 37.521271
v 48.020264 155.488281 -40.951859
v 116.315613 -77.061401 -125.008995
v 138.793152 -0.071594 -182.704102
v 178.692993 -155.391357 -228.006256
v 195.119446 -99.128235 -270.169128
v 189.329163 -145.656433 -330.924591
v 173.856201 -198.653564 -291.208954
v 223.745667 -219.604431 -296.141083
v 240.171997 -163.341248 -338.303955
v 256.975769 -144.186279 -302.608154
v 241.502808 -197.183655 -262.892578
v 216.319702 -187.688232 -376.497253
v 200.846680 -240.685364 -336.781738
v 250.736267 -261.636414 -341.713837
v 267.162659 -205.373230 -383.876617
v 283.966431 -186.218201 -348.180786
v 268.493286 -239.215393 -308.465118
v 208.491150 -225.043457 -408.644012
v 198.531921 -259.155518 -383.081024
v 230.643555 -272.640564 -386.255585
v 241.216431 -236.426575 -413.394012
v 316.786194 -228.191040 -394.992218
v 333.590027 -209.036072 -359.296173
v 318.116943 -262.033203 -319.580750
v 300.359863 -284.454102 -352.829407
v 202.481445 -249.471680 -431.370453
v 195.767029 -272.468994 -414.136414
v 217.415894 -281.560364 -416.276886
v 224.543884 -257.145752 -434.572693
v 209.035583 -275.080444 -453.524933
v 204.838379 -289.456360 -442.751678
v 218.371338 -295.139282 -444.089508
v 222.827026 -279.877502 -455.526459
v 343.665833 -246.428589 -388.141479
v 354.838684 -233.692017 -364.406738
v 344.550476 -268.930542 -337.999237
v 332.743591 -283.838745 -360.106628
vn 0.7000 -0.6123 0.3675
vn -0.2360 0.9235 -0.3025
vn -0.7040 0.5973 -0.3843
vn -0.1755 -0.0101 0.9844
vn 0.1893 0.9781 -0.0864
vn -0.5687 -0.8181 -0.0855
vn -0.0320 0.9764 0.2136
vn 0.8054 0.5253 0.2748
vn -0.6802 -0.1373 -0.7201
vn 0.5384 -0.8199 0.1947
vn -0.2682 0.3168 -0.9098
vn 0.4314 -0.2499 0.8669
vn -0.2818 0.2788 -0.9181
vn 0.1764 -0.9485 -0.2630
vn 0.3425 -0.1297 0.9305
vn 0.1902 -0.9446 -0.2675
vn -0.0179 0.9779 0.2085
vn 0.4491 -0.2819 0.8478
vn 0.4248 -0.0571 0.9035
vn 0.0695 -0.9714 -0.2269
vn -0.2653 0.1260 -0.9559
vn 0.4148 -0.0971 0.9047
vn -0.2439 0.0920 -0.9654
vn -0.5881 -0.5172 -0.6218
vn 0.4741 0.8508 0.2269
vn -0.8795 -0.3860 -0.2784
vn 0.6425 0.7538 0.1376
vn -0.7266 0.4809 0.4907
vn -0.0879 0.9684 0.2333
vn -0.3455 0.1387 -0.9281
vn -0.1166 0.9630 0.2431
vn 0.3555 -0.2434 0.9024
vn -0.3445 0.1343 -0.9291
vn -0.3573 0.2479 -0.9005
vn 0.3173 -0.1597 0.9348
vn -0.3957 -0.9176 -0.0380
vn 0.3546 -0.2390 0.9039
vn 0.3442 -0.1266 0.9303
vn -0.3555 0.2509 -0.9004
vn 0.0879 -0.9684 -0.2333
vn 0.6783 0.7266 -0.1094
vn -0.1680 0.0180 -0.9856
vn 0.5095 -0.3476 0.7871
vn 0.6965 0.7074 -0.1203
vn 0.5267 0.1306 0.8400
vn -0.3830 0.2182 -0.8976
vn -0.6882 0.6123 0.3893
vn 0.6882 -0.6123 -0.3893
vn 0.3134 0.9466 0.0754
vn 0.4860 -0.3310 0.8088
vn -0.1975 0.0378 -0.9796
vn -0.4197 -0.9072 -0.0267
vn 0.7527 -0.5259 -0.3961
vn 0.4789 -0.3260 0.8151
vn -0.2065 0.0438 -0.9775
vn -0.0846 -0.9818 -0.1701
vn 0.6353 0.7677 -0.0845
vn -0.1256 0.4826 -0.8668
vn 0.8193 -0.4125 -0.3982
vn -0.5177 0.7771 0.3581
vn 0.3206 -0.5731 0.7541
vn 0.6369 0.7450 -0.1983
vn -0.2794 0.5882 -0.7589
vn -0.6788 0.1107 0.7259
vn 0.3621 0.9319 -0.0203
vn -0.4969 -0.8070 -0.3191
vn 0.9105 0.0425 0.4113
vn 0.9184 0.0371 0.3938
vn -0.3709 -0.0201 -0.9285
vn -0.1348 -0.8522 0.5056
vn 0.3678 0.7206 -0.5878
vn -0.2912 -0.8279 0.4793
vn 0.3291 0.7316 -0.5970
vn -0.8529 -0.1455 -0.5014
vn -0.1734 -0.7715 0.6121
vn -0.8387 -0.1479 -0.5241
vn 0.9156 0.0330 0.4008
vn -0.2871 -0.8411 0.4584
vn -0.0820 -0.8199 0.5666
vn -0.8959 -0.0675 -0.4391
vn 0.1897 0.7173 -0.6705
vn -0.0883 -0.8040 0.5880
vn 0.1626 0.6994 -0.6960
vn -0.6693 -0.4619 -0.5820
vn 0.8410 0.5296 -0.1108
vn -0.6087 -0.4023 -0.6838
vn 0.5783 0.7122 0.3979
vn -0.8256 0.5638 -0.0234
vn 0.8882 0.0798 0.4525
vn 0.1812 0.7741 -0.6066
vn 0.8755 0.0989 0.4730
vn -0.2770 -0.7829 0.5571
vn 0.1773 0.7731 -0.6090
vn 0.2808 0.7840 -0.5536
vn -0.2084 -0.7557 0.6209
vn -0.9681 0.2455 -0.0495
vn -0.2732 -0.7823 0.5597
vn -0.1701 -0.7725 0.6118
vn 0.2840 0.7828 -0.5537
vn -0.8882 -0.0798 -0.4525
vn 0.8630 -0.4391 -0.2498
vn 0.1099 0.6350 -0.7647
vn -0.3298 -0.8711 0.3640
vn 0.8498 -0.4517 -0.2717
vn 0.1299 -0.8528 0.5058
vn 0.2461 0.8010 -0.5457
vn 0.3945 0.4745 0.7869
vn -0.3945 -0.4745 -0.7869
vn 0.9737 -0.1898 0.1261
vn -0.3217 -0.8595 0.3971
vn 0.1219 0.6598 -0.7415
vn -0.9647 0.2619 -0.0264
vn -0.2961 -0.5159 -0.8038
vn -0.3192 -0.8559 0.4069
vn 0.1255 0.6673 -0.7342
vn -0.9464 0.0356 -0.3212
vn 0.8903 -0.4094 -0.1994
vn 0.5532 0.5971 -0.5809
vn -0.1718 -0.5582 -0.8118
vn 0.5946 0.3638 0.7171
usemtl Matériau.012
s off
f 83//20 84//20 86//20 85//20
f 90//21 89//21 93//21 94//21
f 89//22 90//22 88//22 87//22
f 105//23 106//23 84//23 83//23
f 103//24 89//24 87//24 105//24
f 104//25 86//25 84//25 106//25
f 94//26 93//26 97//26 98//26
f 103//27 85//27 92//27 107//27
f 104//28 90//28 94//28 108//28
f 85//29 86//29 91//29 92//29
f 110//30 98//30 102//30 112//30
f 107//31 92//31 96//31 109//31
f 108//32 94//32 98//32 110//32
f 92//33 91//33 95//33 96//33
f 101//34 111//34 115//34 118//34
f 96//35 95//35 99//35 100//35
f 98//36 97//36 101//36 102//36
f 109//37 96//37 100//37 111//37
f 97//38 109//38 111//38 101//38
f 100//39 99//39 113//39 114//39
f 91//40 108//40 110//40 95//40
f 93//41 107//41 109//41 97//41
f 95//42 110//42 112//42 99//42
f 86//43 104//43 108//43 91//43
f 89//44 103//44 107//44 93//44
f 90//45 104//45 106//45 88//45
f 85//46 103//46 105//46 83//46
f 87//47 88//47 106//47 105//47
f 117//48 118//48 124//48 123//48
f 113//49 116//49 122//49 119//49
f 102//50 101//50 118//50 117//50
f 111//51 100//51 114//51 115//51
f 99//52 112//52 116//52 113//52
f 112//53 102//53 117//53 116//53
f 124//54 121//54 132//54 131//54
f 120//55 119//55 125//55 126//55
f 115//56 114//56 120//56 121//56
f 118//57 115//57 121//57 124//57
f 116//58 117//58 123//58 122//58
f 114//59 113//59 119//59 120//59
f 128//60 127//60 135//60 136//60
f 119//61 122//61 128//61 125//61
f 121//62 120//62 126//62 127//62
f 122//63 121//63 127//63 128//63
f 131//64 132//64 144//64 143//64
f 122//65 123//65 130//65 129//65
f 123//66 124//66 131//66 130//66
f 121//67 122//67 129//67 132//67
f 136//68 135//68 139//68 140//68
f 127//69 126//69 134//69 135//69
f 125//70 128//70 136//70 133//70
f 126//71 125//71 133//71 134//71
f 138//72 137//72 140//72 139//72
f 135//73 134//73 138//73 139//73
f 133//74 136//74 140//74 137//74
f 134//75 133//75 137//75 138//75
f 144//76 141//76 142//76 143//76
f 129//77 130//77 142//77 141//77
f 132//78 129//78 141//78 144//78
f 130//79 131//79 143//79 142//79
f 145//80 146//80 148//80 147//80
f 152//81 151//81 155//81 156//81
f 151//82 152//82 150//82 149//82
f 167//83 168//83 146//83 145//83
f 165//84 151//84 149//84 167//84
f 166//85 148//85 146//85 168//85
f 156//86 155//86 159//86 160//86
f 165//87 147//87 154//87 169//87
f 166//88 152//88 156//88 170//88
f 147//89 148//89 153//89 154//89
f 172//90 160//90 164//90 174//90
f 169//91 154//91 158//91 171//91
f 170//92 156//92 160//92 172//92
f 154//93 153//93 157//93 158//93
f 163//94 173//94 177//94 180//94
f 158//95 157//95 161//95 162//95
f 160//96 159//96 163//96 164//96
f 171//97 158//97 162//97 173//97
f 159//98 171//98 173//98 163//98
f 162//99 161//99 175//99 176//99
f 153//100 170//100 172//100 157//100
f 155//101 169//101 171//101 159//101
f 157//102 172//102 174//102 161//102
f 148//103 166//103 170//103 153//103
f 151//104 165//104 169//104 155//104
f 152//105 166//105 168//105 150//105
f 147//106 165//106 167//106 145//106
f 149//107 150//107 168//107 167//107
f 179//108 180//108 186//108 185//108
f 175//109 178//109 184//109 181//109
f 164//110 163//110 180//110 179//110
f 173//111 162//111 176//111 177//111
f 161//112 174//112 178//112 175//112
f 174//113 164//113 179//113 178//113
f 186//114 183//114 194//114 193//114
f 182//115 181//115 187//115 188//115
f 177//116 176//116 182//116 183//116
f 180//117 177//117 183//117 186//117
f 178//118 179//118 185//118 184//118
f 176//119 175//119 181//119 182//119
f 190//120 189//120 197//120 198//120
f 181//121 184//121 190//121 187//121
f 183//122 182//122 188//122 189//122
f 184//123 183//123 189//123 190//123
f 193//124 194//124 206//124 205//124
f 184//125 185//125 192//125 191//125
f 185//126 186//126 193//126 192//126
f 183//127 184//127 191//127 194//127
f 198//128 197//128 201//128 202//128
f 189//129 188//129 196//129 197//129
f 187//130 190//130 198//130 195//130
f 188//131 187//131 195//131 196//131
f 200//132 199//132 202//132 201//132
f 197//133 196//133 200//133 201//133
f 195//134 198//134 202//134 199//134
f 196//135 195//135 199//135 200//135
f 206//136 203//136 204//136 205//136
f 191//137 192//137 204//137 203//137
f 194//138 191//138 203//138 206//138
f 192//139 193//139 205//139 204//139
