# Blender v2.91.2 OBJ File: 'camionnete02.blend'
# www.blender.org
mtllib arme_000223.mtl
o Cube.046_Cube.010
v 92.853653 125.742004 -1184.250977
v 62.406067 -92.547287 -1185.611206
v 183.891495 114.292603 -1384.650635
v 153.443893 -103.996689 -1386.011230
v -105.550346 153.987671 -1275.995850
v -135.998016 -64.301651 -1277.356079
v -14.512527 142.538269 -1476.395630
v -44.960129 -75.751038 -1477.756104
v -32.487411 141.505524 -908.339966
v -62.935028 -76.783722 -909.700195
v -261.339050 -48.538086 -1001.445068
v -230.891418 169.751190 -1000.084778
v -89.212448 148.639587 -783.472046
v -119.660103 -69.649704 -784.832397
v -318.064148 -41.404068 -876.577209
v -287.616516 176.885254 -875.216919
v -122.723099 152.854065 -709.705750
v -139.119965 -6.657959 -722.950684
v -337.524048 21.587723 -814.695557
v -321.127197 181.099731 -801.450562
v -58.858978 366.254089 -782.115967
v -257.263000 394.499695 -873.860901
v -92.369598 370.468506 -708.349670
v -290.773621 398.714172 -800.094482
v -12.931885 139.046112 -951.387085
v -43.379517 -79.243134 -952.747437
v -211.335938 167.291809 -1043.132080
v -241.783569 -50.997498 -1044.492188
v -22.436417 213.564484 -907.890930
v -220.840454 241.810181 -999.635803
v -2.880905 211.105042 -950.938049
v -201.284943 239.350708 -1042.682861
v -7.854050 318.110229 -907.239380
v -206.258087 346.355835 -998.984192
v 11.701431 315.650818 -950.286621
v -186.702576 343.896484 -1042.031494
v -77.879395 220.537262 -785.845276
v -276.283478 248.782898 -877.590149
v -63.297058 325.083008 -785.193726
v -261.701111 353.328613 -876.938599
v -18.805130 499.064880 -827.845947
v -217.209198 527.310547 -919.590942
v -52.315796 503.279297 -754.079712
v -250.719788 531.524963 -845.824646
v 151.752335 118.334595 -1313.903442
v 121.304703 -99.954681 -1315.263794
v -46.651718 146.580261 -1405.648193
v -77.099304 -71.709045 -1407.008423
v 84.689499 128.415466 -1430.523193
v 54.241867 -89.873871 -1431.883545
v -6.348328 139.864838 -1230.123413
v -36.795959 -78.424469 -1231.483643
v -131.689423 155.628357 -954.212341
v -162.137054 -62.660904 -955.572632
v -188.414474 162.762421 -829.344543
v -213.953674 -46.418701 -816.892395
v -221.925110 166.976898 -755.578247
v -227.075531 -3.943176 -775.165405
v -158.061005 380.376892 -827.988342
v -191.571625 384.591370 -754.222168
v -142.581543 -65.120316 -998.619873
v -112.133904 153.168945 -997.259521
v -121.638435 227.687317 -953.763306
v -102.082932 225.227844 -996.810425
v -107.056061 332.233032 -953.111755
v -87.500572 329.773621 -996.158997
v -177.081436 234.660126 -831.717712
v -162.499069 339.205872 -831.066162
v -118.007172 513.187744 -873.718506
v -151.517822 517.402100 -799.952148
v 22.102676 -85.831863 -1361.136230
v 52.550308 132.457428 -1359.775879
v 134.290543 121.354004 -1407.586914
v 12.805038 -85.485870 -1208.547363
v -112.536049 -69.722321 -932.636414
v -180.507599 -51.180222 -801.426453
v -193.629425 -8.704727 -759.699402
v -62.532898 146.107513 -974.323303
v -52.481918 218.166443 -973.874268
v -37.899582 322.712219 -973.222778
v 102.151321 125.395996 -1336.839600
v 103.842911 -96.935272 -1408.947388
v 43.252640 132.803436 -1207.187134
v -82.088409 148.566925 -931.276184
v -138.813477 155.701019 -806.408264
v -172.324112 159.915466 -732.641907
v -108.459976 373.315491 -805.052185
v -141.970581 377.529907 -731.285889
v -92.980530 -72.181732 -975.683655
v -72.037430 220.625885 -930.827087
v -57.455063 325.171631 -930.175598
v -127.480423 227.598694 -808.781433
v -112.898056 332.144409 -808.129883
v -68.406128 506.126343 -850.782227
v -101.916794 510.340698 -777.015930
v 71.703659 -92.893280 -1338.199951
v -98.681404 -113.053413 -975.938354
v -148.282440 -105.992012 -998.874573
v 66.002747 -133.764954 -1338.454712
v 16.401779 -126.703575 -1361.390991
v -42.496872 -119.296165 -1231.738403
v 7.104141 -126.357574 -1208.802124
v 210.471146 47.611511 -1239.446655
v 184.426804 50.886963 -1182.115601
v 170.963303 -45.638351 -1182.717041
v 197.007553 -48.913818 -1240.048218
v 253.345261 41.507751 -1219.621216
v 227.300858 44.783203 -1162.290039
v 213.837296 -51.742050 -1162.891602
v 239.881638 -55.017548 -1220.222778
v 318.956238 32.167114 -1189.281860
v 292.911865 35.442566 -1131.950684
v 279.448303 -61.082672 -1132.552246
v 305.492554 -64.358154 -1189.883423
v 361.176086 26.156509 -1169.758911
v 335.131653 29.431976 -1112.427734
v 321.668213 -67.093307 -1113.029297
v 347.712463 -70.368759 -1170.360352
v 402.919922 -134.548462 -2067.298828
v 353.318848 -127.487061 -2090.234863
v 383.766418 90.802277 -2088.874512
v 433.367493 83.740845 -2065.938477
v -83.874413 574.917419 -889.462463
v -175.283722 587.930786 -931.731445
v -114.752647 578.800781 -821.490723
v -206.161926 591.814209 -863.759705
v -23.343338 565.787354 -779.221802
v 7.534943 561.904053 -847.193359
v -38.169693 568.410828 -868.327881
v -69.048012 572.294006 -800.356201
vn 0.9002 -0.1282 0.4163
vn 0.4130 -0.0519 -0.9092
vn -0.9002 0.1282 -0.4163
vn 0.1381 0.9904 0.0062
vn -0.1381 -0.9904 -0.0062
vn -0.4130 0.0519 0.9092
vn -0.3777 -0.7056 0.5995
vn -0.2217 -0.9751 -0.0102
vn -0.4985 -0.0490 0.8655
vn -0.9008 0.1277 -0.4150
vn 0.9008 -0.1277 0.4150
vn 0.3384 -0.3960 -0.8536
vn 0.3362 -0.4030 -0.8512
vn -0.3384 0.3960 0.8536
vn 0.7339 -0.0982 -0.6721
vn -0.7928 0.4708 -0.3871
vn -0.3871 -0.0661 0.9196
vn -0.1146 -0.9926 0.0408
vn -0.3125 0.4756 0.8223
vn -0.4285 -0.0901 0.8990
vn -0.1650 -0.9848 0.0537
vn -0.0255 -0.0027 0.9997
vn 0.3815 -0.8967 0.2245
vn 0.6119 0.7553 0.2348
vn 0.8783 -0.2411 0.4128
usemtl Matériau.011
s off
f 45//1 46//1 4//1 3//1
f 49//2 50//2 8//2 7//2
f 47//3 48//3 6//3 5//3
f 26//1 25//1 9//1 10//1
f 72//4 47//4 5//4 51//4
f 96//5 46//5 2//5 74//5
f 10//1 9//1 13//1 14//1
f 84//6 9//6 29//6 90//6
f 89//5 26//5 10//5 75//5
f 27//3 28//3 11//3 12//3
f 76//7 14//7 18//7 77//7
f 75//8 10//8 14//8 76//8
f 12//3 11//3 15//3 16//3
f 53//4 12//4 16//4 55//4
f 86//9 77//9 18//9 17//9
f 16//10 15//10 19//10 20//10
f 16//3 20//3 24//3 22//3
f 14//11 13//11 17//11 18//11
f 59//12 22//12 42//12 69//12
f 86//6 17//6 23//6 88//6
f 17//1 13//1 21//1 23//1
f 55//2 16//2 22//2 59//2
f 5//3 6//3 28//3 27//3
f 74//5 2//5 26//5 89//5
f 51//4 5//4 27//4 62//4
f 2//1 1//1 25//1 26//1
f 32//3 30//3 34//3 36//3
f 62//2 27//2 32//2 64//2
f 27//3 12//3 30//3 32//3
f 9//1 25//1 31//1 29//1
f 66//4 36//4 34//4 65//4
f 90//5 29//5 37//5 92//5
f 64//2 32//2 36//2 66//2
f 29//1 31//1 35//1 33//1
f 92//6 37//6 39//6 93//6
f 29//1 33//1 39//1 37//1
f 34//3 30//3 38//3 40//3
f 65//4 34//4 40//4 68//4
f 69//13 42//13 124//13 123//13
f 23//1 21//1 41//1 43//1
f 88//14 23//14 43//14 95//14
f 22//3 24//3 44//3 42//3
f 82//5 4//5 46//5 96//5
f 49//4 7//4 47//4 72//4
f 7//3 8//3 48//3 47//3
f 46//15 45//15 103//15 106//15
f 73//4 49//4 72//4 81//4
f 8//5 50//5 71//5 48//5
f 24//14 60//14 70//14 44//14
f 42//16 44//16 126//16 124//16
f 91//4 65//4 68//4 93//4
f 38//6 67//6 68//6 40//6
f 79//2 64//2 66//2 80//2
f 30//5 63//5 67//5 38//5
f 80//4 66//4 65//4 91//4
f 78//2 62//2 64//2 79//2
f 83//4 51//4 62//4 78//4
f 6//5 52//5 61//5 28//5
f 85//2 55//2 59//2 87//2
f 20//6 57//6 60//6 24//6
f 87//12 59//12 69//12 94//12
f 20//17 19//17 58//17 57//17
f 84//4 53//4 55//4 85//4
f 11//18 54//18 56//18 15//18
f 15//7 56//7 58//7 19//7
f 28//5 61//5 54//5 11//5
f 12//6 53//6 63//6 30//6
f 48//5 71//5 52//5 6//5
f 81//4 72//4 51//4 83//4
f 50//3 49//3 121//3 120//3
f 3//2 4//2 82//2 73//2
f 45//4 81//4 83//4 1//4
f 9//4 84//4 85//4 13//4
f 21//12 87//12 94//12 41//12
f 13//2 85//2 87//2 21//2
f 1//4 83//4 78//4 25//4
f 25//2 78//2 79//2 31//2
f 35//4 80//4 91//4 33//4
f 31//2 79//2 80//2 35//2
f 33//4 91//4 93//4 39//4
f 70//19 95//19 130//19 125//19
f 3//4 73//4 81//4 45//4
f 50//5 82//5 96//5 71//5
f 60//14 88//14 95//14 70//14
f 67//6 92//6 93//6 68//6
f 63//5 90//5 92//5 67//5
f 52//3 71//3 100//3 101//3
f 57//6 86//6 88//6 60//6
f 57//20 58//20 77//20 86//20
f 54//21 75//21 76//21 56//21
f 56//7 76//7 77//7 58//7
f 61//5 89//5 75//5 54//5
f 53//6 84//6 90//6 63//6
f 89//6 61//6 98//6 97//6
f 101//5 102//5 97//5 98//5
f 100//5 99//5 102//5 101//5
f 61//3 52//3 101//3 98//3
f 74//1 89//1 97//1 102//1
f 71//2 96//2 99//2 100//2
f 96//1 74//1 102//1 99//1
f 106//2 103//2 107//2 110//2
f 1//22 2//22 105//22 104//22
f 2//23 46//23 106//23 105//23
f 45//24 1//24 104//24 103//24
f 109//5 110//5 114//5 113//5
f 104//6 105//6 109//6 108//6
f 105//5 106//5 110//5 109//5
f 103//4 104//4 108//4 107//4
f 113//5 114//5 118//5 117//5
f 107//4 108//4 112//4 111//4
f 110//2 107//2 111//2 114//2
f 108//6 109//6 113//6 112//6
f 116//1 117//1 118//1 115//1
f 111//4 112//4 116//4 115//4
f 114//2 111//2 115//2 118//2
f 122//2 119//2 120//2 121//2
f 82//5 50//5 120//5 119//5
f 73//1 82//1 119//1 122//1
f 49//4 73//4 122//4 121//4
f 123//4 124//4 126//4 125//4
f 129//4 123//4 125//4 130//4
f 128//4 129//4 130//4 127//4
f 95//19 43//19 127//19 130//19
f 94//13 69//13 123//13 129//13
f 43//25 41//25 128//25 127//25
f 44//19 70//19 125//19 126//19
f 41//13 94//13 129//13 128//13
o Cube.048_Cube.024
v -463.516968 600.706421 99.694702
v -585.383667 401.880646 163.053635
v -424.837860 507.083496 -119.705025
v -553.837402 304.658325 -61.341148
v -688.845337 629.957275 -17.360191
v -751.329773 528.013672 15.125687
v -669.013428 581.954163 -129.852570
v -732.012207 479.868744 -97.825752
v -513.488586 294.505127 -508.820038
v -411.313049 345.349304 -454.069061
v -456.062866 461.269531 -478.206207
v -558.238403 410.425323 -532.957153
v -404.139404 316.366333 -694.444275
v -329.017700 353.748047 -654.190063
v -361.918732 438.975220 -671.936218
v -437.040436 401.593445 -712.190369
v -334.769012 332.734680 -810.140930
v -279.871124 360.052826 -780.723694
v -303.914795 422.335693 -793.692261
v -358.812683 395.017578 -823.109497
v -526.628601 570.349121 -144.397797
v -661.117493 358.137817 -81.930977
v -567.615479 669.967773 88.417061
v -696.992004 458.889679 155.680359
v -427.894165 404.870361 -469.382660
v -536.366028 350.893066 -527.507507
v -334.237915 397.494446 -678.443542
v -413.988892 357.809113 -721.178162
v -277.361267 392.008575 -810.238464
v -335.642120 363.007111 -841.468445
v -289.053650 329.399170 -892.356995
v -234.155579 356.717285 -862.939697
v -229.039734 393.929260 -902.199158
v -287.320618 364.927734 -933.429260
v -310.891663 396.130310 -913.572449
v -255.993713 423.448425 -884.155273
v -256.669434 328.226196 -951.702637
v -201.771332 355.544312 -922.285461
v -196.655396 392.756317 -961.544861
v -254.936279 363.754761 -992.774841
v -278.507477 394.957275 -972.918152
v -223.609375 422.275391 -943.500977
v -218.440582 309.956177 -978.063171
v -183.105164 327.539551 -959.128845
v -179.812317 351.491272 -984.398132
v -217.325073 332.824310 -1004.499573
v -247.912537 397.120239 -1036.867065
v -271.483734 428.322784 -1017.010315
v -216.585785 455.640869 -987.593201
v -189.631592 426.121826 -1005.637146
v -193.162140 296.246246 -996.018127
v -169.340027 308.100525 -983.252991
v -167.119934 324.248077 -1000.289124
v -192.410095 311.663330 -1013.840759
v -170.517273 292.167297 -1021.711487
v -155.625671 299.577576 -1013.731873
v -154.237854 309.671570 -1024.381470
v -170.047058 301.804657 -1032.852661
v -238.596252 425.042755 -1052.215820
v -254.269012 445.789703 -1039.012695
v -217.766724 463.953827 -1019.452942
v -199.844604 444.326172 -1031.450684
v -299.306946 467.658325 453.358856
v -399.329315 268.640900 359.629730
v -123.687683 450.416962 292.336365
v -219.486511 253.959167 198.885834
v -406.547119 551.880188 237.172455
v -457.831390 449.838348 189.114960
v -306.042358 544.365601 157.404419
v -365.621033 442.310608 106.697021
v -79.731934 196.505493 -72.350838
v -62.151733 136.173279 34.628239
v 58.753906 163.885376 32.133842
v 44.004639 223.162323 -73.496254
v -23.740051 11.944275 -170.806610
v -12.786072 -35.493591 -91.492531
v 78.187866 -15.894958 -92.334648
v 67.233887 31.542908 -171.648926
v 13.539307 -104.189514 -230.715790
v 21.544250 -138.856445 -172.753998
v 88.026855 -124.533875 -173.369415
v 80.021973 -89.867004 -231.331177
v -184.712708 523.133362 235.599182
v -299.579285 317.086212 131.119843
v -384.318390 543.954163 401.274261
v -490.504486 332.672607 301.769318
v -1.527039 138.655518 35.350639
v -17.344055 207.153381 -79.174889
v 36.336487 -42.888977 -99.335289
v 24.707458 7.472229 -183.536926
v 59.782104 -155.421936 -185.483917
v 51.283813 -118.618774 -247.017426
v 26.528198 -183.399292 -279.884979
v 34.533142 -218.066101 -221.923126
v 80.108337 -241.606995 -239.838470
v 71.610046 -204.803833 -301.371948
v 99.220154 -174.980103 -284.888763
v 107.225159 -209.646851 -226.926971
v 37.170593 -240.047791 -315.236298
v 45.175476 -274.714661 -257.274445
v 90.750610 -298.255676 -275.189789
v 82.252380 -261.452515 -336.723297
v 109.862610 -231.628601 -320.240082
v 117.867493 -266.295471 -262.278259
v 21.168762 -286.002136 -326.293182
v 26.321106 -308.315674 -288.985748
v 55.655762 -323.467651 -300.517212
v 50.185852 -299.779297 -340.123505
v 125.281799 -288.922974 -359.096161
v 152.892090 -259.099121 -342.612885
v 160.897095 -293.766174 -284.651184
v 133.780151 -325.726318 -297.562683
v 9.204529 -316.619751 -334.585114
v 12.678162 -331.662842 -309.433502
v 32.454773 -341.878418 -317.207703
v 28.767090 -325.907837 -343.909149
v 8.998840 -348.697388 -347.256927
v 11.170166 -358.100830 -331.534332
v 23.532776 -364.486572 -336.394073
v 21.227539 -354.503296 -353.085419
v 154.473877 -304.714050 -358.378235
v 172.832214 -284.883606 -347.418304
v 178.154846 -307.934082 -308.878784
v 160.124451 -329.184814 -317.463745
vn 0.8441 -0.4310 0.3189
vn -0.5729 0.6856 -0.4492
vn -0.8478 0.4185 -0.3257
vn 0.0709 0.2632 0.9621
vn 0.0349 0.9211 -0.3877
vn -0.4604 -0.8383 0.2920
vn -0.3158 0.9129 -0.2585
vn 0.7371 0.6469 -0.1955
vn -0.8503 -0.4643 -0.2478
vn 0.7258 -0.6597 0.1950
vn -0.7931 -0.2905 -0.5354
vn 0.8680 0.3266 0.3741
vn -0.7920 -0.3267 -0.5157
vn 0.3892 -0.9131 0.1217
vn 0.7835 0.4572 0.4209
vn 0.3958 -0.9119 0.1083
vn -0.3082 0.9118 -0.2715
vn 0.8850 0.2903 0.3641
vn 0.8026 0.5036 0.3197
vn 0.3355 -0.9151 0.2237
vn -0.7361 -0.4717 -0.4855
vn 0.8121 0.4715 0.3439
vn -0.7108 -0.5038 -0.4910
vn -0.6239 -0.7750 -0.1003
vn 0.3547 0.9083 -0.2218
vn -0.8615 -0.5018 0.0775
vn 0.5547 0.7960 -0.2424
vn -0.6418 0.5603 0.5236
vn -0.3450 0.9156 -0.2064
vn -0.7882 -0.4486 -0.4213
vn -0.3596 0.9157 -0.1792
vn 0.8257 0.3494 0.4429
vn -0.7862 -0.4527 -0.4208
vn -0.8279 -0.3446 -0.4425
vn 0.7787 0.4343 0.4527
vn 0.0555 -0.7812 0.6219
vn 0.8240 0.3537 0.4426
vn 0.7834 0.4596 0.4184
vn -0.8277 -0.3421 -0.4449
vn 0.3450 -0.9156 0.2064
vn 0.1629 0.5527 -0.8173
vn -0.6330 -0.5721 -0.5216
vn 0.9270 0.2043 0.3144
vn 0.1791 0.5316 -0.8279
vn 0.7712 0.6224 0.1338
vn -0.8338 -0.3681 -0.4114
vn -0.5767 0.6931 0.4326
vn 0.5767 -0.6931 -0.4326
vn -0.1109 0.8229 -0.5572
vn 0.9134 0.2293 0.3364
vn -0.6605 -0.5539 -0.5070
vn 0.0387 -0.7672 0.6403
vn 0.5869 -0.6244 -0.5154
vn 0.9091 0.2367 0.3429
vn -0.6687 -0.5481 -0.5024
vn 0.2513 -0.8969 0.3639
vn 0.1260 0.5986 -0.7911
vn -0.7308 -0.1250 -0.6710
vn 0.5901 -0.5311 -0.6080
vn -0.5303 0.8154 0.2324
vn 0.5265 -0.5624 0.6375
vn 0.4427 0.7889 -0.4263
vn -0.4968 0.5816 -0.6442
vn -0.5784 -0.0911 0.8106
vn 0.1287 0.9908 0.0430
vn -0.3809 -0.8567 -0.3479
vn 0.9879 0.1455 -0.0534
vn 0.9551 0.1803 0.2352
vn -0.5332 -0.1287 -0.8362
vn -0.0204 -0.8217 0.5696
vn 0.0145 0.4473 -0.8943
vn 0.0260 -0.5896 0.8072
vn -0.0256 0.4561 -0.8896
vn -0.9610 -0.2763 -0.0126
vn 0.1774 -0.4949 0.8506
vn -0.9571 -0.2869 -0.0394
vn 0.9895 0.1325 -0.0574
vn 0.0195 -0.6094 0.7926
vn 0.2471 -0.5604 0.7905
vn -0.9834 -0.1791 0.0287
vn -0.1802 0.4228 -0.8881
vn 0.2457 -0.5389 0.8057
vn -0.2132 0.3983 -0.8922
vn -0.7004 -0.5836 -0.4109
vn 0.7518 0.6263 -0.2063
vn -0.6151 -0.4506 -0.6470
vn 0.4604 0.7717 0.4389
vn -0.9097 0.3903 0.1421
vn 0.9805 0.1957 -0.0184
vn -0.1683 0.4989 -0.8502
vn 0.9752 0.2214 -0.0023
vn 0.0623 -0.5205 0.8516
vn -0.1727 0.4974 -0.8502
vn -0.0576 0.5226 -0.8506
vn 0.1474 -0.4755 0.8673
vn -0.9255 0.2548 0.2802
vn 0.0668 -0.5192 0.8521
vn 0.1803 -0.4961 0.8493
vn -0.0546 0.5212 -0.8517
vn -0.9805 -0.1957 0.0184
vn 0.7301 -0.5373 -0.4222
vn -0.2817 0.3161 -0.9059
vn -0.0542 -0.6691 0.7412
vn 0.7106 -0.5563 -0.4308
vn 0.4182 -0.6222 0.6618
vn -0.0877 0.5428 -0.8352
vn 0.6246 0.7052 0.3355
vn -0.6246 -0.7052 -0.3355
vn 0.9554 -0.1758 -0.2371
vn -0.0347 -0.6469 0.7618
vn -0.2642 0.3470 -0.8999
vn -0.9148 0.2782 0.2927
vn -0.5377 -0.7542 -0.3768
vn -0.0289 -0.6401 0.7677
vn -0.2587 0.3563 -0.8978
vn -0.9927 -0.0387 0.1140
vn 0.7720 -0.4929 -0.4014
vn 0.1992 0.3263 -0.9240
vn -0.4235 -0.8020 -0.4212
vn 0.7901 0.5680 0.2306
usemtl Matériau.012
s off
f 131//26 132//26 134//26 133//26
f 138//27 137//27 141//27 142//27
f 137//28 138//28 136//28 135//28
f 153//29 154//29 132//29 131//29
f 151//30 137//30 135//30 153//30
f 152//31 134//31 132//31 154//31
f 142//32 141//32 145//32 146//32
f 151//33 133//33 140//33 155//33
f 152//34 138//34 142//34 156//34
f 133//35 134//35 139//35 140//35
f 158//36 146//36 150//36 160//36
f 155//37 140//37 144//37 157//37
f 156//38 142//38 146//38 158//38
f 140//39 139//39 143//39 144//39
f 149//40 159//40 163//40 166//40
f 144//41 143//41 147//41 148//41
f 146//42 145//42 149//42 150//42
f 157//43 144//43 148//43 159//43
f 145//44 157//44 159//44 149//44
f 148//45 147//45 161//45 162//45
f 139//46 156//46 158//46 143//46
f 141//47 155//47 157//47 145//47
f 143//48 158//48 160//48 147//48
f 134//49 152//49 156//49 139//49
f 137//50 151//50 155//50 141//50
f 138//51 152//51 154//51 136//51
f 133//52 151//52 153//52 131//52
f 135//53 136//53 154//53 153//53
f 165//54 166//54 172//54 171//54
f 161//55 164//55 170//55 167//55
f 150//56 149//56 166//56 165//56
f 159//57 148//57 162//57 163//57
f 147//58 160//58 164//58 161//58
f 160//59 150//59 165//59 164//59
f 172//60 169//60 180//60 179//60
f 168//61 167//61 173//61 174//61
f 163//62 162//62 168//62 169//62
f 166//63 163//63 169//63 172//63
f 164//64 165//64 171//64 170//64
f 162//65 161//65 167//65 168//65
f 176//66 175//66 183//66 184//66
f 167//67 170//67 176//67 173//67
f 169//68 168//68 174//68 175//68
f 170//69 169//69 175//69 176//69
f 179//70 180//70 192//70 191//70
f 170//71 171//71 178//71 177//71
f 171//72 172//72 179//72 178//72
f 169//73 170//73 177//73 180//73
f 184//74 183//74 187//74 188//74
f 175//75 174//75 182//75 183//75
f 173//76 176//76 184//76 181//76
f 174//77 173//77 181//77 182//77
f 186//78 185//78 188//78 187//78
f 183//79 182//79 186//79 187//79
f 181//80 184//80 188//80 185//80
f 182//81 181//81 185//81 186//81
f 192//82 189//82 190//82 191//82
f 177//83 178//83 190//83 189//83
f 180//84 177//84 189//84 192//84
f 178//85 179//85 191//85 190//85
f 193//86 194//86 196//86 195//86
f 200//87 199//87 203//87 204//87
f 199//88 200//88 198//88 197//88
f 215//89 216//89 194//89 193//89
f 213//90 199//90 197//90 215//90
f 214//91 196//91 194//91 216//91
f 204//92 203//92 207//92 208//92
f 213//93 195//93 202//93 217//93
f 214//94 200//94 204//94 218//94
f 195//95 196//95 201//95 202//95
f 220//96 208//96 212//96 222//96
f 217//97 202//97 206//97 219//97
f 218//98 204//98 208//98 220//98
f 202//99 201//99 205//99 206//99
f 211//100 221//100 225//100 228//100
f 206//101 205//101 209//101 210//101
f 208//102 207//102 211//102 212//102
f 219//103 206//103 210//103 221//103
f 207//104 219//104 221//104 211//104
f 210//105 209//105 223//105 224//105
f 201//106 218//106 220//106 205//106
f 203//107 217//107 219//107 207//107
f 205//108 220//108 222//108 209//108
f 196//109 214//109 218//109 201//109
f 199//110 213//110 217//110 203//110
f 200//111 214//111 216//111 198//111
f 195//112 213//112 215//112 193//112
f 197//113 198//113 216//113 215//113
f 227//114 228//114 234//114 233//114
f 223//115 226//115 232//115 229//115
f 212//116 211//116 228//116 227//116
f 221//117 210//117 224//117 225//117
f 209//118 222//118 226//118 223//118
f 222//119 212//119 227//119 226//119
f 234//120 231//120 242//120 241//120
f 230//121 229//121 235//121 236//121
f 225//122 224//122 230//122 231//122
f 228//123 225//123 231//123 234//123
f 226//124 227//124 233//124 232//124
f 224//125 223//125 229//125 230//125
f 238//126 237//126 245//126 246//126
f 229//127 232//127 238//127 235//127
f 231//128 230//128 236//128 237//128
f 232//129 231//129 237//129 238//129
f 241//130 242//130 254//130 253//130
f 232//131 233//131 240//131 239//131
f 233//132 234//132 241//132 240//132
f 231//133 232//133 239//133 242//133
f 246//134 245//134 249//134 250//134
f 237//135 236//135 244//135 245//135
f 235//136 238//136 246//136 243//136
f 236//137 235//137 243//137 244//137
f 248//138 247//138 250//138 249//138
f 245//139 244//139 248//139 249//139
f 243//140 246//140 250//140 247//140
f 244//141 243//141 247//141 248//141
f 254//142 251//142 252//142 253//142
f 239//143 240//143 252//143 251//143
f 242//144 239//144 251//144 254//144
f 240//145 241//145 253//145 252//145
