# Blender v2.91.2 OBJ File: 'camionnete02.blend'
# www.blender.org
mtllib arme_000245.mtl
o Cube.046_Cube.010
v 664.264587 368.785187 -495.312469
v 655.413696 240.115509 -674.043762
v 880.240417 398.698273 -527.542358
v 871.389587 270.028564 -706.273743
v 621.192383 545.217773 -620.194214
v 612.341431 416.548004 -798.925537
v 837.168030 575.130737 -652.424072
v 828.317322 446.461090 -831.155518
v 366.908752 327.600861 -450.938293
v 358.057739 198.931213 -629.669617
v 314.985474 375.363617 -754.551270
v 323.836548 504.033356 -575.819946
v 232.335632 308.962189 -430.855957
v 223.484741 180.292542 -609.587341
v 180.412354 356.725067 -734.469116
v 189.263428 485.394684 -555.737732
v 152.835938 297.951385 -418.992310
v 159.714203 206.060333 -550.890320
v 116.641907 382.492828 -675.772095
v 109.763611 474.383881 -543.874023
v 241.159241 437.234161 -252.677185
v 198.087036 613.666626 -377.558960
v 161.659515 426.223297 -240.813538
v 118.587280 602.655762 -365.695221
v 413.301697 334.026337 -457.861450
v 404.450745 205.356689 -636.592773
v 370.229492 510.458893 -582.743164
v 361.378540 381.789215 -761.474487
v 369.830505 370.075714 -391.937714
v 326.758301 546.508179 -516.819458
v 416.223450 376.501190 -398.860870
v 373.151184 552.933594 -523.742615
v 374.069580 431.699738 -306.337524
v 330.997253 608.132080 -431.219208
v 420.462524 438.125214 -313.260803
v 377.390259 614.557617 -438.142456
v 238.299011 351.858307 -372.309357
v 195.226746 528.290771 -497.191101
v 242.538025 413.482330 -286.709167
v 199.465759 589.914795 -411.590881
v 296.846497 524.039307 -149.245789
v 253.774292 700.471802 -274.127563
v 217.346741 513.028442 -137.382172
v 174.274536 689.460938 -262.263885
v 803.994324 388.138092 -516.164246
v 795.143494 259.468414 -694.895630
v 760.921936 564.570435 -641.045898
v 752.070984 435.900787 -819.777283
v 858.704285 486.914520 -589.983215
v 849.853333 358.244843 -768.714600
v 642.728516 457.001495 -557.753296
v 633.877563 328.331757 -736.484680
v 345.372620 415.817108 -513.379150
v 336.521606 287.147369 -692.110413
v 210.799561 397.178436 -493.296844
v 193.317200 265.522125 -657.385254
v 131.299774 386.167572 -481.433167
v 150.316589 282.897400 -617.805786
v 219.623047 525.450317 -315.118073
v 140.123413 514.439453 -303.254395
v 382.914612 293.572937 -699.033630
v 391.765625 422.242584 -520.302368
v 348.294434 458.291962 -454.378601
v 394.687317 464.717377 -461.301758
v 352.533386 519.915894 -368.778351
v 398.926392 526.341431 -375.701599
v 216.762817 440.074615 -434.750214
v 221.001831 501.698578 -349.149994
v 275.310364 612.255615 -211.686646
v 195.810608 601.244629 -199.823059
v 773.607117 347.684601 -757.336426
v 782.458191 476.354279 -578.605103
v 869.472229 442.806305 -558.762817
v 644.645569 284.223663 -705.264221
v 347.289673 243.039337 -660.890015
v 200.578125 235.779938 -636.333313
v 157.577515 253.155182 -596.753723
v 402.533630 378.134430 -489.081879
v 405.455383 420.609283 -430.081360
v 409.694397 482.233307 -344.481171
v 793.226257 432.246185 -547.384644
v 860.621521 314.136749 -737.494202
v 653.496643 412.893402 -526.532959
v 356.140747 371.709015 -482.158722
v 221.567566 353.070343 -462.076385
v 142.067841 342.059479 -450.212769
v 230.391235 481.342316 -283.897644
v 150.891479 470.331329 -272.033936
v 393.682739 249.464813 -667.813232
v 359.062500 414.183868 -423.158142
v 363.301453 475.807892 -337.557922
v 227.530945 395.966461 -403.529785
v 231.769897 457.590485 -317.929596
v 286.078430 568.147461 -180.466217
v 206.578735 557.136597 -168.602600
v 784.375305 303.576569 -726.116028
v 392.025513 225.373199 -701.278198
v 381.257324 269.481262 -732.498657
v 782.718079 279.484955 -759.581055
v 771.950012 323.592987 -790.801453
v 632.220337 304.240143 -769.949707
v 642.988403 260.132019 -738.729248
v 780.711609 272.478058 -507.553284
v 718.924744 263.920380 -498.332886
v 715.010925 207.023865 -577.365967
v 776.797913 215.581604 -586.586487
v 790.019470 234.351959 -480.567047
v 728.232361 225.794312 -471.346619
v 724.318665 168.897797 -550.379700
v 786.105652 177.455475 -559.600220
v 804.263367 176.006836 -439.269440
v 742.476257 167.449188 -430.049011
v 738.562439 110.552826 -509.082092
v 800.349426 119.110535 -518.302612
v 813.429016 138.462555 -412.694946
v 751.641907 129.904877 -403.474548
v 747.728210 73.008392 -482.507629
v 809.515198 81.566071 -491.728119
v 1570.143066 412.406525 -843.375061
v 1559.375000 456.514618 -874.595459
v 1568.225586 585.184448 -695.864136
v 1578.993896 541.076294 -664.643677
v 305.828552 641.046265 -152.837646
v 285.984192 722.332764 -210.373535
v 232.573730 630.900269 -141.905884
v 212.729431 712.186768 -199.441772
v 252.418213 549.613892 -84.369995
v 325.672791 559.759644 -95.301605
v 315.750549 600.403076 -124.069458
v 242.495972 590.257080 -113.137970
vn 0.1954 -0.8005 0.5666
vn 0.9799 0.1357 -0.1462
vn -0.1954 0.8005 -0.5666
vn 0.0402 0.5838 0.8109
vn -0.0402 -0.5838 -0.8109
vn -0.9799 -0.1357 0.1462
vn -0.6811 -0.5265 -0.5089
vn -0.0864 -0.5228 -0.8481
vn -0.9910 -0.1340 0.0073
vn -0.1967 0.8000 -0.5668
vn 0.1967 -0.8000 0.5668
vn 0.9036 -0.0776 -0.4213
vn 0.9006 -0.0822 -0.4268
vn -0.9036 0.0776 0.4213
vn 0.9777 -0.1902 0.0885
vn -0.1685 0.9554 -0.2425
vn -0.9689 -0.2351 0.0775
vn -0.0643 -0.6203 -0.7817
vn -0.8659 0.1304 0.4829
vn -0.9756 -0.2177 0.0288
vn -0.1046 -0.5914 -0.7995
vn -0.8239 -0.4398 0.3574
vn 0.0743 -0.9286 -0.3637
vn 0.1413 0.0452 0.9889
vn 0.1895 -0.8623 0.4697
usemtl Matériau.011
s off
f 45//1 46//1 4//1 3//1
f 49//2 50//2 8//2 7//2
f 47//3 48//3 6//3 5//3
f 26//1 25//1 9//1 10//1
f 72//4 47//4 5//4 51//4
f 96//5 46//5 2//5 74//5
f 10//1 9//1 13//1 14//1
f 84//6 9//6 29//6 90//6
f 89//5 26//5 10//5 75//5
f 27//3 28//3 11//3 12//3
f 76//7 14//7 18//7 77//7
f 75//8 10//8 14//8 76//8
f 12//3 11//3 15//3 16//3
f 53//4 12//4 16//4 55//4
f 86//9 77//9 18//9 17//9
f 16//10 15//10 19//10 20//10
f 16//3 20//3 24//3 22//3
f 14//11 13//11 17//11 18//11
f 59//12 22//12 42//12 69//12
f 86//6 17//6 23//6 88//6
f 17//1 13//1 21//1 23//1
f 55//2 16//2 22//2 59//2
f 5//3 6//3 28//3 27//3
f 74//5 2//5 26//5 89//5
f 51//4 5//4 27//4 62//4
f 2//1 1//1 25//1 26//1
f 32//3 30//3 34//3 36//3
f 62//2 27//2 32//2 64//2
f 27//3 12//3 30//3 32//3
f 9//1 25//1 31//1 29//1
f 66//4 36//4 34//4 65//4
f 90//5 29//5 37//5 92//5
f 64//2 32//2 36//2 66//2
f 29//1 31//1 35//1 33//1
f 92//6 37//6 39//6 93//6
f 29//1 33//1 39//1 37//1
f 34//3 30//3 38//3 40//3
f 65//4 34//4 40//4 68//4
f 69//13 42//13 124//13 123//13
f 23//1 21//1 41//1 43//1
f 88//14 23//14 43//14 95//14
f 22//3 24//3 44//3 42//3
f 82//5 4//5 46//5 96//5
f 49//4 7//4 47//4 72//4
f 7//3 8//3 48//3 47//3
f 46//15 45//15 103//15 106//15
f 73//4 49//4 72//4 81//4
f 8//5 50//5 71//5 48//5
f 24//14 60//14 70//14 44//14
f 42//16 44//16 126//16 124//16
f 91//4 65//4 68//4 93//4
f 38//6 67//6 68//6 40//6
f 79//2 64//2 66//2 80//2
f 30//5 63//5 67//5 38//5
f 80//4 66//4 65//4 91//4
f 78//2 62//2 64//2 79//2
f 83//4 51//4 62//4 78//4
f 6//5 52//5 61//5 28//5
f 85//2 55//2 59//2 87//2
f 20//6 57//6 60//6 24//6
f 87//12 59//12 69//12 94//12
f 20//17 19//17 58//17 57//17
f 84//4 53//4 55//4 85//4
f 11//18 54//18 56//18 15//18
f 15//7 56//7 58//7 19//7
f 28//5 61//5 54//5 11//5
f 12//6 53//6 63//6 30//6
f 48//5 71//5 52//5 6//5
f 81//4 72//4 51//4 83//4
f 50//3 49//3 121//3 120//3
f 3//2 4//2 82//2 73//2
f 45//4 81//4 83//4 1//4
f 9//4 84//4 85//4 13//4
f 21//12 87//12 94//12 41//12
f 13//2 85//2 87//2 21//2
f 1//4 83//4 78//4 25//4
f 25//2 78//2 79//2 31//2
f 35//4 80//4 91//4 33//4
f 31//2 79//2 80//2 35//2
f 33//4 91//4 93//4 39//4
f 70//19 95//19 130//19 125//19
f 3//4 73//4 81//4 45//4
f 50//5 82//5 96//5 71//5
f 60//14 88//14 95//14 70//14
f 67//6 92//6 93//6 68//6
f 63//5 90//5 92//5 67//5
f 52//3 71//3 100//3 101//3
f 57//6 86//6 88//6 60//6
f 57//20 58//20 77//20 86//20
f 54//21 75//21 76//21 56//21
f 56//7 76//7 77//7 58//7
f 61//5 89//5 75//5 54//5
f 53//6 84//6 90//6 63//6
f 89//6 61//6 98//6 97//6
f 101//5 102//5 97//5 98//5
f 100//5 99//5 102//5 101//5
f 61//3 52//3 101//3 98//3
f 74//1 89//1 97//1 102//1
f 71//2 96//2 99//2 100//2
f 96//1 74//1 102//1 99//1
f 106//2 103//2 107//2 110//2
f 1//22 2//22 105//22 104//22
f 2//23 46//23 106//23 105//23
f 45//24 1//24 104//24 103//24
f 109//5 110//5 114//5 113//5
f 104//6 105//6 109//6 108//6
f 105//5 106//5 110//5 109//5
f 103//4 104//4 108//4 107//4
f 113//5 114//5 118//5 117//5
f 107//4 108//4 112//4 111//4
f 110//2 107//2 111//2 114//2
f 108//6 109//6 113//6 112//6
f 116//1 117//1 118//1 115//1
f 111//4 112//4 116//4 115//4
f 114//2 111//2 115//2 118//2
f 122//2 119//2 120//2 121//2
f 82//5 50//5 120//5 119//5
f 73//1 82//1 119//1 122//1
f 49//4 73//4 122//4 121//4
f 123//4 124//4 126//4 125//4
f 129//4 123//4 125//4 130//4
f 128//4 129//4 130//4 127//4
f 95//19 43//19 127//19 130//19
f 94//13 69//13 123//13 129//13
f 43//25 41//25 128//25 127//25
f 44//19 70//19 125//19 126//19
f 41//13 94//13 129//13 128//13
o Cube.048_Cube.024
v -491.850830 554.478394 147.216522
v -640.448364 377.163330 77.390556
v -373.781433 538.318359 -63.012024
v -526.736938 364.732239 -148.043091
v -648.874451 670.729309 -17.585320
v -725.064514 579.814880 -53.387024
v -588.336914 662.443665 -125.375389
v -664.870728 572.163940 -162.896606
v -243.944092 530.539062 -458.821808
v -230.200928 480.333557 -343.439056
v -241.091156 595.492371 -292.033844
v -254.834351 645.697815 -407.416565
v -30.397827 565.508850 -450.656891
v -20.293640 528.596619 -365.824860
v -28.300476 613.263977 -328.030579
v -38.404724 650.176147 -412.862518
v 103.314819 588.443481 -442.861084
v 110.699036 561.468506 -380.867035
v 104.847717 623.342285 -353.247467
v 97.463501 650.317261 -415.241516
v -453.256165 626.439575 -93.392967
v -612.758850 443.678040 -179.709473
v -578.313721 643.859924 130.014038
v -736.068359 455.618103 55.885201
v -229.679779 537.051697 -314.543213
v -244.269867 590.351074 -437.036133
v -5.306580 572.103760 -345.533356
v -16.033691 611.290588 -435.592926
v 134.902161 594.902161 -366.903229
v 127.063049 623.539490 -432.717651
v 196.776062 596.748169 -450.379547
v 204.160217 569.773132 -388.385590
v 237.587952 609.640747 -372.720978
v 229.748901 638.277954 -438.535492
v 198.731506 664.066772 -421.320648
v 206.115540 637.091858 -359.326630
v 263.834106 603.933289 -455.240509
v 271.218323 576.958252 -393.246338
v 304.646179 616.825806 -377.581940
v 296.806946 645.463074 -443.396210
v 265.789612 671.251892 -426.181580
v 273.173706 644.276917 -364.187531
v 308.240173 581.245178 -457.108124
v 312.992798 563.882629 -417.205444
v 334.508972 589.543579 -407.122955
v 329.463196 607.976013 -449.484589
v 335.403625 683.814453 -431.306000
v 304.386169 709.603271 -414.091156
v 311.770264 682.628418 -352.097260
v 343.242737 655.177246 -365.491486
v 338.086243 565.382812 -459.741486
v 341.290466 553.677490 -432.840149
v 355.795837 570.977356 -426.042633
v 352.394348 583.404053 -454.601837
v 372.303406 561.052185 -459.637909
v 374.306458 553.735046 -442.821625
v 383.373962 564.549438 -438.572296
v 381.247620 572.317444 -456.424957
v 352.277405 704.139587 -411.200897
v 331.653381 721.286865 -399.754608
v 336.563171 703.350891 -358.534180
v 357.489685 685.098328 -367.440125
v -304.039185 461.201447 460.268829
v -439.734253 289.311401 358.101227
v -120.120544 354.050537 349.541321
v -242.751373 195.633026 254.083588
v -323.489655 538.188293 217.318207
v -393.064331 450.055450 164.934021
v -220.472626 484.240906 170.463989
v -292.065704 402.023987 111.601219
v 32.293274 123.329102 -17.666153
v -12.077759 17.689575 28.692093
v 78.693054 14.980530 112.296509
v 124.612061 119.129883 68.833687
v 161.853149 -2.142761 -137.510040
v 127.221558 -81.935669 -104.422523
v 195.096497 -85.023254 -40.825768
v 229.728088 -5.230042 -73.913521
v 243.677734 -82.495178 -210.408051
v 218.369385 -140.806946 -186.228027
v 267.971375 -143.063110 -139.752411
v 293.279785 -84.751587 -163.932404
v -141.301941 431.306458 276.583771
v -279.093292 268.300415 162.482193
v -344.157898 550.233948 381.373291
v -488.214966 367.751495 272.909790
v 33.110962 6.481995 68.405052
v 83.117126 121.698975 20.628159
v 170.920227 -95.624878 -83.631660
v 207.685852 -10.914673 -118.758125
v 257.985352 -157.682556 -179.566223
v 284.853210 -95.777588 -205.236328
v 295.099670 -130.688477 -272.807434
v 269.791260 -189.000000 -248.627441
v 319.235657 -211.106934 -244.294098
v 346.103455 -149.201721 -269.964203
v 353.019226 -137.371643 -228.302399
v 327.710999 -195.683472 -204.122345
v 333.033142 -165.370422 -316.742157
v 307.724792 -223.682068 -292.562164
v 357.169128 -245.789124 -288.228760
v 384.037048 -183.883911 -313.898773
v 390.952820 -172.053711 -272.237061
v 365.644470 -230.365356 -248.056976
v 333.852112 -196.144348 -356.015625
v 317.562317 -233.677002 -340.452179
v 349.387146 -247.906067 -337.662964
v 366.680969 -208.060547 -354.185699
v 434.836975 -206.737854 -315.842072
v 441.752625 -194.907532 -274.180267
v 416.444519 -253.219543 -250.000275
v 407.969177 -268.642822 -290.171906
v 333.972473 -215.929871 -383.544769
v 322.990051 -241.233337 -373.052277
v 344.445862 -250.826294 -371.172180
v 356.104797 -223.963379 -382.311096
v 346.072449 -237.570190 -407.521332
v 339.207336 -253.387695 -400.962250
v 352.619324 -259.384155 -399.786682
v 359.907532 -242.592102 -406.749969
v 458.994934 -227.139648 -305.732758
v 463.593323 -219.273682 -278.031311
v 446.765320 -258.045959 -261.953674
v 441.129944 -268.301331 -288.664337
vn 0.6158 -0.6939 0.3732
vn -0.1115 0.9755 -0.1898
vn -0.6183 0.6804 -0.3934
vn -0.3068 -0.1149 0.9448
vn 0.2428 0.9682 0.0609
vn -0.5873 -0.7660 -0.2614
vn -0.0089 0.9165 0.3999
vn 0.7836 0.4317 0.4467
vn -0.5466 0.0250 -0.8370
vn 0.4508 -0.8772 0.1651
vn -0.0211 0.5099 -0.8600
vn 0.1943 -0.4562 0.8684
vn -0.0351 0.4759 -0.8788
vn 0.1626 -0.8975 -0.4099
vn 0.1020 -0.3401 0.9348
vn 0.1774 -0.8945 -0.4103
vn 0.0060 0.9172 0.3984
vn 0.2136 -0.4861 0.8474
vn 0.1935 -0.2742 0.9420
vn 0.0487 -0.9137 -0.4034
vn -0.0215 0.3320 -0.9430
vn 0.1806 -0.3123 0.9327
vn -0.0011 0.2980 -0.9546
vn -0.5040 -0.3692 -0.7808
vn 0.4807 0.7848 0.3911
vn -0.8499 -0.2974 -0.4350
vn 0.6511 0.6922 0.3114
vn -0.7639 0.4631 0.4495
vn -0.0683 0.9118 0.4049
vn -0.1049 0.3489 -0.9313
vn -0.0989 0.9081 0.4069
vn 0.1129 -0.4474 0.8872
vn -0.1039 0.3446 -0.9330
vn -0.1147 0.4516 -0.8848
vn 0.0744 -0.3671 0.9272
vn -0.4425 -0.8404 -0.3130
vn 0.1120 -0.4433 0.8893
vn 0.1040 -0.3373 0.9356
vn -0.1127 0.4543 -0.8837
vn 0.0683 -0.9118 -0.4049
vn 0.7370 0.6474 0.1939
vn 0.0717 0.2205 -0.9728
vn 0.2816 -0.5461 0.7890
vn 0.7558 0.6286 0.1835
vn 0.3213 -0.0916 0.9426
vn -0.1425 0.4252 -0.8938
vn -0.7132 0.6077 0.3494
vn 0.7132 -0.6077 -0.3494
vn 0.3562 0.8716 0.3368
vn 0.2549 -0.5312 0.8080
vn 0.0432 0.2422 -0.9693
vn -0.4678 -0.8295 -0.3052
vn 0.7838 -0.5299 -0.3239
vn 0.2468 -0.5266 0.8135
vn 0.0344 0.2487 -0.9680
vn -0.1147 -0.9158 -0.3848
vn 0.6925 0.6881 0.2169
vn 0.1192 0.6464 -0.7536
vn 0.8572 -0.4269 -0.2879
vn -0.5284 0.7536 0.3909
vn 0.1402 -0.5868 0.7975
vn 0.7218 0.6913 -0.0329
vn -0.0928 0.5972 -0.7967
vn -0.7482 0.2182 0.6266
vn 0.5004 0.8655 0.0226
vn -0.5517 -0.7460 -0.3729
vn 0.7706 -0.0740 0.6330
vn 0.8516 -0.0468 0.5220
vn -0.2164 0.0271 -0.9759
vn -0.2290 -0.8642 0.4480
vn 0.5085 0.7937 -0.3338
vn -0.4054 -0.8843 0.2317
vn 0.4736 0.8080 -0.3504
vn -0.6917 -0.0147 -0.7221
vn -0.3272 -0.8573 0.3975
vn -0.6730 -0.0145 -0.7395
vn 0.7793 -0.0806 0.6214
vn -0.3970 -0.8935 0.2099
vn -0.2271 -0.9012 0.3690
vn -0.7504 0.0525 -0.6589
vn 0.3582 0.8133 -0.4586
vn -0.2400 -0.8894 0.3891
vn 0.3387 0.8014 -0.4929
vn -0.5916 -0.4033 -0.6981
vn 0.8822 0.4707 -0.0115
vn -0.5607 -0.3414 -0.7543
vn 0.6240 0.6398 0.4487
vn -0.7345 0.6638 -0.1413
vn 0.7395 -0.0423 0.6719
vn 0.3333 0.8584 -0.3899
vn 0.7218 -0.0265 0.6916
vn -0.4129 -0.8540 0.3167
vn 0.3302 0.8581 -0.3933
vn 0.4156 0.8543 -0.3122
vn -0.3633 -0.8415 0.3998
vn -0.9216 0.2959 -0.2511
vn -0.4099 -0.8540 0.3203
vn -0.3239 -0.8583 0.3979
vn 0.4188 0.8529 -0.3117
vn -0.7395 0.0423 -0.6719
vn 0.8982 -0.4292 -0.0950
vn 0.3057 0.7525 -0.5833
vn -0.4135 -0.9045 0.1038
vn 0.8911 -0.4372 -0.1216
vn -0.0067 -0.9331 0.3597
vn 0.3801 0.8713 -0.3105
vn 0.1757 0.3111 0.9340
vn -0.1757 -0.3111 -0.9340
vn 0.9071 -0.2547 0.3353
vn -0.4143 -0.8994 0.1395
vn 0.3112 0.7724 -0.5537
vn -0.9244 0.3078 -0.2253
vn -0.0763 -0.3535 -0.9323
vn -0.4145 -0.8976 0.1501
vn 0.3128 0.7782 -0.5445
vn -0.8298 0.1357 -0.5413
vn 0.9114 -0.4100 -0.0349
vn 0.6857 0.6623 -0.3019
vn 0.0457 -0.3995 -0.9156
vn 0.3870 0.2048 0.8990
usemtl Matériau.012
s off
f 131//26 132//26 134//26 133//26
f 138//27 137//27 141//27 142//27
f 137//28 138//28 136//28 135//28
f 153//29 154//29 132//29 131//29
f 151//30 137//30 135//30 153//30
f 152//31 134//31 132//31 154//31
f 142//32 141//32 145//32 146//32
f 151//33 133//33 140//33 155//33
f 152//34 138//34 142//34 156//34
f 133//35 134//35 139//35 140//35
f 158//36 146//36 150//36 160//36
f 155//37 140//37 144//37 157//37
f 156//38 142//38 146//38 158//38
f 140//39 139//39 143//39 144//39
f 149//40 159//40 163//40 166//40
f 144//41 143//41 147//41 148//41
f 146//42 145//42 149//42 150//42
f 157//43 144//43 148//43 159//43
f 145//44 157//44 159//44 149//44
f 148//45 147//45 161//45 162//45
f 139//46 156//46 158//46 143//46
f 141//47 155//47 157//47 145//47
f 143//48 158//48 160//48 147//48
f 134//49 152//49 156//49 139//49
f 137//50 151//50 155//50 141//50
f 138//51 152//51 154//51 136//51
f 133//52 151//52 153//52 131//52
f 135//53 136//53 154//53 153//53
f 165//54 166//54 172//54 171//54
f 161//55 164//55 170//55 167//55
f 150//56 149//56 166//56 165//56
f 159//57 148//57 162//57 163//57
f 147//58 160//58 164//58 161//58
f 160//59 150//59 165//59 164//59
f 172//60 169//60 180//60 179//60
f 168//61 167//61 173//61 174//61
f 163//62 162//62 168//62 169//62
f 166//63 163//63 169//63 172//63
f 164//64 165//64 171//64 170//64
f 162//65 161//65 167//65 168//65
f 176//66 175//66 183//66 184//66
f 167//67 170//67 176//67 173//67
f 169//68 168//68 174//68 175//68
f 170//69 169//69 175//69 176//69
f 179//70 180//70 192//70 191//70
f 170//71 171//71 178//71 177//71
f 171//72 172//72 179//72 178//72
f 169//73 170//73 177//73 180//73
f 184//74 183//74 187//74 188//74
f 175//75 174//75 182//75 183//75
f 173//76 176//76 184//76 181//76
f 174//77 173//77 181//77 182//77
f 186//78 185//78 188//78 187//78
f 183//79 182//79 186//79 187//79
f 181//80 184//80 188//80 185//80
f 182//81 181//81 185//81 186//81
f 192//82 189//82 190//82 191//82
f 177//83 178//83 190//83 189//83
f 180//84 177//84 189//84 192//84
f 178//85 179//85 191//85 190//85
f 193//86 194//86 196//86 195//86
f 200//87 199//87 203//87 204//87
f 199//88 200//88 198//88 197//88
f 215//89 216//89 194//89 193//89
f 213//90 199//90 197//90 215//90
f 214//91 196//91 194//91 216//91
f 204//92 203//92 207//92 208//92
f 213//93 195//93 202//93 217//93
f 214//94 200//94 204//94 218//94
f 195//95 196//95 201//95 202//95
f 220//96 208//96 212//96 222//96
f 217//97 202//97 206//97 219//97
f 218//98 204//98 208//98 220//98
f 202//99 201//99 205//99 206//99
f 211//100 221//100 225//100 228//100
f 206//101 205//101 209//101 210//101
f 208//102 207//102 211//102 212//102
f 219//103 206//103 210//103 221//103
f 207//104 219//104 221//104 211//104
f 210//105 209//105 223//105 224//105
f 201//106 218//106 220//106 205//106
f 203//107 217//107 219//107 207//107
f 205//108 220//108 222//108 209//108
f 196//109 214//109 218//109 201//109
f 199//110 213//110 217//110 203//110
f 200//111 214//111 216//111 198//111
f 195//112 213//112 215//112 193//112
f 197//113 198//113 216//113 215//113
f 227//114 228//114 234//114 233//114
f 223//115 226//115 232//115 229//115
f 212//116 211//116 228//116 227//116
f 221//117 210//117 224//117 225//117
f 209//118 222//118 226//118 223//118
f 222//119 212//119 227//119 226//119
f 234//120 231//120 242//120 241//120
f 230//121 229//121 235//121 236//121
f 225//122 224//122 230//122 231//122
f 228//123 225//123 231//123 234//123
f 226//124 227//124 233//124 232//124
f 224//125 223//125 229//125 230//125
f 238//126 237//126 245//126 246//126
f 229//127 232//127 238//127 235//127
f 231//128 230//128 236//128 237//128
f 232//129 231//129 237//129 238//129
f 241//130 242//130 254//130 253//130
f 232//131 233//131 240//131 239//131
f 233//132 234//132 241//132 240//132
f 231//133 232//133 239//133 242//133
f 246//134 245//134 249//134 250//134
f 237//135 236//135 244//135 245//135
f 235//136 238//136 246//136 243//136
f 236//137 235//137 243//137 244//137
f 248//138 247//138 250//138 249//138
f 245//139 244//139 248//139 249//139
f 243//140 246//140 250//140 247//140
f 244//141 243//141 247//141 248//141
f 254//142 251//142 252//142 253//142
f 239//143 240//143 252//143 251//143
f 242//144 239//144 251//144 254//144
f 240//145 241//145 253//145 252//145
