# Blender v2.91.2 OBJ File: 'camionnete02.blend'
# www.blender.org
mtllib arme_000182.mtl
o Cube.046_Cube.010
v 213.110245 401.509216 -1217.303101
v 164.183746 186.707306 -1210.560791
v 275.896301 380.609009 -1427.541382
v 226.969788 165.807159 -1420.799194
v 7.578751 446.257874 -1283.131958
v -41.347809 231.455994 -1276.389648
v 70.364777 425.357727 -1493.370239
v 21.438248 210.555817 -1486.628174
v 126.666306 430.284546 -927.846558
v 77.739799 215.482697 -921.104187
v -127.791695 260.231323 -986.933044
v -78.865173 475.033203 -993.675354
v 87.544800 443.307251 -796.848328
v 38.618240 228.505402 -790.106079
v -166.913284 273.254059 -855.934937
v -117.986771 488.055969 -862.677246
v 64.433510 451.000488 -719.460449
v 32.862694 293.431396 -727.436401
v -172.668869 338.180115 -793.265259
v -141.098038 495.749268 -785.289307
v 140.153183 425.795044 -973.007019
v 91.226654 210.993195 -966.264709
v -65.378357 470.543701 -1038.835938
v -114.304901 255.741852 -1032.093628
v 253.730865 387.987488 -1353.320801
v 204.804352 173.185577 -1346.578613
v 48.199371 432.736084 -1419.149658
v -0.727142 217.934235 -1412.407349
v 173.130524 402.983459 -1460.455811
v 124.203979 188.181458 -1453.713623
v 110.344482 423.883545 -1250.217529
v 61.417999 209.081604 -1243.475220
v 23.900574 452.658875 -960.760864
v -25.025970 237.856995 -954.018555
v -15.220978 465.681702 -829.762756
v -56.717178 259.631042 -810.134766
v -38.332245 473.374878 -752.374878
v -60.598167 303.410858 -767.876526
v -11.539139 233.367493 -999.179138
v 37.387405 448.169373 -1005.921448
v 102.038544 195.559845 -1379.492920
v 150.965134 410.361816 -1386.235229
v 224.513458 391.796204 -1443.998657
v 112.800842 197.894470 -1227.017944
v 26.356903 226.669830 -937.561462
v -22.069595 252.087494 -799.037659
v -25.950546 295.867279 -756.779297
v 88.770294 436.982239 -989.464172
v 202.347977 399.174622 -1369.778076
v 175.586884 176.994324 -1437.256592
v 161.727341 412.696411 -1233.760498
v 75.283432 441.471741 -944.303772
v 36.161896 454.494507 -813.305542
v 13.050629 462.187744 -735.917664
v 39.843758 222.180359 -982.721985
v 153.421417 184.372711 -1363.035889
v 30.682945 181.961609 -981.459534
v -20.699928 193.148804 -997.916687
v 144.260590 144.153992 -1361.773438
v 92.877762 155.341187 -1378.230591
v 52.257149 168.862885 -1242.212891
v 103.640030 157.675720 -1225.755615
v 315.398315 312.985413 -1285.753906
v 297.436279 318.964539 -1225.608154
v 275.801575 223.981323 -1222.626831
v 293.763489 218.002197 -1282.772583
v 359.812561 303.315460 -1271.528809
v 341.850525 309.294647 -1211.383057
v 320.215759 214.311462 -1208.401733
v 338.177734 208.332275 -1268.547363
v 427.780548 288.517395 -1249.759644
v 409.818512 294.496582 -1189.614014
v 388.183777 199.513367 -1186.632568
v 406.145691 193.534210 -1246.778442
v 471.517090 278.994934 -1235.751587
v 453.555054 284.974121 -1175.605713
v 431.920410 189.990967 -1172.624390
v 449.882324 184.011810 -1232.770020
v 381.851257 108.333572 -2127.929443
v 330.468414 119.520752 -2144.386719
v 379.394806 334.322693 -2151.128906
v 430.777771 323.135529 -2134.671875
vn 0.9325 -0.2030 0.2987
vn 0.2849 -0.0948 -0.9539
vn -0.9325 0.2030 -0.2987
vn 0.2220 0.9746 -0.0306
vn -0.2220 -0.9746 0.0306
vn -0.3552 -0.6653 0.6567
vn -0.3038 -0.9520 0.0371
vn -0.3837 0.0014 0.9235
vn -0.9330 0.2027 -0.2974
vn 0.9330 -0.2027 0.2974
vn 0.6288 -0.1671 -0.7594
vn -0.2680 -0.0250 0.9631
vn -0.1928 -0.9784 0.0742
vn -0.3137 -0.0454 0.9484
vn -0.2402 -0.9662 0.0933
vn -0.2849 0.0948 0.9539
vn 0.1051 0.0073 0.9944
vn 0.3294 -0.9248 0.1903
vn 0.6997 0.7008 0.1393
usemtl Matériau.011
s off
f 25//1 26//1 4//1 3//1
f 29//2 30//2 8//2 7//2
f 27//3 28//3 6//3 5//3
f 22//1 21//1 9//1 10//1
f 42//4 27//4 5//4 31//4
f 56//5 26//5 2//5 44//5
f 10//1 9//1 13//1 14//1
f 55//5 22//5 10//5 45//5
f 23//3 24//3 11//3 12//3
f 46//6 14//6 18//6 47//6
f 45//7 10//7 14//7 46//7
f 12//3 11//3 15//3 16//3
f 33//4 12//4 16//4 35//4
f 54//8 47//8 18//8 17//8
f 16//9 15//9 19//9 20//9
f 14//10 13//10 17//10 18//10
f 5//3 6//3 24//3 23//3
f 44//5 2//5 22//5 55//5
f 31//4 5//4 23//4 40//4
f 2//1 1//1 21//1 22//1
f 50//5 4//5 26//5 56//5
f 29//4 7//4 27//4 42//4
f 7//3 8//3 28//3 27//3
f 26//11 25//11 63//11 66//11
f 43//4 29//4 42//4 49//4
f 8//5 30//5 41//5 28//5
f 51//4 31//4 40//4 48//4
f 6//5 32//5 39//5 24//5
f 20//12 19//12 38//12 37//12
f 52//4 33//4 35//4 53//4
f 11//13 34//13 36//13 15//13
f 15//6 36//6 38//6 19//6
f 24//5 39//5 34//5 11//5
f 28//5 41//5 32//5 6//5
f 49//4 42//4 31//4 51//4
f 30//3 29//3 81//3 80//3
f 3//2 4//2 50//2 43//2
f 25//4 49//4 51//4 1//4
f 9//4 52//4 53//4 13//4
f 1//4 51//4 48//4 21//4
f 3//4 43//4 49//4 25//4
f 30//5 50//5 56//5 41//5
f 32//3 41//3 60//3 61//3
f 37//14 38//14 47//14 54//14
f 34//15 45//15 46//15 36//15
f 36//6 46//6 47//6 38//6
f 39//5 55//5 45//5 34//5
f 55//16 39//16 58//16 57//16
f 61//5 62//5 57//5 58//5
f 60//5 59//5 62//5 61//5
f 39//3 32//3 61//3 58//3
f 44//1 55//1 57//1 62//1
f 41//2 56//2 59//2 60//2
f 56//1 44//1 62//1 59//1
f 66//2 63//2 67//2 70//2
f 1//17 2//17 65//17 64//17
f 2//18 26//18 66//18 65//18
f 25//19 1//19 64//19 63//19
f 69//5 70//5 74//5 73//5
f 64//16 65//16 69//16 68//16
f 65//5 66//5 70//5 69//5
f 63//4 64//4 68//4 67//4
f 73//5 74//5 78//5 77//5
f 67//4 68//4 72//4 71//4
f 70//2 67//2 71//2 74//2
f 68//16 69//16 73//16 72//16
f 76//1 77//1 78//1 75//1
f 71//4 72//4 76//4 75//4
f 74//2 71//2 75//2 78//2
f 82//2 79//2 80//2 81//2
f 50//5 30//5 80//5 79//5
f 43//1 50//1 79//1 82//1
f 29//4 43//4 82//4 81//4
o Cube.048_Cube.024
v -494.448486 543.788940 152.036469
v -676.337219 407.085266 70.635475
v -369.186646 496.980896 -49.249504
v -550.807007 359.596222 -130.886871
v -606.344299 692.776184 -22.927666
v -699.603638 622.684387 -64.664207
v -542.119019 668.776367 -126.132622
v -634.922913 598.638000 -167.278473
v -373.545166 397.667786 -491.009979
v -261.125641 439.819458 -450.913666
v -298.560760 559.013794 -471.259674
v -410.980255 516.862122 -511.355988
v -287.893951 408.465576 -689.601990
v -205.240479 439.456482 -660.122253
v -232.763641 527.090820 -675.080994
v -315.416992 496.099945 -704.560852
v -233.074402 417.821716 -813.590454
v -172.672424 440.469482 -792.047058
v -192.785950 504.511505 -802.978821
v -253.187805 481.863770 -824.522278
v -422.060120 601.501404 -84.450752
v -614.333984 456.435120 -169.669922
v -555.132263 651.291321 129.199493
v -748.229492 506.163513 42.782352
v -274.410431 500.440735 -465.083038
v -393.757629 455.691528 -507.650177
v -209.820068 483.302948 -684.324280
v -297.566772 450.402344 -715.620544
v -171.311829 471.855286 -822.240967
v -235.436005 447.811981 -845.111877
v -198.935547 409.873413 -900.950928
v -138.533508 432.521088 -879.407715
v -135.421082 468.840149 -919.699585
v -199.545074 444.796783 -942.570679
v -217.566345 478.090332 -920.428650
v -157.164368 500.738068 -898.885193
v -174.794312 405.419586 -963.954285
v -114.392334 428.067322 -942.410950
v -111.279846 464.386322 -982.703064
v -175.403992 440.343048 -1005.573914
v -193.425171 473.636566 -983.431946
v -133.023254 496.284180 -961.888611
v -142.037659 383.679047 -994.686462
v -103.159485 398.256348 -980.820007
v -101.156067 421.633301 -1006.754089
v -142.430054 406.157684 -1021.475037
v -171.366943 472.626434 -1050.830933
v -189.388306 505.919983 -1028.688721
v -128.986267 528.567627 -1007.145569
v -107.242798 496.669800 -1027.959839
v -120.585266 367.676514 -1015.496399
v -94.374817 377.504089 -1006.148010
v -93.024109 393.264160 -1023.632141
v -120.849792 382.830994 -1033.556519
v -101.920288 361.437988 -1043.820923
v -85.535950 367.581390 -1037.977173
v -84.691528 377.433167 -1048.906738
v -102.085754 370.911255 -1055.110718
v -161.779480 499.509735 -1067.784180
v -173.761963 521.646973 -1053.061401
v -133.599976 536.705688 -1038.737061
v -119.142578 515.496460 -1052.576904
v -273.307281 461.014282 443.820648
v -372.275787 261.288544 350.480255
v -124.966797 478.526184 250.225281
v -228.598511 280.457367 157.123169
v -429.625977 551.707947 263.073761
v -480.369904 449.302979 215.215546
v -345.135010 562.358276 162.625763
v -406.702606 459.131348 116.075920
v -187.907715 257.604523 -117.683144
v -109.164124 193.868469 -44.465965
v -13.136841 227.217529 -116.472618
v -89.070923 289.974915 -189.836487
v -198.609772 80.166260 -241.346497
v -142.346863 29.966431 -186.798035
v -69.679871 53.765930 -239.846741
v -125.942810 103.965698 -294.395355
v -202.485626 -31.477356 -318.719391
v -161.369446 -68.162598 -278.855988
v -108.265381 -50.770386 -317.623260
v -149.381531 -14.085083 -357.486694
v -203.138550 548.453979 211.243958
v -326.172394 340.188690 113.492844
v -373.636230 531.872070 417.857574
v -478.703491 319.838562 318.765259
v -60.488342 198.917480 -80.503120
v -141.729126 271.403381 -159.268311
v -107.251953 25.187866 -222.501434
v -166.981995 78.481201 -280.411285
v -137.830994 -82.389282 -312.651550
v -181.480896 -43.443298 -354.971283
v -220.071472 -107.847290 -370.862213
v -178.955261 -144.532471 -330.998810
v -152.473145 -165.162048 -373.722992
v -196.123138 -126.215820 -416.042877
v -164.476318 -95.873596 -417.185699
v -123.360168 -132.559021 -377.322357
v -231.666931 -162.394348 -409.100891
v -190.550690 -199.079712 -369.237518
v -164.068665 -219.709229 -411.961761
v -207.718597 -180.763184 -454.281464
v -176.071716 -150.420837 -455.424408
v -134.955505 -187.106018 -415.561066
v -250.544189 -208.529053 -411.413239
v -224.079712 -232.141785 -385.754974
v -207.034363 -245.420227 -413.254608
v -235.129761 -220.352417 -440.493927
v -185.874878 -205.243347 -499.340118
v -154.227966 -174.900757 -500.483124
v -113.111816 -211.586304 -460.619843
v -142.224976 -244.189209 -457.020416
v -264.719238 -239.287720 -412.932098
v -246.877533 -255.206726 -395.634003
v -235.386108 -264.158875 -414.173615
v -254.327209 -247.258789 -432.537628
v -271.975250 -270.774841 -424.995026
v -260.822113 -280.725830 -414.181732
v -253.638702 -286.321594 -425.770905
v -265.479004 -275.757385 -437.250458
v -161.702515 -219.684814 -516.923950
v -140.660095 -199.509766 -517.683899
v -113.321533 -223.902222 -491.178070
v -132.679138 -245.580505 -488.784821
vn 0.4062 -0.8007 0.4403
vn -0.2933 0.8511 -0.4355
vn -0.4064 0.8001 -0.4413
vn -0.3920 -0.0260 0.9196
vn 0.4647 0.8815 0.0840
vn -0.7281 -0.6098 -0.3131
vn -0.2675 0.9350 -0.2328
vn 0.8858 0.4162 0.2053
vn -0.8358 -0.1588 -0.5255
vn 0.4526 -0.8710 0.1913
vn -0.8781 -0.2243 -0.4226
vn 0.9341 0.2524 0.2524
vn -0.8776 -0.2603 -0.4026
vn 0.3222 -0.9426 0.0877
vn 0.8679 0.3903 0.3073
vn 0.3270 -0.9421 0.0735
vn -0.2619 0.9331 -0.2466
vn 0.9465 0.2147 0.2410
vn 0.8776 0.4340 0.2036
vn 0.2823 -0.9391 0.1958
vn -0.8308 -0.4093 -0.3771
vn 0.8873 0.4014 0.2269
vn -0.8092 -0.4436 -0.3852
vn -0.7163 -0.5438 -0.4373
vn 0.6306 0.7672 0.1171
vn -0.8523 -0.1148 -0.5103
vn 0.7762 0.5152 0.3633
vn -0.6583 0.6400 0.3962
vn -0.2894 0.9406 -0.1774
vn -0.8719 -0.3813 -0.3072
vn -0.3003 0.9422 -0.1486
vn 0.9033 0.2794 0.3257
vn -0.8702 -0.3856 -0.3068
vn -0.9050 -0.2745 -0.3251
vn 0.8654 0.3682 0.3398
vn 0.0691 -0.7782 0.6242
vn 0.9019 0.2838 0.3255
vn 0.8677 0.3926 0.3047
vn -0.9049 -0.2720 -0.3275
vn 0.2894 -0.9406 0.1774
vn 0.1016 0.5300 -0.8419
vn -0.7423 -0.5186 -0.4243
vn 0.9742 0.1250 0.1879
vn 0.1143 0.5075 -0.8540
vn 0.8324 0.5537 0.0211
vn -0.9088 -0.2971 -0.2930
vn -0.4539 0.7441 0.4903
vn 0.4539 -0.7441 -0.4903
vn -0.1119 0.8251 -0.5537
vn 0.9657 0.1513 0.2110
vn -0.7659 -0.4980 -0.4066
vn 0.0561 -0.7627 0.6444
vn 0.4590 -0.6773 -0.5750
vn 0.9629 0.1591 0.2178
vn -0.7730 -0.4915 -0.4011
vn 0.2190 -0.9126 0.3453
vn 0.0724 0.5792 -0.8120
vn -0.8201 -0.0659 -0.5684
vn 0.4581 -0.5853 -0.6690
vn -0.4237 0.8603 0.2835
vn 0.6836 -0.5648 0.4623
vn 0.1951 0.8395 -0.5071
vn -0.6667 0.5794 -0.4689
vn -0.3896 -0.2244 0.8932
vn 0.0424 0.9915 0.1232
vn -0.3662 -0.8592 -0.3573
vn 0.7625 0.1933 -0.6174
vn 0.9504 0.3030 -0.0709
vn -0.7794 -0.2728 -0.5641
vn 0.1915 -0.8556 0.4810
vn -0.5220 0.4850 -0.7017
vn 0.5108 -0.6213 0.5942
vn -0.5516 0.4917 -0.6738
vn -0.7795 -0.3196 0.5387
vn 0.6516 -0.5218 0.5506
vn -0.7921 -0.3289 0.5143
vn 0.7629 0.1804 -0.6209
vn 0.4913 -0.6409 0.5898
vn 0.6732 -0.5813 0.4570
vn -0.7743 -0.2254 0.5913
vn -0.6751 0.4513 -0.5836
vn 0.6757 -0.5639 0.4747
vn -0.7038 0.4254 -0.5689
vn -0.7019 -0.6910 -0.1729
vn 0.6182 0.7099 -0.3375
vn -0.6920 -0.4563 -0.5594
vn 0.4572 0.7782 0.4305
vn -0.8923 0.2749 0.3580
vn 0.7779 0.2414 -0.5802
vn -0.6440 0.5262 -0.5553
vn 0.7828 0.2661 -0.5625
vn 0.5596 -0.5527 0.6176
vn -0.6476 0.5244 -0.5528
vn -0.5553 0.5549 -0.6194
vn 0.6370 -0.5045 0.5829
vn -0.5844 0.1997 0.7865
vn 0.5635 -0.5512 0.6154
vn 0.6532 -0.5228 0.5477
vn -0.5534 0.5538 -0.6221
vn -0.7779 -0.2414 0.5802
vn 0.3463 -0.4846 -0.8032
vn -0.7662 0.3408 -0.5447
vn 0.4022 -0.7017 0.5881
vn 0.3257 -0.5041 -0.7999
vn 0.7359 -0.6297 0.2487
vn -0.5707 0.5731 -0.5881
vn 0.6935 0.7184 -0.0541
vn -0.6935 -0.7184 0.0541
vn 0.6330 -0.1213 -0.7646
vn 0.4298 -0.6795 0.5945
vn -0.7489 0.3722 -0.5483
vn -0.5687 0.2230 0.7918
vn -0.6472 -0.7616 -0.0334
vn 0.4380 -0.6727 0.5963
vn -0.7434 0.3817 -0.5492
vn -0.7332 -0.0893 0.6741
vn 0.3919 -0.4392 -0.8084
vn -0.3890 0.3740 -0.8419
vn -0.5806 -0.8022 -0.1394
vn 0.7667 0.5936 -0.2445
usemtl Matériau.012
s off
f 83//20 84//20 86//20 85//20
f 90//21 89//21 93//21 94//21
f 89//22 90//22 88//22 87//22
f 105//23 106//23 84//23 83//23
f 103//24 89//24 87//24 105//24
f 104//25 86//25 84//25 106//25
f 94//26 93//26 97//26 98//26
f 103//27 85//27 92//27 107//27
f 104//28 90//28 94//28 108//28
f 85//29 86//29 91//29 92//29
f 110//30 98//30 102//30 112//30
f 107//31 92//31 96//31 109//31
f 108//32 94//32 98//32 110//32
f 92//33 91//33 95//33 96//33
f 101//34 111//34 115//34 118//34
f 96//35 95//35 99//35 100//35
f 98//36 97//36 101//36 102//36
f 109//37 96//37 100//37 111//37
f 97//38 109//38 111//38 101//38
f 100//39 99//39 113//39 114//39
f 91//40 108//40 110//40 95//40
f 93//41 107//41 109//41 97//41
f 95//42 110//42 112//42 99//42
f 86//43 104//43 108//43 91//43
f 89//44 103//44 107//44 93//44
f 90//45 104//45 106//45 88//45
f 85//46 103//46 105//46 83//46
f 87//47 88//47 106//47 105//47
f 117//48 118//48 124//48 123//48
f 113//49 116//49 122//49 119//49
f 102//50 101//50 118//50 117//50
f 111//51 100//51 114//51 115//51
f 99//52 112//52 116//52 113//52
f 112//53 102//53 117//53 116//53
f 124//54 121//54 132//54 131//54
f 120//55 119//55 125//55 126//55
f 115//56 114//56 120//56 121//56
f 118//57 115//57 121//57 124//57
f 116//58 117//58 123//58 122//58
f 114//59 113//59 119//59 120//59
f 128//60 127//60 135//60 136//60
f 119//61 122//61 128//61 125//61
f 121//62 120//62 126//62 127//62
f 122//63 121//63 127//63 128//63
f 131//64 132//64 144//64 143//64
f 122//65 123//65 130//65 129//65
f 123//66 124//66 131//66 130//66
f 121//67 122//67 129//67 132//67
f 136//68 135//68 139//68 140//68
f 127//69 126//69 134//69 135//69
f 125//70 128//70 136//70 133//70
f 126//71 125//71 133//71 134//71
f 138//72 137//72 140//72 139//72
f 135//73 134//73 138//73 139//73
f 133//74 136//74 140//74 137//74
f 134//75 133//75 137//75 138//75
f 144//76 141//76 142//76 143//76
f 129//77 130//77 142//77 141//77
f 132//78 129//78 141//78 144//78
f 130//79 131//79 143//79 142//79
f 145//80 146//80 148//80 147//80
f 152//81 151//81 155//81 156//81
f 151//82 152//82 150//82 149//82
f 167//83 168//83 146//83 145//83
f 165//84 151//84 149//84 167//84
f 166//85 148//85 146//85 168//85
f 156//86 155//86 159//86 160//86
f 165//87 147//87 154//87 169//87
f 166//88 152//88 156//88 170//88
f 147//89 148//89 153//89 154//89
f 172//90 160//90 164//90 174//90
f 169//91 154//91 158//91 171//91
f 170//92 156//92 160//92 172//92
f 154//93 153//93 157//93 158//93
f 163//94 173//94 177//94 180//94
f 158//95 157//95 161//95 162//95
f 160//96 159//96 163//96 164//96
f 171//97 158//97 162//97 173//97
f 159//98 171//98 173//98 163//98
f 162//99 161//99 175//99 176//99
f 153//100 170//100 172//100 157//100
f 155//101 169//101 171//101 159//101
f 157//102 172//102 174//102 161//102
f 148//103 166//103 170//103 153//103
f 151//104 165//104 169//104 155//104
f 152//105 166//105 168//105 150//105
f 147//106 165//106 167//106 145//106
f 149//107 150//107 168//107 167//107
f 179//108 180//108 186//108 185//108
f 175//109 178//109 184//109 181//109
f 164//110 163//110 180//110 179//110
f 173//111 162//111 176//111 177//111
f 161//112 174//112 178//112 175//112
f 174//113 164//113 179//113 178//113
f 186//114 183//114 194//114 193//114
f 182//115 181//115 187//115 188//115
f 177//116 176//116 182//116 183//116
f 180//117 177//117 183//117 186//117
f 178//118 179//118 185//118 184//118
f 176//119 175//119 181//119 182//119
f 190//120 189//120 197//120 198//120
f 181//121 184//121 190//121 187//121
f 183//122 182//122 188//122 189//122
f 184//123 183//123 189//123 190//123
f 193//124 194//124 206//124 205//124
f 184//125 185//125 192//125 191//125
f 185//126 186//126 193//126 192//126
f 183//127 184//127 191//127 194//127
f 198//128 197//128 201//128 202//128
f 189//129 188//129 196//129 197//129
f 187//130 190//130 198//130 195//130
f 188//131 187//131 195//131 196//131
f 200//132 199//132 202//132 201//132
f 197//133 196//133 200//133 201//133
f 195//134 198//134 202//134 199//134
f 196//135 195//135 199//135 200//135
f 206//136 203//136 204//136 205//136
f 191//137 192//137 204//137 203//137
f 194//138 191//138 203//138 206//138
f 192//139 193//139 205//139 204//139
