# Blender v2.91.2 OBJ File: 'camionnete02.blend'
# www.blender.org
mtllib arme_000137.mtl
o Cube.046_Cube.010
v 85.303032 -113.352158 -1165.603394
v 84.915314 -324.292175 -1101.702881
v 140.045532 -175.342575 -1369.905884
v 139.657776 -386.282593 -1306.005493
v -128.196869 -128.863754 -1218.103760
v -128.584641 -339.803772 -1154.203369
v -73.454346 -190.854141 -1422.406128
v -73.842125 -401.794189 -1358.505859
v 9.933418 -28.003662 -884.319214
v 9.545696 -238.943634 -820.418823
v -203.954163 -254.455231 -872.919067
v -203.566467 -43.515259 -936.819580
v -24.176201 10.622192 -757.019592
v -24.563980 -200.317825 -693.119263
v -238.063904 -215.829437 -745.619446
v -237.676147 -4.889389 -809.520020
v -44.326714 33.440567 -681.816833
v -41.078445 -123.800522 -647.860291
v -254.578430 -139.312088 -700.360596
v -257.826630 17.929031 -734.317078
v -23.789696 220.910049 -820.722595
v -237.289612 205.398483 -873.222961
v -43.940155 243.728439 -745.519714
v -257.440063 228.216934 -798.020081
v 21.692503 -41.319595 -928.204773
v 21.304750 -252.259583 -864.304260
v -191.807434 -56.831192 -980.705078
v -192.195175 -267.771179 -916.804626
v 10.061443 41.629211 -905.413269
v -203.438477 26.117645 -957.913696
v 21.820511 28.313309 -949.298767
v -191.679413 12.801712 -1001.799011
v 10.247154 142.655136 -936.017273
v -203.252716 127.143600 -988.517578
v 22.006165 129.339157 -979.902832
v -191.493698 113.827591 -1032.403076
v -23.277290 79.382065 -780.990845
v -236.777222 63.870438 -833.491211
v -23.091583 180.407974 -811.594849
v -236.591522 164.896408 -864.095093
v -10.826485 337.413818 -907.860962
v -224.326416 321.902222 -960.361328
v -30.977005 360.232178 -832.658203
v -244.476868 344.720642 -885.158447
v 120.719734 -153.458084 -1297.780884
v 120.331978 -364.398071 -1233.880493
v -92.780182 -168.969620 -1350.281128
v -93.167877 -379.909637 -1286.380615
v 33.295593 -183.098343 -1396.156128
v 32.907810 -394.038391 -1332.255737
v -21.446907 -121.107925 -1191.853638
v -21.834656 -332.047974 -1127.953125
v -96.816498 -35.759445 -910.569336
v -97.204239 -246.699417 -846.668884
v -130.926178 2.866394 -783.269836
v -125.311264 -194.981369 -709.861633
v -151.076645 25.684769 -708.066956
v -136.447021 -143.385544 -679.343506
v -130.539658 213.154282 -846.972778
v -150.690125 235.972641 -771.769897
v -85.445206 -260.015381 -890.554382
v -85.057480 -49.075394 -954.454956
v -96.688522 33.873459 -931.663452
v -84.929443 20.557495 -975.548828
v -96.502777 134.899368 -962.267456
v -84.743744 121.583389 -1006.152954
v -130.027252 71.626266 -807.241089
v -129.841522 172.652176 -837.845032
v -117.576462 329.658081 -934.111206
v -137.726944 352.476379 -858.908264
v 13.582043 -372.153870 -1260.130493
v 13.969795 -161.213791 -1324.030884
v 86.670609 -179.220444 -1383.030884
v 31.540325 -328.170105 -1114.827881
v -43.829285 -242.821548 -833.543884
v -89.320404 -192.366501 -701.011414
v -100.456116 -140.770691 -670.493164
v -31.682480 -45.197479 -941.329773
v -31.554474 24.435349 -962.423828
v -31.368790 125.461319 -993.027832
v 67.344749 -157.335953 -1310.905884
v 86.282822 -390.160522 -1319.130615
v 31.928019 -117.230057 -1178.728516
v -43.441551 -31.881577 -897.444397
v -77.551208 6.744293 -770.144775
v -97.701675 29.562668 -694.941833
v -77.164673 217.032181 -833.847778
v -97.315125 239.850571 -758.644836
v -32.070236 -256.137482 -877.429382
v -43.313538 37.751343 -918.538391
v -43.127808 138.777298 -949.142334
v -76.652283 75.504166 -794.115967
v -76.466568 176.530136 -824.719910
v -64.201447 333.535950 -920.985962
v -84.351959 356.354248 -845.783203
v 66.956963 -368.276001 -1247.005615
v -32.142822 -295.633118 -865.464905
v -85.517807 -299.510986 -878.589844
v 66.884323 -407.771667 -1235.041138
v 13.509434 -411.649536 -1248.166138
v -21.907265 -371.543640 -1115.988647
v 31.467749 -367.665710 -1102.863525
v 200.735397 -194.565598 -1220.961914
v 185.074463 -176.831192 -1162.514526
v 184.903183 -270.106689 -1134.258301
v 200.563904 -287.841125 -1192.705933
v 246.871613 -191.213669 -1209.617065
v 231.210678 -173.479233 -1151.169434
v 231.039307 -266.754700 -1122.913330
v 246.700150 -284.489197 -1181.360962
v 317.474701 -186.084091 -1192.255615
v 301.813812 -168.349655 -1133.808105
v 301.642334 -261.625122 -1105.552002
v 317.303162 -279.359589 -1163.999634
v 362.906891 -182.783249 -1181.083862
v 347.245972 -165.048843 -1122.636230
v 347.074677 -258.324341 -1094.380127
v 362.735443 -276.058777 -1152.827637
v 266.122742 -593.810425 -1990.303101
v 212.747772 -597.688354 -2003.428223
v 213.135345 -386.748352 -2067.328613
v 266.510498 -382.870422 -2054.203613
v -95.448715 386.643372 -972.666260
v -193.813049 379.496826 -996.854431
v -114.016281 407.669250 -903.370850
v -212.380554 400.522705 -927.558960
v -15.651985 414.815857 -879.182861
v 2.915665 393.790039 -948.478088
v -46.266487 390.216858 -960.572205
v -64.834122 411.242493 -891.276794
vn 0.9687 0.0704 0.2382
vn 0.2484 -0.2813 -0.9269
vn -0.9687 -0.0704 -0.2382
vn 0.0018 0.9570 -0.2899
vn -0.0018 -0.9570 0.2899
vn -0.2484 0.2813 0.9269
vn -0.1663 -0.5284 0.8326
vn -0.0860 -0.9502 0.2994
vn -0.3258 0.1655 0.9308
vn -0.9690 -0.0705 -0.2368
vn 0.9690 0.0705 0.2368
vn 0.2320 -0.5990 -0.7664
vn 0.2313 -0.6052 -0.7617
vn -0.2320 0.5990 0.7664
vn 0.6095 -0.2309 -0.7584
vn -0.9052 0.2733 -0.3255
vn -0.2053 0.1738 0.9632
vn 0.0298 -0.9436 0.3298
vn -0.2231 0.6679 0.7101
vn -0.2461 0.1416 0.9589
vn -0.0181 -0.9365 0.3503
vn 0.1528 0.2863 0.9459
vn 0.5330 -0.7593 0.3732
vn 0.5360 0.8370 -0.1104
vn 0.9620 -0.0400 0.2699
usemtl Matériau.011
s off
f 45//1 46//1 4//1 3//1
f 49//2 50//2 8//2 7//2
f 47//3 48//3 6//3 5//3
f 26//1 25//1 9//1 10//1
f 72//4 47//4 5//4 51//4
f 96//5 46//5 2//5 74//5
f 10//1 9//1 13//1 14//1
f 84//6 9//6 29//6 90//6
f 89//5 26//5 10//5 75//5
f 27//3 28//3 11//3 12//3
f 76//7 14//7 18//7 77//7
f 75//8 10//8 14//8 76//8
f 12//3 11//3 15//3 16//3
f 53//4 12//4 16//4 55//4
f 86//9 77//9 18//9 17//9
f 16//10 15//10 19//10 20//10
f 16//3 20//3 24//3 22//3
f 14//11 13//11 17//11 18//11
f 59//12 22//12 42//12 69//12
f 86//6 17//6 23//6 88//6
f 17//1 13//1 21//1 23//1
f 55//2 16//2 22//2 59//2
f 5//3 6//3 28//3 27//3
f 74//5 2//5 26//5 89//5
f 51//4 5//4 27//4 62//4
f 2//1 1//1 25//1 26//1
f 32//3 30//3 34//3 36//3
f 62//2 27//2 32//2 64//2
f 27//3 12//3 30//3 32//3
f 9//1 25//1 31//1 29//1
f 66//4 36//4 34//4 65//4
f 90//5 29//5 37//5 92//5
f 64//2 32//2 36//2 66//2
f 29//1 31//1 35//1 33//1
f 92//6 37//6 39//6 93//6
f 29//1 33//1 39//1 37//1
f 34//3 30//3 38//3 40//3
f 65//4 34//4 40//4 68//4
f 69//13 42//13 124//13 123//13
f 23//1 21//1 41//1 43//1
f 88//14 23//14 43//14 95//14
f 22//3 24//3 44//3 42//3
f 82//5 4//5 46//5 96//5
f 49//4 7//4 47//4 72//4
f 7//3 8//3 48//3 47//3
f 46//15 45//15 103//15 106//15
f 73//4 49//4 72//4 81//4
f 8//5 50//5 71//5 48//5
f 24//14 60//14 70//14 44//14
f 42//16 44//16 126//16 124//16
f 91//4 65//4 68//4 93//4
f 38//6 67//6 68//6 40//6
f 79//2 64//2 66//2 80//2
f 30//5 63//5 67//5 38//5
f 80//4 66//4 65//4 91//4
f 78//2 62//2 64//2 79//2
f 83//4 51//4 62//4 78//4
f 6//5 52//5 61//5 28//5
f 85//2 55//2 59//2 87//2
f 20//6 57//6 60//6 24//6
f 87//12 59//12 69//12 94//12
f 20//17 19//17 58//17 57//17
f 84//4 53//4 55//4 85//4
f 11//18 54//18 56//18 15//18
f 15//7 56//7 58//7 19//7
f 28//5 61//5 54//5 11//5
f 12//6 53//6 63//6 30//6
f 48//5 71//5 52//5 6//5
f 81//4 72//4 51//4 83//4
f 50//3 49//3 121//3 120//3
f 3//2 4//2 82//2 73//2
f 45//4 81//4 83//4 1//4
f 9//4 84//4 85//4 13//4
f 21//12 87//12 94//12 41//12
f 13//2 85//2 87//2 21//2
f 1//4 83//4 78//4 25//4
f 25//2 78//2 79//2 31//2
f 35//4 80//4 91//4 33//4
f 31//2 79//2 80//2 35//2
f 33//4 91//4 93//4 39//4
f 70//19 95//19 130//19 125//19
f 3//4 73//4 81//4 45//4
f 50//5 82//5 96//5 71//5
f 60//14 88//14 95//14 70//14
f 67//6 92//6 93//6 68//6
f 63//5 90//5 92//5 67//5
f 52//3 71//3 100//3 101//3
f 57//6 86//6 88//6 60//6
f 57//20 58//20 77//20 86//20
f 54//21 75//21 76//21 56//21
f 56//7 76//7 77//7 58//7
f 61//5 89//5 75//5 54//5
f 53//6 84//6 90//6 63//6
f 89//6 61//6 98//6 97//6
f 101//5 102//5 97//5 98//5
f 100//5 99//5 102//5 101//5
f 61//3 52//3 101//3 98//3
f 74//1 89//1 97//1 102//1
f 71//2 96//2 99//2 100//2
f 96//1 74//1 102//1 99//1
f 106//2 103//2 107//2 110//2
f 1//22 2//22 105//22 104//22
f 2//23 46//23 106//23 105//23
f 45//24 1//24 104//24 103//24
f 109//5 110//5 114//5 113//5
f 104//6 105//6 109//6 108//6
f 105//5 106//5 110//5 109//5
f 103//4 104//4 108//4 107//4
f 113//5 114//5 118//5 117//5
f 107//4 108//4 112//4 111//4
f 110//2 107//2 111//2 114//2
f 108//6 109//6 113//6 112//6
f 116//1 117//1 118//1 115//1
f 111//4 112//4 116//4 115//4
f 114//2 111//2 115//2 118//2
f 122//2 119//2 120//2 121//2
f 82//5 50//5 120//5 119//5
f 73//1 82//1 119//1 122//1
f 49//4 73//4 122//4 121//4
f 123//4 124//4 126//4 125//4
f 129//4 123//4 125//4 130//4
f 128//4 129//4 130//4 127//4
f 95//19 43//19 127//19 130//19
f 94//13 69//13 123//13 129//13
f 43//25 41//25 128//25 127//25
f 44//19 70//19 125//19 126//19
f 41//13 94//13 129//13 128//13
o Cube.048_Cube.024
v -524.456970 539.242615 123.172722
v -693.327820 366.805847 111.099541
v -404.215637 434.187958 -58.219444
v -571.947449 259.379059 -70.543190
v -660.491089 604.401123 -83.175117
v -747.075806 515.987915 -89.365334
v -598.839966 550.536621 -176.179932
v -684.988708 461.930328 -181.630127
v -408.771912 195.917206 -449.655792
v -306.338226 268.434570 -433.187683
v -369.925537 368.383392 -477.791779
v -472.359192 295.866028 -494.259796
v -338.065277 171.438965 -652.862366
v -262.753784 224.755402 -640.754517
v -309.504578 298.240051 -673.548462
v -384.816071 244.923584 -685.656311
v -293.181854 158.893555 -780.510315
v -238.145233 197.856445 -771.661926
v -272.310120 251.558044 -795.627380
v -327.346741 212.595154 -804.475464
v -470.145813 513.756836 -123.582039
v -648.177246 329.448517 -135.095947
v -597.894348 625.395752 68.901245
v -777.171509 442.332947 56.084114
v -333.270996 319.413147 -460.169281
v -442.016907 242.427094 -477.652130
v -278.063629 258.994781 -674.258118
v -358.016083 202.392883 -687.112183
v -245.257904 219.937225 -808.546143
v -303.685974 178.573242 -817.939697
v -262.752136 135.423828 -866.438477
v -207.715424 174.386658 -857.590637
v -214.727295 198.850952 -905.596252
v -273.155548 157.487061 -914.989624
v -296.831726 191.142517 -899.816040
v -241.795013 230.105347 -890.967896
v -241.552887 119.611206 -928.668762
v -186.516174 158.574097 -919.820679
v -193.528290 183.038269 -967.826355
v -251.956421 141.674377 -977.219910
v -275.632538 175.329834 -962.046082
v -220.595917 214.292786 -953.198120
v -206.492004 97.557739 -956.498657
v -171.067322 122.636414 -950.803467
v -175.580750 138.382935 -981.702576
v -213.188263 111.758850 -987.748596
v -257.445740 161.216614 -1029.130005
v -281.121918 194.872070 -1013.956482
v -226.085083 233.834991 -1005.108459
v -199.017517 202.580505 -1019.736511
v -183.180908 81.269409 -974.954529
v -159.298523 98.176697 -971.114929
v -162.341370 108.792603 -991.946228
v -187.695251 90.843384 -996.022400
v -165.112671 71.703247 -1002.732361
v -150.183533 82.272217 -1000.332214
v -152.085754 88.908264 -1013.354187
v -167.934753 77.687988 -1015.902161
v -254.864868 184.113403 -1053.027954
v -270.607422 206.491425 -1042.938843
v -234.012787 232.398285 -1037.055542
v -216.015259 211.616791 -1046.782227
v -286.449371 533.982788 454.824890
v -313.829285 316.639008 352.797607
v -172.437378 613.184204 257.390503
v -196.773560 394.213715 156.131104
v -474.233795 571.633606 285.562531
v -488.272247 460.195374 233.250244
v -408.092621 617.054382 183.228577
v -428.254517 499.970032 132.413834
v -88.547485 406.860352 -99.825722
v -7.830872 410.718109 -4.217873
v 57.205261 501.012939 -60.513725
v -20.626160 497.654785 -156.090057
v 49.268799 268.836548 -193.887787
v 108.941589 268.451813 -122.472939
v 158.878845 335.205933 -163.839783
v 99.206116 335.590698 -235.254700
v 137.933350 183.895508 -252.106934
v 181.541443 183.614197 -199.917847
v 218.034912 232.397278 -230.148224
v 174.426941 232.678497 -282.337311
v -273.564606 654.161865 226.581329
v -311.329224 417.473511 119.688225
v -406.531097 565.855591 436.788544
v -435.598236 335.118347 328.473999
v 32.147156 447.818298 -30.417961
v -54.017212 448.373993 -133.537323
v 146.095642 288.675293 -149.672424
v 82.745483 289.084015 -225.487946
v 216.033081 189.070618 -225.978241
v 169.737793 189.369141 -281.383301
v 187.636169 115.816650 -294.004486
v 231.244202 115.535400 -241.815308
v 274.205261 118.278442 -274.967102
v 227.909912 118.577148 -330.372223
v 231.297241 162.303345 -330.236237
v 274.905396 162.022156 -278.047089
v 224.076294 67.845581 -324.711456
v 267.684448 67.564209 -272.522461
v 310.645508 70.307312 -305.674255
v 264.350098 70.605957 -361.079224
v 267.737366 114.332336 -360.943268
v 311.345520 114.051025 -308.754242
v 240.980225 20.916138 -323.297913
v 269.048950 20.734985 -289.706238
v 296.700989 22.500610 -311.044525
v 266.902832 22.692749 -346.706360
v 307.043091 67.409790 -396.769958
v 310.430359 111.136169 -396.633850
v 354.038269 110.854919 -344.444733
v 353.338440 67.111206 -341.364899
v 251.100403 -11.433228 -322.634735
v 270.023499 -11.555359 -299.988037
v 288.665894 -10.365295 -314.373932
v 268.576721 -10.235474 -338.416168
v 269.268555 -39.600769 -330.764832
v 281.097534 -39.677002 -316.608063
v 292.750977 -38.932861 -325.600769
v 280.193054 -38.851868 -340.629547
v 338.144104 72.965271 -406.963135
v 340.396301 102.039490 -406.872681
v 369.391785 101.852600 -372.171478
v 368.926331 72.766846 -370.123566
vn 0.5146 -0.5453 0.6617
vn -0.4414 0.6066 -0.6612
vn -0.5146 0.5456 -0.6615
vn -0.3434 0.2733 0.8985
vn 0.3657 0.8897 -0.2732
vn -0.6688 -0.7434 -0.0099
vn -0.4772 0.7702 -0.4232
vn 0.8208 0.5710 -0.0182
vn -0.8286 -0.4236 -0.3660
vn 0.5900 -0.6927 0.4148
vn -0.8288 -0.4957 -0.2597
vn 0.8683 0.4891 0.0827
vn -0.8193 -0.5244 -0.2316
vn 0.5245 -0.8043 0.2794
vn 0.7765 0.6206 0.1092
vn 0.5284 -0.8066 0.2651
vn -0.4720 0.7659 -0.4367
vn 0.8880 0.4530 0.0796
vn 0.7710 0.6368 -0.0025
vn 0.4905 -0.7808 0.3870
vn -0.7399 -0.6494 -0.1759
vn 0.7888 0.6141 0.0269
vn -0.7118 -0.6796 -0.1776
vn -0.6447 -0.7442 -0.1748
vn 0.5158 0.8339 -0.1963
vn -0.8572 -0.3656 -0.3626
vn 0.7291 0.6784 0.0904
vn -0.7073 0.6788 0.1974
vn -0.4968 0.7856 -0.3689
vn -0.7824 -0.6128 -0.1108
vn -0.5063 0.7924 -0.3403
vn 0.8362 0.5275 0.1501
vn -0.7797 -0.6164 -0.1097
vn -0.8389 -0.5231 -0.1505
vn 0.7806 0.6076 0.1462
vn 0.2701 -0.5595 0.7836
vn 0.8339 0.5314 0.1490
vn 0.7757 0.6221 0.1062
vn -0.8394 -0.5213 -0.1535
vn 0.4968 -0.7856 0.3689
vn -0.0609 0.3021 -0.9513
vn -0.6322 -0.7474 -0.2042
vn 0.9318 0.3598 0.0473
vn -0.0442 0.2802 -0.9589
vn 0.6913 0.6936 -0.2027
vn -0.8360 -0.5368 -0.1137
vn -0.5792 0.7409 0.3401
vn 0.5792 -0.7409 -0.3401
vn -0.3183 0.6137 -0.7225
vn 0.9190 0.3890 0.0640
vn -0.6588 -0.7280 -0.1897
vn 0.2551 -0.5421 0.8006
vn 0.5652 -0.6987 -0.4386
vn 0.9149 0.3976 0.0690
vn -0.6668 -0.7218 -0.1851
vn 0.4309 -0.7293 0.5314
vn -0.0985 0.3506 -0.9313
vn -0.8145 -0.3725 -0.4448
vn 0.5392 -0.6364 -0.5515
vn -0.5860 0.8029 0.1093
vn 0.8717 -0.2881 0.3965
vn -0.2131 0.8197 -0.5317
vn -0.8604 0.3110 -0.4038
vn -0.2368 -0.3882 0.8906
vn -0.3254 0.9265 0.1891
vn -0.0597 -0.9159 -0.3968
vn 0.5751 0.6586 -0.4853
vn 0.7302 0.6699 0.1342
vn -0.5650 -0.4115 -0.7152
vn 0.5003 -0.6937 0.5182
vn -0.5180 0.0199 -0.8551
vn 0.6265 -0.1265 0.7691
vn -0.5506 0.0049 -0.8348
vn -0.4864 -0.7635 0.4247
vn 0.6724 0.0407 0.7391
vn -0.4835 -0.7787 0.3998
vn 0.5851 0.6497 -0.4854
vn 0.6246 -0.1553 0.7653
vn 0.7496 0.0117 0.6618
vn -0.5568 -0.6906 0.4616
vn -0.6355 -0.1086 -0.7644
vn 0.7343 0.0225 0.6785
vn -0.6430 -0.1471 -0.7516
vn -0.3850 -0.8542 -0.3495
vn 0.2687 0.9435 -0.1938
vn -0.5167 -0.6457 -0.5622
vn 0.1822 0.8658 0.4661
vn -0.9112 -0.0754 0.4051
vn 0.5463 0.7047 -0.4527
vn -0.6686 -0.0324 -0.7429
vn 0.5294 0.7263 -0.4385
vn 0.6097 -0.0443 0.7914
vn -0.6706 -0.0361 -0.7409
vn -0.6076 0.0489 -0.7927
vn 0.6427 0.0436 0.7649
vn -0.7438 -0.2492 0.6202
vn 0.6120 -0.0406 0.7898
vn 0.6749 0.0411 0.7368
vn -0.6048 0.0493 -0.7948
vn -0.5463 -0.7047 0.4527
vn 0.7614 -0.1216 -0.6368
vn -0.6390 -0.2521 -0.7267
vn 0.6003 -0.2600 0.7564
vn 0.7583 -0.1499 -0.6344
vn 0.8774 0.0197 0.4794
vn -0.6382 0.0518 -0.7681
vn 0.0467 0.9983 -0.0336
vn -0.0467 -0.9983 0.0336
vn 0.7226 0.3399 -0.6019
vn 0.6042 -0.2251 0.7644
vn -0.6460 -0.2171 -0.7318
vn -0.7489 -0.2215 0.6246
vn 0.0363 -0.9987 -0.0357
vn 0.6052 -0.2147 0.7665
vn -0.6480 -0.2063 -0.7332
vn -0.6359 -0.5626 0.5283
vn 0.7660 -0.0573 -0.6403
vn -0.3157 0.0274 -0.9484
vn 0.1365 -0.9834 -0.1194
vn 0.2272 0.9562 -0.1847
usemtl Matériau.012
s off
f 131//26 132//26 134//26 133//26
f 138//27 137//27 141//27 142//27
f 137//28 138//28 136//28 135//28
f 153//29 154//29 132//29 131//29
f 151//30 137//30 135//30 153//30
f 152//31 134//31 132//31 154//31
f 142//32 141//32 145//32 146//32
f 151//33 133//33 140//33 155//33
f 152//34 138//34 142//34 156//34
f 133//35 134//35 139//35 140//35
f 158//36 146//36 150//36 160//36
f 155//37 140//37 144//37 157//37
f 156//38 142//38 146//38 158//38
f 140//39 139//39 143//39 144//39
f 149//40 159//40 163//40 166//40
f 144//41 143//41 147//41 148//41
f 146//42 145//42 149//42 150//42
f 157//43 144//43 148//43 159//43
f 145//44 157//44 159//44 149//44
f 148//45 147//45 161//45 162//45
f 139//46 156//46 158//46 143//46
f 141//47 155//47 157//47 145//47
f 143//48 158//48 160//48 147//48
f 134//49 152//49 156//49 139//49
f 137//50 151//50 155//50 141//50
f 138//51 152//51 154//51 136//51
f 133//52 151//52 153//52 131//52
f 135//53 136//53 154//53 153//53
f 165//54 166//54 172//54 171//54
f 161//55 164//55 170//55 167//55
f 150//56 149//56 166//56 165//56
f 159//57 148//57 162//57 163//57
f 147//58 160//58 164//58 161//58
f 160//59 150//59 165//59 164//59
f 172//60 169//60 180//60 179//60
f 168//61 167//61 173//61 174//61
f 163//62 162//62 168//62 169//62
f 166//63 163//63 169//63 172//63
f 164//64 165//64 171//64 170//64
f 162//65 161//65 167//65 168//65
f 176//66 175//66 183//66 184//66
f 167//67 170//67 176//67 173//67
f 169//68 168//68 174//68 175//68
f 170//69 169//69 175//69 176//69
f 179//70 180//70 192//70 191//70
f 170//71 171//71 178//71 177//71
f 171//72 172//72 179//72 178//72
f 169//73 170//73 177//73 180//73
f 184//74 183//74 187//74 188//74
f 175//75 174//75 182//75 183//75
f 173//76 176//76 184//76 181//76
f 174//77 173//77 181//77 182//77
f 186//78 185//78 188//78 187//78
f 183//79 182//79 186//79 187//79
f 181//80 184//80 188//80 185//80
f 182//81 181//81 185//81 186//81
f 192//82 189//82 190//82 191//82
f 177//83 178//83 190//83 189//83
f 180//84 177//84 189//84 192//84
f 178//85 179//85 191//85 190//85
f 193//86 194//86 196//86 195//86
f 200//87 199//87 203//87 204//87
f 199//88 200//88 198//88 197//88
f 215//89 216//89 194//89 193//89
f 213//90 199//90 197//90 215//90
f 214//91 196//91 194//91 216//91
f 204//92 203//92 207//92 208//92
f 213//93 195//93 202//93 217//93
f 214//94 200//94 204//94 218//94
f 195//95 196//95 201//95 202//95
f 220//96 208//96 212//96 222//96
f 217//97 202//97 206//97 219//97
f 218//98 204//98 208//98 220//98
f 202//99 201//99 205//99 206//99
f 211//100 221//100 225//100 228//100
f 206//101 205//101 209//101 210//101
f 208//102 207//102 211//102 212//102
f 219//103 206//103 210//103 221//103
f 207//104 219//104 221//104 211//104
f 210//105 209//105 223//105 224//105
f 201//106 218//106 220//106 205//106
f 203//107 217//107 219//107 207//107
f 205//108 220//108 222//108 209//108
f 196//109 214//109 218//109 201//109
f 199//110 213//110 217//110 203//110
f 200//111 214//111 216//111 198//111
f 195//112 213//112 215//112 193//112
f 197//113 198//113 216//113 215//113
f 227//114 228//114 234//114 233//114
f 223//115 226//115 232//115 229//115
f 212//116 211//116 228//116 227//116
f 221//117 210//117 224//117 225//117
f 209//118 222//118 226//118 223//118
f 222//119 212//119 227//119 226//119
f 234//120 231//120 242//120 241//120
f 230//121 229//121 235//121 236//121
f 225//122 224//122 230//122 231//122
f 228//123 225//123 231//123 234//123
f 226//124 227//124 233//124 232//124
f 224//125 223//125 229//125 230//125
f 238//126 237//126 245//126 246//126
f 229//127 232//127 238//127 235//127
f 231//128 230//128 236//128 237//128
f 232//129 231//129 237//129 238//129
f 241//130 242//130 254//130 253//130
f 232//131 233//131 240//131 239//131
f 233//132 234//132 241//132 240//132
f 231//133 232//133 239//133 242//133
f 246//134 245//134 249//134 250//134
f 237//135 236//135 244//135 245//135
f 235//136 238//136 246//136 243//136
f 236//137 235//137 243//137 244//137
f 248//138 247//138 250//138 249//138
f 245//139 244//139 248//139 249//139
f 243//140 246//140 250//140 247//140
f 244//141 243//141 247//141 248//141
f 254//142 251//142 252//142 253//142
f 239//143 240//143 252//143 251//143
f 242//144 239//144 251//144 254//144
f 240//145 241//145 253//145 252//145
