# Blender v2.91.2 OBJ File: 'camionnete02.blend'
# www.blender.org
mtllib arme_000079.mtl
o Cube.046_Cube.010
v 366.649200 322.531799 -1021.327881
v 367.915314 102.128700 -1021.274902
v 485.270447 323.168579 -1207.090332
v 486.536560 102.765495 -1207.037476
v 180.889954 321.436218 -1139.950806
v 182.156021 101.033104 -1139.897827
v 299.511169 322.073029 -1325.713257
v 300.777283 101.669899 -1325.660400
v 203.331253 321.655029 -765.569702
v 204.597351 101.251976 -765.516724
v 18.838100 100.156380 -884.139648
v 17.572010 320.559479 -884.192566
v 129.419189 321.258270 -649.822205
v 130.685272 100.855171 -649.769348
v -55.074036 99.759575 -768.392212
v -56.340126 320.162689 -768.445190
v 85.755219 321.023865 -581.443909
v 94.114136 160.740051 -592.739990
v -91.645210 159.644501 -711.362915
v -100.004105 319.928314 -700.066772
v 128.156982 540.979980 -649.875061
v -57.602276 539.884399 -768.498047
v 84.493050 540.745605 -581.496704
v -101.266228 539.650024 -700.119629
v 228.811874 321.791809 -805.472656
v 230.077972 101.388756 -805.419739
v 43.052601 320.696259 -924.095581
v 44.318665 100.293159 -924.042664
v 202.913315 394.411743 -765.587158
v 17.154047 393.316223 -884.210144
v 228.393921 394.548523 -805.490112
v 42.634636 393.452942 -924.112976
v 202.306976 499.969849 -765.612549
v 16.547697 498.874268 -884.235352
v 227.787537 500.106628 -805.515503
v 42.028301 499.011047 -924.138367
v 130.671768 394.023926 -652.455811
v -55.087540 392.928345 -771.078735
v 130.065384 499.582092 -652.481140
v -55.693905 498.486450 -771.104065
v 154.939651 677.911560 -693.080322
v -30.819626 676.815979 -811.703308
v 111.275681 677.677185 -624.702026
v -74.483551 676.581543 -743.324890
v 443.393463 322.943787 -1141.510498
v 444.659576 102.540688 -1141.457642
v 257.634186 321.848206 -1260.133301
v 258.900299 101.445091 -1260.080444
v 392.390808 322.620819 -1266.401855
v 393.656921 102.217690 -1266.348999
v 273.769592 321.984009 -1080.639404
v 275.035675 101.580910 -1080.586426
v 110.451637 321.107239 -824.881104
v 111.717712 100.704170 -824.828125
v 36.539539 320.710510 -709.133728
v 37.805614 100.307381 -709.080811
v -7.124417 320.476074 -640.755371
v 1.234482 160.192291 -652.051453
v 35.277336 540.432251 -709.186462
v -8.386593 540.197815 -640.808167
v 137.198318 100.840965 -864.731140
v 135.932236 321.244019 -864.784119
v 110.033684 393.863983 -824.898682
v 135.514282 394.000702 -864.801514
v 109.427338 499.422119 -824.923950
v 134.907928 499.558838 -864.826965
v 37.792110 393.476166 -711.767334
v 37.185745 499.034302 -711.792603
v 62.059998 677.363831 -752.391846
v 18.396044 677.129333 -684.013489
v 351.779907 101.992897 -1200.769043
v 350.513824 322.395996 -1200.821899
v 438.830627 322.894684 -1236.745972
v 321.475494 101.854805 -1050.930664
v 158.157532 100.978081 -795.172485
v 84.245422 100.581276 -679.425110
v 47.674301 160.466156 -622.395752
v 182.372055 321.517914 -835.128357
v 181.954102 394.274597 -835.145813
v 181.347733 499.832703 -835.171204
v 396.953674 322.669891 -1171.166260
v 440.096741 102.491600 -1236.693237
v 320.209381 322.257904 -1050.983765
v 156.891449 321.381134 -795.225464
v 82.979347 320.984375 -679.477966
v 39.315388 320.749969 -611.099609
v 81.717178 540.706116 -679.530762
v 38.053242 540.471680 -611.152466
v 183.638153 101.114861 -835.075439
v 156.473511 394.137878 -795.242920
v 155.867142 499.695984 -795.268250
v 84.231934 393.750061 -682.111572
v 83.625565 499.308167 -682.136841
v 108.499847 677.637695 -722.736023
v 64.835876 677.403198 -654.357727
v 398.219727 102.266792 -1171.113403
v 183.875214 59.847397 -835.065552
v 137.435379 59.573479 -864.721252
v 398.456787 60.999321 -1171.103516
v 352.016998 60.725410 -1200.759155
v 275.272736 60.313423 -1080.576538
v 321.712555 60.587334 -1050.920776
v 500.649750 261.819153 -1057.970215
v 466.714203 261.636963 -1004.826721
v 467.274170 164.176971 -1004.803162
v 501.209625 164.359161 -1057.946899
v 540.791382 262.055939 -1032.336548
v 506.855865 261.873749 -979.192993
v 507.415771 164.413757 -979.169556
v 541.351257 164.595917 -1032.313110
v 602.220886 262.418243 -993.108826
v 568.285339 262.236053 -939.965210
v 568.845215 164.776093 -939.941772
v 602.780701 164.958282 -993.085449
v 641.749939 262.651398 -967.866211
v 607.814392 262.469208 -914.722656
v 608.374390 165.009216 -914.699219
v 642.309814 165.191406 -967.842773
v 829.790344 104.583885 -1846.958008
v 783.350525 104.309990 -1876.613770
v 782.084290 324.713104 -1876.666748
v 828.524231 324.987000 -1847.010986
vn 0.8428 0.0050 0.5382
vn 0.5382 0.0029 -0.8428
vn -0.8428 -0.0050 -0.5382
vn -0.0057 1.0000 -0.0002
vn 0.0057 -1.0000 0.0002
vn -0.5382 -0.0029 0.8428
vn -0.3533 -0.7492 0.5602
vn -0.5358 -0.0871 0.8398
vn -0.8435 -0.0055 -0.5371
vn 0.8435 0.0055 0.5371
vn 0.5060 -0.3480 -0.7892
vn -0.5060 0.3480 0.7892
vn 0.8264 0.0046 -0.5630
vn -0.1631 -0.0007 0.9866
vn 0.4698 -0.8312 0.2972
vn 0.4602 0.8367 0.2968
usemtl Matériau.011
s off
f 45//1 46//1 4//1 3//1
f 49//2 50//2 8//2 7//2
f 47//3 48//3 6//3 5//3
f 26//1 25//1 9//1 10//1
f 72//4 47//4 5//4 51//4
f 96//5 46//5 2//5 74//5
f 10//1 9//1 13//1 14//1
f 84//6 9//6 29//6 90//6
f 89//5 26//5 10//5 75//5
f 27//3 28//3 11//3 12//3
f 76//7 14//7 18//7 77//7
f 75//5 10//5 14//5 76//5
f 12//3 11//3 15//3 16//3
f 53//4 12//4 16//4 55//4
f 86//8 77//8 18//8 17//8
f 16//9 15//9 19//9 20//9
f 16//3 20//3 24//3 22//3
f 14//10 13//10 17//10 18//10
f 59//11 22//11 42//11 69//11
f 86//6 17//6 23//6 88//6
f 17//1 13//1 21//1 23//1
f 55//2 16//2 22//2 59//2
f 5//3 6//3 28//3 27//3
f 74//5 2//5 26//5 89//5
f 51//4 5//4 27//4 62//4
f 2//1 1//1 25//1 26//1
f 32//3 30//3 34//3 36//3
f 62//2 27//2 32//2 64//2
f 27//3 12//3 30//3 32//3
f 9//1 25//1 31//1 29//1
f 66//4 36//4 34//4 65//4
f 90//5 29//5 37//5 92//5
f 64//2 32//2 36//2 66//2
f 29//1 31//1 35//1 33//1
f 92//6 37//6 39//6 93//6
f 29//1 33//1 39//1 37//1
f 34//3 30//3 38//3 40//3
f 65//4 34//4 40//4 68//4
f 69//4 42//4 44//4 70//4
f 23//1 21//1 41//1 43//1
f 88//12 23//12 43//12 95//12
f 22//3 24//3 44//3 42//3
f 82//5 4//5 46//5 96//5
f 49//4 7//4 47//4 72//4
f 7//3 8//3 48//3 47//3
f 46//13 45//13 103//13 106//13
f 73//4 49//4 72//4 81//4
f 8//5 50//5 71//5 48//5
f 24//12 60//12 70//12 44//12
f 94//4 69//4 70//4 95//4
f 91//4 65//4 68//4 93//4
f 38//6 67//6 68//6 40//6
f 79//2 64//2 66//2 80//2
f 30//5 63//5 67//5 38//5
f 80//4 66//4 65//4 91//4
f 78//2 62//2 64//2 79//2
f 83//4 51//4 62//4 78//4
f 6//5 52//5 61//5 28//5
f 85//2 55//2 59//2 87//2
f 20//6 57//6 60//6 24//6
f 87//11 59//11 69//11 94//11
f 20//8 19//8 58//8 57//8
f 84//4 53//4 55//4 85//4
f 11//5 54//5 56//5 15//5
f 15//7 56//7 58//7 19//7
f 28//5 61//5 54//5 11//5
f 12//6 53//6 63//6 30//6
f 48//5 71//5 52//5 6//5
f 81//4 72//4 51//4 83//4
f 50//3 49//3 121//3 120//3
f 3//2 4//2 82//2 73//2
f 45//4 81//4 83//4 1//4
f 9//4 84//4 85//4 13//4
f 21//11 87//11 94//11 41//11
f 13//2 85//2 87//2 21//2
f 1//4 83//4 78//4 25//4
f 25//2 78//2 79//2 31//2
f 35//4 80//4 91//4 33//4
f 31//2 79//2 80//2 35//2
f 33//4 91//4 93//4 39//4
f 41//4 94//4 95//4 43//4
f 3//4 73//4 81//4 45//4
f 50//5 82//5 96//5 71//5
f 60//12 88//12 95//12 70//12
f 67//6 92//6 93//6 68//6
f 63//5 90//5 92//5 67//5
f 52//3 71//3 100//3 101//3
f 57//6 86//6 88//6 60//6
f 57//8 58//8 77//8 86//8
f 54//5 75//5 76//5 56//5
f 56//7 76//7 77//7 58//7
f 61//5 89//5 75//5 54//5
f 53//6 84//6 90//6 63//6
f 89//6 61//6 98//6 97//6
f 101//5 102//5 97//5 98//5
f 100//5 99//5 102//5 101//5
f 61//3 52//3 101//3 98//3
f 74//1 89//1 97//1 102//1
f 71//2 96//2 99//2 100//2
f 96//1 74//1 102//1 99//1
f 106//2 103//2 107//2 110//2
f 1//14 2//14 105//14 104//14
f 2//15 46//15 106//15 105//15
f 45//16 1//16 104//16 103//16
f 109//5 110//5 114//5 113//5
f 104//6 105//6 109//6 108//6
f 105//5 106//5 110//5 109//5
f 103//4 104//4 108//4 107//4
f 113//5 114//5 118//5 117//5
f 107//4 108//4 112//4 111//4
f 110//2 107//2 111//2 114//2
f 108//6 109//6 113//6 112//6
f 116//1 117//1 118//1 115//1
f 111//4 112//4 116//4 115//4
f 114//2 111//2 115//2 118//2
f 122//2 119//2 120//2 121//2
f 82//5 50//5 120//5 119//5
f 73//1 82//1 119//1 122//1
f 49//4 73//4 122//4 121//4
o Cube.047_Cube.022
v -268.346100 513.440002 322.157288
v -266.220612 273.801453 291.070282
v -151.091675 541.645874 112.745247
v -148.966217 302.007324 81.658226
v -450.553223 475.169342 147.039383
v -449.463440 352.299927 131.100204
v -390.433594 489.631287 39.667961
v -389.343811 366.761871 23.728783
v -11.110748 407.602570 -275.641174
v -12.224091 533.126465 -259.357666
v -122.900070 540.062622 -320.393372
v -121.786728 414.538757 -336.676880
v 78.528503 450.261871 -468.089966
v 77.709961 542.549866 -456.117920
v -3.661499 547.649475 -500.992676
v -2.842957 455.361511 -512.964722
v 132.837555 479.096375 -589.271423
v 132.239349 546.539185 -580.522400
v 72.774139 550.265991 -613.316345
v 73.372345 482.823120 -622.065369
v -265.714111 553.506958 71.355522
v -263.457672 299.101135 38.352821
v -390.194122 523.562988 293.672241
v -387.937683 269.157104 260.669525
v -64.880737 541.115356 -294.223816
v -63.698792 407.856354 -311.510803
v 46.150513 550.144653 -494.530640
v 47.019470 452.169586 -507.240356
v 115.668243 553.651062 -620.188660
v 116.303314 482.052216 -629.476746
v 181.572693 489.881500 -669.077820
v 180.974487 557.324341 -660.328796
v 164.137360 565.896790 -711.272400
v 164.772461 494.297913 -720.560486
v 121.882355 494.844299 -711.415527
v 121.284149 562.287109 -702.666504
v 215.431000 497.706299 -727.081665
v 214.832855 565.149170 -718.332642
v 197.995758 573.721558 -769.276245
v 198.630768 502.122742 -778.564331
v 155.740692 502.669128 -769.419373
v 155.142487 570.111938 -760.670349
v 257.423798 513.163513 -749.167786
v 257.038788 556.573425 -743.536438
v 246.201569 562.091125 -776.326477
v 246.610260 516.006165 -782.304871
v 187.181854 509.040436 -832.673218
v 144.291809 509.586853 -823.528320
v 143.693604 577.029663 -814.779297
v 186.546783 580.639282 -823.385132
v 286.640717 522.488586 -763.615967
v 286.381195 551.754333 -759.819458
v 279.075043 555.474243 -781.925720
v 279.350555 524.405029 -785.956116
v 308.756012 531.487305 -788.506165
v 308.593719 549.781616 -786.132935
v 304.026642 552.106995 -799.951721
v 304.198883 532.685242 -802.471252
v 173.724060 524.506897 -858.782959
v 145.205933 524.870239 -852.702271
v 144.808167 569.713806 -846.885010
v 173.301819 572.113892 -852.607178
vn 0.8744 -0.0548 0.4822
vn -0.8054 0.0692 -0.5887
vn -0.8744 0.0548 -0.4822
vn -0.2358 -0.1271 0.9635
vn -0.4284 0.8957 -0.1192
vn 0.0626 -0.9931 -0.0987
vn -0.8341 0.0637 -0.5480
vn 0.1081 0.9939 0.0216
vn -0.2760 -0.8844 -0.3765
vn 0.9360 -0.0371 0.3501
vn -0.0460 -0.9625 -0.2675
vn 0.0994 0.9904 0.0963
vn -0.0215 -0.9716 -0.2356
vn 0.9094 -0.0456 0.4135
vn -0.0630 0.9930 0.0997
vn 0.9155 -0.0438 0.3999
vn -0.8257 0.0654 -0.5603
vn 0.1403 0.9851 0.0991
vn -0.0634 0.9979 -0.0132
vn 0.8555 -0.0591 0.5144
vn 0.1169 -0.9803 -0.1593
vn -0.0389 0.9990 0.0200
vn 0.1576 -0.9752 -0.1552
vn 0.1255 -0.9645 -0.2324
vn -0.2922 0.9462 -0.1390
vn -0.4130 -0.8429 -0.3448
vn 0.0450 0.9864 0.1581
vn -0.9160 -0.0596 0.3967
vn -0.8656 0.0569 -0.4976
vn 0.0536 -0.9933 -0.1027
vn -0.8806 0.0533 -0.4709
vn 0.0403 0.9869 0.1560
vn 0.0579 -0.9932 -0.1009
vn -0.0455 -0.9865 -0.1571
vn -0.0555 0.9888 0.1382
vn 0.4935 -0.1076 0.8631
vn 0.0360 0.9874 0.1542
vn -0.0643 0.9933 0.0965
vn -0.0467 -0.9860 -0.1603
vn 0.8656 -0.0569 0.4976
vn -0.1418 0.1261 -0.9818
vn 0.2620 -0.9505 -0.1670
vn 0.2450 0.9661 0.0816
vn -0.1135 0.1268 -0.9854
vn -0.1265 0.9662 -0.2246
vn -0.0380 -0.9922 -0.1188
vn -0.9786 -0.0350 0.2026
vn 0.9786 0.0350 -0.2026
vn -0.5737 0.1004 -0.8129
vn 0.2118 0.9728 0.0937
vn 0.2289 -0.9607 -0.1571
vn 0.4685 -0.1096 0.8767
vn 0.9508 0.0481 -0.3061
vn 0.2018 0.9746 0.0973
vn 0.2187 -0.9636 -0.1540
vn 0.7590 -0.0771 0.6465
vn -0.2054 0.1241 -0.9708
vn -0.1101 -0.8790 -0.4639
vn 0.9019 0.0634 -0.4273
vn -0.9994 -0.0045 -0.0337
usemtl Matériau.012
s off
f 123//17 124//17 126//17 125//17
f 130//18 129//18 133//18 134//18
f 129//19 130//19 128//19 127//19
f 145//20 146//20 124//20 123//20
f 143//21 129//21 127//21 145//21
f 144//22 126//22 124//22 146//22
f 134//23 133//23 137//23 138//23
f 143//24 125//24 132//24 147//24
f 144//25 130//25 134//25 148//25
f 125//26 126//26 131//26 132//26
f 150//27 138//27 142//27 152//27
f 147//28 132//28 136//28 149//28
f 148//29 134//29 138//29 150//29
f 132//30 131//30 135//30 136//30
f 141//31 151//31 155//31 158//31
f 136//32 135//32 139//32 140//32
f 138//33 137//33 141//33 142//33
f 149//34 136//34 140//34 151//34
f 137//35 149//35 151//35 141//35
f 140//36 139//36 153//36 154//36
f 131//37 148//37 150//37 135//37
f 133//38 147//38 149//38 137//38
f 135//39 150//39 152//39 139//39
f 126//40 144//40 148//40 131//40
f 129//41 143//41 147//41 133//41
f 130//42 144//42 146//42 128//42
f 125//43 143//43 145//43 123//43
f 127//44 128//44 146//44 145//44
f 157//45 158//45 164//45 163//45
f 153//46 156//46 162//46 159//46
f 142//47 141//47 158//47 157//47
f 151//48 140//48 154//48 155//48
f 139//49 152//49 156//49 153//49
f 152//50 142//50 157//50 156//50
f 164//51 161//51 172//51 171//51
f 160//52 159//52 165//52 166//52
f 155//53 154//53 160//53 161//53
f 158//54 155//54 161//54 164//54
f 156//55 157//55 163//55 162//55
f 154//56 153//56 159//56 160//56
f 168//57 167//57 175//57 176//57
f 159//58 162//58 168//58 165//58
f 161//59 160//59 166//59 167//59
f 162//60 161//60 167//60 168//60
f 171//61 172//61 184//61 183//61
f 162//62 163//62 170//62 169//62
f 163//63 164//63 171//63 170//63
f 161//64 162//64 169//64 172//64
f 176//65 175//65 179//65 180//65
f 167//66 166//66 174//66 175//66
f 165//67 168//67 176//67 173//67
f 166//68 165//68 173//68 174//68
f 178//69 177//69 180//69 179//69
f 175//70 174//70 178//70 179//70
f 173//71 176//71 180//71 177//71
f 174//72 173//72 177//72 178//72
f 184//73 181//73 182//73 183//73
f 169//74 170//74 182//74 181//74
f 172//75 169//75 181//75 184//75
f 170//76 171//76 183//76 182//76
o Cube.048_Cube.024
v -545.353210 400.762482 149.506760
v -708.643433 281.387695 17.281429
v -403.858307 422.822693 -45.147076
v -567.148499 303.447937 -177.372406
v -658.890259 586.004333 14.877031
v -742.613708 524.797546 -52.918591
v -586.341858 597.315247 -84.927444
v -670.065308 536.108459 -152.723053
v -326.363892 417.117859 -472.193176
v -240.831665 479.646942 -402.932922
v -297.521454 589.096558 -431.737030
v -383.053650 526.567505 -500.997314
v -196.515472 459.535004 -640.216125
v -133.630249 505.507812 -589.294373
v -175.309875 585.977661 -610.471802
v -238.195099 540.004883 -661.393555
v -114.774048 488.854126 -744.736755
v -68.818359 522.450439 -707.523865
v -99.277283 581.256775 -723.000061
v -145.232971 547.660461 -760.212952
v -463.693481 529.299988 -53.775364
v -637.046143 402.568939 -194.148819
v -613.907776 505.880341 152.873672
v -787.260376 379.149323 12.500217
v -263.264130 536.809326 -419.709167
v -354.067078 470.426971 -493.237488
v -141.489075 548.880981 -613.506470
v -208.249451 500.075195 -667.566162
v -66.727173 555.368408 -735.995300
v -115.514771 519.701782 -775.501404
v -58.112732 494.381012 -819.699768
v -12.157043 527.977356 -782.486877
v -6.894897 566.763367 -820.171997
v -55.682495 531.096741 -859.678101
v -85.888123 558.153381 -842.973389
v -39.932434 591.749695 -805.760498
v -17.987427 499.509338 -873.882019
v 27.968262 533.105652 -836.669128
v 33.230408 571.891724 -874.354309
v -15.557190 536.225098 -913.860413
v -45.762817 563.281738 -897.155640
v 0.192871 596.878052 -859.942749
v 25.688538 487.460541 -894.795044
v 55.268127 509.084961 -870.842773
v 58.655090 534.049805 -895.099121
v 27.252747 511.092804 -920.527405
v -7.220215 571.615112 -956.106689
v -37.425842 598.671753 -939.401855
v 8.529846 632.268127 -902.188965
v 41.567383 607.281799 -916.600586
v 54.868347 477.897003 -909.162354
v 74.810059 492.475586 -893.014404
v 77.093506 509.306152 -909.367371
v 55.922913 493.829224 -926.510437
v 81.194336 477.756012 -931.444702
v 93.660156 486.869263 -921.350403
v 95.087585 497.390259 -931.572876
v 81.853577 487.715454 -942.289246
v 0.147644 601.018127 -969.642517
v -19.936523 619.008423 -958.535278
v 10.619995 641.347046 -933.791992
v 32.587158 624.733337 -943.374451
vn 0.4479 -0.8647 0.2276
vn -0.3696 0.8692 -0.3284
vn -0.4479 0.8647 -0.2276
vn -0.4457 -0.3175 0.8370
vn 0.3769 0.8491 0.3702
vn -0.6469 -0.5462 -0.5321
vn -0.4011 0.8691 -0.2894
vn 0.7775 0.4578 0.4312
vn -0.7392 -0.1241 -0.6620
vn 0.5287 -0.8420 0.1072
vn -0.6632 -0.3787 -0.6456
vn 0.7539 0.4298 0.4970
vn -0.6598 -0.4151 -0.6264
vn 0.4920 -0.8550 0.1643
vn 0.6463 0.5461 0.5330
vn 0.5001 -0.8525 0.1520
vn -0.3917 0.8694 -0.3012
vn 0.7769 0.3965 0.4891
vn 0.6726 0.5978 0.4361
vn 0.4255 -0.8675 0.2577
vn -0.5889 -0.5519 -0.5904
vn 0.6830 0.5666 0.4609
vn -0.5589 -0.5801 -0.5926
vn -0.5569 -0.5177 -0.6494
vn 0.5082 0.7878 0.3481
vn -0.8078 -0.0170 -0.5892
vn 0.7020 0.4399 0.5601
vn -0.7372 0.4517 0.5026
vn -0.4373 0.8662 -0.2419
vn -0.6522 -0.5382 -0.5339
vn -0.4554 0.8634 -0.2171
vn 0.6997 0.4444 0.5594
vn -0.6496 -0.5420 -0.5332
vn -0.7026 -0.4400 -0.5593
vn 0.6405 0.5218 0.5635
vn 0.0772 -0.7856 0.6139
vn 0.6975 0.4485 0.5590
vn 0.6463 0.5485 0.5305
vn -0.7024 -0.4374 -0.5616
vn 0.4373 -0.8662 0.2419
vn 0.1958 0.5953 -0.7793
vn -0.4689 -0.6362 -0.6127
vn 0.8371 0.3186 0.4448
vn 0.2160 0.5770 -0.7877
vn 0.6510 0.7171 0.2491
vn -0.7094 -0.4650 -0.5296
vn -0.7218 0.5940 0.3551
vn 0.7218 -0.5940 -0.3551
vn -0.1463 0.8174 -0.5572
vn 0.8171 0.3408 0.4649
vn -0.5004 -0.6223 -0.6020
vn 0.0563 -0.7746 0.6299
vn 0.7338 -0.5220 -0.4348
vn 0.8110 0.3474 0.4708
vn -0.5099 -0.6179 -0.5985
vn 0.3211 -0.8654 0.3848
vn 0.1496 0.6349 -0.7579
vn -0.6064 -0.2021 -0.7691
vn 0.7367 -0.4263 -0.5249
vn -0.6657 0.7278 0.1650
usemtl Matériau.012
s off
f 185//77 186//77 188//77 187//77
f 192//78 191//78 195//78 196//78
f 191//79 192//79 190//79 189//79
f 207//80 208//80 186//80 185//80
f 205//81 191//81 189//81 207//81
f 206//82 188//82 186//82 208//82
f 196//83 195//83 199//83 200//83
f 205//84 187//84 194//84 209//84
f 206//85 192//85 196//85 210//85
f 187//86 188//86 193//86 194//86
f 212//87 200//87 204//87 214//87
f 209//88 194//88 198//88 211//88
f 210//89 196//89 200//89 212//89
f 194//90 193//90 197//90 198//90
f 203//91 213//91 217//91 220//91
f 198//92 197//92 201//92 202//92
f 200//93 199//93 203//93 204//93
f 211//94 198//94 202//94 213//94
f 199//95 211//95 213//95 203//95
f 202//96 201//96 215//96 216//96
f 193//97 210//97 212//97 197//97
f 195//98 209//98 211//98 199//98
f 197//99 212//99 214//99 201//99
f 188//100 206//100 210//100 193//100
f 191//101 205//101 209//101 195//101
f 192//102 206//102 208//102 190//102
f 187//103 205//103 207//103 185//103
f 189//104 190//104 208//104 207//104
f 219//105 220//105 226//105 225//105
f 215//106 218//106 224//106 221//106
f 204//107 203//107 220//107 219//107
f 213//108 202//108 216//108 217//108
f 201//109 214//109 218//109 215//109
f 214//110 204//110 219//110 218//110
f 226//111 223//111 234//111 233//111
f 222//112 221//112 227//112 228//112
f 217//113 216//113 222//113 223//113
f 220//114 217//114 223//114 226//114
f 218//115 219//115 225//115 224//115
f 216//116 215//116 221//116 222//116
f 230//117 229//117 237//117 238//117
f 221//118 224//118 230//118 227//118
f 223//119 222//119 228//119 229//119
f 224//120 223//120 229//120 230//120
f 233//121 234//121 246//121 245//121
f 224//122 225//122 232//122 231//122
f 225//123 226//123 233//123 232//123
f 223//124 224//124 231//124 234//124
f 238//125 237//125 241//125 242//125
f 229//126 228//126 236//126 237//126
f 227//127 230//127 238//127 235//127
f 228//128 227//128 235//128 236//128
f 240//129 239//129 242//129 241//129
f 237//130 236//130 240//130 241//130
f 235//131 238//131 242//131 239//131
f 236//132 235//132 239//132 240//132
f 246//133 243//133 244//133 245//133
f 231//134 232//134 244//134 243//134
f 234//135 231//135 243//135 246//135
f 232//136 233//136 245//136 244//136
