# Blender v2.91.2 OBJ File: 'camionnete02.blend'
# www.blender.org
mtllib arme_000207.mtl
o Cube.046_Cube.010
v -79.824974 -154.005569 -1192.394165
v -132.068451 -357.870361 -1126.904541
v -45.248222 -228.563309 -1396.905029
v -97.491737 -432.428223 -1331.415527
v -291.140320 -115.803665 -1242.048462
v -343.383820 -319.668488 -1176.558960
v -256.563538 -190.361435 -1446.559204
v -308.807129 -394.226318 -1381.069946
v -127.430305 -51.354263 -910.823242
v -179.673798 -255.219040 -845.333740
v -390.989105 -217.017166 -894.988037
v -338.745636 -13.152328 -960.477478
v -148.974792 -4.897751 -783.393799
v -201.218323 -208.762589 -717.904358
v -412.533661 -170.560715 -767.558655
v -360.290222 33.304138 -833.048096
v -161.702362 22.546646 -708.114319
v -197.416565 -130.361954 -673.016907
v -408.731964 -92.160027 -722.671204
v -373.017731 60.748550 -757.768433
v -96.892822 198.336838 -848.680786
v -308.208191 236.538742 -898.335144
v -109.620346 225.781235 -773.401306
v -320.935699 263.983154 -823.055542
v -120.002991 -67.369736 -954.753418
v -172.246490 -271.234558 -889.263977
v -331.318329 -29.167847 -1004.407715
v -383.561829 -233.032669 -938.918213
v -110.184341 15.943085 -932.441711
v -321.499664 54.144989 -982.096069
v -102.756996 -0.072418 -976.371948
v -314.072327 38.129486 -1026.026123
v -85.163223 113.580490 -963.806824
v -296.478516 151.782394 -1013.460938
v -77.735962 97.564957 -1007.737000
v -289.051208 135.766861 -1057.391235
v -131.241898 61.349548 -807.892456
v -342.557312 99.551437 -857.546753
v -106.220795 158.986984 -839.257446
v -317.536163 197.188828 -888.911743
v -56.434250 307.528931 -936.853638
v -267.749634 345.730835 -986.507996
v -69.161850 334.973389 -861.574219
v -280.477173 373.175232 -911.228394
v -57.454903 -202.242142 -1324.706421
v -109.698448 -406.106995 -1259.216919
v -268.770233 -164.040237 -1374.360596
v -321.013702 -367.905090 -1308.871094
v -150.905914 -209.462387 -1421.732056
v -203.149445 -413.327271 -1356.242676
v -185.482635 -134.904587 -1217.221313
v -237.726151 -338.769440 -1151.731812
v -233.087952 -32.253281 -935.650330
v -285.331451 -236.118103 -870.160828
v -254.632477 14.203201 -808.220947
v -297.653809 -178.449493 -733.400146
v -267.360016 41.647583 -732.941406
v -295.090271 -125.583740 -703.132446
v -202.550476 217.437851 -873.507935
v -215.278030 244.882156 -798.228394
v -277.904144 -252.133606 -914.091064
v -225.660645 -48.268799 -979.580566
v -215.842010 35.044037 -957.268921
v -208.414673 19.028519 -1001.199097
v -190.820847 132.681473 -988.633789
v -183.393600 116.665878 -1032.564087
v -236.899597 80.450516 -832.719666
v -211.878448 178.087936 -864.084595
v -162.091949 326.629944 -961.680847
v -174.819504 354.074280 -886.401245
v -215.356079 -387.006042 -1284.043945
v -163.112564 -183.141159 -1349.533325
v -98.077026 -219.012863 -1409.318359
v -184.897278 -348.319885 -1139.318237
v -232.502655 -245.668579 -857.747375
v -262.031219 -184.889420 -725.029663
v -259.467651 -132.023636 -694.761902
v -172.831787 -57.819275 -967.166992
v -155.585846 9.478012 -988.785522
v -130.564789 107.115433 -1020.150513
v -110.283768 -192.691666 -1337.119873
v -150.320541 -422.877747 -1343.829102
v -132.653870 -144.455093 -1204.807739
v -180.259155 -41.803787 -923.236816
v -201.803635 4.652725 -795.807373
v -214.531219 32.097122 -720.527832
v -149.721634 207.887314 -861.094421
v -162.449203 235.331711 -785.814880
v -225.075333 -261.684082 -901.677551
v -163.013153 25.493546 -944.855347
v -137.992050 123.130966 -976.220337
v -184.070740 70.900055 -820.306091
v -159.049622 168.537491 -851.671021
v -109.263062 317.079468 -949.267212
v -121.990662 344.523804 -873.987671
v -162.527313 -396.556519 -1271.630615
v -234.857208 -299.854980 -889.415527
v -287.686035 -290.304504 -901.829041
v -172.309219 -434.727417 -1259.368530
v -225.138000 -425.176941 -1271.781982
v -247.508026 -376.940369 -1139.469849
v -194.679199 -386.490845 -1127.056274
v 10.815796 -261.751770 -1248.606445
v 0.923943 -240.422104 -1190.099365
v -22.177444 -330.569031 -1161.140503
v -12.285812 -351.898773 -1219.647827
v 56.479904 -270.007080 -1237.876587
v 46.588074 -248.677322 -1179.369385
v 23.486633 -338.824280 -1150.410645
v 33.378357 -360.153992 -1208.917725
v 126.360611 -282.640198 -1221.456299
v 116.468750 -261.310425 -1162.949219
v 93.367249 -351.457336 -1133.990356
v 103.258987 -372.787109 -1192.497681
v 171.327881 -290.769470 -1210.890137
v 161.436127 -269.439697 -1152.382935
v 138.334656 -359.586670 -1123.424194
v 148.226379 -380.916382 -1181.931274
v -36.728912 -667.813965 -2015.686035
v -89.557770 -658.263550 -2028.099487
v -37.314346 -454.398682 -2093.588867
v 15.514572 -463.949219 -2081.175537
v -126.961304 376.104431 -1000.943848
v -224.319153 393.704895 -1023.820740
v -138.689041 401.392944 -931.577698
v -236.046875 418.993347 -954.454590
v -41.331238 383.792419 -908.700928
v -29.603378 358.504028 -978.066895
v -78.282257 367.304382 -989.505310
v -90.010117 392.592651 -920.139343
vn 0.9588 -0.1733 0.2253
vn 0.1569 -0.3383 -0.9279
vn -0.9588 0.1733 -0.2253
vn 0.2370 0.9249 -0.2971
vn -0.2370 -0.9249 0.2971
vn -0.1569 0.3383 0.9279
vn -0.2814 -0.4665 0.8386
vn -0.3168 -0.8972 0.3077
vn -0.2607 0.2456 0.9337
vn -0.9591 0.1733 -0.2239
vn 0.9591 -0.1733 0.2239
vn 0.0638 -0.6412 -0.7647
vn 0.0616 -0.6469 -0.7600
vn -0.0638 0.6412 0.7647
vn 0.5215 -0.3792 -0.7644
vn -0.8125 0.4898 -0.3160
vn -0.1415 0.2236 0.9644
vn -0.2025 -0.9196 0.3365
vn -0.0388 0.7054 0.7078
vn -0.1891 0.2026 0.9608
vn -0.2468 -0.9007 0.3576
vn 0.2331 0.2428 0.9417
vn 0.3313 -0.8670 0.3721
vn 0.7267 0.6758 -0.1235
vn 0.9252 -0.2784 0.2579
usemtl Matériau.011
s off
f 45//1 46//1 4//1 3//1
f 49//2 50//2 8//2 7//2
f 47//3 48//3 6//3 5//3
f 26//1 25//1 9//1 10//1
f 72//4 47//4 5//4 51//4
f 96//5 46//5 2//5 74//5
f 10//1 9//1 13//1 14//1
f 84//6 9//6 29//6 90//6
f 89//5 26//5 10//5 75//5
f 27//3 28//3 11//3 12//3
f 76//7 14//7 18//7 77//7
f 75//8 10//8 14//8 76//8
f 12//3 11//3 15//3 16//3
f 53//4 12//4 16//4 55//4
f 86//9 77//9 18//9 17//9
f 16//10 15//10 19//10 20//10
f 16//3 20//3 24//3 22//3
f 14//11 13//11 17//11 18//11
f 59//12 22//12 42//12 69//12
f 86//6 17//6 23//6 88//6
f 17//1 13//1 21//1 23//1
f 55//2 16//2 22//2 59//2
f 5//3 6//3 28//3 27//3
f 74//5 2//5 26//5 89//5
f 51//4 5//4 27//4 62//4
f 2//1 1//1 25//1 26//1
f 32//3 30//3 34//3 36//3
f 62//2 27//2 32//2 64//2
f 27//3 12//3 30//3 32//3
f 9//1 25//1 31//1 29//1
f 66//4 36//4 34//4 65//4
f 90//5 29//5 37//5 92//5
f 64//2 32//2 36//2 66//2
f 29//1 31//1 35//1 33//1
f 92//6 37//6 39//6 93//6
f 29//1 33//1 39//1 37//1
f 34//3 30//3 38//3 40//3
f 65//4 34//4 40//4 68//4
f 69//13 42//13 124//13 123//13
f 23//1 21//1 41//1 43//1
f 88//14 23//14 43//14 95//14
f 22//3 24//3 44//3 42//3
f 82//5 4//5 46//5 96//5
f 49//4 7//4 47//4 72//4
f 7//3 8//3 48//3 47//3
f 46//15 45//15 103//15 106//15
f 73//4 49//4 72//4 81//4
f 8//5 50//5 71//5 48//5
f 24//14 60//14 70//14 44//14
f 42//16 44//16 126//16 124//16
f 91//4 65//4 68//4 93//4
f 38//6 67//6 68//6 40//6
f 79//2 64//2 66//2 80//2
f 30//5 63//5 67//5 38//5
f 80//4 66//4 65//4 91//4
f 78//2 62//2 64//2 79//2
f 83//4 51//4 62//4 78//4
f 6//5 52//5 61//5 28//5
f 85//2 55//2 59//2 87//2
f 20//6 57//6 60//6 24//6
f 87//12 59//12 69//12 94//12
f 20//17 19//17 58//17 57//17
f 84//4 53//4 55//4 85//4
f 11//18 54//18 56//18 15//18
f 15//7 56//7 58//7 19//7
f 28//5 61//5 54//5 11//5
f 12//6 53//6 63//6 30//6
f 48//5 71//5 52//5 6//5
f 81//4 72//4 51//4 83//4
f 50//3 49//3 121//3 120//3
f 3//2 4//2 82//2 73//2
f 45//4 81//4 83//4 1//4
f 9//4 84//4 85//4 13//4
f 21//12 87//12 94//12 41//12
f 13//2 85//2 87//2 21//2
f 1//4 83//4 78//4 25//4
f 25//2 78//2 79//2 31//2
f 35//4 80//4 91//4 33//4
f 31//2 79//2 80//2 35//2
f 33//4 91//4 93//4 39//4
f 70//19 95//19 130//19 125//19
f 3//4 73//4 81//4 45//4
f 50//5 82//5 96//5 71//5
f 60//14 88//14 95//14 70//14
f 67//6 92//6 93//6 68//6
f 63//5 90//5 92//5 67//5
f 52//3 71//3 100//3 101//3
f 57//6 86//6 88//6 60//6
f 57//20 58//20 77//20 86//20
f 54//21 75//21 76//21 56//21
f 56//7 76//7 77//7 58//7
f 61//5 89//5 75//5 54//5
f 53//6 84//6 90//6 63//6
f 89//6 61//6 98//6 97//6
f 101//5 102//5 97//5 98//5
f 100//5 99//5 102//5 101//5
f 61//3 52//3 101//3 98//3
f 74//1 89//1 97//1 102//1
f 71//2 96//2 99//2 100//2
f 96//1 74//1 102//1 99//1
f 106//2 103//2 107//2 110//2
f 1//22 2//22 105//22 104//22
f 2//23 46//23 106//23 105//23
f 45//24 1//24 104//24 103//24
f 109//5 110//5 114//5 113//5
f 104//6 105//6 109//6 108//6
f 105//5 106//5 110//5 109//5
f 103//4 104//4 108//4 107//4
f 113//5 114//5 118//5 117//5
f 107//4 108//4 112//4 111//4
f 110//2 107//2 111//2 114//2
f 108//6 109//6 113//6 112//6
f 116//1 117//1 118//1 115//1
f 111//4 112//4 116//4 115//4
f 114//2 111//2 115//2 118//2
f 122//2 119//2 120//2 121//2
f 82//5 50//5 120//5 119//5
f 73//1 82//1 119//1 122//1
f 49//4 73//4 122//4 121//4
f 123//4 124//4 126//4 125//4
f 129//4 123//4 125//4 130//4
f 128//4 129//4 130//4 127//4
f 95//19 43//19 127//19 130//19
f 94//13 69//13 123//13 129//13
f 43//25 41//25 128//25 127//25
f 44//19 70//19 125//19 126//19
f 41//13 94//13 129//13 128//13
o Cube.048_Cube.024
v -470.363403 573.997070 128.139557
v -657.493896 421.173065 123.185349
v -386.408936 477.848083 -77.054436
v -574.415283 324.597839 -82.644493
v -623.294922 673.955200 -50.607841
v -719.242004 595.598022 -53.148026
v -580.249207 624.656921 -155.816589
v -675.738586 546.486572 -158.026184
v -470.560181 272.019531 -472.555634
v -353.016724 316.658569 -457.942902
v -390.202332 429.156921 -502.484894
v -507.745728 384.517944 -517.097717
v -411.127380 229.788635 -676.457214
v -324.706879 262.608276 -665.713501
v -352.046509 345.319550 -698.461914
v -438.467133 312.500000 -709.205505
v -372.632446 205.884399 -804.568848
v -309.477509 229.868469 -796.717651
v -329.457001 290.312866 -820.649719
v -392.612061 266.328735 -828.500916
v -450.844269 570.083557 -125.032753
v -649.259460 408.623260 -130.081238
v -540.048340 672.246094 92.756813
v -738.710449 510.004669 87.497284
v -366.718994 372.644073 -484.962555
v -491.505859 325.254333 -500.475677
v -331.438293 299.451691 -699.276489
v -423.184387 264.609741 -710.682190
v -311.363647 252.874878 -833.673523
v -378.410492 227.412781 -842.008728
v -350.269409 175.192627 -890.699036
v -287.114349 199.176636 -882.847839
v -288.464935 224.419739 -930.943359
v -355.511810 198.957642 -939.278442
v -369.795685 237.529755 -924.058411
v -306.640717 261.513855 -916.206970
v -334.588928 154.321777 -953.073608
v -271.434082 178.305908 -945.222229
v -272.784607 203.548950 -993.317810
v -339.831451 178.086853 -1001.653015
v -354.115295 216.658936 -986.432922
v -290.960327 240.643005 -978.581482
v -306.561066 124.080872 -981.181213
v -265.911072 139.518188 -976.127502
v -266.780457 155.766052 -1007.084412
v -309.935303 139.377319 -1012.449524
v -340.995087 198.167328 -1053.634888
v -355.278961 236.739502 -1038.414917
v -292.123932 260.723633 -1030.563477
v -273.948242 223.629456 -1045.299683
v -288.331970 102.400757 -999.809509
v -260.926910 112.808228 -996.402649
v -261.512848 123.762085 -1017.272888
v -290.606842 112.713257 -1020.889832
v -273.629486 88.502808 -1027.742676
v -256.498138 95.008667 -1025.612915
v -256.864441 101.855957 -1038.659180
v -275.051453 94.949219 -1040.920288
v -333.108002 219.591095 -1077.735840
v -342.605377 245.238281 -1067.615723
v -300.612793 261.185516 -1062.395386
v -288.527679 236.521118 -1072.193848
v -318.853851 427.699036 485.226288
v -378.430725 244.519257 339.303864
v -149.866394 499.886414 324.829163
v -213.868896 318.909790 178.732910
v -459.911743 540.150146 304.152466
v -490.458496 446.228821 229.333954
v -364.691589 579.887756 222.705872
v -406.083069 484.370880 147.004715
v -139.166260 367.645844 -91.683342
v -69.086853 289.861572 -23.802841
v 34.602600 343.396301 -67.084846
v -32.520874 420.469818 -134.799591
v -116.027954 227.604980 -255.221466
v -65.895813 166.858398 -205.646393
v 12.512390 205.695801 -237.346375
v -37.619873 266.442413 -286.921539
v -98.730347 139.468201 -357.194946
v -62.094360 95.075439 -320.966187
v -4.794678 123.457336 -344.132080
v -41.430725 167.850159 -380.360779
v -230.105133 568.474609 289.256805
v -311.528473 377.090515 133.238892
v -422.982971 492.583618 458.619415
v -486.231140 298.115784 303.704742
v -15.556396 305.349792 -48.071320
v -87.944641 393.064819 -119.655067
v -25.147705 172.479919 -234.581146
v -78.369202 236.969940 -287.211060
v -32.316711 90.723572 -352.477112
v -71.210205 137.851990 -390.938416
v -101.715149 78.516174 -428.863892
v -65.079163 34.123474 -392.635040
v -30.457092 25.966003 -433.707977
v -69.350647 73.094543 -472.169281
v -40.315857 103.677551 -460.121979
v -3.679871 59.284546 -423.893127
v -102.734070 35.266235 -480.829620
v -66.098083 -9.126587 -444.600800
v -31.475952 -17.283936 -485.673920
v -70.369568 29.844604 -524.135071
v -41.334595 60.427551 -512.087891
v -4.698730 16.034729 -475.858917
v -117.455933 -9.293274 -497.795319
v -93.875061 -37.867004 -474.476471
v -71.590332 -43.117493 -500.913361
v -96.624329 -12.782959 -525.669189
v -39.636108 18.422729 -569.209656
v -10.601257 49.005676 -557.162292
v 26.034668 4.612854 -520.933533
v -0.742676 -28.705627 -530.748291
v -128.837830 -39.056641 -509.368073
v -112.940308 -58.320251 -493.647003
v -97.916626 -61.860168 -511.470245
v -114.793762 -41.409302 -528.159912
v -131.625793 -66.606445 -529.930969
v -121.688049 -78.648315 -520.103577
v -112.296570 -80.861023 -531.244812
v -122.846741 -68.077087 -541.677673
v -11.885620 9.725891 -585.219788
v 7.420105 30.060913 -577.209229
v 31.779724 0.543701 -553.120117
v 13.975220 -21.610352 -559.646118
vn 0.5284 -0.6657 0.5269
vn -0.3786 0.7340 -0.5638
vn -0.5293 0.6634 -0.5288
vn -0.1946 0.2072 0.9587
vn 0.4246 0.8741 -0.2360
vn -0.7443 -0.6677 0.0089
vn -0.2753 0.8633 -0.4229
vn 0.8966 0.4374 -0.0695
vn -0.9099 -0.2686 -0.3160
vn 0.5016 -0.8065 0.3130
vn -0.9300 -0.2735 -0.2453
vn 0.9641 0.2566 0.0679
vn -0.9277 -0.3036 -0.2172
vn 0.3105 -0.9088 0.2787
vn 0.9086 0.4069 0.0946
vn 0.3135 -0.9120 0.2644
vn -0.2715 0.8578 -0.4364
vn 0.9741 0.2166 0.0648
vn 0.9057 0.4236 -0.0171
vn 0.2850 -0.8771 0.3866
vn -0.8812 -0.4443 -0.1615
vn 0.9177 0.3972 0.0122
vn -0.8616 -0.4805 -0.1634
vn -0.7688 -0.6208 -0.1535
vn 0.6154 0.7657 -0.1870
vn -0.9322 -0.2361 -0.2742
vn 0.8054 0.5903 0.0530
vn -0.5969 0.7194 0.3552
vn -0.2897 0.8834 -0.3684
vn -0.9124 -0.3979 -0.0962
vn -0.2967 0.8925 -0.3398
vn 0.9436 0.3021 0.1355
vn -0.9106 -0.4021 -0.0951
vn -0.9451 -0.2971 -0.1359
vn 0.9098 0.3935 0.1316
vn 0.1326 -0.6060 0.7843
vn 0.9424 0.3064 0.1344
vn 0.9081 0.4086 0.0916
vn -0.9453 -0.2953 -0.1388
vn 0.2897 -0.8834 0.3684
vn 0.0031 0.3038 -0.9527
vn -0.8019 -0.5662 -0.1905
vn 0.9928 0.1153 0.0327
vn 0.0137 0.2784 -0.9604
vn 0.8399 0.4976 -0.2168
vn -0.9452 -0.3110 -0.0990
vn -0.3705 0.8636 0.3419
vn 0.3705 -0.8636 -0.3419
vn -0.1649 0.6709 -0.7230
vn 0.9879 0.1469 0.0494
vn -0.8227 -0.5407 -0.1757
vn 0.1227 -0.5854 0.8014
vn 0.3661 -0.8197 -0.4405
vn 0.9862 0.1562 0.0543
vn -0.8288 -0.5327 -0.1712
vn 0.2422 -0.8118 0.5314
vn -0.0209 0.3603 -0.9326
vn -0.8880 -0.1586 -0.4316
vn 0.3549 -0.7534 -0.5536
vn -0.3648 0.9245 0.1107
vn 0.6811 -0.5846 0.4408
vn 0.1788 0.9496 -0.2574
vn -0.6642 0.6031 -0.4416
vn -0.4736 -0.4494 0.7575
vn -0.0949 0.9410 0.3248
vn -0.2037 -0.7920 -0.5756
vn 0.8372 0.3685 -0.4040
vn 0.9147 0.3829 0.1297
vn -0.6625 -0.1999 -0.7219
vn 0.2336 -0.9250 0.2997
vn -0.4344 0.6323 -0.6415
vn 0.4497 -0.7372 0.5043
vn -0.4686 0.6308 -0.6185
vn -0.8313 -0.4710 0.2953
vn 0.5894 -0.6252 0.5116
vn -0.8389 -0.4741 0.2674
vn 0.8389 0.3570 -0.4109
vn 0.4344 -0.7552 0.4909
vn 0.6305 -0.6580 0.4116
vn -0.8419 -0.3932 0.3695
vn -0.6019 0.5647 -0.5646
vn 0.6303 -0.6445 0.4328
vn -0.6305 0.5352 -0.5621
vn -0.5854 -0.6938 -0.4195
vn 0.5707 0.8160 -0.0915
vn -0.5479 -0.3878 -0.7412
vn 0.2956 0.7074 0.6420
vn -0.9596 0.1039 0.2614
vn 0.8424 0.4060 -0.3544
vn -0.5816 0.6308 -0.5136
vn 0.8424 0.4255 -0.3305
vn 0.4903 -0.6750 0.5514
vn -0.5853 0.6284 -0.5123
vn -0.4859 0.6778 -0.5518
vn 0.5685 -0.6171 0.5440
vn -0.7191 -0.0268 0.6944
vn 0.4943 -0.6729 0.5503
vn 0.5916 -0.6254 0.5089
vn -0.4835 0.6774 -0.5543
vn -0.8424 -0.4060 0.3544
vn 0.5091 -0.2515 -0.8231
vn -0.6896 0.4453 -0.5711
vn 0.3515 -0.8163 0.4584
vn 0.4898 -0.2718 -0.8284
vn 0.7302 -0.6494 0.2124
vn -0.5076 0.6868 -0.5202
vn 0.6370 0.7293 0.2495
vn -0.6370 -0.7293 -0.2495
vn 0.7575 0.0984 -0.6454
vn 0.3760 -0.7956 0.4750
vn -0.6743 0.4770 -0.5637
vn -0.7063 -0.0052 0.7079
vn -0.5738 -0.7472 -0.3353
vn 0.3832 -0.7893 0.4798
vn -0.6695 0.4867 -0.5612
vn -0.8253 -0.2817 0.4894
vn 0.5514 -0.2049 -0.8087
vn -0.2722 0.5652 -0.7788
vn -0.4879 -0.7571 -0.4344
vn 0.7497 0.6598 0.0504
usemtl Matériau.012
s off
f 131//26 132//26 134//26 133//26
f 138//27 137//27 141//27 142//27
f 137//28 138//28 136//28 135//28
f 153//29 154//29 132//29 131//29
f 151//30 137//30 135//30 153//30
f 152//31 134//31 132//31 154//31
f 142//32 141//32 145//32 146//32
f 151//33 133//33 140//33 155//33
f 152//34 138//34 142//34 156//34
f 133//35 134//35 139//35 140//35
f 158//36 146//36 150//36 160//36
f 155//37 140//37 144//37 157//37
f 156//38 142//38 146//38 158//38
f 140//39 139//39 143//39 144//39
f 149//40 159//40 163//40 166//40
f 144//41 143//41 147//41 148//41
f 146//42 145//42 149//42 150//42
f 157//43 144//43 148//43 159//43
f 145//44 157//44 159//44 149//44
f 148//45 147//45 161//45 162//45
f 139//46 156//46 158//46 143//46
f 141//47 155//47 157//47 145//47
f 143//48 158//48 160//48 147//48
f 134//49 152//49 156//49 139//49
f 137//50 151//50 155//50 141//50
f 138//51 152//51 154//51 136//51
f 133//52 151//52 153//52 131//52
f 135//53 136//53 154//53 153//53
f 165//54 166//54 172//54 171//54
f 161//55 164//55 170//55 167//55
f 150//56 149//56 166//56 165//56
f 159//57 148//57 162//57 163//57
f 147//58 160//58 164//58 161//58
f 160//59 150//59 165//59 164//59
f 172//60 169//60 180//60 179//60
f 168//61 167//61 173//61 174//61
f 163//62 162//62 168//62 169//62
f 166//63 163//63 169//63 172//63
f 164//64 165//64 171//64 170//64
f 162//65 161//65 167//65 168//65
f 176//66 175//66 183//66 184//66
f 167//67 170//67 176//67 173//67
f 169//68 168//68 174//68 175//68
f 170//69 169//69 175//69 176//69
f 179//70 180//70 192//70 191//70
f 170//71 171//71 178//71 177//71
f 171//72 172//72 179//72 178//72
f 169//73 170//73 177//73 180//73
f 184//74 183//74 187//74 188//74
f 175//75 174//75 182//75 183//75
f 173//76 176//76 184//76 181//76
f 174//77 173//77 181//77 182//77
f 186//78 185//78 188//78 187//78
f 183//79 182//79 186//79 187//79
f 181//80 184//80 188//80 185//80
f 182//81 181//81 185//81 186//81
f 192//82 189//82 190//82 191//82
f 177//83 178//83 190//83 189//83
f 180//84 177//84 189//84 192//84
f 178//85 179//85 191//85 190//85
f 193//86 194//86 196//86 195//86
f 200//87 199//87 203//87 204//87
f 199//88 200//88 198//88 197//88
f 215//89 216//89 194//89 193//89
f 213//90 199//90 197//90 215//90
f 214//91 196//91 194//91 216//91
f 204//92 203//92 207//92 208//92
f 213//93 195//93 202//93 217//93
f 214//94 200//94 204//94 218//94
f 195//95 196//95 201//95 202//95
f 220//96 208//96 212//96 222//96
f 217//97 202//97 206//97 219//97
f 218//98 204//98 208//98 220//98
f 202//99 201//99 205//99 206//99
f 211//100 221//100 225//100 228//100
f 206//101 205//101 209//101 210//101
f 208//102 207//102 211//102 212//102
f 219//103 206//103 210//103 221//103
f 207//104 219//104 221//104 211//104
f 210//105 209//105 223//105 224//105
f 201//106 218//106 220//106 205//106
f 203//107 217//107 219//107 207//107
f 205//108 220//108 222//108 209//108
f 196//109 214//109 218//109 201//109
f 199//110 213//110 217//110 203//110
f 200//111 214//111 216//111 198//111
f 195//112 213//112 215//112 193//112
f 197//113 198//113 216//113 215//113
f 227//114 228//114 234//114 233//114
f 223//115 226//115 232//115 229//115
f 212//116 211//116 228//116 227//116
f 221//117 210//117 224//117 225//117
f 209//118 222//118 226//118 223//118
f 222//119 212//119 227//119 226//119
f 234//120 231//120 242//120 241//120
f 230//121 229//121 235//121 236//121
f 225//122 224//122 230//122 231//122
f 228//123 225//123 231//123 234//123
f 226//124 227//124 233//124 232//124
f 224//125 223//125 229//125 230//125
f 238//126 237//126 245//126 246//126
f 229//127 232//127 238//127 235//127
f 231//128 230//128 236//128 237//128
f 232//129 231//129 237//129 238//129
f 241//130 242//130 254//130 253//130
f 232//131 233//131 240//131 239//131
f 233//132 234//132 241//132 240//132
f 231//133 232//133 239//133 242//133
f 246//134 245//134 249//134 250//134
f 237//135 236//135 244//135 245//135
f 235//136 238//136 246//136 243//136
f 236//137 235//137 243//137 244//137
f 248//138 247//138 250//138 249//138
f 245//139 244//139 248//139 249//139
f 243//140 246//140 250//140 247//140
f 244//141 243//141 247//141 248//141
f 254//142 251//142 252//142 253//142
f 239//143 240//143 252//143 251//143
f 242//144 239//144 251//144 254//144
f 240//145 241//145 253//145 252//145
