# Blender v2.91.2 OBJ File: 'camionnete02.blend'
# www.blender.org
mtllib arme_000112.mtl
o Cube.046_Cube.010
v 256.297333 737.635864 -1118.011475
v 265.946381 519.885376 -1150.733398
v 341.039764 771.538574 -1318.631592
v 350.688782 553.788086 -1351.353516
v 53.061707 741.434082 -1203.216797
v 62.710697 523.683472 -1235.938721
v 137.804108 775.336792 -1403.836914
v 147.453125 557.586182 -1436.558838
v 139.623840 690.958496 -841.797546
v 149.272827 473.208008 -874.519287
v -53.962791 477.006134 -959.724548
v -63.611801 694.756714 -927.002747
v 86.821419 669.833984 -716.792297
v 96.470398 452.083435 -749.514221
v -106.765244 455.881561 -834.719543
v -116.414246 673.632202 -801.997681
v 55.628098 657.354492 -642.945068
v 68.014488 501.042511 -679.021240
v -135.221207 504.840668 -764.226501
v -147.607605 661.152710 -728.150269
v 157.827057 698.241089 -884.891968
v 167.476044 480.490509 -917.613770
v -45.408600 702.039307 -970.097290
v -35.759613 484.288666 -1002.819092
v 311.123047 759.569946 -1247.806641
v 320.772064 541.819336 -1280.528564
v 107.887421 763.368042 -1333.011963
v 117.536438 545.617432 -1365.733643
v 239.421906 773.437744 -1361.234375
v 249.070953 555.687134 -1393.956299
v 154.679550 739.535034 -1160.614258
v 164.328537 521.784424 -1193.336182
v 38.006012 692.857666 -884.400085
v 47.655018 475.107025 -917.121887
v -14.796410 671.733032 -759.395020
v -1.507278 461.800812 -777.168335
v -45.989716 659.253662 -685.547668
v -20.695183 494.814117 -729.634705
v 65.858215 482.389557 -960.216431
v 56.209206 700.140137 -927.494629
v 219.154251 543.718384 -1323.131104
v 209.505249 761.468994 -1290.409180
v 290.230865 772.488159 -1339.932861
v 215.137451 520.834839 -1172.034790
v 98.463905 474.157562 -895.820618
v 32.753296 461.160522 -762.804810
v 13.565399 494.173798 -715.271118
v 107.018143 699.190552 -906.193237
v 260.314148 760.519409 -1269.107910
v 299.879883 554.737549 -1372.655029
v 205.488419 738.585449 -1139.312988
v 88.814903 691.908081 -863.098877
v 36.012482 670.783569 -738.093689
v 4.819180 658.304077 -664.246338
v 116.667130 481.440094 -938.915100
v 269.963135 542.768921 -1301.829834
v 118.473785 440.669220 -945.041809
v 67.664871 441.618744 -966.343079
v 271.769714 501.998077 -1307.956543
v 220.960876 502.947601 -1329.257812
v 166.135162 481.013580 -1199.462891
v 216.944092 480.064056 -1178.161499
v 384.197845 691.119507 -1184.813721
v 359.954437 681.420532 -1127.419800
v 364.221252 585.133423 -1141.888916
v 388.464447 594.832397 -1199.283203
v 428.115967 690.298828 -1166.401489
v 403.872528 680.599731 -1109.007324
v 408.139313 584.312744 -1123.476562
v 432.382660 594.011719 -1180.870605
v 495.324738 689.042847 -1138.224609
v 471.081329 679.343750 -1080.830566
v 475.348022 583.056763 -1095.299805
v 499.591339 592.755737 -1152.693970
v 538.572754 688.234497 -1120.093262
v 514.329346 678.535522 -1062.699219
v 518.596191 582.248535 -1077.168457
v 542.839417 591.947510 -1134.562500
v 578.275024 666.114746 -2031.729736
v 527.466125 667.064209 -2053.031006
v 517.817017 884.814819 -2020.309326
v 568.625977 883.865356 -1999.007812
vn 0.9221 -0.0172 0.3866
vn 0.3845 0.1538 -0.9102
vn -0.9221 0.0172 -0.3866
vn -0.0438 0.9879 0.1485
vn 0.0438 -0.9879 -0.1485
vn -0.2228 -0.8405 0.4939
vn -0.0413 -0.9879 -0.1496
vn -0.4517 -0.2616 0.8530
vn -0.9226 0.0165 -0.3854
vn 0.9226 -0.0165 0.3854
vn 0.7163 0.1346 -0.6847
vn -0.3372 -0.2654 0.9032
vn 0.0689 -0.9924 -0.1024
vn -0.3743 -0.2934 0.8797
vn 0.0184 -0.9959 -0.0882
vn -0.3845 -0.1538 0.9102
vn 0.0094 -0.1482 0.9889
vn 0.5453 -0.8334 0.0895
vn 0.4723 0.8144 0.3371
usemtl Matériau.011
s off
f 25//1 26//1 4//1 3//1
f 29//2 30//2 8//2 7//2
f 27//3 28//3 6//3 5//3
f 22//1 21//1 9//1 10//1
f 42//4 27//4 5//4 31//4
f 56//5 26//5 2//5 44//5
f 10//1 9//1 13//1 14//1
f 55//5 22//5 10//5 45//5
f 23//3 24//3 11//3 12//3
f 46//6 14//6 18//6 47//6
f 45//7 10//7 14//7 46//7
f 12//3 11//3 15//3 16//3
f 33//4 12//4 16//4 35//4
f 54//8 47//8 18//8 17//8
f 16//9 15//9 19//9 20//9
f 14//10 13//10 17//10 18//10
f 5//3 6//3 24//3 23//3
f 44//5 2//5 22//5 55//5
f 31//4 5//4 23//4 40//4
f 2//1 1//1 21//1 22//1
f 50//5 4//5 26//5 56//5
f 29//4 7//4 27//4 42//4
f 7//3 8//3 28//3 27//3
f 26//11 25//11 63//11 66//11
f 43//4 29//4 42//4 49//4
f 8//5 30//5 41//5 28//5
f 51//4 31//4 40//4 48//4
f 6//5 32//5 39//5 24//5
f 20//12 19//12 38//12 37//12
f 52//4 33//4 35//4 53//4
f 11//13 34//13 36//13 15//13
f 15//6 36//6 38//6 19//6
f 24//5 39//5 34//5 11//5
f 28//5 41//5 32//5 6//5
f 49//4 42//4 31//4 51//4
f 30//3 29//3 81//3 80//3
f 3//2 4//2 50//2 43//2
f 25//4 49//4 51//4 1//4
f 9//4 52//4 53//4 13//4
f 1//4 51//4 48//4 21//4
f 3//4 43//4 49//4 25//4
f 30//5 50//5 56//5 41//5
f 32//3 41//3 60//3 61//3
f 37//14 38//14 47//14 54//14
f 34//15 45//15 46//15 36//15
f 36//6 46//6 47//6 38//6
f 39//5 55//5 45//5 34//5
f 55//16 39//16 58//16 57//16
f 61//5 62//5 57//5 58//5
f 60//5 59//5 62//5 61//5
f 39//3 32//3 61//3 58//3
f 44//1 55//1 57//1 62//1
f 41//2 56//2 59//2 60//2
f 56//1 44//1 62//1 59//1
f 66//2 63//2 67//2 70//2
f 1//17 2//17 65//17 64//17
f 2//18 26//18 66//18 65//18
f 25//19 1//19 64//19 63//19
f 69//5 70//5 74//5 73//5
f 64//16 65//16 69//16 68//16
f 65//5 66//5 70//5 69//5
f 63//4 64//4 68//4 67//4
f 73//5 74//5 78//5 77//5
f 67//4 68//4 72//4 71//4
f 70//2 67//2 71//2 74//2
f 68//16 69//16 73//16 72//16
f 76//1 77//1 78//1 75//1
f 71//4 72//4 76//4 75//4
f 74//2 71//2 75//2 78//2
f 82//2 79//2 80//2 81//2
f 50//5 30//5 80//5 79//5
f 43//1 50//1 79//1 82//1
f 29//4 43//4 82//4 81//4
o Cube.048_Cube.024
v -551.406372 490.322388 165.160751
v -696.451904 326.612183 62.407173
v -414.175781 493.568024 -33.723091
v -558.949524 328.587189 -137.839417
v -689.424622 628.951965 0.651993
v -763.793518 545.013062 -52.032639
v -619.062683 630.616089 -101.321327
v -693.137817 546.440674 -153.553833
v -371.043640 456.791809 -486.148529
v -277.993256 517.381836 -425.377655
v -343.832916 625.279968 -432.143188
v -436.883331 564.689880 -492.914093
v -273.848541 524.390930 -667.463196
v -205.435791 568.938110 -622.783081
v -253.842712 648.267212 -627.757202
v -322.255463 603.720032 -672.437317
v -212.572449 569.416321 -780.085815
v -162.577332 601.970825 -747.434143
v -197.952332 659.943420 -751.069092
v -247.947479 627.388977 -783.720703
v -488.115540 587.114502 -60.920387
v -641.620422 412.619843 -169.794952
v -633.879883 583.782166 150.187317
v -787.863525 409.983582 41.101746
v -305.612427 574.375549 -431.788483
v -404.396851 510.051697 -496.304230
v -219.330261 613.944092 -640.407898
v -291.958862 566.651733 -687.841187
v -166.913269 637.676025 -772.029358
v -219.989288 603.115479 -806.693054
v -169.830688 586.193237 -862.257385
v -119.835632 618.747803 -829.605774
v -122.895264 661.419861 -863.101318
v -175.971313 626.859253 -897.764954
v -204.125671 650.061829 -873.424683
v -154.130554 682.616333 -840.773071
v -139.806580 599.390991 -921.387878
v -89.811523 631.945496 -888.736206
v -92.871155 674.617432 -922.231750
v -145.947083 640.056885 -956.895386
v -174.101501 663.259460 -932.555054
v -124.106323 695.813904 -899.903503
v -99.814758 592.388428 -950.400391
v -67.635071 613.342285 -929.384094
v -69.604492 640.808289 -950.943481
v -103.767029 618.563171 -973.255066
v -146.597839 680.020508 -995.743835
v -174.752319 703.223145 -971.403381
v -124.757202 735.777649 -938.751831
v -93.521912 714.581116 -961.080017
v -73.092590 586.247437 -970.339172
v -51.398010 600.373901 -956.170471
v -52.725647 618.890808 -970.705383
v -75.757080 603.893799 -985.747253
v -50.969666 590.078979 -996.520813
v -37.408020 598.909607 -987.663757
v -38.237915 610.484680 -996.749695
v -52.635193 601.109863 -1006.152649
v -143.031128 711.062012 -1006.957458
v -161.751404 726.489685 -990.773132
v -128.508972 748.135559 -969.062683
v -107.740234 734.041748 -983.908997
v -254.985596 596.811035 340.864410
v -315.777069 363.721405 360.131104
v -111.681824 539.546387 155.351349
v -174.587891 311.277710 171.152740
v -421.858429 563.527954 150.139435
v -453.027893 444.016357 160.018036
v -343.882507 539.602966 52.805702
v -380.636261 417.126984 63.123497
v -21.625549 197.859558 -127.033653
v 83.054138 233.750732 -66.555489
v 106.546204 319.140961 -155.592346
v 3.875793 284.109680 -216.102325
v 107.487183 66.586365 -241.001984
v 184.765930 90.988647 -195.246155
v 203.515076 154.401672 -260.731445
v 126.236267 129.999451 -306.487366
v 190.406494 -13.659790 -312.771271
v 246.880737 4.173096 -279.333435
v 260.582275 50.514587 -327.189178
v 204.108154 32.681580 -360.627014
v -205.310364 573.388672 93.738831
v -280.420959 326.222839 111.419235
v -365.773041 629.351624 291.589142
v -430.310669 381.898285 312.043091
v 102.380554 271.373230 -110.287544
v -9.205872 236.137451 -176.356567
v 206.320007 110.558472 -236.254272
v 124.279053 84.652527 -284.829651
v 269.583191 9.331299 -316.165283
v 209.628845 -9.600464 -351.663574
v 238.560547 -80.349243 -358.533844
v 295.034668 -62.516113 -325.096039
v 323.994202 -60.145996 -371.008331
v 264.039734 -79.077698 -406.506744
v 257.557373 -36.367310 -414.074493
v 314.031555 -18.534363 -380.636688
v 273.439453 -127.369568 -392.365356
v 329.913635 -109.536682 -358.927582
v 358.873230 -107.166504 -404.840088
v 298.918823 -126.098267 -440.338348
v 292.436279 -83.387695 -447.906036
v 348.910461 -65.554626 -414.468201
v 299.886230 -169.611694 -389.857391
v 336.236267 -158.133362 -368.335083
v 354.876160 -156.607849 -397.886902
v 316.286194 -168.793335 -420.735626
v 328.161194 -130.038574 -487.625458
v 321.678589 -87.327759 -495.193146
v 378.153015 -69.494995 -461.755280
v 388.115540 -111.106689 -452.127167
v 316.602905 -199.039856 -387.890717
v 341.108948 -191.301575 -373.380829
v 353.675476 -190.273315 -393.303986
v 327.659241 -198.488281 -408.707855
v 337.139832 -225.042236 -397.467102
v 352.458923 -220.204712 -388.396790
v 360.314270 -219.561829 -400.850739
v 344.051208 -224.697144 -410.480011
v 352.583801 -121.925781 -508.595978
v 348.273499 -93.526917 -513.627869
v 385.823792 -81.669434 -491.394501
v 392.448181 -109.337646 -484.992584
vn 0.5633 -0.7347 0.3781
vn -0.4648 0.8121 -0.3529
vn -0.5633 0.7341 -0.3792
vn -0.3980 -0.2081 0.8934
vn 0.2555 0.9476 0.1915
vn -0.5685 -0.7186 -0.4004
vn -0.4848 0.8662 -0.1212
vn 0.7500 0.5778 0.3218
vn -0.7501 -0.2715 -0.6031
vn 0.6369 -0.7611 0.1226
vn -0.7449 -0.3534 -0.5658
vn 0.8065 0.4251 0.4109
vn -0.7366 -0.3913 -0.5516
vn 0.5523 -0.8335 -0.0147
vn 0.7013 0.5299 0.4768
vn 0.5582 -0.8293 -0.0278
vn -0.4777 0.8682 -0.1343
vn 0.8294 0.3943 0.3957
vn 0.7083 0.5928 0.3833
vn 0.5034 -0.8597 0.0863
vn -0.6543 -0.5262 -0.5432
vn 0.7242 0.5600 0.4025
vn -0.6238 -0.5519 -0.5534
vn -0.5445 -0.6300 -0.5537
vn 0.4239 0.8693 0.2541
vn -0.7959 -0.2402 -0.5557
vn 0.6337 0.6310 0.4475
vn -0.7931 0.4353 0.4261
vn -0.5123 0.8560 -0.0691
vn -0.7076 -0.5224 -0.4759
vn -0.5257 0.8496 -0.0421
vn 0.7631 0.4298 0.4827
vn -0.7048 -0.5261 -0.4760
vn -0.7661 -0.4256 -0.4816
vn 0.7019 0.5023 0.5050
vn 0.2174 -0.8372 0.5018
vn 0.7607 0.4337 0.4830
vn 0.7007 0.5326 0.4747
vn -0.7665 -0.4228 -0.4835
vn 0.5123 -0.8560 0.0691
vn 0.0321 0.6828 -0.7299
vn -0.5360 -0.5997 -0.5941
vn 0.8847 0.3254 0.3337
vn 0.0514 0.6668 -0.7435
vn 0.6495 0.7288 0.2167
vn -0.7667 -0.4539 -0.4541
vn -0.6778 0.5068 0.5327
vn 0.6778 -0.5068 -0.5327
vn -0.2773 0.8585 -0.4314
vn 0.8675 0.3442 0.3592
vn -0.5658 -0.5891 -0.5769
vn 0.1990 -0.8293 0.5221
vn 0.6726 -0.4265 -0.6047
vn 0.8621 0.3497 0.3667
vn -0.5748 -0.5857 -0.5714
vn 0.4221 -0.8773 0.2283
vn -0.0117 0.7170 -0.6970
vn -0.7183 -0.1619 -0.6766
vn 0.6557 -0.3220 -0.6829
vn -0.6612 0.6625 0.3520
vn 0.7637 -0.1572 0.6262
vn -0.2689 0.5003 -0.8231
vn -0.7597 0.1606 -0.6302
vn -0.3586 0.1694 0.9180
vn -0.1357 0.9233 -0.3594
vn -0.2036 -0.9720 0.1176
vn 0.2363 0.6209 -0.7474
vn 0.7431 0.6652 -0.0728
vn -0.6068 -0.6608 -0.4418
vn 0.5259 -0.4552 0.7185
vn -0.7468 -0.2462 -0.6177
vn 0.8481 0.1477 0.5088
vn -0.7674 -0.2615 -0.5854
vn -0.1527 -0.7241 0.6725
vn 0.8406 0.3043 0.4480
vn -0.1525 -0.7417 0.6531
vn 0.2487 0.6152 -0.7481
vn 0.8478 0.1135 0.5181
vn 0.8947 0.2721 0.3542
vn -0.2209 -0.6552 0.7224
vn -0.7993 -0.3694 -0.4741
vn 0.8832 0.2758 0.3793
vn -0.7938 -0.4049 -0.4539
vn -0.4671 -0.8837 -0.0312
vn 0.3530 0.8390 -0.4141
vn -0.5918 -0.7733 -0.2275
vn 0.3211 0.9467 -0.0252
vn -0.9325 0.2636 0.2471
vn 0.2107 0.6691 -0.7127
vn -0.8402 -0.2965 -0.4541
vn 0.1947 0.6902 -0.6969
vn 0.8175 0.2236 0.5308
vn -0.8406 -0.3000 -0.4510
vn -0.8170 -0.2191 -0.5334
vn 0.8205 0.3079 0.4817
vn -0.4426 -0.2256 0.8679
vn 0.8183 0.2272 0.5279
vn 0.8422 0.3046 0.4449
vn -0.8152 -0.2188 -0.5364
vn -0.2107 -0.6691 0.7127
vn 0.5357 -0.1326 -0.8340
vn -0.7592 -0.5001 -0.4165
vn 0.8456 0.0067 0.5337
vn 0.5398 -0.1599 -0.8265
vn 0.9551 0.2611 0.1400
vn -0.8384 -0.2159 -0.5005
vn -0.1877 0.9624 -0.1963
vn 0.1877 -0.9624 0.1963
vn 0.4086 0.3135 -0.8572
vn 0.8440 0.0427 0.5346
vn -0.7750 -0.4686 -0.4240
vn -0.4521 -0.1987 0.8695
vn 0.2432 -0.9644 0.1036
vn 0.8434 0.0534 0.5347
vn -0.7796 -0.4588 -0.4262
vn -0.3018 -0.5302 0.7924
vn 0.5246 -0.0707 -0.8484
vn -0.5900 -0.2268 -0.7749
vn 0.3069 -0.9517 -0.0108
vn -0.0578 0.9181 -0.3921
usemtl Matériau.012
s off
f 83//20 84//20 86//20 85//20
f 90//21 89//21 93//21 94//21
f 89//22 90//22 88//22 87//22
f 105//23 106//23 84//23 83//23
f 103//24 89//24 87//24 105//24
f 104//25 86//25 84//25 106//25
f 94//26 93//26 97//26 98//26
f 103//27 85//27 92//27 107//27
f 104//28 90//28 94//28 108//28
f 85//29 86//29 91//29 92//29
f 110//30 98//30 102//30 112//30
f 107//31 92//31 96//31 109//31
f 108//32 94//32 98//32 110//32
f 92//33 91//33 95//33 96//33
f 101//34 111//34 115//34 118//34
f 96//35 95//35 99//35 100//35
f 98//36 97//36 101//36 102//36
f 109//37 96//37 100//37 111//37
f 97//38 109//38 111//38 101//38
f 100//39 99//39 113//39 114//39
f 91//40 108//40 110//40 95//40
f 93//41 107//41 109//41 97//41
f 95//42 110//42 112//42 99//42
f 86//43 104//43 108//43 91//43
f 89//44 103//44 107//44 93//44
f 90//45 104//45 106//45 88//45
f 85//46 103//46 105//46 83//46
f 87//47 88//47 106//47 105//47
f 117//48 118//48 124//48 123//48
f 113//49 116//49 122//49 119//49
f 102//50 101//50 118//50 117//50
f 111//51 100//51 114//51 115//51
f 99//52 112//52 116//52 113//52
f 112//53 102//53 117//53 116//53
f 124//54 121//54 132//54 131//54
f 120//55 119//55 125//55 126//55
f 115//56 114//56 120//56 121//56
f 118//57 115//57 121//57 124//57
f 116//58 117//58 123//58 122//58
f 114//59 113//59 119//59 120//59
f 128//60 127//60 135//60 136//60
f 119//61 122//61 128//61 125//61
f 121//62 120//62 126//62 127//62
f 122//63 121//63 127//63 128//63
f 131//64 132//64 144//64 143//64
f 122//65 123//65 130//65 129//65
f 123//66 124//66 131//66 130//66
f 121//67 122//67 129//67 132//67
f 136//68 135//68 139//68 140//68
f 127//69 126//69 134//69 135//69
f 125//70 128//70 136//70 133//70
f 126//71 125//71 133//71 134//71
f 138//72 137//72 140//72 139//72
f 135//73 134//73 138//73 139//73
f 133//74 136//74 140//74 137//74
f 134//75 133//75 137//75 138//75
f 144//76 141//76 142//76 143//76
f 129//77 130//77 142//77 141//77
f 132//78 129//78 141//78 144//78
f 130//79 131//79 143//79 142//79
f 145//80 146//80 148//80 147//80
f 152//81 151//81 155//81 156//81
f 151//82 152//82 150//82 149//82
f 167//83 168//83 146//83 145//83
f 165//84 151//84 149//84 167//84
f 166//85 148//85 146//85 168//85
f 156//86 155//86 159//86 160//86
f 165//87 147//87 154//87 169//87
f 166//88 152//88 156//88 170//88
f 147//89 148//89 153//89 154//89
f 172//90 160//90 164//90 174//90
f 169//91 154//91 158//91 171//91
f 170//92 156//92 160//92 172//92
f 154//93 153//93 157//93 158//93
f 163//94 173//94 177//94 180//94
f 158//95 157//95 161//95 162//95
f 160//96 159//96 163//96 164//96
f 171//97 158//97 162//97 173//97
f 159//98 171//98 173//98 163//98
f 162//99 161//99 175//99 176//99
f 153//100 170//100 172//100 157//100
f 155//101 169//101 171//101 159//101
f 157//102 172//102 174//102 161//102
f 148//103 166//103 170//103 153//103
f 151//104 165//104 169//104 155//104
f 152//105 166//105 168//105 150//105
f 147//106 165//106 167//106 145//106
f 149//107 150//107 168//107 167//107
f 179//108 180//108 186//108 185//108
f 175//109 178//109 184//109 181//109
f 164//110 163//110 180//110 179//110
f 173//111 162//111 176//111 177//111
f 161//112 174//112 178//112 175//112
f 174//113 164//113 179//113 178//113
f 186//114 183//114 194//114 193//114
f 182//115 181//115 187//115 188//115
f 177//116 176//116 182//116 183//116
f 180//117 177//117 183//117 186//117
f 178//118 179//118 185//118 184//118
f 176//119 175//119 181//119 182//119
f 190//120 189//120 197//120 198//120
f 181//121 184//121 190//121 187//121
f 183//122 182//122 188//122 189//122
f 184//123 183//123 189//123 190//123
f 193//124 194//124 206//124 205//124
f 184//125 185//125 192//125 191//125
f 185//126 186//126 193//126 192//126
f 183//127 184//127 191//127 194//127
f 198//128 197//128 201//128 202//128
f 189//129 188//129 196//129 197//129
f 187//130 190//130 198//130 195//130
f 188//131 187//131 195//131 196//131
f 200//132 199//132 202//132 201//132
f 197//133 196//133 200//133 201//133
f 195//134 198//134 202//134 199//134
f 196//135 195//135 199//135 200//135
f 206//136 203//136 204//136 205//136
f 191//137 192//137 204//137 203//137
f 194//138 191//138 203//138 206//138
f 192//139 193//139 205//139 204//139
