# Blender v2.91.2 OBJ File: 'camionnete02.blend'
# www.blender.org
mtllib arme_000166.mtl
o Cube.046_Cube.010
v 201.015289 836.101807 -1178.773926
v 194.369354 621.628113 -1229.132080
v 264.583282 882.473206 -1384.657227
v 257.937286 667.999512 -1435.015503
v -9.920822 856.833801 -1239.232666
v -16.566811 642.359985 -1289.590820
v 53.647137 903.205078 -1445.115723
v 47.001144 688.731445 -1495.474121
v 113.494820 772.257629 -895.313599
v 106.848846 557.783936 -945.671814
v -104.087257 578.515808 -1006.130310
v -97.441277 792.989563 -955.772156
v 73.886086 743.363953 -767.029053
v 67.240089 528.890198 -817.387329
v -143.696045 549.622131 -877.845886
v -137.050079 764.095825 -827.487671
v 50.486980 726.294861 -691.244385
v 49.723770 573.120361 -740.492126
v -161.212402 593.852295 -800.950684
v -160.449188 747.026794 -751.702881
v 127.149643 782.218506 -939.538635
v 120.503654 567.744812 -989.896851
v -83.786507 802.950439 -999.997192
v -90.432487 588.476685 -1050.355347
v 242.141785 866.102661 -1311.974121
v 235.495789 651.628967 -1362.332397
v 31.205658 886.834595 -1372.432739
v 24.559731 672.360840 -1422.790894
v 159.115173 892.839172 -1414.886597
v 152.469238 678.365417 -1465.244873
v 95.547249 846.467834 -1209.003296
v 88.901283 631.994019 -1259.361572
v 8.026772 782.623535 -925.542847
v 1.380798 568.149841 -975.901062
v -31.581978 753.729919 -797.258362
v -32.492836 545.614990 -832.632935
v -54.981064 736.660828 -721.473633
v -44.304138 575.439514 -780.782349
v 15.035587 578.110718 -1020.126099
v 21.681564 792.584473 -969.767944
v 130.027771 661.994873 -1392.561523
v 136.673737 876.468628 -1342.203247
v 211.849274 887.656128 -1399.771729
v 141.635315 626.811096 -1244.246826
v 54.114799 562.966919 -960.786438
v 3.065849 542.119995 -822.441101
v -8.745430 571.944580 -770.590454
v 74.415611 787.401489 -954.653198
v 189.407761 871.285706 -1327.088867
v 205.203247 673.182495 -1450.130127
v 148.281250 841.284851 -1193.888672
v 60.760773 777.440613 -910.428223
v 21.152035 748.546875 -782.143677
v -2.247047 731.477844 -706.358948
v 67.769623 572.927734 -1005.011475
v 182.761749 656.811890 -1377.447144
v 66.525276 532.770508 -1014.440369
v 13.791229 537.953430 -1029.554932
v 181.517334 616.654663 -1386.875854
v 128.783386 621.837646 -1401.990601
v 87.656876 591.836792 -1268.790527
v 140.390945 586.653748 -1253.675781
v 317.738739 789.177856 -1263.382568
v 299.553009 775.911743 -1204.482910
v 296.614380 681.073608 -1226.750732
v 314.799927 694.339722 -1285.650513
v 363.320892 784.697815 -1250.317871
v 345.135162 771.431763 -1191.418213
v 342.196442 676.593628 -1213.686035
v 360.382141 689.859741 -1272.585815
v 433.076141 777.841919 -1230.324707
v 414.890442 764.575806 -1171.424927
v 411.951691 669.737793 -1193.692749
v 430.137299 683.003906 -1252.592651
v 477.962738 773.430237 -1217.459473
v 459.777100 760.164124 -1158.559570
v 456.838409 665.326050 -1180.827393
v 475.024017 678.592163 -1239.727295
v 414.036377 825.521484 -2126.495605
v 361.302338 830.704407 -2141.610107
v 367.948181 1045.178223 -2091.251953
v 420.682343 1039.995239 -2076.137207
vn 0.9570 -0.0941 0.2743
vn 0.2884 0.2104 -0.9341
vn -0.9570 0.0941 -0.2743
vn 0.0302 0.9731 0.2285
vn -0.0302 -0.9731 -0.2285
vn -0.2142 -0.8670 0.4499
vn -0.1147 -0.9688 -0.2197
vn -0.3677 -0.3097 0.8769
vn -0.9574 0.0933 -0.2732
vn 0.9574 -0.0933 0.2732
vn 0.6417 0.1564 -0.7508
vn -0.2487 -0.3231 0.9131
vn -0.0004 -0.9825 -0.1862
vn -0.2898 -0.3473 0.8919
vn -0.0491 -0.9848 -0.1665
vn -0.2884 -0.2104 0.9341
vn 0.1115 -0.2304 0.9667
vn 0.5029 -0.8634 -0.0392
vn 0.5532 0.7596 0.3419
usemtl Matériau.011
s off
f 25//1 26//1 4//1 3//1
f 29//2 30//2 8//2 7//2
f 27//3 28//3 6//3 5//3
f 22//1 21//1 9//1 10//1
f 42//4 27//4 5//4 31//4
f 56//5 26//5 2//5 44//5
f 10//1 9//1 13//1 14//1
f 55//5 22//5 10//5 45//5
f 23//3 24//3 11//3 12//3
f 46//6 14//6 18//6 47//6
f 45//7 10//7 14//7 46//7
f 12//3 11//3 15//3 16//3
f 33//4 12//4 16//4 35//4
f 54//8 47//8 18//8 17//8
f 16//9 15//9 19//9 20//9
f 14//10 13//10 17//10 18//10
f 5//3 6//3 24//3 23//3
f 44//5 2//5 22//5 55//5
f 31//4 5//4 23//4 40//4
f 2//1 1//1 21//1 22//1
f 50//5 4//5 26//5 56//5
f 29//4 7//4 27//4 42//4
f 7//3 8//3 28//3 27//3
f 26//11 25//11 63//11 66//11
f 43//4 29//4 42//4 49//4
f 8//5 30//5 41//5 28//5
f 51//4 31//4 40//4 48//4
f 6//5 32//5 39//5 24//5
f 20//12 19//12 38//12 37//12
f 52//4 33//4 35//4 53//4
f 11//13 34//13 36//13 15//13
f 15//6 36//6 38//6 19//6
f 24//5 39//5 34//5 11//5
f 28//5 41//5 32//5 6//5
f 49//4 42//4 31//4 51//4
f 30//3 29//3 81//3 80//3
f 3//2 4//2 50//2 43//2
f 25//4 49//4 51//4 1//4
f 9//4 52//4 53//4 13//4
f 1//4 51//4 48//4 21//4
f 3//4 43//4 49//4 25//4
f 30//5 50//5 56//5 41//5
f 32//3 41//3 60//3 61//3
f 37//14 38//14 47//14 54//14
f 34//15 45//15 46//15 36//15
f 36//6 46//6 47//6 38//6
f 39//5 55//5 45//5 34//5
f 55//16 39//16 58//16 57//16
f 61//5 62//5 57//5 58//5
f 60//5 59//5 62//5 61//5
f 39//3 32//3 61//3 58//3
f 44//1 55//1 57//1 62//1
f 41//2 56//2 59//2 60//2
f 56//1 44//1 62//1 59//1
f 66//2 63//2 67//2 70//2
f 1//17 2//17 65//17 64//17
f 2//18 26//18 66//18 65//18
f 25//19 1//19 64//19 63//19
f 69//5 70//5 74//5 73//5
f 64//16 65//16 69//16 68//16
f 65//5 66//5 70//5 69//5
f 63//4 64//4 68//4 67//4
f 73//5 74//5 78//5 77//5
f 67//4 68//4 72//4 71//4
f 70//2 67//2 71//2 74//2
f 68//16 69//16 73//16 72//16
f 76//1 77//1 78//1 75//1
f 71//4 72//4 76//4 75//4
f 74//2 71//2 75//2 78//2
f 82//2 79//2 80//2 81//2
f 50//5 30//5 80//5 79//5
f 43//1 50//1 79//1 82//1
f 29//4 43//4 82//4 81//4
o Cube.048_Cube.024
v -506.647980 521.738708 158.267792
v -665.808899 376.752258 48.521332
v -377.404541 534.135132 -45.545929
v -535.920105 387.932922 -156.299561
v -641.848999 682.367126 12.495625
v -723.455261 608.028564 -43.774452
v -575.582214 688.723206 -92.005333
v -656.744751 614.072693 -147.704559
v -366.803925 534.259399 -501.903900
v -264.198456 584.991089 -447.857269
v -324.049866 696.139771 -438.562866
v -426.655396 645.408203 -492.609528
v -286.778717 611.956787 -687.512512
v -211.340820 649.255859 -647.776306
v -255.344971 730.974854 -640.942749
v -330.782867 693.675842 -680.679138
v -235.999603 663.196655 -802.672546
v -180.870605 690.454285 -773.633850
v -213.028229 750.173523 -768.639954
v -268.157104 722.915771 -797.678833
v -446.175262 634.007568 -61.343666
v -614.202148 479.255676 -177.048065
v -583.486267 620.966064 155.008942
v -752.455139 467.045105 38.499596
v -289.029083 643.591614 -446.589081
v -397.957489 589.733704 -503.966156
v -224.502350 696.194946 -660.133972
v -304.588867 656.597412 -702.319031
v -185.866028 728.254395 -794.723877
v -244.392334 699.317017 -825.552185
v -201.828003 684.678101 -887.709900
v -146.698914 711.935669 -858.671265
v -151.022766 757.350586 -888.183960
v -209.548889 728.413269 -919.012329
v -233.417114 750.841614 -889.844177
v -178.288147 778.099243 -860.805603
v -177.900085 701.291260 -948.730286
v -122.770996 728.548950 -919.691650
v -127.094910 773.963867 -949.204407
v -185.621155 745.026489 -980.032532
v -209.489258 767.454712 -950.864685
v -154.360168 794.712341 -921.825928
v -141.877441 694.803711 -982.648010
v -106.393494 712.348328 -963.957092
v -109.176575 741.579834 -982.953064
v -146.847168 722.954102 -1002.795837
v -188.310425 788.075256 -1015.335266
v -212.178711 810.503662 -986.167297
v -157.049744 837.761230 -957.128418
v -129.784241 817.012634 -984.507019
v -117.953857 689.059814 -1005.971985
v -94.031494 700.887878 -993.371033
v -95.907654 720.594910 -1006.177673
v -121.304199 708.038086 -1019.554993
v -98.716370 693.985352 -1034.171997
v -83.762268 701.379272 -1026.294800
v -84.935120 713.698364 -1034.300537
v -100.810791 705.848938 -1042.662964
v -184.237488 819.734558 -1024.453613
v -200.107605 834.647339 -1005.059387
v -163.451660 852.771301 -985.751160
v -145.322632 838.975342 -1003.955627
v -217.908203 493.770569 366.643402
v -358.915771 297.543274 363.596649
v -105.473938 417.815826 164.564575
v -248.768250 221.516144 162.387894
v -387.852051 546.234741 183.076218
v -460.150574 445.623505 181.514069
v -321.849365 506.663849 76.893494
v -403.674957 406.642273 78.348694
v -230.675781 85.185608 -76.562141
v -143.930115 57.509949 9.317818
v -55.677612 54.659363 -78.626961
v -139.773743 81.003784 -164.550537
v -249.051392 -128.045776 -109.519936
v -186.836731 -150.823120 -44.162537
v -120.003357 -153.897644 -108.853584
v -182.218201 -131.120239 -174.211060
v -257.727661 -262.081787 -130.134888
v -212.262085 -278.726929 -82.372520
v -163.421204 -280.973816 -129.647888
v -208.886871 -264.328552 -177.410187
v -178.319153 484.985229 111.361191
v -342.696259 280.645386 110.683273
v -309.934448 569.676941 327.525726
v -459.631348 361.357483 324.291260
v -99.079163 45.736572 -29.782707
v -188.914124 78.625916 -124.155434
v -155.149475 -171.338867 -77.392769
v -221.198059 -147.157776 -146.777679
v -191.692261 -306.685181 -108.712959
v -239.959625 -289.014099 -159.418457
v -278.454468 -353.114746 -142.130066
v -232.988647 -369.760010 -94.367760
v -210.186462 -407.418091 -126.213615
v -258.453918 -389.746826 -176.919250
v -227.724487 -363.570679 -194.064575
v -182.258728 -380.215942 -146.302338
v -292.391083 -418.586914 -151.680847
v -246.925323 -435.232300 -103.918526
v -224.123230 -472.890503 -135.764313
v -272.390625 -455.219238 -186.469879
v -241.661041 -429.042603 -203.615448
v -196.195374 -445.687866 -155.853058
v -310.389618 -460.758301 -131.989899
v -281.125427 -471.472168 -101.247444
v -266.448792 -495.711060 -121.745155
v -297.516327 -484.336914 -154.382080
v -254.340149 -497.260620 -218.303986
v -223.610535 -471.083862 -235.449554
v -178.144897 -487.729492 -187.687134
v -206.072693 -514.931519 -167.598419
v -323.969147 -488.831177 -118.691933
v -304.240082 -496.054321 -97.966240
v -294.345581 -512.395874 -111.785194
v -315.290375 -504.727295 -133.788147
v -331.635101 -522.275146 -115.179695
v -319.302216 -526.790405 -102.223747
v -313.116852 -537.005249 -110.862190
v -326.209808 -532.211792 -124.616417
v -231.614105 -518.400879 -230.079529
v -211.181580 -500.995728 -241.479767
v -180.950867 -512.063354 -209.721893
v -199.520416 -530.150391 -196.364716
vn 0.5296 -0.7972 0.2898
vn -0.4362 0.8629 -0.2554
vn -0.5296 0.7969 -0.2905
vn -0.3752 -0.2613 0.8894
vn 0.3230 0.9100 0.2600
vn -0.6280 -0.6443 -0.4365
vn -0.4446 0.8957 0.0032
vn 0.8043 0.5039 0.3148
vn -0.8019 -0.1780 -0.5703
vn 0.5966 -0.8024 0.0136
vn -0.8227 -0.2685 -0.5011
vn 0.8706 0.3498 0.3460
vn -0.8151 -0.3077 -0.4909
vn 0.4982 -0.8551 -0.1432
vn 0.7796 0.4537 0.4316
vn 0.5028 -0.8501 -0.1566
vn -0.4388 0.8985 -0.0103
vn 0.8898 0.3193 0.3259
vn 0.7797 0.5238 0.3430
vn 0.4595 -0.8873 -0.0395
vn -0.7403 -0.4467 -0.5025
vn 0.7958 0.4887 0.3576
vn -0.7126 -0.4730 -0.5182
vn -0.6180 -0.5483 -0.5635
vn 0.4934 0.8184 0.2945
vn -0.8291 -0.1444 -0.5402
vn 0.6900 0.5497 0.4710
vn -0.7462 0.4433 0.4966
vn -0.4666 0.8826 0.0573
vn -0.7853 -0.4460 -0.4294
vn -0.4773 0.8746 0.0851
vn 0.8358 0.3505 0.4225
vn -0.7828 -0.4498 -0.4301
vn -0.8385 -0.3464 -0.4207
vn 0.7818 0.4239 0.4573
vn 0.2236 -0.8857 0.4069
vn 0.8337 0.3545 0.4234
vn 0.7790 0.4566 0.4298
vn -0.8389 -0.3434 -0.4224
vn 0.4666 -0.8826 -0.0573
vn -0.0105 0.7389 -0.6737
vn -0.6329 -0.5214 -0.5724
vn 0.9338 0.2532 0.2528
vn 0.0062 0.7232 -0.6906
vn 0.7106 0.6759 0.1955
vn -0.8376 -0.3768 -0.3957
vn -0.5836 0.4928 0.6454
vn 0.5836 -0.4928 -0.6454
vn -0.2739 0.9039 -0.3285
vn 0.9206 0.2706 0.2815
vn -0.6599 -0.5109 -0.5510
vn 0.2080 -0.8786 0.4298
vn 0.5750 -0.4066 -0.7099
vn 0.9165 0.2757 0.2900
vn -0.6680 -0.5075 -0.5443
vn 0.3938 -0.9127 0.1092
vn -0.0483 0.7723 -0.6334
vn -0.7977 -0.0699 -0.5990
vn 0.5555 -0.2953 -0.7773
vn -0.5784 0.6621 0.4766
vn 0.6700 -0.4926 0.5554
vn 0.1776 0.5419 -0.8215
vn -0.6518 0.5010 -0.5693
vn -0.2611 0.1729 0.9497
vn 0.1927 0.9494 -0.2479
vn -0.5411 -0.8407 0.0215
vn 0.6965 -0.1095 -0.7092
vn 0.9678 0.1294 -0.2159
vn -0.8586 -0.3103 -0.4080
vn 0.1581 -0.6179 0.7702
vn -0.5959 0.1439 -0.7900
vn 0.5790 -0.3136 0.7526
vn -0.6230 0.1627 -0.7651
vn -0.7182 -0.0380 0.6947
vn 0.7116 -0.2453 0.6584
vn -0.7330 -0.0568 0.6779
vn 0.6972 -0.1226 -0.7064
vn 0.5584 -0.3322 0.7602
vn 0.7256 -0.3399 0.5983
vn -0.7104 0.0694 0.7004
vn -0.7366 0.1679 -0.6551
vn 0.7279 -0.3171 0.6079
vn -0.7632 0.1516 -0.6282
vn -0.8080 -0.5771 0.1190
vn 0.6477 0.4545 -0.6115
vn -0.8349 -0.4753 -0.2775
vn 0.6307 0.7727 0.0712
vn -0.7700 0.5483 0.3264
vn 0.7146 -0.0503 -0.6977
vn -0.7046 0.2470 -0.6652
vn 0.7206 -0.0205 -0.6931
vn 0.6270 -0.2421 0.7404
vn -0.7079 0.2466 -0.6619
vn -0.6229 0.2433 -0.7435
vn 0.6997 -0.2154 0.6812
vn -0.5123 0.5331 0.6734
vn 0.6306 -0.2418 0.7375
vn 0.7130 -0.2475 0.6561
vn -0.6213 0.2410 -0.7456
vn -0.7146 0.0503 0.6978
vn 0.2800 -0.7920 -0.5425
vn -0.8212 0.0872 -0.5639
vn 0.4708 -0.3858 0.7934
vn 0.2602 -0.8077 -0.5292
vn 0.7696 -0.4751 0.4266
vn -0.6358 0.2736 -0.7218
vn 0.6695 0.6092 -0.4250
vn -0.6695 -0.6092 0.4250
vn 0.5610 -0.4539 -0.6923
vn 0.4985 -0.3637 0.7869
vn -0.8050 0.1135 -0.5823
vn -0.4966 0.5560 0.6665
vn -0.6306 -0.6871 0.3609
vn 0.5066 -0.3570 0.7848
vn -0.7998 0.1216 -0.5878
vn -0.6646 0.2271 0.7118
vn 0.3238 -0.7543 -0.5711
vn -0.4743 -0.0197 -0.8801
vn -0.5735 -0.7709 0.2772
vn 0.7272 0.4127 -0.5484
usemtl Matériau.012
s off
f 83//20 84//20 86//20 85//20
f 90//21 89//21 93//21 94//21
f 89//22 90//22 88//22 87//22
f 105//23 106//23 84//23 83//23
f 103//24 89//24 87//24 105//24
f 104//25 86//25 84//25 106//25
f 94//26 93//26 97//26 98//26
f 103//27 85//27 92//27 107//27
f 104//28 90//28 94//28 108//28
f 85//29 86//29 91//29 92//29
f 110//30 98//30 102//30 112//30
f 107//31 92//31 96//31 109//31
f 108//32 94//32 98//32 110//32
f 92//33 91//33 95//33 96//33
f 101//34 111//34 115//34 118//34
f 96//35 95//35 99//35 100//35
f 98//36 97//36 101//36 102//36
f 109//37 96//37 100//37 111//37
f 97//38 109//38 111//38 101//38
f 100//39 99//39 113//39 114//39
f 91//40 108//40 110//40 95//40
f 93//41 107//41 109//41 97//41
f 95//42 110//42 112//42 99//42
f 86//43 104//43 108//43 91//43
f 89//44 103//44 107//44 93//44
f 90//45 104//45 106//45 88//45
f 85//46 103//46 105//46 83//46
f 87//47 88//47 106//47 105//47
f 117//48 118//48 124//48 123//48
f 113//49 116//49 122//49 119//49
f 102//50 101//50 118//50 117//50
f 111//51 100//51 114//51 115//51
f 99//52 112//52 116//52 113//52
f 112//53 102//53 117//53 116//53
f 124//54 121//54 132//54 131//54
f 120//55 119//55 125//55 126//55
f 115//56 114//56 120//56 121//56
f 118//57 115//57 121//57 124//57
f 116//58 117//58 123//58 122//58
f 114//59 113//59 119//59 120//59
f 128//60 127//60 135//60 136//60
f 119//61 122//61 128//61 125//61
f 121//62 120//62 126//62 127//62
f 122//63 121//63 127//63 128//63
f 131//64 132//64 144//64 143//64
f 122//65 123//65 130//65 129//65
f 123//66 124//66 131//66 130//66
f 121//67 122//67 129//67 132//67
f 136//68 135//68 139//68 140//68
f 127//69 126//69 134//69 135//69
f 125//70 128//70 136//70 133//70
f 126//71 125//71 133//71 134//71
f 138//72 137//72 140//72 139//72
f 135//73 134//73 138//73 139//73
f 133//74 136//74 140//74 137//74
f 134//75 133//75 137//75 138//75
f 144//76 141//76 142//76 143//76
f 129//77 130//77 142//77 141//77
f 132//78 129//78 141//78 144//78
f 130//79 131//79 143//79 142//79
f 145//80 146//80 148//80 147//80
f 152//81 151//81 155//81 156//81
f 151//82 152//82 150//82 149//82
f 167//83 168//83 146//83 145//83
f 165//84 151//84 149//84 167//84
f 166//85 148//85 146//85 168//85
f 156//86 155//86 159//86 160//86
f 165//87 147//87 154//87 169//87
f 166//88 152//88 156//88 170//88
f 147//89 148//89 153//89 154//89
f 172//90 160//90 164//90 174//90
f 169//91 154//91 158//91 171//91
f 170//92 156//92 160//92 172//92
f 154//93 153//93 157//93 158//93
f 163//94 173//94 177//94 180//94
f 158//95 157//95 161//95 162//95
f 160//96 159//96 163//96 164//96
f 171//97 158//97 162//97 173//97
f 159//98 171//98 173//98 163//98
f 162//99 161//99 175//99 176//99
f 153//100 170//100 172//100 157//100
f 155//101 169//101 171//101 159//101
f 157//102 172//102 174//102 161//102
f 148//103 166//103 170//103 153//103
f 151//104 165//104 169//104 155//104
f 152//105 166//105 168//105 150//105
f 147//106 165//106 167//106 145//106
f 149//107 150//107 168//107 167//107
f 179//108 180//108 186//108 185//108
f 175//109 178//109 184//109 181//109
f 164//110 163//110 180//110 179//110
f 173//111 162//111 176//111 177//111
f 161//112 174//112 178//112 175//112
f 174//113 164//113 179//113 178//113
f 186//114 183//114 194//114 193//114
f 182//115 181//115 187//115 188//115
f 177//116 176//116 182//116 183//116
f 180//117 177//117 183//117 186//117
f 178//118 179//118 185//118 184//118
f 176//119 175//119 181//119 182//119
f 190//120 189//120 197//120 198//120
f 181//121 184//121 190//121 187//121
f 183//122 182//122 188//122 189//122
f 184//123 183//123 189//123 190//123
f 193//124 194//124 206//124 205//124
f 184//125 185//125 192//125 191//125
f 185//126 186//126 193//126 192//126
f 183//127 184//127 191//127 194//127
f 198//128 197//128 201//128 202//128
f 189//129 188//129 196//129 197//129
f 187//130 190//130 198//130 195//130
f 188//131 187//131 195//131 196//131
f 200//132 199//132 202//132 201//132
f 197//133 196//133 200//133 201//133
f 195//134 198//134 202//134 199//134
f 196//135 195//135 199//135 200//135
f 206//136 203//136 204//136 205//136
f 191//137 192//137 204//137 203//137
f 194//138 191//138 203//138 206//138
f 192//139 193//139 205//139 204//139
