# Blender v2.91.2 OBJ File: 'camionnete02.blend'
# www.blender.org
mtllib arme_000069.mtl
o Cube.046_Cube.010
v 258.497253 442.919067 -1111.043457
v 250.072632 223.160278 -1125.679688
v 353.639404 452.497711 -1309.626709
v 345.214752 232.738953 -1324.263062
v 59.861687 456.827576 -1205.539795
v 51.436993 237.068787 -1220.176025
v 155.003830 466.406219 -1404.122925
v 146.579163 246.647461 -1418.759399
v 127.505363 429.731110 -837.633545
v 119.080704 209.972382 -852.269836
v -79.554863 223.880890 -946.766174
v -71.130203 443.639618 -932.129822
v 68.222984 423.762695 -713.897461
v 59.798283 204.003967 -728.533936
v -138.837326 217.912445 -823.030212
v -130.412674 437.671234 -808.393921
v 33.201550 420.236877 -640.799927
v 33.077061 260.960236 -663.588135
v -165.558609 274.868774 -758.084473
v -165.434097 434.145386 -735.296143
v 76.621574 642.842102 -699.306458
v -122.014015 656.750610 -793.802795
v 41.600178 639.316223 -626.208862
v -157.035431 653.224792 -720.705078
v 147.942551 431.788666 -880.290466
v 139.517868 212.029938 -894.926819
v -50.693077 445.697205 -974.786804
v -59.117760 225.938446 -989.423157
v 130.286423 502.275116 -832.801880
v -68.349174 516.183655 -927.298340
v 150.723572 504.332672 -875.458862
v -47.912025 518.241150 -969.955139
v 134.321304 607.524597 -825.792175
v -64.314301 621.433167 -920.288391
v 154.758392 609.582153 -868.449158
v -43.877151 623.490723 -962.945374
v 72.343880 496.441620 -711.862610
v -126.291763 510.350098 -806.359009
v 76.378716 601.691101 -704.852783
v -122.256897 615.599670 -799.349060
v 103.961685 781.451965 -736.375122
v -94.673920 795.360474 -830.871460
v 68.940262 777.926086 -663.277588
v -129.695297 791.834534 -757.773804
v 320.051300 449.116150 -1239.520630
v 311.626617 229.357391 -1254.157104
v 121.415695 463.024689 -1334.016968
v 112.991051 243.265869 -1348.653198
v 254.321609 459.451996 -1356.874878
v 245.896973 239.693207 -1371.511230
v 159.179489 449.873322 -1158.291626
v 150.754837 230.114532 -1172.927734
v 28.187588 436.685364 -884.881653
v 19.762913 216.926605 -899.518005
v -31.094841 430.716980 -761.145752
v -35.784157 219.667236 -761.358582
v -66.116249 427.191101 -688.048035
v -53.802361 258.072998 -717.565613
v -22.696236 649.796387 -746.554504
v -57.717628 646.270447 -673.457031
v 40.200054 218.984161 -942.174988
v 48.624733 438.742920 -927.538635
v 30.968632 509.229401 -880.050171
v 51.405769 511.286896 -922.706970
v 35.003506 614.478943 -873.040222
v 55.440628 616.536438 -915.697266
v -26.973938 503.395874 -759.110779
v -22.939068 608.645447 -752.100891
v 4.643874 788.406189 -783.623291
v -30.377541 784.880310 -710.525696
v 212.308807 236.311646 -1301.405273
v 220.733490 456.070404 -1286.768799
v 303.980560 455.974823 -1333.250610
v 200.413696 226.637421 -1149.303833
v 69.421799 213.449493 -875.893982
v -2.299046 217.322571 -745.428833
v -20.317230 255.728363 -701.635742
v 98.283646 435.265747 -903.914551
v 101.064667 507.809753 -899.083008
v 105.099510 613.059265 -892.073181
v 270.392395 452.593292 -1263.144775
v 295.555847 236.216064 -1347.887085
v 208.838348 446.396179 -1134.667603
v 77.846481 433.208221 -861.257629
v 18.564049 427.239868 -737.521606
v -16.457359 423.713959 -664.424011
v 26.962685 646.319214 -722.930542
v -8.058711 642.793396 -649.832947
v 89.858963 215.507050 -918.550903
v 80.627525 505.752258 -856.426025
v 84.662384 611.001770 -849.416199
v 22.684967 499.918762 -735.486755
v 26.719826 605.168274 -728.476807
v 54.302799 784.929138 -759.999207
v 19.281380 781.403137 -686.901611
v 261.967682 232.834534 -1277.781250
v 88.281570 174.360229 -921.291321
v 38.622658 177.837341 -944.915405
v 260.390259 191.687714 -1280.521606
v 210.731415 195.164795 -1304.145630
v 149.177414 188.967712 -1175.668335
v 198.836334 185.490601 -1152.044312
v 384.269470 380.232697 -1167.934570
v 357.050903 377.492401 -1111.123169
v 353.325714 280.317322 -1117.595215
v 380.544189 283.057617 -1174.406616
v 427.193604 377.227173 -1147.514526
v 399.975037 374.486877 -1090.703125
v 396.249786 277.311798 -1097.175171
v 423.468292 280.052094 -1153.986450
v 492.881195 372.627747 -1116.265259
v 465.662628 369.887421 -1059.453857
v 461.937347 272.712402 -1065.925903
v 489.155823 275.452698 -1122.737427
v 535.150269 369.668060 -1096.156738
v 507.931702 366.927734 -1039.345459
v 504.206543 269.752686 -1045.817383
v 531.424988 272.492981 -1102.628906
v 608.116272 267.684082 -2000.270752
v 558.457397 271.161224 -2023.894775
v 566.881897 490.919983 -2009.258545
v 616.540894 487.442871 -1985.634399
v 32.692917 854.036926 -794.995850
v -58.823082 860.444885 -838.532532
v 0.422587 850.787964 -727.640259
v -91.093353 857.195862 -771.176941
v 91.938568 844.380005 -684.103760
v 124.208946 847.628967 -751.459167
v 78.450966 850.833069 -773.227417
v 46.180580 847.583923 -705.872009
vn 0.9012 -0.0631 0.4287
vn 0.4317 0.0435 -0.9010
vn -0.9012 0.0631 -0.4287
vn 0.0382 0.9971 0.0664
vn -0.0382 -0.9971 -0.0664
vn -0.4317 -0.0435 0.9010
vn -0.3154 -0.7740 0.5490
vn -0.1229 -0.9898 -0.0715
vn -0.5059 -0.1496 0.8495
vn -0.9018 0.0626 -0.4276
vn 0.9018 -0.0626 0.4276
vn 0.3908 -0.3090 -0.8671
vn 0.3894 -0.3163 -0.8651
vn -0.3908 0.3090 0.8671
vn 0.7515 0.0151 -0.6596
vn -0.8292 0.4123 -0.3774
vn -0.3943 -0.1588 0.9052
vn -0.0154 -0.9997 -0.0191
vn -0.3726 0.3925 0.8409
vn -0.4327 -0.1855 0.8822
vn -0.0666 -0.9978 -0.0070
vn -0.0422 -0.0648 0.9970
vn 0.4654 -0.8664 0.1812
vn 0.5292 0.7967 0.2919
vn 0.8909 -0.1772 0.4183
usemtl Matériau.011
s off
f 45//1 46//1 4//1 3//1
f 49//2 50//2 8//2 7//2
f 47//3 48//3 6//3 5//3
f 26//1 25//1 9//1 10//1
f 72//4 47//4 5//4 51//4
f 96//5 46//5 2//5 74//5
f 10//1 9//1 13//1 14//1
f 84//6 9//6 29//6 90//6
f 89//5 26//5 10//5 75//5
f 27//3 28//3 11//3 12//3
f 76//7 14//7 18//7 77//7
f 75//8 10//8 14//8 76//8
f 12//3 11//3 15//3 16//3
f 53//4 12//4 16//4 55//4
f 86//9 77//9 18//9 17//9
f 16//10 15//10 19//10 20//10
f 16//3 20//3 24//3 22//3
f 14//11 13//11 17//11 18//11
f 59//12 22//12 42//12 69//12
f 86//6 17//6 23//6 88//6
f 17//1 13//1 21//1 23//1
f 55//2 16//2 22//2 59//2
f 5//3 6//3 28//3 27//3
f 74//5 2//5 26//5 89//5
f 51//4 5//4 27//4 62//4
f 2//1 1//1 25//1 26//1
f 32//3 30//3 34//3 36//3
f 62//2 27//2 32//2 64//2
f 27//3 12//3 30//3 32//3
f 9//1 25//1 31//1 29//1
f 66//4 36//4 34//4 65//4
f 90//5 29//5 37//5 92//5
f 64//2 32//2 36//2 66//2
f 29//1 31//1 35//1 33//1
f 92//6 37//6 39//6 93//6
f 29//1 33//1 39//1 37//1
f 34//3 30//3 38//3 40//3
f 65//4 34//4 40//4 68//4
f 69//13 42//13 124//13 123//13
f 23//1 21//1 41//1 43//1
f 88//14 23//14 43//14 95//14
f 22//3 24//3 44//3 42//3
f 82//5 4//5 46//5 96//5
f 49//4 7//4 47//4 72//4
f 7//3 8//3 48//3 47//3
f 46//15 45//15 103//15 106//15
f 73//4 49//4 72//4 81//4
f 8//5 50//5 71//5 48//5
f 24//14 60//14 70//14 44//14
f 42//16 44//16 126//16 124//16
f 91//4 65//4 68//4 93//4
f 38//6 67//6 68//6 40//6
f 79//2 64//2 66//2 80//2
f 30//5 63//5 67//5 38//5
f 80//4 66//4 65//4 91//4
f 78//2 62//2 64//2 79//2
f 83//4 51//4 62//4 78//4
f 6//5 52//5 61//5 28//5
f 85//2 55//2 59//2 87//2
f 20//6 57//6 60//6 24//6
f 87//12 59//12 69//12 94//12
f 20//17 19//17 58//17 57//17
f 84//4 53//4 55//4 85//4
f 11//18 54//18 56//18 15//18
f 15//7 56//7 58//7 19//7
f 28//5 61//5 54//5 11//5
f 12//6 53//6 63//6 30//6
f 48//5 71//5 52//5 6//5
f 81//4 72//4 51//4 83//4
f 50//3 49//3 121//3 120//3
f 3//2 4//2 82//2 73//2
f 45//4 81//4 83//4 1//4
f 9//4 84//4 85//4 13//4
f 21//12 87//12 94//12 41//12
f 13//2 85//2 87//2 21//2
f 1//4 83//4 78//4 25//4
f 25//2 78//2 79//2 31//2
f 35//4 80//4 91//4 33//4
f 31//2 79//2 80//2 35//2
f 33//4 91//4 93//4 39//4
f 70//19 95//19 130//19 125//19
f 3//4 73//4 81//4 45//4
f 50//5 82//5 96//5 71//5
f 60//14 88//14 95//14 70//14
f 67//6 92//6 93//6 68//6
f 63//5 90//5 92//5 67//5
f 52//3 71//3 100//3 101//3
f 57//6 86//6 88//6 60//6
f 57//20 58//20 77//20 86//20
f 54//21 75//21 76//21 56//21
f 56//7 76//7 77//7 58//7
f 61//5 89//5 75//5 54//5
f 53//6 84//6 90//6 63//6
f 89//6 61//6 98//6 97//6
f 101//5 102//5 97//5 98//5
f 100//5 99//5 102//5 101//5
f 61//3 52//3 101//3 98//3
f 74//1 89//1 97//1 102//1
f 71//2 96//2 99//2 100//2
f 96//1 74//1 102//1 99//1
f 106//2 103//2 107//2 110//2
f 1//22 2//22 105//22 104//22
f 2//23 46//23 106//23 105//23
f 45//24 1//24 104//24 103//24
f 109//5 110//5 114//5 113//5
f 104//6 105//6 109//6 108//6
f 105//5 106//5 110//5 109//5
f 103//4 104//4 108//4 107//4
f 113//5 114//5 118//5 117//5
f 107//4 108//4 112//4 111//4
f 110//2 107//2 111//2 114//2
f 108//6 109//6 113//6 112//6
f 116//1 117//1 118//1 115//1
f 111//4 112//4 116//4 115//4
f 114//2 111//2 115//2 118//2
f 122//2 119//2 120//2 121//2
f 82//5 50//5 120//5 119//5
f 73//1 82//1 119//1 122//1
f 49//4 73//4 122//4 121//4
f 123//4 124//4 126//4 125//4
f 129//4 123//4 125//4 130//4
f 128//4 129//4 130//4 127//4
f 95//19 43//19 127//19 130//19
f 94//13 69//13 123//13 129//13
f 43//25 41//25 128//25 127//25
f 44//19 70//19 125//19 126//19
f 41//13 94//13 129//13 128//13
o Cube.048_Cube.024
v -562.925903 453.384949 181.451385
v -725.597656 341.429016 42.162827
v -423.846558 492.346252 -12.292068
v -586.257568 380.982330 -150.393402
v -680.889526 646.184387 62.106133
v -764.295898 588.781494 -9.310997
v -609.579590 666.160950 -37.231522
v -692.785461 608.948181 -108.378395
v -373.156342 510.322144 -441.110931
v -277.533051 567.664978 -381.189209
v -333.237823 679.824036 -399.627167
v -428.861145 622.481201 -459.548981
v -263.383362 553.918213 -622.606995
v -193.078918 596.077942 -578.551147
v -234.034363 678.539795 -592.107178
v -304.338745 636.380066 -636.163025
v -194.029633 583.935364 -735.544495
v -142.652161 614.745117 -703.349121
v -172.581665 675.007202 -713.255615
v -223.959320 644.197388 -745.451111
v -485.460815 598.150818 -12.369736
v -657.774109 480.005737 -158.884827
v -633.161499 556.764526 193.302399
v -805.857666 437.909515 45.430420
v -299.722168 626.061401 -393.424072
v -401.238159 565.184998 -457.038239
v -202.234619 640.461670 -600.356689
v -276.871368 595.703918 -647.127441
v -142.847717 648.495300 -730.907837
v -197.391296 615.786926 -765.087463
v -146.809753 590.044983 -816.744629
v -95.432190 620.854736 -784.549377
v -93.394348 660.664734 -821.471375
v -147.937927 627.956299 -855.650696
v -174.849304 655.435364 -834.575195
v -123.471741 686.245117 -802.379822
v -113.460022 595.620728 -875.300171
v -62.082520 626.430542 -843.104797
v -60.044617 666.240356 -880.026794
v -114.588135 633.532104 -914.206177
v -141.499512 661.011108 -893.130676
v -90.121948 691.820801 -860.935181
v -73.149475 582.824951 -901.785095
v -40.080017 602.655762 -881.062378
v -38.768311 628.279663 -904.827393
v -73.875671 607.226746 -926.827087
v -110.184814 669.997986 -956.129395
v -137.096252 697.476990 -935.053894
v -85.718689 728.286743 -902.858521
v -55.641418 702.706299 -921.949890
v -46.322510 572.776917 -919.915100
v -24.028076 586.146301 -905.944275
v -23.143799 603.421204 -921.965881
v -46.812012 589.228027 -936.797668
v -22.946777 572.496460 -945.274109
v -9.010315 580.853882 -936.540771
v -8.457458 591.652649 -946.556091
v -23.252808 582.780273 -955.827576
v -103.448059 699.570129 -969.625549
v -121.341858 717.841187 -955.612061
v -87.180176 738.327026 -934.205017
v -67.181335 721.318298 -946.899292
v -303.874939 441.396057 482.409393
v -293.887268 287.786560 296.124847
v -161.002441 590.613647 357.026154
v -156.591370 444.766846 174.040558
v -466.605621 543.008423 313.519012
v -461.484680 464.248505 218.005707
v -392.361267 624.692871 254.230560
v -391.089233 544.736694 155.409637
v 2.453918 709.836426 -48.606712
v 94.205261 709.875183 38.101982
v 56.161926 822.463440 79.171501
v -34.409485 823.239990 -6.140953
v 141.710327 820.167236 -172.405884
v 210.106567 818.773132 -109.310036
v 183.003723 902.150024 -78.088264
v 114.607544 903.544067 -141.184265
v 229.780640 891.022705 -247.831573
v 279.763550 890.003845 -201.721893
v 259.957214 950.934570 -178.905334
v 209.974304 951.953369 -225.014954
v -266.224304 637.558533 331.224854
v -266.024597 478.499725 130.698334
v -422.384247 474.921204 458.069794
v -411.781128 311.845734 260.305817
v 83.343933 767.068604 57.428520
v -15.416565 769.081543 -33.678688
v 210.213440 868.792908 -104.091347
v 137.602356 870.272827 -171.075256
v 288.035950 932.498352 -206.659332
v 234.972900 933.579956 -255.610443
v 288.418274 929.616638 -310.542145
v 338.401306 928.597717 -264.432526
v 351.009216 980.601379 -273.859711
v 297.946167 981.682861 -322.810760
v 272.281067 998.594788 -291.525330
v 322.264221 997.575928 -245.415741
v 330.173523 958.552917 -355.165558
v 380.156433 957.533997 -309.055939
v 392.764587 1009.537720 -318.483124
v 339.701355 1010.619263 -367.434235
v 314.036316 1027.531006 -336.148651
v 364.019226 1026.512207 -290.039093
v 371.728455 954.122437 -382.436127
v 403.900330 953.466675 -352.757294
v 412.015564 986.939087 -358.825348
v 377.861145 987.635193 -390.332855
v 354.886047 1062.012695 -382.759003
v 329.221008 1078.924561 -351.473358
v 379.204041 1077.905762 -305.363800
v 407.949158 1060.931152 -333.807739
v 399.247986 950.164978 -401.835663
v 420.937317 949.722839 -381.827118
v 426.408508 972.289185 -385.918121
v 403.382507 972.758362 -407.159576
v 425.726990 958.760193 -422.196869
v 439.285217 958.483826 -409.689026
v 442.705261 972.590088 -412.246338
v 428.311462 972.883545 -425.524719
v 367.399597 1092.360229 -377.810455
v 350.334656 1103.604980 -357.008392
v 383.568909 1102.927612 -326.349457
v 402.681946 1091.640991 -345.262268
vn 0.4643 -0.8715 0.1575
vn -0.3819 0.8882 -0.2553
vn -0.4643 0.8715 -0.1579
vn -0.4317 -0.3867 0.8149
vn 0.3665 0.8255 0.4292
vn -0.6415 -0.5132 -0.5702
vn -0.4011 0.8910 -0.2127
vn 0.7980 0.4383 0.4137
vn -0.7695 -0.0961 -0.6314
vn 0.5322 -0.8462 0.0274
vn -0.7508 -0.3351 -0.5693
vn 0.8244 0.3879 0.4121
vn -0.7464 -0.3721 -0.5517
vn 0.4764 -0.8758 0.0778
vn 0.7265 0.5065 0.4645
vn 0.4831 -0.8732 0.0646
vn -0.3932 0.8914 -0.2255
vn 0.8451 0.3542 0.4005
vn 0.7426 0.5605 0.3666
vn 0.4215 -0.8891 0.1782
vn -0.6768 -0.5123 -0.5286
vn 0.7548 0.5281 0.3890
vn -0.6483 -0.5414 -0.5354
vn -0.5895 -0.4842 -0.6465
vn 0.5221 0.7696 0.3675
vn -0.8110 0.0101 -0.5849
vn 0.7005 0.4086 0.5851
vn -0.7392 0.4002 0.5417
vn -0.4313 0.8877 -0.1611
vn -0.7321 -0.4984 -0.4644
vn -0.4463 0.8847 -0.1344
vn 0.7789 0.4023 0.4812
vn -0.7296 -0.5023 -0.4641
vn -0.7816 -0.3978 -0.4805
vn 0.7235 0.4814 0.4948
vn 0.1227 -0.8075 0.5769
vn 0.7768 0.4064 0.4811
vn 0.7262 0.5090 0.4621
vn -0.7815 -0.3951 -0.4827
vn 0.4313 -0.8877 0.1611
vn 0.1208 0.6138 -0.7802
vn -0.5636 -0.5997 -0.5681
vn 0.8964 0.2758 0.3469
vn 0.1391 0.5951 -0.7915
vn 0.7026 0.6865 0.1871
vn -0.7857 -0.4236 -0.4509
vn -0.6504 0.6056 0.4584
vn 0.6504 -0.6056 -0.4584
vn -0.1832 0.8397 -0.5113
vn 0.8800 0.2980 0.3699
vn -0.5930 -0.5852 -0.5531
vn 0.1043 -0.7964 0.5957
vn 0.6552 -0.5315 -0.5369
vn 0.8748 0.3046 0.3767
vn -0.6018 -0.5806 -0.5483
vn 0.3335 -0.8877 0.3173
vn 0.0790 0.6542 -0.7521
vn -0.7030 -0.1564 -0.6937
vn 0.6506 -0.4330 -0.6239
vn -0.6131 0.7436 0.2668
vn 0.8145 -0.4347 0.3843
vn -0.5371 0.8376 -0.0997
vn -0.8134 0.4371 -0.3837
vn -0.3297 -0.7370 0.5900
vn -0.4050 0.7643 0.5019
vn 0.0918 -0.6601 -0.7455
vn -0.2456 0.9290 0.2767
vn 0.4565 0.5522 0.6976
vn -0.4047 -0.0893 -0.9101
vn 0.7496 -0.6526 0.1103
vn -0.7008 0.1623 -0.6946
vn 0.8030 -0.0553 0.5934
vn -0.7041 0.1214 -0.6997
vn 0.3427 -0.8617 -0.3742
vn 0.7150 0.0396 0.6980
vn 0.3467 -0.8509 -0.3946
vn -0.2333 0.9332 0.2735
vn 0.8198 -0.0760 0.5675
vn 0.7520 0.1326 0.6457
vn 0.2680 -0.9120 -0.3107
vn -0.6580 -0.0203 -0.7527
vn 0.7479 0.1057 0.6554
vn -0.6330 -0.0464 -0.7727
vn -0.1599 -0.4821 -0.8614
vn 0.0071 0.8019 0.5974
vn -0.3592 -0.3565 -0.8625
vn 0.0395 0.6052 0.7951
vn -0.9501 -0.2637 0.1665
vn -0.2803 0.9037 0.3238
vn -0.7194 -0.0318 -0.6938
vn -0.2991 0.8901 0.3439
vn 0.7500 -0.0657 0.6582
vn -0.7176 -0.0357 -0.6956
vn -0.7521 0.0695 -0.6554
vn 0.7044 0.0035 0.7098
vn -0.0705 -0.9960 0.0544
vn 0.7485 -0.0618 0.6603
vn 0.7154 0.0430 0.6973
vn -0.7514 0.0729 -0.6558
vn 0.2802 -0.9037 -0.3238
vn 0.3119 0.8952 -0.3183
vn -0.5532 -0.0938 -0.8277
vn 0.8672 -0.1228 0.4826
vn 0.3290 0.8821 -0.3371
vn 0.7553 0.3388 0.5611
vn -0.7638 0.0334 -0.6446
vn -0.6210 0.3868 0.6817
vn 0.6210 -0.3868 -0.6817
vn 0.0063 0.9999 0.0153
vn 0.8508 -0.1132 0.5132
vn -0.5822 -0.0840 -0.8087
vn -0.0897 -0.9931 0.0753
vn 0.6468 -0.2850 -0.7074
vn 0.8457 -0.1104 0.5222
vn -0.5909 -0.0810 -0.8027
vn 0.1622 -0.9669 -0.1972
vn 0.2724 0.9221 -0.2749
vn -0.6123 0.3667 -0.7005
vn 0.6679 -0.1568 -0.7275
vn -0.5386 0.5946 0.5970
usemtl Matériau.012
s off
f 131//26 132//26 134//26 133//26
f 138//27 137//27 141//27 142//27
f 137//28 138//28 136//28 135//28
f 153//29 154//29 132//29 131//29
f 151//30 137//30 135//30 153//30
f 152//31 134//31 132//31 154//31
f 142//32 141//32 145//32 146//32
f 151//33 133//33 140//33 155//33
f 152//34 138//34 142//34 156//34
f 133//35 134//35 139//35 140//35
f 158//36 146//36 150//36 160//36
f 155//37 140//37 144//37 157//37
f 156//38 142//38 146//38 158//38
f 140//39 139//39 143//39 144//39
f 149//40 159//40 163//40 166//40
f 144//41 143//41 147//41 148//41
f 146//42 145//42 149//42 150//42
f 157//43 144//43 148//43 159//43
f 145//44 157//44 159//44 149//44
f 148//45 147//45 161//45 162//45
f 139//46 156//46 158//46 143//46
f 141//47 155//47 157//47 145//47
f 143//48 158//48 160//48 147//48
f 134//49 152//49 156//49 139//49
f 137//50 151//50 155//50 141//50
f 138//51 152//51 154//51 136//51
f 133//52 151//52 153//52 131//52
f 135//53 136//53 154//53 153//53
f 165//54 166//54 172//54 171//54
f 161//55 164//55 170//55 167//55
f 150//56 149//56 166//56 165//56
f 159//57 148//57 162//57 163//57
f 147//58 160//58 164//58 161//58
f 160//59 150//59 165//59 164//59
f 172//60 169//60 180//60 179//60
f 168//61 167//61 173//61 174//61
f 163//62 162//62 168//62 169//62
f 166//63 163//63 169//63 172//63
f 164//64 165//64 171//64 170//64
f 162//65 161//65 167//65 168//65
f 176//66 175//66 183//66 184//66
f 167//67 170//67 176//67 173//67
f 169//68 168//68 174//68 175//68
f 170//69 169//69 175//69 176//69
f 179//70 180//70 192//70 191//70
f 170//71 171//71 178//71 177//71
f 171//72 172//72 179//72 178//72
f 169//73 170//73 177//73 180//73
f 184//74 183//74 187//74 188//74
f 175//75 174//75 182//75 183//75
f 173//76 176//76 184//76 181//76
f 174//77 173//77 181//77 182//77
f 186//78 185//78 188//78 187//78
f 183//79 182//79 186//79 187//79
f 181//80 184//80 188//80 185//80
f 182//81 181//81 185//81 186//81
f 192//82 189//82 190//82 191//82
f 177//83 178//83 190//83 189//83
f 180//84 177//84 189//84 192//84
f 178//85 179//85 191//85 190//85
f 193//86 194//86 196//86 195//86
f 200//87 199//87 203//87 204//87
f 199//88 200//88 198//88 197//88
f 215//89 216//89 194//89 193//89
f 213//90 199//90 197//90 215//90
f 214//91 196//91 194//91 216//91
f 204//92 203//92 207//92 208//92
f 213//93 195//93 202//93 217//93
f 214//94 200//94 204//94 218//94
f 195//95 196//95 201//95 202//95
f 220//96 208//96 212//96 222//96
f 217//97 202//97 206//97 219//97
f 218//98 204//98 208//98 220//98
f 202//99 201//99 205//99 206//99
f 211//100 221//100 225//100 228//100
f 206//101 205//101 209//101 210//101
f 208//102 207//102 211//102 212//102
f 219//103 206//103 210//103 221//103
f 207//104 219//104 221//104 211//104
f 210//105 209//105 223//105 224//105
f 201//106 218//106 220//106 205//106
f 203//107 217//107 219//107 207//107
f 205//108 220//108 222//108 209//108
f 196//109 214//109 218//109 201//109
f 199//110 213//110 217//110 203//110
f 200//111 214//111 216//111 198//111
f 195//112 213//112 215//112 193//112
f 197//113 198//113 216//113 215//113
f 227//114 228//114 234//114 233//114
f 223//115 226//115 232//115 229//115
f 212//116 211//116 228//116 227//116
f 221//117 210//117 224//117 225//117
f 209//118 222//118 226//118 223//118
f 222//119 212//119 227//119 226//119
f 234//120 231//120 242//120 241//120
f 230//121 229//121 235//121 236//121
f 225//122 224//122 230//122 231//122
f 228//123 225//123 231//123 234//123
f 226//124 227//124 233//124 232//124
f 224//125 223//125 229//125 230//125
f 238//126 237//126 245//126 246//126
f 229//127 232//127 238//127 235//127
f 231//128 230//128 236//128 237//128
f 232//129 231//129 237//129 238//129
f 241//130 242//130 254//130 253//130
f 232//131 233//131 240//131 239//131
f 233//132 234//132 241//132 240//132
f 231//133 232//133 239//133 242//133
f 246//134 245//134 249//134 250//134
f 237//135 236//135 244//135 245//135
f 235//136 238//136 246//136 243//136
f 236//137 235//137 243//137 244//137
f 248//138 247//138 250//138 249//138
f 245//139 244//139 248//139 249//139
f 243//140 246//140 250//140 247//140
f 244//141 243//141 247//141 248//141
f 254//142 251//142 252//142 253//142
f 239//143 240//143 252//143 251//143
f 242//144 239//144 251//144 254//144
f 240//145 241//145 253//145 252//145
