# Blender v2.91.2 OBJ File: 'camionnete02.blend'
# www.blender.org
mtllib arme_000251.mtl
o Cube.046_Cube.010
v 585.931946 667.776855 -742.792542
v 549.158508 483.465302 -857.927490
v 755.215027 716.705566 -875.187134
v 718.441589 532.393921 -990.322144
v 449.659973 778.295288 -876.189453
v 412.886475 593.983643 -991.324402
v 618.943054 827.223999 -1008.583862
v 582.169617 642.912354 -1123.718994
v 352.862671 600.411743 -560.511597
v 316.089233 416.100250 -675.646484
v 179.817200 526.618530 -809.043213
v 216.590729 710.930298 -693.908325
v 247.383545 569.924683 -478.017212
v 210.610046 385.613068 -593.152283
v 74.338013 496.131439 -726.549072
v 111.111511 680.443115 -611.414185
v 185.071167 551.914307 -429.283447
v 168.837738 420.768585 -521.074829
v 32.565689 531.286987 -654.471680
v 48.799133 662.432739 -562.680298
v 389.225769 610.921997 -588.950623
v 352.452271 426.610382 -704.085632
v 252.953796 721.440430 -722.347534
v 216.180237 537.128784 -837.482422
v 695.452942 699.432251 -828.447754
v 658.679504 515.120605 -943.582825
v 559.180908 809.950684 -961.844604
v 522.407410 625.639038 -1076.979492
v 687.079102 771.964844 -941.885620
v 650.305603 587.653076 -1057.020508
v 517.796021 723.036133 -809.490967
v 481.022461 538.724487 -924.625977
v 284.726685 655.671021 -627.209839
v 247.953186 471.359344 -742.344849
v 179.247559 625.183838 -544.715698
v 141.219391 442.097809 -642.682129
v 116.935181 607.173462 -495.981873
v 113.052246 465.803375 -594.080139
v 284.316254 481.869537 -770.784058
v 321.089783 666.181274 -655.649048
v 590.543457 570.379761 -1010.281128
v 627.316895 754.691528 -895.146118
v 721.146973 744.335083 -908.536255
v 515.090454 511.094879 -891.276733
v 282.021240 443.729828 -708.995605
v 164.191559 423.467194 -620.194702
v 136.024384 447.172638 -571.592651
v 355.157776 638.551514 -622.299805
v 661.384888 727.061890 -861.796997
v 684.373596 560.023560 -1023.671265
v 551.864014 695.406616 -776.141846
v 318.794739 628.041382 -593.860718
v 213.315491 597.554199 -511.366516
v 151.003174 579.543823 -462.632629
v 318.384338 454.240021 -737.434875
v 624.611389 542.750244 -976.932007
v 311.498962 419.730133 -758.992249
v 277.430908 447.359772 -792.341492
v 617.726074 508.240387 -998.489502
v 583.658081 535.869995 -1031.838623
v 474.137146 504.214630 -946.183472
v 508.205200 476.584991 -912.834167
v 712.096619 592.608521 -780.435791
v 663.667542 578.610840 -742.560059
v 647.406738 497.110016 -793.471436
v 695.835754 511.107819 -831.347412
v 741.544312 568.726074 -751.609619
v 693.115295 554.728394 -713.733704
v 676.854431 473.227692 -764.645203
v 725.283508 487.225372 -802.521118
v 786.608704 532.178467 -707.496216
v 738.179626 518.180664 -669.620239
v 721.918762 436.679962 -720.531799
v 770.347839 450.677765 -758.407776
v 815.607056 508.660431 -679.109741
v 767.177979 494.662689 -641.233887
v 750.917175 413.162018 -692.145264
v 799.346130 427.159698 -730.021179
v 1240.500854 720.763550 -1458.612305
v 1206.432861 748.393066 -1491.961548
v 1243.206177 932.704956 -1376.826538
v 1277.274292 905.075195 -1343.477295
vn 0.6183 -0.5014 0.6052
vn 0.7680 0.2220 -0.6007
vn -0.6183 0.5014 -0.6052
vn 0.1668 0.8362 0.5224
vn -0.1668 -0.8362 -0.5224
vn -0.6350 -0.7724 0.0087
vn -0.2393 -0.8007 -0.5492
vn -0.8301 -0.2723 0.4865
vn -0.6194 0.5007 -0.6047
vn 0.6194 -0.5007 0.6047
vn 0.9494 0.0068 -0.3141
vn -0.7548 -0.3366 0.5630
vn -0.1665 -0.8629 -0.4771
vn -0.7840 -0.3392 0.5199
vn -0.2170 -0.8490 -0.4817
vn -0.7680 -0.2220 0.6007
vn -0.4628 -0.4014 0.7904
vn 0.2020 -0.9741 -0.1017
vn 0.4803 0.4207 0.7696
vn 0.7681 0.2220 -0.6007
usemtl Matériau.011
s off
f 25//1 26//1 4//1 3//1
f 29//2 30//2 8//2 7//2
f 27//3 28//3 6//3 5//3
f 22//1 21//1 9//1 10//1
f 42//4 27//4 5//4 31//4
f 56//5 26//5 2//5 44//5
f 10//1 9//1 13//1 14//1
f 55//5 22//5 10//5 45//5
f 23//3 24//3 11//3 12//3
f 46//6 14//6 18//6 47//6
f 45//7 10//7 14//7 46//7
f 12//3 11//3 15//3 16//3
f 33//4 12//4 16//4 35//4
f 54//8 47//8 18//8 17//8
f 16//9 15//9 19//9 20//9
f 14//10 13//10 17//10 18//10
f 5//3 6//3 24//3 23//3
f 44//5 2//5 22//5 55//5
f 31//4 5//4 23//4 40//4
f 2//1 1//1 21//1 22//1
f 50//5 4//5 26//5 56//5
f 29//4 7//4 27//4 42//4
f 7//3 8//3 28//3 27//3
f 26//11 25//11 63//11 66//11
f 43//4 29//4 42//4 49//4
f 8//5 30//5 41//5 28//5
f 51//4 31//4 40//4 48//4
f 6//5 32//5 39//5 24//5
f 20//12 19//12 38//12 37//12
f 52//4 33//4 35//4 53//4
f 11//13 34//13 36//13 15//13
f 15//6 36//6 38//6 19//6
f 24//5 39//5 34//5 11//5
f 28//5 41//5 32//5 6//5
f 49//4 42//4 31//4 51//4
f 30//3 29//3 81//3 80//3
f 3//2 4//2 50//2 43//2
f 25//4 49//4 51//4 1//4
f 9//4 52//4 53//4 13//4
f 1//4 51//4 48//4 21//4
f 3//4 43//4 49//4 25//4
f 30//5 50//5 56//5 41//5
f 32//3 41//3 60//3 61//3
f 37//14 38//14 47//14 54//14
f 34//15 45//15 46//15 36//15
f 36//6 46//6 47//6 38//6
f 39//5 55//5 45//5 34//5
f 55//16 39//16 58//16 57//16
f 61//5 62//5 57//5 58//5
f 60//5 59//5 62//5 61//5
f 39//3 32//3 61//3 58//3
f 44//1 55//1 57//1 62//1
f 41//2 56//2 59//2 60//2
f 56//1 44//1 62//1 59//1
f 66//2 63//2 67//2 70//2
f 1//17 2//17 65//17 64//17
f 2//18 26//18 66//18 65//18
f 25//19 1//19 64//19 63//19
f 69//5 70//5 74//5 73//5
f 64//16 65//16 69//16 68//16
f 65//5 66//5 70//5 69//5
f 63//4 64//4 68//4 67//4
f 73//5 74//5 78//5 77//5
f 67//4 68//4 72//4 71//4
f 70//2 67//2 71//2 74//2
f 68//16 69//16 73//16 72//16
f 76//1 77//1 78//1 75//1
f 71//4 72//4 76//4 75//4
f 74//20 71//20 75//20 78//20
f 82//2 79//2 80//2 81//2
f 50//5 30//5 80//5 79//5
f 43//1 50//1 79//1 82//1
f 29//4 43//4 82//4 81//4
o Cube.048_Cube.024
v -491.850830 554.478394 147.216522
v -640.448364 377.163330 77.390556
v -373.781433 538.318359 -63.012024
v -527.138855 361.086090 -141.884460
v -648.874451 670.729309 -17.585320
v -725.064514 579.814880 -53.387024
v -588.336914 662.443665 -125.375389
v -664.858826 571.625061 -161.886932
v -303.930756 511.506226 -507.409698
v -234.038361 509.152954 -401.900696
v -258.207825 631.981689 -383.150513
v -328.100220 634.335022 -488.659515
v -123.189636 579.318115 -605.520813
v -71.803345 577.587891 -527.948242
v -89.573303 667.894409 -514.162598
v -140.959717 669.624573 -591.735168
v -9.320984 623.703735 -664.931885
v 28.231628 622.439270 -608.243042
v 15.245483 688.434021 -598.168640
v -22.306946 689.698486 -654.857727
v -453.109619 626.454102 -93.215218
v -613.700012 440.022369 -174.285278
v -578.313721 643.859924 130.014038
v -736.068359 455.618103 55.885201
v -239.427307 571.843262 -392.253601
v -313.626678 574.341675 -504.264374
v -63.797913 627.232300 -528.703796
v -118.350952 629.069092 -611.056702
v 44.940735 661.942627 -615.916504
v 5.074219 663.284973 -676.098877
v 67.695068 642.934021 -715.520813
v 105.247559 641.669617 -658.831726
v 128.823730 689.117493 -670.877014
v 88.957092 690.459839 -731.059326
v 60.520325 715.652222 -709.146057
v 98.072998 714.387756 -652.457092
v 122.793396 658.052673 -751.682312
v 160.345886 656.788330 -694.993164
v 183.921814 704.236023 -707.038269
v 144.055176 705.578430 -767.220764
v 115.618469 730.770752 -745.307556
v 153.170959 729.506348 -688.618469
v 167.833313 643.310852 -767.309204
v 192.004089 642.496948 -730.820984
v 207.178894 673.036987 -738.573914
v 181.518616 673.901001 -777.310608
v 171.290833 751.131165 -784.246399
v 142.854187 776.323486 -762.333313
v 180.406677 775.059082 -705.644165
v 211.157471 749.788818 -724.063843
v 197.770996 632.340332 -778.829712
v 214.066284 631.791687 -754.230347
v 224.296753 652.380981 -759.457214
v 206.997192 652.963440 -785.572327
v 229.195496 633.634216 -792.986267
v 239.381836 633.291321 -777.609009
v 245.777039 646.161865 -780.876343
v 234.963074 646.526062 -797.201416
v 187.686096 779.676636 -779.957703
v 168.778076 796.427307 -765.387207
v 193.747314 795.586487 -727.693970
v 214.193970 778.784058 -739.941711
v -309.995422 456.428833 466.040558
v -447.666962 291.987701 354.670807
v -125.174500 339.460205 367.412323
v -249.549927 187.776306 263.636871
v -309.188110 534.141907 222.544464
v -379.776184 449.828308 165.442093
v -206.342468 474.699524 182.450546
v -278.196075 396.396179 118.766403
v 38.578003 100.572632 10.450645
v -14.363159 -2.491760 53.492069
v 70.407166 -10.000610 142.901031
v 124.619385 91.494995 102.846977
v 168.857056 -31.778809 -100.913460
v 127.883728 -109.568420 -70.400703
v 191.143311 -116.242493 -2.468842
v 232.116760 -38.452942 -32.981636
v 250.891846 -116.471985 -168.465088
v 220.948975 -173.319763 -146.166748
v 267.178284 -178.197144 -96.522957
v 297.121155 -121.349609 -118.821266
v -137.312561 417.679932 293.423981
v -275.807434 262.212372 170.031891
v -339.977844 547.420166 384.908356
v -486.133118 372.845673 266.675598
v 27.435547 -16.076355 96.072266
v 86.598938 96.247925 52.013458
v 169.315247 -125.566956 -46.806320
v 212.813416 -42.983704 -79.199257
v 259.075623 -192.293213 -136.948761
v 290.863586 -131.942444 -160.621002
v 303.665894 -167.410828 -227.462128
v 273.722900 -224.258118 -205.163849
v 321.515442 -248.985107 -197.634216
v 353.303406 -188.634277 -221.306641
v 358.075256 -177.157288 -179.247375
v 328.132507 -234.004822 -156.948944
v 342.504822 -204.117676 -268.888977
v 312.562012 -260.965149 -246.590698
v 360.354431 -285.692261 -239.061188
v 392.142273 -225.341248 -262.733551
v 396.914246 -213.863953 -220.674133
v 366.971375 -270.711731 -198.375916
v 344.265442 -234.924683 -308.105682
v 324.992615 -271.515076 -293.753235
v 355.754333 -287.430359 -288.906952
v 376.214783 -248.585388 -304.143646
v 441.660217 -250.892273 -261.379303
v 446.432068 -239.415039 -219.319855
v 416.489441 -296.262756 -197.021545
v 409.872375 -311.242859 -237.706909
v 345.143127 -254.711487 -335.619995
v 332.149963 -279.379578 -325.944061
v 352.888977 -290.109802 -322.676880
v 366.682800 -263.921265 -332.949066
v 357.623108 -276.991150 -358.803467
v 349.500916 -292.411377 -352.754852
v 362.464905 -299.118652 -350.712280
v 371.087585 -282.748169 -357.133636
v 463.967957 -272.553772 -249.751740
v 467.140808 -264.922241 -221.786011
v 447.231384 -302.721008 -206.959503
v 442.831604 -312.681641 -234.011627
vn 0.6172 -0.6867 0.3840
vn -0.2864 0.9174 -0.2762
vn -0.6187 0.6779 -0.3970
vn -0.3068 -0.1149 0.9448
vn 0.2425 0.9682 0.0609
vn -0.5881 -0.7678 -0.2543
vn -0.1274 0.9861 0.1064
vn 0.7870 0.4927 0.3713
vn -0.6913 -0.1330 -0.7102
vn 0.5396 -0.8311 0.1349
vn -0.4892 0.1548 -0.8584
vn 0.6290 -0.0759 0.7737
vn -0.4985 0.1146 -0.8593
vn 0.2534 -0.9487 -0.1890
vn 0.5385 0.0408 0.8416
vn 0.2653 -0.9439 -0.1968
vn -0.1150 0.9885 0.0982
vn 0.6469 -0.1079 0.7549
vn 0.6024 0.1180 0.7894
vn 0.1603 -0.9787 -0.1280
vn -0.4683 -0.0389 -0.8827
vn 0.5987 0.0777 0.7972
vn -0.4447 -0.0712 -0.8929
vn -0.5683 -0.5178 -0.6395
vn 0.4644 0.8227 0.3279
vn -0.8487 -0.2986 -0.4366
vn 0.6514 0.6917 0.3120
vn -0.7639 0.4631 0.4495
vn -0.1764 0.9745 0.1386
vn -0.5423 -0.0319 -0.8396
vn -0.2014 0.9672 0.1550
vn 0.5617 -0.0734 0.8241
vn -0.5408 -0.0363 -0.8404
vn -0.5637 0.0779 -0.8223
vn 0.5192 0.0089 0.8546
vn -0.2598 -0.9538 0.1509
vn 0.5606 -0.0690 0.8252
vn 0.5397 0.0439 0.8407
vn -0.5623 0.0811 -0.8229
vn 0.1764 -0.9745 -0.1386
vn 0.5312 0.7784 -0.3345
vn -0.3647 -0.1379 -0.9209
vn 0.7025 -0.1739 0.6901
vn 0.5493 0.7602 -0.3469
vn 0.6615 0.3057 0.6848
vn -0.5838 0.0461 -0.8106
vn -0.6755 0.5760 0.4603
vn 0.6755 -0.5760 -0.4603
vn 0.1836 0.9779 -0.0998
vn 0.6817 -0.1574 0.7145
vn -0.3948 -0.1211 -0.9107
vn -0.2824 -0.9448 0.1660
vn 0.7243 -0.4844 -0.4906
vn 0.6754 -0.1524 0.7216
vn -0.4040 -0.1159 -0.9074
vn 0.0240 -0.9990 -0.0381
vn 0.4886 0.8173 -0.3055
vn -0.3660 0.3403 -0.8662
vn 0.7722 -0.3655 -0.5197
vn -0.5402 0.7535 0.3747
vn 0.0555 -0.5928 0.8034
vn 0.7584 0.6516 0.0167
vn -0.0077 0.6006 -0.7995
vn -0.7752 0.2586 0.5764
vn 0.5435 0.8374 0.0580
vn -0.5651 -0.7156 -0.4106
vn 0.7220 -0.1147 0.6823
vn 0.8115 -0.0920 0.5770
vn -0.1496 0.0379 -0.9880
vn -0.3041 -0.8503 0.4295
vn 0.5713 0.7650 -0.2974
vn -0.4667 -0.8611 0.2020
vn 0.5384 0.7811 -0.3162
vn -0.6422 0.0219 -0.7662
vn -0.3983 -0.8381 0.3727
vn -0.6225 0.0210 -0.7823
vn 0.7311 -0.1218 0.6713
vn -0.4573 -0.8707 0.1808
vn -0.2990 -0.8874 0.3508
vn -0.7013 0.0921 -0.7069
vn 0.4308 0.7925 -0.4317
vn -0.3126 -0.8749 0.3700
vn 0.4130 0.7817 -0.4673
vn -0.5650 -0.3715 -0.7367
vn 0.9050 0.4226 0.0481
vn -0.5271 -0.3115 -0.7907
vn 0.6264 0.6057 0.4907
vn -0.6869 0.7021 -0.1877
vn 0.6901 -0.0814 0.7191
vn 0.4039 0.8390 -0.3647
vn 0.6721 -0.0647 0.7377
vn -0.4781 -0.8303 0.2864
vn 0.4010 0.8388 -0.3683
vn 0.4806 0.8305 -0.2818
vn -0.4336 -0.8205 0.3726
vn -0.8858 0.3448 -0.3106
vn -0.4754 -0.8305 0.2902
vn -0.3951 -0.8394 0.3733
vn 0.4836 0.8289 -0.2811
vn -0.6901 0.0814 -0.7191
vn 0.8782 -0.4769 -0.0367
vn 0.3835 0.7345 -0.5598
vn -0.4674 -0.8809 0.0739
vn 0.8725 -0.4845 -0.0636
vn -0.0805 -0.9310 0.3559
vn 0.4460 0.8493 -0.2824
vn 0.1300 0.3020 0.9444
vn -0.1300 -0.3020 -0.9444
vn 0.8679 -0.3027 0.3937
vn -0.4703 -0.8757 0.1094
vn 0.3881 0.7540 -0.5299
vn -0.8896 0.3568 -0.2850
vn -0.0334 -0.3497 -0.9363
vn -0.4710 -0.8739 0.1199
vn 0.3894 0.7598 -0.5206
vn -0.7838 0.1796 -0.5945
vn 0.8884 -0.4584 0.0243
vn 0.7387 0.6243 -0.2542
vn 0.0847 -0.4022 -0.9116
vn 0.3372 0.1845 0.9232
usemtl Matériau.012
s off
f 83//21 84//21 86//21 85//21
f 90//22 89//22 93//22 94//22
f 89//23 90//23 88//23 87//23
f 105//24 106//24 84//24 83//24
f 103//25 89//25 87//25 105//25
f 104//26 86//26 84//26 106//26
f 94//27 93//27 97//27 98//27
f 103//28 85//28 92//28 107//28
f 104//29 90//29 94//29 108//29
f 85//30 86//30 91//30 92//30
f 110//31 98//31 102//31 112//31
f 107//32 92//32 96//32 109//32
f 108//33 94//33 98//33 110//33
f 92//34 91//34 95//34 96//34
f 101//35 111//35 115//35 118//35
f 96//36 95//36 99//36 100//36
f 98//37 97//37 101//37 102//37
f 109//38 96//38 100//38 111//38
f 97//39 109//39 111//39 101//39
f 100//40 99//40 113//40 114//40
f 91//41 108//41 110//41 95//41
f 93//42 107//42 109//42 97//42
f 95//43 110//43 112//43 99//43
f 86//44 104//44 108//44 91//44
f 89//45 103//45 107//45 93//45
f 90//46 104//46 106//46 88//46
f 85//47 103//47 105//47 83//47
f 87//48 88//48 106//48 105//48
f 117//49 118//49 124//49 123//49
f 113//50 116//50 122//50 119//50
f 102//51 101//51 118//51 117//51
f 111//52 100//52 114//52 115//52
f 99//53 112//53 116//53 113//53
f 112//54 102//54 117//54 116//54
f 124//55 121//55 132//55 131//55
f 120//56 119//56 125//56 126//56
f 115//57 114//57 120//57 121//57
f 118//58 115//58 121//58 124//58
f 116//59 117//59 123//59 122//59
f 114//60 113//60 119//60 120//60
f 128//61 127//61 135//61 136//61
f 119//62 122//62 128//62 125//62
f 121//63 120//63 126//63 127//63
f 122//64 121//64 127//64 128//64
f 131//65 132//65 144//65 143//65
f 122//66 123//66 130//66 129//66
f 123//67 124//67 131//67 130//67
f 121//68 122//68 129//68 132//68
f 136//69 135//69 139//69 140//69
f 127//70 126//70 134//70 135//70
f 125//71 128//71 136//71 133//71
f 126//72 125//72 133//72 134//72
f 138//73 137//73 140//73 139//73
f 135//74 134//74 138//74 139//74
f 133//75 136//75 140//75 137//75
f 134//76 133//76 137//76 138//76
f 144//77 141//77 142//77 143//77
f 129//78 130//78 142//78 141//78
f 132//79 129//79 141//79 144//79
f 130//80 131//80 143//80 142//80
f 145//81 146//81 148//81 147//81
f 152//82 151//82 155//82 156//82
f 151//83 152//83 150//83 149//83
f 167//84 168//84 146//84 145//84
f 165//85 151//85 149//85 167//85
f 166//86 148//86 146//86 168//86
f 156//87 155//87 159//87 160//87
f 165//88 147//88 154//88 169//88
f 166//89 152//89 156//89 170//89
f 147//90 148//90 153//90 154//90
f 172//91 160//91 164//91 174//91
f 169//92 154//92 158//92 171//92
f 170//93 156//93 160//93 172//93
f 154//94 153//94 157//94 158//94
f 163//95 173//95 177//95 180//95
f 158//96 157//96 161//96 162//96
f 160//97 159//97 163//97 164//97
f 171//98 158//98 162//98 173//98
f 159//99 171//99 173//99 163//99
f 162//100 161//100 175//100 176//100
f 153//101 170//101 172//101 157//101
f 155//102 169//102 171//102 159//102
f 157//103 172//103 174//103 161//103
f 148//104 166//104 170//104 153//104
f 151//105 165//105 169//105 155//105
f 152//106 166//106 168//106 150//106
f 147//107 165//107 167//107 145//107
f 149//108 150//108 168//108 167//108
f 179//109 180//109 186//109 185//109
f 175//110 178//110 184//110 181//110
f 164//111 163//111 180//111 179//111
f 173//112 162//112 176//112 177//112
f 161//113 174//113 178//113 175//113
f 174//114 164//114 179//114 178//114
f 186//115 183//115 194//115 193//115
f 182//116 181//116 187//116 188//116
f 177//117 176//117 182//117 183//117
f 180//118 177//118 183//118 186//118
f 178//119 179//119 185//119 184//119
f 176//120 175//120 181//120 182//120
f 190//121 189//121 197//121 198//121
f 181//122 184//122 190//122 187//122
f 183//123 182//123 188//123 189//123
f 184//124 183//124 189//124 190//124
f 193//125 194//125 206//125 205//125
f 184//126 185//126 192//126 191//126
f 185//127 186//127 193//127 192//127
f 183//128 184//128 191//128 194//128
f 198//129 197//129 201//129 202//129
f 189//130 188//130 196//130 197//130
f 187//131 190//131 198//131 195//131
f 188//132 187//132 195//132 196//132
f 200//133 199//133 202//133 201//133
f 197//134 196//134 200//134 201//134
f 195//135 198//135 202//135 199//135
f 196//136 195//136 199//136 200//136
f 206//137 203//137 204//137 205//137
f 191//138 192//138 204//138 203//138
f 194//139 191//139 203//139 206//139
f 192//140 193//140 205//140 204//140
