# Blender v2.91.2 OBJ File: 'camionnete02.blend'
# www.blender.org
mtllib arme_000061.mtl
o Cube.046_Cube.010
v 336.137115 702.924133 -1023.777466
v 324.061005 483.901917 -1045.284424
v 440.574646 716.180298 -1217.416626
v 428.498535 497.158081 -1238.923828
v 142.420654 723.724548 -1126.832642
v 130.344513 504.702271 -1148.339600
v 246.858185 736.980652 -1320.471802
v 234.782074 517.958435 -1341.979004
v 192.347290 684.672974 -757.174500
v 180.271179 465.650818 -778.681458
v -13.445265 486.451172 -881.736572
v -1.369160 705.473389 -860.229614
v 127.272972 676.413208 -636.519043
v 115.196861 457.390930 -658.026062
v -78.519630 478.191284 -761.081238
v -66.443520 697.213562 -739.574280
v 88.829971 671.533630 -565.241333
v 86.617332 513.013672 -592.716675
v -107.099197 533.814087 -695.771851
v -104.886543 692.334045 -668.296387
v 214.781158 687.520508 -798.769409
v 202.705048 468.498291 -820.276428
v 21.064674 708.320923 -901.824585
v 8.988552 489.298645 -923.331604
v 403.704926 711.500488 -1149.056274
v 391.628845 492.478271 -1170.563110
v 209.988495 732.300842 -1252.111206
v 197.912384 513.278625 -1273.618164
v 343.716400 726.580566 -1268.944336
v 331.640289 507.558228 -1290.451416
v 239.278870 713.324341 -1075.305054
v 227.202789 494.302063 -1096.812134
v 95.489052 695.073181 -808.702026
v 83.412941 476.050903 -830.208984
v 30.414734 686.813354 -688.046631
v 21.571083 476.002380 -694.722534
v -8.028269 681.933838 -616.768860
v 2.299833 513.508972 -650.684265
v 105.846794 478.898438 -871.804016
v 117.922905 697.920715 -850.297058
v 294.770569 502.878418 -1222.090698
v 306.846741 721.900696 -1200.583618
v 392.145508 721.380371 -1243.180542
v 275.631866 489.101990 -1071.048340
v 131.842041 470.850891 -804.445251
v 54.226967 472.495972 -677.349976
v 34.955708 510.002502 -633.311646
v 166.352051 692.720581 -824.533203
v 355.275848 716.700623 -1174.819946
v 380.069458 502.358154 -1264.687500
v 287.707947 708.124268 -1049.541260
v 143.918182 689.873108 -782.938354
v 78.843842 681.613281 -662.282837
v 40.400837 676.733765 -591.005066
v 154.275909 473.698364 -846.040222
v 343.199707 497.678345 -1196.327026
v 152.014862 432.689453 -850.067078
v 103.585701 437.889526 -875.830872
v 340.938599 456.669434 -1200.354004
v 292.509552 461.869507 -1226.117676
v 224.941681 453.293152 -1100.838989
v 273.370819 448.093079 -1075.075073
v 463.153748 639.253601 -1076.670410
v 433.275909 635.461243 -1021.273438
v 427.936096 538.611755 -1030.783447
v 457.813843 542.404236 -1086.180664
v 505.014832 634.758789 -1054.400879
v 475.136993 630.966431 -999.003784
v 469.797150 534.117004 -1008.513916
v 499.674927 537.909424 -1063.910889
v 569.075684 627.880249 -1020.321228
v 539.197937 624.087891 -964.924194
v 533.857971 527.238464 -974.434326
v 563.735779 531.030884 -1029.831543
v 610.298096 623.453918 -998.391418
v 580.420288 619.661560 -942.994385
v 575.080383 522.812256 -952.504578
v 604.958130 526.604614 -1007.901550
v 723.166870 545.907532 -1900.829346
v 674.737854 551.107605 -1926.593018
v 686.813721 770.129883 -1905.086182
v 735.242920 764.929810 -1879.322266
vn 0.8789 -0.0944 0.4676
vn 0.4738 0.0601 -0.8786
vn -0.8789 0.0944 -0.4676
vn 0.0548 0.9937 0.0976
vn -0.0548 -0.9937 -0.0976
vn -0.3558 -0.7826 0.5108
vn -0.1389 -0.9846 -0.1063
vn -0.5476 -0.1632 0.8206
vn -0.8796 0.0938 -0.4664
vn 0.8796 -0.0938 0.4664
vn 0.7815 0.0182 -0.6237
vn -0.4389 -0.1763 0.8810
vn -0.0343 -0.9982 -0.0494
vn -0.4768 -0.2015 0.8556
vn -0.0859 -0.9955 -0.0395
vn -0.4738 -0.0601 0.8786
vn -0.0898 -0.0924 0.9917
vn 0.4393 -0.8808 0.1766
vn 0.5307 0.7767 0.3394
usemtl Matériau.011
s off
f 25//1 26//1 4//1 3//1
f 29//2 30//2 8//2 7//2
f 27//3 28//3 6//3 5//3
f 22//1 21//1 9//1 10//1
f 42//4 27//4 5//4 31//4
f 56//5 26//5 2//5 44//5
f 10//1 9//1 13//1 14//1
f 55//5 22//5 10//5 45//5
f 23//3 24//3 11//3 12//3
f 46//6 14//6 18//6 47//6
f 45//7 10//7 14//7 46//7
f 12//3 11//3 15//3 16//3
f 33//4 12//4 16//4 35//4
f 54//8 47//8 18//8 17//8
f 16//9 15//9 19//9 20//9
f 14//10 13//10 17//10 18//10
f 5//3 6//3 24//3 23//3
f 44//5 2//5 22//5 55//5
f 31//4 5//4 23//4 40//4
f 2//1 1//1 21//1 22//1
f 50//5 4//5 26//5 56//5
f 29//4 7//4 27//4 42//4
f 7//3 8//3 28//3 27//3
f 26//11 25//11 63//11 66//11
f 43//4 29//4 42//4 49//4
f 8//5 30//5 41//5 28//5
f 51//4 31//4 40//4 48//4
f 6//5 32//5 39//5 24//5
f 20//12 19//12 38//12 37//12
f 52//4 33//4 35//4 53//4
f 11//13 34//13 36//13 15//13
f 15//6 36//6 38//6 19//6
f 24//5 39//5 34//5 11//5
f 28//5 41//5 32//5 6//5
f 49//4 42//4 31//4 51//4
f 30//3 29//3 81//3 80//3
f 3//2 4//2 50//2 43//2
f 25//4 49//4 51//4 1//4
f 9//4 52//4 53//4 13//4
f 1//4 51//4 48//4 21//4
f 3//4 43//4 49//4 25//4
f 30//5 50//5 56//5 41//5
f 32//3 41//3 60//3 61//3
f 37//14 38//14 47//14 54//14
f 34//15 45//15 46//15 36//15
f 36//6 46//6 47//6 38//6
f 39//5 55//5 45//5 34//5
f 55//16 39//16 58//16 57//16
f 61//5 62//5 57//5 58//5
f 60//5 59//5 62//5 61//5
f 39//3 32//3 61//3 58//3
f 44//1 55//1 57//1 62//1
f 41//2 56//2 59//2 60//2
f 56//1 44//1 62//1 59//1
f 66//2 63//2 67//2 70//2
f 1//17 2//17 65//17 64//17
f 2//18 26//18 66//18 65//18
f 25//19 1//19 64//19 63//19
f 69//5 70//5 74//5 73//5
f 64//16 65//16 69//16 68//16
f 65//5 66//5 70//5 69//5
f 63//4 64//4 68//4 67//4
f 73//5 74//5 78//5 77//5
f 67//4 68//4 72//4 71//4
f 70//2 67//2 71//2 74//2
f 68//16 69//16 73//16 72//16
f 76//1 77//1 78//1 75//1
f 71//4 72//4 76//4 75//4
f 74//2 71//2 75//2 78//2
f 82//2 79//2 80//2 81//2
f 50//5 30//5 80//5 79//5
f 43//1 50//1 79//1 82//1
f 29//4 43//4 82//4 81//4
o Cube.048_Cube.024
v -562.666992 450.194305 181.013702
v -723.655762 339.909058 38.474808
v -424.306824 497.033875 -11.496231
v -585.603271 387.571655 -153.157806
v -683.664429 644.595642 67.443954
v -766.207886 588.049255 -5.639740
v -612.723267 668.611572 -31.261261
v -695.136230 612.338135 -104.178963
v -369.181244 527.103027 -437.864349
v -275.331207 580.673950 -371.947998
v -327.892059 694.466064 -389.593170
v -421.742065 640.895142 -455.509491
v -250.253387 573.556458 -612.763611
v -181.252686 612.943054 -564.300476
v -219.896576 696.605530 -577.273682
v -288.897217 657.219055 -625.736816
v -175.147095 605.327820 -721.462830
v -124.722351 634.110962 -686.046631
v -152.962891 695.250366 -695.527100
v -203.387543 666.467285 -730.943420
v -487.571960 601.829651 -8.437271
v -658.503479 485.792908 -158.844330
v -634.489746 552.075867 195.928558
v -805.399109 434.994507 44.605965
v -295.769745 639.852295 -383.453522
v -395.403076 582.980286 -453.431854
v -188.506531 658.116821 -585.179443
v -261.759125 616.303162 -636.629089
v -122.970276 668.633667 -712.574158
v -176.502441 638.076904 -750.172668
v -124.093750 612.764221 -800.195007
v -73.668945 641.547363 -764.778748
v -69.131470 682.347351 -800.373596
v -122.663574 651.790466 -837.972229
v -149.976929 679.216003 -817.349243
v -99.552002 707.999146 -781.933105
v -87.955383 619.310913 -856.968323
v -37.530640 648.094055 -821.552063
v -32.993225 688.893921 -857.146851
v -86.525269 658.337158 -894.745667
v -113.838623 685.762695 -874.122498
v -63.413818 714.545776 -838.706238
v -46.718567 606.431519 -881.943298
v -14.262390 624.957886 -859.147644
v -11.341858 651.218994 -882.058289
v -45.798035 631.550903 -906.258850
v -79.459045 695.888550 -935.324829
v -106.772400 723.314026 -914.701599
v -56.347534 752.097229 -879.285461
v -25.927002 726.445435 -897.725891
v -19.281921 596.343323 -899.113281
v 2.599060 608.833313 -883.744873
v 4.568054 626.537720 -899.190674
v -18.661316 613.278137 -915.505981
v 5.236755 596.296509 -923.370483
v 18.914795 604.104126 -913.763489
v 20.145691 615.171448 -923.418823
v 5.624756 606.882629 -933.617859
v -71.519348 725.686646 -947.616272
v -89.680359 743.922180 -933.903503
v -56.152283 763.060425 -910.354980
v -35.925232 746.004211 -922.616516
v -299.125061 416.495209 487.297424
v -293.963928 282.117371 286.515167
v -152.610046 581.050537 377.523285
v -156.870728 449.111511 178.274719
v -463.404877 536.035278 332.208282
v -460.758606 467.135956 229.261597
v -388.432831 624.020020 280.246918
v -390.467163 552.758484 173.763672
v -22.104065 718.041870 -42.786018
v 77.795349 748.497009 29.597221
v 24.278809 859.072876 58.020653
v -74.713928 829.345520 -13.352592
v 78.616638 826.505249 -200.844879
v 152.788635 847.808716 -148.828125
v 114.108459 929.641541 -127.187782
v 39.936462 908.338135 -179.204803
v 142.438660 896.654785 -298.167358
v 196.642578 912.223145 -260.153992
v 168.375671 972.025513 -244.339661
v 114.171814 956.457275 -282.352783
v -258.538910 631.881775 356.958954
v -266.599182 488.077148 140.414017
v -417.619659 453.450867 468.479645
v -412.140503 310.792236 255.324554
v 58.035828 805.899414 40.405663
v -49.064636 775.138306 -34.703911
v 143.999573 897.258362 -151.417419
v 65.256897 874.642029 -206.639618
v 196.083374 953.948120 -272.696014
v 138.539246 937.420532 -313.051636
v 185.132629 932.826721 -373.859528
v 239.336487 948.394958 -335.846375
v 240.688171 999.275024 -354.862396
v 183.144104 982.747253 -395.218231
v 158.482849 1000.376831 -363.524261
v 212.686829 1015.945129 -325.511078
v 215.262207 960.000000 -427.950928
v 269.466003 975.568298 -389.937622
v 270.817810 1026.448364 -408.953735
v 213.273804 1009.920654 -449.309540
v 188.612488 1027.550171 -417.615540
v 242.816345 1043.118408 -379.602203
v 253.509460 957.853699 -459.929596
v 288.398132 967.874329 -435.462219
v 289.268311 1000.623535 -447.702301
v 252.229675 989.985352 -473.677277
v 216.580017 1059.597534 -474.369171
v 191.918762 1077.227051 -442.675110
v 246.122620 1092.795410 -404.661865
v 274.124023 1076.125244 -434.013428
v 278.879822 955.202637 -482.260406
v 302.400696 961.958191 -465.765045
v 302.987366 984.036804 -474.017120
v 278.016846 976.864868 -491.528717
v 300.743958 964.379761 -507.306854
v 315.447205 968.602722 -496.995514
v 315.813660 982.404236 -502.153595
v 300.204651 977.921082 -513.100403
v 223.590942 1092.005127 -475.995636
v 207.193420 1103.727173 -454.922028
v 243.234192 1114.078613 -429.646301
v 261.852722 1102.994385 -449.162506
vn 0.4777 -0.8688 0.1300
vn -0.3785 0.8968 -0.2290
vn -0.4778 0.8686 -0.1313
vn -0.4252 -0.4173 0.8031
vn 0.3539 0.8180 0.4535
vn -0.6346 -0.5063 -0.5839
vn -0.3731 0.9050 -0.2044
vn 0.7916 0.4266 0.4374
vn -0.7598 -0.0753 -0.6458
vn 0.5331 -0.8460 0.0093
vn -0.7300 -0.3027 -0.6128
vn 0.8119 0.3585 0.4608
vn -0.7272 -0.3403 -0.5961
vn 0.4549 -0.8875 0.0736
vn 0.7140 0.4775 0.5121
vn 0.4623 -0.8847 0.0608
vn -0.3647 0.9056 -0.2168
vn 0.8324 0.3246 0.4491
vn 0.7357 0.5340 0.4167
vn 0.3951 -0.9026 0.1710
vn -0.6615 -0.4826 -0.5741
vn 0.7462 0.5007 0.4387
vn -0.6333 -0.5120 -0.5803
vn -0.5793 -0.4650 -0.6695
vn 0.5129 0.7598 0.3995
vn -0.8127 0.0166 -0.5824
vn 0.6944 0.4019 0.5969
vn -0.7451 0.3724 0.5533
vn -0.4058 0.9008 -0.1544
vn -0.7194 -0.4693 -0.5121
vn -0.4220 0.8974 -0.1285
vn 0.7635 0.3718 0.5281
vn -0.7170 -0.4733 -0.5117
vn -0.7661 -0.3673 -0.5274
vn 0.7091 0.4517 0.5415
vn 0.0798 -0.8261 0.5578
vn 0.7614 0.3760 0.5280
vn 0.7139 0.4801 0.5098
vn -0.7659 -0.3646 -0.5296
vn 0.4058 -0.9008 0.1544
vn 0.1690 0.6332 -0.7553
vn -0.5483 -0.5712 -0.6108
vn 0.8846 0.2468 0.3956
vn 0.1875 0.6145 -0.7663
vn 0.7066 0.6659 0.2394
vn -0.7721 -0.3938 -0.4988
vn -0.6590 0.6058 0.4459
vn 0.6590 -0.6058 -0.4459
vn -0.1426 0.8577 -0.4940
vn 0.8675 0.2687 0.4186
vn -0.5781 -0.5565 -0.5968
vn 0.0607 -0.8152 0.5760
vn 0.6688 -0.5296 -0.5218
vn 0.8622 0.2751 0.4253
vn -0.5871 -0.5518 -0.5923
vn 0.3008 -0.9033 0.3058
vn 0.1268 0.6737 -0.7280
vn -0.6730 -0.1216 -0.7296
vn 0.6702 -0.4285 -0.6060
vn -0.6100 0.7484 0.2603
vn 0.8136 -0.4832 0.3235
vn -0.6091 0.7867 -0.1007
vn -0.8146 0.4809 -0.3242
vn -0.3285 -0.7888 0.5195
vn -0.4017 0.7087 0.5800
vn 0.0720 -0.5834 -0.8090
vn -0.3842 0.9087 0.1634
vn 0.4520 0.5855 0.6730
vn -0.4425 -0.1496 -0.8842
vn 0.7984 -0.5998 0.0524
vn -0.7936 -0.0833 -0.6027
vn 0.8595 0.1932 0.4732
vn -0.7896 -0.1243 -0.6009
vn 0.4542 -0.8444 -0.2842
vn 0.7695 0.2821 0.5730
vn 0.4544 -0.8369 -0.3052
vn -0.3733 0.9142 0.1578
vn 0.8787 0.1645 0.4481
vn 0.7820 0.3692 0.5022
vn 0.3989 -0.8944 -0.2024
vn -0.7238 -0.2635 -0.6377
vn 0.7897 0.3367 0.5128
vn -0.6968 -0.2881 -0.6569
vn -0.1663 -0.5001 -0.8498
vn 0.0014 0.7955 0.6059
vn -0.3774 -0.2653 -0.8872
vn 0.0490 0.5103 0.8586
vn -0.9503 -0.2695 0.1559
vn -0.4077 0.8866 0.2183
vn -0.7748 -0.2745 -0.5695
vn -0.4213 0.8738 0.2428
vn 0.8190 0.1788 0.5452
vn -0.7724 -0.2783 -0.5709
vn -0.8215 -0.1749 -0.5427
vn 0.7674 0.2474 0.5916
vn 0.1264 -0.9681 0.2162
vn 0.8170 0.1827 0.5469
vn 0.7692 0.2853 0.5718
vn -0.8215 -0.1716 -0.5438
vn 0.4077 -0.8866 -0.2183
vn 0.0980 0.8641 -0.4936
vn -0.6163 -0.3304 -0.7149
vn 0.9241 0.1120 0.3654
vn 0.1149 0.8510 -0.5124
vn 0.7363 0.5547 0.3874
vn -0.8248 -0.2099 -0.5250
vn -0.6011 0.3915 0.6967
vn 0.6011 -0.3915 -0.6967
vn -0.1818 0.9734 -0.1394
vn 0.9098 0.1239 0.3962
vn -0.6442 -0.3224 -0.6936
vn 0.1095 -0.9648 0.2390
vn 0.6040 -0.2930 -0.7412
vn 0.9053 0.1274 0.4053
vn -0.6526 -0.3199 -0.6869
vn 0.3191 -0.9453 -0.0678
vn 0.0593 0.8913 -0.4496
vn -0.7467 0.1288 -0.6526
vn 0.5980 -0.1687 -0.7836
vn -0.5698 0.5919 0.5701
usemtl Matériau.012
s off
f 83//20 84//20 86//20 85//20
f 90//21 89//21 93//21 94//21
f 89//22 90//22 88//22 87//22
f 105//23 106//23 84//23 83//23
f 103//24 89//24 87//24 105//24
f 104//25 86//25 84//25 106//25
f 94//26 93//26 97//26 98//26
f 103//27 85//27 92//27 107//27
f 104//28 90//28 94//28 108//28
f 85//29 86//29 91//29 92//29
f 110//30 98//30 102//30 112//30
f 107//31 92//31 96//31 109//31
f 108//32 94//32 98//32 110//32
f 92//33 91//33 95//33 96//33
f 101//34 111//34 115//34 118//34
f 96//35 95//35 99//35 100//35
f 98//36 97//36 101//36 102//36
f 109//37 96//37 100//37 111//37
f 97//38 109//38 111//38 101//38
f 100//39 99//39 113//39 114//39
f 91//40 108//40 110//40 95//40
f 93//41 107//41 109//41 97//41
f 95//42 110//42 112//42 99//42
f 86//43 104//43 108//43 91//43
f 89//44 103//44 107//44 93//44
f 90//45 104//45 106//45 88//45
f 85//46 103//46 105//46 83//46
f 87//47 88//47 106//47 105//47
f 117//48 118//48 124//48 123//48
f 113//49 116//49 122//49 119//49
f 102//50 101//50 118//50 117//50
f 111//51 100//51 114//51 115//51
f 99//52 112//52 116//52 113//52
f 112//53 102//53 117//53 116//53
f 124//54 121//54 132//54 131//54
f 120//55 119//55 125//55 126//55
f 115//56 114//56 120//56 121//56
f 118//57 115//57 121//57 124//57
f 116//58 117//58 123//58 122//58
f 114//59 113//59 119//59 120//59
f 128//60 127//60 135//60 136//60
f 119//61 122//61 128//61 125//61
f 121//62 120//62 126//62 127//62
f 122//63 121//63 127//63 128//63
f 131//64 132//64 144//64 143//64
f 122//65 123//65 130//65 129//65
f 123//66 124//66 131//66 130//66
f 121//67 122//67 129//67 132//67
f 136//68 135//68 139//68 140//68
f 127//69 126//69 134//69 135//69
f 125//70 128//70 136//70 133//70
f 126//71 125//71 133//71 134//71
f 138//72 137//72 140//72 139//72
f 135//73 134//73 138//73 139//73
f 133//74 136//74 140//74 137//74
f 134//75 133//75 137//75 138//75
f 144//76 141//76 142//76 143//76
f 129//77 130//77 142//77 141//77
f 132//78 129//78 141//78 144//78
f 130//79 131//79 143//79 142//79
f 145//80 146//80 148//80 147//80
f 152//81 151//81 155//81 156//81
f 151//82 152//82 150//82 149//82
f 167//83 168//83 146//83 145//83
f 165//84 151//84 149//84 167//84
f 166//85 148//85 146//85 168//85
f 156//86 155//86 159//86 160//86
f 165//87 147//87 154//87 169//87
f 166//88 152//88 156//88 170//88
f 147//89 148//89 153//89 154//89
f 172//90 160//90 164//90 174//90
f 169//91 154//91 158//91 171//91
f 170//92 156//92 160//92 172//92
f 154//93 153//93 157//93 158//93
f 163//94 173//94 177//94 180//94
f 158//95 157//95 161//95 162//95
f 160//96 159//96 163//96 164//96
f 171//97 158//97 162//97 173//97
f 159//98 171//98 173//98 163//98
f 162//99 161//99 175//99 176//99
f 153//100 170//100 172//100 157//100
f 155//101 169//101 171//101 159//101
f 157//102 172//102 174//102 161//102
f 148//103 166//103 170//103 153//103
f 151//104 165//104 169//104 155//104
f 152//105 166//105 168//105 150//105
f 147//106 165//106 167//106 145//106
f 149//107 150//107 168//107 167//107
f 179//108 180//108 186//108 185//108
f 175//109 178//109 184//109 181//109
f 164//110 163//110 180//110 179//110
f 173//111 162//111 176//111 177//111
f 161//112 174//112 178//112 175//112
f 174//113 164//113 179//113 178//113
f 186//114 183//114 194//114 193//114
f 182//115 181//115 187//115 188//115
f 177//116 176//116 182//116 183//116
f 180//117 177//117 183//117 186//117
f 178//118 179//118 185//118 184//118
f 176//119 175//119 181//119 182//119
f 190//120 189//120 197//120 198//120
f 181//121 184//121 190//121 187//121
f 183//122 182//122 188//122 189//122
f 184//123 183//123 189//123 190//123
f 193//124 194//124 206//124 205//124
f 184//125 185//125 192//125 191//125
f 185//126 186//126 193//126 192//126
f 183//127 184//127 191//127 194//127
f 198//128 197//128 201//128 202//128
f 189//129 188//129 196//129 197//129
f 187//130 190//130 198//130 195//130
f 188//131 187//131 195//131 196//131
f 200//132 199//132 202//132 201//132
f 197//133 196//133 200//133 201//133
f 195//134 198//134 202//134 199//134
f 196//135 195//135 199//135 200//135
f 206//136 203//136 204//136 205//136
f 191//137 192//137 204//137 203//137
f 194//138 191//138 203//138 206//138
f 192//139 193//139 205//139 204//139
