# Blender v2.91.2 OBJ File: 'camionnete02.blend'
# www.blender.org
mtllib arme_000044.mtl
o Cube.046_Cube.010
v 208.528076 443.400940 -1135.703613
v 148.458435 231.487839 -1127.730225
v 279.931427 415.386230 -1342.333252
v 219.861755 203.473038 -1334.359863
v 8.847580 497.132751 -1211.990479
v -51.222107 285.219604 -1204.017090
v 80.250931 469.117981 -1418.620117
v 20.181274 257.204834 -1410.646973
v 110.219757 481.971741 -851.215454
v 50.150116 270.058655 -843.242126
v -149.530334 323.790405 -919.528992
v -89.460693 535.703552 -927.502319
v 65.728851 499.427551 -722.465759
v 5.659172 287.514404 -714.492554
v -194.021332 341.246216 -790.779358
v -133.951675 553.159363 -798.752747
v 39.445557 509.739685 -646.406311
v 0.294647 353.827393 -653.256897
v -199.385895 407.559204 -729.543762
v -160.234955 563.471558 -722.693176
v 125.557678 475.953979 -895.600769
v 65.488037 264.040833 -887.627441
v -74.122826 529.685791 -971.887756
v -134.192490 317.772644 -963.914368
v 254.723816 425.276245 -1269.386475
v 194.654175 213.363144 -1261.413330
v 55.043320 479.008118 -1345.673584
v -5.026299 267.094910 -1337.700195
v 180.091156 442.252136 -1380.476562
v 120.021484 230.338943 -1372.503418
v 108.687820 470.266907 -1173.846924
v 48.618195 258.353699 -1165.873779
v 10.379532 508.837646 -889.358826
v -49.690117 296.924500 -881.385498
v -34.111397 526.293518 -760.609314
v -86.925278 322.991760 -739.558044
v -60.394684 536.605591 -684.549744
v -90.542595 367.706787 -698.266724
v -34.352234 290.906738 -925.770874
v 25.717422 502.819885 -933.744263
v 94.813889 240.229019 -1299.556641
v 154.883575 452.142212 -1307.530029
v 230.011322 428.819214 -1361.404785
v 98.538284 244.920761 -1146.802002
v 0.229980 283.491516 -862.313843
v -53.264015 313.933899 -726.697937
v -56.881317 358.648926 -685.406555
v 75.637573 489.386963 -914.672424
v 204.803711 438.709229 -1288.458252
v 169.941650 216.905960 -1353.431641
v 158.607910 456.833923 -1154.775391
v 60.299637 495.404663 -870.287170
v 15.808685 512.860535 -741.537476
v -10.474564 523.172607 -665.478027
v 15.567902 277.473816 -906.699219
v 144.734009 226.796066 -1280.485107
v 4.320694 237.795944 -905.206299
v -45.599434 251.228897 -924.278015
v 133.486755 187.118240 -1278.992188
v 83.566681 200.551163 -1298.063965
v 37.370941 218.675858 -1164.380859
v 87.291077 205.242874 -1145.309082
v 309.261902 348.576843 -1197.718750
v 288.834595 356.591370 -1138.605469
v 262.272522 262.885498 -1135.079834
v 282.699738 254.871017 -1194.193359
v 352.411743 336.965698 -1181.233887
v 331.984497 344.980286 -1122.120361
v 305.422363 251.274429 -1118.594727
v 325.849609 243.259872 -1177.708008
v 418.444885 319.196960 -1156.006348
v 398.017578 327.211548 -1096.893066
v 371.455444 233.505692 -1093.367188
v 391.882690 225.491135 -1152.480713
v 460.936401 307.762939 -1139.772705
v 440.509033 315.777527 -1080.659424
v 413.947021 222.071701 -1077.133545
v 434.374146 214.057175 -1136.246826
v 404.515625 124.872360 -2032.249268
v 354.595520 138.305313 -2051.321045
v 414.665039 350.218567 -2059.294189
v 464.585205 336.785583 -2040.222656
vn 0.9060 -0.2438 0.3461
vn 0.3240 -0.1271 -0.9375
vn -0.9060 0.2438 -0.3461
vn 0.2725 0.9615 -0.0362
vn -0.2725 -0.9615 0.0362
vn -0.4189 -0.6341 0.6500
vn -0.3533 -0.9347 0.0384
vn -0.4259 0.0382 0.9040
vn -0.9065 0.2435 -0.3449
vn 0.9065 -0.2435 0.3449
vn 0.6543 -0.2128 -0.7257
vn -0.3137 0.0068 0.9495
vn -0.2457 -0.9659 0.0812
vn -0.3596 -0.0116 0.9330
vn -0.2933 -0.9510 0.0978
vn -0.3240 0.1271 0.9375
vn 0.0587 0.0209 0.9981
vn 0.2726 -0.9364 0.2212
vn 0.7272 0.6673 0.1608
usemtl Matériau.011
s off
f 25//1 26//1 4//1 3//1
f 29//2 30//2 8//2 7//2
f 27//3 28//3 6//3 5//3
f 22//1 21//1 9//1 10//1
f 42//4 27//4 5//4 31//4
f 56//5 26//5 2//5 44//5
f 10//1 9//1 13//1 14//1
f 55//5 22//5 10//5 45//5
f 23//3 24//3 11//3 12//3
f 46//6 14//6 18//6 47//6
f 45//7 10//7 14//7 46//7
f 12//3 11//3 15//3 16//3
f 33//4 12//4 16//4 35//4
f 54//8 47//8 18//8 17//8
f 16//9 15//9 19//9 20//9
f 14//10 13//10 17//10 18//10
f 5//3 6//3 24//3 23//3
f 44//5 2//5 22//5 55//5
f 31//4 5//4 23//4 40//4
f 2//1 1//1 21//1 22//1
f 50//5 4//5 26//5 56//5
f 29//4 7//4 27//4 42//4
f 7//3 8//3 28//3 27//3
f 26//11 25//11 63//11 66//11
f 43//4 29//4 42//4 49//4
f 8//5 30//5 41//5 28//5
f 51//4 31//4 40//4 48//4
f 6//5 32//5 39//5 24//5
f 20//12 19//12 38//12 37//12
f 52//4 33//4 35//4 53//4
f 11//13 34//13 36//13 15//13
f 15//6 36//6 38//6 19//6
f 24//5 39//5 34//5 11//5
f 28//5 41//5 32//5 6//5
f 49//4 42//4 31//4 51//4
f 30//3 29//3 81//3 80//3
f 3//2 4//2 50//2 43//2
f 25//4 49//4 51//4 1//4
f 9//4 52//4 53//4 13//4
f 1//4 51//4 48//4 21//4
f 3//4 43//4 49//4 25//4
f 30//5 50//5 56//5 41//5
f 32//3 41//3 60//3 61//3
f 37//14 38//14 47//14 54//14
f 34//15 45//15 46//15 36//15
f 36//6 46//6 47//6 38//6
f 39//5 55//5 45//5 34//5
f 55//16 39//16 58//16 57//16
f 61//5 62//5 57//5 58//5
f 60//5 59//5 62//5 61//5
f 39//3 32//3 61//3 58//3
f 44//1 55//1 57//1 62//1
f 41//2 56//2 59//2 60//2
f 56//1 44//1 62//1 59//1
f 66//2 63//2 67//2 70//2
f 1//17 2//17 65//17 64//17
f 2//18 26//18 66//18 65//18
f 25//19 1//19 64//19 63//19
f 69//5 70//5 74//5 73//5
f 64//16 65//16 69//16 68//16
f 65//5 66//5 70//5 69//5
f 63//4 64//4 68//4 67//4
f 73//5 74//5 78//5 77//5
f 67//4 68//4 72//4 71//4
f 70//2 67//2 71//2 74//2
f 68//16 69//16 73//16 72//16
f 76//1 77//1 78//1 75//1
f 71//4 72//4 76//4 75//4
f 74//2 71//2 75//2 78//2
f 82//2 79//2 80//2 81//2
f 50//5 30//5 80//5 79//5
f 43//1 50//1 79//1 82//1
f 29//4 43//4 82//4 81//4
o Cube.048_Cube.024
v -563.184998 457.416748 181.867737
v -725.050110 340.460175 45.785431
v -423.779144 490.837494 -12.674332
v -586.252075 376.707520 -146.442383
v -681.631287 645.874756 56.231895
v -764.624023 585.907898 -13.541290
v -610.153992 663.010559 -43.515244
v -692.577881 603.875305 -112.836983
v -410.886169 482.775940 -438.239166
v -298.463318 519.996094 -393.535828
v -328.783813 640.508057 -417.622559
v -441.206665 603.287842 -462.325836
v -315.601776 485.489258 -632.674438
v -232.946045 512.854370 -599.807434
v -255.238434 601.457520 -617.516541
v -337.894226 574.092346 -650.383545
v -254.638000 489.726837 -754.046997
v -194.234253 509.724945 -730.028320
v -210.525177 574.474854 -742.969849
v -270.929047 554.476807 -766.988586
v -485.760223 596.366638 -16.228477
v -657.120728 475.722076 -158.194611
v -633.869690 560.826233 190.291290
v -805.709473 436.662476 45.823181
v -307.964630 580.926453 -409.328522
v -427.315369 541.412659 -456.786591
v -234.148621 556.406982 -624.926025
v -321.897888 527.355591 -659.818359
v -189.865601 540.423218 -760.640808
v -253.991638 519.192871 -786.139587
v -216.900208 478.417725 -839.536621
v -156.496399 498.415771 -815.517883
v -149.656311 533.760376 -856.214172
v -213.782349 512.529968 -881.713074
v -231.099518 547.099731 -861.011963
v -170.695801 567.097900 -836.993347
v -190.097137 471.562347 -901.234558
v -129.693420 491.560425 -877.215881
v -122.853516 526.905029 -917.912048
v -186.979492 505.674652 -943.410950
v -204.296631 540.244507 -922.710022
v -143.892822 560.242493 -898.691284
v -157.089294 447.627075 -930.004517
v -118.210144 460.498962 -914.544678
v -113.807617 483.248657 -940.739014
v -155.082458 469.583588 -957.151489
v -179.190552 536.848633 -988.954651
v -196.507690 571.418518 -968.253601
v -136.104065 591.416504 -944.234924
v -115.064514 558.079102 -963.455750
v -135.530457 430.176819 -949.499268
v -109.319275 438.854614 -939.076660
v -106.351135 454.191833 -956.736023
v -134.177551 444.979309 -967.800964
v -115.903442 422.473267 -976.794250
v -99.518494 427.897888 -970.278870
v -97.662964 437.485352 -981.318176
v -115.057617 431.726440 -988.234924
v -167.463318 562.890442 -1005.876282
v -178.977783 585.876343 -992.111755
v -138.814636 599.173279 -976.141418
v -124.825134 577.006714 -988.921814
v -302.626434 489.605011 463.674622
v -296.303772 300.664001 313.145935
v -153.389343 603.398682 309.396210
v -154.694580 425.558380 162.328796
v -462.300049 558.264099 276.269745
v -459.058197 461.388794 199.089447
v -386.534882 621.415039 201.815887
v -386.451202 525.425537 121.761261
v 4.095825 696.766724 -91.518379
v 82.457703 723.083374 3.913536
v 7.934875 818.524292 38.364983
v -69.895935 792.960083 -55.536888
v 115.822327 845.979248 -201.719666
v 174.107910 864.581177 -131.592468
v 119.707520 935.304749 -105.138130
v 61.421936 916.702881 -175.265350
v 185.841370 941.333008 -268.584229
v 228.435730 954.927002 -217.336121
v 188.680664 1006.610779 -198.003662
v 146.086243 993.016846 -249.251617
v -259.782990 644.636963 274.717010
v -263.118927 452.377075 112.159012
v -420.166840 520.370361 432.074768
v -413.454529 319.786285 272.269958
v 51.705566 774.405579 21.475975
v -32.455750 747.545410 -79.784203
v 158.432434 912.181580 -127.384895
v 96.555054 892.433167 -201.833557
v 223.881958 997.988220 -222.192719
v 178.662842 983.556458 -276.598846
v 236.429993 996.821899 -325.349152
v 279.024353 1010.415771 -274.101074
v 276.171204 1063.916992 -283.140503
v 230.952087 1049.485229 -337.546753
v 198.114319 1057.340820 -309.556885
v 240.708679 1070.934937 -258.308746
v 272.007751 1037.719116 -365.767731
v 314.602112 1051.313110 -314.519623
v 311.749268 1104.814209 -323.559204
v 266.529968 1090.382568 -377.965302
v 233.692139 1098.238281 -349.975372
v 276.286316 1111.832153 -298.727173
v 315.652161 1046.531372 -388.298676
v 343.068054 1055.281250 -355.312653
v 341.231873 1089.717529 -361.131042
v 312.126282 1080.428345 -396.149872
v 266.943298 1144.169678 -392.576294
v 234.105286 1152.025391 -364.586243
v 276.699707 1165.619385 -313.338196
v 312.162537 1158.601440 -338.170288
v 345.012268 1051.411255 -404.531281
v 363.495544 1057.310059 -382.292938
v 362.257629 1080.526245 -386.215790
v 342.635315 1074.263672 -409.824371
v 369.675842 1067.943726 -422.080566
v 381.229919 1071.631104 -408.179169
v 380.455994 1086.143799 -410.631165
v 368.189880 1082.229004 -425.389191
v 269.020447 1176.813354 -386.908020
v 247.186035 1182.036621 -368.297089
v 275.507507 1191.075439 -334.221466
v 299.087158 1186.409180 -350.732697
vn 0.4670 -0.8657 0.1800
vn -0.3052 0.9178 -0.2540
vn -0.4674 0.8646 -0.1845
vn -0.4321 -0.3626 0.8257
vn 0.3618 0.8402 0.4039
vn -0.6367 -0.5279 -0.5621
vn -0.2084 0.9426 -0.2608
vn 0.8492 0.4042 0.3398
vn -0.7963 -0.0812 -0.5994
vn 0.4666 -0.8839 0.0309
vn -0.8677 -0.1880 -0.4602
vn 0.9330 0.2101 0.2924
vn -0.8699 -0.2236 -0.4396
vn 0.2693 -0.9557 0.1186
vn 0.8713 0.3521 0.3418
vn 0.2748 -0.9558 0.1047
vn -0.2022 0.9402 -0.2743
vn 0.9439 0.1716 0.2822
vn 0.8881 0.3933 0.2379
vn 0.2246 -0.9482 0.2246
vn -0.8320 -0.3743 -0.4095
vn 0.8950 0.3607 0.2623
vn -0.8119 -0.4097 -0.4159
vn -0.6547 -0.4755 -0.5876
vn 0.5795 0.7539 0.3095
vn -0.8074 -0.0134 -0.5898
vn 0.6974 0.4294 0.5738
vn -0.7422 0.4140 0.5270
vn -0.2325 0.9504 -0.2066
vn -0.8749 -0.3429 -0.3420
vn -0.2446 0.9531 -0.1784
vn 0.9001 0.2399 0.3637
vn -0.8734 -0.3472 -0.3415
vn -0.9016 -0.2349 -0.3632
vn 0.8662 0.3307 0.3745
vn 0.0001 -0.7687 0.6397
vn 0.8990 0.2444 0.3634
vn 0.8714 0.3544 0.3392
vn -0.9012 -0.2325 -0.3657
vn 0.2325 -0.9504 0.2066
vn 0.1677 0.5081 -0.8448
vn -0.7471 -0.4887 -0.4505
vn 0.9694 0.0796 0.2320
vn 0.1798 0.4848 -0.8559
vn 0.8577 0.5116 0.0515
vn -0.9081 -0.2567 -0.3310
vn -0.4378 0.7751 0.4557
vn 0.4378 -0.7751 -0.4556
vn -0.0437 0.8190 -0.5721
vn 0.9612 0.1067 0.2542
vn -0.7705 -0.4666 -0.4344
vn -0.0130 -0.7521 0.6589
vn 0.4503 -0.7102 -0.5411
vn 0.9586 0.1148 0.2608
vn -0.7774 -0.4597 -0.4293
vn 0.1558 -0.9157 0.3705
vn 0.1397 0.5593 -0.8171
vn -0.7949 -0.0355 -0.6056
vn 0.4584 -0.6201 -0.6366
vn -0.3921 0.8857 0.2486
vn 0.7997 -0.3717 0.4716
vn -0.6110 0.7506 -0.2514
vn -0.8001 0.3707 -0.4716
vn -0.3501 -0.5908 0.7269
vn -0.3685 0.8699 0.3279
vn 0.0759 -0.8018 -0.5927
vn -0.5438 0.8059 0.2342
vn 0.3655 0.6625 0.6538
vn -0.3642 -0.2369 -0.9007
vn 0.8148 -0.5468 0.1927
vn -0.6370 -0.0490 -0.7693
vn 0.7116 0.1848 0.6779
vn -0.6271 -0.0888 -0.7739
vn 0.6251 -0.7105 -0.3232
vn 0.5886 0.2455 0.7702
vn 0.6298 -0.6994 -0.3379
vn -0.5343 0.8139 0.2282
vn 0.7372 0.1692 0.6541
vn 0.6011 0.3461 0.7203
vn 0.5647 -0.7827 -0.2618
vn -0.5346 -0.2090 -0.8188
vn 0.6054 0.3182 0.7295
vn -0.5009 -0.2260 -0.8355
vn -0.0927 -0.5757 -0.8124
vn -0.0730 0.8410 0.5360
vn -0.3668 -0.5176 -0.7730
vn 0.0565 0.7655 0.6409
vn -0.9571 -0.1996 0.2103
vn -0.5752 0.7709 0.2736
vn -0.5957 -0.2395 -0.7667
vn -0.5912 0.7519 0.2919
vn 0.6581 0.1565 0.7365
vn -0.5925 -0.2427 -0.7681
vn -0.6616 -0.1535 -0.7340
vn 0.5883 0.2078 0.7815
vn 0.2302 -0.9709 0.0662
vn 0.6552 0.1597 0.7383
vn 0.5881 0.2489 0.7695
vn -0.6619 -0.1500 -0.7344
vn 0.5752 -0.7709 -0.2736
vn 0.0577 0.9520 -0.3005
vn -0.4049 -0.2461 -0.8806
vn 0.8055 0.1402 0.5757
vn 0.0799 0.9450 -0.3171
vn 0.5507 0.5447 0.6325
vn -0.6628 -0.1915 -0.7239
vn -0.7796 0.1698 0.6029
vn 0.7796 -0.1698 -0.6029
vn -0.2998 0.9540 -0.0039
vn 0.7837 0.1439 0.6042
vn -0.4374 -0.2458 -0.8650
vn 0.2088 -0.9743 0.0849
vn 0.7758 -0.0647 -0.6277
vn 0.7771 0.1449 0.6125
vn -0.4472 -0.2457 -0.8600
vn 0.4690 -0.8687 -0.1593
vn 0.0074 0.9650 -0.2621
vn -0.6147 0.1728 -0.7696
vn 0.7590 0.0642 -0.6479
vn -0.7555 0.3940 0.5234
usemtl Matériau.012
s off
f 83//20 84//20 86//20 85//20
f 90//21 89//21 93//21 94//21
f 89//22 90//22 88//22 87//22
f 105//23 106//23 84//23 83//23
f 103//24 89//24 87//24 105//24
f 104//25 86//25 84//25 106//25
f 94//26 93//26 97//26 98//26
f 103//27 85//27 92//27 107//27
f 104//28 90//28 94//28 108//28
f 85//29 86//29 91//29 92//29
f 110//30 98//30 102//30 112//30
f 107//31 92//31 96//31 109//31
f 108//32 94//32 98//32 110//32
f 92//33 91//33 95//33 96//33
f 101//34 111//34 115//34 118//34
f 96//35 95//35 99//35 100//35
f 98//36 97//36 101//36 102//36
f 109//37 96//37 100//37 111//37
f 97//38 109//38 111//38 101//38
f 100//39 99//39 113//39 114//39
f 91//40 108//40 110//40 95//40
f 93//41 107//41 109//41 97//41
f 95//42 110//42 112//42 99//42
f 86//43 104//43 108//43 91//43
f 89//44 103//44 107//44 93//44
f 90//45 104//45 106//45 88//45
f 85//46 103//46 105//46 83//46
f 87//47 88//47 106//47 105//47
f 117//48 118//48 124//48 123//48
f 113//49 116//49 122//49 119//49
f 102//50 101//50 118//50 117//50
f 111//51 100//51 114//51 115//51
f 99//52 112//52 116//52 113//52
f 112//53 102//53 117//53 116//53
f 124//54 121//54 132//54 131//54
f 120//55 119//55 125//55 126//55
f 115//56 114//56 120//56 121//56
f 118//57 115//57 121//57 124//57
f 116//58 117//58 123//58 122//58
f 114//59 113//59 119//59 120//59
f 128//60 127//60 135//60 136//60
f 119//61 122//61 128//61 125//61
f 121//62 120//62 126//62 127//62
f 122//63 121//63 127//63 128//63
f 131//64 132//64 144//64 143//64
f 122//65 123//65 130//65 129//65
f 123//66 124//66 131//66 130//66
f 121//67 122//67 129//67 132//67
f 136//68 135//68 139//68 140//68
f 127//69 126//69 134//69 135//69
f 125//70 128//70 136//70 133//70
f 126//71 125//71 133//71 134//71
f 138//72 137//72 140//72 139//72
f 135//73 134//73 138//73 139//73
f 133//74 136//74 140//74 137//74
f 134//75 133//75 137//75 138//75
f 144//76 141//76 142//76 143//76
f 129//77 130//77 142//77 141//77
f 132//78 129//78 141//78 144//78
f 130//79 131//79 143//79 142//79
f 145//80 146//80 148//80 147//80
f 152//81 151//81 155//81 156//81
f 151//82 152//82 150//82 149//82
f 167//83 168//83 146//83 145//83
f 165//84 151//84 149//84 167//84
f 166//85 148//85 146//85 168//85
f 156//86 155//86 159//86 160//86
f 165//87 147//87 154//87 169//87
f 166//88 152//88 156//88 170//88
f 147//89 148//89 153//89 154//89
f 172//90 160//90 164//90 174//90
f 169//91 154//91 158//91 171//91
f 170//92 156//92 160//92 172//92
f 154//93 153//93 157//93 158//93
f 163//94 173//94 177//94 180//94
f 158//95 157//95 161//95 162//95
f 160//96 159//96 163//96 164//96
f 171//97 158//97 162//97 173//97
f 159//98 171//98 173//98 163//98
f 162//99 161//99 175//99 176//99
f 153//100 170//100 172//100 157//100
f 155//101 169//101 171//101 159//101
f 157//102 172//102 174//102 161//102
f 148//103 166//103 170//103 153//103
f 151//104 165//104 169//104 155//104
f 152//105 166//105 168//105 150//105
f 147//106 165//106 167//106 145//106
f 149//107 150//107 168//107 167//107
f 179//108 180//108 186//108 185//108
f 175//109 178//109 184//109 181//109
f 164//110 163//110 180//110 179//110
f 173//111 162//111 176//111 177//111
f 161//112 174//112 178//112 175//112
f 174//113 164//113 179//113 178//113
f 186//114 183//114 194//114 193//114
f 182//115 181//115 187//115 188//115
f 177//116 176//116 182//116 183//116
f 180//117 177//117 183//117 186//117
f 178//118 179//118 185//118 184//118
f 176//119 175//119 181//119 182//119
f 190//120 189//120 197//120 198//120
f 181//121 184//121 190//121 187//121
f 183//122 182//122 188//122 189//122
f 184//123 183//123 189//123 190//123
f 193//124 194//124 206//124 205//124
f 184//125 185//125 192//125 191//125
f 185//126 186//126 193//126 192//126
f 183//127 184//127 191//127 194//127
f 198//128 197//128 201//128 202//128
f 189//129 188//129 196//129 197//129
f 187//130 190//130 198//130 195//130
f 188//131 187//131 195//131 196//131
f 200//132 199//132 202//132 201//132
f 197//133 196//133 200//133 201//133
f 195//134 198//134 202//134 199//134
f 196//135 195//135 199//135 200//135
f 206//136 203//136 204//136 205//136
f 191//137 192//137 204//137 203//137
f 194//138 191//138 203//138 206//138
f 192//139 193//139 205//139 204//139
