# Blender v2.91.2 OBJ File: 'camionnete02.blend'
# www.blender.org
mtllib arme_000157.mtl
o Cube.046_Cube.010
v 151.458893 675.313354 -1251.960693
v 164.655853 462.309937 -1307.046875
v 212.718704 731.873657 -1455.988403
v 225.915649 518.870239 -1511.074707
v -59.851761 678.407776 -1314.549561
v -46.654816 465.404297 -1369.635742
v 1.408112 734.968018 -1518.577148
v 14.605026 521.964600 -1573.663452
v 67.116211 597.441040 -971.055176
v 80.313171 384.437622 -1026.141357
v -130.997406 387.531982 -1088.729980
v -144.194351 600.535400 -1033.643799
v 28.945686 562.198608 -843.926819
v 42.142601 349.195251 -899.013000
v -169.168015 352.289612 -961.601685
v -182.364975 565.293091 -906.515564
v 6.396179 541.379089 -768.825195
v 19.925285 389.914246 -821.396301
v -191.385422 393.008606 -883.985046
v -204.914474 544.473450 -831.413879
v 15.789505 774.543640 -789.010986
v -195.521103 777.638000 -851.599731
v -6.759964 753.723999 -713.909302
v -218.070572 756.818420 -776.497986
v 80.275253 609.590515 -1014.881592
v 93.472191 396.587097 -1069.967773
v -131.035370 612.684937 -1077.470215
v -117.838425 399.681519 -1132.556396
v 62.759819 667.755066 -952.870850
v -148.550797 670.849487 -1015.459534
v 75.918846 679.904541 -996.697144
v -135.391754 682.998901 -1059.285889
v 56.439392 769.769226 -926.488342
v -154.871201 772.863586 -989.076904
v 69.598366 781.918701 -970.314697
v -141.712204 785.013062 -1032.903320
v 25.451965 633.309265 -828.615845
v -185.858658 636.403564 -891.204529
v 19.131516 735.323425 -802.233276
v -192.179092 738.417847 -864.821960
v 21.836609 919.879944 -802.241577
v -189.474014 922.974304 -864.830261
v -0.712883 899.060303 -727.139893
v -212.023453 902.154663 -789.728577
v 191.092056 711.906128 -1383.960327
v 204.289032 498.902710 -1439.046631
v -20.218536 715.000488 -1446.549072
v -7.021545 501.997009 -1501.635254
v 107.063393 733.420898 -1487.282715
v 120.260330 520.417419 -1542.369019
v 45.803574 676.860596 -1283.255127
v 59.000542 463.857117 -1338.341309
v -38.539062 598.988220 -1002.349487
v -25.342117 385.984802 -1057.435547
v -76.709641 563.745850 -875.221191
v -58.527878 357.247498 -915.119507
v -99.259109 542.926270 -800.119568
v -73.509094 384.704468 -862.782410
v -89.865814 776.090820 -820.305298
v -112.415283 755.271179 -745.203735
v -12.183121 398.134277 -1101.261963
v -25.380051 611.137695 -1046.176025
v -42.895493 669.302246 -984.165161
v -29.736481 681.451721 -1027.991455
v -49.215897 771.316406 -957.782532
v -36.056915 783.465942 -1001.609009
v -80.203369 634.856445 -859.910156
v -86.523773 736.870605 -833.527527
v -83.818710 921.427185 -833.535889
v -106.368179 900.607422 -758.434326
v 98.633713 500.449829 -1470.340942
v 85.436783 713.453369 -1415.254639
v 159.891083 732.647217 -1471.635498
v 111.828194 463.083557 -1322.694092
v 27.485519 385.211182 -1041.788452
v -22.906052 356.725830 -904.568604
v -37.887238 384.182800 -852.231445
v 27.447617 610.364075 -1030.528687
v 23.091179 680.678101 -1012.344299
v 16.770737 782.692261 -985.961792
v 138.264404 712.679688 -1399.607544
v 173.088013 519.643860 -1526.721802
v 98.631195 676.086975 -1267.608154
v 14.288567 598.214600 -986.702393
v -23.881989 562.972290 -859.574036
v -46.431473 542.152649 -784.472351
v -37.038147 775.317200 -804.658203
v -59.587601 754.497620 -729.556519
v 40.644531 397.360718 -1085.614990
v 9.932159 668.528687 -968.517944
v 3.611740 770.542847 -942.135376
v -27.375702 634.082825 -844.263000
v -33.696121 736.096985 -817.880371
v -30.991013 920.653564 -817.888672
v -53.540512 899.833862 -742.787109
v 151.461304 499.676331 -1454.693848
v 43.115486 357.478699 -1095.929077
v -9.712166 358.252319 -1111.576172
v 153.932236 459.794312 -1465.007935
v 101.104675 460.567871 -1480.655029
v 61.471466 423.975098 -1348.655518
v 114.299149 423.201538 -1333.008301
v 272.797668 640.988037 -1336.124390
v 255.272232 624.807068 -1277.755493
v 261.107971 530.619141 -1302.113892
v 278.633209 546.800110 -1360.482910
v 318.460815 640.319397 -1322.599365
v 300.935364 624.138428 -1264.230469
v 306.771027 529.950500 -1288.588867
v 324.296356 546.131470 -1346.957886
v 388.339844 639.296143 -1301.901733
v 370.814453 623.115173 -1243.532715
v 376.650024 528.927246 -1267.891357
v 394.175354 545.108276 -1326.260254
v 433.306213 638.637695 -1288.583008
v 415.780823 622.456726 -1230.214111
v 421.616516 528.268799 -1254.572754
v 439.141785 544.449768 -1312.941650
v 374.338562 705.455444 -2196.991211
v 321.510925 706.229065 -2212.638184
v 308.313812 919.232483 -2157.552246
v 361.141541 918.458862 -2141.904785
v -65.159897 991.213318 -835.817688
v -162.515579 992.638916 -864.653748
v -85.938004 972.029114 -766.615417
v -183.293625 973.454712 -795.451477
v 11.417633 970.603516 -737.779480
v 32.195816 989.787720 -806.981445
v -16.482025 990.500671 -821.399475
v -37.260193 971.316284 -752.197510
vn 0.9587 -0.0140 0.2840
vn 0.2779 0.2566 -0.9257
vn -0.9587 0.0140 -0.2840
vn -0.0599 0.9664 0.2499
vn 0.0599 -0.9664 -0.2499
vn -0.2779 -0.2566 0.9257
vn -0.1399 -0.8927 0.4283
vn -0.0248 -0.9699 -0.2421
vn -0.3474 -0.3613 0.8653
vn -0.9591 0.0132 -0.2829
vn 0.9591 -0.0132 0.2829
vn 0.2813 -0.0986 -0.9545
vn 0.2810 -0.1063 -0.9538
vn -0.2813 0.0986 0.9545
vn 0.6328 0.2304 -0.7393
vn -0.9177 0.3556 -0.1770
vn -0.2281 -0.3648 0.9027
vn 0.0900 -0.9741 -0.2075
vn -0.2765 0.1871 0.9426
vn -0.2665 -0.3921 0.8805
vn 0.0415 -0.9812 -0.1885
vn 0.1218 -0.2414 0.9627
vn 0.5789 -0.8137 -0.0518
vn 0.4791 0.7982 0.3651
vn 0.9593 -0.1250 0.2534
usemtl Matériau.011
s off
f 45//1 46//1 4//1 3//1
f 49//2 50//2 8//2 7//2
f 47//3 48//3 6//3 5//3
f 26//1 25//1 9//1 10//1
f 72//4 47//4 5//4 51//4
f 96//5 46//5 2//5 74//5
f 10//1 9//1 13//1 14//1
f 84//6 9//6 29//6 90//6
f 89//5 26//5 10//5 75//5
f 27//3 28//3 11//3 12//3
f 76//7 14//7 18//7 77//7
f 75//8 10//8 14//8 76//8
f 12//3 11//3 15//3 16//3
f 53//4 12//4 16//4 55//4
f 86//9 77//9 18//9 17//9
f 16//10 15//10 19//10 20//10
f 16//3 20//3 24//3 22//3
f 14//11 13//11 17//11 18//11
f 59//12 22//12 42//12 69//12
f 86//6 17//6 23//6 88//6
f 17//1 13//1 21//1 23//1
f 55//2 16//2 22//2 59//2
f 5//3 6//3 28//3 27//3
f 74//5 2//5 26//5 89//5
f 51//4 5//4 27//4 62//4
f 2//1 1//1 25//1 26//1
f 32//3 30//3 34//3 36//3
f 62//2 27//2 32//2 64//2
f 27//3 12//3 30//3 32//3
f 9//1 25//1 31//1 29//1
f 66//4 36//4 34//4 65//4
f 90//5 29//5 37//5 92//5
f 64//2 32//2 36//2 66//2
f 29//1 31//1 35//1 33//1
f 92//6 37//6 39//6 93//6
f 29//1 33//1 39//1 37//1
f 34//3 30//3 38//3 40//3
f 65//4 34//4 40//4 68//4
f 69//13 42//13 124//13 123//13
f 23//1 21//1 41//1 43//1
f 88//14 23//14 43//14 95//14
f 22//3 24//3 44//3 42//3
f 82//5 4//5 46//5 96//5
f 49//4 7//4 47//4 72//4
f 7//3 8//3 48//3 47//3
f 46//15 45//15 103//15 106//15
f 73//4 49//4 72//4 81//4
f 8//5 50//5 71//5 48//5
f 24//14 60//14 70//14 44//14
f 42//16 44//16 126//16 124//16
f 91//4 65//4 68//4 93//4
f 38//6 67//6 68//6 40//6
f 79//2 64//2 66//2 80//2
f 30//5 63//5 67//5 38//5
f 80//4 66//4 65//4 91//4
f 78//2 62//2 64//2 79//2
f 83//4 51//4 62//4 78//4
f 6//5 52//5 61//5 28//5
f 85//2 55//2 59//2 87//2
f 20//6 57//6 60//6 24//6
f 87//12 59//12 69//12 94//12
f 20//17 19//17 58//17 57//17
f 84//4 53//4 55//4 85//4
f 11//18 54//18 56//18 15//18
f 15//7 56//7 58//7 19//7
f 28//5 61//5 54//5 11//5
f 12//6 53//6 63//6 30//6
f 48//5 71//5 52//5 6//5
f 81//4 72//4 51//4 83//4
f 50//3 49//3 121//3 120//3
f 3//2 4//2 82//2 73//2
f 45//4 81//4 83//4 1//4
f 9//4 84//4 85//4 13//4
f 21//12 87//12 94//12 41//12
f 13//2 85//2 87//2 21//2
f 1//4 83//4 78//4 25//4
f 25//2 78//2 79//2 31//2
f 35//4 80//4 91//4 33//4
f 31//2 79//2 80//2 35//2
f 33//4 91//4 93//4 39//4
f 70//19 95//19 130//19 125//19
f 3//4 73//4 81//4 45//4
f 50//5 82//5 96//5 71//5
f 60//14 88//14 95//14 70//14
f 67//6 92//6 93//6 68//6
f 63//5 90//5 92//5 67//5
f 52//3 71//3 100//3 101//3
f 57//6 86//6 88//6 60//6
f 57//20 58//20 77//20 86//20
f 54//21 75//21 76//21 56//21
f 56//7 76//7 77//7 58//7
f 61//5 89//5 75//5 54//5
f 53//6 84//6 90//6 63//6
f 89//6 61//6 98//6 97//6
f 101//5 102//5 97//5 98//5
f 100//5 99//5 102//5 101//5
f 61//3 52//3 101//3 98//3
f 74//1 89//1 97//1 102//1
f 71//2 96//2 99//2 100//2
f 96//1 74//1 102//1 99//1
f 106//2 103//2 107//2 110//2
f 1//22 2//22 105//22 104//22
f 2//23 46//23 106//23 105//23
f 45//24 1//24 104//24 103//24
f 109//5 110//5 114//5 113//5
f 104//6 105//6 109//6 108//6
f 105//5 106//5 110//5 109//5
f 103//4 104//4 108//4 107//4
f 113//5 114//5 118//5 117//5
f 107//4 108//4 112//4 111//4
f 110//2 107//2 111//2 114//2
f 108//6 109//6 113//6 112//6
f 116//1 117//1 118//1 115//1
f 111//4 112//4 116//4 115//4
f 114//2 111//2 115//2 118//2
f 122//2 119//2 120//2 121//2
f 82//5 50//5 120//5 119//5
f 73//1 82//1 119//1 122//1
f 49//4 73//4 122//4 121//4
f 123//4 124//4 126//4 125//4
f 129//4 123//4 125//4 130//4
f 128//4 129//4 130//4 127//4
f 95//19 43//19 127//19 130//19
f 94//13 69//13 123//13 129//13
f 43//25 41//25 128//25 127//25
f 44//19 70//19 125//19 126//19
f 41//13 94//13 129//13 128//13
o Cube.048_Cube.024
v -516.812866 519.700928 157.859436
v -665.320557 363.363922 48.764328
v -386.943024 537.972656 -45.112320
v -534.491638 380.125916 -155.534698
v -660.913147 669.427429 9.039391
v -737.057190 589.269043 -46.896706
v -594.325317 678.795898 -95.029915
v -670.010376 598.236694 -150.399292
v -370.992493 539.827637 -502.943268
v -273.930634 598.317017 -446.546234
v -343.631958 703.407593 -435.576599
v -440.693787 644.918152 -491.973541
v -296.370544 628.594604 -685.819031
v -225.008545 671.597290 -644.354614
v -276.254547 748.862183 -636.289429
v -347.616608 705.859558 -677.753845
v -249.221344 686.790649 -799.203613
v -197.070953 718.216553 -768.901917
v -234.520844 774.680725 -763.007996
v -286.671265 743.254883 -793.309631
v -461.905945 632.955933 -62.699112
v -618.442444 465.794006 -177.916748
v -599.889343 613.685486 152.758789
v -757.548462 447.714478 36.940933
v -303.944550 654.409424 -444.310760
v -406.987671 592.315796 -504.183136
v -242.211304 717.435364 -655.850647
v -317.970947 671.782715 -699.870117
v -205.229095 755.886108 -789.225342
v -260.593109 722.523682 -821.394287
v -216.245087 713.180725 -883.326416
v -164.094604 744.606445 -853.024719
v -172.182007 790.110107 -881.594543
v -227.546143 756.747681 -913.763428
v -253.635132 776.274658 -884.411194
v -201.484680 807.700439 -854.109619
v -193.280304 733.257874 -943.671692
v -141.129944 764.683716 -913.370117
v -149.217346 810.187256 -941.939880
v -204.581451 776.824829 -974.108704
v -230.670319 796.351746 -944.756531
v -178.519958 827.777649 -914.454895
v -156.472168 730.801819 -977.275818
v -122.905212 751.029114 -957.772034
v -128.110596 780.317749 -976.161194
v -163.745972 758.843872 -996.866882
v -210.768555 820.250977 -1008.497864
v -236.857483 839.777954 -979.145691
v -184.707031 871.203674 -948.843933
v -155.404358 853.613281 -976.328918
v -131.889160 727.759583 -1000.422424
v -109.259277 741.396240 -987.273499
v -112.768616 761.141907 -999.670959
v -136.793091 746.664673 -1013.630066
v -112.882874 735.031494 -1028.269531
v -98.736633 743.556030 -1020.049988
v -100.930420 755.899231 -1027.799805
v -115.948303 746.849365 -1036.525879
v -209.466248 852.347168 -1016.875061
v -226.813171 865.330811 -997.358337
v -192.137756 886.226257 -977.210388
v -172.654053 874.530273 -995.485535
v -208.236206 507.994934 350.577179
v -344.540771 308.917908 364.250183
v -106.073303 425.889496 146.277863
v -243.107056 225.534485 161.380859
v -388.574341 547.865479 173.888748
v -458.461548 445.793121 180.899292
v -327.867432 505.168091 66.196869
v -406.453674 403.040100 76.882492
v -215.932007 73.445312 -65.865700
v -122.812134 64.799561 17.412468
v -38.505554 65.839966 -74.411232
v -128.916077 73.322815 -157.794250
v -206.910034 -142.441589 -80.112892
v -139.618103 -151.057800 -16.405540
v -75.641968 -151.147827 -83.993385
v -142.933960 -142.531616 -147.700836
v -198.388550 -277.764282 -89.115730
v -149.212524 -284.060730 -42.559204
v -102.459656 -284.126648 -91.951485
v -151.635742 -277.830017 -138.508026
v -183.234680 489.351562 93.816826
v -340.936493 280.081360 111.922501
v -303.916748 579.947998 312.777740
v -448.620911 368.603149 327.293335
v -78.458008 55.731140 -22.861977
v -175.624146 68.172424 -114.852028
v -106.837341 -170.148193 -49.423737
v -178.275940 -161.000916 -117.056938
v -126.165283 -311.334229 -67.530678
v -178.371765 -304.649658 -116.956123
v -207.208282 -371.420532 -92.466301
v -158.032166 -377.716919 -45.909874
v -131.698242 -414.767700 -75.675316
v -183.904663 -408.083130 -125.100700
v -157.674011 -379.760742 -145.915680
v -108.497864 -386.057251 -99.359200
v -212.627991 -438.734863 -95.845528
v -163.451965 -445.031494 -49.288994
v -137.118103 -482.082520 -79.054466
v -189.324585 -475.397827 -128.479797
v -163.093750 -447.075439 -149.294891
v -113.917664 -453.371582 -102.738426
v -224.008667 -480.973633 -71.835518
v -192.356323 -485.026489 -41.869148
v -175.406433 -508.874512 -61.027855
v -209.009277 -504.571777 -92.840767
v -167.108276 -517.393677 -157.625977
v -140.877380 -489.071045 -178.441132
v -91.701416 -495.367798 -131.884460
v -114.901855 -524.078247 -108.200523
v -233.159424 -509.282227 -55.580605
v -211.820312 -512.014404 -35.378105
v -200.393127 -528.092529 -48.294319
v -223.047302 -525.191650 -69.741859
v -236.130676 -542.994507 -48.927376
v -222.791199 -544.702515 -36.298576
v -215.647919 -554.752563 -44.372810
v -229.809387 -552.939209 -57.779686
v -142.250671 -536.362427 -168.776306
v -124.809509 -517.530396 -182.616486
v -92.111755 -521.717041 -151.660431
v -107.537903 -540.807129 -135.912659
vn 0.5777 -0.7572 0.3047
vn -0.4962 0.8275 -0.2627
vn -0.5777 0.7571 -0.3051
vn -0.3649 -0.2743 0.8897
vn 0.2612 0.9321 0.2508
vn -0.5815 -0.6895 -0.4318
vn -0.5234 0.8519 0.0172
vn 0.7617 0.5620 0.3223
vn -0.7817 -0.2363 -0.5772
vn 0.6548 -0.7556 0.0198
vn -0.7900 -0.3298 -0.5169
vn 0.8320 0.4185 0.3643
vn -0.7790 -0.3684 -0.5074
vn 0.5746 -0.8035 -0.1556
vn 0.7312 0.5119 0.4510
vn 0.5788 -0.7978 -0.1688
vn -0.5177 0.8555 0.0038
vn 0.8541 0.3904 0.3437
vn 0.7259 0.5837 0.3639
vn 0.5379 -0.8414 -0.0531
vn -0.6918 -0.4998 -0.5212
vn 0.7448 0.5499 0.3780
vn -0.6618 -0.5231 -0.5371
vn -0.5703 -0.5924 -0.5691
vn 0.4292 0.8529 0.2973
vn -0.8137 -0.2042 -0.5443
vn 0.6489 0.5990 0.4691
vn -0.7775 0.4000 0.4853
vn -0.5447 0.8357 0.0707
vn -0.7376 -0.5047 -0.4486
vn -0.5549 0.8261 0.0982
vn 0.7965 0.4144 0.4403
vn -0.7346 -0.5083 -0.4494
vn -0.7995 -0.4105 -0.4384
vn 0.7357 0.4818 0.4760
vn 0.2982 -0.8711 0.3903
vn 0.7940 0.4182 0.4413
vn 0.7303 0.5147 0.4492
vn -0.8002 -0.4075 -0.4401
vn 0.5447 -0.8357 -0.0708
vn -0.0700 0.7502 -0.6575
vn -0.5774 -0.5629 -0.5913
vn 0.9046 0.3301 0.2698
vn -0.0517 0.7363 -0.6746
vn 0.6449 0.7323 0.2189
vn -0.7961 -0.4413 -0.4140
vn -0.6322 0.4236 0.6487
vn 0.6322 -0.4236 -0.6487
vn -0.3507 0.8829 -0.3122
vn 0.8896 0.3456 0.2986
vn -0.6055 -0.5553 -0.5701
vn 0.2818 -0.8660 0.4131
vn 0.6166 -0.3371 -0.7115
vn 0.8849 0.3501 0.3072
vn -0.6139 -0.5529 -0.5634
vn 0.4731 -0.8759 0.0942
vn -0.1110 0.7791 -0.6170
vn -0.7819 -0.1275 -0.6102
vn 0.5878 -0.2266 -0.7766
vn -0.6405 0.5965 0.4837
vn 0.7128 -0.4489 0.5389
vn 0.0960 0.4928 -0.8648
vn -0.6951 0.4573 -0.5547
vn -0.2160 0.2133 0.9528
vn 0.1513 0.9418 -0.3003
vn -0.5192 -0.8499 0.0897
vn 0.6754 -0.0807 -0.7330
vn 0.9559 0.1781 -0.2337
vn -0.8474 -0.3613 -0.3891
vn 0.2225 -0.5528 0.8031
vn -0.6413 -0.0053 -0.7673
vn 0.6462 -0.1679 0.7445
vn -0.6695 0.0119 -0.7427
vn -0.6780 -0.0692 0.7318
vn 0.7640 -0.0914 0.6387
vn -0.6908 -0.0912 0.7173
vn 0.6782 -0.0931 -0.7290
vn 0.6281 -0.1881 0.7551
vn 0.7881 -0.1884 0.5860
vn -0.6844 0.0384 0.7281
vn -0.7783 0.0121 -0.6278
vn 0.7870 -0.1649 0.5945
vn -0.8013 -0.0051 -0.5982
vn -0.7813 -0.6049 0.1537
vn 0.6046 0.4638 -0.6475
vn -0.8366 -0.5058 -0.2104
vn 0.6158 0.7879 0.0028
vn -0.7650 0.5471 0.3399
vn 0.6861 -0.0187 -0.7273
vn -0.7576 0.0934 -0.6460
vn 0.6883 0.0119 -0.7254
vn 0.6832 -0.0920 0.7244
vn -0.7607 0.0929 -0.6425
vn -0.6794 0.0934 -0.7278
vn 0.7492 -0.0614 0.6595
vn -0.5514 0.5196 0.6527
vn 0.6866 -0.0915 0.7213
vn 0.7656 -0.0936 0.6365
vn -0.6776 0.0912 -0.7298
vn -0.6861 0.0187 0.7273
vn 0.3614 -0.7939 -0.4891
vn -0.8476 -0.0706 -0.5259
vn 0.5499 -0.2495 0.7971
vn 0.3444 -0.8107 -0.4734
vn 0.8429 -0.3313 0.4240
vn -0.6953 0.1236 -0.7080
vn 0.5642 0.6510 -0.5079
vn -0.5642 -0.6510 0.5079
vn 0.5883 -0.4368 -0.6805
vn 0.5740 -0.2246 0.7874
vn -0.8358 -0.0441 -0.5473
vn -0.5393 0.5436 0.6431
vn -0.5179 -0.7284 0.4485
vn 0.5811 -0.2171 0.7843
vn -0.8319 -0.0359 -0.5537
vn -0.6598 0.2010 0.7241
vn 0.3986 -0.7535 -0.5229
vn -0.5026 -0.1591 -0.8498
vn -0.4534 -0.8112 0.3692
vn 0.6427 0.4535 -0.6175
usemtl Matériau.012
s off
f 131//26 132//26 134//26 133//26
f 138//27 137//27 141//27 142//27
f 137//28 138//28 136//28 135//28
f 153//29 154//29 132//29 131//29
f 151//30 137//30 135//30 153//30
f 152//31 134//31 132//31 154//31
f 142//32 141//32 145//32 146//32
f 151//33 133//33 140//33 155//33
f 152//34 138//34 142//34 156//34
f 133//35 134//35 139//35 140//35
f 158//36 146//36 150//36 160//36
f 155//37 140//37 144//37 157//37
f 156//38 142//38 146//38 158//38
f 140//39 139//39 143//39 144//39
f 149//40 159//40 163//40 166//40
f 144//41 143//41 147//41 148//41
f 146//42 145//42 149//42 150//42
f 157//43 144//43 148//43 159//43
f 145//44 157//44 159//44 149//44
f 148//45 147//45 161//45 162//45
f 139//46 156//46 158//46 143//46
f 141//47 155//47 157//47 145//47
f 143//48 158//48 160//48 147//48
f 134//49 152//49 156//49 139//49
f 137//50 151//50 155//50 141//50
f 138//51 152//51 154//51 136//51
f 133//52 151//52 153//52 131//52
f 135//53 136//53 154//53 153//53
f 165//54 166//54 172//54 171//54
f 161//55 164//55 170//55 167//55
f 150//56 149//56 166//56 165//56
f 159//57 148//57 162//57 163//57
f 147//58 160//58 164//58 161//58
f 160//59 150//59 165//59 164//59
f 172//60 169//60 180//60 179//60
f 168//61 167//61 173//61 174//61
f 163//62 162//62 168//62 169//62
f 166//63 163//63 169//63 172//63
f 164//64 165//64 171//64 170//64
f 162//65 161//65 167//65 168//65
f 176//66 175//66 183//66 184//66
f 167//67 170//67 176//67 173//67
f 169//68 168//68 174//68 175//68
f 170//69 169//69 175//69 176//69
f 179//70 180//70 192//70 191//70
f 170//71 171//71 178//71 177//71
f 171//72 172//72 179//72 178//72
f 169//73 170//73 177//73 180//73
f 184//74 183//74 187//74 188//74
f 175//75 174//75 182//75 183//75
f 173//76 176//76 184//76 181//76
f 174//77 173//77 181//77 182//77
f 186//78 185//78 188//78 187//78
f 183//79 182//79 186//79 187//79
f 181//80 184//80 188//80 185//80
f 182//81 181//81 185//81 186//81
f 192//82 189//82 190//82 191//82
f 177//83 178//83 190//83 189//83
f 180//84 177//84 189//84 192//84
f 178//85 179//85 191//85 190//85
f 193//86 194//86 196//86 195//86
f 200//87 199//87 203//87 204//87
f 199//88 200//88 198//88 197//88
f 215//89 216//89 194//89 193//89
f 213//90 199//90 197//90 215//90
f 214//91 196//91 194//91 216//91
f 204//92 203//92 207//92 208//92
f 213//93 195//93 202//93 217//93
f 214//94 200//94 204//94 218//94
f 195//95 196//95 201//95 202//95
f 220//96 208//96 212//96 222//96
f 217//97 202//97 206//97 219//97
f 218//98 204//98 208//98 220//98
f 202//99 201//99 205//99 206//99
f 211//100 221//100 225//100 228//100
f 206//101 205//101 209//101 210//101
f 208//102 207//102 211//102 212//102
f 219//103 206//103 210//103 221//103
f 207//104 219//104 221//104 211//104
f 210//105 209//105 223//105 224//105
f 201//106 218//106 220//106 205//106
f 203//107 217//107 219//107 207//107
f 205//108 220//108 222//108 209//108
f 196//109 214//109 218//109 201//109
f 199//110 213//110 217//110 203//110
f 200//111 214//111 216//111 198//111
f 195//112 213//112 215//112 193//112
f 197//113 198//113 216//113 215//113
f 227//114 228//114 234//114 233//114
f 223//115 226//115 232//115 229//115
f 212//116 211//116 228//116 227//116
f 221//117 210//117 224//117 225//117
f 209//118 222//118 226//118 223//118
f 222//119 212//119 227//119 226//119
f 234//120 231//120 242//120 241//120
f 230//121 229//121 235//121 236//121
f 225//122 224//122 230//122 231//122
f 228//123 225//123 231//123 234//123
f 226//124 227//124 233//124 232//124
f 224//125 223//125 229//125 230//125
f 238//126 237//126 245//126 246//126
f 229//127 232//127 238//127 235//127
f 231//128 230//128 236//128 237//128
f 232//129 231//129 237//129 238//129
f 241//130 242//130 254//130 253//130
f 232//131 233//131 240//131 239//131
f 233//132 234//132 241//132 240//132
f 231//133 232//133 239//133 242//133
f 246//134 245//134 249//134 250//134
f 237//135 236//135 244//135 245//135
f 235//136 238//136 246//136 243//136
f 236//137 235//137 243//137 244//137
f 248//138 247//138 250//138 249//138
f 245//139 244//139 248//139 249//139
f 243//140 246//140 250//140 247//140
f 244//141 243//141 247//141 248//141
f 254//142 251//142 252//142 253//142
f 239//143 240//143 252//143 251//143
f 242//144 239//144 251//144 254//144
f 240//145 241//145 253//145 252//145
