# Blender v2.91.2 OBJ File: 'camionnete02.blend'
# www.blender.org
mtllib arme_000239.mtl
o Cube.046_Cube.010
v 638.001953 375.313965 -566.702515
v 620.841064 235.465179 -736.192749
v 850.140015 409.093445 -616.053528
v 832.979126 269.244720 -785.543762
v 580.712646 542.288147 -698.674683
v 563.551636 402.439331 -868.164917
v 792.850464 576.067566 -748.025696
v 775.689697 436.218872 -917.515991
v 345.930023 328.806213 -498.756042
v 328.769135 188.957397 -668.246216
v 271.479584 355.931458 -800.218384
v 288.640594 495.780273 -630.728149
v 213.748260 307.758301 -468.005707
v 196.587372 167.909607 -637.495972
v 139.297821 334.883667 -769.468140
v 156.458801 474.732483 -599.977905
v 135.661224 295.324280 -449.839844
v 136.269531 195.546448 -576.063354
v 78.980011 362.520569 -708.035522
v 78.371674 462.298401 -581.811951
v 230.856049 447.174805 -299.039429
v 173.566620 614.148926 -431.011627
v 152.769073 434.740662 -280.873535
v 95.479584 601.714783 -412.845673
v 391.498627 336.062256 -509.356903
v 374.337677 196.213470 -678.847168
v 334.209137 503.036377 -641.329102
v 317.048248 363.187622 -810.819336
v 351.595001 374.971313 -442.806000
v 294.305573 541.945496 -574.778198
v 397.163544 382.227356 -453.406891
v 339.874054 549.201416 -585.379028
v 359.813934 441.949402 -361.631714
v 302.524384 608.923462 -493.603790
v 405.382477 449.205444 -372.232635
v 348.093048 616.179504 -504.204742
v 222.400726 354.399231 -412.750702
v 165.111237 521.373352 -544.722900
v 230.619598 421.377258 -331.576355
v 173.330170 588.351379 -463.548553
v 290.808563 541.816467 -205.322113
v 233.519196 708.790588 -337.294373
v 212.721588 529.382385 -187.156311
v 155.432098 696.356384 -319.128448
v 775.248779 397.168274 -598.631104
v 758.087891 257.319580 -768.121338
v 717.959351 564.142395 -730.603271
v 700.798218 424.293579 -900.093445
v 821.495239 492.580566 -682.039673
v 804.334351 352.731812 -851.529907
v 609.357300 458.801025 -632.688599
v 592.196289 318.952209 -802.178833
v 317.285309 412.293152 -564.742065
v 300.124298 272.444458 -734.232300
v 185.103485 391.245422 -533.991760
v 160.452301 249.099426 -688.104980
v 107.016449 378.811340 -515.825928
v 119.779877 267.735046 -646.680847
v 202.211334 530.661926 -365.025482
v 124.124359 518.227722 -346.859650
v 345.692963 279.700562 -744.833252
v 362.853851 419.549316 -575.343018
v 322.950226 458.458435 -508.792084
v 368.518829 465.714355 -519.393005
v 331.169098 525.436462 -427.617706
v 376.737762 532.692505 -438.218658
v 193.756012 437.886292 -478.736786
v 201.974884 504.864319 -397.562439
v 262.163910 625.303528 -271.308258
v 184.076813 612.869385 -253.142426
v 729.443115 340.806580 -834.107422
v 746.603882 480.655334 -664.617126
v 835.817505 450.836975 -649.046448
v 606.518677 277.208710 -769.185791
v 314.446747 230.700958 -701.239258
v 170.109955 220.951660 -665.857727
v 129.437469 239.587250 -624.433533
v 377.176239 377.805725 -542.349915
v 382.841217 423.970886 -486.399994
v 391.060150 490.948975 -405.225647
v 760.926392 438.911804 -631.624146
v 818.656860 310.988281 -818.536865
v 623.679688 417.057556 -599.695618
v 331.607635 370.549744 -531.749146
v 199.425873 349.501892 -500.998718
v 121.338776 337.067749 -482.832886
v 216.533783 488.918335 -332.032440
v 138.446716 476.484192 -313.866577
v 360.015350 237.957001 -711.840210
v 337.272614 416.714844 -475.799042
v 345.491547 483.692932 -394.624695
v 208.078339 396.142761 -445.743744
v 216.297211 463.120789 -364.569366
v 276.486237 583.559937 -238.315186
v 198.399200 571.125793 -220.149384
v 743.765625 299.063141 -801.114441
v 356.802155 211.772217 -743.574951
v 342.479828 253.515717 -776.567993
v 740.552368 272.878357 -832.849243
v 726.229980 314.621765 -865.842285
v 588.983154 292.767456 -833.913635
v 603.305664 251.023956 -800.920532
v 756.334229 281.679871 -581.364380
v 695.645142 272.016113 -567.245972
v 688.056763 210.176300 -642.192688
v 748.745972 219.840240 -656.311279
v 768.714355 245.597717 -552.846008
v 708.025269 235.933899 -538.727417
v 700.436768 174.094208 -613.674255
v 761.125977 183.757996 -627.792786
v 787.659790 190.380432 -509.203583
v 726.970581 180.716644 -495.085083
v 719.382202 118.876953 -570.031860
v 780.071411 128.540833 -584.150513
v 799.850952 154.848877 -481.120300
v 739.161621 145.184998 -467.001831
v 731.573364 83.345306 -541.948547
v 792.262451 93.009155 -556.067139
v 1515.570435 421.960388 -980.663696
v 1501.248047 463.703857 -1013.656738
v 1518.408936 603.552795 -844.166504
v 1532.731201 561.809204 -811.173462
v 295.771210 658.569336 -216.651062
v 269.376617 735.498108 -277.453705
v 223.818085 647.111877 -199.912170
v 197.423553 724.040649 -260.714783
v 250.212799 570.183167 -139.109589
v 322.165741 581.640442 -155.848297
v 308.968414 620.104919 -186.249512
v 237.015472 608.647522 -169.510925
vn 0.2599 -0.7576 0.5988
vn 0.9625 0.1533 -0.2239
vn -0.2599 0.7576 -0.5988
vn 0.0779 0.6345 0.7690
vn -0.0779 -0.6345 -0.7690
vn -0.9625 -0.1533 0.2239
vn -0.6977 -0.5760 -0.4259
vn -0.1286 -0.5773 -0.8064
vn -0.9832 -0.1606 0.0863
vn -0.2612 0.7571 -0.5988
vn 0.2612 -0.7571 0.5988
vn 0.8740 -0.0790 -0.4794
vn 0.8708 -0.0840 -0.4843
vn -0.8740 0.0790 0.4794
vn 0.9871 -0.1572 0.0298
vn -0.2155 0.9333 -0.2874
vn -0.9531 -0.2564 0.1608
vn -0.0988 -0.6697 -0.7360
vn 0.8741 -0.0790 -0.4794
vn -0.8339 0.1365 0.5348
vn -0.9637 -0.2424 0.1117
vn -0.1410 -0.6432 -0.7526
vn -0.7825 -0.4390 0.4415
vn 0.0785 -0.9472 -0.3109
vn 0.2084 0.1112 0.9717
vn 0.2493 -0.8254 0.5065
usemtl Matériau.011
s off
f 45//1 46//1 4//1 3//1
f 49//2 50//2 8//2 7//2
f 47//3 48//3 6//3 5//3
f 26//1 25//1 9//1 10//1
f 72//4 47//4 5//4 51//4
f 96//5 46//5 2//5 74//5
f 10//1 9//1 13//1 14//1
f 84//6 9//6 29//6 90//6
f 89//5 26//5 10//5 75//5
f 27//3 28//3 11//3 12//3
f 76//7 14//7 18//7 77//7
f 75//8 10//8 14//8 76//8
f 12//3 11//3 15//3 16//3
f 53//4 12//4 16//4 55//4
f 86//9 77//9 18//9 17//9
f 16//10 15//10 19//10 20//10
f 16//3 20//3 24//3 22//3
f 14//11 13//11 17//11 18//11
f 59//12 22//12 42//12 69//12
f 86//6 17//6 23//6 88//6
f 17//1 13//1 21//1 23//1
f 55//2 16//2 22//2 59//2
f 5//3 6//3 28//3 27//3
f 74//5 2//5 26//5 89//5
f 51//4 5//4 27//4 62//4
f 2//1 1//1 25//1 26//1
f 32//3 30//3 34//3 36//3
f 62//2 27//2 32//2 64//2
f 27//3 12//3 30//3 32//3
f 9//1 25//1 31//1 29//1
f 66//4 36//4 34//4 65//4
f 90//5 29//5 37//5 92//5
f 64//2 32//2 36//2 66//2
f 29//1 31//1 35//1 33//1
f 92//6 37//6 39//6 93//6
f 29//1 33//1 39//1 37//1
f 34//3 30//3 38//3 40//3
f 65//4 34//4 40//4 68//4
f 69//13 42//13 124//13 123//13
f 23//1 21//1 41//1 43//1
f 88//14 23//14 43//14 95//14
f 22//3 24//3 44//3 42//3
f 82//5 4//5 46//5 96//5
f 49//4 7//4 47//4 72//4
f 7//3 8//3 48//3 47//3
f 46//15 45//15 103//15 106//15
f 73//4 49//4 72//4 81//4
f 8//5 50//5 71//5 48//5
f 24//14 60//14 70//14 44//14
f 42//16 44//16 126//16 124//16
f 91//4 65//4 68//4 93//4
f 38//6 67//6 68//6 40//6
f 79//2 64//2 66//2 80//2
f 30//5 63//5 67//5 38//5
f 80//4 66//4 65//4 91//4
f 78//2 62//2 64//2 79//2
f 83//4 51//4 62//4 78//4
f 6//5 52//5 61//5 28//5
f 85//2 55//2 59//2 87//2
f 20//6 57//6 60//6 24//6
f 87//12 59//12 69//12 94//12
f 20//17 19//17 58//17 57//17
f 84//4 53//4 55//4 85//4
f 11//18 54//18 56//18 15//18
f 15//7 56//7 58//7 19//7
f 28//5 61//5 54//5 11//5
f 12//6 53//6 63//6 30//6
f 48//5 71//5 52//5 6//5
f 81//4 72//4 51//4 83//4
f 50//3 49//3 121//3 120//3
f 3//2 4//2 82//2 73//2
f 45//4 81//4 83//4 1//4
f 9//4 84//4 85//4 13//4
f 21//19 87//19 94//19 41//19
f 13//2 85//2 87//2 21//2
f 1//4 83//4 78//4 25//4
f 25//2 78//2 79//2 31//2
f 35//4 80//4 91//4 33//4
f 31//2 79//2 80//2 35//2
f 33//4 91//4 93//4 39//4
f 70//20 95//20 130//20 125//20
f 3//4 73//4 81//4 45//4
f 50//5 82//5 96//5 71//5
f 60//14 88//14 95//14 70//14
f 67//6 92//6 93//6 68//6
f 63//5 90//5 92//5 67//5
f 52//3 71//3 100//3 101//3
f 57//6 86//6 88//6 60//6
f 57//21 58//21 77//21 86//21
f 54//22 75//22 76//22 56//22
f 56//7 76//7 77//7 58//7
f 61//5 89//5 75//5 54//5
f 53//6 84//6 90//6 63//6
f 89//6 61//6 98//6 97//6
f 101//5 102//5 97//5 98//5
f 100//5 99//5 102//5 101//5
f 61//3 52//3 101//3 98//3
f 74//1 89//1 97//1 102//1
f 71//2 96//2 99//2 100//2
f 96//1 74//1 102//1 99//1
f 106//2 103//2 107//2 110//2
f 1//23 2//23 105//23 104//23
f 2//24 46//24 106//24 105//24
f 45//25 1//25 104//25 103//25
f 109//5 110//5 114//5 113//5
f 104//6 105//6 109//6 108//6
f 105//5 106//5 110//5 109//5
f 103//4 104//4 108//4 107//4
f 113//5 114//5 118//5 117//5
f 107//4 108//4 112//4 111//4
f 110//2 107//2 111//2 114//2
f 108//6 109//6 113//6 112//6
f 116//1 117//1 118//1 115//1
f 111//4 112//4 116//4 115//4
f 114//2 111//2 115//2 118//2
f 122//2 119//2 120//2 121//2
f 82//5 50//5 120//5 119//5
f 73//1 82//1 119//1 122//1
f 49//4 73//4 122//4 121//4
f 123//4 124//4 126//4 125//4
f 129//4 123//4 125//4 130//4
f 128//4 129//4 130//4 127//4
f 95//20 43//20 127//20 130//20
f 94//13 69//13 123//13 129//13
f 43//26 41//26 128//26 127//26
f 44//20 70//20 125//20 126//20
f 41//13 94//13 129//13 128//13
o Cube.048_Cube.024
v -487.318848 560.078613 143.518112
v -635.422424 377.313721 88.201859
v -378.787109 537.107910 -71.169441
v -532.121887 357.117249 -141.296753
v -654.070557 666.373047 -18.425430
v -730.007324 572.664429 -46.787582
v -598.423218 654.595276 -128.501740
v -674.804688 561.411194 -158.540558
v -270.166046 513.901978 -475.252289
v -246.818817 471.449707 -358.310760
v -257.779449 589.268188 -313.351776
v -281.126678 631.720459 -430.293396
v -57.798035 555.199341 -484.520233
v -40.632629 523.987427 -398.542114
v -48.691101 610.610229 -365.487427
v -65.856628 641.822083 -451.465363
v 75.330750 582.262085 -487.715118
v 87.874939 559.452942 -424.883453
v 81.985779 622.755737 -400.727386
v 69.441711 645.564941 -463.559052
v -461.313049 622.415588 -101.417580
v -621.083740 433.099365 -172.202026
v -576.246826 647.080566 126.687012
v -733.477051 453.053131 67.961960
v -246.100403 529.865295 -333.026367
v -270.886383 574.933594 -457.174225
v -25.667786 569.081543 -382.055847
v -43.890991 602.216797 -473.332306
v 111.910400 594.354004 -414.744110
v 98.593140 618.568848 -481.447540
v 167.727539 592.655212 -502.389069
v 180.271790 569.845947 -439.557404
v 213.417297 611.527405 -428.775391
v 200.100037 635.742188 -495.478851
v 169.548157 661.696045 -477.689178
v 182.092529 638.886902 -414.857574
v 234.019836 601.369263 -512.460876
v 246.564148 578.560059 -449.629120
v 279.709473 620.241455 -438.847229
v 266.392212 644.456299 -505.550568
v 235.840576 670.410217 -487.761017
v 248.384827 647.600952 -424.929260
v 278.890747 579.843506 -516.117065
v 286.964905 565.162231 -475.675201
v 308.299011 591.990723 -468.735260
v 299.727356 607.576660 -511.669403
v 304.490906 684.543091 -498.604523
v 273.939087 710.497009 -480.814911
v 286.483337 687.687805 -417.983185
v 317.808167 660.328308 -431.900970
v 308.973083 564.677246 -519.909302
v 314.416321 554.779541 -492.644440
v 328.799255 572.866455 -487.965729
v 323.020447 583.374146 -516.910645
v 343.235291 561.308228 -521.990051
v 346.638000 555.120972 -504.946564
v 355.628967 566.427368 -502.021759
v 352.016663 572.995789 -520.115662
v 322.065491 706.550354 -481.030182
v 301.751160 723.807373 -469.201752
v 310.091980 708.641296 -427.423981
v 330.920349 690.449585 -436.678253
v -298.815613 466.317871 454.121613
v -429.393799 285.469116 361.166656
v -116.647217 374.891846 328.951202
v -235.059509 206.988159 240.864990
v -343.124451 542.892883 214.323151
v -410.075562 450.166656 166.662537
v -240.159058 497.489624 158.874771
v -310.434967 409.927216 104.980484
v 13.197205 144.405029 -49.441193
v -21.096802 40.728027 8.379303
v 79.379089 46.103943 79.996979
v 115.593445 148.415283 24.865990
v 131.573425 15.602234 -177.067200
v 104.323181 -62.959717 -135.276062
v 179.607117 -60.011475 -80.643715
v 206.857544 18.550720 -122.434944
v 206.721497 -66.676208 -254.842133
v 186.807190 -124.088196 -224.301544
v 241.823792 -121.933533 -184.376953
v 261.738098 -64.521606 -214.917480
v -148.851379 451.008545 258.482300
v -283.772339 277.258606 153.222488
v -351.457336 552.569092 379.620636
v -490.082214 360.575806 280.937531
v 29.042358 33.267944 42.535400
v 68.390503 146.707397 -17.808990
v 150.740417 -73.999634 -119.376991
v 179.669922 9.403687 -163.743378
v 227.549194 -139.316223 -221.695465
v 248.690552 -78.366272 -254.117950
v 251.810425 -117.126343 -320.281006
v 231.896118 -174.538330 -289.740417
v 282.292969 -194.836121 -290.369446
v 303.434265 -133.886047 -322.791840
v 314.997681 -119.262146 -283.094360
v 295.083435 -176.674133 -252.553741
v 285.298706 -153.343872 -366.528931
v 265.384521 -210.755859 -335.988556
v 315.781189 -231.053711 -336.617523
v 336.922424 -170.103638 -369.039764
v 348.485901 -155.479675 -329.342010
v 328.571716 -212.891663 -298.801697
v 282.412720 -186.483765 -403.724823
v 269.594849 -223.437195 -384.067352
v 302.032837 -236.502014 -384.472198
v 315.640564 -197.271301 -405.341187
v 387.915710 -191.500122 -376.011414
v 399.479187 -176.875916 -336.313660
v 379.565002 -234.287964 -305.773254
v 366.774475 -252.449951 -343.588989
v 279.872620 -207.945679 -429.845093
v 271.231079 -232.858704 -416.592682
v 293.100220 -241.666748 -416.865692
v 302.274109 -215.218323 -430.934906
v 289.721069 -230.675537 -453.844269
v 284.318970 -246.248840 -445.559723
v 297.989563 -251.754761 -445.730408
v 303.724304 -235.221680 -454.525238
v 413.887878 -210.493042 -367.841888
v 421.576721 -200.769470 -341.446381
v 408.335632 -238.943481 -321.139709
v 399.830872 -251.019592 -346.283722
vn 0.6462 -0.6659 0.3729
vn -0.1497 0.9615 -0.2303
vn -0.6493 0.6517 -0.3921
vn -0.2605 -0.0801 0.9621
vn 0.2260 0.9741 0.0090
vn -0.5835 -0.7869 -0.2007
vn -0.0103 0.9393 0.3430
vn 0.7945 0.4657 0.3897
vn -0.5936 -0.0290 -0.8042
vn 0.4799 -0.8590 0.1783
vn -0.0973 0.4540 -0.8857
vn 0.2688 -0.3952 0.8784
vn -0.1115 0.4186 -0.9013
vn 0.1623 -0.9167 -0.3652
vn 0.1777 -0.2777 0.9441
vn 0.1769 -0.9133 -0.3669
vn 0.0044 0.9403 0.3404
vn 0.2875 -0.4257 0.8580
vn 0.2673 -0.2090 0.9407
vn 0.0497 -0.9356 -0.3496
vn -0.0978 0.2713 -0.9575
vn 0.2551 -0.2479 0.9346
vn -0.0771 0.2373 -0.9684
vn -0.5361 -0.4195 -0.7326
vn 0.4815 0.8095 0.3358
vn -0.8631 -0.3306 -0.3817
vn 0.6509 0.7163 0.2514
vn -0.7513 0.4681 0.4652
vn -0.0691 0.9332 0.3526
vn -0.1806 0.2866 -0.9409
vn -0.0993 0.9288 0.3570
vn 0.1887 -0.3874 0.9024
vn -0.1796 0.2823 -0.9424
vn -0.1904 0.3918 -0.9001
vn 0.1505 -0.3059 0.9401
vn -0.4361 -0.8703 -0.2289
vn 0.1878 -0.3833 0.9044
vn 0.1796 -0.2748 0.9446
vn -0.1885 0.3945 -0.8993
vn 0.0691 -0.9332 -0.3526
vn 0.7277 0.6784 0.1010
vn -0.0033 0.1608 -0.9870
vn 0.3532 -0.4874 0.7986
vn 0.7462 0.6595 0.0904
vn 0.3889 -0.0232 0.9210
vn -0.2180 0.3641 -0.9055
vn -0.7062 0.6085 0.3619
vn 0.7062 -0.6085 -0.3619
vn 0.3507 0.9006 0.2569
vn 0.3274 -0.4721 0.8185
vn -0.0322 0.1818 -0.9828
vn -0.4611 -0.8596 -0.2200
vn 0.7758 -0.5274 -0.3463
vn 0.3196 -0.4674 0.8242
vn -0.0411 0.1882 -0.9813
vn -0.1119 -0.9410 -0.3193
vn 0.6835 0.7192 0.1246
vn 0.0457 0.6008 -0.7981
vn 0.8483 -0.4203 -0.3220
vn -0.5238 0.7619 0.3811
vn 0.2456 -0.5790 0.7775
vn 0.6742 0.7300 -0.1119
vn -0.2007 0.5923 -0.7803
vn -0.7096 0.1596 0.6862
vn 0.4292 0.9032 -0.0090
vn -0.5241 -0.7825 -0.3361
vn 0.8455 -0.0106 0.5339
vn 0.8934 0.0043 0.4493
vn -0.3039 0.0070 -0.9527
vn -0.1592 -0.8665 0.4732
vn 0.4331 0.7861 -0.4410
vn -0.3406 -0.8797 0.3319
vn 0.3959 0.7983 -0.4539
vn -0.7749 -0.0810 -0.6269
vn -0.2431 -0.8401 0.4850
vn -0.7583 -0.0811 -0.6469
vn 0.8527 -0.0180 0.5222
vn -0.3341 -0.8901 0.3101
vn -0.1457 -0.8827 0.4468
vn -0.8275 -0.0115 -0.5613
vn 0.2679 0.7933 -0.5468
vn -0.1558 -0.8698 0.4682
vn 0.2448 0.7787 -0.5777
vn -0.6322 -0.4372 -0.6397
vn 0.8547 0.5139 -0.0730
vn -0.5928 -0.3778 -0.7112
vn 0.6049 0.6824 0.4103
vn -0.7896 0.6089 -0.0755
vn 0.8179 0.0221 0.5749
vn 0.2501 0.8419 -0.4782
vn 0.8023 0.0386 0.5957
vn -0.3382 -0.8444 0.4155
vn 0.2465 0.8412 -0.4812
vn 0.3414 0.8451 -0.4114
vn -0.2792 -0.8253 0.4908
vn -0.9561 0.2518 -0.1501
vn -0.3348 -0.8442 0.4187
vn -0.2397 -0.8410 0.4850
vn 0.3447 0.8438 -0.4113
vn -0.8179 -0.0221 -0.5749
vn 0.8950 -0.4072 -0.1819
vn 0.2027 0.7233 -0.6601
vn -0.3632 -0.9082 0.2078
vn 0.8851 -0.4170 -0.2068
vn 0.0729 -0.9084 0.4116
vn 0.3058 0.8611 -0.4063
vn 0.2780 0.3742 0.8847
vn -0.2780 -0.3742 -0.8847
vn 0.9505 -0.2058 0.2329
vn -0.3598 -0.9009 0.2428
vn 0.2111 0.7451 -0.6327
vn -0.9561 0.2652 -0.1249
vn -0.1777 -0.4134 -0.8930
vn -0.3587 -0.8984 0.2532
vn 0.2136 0.7515 -0.6241
vn -0.8949 0.0765 -0.4397
vn 0.9149 -0.3839 -0.1251
vn 0.6177 0.6624 -0.4239
vn -0.0528 -0.4546 -0.8891
vn 0.4872 0.2724 0.8297
usemtl Matériau.012
s off
f 131//27 132//27 134//27 133//27
f 138//28 137//28 141//28 142//28
f 137//29 138//29 136//29 135//29
f 153//30 154//30 132//30 131//30
f 151//31 137//31 135//31 153//31
f 152//32 134//32 132//32 154//32
f 142//33 141//33 145//33 146//33
f 151//34 133//34 140//34 155//34
f 152//35 138//35 142//35 156//35
f 133//36 134//36 139//36 140//36
f 158//37 146//37 150//37 160//37
f 155//38 140//38 144//38 157//38
f 156//39 142//39 146//39 158//39
f 140//40 139//40 143//40 144//40
f 149//41 159//41 163//41 166//41
f 144//42 143//42 147//42 148//42
f 146//43 145//43 149//43 150//43
f 157//44 144//44 148//44 159//44
f 145//45 157//45 159//45 149//45
f 148//46 147//46 161//46 162//46
f 139//47 156//47 158//47 143//47
f 141//48 155//48 157//48 145//48
f 143//49 158//49 160//49 147//49
f 134//50 152//50 156//50 139//50
f 137//51 151//51 155//51 141//51
f 138//52 152//52 154//52 136//52
f 133//53 151//53 153//53 131//53
f 135//54 136//54 154//54 153//54
f 165//55 166//55 172//55 171//55
f 161//56 164//56 170//56 167//56
f 150//57 149//57 166//57 165//57
f 159//58 148//58 162//58 163//58
f 147//59 160//59 164//59 161//59
f 160//60 150//60 165//60 164//60
f 172//61 169//61 180//61 179//61
f 168//62 167//62 173//62 174//62
f 163//63 162//63 168//63 169//63
f 166//64 163//64 169//64 172//64
f 164//65 165//65 171//65 170//65
f 162//66 161//66 167//66 168//66
f 176//67 175//67 183//67 184//67
f 167//68 170//68 176//68 173//68
f 169//69 168//69 174//69 175//69
f 170//70 169//70 175//70 176//70
f 179//71 180//71 192//71 191//71
f 170//72 171//72 178//72 177//72
f 171//73 172//73 179//73 178//73
f 169//74 170//74 177//74 180//74
f 184//75 183//75 187//75 188//75
f 175//76 174//76 182//76 183//76
f 173//77 176//77 184//77 181//77
f 174//78 173//78 181//78 182//78
f 186//79 185//79 188//79 187//79
f 183//80 182//80 186//80 187//80
f 181//81 184//81 188//81 185//81
f 182//82 181//82 185//82 186//82
f 192//83 189//83 190//83 191//83
f 177//84 178//84 190//84 189//84
f 180//85 177//85 189//85 192//85
f 178//86 179//86 191//86 190//86
f 193//87 194//87 196//87 195//87
f 200//88 199//88 203//88 204//88
f 199//89 200//89 198//89 197//89
f 215//90 216//90 194//90 193//90
f 213//91 199//91 197//91 215//91
f 214//92 196//92 194//92 216//92
f 204//93 203//93 207//93 208//93
f 213//94 195//94 202//94 217//94
f 214//95 200//95 204//95 218//95
f 195//96 196//96 201//96 202//96
f 220//97 208//97 212//97 222//97
f 217//98 202//98 206//98 219//98
f 218//99 204//99 208//99 220//99
f 202//100 201//100 205//100 206//100
f 211//101 221//101 225//101 228//101
f 206//102 205//102 209//102 210//102
f 208//103 207//103 211//103 212//103
f 219//104 206//104 210//104 221//104
f 207//105 219//105 221//105 211//105
f 210//106 209//106 223//106 224//106
f 201//107 218//107 220//107 205//107
f 203//108 217//108 219//108 207//108
f 205//109 220//109 222//109 209//109
f 196//110 214//110 218//110 201//110
f 199//111 213//111 217//111 203//111
f 200//112 214//112 216//112 198//112
f 195//113 213//113 215//113 193//113
f 197//114 198//114 216//114 215//114
f 227//115 228//115 234//115 233//115
f 223//116 226//116 232//116 229//116
f 212//117 211//117 228//117 227//117
f 221//118 210//118 224//118 225//118
f 209//119 222//119 226//119 223//119
f 222//120 212//120 227//120 226//120
f 234//121 231//121 242//121 241//121
f 230//122 229//122 235//122 236//122
f 225//123 224//123 230//123 231//123
f 228//124 225//124 231//124 234//124
f 226//125 227//125 233//125 232//125
f 224//126 223//126 229//126 230//126
f 238//127 237//127 245//127 246//127
f 229//128 232//128 238//128 235//128
f 231//129 230//129 236//129 237//129
f 232//130 231//130 237//130 238//130
f 241//131 242//131 254//131 253//131
f 232//132 233//132 240//132 239//132
f 233//133 234//133 241//133 240//133
f 231//134 232//134 239//134 242//134
f 246//135 245//135 249//135 250//135
f 237//136 236//136 244//136 245//136
f 235//137 238//137 246//137 243//137
f 236//138 235//138 243//138 244//138
f 248//139 247//139 250//139 249//139
f 245//140 244//140 248//140 249//140
f 243//141 246//141 250//141 247//141
f 244//142 243//142 247//142 248//142
f 254//143 251//143 252//143 253//143
f 239//144 240//144 252//144 251//144
f 242//145 239//145 251//145 254//145
f 240//146 241//146 253//146 252//146
