# Blender v2.91.2 OBJ File: 'camionnete02.blend'
# www.blender.org
mtllib arme_000171.mtl
o Cube.046_Cube.010
v 156.534119 489.688507 -1263.266357
v 136.524490 273.175812 -1299.335205
v 221.479431 518.445312 -1471.914795
v 201.469727 301.932617 -1507.984009
v -53.134193 519.258789 -1324.453491
v -73.143890 302.746124 -1360.522461
v 11.811096 548.015625 -1533.102051
v -8.198616 331.502930 -1569.171143
v 67.117332 450.096100 -975.998535
v 47.107651 233.583405 -1012.067505
v -162.560638 263.153717 -1073.254639
v -142.550964 479.666412 -1037.185547
v 26.650417 432.177948 -845.990845
v 6.640705 215.665253 -882.059875
v -203.027649 245.235565 -943.246948
v -183.017975 461.748291 -907.178040
v 2.744316 421.592682 -769.188232
v -7.656067 265.844879 -808.211365
v -217.324432 295.415192 -869.398499
v -206.924042 451.163055 -830.375305
v 46.598209 648.021240 -810.033386
v -163.070099 677.591675 -871.220581
v 22.692150 637.436035 -733.230713
v -186.976166 667.006470 -794.417908
v 81.068024 456.273224 -1020.817505
v 61.058334 239.760590 -1056.886475
v -128.600311 485.843597 -1082.004639
v -148.610046 269.330872 -1118.073730
v 73.722687 521.568604 -964.091797
v -135.945648 551.138916 -1025.279053
v 87.673370 527.745728 -1008.910767
v -121.994957 557.315918 -1070.097900
v 83.305977 625.263428 -946.817261
v -126.362312 654.833740 -1008.004333
v 97.256622 631.440552 -991.636353
v -112.411674 661.010864 -1052.823486
v 34.170353 504.055389 -837.022583
v -175.497986 533.625732 -898.209717
v 43.753647 607.750244 -819.747986
v -165.914703 637.320557 -880.935181
v 74.110115 789.073730 -836.140076
v -135.558228 818.644043 -897.327271
v 50.204010 778.488525 -759.337463
v -159.464264 808.058838 -820.524597
v 198.551727 508.293243 -1398.255493
v 178.541992 291.780609 -1434.324585
v -11.116634 537.863647 -1459.442749
v -31.126274 321.350861 -1495.511597
v 116.645226 533.230469 -1502.508423
v 96.635574 316.717743 -1538.577515
v 51.699982 504.473724 -1293.859863
v 31.690300 287.960968 -1329.928955
v -37.716797 464.881256 -1006.591980
v -57.726494 248.368561 -1042.660889
v -78.183769 446.963104 -876.584412
v -91.985634 237.418213 -898.136230
v -102.089851 436.377869 -799.781799
v -101.625999 271.254486 -848.339966
v -58.235947 662.806519 -840.626892
v -82.142021 652.221191 -763.824341
v -43.775826 254.545715 -1087.479980
v -23.766163 471.058380 -1051.411133
v -31.111473 536.353760 -994.685486
v -17.160797 542.530762 -1039.504395
v -21.528156 640.048706 -977.410767
v -7.577518 646.225708 -1022.229858
v -70.663826 518.840576 -867.616211
v -61.080521 622.535400 -850.341553
v -30.724075 803.859009 -866.733643
v -54.630150 793.273682 -789.931091
v 73.707840 306.565735 -1464.918091
v 93.717529 523.078491 -1428.848999
v 169.062378 525.837891 -1487.211670
v 84.107376 280.568390 -1314.631958
v -5.309425 240.976013 -1027.364258
v -56.640671 232.433380 -887.821594
v -66.280998 266.269653 -838.025330
v 28.650948 463.665802 -1036.114258
v 35.256268 535.138306 -1024.207642
v 44.839561 638.833130 -1006.933044
v 146.134644 515.685913 -1413.552368
v 149.052643 309.325195 -1523.280762
v 104.117027 497.081146 -1278.563232
v 14.700249 457.488678 -991.295288
v -25.766701 439.570526 -861.287598
v -49.672768 428.985260 -784.484985
v -5.818863 655.413940 -825.330200
v -29.724922 644.828613 -748.527527
v 8.641254 247.153168 -1072.183350
v 21.305622 528.961182 -979.388611
v 30.888901 632.656006 -962.114014
v -18.246742 511.447968 -852.319458
v -8.663425 615.142822 -835.044739
v 21.693047 796.466309 -851.436829
v -2.213058 785.881104 -774.634277
v 126.124893 299.173187 -1449.621460
v 4.894718 206.614090 -1078.936768
v -47.522377 214.006653 -1094.233398
v 122.378342 258.634125 -1456.374878
v 69.961288 266.026672 -1471.671509
v 27.943748 247.421906 -1336.682373
v 80.360825 240.029358 -1321.385620
v 269.638489 430.252319 -1344.872559
v 251.058716 422.025482 -1285.181641
v 242.210785 326.285736 -1301.130981
v 260.790375 334.512604 -1360.821899
v 314.946716 423.862335 -1331.650391
v 296.366943 415.635529 -1271.959473
v 287.518951 319.895813 -1287.908813
v 306.098633 328.122650 -1347.599731
v 384.282715 414.083710 -1311.416260
v 365.703033 405.856842 -1251.725342
v 356.854950 310.117157 -1267.674683
v 375.434631 318.343994 -1327.365723
v 428.899597 407.791229 -1298.395874
v 410.319855 399.564362 -1238.705078
v 401.471893 303.824677 -1254.654297
v 420.051514 312.051514 -1314.345215
v 362.410675 403.796906 -2208.730957
v 309.993561 411.189484 -2224.027588
v 330.003113 627.702271 -2187.958740
v 382.420288 620.309692 -2172.661865
v -1.858307 869.558960 -875.320740
v -98.457344 883.182739 -903.511047
v -23.886444 859.805298 -804.551147
v -120.485420 873.428955 -832.741577
v 72.712563 846.181519 -776.360962
v 94.740791 855.935425 -847.130310
v 46.441292 862.747314 -861.225464
v 24.413055 852.993408 -790.456055
vn 0.9513 -0.1342 0.2776
vn 0.2947 0.1305 -0.9467
vn -0.9513 0.1342 -0.2776
vn 0.0908 0.9823 0.1636
vn -0.0908 -0.9823 -0.1636
vn -0.2947 -0.1305 0.9467
vn -0.2636 -0.8208 0.5067
vn -0.1748 -0.9723 -0.1550
vn -0.3802 -0.2283 0.8963
vn -0.9517 0.1335 -0.2764
vn 0.9517 -0.1335 0.2764
vn 0.2441 -0.2223 -0.9439
vn 0.2426 -0.2298 -0.9425
vn -0.2441 0.2223 0.9439
vn 0.6452 0.0672 -0.7610
vn -0.8574 0.4736 -0.2016
vn -0.2621 -0.2466 0.9330
vn -0.0613 -0.9908 -0.1209
vn -0.2263 0.3077 0.9242
vn -0.3046 -0.2695 0.9136
vn -0.1100 -0.9888 -0.1010
vn 0.1034 -0.1727 0.9795
vn 0.4492 -0.8933 0.0167
vn 0.6006 0.7452 0.2897
vn 0.0908 0.9823 0.1637
vn 0.9346 -0.2461 0.2570
usemtl Matériau.011
s off
f 45//1 46//1 4//1 3//1
f 49//2 50//2 8//2 7//2
f 47//3 48//3 6//3 5//3
f 26//1 25//1 9//1 10//1
f 72//4 47//4 5//4 51//4
f 96//5 46//5 2//5 74//5
f 10//1 9//1 13//1 14//1
f 84//6 9//6 29//6 90//6
f 89//5 26//5 10//5 75//5
f 27//3 28//3 11//3 12//3
f 76//7 14//7 18//7 77//7
f 75//8 10//8 14//8 76//8
f 12//3 11//3 15//3 16//3
f 53//4 12//4 16//4 55//4
f 86//9 77//9 18//9 17//9
f 16//10 15//10 19//10 20//10
f 16//3 20//3 24//3 22//3
f 14//11 13//11 17//11 18//11
f 59//12 22//12 42//12 69//12
f 86//6 17//6 23//6 88//6
f 17//1 13//1 21//1 23//1
f 55//2 16//2 22//2 59//2
f 5//3 6//3 28//3 27//3
f 74//5 2//5 26//5 89//5
f 51//4 5//4 27//4 62//4
f 2//1 1//1 25//1 26//1
f 32//3 30//3 34//3 36//3
f 62//2 27//2 32//2 64//2
f 27//3 12//3 30//3 32//3
f 9//1 25//1 31//1 29//1
f 66//4 36//4 34//4 65//4
f 90//5 29//5 37//5 92//5
f 64//2 32//2 36//2 66//2
f 29//1 31//1 35//1 33//1
f 92//6 37//6 39//6 93//6
f 29//1 33//1 39//1 37//1
f 34//3 30//3 38//3 40//3
f 65//4 34//4 40//4 68//4
f 69//13 42//13 124//13 123//13
f 23//1 21//1 41//1 43//1
f 88//14 23//14 43//14 95//14
f 22//3 24//3 44//3 42//3
f 82//5 4//5 46//5 96//5
f 49//4 7//4 47//4 72//4
f 7//3 8//3 48//3 47//3
f 46//15 45//15 103//15 106//15
f 73//4 49//4 72//4 81//4
f 8//5 50//5 71//5 48//5
f 24//14 60//14 70//14 44//14
f 42//16 44//16 126//16 124//16
f 91//4 65//4 68//4 93//4
f 38//6 67//6 68//6 40//6
f 79//2 64//2 66//2 80//2
f 30//5 63//5 67//5 38//5
f 80//4 66//4 65//4 91//4
f 78//2 62//2 64//2 79//2
f 83//4 51//4 62//4 78//4
f 6//5 52//5 61//5 28//5
f 85//2 55//2 59//2 87//2
f 20//6 57//6 60//6 24//6
f 87//12 59//12 69//12 94//12
f 20//17 19//17 58//17 57//17
f 84//4 53//4 55//4 85//4
f 11//18 54//18 56//18 15//18
f 15//7 56//7 58//7 19//7
f 28//5 61//5 54//5 11//5
f 12//6 53//6 63//6 30//6
f 48//5 71//5 52//5 6//5
f 81//4 72//4 51//4 83//4
f 50//3 49//3 121//3 120//3
f 3//2 4//2 82//2 73//2
f 45//4 81//4 83//4 1//4
f 9//4 84//4 85//4 13//4
f 21//12 87//12 94//12 41//12
f 13//2 85//2 87//2 21//2
f 1//4 83//4 78//4 25//4
f 25//2 78//2 79//2 31//2
f 35//4 80//4 91//4 33//4
f 31//2 79//2 80//2 35//2
f 33//4 91//4 93//4 39//4
f 70//19 95//19 130//19 125//19
f 3//4 73//4 81//4 45//4
f 50//5 82//5 96//5 71//5
f 60//14 88//14 95//14 70//14
f 67//6 92//6 93//6 68//6
f 63//5 90//5 92//5 67//5
f 52//3 71//3 100//3 101//3
f 57//6 86//6 88//6 60//6
f 57//20 58//20 77//20 86//20
f 54//21 75//21 76//21 56//21
f 56//7 76//7 77//7 58//7
f 61//5 89//5 75//5 54//5
f 53//6 84//6 90//6 63//6
f 89//6 61//6 98//6 97//6
f 101//5 102//5 97//5 98//5
f 100//5 99//5 102//5 101//5
f 61//3 52//3 101//3 98//3
f 74//1 89//1 97//1 102//1
f 71//2 96//2 99//2 100//2
f 96//1 74//1 102//1 99//1
f 106//2 103//2 107//2 110//2
f 1//22 2//22 105//22 104//22
f 2//23 46//23 106//23 105//23
f 45//24 1//24 104//24 103//24
f 109//5 110//5 114//5 113//5
f 104//6 105//6 109//6 108//6
f 105//5 106//5 110//5 109//5
f 103//4 104//4 108//4 107//4
f 113//5 114//5 118//5 117//5
f 107//4 108//4 112//4 111//4
f 110//2 107//2 111//2 114//2
f 108//6 109//6 113//6 112//6
f 116//1 117//1 118//1 115//1
f 111//4 112//4 116//4 115//4
f 114//2 111//2 115//2 118//2
f 122//2 119//2 120//2 121//2
f 82//5 50//5 120//5 119//5
f 73//1 82//1 119//1 122//1
f 49//4 73//4 122//4 121//4
f 123//4 124//4 126//4 125//4
f 129//4 123//4 125//4 130//4
f 128//25 129//25 130//25 127//25
f 95//19 43//19 127//19 130//19
f 94//13 69//13 123//13 129//13
f 43//26 41//26 128//26 127//26
f 44//19 70//19 125//19 126//19
f 41//13 94//13 129//13 128//13
o Cube.048_Cube.024
v -502.398743 527.268799 157.209610
v -668.709717 385.537537 54.008545
v -373.266541 524.459473 -47.031754
v -539.080933 381.656952 -150.981171
v -630.044678 687.762207 4.636013
v -715.316895 615.092590 -48.278038
v -563.834961 686.321777 -100.084251
v -648.668762 613.417297 -152.412872
v -365.197052 500.154633 -501.671967
v -259.348572 547.961731 -451.340912
v -312.263977 662.932495 -449.262543
v -418.112366 615.125427 -499.593536
v -281.788452 560.437988 -692.198730
v -203.966248 595.586792 -655.194153
v -242.870819 680.115845 -653.666077
v -320.692963 644.967041 -690.670715
v -228.727600 600.792114 -810.613098
v -171.856140 626.478394 -783.570740
v -200.287140 688.251099 -782.453857
v -257.158600 662.564819 -809.496338
v -437.151123 626.781433 -67.139290
v -612.841980 475.738983 -175.736206
v -574.339355 629.876770 149.661987
v -750.898926 479.411560 40.101337
v -280.558319 607.927246 -453.885345
v -392.929504 557.174194 -507.318085
v -214.326050 642.328369 -670.592957
v -296.943817 605.013550 -709.877991
v -174.677795 663.044250 -807.098755
v -235.053711 635.775085 -835.807739
v -193.860168 614.504700 -896.965515
v -136.988831 640.190918 -869.923157
v -138.730774 683.745789 -902.360107
v -199.106812 656.476624 -931.068848
v -221.377563 682.192078 -903.388184
v -164.506226 707.878357 -876.345886
v -169.358948 625.574524 -959.007263
v -112.487671 651.260803 -931.964783
v -114.229553 694.815613 -964.401917
v -174.605530 667.546509 -993.110779
v -196.876343 693.261902 -965.430237
v -140.004883 718.948181 -938.387695
v -134.017151 614.679810 -992.509216
v -97.411621 631.212952 -975.103088
v -98.532837 659.247192 -995.981384
v -137.394165 641.695312 -1014.460022
v -174.897522 708.264099 -1031.172363
v -197.168152 733.979553 -1003.491882
v -140.296875 759.665833 -976.449402
v -114.521423 735.533264 -1002.463562
v -110.638062 605.962280 -1015.460388
v -85.959595 617.108459 -1003.725769
v -86.715515 636.008362 -1017.801208
v -112.914673 624.175354 -1030.258911
v -91.318481 607.836975 -1043.970337
v -75.891724 614.804565 -1036.635010
v -76.364197 626.619141 -1045.433716
v -92.741638 619.222168 -1053.221191
v -168.964050 738.946716 -1042.371460
v -183.772156 756.045166 -1023.966248
v -145.957581 773.124268 -1005.985291
v -128.819275 757.078247 -1023.282654
v -232.029846 486.855072 388.421936
v -365.103699 286.958435 361.398712
v -108.147339 433.229187 185.423828
v -244.289368 233.899139 158.948288
v -396.549347 550.220337 203.358398
v -464.780029 447.727692 189.502838
v -324.606750 522.664246 97.002159
v -402.835175 420.522736 85.700851
v -221.291809 125.130005 -94.233757
v -138.369385 85.432190 -9.368637
v -47.121704 90.556824 -94.067299
v -127.366089 128.968506 -179.003082
v -243.084564 -82.204285 -152.792603
v -183.794250 -114.104858 -88.542534
v -114.737854 -111.282593 -150.866821
v -174.028259 -79.381958 -215.117035
v -253.915161 -212.619507 -189.404694
v -210.586548 -235.931824 -142.451569
v -160.121094 -233.869446 -187.997345
v -203.449677 -210.557068 -234.950409
v -181.345154 502.190094 135.522125
v -338.337158 294.269470 108.923157
v -325.322266 562.813293 352.537689
v -466.596527 350.598389 323.849243
v -92.369080 77.068420 -48.068916
v -177.981262 123.131226 -140.842621
v -151.373962 -131.385559 -122.886665
v -214.317871 -97.519165 -191.096039
v -189.685669 -261.123230 -171.211517
v -235.684235 -236.374268 -221.057953
v -276.164459 -301.045776 -212.776978
v -232.835815 -324.358154 -165.823883
v -209.715240 -358.589722 -201.120544
v -255.713867 -333.840698 -250.967133
v -223.820679 -306.633972 -263.854736
v -180.492065 -329.946533 -216.901642
v -291.163635 -364.559692 -230.470734
v -247.834991 -387.872070 -183.517578
v -224.714417 -422.103638 -218.814270
v -270.712982 -397.354492 -268.660797
v -238.819733 -370.147705 -281.548553
v -195.491119 -393.460327 -234.595306
v -310.777222 -408.273315 -216.523285
v -282.888580 -423.278564 -186.301697
v -268.006836 -445.311890 -209.020660
v -297.614166 -429.381958 -241.104584
v -252.435394 -435.816040 -304.623962
v -220.542053 -408.609253 -317.511719
v -177.213440 -431.921753 -270.558563
v -206.436768 -460.565186 -254.777466
v -325.437164 -437.354126 -207.103699
v -306.635437 -447.470093 -186.729004
v -296.602783 -462.324707 -202.045654
v -316.563019 -451.584839 -223.675812
v -333.950073 -470.769409 -207.832947
v -322.196960 -477.093140 -195.096588
v -315.925262 -486.378540 -204.671021
v -328.402679 -479.665405 -218.192261
v -229.761108 -456.006470 -318.050507
v -208.554810 -437.916382 -326.619629
v -179.745056 -453.416870 -295.399689
v -199.175964 -472.462280 -284.906769
vn 0.4910 -0.8088 0.3237
vn -0.3910 0.8709 -0.2978
vn -0.4911 0.8084 -0.3245
vn -0.3850 -0.2037 0.9002
vn 0.3675 0.9037 0.2197
vn -0.6595 -0.6312 -0.4082
vn -0.3892 0.9195 -0.0548
vn 0.8313 0.4760 0.2871
vn -0.8124 -0.1646 -0.5593
vn 0.5527 -0.8316 0.0543
vn -0.8407 -0.2501 -0.4802
vn 0.8925 0.3179 0.3201
vn -0.8354 -0.2889 -0.4675
vn 0.4443 -0.8916 -0.0876
vn 0.8086 0.4326 0.3988
vn 0.4491 -0.8877 -0.1013
vn -0.3834 0.9210 -0.0686
vn 0.9097 0.2850 0.3020
vn 0.8124 0.4965 0.3058
vn 0.4044 -0.9144 0.0181
vn -0.7693 -0.4327 -0.4701
vn 0.8263 0.4616 0.3227
vn -0.7434 -0.4616 -0.4841
vn -0.6486 -0.5430 -0.5334
vn 0.5372 0.8050 0.2517
vn -0.8364 -0.1276 -0.5330
vn 0.7171 0.5355 0.4461
vn -0.7225 0.5003 0.4772
vn -0.4116 0.9113 0.0000
vn -0.8138 -0.4244 -0.3971
vn -0.4226 0.9059 0.0283
vn 0.8583 0.3258 0.3964
vn -0.8114 -0.4284 -0.3976
vn -0.8607 -0.3214 -0.3949
vn 0.8091 0.4044 0.4265
vn 0.1719 -0.8690 0.4639
vn 0.8564 0.3300 0.3971
vn 0.8081 0.4354 0.3968
vn -0.8609 -0.3185 -0.3968
vn 0.4116 -0.9113 -0.0000
vn 0.0302 0.6923 -0.7210
vn -0.6671 -0.5182 -0.5352
vn 0.9491 0.2117 0.2333
vn 0.0458 0.6745 -0.7369
vn 0.7517 0.6425 0.1487
vn -0.8615 -0.3501 -0.3679
vn -0.5484 0.5689 0.6129
vn 0.5484 -0.5689 -0.6129
vn -0.2205 0.8954 -0.3868
vn 0.9372 0.2317 0.2608
vn -0.6933 -0.5047 -0.5145
vn 0.1570 -0.8595 0.4864
vn 0.5446 -0.4868 -0.6829
vn 0.9334 0.2376 0.2689
vn -0.7011 -0.5004 -0.5080
vn 0.3382 -0.9259 0.1683
vn -0.0052 0.7305 -0.6829
vn -0.8043 -0.0602 -0.5912
vn 0.5315 -0.3792 -0.7575
vn -0.5339 0.7261 0.4332
vn 0.6640 -0.5198 0.5375
vn 0.2033 0.6283 -0.7509
vn -0.6459 0.5299 -0.5496
vn -0.3046 0.0744 0.9496
vn 0.1692 0.9737 -0.1525
vn -0.5085 -0.8574 -0.0787
vn 0.7194 -0.0434 -0.6933
vn 0.9689 0.1643 -0.1851
vn -0.8435 -0.2967 -0.4477
vn 0.1474 -0.6939 0.7048
vn -0.5636 0.2511 -0.7870
vn 0.5440 -0.4146 0.7295
vn -0.5911 0.2676 -0.7610
vn -0.7437 -0.1008 0.6609
vn 0.6817 -0.3393 0.6482
vn -0.7582 -0.1171 0.6415
vn 0.7195 -0.0567 -0.6921
vn 0.5231 -0.4336 0.7338
vn 0.6958 -0.4265 0.5778
vn -0.7337 0.0050 0.6795
vn -0.7085 0.2628 -0.6550
vn 0.6988 -0.4048 0.5897
vn -0.7364 0.2441 -0.6310
vn -0.7927 -0.6076 0.0492
vn 0.6540 0.5198 -0.5496
vn -0.8044 -0.4763 -0.3552
vn 0.5969 0.7847 0.1672
vn -0.8029 0.4882 0.3421
vn 0.7382 0.0136 -0.6745
vn -0.6745 0.3416 -0.6545
vn 0.7447 0.0425 -0.6661
vn 0.5943 -0.3436 0.7272
vn -0.6778 0.3409 -0.6514
vn -0.5901 0.3450 -0.7299
vn 0.6697 -0.3119 0.6740
vn -0.5247 0.4633 0.7142
vn 0.5980 -0.3430 0.7244
vn 0.6831 -0.3412 0.6457
vn -0.5884 0.3429 -0.7322
vn -0.7382 -0.0136 0.6745
vn 0.2822 -0.7297 -0.6228
vn -0.7981 0.1740 -0.5768
vn 0.4332 -0.4884 0.7575
vn 0.2616 -0.7463 -0.6120
vn 0.7431 -0.5416 0.3930
vn -0.6030 0.3728 -0.7052
vn 0.6976 0.6375 -0.3272
vn -0.6976 -0.6375 0.3272
vn 0.5758 -0.3838 -0.7219
vn 0.4615 -0.4664 0.7546
vn -0.7806 0.2020 -0.5914
vn -0.5083 0.4864 0.7106
vn -0.6581 -0.7082 0.2557
vn 0.4699 -0.4597 0.7536
vn -0.7751 0.2105 -0.5958
vn -0.6850 0.1590 0.7110
vn 0.3279 -0.6900 -0.6452
vn -0.4424 0.0962 -0.8917
vn -0.5998 -0.7831 0.1647
vn 0.7555 0.4554 -0.4710
usemtl Matériau.012
s off
f 131//27 132//27 134//27 133//27
f 138//28 137//28 141//28 142//28
f 137//29 138//29 136//29 135//29
f 153//30 154//30 132//30 131//30
f 151//31 137//31 135//31 153//31
f 152//32 134//32 132//32 154//32
f 142//33 141//33 145//33 146//33
f 151//34 133//34 140//34 155//34
f 152//35 138//35 142//35 156//35
f 133//36 134//36 139//36 140//36
f 158//37 146//37 150//37 160//37
f 155//38 140//38 144//38 157//38
f 156//39 142//39 146//39 158//39
f 140//40 139//40 143//40 144//40
f 149//41 159//41 163//41 166//41
f 144//42 143//42 147//42 148//42
f 146//43 145//43 149//43 150//43
f 157//44 144//44 148//44 159//44
f 145//45 157//45 159//45 149//45
f 148//46 147//46 161//46 162//46
f 139//47 156//47 158//47 143//47
f 141//48 155//48 157//48 145//48
f 143//49 158//49 160//49 147//49
f 134//50 152//50 156//50 139//50
f 137//51 151//51 155//51 141//51
f 138//52 152//52 154//52 136//52
f 133//53 151//53 153//53 131//53
f 135//54 136//54 154//54 153//54
f 165//55 166//55 172//55 171//55
f 161//56 164//56 170//56 167//56
f 150//57 149//57 166//57 165//57
f 159//58 148//58 162//58 163//58
f 147//59 160//59 164//59 161//59
f 160//60 150//60 165//60 164//60
f 172//61 169//61 180//61 179//61
f 168//62 167//62 173//62 174//62
f 163//63 162//63 168//63 169//63
f 166//64 163//64 169//64 172//64
f 164//65 165//65 171//65 170//65
f 162//66 161//66 167//66 168//66
f 176//67 175//67 183//67 184//67
f 167//68 170//68 176//68 173//68
f 169//69 168//69 174//69 175//69
f 170//70 169//70 175//70 176//70
f 179//71 180//71 192//71 191//71
f 170//72 171//72 178//72 177//72
f 171//73 172//73 179//73 178//73
f 169//74 170//74 177//74 180//74
f 184//75 183//75 187//75 188//75
f 175//76 174//76 182//76 183//76
f 173//77 176//77 184//77 181//77
f 174//78 173//78 181//78 182//78
f 186//79 185//79 188//79 187//79
f 183//80 182//80 186//80 187//80
f 181//81 184//81 188//81 185//81
f 182//82 181//82 185//82 186//82
f 192//83 189//83 190//83 191//83
f 177//84 178//84 190//84 189//84
f 180//85 177//85 189//85 192//85
f 178//86 179//86 191//86 190//86
f 193//87 194//87 196//87 195//87
f 200//88 199//88 203//88 204//88
f 199//89 200//89 198//89 197//89
f 215//90 216//90 194//90 193//90
f 213//91 199//91 197//91 215//91
f 214//92 196//92 194//92 216//92
f 204//93 203//93 207//93 208//93
f 213//94 195//94 202//94 217//94
f 214//95 200//95 204//95 218//95
f 195//96 196//96 201//96 202//96
f 220//97 208//97 212//97 222//97
f 217//98 202//98 206//98 219//98
f 218//99 204//99 208//99 220//99
f 202//100 201//100 205//100 206//100
f 211//101 221//101 225//101 228//101
f 206//102 205//102 209//102 210//102
f 208//103 207//103 211//103 212//103
f 219//104 206//104 210//104 221//104
f 207//105 219//105 221//105 211//105
f 210//106 209//106 223//106 224//106
f 201//107 218//107 220//107 205//107
f 203//108 217//108 219//108 207//108
f 205//109 220//109 222//109 209//109
f 196//110 214//110 218//110 201//110
f 199//111 213//111 217//111 203//111
f 200//112 214//112 216//112 198//112
f 195//113 213//113 215//113 193//113
f 197//114 198//114 216//114 215//114
f 227//115 228//115 234//115 233//115
f 223//116 226//116 232//116 229//116
f 212//117 211//117 228//117 227//117
f 221//118 210//118 224//118 225//118
f 209//119 222//119 226//119 223//119
f 222//120 212//120 227//120 226//120
f 234//121 231//121 242//121 241//121
f 230//122 229//122 235//122 236//122
f 225//123 224//123 230//123 231//123
f 228//124 225//124 231//124 234//124
f 226//125 227//125 233//125 232//125
f 224//126 223//126 229//126 230//126
f 238//127 237//127 245//127 246//127
f 229//128 232//128 238//128 235//128
f 231//129 230//129 236//129 237//129
f 232//130 231//130 237//130 238//130
f 241//131 242//131 254//131 253//131
f 232//132 233//132 240//132 239//132
f 233//133 234//133 241//133 240//133
f 231//134 232//134 239//134 242//134
f 246//135 245//135 249//135 250//135
f 237//136 236//136 244//136 245//136
f 235//137 238//137 246//137 243//137
f 236//138 235//138 243//138 244//138
f 248//139 247//139 250//139 249//139
f 245//140 244//140 248//140 249//140
f 243//141 246//141 250//141 247//141
f 244//142 243//142 247//142 248//142
f 254//143 251//143 252//143 253//143
f 239//144 240//144 252//144 251//144
f 242//145 239//145 251//145 254//145
f 240//146 241//146 253//146 252//146
