# Blender v2.91.2 OBJ File: 'camionnete02.blend'
# www.blender.org
mtllib arme_000252.mtl
o Cube.046_Cube.010
v 465.374054 491.015442 -997.954407
v 428.349030 295.809967 -1093.364502
v 616.187134 537.598877 -1151.787109
v 579.162109 342.393463 -1247.197266
v 308.965424 582.141418 -1123.698242
v 271.940308 386.935913 -1219.108398
v 459.778534 628.724792 -1277.530762
v 422.753510 433.519409 -1372.941040
v 257.734283 426.879211 -786.157288
v 220.709259 231.673767 -881.567505
v 64.300598 322.799622 -1007.311218
v 101.325653 518.005066 -911.901001
v 163.763672 397.853271 -690.305115
v 126.738617 202.647827 -785.715332
v -29.670074 293.773743 -911.459106
v 7.354980 488.979187 -816.048889
v 108.250031 380.706116 -633.680054
v 90.712997 241.506775 -712.447815
v -65.695709 332.632721 -838.191589
v -48.158691 471.832031 -759.423706
v 200.674225 592.455261 -595.189880
v 44.265625 683.581238 -720.933716
v 145.160614 575.308044 -538.564697
v -11.248016 666.434021 -664.308472
v 290.129913 436.885559 -819.201477
v 253.104858 241.680176 -914.611755
v 133.721283 528.011536 -944.945374
v 96.696182 332.806091 -1040.355469
v 269.956543 491.317932 -754.661682
v 113.547913 582.443909 -880.405518
v 302.352173 501.324341 -787.705872
v 145.943481 592.450256 -913.449585
v 287.689056 584.808105 -708.966675
v 131.280365 675.934021 -834.710327
v 320.084656 594.814514 -742.010925
v 163.676025 685.940430 -867.754639
v 178.109802 462.948059 -660.975952
v 21.701111 554.074036 -786.719727
v 195.842255 556.438293 -615.280884
v 39.433609 647.564148 -741.024658
v 258.702271 724.427307 -571.729370
v 102.293610 815.553284 -697.473267
v 203.188599 707.280151 -515.104309
v 46.779984 798.406067 -640.848022
v 562.945435 521.153503 -1097.479492
v 525.920410 325.948090 -1192.889648
v 406.536835 612.279358 -1223.223145
v 369.511810 417.073914 -1318.633423
v 537.982910 583.161865 -1214.658936
v 500.957794 387.956482 -1310.069214
v 387.169769 536.578430 -1060.826172
v 350.144684 341.372925 -1156.236572
v 179.529968 472.442078 -849.029175
v 142.504883 277.236633 -944.439270
v 85.559341 443.416260 -753.177002
v 49.035278 250.829010 -831.536438
v 30.045685 426.269104 -696.551880
v 24.743134 277.031708 -782.131958
v 122.469879 638.018250 -658.061768
v 66.956299 620.871033 -601.436707
v 174.900513 287.243134 -977.483582
v 211.925598 482.448547 -882.073364
v 191.752228 536.880920 -817.533508
v 224.147797 546.887268 -850.577698
v 209.484741 630.371033 -771.838501
v 241.880341 640.377502 -804.882751
v 99.905457 508.511047 -723.847839
v 117.637970 602.001221 -678.152710
v 180.497925 769.990356 -634.601379
v 124.984283 752.843079 -577.976257
v 447.716095 371.511047 -1255.761475
v 484.741119 566.716492 -1160.351318
v 577.084961 560.380310 -1183.223022
v 389.246857 318.591431 -1124.800537
v 181.607086 254.455200 -913.003479
v 75.401962 235.467407 -810.339172
v 51.109802 261.670105 -760.934570
v 251.027740 459.666992 -850.637451
v 263.249969 524.105774 -819.141846
v 280.982483 617.596008 -773.446777
v 523.843262 543.934998 -1128.915283
v 540.059937 365.174988 -1278.633301
v 426.271942 513.796936 -1029.390381
v 218.632111 449.660645 -817.593262
v 124.661499 420.634766 -721.741089
v 69.147827 403.487549 -665.115906
v 161.572113 615.236755 -626.625793
v 106.058472 598.089539 -570.000732
v 214.002716 264.461670 -946.047668
v 230.854401 514.099426 -786.097595
v 248.586884 607.589539 -740.402588
v 139.007629 485.729553 -692.411865
v 156.740112 579.219727 -646.716797
v 219.600098 747.208801 -603.165283
v 164.086456 730.061584 -546.540283
v 486.818207 348.729553 -1224.325684
v 207.070282 227.912109 -963.911865
v 167.968079 250.693542 -995.347900
v 479.885773 312.180054 -1242.189941
v 440.783661 334.961456 -1273.625732
v 343.212250 304.823364 -1174.100830
v 382.314423 282.041931 -1142.664795
v 591.340454 419.889526 -1043.323975
v 548.195435 406.562805 -999.315063
v 531.823364 320.244873 -1041.504395
v 574.968384 333.571686 -1085.513428
v 625.139648 400.197754 -1016.151550
v 581.994507 386.870972 -972.142578
v 565.622437 300.553131 -1014.331970
v 608.767456 313.879883 -1058.340942
v 676.863037 370.063049 -974.568909
v 633.718018 356.736267 -930.559998
v 617.345825 270.418396 -972.749268
v 660.490967 283.745239 -1016.758423
v 710.146484 350.671692 -947.811035
v 667.001343 337.344910 -903.802063
v 650.629272 251.027039 -945.991455
v 693.774414 264.353851 -990.000427
v 1035.510010 518.210571 -1784.002319
v 996.407837 540.992065 -1815.438354
v 1033.432861 736.197571 -1720.028076
v 1072.535034 713.416077 -1688.592041
v 220.330780 826.830994 -614.453125
v 148.269684 868.814880 -672.386230
v 169.177917 811.030823 -562.276062
v 97.116913 853.014587 -620.209106
v 241.239044 769.046997 -504.343140
v 292.391846 784.847229 -556.519897
v 256.361328 805.839233 -585.486450
v 205.208466 790.038818 -533.309631
vn 0.7096 -0.4134 0.5705
vn 0.6842 0.2114 -0.6979
vn -0.7096 0.4134 -0.5705
vn 0.1680 0.8857 0.4329
vn -0.1680 -0.8857 -0.4329
vn -0.6842 -0.2114 0.6979
vn -0.5802 -0.8023 0.1402
vn -0.2450 -0.8565 -0.4542
vn -0.7548 -0.2746 0.5958
vn -0.7106 0.4127 -0.5698
vn 0.7106 -0.4127 0.5698
vn 0.5819 -0.1127 -0.8054
vn 0.5788 -0.1197 -0.8067
vn -0.5819 0.1127 0.8054
vn 0.9083 0.0316 -0.4171
vn -0.6041 0.7005 -0.3801
vn -0.6679 -0.3278 0.6682
vn -0.1612 -0.9083 -0.3859
vn -0.5441 0.1929 0.8166
vn -0.7012 -0.3357 0.6289
vn -0.2127 -0.8976 -0.3860
vn -0.6843 -0.2114 0.6979
vn 0.6842 0.2114 -0.6980
vn -0.3498 -0.3570 0.8661
vn 0.2515 -0.9668 -0.0462
vn 0.5317 0.5105 0.6758
vn -0.6842 -0.2114 0.6980
vn 0.6843 0.2114 -0.6979
vn 0.6856 -0.5125 0.5170
usemtl Matériau.011
s off
f 45//1 46//1 4//1 3//1
f 49//2 50//2 8//2 7//2
f 47//3 48//3 6//3 5//3
f 26//1 25//1 9//1 10//1
f 72//4 47//4 5//4 51//4
f 96//5 46//5 2//5 74//5
f 10//1 9//1 13//1 14//1
f 84//6 9//6 29//6 90//6
f 89//5 26//5 10//5 75//5
f 27//3 28//3 11//3 12//3
f 76//7 14//7 18//7 77//7
f 75//8 10//8 14//8 76//8
f 12//3 11//3 15//3 16//3
f 53//4 12//4 16//4 55//4
f 86//9 77//9 18//9 17//9
f 16//10 15//10 19//10 20//10
f 16//3 20//3 24//3 22//3
f 14//11 13//11 17//11 18//11
f 59//12 22//12 42//12 69//12
f 86//6 17//6 23//6 88//6
f 17//1 13//1 21//1 23//1
f 55//2 16//2 22//2 59//2
f 5//3 6//3 28//3 27//3
f 74//5 2//5 26//5 89//5
f 51//4 5//4 27//4 62//4
f 2//1 1//1 25//1 26//1
f 32//3 30//3 34//3 36//3
f 62//2 27//2 32//2 64//2
f 27//3 12//3 30//3 32//3
f 9//1 25//1 31//1 29//1
f 66//4 36//4 34//4 65//4
f 90//5 29//5 37//5 92//5
f 64//2 32//2 36//2 66//2
f 29//1 31//1 35//1 33//1
f 92//6 37//6 39//6 93//6
f 29//1 33//1 39//1 37//1
f 34//3 30//3 38//3 40//3
f 65//4 34//4 40//4 68//4
f 69//13 42//13 124//13 123//13
f 23//1 21//1 41//1 43//1
f 88//14 23//14 43//14 95//14
f 22//3 24//3 44//3 42//3
f 82//5 4//5 46//5 96//5
f 49//4 7//4 47//4 72//4
f 7//3 8//3 48//3 47//3
f 46//15 45//15 103//15 106//15
f 73//4 49//4 72//4 81//4
f 8//5 50//5 71//5 48//5
f 24//14 60//14 70//14 44//14
f 42//16 44//16 126//16 124//16
f 91//4 65//4 68//4 93//4
f 38//6 67//6 68//6 40//6
f 79//2 64//2 66//2 80//2
f 30//5 63//5 67//5 38//5
f 80//4 66//4 65//4 91//4
f 78//2 62//2 64//2 79//2
f 83//4 51//4 62//4 78//4
f 6//5 52//5 61//5 28//5
f 85//2 55//2 59//2 87//2
f 20//6 57//6 60//6 24//6
f 87//12 59//12 69//12 94//12
f 20//17 19//17 58//17 57//17
f 84//4 53//4 55//4 85//4
f 11//18 54//18 56//18 15//18
f 15//7 56//7 58//7 19//7
f 28//5 61//5 54//5 11//5
f 12//6 53//6 63//6 30//6
f 48//5 71//5 52//5 6//5
f 81//4 72//4 51//4 83//4
f 50//3 49//3 121//3 120//3
f 3//2 4//2 82//2 73//2
f 45//4 81//4 83//4 1//4
f 9//4 84//4 85//4 13//4
f 21//12 87//12 94//12 41//12
f 13//2 85//2 87//2 21//2
f 1//4 83//4 78//4 25//4
f 25//2 78//2 79//2 31//2
f 35//4 80//4 91//4 33//4
f 31//2 79//2 80//2 35//2
f 33//4 91//4 93//4 39//4
f 70//19 95//19 130//19 125//19
f 3//4 73//4 81//4 45//4
f 50//5 82//5 96//5 71//5
f 60//14 88//14 95//14 70//14
f 67//6 92//6 93//6 68//6
f 63//5 90//5 92//5 67//5
f 52//3 71//3 100//3 101//3
f 57//6 86//6 88//6 60//6
f 57//20 58//20 77//20 86//20
f 54//21 75//21 76//21 56//21
f 56//7 76//7 77//7 58//7
f 61//5 89//5 75//5 54//5
f 53//6 84//6 90//6 63//6
f 89//22 61//22 98//22 97//22
f 101//5 102//5 97//5 98//5
f 100//5 99//5 102//5 101//5
f 61//3 52//3 101//3 98//3
f 74//1 89//1 97//1 102//1
f 71//2 96//2 99//2 100//2
f 96//1 74//1 102//1 99//1
f 106//23 103//23 107//23 110//23
f 1//24 2//24 105//24 104//24
f 2//25 46//25 106//25 105//25
f 45//26 1//26 104//26 103//26
f 109//5 110//5 114//5 113//5
f 104//27 105//27 109//27 108//27
f 105//5 106//5 110//5 109//5
f 103//4 104//4 108//4 107//4
f 113//5 114//5 118//5 117//5
f 107//4 108//4 112//4 111//4
f 110//23 107//23 111//23 114//23
f 108//27 109//27 113//27 112//27
f 116//1 117//1 118//1 115//1
f 111//4 112//4 116//4 115//4
f 114//2 111//2 115//2 118//2
f 122//28 119//28 120//28 121//28
f 82//5 50//5 120//5 119//5
f 73//1 82//1 119//1 122//1
f 49//4 73//4 122//4 121//4
f 123//4 124//4 126//4 125//4
f 129//4 123//4 125//4 130//4
f 128//4 129//4 130//4 127//4
f 95//19 43//19 127//19 130//19
f 94//13 69//13 123//13 129//13
f 43//29 41//29 128//29 127//29
f 44//19 70//19 125//19 126//19
f 41//13 94//13 129//13 128//13
o Cube.048_Cube.024
v -491.850830 554.478394 147.216522
v -640.448364 377.163330 77.390556
v -373.781433 538.318359 -63.012024
v -526.684265 360.526306 -140.218781
v -648.874451 670.729309 -17.585320
v -725.064514 579.814880 -53.387024
v -588.336914 662.443665 -125.375389
v -664.768127 571.549988 -161.622131
v -320.658936 502.337616 -513.844177
v -239.946411 512.820679 -416.899628
v -269.733002 635.302795 -405.344818
v -350.445587 624.819702 -502.289276
v -156.032410 571.261169 -636.478577
v -96.690857 578.968506 -565.202759
v -118.590637 669.020203 -556.707458
v -177.932251 661.312805 -627.983276
v -52.166687 616.543640 -711.493347
v -8.800537 622.176025 -659.406128
v -24.804626 687.984619 -653.197937
v -68.170776 682.352173 -705.285217
v -453.063599 626.471924 -93.183952
v -613.421753 439.403046 -172.755859
v -578.313721 643.859924 130.014038
v -736.068359 455.618103 55.885201
v -248.247498 575.719177 -411.697540
v -333.933777 564.590088 -514.615967
v -91.977600 628.728760 -570.763611
v -154.976074 620.546509 -646.431641
v 4.458252 661.730408 -671.986023
v -41.580078 655.750854 -727.283264
v 17.663208 635.546814 -771.686340
v 61.029419 641.179260 -719.599060
v 80.133728 688.637756 -737.900269
v 34.095215 682.658203 -793.197449
v 6.606140 708.044495 -770.319885
v 49.972290 713.676941 -718.232727
v 67.537170 650.498535 -814.826294
v 110.903259 656.131104 -762.738953
v 130.007507 703.589417 -781.040405
v 83.969116 697.609924 -836.337463
v 56.480042 722.996216 -813.460022
v 99.846191 728.628662 -761.372803
v 111.506470 636.950623 -834.146545
v 139.419312 640.575928 -800.620361
v 151.715759 671.122803 -812.400085
v 122.082886 667.274048 -847.992310
v 106.296021 742.956726 -859.829651
v 78.807068 768.343079 -836.952332
v 122.173218 773.975403 -784.864990
v 152.334595 748.936157 -804.532532
v 140.686523 626.682861 -848.018982
v 159.504456 629.126953 -825.416260
v 167.794495 649.720764 -833.357910
v 147.816833 647.126099 -857.353210
v 170.283447 628.472046 -865.636963
v 182.046875 629.999939 -851.507874
v 187.229126 642.873352 -856.472290
v 174.740906 641.251343 -871.472168
v 121.209473 772.614807 -859.658142
v 102.931641 789.494385 -844.446655
v 131.766235 793.239502 -809.813049
v 151.821106 776.590637 -822.890503
v -310.893219 455.766174 466.834686
v -448.679047 292.311951 354.161102
v -126.000122 337.612000 369.767303
v -250.471893 186.821411 264.812256
v -307.421692 533.601196 223.401001
v -378.068359 449.793640 165.630096
v -204.628113 473.491211 184.178345
v -276.442017 395.705688 119.818420
v 39.281799 97.820190 14.119347
v -14.726196 -4.909424 56.632561
v 69.201721 -13.034424 146.779358
v 124.443909 88.116211 107.263695
v 169.645447 -35.343628 -96.172249
v 127.884338 -112.872620 -66.067162
v 190.497314 -120.007202 2.414742
v 232.258606 -42.478271 -27.690514
v 251.701599 -120.549805 -163.049438
v 221.183044 -177.206909 -141.048981
v 266.939880 -182.420837 -91.003304
v 297.458435 -125.763672 -113.003731
v -136.961609 415.950653 295.721191
v -275.404694 261.481689 171.023804
v -339.549469 546.999756 385.495483
v -485.826050 373.472931 265.878632
v 26.604126 -18.796753 99.570831
v 86.905029 93.151123 56.100449
v 168.998230 -129.161377 -42.118500
v 213.332825 -46.854736 -74.078896
v 259.098938 -196.440735 -131.507141
v 291.498047 -136.292175 -154.863281
v 304.650146 -171.810242 -221.610016
v 274.131409 -228.467224 -199.609406
v 321.688904 -253.518311 -191.674286
v 354.087830 -193.369751 -215.030518
v 358.566467 -181.947266 -172.924164
v 328.047791 -238.604492 -150.923553
v 343.604919 -208.755005 -262.715210
v 313.086426 -265.412109 -240.714661
v 360.643860 -290.463196 -232.779724
v 393.043030 -230.314575 -256.135803
v 397.521179 -218.891785 -214.029388
v 367.002869 -275.549133 -192.028900
v 345.503967 -239.552307 -301.933014
v 325.860535 -276.019897 -287.772186
v 356.471130 -292.144226 -282.664886
v 377.324890 -253.429199 -297.698242
v 442.374573 -256.198059 -254.361053
v 446.852966 -244.775391 -212.254669
v 416.334534 -301.432617 -190.254120
v 409.975525 -316.346741 -231.004669
v 346.491272 -259.330078 -329.450287
v 333.248108 -283.915405 -319.903564
v 353.885071 -294.786255 -316.460327
v 367.944153 -268.685547 -326.595245
v 359.024963 -281.680481 -352.536072
v 350.746643 -297.049133 -346.568359
v 363.646912 -303.844421 -344.415771
v 372.435120 -287.528564 -350.751221
v 464.433167 -278.014648 -242.550629
v 467.410950 -270.419495 -214.553375
v 447.118591 -308.091614 -199.924896
v 442.890564 -318.008423 -227.020569
vn 0.6176 -0.6846 0.3871
vn -0.3276 0.8971 -0.2963
vn -0.6188 0.6772 -0.3980
vn -0.3068 -0.1149 0.9448
vn 0.2424 0.9683 0.0609
vn -0.5874 -0.7682 -0.2546
vn -0.1777 0.9832 0.0416
vn 0.7885 0.5132 0.3389
vn -0.7204 -0.1722 -0.6718
vn 0.5609 -0.8174 0.1313
vn -0.5864 0.0540 -0.8082
vn 0.7111 0.0249 0.7026
vn -0.5933 0.0134 -0.8049
vn 0.2915 -0.9462 -0.1404
vn 0.6212 0.1419 0.7707
vn 0.3022 -0.9414 -0.1498
vn -0.1664 0.9855 0.0320
vn 0.7289 -0.0076 0.6845
vn 0.6741 0.2177 0.7058
vn 0.2076 -0.9759 -0.0673
vn -0.5560 -0.1397 -0.8193
vn 0.6739 0.1780 0.7171
vn -0.5316 -0.1714 -0.8295
vn -0.5796 -0.5522 -0.5993
vn 0.4615 0.8368 0.2947
vn -0.8470 -0.3010 -0.4381
vn 0.6514 0.6915 0.3122
vn -0.7639 0.4631 0.4495
vn -0.2222 0.9717 0.0799
vn -0.6253 -0.1330 -0.7690
vn -0.2448 0.9644 0.0995
vn 0.6496 0.0280 0.7597
vn -0.6236 -0.1373 -0.7696
vn -0.6517 -0.0235 -0.7581
vn 0.6055 0.1102 0.7882
vn -0.1813 -0.9501 0.2537
vn 0.6483 0.0324 0.7607
vn 0.6221 0.1450 0.7694
vn -0.6506 -0.0203 -0.7592
vn 0.2222 -0.9717 -0.0799
vn 0.4422 0.7747 -0.4519
vn -0.4509 -0.2358 -0.8609
vn 0.7815 -0.0757 0.6194
vn 0.4600 0.7565 -0.4648
vn 0.7097 0.3987 0.5808
vn -0.6683 -0.0552 -0.7418
vn -0.6580 0.5755 0.4856
vn 0.6580 -0.5755 -0.4856
vn 0.1095 0.9744 -0.1966
vn 0.7624 -0.0584 0.6445
vn -0.4809 -0.2198 -0.8488
vn -0.2026 -0.9412 0.2705
vn 0.6974 -0.4844 -0.5282
vn 0.7565 -0.0532 0.6518
vn -0.4899 -0.2149 -0.8449
vn 0.0831 -0.9958 0.0385
vn 0.4006 0.8136 -0.4215
vn -0.4768 0.2446 -0.8443
vn 0.7343 -0.3659 -0.5718
vn -0.5441 0.7522 0.3716
vn 0.0445 -0.5936 0.8035
vn 0.7626 0.6464 0.0237
vn 0.0033 0.6011 -0.7992
vn -0.7784 0.2635 0.5698
vn 0.5486 0.8337 0.0632
vn -0.5662 -0.7116 -0.4159
vn 0.7151 -0.1199 0.6886
vn 0.8058 -0.0978 0.5841
vn -0.1407 0.0394 -0.9893
vn -0.3136 -0.8485 0.4264
vn 0.5790 0.7613 -0.2919
vn -0.4742 -0.8580 0.1974
vn 0.5464 0.7777 -0.3110
vn -0.6353 0.0266 -0.7718
vn -0.4072 -0.8356 0.3687
vn -0.6154 0.0256 -0.7878
vn 0.7244 -0.1271 0.6776
vn -0.4647 -0.8677 0.1763
vn -0.3081 -0.8856 0.3476
vn -0.6944 0.0972 -0.7130
vn 0.4399 0.7898 -0.4274
vn -0.3217 -0.8729 0.3667
vn 0.4224 0.7791 -0.4632
vn -0.5609 -0.3673 -0.7419
vn 0.9074 0.4165 0.0563
vn -0.5222 -0.3075 -0.7954
vn 0.6261 0.6012 0.4965
vn -0.6805 0.7068 -0.1933
vn 0.6832 -0.0864 0.7251
vn 0.4127 0.8364 -0.3606
vn 0.6651 -0.0696 0.7435
vn -0.4862 -0.8272 0.2817
vn 0.4099 0.8363 -0.3642
vn 0.4886 0.8274 -0.2770
vn -0.4423 -0.8177 0.3683
vn -0.8807 0.3509 -0.3182
vn -0.4835 -0.8275 0.2855
vn -0.4040 -0.8369 0.3693
vn 0.4916 0.8258 -0.2763
vn -0.6832 0.0864 -0.7251
vn 0.8752 -0.4828 -0.0292
vn 0.3933 0.7322 -0.5560
vn -0.4739 -0.8778 0.0692
vn 0.8697 -0.4903 -0.0562
vn -0.0899 -0.9307 0.3546
vn 0.4541 0.8465 -0.2779
vn 0.1237 0.3006 0.9457
vn -0.1237 -0.3006 -0.9457
vn 0.8624 -0.3087 0.4012
vn -0.4771 -0.8726 0.1047
vn 0.3978 0.7517 -0.5260
vn -0.8847 0.3629 -0.2926
vn -0.0275 -0.3489 -0.9367
vn -0.4779 -0.8708 0.1153
vn 0.3991 0.7575 -0.5167
vn -0.7773 0.1852 -0.6013
vn 0.8851 -0.4644 0.0318
vn 0.7451 0.6195 -0.2473
vn 0.0900 -0.4023 -0.9111
vn 0.3303 0.1818 0.9262
usemtl Matériau.012
s off
f 131//30 132//30 134//30 133//30
f 138//31 137//31 141//31 142//31
f 137//32 138//32 136//32 135//32
f 153//33 154//33 132//33 131//33
f 151//34 137//34 135//34 153//34
f 152//35 134//35 132//35 154//35
f 142//36 141//36 145//36 146//36
f 151//37 133//37 140//37 155//37
f 152//38 138//38 142//38 156//38
f 133//39 134//39 139//39 140//39
f 158//40 146//40 150//40 160//40
f 155//41 140//41 144//41 157//41
f 156//42 142//42 146//42 158//42
f 140//43 139//43 143//43 144//43
f 149//44 159//44 163//44 166//44
f 144//45 143//45 147//45 148//45
f 146//46 145//46 149//46 150//46
f 157//47 144//47 148//47 159//47
f 145//48 157//48 159//48 149//48
f 148//49 147//49 161//49 162//49
f 139//50 156//50 158//50 143//50
f 141//51 155//51 157//51 145//51
f 143//52 158//52 160//52 147//52
f 134//53 152//53 156//53 139//53
f 137//54 151//54 155//54 141//54
f 138//55 152//55 154//55 136//55
f 133//56 151//56 153//56 131//56
f 135//57 136//57 154//57 153//57
f 165//58 166//58 172//58 171//58
f 161//59 164//59 170//59 167//59
f 150//60 149//60 166//60 165//60
f 159//61 148//61 162//61 163//61
f 147//62 160//62 164//62 161//62
f 160//63 150//63 165//63 164//63
f 172//64 169//64 180//64 179//64
f 168//65 167//65 173//65 174//65
f 163//66 162//66 168//66 169//66
f 166//67 163//67 169//67 172//67
f 164//68 165//68 171//68 170//68
f 162//69 161//69 167//69 168//69
f 176//70 175//70 183//70 184//70
f 167//71 170//71 176//71 173//71
f 169//72 168//72 174//72 175//72
f 170//73 169//73 175//73 176//73
f 179//74 180//74 192//74 191//74
f 170//75 171//75 178//75 177//75
f 171//76 172//76 179//76 178//76
f 169//77 170//77 177//77 180//77
f 184//78 183//78 187//78 188//78
f 175//79 174//79 182//79 183//79
f 173//80 176//80 184//80 181//80
f 174//81 173//81 181//81 182//81
f 186//82 185//82 188//82 187//82
f 183//83 182//83 186//83 187//83
f 181//84 184//84 188//84 185//84
f 182//85 181//85 185//85 186//85
f 192//86 189//86 190//86 191//86
f 177//87 178//87 190//87 189//87
f 180//88 177//88 189//88 192//88
f 178//89 179//89 191//89 190//89
f 193//90 194//90 196//90 195//90
f 200//91 199//91 203//91 204//91
f 199//92 200//92 198//92 197//92
f 215//93 216//93 194//93 193//93
f 213//94 199//94 197//94 215//94
f 214//95 196//95 194//95 216//95
f 204//96 203//96 207//96 208//96
f 213//97 195//97 202//97 217//97
f 214//98 200//98 204//98 218//98
f 195//99 196//99 201//99 202//99
f 220//100 208//100 212//100 222//100
f 217//101 202//101 206//101 219//101
f 218//102 204//102 208//102 220//102
f 202//103 201//103 205//103 206//103
f 211//104 221//104 225//104 228//104
f 206//105 205//105 209//105 210//105
f 208//106 207//106 211//106 212//106
f 219//107 206//107 210//107 221//107
f 207//108 219//108 221//108 211//108
f 210//109 209//109 223//109 224//109
f 201//110 218//110 220//110 205//110
f 203//111 217//111 219//111 207//111
f 205//112 220//112 222//112 209//112
f 196//113 214//113 218//113 201//113
f 199//114 213//114 217//114 203//114
f 200//115 214//115 216//115 198//115
f 195//116 213//116 215//116 193//116
f 197//117 198//117 216//117 215//117
f 227//118 228//118 234//118 233//118
f 223//119 226//119 232//119 229//119
f 212//120 211//120 228//120 227//120
f 221//121 210//121 224//121 225//121
f 209//122 222//122 226//122 223//122
f 222//123 212//123 227//123 226//123
f 234//124 231//124 242//124 241//124
f 230//125 229//125 235//125 236//125
f 225//126 224//126 230//126 231//126
f 228//127 225//127 231//127 234//127
f 226//128 227//128 233//128 232//128
f 224//129 223//129 229//129 230//129
f 238//130 237//130 245//130 246//130
f 229//131 232//131 238//131 235//131
f 231//132 230//132 236//132 237//132
f 232//133 231//133 237//133 238//133
f 241//134 242//134 254//134 253//134
f 232//135 233//135 240//135 239//135
f 233//136 234//136 241//136 240//136
f 231//137 232//137 239//137 242//137
f 246//138 245//138 249//138 250//138
f 237//139 236//139 244//139 245//139
f 235//140 238//140 246//140 243//140
f 236//141 235//141 243//141 244//141
f 248//142 247//142 250//142 249//142
f 245//143 244//143 248//143 249//143
f 243//144 246//144 250//144 247//144
f 244//145 243//145 247//145 248//145
f 254//146 251//146 252//146 253//146
f 239//147 240//147 252//147 251//147
f 242//148 239//148 251//148 254//148
f 240//149 241//149 253//149 252//149
