# Blender v2.91.2 OBJ File: 'camionnete02.blend'
# www.blender.org
mtllib arme_000018.mtl
o Cube.046_Cube.010
v 366.649200 229.688217 -1021.327881
v 367.915314 9.285126 -1021.274902
v 485.270447 230.324997 -1207.090332
v 486.536560 9.921921 -1207.037476
v 180.889954 228.592636 -1139.950806
v 182.156021 8.189529 -1139.897827
v 299.511169 229.229446 -1325.713257
v 300.777283 8.826324 -1325.660400
v 203.331253 228.811447 -765.569702
v 204.597351 8.408401 -765.516724
v 18.838100 7.312805 -884.139648
v 17.572010 227.715897 -884.192566
v 129.419189 228.414688 -649.822205
v 130.685272 8.011597 -649.769348
v -55.074036 6.916000 -768.392212
v -56.340126 227.319107 -768.445190
v 85.755219 228.180283 -581.443909
v 94.114136 67.896484 -592.739990
v -91.645210 66.800919 -711.362915
v -100.004105 227.084732 -700.066772
v 128.156982 448.136414 -649.875061
v -57.602276 447.040833 -768.498047
v 84.493050 447.902039 -581.496704
v -101.266228 446.806458 -700.119629
v 228.811874 228.948227 -805.472656
v 230.077972 8.545181 -805.419739
v 43.052601 227.852676 -924.095581
v 44.318665 7.449585 -924.042664
v 202.913315 301.568176 -765.587158
v 17.154047 300.472656 -884.210144
v 228.393921 301.704956 -805.490112
v 42.634636 300.609375 -924.112976
v 202.306976 407.126282 -765.612549
v 16.547697 406.030701 -884.235352
v 227.787537 407.263062 -805.515503
v 42.028301 406.167480 -924.138367
v 130.671768 301.180359 -652.455811
v -55.087540 300.084778 -771.078735
v 130.065384 406.738525 -652.481140
v -55.693905 405.642883 -771.104065
v 154.939651 585.067993 -693.080322
v -30.819626 583.972412 -811.703308
v 111.275681 584.833618 -624.702026
v -74.483551 583.737976 -743.324890
v 443.393463 230.100204 -1141.510498
v 444.659576 9.697113 -1141.457642
v 257.634186 229.004623 -1260.133301
v 258.900299 8.601517 -1260.080444
v 392.390808 229.777237 -1266.401855
v 393.656921 9.374115 -1266.348999
v 273.769592 229.140427 -1080.639404
v 275.035675 8.737335 -1080.586426
v 110.451637 228.263657 -824.881104
v 111.717712 7.860596 -824.828125
v 36.539539 227.866928 -709.133728
v 37.805614 7.463806 -709.080811
v -7.124417 227.632492 -640.755371
v 1.234482 67.348709 -652.051453
v 35.277336 447.588684 -709.186462
v -8.386593 447.354248 -640.808167
v 137.198318 7.997391 -864.731140
v 135.932236 228.400436 -864.784119
v 110.033684 301.020386 -824.898682
v 135.514282 301.157104 -864.801514
v 109.427338 406.578552 -824.923950
v 134.907928 406.715271 -864.826965
v 37.792110 300.632568 -711.767334
v 37.185745 406.190735 -711.792603
v 62.059998 584.520264 -752.391846
v 18.396044 584.285767 -684.013489
v 351.779907 9.149323 -1200.769043
v 350.513824 229.552414 -1200.821899
v 438.830627 230.051102 -1236.745972
v 321.475494 9.011230 -1050.930664
v 158.157532 8.134506 -795.172485
v 84.245422 7.737701 -679.425110
v 47.674301 67.622589 -622.395752
v 182.372055 228.674332 -835.128357
v 181.954102 301.431030 -835.145813
v 181.347733 406.989136 -835.171204
v 396.953674 229.826309 -1171.166260
v 440.096741 9.648026 -1236.693237
v 320.209381 229.414322 -1050.983765
v 156.891449 228.537552 -795.225464
v 82.979347 228.140793 -679.477966
v 39.315388 227.906387 -611.099609
v 81.717178 447.862549 -679.530762
v 38.053242 447.628113 -611.152466
v 183.638153 8.271286 -835.075439
v 156.473511 301.294312 -795.242920
v 155.867142 406.852417 -795.268250
v 84.231934 300.906494 -682.111572
v 83.625565 406.464600 -682.136841
v 108.499847 584.794128 -722.736023
v 64.835876 584.559631 -654.357727
v 398.219727 9.423218 -1171.113403
v 183.875214 -32.996178 -835.065552
v 137.435379 -33.270096 -864.721252
v 398.456787 -31.844254 -1171.103516
v 352.016998 -32.118164 -1200.759155
v 275.272736 -32.530151 -1080.576538
v 321.712555 -32.256241 -1050.920776
v 500.649750 168.975571 -1057.970215
v 466.714203 168.793381 -1004.826721
v 467.274170 71.333405 -1004.803162
v 501.209625 71.515579 -1057.946899
v 540.791382 169.212357 -1032.336548
v 506.855865 169.030167 -979.192993
v 507.415771 71.570190 -979.169556
v 541.351257 71.752350 -1032.313110
v 602.220886 169.574661 -993.108826
v 568.285339 169.392471 -939.965210
v 568.845215 71.932526 -939.941772
v 602.780701 72.114700 -993.085449
v 641.749939 169.807816 -967.866211
v 607.814392 169.625626 -914.722656
v 608.374390 72.165649 -914.699219
v 642.309814 72.347824 -967.842773
v 829.790344 11.740311 -1846.958008
v 783.350525 11.466415 -1876.613770
v 782.084290 231.869522 -1876.666748
v 828.524231 232.143417 -1847.010986
vn 0.8428 0.0050 0.5382
vn 0.5382 0.0029 -0.8428
vn -0.8428 -0.0050 -0.5382
vn -0.0057 1.0000 -0.0002
vn 0.0057 -1.0000 0.0002
vn -0.5382 -0.0029 0.8428
vn -0.3533 -0.7492 0.5602
vn -0.5358 -0.0871 0.8398
vn -0.8435 -0.0055 -0.5371
vn 0.8435 0.0055 0.5371
vn 0.5060 -0.3480 -0.7892
vn -0.5060 0.3480 0.7892
vn 0.8264 0.0046 -0.5630
vn -0.1631 -0.0007 0.9866
vn 0.4698 -0.8312 0.2972
vn 0.4602 0.8367 0.2968
usemtl Matériau.011
s off
f 45//1 46//1 4//1 3//1
f 49//2 50//2 8//2 7//2
f 47//3 48//3 6//3 5//3
f 26//1 25//1 9//1 10//1
f 72//4 47//4 5//4 51//4
f 96//5 46//5 2//5 74//5
f 10//1 9//1 13//1 14//1
f 84//6 9//6 29//6 90//6
f 89//5 26//5 10//5 75//5
f 27//3 28//3 11//3 12//3
f 76//7 14//7 18//7 77//7
f 75//5 10//5 14//5 76//5
f 12//3 11//3 15//3 16//3
f 53//4 12//4 16//4 55//4
f 86//8 77//8 18//8 17//8
f 16//9 15//9 19//9 20//9
f 16//3 20//3 24//3 22//3
f 14//10 13//10 17//10 18//10
f 59//11 22//11 42//11 69//11
f 86//6 17//6 23//6 88//6
f 17//1 13//1 21//1 23//1
f 55//2 16//2 22//2 59//2
f 5//3 6//3 28//3 27//3
f 74//5 2//5 26//5 89//5
f 51//4 5//4 27//4 62//4
f 2//1 1//1 25//1 26//1
f 32//3 30//3 34//3 36//3
f 62//2 27//2 32//2 64//2
f 27//3 12//3 30//3 32//3
f 9//1 25//1 31//1 29//1
f 66//4 36//4 34//4 65//4
f 90//5 29//5 37//5 92//5
f 64//2 32//2 36//2 66//2
f 29//1 31//1 35//1 33//1
f 92//6 37//6 39//6 93//6
f 29//1 33//1 39//1 37//1
f 34//3 30//3 38//3 40//3
f 65//4 34//4 40//4 68//4
f 69//4 42//4 44//4 70//4
f 23//1 21//1 41//1 43//1
f 88//12 23//12 43//12 95//12
f 22//3 24//3 44//3 42//3
f 82//5 4//5 46//5 96//5
f 49//4 7//4 47//4 72//4
f 7//3 8//3 48//3 47//3
f 46//13 45//13 103//13 106//13
f 73//4 49//4 72//4 81//4
f 8//5 50//5 71//5 48//5
f 24//12 60//12 70//12 44//12
f 94//4 69//4 70//4 95//4
f 91//4 65//4 68//4 93//4
f 38//6 67//6 68//6 40//6
f 79//2 64//2 66//2 80//2
f 30//5 63//5 67//5 38//5
f 80//4 66//4 65//4 91//4
f 78//2 62//2 64//2 79//2
f 83//4 51//4 62//4 78//4
f 6//5 52//5 61//5 28//5
f 85//2 55//2 59//2 87//2
f 20//6 57//6 60//6 24//6
f 87//11 59//11 69//11 94//11
f 20//8 19//8 58//8 57//8
f 84//4 53//4 55//4 85//4
f 11//5 54//5 56//5 15//5
f 15//7 56//7 58//7 19//7
f 28//5 61//5 54//5 11//5
f 12//6 53//6 63//6 30//6
f 48//5 71//5 52//5 6//5
f 81//4 72//4 51//4 83//4
f 50//3 49//3 121//3 120//3
f 3//2 4//2 82//2 73//2
f 45//4 81//4 83//4 1//4
f 9//4 84//4 85//4 13//4
f 21//11 87//11 94//11 41//11
f 13//2 85//2 87//2 21//2
f 1//4 83//4 78//4 25//4
f 25//2 78//2 79//2 31//2
f 35//4 80//4 91//4 33//4
f 31//2 79//2 80//2 35//2
f 33//4 91//4 93//4 39//4
f 41//4 94//4 95//4 43//4
f 3//4 73//4 81//4 45//4
f 50//5 82//5 96//5 71//5
f 60//12 88//12 95//12 70//12
f 67//6 92//6 93//6 68//6
f 63//5 90//5 92//5 67//5
f 52//3 71//3 100//3 101//3
f 57//6 86//6 88//6 60//6
f 57//8 58//8 77//8 86//8
f 54//5 75//5 76//5 56//5
f 56//7 76//7 77//7 58//7
f 61//5 89//5 75//5 54//5
f 53//6 84//6 90//6 63//6
f 89//6 61//6 98//6 97//6
f 101//5 102//5 97//5 98//5
f 100//5 99//5 102//5 101//5
f 61//3 52//3 101//3 98//3
f 74//1 89//1 97//1 102//1
f 71//2 96//2 99//2 100//2
f 96//1 74//1 102//1 99//1
f 106//2 103//2 107//2 110//2
f 1//14 2//14 105//14 104//14
f 2//15 46//15 106//15 105//15
f 45//16 1//16 104//16 103//16
f 109//5 110//5 114//5 113//5
f 104//6 105//6 109//6 108//6
f 105//5 106//5 110//5 109//5
f 103//4 104//4 108//4 107//4
f 113//5 114//5 118//5 117//5
f 107//4 108//4 112//4 111//4
f 110//2 107//2 111//2 114//2
f 108//6 109//6 113//6 112//6
f 116//1 117//1 118//1 115//1
f 111//4 112//4 116//4 115//4
f 114//2 111//2 115//2 118//2
f 122//2 119//2 120//2 121//2
f 82//5 50//5 120//5 119//5
f 73//1 82//1 119//1 122//1
f 49//4 73//4 122//4 121//4
o Cube.047_Cube.022
v -252.129364 507.955475 291.252930
v -247.852295 267.286591 312.648102
v -133.596573 491.398865 81.316177
v -129.319504 250.729980 102.711349
v -432.753601 431.076019 127.561775
v -430.560638 307.678345 138.531677
v -371.978516 422.587006 19.921326
v -369.785553 299.189331 30.891235
v 10.258575 278.008667 -268.221497
v 8.018219 404.072205 -279.428406
v -102.266388 396.628906 -341.109375
v -100.026031 270.565369 -329.902466
v 100.939117 278.965607 -464.862488
v 99.291962 371.650391 -473.101990
v 18.208221 366.177887 -518.451233
v 19.855377 273.493134 -510.211731
v 155.888062 281.474243 -589.120972
v 154.684326 349.207031 -595.142334
v 95.429413 345.207825 -628.282959
v 96.633148 277.475006 -622.261597
v -248.008835 492.967468 37.733307
v -243.468201 237.467789 60.446915
v -373.846008 510.544312 260.607056
v -369.305359 255.044662 283.320679
v -44.447861 403.851318 -315.476440
v -42.069443 270.019348 -303.578918
v 67.950592 370.477692 -512.415710
v 69.699249 272.081390 -503.668396
v 138.343384 347.433350 -635.496033
v 139.621277 275.526642 -629.103577
v 205.109802 275.237732 -669.113586
v 203.906067 342.970551 -675.134949
v 187.368896 340.186310 -726.816528
v 188.646790 268.279602 -720.424072
v 145.688782 270.383301 -711.840881
v 144.485046 338.116119 -717.862244
v 239.322083 270.676758 -727.258057
v 238.118347 338.409576 -733.279419
v 221.581116 335.625366 -784.961060
v 222.859070 263.718628 -778.568604
v 179.901031 265.822357 -769.985352
v 178.697296 333.555176 -776.006714
v 281.347534 281.397034 -751.936951
v 280.572754 324.993561 -755.812683
v 269.928528 323.201477 -789.077759
v 270.751038 276.918396 -784.963257
v 211.745850 258.686279 -832.954956
v 168.787842 260.789978 -824.371704
v 167.584106 328.522797 -830.393066
v 210.467957 330.592987 -839.347412
v 310.592102 287.658295 -767.902222
v 310.069763 317.049866 -770.515137
v 302.893738 315.841705 -792.941528
v 303.448303 284.638916 -790.167603
v 332.813477 291.280273 -794.030334
v 332.487000 309.653290 -795.663635
v 328.001221 308.898041 -809.682739
v 328.347839 289.392822 -807.948730
v 198.352966 268.025208 -861.859253
v 169.789673 269.424011 -856.152100
v 168.989319 314.460388 -860.155762
v 197.503296 315.836914 -866.109619
vn 0.8713 0.0588 0.4873
vn -0.8016 -0.0671 -0.5940
vn -0.8713 -0.0588 -0.4873
vn -0.2417 0.0817 0.9669
vn -0.4347 0.8447 -0.3121
vn 0.0713 -0.9904 0.1183
vn -0.8306 -0.0639 -0.5532
vn 0.0999 0.9761 -0.1929
vn -0.2661 -0.9473 -0.1781
vn 0.9337 0.0481 0.3549
vn -0.0363 -0.9979 -0.0536
vn 0.0908 0.9887 -0.1192
vn -0.0119 -0.9997 -0.0204
vn 0.9067 0.0533 0.4184
vn -0.0717 0.9905 -0.1174
vn 0.9129 0.0522 0.4048
vn -0.8221 -0.0649 -0.5656
vn 0.1316 0.9846 -0.1152
vn -0.0713 0.9709 -0.2287
vn 0.8522 0.0613 0.5196
vn 0.1259 -0.9904 0.0567
vn -0.0471 0.9794 -0.1963
vn 0.1666 -0.9842 0.0598
vn 0.1349 -0.9907 -0.0181
vn -0.2988 0.8911 -0.3415
vn -0.4037 -0.9013 -0.1569
vn 0.0359 0.9976 -0.0584
vn -0.9183 0.0188 0.3954
vn -0.8624 -0.0600 -0.5027
vn 0.0623 -0.9915 0.1145
vn -0.8775 -0.0579 -0.4760
vn 0.0313 0.9977 -0.0606
vn 0.0666 -0.9910 0.1162
vn -0.0364 -0.9976 0.0593
vn -0.0645 0.9948 -0.0789
vn 0.4881 0.0859 0.8685
vn 0.0270 0.9977 -0.0624
vn -0.0730 0.9900 -0.1206
vn -0.0376 -0.9977 0.0561
vn 0.8624 0.0600 0.5027
vn -0.1358 -0.0901 -0.9866
vn 0.2709 -0.9616 0.0435
vn 0.2366 0.9632 -0.1276
vn -0.1074 -0.0899 -0.9901
vn -0.1326 0.8937 -0.4285
vn -0.0291 -0.9948 0.0980
vn -0.9798 0.0004 0.2002
vn 0.9798 -0.0004 -0.2002
vn -0.5686 -0.0829 -0.8184
vn 0.2033 0.9721 -0.1174
vn 0.2378 -0.9698 0.0552
vn 0.4630 0.0866 0.8821
vn 0.9525 -0.0101 -0.3042
vn 0.1933 0.9745 -0.1143
vn 0.2276 -0.9720 0.0588
vn 0.7549 0.0714 0.6519
vn -0.1994 -0.0903 -0.9758
vn -0.0997 -0.9594 -0.2638
vn 0.9044 -0.0218 -0.4261
vn -0.9991 -0.0211 -0.0372
usemtl Matériau.012
s off
f 123//17 124//17 126//17 125//17
f 130//18 129//18 133//18 134//18
f 129//19 130//19 128//19 127//19
f 145//20 146//20 124//20 123//20
f 143//21 129//21 127//21 145//21
f 144//22 126//22 124//22 146//22
f 134//23 133//23 137//23 138//23
f 143//24 125//24 132//24 147//24
f 144//25 130//25 134//25 148//25
f 125//26 126//26 131//26 132//26
f 150//27 138//27 142//27 152//27
f 147//28 132//28 136//28 149//28
f 148//29 134//29 138//29 150//29
f 132//30 131//30 135//30 136//30
f 141//31 151//31 155//31 158//31
f 136//32 135//32 139//32 140//32
f 138//33 137//33 141//33 142//33
f 149//34 136//34 140//34 151//34
f 137//35 149//35 151//35 141//35
f 140//36 139//36 153//36 154//36
f 131//37 148//37 150//37 135//37
f 133//38 147//38 149//38 137//38
f 135//39 150//39 152//39 139//39
f 126//40 144//40 148//40 131//40
f 129//41 143//41 147//41 133//41
f 130//42 144//42 146//42 128//42
f 125//43 143//43 145//43 123//43
f 127//44 128//44 146//44 145//44
f 157//45 158//45 164//45 163//45
f 153//46 156//46 162//46 159//46
f 142//47 141//47 158//47 157//47
f 151//48 140//48 154//48 155//48
f 139//49 152//49 156//49 153//49
f 152//50 142//50 157//50 156//50
f 164//51 161//51 172//51 171//51
f 160//52 159//52 165//52 166//52
f 155//53 154//53 160//53 161//53
f 158//54 155//54 161//54 164//54
f 156//55 157//55 163//55 162//55
f 154//56 153//56 159//56 160//56
f 168//57 167//57 175//57 176//57
f 159//58 162//58 168//58 165//58
f 161//59 160//59 166//59 167//59
f 162//60 161//60 167//60 168//60
f 171//61 172//61 184//61 183//61
f 162//62 163//62 170//62 169//62
f 163//63 164//63 171//63 170//63
f 161//64 162//64 169//64 172//64
f 176//65 175//65 179//65 180//65
f 167//66 166//66 174//66 175//66
f 165//67 168//67 176//67 173//67
f 166//68 165//68 173//68 174//68
f 178//69 177//69 180//69 179//69
f 175//70 174//70 178//70 179//70
f 173//71 176//71 180//71 177//71
f 174//72 173//72 177//72 178//72
f 184//73 181//73 182//73 183//73
f 169//74 170//74 182//74 181//74
f 172//75 169//75 181//75 184//75
f 170//76 171//76 183//76 182//76
o Cube.048_Cube.024
v -527.397583 347.490082 137.597549
v -688.892334 200.975647 33.431675
v -384.659119 328.104736 -56.432133
v -546.153931 181.590302 -160.598022
v -641.250122 498.265320 -34.549957
v -724.053040 423.143280 -87.958725
v -568.064148 488.325897 -134.034424
v -650.867065 413.203857 -187.443176
v -304.047241 230.805664 -471.692200
v -219.455475 307.550659 -417.129578
v -276.698395 407.699219 -469.246246
v -361.290161 330.954224 -523.808838
v -173.288910 236.957764 -644.191284
v -111.095154 293.382416 -604.075623
v -153.181458 367.013885 -642.393005
v -215.375214 310.589264 -682.508667
v -91.002075 243.656342 -752.125732
v -45.551697 284.890717 -722.809753
v -76.307800 338.699646 -750.811584
v -121.758179 297.465271 -780.127563
v -445.172058 429.689453 -88.225494
v -616.618652 274.146362 -198.810394
v -596.706543 450.269409 117.760956
v -768.153076 294.726318 7.176044
v -242.164673 359.540588 -446.000580
v -331.969238 278.066345 -503.925507
v -119.081604 330.423706 -637.141968
v -185.107910 270.522003 -679.729675
v -43.484863 310.886658 -757.717224
v -91.736023 267.111328 -788.839722
v -33.841248 233.310699 -826.193970
v 11.609131 274.545074 -796.877991
v 16.872253 304.303406 -842.032898
v -31.378906 260.528015 -873.155396
v -61.892334 290.303650 -862.868042
v -16.441956 331.538025 -833.552063
v 6.637268 226.932800 -879.979431
v 52.087646 268.167175 -850.663452
v 57.350769 297.925476 -895.818359
v 9.099609 254.150085 -926.940857
v -21.413879 283.925751 -916.653503
v 24.036499 325.160126 -887.337524
v 50.545959 211.011566 -897.547974
v 79.800293 237.552277 -878.678650
v 83.187927 256.706329 -907.742798
v 52.130859 228.530121 -927.774963
v 17.493958 279.632080 -975.796814
v -13.019470 309.407715 -965.509460
v 32.430908 350.642090 -936.193481
v 65.745117 323.407471 -944.674316
v 79.894653 198.811249 -909.343994
v 99.617126 216.704254 -896.622742
v 101.901001 229.617371 -916.217102
v 80.963196 210.621765 -929.722229
v 106.381165 194.073975 -930.921936
v 118.709900 205.259094 -922.969788
v 120.137634 213.331238 -935.218384
v 107.049133 201.456848 -943.660645
v 24.753906 305.471466 -995.333008
v 4.465149 325.269684 -988.492798
v 34.685669 352.686951 -969.000183
v 56.836731 334.578247 -974.639221
vn 0.4522 -0.7912 0.4117
vn -0.3732 0.7745 -0.5107
vn -0.4522 0.7912 -0.4117
vn -0.4495 -0.1326 0.8834
vn 0.3682 0.9122 0.1798
vn -0.6392 -0.6538 -0.4049
vn -0.4050 0.7826 -0.4728
vn 0.7712 0.5467 0.3262
vn -0.7335 -0.2706 -0.6235
vn 0.5338 -0.7944 0.2898
vn -0.6558 -0.5150 -0.5520
vn 0.7473 0.5334 0.3964
vn -0.6523 -0.5463 -0.5254
vn 0.4967 -0.7950 0.3482
vn 0.6386 0.6538 0.4058
vn 0.5050 -0.7952 0.3356
vn -0.3956 0.7804 -0.4843
vn 0.7706 0.4994 0.3960
vn 0.6653 0.6836 0.3001
vn 0.4297 -0.7876 0.4416
vn -0.5808 -0.6715 -0.4602
vn 0.6757 0.6586 0.3312
vn -0.5505 -0.6992 -0.4561
vn -0.5486 -0.6506 -0.5251
vn 0.5002 0.8486 0.1722
vn -0.8034 -0.1508 -0.5760
vn 0.6948 0.5565 0.4556
vn -0.7439 0.5435 0.3888
vn -0.4416 0.7896 -0.4260
vn -0.6445 -0.6464 -0.4084
vn -0.4598 0.7922 -0.4013
vn 0.6925 0.5607 0.4539
vn -0.6419 -0.6499 -0.4068
vn -0.6954 -0.5565 -0.4547
vn 0.6327 0.6367 0.4408
vn 0.0783 -0.6335 0.7697
vn 0.6903 0.5646 0.4525
vn 0.6386 0.6557 0.4028
vn -0.6952 -0.5544 -0.4575
vn 0.4416 -0.7896 0.4260
vn 0.1973 0.4142 -0.8885
vn -0.4600 -0.7575 -0.4632
vn 0.8316 0.4142 0.3699
vn 0.2177 0.3947 -0.8927
vn 0.6441 0.7594 0.0916
vn -0.7023 -0.5745 -0.4203
vn -0.7285 0.6507 0.2142
vn 0.7285 -0.6507 -0.2142
vn -0.1480 0.6762 -0.7217
vn 0.8114 0.4402 0.3846
vn -0.4916 -0.7420 -0.4558
vn 0.0571 -0.6195 0.7829
vn 0.7405 -0.5976 -0.3075
vn 0.8051 0.4478 0.3889
vn -0.5012 -0.7370 -0.4534
vn 0.3243 -0.7589 0.5647
vn 0.1506 0.4572 -0.8765
vn -0.5994 -0.3688 -0.7105
vn 0.7434 -0.5235 -0.4162
vn -0.6719 0.7406 -0.0000
usemtl Matériau.012
s off
f 185//77 186//77 188//77 187//77
f 192//78 191//78 195//78 196//78
f 191//79 192//79 190//79 189//79
f 207//80 208//80 186//80 185//80
f 205//81 191//81 189//81 207//81
f 206//82 188//82 186//82 208//82
f 196//83 195//83 199//83 200//83
f 205//84 187//84 194//84 209//84
f 206//85 192//85 196//85 210//85
f 187//86 188//86 193//86 194//86
f 212//87 200//87 204//87 214//87
f 209//88 194//88 198//88 211//88
f 210//89 196//89 200//89 212//89
f 194//90 193//90 197//90 198//90
f 203//91 213//91 217//91 220//91
f 198//92 197//92 201//92 202//92
f 200//93 199//93 203//93 204//93
f 211//94 198//94 202//94 213//94
f 199//95 211//95 213//95 203//95
f 202//96 201//96 215//96 216//96
f 193//97 210//97 212//97 197//97
f 195//98 209//98 211//98 199//98
f 197//99 212//99 214//99 201//99
f 188//100 206//100 210//100 193//100
f 191//101 205//101 209//101 195//101
f 192//102 206//102 208//102 190//102
f 187//103 205//103 207//103 185//103
f 189//104 190//104 208//104 207//104
f 219//105 220//105 226//105 225//105
f 215//106 218//106 224//106 221//106
f 204//107 203//107 220//107 219//107
f 213//108 202//108 216//108 217//108
f 201//109 214//109 218//109 215//109
f 214//110 204//110 219//110 218//110
f 226//111 223//111 234//111 233//111
f 222//112 221//112 227//112 228//112
f 217//113 216//113 222//113 223//113
f 220//114 217//114 223//114 226//114
f 218//115 219//115 225//115 224//115
f 216//116 215//116 221//116 222//116
f 230//117 229//117 237//117 238//117
f 221//118 224//118 230//118 227//118
f 223//119 222//119 228//119 229//119
f 224//120 223//120 229//120 230//120
f 233//121 234//121 246//121 245//121
f 224//122 225//122 232//122 231//122
f 225//123 226//123 233//123 232//123
f 223//124 224//124 231//124 234//124
f 238//125 237//125 241//125 242//125
f 229//126 228//126 236//126 237//126
f 227//127 230//127 238//127 235//127
f 228//128 227//128 235//128 236//128
f 240//129 239//129 242//129 241//129
f 237//130 236//130 240//130 241//130
f 235//131 238//131 242//131 239//131
f 236//132 235//132 239//132 240//132
f 246//133 243//133 244//133 245//133
f 231//134 232//134 244//134 243//134
f 234//135 231//135 243//135 246//135
f 232//136 233//136 245//136 244//136
