# Blender v2.91.2 OBJ File: 'camionnete02.blend'
# www.blender.org
mtllib arme_000104.mtl
o Cube.046_Cube.010
v 361.916138 619.404358 -1049.701416
v 357.027466 417.196411 -1137.263672
v 479.591766 691.057556 -1221.740234
v 474.703094 488.849670 -1309.302612
v 175.616302 669.969971 -1156.071533
v 170.727600 467.761963 -1243.633667
v 293.291870 741.623047 -1328.110107
v 288.403229 539.415222 -1415.672729
v 199.900146 520.752136 -812.837952
v 195.011475 318.544189 -900.400330
v 8.711618 369.109680 -1006.770142
v 13.600281 571.317688 -919.207886
v 126.577278 476.105469 -705.641602
v 121.688591 273.897552 -793.203918
v -64.611313 324.463074 -899.573914
v -59.722641 526.671082 -812.011597
v 83.261383 449.730286 -642.314880
v 87.085503 307.010162 -716.508545
v -99.214424 357.575745 -822.878601
v -103.038544 500.295837 -748.684814
v 131.450806 677.688293 -618.349976
v -54.849068 728.253845 -724.719971
v 88.134933 651.313110 -555.023193
v -98.164940 701.878662 -661.393250
v 225.177612 536.143677 -849.792969
v 220.288940 333.935760 -937.355286
v 38.877743 586.709290 -956.162964
v 33.989056 384.501282 -1043.725342
v 201.513916 587.502502 -783.932922
v 15.214050 638.068054 -890.302979
v 226.791412 602.893982 -820.887939
v 40.491516 653.459534 -927.257874
v 203.855286 684.346375 -741.996582
v 17.555408 734.911865 -848.366516
v 229.132690 699.737915 -778.951660
v 42.832886 750.303406 -885.321533
v 129.848236 543.864929 -679.159424
v -56.451645 594.430481 -785.529419
v 132.189575 640.708801 -637.223022
v -54.110298 691.274353 -743.593018
v 161.833374 819.832581 -603.991211
v -24.466503 870.398132 -710.361206
v 118.517479 793.457397 -540.664551
v -67.782349 844.022888 -647.034424
v 438.048584 665.761780 -1161.005127
v 433.159973 463.553833 -1248.567749
v 251.748749 716.327332 -1267.375122
v 246.860077 514.119324 -1354.937500
v 386.441803 716.340393 -1274.925293
v 381.553192 514.132385 -1362.487671
v 268.766235 644.687195 -1102.886353
v 263.877563 442.479187 -1190.448730
v 106.750206 546.034851 -866.022888
v 101.861526 343.826904 -953.585205
v 33.427322 501.388245 -758.826599
v 30.488243 302.514069 -829.568726
v -9.888556 475.013000 -695.499878
v 7.155291 324.842010 -777.852783
v 38.300850 702.971130 -671.534973
v -5.015003 676.595886 -608.208252
v 127.139015 359.218506 -990.540283
v 132.027679 561.426453 -902.977966
v 108.363983 612.785278 -837.117981
v 133.641449 628.176758 -874.072998
v 110.705345 709.629089 -795.181519
v 135.982819 725.020691 -832.136597
v 36.698303 569.147705 -732.344482
v 39.039654 665.991638 -690.407959
v 68.683418 845.115417 -657.176270
v 25.367542 818.740051 -593.849548
v 340.010010 488.836609 -1301.752563
v 344.898682 691.044495 -1214.190186
v 433.016785 703.698914 -1248.332642
v 310.452515 429.837830 -1163.856201
v 148.436493 331.185608 -926.992737
v 61.893867 293.989929 -811.637390
v 38.560917 316.317871 -759.921387
v 178.602661 548.785034 -876.385437
v 180.216400 615.535339 -847.480469
v 182.557770 712.379272 -805.544067
v 391.473633 678.403137 -1187.597778
v 428.128143 501.491028 -1335.895142
v 315.341156 632.045837 -1076.293945
v 153.325165 533.393494 -839.430542
v 80.002274 488.746887 -732.234131
v 36.686398 462.371643 -668.907349
v 84.875839 690.329712 -644.942505
v 41.559975 663.954529 -581.615784
v 173.713989 346.577148 -963.947815
v 154.938965 600.143860 -810.525513
v 157.280304 696.987732 -768.589111
v 83.273277 556.506287 -705.751953
v 85.614616 653.350159 -663.815430
v 115.258408 832.473938 -630.583679
v 71.942520 806.098694 -567.256958
v 386.584991 476.195251 -1275.160156
v 172.798645 308.716461 -980.342651
v 126.223671 321.357849 -1006.935181
v 385.669586 438.334595 -1291.555054
v 339.094666 450.975891 -1318.147461
v 262.962219 404.618530 -1206.843628
v 309.537170 391.977112 -1180.251099
v 493.986816 575.119507 -1109.542969
v 460.321808 554.620789 -1060.325684
v 458.160187 465.206360 -1099.044678
v 491.825134 485.705261 -1148.262207
v 534.245300 564.192688 -1086.557129
v 500.580261 543.693787 -1037.339600
v 498.418610 454.279541 -1076.058716
v 532.083618 474.778320 -1125.276123
v 595.853577 547.471008 -1051.381348
v 562.188477 526.972229 -1002.163818
v 560.026794 437.557922 -1040.882812
v 593.691772 458.056763 -1090.100586
v 635.497620 536.710754 -1028.746094
v 601.832642 516.211975 -979.528564
v 599.671082 426.797729 -1018.247742
v 633.335938 447.296509 -1067.465210
v 814.715271 736.885498 -1901.075195
v 768.140320 749.526917 -1927.667725
v 773.028809 951.734802 -1840.105347
v 819.603821 939.093445 -1813.512817
v 97.344475 909.904724 -642.880798
v 11.511837 933.201355 -691.887939
v 57.431236 885.601257 -584.528564
v -28.401361 908.897888 -633.535645
v 143.263885 862.304688 -535.521606
v 183.177124 886.607971 -593.873535
v 140.260834 898.256470 -618.377075
v 100.347557 873.952881 -560.025146
vn 0.8453 -0.2294 0.4826
vn 0.5339 0.3251 -0.7806
vn -0.8453 0.2294 -0.4826
vn 0.0222 0.9174 0.3973
vn -0.0222 -0.9174 -0.3973
vn -0.5339 -0.3251 0.7806
vn -0.3713 -0.9016 0.2217
vn -0.1057 -0.9063 -0.4092
vn -0.6007 -0.4059 0.6888
vn -0.8460 0.2285 -0.4818
vn 0.8460 -0.2285 0.4818
vn 0.4922 -0.0173 -0.8703
vn 0.4906 -0.0248 -0.8710
vn -0.4922 0.0173 0.8703
vn 0.8234 0.2086 -0.5277
vn -0.7825 0.5396 -0.3105
vn -0.4963 -0.4365 0.7504
vn -0.0051 -0.9363 -0.3512
vn -0.4717 0.1041 0.8756
vn -0.5316 -0.4529 0.7158
vn -0.0573 -0.9368 -0.3450
vn -0.1582 -0.3891 0.9075
vn 0.4479 -0.8917 -0.0650
vn 0.4849 0.6385 0.5976
vn 0.8371 -0.3333 0.4338
usemtl Matériau.011
s off
f 45//1 46//1 4//1 3//1
f 49//2 50//2 8//2 7//2
f 47//3 48//3 6//3 5//3
f 26//1 25//1 9//1 10//1
f 72//4 47//4 5//4 51//4
f 96//5 46//5 2//5 74//5
f 10//1 9//1 13//1 14//1
f 84//6 9//6 29//6 90//6
f 89//5 26//5 10//5 75//5
f 27//3 28//3 11//3 12//3
f 76//7 14//7 18//7 77//7
f 75//8 10//8 14//8 76//8
f 12//3 11//3 15//3 16//3
f 53//4 12//4 16//4 55//4
f 86//9 77//9 18//9 17//9
f 16//10 15//10 19//10 20//10
f 16//3 20//3 24//3 22//3
f 14//11 13//11 17//11 18//11
f 59//12 22//12 42//12 69//12
f 86//6 17//6 23//6 88//6
f 17//1 13//1 21//1 23//1
f 55//2 16//2 22//2 59//2
f 5//3 6//3 28//3 27//3
f 74//5 2//5 26//5 89//5
f 51//4 5//4 27//4 62//4
f 2//1 1//1 25//1 26//1
f 32//3 30//3 34//3 36//3
f 62//2 27//2 32//2 64//2
f 27//3 12//3 30//3 32//3
f 9//1 25//1 31//1 29//1
f 66//4 36//4 34//4 65//4
f 90//5 29//5 37//5 92//5
f 64//2 32//2 36//2 66//2
f 29//1 31//1 35//1 33//1
f 92//6 37//6 39//6 93//6
f 29//1 33//1 39//1 37//1
f 34//3 30//3 38//3 40//3
f 65//4 34//4 40//4 68//4
f 69//13 42//13 124//13 123//13
f 23//1 21//1 41//1 43//1
f 88//14 23//14 43//14 95//14
f 22//3 24//3 44//3 42//3
f 82//5 4//5 46//5 96//5
f 49//4 7//4 47//4 72//4
f 7//3 8//3 48//3 47//3
f 46//15 45//15 103//15 106//15
f 73//4 49//4 72//4 81//4
f 8//5 50//5 71//5 48//5
f 24//14 60//14 70//14 44//14
f 42//16 44//16 126//16 124//16
f 91//4 65//4 68//4 93//4
f 38//6 67//6 68//6 40//6
f 79//2 64//2 66//2 80//2
f 30//5 63//5 67//5 38//5
f 80//4 66//4 65//4 91//4
f 78//2 62//2 64//2 79//2
f 83//4 51//4 62//4 78//4
f 6//5 52//5 61//5 28//5
f 85//2 55//2 59//2 87//2
f 20//6 57//6 60//6 24//6
f 87//12 59//12 69//12 94//12
f 20//17 19//17 58//17 57//17
f 84//4 53//4 55//4 85//4
f 11//18 54//18 56//18 15//18
f 15//7 56//7 58//7 19//7
f 28//5 61//5 54//5 11//5
f 12//6 53//6 63//6 30//6
f 48//5 71//5 52//5 6//5
f 81//4 72//4 51//4 83//4
f 50//3 49//3 121//3 120//3
f 3//2 4//2 82//2 73//2
f 45//4 81//4 83//4 1//4
f 9//4 84//4 85//4 13//4
f 21//12 87//12 94//12 41//12
f 13//2 85//2 87//2 21//2
f 1//4 83//4 78//4 25//4
f 25//2 78//2 79//2 31//2
f 35//4 80//4 91//4 33//4
f 31//2 79//2 80//2 35//2
f 33//4 91//4 93//4 39//4
f 70//19 95//19 130//19 125//19
f 3//4 73//4 81//4 45//4
f 50//5 82//5 96//5 71//5
f 60//14 88//14 95//14 70//14
f 67//6 92//6 93//6 68//6
f 63//5 90//5 92//5 67//5
f 52//3 71//3 100//3 101//3
f 57//6 86//6 88//6 60//6
f 57//20 58//20 77//20 86//20
f 54//21 75//21 76//21 56//21
f 56//7 76//7 77//7 58//7
f 61//5 89//5 75//5 54//5
f 53//6 84//6 90//6 63//6
f 89//6 61//6 98//6 97//6
f 101//5 102//5 97//5 98//5
f 100//5 99//5 102//5 101//5
f 61//3 52//3 101//3 98//3
f 74//1 89//1 97//1 102//1
f 71//2 96//2 99//2 100//2
f 96//1 74//1 102//1 99//1
f 106//2 103//2 107//2 110//2
f 1//22 2//22 105//22 104//22
f 2//23 46//23 106//23 105//23
f 45//24 1//24 104//24 103//24
f 109//5 110//5 114//5 113//5
f 104//6 105//6 109//6 108//6
f 105//5 106//5 110//5 109//5
f 103//4 104//4 108//4 107//4
f 113//5 114//5 118//5 117//5
f 107//4 108//4 112//4 111//4
f 110//2 107//2 111//2 114//2
f 108//6 109//6 113//6 112//6
f 116//1 117//1 118//1 115//1
f 111//4 112//4 116//4 115//4
f 114//2 111//2 115//2 118//2
f 122//2 119//2 120//2 121//2
f 82//5 50//5 120//5 119//5
f 73//1 82//1 119//1 122//1
f 49//4 73//4 122//4 121//4
f 123//4 124//4 126//4 125//4
f 129//4 123//4 125//4 130//4
f 128//4 129//4 130//4 127//4
f 95//19 43//19 127//19 130//19
f 94//13 69//13 123//13 129//13
f 43//25 41//25 128//25 127//25
f 44//19 70//19 125//19 126//19
f 41//13 94//13 129//13 128//13
o Cube.048_Cube.024
v -563.540283 484.603027 179.116501
v -723.977356 341.489197 68.771881
v -420.489380 474.192078 -15.371582
v -581.144287 328.769226 -130.101685
v -678.202332 641.640625 13.218510
v -760.462891 568.262146 -43.358246
v -604.856140 636.302612 -86.500969
v -687.081543 562.219299 -142.921722
v -344.404938 481.487885 -471.403595
v -256.924683 512.788269 -385.437744
v -310.983124 626.429993 -371.804199
v -398.463409 595.129578 -457.769928
v -214.474823 579.127563 -614.498474
v -150.157227 602.140320 -551.294617
v -189.902313 685.692261 -541.270874
v -254.219727 662.679565 -604.474792
v -132.608398 642.577393 -702.463867
v -85.606079 659.394775 -656.275330
v -114.651245 720.453369 -648.949951
v -161.653564 703.636047 -695.138672
v -481.622040 576.389587 -42.999756
v -652.029846 422.567780 -162.349182
v -633.496521 587.666260 163.466614
v -803.820190 435.733246 46.322220
v -277.994995 572.613464 -380.035889
v -370.866119 539.384216 -471.299103
v -157.050598 651.499695 -558.029541
v -225.331543 627.068787 -625.128357
v -82.841919 700.342590 -670.911865
v -132.740662 682.488831 -719.946777
v -76.249878 673.684021 -771.141357
v -29.247559 690.501404 -724.952637
v -23.216858 740.188782 -746.095398
v -73.115601 722.335083 -795.130371
v -102.530518 742.138794 -769.322327
v -55.528137 758.956177 -723.133728
v -36.314453 697.241455 -820.357666
v 10.687927 714.058960 -774.169128
v 16.718506 763.746277 -795.311707
v -33.180298 745.892456 -844.346558
v -62.595215 765.696289 -818.538452
v -15.592834 782.513733 -772.349915
v 6.923096 692.655762 -844.844666
v 37.176331 703.480347 -815.115173
v 41.057983 735.461853 -828.723755
v 8.940369 723.970215 -860.285278
v -24.187683 794.003174 -871.014893
v -53.602600 813.807068 -845.206909
v -6.600281 830.624512 -799.018250
v 25.711060 811.856995 -821.979919
v 35.769226 688.324951 -862.121277
v 56.165161 695.622620 -842.078491
v 58.782166 717.183533 -851.252930
v 37.129395 709.436279 -872.531006
v 61.956848 695.704651 -883.318665
v 74.706604 700.266479 -870.789795
v 76.342468 713.744507 -876.524841
v 62.807007 708.901550 -889.825867
v -16.153259 826.146973 -873.082397
v -35.711792 839.314758 -855.922180
v -4.459290 850.496826 -825.210632
v 17.025208 838.018127 -840.478516
v -292.505585 610.641418 327.445099
v -304.963226 370.180115 347.956757
v -134.649109 581.891479 144.860870
v -153.033142 346.407806 161.544128
v -446.033997 542.978638 134.621094
v -452.421326 419.687408 145.138016
v -364.085022 534.199097 39.612526
v -374.522522 407.498596 49.559029
v 26.125793 291.028351 -166.770233
v 120.702820 365.479187 -127.376823
v 85.746948 454.361450 -209.516815
v -7.719727 381.232147 -248.870026
v 163.213562 225.539917 -321.074127
v 233.461914 278.893005 -291.414581
v 208.577820 345.212860 -351.776093
v 138.329529 291.859772 -381.435883
v 250.015442 187.168579 -418.331299
v 301.352051 226.158264 -396.656342
v 283.167053 274.624054 -440.767883
v 231.830505 235.634247 -462.442657
v -234.859619 595.548035 82.218246
v -258.717316 339.162415 100.140228
v -406.784576 619.678955 276.264618
v -420.009888 364.399658 298.040283
v 111.046143 408.670227 -170.104462
v 9.611267 331.631165 -212.931519
v 234.481018 306.070068 -333.718018
v 159.903687 249.429321 -365.205322
v 310.110657 240.608459 -436.819519
v 255.610596 199.216187 -459.829987
v 307.300659 146.610413 -481.052277
v 358.637146 185.600220 -459.377350
v 371.736145 200.179932 -510.053253
v 317.236145 158.787537 -533.063965
v 292.789124 195.185608 -534.060974
v 344.125427 234.175293 -512.385986
v 348.115540 118.413025 -526.998779
v 399.452087 157.402710 -505.323700
v 412.551208 171.982361 -556.000000
v 358.051086 130.589966 -579.010498
v 333.604065 166.988098 -580.007446
v 384.940491 205.977905 -558.332458
v 388.753357 90.679810 -535.338867
v 421.796448 115.775696 -521.387695
v 430.227722 125.159912 -554.005615
v 395.148621 98.517639 -568.816467
v 373.537415 139.545776 -631.799438
v 349.090393 175.943970 -632.796387
v 400.426941 214.933624 -611.121521
v 428.037415 180.938171 -608.789001
v 415.609436 70.657166 -540.552063
v 437.886169 87.575989 -531.146484
v 443.570374 93.902527 -553.136780
v 419.920959 75.941162 -563.121887
v 441.585876 55.464539 -557.404419
v 455.511169 66.040771 -551.524963
v 459.064392 69.995605 -565.271179
v 444.280823 58.767761 -571.513062
v 386.651428 157.203064 -656.664978
v 370.396057 181.404663 -657.327698
v 404.530334 207.329468 -642.915771
v 422.889099 184.725342 -641.364868
vn 0.4570 -0.8045 0.3794
vn -0.3251 0.9030 -0.2809
vn -0.4571 0.8030 -0.3824
vn -0.4495 -0.1720 0.8766
vn 0.3630 0.9060 0.2179
vn -0.6425 -0.6383 -0.4239
vn -0.3805 0.9234 0.0510
vn 0.7810 0.4549 0.4279
vn -0.7195 -0.1152 -0.6849
vn 0.5368 -0.8402 0.0761
vn -0.6762 -0.1045 -0.7293
vn 0.7673 0.2039 0.6079
vn -0.6736 -0.1454 -0.7246
vn 0.4710 -0.8668 -0.1637
vn 0.6629 0.3016 0.6852
vn 0.4792 -0.8602 -0.1745
vn -0.3713 0.9277 0.0400
vn 0.7895 0.1753 0.5882
vn 0.6900 0.3844 0.6133
vn 0.4048 -0.9109 -0.0803
vn -0.6061 -0.2875 -0.7417
vn 0.6998 0.3460 0.6250
vn -0.5767 -0.3135 -0.7544
vn -0.5638 -0.5009 -0.6567
vn 0.4892 0.7880 0.3738
vn -0.8048 -0.1252 -0.5801
vn 0.6907 0.5420 0.4787
vn -0.7478 0.5221 0.4101
vn -0.4166 0.9041 0.0947
vn -0.6686 -0.2938 -0.6831
vn -0.4346 0.8930 0.1171
vn 0.7139 0.1961 0.6723
vn -0.6661 -0.2977 -0.6839
vn -0.7167 -0.1920 -0.6705
vn 0.6567 0.2680 0.7050
vn 0.0607 -0.9562 0.2863
vn 0.7118 0.2001 0.6733
vn 0.6630 0.3048 0.6838
vn -0.7164 -0.1888 -0.6717
vn 0.4166 -0.9041 -0.0947
vn 0.2065 0.8330 -0.5134
vn -0.4883 -0.3604 -0.7948
vn 0.8474 0.1175 0.5178
vn 0.2261 0.8185 -0.5281
vn 0.6703 0.5638 0.4825
vn -0.7240 -0.2260 -0.6518
vn -0.7045 0.4402 0.5566
vn 0.7045 -0.4402 -0.5566
vn -0.1287 0.9667 -0.2210
vn 0.8281 0.1314 0.5449
vn -0.5194 -0.3508 -0.7792
vn 0.0402 -0.9513 0.3055
vn 0.7178 -0.3446 -0.6050
vn 0.8222 0.1355 0.5529
vn -0.5287 -0.3477 -0.7743
vn 0.3012 -0.9527 0.0404
vn 0.1613 0.8632 -0.4785
vn -0.6156 0.1036 -0.7812
vn 0.7227 -0.2227 -0.6543
vn -0.6461 0.6326 0.4271
vn 0.7659 0.0006 0.6429
vn -0.4842 0.3685 -0.7936
vn -0.7662 -0.0010 -0.6425
vn -0.4003 0.0985 0.9111
vn -0.3101 0.8749 -0.3720
vn -0.0037 -0.9923 0.1235
vn -0.2232 0.6734 -0.7048
vn 0.5117 0.8562 -0.0717
vn -0.4393 -0.7982 -0.4121
vn 0.7017 -0.3030 0.6448
vn -0.7190 -0.5230 -0.4577
vn 0.8194 0.4797 0.3137
vn -0.7230 -0.5457 -0.4235
vn 0.3178 -0.7341 0.6001
vn 0.7363 0.6164 0.2790
vn 0.3217 -0.7470 0.5818
vn -0.2108 0.6721 -0.7098
vn 0.8354 0.4444 0.3234
vn 0.7732 0.6103 0.1723
vn 0.2447 -0.6969 0.6741
vn -0.6807 -0.6585 -0.3209
vn 0.7712 0.6032 0.2033
vn -0.6568 -0.6889 -0.3067
vn -0.2169 -0.9746 -0.0558
vn 0.0916 0.9321 -0.3505
vn -0.4186 -0.8788 -0.2291
vn 0.1221 0.9920 -0.0323
vn -0.9704 0.0700 0.2310
vn -0.2567 0.7053 -0.6608
vn -0.7405 -0.6090 -0.2840
vn -0.2751 0.7178 -0.6396
vn 0.7685 0.5323 0.3550
vn -0.7388 -0.6124 -0.2814
vn -0.7705 -0.5280 -0.3572
vn 0.7256 0.6110 0.3165
vn -0.0838 -0.3976 0.9137
vn 0.7671 0.5360 0.3525
vn 0.7368 0.6173 0.2757
vn -0.7697 -0.5269 -0.3604
vn 0.2567 -0.7053 0.6608
vn 0.3156 0.1085 -0.9427
vn -0.5794 -0.7621 -0.2891
vn 0.8795 0.3459 0.3269
vn 0.3319 0.0853 -0.9395
vn 0.7769 0.6276 -0.0498
vn -0.7824 -0.5342 -0.3202
vn -0.5942 0.8034 -0.0380
vn 0.5942 -0.8034 0.0380
vn 0.0218 0.4637 -0.8857
vn 0.8641 0.3781 0.3321
vn -0.6076 -0.7397 -0.2892
vn -0.1024 -0.3770 0.9206
vn 0.6207 -0.7814 -0.0644
vn 0.8593 0.3876 0.3336
vn -0.6161 -0.7326 -0.2892
vn 0.1416 -0.6168 0.7743
vn 0.2778 0.1607 -0.9471
vn -0.6276 -0.4391 -0.6428
vn 0.6431 -0.7423 -0.1879
vn -0.5112 0.8186 -0.2618
usemtl Matériau.012
s off
f 131//26 132//26 134//26 133//26
f 138//27 137//27 141//27 142//27
f 137//28 138//28 136//28 135//28
f 153//29 154//29 132//29 131//29
f 151//30 137//30 135//30 153//30
f 152//31 134//31 132//31 154//31
f 142//32 141//32 145//32 146//32
f 151//33 133//33 140//33 155//33
f 152//34 138//34 142//34 156//34
f 133//35 134//35 139//35 140//35
f 158//36 146//36 150//36 160//36
f 155//37 140//37 144//37 157//37
f 156//38 142//38 146//38 158//38
f 140//39 139//39 143//39 144//39
f 149//40 159//40 163//40 166//40
f 144//41 143//41 147//41 148//41
f 146//42 145//42 149//42 150//42
f 157//43 144//43 148//43 159//43
f 145//44 157//44 159//44 149//44
f 148//45 147//45 161//45 162//45
f 139//46 156//46 158//46 143//46
f 141//47 155//47 157//47 145//47
f 143//48 158//48 160//48 147//48
f 134//49 152//49 156//49 139//49
f 137//50 151//50 155//50 141//50
f 138//51 152//51 154//51 136//51
f 133//52 151//52 153//52 131//52
f 135//53 136//53 154//53 153//53
f 165//54 166//54 172//54 171//54
f 161//55 164//55 170//55 167//55
f 150//56 149//56 166//56 165//56
f 159//57 148//57 162//57 163//57
f 147//58 160//58 164//58 161//58
f 160//59 150//59 165//59 164//59
f 172//60 169//60 180//60 179//60
f 168//61 167//61 173//61 174//61
f 163//62 162//62 168//62 169//62
f 166//63 163//63 169//63 172//63
f 164//64 165//64 171//64 170//64
f 162//65 161//65 167//65 168//65
f 176//66 175//66 183//66 184//66
f 167//67 170//67 176//67 173//67
f 169//68 168//68 174//68 175//68
f 170//69 169//69 175//69 176//69
f 179//70 180//70 192//70 191//70
f 170//71 171//71 178//71 177//71
f 171//72 172//72 179//72 178//72
f 169//73 170//73 177//73 180//73
f 184//74 183//74 187//74 188//74
f 175//75 174//75 182//75 183//75
f 173//76 176//76 184//76 181//76
f 174//77 173//77 181//77 182//77
f 186//78 185//78 188//78 187//78
f 183//79 182//79 186//79 187//79
f 181//80 184//80 188//80 185//80
f 182//81 181//81 185//81 186//81
f 192//82 189//82 190//82 191//82
f 177//83 178//83 190//83 189//83
f 180//84 177//84 189//84 192//84
f 178//85 179//85 191//85 190//85
f 193//86 194//86 196//86 195//86
f 200//87 199//87 203//87 204//87
f 199//88 200//88 198//88 197//88
f 215//89 216//89 194//89 193//89
f 213//90 199//90 197//90 215//90
f 214//91 196//91 194//91 216//91
f 204//92 203//92 207//92 208//92
f 213//93 195//93 202//93 217//93
f 214//94 200//94 204//94 218//94
f 195//95 196//95 201//95 202//95
f 220//96 208//96 212//96 222//96
f 217//97 202//97 206//97 219//97
f 218//98 204//98 208//98 220//98
f 202//99 201//99 205//99 206//99
f 211//100 221//100 225//100 228//100
f 206//101 205//101 209//101 210//101
f 208//102 207//102 211//102 212//102
f 219//103 206//103 210//103 221//103
f 207//104 219//104 221//104 211//104
f 210//105 209//105 223//105 224//105
f 201//106 218//106 220//106 205//106
f 203//107 217//107 219//107 207//107
f 205//108 220//108 222//108 209//108
f 196//109 214//109 218//109 201//109
f 199//110 213//110 217//110 203//110
f 200//111 214//111 216//111 198//111
f 195//112 213//112 215//112 193//112
f 197//113 198//113 216//113 215//113
f 227//114 228//114 234//114 233//114
f 223//115 226//115 232//115 229//115
f 212//116 211//116 228//116 227//116
f 221//117 210//117 224//117 225//117
f 209//118 222//118 226//118 223//118
f 222//119 212//119 227//119 226//119
f 234//120 231//120 242//120 241//120
f 230//121 229//121 235//121 236//121
f 225//122 224//122 230//122 231//122
f 228//123 225//123 231//123 234//123
f 226//124 227//124 233//124 232//124
f 224//125 223//125 229//125 230//125
f 238//126 237//126 245//126 246//126
f 229//127 232//127 238//127 235//127
f 231//128 230//128 236//128 237//128
f 232//129 231//129 237//129 238//129
f 241//130 242//130 254//130 253//130
f 232//131 233//131 240//131 239//131
f 233//132 234//132 241//132 240//132
f 231//133 232//133 239//133 242//133
f 246//134 245//134 249//134 250//134
f 237//135 236//135 244//135 245//135
f 235//136 238//136 246//136 243//136
f 236//137 235//137 243//137 244//137
f 248//138 247//138 250//138 249//138
f 245//139 244//139 248//139 249//139
f 243//140 246//140 250//140 247//140
f 244//141 243//141 247//141 248//141
f 254//142 251//142 252//142 253//142
f 239//143 240//143 252//143 251//143
f 242//144 239//144 251//144 254//144
f 240//145 241//145 253//145 252//145
