# Blender v2.91.2 OBJ File: 'camionnete02.blend'
# www.blender.org
mtllib arme_000074.mtl
o Cube.046_Cube.010
v 269.743713 637.388550 -1099.444946
v 259.739441 417.322571 -1106.517090
v 356.543152 639.952820 -1302.024170
v 346.538818 419.886871 -1309.096558
v 67.395325 649.368774 -1185.993774
v 57.391006 429.302795 -1193.066040
v 154.194733 651.933044 -1388.572998
v 144.190430 431.867096 -1395.645386
v 150.238098 633.857910 -820.533386
v 140.233810 413.792053 -827.605530
v -62.114559 425.772278 -914.154297
v -52.110249 645.838257 -907.082092
v 96.154007 632.260193 -694.307434
v 86.149689 412.194244 -701.379700
v -116.198715 424.174469 -787.928467
v -106.194412 644.240417 -780.856262
v 64.203506 631.316284 -619.738953
v 62.419693 471.386261 -637.276794
v -139.928757 483.366547 -723.825500
v -138.144913 643.296570 -706.287659
v 168.883194 634.408752 -864.048706
v 158.878891 414.342865 -871.120850
v -33.465199 646.389038 -950.597473
v -43.469528 426.323120 -957.669617
v 325.900238 639.047607 -1230.507568
v 315.895935 418.981598 -1237.579834
v 123.551849 651.027832 -1317.056396
v 113.547562 430.961823 -1324.128540
v 255.368896 645.942993 -1345.298706
v 245.364609 425.876953 -1352.370972
v 168.569519 643.378662 -1142.719482
v 158.565201 423.312653 -1149.791626
v 49.063931 639.848083 -863.807739
v 39.059608 419.782135 -870.879883
v -5.020199 638.250305 -737.581848
v -10.650881 427.335938 -730.691467
v -36.970676 637.306396 -663.013306
v -26.652088 467.249359 -687.466736
v 57.704674 420.332977 -914.395264
v 67.709000 640.398926 -907.323120
v 214.721725 424.971680 -1280.854126
v 224.726059 645.037720 -1273.781860
v 305.956024 642.947876 -1323.661499
v 209.152313 420.317627 -1128.154419
v 89.646683 416.787109 -849.242737
v 23.460117 425.316376 -716.101440
v 7.458933 465.229736 -672.876648
v 118.296097 637.403870 -885.685791
v 275.313141 642.042603 -1252.144775
v 295.951752 422.881927 -1330.733765
v 219.156601 640.383606 -1121.082153
v 99.651001 636.853027 -842.170593
v 45.566891 635.255310 -715.944702
v 13.616407 634.311340 -641.376038
v 108.291779 417.337921 -892.758118
v 265.308777 421.976624 -1259.217041
v 106.418640 376.133575 -894.082214
v 55.831524 379.128662 -915.719421
v 263.435577 380.772308 -1260.541260
v 212.848557 383.767365 -1282.178345
v 156.692032 382.108337 -1151.115845
v 207.279144 379.113281 -1129.478516
v 392.748352 572.156982 -1159.441040
v 367.916534 571.423401 -1101.486572
v 363.492859 474.112427 -1104.613770
v 388.324524 474.846069 -1162.568359
v 436.474823 569.568176 -1140.738525
v 411.642944 568.834534 -1082.783813
v 407.219177 471.523621 -1085.911133
v 432.050995 472.257233 -1143.865723
v 503.390167 565.606384 -1112.117432
v 478.558289 564.872742 -1054.162842
v 474.134460 467.561859 -1057.290039
v 498.966309 468.295471 -1115.244629
v 546.449341 563.057007 -1093.700195
v 521.617432 562.323364 -1035.745483
v 517.193787 465.012512 -1038.872803
v 542.025574 465.746124 -1096.827393
v 581.104553 431.306396 -1996.245239
v 530.517517 434.301453 -2017.882446
v 540.521667 654.367432 -2010.810181
v 591.108826 651.372375 -1989.172974
vn 0.9181 -0.0544 0.3927
vn 0.3938 0.0116 -0.9191
vn -0.9181 0.0544 -0.3927
vn 0.0454 0.9985 0.0321
vn -0.0454 -0.9985 -0.0321
vn -0.2956 -0.7539 0.5867
vn -0.1301 -0.9909 -0.0339
vn -0.4706 -0.1190 0.8743
vn -0.9186 0.0539 -0.3915
vn 0.9186 -0.0539 0.3915
vn 0.7233 -0.0107 -0.6904
vn -0.3568 -0.1270 0.9255
vn -0.0206 -0.9997 0.0143
vn -0.3963 -0.1542 0.9051
vn -0.0712 -0.9971 0.0285
vn -0.3938 -0.0116 0.9191
vn -0.0008 -0.0321 0.9995
vn 0.4687 -0.8627 0.1899
vn 0.5444 0.8027 0.2434
usemtl Matériau.011
s off
f 25//1 26//1 4//1 3//1
f 29//2 30//2 8//2 7//2
f 27//3 28//3 6//3 5//3
f 22//1 21//1 9//1 10//1
f 42//4 27//4 5//4 31//4
f 56//5 26//5 2//5 44//5
f 10//1 9//1 13//1 14//1
f 55//5 22//5 10//5 45//5
f 23//3 24//3 11//3 12//3
f 46//6 14//6 18//6 47//6
f 45//7 10//7 14//7 46//7
f 12//3 11//3 15//3 16//3
f 33//4 12//4 16//4 35//4
f 54//8 47//8 18//8 17//8
f 16//9 15//9 19//9 20//9
f 14//10 13//10 17//10 18//10
f 5//3 6//3 24//3 23//3
f 44//5 2//5 22//5 55//5
f 31//4 5//4 23//4 40//4
f 2//1 1//1 21//1 22//1
f 50//5 4//5 26//5 56//5
f 29//4 7//4 27//4 42//4
f 7//3 8//3 28//3 27//3
f 26//11 25//11 63//11 66//11
f 43//4 29//4 42//4 49//4
f 8//5 30//5 41//5 28//5
f 51//4 31//4 40//4 48//4
f 6//5 32//5 39//5 24//5
f 20//12 19//12 38//12 37//12
f 52//4 33//4 35//4 53//4
f 11//13 34//13 36//13 15//13
f 15//6 36//6 38//6 19//6
f 24//5 39//5 34//5 11//5
f 28//5 41//5 32//5 6//5
f 49//4 42//4 31//4 51//4
f 30//3 29//3 81//3 80//3
f 3//2 4//2 50//2 43//2
f 25//4 49//4 51//4 1//4
f 9//4 52//4 53//4 13//4
f 1//4 51//4 48//4 21//4
f 3//4 43//4 49//4 25//4
f 30//5 50//5 56//5 41//5
f 32//3 41//3 60//3 61//3
f 37//14 38//14 47//14 54//14
f 34//15 45//15 46//15 36//15
f 36//6 46//6 47//6 38//6
f 39//5 55//5 45//5 34//5
f 55//16 39//16 58//16 57//16
f 61//5 62//5 57//5 58//5
f 60//5 59//5 62//5 61//5
f 39//3 32//3 61//3 58//3
f 44//1 55//1 57//1 62//1
f 41//2 56//2 59//2 60//2
f 56//1 44//1 62//1 59//1
f 66//2 63//2 67//2 70//2
f 1//17 2//17 65//17 64//17
f 2//18 26//18 66//18 65//18
f 25//19 1//19 64//19 63//19
f 69//5 70//5 74//5 73//5
f 64//16 65//16 69//16 68//16
f 65//5 66//5 70//5 69//5
f 63//4 64//4 68//4 67//4
f 73//5 74//5 78//5 77//5
f 67//4 68//4 72//4 71//4
f 70//2 67//2 71//2 74//2
f 68//16 69//16 73//16 72//16
f 76//1 77//1 78//1 75//1
f 71//4 72//4 76//4 75//4
f 74//2 71//2 75//2 78//2
f 82//2 79//2 80//2 81//2
f 50//5 30//5 80//5 79//5
f 43//1 50//1 79//1 82//1
f 29//4 43//4 82//4 81//4
o Cube.048_Cube.024
v -563.196411 457.368896 181.867081
v -727.736145 343.255310 46.581047
v -423.395752 486.847504 -13.028702
v -587.297058 373.257782 -146.884796
v -677.759399 647.714783 55.478424
v -762.123474 589.205505 -13.886482
v -606.079712 662.829224 -44.450089
v -690.168701 604.482666 -113.451393
v -378.220520 489.343628 -443.772522
v -279.922455 548.049011 -389.792938
v -335.850952 659.870422 -409.556885
v -434.149017 601.164978 -463.536346
v -275.937927 526.377502 -631.011169
v -203.667023 569.539062 -591.324036
v -244.786804 651.752625 -605.855042
v -317.057800 608.591064 -645.541931
v -211.233215 552.303711 -747.660278
v -158.418518 583.845581 -718.657593
v -188.468445 643.926147 -729.276489
v -241.283203 612.384277 -758.279053
v -483.149048 593.627380 -17.008835
v -657.134399 473.096497 -158.896301
v -631.633667 562.311157 189.884430
v -806.312744 441.165527 46.261711
v -302.344208 606.144470 -402.998169
v -406.699707 543.821411 -460.303986
v -213.529083 613.242554 -614.170593
v -290.253601 567.421326 -656.303162
v -159.616333 616.682251 -747.274048
v -215.685516 583.196716 -778.064087
v -167.422302 555.495728 -830.912415
v -114.607605 587.037598 -801.909729
v -113.938354 625.613342 -840.167664
v -170.007690 592.127869 -870.957581
v -195.892273 620.433228 -849.690735
v -143.077698 651.975098 -820.687927
v -136.524963 558.970947 -890.956726
v -83.710327 590.512817 -861.954041
v -83.041077 629.088623 -900.211975
v -139.110352 595.603027 -931.002014
v -164.994934 623.908447 -909.734985
v -112.180176 655.450317 -880.732361
v -97.414062 545.087097 -918.663940
v -63.419617 565.389160 -899.996338
v -62.988892 590.218689 -924.621094
v -99.078003 568.665527 -944.439270
v -136.301575 630.660278 -974.243225
v -162.186096 658.965698 -952.976318
v -109.371460 690.507568 -923.973633
v -80.232239 664.145874 -943.453247
v -71.413269 534.299438 -937.556519
v -48.495178 547.986572 -924.971191
v -48.204834 564.725891 -941.572510
v -72.535095 550.195435 -954.933472
v -49.119568 533.059021 -963.844055
v -34.793152 541.614990 -955.976746
v -34.611633 552.078979 -966.354553
v -49.820801 542.995728 -974.706604
v -130.003723 659.738403 -988.968811
v -147.214600 678.559021 -974.828186
v -112.097473 699.531555 -955.543884
v -92.722412 682.003296 -968.496277
v -309.436584 471.747162 472.613312
v -294.250000 296.136597 307.301910
v -168.372559 601.766724 329.163727
v -155.980774 438.190674 169.099884
v -469.656250 549.473267 289.259460
v -461.869629 459.432800 204.499695
v -395.694122 622.507263 221.343262
v -390.975159 532.267944 133.639603
v 20.834412 691.046021 -60.036858
v 100.734802 671.297241 34.637199
v 68.691711 781.494263 85.226494
v -9.929749 802.120483 -7.704567
v 183.991272 799.044556 -152.814514
v 243.763855 782.867371 -83.340767
v 221.145325 864.531738 -44.864784
v 161.372742 880.708984 -114.338631
v 286.930969 868.078918 -208.523987
v 330.612000 856.256836 -157.753387
v 314.082703 915.936157 -129.635712
v 270.401672 927.758179 -180.406189
v -273.186066 643.151062 297.091156
v -264.824097 464.935303 119.805504
v -427.736420 500.559570 442.022430
v -411.613953 314.127258 266.524017
v 93.324280 726.403748 60.616570
v 7.015869 749.762817 -39.700005
v 248.006653 831.631287 -71.795174
v 184.550781 848.805359 -145.550079
v 343.438904 897.873169 -156.291595
v 297.066162 910.423828 -210.190735
v 356.168640 907.016724 -259.026459
v 399.849548 895.194519 -208.255798
v 418.412903 946.243530 -209.533081
v 372.040222 958.794006 -263.432220
v 344.493958 974.678467 -233.226837
v 388.174988 962.856384 -182.456177
v 405.606628 936.175537 -294.771240
v 449.287537 924.353394 -244.000458
v 467.851135 975.402405 -245.277954
v 421.478210 987.953003 -299.177032
v 393.932068 1003.837463 -268.971619
v 437.612976 992.015320 -218.200958
v 449.554504 930.406860 -317.693054
v 477.670105 922.797485 -285.014526
v 489.618591 955.655334 -285.836609
v 459.770447 963.733582 -320.529114
v 443.246033 1038.800049 -306.065216
v 415.699768 1054.684570 -275.859680
v 459.380798 1042.862549 -225.089142
v 489.618835 1026.249512 -252.166168
v 478.724060 925.731384 -334.324860
v 497.678894 920.601318 -312.293793
v 505.734314 942.753418 -312.848175
v 485.611511 948.199463 -336.236816
v 508.179993 933.673340 -350.414215
v 520.028748 930.466553 -336.642212
v 525.064026 944.313843 -336.988739
v 512.485291 947.718262 -351.609283
v 457.902893 1066.815186 -295.947388
v 439.587097 1077.376953 -275.863251
v 468.631042 1069.516235 -242.105255
v 488.736755 1058.470093 -260.109039
vn 0.4492 -0.8729 0.1904
vn -0.3751 0.8825 -0.2837
vn -0.4492 0.8729 -0.1904
vn -0.4386 -0.3493 0.8280
vn 0.3805 0.8341 0.3993
vn -0.6495 -0.5219 -0.5530
vn -0.4056 0.8859 -0.2248
vn 0.8087 0.4433 0.3866
vn -0.7789 -0.1116 -0.6171
vn 0.5232 -0.8507 0.0499
vn -0.7754 -0.3490 -0.5263
vn 0.8427 0.3963 0.3645
vn -0.7705 -0.3855 -0.5077
vn 0.4754 -0.8755 0.0865
vn 0.7475 0.5171 0.4170
vn 0.4815 -0.8734 0.0730
vn -0.3984 0.8858 -0.2379
vn 0.8627 0.3621 0.3531
vn 0.7598 0.5678 0.3168
vn 0.4246 -0.8853 0.1895
vn -0.7006 -0.5253 -0.4830
vn 0.7727 0.5361 0.3398
vn -0.6725 -0.5547 -0.4899
vn -0.6045 -0.4998 -0.6203
vn 0.5370 0.7753 0.3324
vn -0.8094 0.0014 -0.5872
vn 0.7073 0.4173 0.5706
vn -0.7324 0.4323 0.5260
vn -0.4338 0.8845 -0.1720
vn -0.7531 -0.5090 -0.4170
vn -0.4476 0.8825 -0.1446
vn 0.8001 0.4132 0.4349
vn -0.7506 -0.5129 -0.4166
vn -0.8027 -0.4087 -0.4343
vn 0.7457 0.4931 0.4482
vn 0.1431 -0.7890 0.5974
vn 0.7980 0.4174 0.4348
vn 0.7471 0.5196 0.4145
vn -0.8028 -0.4061 -0.4366
vn 0.4338 -0.8845 0.1720
vn 0.0908 0.5874 -0.8042
vn -0.5895 -0.6146 -0.5242
vn 0.9114 0.2817 0.3000
vn 0.1086 0.5682 -0.8157
vn 0.7129 0.6881 0.1351
vn -0.8057 -0.4334 -0.4037
vn -0.6280 0.6239 0.4651
vn 0.6280 -0.6239 -0.4651
vn -0.2006 0.8237 -0.5304
vn 0.8960 0.3048 0.3230
vn -0.6182 -0.5995 -0.5085
vn 0.1256 -0.7772 0.6166
vn 0.6298 -0.5525 -0.5460
vn 0.8911 0.3116 0.3298
vn -0.6268 -0.5947 -0.5035
vn 0.3426 -0.8789 0.3320
vn 0.0504 0.6290 -0.7758
vn -0.7321 -0.1748 -0.6584
vn 0.6220 -0.4568 -0.6360
vn -0.5981 0.7554 0.2676
vn 0.8131 -0.3672 0.4517
vn -0.4832 0.8649 -0.1356
vn -0.8099 0.3752 -0.4509
vn -0.3347 -0.6611 0.6715
vn -0.4081 0.8228 0.3954
vn 0.1130 -0.7472 -0.6549
vn -0.1873 0.9115 0.3662
vn 0.4461 0.5628 0.6959
vn -0.3622 -0.0774 -0.9289
vn 0.7129 -0.6745 0.1919
vn -0.5925 0.3174 -0.7404
vn 0.7162 -0.2177 0.6631
vn -0.5990 0.2781 -0.7509
vn 0.3018 -0.8449 -0.4417
vn 0.6254 -0.1201 0.7710
vn 0.3093 -0.8324 -0.4599
vn -0.1747 0.9151 0.3634
vn 0.7338 -0.2306 0.6391
vn 0.6772 -0.0262 0.7354
vn 0.2155 -0.8937 -0.3935
vn -0.5605 0.1392 -0.8163
vn 0.6655 -0.0469 0.7450
vn -0.5359 0.1131 -0.8367
vn -0.1447 -0.4975 -0.8553
vn 0.0038 0.8345 0.5511
vn -0.3384 -0.4660 -0.8175
vn 0.0272 0.7124 0.7013
vn -0.9508 -0.2519 0.1803
vn -0.2300 0.8853 0.4041
vn -0.6295 0.1277 -0.7664
vn -0.2524 0.8716 0.4202
vn 0.6547 -0.2232 0.7222
vn -0.6278 0.1239 -0.7684
vn -0.6568 0.2269 -0.7191
vn 0.6100 -0.1559 0.7769
vn -0.1713 -0.9819 -0.0813
vn 0.6533 -0.2194 0.7246
vn 0.6262 -0.1167 0.7709
vn -0.6557 0.2303 -0.7191
vn 0.2300 -0.8853 -0.4041
vn 0.4323 0.8864 -0.1655
vn -0.4549 0.0639 -0.8882
vn 0.7864 -0.2721 0.5545
vn 0.4502 0.8738 -0.1838
vn 0.7103 0.1867 0.6787
vn -0.6730 0.1914 -0.7144
vn -0.6595 0.3709 0.6538
vn 0.6595 -0.3709 -0.6538
vn 0.0997 0.9846 0.1435
vn 0.7674 -0.2644 0.5841
vn -0.4849 0.0745 -0.8714
vn -0.1925 -0.9793 -0.0624
vn 0.6978 -0.2703 -0.6633
vn 0.7615 -0.2621 0.5928
vn -0.4940 0.0777 -0.8660
vn 0.0920 -0.9494 -0.3002
vn 0.3905 0.9123 -0.1236
vn -0.4848 0.5102 -0.7104
vn 0.7334 -0.1437 -0.6644
vn -0.5479 0.5769 0.6058
usemtl Matériau.012
s off
f 83//20 84//20 86//20 85//20
f 90//21 89//21 93//21 94//21
f 89//22 90//22 88//22 87//22
f 105//23 106//23 84//23 83//23
f 103//24 89//24 87//24 105//24
f 104//25 86//25 84//25 106//25
f 94//26 93//26 97//26 98//26
f 103//27 85//27 92//27 107//27
f 104//28 90//28 94//28 108//28
f 85//29 86//29 91//29 92//29
f 110//30 98//30 102//30 112//30
f 107//31 92//31 96//31 109//31
f 108//32 94//32 98//32 110//32
f 92//33 91//33 95//33 96//33
f 101//34 111//34 115//34 118//34
f 96//35 95//35 99//35 100//35
f 98//36 97//36 101//36 102//36
f 109//37 96//37 100//37 111//37
f 97//38 109//38 111//38 101//38
f 100//39 99//39 113//39 114//39
f 91//40 108//40 110//40 95//40
f 93//41 107//41 109//41 97//41
f 95//42 110//42 112//42 99//42
f 86//43 104//43 108//43 91//43
f 89//44 103//44 107//44 93//44
f 90//45 104//45 106//45 88//45
f 85//46 103//46 105//46 83//46
f 87//47 88//47 106//47 105//47
f 117//48 118//48 124//48 123//48
f 113//49 116//49 122//49 119//49
f 102//50 101//50 118//50 117//50
f 111//51 100//51 114//51 115//51
f 99//52 112//52 116//52 113//52
f 112//53 102//53 117//53 116//53
f 124//54 121//54 132//54 131//54
f 120//55 119//55 125//55 126//55
f 115//56 114//56 120//56 121//56
f 118//57 115//57 121//57 124//57
f 116//58 117//58 123//58 122//58
f 114//59 113//59 119//59 120//59
f 128//60 127//60 135//60 136//60
f 119//61 122//61 128//61 125//61
f 121//62 120//62 126//62 127//62
f 122//63 121//63 127//63 128//63
f 131//64 132//64 144//64 143//64
f 122//65 123//65 130//65 129//65
f 123//66 124//66 131//66 130//66
f 121//67 122//67 129//67 132//67
f 136//68 135//68 139//68 140//68
f 127//69 126//69 134//69 135//69
f 125//70 128//70 136//70 133//70
f 126//71 125//71 133//71 134//71
f 138//72 137//72 140//72 139//72
f 135//73 134//73 138//73 139//73
f 133//74 136//74 140//74 137//74
f 134//75 133//75 137//75 138//75
f 144//76 141//76 142//76 143//76
f 129//77 130//77 142//77 141//77
f 132//78 129//78 141//78 144//78
f 130//79 131//79 143//79 142//79
f 145//80 146//80 148//80 147//80
f 152//81 151//81 155//81 156//81
f 151//82 152//82 150//82 149//82
f 167//83 168//83 146//83 145//83
f 165//84 151//84 149//84 167//84
f 166//85 148//85 146//85 168//85
f 156//86 155//86 159//86 160//86
f 165//87 147//87 154//87 169//87
f 166//88 152//88 156//88 170//88
f 147//89 148//89 153//89 154//89
f 172//90 160//90 164//90 174//90
f 169//91 154//91 158//91 171//91
f 170//92 156//92 160//92 172//92
f 154//93 153//93 157//93 158//93
f 163//94 173//94 177//94 180//94
f 158//95 157//95 161//95 162//95
f 160//96 159//96 163//96 164//96
f 171//97 158//97 162//97 173//97
f 159//98 171//98 173//98 163//98
f 162//99 161//99 175//99 176//99
f 153//100 170//100 172//100 157//100
f 155//101 169//101 171//101 159//101
f 157//102 172//102 174//102 161//102
f 148//103 166//103 170//103 153//103
f 151//104 165//104 169//104 155//104
f 152//105 166//105 168//105 150//105
f 147//106 165//106 167//106 145//106
f 149//107 150//107 168//107 167//107
f 179//108 180//108 186//108 185//108
f 175//109 178//109 184//109 181//109
f 164//110 163//110 180//110 179//110
f 173//111 162//111 176//111 177//111
f 161//112 174//112 178//112 175//112
f 174//113 164//113 179//113 178//113
f 186//114 183//114 194//114 193//114
f 182//115 181//115 187//115 188//115
f 177//116 176//116 182//116 183//116
f 180//117 177//117 183//117 186//117
f 178//118 179//118 185//118 184//118
f 176//119 175//119 181//119 182//119
f 190//120 189//120 197//120 198//120
f 181//121 184//121 190//121 187//121
f 183//122 182//122 188//122 189//122
f 184//123 183//123 189//123 190//123
f 193//124 194//124 206//124 205//124
f 184//125 185//125 192//125 191//125
f 185//126 186//126 193//126 192//126
f 183//127 184//127 191//127 194//127
f 198//128 197//128 201//128 202//128
f 189//129 188//129 196//129 197//129
f 187//130 190//130 198//130 195//130
f 188//131 187//131 195//131 196//131
f 200//132 199//132 202//132 201//132
f 197//133 196//133 200//133 201//133
f 195//134 198//134 202//134 199//134
f 196//135 195//135 199//135 200//135
f 206//136 203//136 204//136 205//136
f 191//137 192//137 204//137 203//137
f 194//138 191//138 203//138 206//138
f 192//139 193//139 205//139 204//139
