# Blender v2.91.2 OBJ File: 'camionnete02.blend'
# www.blender.org
mtllib arme_000087.mtl
o Cube.046_Cube.010
v 366.649200 352.620270 -1021.327881
v 367.915314 132.217163 -1021.274902
v 485.270447 353.257050 -1207.090332
v 486.536560 132.853958 -1207.037476
v 180.889954 351.524689 -1139.950806
v 182.156021 131.121567 -1139.897827
v 299.511169 352.161499 -1325.713257
v 300.777283 131.758362 -1325.660400
v 203.331253 351.743500 -765.569702
v 204.597351 131.340439 -765.516724
v 18.838100 130.244843 -884.139648
v 17.572010 350.647949 -884.192566
v 129.419189 351.346741 -649.822205
v 130.685272 130.943634 -649.769348
v -55.074036 129.848038 -768.392212
v -56.340126 350.251160 -768.445190
v 85.755219 351.112335 -581.443909
v 94.114136 190.828522 -592.739990
v -91.645210 189.732956 -711.362915
v -100.004105 350.016785 -700.066772
v 128.156982 571.068420 -649.875061
v -57.602276 569.972839 -768.498047
v 84.493050 570.834045 -581.496704
v -101.266228 569.738464 -700.119629
v 228.811874 351.880280 -805.472656
v 230.077972 131.477219 -805.419739
v 43.052601 350.784729 -924.095581
v 44.318665 130.381622 -924.042664
v 202.913315 424.500214 -765.587158
v 17.154047 423.404694 -884.210144
v 228.393921 424.636993 -805.490112
v 42.634636 423.541412 -924.112976
v 202.306976 530.058289 -765.612549
v 16.547697 528.962708 -884.235352
v 227.787537 530.195068 -805.515503
v 42.028301 529.099487 -924.138367
v 130.671768 424.112396 -652.455811
v -55.087540 423.016815 -771.078735
v 130.065384 529.670532 -652.481140
v -55.693905 528.574890 -771.104065
v 154.939651 708.000000 -693.080322
v -30.819626 706.904419 -811.703308
v 111.275681 707.765625 -624.702026
v -74.483551 706.669983 -743.324890
v 443.393463 353.032257 -1141.510498
v 444.659576 132.629150 -1141.457642
v 257.634186 351.936676 -1260.133301
v 258.900299 131.533554 -1260.080444
v 392.390808 352.709290 -1266.401855
v 393.656921 132.306152 -1266.348999
v 273.769592 352.072479 -1080.639404
v 275.035675 131.669373 -1080.586426
v 110.451637 351.195709 -824.881104
v 111.717712 130.792633 -824.828125
v 36.539539 350.798981 -709.133728
v 37.805614 130.395844 -709.080811
v -7.124417 350.564545 -640.755371
v 1.234482 190.280746 -652.051453
v 35.277336 570.520691 -709.186462
v -8.386593 570.286255 -640.808167
v 137.198318 130.929428 -864.731140
v 135.932236 351.332489 -864.784119
v 110.033684 423.952454 -824.898682
v 135.514282 424.089172 -864.801514
v 109.427338 529.510559 -824.923950
v 134.907928 529.647278 -864.826965
v 37.792110 423.564636 -711.767334
v 37.185745 529.122742 -711.792603
v 62.059998 707.452271 -752.391846
v 18.396044 707.217773 -684.013489
v 351.779907 132.081360 -1200.769043
v 350.513824 352.484467 -1200.821899
v 438.830627 352.983154 -1236.745972
v 321.475494 131.943268 -1050.930664
v 158.157532 131.066544 -795.172485
v 84.245422 130.669739 -679.425110
v 47.674301 190.554626 -622.395752
v 182.372055 351.606384 -835.128357
v 181.954102 424.363068 -835.145813
v 181.347733 529.921143 -835.171204
v 396.953674 352.758362 -1171.166260
v 440.096741 132.580063 -1236.693237
v 320.209381 352.346375 -1050.983765
v 156.891449 351.469604 -795.225464
v 82.979347 351.072845 -679.477966
v 39.315388 350.838440 -611.099609
v 81.717178 570.794556 -679.530762
v 38.053242 570.560120 -611.152466
v 183.638153 131.203323 -835.075439
v 156.473511 424.226349 -795.242920
v 155.867142 529.784424 -795.268250
v 84.231934 423.838531 -682.111572
v 83.625565 529.396606 -682.136841
v 108.499847 707.726135 -722.736023
v 64.835876 707.491638 -654.357727
v 398.219727 132.355255 -1171.113403
v 183.875214 89.935867 -835.065552
v 137.435379 89.661942 -864.721252
v 398.456787 91.087784 -1171.103516
v 352.016998 90.813873 -1200.759155
v 275.272736 90.401886 -1080.576538
v 321.712555 90.675797 -1050.920776
v 500.649750 291.907623 -1057.970215
v 466.714203 291.725433 -1004.826721
v 467.274170 194.265442 -1004.803162
v 501.209625 194.447617 -1057.946899
v 540.791382 292.144409 -1032.336548
v 506.855865 291.962219 -979.192993
v 507.415771 194.502228 -979.169556
v 541.351257 194.684387 -1032.313110
v 602.220886 292.506714 -993.108826
v 568.285339 292.324524 -939.965210
v 568.845215 194.864563 -939.941772
v 602.780701 195.046738 -993.085449
v 641.749939 292.739868 -967.866211
v 607.814392 292.557678 -914.722656
v 608.374390 195.097687 -914.699219
v 642.309814 195.279861 -967.842773
v 829.790344 134.672348 -1846.958008
v 783.350525 134.398453 -1876.613770
v 782.084290 354.801575 -1876.666748
v 828.524231 355.075470 -1847.010986
vn 0.8428 0.0050 0.5382
vn 0.5382 0.0029 -0.8428
vn -0.8428 -0.0050 -0.5382
vn -0.0057 1.0000 -0.0002
vn 0.0057 -1.0000 0.0002
vn -0.5382 -0.0029 0.8428
vn -0.3533 -0.7492 0.5602
vn -0.5358 -0.0871 0.8398
vn -0.8435 -0.0055 -0.5371
vn 0.8435 0.0055 0.5371
vn 0.5060 -0.3480 -0.7892
vn -0.5060 0.3480 0.7892
vn 0.8264 0.0046 -0.5630
vn -0.1631 -0.0007 0.9866
vn 0.4698 -0.8312 0.2972
vn 0.4602 0.8367 0.2968
usemtl Matériau.011
s off
f 45//1 46//1 4//1 3//1
f 49//2 50//2 8//2 7//2
f 47//3 48//3 6//3 5//3
f 26//1 25//1 9//1 10//1
f 72//4 47//4 5//4 51//4
f 96//5 46//5 2//5 74//5
f 10//1 9//1 13//1 14//1
f 84//6 9//6 29//6 90//6
f 89//5 26//5 10//5 75//5
f 27//3 28//3 11//3 12//3
f 76//7 14//7 18//7 77//7
f 75//5 10//5 14//5 76//5
f 12//3 11//3 15//3 16//3
f 53//4 12//4 16//4 55//4
f 86//8 77//8 18//8 17//8
f 16//9 15//9 19//9 20//9
f 16//3 20//3 24//3 22//3
f 14//10 13//10 17//10 18//10
f 59//11 22//11 42//11 69//11
f 86//6 17//6 23//6 88//6
f 17//1 13//1 21//1 23//1
f 55//2 16//2 22//2 59//2
f 5//3 6//3 28//3 27//3
f 74//5 2//5 26//5 89//5
f 51//4 5//4 27//4 62//4
f 2//1 1//1 25//1 26//1
f 32//3 30//3 34//3 36//3
f 62//2 27//2 32//2 64//2
f 27//3 12//3 30//3 32//3
f 9//1 25//1 31//1 29//1
f 66//4 36//4 34//4 65//4
f 90//5 29//5 37//5 92//5
f 64//2 32//2 36//2 66//2
f 29//1 31//1 35//1 33//1
f 92//6 37//6 39//6 93//6
f 29//1 33//1 39//1 37//1
f 34//3 30//3 38//3 40//3
f 65//4 34//4 40//4 68//4
f 69//4 42//4 44//4 70//4
f 23//1 21//1 41//1 43//1
f 88//12 23//12 43//12 95//12
f 22//3 24//3 44//3 42//3
f 82//5 4//5 46//5 96//5
f 49//4 7//4 47//4 72//4
f 7//3 8//3 48//3 47//3
f 46//13 45//13 103//13 106//13
f 73//4 49//4 72//4 81//4
f 8//5 50//5 71//5 48//5
f 24//12 60//12 70//12 44//12
f 94//4 69//4 70//4 95//4
f 91//4 65//4 68//4 93//4
f 38//6 67//6 68//6 40//6
f 79//2 64//2 66//2 80//2
f 30//5 63//5 67//5 38//5
f 80//4 66//4 65//4 91//4
f 78//2 62//2 64//2 79//2
f 83//4 51//4 62//4 78//4
f 6//5 52//5 61//5 28//5
f 85//2 55//2 59//2 87//2
f 20//6 57//6 60//6 24//6
f 87//11 59//11 69//11 94//11
f 20//8 19//8 58//8 57//8
f 84//4 53//4 55//4 85//4
f 11//5 54//5 56//5 15//5
f 15//7 56//7 58//7 19//7
f 28//5 61//5 54//5 11//5
f 12//6 53//6 63//6 30//6
f 48//5 71//5 52//5 6//5
f 81//4 72//4 51//4 83//4
f 50//3 49//3 121//3 120//3
f 3//2 4//2 82//2 73//2
f 45//4 81//4 83//4 1//4
f 9//4 84//4 85//4 13//4
f 21//11 87//11 94//11 41//11
f 13//2 85//2 87//2 21//2
f 1//4 83//4 78//4 25//4
f 25//2 78//2 79//2 31//2
f 35//4 80//4 91//4 33//4
f 31//2 79//2 80//2 35//2
f 33//4 91//4 93//4 39//4
f 41//4 94//4 95//4 43//4
f 3//4 73//4 81//4 45//4
f 50//5 82//5 96//5 71//5
f 60//12 88//12 95//12 70//12
f 67//6 92//6 93//6 68//6
f 63//5 90//5 92//5 67//5
f 52//3 71//3 100//3 101//3
f 57//6 86//6 88//6 60//6
f 57//8 58//8 77//8 86//8
f 54//5 75//5 76//5 56//5
f 56//7 76//7 77//7 58//7
f 61//5 89//5 75//5 54//5
f 53//6 84//6 90//6 63//6
f 89//6 61//6 98//6 97//6
f 101//5 102//5 97//5 98//5
f 100//5 99//5 102//5 101//5
f 61//3 52//3 101//3 98//3
f 74//1 89//1 97//1 102//1
f 71//2 96//2 99//2 100//2
f 96//1 74//1 102//1 99//1
f 106//2 103//2 107//2 110//2
f 1//14 2//14 105//14 104//14
f 2//15 46//15 106//15 105//15
f 45//16 1//16 104//16 103//16
f 109//5 110//5 114//5 113//5
f 104//6 105//6 109//6 108//6
f 105//5 106//5 110//5 109//5
f 103//4 104//4 108//4 107//4
f 113//5 114//5 118//5 117//5
f 107//4 108//4 112//4 111//4
f 110//2 107//2 111//2 114//2
f 108//6 109//6 113//6 112//6
f 116//1 117//1 118//1 115//1
f 111//4 112//4 116//4 115//4
f 114//2 111//2 115//2 118//2
f 122//2 119//2 120//2 121//2
f 82//5 50//5 120//5 119//5
f 73//1 82//1 119//1 122//1
f 49//4 73//4 122//4 121//4
o Cube.047_Cube.022
v -278.474976 557.147522 342.009644
v -275.902344 316.935181 315.761292
v -161.255280 581.342529 132.076981
v -158.682648 341.130188 105.828659
v -460.595886 515.015259 167.690369
v -459.276855 391.851654 154.232117
v -400.494080 527.420715 60.052032
v -399.175018 404.257111 46.593781
v -20.992950 439.754883 -253.520844
v -22.340485 565.579285 -239.771820
v -133.023956 571.077820 -300.940216
v -131.676392 445.253418 -314.689240
v 68.583435 478.691162 -446.786346
v 67.592651 571.200073 -436.677826
v -13.784332 575.242737 -481.650238
v -12.793549 482.733826 -491.758759
v 122.849182 505.177002 -568.522095
v 122.125122 572.781311 -561.134888
v 62.655884 575.735596 -594.000122
v 63.379944 508.131287 -601.387329
v -275.895996 592.153809 90.451042
v -273.164825 337.138824 62.585213
v -400.339172 566.467834 313.320435
v -397.608002 311.452820 285.454620
v -75.008896 572.765747 -274.794525
v -73.578293 439.187683 -289.390778
v 36.022430 577.960144 -475.237457
v 37.074249 479.750519 -485.968903
v 105.544220 579.061096 -600.937256
v 106.312897 507.290771 -608.779663
v 171.571014 514.441101 -648.527466
v 170.846954 582.045410 -641.140259
v 153.998291 589.557556 -692.247070
v 154.766968 517.787231 -700.089478
v 111.875183 518.438354 -690.959473
v 111.151123 586.042664 -683.572266
v 205.419647 521.157532 -706.675659
v 204.695648 588.761841 -699.288452
v 187.847015 596.274048 -750.395264
v 188.615692 524.503723 -758.237671
v 145.723877 525.154785 -749.107666
v 144.999817 592.759094 -741.720459
v 247.385651 536.244141 -729.067017
v 246.919586 579.757996 -724.312256
v 236.074921 584.593262 -757.207397
v 236.569672 538.397949 -762.255249
v 177.158539 530.307678 -812.475708
v 134.266754 530.958740 -803.345703
v 133.542694 598.563049 -795.958496
v 176.389862 602.078003 -804.633301
v 276.586456 545.330200 -743.698853
v 276.272247 574.666016 -740.493286
v 268.961090 577.925781 -762.670410
v 269.294586 546.782227 -766.073486
v 298.687164 553.866211 -768.764404
v 298.490753 572.204346 -766.760620
v 293.920502 574.242126 -780.623779
v 294.128998 554.773865 -782.751099
v 163.674347 545.219482 -838.892578
v 135.154999 545.652405 -832.821899
v 134.673553 590.603394 -827.910034
v 163.163239 592.940430 -833.678101
vn 0.8744 -0.0434 0.4832
vn -0.8054 0.0558 -0.5900
vn -0.8744 0.0434 -0.4832
vn -0.2356 -0.1081 0.9658
vn -0.4301 0.8923 -0.1373
vn 0.0644 -0.9948 -0.0787
vn -0.8341 0.0511 -0.5492
vn 0.1062 0.9943 0.0016
vn -0.2743 -0.8923 -0.3586
vn 0.9360 -0.0283 0.3509
vn -0.0442 -0.9677 -0.2480
vn 0.0976 0.9923 0.0764
vn -0.0196 -0.9762 -0.2160
vn 0.9094 -0.0355 0.4143
vn -0.0649 0.9947 0.0796
vn 0.9156 -0.0340 0.4007
vn -0.8257 0.0525 -0.5616
vn 0.1384 0.9872 0.0792
vn -0.0652 0.9973 -0.0333
vn 0.8556 -0.0472 0.5156
vn 0.1187 -0.9831 -0.1395
vn -0.0408 0.9992 -0.0001
vn 0.1595 -0.9779 -0.1355
vn 0.1273 -0.9687 -0.2129
vn -0.2939 0.9427 -0.1581
vn -0.4114 -0.8505 -0.3277
vn 0.0432 0.9895 0.1381
vn -0.9159 -0.0533 0.3978
vn -0.8656 0.0452 -0.4987
vn 0.0555 -0.9950 -0.0826
vn -0.8806 0.0421 -0.4719
vn 0.0385 0.9900 0.1360
vn 0.0598 -0.9949 -0.0809
vn -0.0436 -0.9896 -0.1372
vn -0.0574 0.9913 0.1182
vn 0.4936 -0.0892 0.8651
vn 0.0342 0.9904 0.1343
vn -0.0661 0.9949 0.0764
vn -0.0449 -0.9891 -0.1404
vn 0.8656 -0.0452 0.4987
vn -0.1420 0.1060 -0.9842
vn 0.2638 -0.9532 -0.1478
vn 0.2432 0.9680 0.0621
vn -0.1137 0.1067 -0.9878
vn -0.1283 0.9613 -0.2440
vn -0.0361 -0.9945 -0.0988
vn -0.9786 -0.0327 0.2032
vn 0.9786 0.0327 -0.2032
vn -0.5738 0.0829 -0.8148
vn 0.2100 0.9749 0.0741
vn 0.2307 -0.9632 -0.1377
vn 0.4686 -0.0910 0.8787
vn 0.9507 0.0437 -0.3070
vn 0.2000 0.9767 0.0776
vn 0.2205 -0.9661 -0.1346
vn 0.7591 -0.0627 0.6480
vn -0.2056 0.1041 -0.9731
vn -0.1084 -0.8884 -0.4461
vn 0.9018 0.0565 -0.4284
vn -0.9994 -0.0070 -0.0336
usemtl Matériau.012
s off
f 123//17 124//17 126//17 125//17
f 130//18 129//18 133//18 134//18
f 129//19 130//19 128//19 127//19
f 145//20 146//20 124//20 123//20
f 143//21 129//21 127//21 145//21
f 144//22 126//22 124//22 146//22
f 134//23 133//23 137//23 138//23
f 143//24 125//24 132//24 147//24
f 144//25 130//25 134//25 148//25
f 125//26 126//26 131//26 132//26
f 150//27 138//27 142//27 152//27
f 147//28 132//28 136//28 149//28
f 148//29 134//29 138//29 150//29
f 132//30 131//30 135//30 136//30
f 141//31 151//31 155//31 158//31
f 136//32 135//32 139//32 140//32
f 138//33 137//33 141//33 142//33
f 149//34 136//34 140//34 151//34
f 137//35 149//35 151//35 141//35
f 140//36 139//36 153//36 154//36
f 131//37 148//37 150//37 135//37
f 133//38 147//38 149//38 137//38
f 135//39 150//39 152//39 139//39
f 126//40 144//40 148//40 131//40
f 129//41 143//41 147//41 133//41
f 130//42 144//42 146//42 128//42
f 125//43 143//43 145//43 123//43
f 127//44 128//44 146//44 145//44
f 157//45 158//45 164//45 163//45
f 153//46 156//46 162//46 159//46
f 142//47 141//47 158//47 157//47
f 151//48 140//48 154//48 155//48
f 139//49 152//49 156//49 153//49
f 152//50 142//50 157//50 156//50
f 164//51 161//51 172//51 171//51
f 160//52 159//52 165//52 166//52
f 155//53 154//53 160//53 161//53
f 158//54 155//54 161//54 164//54
f 156//55 157//55 163//55 162//55
f 154//56 153//56 159//56 160//56
f 168//57 167//57 175//57 176//57
f 159//58 162//58 168//58 165//58
f 161//59 160//59 166//59 167//59
f 162//60 161//60 167//60 168//60
f 171//61 172//61 184//61 183//61
f 162//62 163//62 170//62 169//62
f 163//63 164//63 171//63 170//63
f 161//64 162//64 169//64 172//64
f 176//65 175//65 179//65 180//65
f 167//66 166//66 174//66 175//66
f 165//67 168//67 176//67 173//67
f 166//68 165//68 173//68 174//68
f 178//69 177//69 180//69 179//69
f 175//70 174//70 178//70 179//70
f 173//71 176//71 180//71 177//71
f 174//72 173//72 177//72 178//72
f 184//73 181//73 182//73 183//73
f 169//74 170//74 182//74 181//74
f 172//75 169//75 181//75 184//75
f 170//76 171//76 183//76 182//76
o Cube.048_Cube.024
v -555.470581 437.000366 167.924957
v -718.557617 314.705566 38.139801
v -413.992981 455.331482 -27.127930
v -577.079956 333.036682 -156.913086
v -669.290833 619.289795 29.556305
v -752.910095 556.585815 -36.988167
v -596.751282 628.688660 -70.452766
v -680.370544 565.984680 -136.997238
v -336.449707 441.084229 -453.965576
v -251.023926 505.142853 -385.983459
v -307.885803 613.894531 -417.006531
v -393.311584 549.835938 -484.988647
v -206.653534 480.289978 -622.806946
v -143.846558 527.387329 -572.824951
v -185.652679 607.343994 -595.633789
v -248.459625 560.246704 -645.615784
v -124.949280 507.612366 -727.896179
v -79.050781 542.030457 -691.369995
v -109.602173 600.461792 -708.038452
v -155.500610 566.043640 -744.564636
v -473.997314 561.515869 -37.919197
v -647.134216 431.684875 -175.702103
v -624.193237 542.055115 169.153488
v -797.330200 412.224121 31.370583
v -273.546082 561.916992 -403.917847
v -364.236084 493.910889 -476.089233
v -151.772339 570.247498 -597.912842
v -218.449677 520.247925 -650.974915
v -77.009521 574.367065 -720.503662
v -125.736450 537.828003 -759.280701
v -68.289856 511.707184 -802.952515
v -22.391357 546.125305 -766.426331
v -17.187622 584.146851 -804.890625
v -65.914551 547.607788 -843.667664
v -96.164917 574.949585 -827.517395
v -50.266479 609.367676 -790.991211
v -28.167725 515.798950 -857.225220
v 17.730713 550.217041 -820.699036
v 22.934448 588.238586 -859.163330
v -25.792480 551.699524 -897.940369
v -56.042725 579.041260 -881.790161
v -10.144287 613.459412 -845.263977
v 15.529358 503.398010 -877.886719
v 45.072083 525.551392 -854.376526
v 48.421509 550.024109 -879.134277
v 17.058228 526.505554 -904.093323
v -17.508118 586.238159 -940.895752
v -47.758423 613.579895 -924.745422
v -1.859985 647.998047 -888.219238
v 31.218811 622.777222 -902.118713
v 44.725647 493.591492 -892.055237
v 64.642578 508.526672 -876.205322
v 66.900635 525.025513 -892.896301
v 45.756348 509.169983 -909.723022
v 71.053955 493.040344 -914.328552
v 83.504272 502.376526 -904.420593
v 84.915894 512.690186 -914.854309
v 71.698364 502.778656 -925.372864
v -10.186035 615.372070 -955.025085
v -30.299744 633.552002 -944.286560
v 0.218750 656.437012 -919.999878
v 22.213135 639.667358 -929.241760
vn 0.4492 -0.8592 0.2451
vn -0.3709 0.8618 -0.3460
vn -0.4492 0.8591 -0.2451
vn -0.4453 -0.3011 0.8433
vn 0.3755 0.8570 0.3529
vn -0.6460 -0.5580 -0.5210
vn -0.4024 0.8624 -0.3070
vn 0.7767 0.4677 0.4218
vn -0.7389 -0.1387 -0.6594
vn 0.5301 -0.8388 0.1243
vn -0.6625 -0.3928 -0.6378
vn 0.7532 0.4410 0.4882
vn -0.6591 -0.4288 -0.6179
vn 0.4933 -0.8507 0.1817
vn 0.6454 0.5578 0.5218
vn 0.5015 -0.8484 0.1693
vn -0.3931 0.8625 -0.3188
vn 0.7763 0.4076 0.4810
vn 0.6716 0.6076 0.4239
vn 0.4269 -0.8614 0.2753
vn -0.5880 -0.5647 -0.5791
vn 0.6821 0.5769 0.4494
vn -0.5579 -0.5929 -0.5807
vn -0.5561 -0.5317 -0.6388
vn 0.5069 0.7955 0.3320
vn -0.8078 -0.0302 -0.5887
vn 0.7012 0.4523 0.5511
vn -0.7379 0.4606 0.4932
vn -0.4387 0.8604 -0.2595
vn -0.6512 -0.5499 -0.5229
vn -0.4568 0.8581 -0.2346
vn 0.6989 0.4568 0.5503
vn -0.6487 -0.5537 -0.5221
vn -0.7018 -0.4524 -0.5503
vn 0.6396 0.5342 0.5528
vn 0.0784 -0.7729 0.6297
vn 0.6967 0.4608 0.5498
vn 0.6453 0.5602 0.5193
vn -0.7016 -0.4498 -0.5526
vn 0.4387 -0.8604 0.2595
vn 0.1950 0.5797 -0.7912
vn -0.4678 -0.6492 -0.5997
vn 0.8365 0.3289 0.4383
vn 0.2152 0.5612 -0.7992
vn 0.6498 0.7230 0.2345
vn -0.7086 -0.4768 -0.5201
vn -0.7228 0.5999 0.3430
vn 0.7228 -0.5999 -0.3430
vn -0.1476 0.8057 -0.5737
vn 0.8165 0.3515 0.4579
vn -0.4993 -0.6352 -0.5892
vn 0.0574 -0.7616 0.6455
vn 0.7346 -0.5296 -0.4241
vn 0.8104 0.3582 0.4637
vn -0.5088 -0.6308 -0.5859
vn 0.3224 -0.8569 0.4023
vn 0.1486 0.6197 -0.7707
vn -0.6060 -0.2186 -0.7649
vn 0.7374 -0.4357 -0.5161
vn -0.6669 0.7299 0.1502
usemtl Matériau.012
s off
f 185//77 186//77 188//77 187//77
f 192//78 191//78 195//78 196//78
f 191//79 192//79 190//79 189//79
f 207//80 208//80 186//80 185//80
f 205//81 191//81 189//81 207//81
f 206//82 188//82 186//82 208//82
f 196//83 195//83 199//83 200//83
f 205//84 187//84 194//84 209//84
f 206//85 192//85 196//85 210//85
f 187//86 188//86 193//86 194//86
f 212//87 200//87 204//87 214//87
f 209//88 194//88 198//88 211//88
f 210//89 196//89 200//89 212//89
f 194//90 193//90 197//90 198//90
f 203//91 213//91 217//91 220//91
f 198//92 197//92 201//92 202//92
f 200//93 199//93 203//93 204//93
f 211//94 198//94 202//94 213//94
f 199//95 211//95 213//95 203//95
f 202//96 201//96 215//96 216//96
f 193//97 210//97 212//97 197//97
f 195//98 209//98 211//98 199//98
f 197//99 212//99 214//99 201//99
f 188//100 206//100 210//100 193//100
f 191//101 205//101 209//101 195//101
f 192//102 206//102 208//102 190//102
f 187//103 205//103 207//103 185//103
f 189//104 190//104 208//104 207//104
f 219//105 220//105 226//105 225//105
f 215//106 218//106 224//106 221//106
f 204//107 203//107 220//107 219//107
f 213//108 202//108 216//108 217//108
f 201//109 214//109 218//109 215//109
f 214//110 204//110 219//110 218//110
f 226//111 223//111 234//111 233//111
f 222//112 221//112 227//112 228//112
f 217//113 216//113 222//113 223//113
f 220//114 217//114 223//114 226//114
f 218//115 219//115 225//115 224//115
f 216//116 215//116 221//116 222//116
f 230//117 229//117 237//117 238//117
f 221//118 224//118 230//118 227//118
f 223//119 222//119 228//119 229//119
f 224//120 223//120 229//120 230//120
f 233//121 234//121 246//121 245//121
f 224//122 225//122 232//122 231//122
f 225//123 226//123 233//123 232//123
f 223//124 224//124 231//124 234//124
f 238//125 237//125 241//125 242//125
f 229//126 228//126 236//126 237//126
f 227//127 230//127 238//127 235//127
f 228//128 227//128 235//128 236//128
f 240//129 239//129 242//129 241//129
f 237//130 236//130 240//130 241//130
f 235//131 238//131 242//131 239//131
f 236//132 235//132 239//132 240//132
f 246//133 243//133 244//133 245//133
f 231//134 232//134 244//134 243//134
f 234//135 231//135 243//135 246//135
f 232//136 233//136 245//136 244//136
