# Blender v2.91.2 OBJ File: 'camionnete02.blend'
# www.blender.org
mtllib arme_000089.mtl
o Cube.046_Cube.010
v 333.714020 694.277161 -1039.703613
v 318.590607 479.098572 -1084.964844
v 434.841980 727.756165 -1232.658081
v 419.718536 512.577637 -1277.919312
v 138.461578 728.283936 -1136.135620
v 123.338089 513.105347 -1181.396729
v 239.589462 761.762939 -1329.089722
v 224.466034 546.584412 -1374.351318
v 194.480927 648.183105 -774.043640
v 179.357468 433.004578 -819.304993
v -15.895000 467.011353 -915.736816
v -0.771533 682.189941 -870.475464
v 131.468826 627.322571 -653.814941
v 116.345352 412.144043 -699.076416
v -78.907158 446.150757 -795.508179
v -63.783688 661.329346 -750.246887
v 94.244072 614.999023 -582.789307
v 89.612366 460.508789 -627.506836
v -105.640175 494.515564 -723.938721
v -101.008453 649.005859 -679.221130
v 216.203873 655.374634 -815.491394
v 201.080414 440.196106 -860.752747
v 20.951370 689.381409 -911.923340
v 5.827886 474.202881 -957.184631
v 399.140686 715.937012 -1164.539185
v 384.017242 500.758545 -1209.800537
v 203.888199 749.943787 -1260.970947
v 188.764755 534.765259 -1306.232422
v 337.215729 744.759583 -1280.873779
v 322.092285 529.581055 -1326.135376
v 236.087814 711.280518 -1087.919556
v 220.964340 496.101929 -1133.180908
v 96.854706 665.186523 -822.259521
v 81.731224 450.007935 -867.520874
v 33.842571 644.325989 -702.030945
v 22.314812 435.639038 -731.711365
v -3.382167 632.002502 -631.005249
v 4.288690 468.251587 -683.451904
v 103.454140 457.199463 -908.968689
v 118.577621 672.378052 -863.707397
v 286.390930 517.761841 -1258.016479
v 301.514465 732.940430 -1212.755005
v 386.028900 736.257874 -1256.765747
v 269.777466 487.600281 -1109.072998
v 130.544327 441.506287 -843.412964
v 55.229614 429.906372 -715.455322
v 37.203506 462.518860 -667.195801
v 167.390747 663.876282 -839.599365
v 350.327576 724.438782 -1188.647095
v 370.905426 521.079346 -1302.027344
v 284.900940 702.778931 -1063.811646
v 145.667801 656.684814 -798.151611
v 82.655685 635.824219 -677.922913
v 45.430943 623.500793 -606.897217
v 152.267273 448.697815 -884.860779
v 335.204071 509.260193 -1233.908569
v 149.435638 408.408539 -893.335327
v 100.622482 416.910217 -917.443237
v 332.372406 468.970947 -1242.383057
v 283.559326 477.472656 -1266.490967
v 218.132706 455.812744 -1141.655518
v 266.945831 447.311035 -1117.547485
v 458.984283 635.545898 -1101.694214
v 430.053253 625.968079 -1046.493286
v 423.365967 530.818298 -1066.507324
v 452.296844 540.396179 -1121.708496
v 501.177277 628.197266 -1080.855957
v 472.246307 618.619507 -1025.654907
v 465.558929 523.469727 -1045.668945
v 494.489868 533.047485 -1100.870117
v 565.746033 616.951477 -1048.966553
v 536.815063 607.373657 -993.765564
v 530.127625 512.223938 -1013.779602
v 559.058594 521.801758 -1068.980835
v 607.295288 609.714905 -1028.446289
v 578.364258 600.137085 -973.245178
v 571.676941 504.987427 -993.259216
v 600.607849 514.565186 -1048.460205
v 703.130127 631.064575 -1935.918945
v 654.316956 639.566284 -1960.026733
v 669.440308 854.744812 -1914.765625
v 718.253479 846.243164 -1890.657593
vn 0.8859 -0.1543 0.4375
vn 0.4588 0.1519 -0.8754
vn -0.8859 0.1543 -0.4375
vn 0.0686 0.9763 0.2054
vn -0.0686 -0.9763 -0.2054
vn -0.3561 -0.8305 0.4282
vn -0.1528 -0.9654 -0.2114
vn -0.5349 -0.2472 0.8080
vn -0.8865 0.1536 -0.4365
vn 0.8865 -0.1536 0.4365
vn 0.7704 0.0789 -0.6326
vn -0.4253 -0.2680 0.8645
vn -0.0473 -0.9863 -0.1583
vn -0.4639 -0.2898 0.8371
vn -0.0987 -0.9842 -0.1473
vn -0.4588 -0.1519 0.8754
vn -0.0732 -0.2004 0.9770
vn 0.4316 -0.8993 0.0701
vn 0.5460 0.7291 0.4127
usemtl Matériau.011
s off
f 25//1 26//1 4//1 3//1
f 29//2 30//2 8//2 7//2
f 27//3 28//3 6//3 5//3
f 22//1 21//1 9//1 10//1
f 42//4 27//4 5//4 31//4
f 56//5 26//5 2//5 44//5
f 10//1 9//1 13//1 14//1
f 55//5 22//5 10//5 45//5
f 23//3 24//3 11//3 12//3
f 46//6 14//6 18//6 47//6
f 45//7 10//7 14//7 46//7
f 12//3 11//3 15//3 16//3
f 33//4 12//4 16//4 35//4
f 54//8 47//8 18//8 17//8
f 16//9 15//9 19//9 20//9
f 14//10 13//10 17//10 18//10
f 5//3 6//3 24//3 23//3
f 44//5 2//5 22//5 55//5
f 31//4 5//4 23//4 40//4
f 2//1 1//1 21//1 22//1
f 50//5 4//5 26//5 56//5
f 29//4 7//4 27//4 42//4
f 7//3 8//3 28//3 27//3
f 26//11 25//11 63//11 66//11
f 43//4 29//4 42//4 49//4
f 8//5 30//5 41//5 28//5
f 51//4 31//4 40//4 48//4
f 6//5 32//5 39//5 24//5
f 20//12 19//12 38//12 37//12
f 52//4 33//4 35//4 53//4
f 11//13 34//13 36//13 15//13
f 15//6 36//6 38//6 19//6
f 24//5 39//5 34//5 11//5
f 28//5 41//5 32//5 6//5
f 49//4 42//4 31//4 51//4
f 30//3 29//3 81//3 80//3
f 3//2 4//2 50//2 43//2
f 25//4 49//4 51//4 1//4
f 9//4 52//4 53//4 13//4
f 1//4 51//4 48//4 21//4
f 3//4 43//4 49//4 25//4
f 30//5 50//5 56//5 41//5
f 32//3 41//3 60//3 61//3
f 37//14 38//14 47//14 54//14
f 34//15 45//15 46//15 36//15
f 36//6 46//6 47//6 38//6
f 39//5 55//5 45//5 34//5
f 55//16 39//16 58//16 57//16
f 61//5 62//5 57//5 58//5
f 60//5 59//5 62//5 61//5
f 39//3 32//3 61//3 58//3
f 44//1 55//1 57//1 62//1
f 41//2 56//2 59//2 60//2
f 56//1 44//1 62//1 59//1
f 66//2 63//2 67//2 70//2
f 1//17 2//17 65//17 64//17
f 2//18 26//18 66//18 65//18
f 25//19 1//19 64//19 63//19
f 69//5 70//5 74//5 73//5
f 64//16 65//16 69//16 68//16
f 65//5 66//5 70//5 69//5
f 63//4 64//4 68//4 67//4
f 73//5 74//5 78//5 77//5
f 67//4 68//4 72//4 71//4
f 70//2 67//2 71//2 74//2
f 68//16 69//16 73//16 72//16
f 76//1 77//1 78//1 75//1
f 71//4 72//4 76//4 75//4
f 74//2 71//2 75//2 78//2
f 82//2 79//2 80//2 81//2
f 50//5 30//5 80//5 79//5
f 43//1 50//1 79//1 82//1
f 29//4 43//4 82//4 81//4
o Cube.048_Cube.024
v -563.997925 473.057709 182.191391
v -732.995239 348.825775 62.175156
v -422.438141 469.667084 -13.632202
v -591.089233 344.060364 -135.063477
v -669.668945 649.214050 30.096325
v -756.318542 585.516846 -31.439354
v -597.087219 647.475586 -70.307915
v -683.586365 583.398438 -131.513306
v -363.152161 462.049500 -463.397308
v -267.498291 507.066406 -393.780975
v -318.975128 622.637756 -397.784271
v -414.628967 577.620850 -467.400604
v -246.799438 526.306946 -634.349182
v -176.472473 559.404419 -583.165649
v -214.319458 644.375061 -586.109009
v -284.646362 611.277649 -637.292542
v -173.258545 569.113464 -740.298340
v -121.864624 593.300598 -702.893982
v -149.522644 655.395996 -705.045044
v -200.916687 631.208862 -742.449219
v -477.442993 577.263611 -32.605270
v -656.484619 444.239014 -160.089447
v -627.765259 580.977051 175.265625
v -807.176636 449.089508 47.853653
v -287.416046 567.357117 -398.308624
v -388.964478 519.566223 -472.214935
v -183.546143 606.677124 -598.801208
v -258.206818 571.540161 -653.138794
v -120.164734 630.519775 -725.486938
v -174.725708 604.842041 -765.196228
v -123.527893 584.672546 -818.690186
v -72.133911 608.859741 -781.285950
v -67.734253 653.289612 -812.251099
v -122.295288 627.611938 -851.960388
v -148.901245 652.870300 -827.926453
v -97.507141 677.057495 -790.522217
v -88.328796 597.076050 -875.074646
v -36.934937 621.263245 -837.670410
v -32.535217 665.692932 -868.635681
v -87.096252 640.015381 -908.344910
v -113.702087 665.273743 -884.311096
v -62.308105 689.460876 -846.906799
v -47.702881 586.613159 -902.096680
v -14.622986 602.181335 -878.021179
v -11.791016 630.778809 -897.952271
v -46.909546 614.251221 -923.511230
v -80.296692 681.740967 -944.669189
v -106.902466 706.999329 -920.635315
v -55.508606 731.186462 -883.231018
v -25.735657 707.418518 -904.959961
v -20.701294 578.203125 -920.791992
v 1.600403 588.698730 -904.561035
v 3.509583 607.978333 -917.997925
v -20.166382 596.835938 -935.229065
v 3.379456 580.584167 -945.369141
v 17.320435 587.145142 -935.223083
v 18.513855 599.197083 -943.622559
v 3.713867 592.231812 -954.394104
v -72.214722 712.631104 -953.753479
v -89.905396 729.425720 -937.772949
v -55.732788 745.508057 -912.902344
v -35.936401 729.704468 -927.350342
v -321.873962 572.413574 398.441132
v -299.169373 339.388763 338.595337
v -170.846680 620.903870 218.598358
v -151.572693 400.350525 157.221466
v -470.375305 550.004089 191.618759
v -458.734009 430.525787 160.934158
v -392.062500 582.752014 101.164711
v -383.057098 461.782501 67.938690
v 41.146179 523.409546 -154.707031
v 112.444397 562.901672 -59.130089
v 68.340942 679.535034 -73.997704
v -1.944397 641.630981 -168.472931
v 205.382385 586.515503 -280.943298
v 258.788452 614.247925 -209.951935
v 227.107239 701.166992 -220.072845
v 173.701233 673.434692 -291.064453
v 308.659973 628.526489 -358.626801
v 347.688293 648.792908 -306.747070
v 324.536072 712.312256 -314.143280
v 285.507812 692.045837 -366.023071
v -273.840698 639.766296 164.513031
v -257.086243 398.293457 95.134758
v -437.881958 580.959595 351.219147
v -413.778259 333.575073 287.685455
v 98.647034 622.506226 -65.624504
v 21.531555 582.462158 -168.132477
v 258.641846 662.282593 -224.846954
v 201.944763 632.841248 -300.213135
v 357.547302 686.535522 -326.160614
v 316.113892 665.020203 -381.237213
v 379.928040 643.777222 -418.198273
v 418.956360 664.043579 -366.318573
v 434.167664 709.092896 -392.613068
v 392.734314 687.577515 -447.689789
v 361.305481 713.480103 -431.417755
v 400.333801 733.746460 -379.538177
v 430.695129 655.986938 -461.159454
v 469.723572 676.253418 -409.279724
v 484.934998 721.302673 -435.574310
v 443.501404 699.787354 -490.650848
v 412.072693 725.689819 -474.378998
v 451.101013 745.956299 -422.499329
v 477.010559 644.194519 -475.509979
v 502.131531 657.239136 -442.117340
v 511.922302 686.235291 -459.041901
v 485.253479 672.386780 -494.492340
v 462.472107 742.171692 -521.479553
v 431.043396 768.074219 -505.207550
v 470.071716 788.340576 -453.327972
v 503.905579 763.687012 -466.402863
v 507.949768 634.925903 -485.815277
v 524.885437 643.720093 -463.302826
v 531.486511 663.268555 -474.713043
v 513.506775 653.932373 -498.612579
v 538.291443 636.761963 -502.112579
v 548.878113 642.259338 -488.039581
v 553.004211 654.479248 -495.172394
v 541.765076 648.643127 -510.112091
v 474.167908 772.847595 -526.403137
v 453.270447 790.070496 -515.583679
v 479.220886 803.545776 -481.088287
v 501.717468 787.153381 -489.781891
vn 0.4098 -0.8567 0.3133
vn -0.3189 0.8976 -0.3044
vn -0.4098 0.8566 -0.3135
vn -0.4561 -0.2141 0.8638
vn 0.4163 0.8632 0.2857
vn -0.6759 -0.5638 -0.4747
vn -0.3656 0.9258 -0.0963
vn 0.8177 0.4200 0.3937
vn -0.7617 -0.0953 -0.6408
vn 0.4989 -0.8629 0.0804
vn -0.7444 -0.2258 -0.6284
vn 0.8243 0.2972 0.4819
vn -0.7418 -0.2651 -0.6160
vn 0.4453 -0.8948 -0.0332
vn 0.7287 0.4109 0.5479
vn 0.4525 -0.8906 -0.0458
vn -0.3574 0.9276 -0.1088
vn 0.8442 0.2646 0.4662
vn 0.7495 0.4772 0.4588
vn 0.3871 -0.9199 0.0630
vn -0.6774 -0.4096 -0.6110
vn 0.7599 0.4417 0.4769
vn -0.6497 -0.4384 -0.6210
vn -0.6130 -0.4879 -0.6215
vn 0.5518 0.7640 0.3344
vn -0.8093 -0.0381 -0.5862
vn 0.7232 0.4604 0.5148
vn -0.7142 0.5312 0.4558
vn -0.3974 0.9164 -0.0465
vn -0.7341 -0.4026 -0.5468
vn -0.4133 0.9104 -0.0208
vn 0.7772 0.3035 0.5512
vn -0.7317 -0.4066 -0.5470
vn -0.7798 -0.2991 -0.5500
vn 0.7241 0.3820 0.5743
vn 0.0797 -0.8834 0.4618
vn 0.7752 0.3077 0.5516
vn 0.7286 0.4137 0.5459
vn -0.7796 -0.2961 -0.5518
vn 0.3974 -0.9164 0.0465
vn 0.1633 0.7109 -0.6840
vn -0.5660 -0.4947 -0.6594
vn 0.8945 0.1926 0.4035
vn 0.1813 0.6933 -0.6974
vn 0.7188 0.6282 0.2978
vn -0.7856 -0.3285 -0.5244
vn -0.6435 0.5596 0.5223
vn 0.6435 -0.5596 -0.5223
vn -0.1409 0.9083 -0.3938
vn 0.8781 0.2121 0.4290
vn -0.5953 -0.4814 -0.6433
vn 0.0611 -0.8743 0.4815
vn 0.6529 -0.4756 -0.5896
vn 0.8729 0.2178 0.4365
vn -0.6042 -0.4771 -0.6382
vn 0.2952 -0.9345 0.1987
vn 0.1220 0.7486 -0.6517
vn -0.6873 -0.0336 -0.7256
vn 0.6540 -0.3658 -0.6621
vn -0.5961 0.7213 0.3527
vn 0.7810 -0.0928 0.6176
vn -0.4951 0.6523 -0.5739
vn -0.7788 0.0978 -0.6196
vn -0.3802 -0.2646 0.8862
vn -0.4225 0.9036 -0.0709
vn 0.1421 -0.9674 -0.2095
vn -0.2826 0.9452 -0.1637
vn 0.3808 0.8492 0.3658
vn -0.2982 -0.5400 -0.7871
vn 0.7148 -0.4606 0.5262
vn -0.5345 -0.1666 -0.8286
vn 0.6583 0.2278 0.7174
vn -0.5373 -0.2063 -0.8178
vn 0.3993 -0.9141 0.0700
vn 0.5511 0.3546 0.7554
vn 0.4079 -0.9117 0.0493
vn -0.2700 0.9482 -0.1673
vn 0.6792 0.2050 0.7047
vn 0.6000 0.4225 0.6794
vn 0.3122 -0.9407 0.1326
vn -0.4834 -0.3541 -0.8006
vn 0.5899 0.4065 0.6977
vn -0.4552 -0.3841 -0.8033
vn -0.0759 -0.8523 -0.5175
vn -0.0472 0.9941 0.0980
vn -0.2959 -0.8065 -0.5119
vn -0.0071 0.9613 0.2753
vn -0.9624 -0.1516 0.2254
vn -0.3271 0.9373 -0.1201
vn -0.5561 -0.3461 -0.7556
vn -0.3501 0.9313 -0.1005
vn 0.5919 0.2448 0.7680
vn -0.5540 -0.3503 -0.7552
vn -0.5945 -0.2403 -0.7674
vn 0.5376 0.3252 0.7779
vn -0.0975 -0.9000 0.4249
vn 0.5900 0.2490 0.7680
vn 0.5517 0.3575 0.7535
vn -0.5937 -0.2373 -0.7690
vn 0.3271 -0.9373 0.1201
vn 0.3877 0.7216 -0.5736
vn -0.3664 -0.4436 -0.8179
vn 0.7427 0.1323 0.6564
vn 0.4081 0.7035 -0.5818
vn 0.6246 0.5796 0.5233
vn -0.6088 -0.2701 -0.7459
vn -0.7449 0.5770 0.3350
vn 0.7449 -0.5770 -0.3350
vn 0.0200 0.9261 -0.3768
vn 0.7203 0.1518 0.6768
vn -0.3985 -0.4292 -0.8105
vn -0.1207 -0.8905 0.4387
vn 0.7772 -0.4916 -0.3927
vn 0.7135 0.1576 0.6827
vn -0.4083 -0.4247 -0.8080
vn 0.1838 -0.9546 0.2346
vn 0.3404 0.7604 -0.5531
vn -0.4432 0.0252 -0.8961
vn 0.8044 -0.3800 -0.4567
vn -0.6428 0.7411 0.1941
usemtl Matériau.012
s off
f 83//20 84//20 86//20 85//20
f 90//21 89//21 93//21 94//21
f 89//22 90//22 88//22 87//22
f 105//23 106//23 84//23 83//23
f 103//24 89//24 87//24 105//24
f 104//25 86//25 84//25 106//25
f 94//26 93//26 97//26 98//26
f 103//27 85//27 92//27 107//27
f 104//28 90//28 94//28 108//28
f 85//29 86//29 91//29 92//29
f 110//30 98//30 102//30 112//30
f 107//31 92//31 96//31 109//31
f 108//32 94//32 98//32 110//32
f 92//33 91//33 95//33 96//33
f 101//34 111//34 115//34 118//34
f 96//35 95//35 99//35 100//35
f 98//36 97//36 101//36 102//36
f 109//37 96//37 100//37 111//37
f 97//38 109//38 111//38 101//38
f 100//39 99//39 113//39 114//39
f 91//40 108//40 110//40 95//40
f 93//41 107//41 109//41 97//41
f 95//42 110//42 112//42 99//42
f 86//43 104//43 108//43 91//43
f 89//44 103//44 107//44 93//44
f 90//45 104//45 106//45 88//45
f 85//46 103//46 105//46 83//46
f 87//47 88//47 106//47 105//47
f 117//48 118//48 124//48 123//48
f 113//49 116//49 122//49 119//49
f 102//50 101//50 118//50 117//50
f 111//51 100//51 114//51 115//51
f 99//52 112//52 116//52 113//52
f 112//53 102//53 117//53 116//53
f 124//54 121//54 132//54 131//54
f 120//55 119//55 125//55 126//55
f 115//56 114//56 120//56 121//56
f 118//57 115//57 121//57 124//57
f 116//58 117//58 123//58 122//58
f 114//59 113//59 119//59 120//59
f 128//60 127//60 135//60 136//60
f 119//61 122//61 128//61 125//61
f 121//62 120//62 126//62 127//62
f 122//63 121//63 127//63 128//63
f 131//64 132//64 144//64 143//64
f 122//65 123//65 130//65 129//65
f 123//66 124//66 131//66 130//66
f 121//67 122//67 129//67 132//67
f 136//68 135//68 139//68 140//68
f 127//69 126//69 134//69 135//69
f 125//70 128//70 136//70 133//70
f 126//71 125//71 133//71 134//71
f 138//72 137//72 140//72 139//72
f 135//73 134//73 138//73 139//73
f 133//74 136//74 140//74 137//74
f 134//75 133//75 137//75 138//75
f 144//76 141//76 142//76 143//76
f 129//77 130//77 142//77 141//77
f 132//78 129//78 141//78 144//78
f 130//79 131//79 143//79 142//79
f 145//80 146//80 148//80 147//80
f 152//81 151//81 155//81 156//81
f 151//82 152//82 150//82 149//82
f 167//83 168//83 146//83 145//83
f 165//84 151//84 149//84 167//84
f 166//85 148//85 146//85 168//85
f 156//86 155//86 159//86 160//86
f 165//87 147//87 154//87 169//87
f 166//88 152//88 156//88 170//88
f 147//89 148//89 153//89 154//89
f 172//90 160//90 164//90 174//90
f 169//91 154//91 158//91 171//91
f 170//92 156//92 160//92 172//92
f 154//93 153//93 157//93 158//93
f 163//94 173//94 177//94 180//94
f 158//95 157//95 161//95 162//95
f 160//96 159//96 163//96 164//96
f 171//97 158//97 162//97 173//97
f 159//98 171//98 173//98 163//98
f 162//99 161//99 175//99 176//99
f 153//100 170//100 172//100 157//100
f 155//101 169//101 171//101 159//101
f 157//102 172//102 174//102 161//102
f 148//103 166//103 170//103 153//103
f 151//104 165//104 169//104 155//104
f 152//105 166//105 168//105 150//105
f 147//106 165//106 167//106 145//106
f 149//107 150//107 168//107 167//107
f 179//108 180//108 186//108 185//108
f 175//109 178//109 184//109 181//109
f 164//110 163//110 180//110 179//110
f 173//111 162//111 176//111 177//111
f 161//112 174//112 178//112 175//112
f 174//113 164//113 179//113 178//113
f 186//114 183//114 194//114 193//114
f 182//115 181//115 187//115 188//115
f 177//116 176//116 182//116 183//116
f 180//117 177//117 183//117 186//117
f 178//118 179//118 185//118 184//118
f 176//119 175//119 181//119 182//119
f 190//120 189//120 197//120 198//120
f 181//121 184//121 190//121 187//121
f 183//122 182//122 188//122 189//122
f 184//123 183//123 189//123 190//123
f 193//124 194//124 206//124 205//124
f 184//125 185//125 192//125 191//125
f 185//126 186//126 193//126 192//126
f 183//127 184//127 191//127 194//127
f 198//128 197//128 201//128 202//128
f 189//129 188//129 196//129 197//129
f 187//130 190//130 198//130 195//130
f 188//131 187//131 195//131 196//131
f 200//132 199//132 202//132 201//132
f 197//133 196//133 200//133 201//133
f 195//134 198//134 202//134 199//134
f 196//135 195//135 199//135 200//135
f 206//136 203//136 204//136 205//136
f 191//137 192//137 204//137 203//137
f 194//138 191//138 203//138 206//138
f 192//139 193//139 205//139 204//139
