# Blender v2.91.2 OBJ File: 'camionnete02.blend'
# www.blender.org
mtllib arme_000016.mtl
o Cube.046_Cube.010
v 333.182861 441.327209 -1049.641113
v 305.862549 223.614532 -1028.810303
v 434.558838 410.119873 -1242.845947
v 407.238525 192.407196 -1222.015381
v 139.390198 455.694641 -1153.646240
v 112.069855 237.981934 -1132.815674
v 240.766190 424.487274 -1346.851074
v 213.445847 206.774628 -1326.020508
v 193.608231 484.293396 -783.636475
v 166.287918 266.580841 -762.805664
v -27.504761 280.948242 -866.810730
v -0.184425 498.660950 -887.641541
v 130.441574 503.738525 -663.251709
v 103.121231 286.025879 -642.421082
v -90.671478 300.393311 -746.426086
v -63.351151 518.105957 -767.256897
v 93.125504 515.225769 -592.133911
v 79.635803 354.928650 -588.784851
v -114.156944 369.296112 -692.789917
v -100.667221 529.593323 -696.139038
v 215.384476 477.589905 -825.138000
v 188.064148 259.877319 -804.307312
v 21.591766 491.957397 -929.143188
v -5.728588 274.244720 -908.312439
v 398.769958 421.136993 -1174.638672
v 371.449707 203.424362 -1153.808105
v 204.977310 435.504456 -1278.643799
v 177.657028 217.791779 -1257.812988
v 337.662537 417.303650 -1294.848633
v 310.342163 199.590866 -1274.017822
v 236.286575 448.510925 -1101.643799
v 208.966232 230.798218 -1080.812988
v 96.711899 491.477173 -835.638977
v 69.391556 273.764526 -814.808105
v 33.545212 510.922302 -715.254272
v 10.290016 303.845398 -681.454712
v -3.770840 522.409546 -644.136475
v -5.546272 350.306763 -645.287781
v 91.167770 267.061005 -856.309875
v 118.488113 484.773621 -877.140564
v 274.553284 210.608032 -1205.810547
v 301.873657 428.320740 -1226.641113
v 386.110718 413.711761 -1268.847168
v 257.414429 227.206390 -1054.811523
v 117.839737 270.172668 -788.806946
v 42.958740 301.423370 -663.922058
v 27.122452 347.884735 -627.755005
v 166.936295 481.181763 -851.139282
v 350.321838 424.728882 -1200.640137
v 358.790405 195.999023 -1248.016602
v 284.734680 444.919067 -1075.642578
v 145.160065 487.885315 -809.637756
v 81.993378 507.330383 -689.252991
v 44.677330 518.817688 -618.135132
v 139.615952 263.469147 -830.308655
v 323.001465 207.016205 -1179.809326
v 134.500610 222.705383 -826.408264
v 86.052429 226.297272 -852.409485
v 317.886108 166.252457 -1175.909180
v 269.437988 169.844330 -1201.910400
v 203.850876 190.034500 -1076.912842
v 252.299026 186.442627 -1050.911377
v 454.551697 359.990326 -1090.122803
v 425.549683 368.918213 -1034.850098
v 413.469055 272.647858 -1025.638916
v 442.470947 263.720001 -1080.911621
v 496.429260 356.885620 -1067.647949
v 467.427246 365.813507 -1012.375183
v 455.346619 269.543182 -1003.164001
v 484.348511 260.615295 -1058.436768
v 560.515320 352.134369 -1033.254150
v 531.513306 361.062256 -977.981445
v 519.432617 264.791962 -968.770264
v 548.434448 255.864105 -1024.042969
v 601.753845 349.077026 -1011.122253
v 572.751892 358.004913 -955.849487
v 560.671265 261.734650 -946.638367
v 589.673157 252.806763 -1001.911011
v 691.830078 93.477356 -1882.730957
v 643.381836 97.069183 -1908.732178
v 670.702026 314.781921 -1929.562988
v 719.150330 311.190033 -1903.561768
vn 0.8793 -0.0652 0.4719
vn 0.4599 -0.1416 -0.8766
vn -0.8793 0.0652 -0.4719
vn 0.8792 -0.0652 0.4719
vn 0.1240 0.9878 -0.0945
vn -0.1240 -0.9878 0.0945
vn -0.3982 -0.6441 0.6531
vn -0.2074 -0.9746 0.0847
vn -0.5417 0.0349 0.8399
vn -0.8799 0.0649 -0.4707
vn 0.8799 -0.0649 0.4707
vn 0.7688 -0.1558 -0.6202
vn -0.4330 0.0258 0.9010
vn -0.1029 -0.9844 0.1426
vn -0.4729 -0.0010 0.8811
vn -0.1540 -0.9763 0.1520
vn -0.4599 0.1416 0.8766
vn -0.0768 0.1045 0.9915
vn 0.3818 -0.8598 0.3392
vn 0.5885 0.7878 0.1816
vn -0.4600 0.1416 0.8766
usemtl Matériau.011
s off
f 25//1 26//1 4//1 3//1
f 29//2 30//2 8//2 7//2
f 27//3 28//3 6//3 5//3
f 22//4 21//4 9//4 10//4
f 42//5 27//5 5//5 31//5
f 56//6 26//6 2//6 44//6
f 10//1 9//1 13//1 14//1
f 55//6 22//6 10//6 45//6
f 23//3 24//3 11//3 12//3
f 46//7 14//7 18//7 47//7
f 45//8 10//8 14//8 46//8
f 12//3 11//3 15//3 16//3
f 33//5 12//5 16//5 35//5
f 54//9 47//9 18//9 17//9
f 16//10 15//10 19//10 20//10
f 14//11 13//11 17//11 18//11
f 5//3 6//3 24//3 23//3
f 44//6 2//6 22//6 55//6
f 31//5 5//5 23//5 40//5
f 2//1 1//1 21//1 22//1
f 50//6 4//6 26//6 56//6
f 29//5 7//5 27//5 42//5
f 7//3 8//3 28//3 27//3
f 26//12 25//12 63//12 66//12
f 43//5 29//5 42//5 49//5
f 8//6 30//6 41//6 28//6
f 51//5 31//5 40//5 48//5
f 6//6 32//6 39//6 24//6
f 20//13 19//13 38//13 37//13
f 52//5 33//5 35//5 53//5
f 11//14 34//14 36//14 15//14
f 15//7 36//7 38//7 19//7
f 24//6 39//6 34//6 11//6
f 28//6 41//6 32//6 6//6
f 49//5 42//5 31//5 51//5
f 30//3 29//3 81//3 80//3
f 3//2 4//2 50//2 43//2
f 25//5 49//5 51//5 1//5
f 9//5 52//5 53//5 13//5
f 1//5 51//5 48//5 21//5
f 3//5 43//5 49//5 25//5
f 30//6 50//6 56//6 41//6
f 32//3 41//3 60//3 61//3
f 37//15 38//15 47//15 54//15
f 34//16 45//16 46//16 36//16
f 36//7 46//7 47//7 38//7
f 39//6 55//6 45//6 34//6
f 55//17 39//17 58//17 57//17
f 61//6 62//6 57//6 58//6
f 60//6 59//6 62//6 61//6
f 39//3 32//3 61//3 58//3
f 44//1 55//1 57//1 62//1
f 41//2 56//2 59//2 60//2
f 56//1 44//1 62//1 59//1
f 66//2 63//2 67//2 70//2
f 1//18 2//18 65//18 64//18
f 2//19 26//19 66//19 65//19
f 25//20 1//20 64//20 63//20
f 69//6 70//6 74//6 73//6
f 64//21 65//21 69//21 68//21
f 65//6 66//6 70//6 69//6
f 63//5 64//5 68//5 67//5
f 73//6 74//6 78//6 77//6
f 67//5 68//5 72//5 71//5
f 70//2 67//2 71//2 74//2
f 68//17 69//17 73//17 72//17
f 76//1 77//1 78//1 75//1
f 71//5 72//5 76//5 75//5
f 74//2 71//2 75//2 78//2
f 82//2 79//2 80//2 81//2
f 50//6 30//6 80//6 79//6
f 43//1 50//1 79//1 82//1
f 29//5 43//5 82//5 81//5
o Cube.048_Cube.024
v -563.969421 470.499115 182.298004
v -727.661011 342.689209 58.737251
v -422.960754 479.432190 -13.748711
v -587.053589 353.034973 -136.315491
v -677.750854 646.432434 35.902824
v -761.680115 580.900818 -27.450249
v -605.451782 651.012756 -64.615822
v -689.183350 585.898438 -127.821938
v -371.112457 430.219299 -436.839752
v -272.600616 488.626160 -382.926086
v -317.645844 600.387512 -421.694244
v -416.157623 541.980713 -475.607941
v -252.671143 434.067169 -618.081055
v -180.243103 477.009216 -578.442322
v -213.361328 559.178650 -606.945618
v -285.789429 516.236633 -646.584229
v -177.673523 439.215118 -731.283020
v -124.744019 470.596619 -702.315674
v -148.946411 530.644897 -723.145447
v -201.875854 499.263489 -752.112854
v -482.716370 585.179077 -29.304512
v -656.470703 451.198517 -159.515625
v -632.458801 575.655823 178.821075
v -806.237488 439.969849 47.646126
v -289.192200 545.820679 -405.413788
v -393.774689 483.814667 -462.649811
v -184.812378 517.780090 -607.529724
v -261.703796 472.191895 -649.610840
v -121.160583 499.230255 -734.963318
v -177.351807 465.914978 -765.715759
v -127.747375 427.926941 -810.279663
v -74.817810 459.308411 -781.312378
v -68.203308 492.167480 -824.076233
v -124.394531 458.852234 -854.828552
v -149.384583 491.551270 -839.670654
v -96.454895 522.932678 -810.703491
v -92.339966 420.994324 -867.466064
v -39.410522 452.375763 -838.498718
v -32.795959 485.234863 -881.262512
v -88.987183 451.919556 -912.014893
v -113.977173 484.618591 -896.857056
v -61.047607 516.000000 -867.889648
v -52.557068 400.732452 -889.757385
v -18.488831 420.931213 -871.112366
v -14.231323 442.081177 -898.637512
v -50.399048 420.637604 -918.431335
v -80.165771 480.471466 -959.064697
v -105.155762 513.170471 -943.906982
v -52.226257 544.551880 -914.939575
v -23.974609 513.786743 -928.312317
v -26.201599 385.658813 -904.840759
v -3.233704 399.276245 -892.270813
v -0.363403 413.534943 -910.827515
v -24.746704 399.078339 -924.171997
v -2.210754 379.274017 -928.783569
v 12.146790 387.786530 -920.925903
v 13.941101 396.699768 -932.525940
v -1.301208 387.662689 -940.867798
v -70.458679 506.753021 -976.872009
v -87.075012 528.494995 -966.793152
v -51.881409 549.360962 -947.532410
v -33.096436 528.904724 -956.424316
v -296.480469 594.947876 361.372192
v -291.341309 354.291443 340.026642
v -158.751221 623.929626 149.683197
v -159.336365 374.970184 138.669647
v -465.417969 548.731323 175.215103
v -462.782959 425.340027 164.270660
v -396.077911 563.168091 69.048187
v -395.100372 435.942566 61.029293
v -15.633667 352.711426 -180.813385
v 22.900696 454.359161 -247.929474
v -84.289368 450.694305 -315.124268
v -122.816101 348.752167 -248.035980
v 68.832581 232.603943 -339.971008
v 97.406677 305.798859 -389.841736
v 18.603577 302.888000 -439.265167
v -9.970459 229.692993 -389.394562
v 120.603455 158.962891 -441.768097
v 141.484924 212.452881 -478.212921
v 83.896851 210.325653 -514.330994
v 63.015198 156.835632 -477.886078
v -269.784058 633.875854 99.090096
v -270.385132 369.672668 87.364738
v -415.980499 603.206116 323.790924
v -410.524658 347.719604 301.130035
v -26.731445 449.901978 -288.018890
v -67.990906 344.212189 -216.008179
v 67.079468 294.965149 -428.469635
v 36.744568 217.259735 -375.525635
v 125.135132 196.282776 -515.223816
v 102.966797 139.496765 -476.533112
v 164.465149 101.054688 -501.628510
v 185.346680 154.544678 -538.073425
v 168.391296 132.141541 -584.579712
v 146.222961 75.355408 -545.889038
v 106.364624 93.652283 -545.782471
v 127.246094 147.142273 -582.227295
v 194.857727 59.392639 -545.361938
v 215.739258 112.882568 -581.806824
v 198.783813 90.479370 -628.313110
v 176.615540 33.693298 -589.622498
v 136.757080 51.990295 -589.515930
v 157.638550 105.480225 -625.960693
v 237.883789 44.226257 -565.582214
v 251.324341 78.655212 -589.040100
v 240.410828 64.235474 -618.974182
v 226.142029 27.684753 -594.070679
v 164.033875 6.559021 -636.656006
v 124.175415 24.856140 -636.549438
v 145.056946 78.346008 -672.994202
v 186.202209 63.345215 -675.346680
v 267.443726 33.262390 -578.045654
v 276.505005 56.473511 -593.860291
v 269.147583 46.751770 -614.041138
v 259.527832 22.110474 -597.251831
v 289.422607 17.252991 -599.263916
v 295.086914 31.762451 -609.149841
v 290.487549 25.685547 -621.765015
v 284.474243 10.281982 -611.269714
v 154.183472 4.243225 -668.273132
v 127.681091 16.409180 -668.202271
v 141.565491 51.975403 -692.434998
v 168.923462 42.001221 -693.999084
vn 0.4478 -0.8490 0.2806
vn -0.3367 0.8601 -0.3832
vn -0.4479 0.8483 -0.2824
vn -0.4437 -0.2606 0.8574
vn 0.3780 0.8717 0.3118
vn -0.6470 -0.5773 -0.4981
vn -0.3146 0.8735 -0.3714
vn 0.8116 0.4634 0.3557
vn -0.7638 -0.1574 -0.6259
vn 0.4940 -0.8546 0.1599
vn -0.7604 -0.3617 -0.5394
vn 0.8430 0.3816 0.3790
vn -0.7599 -0.3956 -0.5158
vn 0.3949 -0.8870 0.2393
vn 0.7544 0.5149 0.4072
vn 0.4022 -0.8872 0.2261
vn -0.3064 0.8711 -0.3838
vn 0.8610 0.3449 0.3739
vn 0.7781 0.5505 0.3026
vn 0.3362 -0.8790 0.3381
vn -0.7036 -0.5353 -0.4674
vn 0.7867 0.5214 0.3306
vn -0.6776 -0.5673 -0.4681
vn -0.6018 -0.5516 -0.5775
vn 0.5455 0.7966 0.2604
vn -0.8077 -0.0577 -0.5868
vn 0.7037 0.4755 0.5279
vn -0.7356 0.4847 0.4732
vn -0.3466 0.8812 -0.3214
vn -0.7593 -0.5064 -0.4087
vn -0.3625 0.8840 -0.2952
vn 0.7969 0.4109 0.4428
vn -0.7571 -0.5105 -0.4077
vn -0.7992 -0.4062 -0.4430
vn 0.7483 0.4955 0.4410
vn 0.0342 -0.7084 0.7050
vn 0.7952 0.4152 0.4420
vn 0.7544 0.5170 0.4044
vn -0.7989 -0.4039 -0.4457
vn 0.3466 -0.8812 0.3214
vn 0.1971 0.4645 -0.8634
vn -0.5974 -0.6370 -0.4872
vn 0.9067 0.2548 0.3360
vn 0.2141 0.4427 -0.8707
vn 0.7546 0.6479 0.1036
vn -0.8064 -0.4263 -0.4099
vn -0.6077 0.7244 0.3256
vn 0.6077 -0.7244 -0.3256
vn -0.0935 0.7558 -0.6481
vn 0.8916 0.2818 0.3544
vn -0.6258 -0.6179 -0.4760
vn 0.0163 -0.6929 0.7209
vn 0.6212 -0.6649 -0.4148
vn 0.8869 0.2898 0.3598
vn -0.6344 -0.6118 -0.4725
vn 0.2446 -0.8475 0.4711
vn 0.1583 0.5123 -0.8441
vn -0.6935 -0.2107 -0.6890
vn 0.6279 -0.5820 -0.5167
vn -0.5527 0.8253 0.1159
vn 0.8385 -0.0282 0.5442
vn -0.7696 -0.0382 -0.6374
vn -0.8380 0.0291 -0.5449
vn -0.3045 -0.0906 0.9482
vn -0.4488 0.8767 -0.1729
vn 0.0727 -0.9959 -0.0546
vn -0.8104 -0.0773 -0.5808
vn 0.2053 0.9291 -0.3075
vn -0.3396 -0.9361 -0.0910
vn 0.9067 -0.0339 0.4204
vn -0.3599 -0.8410 0.4041
vn 0.4006 0.7333 -0.5494
vn -0.3372 -0.8335 0.4377
vn 0.8779 -0.0168 0.4785
vn 0.2540 0.7837 -0.5668
vn 0.8833 -0.0260 0.4680
vn -0.8029 -0.0882 -0.5896
vn 0.4443 0.7211 -0.5316
vn 0.2471 0.7138 -0.6553
vn 0.8298 0.0544 0.5554
vn -0.2032 -0.8286 0.5217
vn 0.2828 0.7288 -0.6236
vn -0.1627 -0.8337 0.5277
vn 0.0337 -0.9949 0.0950
vn -0.1845 0.8656 -0.4654
vn -0.3843 -0.8583 -0.3401
vn 0.0211 0.9886 0.1489
vn -0.9421 -0.0495 0.3316
vn -0.8389 -0.0423 -0.5427
vn -0.2632 -0.7832 0.5633
vn -0.8523 -0.0233 -0.5225
vn 0.3541 0.7872 -0.5048
vn -0.2590 -0.7832 0.5652
vn -0.3589 -0.7863 0.5029
vn 0.2625 0.8038 -0.5339
vn 0.4964 0.3480 0.7953
vn 0.3501 0.7876 -0.5070
vn 0.2526 0.7822 -0.5696
vn -0.3602 -0.7876 0.5000
vn 0.8389 0.0423 0.5427
vn -0.1656 -0.5103 -0.8439
vn -0.0569 -0.8530 0.5188
vn 0.5365 0.6670 -0.5169
vn -0.1388 -0.5200 -0.8428
vn 0.1624 0.5715 -0.8044
vn -0.3509 -0.7674 0.5366
vn -0.9245 0.3800 0.0281
vn 0.9245 -0.3800 -0.0281
vn -0.5711 -0.2981 -0.7648
vn 0.5079 0.6890 -0.5171
vn -0.0907 -0.8445 0.5278
vn 0.4730 0.3625 0.8030
vn 0.8948 -0.4303 -0.1189
vn 0.4993 0.6953 -0.5170
vn -0.1011 -0.8417 0.5304
vn 0.7422 0.1546 0.6521
vn -0.2257 -0.4868 -0.8438
vn -0.4089 -0.8920 0.1927
vn 0.8445 -0.4848 -0.2276
vn -0.9517 0.2536 -0.1731
usemtl Matériau.012
s off
f 83//22 84//22 86//22 85//22
f 90//23 89//23 93//23 94//23
f 89//24 90//24 88//24 87//24
f 105//25 106//25 84//25 83//25
f 103//26 89//26 87//26 105//26
f 104//27 86//27 84//27 106//27
f 94//28 93//28 97//28 98//28
f 103//29 85//29 92//29 107//29
f 104//30 90//30 94//30 108//30
f 85//31 86//31 91//31 92//31
f 110//32 98//32 102//32 112//32
f 107//33 92//33 96//33 109//33
f 108//34 94//34 98//34 110//34
f 92//35 91//35 95//35 96//35
f 101//36 111//36 115//36 118//36
f 96//37 95//37 99//37 100//37
f 98//38 97//38 101//38 102//38
f 109//39 96//39 100//39 111//39
f 97//40 109//40 111//40 101//40
f 100//41 99//41 113//41 114//41
f 91//42 108//42 110//42 95//42
f 93//43 107//43 109//43 97//43
f 95//44 110//44 112//44 99//44
f 86//45 104//45 108//45 91//45
f 89//46 103//46 107//46 93//46
f 90//47 104//47 106//47 88//47
f 85//48 103//48 105//48 83//48
f 87//49 88//49 106//49 105//49
f 117//50 118//50 124//50 123//50
f 113//51 116//51 122//51 119//51
f 102//52 101//52 118//52 117//52
f 111//53 100//53 114//53 115//53
f 99//54 112//54 116//54 113//54
f 112//55 102//55 117//55 116//55
f 124//56 121//56 132//56 131//56
f 120//57 119//57 125//57 126//57
f 115//58 114//58 120//58 121//58
f 118//59 115//59 121//59 124//59
f 116//60 117//60 123//60 122//60
f 114//61 113//61 119//61 120//61
f 128//62 127//62 135//62 136//62
f 119//63 122//63 128//63 125//63
f 121//64 120//64 126//64 127//64
f 122//65 121//65 127//65 128//65
f 131//66 132//66 144//66 143//66
f 122//67 123//67 130//67 129//67
f 123//68 124//68 131//68 130//68
f 121//69 122//69 129//69 132//69
f 136//70 135//70 139//70 140//70
f 127//71 126//71 134//71 135//71
f 125//72 128//72 136//72 133//72
f 126//73 125//73 133//73 134//73
f 138//74 137//74 140//74 139//74
f 135//75 134//75 138//75 139//75
f 133//76 136//76 140//76 137//76
f 134//77 133//77 137//77 138//77
f 144//78 141//78 142//78 143//78
f 129//79 130//79 142//79 141//79
f 132//80 129//80 141//80 144//80
f 130//81 131//81 143//81 142//81
f 145//82 146//82 148//82 147//82
f 152//83 151//83 155//83 156//83
f 151//84 152//84 150//84 149//84
f 167//85 168//85 146//85 145//85
f 165//86 151//86 149//86 167//86
f 166//87 148//87 146//87 168//87
f 156//88 155//88 159//88 160//88
f 165//89 147//89 154//89 169//89
f 166//90 152//90 156//90 170//90
f 147//91 148//91 153//91 154//91
f 172//92 160//92 164//92 174//92
f 169//93 154//93 158//93 171//93
f 170//94 156//94 160//94 172//94
f 154//95 153//95 157//95 158//95
f 163//96 173//96 177//96 180//96
f 158//97 157//97 161//97 162//97
f 160//98 159//98 163//98 164//98
f 171//99 158//99 162//99 173//99
f 159//100 171//100 173//100 163//100
f 162//101 161//101 175//101 176//101
f 153//102 170//102 172//102 157//102
f 155//103 169//103 171//103 159//103
f 157//104 172//104 174//104 161//104
f 148//105 166//105 170//105 153//105
f 151//106 165//106 169//106 155//106
f 152//107 166//107 168//107 150//107
f 147//108 165//108 167//108 145//108
f 149//109 150//109 168//109 167//109
f 179//110 180//110 186//110 185//110
f 175//111 178//111 184//111 181//111
f 164//112 163//112 180//112 179//112
f 173//113 162//113 176//113 177//113
f 161//114 174//114 178//114 175//114
f 174//115 164//115 179//115 178//115
f 186//116 183//116 194//116 193//116
f 182//117 181//117 187//117 188//117
f 177//118 176//118 182//118 183//118
f 180//119 177//119 183//119 186//119
f 178//120 179//120 185//120 184//120
f 176//121 175//121 181//121 182//121
f 190//122 189//122 197//122 198//122
f 181//123 184//123 190//123 187//123
f 183//124 182//124 188//124 189//124
f 184//125 183//125 189//125 190//125
f 193//126 194//126 206//126 205//126
f 184//127 185//127 192//127 191//127
f 185//128 186//128 193//128 192//128
f 183//129 184//129 191//129 194//129
f 198//130 197//130 201//130 202//130
f 189//131 188//131 196//131 197//131
f 187//132 190//132 198//132 195//132
f 188//133 187//133 195//133 196//133
f 200//134 199//134 202//134 201//134
f 197//135 196//135 200//135 201//135
f 195//136 198//136 202//136 199//136
f 196//137 195//137 199//137 200//137
f 206//138 203//138 204//138 205//138
f 191//139 192//139 204//139 203//139
f 194//140 191//140 203//140 206//140
f 192//141 193//141 205//141 204//141
