# Blender v2.91.2 OBJ File: 'camionnete02.blend'
# www.blender.org
mtllib arme_000183.mtl
o Cube.046_Cube.010
v 209.950851 372.501373 -1216.531982
v 158.691711 158.406555 -1205.806641
v 272.094238 347.106049 -1426.466064
v 220.835068 133.011261 -1415.740967
v 4.792847 418.301056 -1282.801758
v -46.466324 204.206238 -1272.076416
v 66.936234 392.905731 -1492.735840
v 15.677025 178.810913 -1482.010986
v 124.391769 407.465668 -927.494080
v 73.132629 193.370911 -916.768799
v -132.025360 239.170532 -983.038513
v -80.766205 453.265350 -993.763794
v 85.670715 423.289337 -796.685303
v 34.411514 209.194550 -785.960144
v -170.746490 254.994202 -852.229919
v -119.487335 469.089020 -862.955139
v 62.796005 432.637238 -719.409485
v 29.488594 275.305176 -724.469177
v -175.669464 321.104858 -790.738953
v -142.362030 478.436920 -785.679199
v 137.740601 402.010590 -972.589294
v 86.481430 187.915833 -961.864014
v -67.417435 447.810272 -1038.859131
v -118.676613 233.715485 -1028.133789
v 250.155685 356.071381 -1352.353027
v 198.896515 141.976593 -1341.627930
v 44.997681 401.871002 -1418.622803
v -6.261452 187.776215 -1407.897461
v 169.515198 370.005890 -1459.601074
v 118.256042 155.911041 -1448.875977
v 107.371902 395.401215 -1249.666748
v 56.112717 181.306366 -1238.941650
v 21.812790 430.365509 -960.628845
v -29.446381 216.270721 -949.903564
v -16.908302 446.189240 -829.820251
v -60.616768 240.995819 -806.383362
v -39.783005 455.537079 -752.544373
v -63.936317 285.574402 -764.919800
v -16.097595 210.815643 -994.998840
v 35.161575 424.910431 -1005.724182
v 96.317490 164.876404 -1374.762695
v 147.576675 378.971222 -1385.487793
v 220.804764 358.555939 -1443.033447
v 107.402206 169.856476 -1222.374023
v 21.843102 204.820801 -933.336304
v -26.032127 233.275085 -795.211853
v -29.351662 277.853668 -753.748352
v 86.451096 413.460480 -989.156616
v 198.866196 367.521332 -1368.920410
v 169.545532 144.461151 -1432.308594
v 158.661331 383.951263 -1233.099365
v 73.102264 418.915558 -944.061523
v 34.381195 434.739288 -813.252747
v 11.506500 444.087189 -735.976929
v 35.191895 199.365753 -978.431519
v 147.606949 153.426483 -1358.195312
v 25.594337 159.279388 -976.423340
v -25.695168 170.729340 -992.990723
v 138.009354 113.340149 -1356.187012
v 86.719925 124.790070 -1372.754395
v 46.515121 141.220062 -1236.933350
v 97.804642 129.770142 -1220.365967
v 311.131042 281.634613 -1283.544189
v 293.352844 288.899750 -1223.485596
v 270.686707 194.229218 -1218.742920
v 288.464783 186.964081 -1278.801758
v 355.464600 271.737610 -1269.223633
v 337.686401 279.002777 -1209.165039
v 315.020203 184.332214 -1204.422363
v 332.798279 177.067047 -1264.481201
v 423.309021 256.591949 -1247.308838
v 405.530945 263.857147 -1187.250000
v 382.864624 169.186615 -1182.507324
v 400.642700 161.921417 -1242.566406
v 466.966125 246.845917 -1233.206787
v 449.187988 254.111023 -1173.148193
v 426.521790 159.440552 -1168.405518
v 444.299866 152.175385 -1228.464355
v 373.698608 61.032928 -2121.982178
v 322.409119 72.482819 -2138.549561
v 373.668213 286.577728 -2149.274902
v 424.957764 275.127747 -2132.707520
vn 0.9308 -0.2078 0.3007
vn 0.2819 -0.1152 -0.9525
vn -0.9308 0.2078 -0.3007
vn 0.2326 0.9714 -0.0487
vn -0.2326 -0.9714 0.0487
vn -0.3611 -0.6494 0.6692
vn -0.3141 -0.9478 0.0549
vn -0.3818 0.0223 0.9240
vn -0.9313 0.2075 -0.2994
vn 0.9313 -0.2075 0.2994
vn 0.6255 -0.1877 -0.7573
vn -0.2664 -0.0046 0.9639
vn -0.2033 -0.9747 0.0923
vn 0.2820 -0.1152 -0.9525
vn -0.3123 -0.0248 0.9497
vn -0.2506 -0.9617 0.1112
vn -0.2819 0.1152 0.9525
vn 0.1071 0.0242 0.9940
vn 0.3196 -0.9248 0.2065
vn 0.7076 0.6954 0.1253
vn -0.2820 0.1152 0.9525
usemtl Matériau.011
s off
f 25//1 26//1 4//1 3//1
f 29//2 30//2 8//2 7//2
f 27//3 28//3 6//3 5//3
f 22//1 21//1 9//1 10//1
f 42//4 27//4 5//4 31//4
f 56//5 26//5 2//5 44//5
f 10//1 9//1 13//1 14//1
f 55//5 22//5 10//5 45//5
f 23//3 24//3 11//3 12//3
f 46//6 14//6 18//6 47//6
f 45//7 10//7 14//7 46//7
f 12//3 11//3 15//3 16//3
f 33//4 12//4 16//4 35//4
f 54//8 47//8 18//8 17//8
f 16//9 15//9 19//9 20//9
f 14//10 13//10 17//10 18//10
f 5//3 6//3 24//3 23//3
f 44//5 2//5 22//5 55//5
f 31//4 5//4 23//4 40//4
f 2//1 1//1 21//1 22//1
f 50//5 4//5 26//5 56//5
f 29//4 7//4 27//4 42//4
f 7//3 8//3 28//3 27//3
f 26//11 25//11 63//11 66//11
f 43//4 29//4 42//4 49//4
f 8//5 30//5 41//5 28//5
f 51//4 31//4 40//4 48//4
f 6//5 32//5 39//5 24//5
f 20//12 19//12 38//12 37//12
f 52//4 33//4 35//4 53//4
f 11//13 34//13 36//13 15//13
f 15//6 36//6 38//6 19//6
f 24//5 39//5 34//5 11//5
f 28//5 41//5 32//5 6//5
f 49//4 42//4 31//4 51//4
f 30//3 29//3 81//3 80//3
f 3//14 4//14 50//14 43//14
f 25//4 49//4 51//4 1//4
f 9//4 52//4 53//4 13//4
f 1//4 51//4 48//4 21//4
f 3//4 43//4 49//4 25//4
f 30//5 50//5 56//5 41//5
f 32//3 41//3 60//3 61//3
f 37//15 38//15 47//15 54//15
f 34//16 45//16 46//16 36//16
f 36//6 46//6 47//6 38//6
f 39//5 55//5 45//5 34//5
f 55//17 39//17 58//17 57//17
f 61//5 62//5 57//5 58//5
f 60//5 59//5 62//5 61//5
f 39//3 32//3 61//3 58//3
f 44//1 55//1 57//1 62//1
f 41//2 56//2 59//2 60//2
f 56//1 44//1 62//1 59//1
f 66//14 63//14 67//14 70//14
f 1//18 2//18 65//18 64//18
f 2//19 26//19 66//19 65//19
f 25//20 1//20 64//20 63//20
f 69//5 70//5 74//5 73//5
f 64//21 65//21 69//21 68//21
f 65//5 66//5 70//5 69//5
f 63//4 64//4 68//4 67//4
f 73//5 74//5 78//5 77//5
f 67//4 68//4 72//4 71//4
f 70//2 67//2 71//2 74//2
f 68//17 69//17 73//17 72//17
f 76//1 77//1 78//1 75//1
f 71//4 72//4 76//4 75//4
f 74//2 71//2 75//2 78//2
f 82//2 79//2 80//2 81//2
f 50//5 30//5 80//5 79//5
f 43//1 50//1 79//1 82//1
f 29//4 43//4 82//4 81//4
o Cube.048_Cube.024
v -493.747467 545.303711 151.388550
v -676.944275 409.050323 72.195694
v -369.172119 494.480408 -49.348969
v -552.114441 357.584778 -128.743225
v -604.556763 692.726624 -25.580734
v -698.486816 622.865723 -66.185097
v -540.683411 666.668030 -128.504456
v -634.154358 596.776611 -168.520416
v -375.293060 388.261780 -489.261322
v -262.341309 429.897797 -450.133820
v -298.510437 549.107178 -472.573822
v -411.462158 507.471069 -511.701508
v -289.916565 394.517639 -688.166443
v -206.871826 425.129364 -659.398865
v -233.464172 512.774719 -675.897461
v -316.508911 482.163025 -704.664978
v -235.239990 401.022766 -812.400208
v -174.552002 423.393372 -791.377319
v -193.985352 487.443481 -803.434204
v -254.673370 465.072876 -824.457092
v -421.167236 598.945679 -85.997337
v -614.826233 454.414795 -168.863800
v -553.510254 652.996826 127.069656
v -747.996216 508.347168 42.996727
v -274.989929 490.394287 -465.377594
v -394.902161 446.192535 -506.916412
v -211.018860 468.577423 -684.384583
v -299.180908 436.079376 -714.924805
v -172.907410 454.209930 -822.138184
v -237.335022 430.460724 -844.456665
v -201.360779 391.118042 -899.661865
v -140.672729 413.488647 -878.638977
v -137.241821 449.035034 -919.588867
v -201.669617 425.285828 -941.907349
v -219.282471 459.170898 -920.341736
v -158.594482 481.541534 -899.318787
v -177.392639 385.258362 -962.616028
v -116.704773 407.629028 -941.593201
v -113.273987 443.175323 -982.543030
v -177.701721 419.426178 -1004.861511
v -195.314514 453.311218 -983.295837
v -134.626526 475.681854 -962.272888
v -144.935730 362.606262 -993.005920
v -105.873535 377.005219 -979.474426
v -103.665344 399.884827 -1005.831970
v -145.134521 384.598541 -1020.197449
v -173.400208 450.837677 -1050.703735
v -191.013062 484.722778 -1029.138184
v -130.325195 507.093353 -1008.115417
v -108.972473 474.586853 -1028.385498
v -123.700378 345.994781 -1013.559753
v -97.365784 355.702209 -1004.437073
v -95.876953 371.126953 -1022.206604
v -123.834351 360.821381 -1031.891235
v -105.159973 339.039490 -1041.798950
v -88.697937 345.107697 -1036.096313
v -87.767273 354.749939 -1047.204346
v -105.243835 348.307770 -1053.258545
v -163.552490 477.302429 -1068.158936
v -175.263489 499.833008 -1053.819580
v -134.911255 514.707520 -1039.841064
v -120.713684 493.093506 -1053.319214
v -277.158691 457.895813 448.373077
v -372.484467 259.219574 349.184753
v -127.177002 482.084717 256.701080
v -227.298706 285.131805 157.750122
v -433.033752 550.911194 268.424652
v -481.909943 449.044312 217.568054
v -347.717865 565.136047 169.087509
v -407.469177 462.330200 119.414139
v -185.204651 270.493103 -117.621254
v -106.490112 205.059387 -45.904617
v -10.283813 241.065186 -116.372459
v -86.176758 305.555481 -188.238007
v -194.229553 96.765442 -246.573853
v -137.966736 45.277344 -193.239685
v -65.159119 71.055908 -245.158691
v -121.421936 122.544189 -298.492981
v -197.052399 -12.540405 -327.259308
v -155.936218 -50.167236 -288.283386
v -102.729431 -31.328491 -326.225098
v -143.845581 6.298401 -365.201050
v -205.932800 551.848755 218.693420
v -325.280609 344.594482 114.670952
v -378.213165 528.004761 423.203033
v -479.413208 317.085510 317.902435
v -57.646912 211.438904 -81.512627
v -138.887512 285.785217 -158.524384
v -102.656616 41.762817 -228.877777
v -162.386536 96.424011 -285.498535
v -132.138000 -63.246948 -322.359009
v -175.787720 -23.301453 -363.736694
v -213.921539 -87.418335 -381.749908
v -172.805420 -125.045044 -342.773895
v -145.979492 -144.241943 -385.948883
v -189.629272 -104.296448 -427.326508
v -158.152588 -73.756470 -427.392242
v -117.036560 -111.383362 -388.416351
v -225.000000 -140.864624 -421.659729
v -183.883911 -178.491455 -382.683655
v -157.057922 -197.688721 -425.858612
v -200.707886 -157.742859 -467.236359
v -169.231018 -127.202942 -467.302032
v -128.114807 -164.829834 -428.325989
v -243.598358 -187.015015 -425.448761
v -217.133698 -211.233826 -400.361633
v -199.867096 -223.589905 -428.151398
v -227.962585 -197.878723 -454.784332
v -178.485535 -180.745117 -512.884705
v -147.008606 -150.204956 -512.950439
v -105.892639 -187.832092 -473.974518
v -134.835632 -220.690735 -471.506989
v -257.587311 -217.793823 -427.960785
v -239.745697 -234.121338 -411.047699
v -228.105072 -242.451965 -429.782867
v -247.046112 -225.117920 -447.738129
v -264.597748 -248.947083 -440.995941
v -253.444611 -259.153748 -430.423309
v -246.167877 -264.360962 -442.134857
v -258.008270 -253.525635 -453.358795
v -154.137756 -194.519958 -530.759033
v -133.208435 -174.213257 -530.802673
v -105.869751 -199.231812 -504.886932
v -125.114441 -221.079956 -503.246368
vn 0.3997 -0.7978 0.4513
vn -0.2858 0.8470 -0.4482
vn -0.3999 0.7972 -0.4523
vn -0.3910 -0.0092 0.9203
vn 0.4725 0.8785 0.0707
vn -0.7338 -0.6078 -0.3035
vn -0.2578 0.9335 -0.2493
vn 0.8900 0.4109 0.1975
vn -0.8381 -0.1591 -0.5218
vn 0.4444 -0.8722 0.2044
vn -0.8813 -0.2223 -0.4170
vn 0.9373 0.2467 0.2461
vn -0.8812 -0.2579 -0.3962
vn 0.3120 -0.9443 0.1042
vn 0.8727 0.3862 0.2986
vn 0.3169 -0.9442 0.0900
vn -0.2522 0.9313 -0.2630
vn 0.9492 0.2087 0.2354
vn 0.8827 0.4280 0.1941
vn 0.2724 -0.9385 0.2123
vn -0.8360 -0.4070 -0.3682
vn 0.8921 0.3957 0.2180
vn -0.8148 -0.4416 -0.3757
vn -0.7221 -0.5438 -0.4276
vn 0.6381 0.7629 0.1041
vn -0.8539 -0.1147 -0.5076
vn 0.7812 0.5135 0.3549
vn -0.6521 0.6515 0.3876
vn -0.2795 0.9404 -0.1939
vn -0.8767 -0.3772 -0.2987
vn -0.2902 0.9426 -0.1651
vn 0.9069 0.2753 0.3190
vn -0.8749 -0.3815 -0.2983
vn -0.9086 -0.2704 -0.3184
vn 0.8701 0.3648 0.3316
vn 0.0619 -0.7675 0.6381
vn 0.9056 0.2798 0.3187
vn 0.8726 0.3886 0.2960
vn -0.9084 -0.2679 -0.3209
vn 0.2795 -0.9404 0.1939
vn 0.1057 0.5135 -0.8516
vn -0.7487 -0.5181 -0.4135
vn 0.9759 0.1177 0.1839
vn 0.1182 0.4907 -0.8633
vn 0.8385 0.5448 0.0095
vn -0.9126 -0.2923 -0.2859
vn -0.4447 0.7578 0.4775
vn 0.4447 -0.7578 -0.4775
vn -0.1039 0.8162 -0.5684
vn 0.9677 0.1445 0.2065
vn -0.7721 -0.4968 -0.3962
vn 0.0491 -0.7514 0.6580
vn 0.4505 -0.6926 -0.5634
vn 0.9650 0.1525 0.2132
vn -0.7791 -0.4902 -0.3908
vn 0.2097 -0.9085 0.3614
vn 0.0772 0.5636 -0.8225
vn -0.8219 -0.0672 -0.5656
vn 0.4503 -0.6023 -0.6591
vn -0.4137 0.8699 0.2686
vn 0.6867 -0.5671 0.4549
vn 0.1903 0.8552 -0.4820
vn -0.6700 0.5820 -0.4609
vn -0.3947 -0.2517 0.8836
vn 0.0283 0.9886 0.1479
vn -0.3510 -0.8550 -0.3819
vn 0.7647 0.2159 -0.6072
vn 0.9470 0.3159 -0.0581
vn -0.7724 -0.2700 -0.5749
vn 0.1992 -0.8660 0.4586
vn -0.5210 0.5028 -0.6897
vn 0.5112 -0.6359 0.5782
vn -0.5508 0.5085 -0.6618
vn -0.7805 -0.3399 0.5247
vn 0.6516 -0.5344 0.5384
vn -0.7928 -0.3485 0.4999
vn 0.7651 0.2031 -0.6111
vn 0.4919 -0.6554 0.5731
vn 0.6741 -0.5909 0.4432
vn -0.7761 -0.2473 0.5801
vn -0.6746 0.4647 -0.5735
vn 0.6765 -0.5740 0.4613
vn -0.7032 0.4383 -0.5598
vn -0.6910 -0.6962 -0.1946
vn 0.6119 0.7253 -0.3155
vn -0.6804 -0.4517 -0.5771
vn 0.4424 0.7736 0.4536
vn -0.8993 0.2537 0.3561
vn 0.7795 0.2629 -0.5685
vn -0.6441 0.5389 -0.5429
vn 0.7842 0.2872 -0.5500
vn 0.5595 -0.5677 0.6039
vn -0.6477 0.5370 -0.5405
vn -0.5552 0.5701 -0.6056
vn 0.6368 -0.5180 0.5711
vn -0.5897 0.1729 0.7889
vn 0.5634 -0.5661 0.6018
vn 0.6533 -0.5352 0.5354
vn -0.5533 0.5690 -0.6084
vn -0.7795 -0.2629 0.5685
vn 0.3534 -0.4585 -0.8154
vn -0.7653 0.3526 -0.5385
vn 0.4031 -0.7167 0.5691
vn 0.3328 -0.4782 -0.8128
vn 0.7382 -0.6327 0.2339
vn -0.5709 0.5872 -0.5738
vn 0.6896 0.7236 -0.0289
vn -0.6896 -0.7236 0.0289
vn 0.6378 -0.0949 -0.7644
vn 0.4306 -0.6945 0.5764
vn -0.7481 0.3842 -0.5410
vn -0.5741 0.1961 0.7949
vn -0.6426 -0.7639 -0.0596
vn 0.4387 -0.6878 0.5784
vn -0.7427 0.3938 -0.5417
vn -0.7362 -0.1135 0.6671
vn 0.3987 -0.4127 -0.8190
vn -0.3867 0.3968 -0.8325
vn -0.5752 -0.8009 -0.1664
vn 0.7645 0.6049 -0.2225
usemtl Matériau.012
s off
f 83//22 84//22 86//22 85//22
f 90//23 89//23 93//23 94//23
f 89//24 90//24 88//24 87//24
f 105//25 106//25 84//25 83//25
f 103//26 89//26 87//26 105//26
f 104//27 86//27 84//27 106//27
f 94//28 93//28 97//28 98//28
f 103//29 85//29 92//29 107//29
f 104//30 90//30 94//30 108//30
f 85//31 86//31 91//31 92//31
f 110//32 98//32 102//32 112//32
f 107//33 92//33 96//33 109//33
f 108//34 94//34 98//34 110//34
f 92//35 91//35 95//35 96//35
f 101//36 111//36 115//36 118//36
f 96//37 95//37 99//37 100//37
f 98//38 97//38 101//38 102//38
f 109//39 96//39 100//39 111//39
f 97//40 109//40 111//40 101//40
f 100//41 99//41 113//41 114//41
f 91//42 108//42 110//42 95//42
f 93//43 107//43 109//43 97//43
f 95//44 110//44 112//44 99//44
f 86//45 104//45 108//45 91//45
f 89//46 103//46 107//46 93//46
f 90//47 104//47 106//47 88//47
f 85//48 103//48 105//48 83//48
f 87//49 88//49 106//49 105//49
f 117//50 118//50 124//50 123//50
f 113//51 116//51 122//51 119//51
f 102//52 101//52 118//52 117//52
f 111//53 100//53 114//53 115//53
f 99//54 112//54 116//54 113//54
f 112//55 102//55 117//55 116//55
f 124//56 121//56 132//56 131//56
f 120//57 119//57 125//57 126//57
f 115//58 114//58 120//58 121//58
f 118//59 115//59 121//59 124//59
f 116//60 117//60 123//60 122//60
f 114//61 113//61 119//61 120//61
f 128//62 127//62 135//62 136//62
f 119//63 122//63 128//63 125//63
f 121//64 120//64 126//64 127//64
f 122//65 121//65 127//65 128//65
f 131//66 132//66 144//66 143//66
f 122//67 123//67 130//67 129//67
f 123//68 124//68 131//68 130//68
f 121//69 122//69 129//69 132//69
f 136//70 135//70 139//70 140//70
f 127//71 126//71 134//71 135//71
f 125//72 128//72 136//72 133//72
f 126//73 125//73 133//73 134//73
f 138//74 137//74 140//74 139//74
f 135//75 134//75 138//75 139//75
f 133//76 136//76 140//76 137//76
f 134//77 133//77 137//77 138//77
f 144//78 141//78 142//78 143//78
f 129//79 130//79 142//79 141//79
f 132//80 129//80 141//80 144//80
f 130//81 131//81 143//81 142//81
f 145//82 146//82 148//82 147//82
f 152//83 151//83 155//83 156//83
f 151//84 152//84 150//84 149//84
f 167//85 168//85 146//85 145//85
f 165//86 151//86 149//86 167//86
f 166//87 148//87 146//87 168//87
f 156//88 155//88 159//88 160//88
f 165//89 147//89 154//89 169//89
f 166//90 152//90 156//90 170//90
f 147//91 148//91 153//91 154//91
f 172//92 160//92 164//92 174//92
f 169//93 154//93 158//93 171//93
f 170//94 156//94 160//94 172//94
f 154//95 153//95 157//95 158//95
f 163//96 173//96 177//96 180//96
f 158//97 157//97 161//97 162//97
f 160//98 159//98 163//98 164//98
f 171//99 158//99 162//99 173//99
f 159//100 171//100 173//100 163//100
f 162//101 161//101 175//101 176//101
f 153//102 170//102 172//102 157//102
f 155//103 169//103 171//103 159//103
f 157//104 172//104 174//104 161//104
f 148//105 166//105 170//105 153//105
f 151//106 165//106 169//106 155//106
f 152//107 166//107 168//107 150//107
f 147//108 165//108 167//108 145//108
f 149//109 150//109 168//109 167//109
f 179//110 180//110 186//110 185//110
f 175//111 178//111 184//111 181//111
f 164//112 163//112 180//112 179//112
f 173//113 162//113 176//113 177//113
f 161//114 174//114 178//114 175//114
f 174//115 164//115 179//115 178//115
f 186//116 183//116 194//116 193//116
f 182//117 181//117 187//117 188//117
f 177//118 176//118 182//118 183//118
f 180//119 177//119 183//119 186//119
f 178//120 179//120 185//120 184//120
f 176//121 175//121 181//121 182//121
f 190//122 189//122 197//122 198//122
f 181//123 184//123 190//123 187//123
f 183//124 182//124 188//124 189//124
f 184//125 183//125 189//125 190//125
f 193//126 194//126 206//126 205//126
f 184//127 185//127 192//127 191//127
f 185//128 186//128 193//128 192//128
f 183//129 184//129 191//129 194//129
f 198//130 197//130 201//130 202//130
f 189//131 188//131 196//131 197//131
f 187//132 190//132 198//132 195//132
f 188//133 187//133 195//133 196//133
f 200//134 199//134 202//134 201//134
f 197//135 196//135 200//135 201//135
f 195//136 198//136 202//136 199//136
f 196//137 195//137 199//137 200//137
f 206//138 203//138 204//138 205//138
f 191//139 192//139 204//139 203//139
f 194//140 191//140 203//140 206//140
f 192//141 193//141 205//141 204//141
