# Blender v2.91.2 OBJ File: 'camionnete02.blend'
# www.blender.org
mtllib arme_000072.mtl
o Cube.046_Cube.010
v 281.498108 656.152344 -1086.119385
v 272.194336 436.170074 -1096.137939
v 371.475830 661.507080 -1287.252319
v 362.171997 441.524872 -1297.270996
v 80.509140 668.732422 -1175.697754
v 71.205322 448.750275 -1185.716309
v 170.486847 674.087280 -1376.830444
v 161.183044 454.105072 -1386.849365
v 157.616623 648.779785 -809.199158
v 148.312836 428.797638 -819.217834
v -52.676109 441.377808 -908.796143
v -43.372318 661.359985 -898.777527
v 101.552155 645.443237 -683.874512
v 92.248344 425.461060 -693.893311
v -108.740639 438.041229 -783.471558
v -99.436852 658.023438 -773.452881
v 68.431732 643.472168 -609.838440
v 67.351921 483.774261 -629.428345
v -133.637100 496.354492 -719.006592
v -132.557266 656.052368 -699.416687
v 176.944443 649.930054 -852.403748
v 167.640625 429.947845 -862.422546
v -24.044550 662.510254 -941.982178
v -33.348377 442.528046 -952.000854
v 339.710876 659.616699 -1216.246216
v 330.407104 439.634491 -1226.264893
v 138.721924 672.196899 -1305.824463
v 129.418152 452.214630 -1315.843140
v 270.981323 667.797241 -1332.041382
v 261.677551 447.814941 -1342.060181
v 181.003632 662.442505 -1130.908569
v 171.699829 442.460144 -1140.927246
v 57.122147 655.069946 -853.988281
v 47.818352 435.087677 -864.006958
v 1.057661 651.733398 -728.663696
v -4.117809 440.735199 -724.537476
v -32.062737 649.762329 -654.627563
v -20.905531 480.056000 -681.068604
v 67.146133 436.237915 -907.211609
v 76.449936 656.220215 -897.192932
v 229.912582 445.924530 -1271.054077
v 239.216415 665.906860 -1261.035278
v 321.228577 664.652222 -1309.646729
v 221.947067 439.315125 -1118.532593
v 98.065582 431.942627 -841.612488
v 29.764029 438.614502 -709.436829
v 12.976320 477.935242 -665.967896
v 126.697189 653.075073 -874.798340
v 289.463623 662.761841 -1238.640625
v 311.924744 444.669922 -1319.665527
v 231.250854 659.297363 -1108.513916
v 107.369377 651.924805 -831.593811
v 51.304890 648.588379 -706.269104
v 18.184494 646.617188 -632.232971
v 117.393372 433.092896 -884.817078
v 280.159790 442.779510 -1248.659546
v 115.651382 391.904205 -886.692993
v 65.404137 395.049255 -909.087463
v 278.417786 401.590851 -1250.535400
v 228.170578 404.735870 -1272.929932
v 169.957809 401.271515 -1142.803101
v 220.205063 398.126434 -1120.408569
v 405.607849 591.993042 -1144.985352
v 379.866699 590.461182 -1087.444580
v 375.752808 493.187225 -1091.874756
v 401.493774 494.719147 -1149.415527
v 449.040405 589.274658 -1125.628052
v 423.299316 587.742676 -1068.087158
v 419.185364 490.468750 -1072.517334
v 444.926392 492.000702 -1130.058105
v 515.506287 585.114380 -1096.005127
v 489.765198 583.582520 -1038.464355
v 485.651123 486.308624 -1042.894409
v 511.392151 487.840546 -1100.435303
v 558.276184 582.437378 -1076.943115
v 532.535095 580.905518 -1019.402344
v 528.421143 483.631592 -1023.832458
v 554.162109 485.163513 -1081.373291
v 607.518860 462.261688 -1980.425293
v 557.271667 465.406738 -2002.819824
v 566.575317 685.389038 -1992.801270
v 616.822632 682.243896 -1970.406616
vn 0.9119 -0.0571 0.4064
vn 0.4082 0.0243 -0.9126
vn -0.9119 0.0571 -0.4064
vn 0.0422 0.9981 0.0455
vn -0.0422 -0.9981 -0.0455
vn -0.3028 -0.7620 0.5724
vn -0.1269 -0.9907 -0.0485
vn -0.4840 -0.1312 0.8652
vn -0.9125 0.0566 -0.4052
vn 0.9125 -0.0566 0.4052
vn 0.7341 -0.0001 -0.6790
vn -0.3710 -0.1396 0.9181
vn -0.0182 -0.9998 0.0013
vn -0.4101 -0.1667 0.8967
vn -0.0690 -0.9975 0.0147
vn -0.4082 -0.0243 0.9126
vn -0.0165 -0.0448 0.9989
vn 0.4680 -0.8639 0.1863
vn 0.5384 0.8009 0.2622
usemtl Matériau.011
s off
f 25//1 26//1 4//1 3//1
f 29//2 30//2 8//2 7//2
f 27//3 28//3 6//3 5//3
f 22//1 21//1 9//1 10//1
f 42//4 27//4 5//4 31//4
f 56//5 26//5 2//5 44//5
f 10//1 9//1 13//1 14//1
f 55//5 22//5 10//5 45//5
f 23//3 24//3 11//3 12//3
f 46//6 14//6 18//6 47//6
f 45//7 10//7 14//7 46//7
f 12//3 11//3 15//3 16//3
f 33//4 12//4 16//4 35//4
f 54//8 47//8 18//8 17//8
f 16//9 15//9 19//9 20//9
f 14//10 13//10 17//10 18//10
f 5//3 6//3 24//3 23//3
f 44//5 2//5 22//5 55//5
f 31//4 5//4 23//4 40//4
f 2//1 1//1 21//1 22//1
f 50//5 4//5 26//5 56//5
f 29//4 7//4 27//4 42//4
f 7//3 8//3 28//3 27//3
f 26//11 25//11 63//11 66//11
f 43//4 29//4 42//4 49//4
f 8//5 30//5 41//5 28//5
f 51//4 31//4 40//4 48//4
f 6//5 32//5 39//5 24//5
f 20//12 19//12 38//12 37//12
f 52//4 33//4 35//4 53//4
f 11//13 34//13 36//13 15//13
f 15//6 36//6 38//6 19//6
f 24//5 39//5 34//5 11//5
f 28//5 41//5 32//5 6//5
f 49//4 42//4 31//4 51//4
f 30//3 29//3 81//3 80//3
f 3//2 4//2 50//2 43//2
f 25//4 49//4 51//4 1//4
f 9//4 52//4 53//4 13//4
f 1//4 51//4 48//4 21//4
f 3//4 43//4 49//4 25//4
f 30//5 50//5 56//5 41//5
f 32//3 41//3 60//3 61//3
f 37//14 38//14 47//14 54//14
f 34//15 45//15 46//15 36//15
f 36//6 46//6 47//6 38//6
f 39//5 55//5 45//5 34//5
f 55//16 39//16 58//16 57//16
f 61//5 62//5 57//5 58//5
f 60//5 59//5 62//5 61//5
f 39//3 32//3 61//3 58//3
f 44//1 55//1 57//1 62//1
f 41//2 56//2 59//2 60//2
f 56//1 44//1 62//1 59//1
f 66//2 63//2 67//2 70//2
f 1//17 2//17 65//17 64//17
f 2//18 26//18 66//18 65//18
f 25//19 1//19 64//19 63//19
f 69//5 70//5 74//5 73//5
f 64//16 65//16 69//16 68//16
f 65//5 66//5 70//5 69//5
f 63//4 64//4 68//4 67//4
f 73//5 74//5 78//5 77//5
f 67//4 68//4 72//4 71//4
f 70//2 67//2 71//2 74//2
f 68//16 69//16 73//16 72//16
f 76//1 77//1 78//1 75//1
f 71//4 72//4 76//4 75//4
f 74//2 71//2 75//2 78//2
f 82//2 79//2 80//2 81//2
f 50//5 30//5 80//5 79//5
f 43//1 50//1 79//1 82//1
f 29//4 43//4 82//4 81//4
o Cube.048_Cube.024
v -563.085144 455.633057 181.703522
v -726.839600 342.467896 44.679291
v -423.577271 489.198914 -12.740410
v -586.840088 376.592346 -148.412598
v -679.081299 647.105957 58.361183
v -763.042725 589.083008 -11.894951
v -607.551697 664.316162 -41.335678
v -691.266846 606.468689 -111.263863
v -376.332703 498.180878 -442.702850
v -279.055664 556.437622 -386.436096
v -334.963867 668.362854 -405.662628
v -432.240936 610.106140 -461.929413
v -271.208008 537.845459 -627.816467
v -199.687683 580.677124 -586.447815
v -240.792603 662.967163 -600.583557
v -312.312927 620.135437 -641.952209
v -204.740356 565.412781 -743.089966
v -152.474182 596.713623 -712.858337
v -182.513184 656.849976 -723.188599
v -234.779327 625.549194 -753.420105
v -484.116028 595.590942 -15.022263
v -657.388794 476.110229 -158.891052
v -632.282837 559.933655 191.392151
v -806.128418 439.794952 45.924019
v -301.421387 614.640747 -399.256531
v -404.692993 552.794006 -458.990692
v -209.304779 624.643311 -608.891541
v -285.232361 579.172180 -652.809387
v -153.308044 629.908569 -741.071716
v -208.794922 596.678833 -773.166260
v -159.630066 569.771484 -825.591858
v -107.363953 601.072327 -795.360229
v -106.194031 640.133118 -833.110901
v -161.681030 606.903442 -865.205261
v -187.973511 634.872070 -843.993225
v -135.707275 666.172913 -813.761719
v -127.798706 574.086426 -885.091187
v -75.532593 605.387268 -854.859680
v -74.362793 644.447937 -892.610168
v -129.849548 611.218323 -924.704895
v -156.142090 639.186951 -903.492676
v -103.875977 670.487732 -873.260986
v -88.218445 560.652710 -912.350647
v -54.577087 580.799622 -892.891785
v -53.824219 605.941284 -917.190002
v -89.538635 584.552856 -937.847717
v -126.452576 646.829529 -967.448303
v -152.745056 674.798157 -946.236206
v -100.478943 706.098999 -916.004578
v -70.965759 680.059143 -935.353638
v -61.894165 550.170471 -930.964783
v -39.214172 563.752991 -917.846191
v -38.706482 580.702759 -934.227417
v -62.784119 566.283325 -948.154480
v -39.185181 549.319519 -956.910095
v -25.007629 557.810120 -948.709534
v -24.690247 568.405640 -958.949707
v -39.741516 559.391846 -967.655579
v -120.000732 676.107971 -981.702820
v -137.483032 694.704651 -967.598450
v -102.730652 715.516968 -947.496887
v -83.106873 698.202820 -960.362488
v -307.070587 458.656830 477.380127
v -294.034790 292.330536 302.556793
v -165.513977 597.097961 341.462555
v -156.279968 441.205566 171.189423
v -468.451721 546.975891 299.936676
v -461.767914 461.695740 210.299866
v -394.449188 623.859924 235.678650
v -391.137177 538.028137 142.944092
v 13.905945 700.709595 -54.333763
v 98.742493 687.491882 37.547050
v 65.076050 798.605225 85.300102
v -18.506531 812.667786 -4.963417
v 168.700134 810.471802 -158.653229
v 232.075439 799.181580 -91.443336
v 208.245056 881.495789 -55.145027
v 144.869812 892.785950 -122.355080
v 266.457581 880.731323 -221.684387
v 312.771545 872.480530 -172.568207
v 295.356506 932.634766 -146.041931
v 249.042786 940.885498 -195.158051
v -270.486389 640.948059 312.105347
v -265.406525 471.052429 124.363892
v -425.489441 489.579041 449.423065
v -411.650330 313.003174 263.826569
v 90.394226 743.380859 61.385338
v -1.116394 759.683350 -35.662361
v 235.052795 848.488220 -81.997536
v 167.772156 860.473999 -153.349182
v 324.127136 914.541321 -173.308777
v 274.959290 923.300354 -225.451599
v 331.898621 919.979492 -276.798431
v 378.212341 911.728760 -227.682281
v 394.828552 963.296936 -231.786133
v 345.660950 972.056152 -283.929138
v 318.935852 988.179749 -253.118744
v 365.249451 979.929016 -204.002533
v 378.590515 949.370667 -315.888947
v 424.904236 941.119934 -266.772736
v 441.520691 992.688171 -270.876770
v 392.352844 1001.447327 -323.019653
v 365.627625 1017.570984 -292.209137
v 411.941467 1009.320190 -243.093048
v 421.647888 944.209412 -340.577759
v 451.458191 938.898682 -308.963806
v 462.153259 972.090942 -311.605377
v 430.506042 977.728760 -345.167267
v 411.923889 1052.699219 -332.864532
v 385.198914 1068.822876 -302.054169
v 431.512634 1060.572266 -252.938049
v 461.091736 1043.940063 -280.721649
v 450.193787 939.881226 -358.346649
v 470.290955 936.300903 -337.033569
v 477.501526 958.678223 -338.814545
v 456.165710 962.479126 -361.441071
v 478.590271 948.184448 -376.074829
v 491.153259 945.946411 -362.751648
v 495.660339 959.934692 -363.864807
v 482.323425 962.310669 -378.009003
v 425.989685 1081.589355 -324.524200
v 408.219666 1092.310181 -304.037903
v 439.014221 1086.823975 -271.379791
v 458.681824 1075.765259 -289.853516
vn 0.4556 -0.8726 0.1761
vn -0.3782 0.8849 -0.2717
vn -0.4556 0.8726 -0.1763
vn -0.4357 -0.3655 0.8225
vn 0.3746 0.8305 0.4123
vn -0.6461 -0.5181 -0.5605
vn -0.4044 0.8877 -0.2200
vn 0.8043 0.4416 0.3975
vn -0.7753 -0.1055 -0.6227
vn 0.5271 -0.8489 0.0402
vn -0.7661 -0.3442 -0.5428
vn 0.8357 0.3937 0.3828
vn -0.7613 -0.3809 -0.5246
vn 0.4763 -0.8754 0.0829
vn 0.7394 0.5136 0.4353
vn 0.4826 -0.8731 0.0695
vn -0.3969 0.8878 -0.2330
vn 0.8560 0.3597 0.3713
vn 0.7532 0.5656 0.3359
vn 0.4240 -0.8866 0.1850
vn -0.6915 -0.5209 -0.5006
vn 0.7658 0.5337 0.3587
vn -0.6632 -0.5501 -0.5075
vn -0.5985 -0.4936 -0.6310
vn 0.5309 0.7733 0.3467
vn -0.8101 0.0053 -0.5863
vn 0.7044 0.4135 0.5769
vn -0.7353 0.4186 0.5330
vn -0.4333 0.8855 -0.1676
vn -0.7450 -0.5055 -0.4352
vn -0.4476 0.8831 -0.1404
vn 0.7920 0.4096 0.4527
vn -0.7425 -0.5094 -0.4349
vn -0.7947 -0.4051 -0.4521
vn 0.7372 0.4892 0.4661
vn 0.1358 -0.7962 0.5896
vn 0.7899 0.4138 0.4526
vn 0.7391 0.5161 0.4328
vn -0.7947 -0.4025 -0.4543
vn 0.4334 -0.8855 0.1676
vn 0.1019 0.5978 -0.7951
vn -0.5795 -0.6093 -0.5412
vn 0.9058 0.2802 0.3180
vn 0.1199 0.5788 -0.8066
vn 0.7088 0.6881 0.1551
vn -0.7981 -0.4303 -0.4219
vn -0.6369 0.6164 0.4630
vn 0.6369 -0.6164 -0.4629
vn -0.1944 0.8298 -0.5230
vn 0.8899 0.3029 0.3410
vn -0.6085 -0.5945 -0.5257
vn 0.1179 -0.7847 0.6086
vn 0.6398 -0.5439 -0.5430
vn 0.8850 0.3096 0.3478
vn -0.6172 -0.5897 -0.5209
vn 0.3396 -0.8822 0.3262
vn 0.0609 0.6389 -0.7669
vn -0.7212 -0.1683 -0.6720
vn 0.6332 -0.4471 -0.6318
vn -0.6043 0.7505 0.2676
vn 0.8141 -0.3974 0.4236
vn -0.5036 0.8563 -0.1149
vn -0.8117 0.4031 -0.4227
vn -0.3320 -0.6956 0.6371
vn -0.4065 0.7991 0.4430
vn 0.1043 -0.7105 -0.6959
vn -0.2040 0.9187 0.3383
vn 0.4517 0.5520 0.7010
vn -0.3799 -0.0745 -0.9220
vn 0.7270 -0.6690 0.1544
vn -0.6363 0.2667 -0.7239
vn 0.7525 -0.1634 0.6380
vn -0.6418 0.2267 -0.7326
vn 0.3123 -0.8511 -0.4221
vn 0.6632 -0.0672 0.7454
vn 0.3185 -0.8390 -0.4412
vn -0.1914 0.9224 0.3355
vn 0.7696 -0.1791 0.6129
vn 0.7099 0.0268 0.7037
vn 0.2301 -0.9008 -0.3683
vn -0.6013 0.0868 -0.7943
vn 0.7009 0.0037 0.7132
vn -0.5766 0.0607 -0.8147
vn -0.1519 -0.4853 -0.8611
vn 0.0059 0.8170 0.5766
vn -0.3472 -0.4190 -0.8390
vn 0.0327 0.6677 0.7437
vn -0.9504 -0.2576 0.1742
vn -0.2438 0.8924 0.3798
vn -0.6674 0.0749 -0.7409
vn -0.2649 0.8786 0.3974
vn 0.6941 -0.1712 0.6993
vn -0.6657 0.0711 -0.7428
vn -0.6961 0.1750 -0.6963
vn 0.6495 -0.1033 0.7533
vn -0.1389 -0.9897 -0.0353
vn 0.6927 -0.1674 0.7015
vn 0.6639 -0.0638 0.7451
vn -0.6952 0.1783 -0.6963
vn 0.2438 -0.8924 -0.3798
vn 0.3919 0.8935 -0.2194
vn -0.4963 0.0123 -0.8681
vn 0.8199 -0.2222 0.5277
vn 0.4094 0.8808 -0.2380
vn 0.7327 0.2384 0.6374
vn -0.7109 0.1390 -0.6894
vn -0.6426 0.3739 0.6688
vn 0.6426 -0.3739 -0.6688
vn 0.0701 0.9925 0.1006
vn 0.8019 -0.2140 0.5578
vn -0.5259 0.0225 -0.8503
vn -0.1594 -0.9871 -0.0156
vn 0.6768 -0.2725 -0.6839
vn 0.7963 -0.2115 0.5667
vn -0.5348 0.0257 -0.8446
vn 0.1130 -0.9570 -0.2673
vn 0.3511 0.9195 -0.1766
vn -0.5344 0.4641 -0.7064
vn 0.7076 -0.1449 -0.6916
vn -0.5409 0.5815 0.6077
usemtl Matériau.012
s off
f 83//20 84//20 86//20 85//20
f 90//21 89//21 93//21 94//21
f 89//22 90//22 88//22 87//22
f 105//23 106//23 84//23 83//23
f 103//24 89//24 87//24 105//24
f 104//25 86//25 84//25 106//25
f 94//26 93//26 97//26 98//26
f 103//27 85//27 92//27 107//27
f 104//28 90//28 94//28 108//28
f 85//29 86//29 91//29 92//29
f 110//30 98//30 102//30 112//30
f 107//31 92//31 96//31 109//31
f 108//32 94//32 98//32 110//32
f 92//33 91//33 95//33 96//33
f 101//34 111//34 115//34 118//34
f 96//35 95//35 99//35 100//35
f 98//36 97//36 101//36 102//36
f 109//37 96//37 100//37 111//37
f 97//38 109//38 111//38 101//38
f 100//39 99//39 113//39 114//39
f 91//40 108//40 110//40 95//40
f 93//41 107//41 109//41 97//41
f 95//42 110//42 112//42 99//42
f 86//43 104//43 108//43 91//43
f 89//44 103//44 107//44 93//44
f 90//45 104//45 106//45 88//45
f 85//46 103//46 105//46 83//46
f 87//47 88//47 106//47 105//47
f 117//48 118//48 124//48 123//48
f 113//49 116//49 122//49 119//49
f 102//50 101//50 118//50 117//50
f 111//51 100//51 114//51 115//51
f 99//52 112//52 116//52 113//52
f 112//53 102//53 117//53 116//53
f 124//54 121//54 132//54 131//54
f 120//55 119//55 125//55 126//55
f 115//56 114//56 120//56 121//56
f 118//57 115//57 121//57 124//57
f 116//58 117//58 123//58 122//58
f 114//59 113//59 119//59 120//59
f 128//60 127//60 135//60 136//60
f 119//61 122//61 128//61 125//61
f 121//62 120//62 126//62 127//62
f 122//63 121//63 127//63 128//63
f 131//64 132//64 144//64 143//64
f 122//65 123//65 130//65 129//65
f 123//66 124//66 131//66 130//66
f 121//67 122//67 129//67 132//67
f 136//68 135//68 139//68 140//68
f 127//69 126//69 134//69 135//69
f 125//70 128//70 136//70 133//70
f 126//71 125//71 133//71 134//71
f 138//72 137//72 140//72 139//72
f 135//73 134//73 138//73 139//73
f 133//74 136//74 140//74 137//74
f 134//75 133//75 137//75 138//75
f 144//76 141//76 142//76 143//76
f 129//77 130//77 142//77 141//77
f 132//78 129//78 141//78 144//78
f 130//79 131//79 143//79 142//79
f 145//80 146//80 148//80 147//80
f 152//81 151//81 155//81 156//81
f 151//82 152//82 150//82 149//82
f 167//83 168//83 146//83 145//83
f 165//84 151//84 149//84 167//84
f 166//85 148//85 146//85 168//85
f 156//86 155//86 159//86 160//86
f 165//87 147//87 154//87 169//87
f 166//88 152//88 156//88 170//88
f 147//89 148//89 153//89 154//89
f 172//90 160//90 164//90 174//90
f 169//91 154//91 158//91 171//91
f 170//92 156//92 160//92 172//92
f 154//93 153//93 157//93 158//93
f 163//94 173//94 177//94 180//94
f 158//95 157//95 161//95 162//95
f 160//96 159//96 163//96 164//96
f 171//97 158//97 162//97 173//97
f 159//98 171//98 173//98 163//98
f 162//99 161//99 175//99 176//99
f 153//100 170//100 172//100 157//100
f 155//101 169//101 171//101 159//101
f 157//102 172//102 174//102 161//102
f 148//103 166//103 170//103 153//103
f 151//104 165//104 169//104 155//104
f 152//105 166//105 168//105 150//105
f 147//106 165//106 167//106 145//106
f 149//107 150//107 168//107 167//107
f 179//108 180//108 186//108 185//108
f 175//109 178//109 184//109 181//109
f 164//110 163//110 180//110 179//110
f 173//111 162//111 176//111 177//111
f 161//112 174//112 178//112 175//112
f 174//113 164//113 179//113 178//113
f 186//114 183//114 194//114 193//114
f 182//115 181//115 187//115 188//115
f 177//116 176//116 182//116 183//116
f 180//117 177//117 183//117 186//117
f 178//118 179//118 185//118 184//118
f 176//119 175//119 181//119 182//119
f 190//120 189//120 197//120 198//120
f 181//121 184//121 190//121 187//121
f 183//122 182//122 188//122 189//122
f 184//123 183//123 189//123 190//123
f 193//124 194//124 206//124 205//124
f 184//125 185//125 192//125 191//125
f 185//126 186//126 193//126 192//126
f 183//127 184//127 191//127 194//127
f 198//128 197//128 201//128 202//128
f 189//129 188//129 196//129 197//129
f 187//130 190//130 198//130 195//130
f 188//131 187//131 195//131 196//131
f 200//132 199//132 202//132 201//132
f 197//133 196//133 200//133 201//133
f 195//134 198//134 202//134 199//134
f 196//135 195//135 199//135 200//135
f 206//136 203//136 204//136 205//136
f 191//137 192//137 204//137 203//137
f 194//138 191//138 203//138 206//138
f 192//139 193//139 205//139 204//139
