# Blender v2.91.2 OBJ File: 'camionnete02.blend'
# www.blender.org
mtllib arme_000243.mtl
o Cube.046_Cube.010
v 667.279053 468.863281 -263.659088
v 659.234253 341.223938 -443.165619
v 883.633789 497.958069 -294.043365
v 875.589111 370.318726 -473.549896
v 625.987549 646.178833 -387.889893
v 617.942627 518.539490 -567.396484
v 842.342285 675.273499 -418.274139
v 834.297607 547.634338 -597.780762
v 369.401459 428.805542 -221.826019
v 361.356476 301.166260 -401.332520
v 320.065033 478.481689 -525.563293
v 328.109833 606.121033 -346.056763
v 234.592133 410.676697 -202.893738
v 226.547333 283.037476 -382.400330
v 185.255707 460.352966 -506.631073
v 193.300568 587.992249 -327.124542
v 154.952911 399.967102 -191.709473
v 162.439514 308.774536 -324.058350
v 121.147919 486.090088 -448.289154
v 113.661316 577.282654 -315.940186
v 415.875763 435.055237 -228.352722
v 407.830963 307.415955 -407.859253
v 374.584198 612.370789 -352.583496
v 366.539398 484.731506 -532.090088
v 807.253906 487.686707 -283.316772
v 799.209229 360.047424 -462.823364
v 765.962402 665.002258 -407.547546
v 757.917480 537.362854 -587.054077
v 862.988037 586.615784 -356.158752
v 854.943237 458.976501 -535.665283
v 646.633301 557.521057 -325.774445
v 638.588379 429.881653 -505.281036
v 348.755585 517.463196 -283.941376
v 340.710724 389.823914 -463.447906
v 213.946381 499.334534 -265.009125
v 197.142731 368.667542 -429.957092
v 134.307129 488.624817 -253.824799
v 153.914703 386.022217 -390.616943
v 387.185089 396.073669 -469.974701
v 395.230011 523.713074 -290.468140
v 778.563354 448.705139 -524.938721
v 786.608032 576.344421 -345.432098
v 873.310913 542.286926 -325.100983
v 648.911377 385.552856 -474.223328
v 351.033661 345.495117 -432.390259
v 204.103485 338.776489 -409.014832
v 160.875427 356.131104 -369.674683
v 405.552826 479.384094 -259.410400
v 796.931030 532.015564 -314.374451
v 865.266235 414.647644 -504.607605
v 656.956177 513.192200 -294.716797
v 359.078522 473.134399 -252.883728
v 224.269196 455.005676 -233.951416
v 144.630005 444.295959 -222.767151
v 397.508026 351.744812 -438.916962
v 788.886230 404.376404 -493.881073
v 396.001801 327.846069 -472.527100
v 385.678864 372.174988 -503.584778
v 787.380005 380.477661 -527.491272
v 777.057007 424.806458 -558.548828
v 637.082153 405.982971 -538.891235
v 647.405029 361.654114 -507.833496
v 783.377075 372.089417 -275.529480
v 721.481689 363.765930 -266.837067
v 717.924194 307.324982 -346.212952
v 779.819824 315.648712 -354.905457
v 792.300049 333.772644 -248.683899
v 730.404541 325.449066 -239.991455
v 726.847290 269.008209 -319.367371
v 788.742798 277.331787 -328.059845
v 805.955078 275.135498 -207.601562
v 744.059570 266.811920 -198.909119
v 740.502075 210.371124 -278.285065
v 802.397583 218.694763 -286.977539
v 814.741821 237.403259 -181.165649
v 752.846313 229.079681 -172.473145
v 749.289062 172.638824 -251.849060
v 811.184448 180.962494 -260.541534
v 1576.032715 510.229431 -604.425232
v 1565.709717 554.558228 -635.482910
v 1573.754761 682.197693 -455.976440
v 1584.077515 637.868713 -424.918671
vn 0.1873 -0.8045 0.5636
vn 0.9816 0.1320 -0.1379
vn -0.1873 0.8045 -0.5636
vn 0.0365 0.5791 0.8144
vn -0.0365 -0.5791 -0.8144
vn -0.6795 -0.5205 -0.5171
vn -0.0822 -0.5177 -0.8516
vn -0.9916 -0.1295 -0.0011
vn -0.1887 0.8040 -0.5639
vn 0.1887 -0.8040 0.5639
vn 0.9761 -0.1952 0.0951
vn -0.9705 -0.2311 0.0687
vn -0.0611 -0.6156 -0.7857
vn -0.9768 -0.2134 0.0201
vn -0.1010 -0.5865 -0.8036
vn -0.9816 -0.1320 0.1379
vn -0.8287 -0.4379 0.3485
vn 0.0729 -0.9269 -0.3682
vn 0.1338 0.0391 0.9902
usemtl Matériau.011
s off
f 25//1 26//1 4//1 3//1
f 29//2 30//2 8//2 7//2
f 27//3 28//3 6//3 5//3
f 22//1 21//1 9//1 10//1
f 42//4 27//4 5//4 31//4
f 56//5 26//5 2//5 44//5
f 10//1 9//1 13//1 14//1
f 55//5 22//5 10//5 45//5
f 23//3 24//3 11//3 12//3
f 46//6 14//6 18//6 47//6
f 45//7 10//7 14//7 46//7
f 12//3 11//3 15//3 16//3
f 33//4 12//4 16//4 35//4
f 54//8 47//8 18//8 17//8
f 16//9 15//9 19//9 20//9
f 14//10 13//10 17//10 18//10
f 5//3 6//3 24//3 23//3
f 44//5 2//5 22//5 55//5
f 31//4 5//4 23//4 40//4
f 2//1 1//1 21//1 22//1
f 50//5 4//5 26//5 56//5
f 29//4 7//4 27//4 42//4
f 7//3 8//3 28//3 27//3
f 26//11 25//11 63//11 66//11
f 43//4 29//4 42//4 49//4
f 8//5 30//5 41//5 28//5
f 51//4 31//4 40//4 48//4
f 6//5 32//5 39//5 24//5
f 20//12 19//12 38//12 37//12
f 52//4 33//4 35//4 53//4
f 11//13 34//13 36//13 15//13
f 15//6 36//6 38//6 19//6
f 24//5 39//5 34//5 11//5
f 28//5 41//5 32//5 6//5
f 49//4 42//4 31//4 51//4
f 30//3 29//3 81//3 80//3
f 3//2 4//2 50//2 43//2
f 25//4 49//4 51//4 1//4
f 9//4 52//4 53//4 13//4
f 1//4 51//4 48//4 21//4
f 3//4 43//4 49//4 25//4
f 30//5 50//5 56//5 41//5
f 32//3 41//3 60//3 61//3
f 37//14 38//14 47//14 54//14
f 34//15 45//15 46//15 36//15
f 36//6 46//6 47//6 38//6
f 39//5 55//5 45//5 34//5
f 55//16 39//16 58//16 57//16
f 61//5 62//5 57//5 58//5
f 60//5 59//5 62//5 61//5
f 39//3 32//3 61//3 58//3
f 44//1 55//1 57//1 62//1
f 41//2 56//2 59//2 60//2
f 56//1 44//1 62//1 59//1
f 66//2 63//2 67//2 70//2
f 1//17 2//17 65//17 64//17
f 2//18 26//18 66//18 65//18
f 25//19 1//19 64//19 63//19
f 69//5 70//5 74//5 73//5
f 64//16 65//16 69//16 68//16
f 65//5 66//5 70//5 69//5
f 63//4 64//4 68//4 67//4
f 73//5 74//5 78//5 77//5
f 67//4 68//4 72//4 71//4
f 70//2 67//2 71//2 74//2
f 68//16 69//16 73//16 72//16
f 76//1 77//1 78//1 75//1
f 71//4 72//4 76//4 75//4
f 74//2 71//2 75//2 78//2
f 82//2 79//2 80//2 81//2
f 50//5 30//5 80//5 79//5
f 43//1 50//1 79//1 82//1
f 29//4 43//4 82//4 81//4
o Cube.048_Cube.024
v -491.641174 554.729370 147.060638
v -640.231689 377.156097 77.878807
v -373.999268 538.277100 -63.384743
v -526.933472 364.503021 -147.888428
v -649.110596 670.536316 -17.628380
v -725.297058 579.489502 -53.099838
v -588.792236 662.100708 -125.529610
v -665.320312 571.701050 -162.741302
v -243.862854 529.917664 -458.014008
v -231.248901 479.013489 -342.808746
v -242.013611 593.935730 -290.850891
v -254.627686 644.840027 -406.056213
v -30.229431 563.857361 -447.996002
v -20.955383 526.431396 -363.294495
v -28.869934 610.924927 -325.093903
v -38.143982 648.350830 -409.795502
v 103.521790 586.132141 -439.034454
v 110.299194 558.781860 -377.135651
v 104.515320 620.528442 -349.219147
v 97.737915 647.878784 -411.117920
v -453.615967 626.273743 -93.768288
v -613.081299 443.311584 -179.503235
v -578.217163 644.004150 129.872498
v -735.964233 455.488190 56.427498
v -230.694061 535.568237 -313.595062
v -244.085388 589.609375 -435.899719
v -5.928589 569.756348 -342.645813
v -15.774109 609.488586 -432.566986
v 134.545227 592.025940 -362.798676
v 127.350281 621.061768 -428.511871
v 197.075806 594.047424 -445.780396
v 203.853149 566.696960 -383.881500
v 237.339539 606.322998 -367.736542
v 230.144592 635.358765 -433.449860
v 199.111877 661.194885 -416.333588
v 205.889282 633.844543 -354.434845
v 264.201782 600.950073 -450.079987
v 270.979187 573.599670 -388.181122
v 304.465637 613.225586 -372.036285
v 297.270569 642.261475 -437.749542
v 266.237793 668.097534 -420.633423
v 273.015198 640.747192 -358.734589
v 308.516846 578.068176 -451.728424
v 312.879211 560.463989 -411.886993
v 334.432800 585.969421 -401.495209
v 329.801575 604.658447 -443.791901
v 335.946472 680.367310 -425.146881
v 304.913757 706.203430 -408.030731
v 311.691223 678.853027 -346.132080
v 343.141418 651.331482 -359.433685
v 338.309998 562.083252 -454.217926
v 341.250793 550.215027 -427.357941
v 355.781555 567.410034 -420.351959
v 352.659363 580.009644 -448.867218
v 372.505188 557.594482 -453.872589
v 374.343445 550.175537 -437.081940
v 383.426941 560.924316 -432.702484
v 381.475281 568.800476 -450.527618
v 352.755676 700.503113 -404.798859
v 332.121521 717.681946 -393.418121
v 336.627869 699.496277 -352.260834
v 357.539612 681.196838 -361.105316
v -302.111450 462.942688 458.159821
v -436.498535 288.156586 359.228027
v -118.727722 360.130127 342.614838
v -240.203003 199.037506 250.033661
v -329.522400 539.731567 215.915253
v -398.426392 450.113831 165.190155
v -226.542694 488.189209 166.345016
v -297.780212 404.419983 109.203133
v 28.907288 132.689331 -28.704285
v -11.973389 26.254456 19.018494
v 81.117737 25.580933 100.078407
v 123.655334 130.558594 55.205666
v 157.655823 9.678772 -151.926483
v 125.608093 -70.745911 -117.781593
v 195.269043 -72.312683 -56.089012
v 227.316833 8.112183 -90.234047
v 239.068176 -69.113586 -226.957611
v 215.648132 -127.887024 -202.004852
v 266.555359 -129.031799 -156.920837
v 289.975403 -70.258545 -181.873413
v -143.491394 436.979584 270.341949
v -280.508179 270.967499 159.514862
v -346.231689 551.135376 380.466431
v -488.900146 365.578430 275.438141
v 34.520691 16.050537 57.470528
v 80.795898 132.179688 8.167076
v 170.139282 -83.492493 -98.192818
v 204.161987 1.888306 -134.441833
v 255.773193 -143.930908 -196.422150
v 280.636475 -81.535767 -222.912506
v 289.723816 -116.359009 -290.694305
v 266.303650 -175.132324 -265.741577
v 316.294556 -196.208374 -262.752075
v 341.157776 -133.813110 -289.242401
v 348.980408 -121.762634 -247.804840
v 325.560242 -180.535950 -222.852234
v 327.132263 -150.338135 -335.617462
v 303.712097 -209.111328 -310.664703
v 353.703064 -230.187439 -307.675323
v 378.566345 -167.792297 -334.165436
v 386.388733 -155.741516 -292.727875
v 362.968567 -214.514832 -267.775299
v 327.496643 -181.164673 -374.856537
v 312.422180 -218.994446 -358.795563
v 344.599060 -232.559998 -356.871429
v 360.602356 -192.399170 -373.922058
v 429.753357 -189.599426 -337.486725
v 437.576111 -177.548767 -296.049164
v 414.155945 -236.322266 -271.096405
v 404.890076 -251.994568 -310.996368
v 327.261902 -200.996765 -402.351410
v 317.098999 -226.500488 -391.523590
v 338.791931 -235.646179 -390.226471
v 349.580994 -208.570740 -401.721497
v 339.136414 -222.429871 -426.624878
v 332.783508 -238.372681 -419.856293
v 346.343933 -244.089600 -419.045258
v 353.088318 -227.164490 -426.231049
v 454.597961 -209.480347 -328.024078
v 459.799255 -201.467590 -300.471680
v 444.226990 -240.546692 -283.880249
v 438.065979 -250.967590 -310.410217
vn 0.6172 -0.6928 0.3730
vn -0.1086 0.9759 -0.1894
vn -0.6197 0.6791 -0.3933
vn -0.3047 -0.1134 0.9457
vn 0.2421 0.9685 0.0586
vn -0.5871 -0.7670 -0.2591
vn -0.0078 0.9143 0.4049
vn 0.7844 0.4326 0.4446
vn -0.5447 0.0265 -0.8382
vn 0.4498 -0.8774 0.1669
vn -0.0121 0.5147 -0.8573
vn 0.1854 -0.4619 0.8673
vn -0.0261 0.4809 -0.8764
vn 0.1617 -0.8960 -0.4136
vn 0.0932 -0.3457 0.9337
vn 0.1765 -0.8930 -0.4139
vn 0.0071 0.9150 0.4035
vn 0.2047 -0.4917 0.8463
vn 0.1849 -0.2803 0.9419
vn 0.0477 -0.9117 -0.4081
vn -0.0126 0.3373 -0.9413
vn 0.1719 -0.3182 0.9323
vn 0.0077 0.3033 -0.9529
vn -0.5035 -0.3676 -0.7819
vn 0.4815 0.7859 0.3880
vn -0.8504 -0.2991 -0.4327
vn 0.6511 0.6933 0.3088
vn -0.7633 0.4633 0.4502
vn -0.0673 0.9099 0.4094
vn -0.0960 0.3545 -0.9301
vn -0.0979 0.9063 0.4112
vn 0.1039 -0.4528 0.8856
vn -0.0951 0.3503 -0.9318
vn -0.1057 0.4570 -0.8831
vn 0.0655 -0.3726 0.9257
vn -0.4439 -0.8366 -0.3210
vn 0.1030 -0.4487 0.8877
vn 0.0951 -0.3430 0.9345
vn -0.1038 0.4597 -0.8820
vn 0.0673 -0.9099 -0.4094
vn 0.7385 0.6429 0.2032
vn 0.0803 0.2255 -0.9709
vn 0.2729 -0.5517 0.7881
vn 0.7572 0.6241 0.1928
vn 0.3135 -0.0983 0.9445
vn -0.1336 0.4308 -0.8925
vn -0.7132 0.6090 0.3472
vn 0.7132 -0.6090 -0.3472
vn 0.3575 0.8681 0.3444
vn 0.2461 -0.5368 0.8070
vn 0.0518 0.2473 -0.9676
vn -0.4692 -0.8256 -0.3134
vn 0.7838 -0.5317 -0.3208
vn 0.2381 -0.5322 0.8124
vn 0.0431 0.2539 -0.9663
vn -0.1159 -0.9132 -0.3908
vn 0.6939 0.6837 0.2261
vn 0.1281 0.6500 -0.7490
vn 0.8575 -0.4293 -0.2836
vn -0.5280 0.7539 0.3909
vn 0.1738 -0.5844 0.7927
vn 0.7055 0.7068 -0.0515
vn -0.1266 0.5958 -0.7931
vn -0.7365 0.2006 0.6460
vn 0.4810 0.8767 0.0111
vn -0.5442 -0.7578 -0.3599
vn 0.7892 -0.0569 0.6115
vn 0.8657 -0.0286 0.4998
vn -0.2423 0.0230 -0.9699
vn -0.1993 -0.8689 0.4530
vn 0.4826 0.8034 -0.3489
vn -0.3805 -0.8920 0.2440
vn 0.4469 0.8169 -0.3645
vn -0.7110 -0.0303 -0.7026
vn -0.2983 -0.8630 0.4076
vn -0.6928 -0.0298 -0.7205
vn 0.7978 -0.0633 0.5996
vn -0.3725 -0.9011 0.2221
vn -0.1982 -0.9050 0.3764
vn -0.7693 0.0357 -0.6379
vn 0.3285 0.8196 -0.4694
vn -0.2107 -0.8934 0.3968
vn 0.3083 0.8073 -0.5032
vn -0.6010 -0.4154 -0.6828
vn 0.8714 0.4895 -0.0332
vn -0.5721 -0.3531 -0.7403
vn 0.6206 0.6532 0.4338
vn -0.7526 0.6473 -0.1213
vn 0.7585 -0.0258 0.6511
vn 0.3046 0.8644 -0.4001
vn 0.7411 -0.0103 0.6713
vn -0.3862 -0.8617 0.3292
vn 0.3014 0.8639 -0.4034
vn 0.3891 0.8620 -0.3248
vn -0.3346 -0.8481 0.4108
vn -0.9341 0.2764 -0.2258
vn -0.3832 -0.8617 0.3327
vn -0.2950 -0.8641 0.4079
vn 0.3923 0.8607 -0.3244
vn -0.7585 0.0258 -0.6511
vn 0.9039 -0.4108 -0.1193
vn 0.2738 0.7575 -0.5926
vn -0.3917 -0.9127 0.1165
vn 0.8962 -0.4190 -0.1456
vn 0.0225 -0.9323 0.3610
vn 0.3533 0.8783 -0.3221
vn 0.1950 0.3164 0.9284
vn -0.1950 -0.3164 -0.9284
vn 0.9211 -0.2353 0.3103
vn -0.3917 -0.9074 0.1521
vn 0.2797 0.7775 -0.5632
vn -0.9364 0.2883 -0.1999
vn -0.0948 -0.3568 -0.9294
vn -0.3915 -0.9057 0.1627
vn 0.2815 0.7834 -0.5541
vn -0.8471 0.1176 -0.5182
vn 0.9184 -0.3912 -0.0596
vn 0.6633 0.6757 -0.3217
vn 0.0286 -0.4003 -0.9160
vn 0.4075 0.2145 0.8877
usemtl Matériau.012
s off
f 83//20 84//20 86//20 85//20
f 90//21 89//21 93//21 94//21
f 89//22 90//22 88//22 87//22
f 105//23 106//23 84//23 83//23
f 103//24 89//24 87//24 105//24
f 104//25 86//25 84//25 106//25
f 94//26 93//26 97//26 98//26
f 103//27 85//27 92//27 107//27
f 104//28 90//28 94//28 108//28
f 85//29 86//29 91//29 92//29
f 110//30 98//30 102//30 112//30
f 107//31 92//31 96//31 109//31
f 108//32 94//32 98//32 110//32
f 92//33 91//33 95//33 96//33
f 101//34 111//34 115//34 118//34
f 96//35 95//35 99//35 100//35
f 98//36 97//36 101//36 102//36
f 109//37 96//37 100//37 111//37
f 97//38 109//38 111//38 101//38
f 100//39 99//39 113//39 114//39
f 91//40 108//40 110//40 95//40
f 93//41 107//41 109//41 97//41
f 95//42 110//42 112//42 99//42
f 86//43 104//43 108//43 91//43
f 89//44 103//44 107//44 93//44
f 90//45 104//45 106//45 88//45
f 85//46 103//46 105//46 83//46
f 87//47 88//47 106//47 105//47
f 117//48 118//48 124//48 123//48
f 113//49 116//49 122//49 119//49
f 102//50 101//50 118//50 117//50
f 111//51 100//51 114//51 115//51
f 99//52 112//52 116//52 113//52
f 112//53 102//53 117//53 116//53
f 124//54 121//54 132//54 131//54
f 120//55 119//55 125//55 126//55
f 115//56 114//56 120//56 121//56
f 118//57 115//57 121//57 124//57
f 116//58 117//58 123//58 122//58
f 114//59 113//59 119//59 120//59
f 128//60 127//60 135//60 136//60
f 119//61 122//61 128//61 125//61
f 121//62 120//62 126//62 127//62
f 122//63 121//63 127//63 128//63
f 131//64 132//64 144//64 143//64
f 122//65 123//65 130//65 129//65
f 123//66 124//66 131//66 130//66
f 121//67 122//67 129//67 132//67
f 136//68 135//68 139//68 140//68
f 127//69 126//69 134//69 135//69
f 125//70 128//70 136//70 133//70
f 126//71 125//71 133//71 134//71
f 138//72 137//72 140//72 139//72
f 135//73 134//73 138//73 139//73
f 133//74 136//74 140//74 137//74
f 134//75 133//75 137//75 138//75
f 144//76 141//76 142//76 143//76
f 129//77 130//77 142//77 141//77
f 132//78 129//78 141//78 144//78
f 130//79 131//79 143//79 142//79
f 145//80 146//80 148//80 147//80
f 152//81 151//81 155//81 156//81
f 151//82 152//82 150//82 149//82
f 167//83 168//83 146//83 145//83
f 165//84 151//84 149//84 167//84
f 166//85 148//85 146//85 168//85
f 156//86 155//86 159//86 160//86
f 165//87 147//87 154//87 169//87
f 166//88 152//88 156//88 170//88
f 147//89 148//89 153//89 154//89
f 172//90 160//90 164//90 174//90
f 169//91 154//91 158//91 171//91
f 170//92 156//92 160//92 172//92
f 154//93 153//93 157//93 158//93
f 163//94 173//94 177//94 180//94
f 158//95 157//95 161//95 162//95
f 160//96 159//96 163//96 164//96
f 171//97 158//97 162//97 173//97
f 159//98 171//98 173//98 163//98
f 162//99 161//99 175//99 176//99
f 153//100 170//100 172//100 157//100
f 155//101 169//101 171//101 159//101
f 157//102 172//102 174//102 161//102
f 148//103 166//103 170//103 153//103
f 151//104 165//104 169//104 155//104
f 152//105 166//105 168//105 150//105
f 147//106 165//106 167//106 145//106
f 149//107 150//107 168//107 167//107
f 179//108 180//108 186//108 185//108
f 175//109 178//109 184//109 181//109
f 164//110 163//110 180//110 179//110
f 173//111 162//111 176//111 177//111
f 161//112 174//112 178//112 175//112
f 174//113 164//113 179//113 178//113
f 186//114 183//114 194//114 193//114
f 182//115 181//115 187//115 188//115
f 177//116 176//116 182//116 183//116
f 180//117 177//117 183//117 186//117
f 178//118 179//118 185//118 184//118
f 176//119 175//119 181//119 182//119
f 190//120 189//120 197//120 198//120
f 181//121 184//121 190//121 187//121
f 183//122 182//122 188//122 189//122
f 184//123 183//123 189//123 190//123
f 193//124 194//124 206//124 205//124
f 184//125 185//125 192//125 191//125
f 185//126 186//126 193//126 192//126
f 183//127 184//127 191//127 194//127
f 198//128 197//128 201//128 202//128
f 189//129 188//129 196//129 197//129
f 187//130 190//130 198//130 195//130
f 188//131 187//131 195//131 196//131
f 200//132 199//132 202//132 201//132
f 197//133 196//133 200//133 201//133
f 195//134 198//134 202//134 199//134
f 196//135 195//135 199//135 200//135
f 206//136 203//136 204//136 205//136
f 191//137 192//137 204//137 203//137
f 194//138 191//138 203//138 206//138
f 192//139 193//139 205//139 204//139
