# Blender v2.91.2 OBJ File: 'camionnete02.blend'
# www.blender.org
mtllib arme_000230.mtl
o Cube.046_Cube.010
v 401.126648 327.025940 -957.445251
v 357.410339 131.288025 -1048.848999
v 563.933960 358.470154 -1102.648926
v 520.217651 162.732300 -1194.052979
v 259.134644 423.343323 -1095.793701
v 215.418213 227.605408 -1187.197510
v 421.941895 454.787537 -1240.997437
v 378.225586 259.049622 -1332.401367
v 176.973267 283.733398 -757.528442
v 133.256866 87.995514 -848.932251
v -8.735229 184.312866 -987.280640
v 34.981171 380.050781 -895.876831
v 75.529144 264.140686 -667.052795
v 31.812744 68.402802 -758.456726
v -110.179428 164.720154 -896.805176
v -66.463013 360.458069 -805.401367
v 15.600464 252.566223 -613.604004
v -6.077209 112.044434 -688.917114
v -148.069397 208.361816 -827.265625
v -126.391693 348.883545 -751.952454
v 119.110352 459.273499 -575.931641
v -22.881714 555.590881 -714.280151
v 59.181732 447.698975 -522.482788
v -82.810364 544.016357 -660.831177
v 211.945312 290.487793 -788.719116
v 168.228943 94.749969 -880.122925
v 69.953247 386.805176 -927.067627
v 26.236786 191.067291 -1018.471436
v 191.404388 348.347961 -727.355347
v 49.412292 444.665405 -865.703796
v 226.376404 355.102356 -758.545898
v 84.384277 451.419678 -896.894409
v 212.341614 442.093140 -683.579102
v 70.349426 538.410400 -821.927490
v 247.313599 448.847534 -714.769897
v 105.321533 545.164917 -853.118286
v 92.253052 329.198059 -638.924622
v -49.739105 425.515381 -777.273132
v 113.190216 422.943237 -595.148438
v -28.801910 519.260620 -733.496948
v 184.078583 588.057617 -552.952148
v 42.086487 684.374878 -691.300659
v 124.149963 576.483093 -499.503296
v -17.842163 672.800354 -637.851746
v 506.458008 347.369385 -1051.387695
v 462.741699 151.631531 -1142.791504
v 364.465820 443.686768 -1189.736084
v 320.749451 247.948792 -1281.139893
v 492.937988 406.628845 -1171.823242
v 449.221558 210.890961 -1263.227173
v 330.130676 375.184631 -1026.619507
v 286.414246 179.446686 -1118.023315
v 105.977234 331.892090 -826.702637
v 62.260803 136.154175 -918.106445
v 4.533081 312.299377 -736.227051
v -39.572845 119.747192 -810.674072
v -55.395599 300.724854 -682.778198
v -65.122131 149.174866 -763.783447
v 48.114288 507.432190 -645.105835
v -11.814331 495.857666 -591.656982
v 97.232880 142.908630 -949.297180
v 140.949280 338.646484 -857.893311
v 120.408325 396.506653 -796.529541
v 155.380341 403.260986 -827.720215
v 141.345551 490.251831 -752.753235
v 176.317566 497.006226 -783.944031
v 21.256958 377.356750 -708.098938
v 42.194153 471.101929 -664.322632
v 113.082520 636.216309 -622.126343
v 53.153870 624.641724 -568.677551
v 391.745605 199.790192 -1211.965576
v 435.461914 395.528076 -1120.561768
v 528.435974 382.549438 -1137.236084
v 321.912292 155.367340 -1083.436279
v 97.758850 112.074829 -883.519348
v -15.636444 103.510437 -787.351929
v -41.185730 132.938110 -740.461121
v 176.447266 314.567139 -823.306152
v 190.878357 379.181641 -793.133057
v 211.815613 472.926880 -749.356934
v 470.959961 371.448730 -1085.974731
v 484.719604 186.811646 -1228.640015
v 365.628723 351.105347 -992.032471
v 141.475281 307.812744 -792.115540
v 40.031067 288.220032 -701.639954
v -19.897583 276.645508 -648.191101
v 83.612335 483.352844 -610.518738
v 23.683716 471.778320 -557.069885
v 132.730927 118.829285 -914.710022
v 155.906342 372.427307 -761.942444
v 176.843567 466.172485 -718.166199
v 56.755005 353.277466 -673.511841
v 77.692200 447.022583 -629.735474
v 148.580566 612.136902 -587.539185
v 88.651917 600.562378 -534.090393
v 427.243530 175.710876 -1177.378662
v 124.545624 82.179993 -931.824158
v 89.047546 106.259338 -966.411255
v 419.058289 139.061615 -1194.492920
v 383.560242 163.140900 -1229.079834
v 278.228943 142.797424 -1135.137451
v 313.726990 118.718109 -1100.550293
v 524.745117 246.500244 -992.358215
v 478.168701 237.504578 -950.817932
v 458.837830 150.951172 -991.235718
v 505.414246 159.946930 -1032.776123
v 555.428955 225.686584 -962.462036
v 508.852539 216.690887 -920.921631
v 489.521667 130.137604 -961.339355
v 536.098022 139.133301 -1002.879883
v 602.384949 193.835083 -916.711121
v 555.808533 184.839386 -875.170654
v 536.477539 98.286133 -915.588501
v 583.053955 107.281860 -957.129028
v 632.600525 173.339050 -887.270935
v 586.024109 164.343323 -845.730591
v 566.693237 77.790009 -886.148315
v 613.269531 86.785736 -927.688782
v 1019.572876 290.112000 -1705.661621
v 984.074829 314.191406 -1740.248535
v 1027.791016 509.929321 -1648.844849
v 1063.289185 485.849976 -1614.257690
v 155.219727 691.101440 -601.256653
v 89.800659 735.477051 -664.997009
v 99.998657 680.436096 -552.006348
v 34.579651 724.811707 -615.746643
v 165.417755 636.060547 -488.266083
v 220.638794 646.725830 -537.516174
v 187.929260 668.913696 -569.386292
v 132.708221 658.248291 -520.136230
vn 0.6442 -0.4370 0.6277
vn 0.7387 0.1427 -0.6588
vn -0.6442 0.4370 -0.6277
vn 0.1983 0.8881 0.4147
vn -0.1983 -0.8881 -0.4147
vn -0.7387 -0.1427 0.6588
vn -0.6390 -0.7585 0.1278
vn -0.2718 -0.8549 -0.4419
vn -0.8067 -0.2049 0.5543
vn -0.6453 0.4364 -0.6270
vn 0.6453 -0.4364 0.6270
vn 0.6222 -0.1778 -0.7624
vn 0.6187 -0.1847 -0.7636
vn -0.6222 0.1778 0.7624
vn 0.9326 -0.0408 -0.3586
vn -0.5321 0.7233 -0.4400
vn -0.7281 -0.2609 0.6338
vn -0.1960 -0.9095 -0.3667
vn -0.5800 0.2559 0.7734
vn -0.7594 -0.2681 0.5928
vn -0.2465 -0.8955 -0.3704
vn -0.4256 -0.3031 0.8527
vn 0.1901 -0.9818 0.0005
vn 0.5209 0.4995 0.6922
vn 0.6172 -0.5361 0.5759
usemtl Matériau.011
s off
f 45//1 46//1 4//1 3//1
f 49//2 50//2 8//2 7//2
f 47//3 48//3 6//3 5//3
f 26//1 25//1 9//1 10//1
f 72//4 47//4 5//4 51//4
f 96//5 46//5 2//5 74//5
f 10//1 9//1 13//1 14//1
f 84//6 9//6 29//6 90//6
f 89//5 26//5 10//5 75//5
f 27//3 28//3 11//3 12//3
f 76//7 14//7 18//7 77//7
f 75//8 10//8 14//8 76//8
f 12//3 11//3 15//3 16//3
f 53//4 12//4 16//4 55//4
f 86//9 77//9 18//9 17//9
f 16//10 15//10 19//10 20//10
f 16//3 20//3 24//3 22//3
f 14//11 13//11 17//11 18//11
f 59//12 22//12 42//12 69//12
f 86//6 17//6 23//6 88//6
f 17//1 13//1 21//1 23//1
f 55//2 16//2 22//2 59//2
f 5//3 6//3 28//3 27//3
f 74//5 2//5 26//5 89//5
f 51//4 5//4 27//4 62//4
f 2//1 1//1 25//1 26//1
f 32//3 30//3 34//3 36//3
f 62//2 27//2 32//2 64//2
f 27//3 12//3 30//3 32//3
f 9//1 25//1 31//1 29//1
f 66//4 36//4 34//4 65//4
f 90//5 29//5 37//5 92//5
f 64//2 32//2 36//2 66//2
f 29//1 31//1 35//1 33//1
f 92//6 37//6 39//6 93//6
f 29//1 33//1 39//1 37//1
f 34//3 30//3 38//3 40//3
f 65//4 34//4 40//4 68//4
f 69//13 42//13 124//13 123//13
f 23//1 21//1 41//1 43//1
f 88//14 23//14 43//14 95//14
f 22//3 24//3 44//3 42//3
f 82//5 4//5 46//5 96//5
f 49//4 7//4 47//4 72//4
f 7//3 8//3 48//3 47//3
f 46//15 45//15 103//15 106//15
f 73//4 49//4 72//4 81//4
f 8//5 50//5 71//5 48//5
f 24//14 60//14 70//14 44//14
f 42//16 44//16 126//16 124//16
f 91//4 65//4 68//4 93//4
f 38//6 67//6 68//6 40//6
f 79//2 64//2 66//2 80//2
f 30//5 63//5 67//5 38//5
f 80//4 66//4 65//4 91//4
f 78//2 62//2 64//2 79//2
f 83//4 51//4 62//4 78//4
f 6//5 52//5 61//5 28//5
f 85//2 55//2 59//2 87//2
f 20//6 57//6 60//6 24//6
f 87//12 59//12 69//12 94//12
f 20//17 19//17 58//17 57//17
f 84//4 53//4 55//4 85//4
f 11//18 54//18 56//18 15//18
f 15//7 56//7 58//7 19//7
f 28//5 61//5 54//5 11//5
f 12//6 53//6 63//6 30//6
f 48//5 71//5 52//5 6//5
f 81//4 72//4 51//4 83//4
f 50//3 49//3 121//3 120//3
f 3//2 4//2 82//2 73//2
f 45//4 81//4 83//4 1//4
f 9//4 84//4 85//4 13//4
f 21//12 87//12 94//12 41//12
f 13//2 85//2 87//2 21//2
f 1//4 83//4 78//4 25//4
f 25//2 78//2 79//2 31//2
f 35//4 80//4 91//4 33//4
f 31//2 79//2 80//2 35//2
f 33//4 91//4 93//4 39//4
f 70//19 95//19 130//19 125//19
f 3//4 73//4 81//4 45//4
f 50//5 82//5 96//5 71//5
f 60//14 88//14 95//14 70//14
f 67//6 92//6 93//6 68//6
f 63//5 90//5 92//5 67//5
f 52//3 71//3 100//3 101//3
f 57//6 86//6 88//6 60//6
f 57//20 58//20 77//20 86//20
f 54//21 75//21 76//21 56//21
f 56//7 76//7 77//7 58//7
f 61//5 89//5 75//5 54//5
f 53//6 84//6 90//6 63//6
f 89//6 61//6 98//6 97//6
f 101//5 102//5 97//5 98//5
f 100//5 99//5 102//5 101//5
f 61//3 52//3 101//3 98//3
f 74//1 89//1 97//1 102//1
f 71//2 96//2 99//2 100//2
f 96//1 74//1 102//1 99//1
f 106//2 103//2 107//2 110//2
f 1//22 2//22 105//22 104//22
f 2//23 46//23 106//23 105//23
f 45//24 1//24 104//24 103//24
f 109//5 110//5 114//5 113//5
f 104//6 105//6 109//6 108//6
f 105//5 106//5 110//5 109//5
f 103//4 104//4 108//4 107//4
f 113//5 114//5 118//5 117//5
f 107//4 108//4 112//4 111//4
f 110//2 107//2 111//2 114//2
f 108//6 109//6 113//6 112//6
f 116//1 117//1 118//1 115//1
f 111//4 112//4 116//4 115//4
f 114//2 111//2 115//2 118//2
f 122//2 119//2 120//2 121//2
f 82//5 50//5 120//5 119//5
f 73//1 82//1 119//1 122//1
f 49//4 73//4 122//4 121//4
f 123//4 124//4 126//4 125//4
f 129//4 123//4 125//4 130//4
f 128//4 129//4 130//4 127//4
f 95//19 43//19 127//19 130//19
f 94//13 69//13 123//13 129//13
f 43//25 41//25 128//25 127//25
f 44//19 70//19 125//19 126//19
f 41//13 94//13 129//13 128//13
o Cube.048_Cube.024
v -470.356110 585.335205 120.374550
v -606.759277 386.418793 135.339966
v -405.783539 524.151489 -104.313011
v -550.192200 323.373138 -99.580833
v -676.594727 644.792053 -18.408852
v -746.532471 542.802002 -10.735695
v -643.486572 613.421448 -133.612457
v -714.148193 511.426361 -127.042458
v -411.048126 405.290131 -525.489624
v -336.004700 414.081909 -423.932709
v -358.373718 538.537292 -418.177643
v -433.417145 529.745483 -519.734680
v -234.961273 459.250000 -639.389771
v -179.787659 465.713898 -564.722839
v -196.233826 557.216309 -560.491638
v -251.407410 550.752441 -635.158569
v -123.893677 495.170654 -708.956787
v -83.573486 499.894440 -654.391235
v -95.592224 566.763184 -651.299011
v -135.912231 562.039429 -705.864807
v -501.062378 596.047180 -131.534729
v -651.275635 385.548218 -124.659828
v -569.408752 661.297485 106.990829
v -714.217529 450.123199 122.878418
v -340.479614 477.524841 -421.257111
v -420.147522 468.191284 -529.072327
v -171.492004 514.846802 -571.532166
v -230.065735 507.984528 -650.800232
v -66.998840 538.057739 -667.330688
v -109.803528 533.042969 -725.258911
v -49.364014 507.563171 -765.101807
v -9.043823 512.286865 -710.536255
v 14.225342 557.760010 -729.055176
v -28.579407 552.745239 -786.983521
v -55.717224 580.618042 -766.731506
v -15.397156 585.341797 -712.165894
v 3.966125 517.784546 -805.393860
v 44.286438 522.508301 -750.828186
v 67.555481 567.981445 -769.347351
v 24.750671 562.966614 -827.275513
v -2.387024 590.839478 -807.023682
v 37.933167 595.563232 -752.458130
v 48.070496 500.801819 -821.410217
v 74.022766 503.842224 -786.288879
v 89.000061 533.111267 -798.208740
v 61.448547 529.883423 -835.494507
v 51.413879 605.945068 -850.698364
v 24.276184 633.817993 -830.446594
v 64.596313 638.541748 -775.880981
v 94.218750 610.959961 -792.770325
v 77.321838 488.220642 -833.046936
v 94.818176 490.270386 -809.369141
v 104.915405 510.002808 -817.405090
v 86.341003 507.826691 -842.542175
v 108.010254 487.505066 -848.772583
v 118.947388 488.786499 -833.971252
v 125.259277 501.121399 -838.994629
v 113.648254 499.761047 -854.708069
v 68.196411 634.586914 -850.501465
v 50.152100 653.119873 -837.035706
v 76.961426 656.260803 -800.754272
v 96.657837 637.921326 -811.984253
v -296.007263 470.937256 449.153473
v -412.023132 277.420074 362.614502
v -117.090332 416.834991 302.475098
v -224.952332 230.361725 217.055023
v -378.407257 549.197144 220.208191
v -437.891846 449.975494 175.837250
v -276.081177 523.023682 150.230896
v -341.975403 425.847321 101.204803
v -43.893494 159.673889 -71.196114
v -54.085754 80.891235 23.575745
v 63.835754 101.586426 55.207260
v 76.559326 179.224670 -37.558334
v 32.596008 -8.344055 -184.381073
v 22.946228 -69.076172 -114.527321
v 111.505798 -54.702026 -89.796013
v 121.155762 6.030151 -159.649902
v 82.201660 -114.528015 -253.157013
v 75.149536 -158.910217 -202.108734
v 139.867859 -148.405762 -184.035431
v 146.919922 -104.023560 -235.083649
v -166.144470 491.225311 238.282227
v -292.599182 296.411713 139.251495
v -368.032776 551.812317 385.652649
v -491.197937 346.369934 293.780884
v 4.422852 80.148621 40.174721
v 18.356750 167.842712 -60.690521
v 72.386047 -77.751526 -111.419731
v 82.630615 -13.276855 -185.578033
v 115.151062 -175.175598 -207.932159
v 122.637634 -128.058228 -262.126221
v 106.051270 -184.852234 -311.003326
v 98.999146 -229.234375 -259.955017
v 147.312500 -251.891602 -270.187592
v 154.799011 -204.774292 -324.381531
v 177.803589 -179.757141 -296.661407
v 170.751587 -224.139526 -245.613190
v 124.464844 -235.189636 -352.223663
v 117.412842 -279.571777 -301.175507
v 165.726074 -302.229248 -311.408112
v 173.212585 -255.111816 -365.602020
v 196.217285 -230.094543 -337.881927
v 189.165161 -274.476746 -286.833588
v 111.165039 -277.643372 -374.827179
v 106.625977 -306.210388 -341.969635
v 137.722961 -320.793701 -348.555939
v 142.541748 -290.466431 -383.438171
v 220.120422 -280.738525 -381.402222
v 243.124878 -255.721252 -353.681885
v 236.072937 -300.103516 -302.633850
v 212.633850 -327.855835 -327.208221
v 101.271667 -305.699463 -391.084808
v 98.211487 -324.958374 -368.933380
v 119.176331 -334.790405 -373.373810
v 122.425049 -314.344360 -396.890320
v 103.837891 -335.102661 -408.930267
v 101.924988 -347.141602 -395.083099
v 115.030334 -353.287598 -397.858643
v 117.061035 -340.506714 -412.559082
v 248.029907 -298.019348 -376.454559
v 263.325928 -281.385010 -358.022949
v 258.636902 -310.895386 -324.080353
v 243.051880 -329.348145 -340.420135
vn 0.7754 -0.5276 0.3470
vn -0.3828 0.8376 -0.3898
vn -0.7799 0.5124 -0.3595
vn -0.0504 0.1092 0.9927
vn 0.1205 0.9659 -0.2293
vn -0.5268 -0.8449 0.0930
vn -0.1152 0.9933 -0.0009
vn 0.7961 0.6005 0.0757
vn -0.7853 -0.2989 -0.5422
vn 0.6275 -0.7514 0.2042
vn -0.5302 0.0622 -0.8456
vn 0.6662 0.0048 0.7458
vn -0.5399 0.0223 -0.8414
vn 0.2372 -0.9671 -0.0915
vn 0.5800 0.1296 0.8042
vn 0.2487 -0.9634 -0.1004
vn -0.1032 0.9946 -0.0098
vn 0.6829 -0.0294 0.7299
vn 0.6418 0.1995 0.7405
vn 0.1471 -0.9889 -0.0231
vn -0.5120 -0.1333 -0.8486
vn 0.6382 0.1604 0.7530
vn -0.4891 -0.1667 -0.8562
vn -0.6346 -0.6536 -0.4125
vn 0.4391 0.8976 0.0385
vn -0.8838 -0.4544 -0.1117
vn 0.6104 0.7910 -0.0408
vn -0.6861 0.5095 0.5193
vn -0.1627 0.9861 0.0348
vn -0.5836 -0.1204 -0.8030
vn -0.1869 0.9809 0.0532
vn 0.6016 0.0138 0.7987
vn -0.5822 -0.1249 -0.8034
vn -0.6034 -0.0091 -0.7974
vn 0.5612 0.0996 0.8216
vn -0.2585 -0.9271 0.2713
vn 0.6005 0.0183 0.7994
vn 0.5812 0.1326 0.8029
vn -0.6021 -0.0061 -0.7984
vn 0.1627 -0.9861 -0.0348
vn 0.5192 0.7286 -0.4467
vn -0.4110 -0.2372 -0.8802
vn 0.7348 -0.1030 0.6704
vn 0.5365 0.7089 -0.4578
vn 0.6968 0.3734 0.6124
vn -0.6231 -0.0391 -0.7811
vn -0.6478 0.6329 0.4239
vn 0.6478 -0.6329 -0.4239
vn 0.1851 0.9579 -0.2197
vn 0.7154 -0.0836 0.6937
vn -0.4405 -0.2190 -0.8706
vn -0.2802 -0.9162 0.2863
vn 0.6957 -0.5461 -0.4668
vn 0.7094 -0.0778 0.7005
vn -0.4495 -0.2133 -0.8674
vn 0.0152 -0.9971 0.0751
vn 0.4784 0.7711 -0.4202
vn -0.4063 0.2441 -0.8805
vn 0.7429 -0.4318 -0.5116
vn -0.5157 0.7979 0.3120
vn 0.4131 -0.5662 0.7133
vn 0.5696 0.7579 -0.3180
vn -0.3771 0.5830 -0.7197
vn -0.6369 0.0374 0.7701
vn 0.2646 0.9643 -0.0146
vn -0.4538 -0.8341 -0.3136
vn 0.9716 0.0969 0.2161
vn 0.9421 0.0881 0.3234
vn -0.4481 -0.0663 -0.8915
vn -0.1017 -0.8287 0.5504
vn 0.2414 0.5909 -0.7697
vn -0.1851 -0.7183 0.6707
vn 0.2016 0.6010 -0.7734
vn -0.9307 -0.2160 -0.2952
vn -0.0453 -0.6411 0.7661
vn -0.9207 -0.2225 -0.3206
vn 0.9743 0.0851 0.2086
vn -0.1852 -0.7351 0.6522
vn 0.0364 -0.6991 0.7141
vn -0.9618 -0.1265 -0.2428
vn 0.0510 0.5766 -0.8154
vn 0.0341 -0.6794 0.7330
vn 0.0198 0.5550 -0.8316
vn -0.7022 -0.5056 -0.5013
vn 0.8157 0.5562 -0.1589
vn -0.6194 -0.4295 -0.6572
vn 0.5335 0.7452 0.4002
vn -0.8658 0.4983 0.0464
vn 0.9566 0.1412 0.2549
vn 0.0540 0.6444 -0.7628
vn 0.9478 0.1641 0.2736
vn -0.1573 -0.6600 0.7346
vn 0.0497 0.6431 -0.7642
vn 0.1617 0.6616 -0.7322
vn -0.0782 -0.6231 0.7783
vn -0.9630 0.2546 0.0884
vn -0.1531 -0.6590 0.7364
vn -0.0421 -0.6422 0.7654
vn 0.1648 0.6603 -0.7327
vn -0.9566 -0.1412 -0.2549
vn 0.8056 -0.4977 -0.3214
vn -0.0441 0.4802 -0.8760
vn -0.2446 -0.7810 0.5747
vn 0.7886 -0.5138 -0.3377
vn 0.2334 -0.7476 0.6217
vn 0.1289 0.6806 -0.7212
vn 0.5301 0.6023 0.5969
vn -0.5301 -0.6023 -0.5969
vn 0.9822 -0.1859 -0.0259
vn -0.2305 -0.7638 0.6030
vn -0.0283 0.5086 -0.8605
vn -0.9555 0.2749 0.1070
vn -0.4362 -0.6484 -0.6240
vn -0.2262 -0.7584 0.6113
vn -0.0234 0.5172 -0.8555
vn -0.9903 -0.0022 -0.1387
vn 0.8416 -0.4598 -0.2835
vn 0.4263 0.4666 -0.7749
vn -0.3151 -0.6942 -0.6471
vn 0.7147 0.4759 0.5125
usemtl Matériau.012
s off
f 131//26 132//26 134//26 133//26
f 138//27 137//27 141//27 142//27
f 137//28 138//28 136//28 135//28
f 153//29 154//29 132//29 131//29
f 151//30 137//30 135//30 153//30
f 152//31 134//31 132//31 154//31
f 142//32 141//32 145//32 146//32
f 151//33 133//33 140//33 155//33
f 152//34 138//34 142//34 156//34
f 133//35 134//35 139//35 140//35
f 158//36 146//36 150//36 160//36
f 155//37 140//37 144//37 157//37
f 156//38 142//38 146//38 158//38
f 140//39 139//39 143//39 144//39
f 149//40 159//40 163//40 166//40
f 144//41 143//41 147//41 148//41
f 146//42 145//42 149//42 150//42
f 157//43 144//43 148//43 159//43
f 145//44 157//44 159//44 149//44
f 148//45 147//45 161//45 162//45
f 139//46 156//46 158//46 143//46
f 141//47 155//47 157//47 145//47
f 143//48 158//48 160//48 147//48
f 134//49 152//49 156//49 139//49
f 137//50 151//50 155//50 141//50
f 138//51 152//51 154//51 136//51
f 133//52 151//52 153//52 131//52
f 135//53 136//53 154//53 153//53
f 165//54 166//54 172//54 171//54
f 161//55 164//55 170//55 167//55
f 150//56 149//56 166//56 165//56
f 159//57 148//57 162//57 163//57
f 147//58 160//58 164//58 161//58
f 160//59 150//59 165//59 164//59
f 172//60 169//60 180//60 179//60
f 168//61 167//61 173//61 174//61
f 163//62 162//62 168//62 169//62
f 166//63 163//63 169//63 172//63
f 164//64 165//64 171//64 170//64
f 162//65 161//65 167//65 168//65
f 176//66 175//66 183//66 184//66
f 167//67 170//67 176//67 173//67
f 169//68 168//68 174//68 175//68
f 170//69 169//69 175//69 176//69
f 179//70 180//70 192//70 191//70
f 170//71 171//71 178//71 177//71
f 171//72 172//72 179//72 178//72
f 169//73 170//73 177//73 180//73
f 184//74 183//74 187//74 188//74
f 175//75 174//75 182//75 183//75
f 173//76 176//76 184//76 181//76
f 174//77 173//77 181//77 182//77
f 186//78 185//78 188//78 187//78
f 183//79 182//79 186//79 187//79
f 181//80 184//80 188//80 185//80
f 182//81 181//81 185//81 186//81
f 192//82 189//82 190//82 191//82
f 177//83 178//83 190//83 189//83
f 180//84 177//84 189//84 192//84
f 178//85 179//85 191//85 190//85
f 193//86 194//86 196//86 195//86
f 200//87 199//87 203//87 204//87
f 199//88 200//88 198//88 197//88
f 215//89 216//89 194//89 193//89
f 213//90 199//90 197//90 215//90
f 214//91 196//91 194//91 216//91
f 204//92 203//92 207//92 208//92
f 213//93 195//93 202//93 217//93
f 214//94 200//94 204//94 218//94
f 195//95 196//95 201//95 202//95
f 220//96 208//96 212//96 222//96
f 217//97 202//97 206//97 219//97
f 218//98 204//98 208//98 220//98
f 202//99 201//99 205//99 206//99
f 211//100 221//100 225//100 228//100
f 206//101 205//101 209//101 210//101
f 208//102 207//102 211//102 212//102
f 219//103 206//103 210//103 221//103
f 207//104 219//104 221//104 211//104
f 210//105 209//105 223//105 224//105
f 201//106 218//106 220//106 205//106
f 203//107 217//107 219//107 207//107
f 205//108 220//108 222//108 209//108
f 196//109 214//109 218//109 201//109
f 199//110 213//110 217//110 203//110
f 200//111 214//111 216//111 198//111
f 195//112 213//112 215//112 193//112
f 197//113 198//113 216//113 215//113
f 227//114 228//114 234//114 233//114
f 223//115 226//115 232//115 229//115
f 212//116 211//116 228//116 227//116
f 221//117 210//117 224//117 225//117
f 209//118 222//118 226//118 223//118
f 222//119 212//119 227//119 226//119
f 234//120 231//120 242//120 241//120
f 230//121 229//121 235//121 236//121
f 225//122 224//122 230//122 231//122
f 228//123 225//123 231//123 234//123
f 226//124 227//124 233//124 232//124
f 224//125 223//125 229//125 230//125
f 238//126 237//126 245//126 246//126
f 229//127 232//127 238//127 235//127
f 231//128 230//128 236//128 237//128
f 232//129 231//129 237//129 238//129
f 241//130 242//130 254//130 253//130
f 232//131 233//131 240//131 239//131
f 233//132 234//132 241//132 240//132
f 231//133 232//133 239//133 242//133
f 246//134 245//134 249//134 250//134
f 237//135 236//135 244//135 245//135
f 235//136 238//136 246//136 243//136
f 236//137 235//137 243//137 244//137
f 248//138 247//138 250//138 249//138
f 245//139 244//139 248//139 249//139
f 243//140 246//140 250//140 247//140
f 244//141 243//141 247//141 248//141
f 254//142 251//142 252//142 253//142
f 239//143 240//143 252//143 251//143
f 242//144 239//144 251//144 254//144
f 240//145 241//145 253//145 252//145
