# Blender v2.91.2 OBJ File: 'camionnete02.blend'
# www.blender.org
mtllib arme_000139.mtl
o Cube.046_Cube.010
v 83.877686 -141.384430 -1153.000732
v 80.714149 -351.478973 -1086.447021
v 138.817230 -206.595306 -1356.245117
v 135.653656 -416.689911 -1289.691650
v -129.548477 -155.056641 -1206.305908
v -132.712051 -365.151245 -1139.752319
v -74.608917 -220.267517 -1409.550049
v -77.772545 -430.362183 -1342.996704
v 8.236816 -51.601990 -873.173523
v 5.073273 -261.696503 -806.619873
v -208.352905 -275.368744 -859.924927
v -205.189346 -65.274155 -926.478577
v -25.995575 -10.969437 -746.533264
v -29.159180 -221.064041 -679.979675
v -242.585388 -234.736282 -733.284668
v -239.421844 -24.641678 -799.838379
v -46.218620 13.034393 -671.719971
v -44.977463 -143.791229 -635.767761
v -258.403717 -157.463440 -689.072937
v -259.644836 -0.637817 -725.024963
v -22.841827 198.475647 -812.881104
v -236.268036 184.803406 -866.186218
v -43.064819 222.479431 -738.067749
v -256.491028 208.807281 -791.372864
v 20.038214 -65.609680 -916.831665
v 16.874651 -275.704224 -850.278015
v -193.387970 -79.281891 -970.136780
v -196.551559 -289.376465 -903.583191
v 9.281136 17.751846 -895.143372
v -204.145050 4.079651 -948.448486
v 21.082531 3.744156 -938.801453
v -192.343643 -9.928101 -992.106445
v 10.796303 118.372925 -927.018066
v -202.629852 104.700653 -980.322998
v 22.597637 104.365143 -970.676270
v -190.828491 90.692932 -1023.981201
v -24.177582 57.465973 -771.365356
v -237.603821 43.793732 -824.670410
v -22.662460 158.087006 -803.240051
v -236.088654 144.414764 -856.545044
v -8.110161 313.706238 -901.420044
v -221.536346 300.033997 -954.725159
v -28.333191 337.710052 -826.606689
v -241.759338 324.037842 -879.911804
v 119.421852 -183.573883 -1284.493530
v 116.258293 -393.668457 -1217.940186
v -94.004318 -197.246063 -1337.798706
v -97.167847 -407.340637 -1271.244995
v 32.104122 -213.431427 -1382.897583
v 28.940559 -423.526031 -1316.344116
v -22.835388 -148.220520 -1179.653320
v -25.998955 -358.315125 -1113.099609
v -98.476242 -58.438080 -899.825989
v -101.639801 -268.532593 -833.272339
v -132.708694 -17.805557 -773.185852
v -129.759232 -214.759766 -697.262207
v -152.931686 6.198257 -698.372375
v -140.425568 -162.654495 -667.450012
v -129.554947 191.639526 -839.533569
v -149.777924 215.643311 -764.720276
v -89.838470 -282.540344 -876.930603
v -86.674881 -72.445801 -943.484192
v -97.431946 10.915726 -921.795959
v -85.630569 -3.091980 -965.454041
v -95.916779 111.536804 -953.670471
v -84.115433 97.529022 -997.328735
v -130.890701 50.629868 -798.017944
v -129.375534 151.250946 -829.892578
v -114.823273 306.870117 -928.072632
v -135.046280 330.873932 -853.259277
v 9.545189 -400.504578 -1244.592407
v 12.708782 -190.409912 -1311.145996
v 85.460739 -210.013336 -1369.571289
v 27.357597 -354.897034 -1099.773315
v -48.283279 -265.114563 -819.946167
v -93.780807 -212.454971 -688.276306
v -104.447098 -160.349701 -658.464050
v -33.318306 -69.027740 -930.157898
v -32.274033 0.326019 -952.127747
v -30.758911 100.947083 -984.002441
v 66.065338 -186.991913 -1297.819824
v 82.297142 -420.108002 -1303.017944
v 30.521130 -144.802521 -1166.327148
v -45.119720 -55.020035 -886.499756
v -79.352158 -14.387512 -759.859497
v -99.575165 9.616318 -685.046143
v -76.198372 195.057556 -826.207397
v -96.421371 219.061401 -751.394043
v -36.481918 -279.122314 -863.604370
v -44.075401 14.333786 -908.469604
v -42.560249 114.954865 -940.344238
v -77.534149 54.047913 -784.691650
v -76.018997 154.669006 -816.566223
v -61.466682 310.288208 -914.746338
v -81.689713 334.291931 -839.932983
v 62.901711 -397.086548 -1231.266235
v -37.074219 -318.459625 -851.143066
v -90.430771 -321.877686 -864.469299
v 62.309349 -436.423859 -1218.805176
v 8.952888 -439.841919 -1232.131348
v -26.591316 -397.652466 -1100.638428
v 26.765265 -394.234406 -1087.312256
v 198.596710 -224.639893 -1206.786377
v 182.879410 -205.984161 -1148.641602
v 181.480667 -298.885803 -1119.212280
v 197.197784 -317.541626 -1177.357178
v 244.716995 -221.685425 -1195.267578
v 228.999710 -203.029663 -1137.122803
v 227.600876 -295.931335 -1107.693359
v 243.318130 -314.587067 -1165.838257
v 315.295685 -217.164154 -1177.640137
v 299.578430 -198.508362 -1119.495239
v 298.179565 -291.410004 -1090.065796
v 313.896729 -310.065796 -1148.210815
v 360.712189 -214.254730 -1166.296875
v 344.994965 -195.598969 -1108.152100
v 343.596161 -288.500610 -1078.722778
v 359.313324 -307.156372 -1136.867554
v 262.784393 -634.337769 -1970.713989
v 209.427872 -637.755859 -1984.040405
v 212.591263 -427.661255 -2050.593994
v 265.947906 -424.243225 -2037.267700
v -91.850311 363.099304 -967.238892
v -190.180649 356.800171 -991.797791
v -110.484695 385.217529 -898.302368
v -208.815002 378.918335 -922.861206
v -12.154369 391.516602 -873.743591
v 6.480110 369.398499 -942.679932
v -42.685051 366.249023 -954.959412
v -61.319519 388.367004 -886.022949
vn 0.9683 0.0620 0.2418
vn 0.2493 -0.2959 -0.9221
vn -0.9683 -0.0620 -0.2418
vn 0.0144 0.9532 -0.3020
vn -0.0144 -0.9532 0.3020
vn -0.2493 0.2959 0.9221
vn -0.1764 -0.5158 0.8384
vn -0.0986 -0.9453 0.3110
vn -0.3281 0.1811 0.9271
vn -0.9687 -0.0621 -0.2405
vn 0.9687 0.0621 0.2405
vn 0.2284 -0.6114 -0.7577
vn 0.9683 0.0620 0.2419
vn 0.2276 -0.6175 -0.7530
vn -0.2284 0.6114 0.7577
vn 0.6102 -0.2476 -0.7526
vn -0.9004 0.2798 -0.3332
vn -0.2076 0.1883 0.9599
vn 0.0172 -0.9396 0.3418
vn -0.2185 0.6794 0.7005
vn -0.2488 0.1566 0.9558
vn -0.0307 -0.9317 0.3620
vn -0.1763 -0.5158 0.8384
vn 0.1519 0.2964 0.9429
vn 0.5223 -0.7607 0.3853
vn 0.5463 0.8292 -0.1184
vn 0.9603 -0.0479 0.2749
usemtl Matériau.011
s off
f 45//1 46//1 4//1 3//1
f 49//2 50//2 8//2 7//2
f 47//3 48//3 6//3 5//3
f 26//1 25//1 9//1 10//1
f 72//4 47//4 5//4 51//4
f 96//5 46//5 2//5 74//5
f 10//1 9//1 13//1 14//1
f 84//6 9//6 29//6 90//6
f 89//5 26//5 10//5 75//5
f 27//3 28//3 11//3 12//3
f 76//7 14//7 18//7 77//7
f 75//8 10//8 14//8 76//8
f 12//3 11//3 15//3 16//3
f 53//4 12//4 16//4 55//4
f 86//9 77//9 18//9 17//9
f 16//10 15//10 19//10 20//10
f 16//3 20//3 24//3 22//3
f 14//11 13//11 17//11 18//11
f 59//12 22//12 42//12 69//12
f 86//6 17//6 23//6 88//6
f 17//1 13//1 21//1 23//1
f 55//2 16//2 22//2 59//2
f 5//3 6//3 28//3 27//3
f 74//5 2//5 26//5 89//5
f 51//4 5//4 27//4 62//4
f 2//1 1//1 25//1 26//1
f 32//3 30//3 34//3 36//3
f 62//2 27//2 32//2 64//2
f 27//3 12//3 30//3 32//3
f 9//13 25//13 31//13 29//13
f 66//4 36//4 34//4 65//4
f 90//5 29//5 37//5 92//5
f 64//2 32//2 36//2 66//2
f 29//1 31//1 35//1 33//1
f 92//6 37//6 39//6 93//6
f 29//1 33//1 39//1 37//1
f 34//3 30//3 38//3 40//3
f 65//4 34//4 40//4 68//4
f 69//14 42//14 124//14 123//14
f 23//1 21//1 41//1 43//1
f 88//15 23//15 43//15 95//15
f 22//3 24//3 44//3 42//3
f 82//5 4//5 46//5 96//5
f 49//4 7//4 47//4 72//4
f 7//3 8//3 48//3 47//3
f 46//16 45//16 103//16 106//16
f 73//4 49//4 72//4 81//4
f 8//5 50//5 71//5 48//5
f 24//15 60//15 70//15 44//15
f 42//17 44//17 126//17 124//17
f 91//4 65//4 68//4 93//4
f 38//6 67//6 68//6 40//6
f 79//2 64//2 66//2 80//2
f 30//5 63//5 67//5 38//5
f 80//4 66//4 65//4 91//4
f 78//2 62//2 64//2 79//2
f 83//4 51//4 62//4 78//4
f 6//5 52//5 61//5 28//5
f 85//2 55//2 59//2 87//2
f 20//6 57//6 60//6 24//6
f 87//12 59//12 69//12 94//12
f 20//18 19//18 58//18 57//18
f 84//4 53//4 55//4 85//4
f 11//19 54//19 56//19 15//19
f 15//7 56//7 58//7 19//7
f 28//5 61//5 54//5 11//5
f 12//6 53//6 63//6 30//6
f 48//5 71//5 52//5 6//5
f 81//4 72//4 51//4 83//4
f 50//3 49//3 121//3 120//3
f 3//2 4//2 82//2 73//2
f 45//4 81//4 83//4 1//4
f 9//4 84//4 85//4 13//4
f 21//12 87//12 94//12 41//12
f 13//2 85//2 87//2 21//2
f 1//4 83//4 78//4 25//4
f 25//2 78//2 79//2 31//2
f 35//4 80//4 91//4 33//4
f 31//2 79//2 80//2 35//2
f 33//4 91//4 93//4 39//4
f 70//20 95//20 130//20 125//20
f 3//4 73//4 81//4 45//4
f 50//5 82//5 96//5 71//5
f 60//15 88//15 95//15 70//15
f 67//6 92//6 93//6 68//6
f 63//5 90//5 92//5 67//5
f 52//3 71//3 100//3 101//3
f 57//6 86//6 88//6 60//6
f 57//21 58//21 77//21 86//21
f 54//22 75//22 76//22 56//22
f 56//23 76//23 77//23 58//23
f 61//5 89//5 75//5 54//5
f 53//6 84//6 90//6 63//6
f 89//6 61//6 98//6 97//6
f 101//5 102//5 97//5 98//5
f 100//5 99//5 102//5 101//5
f 61//3 52//3 101//3 98//3
f 74//1 89//1 97//1 102//1
f 71//2 96//2 99//2 100//2
f 96//1 74//1 102//1 99//1
f 106//2 103//2 107//2 110//2
f 1//24 2//24 105//24 104//24
f 2//25 46//25 106//25 105//25
f 45//26 1//26 104//26 103//26
f 109//5 110//5 114//5 113//5
f 104//6 105//6 109//6 108//6
f 105//5 106//5 110//5 109//5
f 103//4 104//4 108//4 107//4
f 113//5 114//5 118//5 117//5
f 107//4 108//4 112//4 111//4
f 110//2 107//2 111//2 114//2
f 108//6 109//6 113//6 112//6
f 116//1 117//1 118//1 115//1
f 111//4 112//4 116//4 115//4
f 114//2 111//2 115//2 118//2
f 122//2 119//2 120//2 121//2
f 82//5 50//5 120//5 119//5
f 73//1 82//1 119//1 122//1
f 49//4 73//4 122//4 121//4
f 123//4 124//4 126//4 125//4
f 129//4 123//4 125//4 130//4
f 128//4 129//4 130//4 127//4
f 95//20 43//20 127//20 130//20
f 94//14 69//14 123//14 129//14
f 43//27 41//27 128//27 127//27
f 44//20 70//20 125//20 126//20
f 41//14 94//14 129//14 128//14
o Cube.048_Cube.024
v -523.417786 541.449036 121.224815
v -694.465027 370.927856 113.292198
v -403.867798 429.804993 -56.654259
v -573.807678 256.732910 -64.843880
v -657.817444 602.532959 -87.427589
v -745.518066 515.101990 -91.494835
v -596.520813 545.289978 -178.631134
v -683.793579 457.649017 -181.936554
v -409.779663 182.699097 -443.345215
v -306.575104 254.213715 -427.311066
v -368.776733 354.327881 -473.471161
v -471.981262 282.813171 -489.505280
v -338.440491 154.821533 -645.891663
v -262.562073 207.400757 -634.102905
v -308.294067 281.006958 -668.040955
v -384.172424 228.427673 -679.829651
v -293.126373 140.134888 -773.158264
v -237.675507 178.559021 -764.543274
v -271.095795 232.349487 -789.344666
v -326.546722 193.925293 -797.959656
v -468.514069 508.342834 -124.489540
v -648.882324 325.947388 -131.592316
v -595.526367 626.982056 64.257629
v -777.114075 445.952881 55.836220
v -332.782166 305.158630 -455.059967
v -442.346558 229.236938 -472.082245
v -277.314789 241.390076 -668.107422
v -357.868866 185.570801 -680.622681
v -244.359314 200.252716 -801.736145
v -303.227142 159.460632 -810.882141
v -262.583618 115.223572 -858.639709
v -207.132721 153.647705 -850.024719
v -213.637115 177.582275 -898.367798
v -272.505096 136.790283 -907.513611
v -295.852051 170.910400 -892.877380
v -240.401276 209.334595 -884.262329
v -241.288635 98.376404 -920.565002
v -185.837708 136.800659 -911.950012
v -192.342194 160.735229 -960.293030
v -251.210114 119.943237 -969.438782
v -274.557129 154.063354 -954.802673
v -219.106323 192.487549 -946.187622
v -206.363281 75.562744 -947.949158
v -170.672180 100.294739 -942.403870
v -174.858704 115.700317 -973.519958
v -212.749390 89.444336 -979.406799
v -256.231995 138.889282 -1021.616882
v -279.579102 173.009460 -1006.980652
v -224.128204 211.433685 -998.365540
v -197.364105 179.681213 -1012.470886
v -183.161682 58.769897 -966.088074
v -159.099670 75.443359 -962.349670
v -161.922180 85.829468 -983.327332
v -187.466980 68.128418 -987.296082
v -165.080994 48.641479 -993.657776
v -150.039490 59.064331 -991.320740
v -151.804016 65.556763 -1004.434265
v -167.772278 54.491577 -1006.915222
v -253.272675 161.449707 -1045.789429
v -268.796509 184.136719 -1036.057373
v -231.926453 209.685333 -1030.329224
v -214.130737 188.572754 -1039.708008
v -288.762085 528.827820 459.801849
v -313.051331 314.575226 350.699066
v -176.618591 616.555176 264.714813
v -197.981995 400.500092 156.344955
v -477.752869 569.048950 292.484650
v -490.206635 459.195618 236.544556
v -412.670013 618.932556 191.436615
v -431.207397 503.251648 136.893768
v -91.982117 422.368011 -98.546638
v -10.368530 424.918884 -3.628319
v 53.081604 517.259033 -58.402260
v -25.654480 515.239258 -153.302368
v 46.437256 288.195343 -197.183807
v 106.820374 286.815002 -126.380913
v 155.585876 355.096100 -166.638458
v 95.202820 356.476440 -237.441559
v 135.469238 205.676331 -258.255829
v 179.596313 204.667694 -206.514008
v 215.233521 254.566589 -235.933716
v 171.106506 255.575195 -287.675659
v -278.483185 656.863220 235.514618
v -313.029175 423.111969 121.061134
v -409.403381 559.347595 443.218079
v -435.189423 331.892059 327.392029
v 28.929260 463.066467 -29.363686
v -58.260681 465.059479 -131.599518
v 143.470459 308.100464 -153.453369
v 79.366394 309.565979 -228.619202
v 213.762512 211.133575 -232.771484
v 166.916199 212.204346 -287.701813
v 185.516541 139.180603 -302.233978
v 229.643616 138.171936 -250.492065
v 272.237915 142.190063 -283.985199
v 225.391663 143.261047 -338.915649
v 228.286499 187.007935 -337.777222
v 272.413574 185.999268 -286.035309
v 222.187378 92.369324 -334.420654
v 266.314514 91.360718 -282.678741
v 308.909058 95.378662 -316.171967
v 262.062561 96.449585 -371.102264
v 264.957458 140.196655 -369.963806
v 309.084412 139.188110 -318.221924
v 239.633118 45.617310 -334.282593
v 268.035828 44.968018 -300.978729
v 295.451904 47.554321 -322.536804
v 265.298950 48.243713 -357.892975
v 304.430542 94.587097 -407.271301
v 307.325378 138.334290 -406.132996
v 351.452576 137.325500 -354.391083
v 351.276917 93.516235 -352.340942
v 250.123657 13.380127 -334.483887
v 269.272095 12.942383 -312.031281
v 287.755188 14.685852 -326.565216
v 267.426941 15.150757 -350.401367
v 268.526611 -14.376892 -343.454590
v 280.496338 -14.650513 -329.419098
v 292.050293 -13.560425 -338.504211
v 279.342834 -13.270142 -353.404388
v 335.363708 100.739075 -417.631775
v 337.288513 129.827026 -416.874695
v 366.629089 129.156494 -382.470795
v 366.512390 100.027100 -381.107758
vn 0.5050 -0.5330 0.6789
vn -0.4304 0.5973 -0.6767
vn -0.5050 0.5333 -0.6787
vn -0.3432 0.3029 0.8891
vn 0.3783 0.8769 -0.2965
vn -0.6785 -0.7345 0.0086
vn -0.4661 0.7703 -0.4352
vn 0.8278 0.5604 -0.0276
vn -0.8320 -0.4217 -0.3604
vn 0.5799 -0.6905 0.4324
vn -0.8334 -0.4892 -0.2573
vn 0.8736 0.4799 0.0806
vn -0.8244 -0.5177 -0.2288
vn 0.5137 -0.8068 0.2920
vn 0.7833 0.6127 0.1050
vn 0.5176 -0.8093 0.2777
vn -0.4609 0.7658 -0.4485
vn 0.8929 0.4435 0.0780
vn 0.7784 0.6277 -0.0069
vn 0.4795 -0.7815 0.3991
vn -0.7466 -0.6428 -0.1711
vn 0.7958 0.6051 0.0229
vn -0.7189 -0.6734 -0.1724
vn -0.6531 -0.7400 -0.1609
vn 0.5264 0.8232 -0.2128
vn -0.8607 -0.3643 -0.3557
vn 0.7375 0.6713 0.0743
vn -0.6991 0.6931 0.1754
vn -0.4859 0.7866 -0.3811
vn -0.7891 -0.6050 -0.1068
vn -0.4953 0.7939 -0.3527
vn 0.8416 0.5196 0.1474
vn -0.7864 -0.6086 -0.1056
vn -0.8443 -0.5151 -0.1479
vn 0.7871 0.6003 0.1422
vn 0.2599 -0.5526 0.7919
vn 0.8394 0.5235 0.1462
vn 0.7825 0.6143 0.1020
vn -0.8448 -0.5134 -0.1509
vn 0.4859 -0.7866 0.3811
vn -0.0530 0.2907 -0.9553
vn -0.6400 -0.7425 -0.1977
vn 0.9358 0.3494 0.0471
vn -0.0365 0.2685 -0.9626
vn 0.7003 0.6828 -0.2082
vn -0.8417 -0.5284 -0.1109
vn -0.5719 0.7518 0.3280
vn 0.5719 -0.7518 -0.3280
vn -0.3078 0.6082 -0.7317
vn 0.9232 0.3790 0.0634
vn -0.6665 -0.7226 -0.1836
vn 0.2450 -0.5349 0.8086
vn 0.5589 -0.7108 -0.4271
vn 0.9192 0.3877 0.0683
vn -0.6744 -0.7163 -0.1792
vn 0.4198 -0.7275 0.5426
vn -0.0901 0.3399 -0.9361
vn -0.8168 -0.3685 -0.4439
vn 0.5342 -0.6496 -0.5409
vn -0.5770 0.8110 0.0964
vn 0.8776 -0.2872 0.3840
vn -0.2283 0.8316 -0.5064
vn -0.8667 0.3104 -0.3905
vn -0.2273 -0.4213 0.8780
vn -0.3398 0.9142 0.2208
vn -0.0466 -0.9031 -0.4269
vn 0.5628 0.6765 -0.4751
vn 0.7196 0.6782 0.1490
vn -0.5618 -0.4015 -0.7233
vn 0.5130 -0.7016 0.4946
vn -0.5267 0.0341 -0.8494
vn 0.6356 -0.1373 0.7597
vn -0.5589 0.0182 -0.8290
vn -0.4735 -0.7789 0.4112
vn 0.6792 0.0310 0.7333
vn -0.4707 -0.7934 0.3859
vn 0.5728 0.6677 -0.4755
vn 0.6339 -0.1661 0.7554
vn 0.7559 0.0048 0.6546
vn -0.5444 -0.7076 0.4505
vn -0.6418 -0.0979 -0.7606
vn 0.7407 0.0148 0.6717
vn -0.6487 -0.1368 -0.7486
vn -0.3715 -0.8510 -0.3711
vn 0.2524 0.9529 -0.1679
vn -0.5085 -0.6349 -0.5817
vn 0.1696 0.8525 0.4944
vn -0.9083 -0.1034 0.4052
vn 0.5338 0.7215 -0.4411
vn -0.6756 -0.0226 -0.7369
vn 0.5168 0.7424 -0.4263
vn 0.6180 -0.0559 0.7842
vn -0.6776 -0.0263 -0.7350
vn -0.6160 0.0606 -0.7854
vn 0.6498 0.0329 0.7594
vn -0.7347 -0.2723 0.6213
vn 0.6203 -0.0522 0.7826
vn 0.6817 0.0315 0.7309
vn -0.6133 0.0611 -0.7875
vn -0.5338 -0.7215 0.4411
vn 0.7563 -0.0978 -0.6469
vn -0.6433 -0.2422 -0.7263
vn 0.6107 -0.2709 0.7441
vn 0.7536 -0.1262 -0.6451
vn 0.8818 0.0185 0.4712
vn -0.6464 0.0626 -0.7604
vn 0.0350 0.9993 -0.0104
vn -0.0350 -0.9993 0.0104
vn 0.7127 0.3623 -0.6007
vn 0.6143 -0.2361 0.7529
vn -0.6508 -0.2072 -0.7305
vn -0.7401 -0.2447 0.6264
vn 0.0472 -0.9971 -0.0597
vn 0.6152 -0.2257 0.7553
vn -0.6529 -0.1964 -0.7316
vn -0.6242 -0.5822 0.5210
vn 0.7601 -0.0334 -0.6489
vn -0.3255 0.0461 -0.9444
vn 0.1464 -0.9787 -0.1440
vn 0.2145 0.9628 -0.1642
usemtl Matériau.012
s off
f 131//28 132//28 134//28 133//28
f 138//29 137//29 141//29 142//29
f 137//30 138//30 136//30 135//30
f 153//31 154//31 132//31 131//31
f 151//32 137//32 135//32 153//32
f 152//33 134//33 132//33 154//33
f 142//34 141//34 145//34 146//34
f 151//35 133//35 140//35 155//35
f 152//36 138//36 142//36 156//36
f 133//37 134//37 139//37 140//37
f 158//38 146//38 150//38 160//38
f 155//39 140//39 144//39 157//39
f 156//40 142//40 146//40 158//40
f 140//41 139//41 143//41 144//41
f 149//42 159//42 163//42 166//42
f 144//43 143//43 147//43 148//43
f 146//44 145//44 149//44 150//44
f 157//45 144//45 148//45 159//45
f 145//46 157//46 159//46 149//46
f 148//47 147//47 161//47 162//47
f 139//48 156//48 158//48 143//48
f 141//49 155//49 157//49 145//49
f 143//50 158//50 160//50 147//50
f 134//51 152//51 156//51 139//51
f 137//52 151//52 155//52 141//52
f 138//53 152//53 154//53 136//53
f 133//54 151//54 153//54 131//54
f 135//55 136//55 154//55 153//55
f 165//56 166//56 172//56 171//56
f 161//57 164//57 170//57 167//57
f 150//58 149//58 166//58 165//58
f 159//59 148//59 162//59 163//59
f 147//60 160//60 164//60 161//60
f 160//61 150//61 165//61 164//61
f 172//62 169//62 180//62 179//62
f 168//63 167//63 173//63 174//63
f 163//64 162//64 168//64 169//64
f 166//65 163//65 169//65 172//65
f 164//66 165//66 171//66 170//66
f 162//67 161//67 167//67 168//67
f 176//68 175//68 183//68 184//68
f 167//69 170//69 176//69 173//69
f 169//70 168//70 174//70 175//70
f 170//71 169//71 175//71 176//71
f 179//72 180//72 192//72 191//72
f 170//73 171//73 178//73 177//73
f 171//74 172//74 179//74 178//74
f 169//75 170//75 177//75 180//75
f 184//76 183//76 187//76 188//76
f 175//77 174//77 182//77 183//77
f 173//78 176//78 184//78 181//78
f 174//79 173//79 181//79 182//79
f 186//80 185//80 188//80 187//80
f 183//81 182//81 186//81 187//81
f 181//82 184//82 188//82 185//82
f 182//83 181//83 185//83 186//83
f 192//84 189//84 190//84 191//84
f 177//85 178//85 190//85 189//85
f 180//86 177//86 189//86 192//86
f 178//87 179//87 191//87 190//87
f 193//88 194//88 196//88 195//88
f 200//89 199//89 203//89 204//89
f 199//90 200//90 198//90 197//90
f 215//91 216//91 194//91 193//91
f 213//92 199//92 197//92 215//92
f 214//93 196//93 194//93 216//93
f 204//94 203//94 207//94 208//94
f 213//95 195//95 202//95 217//95
f 214//96 200//96 204//96 218//96
f 195//97 196//97 201//97 202//97
f 220//98 208//98 212//98 222//98
f 217//99 202//99 206//99 219//99
f 218//100 204//100 208//100 220//100
f 202//101 201//101 205//101 206//101
f 211//102 221//102 225//102 228//102
f 206//103 205//103 209//103 210//103
f 208//104 207//104 211//104 212//104
f 219//105 206//105 210//105 221//105
f 207//106 219//106 221//106 211//106
f 210//107 209//107 223//107 224//107
f 201//108 218//108 220//108 205//108
f 203//109 217//109 219//109 207//109
f 205//110 220//110 222//110 209//110
f 196//111 214//111 218//111 201//111
f 199//112 213//112 217//112 203//112
f 200//113 214//113 216//113 198//113
f 195//114 213//114 215//114 193//114
f 197//115 198//115 216//115 215//115
f 227//116 228//116 234//116 233//116
f 223//117 226//117 232//117 229//117
f 212//118 211//118 228//118 227//118
f 221//119 210//119 224//119 225//119
f 209//120 222//120 226//120 223//120
f 222//121 212//121 227//121 226//121
f 234//122 231//122 242//122 241//122
f 230//123 229//123 235//123 236//123
f 225//124 224//124 230//124 231//124
f 228//125 225//125 231//125 234//125
f 226//126 227//126 233//126 232//126
f 224//127 223//127 229//127 230//127
f 238//128 237//128 245//128 246//128
f 229//129 232//129 238//129 235//129
f 231//130 230//130 236//130 237//130
f 232//131 231//131 237//131 238//131
f 241//132 242//132 254//132 253//132
f 232//133 233//133 240//133 239//133
f 233//134 234//134 241//134 240//134
f 231//135 232//135 239//135 242//135
f 246//136 245//136 249//136 250//136
f 237//137 236//137 244//137 245//137
f 235//138 238//138 246//138 243//138
f 236//139 235//139 243//139 244//139
f 248//140 247//140 250//140 249//140
f 245//141 244//141 248//141 249//141
f 243//142 246//142 250//142 247//142
f 244//143 243//143 247//143 248//143
f 254//144 251//144 252//144 253//144
f 239//145 240//145 252//145 251//145
f 242//146 239//146 251//146 254//146
f 240//147 241//147 253//147 252//147
