# Blender v2.91.2 OBJ File: 'camionnete02.blend'
# www.blender.org
mtllib arme_000000.mtl
o Cube.046_Cube.010
v 394.124878 620.570435 -986.579468
v 395.390991 400.167358 -986.526489
v 512.746094 621.207214 -1172.341797
v 514.012207 400.804138 -1172.289062
v 208.365601 619.474854 -1105.202393
v 209.631668 399.071747 -1105.149414
v 326.986816 620.111633 -1290.964844
v 328.252930 399.708557 -1290.911865
v 230.806915 619.693665 -730.821350
v 232.073013 399.290619 -730.768372
v 46.313744 398.195038 -849.391235
v 45.047653 618.598145 -849.444214
v 156.894836 619.296936 -615.073914
v 158.160904 398.893829 -615.021057
v -27.598385 397.798218 -733.643860
v -28.864475 618.201294 -733.696838
v 113.230865 619.062500 -546.695618
v 121.589775 458.778687 -557.991638
v -64.169556 457.683167 -676.614563
v -72.528458 617.966980 -665.318481
v 256.287537 619.830444 -770.724243
v 257.553650 399.427399 -770.671326
v 70.528244 618.734924 -889.347229
v 71.794304 398.331818 -889.294250
v 470.869141 620.982422 -1106.761963
v 472.135254 400.579346 -1106.709229
v 285.109863 619.886841 -1225.385010
v 286.375977 399.483734 -1225.332031
v 419.866455 620.659485 -1231.653320
v 421.132568 400.256317 -1231.600586
v 301.245239 620.022644 -1045.890869
v 302.511353 399.619537 -1045.837891
v 137.927277 619.145874 -790.132751
v 139.193359 398.742798 -790.079773
v 64.015182 618.749146 -674.385376
v 66.888359 408.142792 -660.215942
v 20.351229 618.514709 -606.007019
v 42.228348 448.523376 -621.760925
v 164.673965 398.879578 -829.982788
v 163.407883 619.282654 -830.035767
v 379.255554 400.031525 -1166.020508
v 377.989502 620.434631 -1166.073486
v 466.306274 620.933350 -1201.997559
v 348.951172 399.893433 -1016.182190
v 185.633179 399.016724 -760.424133
v 98.202850 408.327484 -640.219055
v 73.542839 448.708038 -601.763977
v 209.847702 619.556580 -800.379944
v 424.429321 620.708557 -1136.417725
v 467.572388 400.530243 -1201.944824
v 347.685059 620.296570 -1016.235291
v 184.367096 619.419800 -760.477112
v 110.454987 619.023010 -644.729614
v 66.791031 618.788635 -576.351318
v 211.113785 399.153503 -800.327087
v 425.695374 400.305420 -1136.364990
v 211.350861 357.886017 -800.317139
v 164.911026 357.612122 -829.972839
v 425.932434 359.037933 -1136.354980
v 379.492676 358.764069 -1166.010742
v 302.748413 358.352081 -1045.828125
v 349.188232 358.625946 -1016.172363
v 528.125427 559.857788 -1023.221802
v 494.189880 559.675598 -970.078308
v 494.749817 462.215607 -970.054749
v 528.685242 462.397797 -1023.198425
v 568.266968 560.094604 -997.588135
v 534.331421 559.912415 -944.444580
v 534.891357 462.452393 -944.421143
v 568.826843 462.634583 -997.564697
v 629.696472 560.456909 -958.360413
v 595.760925 560.274719 -905.216797
v 596.320801 462.814728 -905.193359
v 630.256287 462.996918 -958.337036
v 669.225525 560.690002 -933.117859
v 635.289978 560.507812 -879.974243
v 635.849976 463.047882 -879.950806
v 669.785400 463.230072 -933.094421
v 857.265930 402.622528 -1812.209473
v 810.826111 402.348602 -1841.865234
v 809.559875 622.751770 -1841.918213
v 855.999817 623.025635 -1812.262451
vn 0.8428 0.0050 0.5382
vn 0.5382 0.0029 -0.8428
vn -0.8428 -0.0050 -0.5382
vn -0.0057 1.0000 -0.0002
vn 0.0057 -1.0000 0.0002
vn -0.3533 -0.7492 0.5602
vn -0.0778 -0.9968 -0.0155
vn -0.6016 -0.1153 0.7904
vn -0.8435 -0.0055 -0.5371
vn 0.8435 0.0055 0.5371
vn 0.8264 0.0046 -0.5630
vn -0.4975 -0.1160 0.8597
vn 0.0226 -0.9985 0.0500
vn -0.5318 -0.1458 0.8342
vn -0.0297 -0.9980 0.0557
vn -0.5382 -0.0029 0.8428
vn -0.1631 -0.0007 0.9866
vn 0.4698 -0.8312 0.2972
vn 0.4603 0.8367 0.2968
usemtl Matériau.011
s off
f 25//1 26//1 4//1 3//1
f 29//2 30//2 8//2 7//2
f 27//3 28//3 6//3 5//3
f 22//1 21//1 9//1 10//1
f 42//4 27//4 5//4 31//4
f 56//5 26//5 2//5 44//5
f 10//1 9//1 13//1 14//1
f 55//5 22//5 10//5 45//5
f 23//3 24//3 11//3 12//3
f 46//6 14//6 18//6 47//6
f 45//7 10//7 14//7 46//7
f 12//3 11//3 15//3 16//3
f 33//4 12//4 16//4 35//4
f 54//8 47//8 18//8 17//8
f 16//9 15//9 19//9 20//9
f 14//10 13//10 17//10 18//10
f 5//3 6//3 24//3 23//3
f 44//5 2//5 22//5 55//5
f 31//4 5//4 23//4 40//4
f 2//1 1//1 21//1 22//1
f 50//5 4//5 26//5 56//5
f 29//4 7//4 27//4 42//4
f 7//3 8//3 28//3 27//3
f 26//11 25//11 63//11 66//11
f 43//4 29//4 42//4 49//4
f 8//5 30//5 41//5 28//5
f 51//4 31//4 40//4 48//4
f 6//5 32//5 39//5 24//5
f 20//12 19//12 38//12 37//12
f 52//4 33//4 35//4 53//4
f 11//13 34//13 36//13 15//13
f 15//6 36//6 38//6 19//6
f 24//5 39//5 34//5 11//5
f 28//5 41//5 32//5 6//5
f 49//4 42//4 31//4 51//4
f 30//3 29//3 81//3 80//3
f 3//2 4//2 50//2 43//2
f 25//4 49//4 51//4 1//4
f 9//4 52//4 53//4 13//4
f 1//4 51//4 48//4 21//4
f 3//4 43//4 49//4 25//4
f 30//5 50//5 56//5 41//5
f 32//3 41//3 60//3 61//3
f 37//14 38//14 47//14 54//14
f 34//15 45//15 46//15 36//15
f 36//6 46//6 47//6 38//6
f 39//5 55//5 45//5 34//5
f 55//16 39//16 58//16 57//16
f 61//5 62//5 57//5 58//5
f 60//5 59//5 62//5 61//5
f 39//3 32//3 61//3 58//3
f 44//1 55//1 57//1 62//1
f 41//2 56//2 59//2 60//2
f 56//1 44//1 62//1 59//1
f 66//2 63//2 67//2 70//2
f 1//17 2//17 65//17 64//17
f 2//18 26//18 66//18 65//18
f 25//19 1//19 64//19 63//19
f 69//5 70//5 74//5 73//5
f 64//16 65//16 69//16 68//16
f 65//5 66//5 70//5 69//5
f 63//4 64//4 68//4 67//4
f 73//5 74//5 78//5 77//5
f 67//4 68//4 72//4 71//4
f 70//2 67//2 71//2 74//2
f 68//16 69//16 73//16 72//16
f 76//1 77//1 78//1 75//1
f 71//4 72//4 76//4 75//4
f 74//2 71//2 75//2 78//2
f 82//2 79//2 80//2 81//2
f 50//5 30//5 80//5 79//5
f 43//1 50//1 79//1 82//1
f 29//4 43//4 82//4 81//4
o Cube.048_Cube.024
v -564.318115 466.999329 182.450165
v -727.281738 342.304230 54.811920
v -422.811066 481.990723 -12.866432
v -585.774719 357.295624 -140.504639
v -678.247803 646.727234 40.858322
v -761.803772 582.792542 -24.585358
v -605.693115 654.413757 -59.285950
v -689.249207 590.479065 -124.729668
v -345.161377 460.263885 -439.369415
v -259.800201 525.579773 -372.511932
v -316.738922 633.722290 -405.463623
v -402.100067 568.406372 -472.321136
v -215.357666 496.580750 -608.849915
v -152.598206 544.602417 -559.694702
v -194.460815 624.111267 -583.921631
v -257.220276 576.089478 -633.076782
v -133.651001 522.105225 -714.388489
v -87.787292 557.198914 -678.466431
v -118.379944 615.302856 -696.171143
v -164.243774 580.209229 -732.093018
v -482.894775 587.921326 -25.544830
v -655.900757 455.542114 -161.048492
v -633.121948 572.006104 181.807831
v -806.127930 439.626923 46.304138
v -282.362091 582.010742 -391.451385
v -372.983521 512.669922 -462.428802
v -160.551514 587.006470 -585.537659
v -227.178375 536.025513 -637.721985
v -85.764404 589.017273 -708.166504
v -134.454529 551.761047 -746.302002
v -76.977966 524.917114 -789.493469
v -31.114258 560.010803 -753.571411
v -25.931213 597.350769 -792.700500
v -74.621277 560.094543 -830.836060
v -104.896240 587.693970 -815.177795
v -59.032532 622.787598 -779.255737
v -36.846985 528.080383 -843.821533
v 9.016785 563.174011 -807.899597
v 14.199707 600.513977 -847.028503
v -34.490295 563.257751 -885.164185
v -64.765198 590.857178 -869.505798
v -18.901428 625.950806 -833.583862
v 6.864319 515.350159 -864.251526
v 36.384766 537.938354 -841.130188
v 39.720764 561.972412 -866.315796
v 8.381104 537.992249 -890.861877
v -26.222839 597.038452 -928.721313
v -56.497864 624.637817 -913.063049
v -10.634155 659.731567 -877.141052
v 22.467163 634.294678 -890.585754
v 36.071350 505.317444 -878.238464
v 55.973206 520.545776 -862.650635
v 58.222290 536.748901 -879.630127
v 37.093994 520.582153 -896.178467
v 62.405029 504.393280 -900.493103
v 74.845886 513.912720 -890.748901
v 76.251892 524.041382 -901.362976
v 63.044434 513.935425 -911.707581
v -18.920044 625.923828 -943.361816
v -39.050232 644.275024 -932.950317
v -8.554871 667.609253 -909.065308
v 13.454651 650.695923 -918.005005
v -287.145935 594.621826 358.993256
v -284.189575 353.995392 336.907898
v -169.917786 615.363770 148.696106
v -166.961365 374.737335 126.610802
v -469.161469 549.190979 185.394012
v -467.645630 425.815094 174.070251
v -409.055328 559.825989 77.568779
v -407.539520 436.450043 66.245010
v -29.347046 467.343353 -234.365417
v -30.895630 593.384644 -222.796967
v -141.574036 597.648926 -284.072998
v -140.025330 471.607666 -295.641418
v 60.210999 503.069214 -428.258636
v 59.072449 595.737610 -419.753387
v -22.300842 598.872803 -464.804779
v -21.162292 506.204376 -473.310150
v 114.462036 527.529175 -550.424133
v 113.630005 595.250000 -544.208435
v 54.163513 597.541199 -577.131470
v 54.995544 529.820312 -583.347046
v -284.566101 625.271973 106.866882
v -281.427460 369.817444 83.420578
v -409.018188 603.251892 330.123260
v -405.879639 347.797302 306.676941
v -83.567505 599.880676 -257.949158
v -81.923523 466.072327 -270.230377
v 27.500183 601.779358 -458.430328
v 28.708862 503.400452 -467.459686
v 97.048157 600.813660 -584.116821
v 97.931458 528.919678 -590.715393
v 163.187012 535.483704 -630.568359
v 162.354980 603.204529 -624.352600
v 145.505737 609.804260 -675.585022
v 146.389099 537.910278 -682.183655
v 103.494507 538.651672 -673.074890
v 102.662354 606.372498 -666.859131
v 197.037964 541.245789 -688.817322
v 196.205933 608.966614 -682.601624
v 179.356750 615.566467 -733.834290
v 180.240051 543.672424 -740.432739
v 137.345276 544.413757 -731.323792
v 136.513306 612.134644 -725.108093
v 238.985046 556.008667 -711.458313
v 238.449524 599.597534 -707.457520
v 227.604553 603.845459 -740.433655
v 228.173096 557.570557 -744.680847
v 168.785889 548.518433 -794.765320
v 125.891174 549.259888 -785.656311
v 125.059143 616.980713 -779.440735
v 167.902588 620.412476 -788.166687
v 268.174744 564.886108 -726.239563
v 267.813782 594.272522 -723.542358
v 260.502502 597.136353 -745.774109
v 260.885620 565.939087 -748.637390
v 290.267700 573.021729 -751.444885
v 290.041931 591.391479 -749.758789
v 285.471375 593.181702 -763.655884
v 285.710999 573.679993 -765.445862
v 155.284241 562.949463 -821.439209
v 126.762817 563.442444 -815.382507
v 126.209656 608.470825 -811.249512
v 154.696777 610.752686 -817.051575
vn 0.4498 -0.8543 0.2603
vn -0.3715 0.8553 -0.3612
vn -0.4498 0.8543 -0.2603
vn -0.4452 -0.2865 0.8483
vn 0.3747 0.8634 0.3378
vn -0.6454 -0.5676 -0.5112
vn -0.4030 0.8566 -0.3223
vn 0.7763 0.4757 0.4137
vn -0.7386 -0.1509 -0.6570
vn 0.5307 -0.8361 0.1392
vn -0.6620 -0.4045 -0.6309
vn 0.7527 0.4501 0.4805
vn -0.6586 -0.4401 -0.6103
vn 0.4939 -0.8469 0.1968
vn 0.6448 0.5675 0.5120
vn 0.5021 -0.8449 0.1844
vn -0.3937 0.8564 -0.3340
vn 0.7758 0.4166 0.4739
vn 0.6711 0.6155 0.4132
vn 0.4275 -0.8561 0.2905
vn -0.5874 -0.5753 -0.5692
vn 0.6815 0.5853 0.4393
vn -0.5573 -0.6035 -0.5703
vn -0.5555 -0.5433 -0.6294
vn 0.5062 0.8016 0.3180
vn -0.8076 -0.0413 -0.5883
vn 0.7008 0.4625 0.5432
vn -0.7384 0.4687 0.4849
vn -0.4393 0.8553 -0.2747
vn -0.6507 -0.5596 -0.5132
vn -0.4574 0.8535 -0.2498
vn 0.6984 0.4670 0.5423
vn -0.6481 -0.5634 -0.5124
vn -0.7013 -0.4626 -0.5423
vn 0.6390 0.5443 0.5434
vn 0.0789 -0.7616 0.6433
vn 0.6962 0.4710 0.5417
vn 0.6448 0.5698 0.5095
vn -0.7012 -0.4601 -0.5447
vn 0.4393 -0.8553 0.2747
vn 0.1947 0.5658 -0.8013
vn -0.4672 -0.6601 -0.5883
vn 0.8362 0.3372 0.4326
vn 0.2149 0.5472 -0.8090
vn 0.6492 0.7276 0.2218
vn -0.7082 -0.4865 -0.5117
vn -0.7234 0.6053 0.3322
vn 0.7233 -0.6053 -0.3322
vn -0.1481 0.7953 -0.5879
vn 0.8162 0.3602 0.4518
vn -0.4987 -0.6459 -0.5780
vn 0.0579 -0.7500 0.6589
vn 0.7351 -0.5364 -0.4145
vn 0.8100 0.3669 0.4574
vn -0.5082 -0.6414 -0.5747
vn 0.3230 -0.8494 0.4174
vn 0.1483 0.6061 -0.7815
vn -0.6056 -0.2326 -0.7610
vn 0.7379 -0.4441 -0.5082
vn -0.6675 0.7319 0.1371
vn 0.8744 -0.0337 0.4841
vn -0.8054 0.0444 -0.5911
vn -0.8744 0.0337 -0.4841
vn -0.2357 -0.0917 0.9675
vn -0.4314 0.8891 -0.1528
vn 0.0660 -0.9959 -0.0614
vn -0.8341 0.0402 -0.5502
vn 0.1047 0.9944 -0.0156
vn -0.2728 -0.8988 -0.3431
vn 0.9360 -0.0208 0.3515
vn -0.0426 -0.9720 -0.2312
vn 0.0960 0.9936 0.0592
vn -0.0181 -0.9798 -0.1990
vn 0.9094 -0.0269 0.4151
vn -0.0664 0.9958 0.0624
vn 0.9155 -0.0256 0.4014
vn -0.8257 0.0415 -0.5626
vn 0.1368 0.9886 0.0621
vn -0.0668 0.9965 -0.0506
vn 0.8555 -0.0369 0.5165
vn 0.1203 -0.9852 -0.1224
vn -0.0424 0.9990 -0.0174
vn 0.1610 -0.9798 -0.1185
vn 0.1288 -0.9721 -0.1961
vn -0.2954 0.9393 -0.1744
vn -0.4100 -0.8567 -0.3130
vn 0.0416 0.9918 0.1210
vn -0.9159 -0.0478 0.3985
vn -0.8656 0.0352 -0.4995
vn 0.0570 -0.9962 -0.0654
vn -0.8806 0.0326 -0.4728
vn 0.0369 0.9922 0.1189
vn 0.0613 -0.9961 -0.0636
vn -0.0420 -0.9919 -0.1200
vn -0.0590 0.9931 0.1010
vn 0.4936 -0.0735 0.8666
vn 0.0326 0.9926 0.1171
vn -0.0677 0.9959 0.0592
vn -0.0433 -0.9914 -0.1232
vn 0.8656 -0.0352 0.4995
vn -0.1419 0.0887 -0.9859
vn 0.2653 -0.9552 -0.1313
vn 0.2417 0.9693 0.0454
vn -0.1136 0.0894 -0.9895
vn -0.1297 0.9567 -0.2606
vn -0.0345 -0.9961 -0.0816
vn -0.9786 -0.0307 0.2036
vn 0.9786 0.0307 -0.2036
vn -0.5738 0.0679 -0.8162
vn 0.2084 0.9764 0.0572
vn 0.2323 -0.9651 -0.1210
vn 0.4686 -0.0750 0.8802
vn 0.9507 0.0399 -0.3075
vn 0.1984 0.9782 0.0608
vn 0.2221 -0.9679 -0.1178
vn 0.7590 -0.0503 0.6491
vn -0.2055 0.0869 -0.9748
vn -0.1070 -0.8961 -0.4307
vn 0.9018 0.0505 -0.4292
vn -0.9994 -0.0092 -0.0337
usemtl Matériau.012
s off
f 83//20 84//20 86//20 85//20
f 90//21 89//21 93//21 94//21
f 89//22 90//22 88//22 87//22
f 105//23 106//23 84//23 83//23
f 103//24 89//24 87//24 105//24
f 104//25 86//25 84//25 106//25
f 94//26 93//26 97//26 98//26
f 103//27 85//27 92//27 107//27
f 104//28 90//28 94//28 108//28
f 85//29 86//29 91//29 92//29
f 110//30 98//30 102//30 112//30
f 107//31 92//31 96//31 109//31
f 108//32 94//32 98//32 110//32
f 92//33 91//33 95//33 96//33
f 101//34 111//34 115//34 118//34
f 96//35 95//35 99//35 100//35
f 98//36 97//36 101//36 102//36
f 109//37 96//37 100//37 111//37
f 97//38 109//38 111//38 101//38
f 100//39 99//39 113//39 114//39
f 91//40 108//40 110//40 95//40
f 93//41 107//41 109//41 97//41
f 95//42 110//42 112//42 99//42
f 86//43 104//43 108//43 91//43
f 89//44 103//44 107//44 93//44
f 90//45 104//45 106//45 88//45
f 85//46 103//46 105//46 83//46
f 87//47 88//47 106//47 105//47
f 117//48 118//48 124//48 123//48
f 113//49 116//49 122//49 119//49
f 102//50 101//50 118//50 117//50
f 111//51 100//51 114//51 115//51
f 99//52 112//52 116//52 113//52
f 112//53 102//53 117//53 116//53
f 124//54 121//54 132//54 131//54
f 120//55 119//55 125//55 126//55
f 115//56 114//56 120//56 121//56
f 118//57 115//57 121//57 124//57
f 116//58 117//58 123//58 122//58
f 114//59 113//59 119//59 120//59
f 128//60 127//60 135//60 136//60
f 119//61 122//61 128//61 125//61
f 121//62 120//62 126//62 127//62
f 122//63 121//63 127//63 128//63
f 131//64 132//64 144//64 143//64
f 122//65 123//65 130//65 129//65
f 123//66 124//66 131//66 130//66
f 121//67 122//67 129//67 132//67
f 136//68 135//68 139//68 140//68
f 127//69 126//69 134//69 135//69
f 125//70 128//70 136//70 133//70
f 126//71 125//71 133//71 134//71
f 138//72 137//72 140//72 139//72
f 135//73 134//73 138//73 139//73
f 133//74 136//74 140//74 137//74
f 134//75 133//75 137//75 138//75
f 144//76 141//76 142//76 143//76
f 129//77 130//77 142//77 141//77
f 132//78 129//78 141//78 144//78
f 130//79 131//79 143//79 142//79
f 145//80 146//80 148//80 147//80
f 152//81 151//81 155//81 156//81
f 151//82 152//82 150//82 149//82
f 167//83 168//83 146//83 145//83
f 165//84 151//84 149//84 167//84
f 166//85 148//85 146//85 168//85
f 156//86 155//86 159//86 160//86
f 165//87 147//87 154//87 169//87
f 166//88 152//88 156//88 170//88
f 147//89 148//89 153//89 154//89
f 172//90 160//90 164//90 174//90
f 169//91 154//91 158//91 171//91
f 170//92 156//92 160//92 172//92
f 154//93 153//93 157//93 158//93
f 163//94 173//94 177//94 180//94
f 158//95 157//95 161//95 162//95
f 160//96 159//96 163//96 164//96
f 171//97 158//97 162//97 173//97
f 159//98 171//98 173//98 163//98
f 162//99 161//99 175//99 176//99
f 153//100 170//100 172//100 157//100
f 155//101 169//101 171//101 159//101
f 157//102 172//102 174//102 161//102
f 148//103 166//103 170//103 153//103
f 151//104 165//104 169//104 155//104
f 152//105 166//105 168//105 150//105
f 147//106 165//106 167//106 145//106
f 149//107 150//107 168//107 167//107
f 179//108 180//108 186//108 185//108
f 175//109 178//109 184//109 181//109
f 164//110 163//110 180//110 179//110
f 173//111 162//111 176//111 177//111
f 161//112 174//112 178//112 175//112
f 174//113 164//113 179//113 178//113
f 186//114 183//114 194//114 193//114
f 182//115 181//115 187//115 188//115
f 177//116 176//116 182//116 183//116
f 180//117 177//117 183//117 186//117
f 178//118 179//118 185//118 184//118
f 176//119 175//119 181//119 182//119
f 190//120 189//120 197//120 198//120
f 181//121 184//121 190//121 187//121
f 183//122 182//122 188//122 189//122
f 184//123 183//123 189//123 190//123
f 193//124 194//124 206//124 205//124
f 184//125 185//125 192//125 191//125
f 185//126 186//126 193//126 192//126
f 183//127 184//127 191//127 194//127
f 198//128 197//128 201//128 202//128
f 189//129 188//129 196//129 197//129
f 187//130 190//130 198//130 195//130
f 188//131 187//131 195//131 196//131
f 200//132 199//132 202//132 201//132
f 197//133 196//133 200//133 201//133
f 195//134 198//134 202//134 199//134
f 196//135 195//135 199//135 200//135
f 206//136 203//136 204//136 205//136
f 191//137 192//137 204//137 203//137
f 194//138 191//138 203//138 206//138
f 192//139 193//139 205//139 204//139
