# Blender v2.91.2 OBJ File: 'camionnete02.blend'
# www.blender.org
mtllib arme_000199.mtl
o Cube.046_Cube.010
v -5.110085 -143.160431 -1168.122803
v -78.514793 -343.914734 -1114.377197
v 40.121857 -214.226196 -1371.796143
v -33.282913 -414.980499 -1318.050781
v -207.952164 -86.358292 -1232.989746
v -281.356934 -287.112579 -1179.244141
v -162.720261 -157.424072 -1436.662842
v -236.125076 -358.178406 -1382.917480
v -67.385460 -45.316940 -887.705017
v -140.790192 -246.071198 -833.959534
v -343.632263 -189.269073 -898.826233
v -270.227539 11.485199 -952.571716
v -95.569077 -1.036316 -760.797424
v -168.973862 -201.790604 -707.052063
v -371.815979 -144.988464 -771.918701
v -298.411224 55.765839 -825.664185
v -112.218773 25.122681 -685.826233
v -162.677063 -125.322723 -659.208435
v -365.519196 -68.520538 -724.075134
v -315.060913 81.924866 -750.692871
v -22.391296 199.097351 -814.376770
v -225.233429 255.899445 -879.243530
v -39.040947 225.256317 -739.405518
v -241.883026 282.058502 -804.272217
v -57.669319 -60.582336 -931.455322
v -131.074051 -261.336578 -877.709839
v -260.511414 -3.780182 -996.322083
v -333.916199 -204.534454 -942.576538
v -43.153976 20.953552 -905.446777
v -245.996094 77.755707 -970.313538
v -33.437851 5.688171 -949.197083
v -236.279953 62.490326 -1014.063660
v -7.998077 117.101196 -931.187256
v -210.840164 173.903351 -996.053894
v 1.717957 101.835785 -974.937561
v -201.124069 158.637970 -1039.804199
v -70.700653 64.233337 -781.407593
v -273.542786 121.035492 -846.274292
v -35.544762 160.381012 -807.148010
v -238.386871 217.183197 -872.014709
v 33.676407 307.170593 -895.066650
v -169.165726 363.972687 -959.933411
v 17.026703 333.329559 -820.095398
v -185.815369 390.131744 -884.962097
v 24.153549 -189.137787 -1299.893066
v -49.251221 -389.892090 -1246.147949
v -178.688538 -132.335632 -1364.760010
v -252.093262 -333.089966 -1311.014404
v -61.299248 -185.825104 -1404.229492
v -134.703964 -386.579437 -1350.484131
v -106.531120 -114.759354 -1200.556152
v -179.935837 -315.513641 -1146.810791
v -168.806473 -16.915878 -920.138306
v -242.211212 -217.670120 -866.392822
v -196.990143 27.364777 -793.230835
v -261.111359 -163.249374 -729.053284
v -213.639801 53.523743 -718.259583
v -256.865417 -111.686859 -696.792236
v -123.812332 227.498444 -846.810120
v -140.462006 253.657440 -771.838928
v -232.495132 -232.935516 -910.143127
v -159.090378 -32.181259 -963.888672
v -144.575058 49.354645 -937.880188
v -134.858932 34.089233 -981.630432
v -109.419098 145.502319 -963.620544
v -99.703033 130.236908 -1007.370911
v -172.121735 92.634430 -813.841003
v -136.965805 188.782135 -839.581360
v -67.744659 335.571686 -927.500061
v -84.394348 361.730621 -852.528748
v -150.672272 -361.490997 -1278.581055
v -77.267487 -160.736694 -1332.326416
v -10.588638 -200.025635 -1388.012695
v -129.225311 -329.714172 -1130.593994
v -191.500717 -231.870667 -850.176208
v -226.917145 -172.824829 -718.118347
v -222.671158 -121.262329 -685.857239
v -108.379860 -46.381805 -947.671936
v -84.148392 19.888672 -965.413757
v -48.992508 116.036346 -991.154175
v -26.556969 -174.937256 -1316.109863
v -83.993439 -400.779999 -1334.267578
v -55.820633 -128.959900 -1184.339600
v -118.095970 -31.116425 -903.921753
v -146.279633 13.164215 -777.014160
v -162.929306 39.323212 -702.042908
v -73.101822 213.297913 -830.593445
v -89.751480 239.456879 -755.622192
v -181.784592 -247.136047 -893.926514
v -93.864517 35.154083 -921.663452
v -58.708603 131.301788 -947.403870
v -121.411209 78.433899 -797.624268
v -86.255264 174.581604 -823.364624
v -17.034103 321.371124 -911.283264
v -33.683823 347.530060 -836.312073
v -99.961777 -375.691559 -1262.364502
v -195.528610 -284.724548 -883.863464
v -246.239151 -270.524017 -900.080078
v -113.705841 -413.280029 -1252.301270
v -164.416306 -399.079529 -1268.518066
v -193.679901 -353.102173 -1136.747559
v -142.969376 -367.302673 -1120.531006
v 81.027679 -256.251038 -1220.807129
v 68.087585 -235.920319 -1162.539551
v 35.628876 -324.691833 -1138.773926
v 48.568848 -345.022522 -1197.041504
v 124.860794 -268.525696 -1206.789795
v 111.920731 -248.195007 -1148.522217
v 79.461945 -336.966461 -1124.756592
v 92.401947 -357.297180 -1183.024170
v 191.939423 -287.309845 -1185.338867
v 178.999359 -266.979095 -1127.071289
v 146.540527 -355.750580 -1103.305664
v 159.480560 -376.081299 -1161.573242
v 235.103699 -299.397186 -1171.535645
v 222.163605 -279.066467 -1113.267822
v 189.704865 -367.837952 -1089.502197
v 202.644867 -388.168640 -1147.769775
v 64.602417 -634.244385 -2003.372803
v 13.891876 -620.043823 -2019.589600
v 87.296463 -419.289520 -2073.335205
v 138.007080 -433.490051 -2057.118408
v -25.707489 383.145294 -962.041260
v -119.161530 409.315338 -991.926819
v -41.049255 407.249359 -892.959167
v -134.503235 433.419403 -922.844788
v 52.404739 381.079315 -863.073792
v 67.746628 356.975311 -932.155579
v 21.019653 370.060455 -947.098389
v 5.677734 394.164276 -878.016479
vn 0.9203 -0.2577 0.2943
vn 0.2052 -0.3224 -0.9241
vn -0.9203 0.2577 -0.2943
vn 0.3330 0.9108 -0.2438
vn -0.3330 -0.9108 0.2438
vn -0.2052 0.3224 0.9241
vn -0.3853 -0.4665 0.7962
vn -0.4109 -0.8770 0.2490
vn -0.3162 0.2384 0.9182
vn -0.9207 0.2577 -0.2930
vn 0.9207 -0.2577 0.2930
vn 0.0754 -0.6214 -0.7799
vn 0.0724 -0.6271 -0.7756
vn -0.0754 0.6214 0.7799
vn 0.5508 -0.3978 -0.7337
vn -0.7426 0.5638 -0.3616
vn -0.2021 0.2058 0.9575
vn -0.3016 -0.9095 0.2860
vn -0.0408 0.6850 0.7274
vn -0.2507 0.1890 0.9494
vn -0.3458 -0.8876 0.3041
vn 0.1735 0.1950 0.9653
vn 0.2301 -0.9018 0.3658
vn 0.7856 0.6174 -0.0410
vn 0.8760 -0.3606 0.3204
usemtl Matériau.011
s off
f 45//1 46//1 4//1 3//1
f 49//2 50//2 8//2 7//2
f 47//3 48//3 6//3 5//3
f 26//1 25//1 9//1 10//1
f 72//4 47//4 5//4 51//4
f 96//5 46//5 2//5 74//5
f 10//1 9//1 13//1 14//1
f 84//6 9//6 29//6 90//6
f 89//5 26//5 10//5 75//5
f 27//3 28//3 11//3 12//3
f 76//7 14//7 18//7 77//7
f 75//8 10//8 14//8 76//8
f 12//3 11//3 15//3 16//3
f 53//4 12//4 16//4 55//4
f 86//9 77//9 18//9 17//9
f 16//10 15//10 19//10 20//10
f 16//3 20//3 24//3 22//3
f 14//11 13//11 17//11 18//11
f 59//12 22//12 42//12 69//12
f 86//6 17//6 23//6 88//6
f 17//1 13//1 21//1 23//1
f 55//2 16//2 22//2 59//2
f 5//3 6//3 28//3 27//3
f 74//5 2//5 26//5 89//5
f 51//4 5//4 27//4 62//4
f 2//1 1//1 25//1 26//1
f 32//3 30//3 34//3 36//3
f 62//2 27//2 32//2 64//2
f 27//3 12//3 30//3 32//3
f 9//1 25//1 31//1 29//1
f 66//4 36//4 34//4 65//4
f 90//5 29//5 37//5 92//5
f 64//2 32//2 36//2 66//2
f 29//1 31//1 35//1 33//1
f 92//6 37//6 39//6 93//6
f 29//1 33//1 39//1 37//1
f 34//3 30//3 38//3 40//3
f 65//4 34//4 40//4 68//4
f 69//13 42//13 124//13 123//13
f 23//1 21//1 41//1 43//1
f 88//14 23//14 43//14 95//14
f 22//3 24//3 44//3 42//3
f 82//5 4//5 46//5 96//5
f 49//4 7//4 47//4 72//4
f 7//3 8//3 48//3 47//3
f 46//15 45//15 103//15 106//15
f 73//4 49//4 72//4 81//4
f 8//5 50//5 71//5 48//5
f 24//14 60//14 70//14 44//14
f 42//16 44//16 126//16 124//16
f 91//4 65//4 68//4 93//4
f 38//6 67//6 68//6 40//6
f 79//2 64//2 66//2 80//2
f 30//5 63//5 67//5 38//5
f 80//4 66//4 65//4 91//4
f 78//2 62//2 64//2 79//2
f 83//4 51//4 62//4 78//4
f 6//5 52//5 61//5 28//5
f 85//2 55//2 59//2 87//2
f 20//6 57//6 60//6 24//6
f 87//12 59//12 69//12 94//12
f 20//17 19//17 58//17 57//17
f 84//4 53//4 55//4 85//4
f 11//18 54//18 56//18 15//18
f 15//7 56//7 58//7 19//7
f 28//5 61//5 54//5 11//5
f 12//6 53//6 63//6 30//6
f 48//5 71//5 52//5 6//5
f 81//4 72//4 51//4 83//4
f 50//3 49//3 121//3 120//3
f 3//2 4//2 82//2 73//2
f 45//4 81//4 83//4 1//4
f 9//4 84//4 85//4 13//4
f 21//12 87//12 94//12 41//12
f 13//2 85//2 87//2 21//2
f 1//4 83//4 78//4 25//4
f 25//2 78//2 79//2 31//2
f 35//4 80//4 91//4 33//4
f 31//2 79//2 80//2 35//2
f 33//4 91//4 93//4 39//4
f 70//19 95//19 130//19 125//19
f 3//4 73//4 81//4 45//4
f 50//5 82//5 96//5 71//5
f 60//14 88//14 95//14 70//14
f 67//6 92//6 93//6 68//6
f 63//5 90//5 92//5 67//5
f 52//3 71//3 100//3 101//3
f 57//6 86//6 88//6 60//6
f 57//20 58//20 77//20 86//20
f 54//21 75//21 76//21 56//21
f 56//7 76//7 77//7 58//7
f 61//5 89//5 75//5 54//5
f 53//6 84//6 90//6 63//6
f 89//6 61//6 98//6 97//6
f 101//5 102//5 97//5 98//5
f 100//5 99//5 102//5 101//5
f 61//3 52//3 101//3 98//3
f 74//1 89//1 97//1 102//1
f 71//2 96//2 99//2 100//2
f 96//1 74//1 102//1 99//1
f 106//2 103//2 107//2 110//2
f 1//22 2//22 105//22 104//22
f 2//23 46//23 106//23 105//23
f 45//24 1//24 104//24 103//24
f 109//5 110//5 114//5 113//5
f 104//6 105//6 109//6 108//6
f 105//5 106//5 110//5 109//5
f 103//4 104//4 108//4 107//4
f 113//5 114//5 118//5 117//5
f 107//4 108//4 112//4 111//4
f 110//2 107//2 111//2 114//2
f 108//6 109//6 113//6 112//6
f 116//1 117//1 118//1 115//1
f 111//4 112//4 116//4 115//4
f 114//2 111//2 115//2 118//2
f 122//2 119//2 120//2 121//2
f 82//5 50//5 120//5 119//5
f 73//1 82//1 119//1 122//1
f 49//4 73//4 122//4 121//4
f 123//4 124//4 126//4 125//4
f 129//4 123//4 125//4 130//4
f 128//4 129//4 130//4 127//4
f 95//19 43//19 127//19 130//19
f 94//13 69//13 123//13 129//13
f 43//25 41//25 128//25 127//25
f 44//19 70//19 125//19 126//19
f 41//13 94//13 129//13 128//13
o Cube.048_Cube.024
v -482.500275 560.789856 141.205383
v -680.402771 430.619812 93.373344
v -374.445892 468.298828 -54.158951
v -572.249878 337.936584 -101.979195
v -591.317993 687.921631 -51.995377
v -692.788086 621.179871 -76.520164
v -535.915527 640.498901 -152.164154
v -636.850830 573.886963 -176.168915
v -418.653442 291.952606 -466.697662
v -299.543274 326.379700 -441.199127
v -323.931885 442.807678 -484.469940
v -443.042053 408.380554 -509.968414
v -346.219910 251.040863 -666.625610
v -258.647461 276.352509 -647.878418
v -276.578674 361.952881 -679.692078
v -364.151062 336.641296 -698.439270
v -299.356232 227.861145 -792.054260
v -235.359253 246.358521 -778.354187
v -248.463165 308.914215 -801.603149
v -312.460022 290.416870 -815.303345
v -419.933319 569.943909 -104.766762
v -629.090332 432.494873 -154.431641
v -534.736572 668.219116 102.590225
v -744.834473 530.027588 51.810593
v -306.510193 384.071411 -467.186249
v -432.960327 347.522705 -494.256134
v -259.666534 314.597656 -680.520325
v -352.635559 287.726227 -700.422668
v -232.381042 270.522949 -814.490051
v -300.321503 250.885712 -829.034363
v -272.500305 197.999481 -877.186829
v -208.503540 216.496887 -863.486633
v -203.902283 243.174500 -910.596680
v -271.842773 223.537201 -925.141113
v -284.230743 262.682068 -909.723083
v -220.233887 281.179382 -896.023010
v -253.455841 177.766785 -938.830750
v -189.459045 196.264221 -925.130676
v -184.857849 222.941864 -972.240540
v -252.798370 203.304657 -986.784973
v -265.186249 242.449402 -971.367126
v -201.189453 260.946716 -957.666931
v -225.696930 146.178223 -965.695618
v -184.505005 158.084106 -956.877380
v -181.543396 175.255432 -987.200012
v -225.273712 162.615723 -996.561584
v -248.100769 224.938721 -1037.937744
v -260.488708 264.083557 -1022.519836
v -196.491821 282.580994 -1008.819763
v -180.160400 244.576019 -1023.393372
v -207.773438 123.639526 -983.586975
v -180.002991 131.666260 -977.642029
v -178.006409 143.242554 -998.084534
v -207.488037 134.721313 -1004.395935
v -191.974304 109.416626 -1010.747131
v -174.614807 114.434204 -1007.030945
v -173.366516 121.670654 -1019.809998
v -191.795929 116.343872 -1023.755188
v -236.592804 246.347931 -1060.548706
v -244.829681 272.375824 -1050.296997
v -202.277405 284.674957 -1041.187622
v -191.418274 259.404907 -1050.878052
v -319.092682 418.423889 489.376251
v -373.331238 241.178711 334.328217
v -155.227844 506.911011 330.175995
v -215.525146 331.920624 175.392029
v -468.653931 534.270508 317.500366
v -496.463562 443.391968 238.002899
v -376.531006 582.753845 236.468781
v -415.551971 489.917847 156.511871
v -158.603271 400.741821 -91.999153
v -79.442993 321.607300 -36.673904
v 17.577942 382.401184 -85.687660
v -58.655273 460.957458 -141.061401
v -146.373901 273.346649 -266.677277
v -89.474670 211.578827 -226.573792
v -15.990662 255.850769 -262.645416
v -72.889832 317.618622 -302.748932
v -135.864197 193.221985 -375.926788
v -94.283020 148.082947 -346.619659
v -40.581787 180.436157 -372.980316
v -82.163025 225.575348 -402.287384
v -239.246918 573.630737 299.486664
v -316.585815 388.024475 135.004120
v -426.535553 479.858337 468.337006
v -484.116455 291.690674 303.734436
v -29.146729 341.018036 -64.864494
v -111.306274 430.207581 -122.771751
v -51.965149 220.924561 -258.743927
v -112.370605 286.498810 -301.318573
v -67.570740 147.189331 -381.032623
v -111.714233 195.110046 -412.145630
v -143.574097 137.242310 -451.208527
v -101.992920 92.103271 -421.901306
v -71.252991 88.280396 -466.540558
v -115.396423 136.201172 -497.653656
v -86.464417 167.116516 -486.223602
v -44.883240 121.977417 -456.916473
v -148.059753 97.644104 -505.833710
v -106.478638 52.505127 -476.526459
v -75.738647 48.682190 -521.165955
v -119.882019 96.602966 -552.278870
v -90.950073 127.518494 -540.848755
v -49.368835 82.379395 -511.541656
v -162.723999 53.754028 -524.507935
v -135.960144 24.700012 -505.644196
v -116.174255 22.239197 -534.376526
v -144.587402 53.083740 -554.402710
v -93.279602 89.631531 -600.760071
v -64.347473 120.547119 -589.329956
v -22.766296 75.407959 -560.022888
v -49.136108 41.710938 -569.646912
v -174.082397 24.387085 -537.074036
v -156.039001 4.799683 -524.356628
v -142.699951 3.140564 -543.727234
v -161.855225 23.935181 -557.228333
v -177.848267 -1.786621 -559.217712
v -166.569031 -14.030884 -551.268005
v -158.230591 -15.067871 -563.376587
v -170.204773 -2.069092 -571.816284
v -66.917969 83.259399 -619.904358
v -47.680603 103.815552 -612.304321
v -20.032837 73.802002 -592.817505
v -37.566345 51.396362 -599.216797
vn 0.3599 -0.7502 0.5547
vn -0.2330 0.7871 -0.5711
vn -0.3603 0.7491 -0.5559
vn -0.3357 0.1698 0.9265
vn 0.5449 0.8333 -0.0932
vn -0.7967 -0.5802 -0.1694
vn -0.1705 0.8951 -0.4121
vn 0.9341 0.3473 0.0828
vn -0.8789 -0.1607 -0.4490
vn 0.3742 -0.8665 0.3303
vn -0.9255 -0.1892 -0.3281
vn 0.9726 0.1747 0.1535
vn -0.9279 -0.2202 -0.3010
vn 0.2137 -0.9390 0.2696
vn 0.9271 0.3283 0.1810
vn 0.2176 -0.9420 0.2554
vn -0.1661 0.8897 -0.4254
vn 0.9796 0.1343 0.1497
vn 0.9347 0.3484 0.0701
vn 0.1821 -0.9085 0.3761
vn -0.8974 -0.3657 -0.2469
vn 0.9421 0.3203 0.0994
vn -0.8806 -0.4034 -0.2485
vn -0.7932 -0.5329 -0.2947
vn 0.7088 0.7032 -0.0562
vn -0.8887 -0.1169 -0.4434
vn 0.8395 0.4913 0.2318
vn -0.5737 0.7595 0.3068
vn -0.1877 0.9146 -0.3582
vn -0.9300 -0.3190 -0.1826
vn -0.1963 0.9234 -0.3299
vn 0.9502 0.2198 0.2207
vn -0.9287 -0.3233 -0.1815
vn -0.9513 -0.2147 -0.2211
vn 0.9242 0.3137 0.2176
vn 0.0195 -0.6377 0.7700
vn 0.9494 0.2242 0.2197
vn 0.9270 0.3301 0.1781
vn -0.9511 -0.2128 -0.2240
vn 0.1877 -0.9146 0.3582
vn 0.1053 0.3305 -0.9379
vn -0.8259 -0.4929 -0.2738
vn 0.9928 0.0328 0.1155
vn 0.1144 0.3046 -0.9456
vn 0.8915 0.4335 -0.1313
vn -0.9556 -0.2296 -0.1849
vn -0.3278 0.8806 0.3423
vn 0.3278 -0.8806 -0.3423
vn -0.0514 0.7032 -0.7092
vn 0.9891 0.0641 0.1329
vn -0.8456 -0.4662 -0.2599
vn 0.0098 -0.6169 0.7870
vn 0.3350 -0.8336 -0.4393
vn 0.9877 0.0734 0.1380
vn -0.8515 -0.4579 -0.2555
vn 0.1328 -0.8442 0.5193
vn 0.0843 0.3881 -0.9177
vn -0.8594 -0.0726 -0.5061
vn 0.3384 -0.7632 -0.5504
vn -0.2984 0.9475 0.1146
vn 0.7132 -0.5792 0.3948
vn 0.1244 0.9701 -0.2083
vn -0.6985 0.5968 -0.3948
vn -0.4377 -0.5124 0.7389
vn -0.1275 0.9165 0.3792
vn -0.1795 -0.7669 -0.6161
vn 0.7799 0.4312 -0.4537
vn 0.8984 0.4256 0.1080
vn -0.6827 -0.2215 -0.6963
vn 0.2900 -0.9287 0.2312
vn -0.5175 0.6553 -0.5502
vn 0.5237 -0.7496 0.4047
vn -0.5492 0.6507 -0.5243
vn -0.7810 -0.5255 0.3375
vn 0.6588 -0.6326 0.4072
vn -0.7910 -0.5271 0.3105
vn 0.7814 0.4202 -0.4614
vn 0.5073 -0.7675 0.3919
vn 0.6912 -0.6567 0.3016
vn -0.7871 -0.4537 0.4180
vn -0.6742 0.5755 -0.4630
vn 0.6921 -0.6451 0.3238
vn -0.7013 0.5446 -0.4600
vn -0.5598 -0.7087 -0.4293
vn 0.5313 0.8447 -0.0651
vn -0.5448 -0.3703 -0.7524
vn 0.2756 0.6843 0.6752
vn -0.9579 0.0450 0.2837
vn 0.7885 0.4653 -0.4021
vn -0.6514 0.6387 -0.4095
vn 0.7902 0.4832 -0.3770
vn 0.5659 -0.6893 0.4524
vn -0.6549 0.6360 -0.4081
vn -0.5617 0.6923 -0.4531
vn 0.6409 -0.6277 0.4419
vn -0.6467 -0.1053 0.7554
vn 0.5697 -0.6869 0.4512
vn 0.6607 -0.6325 0.4042
vn -0.5596 0.6922 -0.4558
vn -0.7885 -0.4653 0.4021
vn 0.4356 -0.1724 -0.8835
vn -0.7577 0.4530 -0.4698
vn 0.4240 -0.8297 0.3630
vn 0.4165 -0.1931 -0.8884
vn 0.7706 -0.6302 0.0951
vn -0.5805 0.6982 -0.4189
vn 0.6312 0.7375 0.2403
vn -0.6312 -0.7375 -0.2403
vn 0.6871 0.1750 -0.7052
vn 0.4492 -0.8092 0.3786
vn -0.7429 0.4848 -0.4616
vn -0.6335 -0.0841 0.7692
vn -0.5760 -0.7467 -0.3327
vn 0.4566 -0.8029 0.3832
vn -0.7382 0.4945 -0.4589
vn -0.7630 -0.3500 0.5435
vn 0.4773 -0.1251 -0.8698
vn -0.3671 0.6048 -0.7067
vn -0.4998 -0.7461 -0.4399
vn 0.7265 0.6867 0.0269
usemtl Matériau.012
s off
f 131//26 132//26 134//26 133//26
f 138//27 137//27 141//27 142//27
f 137//28 138//28 136//28 135//28
f 153//29 154//29 132//29 131//29
f 151//30 137//30 135//30 153//30
f 152//31 134//31 132//31 154//31
f 142//32 141//32 145//32 146//32
f 151//33 133//33 140//33 155//33
f 152//34 138//34 142//34 156//34
f 133//35 134//35 139//35 140//35
f 158//36 146//36 150//36 160//36
f 155//37 140//37 144//37 157//37
f 156//38 142//38 146//38 158//38
f 140//39 139//39 143//39 144//39
f 149//40 159//40 163//40 166//40
f 144//41 143//41 147//41 148//41
f 146//42 145//42 149//42 150//42
f 157//43 144//43 148//43 159//43
f 145//44 157//44 159//44 149//44
f 148//45 147//45 161//45 162//45
f 139//46 156//46 158//46 143//46
f 141//47 155//47 157//47 145//47
f 143//48 158//48 160//48 147//48
f 134//49 152//49 156//49 139//49
f 137//50 151//50 155//50 141//50
f 138//51 152//51 154//51 136//51
f 133//52 151//52 153//52 131//52
f 135//53 136//53 154//53 153//53
f 165//54 166//54 172//54 171//54
f 161//55 164//55 170//55 167//55
f 150//56 149//56 166//56 165//56
f 159//57 148//57 162//57 163//57
f 147//58 160//58 164//58 161//58
f 160//59 150//59 165//59 164//59
f 172//60 169//60 180//60 179//60
f 168//61 167//61 173//61 174//61
f 163//62 162//62 168//62 169//62
f 166//63 163//63 169//63 172//63
f 164//64 165//64 171//64 170//64
f 162//65 161//65 167//65 168//65
f 176//66 175//66 183//66 184//66
f 167//67 170//67 176//67 173//67
f 169//68 168//68 174//68 175//68
f 170//69 169//69 175//69 176//69
f 179//70 180//70 192//70 191//70
f 170//71 171//71 178//71 177//71
f 171//72 172//72 179//72 178//72
f 169//73 170//73 177//73 180//73
f 184//74 183//74 187//74 188//74
f 175//75 174//75 182//75 183//75
f 173//76 176//76 184//76 181//76
f 174//77 173//77 181//77 182//77
f 186//78 185//78 188//78 187//78
f 183//79 182//79 186//79 187//79
f 181//80 184//80 188//80 185//80
f 182//81 181//81 185//81 186//81
f 192//82 189//82 190//82 191//82
f 177//83 178//83 190//83 189//83
f 180//84 177//84 189//84 192//84
f 178//85 179//85 191//85 190//85
f 193//86 194//86 196//86 195//86
f 200//87 199//87 203//87 204//87
f 199//88 200//88 198//88 197//88
f 215//89 216//89 194//89 193//89
f 213//90 199//90 197//90 215//90
f 214//91 196//91 194//91 216//91
f 204//92 203//92 207//92 208//92
f 213//93 195//93 202//93 217//93
f 214//94 200//94 204//94 218//94
f 195//95 196//95 201//95 202//95
f 220//96 208//96 212//96 222//96
f 217//97 202//97 206//97 219//97
f 218//98 204//98 208//98 220//98
f 202//99 201//99 205//99 206//99
f 211//100 221//100 225//100 228//100
f 206//101 205//101 209//101 210//101
f 208//102 207//102 211//102 212//102
f 219//103 206//103 210//103 221//103
f 207//104 219//104 221//104 211//104
f 210//105 209//105 223//105 224//105
f 201//106 218//106 220//106 205//106
f 203//107 217//107 219//107 207//107
f 205//108 220//108 222//108 209//108
f 196//109 214//109 218//109 201//109
f 199//110 213//110 217//110 203//110
f 200//111 214//111 216//111 198//111
f 195//112 213//112 215//112 193//112
f 197//113 198//113 216//113 215//113
f 227//114 228//114 234//114 233//114
f 223//115 226//115 232//115 229//115
f 212//116 211//116 228//116 227//116
f 221//117 210//117 224//117 225//117
f 209//118 222//118 226//118 223//118
f 222//119 212//119 227//119 226//119
f 234//120 231//120 242//120 241//120
f 230//121 229//121 235//121 236//121
f 225//122 224//122 230//122 231//122
f 228//123 225//123 231//123 234//123
f 226//124 227//124 233//124 232//124
f 224//125 223//125 229//125 230//125
f 238//126 237//126 245//126 246//126
f 229//127 232//127 238//127 235//127
f 231//128 230//128 236//128 237//128
f 232//129 231//129 237//129 238//129
f 241//130 242//130 254//130 253//130
f 232//131 233//131 240//131 239//131
f 233//132 234//132 241//132 240//132
f 231//133 232//133 239//133 242//133
f 246//134 245//134 249//134 250//134
f 237//135 236//135 244//135 245//135
f 235//136 238//136 246//136 243//136
f 236//137 235//137 243//137 244//137
f 248//138 247//138 250//138 249//138
f 245//139 244//139 248//139 249//139
f 243//140 246//140 250//140 247//140
f 244//141 243//141 247//141 248//141
f 254//142 251//142 252//142 253//142
f 239//143 240//143 252//143 251//143
f 242//144 239//144 251//144 254//144
f 240//145 241//145 253//145 252//145
