# Blender v2.91.2 OBJ File: 'camionnete02.blend'
# www.blender.org
mtllib arme_000083.mtl
o Cube.046_Cube.010
v 265.355652 604.577759 -1112.911743
v 254.480301 384.582458 -1120.843506
v 350.087769 607.724121 -1316.356201
v 339.212433 387.728851 -1324.288086
v 62.177670 617.665405 -1197.330566
v 51.302296 397.670105 -1205.262207
v 146.909775 620.811768 -1400.774902
v 136.034439 400.816467 -1408.707031
v 148.696289 600.245789 -832.808960
v 137.820938 380.250519 -840.740723
v -65.357025 393.338165 -925.159485
v -54.481670 613.333496 -917.227661
v 95.900314 598.285278 -706.043945
v 85.024933 378.289978 -713.975830
v -118.153076 391.377655 -798.394470
v -107.277725 611.372925 -790.462646
v 64.710770 597.127136 -631.156982
v 62.166824 437.283447 -649.374939
v -141.011230 450.371155 -733.793640
v -138.467270 610.214844 -715.575623
v 166.897308 600.921631 -876.510071
v 156.021957 380.926392 -884.441895
v -36.280693 614.009338 -960.928894
v -47.156063 394.014038 -968.860718
v 320.174683 606.613403 -1244.534180
v 309.299316 386.618073 -1252.466064
v 116.996735 619.701050 -1328.952637
v 106.121384 399.705719 -1336.884521
v 248.498764 614.267944 -1358.565674
v 237.623413 394.272644 -1366.497559
v 163.766663 611.121582 -1155.121094
v 152.891327 391.126251 -1163.052979
v 47.107319 606.789612 -875.018250
v 36.231949 386.794312 -882.950012
v -5.688694 604.829163 -748.253296
v -12.014677 393.907990 -742.228149
v -36.878220 603.670959 -673.366272
v -27.427959 433.687500 -698.667664
v 54.432941 387.470184 -926.651184
v 65.308319 607.465454 -918.719421
v 207.710342 393.161896 -1294.675049
v 218.585724 613.157227 -1286.743408
v 299.293274 610.996033 -1337.460938
v 203.685806 387.854370 -1141.948242
v 87.026428 383.522430 -861.845459
v 22.236172 391.701752 -727.997253
v 6.822905 431.481201 -684.436646
v 116.102814 604.193542 -897.614746
v 269.380219 609.885315 -1265.638672
v 288.417938 391.000763 -1345.392822
v 214.561142 607.849670 -1134.016602
v 97.901794 603.517700 -853.913696
v 45.105785 601.557190 -727.148682
v 13.916264 600.399048 -652.261658
v 105.227432 384.198273 -905.546631
v 258.504822 389.889984 -1273.570557
v 103.191208 343.007141 -907.031738
v 52.396683 346.279083 -928.136353
v 256.468536 348.698853 -1275.055664
v 205.674072 351.970795 -1296.160400
v 150.855011 349.935181 -1164.538086
v 201.649551 346.663239 -1143.433350
v 387.502655 539.170654 -1174.448975
v 363.262207 538.270508 -1116.247070
v 358.453339 440.990784 -1119.754395
v 382.693695 441.890991 -1177.956543
v 431.408325 536.342529 -1156.206787
v 407.167877 535.442322 -1098.004639
v 402.358978 438.162689 -1101.512085
v 426.599365 439.062836 -1159.714111
v 498.598022 532.014526 -1128.290283
v 474.357544 531.114380 -1070.088135
v 469.548615 433.834686 -1073.595459
v 493.788971 434.734833 -1131.797607
v 541.833740 529.229492 -1110.326172
v 517.593323 528.329346 -1052.124023
v 512.784485 431.049713 -1055.631470
v 537.024841 431.949860 -1113.833618
v 566.779358 401.337494 -2013.746582
v 515.984863 404.609406 -2034.851074
v 526.860046 624.604736 -2026.919434
v 577.654663 621.332825 -2005.814697
vn 0.9218 -0.0594 0.3830
vn 0.3844 0.0143 -0.9230
vn -0.9218 0.0594 -0.3830
vn 0.0493 0.9981 0.0360
vn -0.0493 -0.9981 -0.0360
vn -0.2923 -0.7554 0.5864
vn -0.1341 -0.9903 -0.0369
vn -0.4620 -0.1211 0.8786
vn -0.9224 0.0589 -0.3818
vn 0.9224 -0.0589 0.3818
vn 0.7162 -0.0102 -0.6979
vn -0.3477 -0.1298 0.9286
vn -0.0241 -0.9997 0.0101
vn -0.3875 -0.1568 0.9084
vn -0.0745 -0.9969 0.0248
vn -0.3844 -0.0143 0.9230
vn 0.0093 -0.0365 0.9993
vn 0.4675 -0.8652 0.1813
vn 0.5498 0.7997 0.2414
usemtl Matériau.011
s off
f 25//1 26//1 4//1 3//1
f 29//2 30//2 8//2 7//2
f 27//3 28//3 6//3 5//3
f 22//1 21//1 9//1 10//1
f 42//4 27//4 5//4 31//4
f 56//5 26//5 2//5 44//5
f 10//1 9//1 13//1 14//1
f 55//5 22//5 10//5 45//5
f 23//3 24//3 11//3 12//3
f 46//6 14//6 18//6 47//6
f 45//7 10//7 14//7 46//7
f 12//3 11//3 15//3 16//3
f 33//4 12//4 16//4 35//4
f 54//8 47//8 18//8 17//8
f 16//9 15//9 19//9 20//9
f 14//10 13//10 17//10 18//10
f 5//3 6//3 24//3 23//3
f 44//5 2//5 22//5 55//5
f 31//4 5//4 23//4 40//4
f 2//1 1//1 21//1 22//1
f 50//5 4//5 26//5 56//5
f 29//4 7//4 27//4 42//4
f 7//3 8//3 28//3 27//3
f 26//11 25//11 63//11 66//11
f 43//4 29//4 42//4 49//4
f 8//5 30//5 41//5 28//5
f 51//4 31//4 40//4 48//4
f 6//5 32//5 39//5 24//5
f 20//12 19//12 38//12 37//12
f 52//4 33//4 35//4 53//4
f 11//13 34//13 36//13 15//13
f 15//6 36//6 38//6 19//6
f 24//5 39//5 34//5 11//5
f 28//5 41//5 32//5 6//5
f 49//4 42//4 31//4 51//4
f 30//3 29//3 81//3 80//3
f 3//2 4//2 50//2 43//2
f 25//4 49//4 51//4 1//4
f 9//4 52//4 53//4 13//4
f 1//4 51//4 48//4 21//4
f 3//4 43//4 49//4 25//4
f 30//5 50//5 56//5 41//5
f 32//3 41//3 60//3 61//3
f 37//14 38//14 47//14 54//14
f 34//15 45//15 46//15 36//15
f 36//6 46//6 47//6 38//6
f 39//5 55//5 45//5 34//5
f 55//16 39//16 58//16 57//16
f 61//5 62//5 57//5 58//5
f 60//5 59//5 62//5 61//5
f 39//3 32//3 61//3 58//3
f 44//1 55//1 57//1 62//1
f 41//2 56//2 59//2 60//2
f 56//1 44//1 62//1 59//1
f 66//2 63//2 67//2 70//2
f 1//17 2//17 65//17 64//17
f 2//18 26//18 66//18 65//18
f 25//19 1//19 64//19 63//19
f 69//5 70//5 74//5 73//5
f 64//16 65//16 69//16 68//16
f 65//5 66//5 70//5 69//5
f 63//4 64//4 68//4 67//4
f 73//5 74//5 78//5 77//5
f 67//4 68//4 72//4 71//4
f 70//2 67//2 71//2 74//2
f 68//16 69//16 73//16 72//16
f 76//1 77//1 78//1 75//1
f 71//4 72//4 76//4 75//4
f 74//2 71//2 75//2 78//2
f 82//2 79//2 80//2 81//2
f 50//5 30//5 80//5 79//5
f 43//1 50//1 79//1 82//1
f 29//4 43//4 82//4 81//4
o Cube.048_Cube.024
v -563.671814 466.618958 182.298676
v -731.558899 347.060944 56.134651
v -422.726685 475.623230 -13.790459
v -589.672058 355.883911 -139.104553
v -671.950867 649.499146 40.309917
v -758.031250 588.198425 -24.377899
v -599.684326 654.115906 -60.230446
v -685.476868 592.776978 -124.491982
v -376.403442 455.967712 -451.291351
v -277.345947 514.081482 -398.065186
v -333.067139 626.188843 -416.765930
v -432.124664 568.075134 -469.992157
v -275.907043 493.459961 -639.403931
v -203.077698 536.186523 -600.270691
v -244.045197 618.610352 -614.019958
v -316.874481 575.883789 -653.153137
v -212.304749 519.668091 -756.595093
v -159.082031 550.892029 -727.997131
v -189.020569 611.126343 -738.044861
v -242.243286 579.902344 -766.642761
v -479.049286 583.511108 -26.721519
v -656.400940 456.491974 -159.131134
v -628.753113 573.971130 181.433319
v -806.985901 447.045593 47.494682
v -299.690430 572.314636 -410.785767
v -404.852112 510.619781 -467.291901
v -213.014130 580.025452 -622.823608
v -290.331421 534.665955 -664.368225
v -160.452942 583.858765 -756.456116
v -216.955475 550.710632 -786.816345
v -169.336182 523.070068 -840.276733
v -116.113525 554.294006 -811.678772
v -115.695251 593.035645 -849.772583
v -172.197693 559.887512 -880.132874
v -197.760620 588.191467 -858.478333
v -144.537842 619.415527 -829.880432
v -139.042053 526.699280 -900.618530
v -85.819397 557.923340 -872.020508
v -85.401306 596.664734 -910.114197
v -141.903748 563.516602 -940.474548
v -167.466431 591.820618 -918.820129
v -114.243713 623.044556 -890.222229
v -100.267151 512.797607 -928.785339
v -66.010071 532.895020 -910.378235
v -65.741028 557.831177 -934.897278
v -102.109070 536.495300 -954.438904
v -139.410034 598.753906 -983.588440
v -164.972595 627.057983 -961.934265
v -111.750000 658.281860 -933.336243
v -82.907593 631.902100 -953.228210
v -74.500427 502.000183 -947.990051
v -51.405273 515.549377 -935.580505
v -51.223755 532.360657 -952.110657
v -75.742065 517.976562 -965.284973
v -52.481140 500.795715 -974.509705
v -38.044189 509.265533 -966.752258
v -37.930603 519.774414 -977.085632
v -53.257324 510.782715 -985.320984
v -133.157349 627.873962 -998.250671
v -150.154480 646.693604 -983.852112
v -114.766052 667.454834 -964.836975
v -95.588196 649.914490 -978.063660
v -319.483521 535.867981 435.023987
v -296.645264 320.132355 328.562256
v -174.660400 618.953491 263.866577
v -153.655334 418.305847 160.296326
v -472.549805 554.317627 231.159698
v -460.839935 443.703857 176.573792
v -396.695618 604.976562 147.643799
v -387.525055 494.040161 90.299118
v 37.697937 607.464355 -114.350578
v 107.312622 603.514038 -10.537865
v 72.959045 720.732666 17.298088
v 4.552368 726.007507 -84.829048
v 211.718506 697.080200 -206.964752
v 263.945251 692.533691 -130.070282
v 239.575806 779.689331 -108.365364
v 187.349060 784.235779 -185.259949
v 321.254700 754.983032 -262.776733
v 359.421326 751.660400 -206.583282
v 341.612244 815.352600 -190.721588
v 303.445862 818.675171 -246.914978
v -278.387054 647.140930 217.995239
v -260.552185 427.744049 101.338051
v -436.599243 552.550659 392.995361
v -412.353577 323.520630 279.973114
v 98.743652 662.304993 5.349602
v 23.330933 668.869873 -105.682121
v 268.178833 742.520630 -126.519783
v 212.733643 747.347168 -208.152649
v 373.020691 792.836243 -210.849213
v 332.502136 796.363586 -270.505524
v 396.037903 784.331238 -311.834229
v 434.204529 781.008667 -255.640686
v 454.003845 830.977539 -263.597778
v 413.485291 834.504700 -323.254089
v 383.476135 855.464783 -299.096405
v 421.642639 852.142334 -242.902802
v 449.436462 806.676636 -346.781281
v 487.603088 803.354004 -290.587830
v 507.402771 853.322998 -298.545074
v 466.883972 856.850159 -358.201263
v 436.874573 877.810181 -334.043518
v 475.041199 874.487671 -277.850067
v 495.283264 796.813599 -363.837891
v 519.849426 794.675049 -327.668549
v 532.593445 826.837769 -332.790405
v 506.513367 829.107971 -371.188385
v 490.420105 905.647095 -371.301849
v 460.410828 926.607056 -347.144043
v 498.577576 923.284668 -290.950562
v 530.938660 902.119873 -311.645569
v 525.832947 789.192383 -376.406311
v 542.394836 787.750549 -352.022156
v 550.986511 809.433838 -355.475067
v 533.403992 810.964478 -381.361969
v 556.912048 794.095520 -390.536041
v 567.264832 793.194214 -375.292877
v 572.635559 806.748596 -377.451416
v 561.644470 807.705383 -393.633453
v 504.664734 934.875977 -364.607697
v 484.711121 948.812561 -348.544922
v 510.088440 946.603271 -311.181061
v 531.606018 932.530579 -324.941406
vn 0.4211 -0.8675 0.2648
vn -0.3559 0.8746 -0.3292
vn -0.4210 0.8677 -0.2641
vn -0.4506 -0.2663 0.8521
vn 0.4064 0.8515 0.3313
vn -0.6660 -0.5448 -0.5095
vn -0.4047 0.8884 -0.2168
vn 0.8196 0.4440 0.3621
vn -0.7822 -0.1270 -0.6099
vn 0.5098 -0.8553 0.0924
vn -0.7820 -0.3439 -0.5198
vn 0.8478 0.3917 0.3576
vn -0.7770 -0.3805 -0.5014
vn 0.4730 -0.8776 0.0778
vn 0.7536 0.5126 0.4116
vn 0.4791 -0.8754 0.0642
vn -0.3976 0.8883 -0.2300
vn 0.8675 0.3574 0.3459
vn 0.7650 0.5637 0.3115
vn 0.4233 -0.8876 0.1813
vn -0.7074 -0.5207 -0.4780
vn 0.7781 0.5318 0.3342
vn -0.6795 -0.5502 -0.4854
vn -0.6186 -0.5166 -0.5920
vn 0.5545 0.7790 0.2928
vn -0.8080 -0.0211 -0.5888
vn 0.7193 0.4402 0.5374
vn -0.7190 0.4968 0.4860
vn -0.4323 0.8868 -0.1637
vn -0.7591 -0.5044 -0.4115
vn -0.4459 0.8847 -0.1361
vn 0.8060 0.4084 0.4285
vn -0.7567 -0.5084 -0.4112
vn -0.8086 -0.4039 -0.4278
vn 0.7520 0.4884 0.4427
vn 0.1464 -0.7922 0.5925
vn 0.8039 0.4126 0.4284
vn 0.7532 0.5150 0.4091
vn -0.8087 -0.4013 -0.4301
vn 0.4323 -0.8868 0.1637
vn 0.0847 0.5906 -0.8025
vn -0.5971 -0.6102 -0.5208
vn 0.9154 0.2772 0.2919
vn 0.1023 0.5714 -0.8143
vn 0.7167 0.6850 0.1308
vn -0.8113 -0.4288 -0.3974
vn -0.6210 0.6241 0.4742
vn 0.6210 -0.6241 -0.4742
vn -0.2031 0.8267 -0.5247
vn 0.9003 0.3002 0.3152
vn -0.6255 -0.5950 -0.5047
vn 0.1290 -0.7804 0.6119
vn 0.6222 -0.5523 -0.5549
vn 0.8956 0.3069 0.3220
vn -0.6341 -0.5902 -0.4997
vn 0.3428 -0.8816 0.3246
vn 0.0447 0.6322 -0.7735
vn -0.7394 -0.1693 -0.6516
vn 0.6138 -0.4562 -0.6443
vn -0.5926 0.7564 0.2770
vn 0.7976 -0.2026 0.5681
vn -0.4570 0.8102 -0.3670
vn -0.7934 0.2133 -0.5702
vn -0.3580 -0.4434 0.8217
vn -0.4212 0.8985 0.1235
vn 0.1436 -0.9030 -0.4049
vn -0.2008 0.9614 0.1880
vn 0.4111 0.7224 0.5559
vn -0.3079 -0.2916 -0.9056
vn 0.6906 -0.5986 0.4059
vn -0.5089 0.1911 -0.8394
vn 0.6421 -0.1100 0.7587
vn -0.5152 0.1505 -0.8437
vn 0.3238 -0.9094 -0.2611
vn 0.5432 0.0084 0.8396
vn 0.3334 -0.9003 -0.2797
vn -0.1880 0.9646 0.1847
vn 0.6615 -0.1236 0.7397
vn 0.6005 0.0945 0.7940
vn 0.2321 -0.9489 -0.2138
vn -0.4738 0.0023 -0.8806
vn 0.5855 0.0791 0.8068
vn -0.4479 -0.0270 -0.8937
vn -0.1044 -0.6883 -0.7179
vn -0.0199 0.9494 0.3134
vn -0.3024 -0.6888 -0.6588
vn -0.0007 0.8899 0.4561
vn -0.9560 -0.2049 0.2101
vn -0.2478 0.9426 0.2240
vn -0.5476 -0.0000 -0.8367
vn -0.2720 0.9319 0.2399
vn 0.5748 -0.1017 0.8120
vn -0.5458 -0.0042 -0.8379
vn -0.5770 0.1059 -0.8098
vn 0.5265 -0.0258 0.8498
vn -0.1856 -0.9803 0.0681
vn 0.5733 -0.0976 0.8135
vn 0.5441 0.0117 0.8389
vn -0.5759 0.1092 -0.8102
vn 0.2478 -0.9426 -0.2240
vn 0.4673 0.8426 -0.2676
vn -0.3634 -0.0848 -0.9278
vn 0.7212 -0.1792 0.6691
vn 0.4866 0.8270 -0.2816
vn 0.6441 0.2945 0.7060
vn -0.5946 0.0718 -0.8008
vn -0.7119 0.4808 0.5119
vn 0.7119 -0.4808 -0.5119
vn 0.1083 0.9940 -0.0148
vn 0.6995 -0.1665 0.6949
vn -0.3947 -0.0713 -0.9161
vn -0.2085 -0.9744 0.0840
vn 0.7533 -0.3835 -0.5343
vn 0.6929 -0.1627 0.7024
vn -0.4041 -0.0671 -0.9122
vn 0.0987 -0.9872 -0.1254
vn 0.4223 0.8755 -0.2350
vn -0.4001 0.3854 -0.8315
vn 0.7918 -0.2592 -0.5531
vn -0.5913 0.6749 0.4415
usemtl Matériau.012
s off
f 83//20 84//20 86//20 85//20
f 90//21 89//21 93//21 94//21
f 89//22 90//22 88//22 87//22
f 105//23 106//23 84//23 83//23
f 103//24 89//24 87//24 105//24
f 104//25 86//25 84//25 106//25
f 94//26 93//26 97//26 98//26
f 103//27 85//27 92//27 107//27
f 104//28 90//28 94//28 108//28
f 85//29 86//29 91//29 92//29
f 110//30 98//30 102//30 112//30
f 107//31 92//31 96//31 109//31
f 108//32 94//32 98//32 110//32
f 92//33 91//33 95//33 96//33
f 101//34 111//34 115//34 118//34
f 96//35 95//35 99//35 100//35
f 98//36 97//36 101//36 102//36
f 109//37 96//37 100//37 111//37
f 97//38 109//38 111//38 101//38
f 100//39 99//39 113//39 114//39
f 91//40 108//40 110//40 95//40
f 93//41 107//41 109//41 97//41
f 95//42 110//42 112//42 99//42
f 86//43 104//43 108//43 91//43
f 89//44 103//44 107//44 93//44
f 90//45 104//45 106//45 88//45
f 85//46 103//46 105//46 83//46
f 87//47 88//47 106//47 105//47
f 117//48 118//48 124//48 123//48
f 113//49 116//49 122//49 119//49
f 102//50 101//50 118//50 117//50
f 111//51 100//51 114//51 115//51
f 99//52 112//52 116//52 113//52
f 112//53 102//53 117//53 116//53
f 124//54 121//54 132//54 131//54
f 120//55 119//55 125//55 126//55
f 115//56 114//56 120//56 121//56
f 118//57 115//57 121//57 124//57
f 116//58 117//58 123//58 122//58
f 114//59 113//59 119//59 120//59
f 128//60 127//60 135//60 136//60
f 119//61 122//61 128//61 125//61
f 121//62 120//62 126//62 127//62
f 122//63 121//63 127//63 128//63
f 131//64 132//64 144//64 143//64
f 122//65 123//65 130//65 129//65
f 123//66 124//66 131//66 130//66
f 121//67 122//67 129//67 132//67
f 136//68 135//68 139//68 140//68
f 127//69 126//69 134//69 135//69
f 125//70 128//70 136//70 133//70
f 126//71 125//71 133//71 134//71
f 138//72 137//72 140//72 139//72
f 135//73 134//73 138//73 139//73
f 133//74 136//74 140//74 137//74
f 134//75 133//75 137//75 138//75
f 144//76 141//76 142//76 143//76
f 129//77 130//77 142//77 141//77
f 132//78 129//78 141//78 144//78
f 130//79 131//79 143//79 142//79
f 145//80 146//80 148//80 147//80
f 152//81 151//81 155//81 156//81
f 151//82 152//82 150//82 149//82
f 167//83 168//83 146//83 145//83
f 165//84 151//84 149//84 167//84
f 166//85 148//85 146//85 168//85
f 156//86 155//86 159//86 160//86
f 165//87 147//87 154//87 169//87
f 166//88 152//88 156//88 170//88
f 147//89 148//89 153//89 154//89
f 172//90 160//90 164//90 174//90
f 169//91 154//91 158//91 171//91
f 170//92 156//92 160//92 172//92
f 154//93 153//93 157//93 158//93
f 163//94 173//94 177//94 180//94
f 158//95 157//95 161//95 162//95
f 160//96 159//96 163//96 164//96
f 171//97 158//97 162//97 173//97
f 159//98 171//98 173//98 163//98
f 162//99 161//99 175//99 176//99
f 153//100 170//100 172//100 157//100
f 155//101 169//101 171//101 159//101
f 157//102 172//102 174//102 161//102
f 148//103 166//103 170//103 153//103
f 151//104 165//104 169//104 155//104
f 152//105 166//105 168//105 150//105
f 147//106 165//106 167//106 145//106
f 149//107 150//107 168//107 167//107
f 179//108 180//108 186//108 185//108
f 175//109 178//109 184//109 181//109
f 164//110 163//110 180//110 179//110
f 173//111 162//111 176//111 177//111
f 161//112 174//112 178//112 175//112
f 174//113 164//113 179//113 178//113
f 186//114 183//114 194//114 193//114
f 182//115 181//115 187//115 188//115
f 177//116 176//116 182//116 183//116
f 180//117 177//117 183//117 186//117
f 178//118 179//118 185//118 184//118
f 176//119 175//119 181//119 182//119
f 190//120 189//120 197//120 198//120
f 181//121 184//121 190//121 187//121
f 183//122 182//122 188//122 189//122
f 184//123 183//123 189//123 190//123
f 193//124 194//124 206//124 205//124
f 184//125 185//125 192//125 191//125
f 185//126 186//126 193//126 192//126
f 183//127 184//127 191//127 194//127
f 198//128 197//128 201//128 202//128
f 189//129 188//129 196//129 197//129
f 187//130 190//130 198//130 195//130
f 188//131 187//131 195//131 196//131
f 200//132 199//132 202//132 201//132
f 197//133 196//133 200//133 201//133
f 195//134 198//134 202//134 199//134
f 196//135 195//135 199//135 200//135
f 206//136 203//136 204//136 205//136
f 191//137 192//137 204//137 203//137
f 194//138 191//138 203//138 206//138
f 192//139 193//139 205//139 204//139
