# Blender v2.91.2 OBJ File: 'camionnete02.blend'
# www.blender.org
mtllib arme_000034.mtl
o Cube.046_Cube.010
v 366.649200 226.262665 -1021.327881
v 367.915314 5.859573 -1021.274902
v 485.270447 226.899445 -1207.090332
v 486.536560 6.496368 -1207.037476
v 180.889954 225.167084 -1139.950806
v 182.156021 4.763977 -1139.897827
v 299.511169 225.803894 -1325.713257
v 300.777283 5.400772 -1325.660400
v 203.331253 225.385895 -765.569702
v 204.597351 4.982849 -765.516724
v 18.838100 3.887253 -884.139648
v 17.572010 224.290344 -884.192566
v 129.419189 224.989136 -649.822205
v 130.685272 4.586044 -649.769348
v -55.074036 3.490448 -768.392212
v -56.340126 223.893555 -768.445190
v 85.755219 224.754730 -581.443909
v 94.114136 64.470932 -592.739990
v -91.645210 63.375366 -711.362915
v -100.004105 223.659180 -700.066772
v 128.156982 444.710846 -649.875061
v -57.602276 443.615265 -768.498047
v 84.493050 444.476471 -581.496704
v -101.266228 443.380890 -700.119629
v 228.811874 225.522675 -805.472656
v 230.077972 5.119629 -805.419739
v 43.052601 224.427124 -924.095581
v 44.318665 4.024033 -924.042664
v 202.913315 298.142609 -765.587158
v 17.154047 297.047089 -884.210144
v 228.393921 298.279388 -805.490112
v 42.634636 297.183807 -924.112976
v 202.306976 403.700714 -765.612549
v 16.547697 402.605133 -884.235352
v 227.787537 403.837494 -805.515503
v 42.028301 402.741913 -924.138367
v 130.671768 297.754791 -652.455811
v -55.087540 296.659210 -771.078735
v 130.065384 403.312958 -652.481140
v -55.693905 402.217316 -771.104065
v 154.939651 581.642456 -693.080322
v -30.819626 580.546875 -811.703308
v 111.275681 581.408081 -624.702026
v -74.483551 580.312378 -743.324890
v 443.393463 226.674652 -1141.510498
v 444.659576 6.271561 -1141.457642
v 257.634186 225.579071 -1260.133301
v 258.900299 5.175964 -1260.080444
v 392.390808 226.351685 -1266.401855
v 393.656921 5.948563 -1266.348999
v 273.769592 225.714874 -1080.639404
v 275.035675 5.311783 -1080.586426
v 110.451637 224.838104 -824.881104
v 111.717712 4.435043 -824.828125
v 36.539539 224.441376 -709.133728
v 37.805614 4.038254 -709.080811
v -7.124417 224.206940 -640.755371
v 1.234482 63.923157 -652.051453
v 35.277336 444.163116 -709.186462
v -8.386593 443.928680 -640.808167
v 137.198318 4.571838 -864.731140
v 135.932236 224.974884 -864.784119
v 110.033684 297.594849 -824.898682
v 135.514282 297.731567 -864.801514
v 109.427338 403.152985 -824.923950
v 134.907928 403.289703 -864.826965
v 37.792110 297.207031 -711.767334
v 37.185745 402.765167 -711.792603
v 62.059998 581.094727 -752.391846
v 18.396044 580.860229 -684.013489
v 351.779907 5.723770 -1200.769043
v 350.513824 226.126862 -1200.821899
v 438.830627 226.625549 -1236.745972
v 321.475494 5.585678 -1050.930664
v 158.157532 4.708954 -795.172485
v 84.245422 4.312149 -679.425110
v 47.674301 64.197037 -622.395752
v 182.372055 225.248779 -835.128357
v 181.954102 298.005463 -835.145813
v 181.347733 403.563568 -835.171204
v 396.953674 226.400757 -1171.166260
v 440.096741 6.222473 -1236.693237
v 320.209381 225.988770 -1050.983765
v 156.891449 225.112000 -795.225464
v 82.979347 224.715240 -679.477966
v 39.315388 224.480835 -611.099609
v 81.717178 444.436981 -679.530762
v 38.053242 444.202545 -611.152466
v 183.638153 4.845734 -835.075439
v 156.473511 297.868744 -795.242920
v 155.867142 403.426849 -795.268250
v 84.231934 297.480927 -682.111572
v 83.625565 403.039032 -682.136841
v 108.499847 581.368530 -722.736023
v 64.835876 581.134033 -654.357727
v 398.219727 5.997665 -1171.113403
v 183.875214 -36.421730 -835.065552
v 137.435379 -36.695648 -864.721252
v 398.456787 -35.269806 -1171.103516
v 352.016998 -35.543716 -1200.759155
v 275.272736 -35.955704 -1080.576538
v 321.712555 -35.681793 -1050.920776
v 500.649750 165.550018 -1057.970215
v 466.714203 165.367828 -1004.826721
v 467.274170 67.907852 -1004.803162
v 501.209625 68.090027 -1057.946899
v 540.791382 165.786804 -1032.336548
v 506.855865 165.604614 -979.192993
v 507.415771 68.144638 -979.169556
v 541.351257 68.326797 -1032.313110
v 602.220886 166.149109 -993.108826
v 568.285339 165.966919 -939.965210
v 568.845215 68.506973 -939.941772
v 602.780701 68.689148 -993.085449
v 641.749939 166.382263 -967.866211
v 607.814392 166.200073 -914.722656
v 608.374390 68.740097 -914.699219
v 642.309814 68.922272 -967.842773
v 829.790344 8.314758 -1846.958008
v 783.350525 8.040863 -1876.613770
v 782.084290 228.443970 -1876.666748
v 828.524231 228.717865 -1847.010986
vn 0.8428 0.0050 0.5382
vn 0.5382 0.0029 -0.8428
vn -0.8428 -0.0050 -0.5382
vn -0.0057 1.0000 -0.0002
vn 0.0057 -1.0000 0.0002
vn -0.5382 -0.0029 0.8428
vn -0.3533 -0.7492 0.5602
vn -0.5358 -0.0871 0.8398
vn -0.8435 -0.0055 -0.5371
vn 0.8435 0.0055 0.5371
vn 0.5060 -0.3480 -0.7892
vn -0.5060 0.3480 0.7892
vn 0.8264 0.0046 -0.5630
vn -0.1631 -0.0007 0.9866
vn 0.4698 -0.8312 0.2972
vn 0.4602 0.8367 0.2968
usemtl Matériau.011
s off
f 45//1 46//1 4//1 3//1
f 49//2 50//2 8//2 7//2
f 47//3 48//3 6//3 5//3
f 26//1 25//1 9//1 10//1
f 72//4 47//4 5//4 51//4
f 96//5 46//5 2//5 74//5
f 10//1 9//1 13//1 14//1
f 84//6 9//6 29//6 90//6
f 89//5 26//5 10//5 75//5
f 27//3 28//3 11//3 12//3
f 76//7 14//7 18//7 77//7
f 75//5 10//5 14//5 76//5
f 12//3 11//3 15//3 16//3
f 53//4 12//4 16//4 55//4
f 86//8 77//8 18//8 17//8
f 16//9 15//9 19//9 20//9
f 16//3 20//3 24//3 22//3
f 14//10 13//10 17//10 18//10
f 59//11 22//11 42//11 69//11
f 86//6 17//6 23//6 88//6
f 17//1 13//1 21//1 23//1
f 55//2 16//2 22//2 59//2
f 5//3 6//3 28//3 27//3
f 74//5 2//5 26//5 89//5
f 51//4 5//4 27//4 62//4
f 2//1 1//1 25//1 26//1
f 32//3 30//3 34//3 36//3
f 62//2 27//2 32//2 64//2
f 27//3 12//3 30//3 32//3
f 9//1 25//1 31//1 29//1
f 66//4 36//4 34//4 65//4
f 90//5 29//5 37//5 92//5
f 64//2 32//2 36//2 66//2
f 29//1 31//1 35//1 33//1
f 92//6 37//6 39//6 93//6
f 29//1 33//1 39//1 37//1
f 34//3 30//3 38//3 40//3
f 65//4 34//4 40//4 68//4
f 69//4 42//4 44//4 70//4
f 23//1 21//1 41//1 43//1
f 88//12 23//12 43//12 95//12
f 22//3 24//3 44//3 42//3
f 82//5 4//5 46//5 96//5
f 49//4 7//4 47//4 72//4
f 7//3 8//3 48//3 47//3
f 46//13 45//13 103//13 106//13
f 73//4 49//4 72//4 81//4
f 8//5 50//5 71//5 48//5
f 24//12 60//12 70//12 44//12
f 94//4 69//4 70//4 95//4
f 91//4 65//4 68//4 93//4
f 38//6 67//6 68//6 40//6
f 79//2 64//2 66//2 80//2
f 30//5 63//5 67//5 38//5
f 80//4 66//4 65//4 91//4
f 78//2 62//2 64//2 79//2
f 83//4 51//4 62//4 78//4
f 6//5 52//5 61//5 28//5
f 85//2 55//2 59//2 87//2
f 20//6 57//6 60//6 24//6
f 87//11 59//11 69//11 94//11
f 20//8 19//8 58//8 57//8
f 84//4 53//4 55//4 85//4
f 11//5 54//5 56//5 15//5
f 15//7 56//7 58//7 19//7
f 28//5 61//5 54//5 11//5
f 12//6 53//6 63//6 30//6
f 48//5 71//5 52//5 6//5
f 81//4 72//4 51//4 83//4
f 50//3 49//3 121//3 120//3
f 3//2 4//2 82//2 73//2
f 45//4 81//4 83//4 1//4
f 9//4 84//4 85//4 13//4
f 21//11 87//11 94//11 41//11
f 13//2 85//2 87//2 21//2
f 1//4 83//4 78//4 25//4
f 25//2 78//2 79//2 31//2
f 35//4 80//4 91//4 33//4
f 31//2 79//2 80//2 35//2
f 33//4 91//4 93//4 39//4
f 41//4 94//4 95//4 43//4
f 3//4 73//4 81//4 45//4
f 50//5 82//5 96//5 71//5
f 60//12 88//12 95//12 70//12
f 67//6 92//6 93//6 68//6
f 63//5 90//5 92//5 67//5
f 52//3 71//3 100//3 101//3
f 57//6 86//6 88//6 60//6
f 57//8 58//8 77//8 86//8
f 54//5 75//5 76//5 56//5
f 56//7 76//7 77//7 58//7
f 61//5 89//5 75//5 54//5
f 53//6 84//6 90//6 63//6
f 89//6 61//6 98//6 97//6
f 101//5 102//5 97//5 98//5
f 100//5 99//5 102//5 101//5
f 61//3 52//3 101//3 98//3
f 74//1 89//1 97//1 102//1
f 71//2 96//2 99//2 100//2
f 96//1 74//1 102//1 99//1
f 106//2 103//2 107//2 110//2
f 1//14 2//14 105//14 104//14
f 2//15 46//15 106//15 105//15
f 45//16 1//16 104//16 103//16
f 109//5 110//5 114//5 113//5
f 104//6 105//6 109//6 108//6
f 105//5 106//5 110//5 109//5
f 103//4 104//4 108//4 107//4
f 113//5 114//5 118//5 117//5
f 107//4 108//4 112//4 111//4
f 110//2 107//2 111//2 114//2
f 108//6 109//6 113//6 112//6
f 116//1 117//1 118//1 115//1
f 111//4 112//4 116//4 115//4
f 114//2 111//2 115//2 118//2
f 122//2 119//2 120//2 121//2
f 82//5 50//5 120//5 119//5
f 73//1 82//1 119//1 122//1
f 49//4 73//4 122//4 121//4
o Cube.047_Cube.022
v -252.413483 479.908447 284.594788
v -248.864075 238.318665 288.994019
v -134.857605 477.791077 73.469902
v -131.308197 236.201294 77.869133
v -434.013519 415.291595 116.736359
v -432.193634 291.421753 118.991959
v -373.739319 414.205963 8.486725
v -371.919434 290.336121 10.742325
v 6.737762 289.068390 -290.866180
v 4.878571 415.614288 -293.170502
v -105.699615 412.869019 -354.713715
v -103.840424 286.323120 -352.409393
v 96.559753 303.572266 -487.368530
v 95.192810 396.611664 -489.062744
v 13.893250 394.593262 -534.310669
v 15.260193 301.553864 -532.616455
v 150.972687 314.643799 -611.394714
v 149.973785 382.635773 -612.632874
v 90.561127 381.160767 -645.699524
v 91.560028 313.168793 -644.461365
v -249.453461 482.775238 30.632500
v -245.685333 226.297943 35.302818
v -374.253510 485.023071 254.767578
v -370.485382 228.545776 259.437897
v -47.745178 418.091705 -328.902863
v -45.771423 283.747620 -326.456512
v 63.675934 398.303894 -528.216858
v 65.127106 299.531128 -526.418274
v 133.450470 383.755219 -652.935730
v 134.510956 311.573364 -651.621277
v 199.822449 313.896362 -691.853699
v 198.823547 381.888367 -693.091858
v 182.050903 382.797089 -744.764587
v 183.111420 310.615234 -743.450134
v 140.198792 312.243042 -734.542542
v 139.199890 380.235016 -735.780701
v 233.764191 313.330200 -750.331848
v 232.765289 381.322174 -751.570007
v 215.992584 382.230896 -803.242737
v 217.053192 310.049042 -801.928284
v 174.140533 311.676880 -793.020630
v 173.141632 379.668823 -794.258789
v 275.717621 325.629425 -774.389221
v 275.074677 369.392792 -775.186096
v 264.278961 369.977692 -808.445557
v 264.961578 323.517517 -807.599487
v 205.684998 308.888611 -856.482178
v 162.772369 310.516449 -847.574524
v 161.773468 378.508423 -848.812683
v 204.624512 381.070465 -857.796631
v 304.913300 332.907501 -790.009155
v 304.479828 362.411530 -790.546387
v 297.201630 362.805878 -812.968994
v 297.661835 331.483704 -812.398682
v 327.032318 338.289307 -815.919861
v 326.761322 356.732635 -816.255737
v 322.211700 356.979126 -830.272400
v 322.499359 337.399261 -829.915894
v 192.197784 320.278748 -884.596313
v 163.664612 321.361115 -878.673401
v 163.000427 366.569855 -879.496643
v 191.492615 368.273376 -885.470215
vn 0.8736 0.0217 0.4862
vn -0.8044 -0.0226 -0.5936
vn -0.8736 -0.0217 -0.4862
vn -0.2372 0.0142 0.9714
vn -0.4332 0.8659 -0.2499
vn 0.0684 -0.9965 0.0481
vn -0.8332 -0.0223 -0.5525
vn 0.1024 0.9869 -0.1243
vn -0.2701 -0.9316 -0.2431
vn 0.9354 0.0202 0.3531
vn -0.0399 -0.9915 -0.1235
vn 0.0936 0.9944 -0.0498
vn -0.0154 -0.9958 -0.0906
vn 0.9087 0.0209 0.4169
vn -0.0688 0.9965 -0.0471
vn 0.9149 0.0208 0.4032
vn -0.8248 -0.0224 -0.5650
vn 0.1345 0.9898 -0.0463
vn -0.0690 0.9848 -0.1595
vn 0.8547 0.0220 0.5187
vn 0.1228 -0.9923 -0.0136
vn -0.0446 0.9909 -0.1268
vn 0.1635 -0.9865 -0.0103
vn 0.1314 -0.9874 -0.0883
vn -0.2972 0.9138 -0.2767
vn -0.4075 -0.8868 -0.2180
vn 0.0391 0.9992 0.0117
vn -0.9165 -0.0062 0.3999
vn -0.8648 -0.0218 -0.5017
vn 0.0595 -0.9973 0.0442
vn -0.8798 -0.0216 -0.4748
vn 0.0344 0.9994 0.0096
vn 0.0637 -0.9969 0.0459
vn -0.0395 -0.9992 -0.0108
vn -0.0614 0.9981 -0.0084
vn 0.4922 0.0231 0.8702
vn 0.0301 0.9995 0.0078
vn -0.0701 0.9963 -0.0503
vn -0.0408 -0.9991 -0.0140
vn 0.8648 0.0218 0.5017
vn -0.1404 -0.0201 -0.9899
vn 0.2678 -0.9632 -0.0255
vn 0.2394 0.9690 -0.0607
vn -0.1121 -0.0197 -0.9935
vn -0.1314 0.9221 -0.3640
vn -0.0321 -0.9991 0.0279
vn -0.9789 -0.0107 0.2042
vn 0.9789 0.0107 -0.2042
vn -0.5725 -0.0233 -0.8196
vn 0.2061 0.9773 -0.0497
vn 0.2347 -0.9720 -0.0142
vn 0.4672 0.0230 0.8839
vn 0.9512 0.0084 -0.3086
vn 0.1961 0.9795 -0.0464
vn 0.2245 -0.9744 -0.0107
vn 0.7580 0.0230 0.6519
vn -0.2040 -0.0208 -0.9788
vn -0.1041 -0.9382 -0.3301
vn 0.9025 0.0054 -0.4307
vn -0.9993 -0.0153 -0.0340
usemtl Matériau.012
s off
f 123//17 124//17 126//17 125//17
f 130//18 129//18 133//18 134//18
f 129//19 130//19 128//19 127//19
f 145//20 146//20 124//20 123//20
f 143//21 129//21 127//21 145//21
f 144//22 126//22 124//22 146//22
f 134//23 133//23 137//23 138//23
f 143//24 125//24 132//24 147//24
f 144//25 130//25 134//25 148//25
f 125//26 126//26 131//26 132//26
f 150//27 138//27 142//27 152//27
f 147//28 132//28 136//28 149//28
f 148//29 134//29 138//29 150//29
f 132//30 131//30 135//30 136//30
f 141//31 151//31 155//31 158//31
f 136//32 135//32 139//32 140//32
f 138//33 137//33 141//33 142//33
f 149//34 136//34 140//34 151//34
f 137//35 149//35 151//35 141//35
f 140//36 139//36 153//36 154//36
f 131//37 148//37 150//37 135//37
f 133//38 147//38 149//38 137//38
f 135//39 150//39 152//39 139//39
f 126//40 144//40 148//40 131//40
f 129//41 143//41 147//41 133//41
f 130//42 144//42 146//42 128//42
f 125//43 143//43 145//43 123//43
f 127//44 128//44 146//44 145//44
f 157//45 158//45 164//45 163//45
f 153//46 156//46 162//46 159//46
f 142//47 141//47 158//47 157//47
f 151//48 140//48 154//48 155//48
f 139//49 152//49 156//49 153//49
f 152//50 142//50 157//50 156//50
f 164//51 161//51 172//51 171//51
f 160//52 159//52 165//52 166//52
f 155//53 154//53 160//53 161//53
f 158//54 155//54 161//54 164//54
f 156//55 157//55 163//55 162//55
f 154//56 153//56 159//56 160//56
f 168//57 167//57 175//57 176//57
f 159//58 162//58 168//58 165//58
f 161//59 160//59 166//59 167//59
f 162//60 161//60 167//60 168//60
f 171//61 172//61 184//61 183//61
f 162//62 163//62 170//62 169//62
f 163//63 164//63 171//63 170//63
f 161//64 162//64 169//64 172//64
f 176//65 175//65 179//65 180//65
f 167//66 166//66 174//66 175//66
f 165//67 168//67 176//67 173//67
f 166//68 165//68 173//68 174//68
f 178//69 177//69 180//69 179//69
f 175//70 174//70 178//70 179//70
f 173//71 176//71 180//71 177//71
f 174//72 173//72 177//72 178//72
f 184//73 181//73 182//73 183//73
f 169//74 170//74 182//74 181//74
f 172//75 169//75 181//75 184//75
f 170//76 171//76 183//76 182//76
o Cube.048_Cube.024
v -525.853027 336.423584 122.297768
v -686.891846 196.847229 8.356852
v -384.069458 332.556213 -73.355080
v -545.108215 192.979858 -187.295975
v -641.726624 498.709045 -37.599442
v -724.295654 427.144348 -96.020134
v -569.030151 496.726135 -137.916138
v -651.599243 425.161438 -196.336807
v -305.098755 266.950653 -495.096527
v -220.745850 340.061432 -435.413727
v -278.983704 443.373291 -479.658997
v -363.336609 370.262512 -539.341797
v -175.354248 286.862335 -667.321472
v -113.336121 340.615051 -623.441284
v -156.153931 416.572266 -655.971436
v -218.172058 362.819580 -699.851624
v -93.721802 302.166016 -774.875122
v -48.399719 341.447754 -742.808044
v -79.690369 396.956299 -766.580627
v -125.012451 357.674530 -798.647705
v -445.473602 435.767456 -97.210243
v -616.436035 287.589966 -218.172531
v -595.994385 439.873138 110.499367
v -766.956848 291.695648 -10.462927
v -243.981995 393.880463 -460.228790
v -333.532959 316.264374 -523.589417
v -121.768188 379.947998 -653.624695
v -187.608093 322.882935 -700.208862
v -46.711548 369.977661 -775.698608
v -94.826477 328.275208 -809.741699
v -36.904846 297.772247 -849.795227
v 8.417236 337.054016 -817.728210
v 13.217773 370.120178 -860.574402
v -34.897156 328.417725 -894.617554
v -65.561584 357.119751 -881.993225
v -20.239502 396.401520 -849.926208
v 3.315979 295.705536 -904.109802
v 48.638062 334.987305 -872.042786
v 53.438599 368.053436 -914.888977
v 5.323669 326.351013 -948.932129
v -25.340759 355.053040 -936.307800
v 19.981323 394.334808 -904.240784
v 47.236877 281.459442 -923.033997
v 76.408569 306.743347 -902.393921
v 79.498535 328.026489 -929.972107
v 48.529114 301.184540 -951.884094
v 13.264832 355.450806 -995.802673
v -17.399597 384.152832 -983.178345
v 27.922485 423.434570 -951.111267
v 61.379761 397.153198 -961.759583
v 76.604248 270.387054 -935.851685
v 96.271057 287.432770 -921.936707
v 98.354248 301.781311 -940.529236
v 77.475525 283.685181 -955.301697
v 103.002380 267.461700 -957.855591
v 115.296326 278.117188 -949.157166
v 116.598511 287.086609 -960.779541
v 103.546997 275.774536 -970.013977
v 20.233154 382.722260 -1013.402405
v -0.156006 401.806610 -1005.008301
v 29.979187 427.925537 -983.686523
v 52.225403 410.450745 -990.766724
vn 0.4601 -0.8162 0.3495
vn -0.3815 0.8075 -0.4499
vn -0.4601 0.8162 -0.3495
vn -0.4436 -0.2012 0.8734
vn 0.3628 0.8990 0.2451
vn -0.6368 -0.6267 -0.4491
vn -0.4132 0.8125 -0.4113
vn 0.7691 0.5267 0.3620
vn -0.7350 -0.2290 -0.6382
vn 0.5410 -0.8097 0.2273
vn -0.6553 -0.4774 -0.5854
vn 0.7457 0.5080 0.4311
vn -0.6514 -0.5106 -0.5612
vn 0.5042 -0.8150 0.2856
vn 0.6363 0.6267 0.4500
vn 0.5124 -0.8142 0.2731
vn -0.4038 0.8112 -0.4230
vn 0.7693 0.4743 0.4281
vn 0.6621 0.6644 0.3467
vn 0.4377 -0.8150 0.3797
vn -0.5786 -0.6398 -0.5059
vn 0.6729 0.6372 0.3758
vn -0.5481 -0.6675 -0.5040
vn -0.5470 -0.6139 -0.5692
vn 0.4951 0.8372 0.2322
vn -0.8056 -0.1136 -0.5815
vn 0.6934 0.5263 0.4921
vn -0.7455 0.5076 0.4319
vn -0.4495 0.8158 -0.3639
vn -0.6422 -0.6191 -0.4520
vn -0.4677 0.8163 -0.3390
vn 0.6911 0.5306 0.4908
vn -0.6396 -0.6227 -0.4507
vn -0.6940 -0.5263 -0.4912
vn 0.6307 0.6069 0.4837
vn 0.0870 -0.6883 0.7202
vn 0.6888 0.5346 0.4897
vn 0.6362 0.6287 0.4472
vn -0.6939 -0.5241 -0.4939
vn 0.4495 -0.8158 0.3639
vn 0.1894 0.4805 -0.8563
vn -0.4572 -0.7245 -0.5158
vn 0.8307 0.3918 0.3955
vn 0.2099 0.4615 -0.8620
vn 0.6393 0.7553 0.1445
vn -0.7006 -0.5469 -0.4583
vn -0.7319 0.6276 0.2656
vn 0.7319 -0.6276 -0.2656
vn -0.1568 0.7268 -0.6687
vn 0.8104 0.4164 0.4122
vn -0.4889 -0.7097 -0.5072
vn 0.0659 -0.6755 0.7344
vn 0.7430 -0.5676 -0.3548
vn 0.8041 0.4236 0.4170
vn -0.4985 -0.7050 -0.5044
vn 0.3328 -0.7963 0.5051
vn 0.1425 0.5221 -0.8409
vn -0.6007 -0.3195 -0.7329
vn 0.7448 -0.4857 -0.4577
vn -0.6771 0.7336 0.0584
usemtl Matériau.012
s off
f 185//77 186//77 188//77 187//77
f 192//78 191//78 195//78 196//78
f 191//79 192//79 190//79 189//79
f 207//80 208//80 186//80 185//80
f 205//81 191//81 189//81 207//81
f 206//82 188//82 186//82 208//82
f 196//83 195//83 199//83 200//83
f 205//84 187//84 194//84 209//84
f 206//85 192//85 196//85 210//85
f 187//86 188//86 193//86 194//86
f 212//87 200//87 204//87 214//87
f 209//88 194//88 198//88 211//88
f 210//89 196//89 200//89 212//89
f 194//90 193//90 197//90 198//90
f 203//91 213//91 217//91 220//91
f 198//92 197//92 201//92 202//92
f 200//93 199//93 203//93 204//93
f 211//94 198//94 202//94 213//94
f 199//95 211//95 213//95 203//95
f 202//96 201//96 215//96 216//96
f 193//97 210//97 212//97 197//97
f 195//98 209//98 211//98 199//98
f 197//99 212//99 214//99 201//99
f 188//100 206//100 210//100 193//100
f 191//101 205//101 209//101 195//101
f 192//102 206//102 208//102 190//102
f 187//103 205//103 207//103 185//103
f 189//104 190//104 208//104 207//104
f 219//105 220//105 226//105 225//105
f 215//106 218//106 224//106 221//106
f 204//107 203//107 220//107 219//107
f 213//108 202//108 216//108 217//108
f 201//109 214//109 218//109 215//109
f 214//110 204//110 219//110 218//110
f 226//111 223//111 234//111 233//111
f 222//112 221//112 227//112 228//112
f 217//113 216//113 222//113 223//113
f 220//114 217//114 223//114 226//114
f 218//115 219//115 225//115 224//115
f 216//116 215//116 221//116 222//116
f 230//117 229//117 237//117 238//117
f 221//118 224//118 230//118 227//118
f 223//119 222//119 228//119 229//119
f 224//120 223//120 229//120 230//120
f 233//121 234//121 246//121 245//121
f 224//122 225//122 232//122 231//122
f 225//123 226//123 233//123 232//123
f 223//124 224//124 231//124 234//124
f 238//125 237//125 241//125 242//125
f 229//126 228//126 236//126 237//126
f 227//127 230//127 238//127 235//127
f 228//128 227//128 235//128 236//128
f 240//129 239//129 242//129 241//129
f 237//130 236//130 240//130 241//130
f 235//131 238//131 242//131 239//131
f 236//132 235//132 239//132 240//132
f 246//133 243//133 244//133 245//133
f 231//134 232//134 244//134 243//134
f 234//135 231//135 243//135 246//135
f 232//136 233//136 245//136 244//136
