# Blender v2.91.2 OBJ File: 'camionnete02.blend'
# www.blender.org
mtllib arme_000191.mtl
o Cube.046_Cube.010
v 60.182526 -48.678162 -1186.200195
v -6.203224 -255.274872 -1147.601562
v 114.996414 -104.774841 -1392.179932
v 48.610626 -311.371552 -1353.581543
v -142.715118 3.763077 -1254.475830
v -209.100952 -202.833633 -1215.876953
v -87.901253 -52.333588 -1460.455566
v -154.287109 -258.930328 -1421.856934
v -15.285294 28.555817 -902.606628
v -81.671074 -178.040863 -864.008118
v -284.568695 -125.599632 -932.283569
v -218.182922 80.997040 -970.882080
v -49.439369 63.509277 -774.261841
v -115.825203 -143.087418 -735.663391
v -318.722870 -90.646179 -803.938843
v -252.337082 115.950531 -842.537415
v -69.616142 84.158234 -698.441650
v -114.379372 -69.613007 -682.981140
v -317.277100 -17.171738 -751.256653
v -272.513855 136.599487 -766.717041
v 16.741173 269.467316 -812.741089
v -186.156525 321.908508 -881.016663
v -3.435562 290.116180 -736.920837
v -206.333237 342.557465 -805.196350
v -3.510887 16.505875 -946.852417
v -69.896683 -190.090775 -908.253845
v -206.408585 68.947144 -1015.127930
v -272.794403 -137.649567 -976.529419
v 6.629166 96.754944 -915.348267
v -196.268494 149.196198 -983.623840
v 18.403564 84.705017 -959.594055
v -184.494110 137.146240 -1027.869385
v 38.423492 195.700714 -933.834412
v -164.474167 248.141937 -1002.109802
v 50.197800 183.650787 -978.080139
v -152.699799 236.092041 -1046.355591
v -26.753014 130.918396 -789.904358
v -229.650711 183.359619 -858.179871
v 5.041283 229.864227 -808.390381
v -197.856400 282.305420 -876.665894
v 70.679779 384.645294 -884.566711
v -132.217941 437.086517 -952.842285
v 50.503006 405.294220 -808.746521
v -152.394608 457.735443 -877.021912
v 95.645386 -84.970963 -1319.462891
v 29.259590 -291.567688 -1280.864258
v -107.252274 -32.529724 -1387.738281
v -173.638031 -239.126450 -1349.139648
v 13.547554 -78.554199 -1426.317871
v -52.838242 -285.150940 -1387.719482
v -41.266281 -22.457520 -1220.337891
v -107.652077 -229.054245 -1181.739258
v -116.734085 54.776428 -936.744324
v -183.119904 -151.820221 -898.145752
v -150.888214 89.729919 -808.399597
v -208.778198 -107.036583 -758.442322
v -171.064972 110.378845 -732.579346
v -207.803284 -57.492584 -722.918579
v -84.707657 295.687958 -846.878845
v -104.884399 316.336823 -771.058594
v -171.345520 -163.870163 -942.391602
v -104.959740 42.726501 -980.990112
v -94.819672 122.975555 -949.486084
v -83.045280 110.925598 -993.731750
v -63.025314 221.921356 -967.972046
v -51.250992 209.871399 -1012.217896
v -128.201859 157.139008 -824.042175
v -96.407532 256.084839 -842.528137
v -30.769089 410.865936 -918.704468
v -50.945847 431.514862 -842.884216
v -72.189247 -265.347046 -1315.001953
v -5.803421 -58.750320 -1353.600586
v 64.272034 -91.664520 -1409.248779
v -56.927643 -242.164551 -1164.670410
v -132.395493 -164.930542 -881.076965
v -174.574600 -115.876892 -746.932739
v -173.599670 -66.332909 -711.408936
v -54.235291 29.616196 -963.921204
v -32.320877 97.815277 -976.662964
v -0.526581 196.761078 -995.148987
v 44.920990 -71.860657 -1336.531738
v -2.113792 -298.261230 -1370.650391
v 9.458122 -35.567841 -1203.269287
v -66.009697 41.666107 -919.675537
v -100.163811 76.619598 -791.330688
v -120.340561 97.268524 -715.510437
v -33.983231 282.577637 -829.809998
v -54.159958 303.226532 -753.989685
v -120.621101 -176.980469 -925.322754
v -44.095245 109.865265 -932.417175
v -12.300934 208.811066 -950.903259
v -77.477440 144.028717 -806.973267
v -45.683121 242.974518 -825.459229
v 19.955383 397.755646 -901.635559
v -0.221405 418.404510 -825.815369
v -21.464859 -278.457367 -1297.933105
v -133.050934 -215.662872 -918.095703
v -183.775360 -202.552582 -935.164551
v -33.894718 -317.139771 -1290.706299
v -84.619049 -304.029480 -1307.774902
v -120.081909 -267.736694 -1174.512207
v -69.357506 -280.846985 -1157.443604
v 152.771576 -154.576385 -1242.748047
v 137.090256 -138.528122 -1183.820557
v 107.735260 -229.883072 -1166.752686
v 123.416443 -245.931366 -1225.680176
v 196.616699 -165.908691 -1227.994141
v 180.935394 -149.860413 -1169.066650
v 151.580353 -241.215317 -1151.998779
v 167.261597 -257.263672 -1210.926270
v 263.713745 -183.250671 -1205.416016
v 248.032440 -167.202393 -1146.488525
v 218.677277 -258.557312 -1129.420654
v 234.358521 -274.605591 -1188.348389
v 306.889801 -194.410065 -1190.887207
v 291.208496 -178.361755 -1131.959717
v 261.853485 -269.716675 -1114.891846
v 277.534698 -285.764954 -1173.819336
v 177.960571 -482.549225 -2047.333252
v 127.236176 -469.438934 -2064.402100
v 193.621887 -262.842163 -2103.000732
v 244.346344 -275.952515 -2085.931885
v 10.274033 462.216217 -948.739197
v -83.205597 486.377045 -980.195251
v -8.317719 481.243011 -878.874817
v -101.797333 505.403900 -910.330933
v 85.161865 457.082123 -847.418823
v 103.753769 438.055389 -917.282959
v 57.013977 450.135895 -933.011047
v 38.422073 469.162567 -863.146851
vn 0.9206 -0.2379 0.3098
vn 0.2487 -0.2545 -0.9345
vn -0.9206 0.2379 -0.3098
vn 0.3012 0.9373 -0.1751
vn -0.3012 -0.9373 0.1751
vn -0.2487 0.2545 0.9345
vn -0.3903 -0.5314 0.7518
vn -0.3806 -0.9071 0.1796
vn -0.3557 0.1666 0.9196
vn -0.9210 0.2378 -0.3084
vn 0.9210 -0.2378 0.3084
vn 0.1273 -0.5671 -0.8138
vn 0.1244 -0.5732 -0.8099
vn -0.1273 0.5671 0.8138
vn 0.5909 -0.3276 -0.7372
vn -0.7541 0.5546 -0.3517
vn -0.2416 0.1363 0.9608
vn -0.2712 -0.9374 0.2183
vn -0.0938 0.6352 0.7666
vn -0.2892 0.1180 0.9500
vn -0.3169 -0.9186 0.2363
vn 0.1336 0.1404 0.9810
vn 0.2568 -0.9130 0.3170
vn 0.7591 0.6505 0.0249
vn 0.8799 -0.3440 0.3278
usemtl Matériau.011
s off
f 45//1 46//1 4//1 3//1
f 49//2 50//2 8//2 7//2
f 47//3 48//3 6//3 5//3
f 26//1 25//1 9//1 10//1
f 72//4 47//4 5//4 51//4
f 96//5 46//5 2//5 74//5
f 10//1 9//1 13//1 14//1
f 84//6 9//6 29//6 90//6
f 89//5 26//5 10//5 75//5
f 27//3 28//3 11//3 12//3
f 76//7 14//7 18//7 77//7
f 75//8 10//8 14//8 76//8
f 12//3 11//3 15//3 16//3
f 53//4 12//4 16//4 55//4
f 86//9 77//9 18//9 17//9
f 16//10 15//10 19//10 20//10
f 16//3 20//3 24//3 22//3
f 14//11 13//11 17//11 18//11
f 59//12 22//12 42//12 69//12
f 86//6 17//6 23//6 88//6
f 17//1 13//1 21//1 23//1
f 55//2 16//2 22//2 59//2
f 5//3 6//3 28//3 27//3
f 74//5 2//5 26//5 89//5
f 51//4 5//4 27//4 62//4
f 2//1 1//1 25//1 26//1
f 32//3 30//3 34//3 36//3
f 62//2 27//2 32//2 64//2
f 27//3 12//3 30//3 32//3
f 9//1 25//1 31//1 29//1
f 66//4 36//4 34//4 65//4
f 90//5 29//5 37//5 92//5
f 64//2 32//2 36//2 66//2
f 29//1 31//1 35//1 33//1
f 92//6 37//6 39//6 93//6
f 29//1 33//1 39//1 37//1
f 34//3 30//3 38//3 40//3
f 65//4 34//4 40//4 68//4
f 69//13 42//13 124//13 123//13
f 23//1 21//1 41//1 43//1
f 88//14 23//14 43//14 95//14
f 22//3 24//3 44//3 42//3
f 82//5 4//5 46//5 96//5
f 49//4 7//4 47//4 72//4
f 7//3 8//3 48//3 47//3
f 46//15 45//15 103//15 106//15
f 73//4 49//4 72//4 81//4
f 8//5 50//5 71//5 48//5
f 24//14 60//14 70//14 44//14
f 42//16 44//16 126//16 124//16
f 91//4 65//4 68//4 93//4
f 38//6 67//6 68//6 40//6
f 79//2 64//2 66//2 80//2
f 30//5 63//5 67//5 38//5
f 80//4 66//4 65//4 91//4
f 78//2 62//2 64//2 79//2
f 83//4 51//4 62//4 78//4
f 6//5 52//5 61//5 28//5
f 85//2 55//2 59//2 87//2
f 20//6 57//6 60//6 24//6
f 87//12 59//12 69//12 94//12
f 20//17 19//17 58//17 57//17
f 84//4 53//4 55//4 85//4
f 11//18 54//18 56//18 15//18
f 15//7 56//7 58//7 19//7
f 28//5 61//5 54//5 11//5
f 12//6 53//6 63//6 30//6
f 48//5 71//5 52//5 6//5
f 81//4 72//4 51//4 83//4
f 50//3 49//3 121//3 120//3
f 3//2 4//2 82//2 73//2
f 45//4 81//4 83//4 1//4
f 9//4 84//4 85//4 13//4
f 21//12 87//12 94//12 41//12
f 13//2 85//2 87//2 21//2
f 1//4 83//4 78//4 25//4
f 25//2 78//2 79//2 31//2
f 35//4 80//4 91//4 33//4
f 31//2 79//2 80//2 35//2
f 33//4 91//4 93//4 39//4
f 70//19 95//19 130//19 125//19
f 3//4 73//4 81//4 45//4
f 50//5 82//5 96//5 71//5
f 60//14 88//14 95//14 70//14
f 67//6 92//6 93//6 68//6
f 63//5 90//5 92//5 67//5
f 52//3 71//3 100//3 101//3
f 57//6 86//6 88//6 60//6
f 57//20 58//20 77//20 86//20
f 54//21 75//21 76//21 56//21
f 56//7 76//7 77//7 58//7
f 61//5 89//5 75//5 54//5
f 53//6 84//6 90//6 63//6
f 89//6 61//6 98//6 97//6
f 101//5 102//5 97//5 98//5
f 100//5 99//5 102//5 101//5
f 61//3 52//3 101//3 98//3
f 74//1 89//1 97//1 102//1
f 71//2 96//2 99//2 100//2
f 96//1 74//1 102//1 99//1
f 106//2 103//2 107//2 110//2
f 1//22 2//22 105//22 104//22
f 2//23 46//23 106//23 105//23
f 45//24 1//24 104//24 103//24
f 109//5 110//5 114//5 113//5
f 104//6 105//6 109//6 108//6
f 105//5 106//5 110//5 109//5
f 103//4 104//4 108//4 107//4
f 113//5 114//5 118//5 117//5
f 107//4 108//4 112//4 111//4
f 110//2 107//2 111//2 114//2
f 108//6 109//6 113//6 112//6
f 116//1 117//1 118//1 115//1
f 111//4 112//4 116//4 115//4
f 114//2 111//2 115//2 118//2
f 122//2 119//2 120//2 121//2
f 82//5 50//5 120//5 119//5
f 73//1 82//1 119//1 122//1
f 49//4 73//4 122//4 121//4
f 123//4 124//4 126//4 125//4
f 129//4 123//4 125//4 130//4
f 128//4 129//4 130//4 127//4
f 95//19 43//19 127//19 130//19
f 94//13 69//13 123//13 129//13
f 43//25 41//25 128//25 127//25
f 44//19 70//19 125//19 126//19
f 41//13 94//13 129//13 128//13
o Cube.048_Cube.024
v -488.112488 555.676208 145.801651
v -680.388489 423.058990 83.832680
v -370.773560 477.203491 -50.339020
v -562.878357 344.228973 -112.323616
v -593.885803 690.398254 -43.914696
v -692.471069 622.401733 -75.687920
v -533.722900 650.163025 -144.481506
v -631.812744 582.242676 -175.697662
v -394.188263 323.777802 -474.046539
v -277.559021 361.370605 -442.313049
v -305.529846 479.210388 -479.110565
v -422.159119 441.617554 -510.843964
v -313.632874 298.626251 -673.470093
v -227.884399 326.265320 -650.138855
v -248.449066 412.903778 -677.193237
v -334.197571 385.264679 -700.524353
v -261.782776 285.385132 -798.378418
v -199.118866 305.583374 -781.328430
v -214.147400 368.897614 -801.099365
v -276.811279 348.699432 -818.149231
v -417.434906 580.241577 -96.893852
v -620.676514 439.970093 -161.481110
v -542.094177 663.637268 111.287758
v -746.218750 522.847717 45.500099
v -286.161469 420.259705 -464.902069
v -409.977783 380.350342 -498.590973
v -229.494507 366.429138 -680.362976
v -320.527100 337.086792 -705.132019
v -196.017670 332.091980 -815.770691
v -262.543030 310.649017 -833.871521
v -230.926605 262.106506 -884.206848
v -168.262695 282.304810 -867.156738
v -163.294373 312.081635 -912.332703
v -229.819824 290.638672 -930.433411
v -244.374908 328.186646 -913.061584
v -181.711121 348.384949 -896.011414
v -209.044830 246.620178 -946.282593
v -146.380920 266.818481 -929.232483
v -141.412659 296.595337 -974.408508
v -207.938110 275.152344 -992.509094
v -222.493164 312.700348 -975.137268
v -159.829346 332.898590 -958.087219
v -179.096375 217.962402 -974.066467
v -138.762634 230.963135 -963.091980
v -135.564697 250.129181 -992.169861
v -178.384094 236.327332 -1003.820374
v -202.525543 300.160339 -1042.026978
v -217.080780 337.708374 -1024.654907
v -154.416809 357.906677 -1007.605164
v -136.000244 321.603271 -1023.926331
v -159.649353 197.356873 -992.682556
v -132.457336 206.121582 -985.283997
v -130.301453 219.042786 -1004.887268
v -159.169067 209.737976 -1012.741882
v -142.382202 185.543823 -1020.102966
v -125.384155 191.022705 -1015.477966
v -124.036438 199.099792 -1027.732422
v -142.081848 193.283325 -1032.642334
v -191.225769 323.413544 -1062.851074
v -200.903595 348.379669 -1051.300171
v -159.237671 361.809692 -1039.963379
v -146.992126 337.671204 -1050.815796
v -304.048828 432.803284 476.924530
v -372.656769 246.411560 339.270569
v -145.215637 501.995361 303.817505
v -219.509796 317.669495 166.453125
v -457.338562 541.053528 303.389343
v -492.515747 445.485229 232.810303
v -367.678101 579.301331 214.564972
v -413.993042 482.021179 144.201935
v -169.115479 359.815063 -106.343468
v -89.584167 284.729340 -46.026413
v 6.857849 338.371094 -103.780525
v -69.775574 412.769714 -164.222778
v -165.104065 215.723572 -267.938812
v -108.040771 156.953613 -223.769257
v -35.003784 195.886963 -266.323395
v -92.067139 254.657074 -310.493011
v -159.744446 125.096741 -369.052246
v -118.043335 82.148438 -336.773651
v -64.668945 110.600586 -367.871674
v -106.369995 153.548767 -400.150177
v -228.067566 569.708374 271.807190
v -320.205383 374.661743 126.398438
v -409.954010 496.890350 456.002136
v -482.789795 299.012512 309.865479
v -39.945435 300.240692 -77.564995
v -122.341736 385.101532 -141.343506
v -71.465393 162.296326 -257.870819
v -132.045044 224.688019 -304.762115
v -92.521423 77.317871 -371.757843
v -136.792175 122.912842 -406.025421
v -171.006287 62.207764 -438.179901
v -129.305359 19.259460 -405.901337
v -100.155701 10.427734 -450.896027
v -144.426453 56.022644 -485.163727
v -114.561951 87.273499 -477.749786
v -72.860901 44.325256 -445.471222
v -178.051331 17.567139 -488.475250
v -136.350281 -25.381165 -456.196747
v -107.200623 -34.213135 -501.191498
v -151.471497 11.381897 -535.459045
v -121.606873 42.632996 -528.045166
v -79.905884 -0.315430 -495.766571
v -194.140656 -27.610107 -502.268463
v -167.299683 -55.254211 -481.492218
v -148.537415 -60.938843 -510.453278
v -177.032471 -31.591431 -532.509827
v -126.643188 -0.868469 -583.834656
v -96.778625 30.382568 -576.420715
v -55.077515 -12.565857 -544.142334
v -82.372375 -46.463379 -549.567200
v -206.454041 -57.811829 -511.519379
v -188.358521 -76.448608 -497.512604
v -175.709656 -80.281067 -517.037598
v -194.920135 -60.495789 -531.907349
v -211.442596 -85.936707 -530.850647
v -200.130951 -97.586670 -522.094727
v -192.223755 -99.982239 -534.299988
v -204.232544 -87.614441 -543.595154
v -101.060608 -9.650330 -603.081726
v -81.203186 11.128967 -598.152222
v -53.475586 -17.427856 -576.689758
v -71.624329 -39.966858 -580.296692
vn 0.3624 -0.7697 0.5256
vn -0.2413 0.8100 -0.5345
vn -0.3627 0.7689 -0.5266
vn -0.3720 0.1087 0.9218
vn 0.5234 0.8517 -0.0277
vn -0.7732 -0.5913 -0.2290
vn -0.1955 0.9116 -0.3615
vn 0.9183 0.3716 0.1364
vn -0.8577 -0.1617 -0.4881
vn 0.3923 -0.8716 0.2939
vn -0.9054 -0.2058 -0.3714
vn 0.9587 0.2044 0.1979
vn -0.9073 -0.2385 -0.3463
vn 0.2451 -0.9446 0.2182
vn 0.9057 0.3538 0.2333
vn 0.2496 -0.9466 0.2040
vn -0.1904 0.9073 -0.3749
vn 0.9675 0.1645 0.1919
vn 0.9161 0.3813 0.1242
vn 0.2088 -0.9223 0.3252
vn -0.8723 -0.3858 -0.3003
vn 0.9237 0.3517 0.1519
vn -0.8539 -0.4226 -0.3037
vn -0.7641 -0.5400 -0.3530
vn 0.6866 0.7270 0.0089
vn -0.8692 -0.1160 -0.4807
vn 0.8164 0.5002 0.2884
vn -0.6057 0.7253 0.3272
vn -0.2152 0.9270 -0.3071
vn -0.9090 -0.3446 -0.2345
vn -0.2251 0.9336 -0.2787
vn 0.9323 0.2441 0.2670
vn -0.9076 -0.3489 -0.2336
vn -0.9336 -0.2390 -0.2671
vn 0.9024 0.3369 0.2688
vn 0.0220 -0.6839 0.7292
vn 0.9313 0.2486 0.2663
vn 0.9057 0.3558 0.2305
vn -0.9333 -0.2369 -0.2699
vn 0.2152 -0.9270 0.3071
vn 0.1212 0.3934 -0.9114
vn -0.7946 -0.5080 -0.3326
vn 0.9862 0.0660 0.1520
vn 0.1317 0.3684 -0.9203
vn 0.8758 0.4771 -0.0729
vn -0.9383 -0.2564 -0.2320
vn -0.3763 0.8429 0.3846
vn 0.3763 -0.8429 -0.3846
vn -0.0587 0.7440 -0.6656
vn 0.9806 0.0960 0.1711
vn -0.8159 -0.4830 -0.3177
vn 0.0110 -0.6646 0.7471
vn 0.3846 -0.7896 -0.4781
vn 0.9786 0.1049 0.1768
vn -0.8223 -0.4753 -0.3130
vn 0.1522 -0.8693 0.4703
vn 0.0971 0.4487 -0.8884
vn -0.8386 -0.0755 -0.5394
vn 0.3886 -0.7123 -0.5845
vn -0.3425 0.9253 0.1626
vn 0.7098 -0.5752 0.4066
vn 0.1445 0.9427 -0.3008
vn -0.6945 0.5922 -0.4087
vn -0.4201 -0.4340 0.7970
vn -0.0757 0.9476 0.3102
vn -0.2391 -0.8045 -0.5436
vn 0.7720 0.3678 -0.5184
vn 0.9164 0.3981 0.0424
vn -0.7186 -0.2439 -0.6512
vn 0.2622 -0.9164 0.3024
vn -0.5235 0.6095 -0.5954
vn 0.5234 -0.7176 0.4595
vn -0.5544 0.6081 -0.5682
vn -0.7787 -0.4730 0.4121
vn 0.6603 -0.6039 0.4464
vn -0.7898 -0.4770 0.3857
vn 0.7731 0.3561 -0.5249
vn 0.5059 -0.7363 0.4493
vn 0.6887 -0.6389 0.3428
vn -0.7809 -0.3935 0.4852
vn -0.6786 0.5419 -0.4958
vn 0.6902 -0.6255 0.3638
vn -0.7062 0.5121 -0.4890
vn -0.6064 -0.7149 -0.3481
vn 0.5576 0.8157 -0.1536
vn -0.5951 -0.4048 -0.6943
vn 0.3343 0.7220 0.6057
vn -0.9403 0.1075 0.3231
vn 0.7831 0.4066 -0.4706
vn -0.6529 0.6096 -0.4496
vn 0.7859 0.4268 -0.4475
vn 0.5680 -0.6538 0.4999
vn -0.6564 0.6071 -0.4478
vn -0.5637 0.6567 -0.5010
vn 0.6436 -0.5952 0.4811
vn -0.6229 -0.0170 0.7821
vn 0.5718 -0.6517 0.4983
vn 0.6621 -0.6041 0.4435
vn -0.5617 0.6563 -0.5038
vn -0.7831 -0.4066 0.4706
vn 0.4024 -0.2673 -0.8756
vn -0.7645 0.4212 -0.4880
vn 0.4206 -0.7993 0.4293
vn 0.3829 -0.2880 -0.8778
vn 0.7616 -0.6344 0.1323
vn -0.5813 0.6663 -0.4671
vn 0.6524 0.7436 0.1465
vn -0.6524 -0.7436 -0.1465
vn 0.6661 0.0903 -0.7404
vn 0.4466 -0.7779 0.4420
vn -0.7489 0.4534 -0.4833
vn -0.6087 0.0052 0.7933
vn -0.6005 -0.7630 -0.2393
vn 0.4543 -0.7713 0.4457
vn -0.7439 0.4631 -0.4818
vn -0.7507 -0.2786 0.5991
vn 0.4454 -0.2198 -0.8679
vn -0.3793 0.5406 -0.7509
vn -0.5280 -0.7745 -0.3484
vn 0.7395 0.6701 -0.0637
usemtl Matériau.012
s off
f 131//26 132//26 134//26 133//26
f 138//27 137//27 141//27 142//27
f 137//28 138//28 136//28 135//28
f 153//29 154//29 132//29 131//29
f 151//30 137//30 135//30 153//30
f 152//31 134//31 132//31 154//31
f 142//32 141//32 145//32 146//32
f 151//33 133//33 140//33 155//33
f 152//34 138//34 142//34 156//34
f 133//35 134//35 139//35 140//35
f 158//36 146//36 150//36 160//36
f 155//37 140//37 144//37 157//37
f 156//38 142//38 146//38 158//38
f 140//39 139//39 143//39 144//39
f 149//40 159//40 163//40 166//40
f 144//41 143//41 147//41 148//41
f 146//42 145//42 149//42 150//42
f 157//43 144//43 148//43 159//43
f 145//44 157//44 159//44 149//44
f 148//45 147//45 161//45 162//45
f 139//46 156//46 158//46 143//46
f 141//47 155//47 157//47 145//47
f 143//48 158//48 160//48 147//48
f 134//49 152//49 156//49 139//49
f 137//50 151//50 155//50 141//50
f 138//51 152//51 154//51 136//51
f 133//52 151//52 153//52 131//52
f 135//53 136//53 154//53 153//53
f 165//54 166//54 172//54 171//54
f 161//55 164//55 170//55 167//55
f 150//56 149//56 166//56 165//56
f 159//57 148//57 162//57 163//57
f 147//58 160//58 164//58 161//58
f 160//59 150//59 165//59 164//59
f 172//60 169//60 180//60 179//60
f 168//61 167//61 173//61 174//61
f 163//62 162//62 168//62 169//62
f 166//63 163//63 169//63 172//63
f 164//64 165//64 171//64 170//64
f 162//65 161//65 167//65 168//65
f 176//66 175//66 183//66 184//66
f 167//67 170//67 176//67 173//67
f 169//68 168//68 174//68 175//68
f 170//69 169//69 175//69 176//69
f 179//70 180//70 192//70 191//70
f 170//71 171//71 178//71 177//71
f 171//72 172//72 179//72 178//72
f 169//73 170//73 177//73 180//73
f 184//74 183//74 187//74 188//74
f 175//75 174//75 182//75 183//75
f 173//76 176//76 184//76 181//76
f 174//77 173//77 181//77 182//77
f 186//78 185//78 188//78 187//78
f 183//79 182//79 186//79 187//79
f 181//80 184//80 188//80 185//80
f 182//81 181//81 185//81 186//81
f 192//82 189//82 190//82 191//82
f 177//83 178//83 190//83 189//83
f 180//84 177//84 189//84 192//84
f 178//85 179//85 191//85 190//85
f 193//86 194//86 196//86 195//86
f 200//87 199//87 203//87 204//87
f 199//88 200//88 198//88 197//88
f 215//89 216//89 194//89 193//89
f 213//90 199//90 197//90 215//90
f 214//91 196//91 194//91 216//91
f 204//92 203//92 207//92 208//92
f 213//93 195//93 202//93 217//93
f 214//94 200//94 204//94 218//94
f 195//95 196//95 201//95 202//95
f 220//96 208//96 212//96 222//96
f 217//97 202//97 206//97 219//97
f 218//98 204//98 208//98 220//98
f 202//99 201//99 205//99 206//99
f 211//100 221//100 225//100 228//100
f 206//101 205//101 209//101 210//101
f 208//102 207//102 211//102 212//102
f 219//103 206//103 210//103 221//103
f 207//104 219//104 221//104 211//104
f 210//105 209//105 223//105 224//105
f 201//106 218//106 220//106 205//106
f 203//107 217//107 219//107 207//107
f 205//108 220//108 222//108 209//108
f 196//109 214//109 218//109 201//109
f 199//110 213//110 217//110 203//110
f 200//111 214//111 216//111 198//111
f 195//112 213//112 215//112 193//112
f 197//113 198//113 216//113 215//113
f 227//114 228//114 234//114 233//114
f 223//115 226//115 232//115 229//115
f 212//116 211//116 228//116 227//116
f 221//117 210//117 224//117 225//117
f 209//118 222//118 226//118 223//118
f 222//119 212//119 227//119 226//119
f 234//120 231//120 242//120 241//120
f 230//121 229//121 235//121 236//121
f 225//122 224//122 230//122 231//122
f 228//123 225//123 231//123 234//123
f 226//124 227//124 233//124 232//124
f 224//125 223//125 229//125 230//125
f 238//126 237//126 245//126 246//126
f 229//127 232//127 238//127 235//127
f 231//128 230//128 236//128 237//128
f 232//129 231//129 237//129 238//129
f 241//130 242//130 254//130 253//130
f 232//131 233//131 240//131 239//131
f 233//132 234//132 241//132 240//132
f 231//133 232//133 239//133 242//133
f 246//134 245//134 249//134 250//134
f 237//135 236//135 244//135 245//135
f 235//136 238//136 246//136 243//136
f 236//137 235//137 243//137 244//137
f 248//138 247//138 250//138 249//138
f 245//139 244//139 248//139 249//139
f 243//140 246//140 250//140 247//140
f 244//141 243//141 247//141 248//141
f 254//142 251//142 252//142 253//142
f 239//143 240//143 252//143 251//143
f 242//144 239//144 251//144 254//144
f 240//145 241//145 253//145 252//145
