# Blender v2.91.2 OBJ File: 'camionnete02.blend'
# www.blender.org
mtllib arme_000230.mtl
o Cube.046_Cube.010
v 467.028137 522.693481 -820.243042
v 423.311768 326.955566 -911.646851
v 629.835449 554.137756 -965.446777
v 586.119080 358.399841 -1056.850830
v 325.036072 619.010864 -958.591553
v 281.319641 423.272949 -1049.995361
v 487.843323 650.455078 -1103.795166
v 444.127014 454.717163 -1195.199219
v 242.874756 479.400940 -620.326294
v 199.158356 283.663086 -711.730103
v 57.166229 379.980469 -850.078430
v 100.882660 575.718384 -758.674683
v 141.430603 459.808228 -529.850647
v 97.714203 264.070374 -621.254517
v -44.277954 360.387695 -759.602966
v -0.561523 556.125671 -668.199219
v 81.501953 448.233765 -476.401855
v 59.824219 307.711975 -551.714966
v -82.167908 404.029419 -690.063416
v -60.490219 544.551147 -614.750244
v 277.846802 486.155396 -651.516907
v 234.130432 290.417480 -742.920776
v 135.854675 582.472778 -789.865479
v 92.138275 386.734863 -881.269226
v 572.359436 543.036987 -914.185425
v 528.643127 347.299072 -1005.589294
v 430.367371 639.354309 -1052.533813
v 386.650940 443.616333 -1143.937622
v 558.839417 602.296448 -1034.621094
v 515.123047 406.558472 -1126.025024
v 396.032104 570.852234 -889.417358
v 352.315674 375.114258 -980.821167
v 171.878693 527.559631 -689.500427
v 128.162262 331.821777 -780.904175
v 70.434540 507.966980 -599.024902
v 26.328613 315.414734 -673.471924
v 10.505890 496.392456 -545.576050
v 0.779327 344.842468 -626.581238
v 163.134338 338.576172 -812.094971
v 206.850769 534.314087 -720.691162
v 457.647034 395.457764 -1074.763428
v 501.363342 591.195679 -983.359558
v 594.337463 578.217102 -1000.033813
v 387.813721 351.034912 -946.234070
v 163.660309 307.742432 -746.317200
v 50.265015 299.177979 -650.149780
v 24.715729 328.605652 -603.258972
v 242.348755 510.234680 -686.104004
v 536.861450 567.116333 -948.772583
v 550.621094 382.479187 -1091.437866
v 431.530151 546.772949 -854.830261
v 207.376740 503.480347 -654.913330
v 105.932556 483.887634 -564.437744
v 46.003906 472.313110 -510.988922
v 198.632385 314.496826 -777.507874
v 493.145081 371.378418 -1040.176514
v 190.447113 277.847534 -794.622009
v 154.949036 301.926880 -829.209106
v 484.959717 334.729126 -1057.290649
v 449.461792 358.808472 -1091.877686
v 344.130432 338.465027 -997.935242
v 379.628479 314.385620 -963.348145
v 590.646606 442.167786 -855.156067
v 544.070129 433.172119 -813.615723
v 524.739258 346.618713 -854.033569
v 571.315674 355.614502 -895.574036
v 621.330383 421.354187 -825.259888
v 574.753906 412.358521 -783.719421
v 555.423035 325.805176 -824.137207
v 601.999451 334.800842 -865.677673
v 668.286377 389.502686 -779.508911
v 621.709961 380.506958 -737.968506
v 602.379028 293.953674 -778.386353
v 648.955444 302.949402 -819.926819
v 698.501953 369.006592 -750.068787
v 651.925415 360.010925 -708.528442
v 632.594604 273.457642 -748.946167
v 679.171021 282.453369 -790.486572
v 1085.474243 485.779663 -1568.459473
v 1049.976318 509.858948 -1603.046509
v 1093.692627 705.596985 -1511.642822
v 1129.190674 681.517578 -1477.055664
vn 0.6442 -0.4370 0.6277
vn 0.7387 0.1427 -0.6588
vn -0.6442 0.4370 -0.6277
vn 0.1983 0.8881 0.4147
vn -0.1983 -0.8881 -0.4147
vn -0.6390 -0.7585 0.1278
vn -0.2718 -0.8549 -0.4419
vn -0.8067 -0.2049 0.5543
vn -0.6453 0.4364 -0.6270
vn 0.6453 -0.4364 0.6270
vn 0.9326 -0.0408 -0.3586
vn -0.7281 -0.2609 0.6338
vn -0.1960 -0.9095 -0.3667
vn -0.7594 -0.2681 0.5928
vn -0.2465 -0.8955 -0.3704
vn -0.7387 -0.1427 0.6588
vn -0.4256 -0.3031 0.8527
vn 0.1901 -0.9818 0.0005
vn 0.5209 0.4995 0.6922
usemtl Matériau.011
s off
f 25//1 26//1 4//1 3//1
f 29//2 30//2 8//2 7//2
f 27//3 28//3 6//3 5//3
f 22//1 21//1 9//1 10//1
f 42//4 27//4 5//4 31//4
f 56//5 26//5 2//5 44//5
f 10//1 9//1 13//1 14//1
f 55//5 22//5 10//5 45//5
f 23//3 24//3 11//3 12//3
f 46//6 14//6 18//6 47//6
f 45//7 10//7 14//7 46//7
f 12//3 11//3 15//3 16//3
f 33//4 12//4 16//4 35//4
f 54//8 47//8 18//8 17//8
f 16//9 15//9 19//9 20//9
f 14//10 13//10 17//10 18//10
f 5//3 6//3 24//3 23//3
f 44//5 2//5 22//5 55//5
f 31//4 5//4 23//4 40//4
f 2//1 1//1 21//1 22//1
f 50//5 4//5 26//5 56//5
f 29//4 7//4 27//4 42//4
f 7//3 8//3 28//3 27//3
f 26//11 25//11 63//11 66//11
f 43//4 29//4 42//4 49//4
f 8//5 30//5 41//5 28//5
f 51//4 31//4 40//4 48//4
f 6//5 32//5 39//5 24//5
f 20//12 19//12 38//12 37//12
f 52//4 33//4 35//4 53//4
f 11//13 34//13 36//13 15//13
f 15//6 36//6 38//6 19//6
f 24//5 39//5 34//5 11//5
f 28//5 41//5 32//5 6//5
f 49//4 42//4 31//4 51//4
f 30//3 29//3 81//3 80//3
f 3//2 4//2 50//2 43//2
f 25//4 49//4 51//4 1//4
f 9//4 52//4 53//4 13//4
f 1//4 51//4 48//4 21//4
f 3//4 43//4 49//4 25//4
f 30//5 50//5 56//5 41//5
f 32//3 41//3 60//3 61//3
f 37//14 38//14 47//14 54//14
f 34//15 45//15 46//15 36//15
f 36//6 46//6 47//6 38//6
f 39//5 55//5 45//5 34//5
f 55//16 39//16 58//16 57//16
f 61//5 62//5 57//5 58//5
f 60//5 59//5 62//5 61//5
f 39//3 32//3 61//3 58//3
f 44//1 55//1 57//1 62//1
f 41//2 56//2 59//2 60//2
f 56//1 44//1 62//1 59//1
f 66//2 63//2 67//2 70//2
f 1//17 2//17 65//17 64//17
f 2//18 26//18 66//18 65//18
f 25//19 1//19 64//19 63//19
f 69//5 70//5 74//5 73//5
f 64//16 65//16 69//16 68//16
f 65//5 66//5 70//5 69//5
f 63//4 64//4 68//4 67//4
f 73//5 74//5 78//5 77//5
f 67//4 68//4 72//4 71//4
f 70//2 67//2 71//2 74//2
f 68//16 69//16 73//16 72//16
f 76//1 77//1 78//1 75//1
f 71//4 72//4 76//4 75//4
f 74//2 71//2 75//2 78//2
f 82//2 79//2 80//2 81//2
f 50//5 30//5 80//5 79//5
f 43//1 50//1 79//1 82//1
f 29//4 43//4 82//4 81//4
o Cube.048_Cube.024
v -470.356110 585.335205 120.374550
v -606.759277 386.418793 135.339966
v -405.783539 524.151489 -104.313011
v -550.192200 323.373138 -99.580833
v -676.594727 644.792053 -18.408852
v -746.532471 542.802002 -10.735695
v -643.486572 613.421448 -133.612457
v -714.148193 511.426361 -127.042458
v -411.048126 405.290131 -525.489624
v -336.004700 414.081909 -423.932709
v -358.373718 538.537292 -418.177643
v -433.417145 529.745483 -519.734680
v -234.961273 459.250000 -639.389771
v -179.787659 465.713898 -564.722839
v -196.233826 557.216309 -560.491638
v -251.407410 550.752441 -635.158569
v -123.893677 495.170654 -708.956787
v -83.573486 499.894440 -654.391235
v -95.592224 566.763184 -651.299011
v -135.912231 562.039429 -705.864807
v -501.062378 596.047180 -131.534729
v -651.275635 385.548218 -124.659828
v -569.408752 661.297485 106.990829
v -714.217529 450.123199 122.878418
v -340.479614 477.524841 -421.257111
v -420.147522 468.191284 -529.072327
v -171.492004 514.846802 -571.532166
v -230.065735 507.984528 -650.800232
v -66.998840 538.057739 -667.330688
v -109.803528 533.042969 -725.258911
v -49.364014 507.563171 -765.101807
v -9.043823 512.286865 -710.536255
v 14.225342 557.760010 -729.055176
v -28.579407 552.745239 -786.983521
v -55.717224 580.618042 -766.731506
v -15.397156 585.341797 -712.165894
v 3.966125 517.784546 -805.393860
v 44.286438 522.508301 -750.828186
v 67.555481 567.981445 -769.347351
v 24.750671 562.966614 -827.275513
v -2.387024 590.839478 -807.023682
v 37.933167 595.563232 -752.458130
v 48.070496 500.801819 -821.410217
v 74.022766 503.842224 -786.288879
v 89.000061 533.111267 -798.208740
v 61.448547 529.883423 -835.494507
v 51.413879 605.945068 -850.698364
v 24.276184 633.817993 -830.446594
v 64.596313 638.541748 -775.880981
v 94.218750 610.959961 -792.770325
v 77.321838 488.220642 -833.046936
v 94.818176 490.270386 -809.369141
v 104.915405 510.002808 -817.405090
v 86.341003 507.826691 -842.542175
v 108.010254 487.505066 -848.772583
v 118.947388 488.786499 -833.971252
v 125.259277 501.121399 -838.994629
v 113.648254 499.761047 -854.708069
v 68.196411 634.586914 -850.501465
v 50.152100 653.119873 -837.035706
v 76.961426 656.260803 -800.754272
v 96.657837 637.921326 -811.984253
v -296.007263 470.937256 449.153473
v -412.023132 277.420074 362.614502
v -117.090332 416.834991 302.475098
v -224.952332 230.361725 217.055023
v -378.407257 549.197144 220.208191
v -437.891846 449.975494 175.837250
v -276.081177 523.023682 150.230896
v -341.975403 425.847321 101.204803
v -43.893494 159.673889 -71.196114
v -54.085754 80.891235 23.575745
v 63.835754 101.586426 55.207260
v 76.559326 179.224670 -37.558334
v 32.596008 -8.344055 -184.381073
v 22.946228 -69.076172 -114.527321
v 111.505798 -54.702026 -89.796013
v 121.155762 6.030151 -159.649902
v 82.201660 -114.528015 -253.157013
v 75.149536 -158.910217 -202.108734
v 139.867859 -148.405762 -184.035431
v 146.919922 -104.023560 -235.083649
v -166.144470 491.225311 238.282227
v -292.599182 296.411713 139.251495
v -368.032776 551.812317 385.652649
v -491.197937 346.369934 293.780884
v 4.422852 80.148621 40.174721
v 18.356750 167.842712 -60.690521
v 72.386047 -77.751526 -111.419731
v 82.630615 -13.276855 -185.578033
v 115.151062 -175.175598 -207.932159
v 122.637634 -128.058228 -262.126221
v 106.051270 -184.852234 -311.003326
v 98.999146 -229.234375 -259.955017
v 147.312500 -251.891602 -270.187592
v 154.799011 -204.774292 -324.381531
v 177.803589 -179.757141 -296.661407
v 170.751587 -224.139526 -245.613190
v 124.464844 -235.189636 -352.223663
v 117.412842 -279.571777 -301.175507
v 165.726074 -302.229248 -311.408112
v 173.212585 -255.111816 -365.602020
v 196.217285 -230.094543 -337.881927
v 189.165161 -274.476746 -286.833588
v 111.165039 -277.643372 -374.827179
v 106.625977 -306.210388 -341.969635
v 137.722961 -320.793701 -348.555939
v 142.541748 -290.466431 -383.438171
v 220.120422 -280.738525 -381.402222
v 243.124878 -255.721252 -353.681885
v 236.072937 -300.103516 -302.633850
v 212.633850 -327.855835 -327.208221
v 101.271667 -305.699463 -391.084808
v 98.211487 -324.958374 -368.933380
v 119.176331 -334.790405 -373.373810
v 122.425049 -314.344360 -396.890320
v 103.837891 -335.102661 -408.930267
v 101.924988 -347.141602 -395.083099
v 115.030334 -353.287598 -397.858643
v 117.061035 -340.506714 -412.559082
v 248.029907 -298.019348 -376.454559
v 263.325928 -281.385010 -358.022949
v 258.636902 -310.895386 -324.080353
v 243.051880 -329.348145 -340.420135
vn 0.7754 -0.5276 0.3470
vn -0.3828 0.8376 -0.3898
vn -0.7799 0.5124 -0.3595
vn -0.0504 0.1092 0.9927
vn 0.1205 0.9659 -0.2293
vn -0.5268 -0.8449 0.0930
vn -0.1152 0.9933 -0.0009
vn 0.7961 0.6005 0.0757
vn -0.7853 -0.2989 -0.5422
vn 0.6275 -0.7514 0.2042
vn -0.5302 0.0622 -0.8456
vn 0.6662 0.0048 0.7458
vn -0.5399 0.0223 -0.8414
vn 0.2372 -0.9671 -0.0915
vn 0.5800 0.1296 0.8042
vn 0.2487 -0.9634 -0.1004
vn -0.1032 0.9946 -0.0098
vn 0.6829 -0.0294 0.7299
vn 0.6418 0.1995 0.7405
vn 0.1471 -0.9889 -0.0231
vn -0.5120 -0.1333 -0.8486
vn 0.6382 0.1604 0.7530
vn -0.4891 -0.1667 -0.8562
vn -0.6346 -0.6536 -0.4125
vn 0.4391 0.8976 0.0385
vn -0.8838 -0.4544 -0.1117
vn 0.6104 0.7910 -0.0408
vn -0.6861 0.5095 0.5193
vn -0.1627 0.9861 0.0348
vn -0.5836 -0.1204 -0.8030
vn -0.1869 0.9809 0.0532
vn 0.6016 0.0138 0.7987
vn -0.5822 -0.1249 -0.8034
vn -0.6034 -0.0091 -0.7974
vn 0.5612 0.0996 0.8216
vn -0.2585 -0.9271 0.2713
vn 0.6005 0.0183 0.7994
vn 0.5812 0.1326 0.8029
vn -0.6021 -0.0061 -0.7984
vn 0.1627 -0.9861 -0.0348
vn 0.5192 0.7286 -0.4467
vn -0.4110 -0.2372 -0.8802
vn 0.7348 -0.1030 0.6704
vn 0.5365 0.7089 -0.4578
vn 0.6968 0.3734 0.6124
vn -0.6231 -0.0391 -0.7811
vn -0.6478 0.6329 0.4239
vn 0.6478 -0.6329 -0.4239
vn 0.1851 0.9579 -0.2197
vn 0.7154 -0.0836 0.6937
vn -0.4405 -0.2190 -0.8706
vn -0.2802 -0.9162 0.2863
vn 0.6957 -0.5461 -0.4668
vn 0.7094 -0.0778 0.7005
vn -0.4495 -0.2133 -0.8674
vn 0.0152 -0.9971 0.0751
vn 0.4784 0.7711 -0.4202
vn -0.4063 0.2441 -0.8805
vn 0.7429 -0.4318 -0.5116
vn -0.5157 0.7979 0.3120
vn 0.4131 -0.5662 0.7133
vn 0.5696 0.7579 -0.3180
vn -0.3771 0.5830 -0.7197
vn -0.6369 0.0374 0.7701
vn 0.2646 0.9643 -0.0146
vn -0.4538 -0.8341 -0.3136
vn 0.9716 0.0969 0.2161
vn 0.9421 0.0881 0.3234
vn -0.4481 -0.0663 -0.8915
vn -0.1017 -0.8287 0.5504
vn 0.2414 0.5909 -0.7697
vn -0.1851 -0.7183 0.6707
vn 0.2016 0.6010 -0.7734
vn -0.9307 -0.2160 -0.2952
vn -0.0453 -0.6411 0.7661
vn -0.9207 -0.2225 -0.3206
vn 0.9743 0.0851 0.2086
vn -0.1852 -0.7351 0.6522
vn 0.0364 -0.6991 0.7141
vn -0.9618 -0.1265 -0.2428
vn 0.0510 0.5766 -0.8154
vn 0.0341 -0.6794 0.7330
vn 0.0198 0.5550 -0.8316
vn -0.7022 -0.5056 -0.5013
vn 0.8157 0.5562 -0.1589
vn -0.6194 -0.4295 -0.6572
vn 0.5335 0.7452 0.4002
vn -0.8658 0.4983 0.0464
vn 0.9566 0.1412 0.2549
vn 0.0540 0.6444 -0.7628
vn 0.9478 0.1641 0.2736
vn -0.1573 -0.6600 0.7346
vn 0.0497 0.6431 -0.7642
vn 0.1617 0.6616 -0.7322
vn -0.0782 -0.6231 0.7783
vn -0.9630 0.2546 0.0884
vn -0.1531 -0.6590 0.7364
vn -0.0421 -0.6422 0.7654
vn 0.1648 0.6603 -0.7327
vn -0.9566 -0.1412 -0.2549
vn 0.8056 -0.4977 -0.3214
vn -0.0441 0.4802 -0.8760
vn -0.2446 -0.7810 0.5747
vn 0.7886 -0.5138 -0.3377
vn 0.2334 -0.7476 0.6217
vn 0.1289 0.6806 -0.7212
vn 0.5301 0.6023 0.5969
vn -0.5301 -0.6023 -0.5969
vn 0.9822 -0.1859 -0.0259
vn -0.2305 -0.7638 0.6030
vn -0.0283 0.5086 -0.8605
vn -0.9555 0.2749 0.1070
vn -0.4362 -0.6484 -0.6240
vn -0.2262 -0.7584 0.6113
vn -0.0234 0.5172 -0.8555
vn -0.9903 -0.0022 -0.1387
vn 0.8416 -0.4598 -0.2835
vn 0.4263 0.4666 -0.7749
vn -0.3151 -0.6942 -0.6471
vn 0.7147 0.4759 0.5125
usemtl Matériau.012
s off
f 83//20 84//20 86//20 85//20
f 90//21 89//21 93//21 94//21
f 89//22 90//22 88//22 87//22
f 105//23 106//23 84//23 83//23
f 103//24 89//24 87//24 105//24
f 104//25 86//25 84//25 106//25
f 94//26 93//26 97//26 98//26
f 103//27 85//27 92//27 107//27
f 104//28 90//28 94//28 108//28
f 85//29 86//29 91//29 92//29
f 110//30 98//30 102//30 112//30
f 107//31 92//31 96//31 109//31
f 108//32 94//32 98//32 110//32
f 92//33 91//33 95//33 96//33
f 101//34 111//34 115//34 118//34
f 96//35 95//35 99//35 100//35
f 98//36 97//36 101//36 102//36
f 109//37 96//37 100//37 111//37
f 97//38 109//38 111//38 101//38
f 100//39 99//39 113//39 114//39
f 91//40 108//40 110//40 95//40
f 93//41 107//41 109//41 97//41
f 95//42 110//42 112//42 99//42
f 86//43 104//43 108//43 91//43
f 89//44 103//44 107//44 93//44
f 90//45 104//45 106//45 88//45
f 85//46 103//46 105//46 83//46
f 87//47 88//47 106//47 105//47
f 117//48 118//48 124//48 123//48
f 113//49 116//49 122//49 119//49
f 102//50 101//50 118//50 117//50
f 111//51 100//51 114//51 115//51
f 99//52 112//52 116//52 113//52
f 112//53 102//53 117//53 116//53
f 124//54 121//54 132//54 131//54
f 120//55 119//55 125//55 126//55
f 115//56 114//56 120//56 121//56
f 118//57 115//57 121//57 124//57
f 116//58 117//58 123//58 122//58
f 114//59 113//59 119//59 120//59
f 128//60 127//60 135//60 136//60
f 119//61 122//61 128//61 125//61
f 121//62 120//62 126//62 127//62
f 122//63 121//63 127//63 128//63
f 131//64 132//64 144//64 143//64
f 122//65 123//65 130//65 129//65
f 123//66 124//66 131//66 130//66
f 121//67 122//67 129//67 132//67
f 136//68 135//68 139//68 140//68
f 127//69 126//69 134//69 135//69
f 125//70 128//70 136//70 133//70
f 126//71 125//71 133//71 134//71
f 138//72 137//72 140//72 139//72
f 135//73 134//73 138//73 139//73
f 133//74 136//74 140//74 137//74
f 134//75 133//75 137//75 138//75
f 144//76 141//76 142//76 143//76
f 129//77 130//77 142//77 141//77
f 132//78 129//78 141//78 144//78
f 130//79 131//79 143//79 142//79
f 145//80 146//80 148//80 147//80
f 152//81 151//81 155//81 156//81
f 151//82 152//82 150//82 149//82
f 167//83 168//83 146//83 145//83
f 165//84 151//84 149//84 167//84
f 166//85 148//85 146//85 168//85
f 156//86 155//86 159//86 160//86
f 165//87 147//87 154//87 169//87
f 166//88 152//88 156//88 170//88
f 147//89 148//89 153//89 154//89
f 172//90 160//90 164//90 174//90
f 169//91 154//91 158//91 171//91
f 170//92 156//92 160//92 172//92
f 154//93 153//93 157//93 158//93
f 163//94 173//94 177//94 180//94
f 158//95 157//95 161//95 162//95
f 160//96 159//96 163//96 164//96
f 171//97 158//97 162//97 173//97
f 159//98 171//98 173//98 163//98
f 162//99 161//99 175//99 176//99
f 153//100 170//100 172//100 157//100
f 155//101 169//101 171//101 159//101
f 157//102 172//102 174//102 161//102
f 148//103 166//103 170//103 153//103
f 151//104 165//104 169//104 155//104
f 152//105 166//105 168//105 150//105
f 147//106 165//106 167//106 145//106
f 149//107 150//107 168//107 167//107
f 179//108 180//108 186//108 185//108
f 175//109 178//109 184//109 181//109
f 164//110 163//110 180//110 179//110
f 173//111 162//111 176//111 177//111
f 161//112 174//112 178//112 175//112
f 174//113 164//113 179//113 178//113
f 186//114 183//114 194//114 193//114
f 182//115 181//115 187//115 188//115
f 177//116 176//116 182//116 183//116
f 180//117 177//117 183//117 186//117
f 178//118 179//118 185//118 184//118
f 176//119 175//119 181//119 182//119
f 190//120 189//120 197//120 198//120
f 181//121 184//121 190//121 187//121
f 183//122 182//122 188//122 189//122
f 184//123 183//123 189//123 190//123
f 193//124 194//124 206//124 205//124
f 184//125 185//125 192//125 191//125
f 185//126 186//126 193//126 192//126
f 183//127 184//127 191//127 194//127
f 198//128 197//128 201//128 202//128
f 189//129 188//129 196//129 197//129
f 187//130 190//130 198//130 195//130
f 188//131 187//131 195//131 196//131
f 200//132 199//132 202//132 201//132
f 197//133 196//133 200//133 201//133
f 195//134 198//134 202//134 199//134
f 196//135 195//135 199//135 200//135
f 206//136 203//136 204//136 205//136
f 191//137 192//137 204//137 203//137
f 194//138 191//138 203//138 206//138
f 192//139 193//139 205//139 204//139
