# Blender v2.91.2 OBJ File: 'camionnete02.blend'
# www.blender.org
mtllib arme_000122.mtl
o Cube.046_Cube.010
v 112.189392 365.328491 -1262.201782
v 141.421722 147.235428 -1249.553223
v 169.376480 360.651581 -1475.008911
v 198.608765 142.558487 -1462.360352
v -98.652283 333.822327 -1318.168457
v -69.419998 115.729233 -1305.519653
v -41.465210 329.145386 -1530.975342
v -12.232941 111.052284 -1518.326904
v 33.454132 371.767670 -969.208618
v 62.686424 153.674652 -956.559998
v -148.155228 122.168442 -1012.526428
v -177.387527 340.261505 -1025.175049
v -2.178680 374.681854 -836.609802
v 27.053566 156.588791 -823.961304
v -183.788132 125.082596 -879.927734
v -213.020432 343.175690 -892.576355
v -23.229019 376.403412 -758.276550
v 1.713516 217.496399 -762.121704
v -209.128220 185.990234 -818.088135
v -234.070755 344.897247 -814.242920
v -31.320633 592.100708 -849.219360
v -242.162338 560.594482 -905.185913
v -52.370926 593.822266 -770.886047
v -263.212646 562.316162 -826.852478
v 45.738312 370.763031 -1014.920898
v 74.970596 152.670013 -1002.272339
v -165.103378 339.256866 -1070.887451
v -135.871109 121.163811 -1058.238770
v 23.804337 443.761841 -973.384033
v -187.037338 412.255676 -1029.350586
v 36.088524 442.757233 -1019.096252
v -174.753159 411.251038 -1075.062744
v 9.804077 548.213623 -979.441833
v -201.037582 516.707397 -1035.408203
v 22.088203 547.208923 -1025.154175
v -188.753433 515.702759 -1081.120605
v -11.023140 446.610138 -843.782227
v -221.864853 415.103943 -899.748657
v -25.023422 551.061890 -849.840027
v -235.865128 519.555786 -905.806458
v -36.171692 726.363770 -906.526978
v -247.013412 694.857544 -962.493469
v -57.222031 728.085327 -828.193665
v -268.063660 696.579102 -884.160095
v 149.187653 362.302643 -1399.881470
v 178.419937 144.209595 -1387.232788
v -61.654007 330.796509 -1455.847900
v -32.421677 112.703407 -1443.199219
v 63.955631 344.898499 -1502.992188
v 93.187927 126.805389 -1490.343628
v 6.768578 349.575409 -1290.185059
v 36.000870 131.482330 -1277.536377
v -71.966675 356.014587 -997.191772
v -42.734406 137.921539 -984.543091
v -107.599564 358.928802 -864.593079
v -73.910065 152.037109 -839.595581
v -128.649872 360.650330 -786.259766
v -90.996948 193.107269 -797.896912
v -136.741501 576.347656 -877.202576
v -157.791794 578.069214 -798.869263
v -30.450241 136.916901 -1030.255493
v -59.682541 355.009949 -1042.904175
v -81.616501 428.008789 -1001.367249
v -69.332321 427.004089 -1047.079468
v -95.616745 532.460571 -1007.425049
v -83.332626 531.455811 -1053.137329
v -116.444016 430.857056 -871.765503
v -130.444290 535.308838 -877.823242
v -141.592575 710.610718 -934.510254
v -162.642868 712.332153 -856.176880
v 72.999100 128.456482 -1415.216064
v 43.766830 346.549591 -1427.864624
v 116.666084 352.775055 -1489.000366
v 88.711296 139.358887 -1263.544800
v 9.976006 145.798096 -970.551636
v -38.367294 157.348267 -830.160950
v -55.454147 198.418442 -788.462341
v -6.972092 362.886475 -1028.912476
v -16.621902 434.880615 -1033.087891
v -30.622208 539.332397 -1039.145752
v 96.477257 354.426117 -1413.873169
v 145.898376 134.681946 -1476.352051
v 59.478970 357.451935 -1276.193604
v -19.256287 363.891113 -983.200256
v -54.889145 366.805328 -850.601501
v -75.939438 368.526855 -772.268127
v -84.031052 584.224121 -863.210999
v -105.081345 585.945679 -784.877625
v 22.260178 144.793457 -1016.263977
v -28.906067 435.885315 -987.375610
v -42.906326 540.337036 -993.433411
v -63.733582 438.733612 -857.773865
v -77.733841 543.185425 -863.831543
v -88.882095 718.487183 -920.518555
v -109.932419 720.208740 -842.185242
v 125.709488 136.333023 -1401.224487
v 27.733521 103.958504 -1013.895630
v -24.976898 96.081940 -1027.887207
v 131.182816 95.498085 -1398.856323
v 78.472427 87.621536 -1412.847778
v 41.474205 90.647369 -1275.168213
v 94.184654 98.523926 -1261.176636
v 235.902817 315.600861 -1334.361328
v 219.542557 316.938812 -1273.480713
v 232.468887 220.500336 -1267.887695
v 248.829025 219.162308 -1328.768311
v 281.464600 322.409180 -1322.267334
v 265.104370 323.747162 -1261.386719
v 278.030609 227.308655 -1255.793701
v 294.390808 225.970657 -1316.674316
v 351.188599 332.828094 -1303.759644
v 334.828369 334.166077 -1242.879028
v 347.754639 237.727585 -1237.286011
v 364.114807 236.389557 -1298.166748
v 396.055176 339.532532 -1291.850342
v 379.694946 340.870514 -1230.969727
v 392.621216 244.432007 -1225.376587
v 408.981384 243.093994 -1286.257080
v 333.769104 119.317711 -2175.463623
v 281.058594 111.441162 -2189.455078
v 251.826218 329.534271 -2202.103760
v 304.536743 337.410797 -2188.112061
v -128.218002 777.464722 -958.492188
v -225.357620 762.948975 -984.277222
v -147.614700 779.051025 -886.312073
v -244.754288 764.535400 -912.097168
v -50.475113 793.566528 -860.527222
v -31.078339 791.980469 -932.706970
v -79.648148 784.722656 -945.599548
v -99.044907 786.308716 -873.419617
vn 0.9566 0.1429 0.2539
vn 0.2595 -0.0212 -0.9655
vn -0.9566 -0.1429 -0.2539
vn -0.1326 0.9895 -0.0574
vn 0.1326 -0.9895 0.0574
vn -0.2595 0.0212 0.9655
vn -0.0733 -0.7254 0.6844
vn 0.0485 -0.9965 0.0677
vn -0.3207 -0.1016 0.9417
vn -0.9569 -0.1434 -0.2526
vn 0.9569 0.1434 0.2526
vn 0.2895 -0.3669 -0.8841
vn 0.2897 -0.3740 -0.8810
vn -0.2895 0.3669 0.8841
vn 0.6150 0.0367 -0.7877
vn -0.9415 0.2170 -0.2578
vn -0.2016 -0.0849 0.9758
vn 0.1631 -0.9816 0.0995
vn -0.2913 0.4475 0.8455
vn -0.2378 -0.1204 0.9638
vn 0.1153 -0.9860 0.1208
vn 0.1379 0.0758 0.9875
vn 0.6384 -0.7464 0.1880
vn 0.4172 0.9041 0.0922
vn 0.9655 0.0283 0.2588
usemtl Matériau.011
s off
f 45//1 46//1 4//1 3//1
f 49//2 50//2 8//2 7//2
f 47//3 48//3 6//3 5//3
f 26//1 25//1 9//1 10//1
f 72//4 47//4 5//4 51//4
f 96//5 46//5 2//5 74//5
f 10//1 9//1 13//1 14//1
f 84//6 9//6 29//6 90//6
f 89//5 26//5 10//5 75//5
f 27//3 28//3 11//3 12//3
f 76//7 14//7 18//7 77//7
f 75//8 10//8 14//8 76//8
f 12//3 11//3 15//3 16//3
f 53//4 12//4 16//4 55//4
f 86//9 77//9 18//9 17//9
f 16//10 15//10 19//10 20//10
f 16//3 20//3 24//3 22//3
f 14//11 13//11 17//11 18//11
f 59//12 22//12 42//12 69//12
f 86//6 17//6 23//6 88//6
f 17//1 13//1 21//1 23//1
f 55//2 16//2 22//2 59//2
f 5//3 6//3 28//3 27//3
f 74//5 2//5 26//5 89//5
f 51//4 5//4 27//4 62//4
f 2//1 1//1 25//1 26//1
f 32//3 30//3 34//3 36//3
f 62//2 27//2 32//2 64//2
f 27//3 12//3 30//3 32//3
f 9//1 25//1 31//1 29//1
f 66//4 36//4 34//4 65//4
f 90//5 29//5 37//5 92//5
f 64//2 32//2 36//2 66//2
f 29//1 31//1 35//1 33//1
f 92//6 37//6 39//6 93//6
f 29//1 33//1 39//1 37//1
f 34//3 30//3 38//3 40//3
f 65//4 34//4 40//4 68//4
f 69//13 42//13 124//13 123//13
f 23//1 21//1 41//1 43//1
f 88//14 23//14 43//14 95//14
f 22//3 24//3 44//3 42//3
f 82//5 4//5 46//5 96//5
f 49//4 7//4 47//4 72//4
f 7//3 8//3 48//3 47//3
f 46//15 45//15 103//15 106//15
f 73//4 49//4 72//4 81//4
f 8//5 50//5 71//5 48//5
f 24//14 60//14 70//14 44//14
f 42//16 44//16 126//16 124//16
f 91//4 65//4 68//4 93//4
f 38//6 67//6 68//6 40//6
f 79//2 64//2 66//2 80//2
f 30//5 63//5 67//5 38//5
f 80//4 66//4 65//4 91//4
f 78//2 62//2 64//2 79//2
f 83//4 51//4 62//4 78//4
f 6//5 52//5 61//5 28//5
f 85//2 55//2 59//2 87//2
f 20//6 57//6 60//6 24//6
f 87//12 59//12 69//12 94//12
f 20//17 19//17 58//17 57//17
f 84//4 53//4 55//4 85//4
f 11//18 54//18 56//18 15//18
f 15//7 56//7 58//7 19//7
f 28//5 61//5 54//5 11//5
f 12//6 53//6 63//6 30//6
f 48//5 71//5 52//5 6//5
f 81//4 72//4 51//4 83//4
f 50//3 49//3 121//3 120//3
f 3//2 4//2 82//2 73//2
f 45//4 81//4 83//4 1//4
f 9//4 84//4 85//4 13//4
f 21//12 87//12 94//12 41//12
f 13//2 85//2 87//2 21//2
f 1//4 83//4 78//4 25//4
f 25//2 78//2 79//2 31//2
f 35//4 80//4 91//4 33//4
f 31//2 79//2 80//2 35//2
f 33//4 91//4 93//4 39//4
f 70//19 95//19 130//19 125//19
f 3//4 73//4 81//4 45//4
f 50//5 82//5 96//5 71//5
f 60//14 88//14 95//14 70//14
f 67//6 92//6 93//6 68//6
f 63//5 90//5 92//5 67//5
f 52//3 71//3 100//3 101//3
f 57//6 86//6 88//6 60//6
f 57//20 58//20 77//20 86//20
f 54//21 75//21 76//21 56//21
f 56//7 76//7 77//7 58//7
f 61//5 89//5 75//5 54//5
f 53//6 84//6 90//6 63//6
f 89//6 61//6 98//6 97//6
f 101//5 102//5 97//5 98//5
f 100//5 99//5 102//5 101//5
f 61//3 52//3 101//3 98//3
f 74//1 89//1 97//1 102//1
f 71//2 96//2 99//2 100//2
f 96//1 74//1 102//1 99//1
f 106//2 103//2 107//2 110//2
f 1//22 2//22 105//22 104//22
f 2//23 46//23 106//23 105//23
f 45//24 1//24 104//24 103//24
f 109//5 110//5 114//5 113//5
f 104//6 105//6 109//6 108//6
f 105//5 106//5 110//5 109//5
f 103//4 104//4 108//4 107//4
f 113//5 114//5 118//5 117//5
f 107//4 108//4 112//4 111//4
f 110//2 107//2 111//2 114//2
f 108//6 109//6 113//6 112//6
f 116//1 117//1 118//1 115//1
f 111//4 112//4 116//4 115//4
f 114//2 111//2 115//2 118//2
f 122//2 119//2 120//2 121//2
f 82//5 50//5 120//5 119//5
f 73//1 82//1 119//1 122//1
f 49//4 73//4 122//4 121//4
f 123//4 124//4 126//4 125//4
f 129//4 123//4 125//4 130//4
f 128//4 129//4 130//4 127//4
f 95//19 43//19 127//19 130//19
f 94//13 69//13 123//13 129//13
f 43//25 41//25 128//25 127//25
f 44//19 70//19 125//19 126//19
f 41//13 94//13 129//13 128//13
o Cube.048_Cube.024
v -534.765381 496.457153 149.318146
v -669.107605 316.834778 59.398674
v -410.529144 507.162964 -57.680168
v -544.111389 327.680603 -147.015350
v -695.072632 616.606201 -9.414658
v -763.953674 524.508911 -55.518890
v -631.373230 622.095459 -115.548470
v -699.796692 530.200439 -161.105133
v -399.884583 429.565979 -496.700287
v -307.579254 509.384827 -463.065277
v -384.986603 607.458252 -483.371490
v -477.291870 527.639404 -517.006470
v -331.824768 462.913025 -699.548401
v -263.959900 521.597656 -674.819214
v -320.871582 593.703491 -689.748718
v -388.736481 535.018799 -714.477966
v -288.983856 486.650024 -826.304443
v -239.388977 529.535950 -808.232666
v -280.979248 582.229858 -819.142944
v -330.574188 539.343994 -837.214539
v -494.639893 592.516663 -82.353508
v -636.278809 402.560852 -176.140442
v -626.645813 581.169922 137.378998
v -769.266602 390.478668 41.918434
v -341.720428 561.135620 -477.502411
v -439.713837 476.398102 -513.209961
v -284.533813 560.317078 -699.451416
v -356.580688 498.016113 -725.704407
v -250.316101 558.440552 -838.952698
v -302.967041 512.911865 -858.138000
v -257.938904 488.189117 -915.154480
v -208.343994 531.075073 -897.082703
v -219.774292 564.881714 -938.054443
v -272.425354 519.352905 -957.239807
v -299.955109 545.031555 -934.740662
v -250.360291 587.917542 -916.669006
v -236.443542 490.331177 -979.227966
v -186.848816 533.217102 -961.156189
v -198.279114 567.023682 -1002.127747
v -250.930115 521.494934 -1021.313171
v -278.459839 547.173584 -998.814148
v -228.864990 590.059448 -980.742371
v -199.498230 480.312744 -1011.240417
v -167.576294 507.916443 -999.608337
v -174.933472 529.676270 -1025.979858
v -208.822571 500.371460 -1038.328735
v -260.299774 551.677368 -1067.225586
v -287.829529 577.356018 -1044.726196
v -238.234711 620.241882 -1026.654663
v -207.648682 597.206055 -1048.040161
v -174.717468 472.075287 -1032.859619
v -153.196655 490.684906 -1025.017578
v -158.156616 505.354736 -1042.796631
v -181.003723 485.598267 -1051.121948
v -156.263550 471.777466 -1061.996216
v -142.810608 483.410583 -1057.094116
v -145.911072 492.580872 -1068.208130
v -160.192993 480.230896 -1073.412354
v -261.395081 579.648071 -1085.071655
v -279.699890 596.722107 -1070.111572
v -246.723755 625.237488 -1058.095337
v -226.386780 609.920654 -1072.315063
v -233.417297 576.157288 363.370819
v -327.846558 353.877869 371.888092
v -107.119385 512.580627 169.618729
v -199.268433 291.784485 176.927444
v -406.614197 578.524658 175.414474
v -455.030701 464.555786 179.781525
v -333.714111 548.981506 73.742867
v -389.105133 432.718750 79.819778
v -88.616089 152.460449 -79.329811
v -1.789307 164.909241 10.034676
v 76.307861 218.846924 -71.162575
v -7.744507 206.401855 -160.402344
v 10.367615 -33.262573 -130.326385
v 73.782471 -26.472107 -62.550926
v 133.241089 13.186646 -122.157173
v 69.826233 6.396240 -189.932800
v 75.015808 -148.496948 -162.068298
v 121.358521 -143.534546 -112.538811
v 164.809998 -114.552185 -156.098267
v 118.467346 -119.514832 -205.627686
v -192.921143 561.397461 112.190681
v -302.707642 325.479919 120.739922
v -338.960938 627.376648 318.672516
v -439.209198 391.399658 327.714691
v 42.728271 183.905029 -26.206291
v -48.839355 174.099976 -124.070702
v 112.200500 -23.440552 -94.863304
v 44.877747 -30.649414 -166.815338
v 154.211487 -153.383850 -139.413666
v 105.013000 -158.651978 -191.995300
v 106.342773 -234.823120 -182.730469
v 152.685364 -229.860535 -133.200958
v 192.716614 -246.108826 -166.151184
v 143.518188 -251.377014 -218.732880
v 155.869141 -211.256226 -231.431427
v 202.211853 -206.293823 -181.901947
v 129.712402 -296.298279 -198.437347
v 176.054993 -291.335876 -148.907867
v 216.086365 -307.584167 -181.858002
v 166.887756 -312.852295 -234.439575
v 179.238708 -272.731140 -247.138275
v 225.581482 -267.768921 -197.608765
v 136.610535 -343.418945 -183.531647
v 166.439270 -340.224731 -151.651642
v 192.205505 -350.682983 -172.860321
v 160.538635 -354.073853 -206.704620
v 205.242554 -335.305908 -268.076935
v 217.593445 -295.184998 -280.775421
v 263.936218 -290.222717 -231.245911
v 254.441040 -330.037842 -215.495178
v 139.847778 -375.652222 -173.538422
v 159.957520 -373.498901 -152.045868
v 177.328552 -380.549927 -166.344116
v 155.979553 -382.835693 -189.161194
v 151.151489 -408.236572 -173.260620
v 163.722229 -406.890381 -159.825378
v 174.580994 -411.297974 -168.763367
v 161.235535 -412.726807 -183.026550
v 235.980286 -339.824341 -279.773590
v 244.192627 -313.147644 -288.216980
v 275.006409 -309.847900 -255.284180
v 268.692871 -336.321411 -244.811340
vn 0.6532 -0.6666 0.3591
vn -0.5756 0.7187 -0.3900
vn -0.6532 0.6665 -0.3593
vn -0.3223 -0.2198 0.9207
vn 0.1730 0.9728 0.1542
vn -0.5158 -0.7795 -0.3556
vn -0.5858 0.7760 -0.2337
vn 0.7121 0.6721 0.2031
vn -0.7651 -0.4008 -0.5039
vn 0.7132 -0.6871 0.1387
vn -0.7622 -0.5287 -0.3737
vn 0.7976 0.5689 0.2003
vn -0.7483 -0.5616 -0.3531
vn 0.6335 -0.7689 0.0862
vn 0.6899 0.6769 0.2564
vn 0.6373 -0.7672 0.0717
vn -0.5805 0.7757 -0.2477
vn 0.8218 0.5375 0.1890
vn 0.6794 0.7179 0.1516
vn 0.5996 -0.7760 0.1960
vn -0.6515 -0.6842 -0.3277
vn 0.7009 0.6915 0.1750
vn -0.6198 -0.7091 -0.3363
vn -0.5193 -0.7299 -0.4445
vn 0.3605 0.9233 0.1330
vn -0.7962 -0.3356 -0.5034
vn 0.5952 0.7006 0.3936
vn -0.8049 0.3695 0.4644
vn -0.6059 0.7755 -0.1774
vn -0.6969 -0.6699 -0.2562
vn -0.6155 0.7741 -0.1481
vn 0.7624 0.5859 0.2747
vn -0.6937 -0.6733 -0.2559
vn -0.7657 -0.5818 -0.2741
vn 0.6967 0.6564 0.2893
vn 0.3620 -0.6850 0.6322
vn 0.7596 0.5896 0.2745
vn 0.6889 0.6790 0.2538
vn -0.7666 -0.5795 -0.2765
vn 0.6060 -0.7755 0.1774
vn -0.1250 0.5045 -0.8543
vn -0.5326 -0.7575 -0.3776
vn 0.8768 0.4612 0.1360
vn -0.1057 0.4875 -0.8667
vn 0.5878 0.8085 -0.0302
vn -0.7601 -0.6033 -0.2415
vn -0.6633 0.5560 0.5009
vn 0.6633 -0.5560 -0.5009
vn -0.4154 0.7165 -0.5604
vn 0.8607 0.4837 0.1590
vn -0.5612 -0.7458 -0.3591
vn 0.3453 -0.6743 0.6527
vn 0.6413 -0.4944 -0.5868
vn 0.8556 0.4903 0.1659
vn -0.5698 -0.7420 -0.3533
vn 0.5373 -0.7681 0.3482
vn -0.1681 0.5415 -0.8237
vn -0.7691 -0.3649 -0.5247
vn 0.6044 -0.4115 -0.6821
vn -0.6843 0.6687 0.2910
vn 0.7522 -0.2957 0.5888
vn -0.0153 0.5543 -0.8322
vn -0.7383 0.3056 -0.6013
vn -0.3137 0.1691 0.9344
vn -0.0139 0.9522 -0.3051
vn -0.3438 -0.9363 0.0715
vn 0.6608 0.3508 -0.6636
vn 0.8916 0.4476 -0.0689
vn -0.6928 -0.5082 -0.5116
vn 0.3257 -0.5263 0.7855
vn -0.5644 -0.1101 -0.8181
vn 0.6425 -0.0374 0.7653
vn -0.5978 -0.1112 -0.7939
vn -0.6011 -0.4861 0.6343
vn 0.7190 0.1000 0.6878
vn -0.6031 -0.5078 0.6152
vn 0.6692 0.3408 -0.6603
vn 0.6338 -0.0651 0.7707
vn 0.7826 0.0341 0.6216
vn -0.6519 -0.3919 0.6492
vn -0.6989 -0.1787 -0.6925
vn 0.7711 0.0522 0.6346
vn -0.7132 -0.2093 -0.6690
vn -0.6389 -0.7690 -0.0186
vn 0.5317 0.6847 -0.4985
vn -0.7040 -0.6637 -0.2529
vn 0.4544 0.8905 0.0209
vn -0.8786 0.3841 0.2839
vn 0.6452 0.4100 -0.6447
vn -0.7139 -0.0941 -0.6939
vn 0.6342 0.4378 -0.6373
vn 0.6442 0.0492 0.7633
vn -0.7165 -0.0965 -0.6909
vn -0.6412 -0.0457 -0.7660
vn 0.6925 0.1165 0.7119
vn -0.7314 0.1060 0.6737
vn 0.6471 0.0516 0.7607
vn 0.7214 0.0991 0.6854
vn -0.6386 -0.0465 -0.7681
vn -0.6452 -0.4100 0.6447
vn 0.6706 -0.4609 -0.5813
vn -0.7292 -0.3011 -0.6145
vn 0.5878 -0.1601 0.7930
vn 0.6620 -0.4859 -0.5707
vn 0.8955 -0.0381 0.4435
vn -0.6687 -0.0293 -0.7429
vn 0.2493 0.9124 -0.3247
vn -0.2493 -0.9124 0.3247
vn 0.7307 -0.0116 -0.6826
vn 0.5994 -0.1261 0.7904
vn -0.7292 -0.2684 -0.6295
vn -0.7303 0.1343 0.6698
vn -0.1737 -0.9505 0.2577
vn 0.6027 -0.1160 0.7895
vn -0.7290 -0.2583 -0.6340
vn -0.6976 -0.2362 0.6764
vn 0.6881 -0.4028 -0.6035
vn -0.3725 -0.1739 -0.9116
vn -0.0788 -0.9819 0.1721
vn 0.4056 0.7906 -0.4587
usemtl Matériau.012
s off
f 131//26 132//26 134//26 133//26
f 138//27 137//27 141//27 142//27
f 137//28 138//28 136//28 135//28
f 153//29 154//29 132//29 131//29
f 151//30 137//30 135//30 153//30
f 152//31 134//31 132//31 154//31
f 142//32 141//32 145//32 146//32
f 151//33 133//33 140//33 155//33
f 152//34 138//34 142//34 156//34
f 133//35 134//35 139//35 140//35
f 158//36 146//36 150//36 160//36
f 155//37 140//37 144//37 157//37
f 156//38 142//38 146//38 158//38
f 140//39 139//39 143//39 144//39
f 149//40 159//40 163//40 166//40
f 144//41 143//41 147//41 148//41
f 146//42 145//42 149//42 150//42
f 157//43 144//43 148//43 159//43
f 145//44 157//44 159//44 149//44
f 148//45 147//45 161//45 162//45
f 139//46 156//46 158//46 143//46
f 141//47 155//47 157//47 145//47
f 143//48 158//48 160//48 147//48
f 134//49 152//49 156//49 139//49
f 137//50 151//50 155//50 141//50
f 138//51 152//51 154//51 136//51
f 133//52 151//52 153//52 131//52
f 135//53 136//53 154//53 153//53
f 165//54 166//54 172//54 171//54
f 161//55 164//55 170//55 167//55
f 150//56 149//56 166//56 165//56
f 159//57 148//57 162//57 163//57
f 147//58 160//58 164//58 161//58
f 160//59 150//59 165//59 164//59
f 172//60 169//60 180//60 179//60
f 168//61 167//61 173//61 174//61
f 163//62 162//62 168//62 169//62
f 166//63 163//63 169//63 172//63
f 164//64 165//64 171//64 170//64
f 162//65 161//65 167//65 168//65
f 176//66 175//66 183//66 184//66
f 167//67 170//67 176//67 173//67
f 169//68 168//68 174//68 175//68
f 170//69 169//69 175//69 176//69
f 179//70 180//70 192//70 191//70
f 170//71 171//71 178//71 177//71
f 171//72 172//72 179//72 178//72
f 169//73 170//73 177//73 180//73
f 184//74 183//74 187//74 188//74
f 175//75 174//75 182//75 183//75
f 173//76 176//76 184//76 181//76
f 174//77 173//77 181//77 182//77
f 186//78 185//78 188//78 187//78
f 183//79 182//79 186//79 187//79
f 181//80 184//80 188//80 185//80
f 182//81 181//81 185//81 186//81
f 192//82 189//82 190//82 191//82
f 177//83 178//83 190//83 189//83
f 180//84 177//84 189//84 192//84
f 178//85 179//85 191//85 190//85
f 193//86 194//86 196//86 195//86
f 200//87 199//87 203//87 204//87
f 199//88 200//88 198//88 197//88
f 215//89 216//89 194//89 193//89
f 213//90 199//90 197//90 215//90
f 214//91 196//91 194//91 216//91
f 204//92 203//92 207//92 208//92
f 213//93 195//93 202//93 217//93
f 214//94 200//94 204//94 218//94
f 195//95 196//95 201//95 202//95
f 220//96 208//96 212//96 222//96
f 217//97 202//97 206//97 219//97
f 218//98 204//98 208//98 220//98
f 202//99 201//99 205//99 206//99
f 211//100 221//100 225//100 228//100
f 206//101 205//101 209//101 210//101
f 208//102 207//102 211//102 212//102
f 219//103 206//103 210//103 221//103
f 207//104 219//104 221//104 211//104
f 210//105 209//105 223//105 224//105
f 201//106 218//106 220//106 205//106
f 203//107 217//107 219//107 207//107
f 205//108 220//108 222//108 209//108
f 196//109 214//109 218//109 201//109
f 199//110 213//110 217//110 203//110
f 200//111 214//111 216//111 198//111
f 195//112 213//112 215//112 193//112
f 197//113 198//113 216//113 215//113
f 227//114 228//114 234//114 233//114
f 223//115 226//115 232//115 229//115
f 212//116 211//116 228//116 227//116
f 221//117 210//117 224//117 225//117
f 209//118 222//118 226//118 223//118
f 222//119 212//119 227//119 226//119
f 234//120 231//120 242//120 241//120
f 230//121 229//121 235//121 236//121
f 225//122 224//122 230//122 231//122
f 228//123 225//123 231//123 234//123
f 226//124 227//124 233//124 232//124
f 224//125 223//125 229//125 230//125
f 238//126 237//126 245//126 246//126
f 229//127 232//127 238//127 235//127
f 231//128 230//128 236//128 237//128
f 232//129 231//129 237//129 238//129
f 241//130 242//130 254//130 253//130
f 232//131 233//131 240//131 239//131
f 233//132 234//132 241//132 240//132
f 231//133 232//133 239//133 242//133
f 246//134 245//134 249//134 250//134
f 237//135 236//135 244//135 245//135
f 235//136 238//136 246//136 243//136
f 236//137 235//137 243//137 244//137
f 248//138 247//138 250//138 249//138
f 245//139 244//139 248//139 249//139
f 243//140 246//140 250//140 247//140
f 244//141 243//141 247//141 248//141
f 254//142 251//142 252//142 253//142
f 239//143 240//143 252//143 251//143
f 242//144 239//144 251//144 254//144
f 240//145 241//145 253//145 252//145
