# Blender v2.91.2 OBJ File: 'camionnete02.blend'
# www.blender.org
mtllib arme_000021.mtl
o Cube.046_Cube.010
v 295.490784 376.538971 -1074.218018
v 255.104752 161.549530 -1047.243408
v 387.132263 334.726715 -1270.260498
v 346.746155 119.737297 -1243.285889
v 99.149490 401.245087 -1171.268311
v 58.763397 186.255707 -1144.293945
v 190.790878 359.432861 -1367.310791
v 150.404831 144.443451 -1340.336426
v 169.318710 434.106110 -804.306274
v 128.932663 219.116760 -777.331665
v -67.408646 243.822906 -874.382080
v -27.022598 458.812286 -901.356628
v 112.217606 460.159088 -682.153320
v 71.831497 245.169678 -655.178894
v -124.509834 269.875824 -752.229248
v -84.123779 484.865265 -779.203796
v 78.484787 475.549957 -609.990967
v 54.894119 316.573578 -602.352722
v -141.447250 341.279785 -699.403137
v -117.856583 500.256195 -707.041443
v 189.003922 425.124603 -846.417419
v 148.617828 210.135223 -819.442810
v -7.337448 449.830780 -943.467834
v -47.723534 234.841339 -916.493286
v 354.779968 349.487762 -1201.051514
v 314.393921 134.498291 -1174.076904
v 158.438629 374.193909 -1298.101807
v 118.052597 159.204468 -1271.127197
v 288.961548 347.079803 -1318.785645
v 248.575485 132.090332 -1291.811279
v 197.320145 388.892059 -1122.743164
v 156.934097 173.902588 -1095.768555
v 71.148056 446.459198 -852.831421
v 30.761986 231.469818 -825.856750
v 14.046921 472.512177 -730.678589
v -21.103920 268.144928 -691.150269
v -19.685883 487.903107 -658.516174
v -32.524845 316.292816 -655.529541
v 50.447144 222.488251 -867.968079
v 90.833221 437.477692 -894.942627
v 216.223221 146.851379 -1222.602051
v 256.609314 361.840881 -1249.576660
v 338.046875 340.903290 -1294.522949
v 206.019424 167.726105 -1071.506104
v 79.847321 225.293274 -801.594299
v 11.994438 263.980072 -674.789978
v 0.573517 312.127960 -639.169189
v 139.918564 431.301147 -870.679932
v 305.694580 355.664307 -1225.313965
v 297.660828 125.913826 -1267.548584
v 246.405472 382.715515 -1098.480713
v 120.233383 440.282654 -828.568848
v 63.132248 466.335663 -706.415955
v 29.399437 481.726532 -634.253540
v 99.532486 216.311737 -843.705505
v 265.308533 140.674866 -1198.339600
v 91.970764 176.057892 -838.654846
v 42.885406 182.234467 -862.917419
v 257.746765 100.420998 -1193.289062
v 208.661484 106.597557 -1217.551514
v 149.372345 133.648773 -1090.718018
v 198.457657 127.472221 -1066.455566
v 409.748474 286.655853 -1117.241699
v 383.531372 298.617584 -1061.157227
v 365.673157 203.551483 -1049.229248
v 391.890137 191.589691 -1105.313965
v 452.176758 281.316956 -1096.269775
v 425.959717 293.278778 -1040.185059
v 408.101440 198.212616 -1028.257324
v 434.318481 186.250885 -1084.341797
v 517.105652 273.146820 -1064.175781
v 490.888611 285.108612 -1008.091248
v 473.030334 190.042480 -996.163391
v 499.247253 178.080688 -1052.248047
v 558.886597 267.889374 -1043.523926
v 532.669434 279.851166 -987.439270
v 514.811340 184.785065 -975.511353
v 541.028259 172.823303 -1031.595947
v 598.720581 -11.447121 -1911.585449
v 549.635254 -5.270576 -1935.848145
v 590.021240 209.718903 -1962.822510
v 639.106628 203.542328 -1938.560059
vn 0.8908 -0.1121 0.4403
vn 0.4158 -0.1897 -0.8895
vn -0.8908 0.1121 -0.4403
vn 0.1832 0.9754 -0.1224
vn -0.1832 -0.9754 0.1224
vn -0.4132 -0.6029 0.6825
vn -0.2660 -0.9570 0.1154
vn -0.5055 0.0878 0.8583
vn -0.8915 0.1119 -0.4391
vn 0.8915 -0.1119 0.4391
vn 0.7328 -0.2185 -0.6444
vn -0.3954 0.0730 0.9156
vn -0.1601 -0.9724 0.1695
vn -0.4377 0.0484 0.8978
vn -0.2102 -0.9608 0.1807
vn -0.4158 0.1897 0.8895
vn -0.0317 0.1303 0.9910
vn 0.3387 -0.8753 0.3450
vn 0.6443 0.7516 0.1409
usemtl Matériau.011
s off
f 25//1 26//1 4//1 3//1
f 29//2 30//2 8//2 7//2
f 27//3 28//3 6//3 5//3
f 22//1 21//1 9//1 10//1
f 42//4 27//4 5//4 31//4
f 56//5 26//5 2//5 44//5
f 10//1 9//1 13//1 14//1
f 55//5 22//5 10//5 45//5
f 23//3 24//3 11//3 12//3
f 46//6 14//6 18//6 47//6
f 45//7 10//7 14//7 46//7
f 12//3 11//3 15//3 16//3
f 33//4 12//4 16//4 35//4
f 54//8 47//8 18//8 17//8
f 16//9 15//9 19//9 20//9
f 14//10 13//10 17//10 18//10
f 5//3 6//3 24//3 23//3
f 44//5 2//5 22//5 55//5
f 31//4 5//4 23//4 40//4
f 2//1 1//1 21//1 22//1
f 50//5 4//5 26//5 56//5
f 29//4 7//4 27//4 42//4
f 7//3 8//3 28//3 27//3
f 26//11 25//11 63//11 66//11
f 43//4 29//4 42//4 49//4
f 8//5 30//5 41//5 28//5
f 51//4 31//4 40//4 48//4
f 6//5 32//5 39//5 24//5
f 20//12 19//12 38//12 37//12
f 52//4 33//4 35//4 53//4
f 11//13 34//13 36//13 15//13
f 15//6 36//6 38//6 19//6
f 24//5 39//5 34//5 11//5
f 28//5 41//5 32//5 6//5
f 49//4 42//4 31//4 51//4
f 30//3 29//3 81//3 80//3
f 3//2 4//2 50//2 43//2
f 25//4 49//4 51//4 1//4
f 9//4 52//4 53//4 13//4
f 1//4 51//4 48//4 21//4
f 3//4 43//4 49//4 25//4
f 30//5 50//5 56//5 41//5
f 32//3 41//3 60//3 61//3
f 37//14 38//14 47//14 54//14
f 34//15 45//15 46//15 36//15
f 36//6 46//6 47//6 38//6
f 39//5 55//5 45//5 34//5
f 55//16 39//16 58//16 57//16
f 61//5 62//5 57//5 58//5
f 60//5 59//5 62//5 61//5
f 39//3 32//3 61//3 58//3
f 44//1 55//1 57//1 62//1
f 41//2 56//2 59//2 60//2
f 56//1 44//1 62//1 59//1
f 66//2 63//2 67//2 70//2
f 1//17 2//17 65//17 64//17
f 2//18 26//18 66//18 65//18
f 25//19 1//19 64//19 63//19
f 69//5 70//5 74//5 73//5
f 64//16 65//16 69//16 68//16
f 65//5 66//5 70//5 69//5
f 63//4 64//4 68//4 67//4
f 73//5 74//5 78//5 77//5
f 67//4 68//4 72//4 71//4
f 70//2 67//2 71//2 74//2
f 68//16 69//16 73//16 72//16
f 76//1 77//1 78//1 75//1
f 71//4 72//4 76//4 75//4
f 74//2 71//2 75//2 78//2
f 82//2 79//2 80//2 81//2
f 50//5 30//5 80//5 79//5
f 43//1 50//1 79//1 82//1
f 29//4 43//4 82//4 81//4
o Cube.048_Cube.024
v -563.926514 470.867767 182.274704
v -727.696838 342.732758 59.155815
v -422.980804 479.166229 -13.845146
v -587.247559 353.095825 -135.567291
v -677.705322 646.390808 35.385830
v -761.674866 580.692444 -27.740631
v -605.438477 650.645752 -65.170311
v -689.089539 585.544312 -128.083252
v -383.909241 424.167297 -435.603821
v -279.852509 477.187408 -386.780640
v -319.107910 590.789246 -426.482819
v -423.164734 537.769165 -475.305939
v -272.543335 416.474518 -621.157043
v -196.038574 455.456085 -585.261169
v -224.899994 538.978760 -614.451111
v -301.404846 499.997162 -650.346985
v -201.792084 414.341705 -737.155029
v -145.883240 442.828857 -710.922974
v -166.974915 503.866119 -732.254456
v -222.883575 475.378967 -758.486694
v -482.687012 584.895874 -29.700615
v -656.400879 451.355896 -159.029022
v -632.386169 576.033569 178.502472
v -806.248413 440.002502 47.796677
v -293.601379 534.848389 -409.983582
v -404.070435 478.561035 -461.815338
v -199.105316 495.811462 -615.115051
v -280.324646 454.427765 -653.223022
v -141.735046 470.470642 -744.349182
v -201.089081 440.227997 -772.197815
v -155.775696 398.163879 -817.661438
v -99.866882 426.651001 -791.429138
v -92.815369 458.097076 -835.174438
v -152.169373 427.854401 -863.023071
v -174.410339 462.420624 -847.725647
v -118.501526 490.907776 -821.493591
v -123.117004 387.736206 -875.942810
v -67.208191 416.223450 -849.710754
v -60.156738 447.669403 -893.455872
v -119.510742 417.426819 -921.304749
v -141.751587 451.992950 -906.007141
v -85.842834 480.480133 -879.775085
v -85.603027 364.466736 -899.210083
v -49.617188 382.802673 -882.325378
v -45.078308 403.043060 -910.482239
v -83.281921 383.577209 -928.407227
v -110.699829 444.341553 -969.311707
v -132.940796 478.907776 -954.014221
v -77.031982 507.394928 -927.782166
v -51.345886 474.584198 -941.462830
v -60.868652 347.397797 -914.900574
v -36.607910 359.759308 -903.517517
v -33.547974 373.404846 -922.500061
v -59.303711 360.281555 -934.584534
v -38.277344 338.962952 -939.559753
v -23.111755 346.690338 -932.444031
v -21.198792 355.220276 -944.310242
v -37.299072 347.016663 -951.864563
v -100.023315 469.554016 -988.083557
v -114.811646 492.537506 -977.912048
v -77.637146 511.478943 -960.469910
v -60.558044 489.662720 -969.566589
v -299.553101 594.303223 363.320892
v -294.563782 353.723236 341.095001
v -154.312805 624.003479 154.716431
v -156.339661 374.798645 143.997345
v -462.819550 549.467529 171.842041
v -460.261383 426.115479 160.446213
v -389.872437 564.393799 67.469856
v -389.390015 436.921417 59.388710
v -8.446899 342.418488 -163.178162
v 37.109558 437.273132 -235.700531
v -68.234497 434.348145 -305.787506
v -113.788940 339.178284 -233.286560
v 73.981628 207.394043 -311.047852
v 107.719666 275.397644 -364.884125
v 30.269714 273.015381 -416.429382
v -3.468201 205.011719 -362.593170
v 124.619751 124.313904 -405.912750
v 149.275085 174.010071 -445.255524
v 92.675598 172.269104 -482.924042
v 68.020508 122.572998 -443.581329
v -263.638489 634.615417 100.681267
v -265.769501 370.106171 89.269096
v -417.808228 603.137268 322.108124
v -412.511414 347.731995 298.512604
v -11.468079 432.324005 -277.064392
v -60.183777 334.130310 -199.327728
v 77.946716 263.434784 -403.609894
v 42.129761 191.240723 -346.456055
v 133.130615 156.139771 -481.568085
v 106.956055 103.381287 -439.800873
v 167.026794 60.233521 -460.280670
v 191.682007 109.929871 -499.623444
v 174.869141 85.217285 -544.997864
v 148.694519 32.458740 -503.230621
v 109.861877 52.702087 -505.618195
v 134.517029 102.398132 -544.960938
v 196.393188 14.143250 -500.096832
v 221.048279 63.839417 -539.439514
v 204.235535 39.126831 -584.814087
v 178.060974 -13.631653 -543.046814
v 139.228088 6.611877 -545.434387
v 163.883362 56.307922 -584.777100
v 239.108459 -4.544617 -517.881104
v 254.977966 27.442627 -543.204285
v 244.156311 11.536194 -572.409790
v 227.308899 -22.421997 -545.526062
v 165.381165 -43.314819 -588.487488
v 126.548279 -23.071411 -590.874939
v 151.203491 26.624634 -630.217773
v 191.555664 9.443726 -630.254578
v 268.386841 -17.826172 -528.637756
v 279.085693 3.738647 -545.710022
v 271.790039 -6.985107 -565.399658
v 260.432007 -29.878784 -547.275391
v 290.075439 -36.363953 -548.016785
v 296.763428 -22.883606 -558.688782
v 292.202698 -29.586731 -570.996887
v 285.102661 -43.898010 -559.667236
v 156.301331 -47.332947 -620.164795
v 130.480774 -33.872925 -621.752258
v 146.874390 -0.829285 -647.911743
v 173.704956 -12.253052 -647.936279
vn 0.4475 -0.8488 0.2817
vn -0.3194 0.8678 -0.3808
vn -0.4477 0.8478 -0.2844
vn -0.4435 -0.2579 0.8584
vn 0.3783 0.8726 0.3090
vn -0.6466 -0.5773 -0.4987
vn -0.2721 0.8840 -0.3801
vn 0.8274 0.4517 0.3337
vn -0.7751 -0.1522 -0.6132
vn 0.4773 -0.8646 0.1570
vn -0.8023 -0.3230 -0.5021
vn 0.8797 0.3341 0.3384
vn -0.8030 -0.3563 -0.4778
vn 0.3463 -0.9055 0.2454
vn 0.8009 0.4734 0.3666
vn 0.3530 -0.9064 0.2320
vn -0.2646 0.8808 -0.3926
vn 0.8951 0.2961 0.3335
vn 0.8228 0.5051 0.2604
vn 0.2919 -0.8916 0.3460
vn -0.7539 -0.4983 -0.4281
vn 0.8306 0.4761 0.2887
vn -0.7300 -0.5319 -0.4290
vn -0.6228 -0.5465 -0.5599
vn 0.5628 0.7898 0.2438
vn -0.8069 -0.0604 -0.5875
vn 0.7040 0.4768 0.5263
vn -0.7353 0.4864 0.4719
vn -0.3016 0.8949 -0.3291
vn -0.8053 -0.4646 -0.3681
vn -0.3163 0.8992 -0.3024
vn 0.8381 0.3676 0.4031
vn -0.8034 -0.4688 -0.3671
vn -0.8401 -0.3628 -0.4033
vn 0.7950 0.4551 0.4011
vn 0.0159 -0.6940 0.7198
vn 0.8366 0.3720 0.4022
vn 0.8010 0.4754 0.3638
vn -0.8397 -0.3606 -0.4060
vn 0.3016 -0.8949 0.3291
vn 0.1930 0.4323 -0.8808
vn -0.6553 -0.6071 -0.4494
vn 0.9335 0.2025 0.2960
vn 0.2083 0.4093 -0.8883
vn 0.7980 0.5996 0.0601
vn -0.8473 -0.3816 -0.3695
vn -0.5470 0.7690 0.3307
vn 0.5470 -0.7690 -0.3307
vn -0.0698 0.7464 -0.6618
vn 0.9208 0.2308 0.3143
vn -0.6820 -0.5859 -0.4377
vn -0.0003 -0.6770 0.7360
vn 0.5609 -0.7124 -0.4217
vn 0.9168 0.2392 0.3197
vn -0.6900 -0.5793 -0.4340
vn 0.2078 -0.8514 0.4816
vn 0.1581 0.4829 -0.8613
vn -0.7316 -0.1798 -0.6576
vn 0.5689 -0.6324 -0.5258
vn -0.4938 0.8617 0.1168
vn 0.8212 -0.0333 0.5696
vn -0.7505 -0.0390 -0.6597
vn -0.8207 0.0343 -0.5703
vn -0.3339 -0.0936 0.9380
vn -0.4408 0.8789 -0.1821
vn 0.0710 -0.9959 -0.0567
vn -0.7969 -0.0766 -0.5992
vn 0.2319 0.9152 -0.3296
vn -0.3511 -0.9333 -0.0759
vn 0.8930 -0.0431 0.4479
vn -0.4145 -0.7915 0.4491
vn 0.4534 0.6720 -0.5855
vn -0.3923 -0.7829 0.4829
vn 0.8623 -0.0275 0.5057
vn 0.3103 0.7285 -0.6108
vn 0.8675 -0.0377 0.4960
vn -0.7898 -0.0886 -0.6069
vn 0.4960 0.6590 -0.5655
vn 0.3022 0.6530 -0.6945
vn 0.8159 0.0512 0.5760
vn -0.2607 -0.7788 0.5705
vn 0.3379 0.6683 -0.6627
vn -0.2207 -0.7856 0.5781
vn 0.0118 -0.9926 0.1209
vn -0.1516 0.8558 -0.4945
vn -0.3765 -0.8555 -0.3555
vn 0.0198 0.9878 0.1543
vn -0.9521 -0.0477 0.3022
vn -0.8246 -0.0378 -0.5645
vn -0.3193 -0.7278 0.6069
vn -0.8376 -0.0168 -0.5461
vn 0.4087 0.7313 -0.5461
vn -0.3152 -0.7278 0.6090
vn -0.4134 -0.7302 0.5440
vn 0.3189 0.7503 -0.5791
vn 0.4918 0.3773 0.7847
vn 0.4047 0.7317 -0.5485
vn 0.3089 0.7268 -0.6135
vn -0.4147 -0.7316 0.5411
vn 0.8246 0.0378 0.5645
vn -0.1687 -0.5590 -0.8118
vn -0.1158 -0.8108 0.5738
vn 0.5848 0.6015 -0.5443
vn -0.1425 -0.5700 -0.8092
vn 0.2143 0.5051 -0.8361
vn -0.4053 -0.7095 0.5765
vn -0.9038 0.4271 -0.0268
vn 0.9038 -0.4271 0.0268
vn -0.5646 -0.3217 -0.7601
vn 0.5574 0.6247 -0.5468
vn -0.1494 -0.8000 0.5811
vn 0.4690 0.3934 0.7908
vn 0.8740 -0.4821 -0.0613
vn 0.5491 0.6315 -0.5474
vn -0.1597 -0.7965 0.5832
vn 0.7309 0.1622 0.6629
vn -0.2275 -0.5325 -0.8153
vn -0.4603 -0.8546 0.2403
vn 0.8239 -0.5414 -0.1675
vn -0.9320 0.2885 -0.2196
usemtl Matériau.012
s off
f 83//20 84//20 86//20 85//20
f 90//21 89//21 93//21 94//21
f 89//22 90//22 88//22 87//22
f 105//23 106//23 84//23 83//23
f 103//24 89//24 87//24 105//24
f 104//25 86//25 84//25 106//25
f 94//26 93//26 97//26 98//26
f 103//27 85//27 92//27 107//27
f 104//28 90//28 94//28 108//28
f 85//29 86//29 91//29 92//29
f 110//30 98//30 102//30 112//30
f 107//31 92//31 96//31 109//31
f 108//32 94//32 98//32 110//32
f 92//33 91//33 95//33 96//33
f 101//34 111//34 115//34 118//34
f 96//35 95//35 99//35 100//35
f 98//36 97//36 101//36 102//36
f 109//37 96//37 100//37 111//37
f 97//38 109//38 111//38 101//38
f 100//39 99//39 113//39 114//39
f 91//40 108//40 110//40 95//40
f 93//41 107//41 109//41 97//41
f 95//42 110//42 112//42 99//42
f 86//43 104//43 108//43 91//43
f 89//44 103//44 107//44 93//44
f 90//45 104//45 106//45 88//45
f 85//46 103//46 105//46 83//46
f 87//47 88//47 106//47 105//47
f 117//48 118//48 124//48 123//48
f 113//49 116//49 122//49 119//49
f 102//50 101//50 118//50 117//50
f 111//51 100//51 114//51 115//51
f 99//52 112//52 116//52 113//52
f 112//53 102//53 117//53 116//53
f 124//54 121//54 132//54 131//54
f 120//55 119//55 125//55 126//55
f 115//56 114//56 120//56 121//56
f 118//57 115//57 121//57 124//57
f 116//58 117//58 123//58 122//58
f 114//59 113//59 119//59 120//59
f 128//60 127//60 135//60 136//60
f 119//61 122//61 128//61 125//61
f 121//62 120//62 126//62 127//62
f 122//63 121//63 127//63 128//63
f 131//64 132//64 144//64 143//64
f 122//65 123//65 130//65 129//65
f 123//66 124//66 131//66 130//66
f 121//67 122//67 129//67 132//67
f 136//68 135//68 139//68 140//68
f 127//69 126//69 134//69 135//69
f 125//70 128//70 136//70 133//70
f 126//71 125//71 133//71 134//71
f 138//72 137//72 140//72 139//72
f 135//73 134//73 138//73 139//73
f 133//74 136//74 140//74 137//74
f 134//75 133//75 137//75 138//75
f 144//76 141//76 142//76 143//76
f 129//77 130//77 142//77 141//77
f 132//78 129//78 141//78 144//78
f 130//79 131//79 143//79 142//79
f 145//80 146//80 148//80 147//80
f 152//81 151//81 155//81 156//81
f 151//82 152//82 150//82 149//82
f 167//83 168//83 146//83 145//83
f 165//84 151//84 149//84 167//84
f 166//85 148//85 146//85 168//85
f 156//86 155//86 159//86 160//86
f 165//87 147//87 154//87 169//87
f 166//88 152//88 156//88 170//88
f 147//89 148//89 153//89 154//89
f 172//90 160//90 164//90 174//90
f 169//91 154//91 158//91 171//91
f 170//92 156//92 160//92 172//92
f 154//93 153//93 157//93 158//93
f 163//94 173//94 177//94 180//94
f 158//95 157//95 161//95 162//95
f 160//96 159//96 163//96 164//96
f 171//97 158//97 162//97 173//97
f 159//98 171//98 173//98 163//98
f 162//99 161//99 175//99 176//99
f 153//100 170//100 172//100 157//100
f 155//101 169//101 171//101 159//101
f 157//102 172//102 174//102 161//102
f 148//103 166//103 170//103 153//103
f 151//104 165//104 169//104 155//104
f 152//105 166//105 168//105 150//105
f 147//106 165//106 167//106 145//106
f 149//107 150//107 168//107 167//107
f 179//108 180//108 186//108 185//108
f 175//109 178//109 184//109 181//109
f 164//110 163//110 180//110 179//110
f 173//111 162//111 176//111 177//111
f 161//112 174//112 178//112 175//112
f 174//113 164//113 179//113 178//113
f 186//114 183//114 194//114 193//114
f 182//115 181//115 187//115 188//115
f 177//116 176//116 182//116 183//116
f 180//117 177//117 183//117 186//117
f 178//118 179//118 185//118 184//118
f 176//119 175//119 181//119 182//119
f 190//120 189//120 197//120 198//120
f 181//121 184//121 190//121 187//121
f 183//122 182//122 188//122 189//122
f 184//123 183//123 189//123 190//123
f 193//124 194//124 206//124 205//124
f 184//125 185//125 192//125 191//125
f 185//126 186//126 193//126 192//126
f 183//127 184//127 191//127 194//127
f 198//128 197//128 201//128 202//128
f 189//129 188//129 196//129 197//129
f 187//130 190//130 198//130 195//130
f 188//131 187//131 195//131 196//131
f 200//132 199//132 202//132 201//132
f 197//133 196//133 200//133 201//133
f 195//134 198//134 202//134 199//134
f 196//135 195//135 199//135 200//135
f 206//136 203//136 204//136 205//136
f 191//137 192//137 204//137 203//137
f 194//138 191//138 203//138 206//138
f 192//139 193//139 205//139 204//139
