# Blender v2.91.2 OBJ File: 'camionnete02.blend'
# www.blender.org
mtllib arme_000003.mtl
o Cube.046_Cube.010
v 391.802734 610.953857 -990.209167
v 391.654877 390.550690 -988.966858
v 509.704651 609.825134 -1176.426758
v 509.556702 389.421997 -1175.184570
v 205.581818 610.414185 -1108.109985
v 205.433899 390.011078 -1106.867554
v 323.483673 609.285522 -1294.327393
v 323.335785 388.882324 -1293.085327
v 229.475159 612.507812 -733.824646
v 229.327271 392.104736 -732.582214
v 43.106365 391.565125 -850.482910
v 43.254253 611.968262 -851.725159
v 156.011322 613.211182 -617.793518
v 155.863403 392.808044 -616.551331
v -30.357544 392.268402 -734.452026
v -30.209654 612.671509 -735.694275
v 112.612122 613.626587 -549.247803
v 119.898598 453.233765 -559.707153
v -66.322388 452.694214 -677.607910
v -73.608841 613.087097 -667.148438
v 254.801270 612.265381 -773.825256
v 254.653381 391.862274 -772.582886
v 68.580322 611.725769 -891.725952
v 68.432404 391.322662 -890.483643
v 468.081573 610.223572 -1110.686279
v 467.933685 389.820435 -1109.444092
v 281.860657 609.683960 -1228.586914
v 281.712799 389.280823 -1227.344604
v 416.594147 609.555298 -1235.377197
v 416.446259 389.152130 -1234.134888
v 298.692261 610.684021 -1049.159546
v 298.544373 390.280884 -1047.917114
v 136.364685 612.238098 -792.774902
v 136.216797 391.834900 -791.532532
v 62.900826 612.941406 -676.743958
v 64.477562 402.400421 -661.444702
v 19.501663 613.356873 -608.198120
v 40.226402 443.145721 -623.114624
v 161.542877 391.592438 -831.533264
v 161.690796 611.995605 -832.775574
v 374.823212 389.550598 -1168.394287
v 374.971130 609.953796 -1169.636597
v 463.149414 609.690186 -1205.901733
v 345.099609 390.415802 -1018.442078
v 182.772034 391.969818 -762.057434
v 95.869865 402.491394 -641.569519
v 71.618713 443.236664 -603.239380
v 208.246002 612.130493 -803.300293
v 421.526398 610.088684 -1140.161377
v 463.001526 389.287048 -1204.659668
v 345.247498 610.818970 -1019.684448
v 182.919922 612.372925 -763.299744
v 109.456047 613.076294 -647.268738
v 66.056877 613.491699 -578.722900
v 208.098145 391.727356 -802.058105
v 421.378448 389.685516 -1138.919189
v 208.070435 350.459869 -801.825500
v 161.515198 350.324982 -831.300659
v 421.350739 348.418030 -1138.686646
v 374.795563 348.283142 -1168.161743
v 298.516693 349.013428 -1047.684570
v 345.071930 349.148285 -1018.209473
v 525.267883 549.183167 -1027.036621
v 491.538177 549.506042 -973.762878
v 491.472870 452.046021 -973.213379
v 525.202576 451.723114 -1026.487305
v 565.509277 549.299744 -1001.558960
v 531.779480 549.622681 -948.285156
v 531.714172 452.162659 -947.735840
v 565.443909 451.839783 -1001.009705
v 627.091431 549.478210 -962.570068
v 593.361694 549.801208 -909.296326
v 593.296265 452.341125 -908.746948
v 627.026001 452.018250 -962.020813
v 666.718689 549.593079 -937.481140
v 632.988953 549.915955 -884.207397
v 632.923706 452.455994 -883.658020
v 666.653320 452.133087 -936.931763
v 850.331848 385.579254 -1816.419312
v 803.776672 385.444366 -1845.894531
v 803.924438 605.847534 -1847.136963
v 850.479736 605.982422 -1817.661865
vn 0.8449 0.0024 0.5349
vn 0.5349 -0.0051 -0.8449
vn -0.8449 -0.0024 -0.5349
vn 0.0007 1.0000 -0.0056
vn -0.0007 -1.0000 0.0056
vn -0.3559 -0.7439 0.5656
vn -0.0843 -0.9964 -0.0098
vn -0.5993 -0.1072 0.7933
vn -0.8456 -0.0029 -0.5338
vn 0.8456 0.0029 0.5338
vn 0.8242 -0.0037 -0.5662
vn -0.4949 -0.1081 0.8622
vn 0.0164 -0.9983 0.0554
vn -0.5295 -0.1378 0.8370
vn -0.0359 -0.9975 0.0612
vn -0.5349 0.0051 0.8449
vn -0.1593 0.0057 0.9872
vn 0.4656 -0.8326 0.2999
vn 0.4668 0.8353 0.2905
usemtl Matériau.011
s off
f 25//1 26//1 4//1 3//1
f 29//2 30//2 8//2 7//2
f 27//3 28//3 6//3 5//3
f 22//1 21//1 9//1 10//1
f 42//4 27//4 5//4 31//4
f 56//5 26//5 2//5 44//5
f 10//1 9//1 13//1 14//1
f 55//5 22//5 10//5 45//5
f 23//3 24//3 11//3 12//3
f 46//6 14//6 18//6 47//6
f 45//7 10//7 14//7 46//7
f 12//3 11//3 15//3 16//3
f 33//4 12//4 16//4 35//4
f 54//8 47//8 18//8 17//8
f 16//9 15//9 19//9 20//9
f 14//10 13//10 17//10 18//10
f 5//3 6//3 24//3 23//3
f 44//5 2//5 22//5 55//5
f 31//4 5//4 23//4 40//4
f 2//1 1//1 21//1 22//1
f 50//5 4//5 26//5 56//5
f 29//4 7//4 27//4 42//4
f 7//3 8//3 28//3 27//3
f 26//11 25//11 63//11 66//11
f 43//4 29//4 42//4 49//4
f 8//5 30//5 41//5 28//5
f 51//4 31//4 40//4 48//4
f 6//5 32//5 39//5 24//5
f 20//12 19//12 38//12 37//12
f 52//4 33//4 35//4 53//4
f 11//13 34//13 36//13 15//13
f 15//6 36//6 38//6 19//6
f 24//5 39//5 34//5 11//5
f 28//5 41//5 32//5 6//5
f 49//4 42//4 31//4 51//4
f 30//3 29//3 81//3 80//3
f 3//2 4//2 50//2 43//2
f 25//4 49//4 51//4 1//4
f 9//4 52//4 53//4 13//4
f 1//4 51//4 48//4 21//4
f 3//4 43//4 49//4 25//4
f 30//5 50//5 56//5 41//5
f 32//3 41//3 60//3 61//3
f 37//14 38//14 47//14 54//14
f 34//15 45//15 46//15 36//15
f 36//6 46//6 47//6 38//6
f 39//5 55//5 45//5 34//5
f 55//16 39//16 58//16 57//16
f 61//5 62//5 57//5 58//5
f 60//5 59//5 62//5 61//5
f 39//3 32//3 61//3 58//3
f 44//1 55//1 57//1 62//1
f 41//2 56//2 59//2 60//2
f 56//1 44//1 62//1 59//1
f 66//2 63//2 67//2 70//2
f 1//17 2//17 65//17 64//17
f 2//18 26//18 66//18 65//18
f 25//19 1//19 64//19 63//19
f 69//5 70//5 74//5 73//5
f 64//16 65//16 69//16 68//16
f 65//5 66//5 70//5 69//5
f 63//4 64//4 68//4 67//4
f 73//5 74//5 78//5 77//5
f 67//4 68//4 72//4 71//4
f 70//2 67//2 71//2 74//2
f 68//16 69//16 73//16 72//16
f 76//1 77//1 78//1 75//1
f 71//4 72//4 76//4 75//4
f 74//2 71//2 75//2 78//2
f 82//2 79//2 80//2 81//2
f 50//5 30//5 80//5 79//5
f 43//1 50//1 79//1 82//1
f 29//4 43//4 82//4 81//4
o Cube.048_Cube.024
v -564.294800 467.236664 182.443024
v -727.307861 342.326721 55.078217
v -422.820953 481.818146 -12.928596
v -585.859985 356.974823 -140.239594
v -678.213684 646.711731 40.522255
v -761.794983 582.666931 -24.781235
v -605.676025 654.188171 -59.650230
v -689.249634 590.164185 -124.945702
v -346.370056 458.363220 -439.302399
v -260.333008 523.487976 -373.128174
v -316.703979 631.815430 -406.446442
v -402.740906 566.690674 -472.620636
v -216.993927 492.929138 -609.474670
v -153.737610 540.810303 -560.821716
v -195.182800 620.455139 -585.318054
v -258.439178 572.573975 -633.970886
v -135.534912 517.357544 -715.463013
v -89.308044 552.348511 -679.908142
v -119.595520 610.551880 -697.809875
v -165.822571 575.560974 -733.364502
v -482.883179 587.738464 -25.802040
v -655.947998 455.212616 -160.963898
v -633.077148 572.256226 181.608765
v -806.135498 439.648926 46.395393
v -282.605591 579.960022 -392.286316
v -373.944489 510.822083 -462.538361
v -161.518677 583.124695 -586.863525
v -228.673157 532.292908 -638.514343
v -87.196167 583.992554 -709.787842
v -136.271790 546.845337 -747.533569
v -79.136597 519.399475 -790.799316
v -32.909607 554.390381 -755.244629
v -27.638855 591.484619 -794.594971
v -76.714417 554.337463 -832.340820
v -106.750793 582.215332 -816.716003
v -60.523865 617.206177 -781.161194
v -39.197021 522.011230 -845.297424
v 7.029968 557.002197 -809.742737
v 12.300659 594.096313 -849.093018
v -36.774841 556.949158 -886.838928
v -66.811279 584.827026 -871.214111
v -20.584412 619.817871 -835.659241
v 4.352173 508.889893 -865.826050
v 34.106384 531.411987 -842.941040
v 37.498901 555.287903 -868.269104
v 5.911194 531.377930 -892.564331
v -28.459900 590.440491 -930.609802
v -58.496338 618.318298 -914.984985
v -12.269348 653.309204 -879.430359
v 20.615662 627.587646 -892.864075
v 33.439880 498.594116 -879.870483
v 53.499329 513.777893 -864.442078
v 55.786438 529.874329 -881.517517
v 34.490845 513.754883 -897.896729
v 59.680603 497.380432 -902.220703
v 72.219910 506.871979 -892.576172
v 73.649719 516.934021 -903.250244
v 60.337708 506.857635 -913.489197
v -21.028687 619.198914 -945.434631
v -41.000244 637.735168 -935.045349
v -10.263306 661.001099 -911.404663
v 11.602234 643.898499 -920.336853
v -287.670258 594.671875 359.089508
v -284.541138 354.040497 337.082184
v -169.436218 616.207336 148.713928
v -166.554138 374.769135 127.208504
v -469.033569 549.122986 184.839813
v -467.429138 425.744568 173.556046
v -408.480103 560.074646 77.121246
v -406.933960 436.372681 65.947937
v -27.688232 459.163635 -233.709534
v -26.766479 585.724182 -227.850769
v -137.220032 589.396057 -289.567780
v -138.138672 462.817291 -295.434631
v 62.947937 484.148254 -428.779633
v 63.653687 577.113831 -424.539642
v -17.551880 579.800110 -469.921417
v -18.257629 486.834534 -474.161469
v 117.918030 501.881561 -551.782471
v 118.433838 569.819580 -548.683899
v 59.089722 571.782593 -581.848267
v 58.573975 503.844666 -584.946777
v -283.919861 626.102478 106.432961
v -280.859924 369.793304 83.602188
v -409.439636 603.247131 329.772491
v -406.117676 347.787231 306.408997
v -79.190369 591.533752 -263.506989
v -80.209351 457.296265 -269.629425
v 32.284851 582.001404 -463.543915
v 31.535583 483.307068 -468.045074
v 102.044983 573.873779 -588.853088
v 101.497437 501.749268 -592.142578
v 166.949463 505.171051 -632.066956
v 167.465271 573.109070 -628.968384
v 150.852234 577.683105 -680.497925
v 150.304749 505.558594 -683.787537
v 107.415833 507.574066 -674.845520
v 107.931580 575.512085 -671.746948
v 201.023132 507.573853 -690.421570
v 201.538879 575.511902 -687.322998
v 184.925964 580.085999 -738.852722
v 184.378418 507.961487 -742.142090
v 141.489502 509.976898 -733.200134
v 142.005127 577.914917 -730.101501
v 243.302429 520.440369 -713.595581
v 243.634338 564.169067 -711.601074
v 232.941467 567.113159 -744.768494
v 232.589050 520.689880 -746.885803
v 173.130249 510.533936 -796.672729
v 130.241211 512.549438 -787.730652
v 130.757019 580.487427 -784.632080
v 173.677734 582.658447 -793.383118
v 272.693359 528.044739 -728.684631
v 272.917175 557.525391 -727.339966
v 265.708435 559.510254 -749.700867
v 265.470764 528.212891 -751.128113
v 294.994385 534.570984 -754.173157
v 295.134216 552.999695 -753.332642
v 290.627808 554.240479 -767.310303
v 290.479248 534.676147 -768.202637
v 159.973206 523.990906 -824.019470
v 131.455688 525.330994 -818.073730
v 131.798584 570.503845 -816.013367
v 160.337158 571.947449 -821.832092
vn 0.4497 -0.8540 0.2618
vn -0.3699 0.8552 -0.3630
vn -0.4497 0.8539 -0.2618
vn -0.4451 -0.2848 0.8490
vn 0.3749 0.8640 0.3360
vn -0.6456 -0.5683 -0.5102
vn -0.3988 0.8574 -0.3254
vn 0.7780 0.4755 0.4106
vn -0.7399 -0.1517 -0.6554
vn 0.5289 -0.8369 0.1409
vn -0.6671 -0.4037 -0.6262
vn 0.7574 0.4478 0.4751
vn -0.6638 -0.4392 -0.6054
vn 0.4892 -0.8490 0.1995
vn 0.6504 0.5660 0.5065
vn 0.4974 -0.8471 0.1870
vn -0.3895 0.8571 -0.3372
vn 0.7803 0.4141 0.4686
vn 0.6766 0.6134 0.4073
vn 0.4231 -0.8572 0.2935
vn -0.5933 -0.5746 -0.5638
vn 0.6870 0.5833 0.4335
vn -0.5634 -0.6029 -0.5649
vn -0.5578 -0.5443 -0.6266
vn 0.5082 0.8017 0.3147
vn -0.8077 -0.0423 -0.5881
vn 0.7010 0.4634 0.5422
vn -0.7382 0.4698 0.4841
vn -0.4349 0.8566 -0.2776
vn -0.6563 -0.5582 -0.5077
vn -0.4529 0.8550 -0.2527
vn 0.7035 0.4654 0.5371
vn -0.6537 -0.5620 -0.5068
vn -0.7064 -0.4610 -0.5371
vn 0.6446 0.5431 0.5380
vn 0.0765 -0.7586 0.6471
vn 0.7013 0.4694 0.5365
vn 0.6504 0.5684 0.5039
vn -0.7062 -0.4585 -0.5395
vn 0.4349 -0.8566 0.2776
vn 0.1952 0.5602 -0.8051
vn -0.4737 -0.6602 -0.5829
vn 0.8400 0.3342 0.4275
vn 0.2153 0.5414 -0.8127
vn 0.6547 0.7246 0.2154
vn -0.7132 -0.4847 -0.5063
vn -0.7182 0.6118 0.3317
vn 0.7182 -0.6118 -0.3317
vn -0.1453 0.7930 -0.5916
vn 0.8202 0.3573 0.4467
vn -0.5051 -0.6458 -0.5726
vn 0.0556 -0.7468 0.6627
vn 0.7301 -0.5434 -0.4144
vn 0.8141 0.3642 0.4523
vn -0.5145 -0.6412 -0.5693
vn 0.3191 -0.8492 0.4208
vn 0.1492 0.6009 -0.7853
vn -0.6101 -0.2328 -0.7574
vn 0.7330 -0.4516 -0.5086
vn -0.6622 0.7369 0.1357
vn 0.8727 -0.0331 0.4872
vn -0.8040 0.0384 -0.5934
vn -0.8726 0.0332 -0.4872
vn -0.2392 -0.0915 0.9667
vn -0.4341 0.8877 -0.1533
vn 0.0666 -0.9959 -0.0609
vn -0.8320 0.0317 -0.5538
vn 0.1100 0.9933 -0.0354
vn -0.2771 -0.9038 -0.3262
vn 0.9345 -0.0214 0.3552
vn -0.0616 -0.9805 -0.1865
vn 0.1151 0.9933 0.0131
vn -0.0373 -0.9874 -0.1539
vn 0.9079 -0.0260 0.4185
vn -0.0466 0.9988 0.0164
vn 0.9140 -0.0254 0.4048
vn -0.8236 0.0321 -0.5663
vn 0.1565 0.9875 0.0171
vn -0.0466 0.9942 -0.0964
vn 0.8536 -0.0302 0.5201
vn 0.1007 -0.9919 -0.0767
vn -0.0212 0.9978 -0.0630
vn 0.1416 -0.9872 -0.0730
vn 0.1240 -0.9765 -0.1761
vn -0.2907 0.9368 -0.1945
vn -0.4085 -0.8569 -0.3143
vn 0.0400 0.9915 0.1239
vn -0.9174 -0.0481 0.3952
vn -0.8637 0.0295 -0.5031
vn 0.0372 -0.9991 -0.0194
vn -0.8788 0.0284 -0.4763
vn 0.0566 0.9957 0.0733
vn 0.0415 -0.9990 -0.0177
vn -0.0617 -0.9953 -0.0745
vn -0.0392 0.9977 0.0552
vn 0.4903 -0.0434 0.8705
vn 0.0523 0.9961 0.0716
vn -0.0478 0.9988 0.0132
vn -0.0630 -0.9950 -0.0777
vn 0.8637 -0.0295 0.5031
vn -0.1382 0.0462 -0.9893
vn 0.2463 -0.9653 -0.0865
vn 0.2610 0.9653 0.0015
vn -0.1099 0.0461 -0.9929
vn -0.1100 0.9461 -0.3046
vn -0.0544 -0.9979 -0.0359
vn -0.9794 -0.0018 0.2019
vn 0.9794 0.0018 -0.2019
vn -0.5707 0.0417 -0.8201
vn 0.2279 0.9736 0.0130
vn 0.2131 -0.9741 -0.0759
vn 0.4652 -0.0439 0.8841
vn 0.9519 0.0067 -0.3063
vn 0.2179 0.9758 0.0164
vn 0.2028 -0.9765 -0.0726
vn 0.7566 -0.0355 0.6529
vn -0.2018 0.0462 -0.9783
vn -0.1241 -0.9127 -0.3894
vn 0.9035 0.0127 -0.4284
vn -0.9993 0.0092 -0.0361
usemtl Matériau.012
s off
f 83//20 84//20 86//20 85//20
f 90//21 89//21 93//21 94//21
f 89//22 90//22 88//22 87//22
f 105//23 106//23 84//23 83//23
f 103//24 89//24 87//24 105//24
f 104//25 86//25 84//25 106//25
f 94//26 93//26 97//26 98//26
f 103//27 85//27 92//27 107//27
f 104//28 90//28 94//28 108//28
f 85//29 86//29 91//29 92//29
f 110//30 98//30 102//30 112//30
f 107//31 92//31 96//31 109//31
f 108//32 94//32 98//32 110//32
f 92//33 91//33 95//33 96//33
f 101//34 111//34 115//34 118//34
f 96//35 95//35 99//35 100//35
f 98//36 97//36 101//36 102//36
f 109//37 96//37 100//37 111//37
f 97//38 109//38 111//38 101//38
f 100//39 99//39 113//39 114//39
f 91//40 108//40 110//40 95//40
f 93//41 107//41 109//41 97//41
f 95//42 110//42 112//42 99//42
f 86//43 104//43 108//43 91//43
f 89//44 103//44 107//44 93//44
f 90//45 104//45 106//45 88//45
f 85//46 103//46 105//46 83//46
f 87//47 88//47 106//47 105//47
f 117//48 118//48 124//48 123//48
f 113//49 116//49 122//49 119//49
f 102//50 101//50 118//50 117//50
f 111//51 100//51 114//51 115//51
f 99//52 112//52 116//52 113//52
f 112//53 102//53 117//53 116//53
f 124//54 121//54 132//54 131//54
f 120//55 119//55 125//55 126//55
f 115//56 114//56 120//56 121//56
f 118//57 115//57 121//57 124//57
f 116//58 117//58 123//58 122//58
f 114//59 113//59 119//59 120//59
f 128//60 127//60 135//60 136//60
f 119//61 122//61 128//61 125//61
f 121//62 120//62 126//62 127//62
f 122//63 121//63 127//63 128//63
f 131//64 132//64 144//64 143//64
f 122//65 123//65 130//65 129//65
f 123//66 124//66 131//66 130//66
f 121//67 122//67 129//67 132//67
f 136//68 135//68 139//68 140//68
f 127//69 126//69 134//69 135//69
f 125//70 128//70 136//70 133//70
f 126//71 125//71 133//71 134//71
f 138//72 137//72 140//72 139//72
f 135//73 134//73 138//73 139//73
f 133//74 136//74 140//74 137//74
f 134//75 133//75 137//75 138//75
f 144//76 141//76 142//76 143//76
f 129//77 130//77 142//77 141//77
f 132//78 129//78 141//78 144//78
f 130//79 131//79 143//79 142//79
f 145//80 146//80 148//80 147//80
f 152//81 151//81 155//81 156//81
f 151//82 152//82 150//82 149//82
f 167//83 168//83 146//83 145//83
f 165//84 151//84 149//84 167//84
f 166//85 148//85 146//85 168//85
f 156//86 155//86 159//86 160//86
f 165//87 147//87 154//87 169//87
f 166//88 152//88 156//88 170//88
f 147//89 148//89 153//89 154//89
f 172//90 160//90 164//90 174//90
f 169//91 154//91 158//91 171//91
f 170//92 156//92 160//92 172//92
f 154//93 153//93 157//93 158//93
f 163//94 173//94 177//94 180//94
f 158//95 157//95 161//95 162//95
f 160//96 159//96 163//96 164//96
f 171//97 158//97 162//97 173//97
f 159//98 171//98 173//98 163//98
f 162//99 161//99 175//99 176//99
f 153//100 170//100 172//100 157//100
f 155//101 169//101 171//101 159//101
f 157//102 172//102 174//102 161//102
f 148//103 166//103 170//103 153//103
f 151//104 165//104 169//104 155//104
f 152//105 166//105 168//105 150//105
f 147//106 165//106 167//106 145//106
f 149//107 150//107 168//107 167//107
f 179//108 180//108 186//108 185//108
f 175//109 178//109 184//109 181//109
f 164//110 163//110 180//110 179//110
f 173//111 162//111 176//111 177//111
f 161//112 174//112 178//112 175//112
f 174//113 164//113 179//113 178//113
f 186//114 183//114 194//114 193//114
f 182//115 181//115 187//115 188//115
f 177//116 176//116 182//116 183//116
f 180//117 177//117 183//117 186//117
f 178//118 179//118 185//118 184//118
f 176//119 175//119 181//119 182//119
f 190//120 189//120 197//120 198//120
f 181//121 184//121 190//121 187//121
f 183//122 182//122 188//122 189//122
f 184//123 183//123 189//123 190//123
f 193//124 194//124 206//124 205//124
f 184//125 185//125 192//125 191//125
f 185//126 186//126 193//126 192//126
f 183//127 184//127 191//127 194//127
f 198//128 197//128 201//128 202//128
f 189//129 188//129 196//129 197//129
f 187//130 190//130 198//130 195//130
f 188//131 187//131 195//131 196//131
f 200//132 199//132 202//132 201//132
f 197//133 196//133 200//133 201//133
f 195//134 198//134 202//134 199//134
f 196//135 195//135 199//135 200//135
f 206//136 203//136 204//136 205//136
f 191//137 192//137 204//137 203//137
f 194//138 191//138 203//138 206//138
f 192//139 193//139 205//139 204//139
