# Blender v2.91.2 OBJ File: 'camionnete02.blend'
# www.blender.org
mtllib arme_000213.mtl
o Cube.046_Cube.010
v -41.065552 111.815674 -1264.688477
v -62.747211 -97.320496 -1198.574219
v -5.253197 42.895264 -1470.956543
v -26.934887 -166.240906 -1404.842529
v -257.459808 121.364075 -1305.449463
v -279.141510 -87.772125 -1239.335205
v -221.647400 52.443665 -1511.717529
v -243.329163 -156.692535 -1445.603271
v -90.372108 206.705383 -980.698181
v -112.053757 -2.430740 -914.583923
v -328.447998 7.117645 -955.344727
v -306.766296 216.253845 -1021.459045
v -112.686485 249.649323 -852.173828
v -134.368179 40.513123 -786.059631
v -350.762451 50.061508 -826.820374
v -329.080780 259.197693 -892.934753
v -125.868889 275.018585 -776.247498
v -139.272156 118.644196 -740.810486
v -355.666473 128.192627 -781.571350
v -342.263153 284.567047 -817.008301
v -82.679352 191.900848 -1025.005859
v -104.361023 -17.235275 -958.891602
v -299.073608 201.449280 -1065.766846
v -320.755310 -7.686890 -999.652466
v -17.896080 67.226318 -1398.137695
v -39.577774 -141.909851 -1332.023438
v -234.290314 76.774719 -1438.898438
v -255.971954 -132.361481 -1372.784180
v -113.450333 47.669495 -1491.337158
v -135.132019 -161.466766 -1425.222900
v -149.262665 116.589905 -1285.069092
v -170.944351 -92.546356 -1218.954590
v -198.569183 211.479645 -1001.078552
v -220.250854 2.343445 -934.964294
v -220.883621 254.423492 -872.554321
v -234.554077 57.622101 -797.411804
v -234.066010 279.792786 -796.627930
v -237.860855 110.306152 -766.900330
v -212.558167 -12.461105 -979.271973
v -190.876495 196.675110 -1045.386230
v -147.774918 -137.135681 -1352.403809
v -126.093185 72.000549 -1418.518066
v -59.351700 45.282410 -1481.146973
v -116.845779 -94.933411 -1208.764404
v -166.152344 -0.043640 -924.774109
v -198.075287 56.012451 -790.540588
v -201.382019 108.696472 -760.028992
v -136.777893 194.287964 -1035.196045
v -71.994644 69.613403 -1408.327881
v -81.033432 -163.853851 -1415.032715
v -95.164177 114.202789 -1274.878906
v -144.470673 209.092468 -990.888428
v -166.785065 252.036407 -862.364075
v -179.967438 277.405701 -786.437683
v -158.459610 -14.848190 -969.081848
v -93.676376 -139.522797 -1342.213867
v -162.519165 -54.006104 -956.702820
v -216.617752 -51.618988 -966.893005
v -97.735992 -178.680725 -1329.834717
v -151.834503 -176.293579 -1340.024902
v -175.003967 -131.704224 -1206.575684
v -120.905365 -134.091309 -1196.385498
v 60.816559 17.308167 -1325.295654
v 50.571213 37.025146 -1266.285889
v 40.983948 -55.452759 -1237.050537
v 51.229095 -75.169708 -1296.060547
v 107.578110 15.244843 -1316.487549
v 97.332825 34.961823 -1257.477539
v 87.745514 -57.516052 -1228.242432
v 97.990723 -77.233063 -1287.252441
v 179.138367 12.087250 -1303.008301
v 168.893066 31.804199 -1243.998291
v 159.305664 -60.673645 -1214.763184
v 169.550858 -80.390656 -1273.773193
v 225.186432 10.055298 -1294.334473
v 214.941132 29.772278 -1235.324707
v 205.353882 -62.705566 -1206.089600
v 215.599060 -82.422546 -1265.099609
v 36.617355 -390.270172 -2092.662598
v -17.481239 -387.883087 -2102.852783
v 4.200272 -178.746887 -2168.967285
v 58.298996 -181.133972 -2158.777100
vn 0.9818 -0.0433 0.1849
vn 0.1625 -0.3127 -0.9359
vn -0.9818 0.0433 -0.1849
vn 0.0984 0.9489 -0.3000
vn -0.0984 -0.9489 0.3000
vn -0.1815 -0.5013 0.8460
vn -0.1806 -0.9321 0.3139
vn -0.2527 0.2069 0.9452
vn -0.9821 0.0433 -0.1835
vn 0.9821 -0.0433 0.1835
vn 0.5357 -0.3045 -0.7876
vn -0.1304 0.2010 0.9709
vn -0.0633 -0.9390 0.3379
vn -0.1749 0.1739 0.9691
vn -0.1089 -0.9262 0.3609
vn -0.1625 0.3127 0.9359
vn 0.2370 0.2704 0.9331
vn 0.4597 -0.8152 0.3522
vn 0.6238 0.7674 -0.1481
usemtl Matériau.011
s off
f 25//1 26//1 4//1 3//1
f 29//2 30//2 8//2 7//2
f 27//3 28//3 6//3 5//3
f 22//1 21//1 9//1 10//1
f 42//4 27//4 5//4 31//4
f 56//5 26//5 2//5 44//5
f 10//1 9//1 13//1 14//1
f 55//5 22//5 10//5 45//5
f 23//3 24//3 11//3 12//3
f 46//6 14//6 18//6 47//6
f 45//7 10//7 14//7 46//7
f 12//3 11//3 15//3 16//3
f 33//4 12//4 16//4 35//4
f 54//8 47//8 18//8 17//8
f 16//9 15//9 19//9 20//9
f 14//10 13//10 17//10 18//10
f 5//3 6//3 24//3 23//3
f 44//5 2//5 22//5 55//5
f 31//4 5//4 23//4 40//4
f 2//1 1//1 21//1 22//1
f 50//5 4//5 26//5 56//5
f 29//4 7//4 27//4 42//4
f 7//3 8//3 28//3 27//3
f 26//11 25//11 63//11 66//11
f 43//4 29//4 42//4 49//4
f 8//5 30//5 41//5 28//5
f 51//4 31//4 40//4 48//4
f 6//5 32//5 39//5 24//5
f 20//12 19//12 38//12 37//12
f 52//4 33//4 35//4 53//4
f 11//13 34//13 36//13 15//13
f 15//6 36//6 38//6 19//6
f 24//5 39//5 34//5 11//5
f 28//5 41//5 32//5 6//5
f 49//4 42//4 31//4 51//4
f 30//3 29//3 81//3 80//3
f 3//2 4//2 50//2 43//2
f 25//4 49//4 51//4 1//4
f 9//4 52//4 53//4 13//4
f 1//4 51//4 48//4 21//4
f 3//4 43//4 49//4 25//4
f 30//5 50//5 56//5 41//5
f 32//3 41//3 60//3 61//3
f 37//14 38//14 47//14 54//14
f 34//15 45//15 46//15 36//15
f 36//6 46//6 47//6 38//6
f 39//5 55//5 45//5 34//5
f 55//16 39//16 58//16 57//16
f 61//5 62//5 57//5 58//5
f 60//5 59//5 62//5 61//5
f 39//3 32//3 61//3 58//3
f 44//1 55//1 57//1 62//1
f 41//2 56//2 59//2 60//2
f 56//1 44//1 62//1 59//1
f 66//2 63//2 67//2 70//2
f 1//17 2//17 65//17 64//17
f 2//18 26//18 66//18 65//18
f 25//19 1//19 64//19 63//19
f 69//5 70//5 74//5 73//5
f 64//16 65//16 69//16 68//16
f 65//5 66//5 70//5 69//5
f 63//4 64//4 68//4 67//4
f 73//5 74//5 78//5 77//5
f 67//4 68//4 72//4 71//4
f 70//2 67//2 71//2 74//2
f 68//16 69//16 73//16 72//16
f 76//1 77//1 78//1 75//1
f 71//4 72//4 76//4 75//4
f 74//2 71//2 75//2 78//2
f 82//2 79//2 80//2 81//2
f 50//5 30//5 80//5 79//5
f 43//1 50//1 79//1 82//1
f 29//4 43//4 82//4 81//4
o Cube.048_Cube.024
v -463.122681 593.302979 107.613403
v -615.678650 412.102570 155.473816
v -407.991516 490.932404 -104.231728
v -563.478455 308.184143 -57.910728
v -665.981079 647.032776 -38.304077
v -744.200745 554.126282 -13.764732
v -637.713745 594.544617 -146.923065
v -715.768188 501.783386 -122.318153
v -519.455139 246.657257 -474.345612
v -408.460938 306.657593 -464.203094
v -462.204376 413.210602 -506.401886
v -573.198608 353.210205 -516.544495
v -463.344086 213.108459 -680.785828
v -381.738678 257.222107 -673.328735
v -421.251984 335.562317 -704.354370
v -502.857513 291.448608 -711.811462
v -427.300415 194.790222 -810.520813
v -367.664246 227.027893 -805.071350
v -396.540131 284.277832 -827.744324
v -456.176331 252.040222 -833.193909
v -496.998596 565.591858 -142.517273
v -660.499512 373.378113 -92.874748
v -555.570312 674.383057 82.310104
v -717.527283 482.016602 133.119812
v -430.650818 360.337158 -490.247467
v -548.484802 296.639343 -501.015045
v -394.728363 292.879517 -706.329346
v -481.362579 246.047485 -714.246033
v -374.140198 249.629761 -841.756531
v -437.451324 215.405518 -847.541992
v -404.588928 167.514160 -897.702942
v -344.952911 199.751770 -892.253296
v -351.657501 224.659119 -940.074890
v -414.968506 190.434998 -945.860107
v -433.658478 226.715271 -929.800354
v -374.022186 258.952881 -924.350830
v -388.833313 149.035400 -960.808533
v -329.197205 181.273071 -955.359192
v -335.901855 206.180481 -1003.180359
v -399.212921 171.956299 -1008.965759
v -417.902802 208.236542 -992.905945
v -358.266663 240.474182 -987.456482
v -358.183746 122.876953 -990.244202
v -319.798767 143.626831 -986.736633
v -324.114105 159.658691 -1017.517029
v -364.864685 137.630127 -1021.240784
v -405.199707 191.779175 -1060.714478
v -423.889679 228.059448 -1044.654541
v -364.253540 260.297058 -1039.204956
v -341.888702 226.003357 -1054.928955
v -337.994110 103.870911 -1009.750305
v -312.116028 117.859863 -1007.385437
v -315.025269 128.668091 -1028.136841
v -342.498169 113.817017 -1030.647461
v -322.723175 92.117126 -1038.354980
v -306.546417 100.861816 -1036.876831
v -308.364990 107.618042 -1049.848755
v -325.538757 98.334534 -1051.418091
v -401.257233 214.105530 -1084.963867
v -413.684387 238.228760 -1074.285278
v -374.031647 259.663910 -1070.661865
v -359.160980 236.861572 -1081.116943
v -311.885468 444.914917 473.827667
v -385.033539 252.216309 347.676300
v -140.068970 486.786621 308.597595
v -214.584991 295.943939 182.047974
v -443.080261 547.734131 280.058563
v -480.585297 448.932129 215.377258
v -345.624268 571.295288 196.458069
v -393.191589 471.352509 130.454956
v -116.541199 305.037323 -90.908241
v -62.433350 234.163574 -3.884842
v 49.648865 276.499207 -37.064064
v -1.485168 346.489990 -123.564125
v -79.004944 142.890564 -229.439667
v -40.784180 87.327759 -165.306915
v 43.807678 117.804749 -189.316223
v 5.586731 173.367554 -253.449066
v -52.820557 40.847290 -315.273438
v -24.889282 0.242737 -268.405975
v 36.929321 22.515015 -285.951630
v 8.998047 63.119446 -332.819061
v -214.529541 557.309875 265.876984
v -307.242401 356.240479 129.407440
v -410.538910 514.391479 439.167542
v -488.194519 309.818085 305.242371
v -5.024963 243.763733 -21.109337
v -60.214050 323.993439 -113.713768
v 4.040771 87.041931 -188.107574
v -36.535461 146.028687 -256.192322
v 8.826904 -9.764709 -294.128876
v -20.825745 33.341980 -343.884399
v -49.297791 -29.197388 -378.057404
v -21.366516 -69.801819 -331.189850
v 18.279602 -85.113159 -365.042053
v -11.372864 -42.006531 -414.797546
v 17.539185 -11.413879 -402.482697
v 45.470520 -52.018433 -355.615326
v -45.550598 -79.102539 -423.526855
v -17.619324 -119.707153 -376.659393
v 22.026733 -135.018555 -410.511536
v -7.625671 -91.911743 -460.266998
v 21.286377 -61.318909 -447.952301
v 49.217773 -101.923462 -401.084839
v -60.537292 -124.855286 -436.649811
v -42.559265 -150.990479 -406.483398
v -17.040771 -160.845886 -428.272491
v -36.126770 -133.099976 -460.297882
v 28.552490 -110.826782 -498.215424
v 57.464722 -80.234070 -485.900604
v 85.395996 -120.838745 -439.033264
v 58.204956 -153.933533 -448.459808
v -72.040833 -155.377930 -445.889099
v -59.920471 -172.997681 -425.551788
v -42.716736 -179.641846 -440.241608
v -55.583801 -160.936340 -461.832123
v -73.600281 -185.341675 -462.898895
v -66.023621 -196.355957 -450.185760
v -55.269348 -200.509155 -459.368317
v -63.312866 -188.816223 -472.864777
v 57.712463 -122.904907 -508.503693
v 76.936768 -102.563354 -500.315582
v 95.508484 -129.561646 -469.152740
v 77.428894 -151.567017 -475.420502
vn 0.7395 -0.5132 0.4356
vn -0.5609 0.6450 -0.5190
vn -0.7414 0.5079 -0.4387
vn -0.0233 0.2736 0.9616
vn 0.1973 0.9017 -0.3847
vn -0.5912 -0.7738 0.2274
vn -0.4058 0.8192 -0.4053
vn 0.7899 0.5653 -0.2376
vn -0.8905 -0.4247 -0.1633
vn 0.6695 -0.6965 0.2581
vn -0.8943 -0.3956 -0.2093
vn 0.9230 0.3836 0.0305
vn -0.8868 -0.4251 -0.1815
vn 0.4408 -0.8593 0.2595
vn 0.8489 0.5251 0.0605
vn 0.4436 -0.8621 0.2450
vn -0.4019 0.8143 -0.4189
vn 0.9381 0.3454 0.0267
vn 0.8392 0.5414 -0.0509
vn 0.4158 -0.8315 0.3685
vn -0.8196 -0.5583 -0.1287
vn 0.8558 0.5168 -0.0222
vn -0.7954 -0.5916 -0.1317
vn -0.6736 -0.7391 -0.0035
vn 0.4378 0.8434 -0.3113
vn -0.9130 -0.4063 -0.0377
vn 0.6755 0.7173 -0.1709
vn -0.6309 0.6450 0.4312
vn -0.4205 0.8370 -0.3501
vn -0.8539 -0.5167 -0.0619
vn -0.4275 0.8451 -0.3212
vn 0.8993 0.4259 0.0992
vn -0.8516 -0.5206 -0.0608
vn -0.9015 -0.4211 -0.0995
vn 0.8535 0.5120 0.0974
vn 0.2449 -0.5839 0.7740
vn 0.8975 0.4300 0.0982
vn 0.8481 0.5267 0.0575
vn -0.9020 -0.4193 -0.1024
vn 0.4205 -0.8370 0.3501
vn -0.0770 0.3029 -0.9499
vn -0.7259 -0.6685 -0.1617
vn 0.9688 0.2476 -0.0069
vn -0.0634 0.2792 -0.9581
vn 0.7559 0.6063 -0.2472
vn -0.8983 -0.4350 -0.0627
vn -0.4686 0.8055 0.3628
vn 0.4686 -0.8055 -0.3628
vn -0.2830 0.6438 -0.7110
vn 0.9605 0.2782 0.0102
vn -0.7492 -0.6460 -0.1460
vn 0.2330 -0.5649 0.7916
vn 0.4543 -0.7624 -0.4608
vn 0.9577 0.2872 0.0153
vn -0.7562 -0.6390 -0.1411
vn 0.3706 -0.7727 0.5154
vn -0.1074 0.3556 -0.9284
vn -0.8758 -0.2757 -0.3963
vn 0.4297 -0.6980 -0.5728
vn -0.4807 0.8669 0.1320
vn 0.6365 -0.5800 0.5084
vn 0.2643 0.8996 -0.3477
vn -0.6154 0.5997 -0.5114
vn -0.5099 -0.3272 0.7955
vn -0.0271 0.9748 0.2213
vn -0.2627 -0.8313 -0.4898
vn 0.9100 0.2706 -0.3143
vn 0.9372 0.3137 0.1527
vn -0.6311 -0.1732 -0.7561
vn 0.1449 -0.8974 0.4168
vn -0.2931 0.5571 -0.7770
vn 0.3200 -0.6806 0.6590
vn -0.3304 0.5603 -0.7595
vn -0.8947 -0.3874 0.2225
vn 0.4657 -0.5750 0.6727
vn -0.8984 -0.3939 0.1942
vn 0.9117 0.2583 -0.3196
vn 0.3071 -0.6994 0.6454
vn 0.5187 -0.6231 0.5853
vn -0.9110 -0.2997 0.2833
vn -0.4742 0.5085 -0.7187
vn 0.5173 -0.6062 0.6041
vn -0.5048 0.4808 -0.7169
vn -0.6339 -0.6656 -0.3940
vn 0.6332 0.7590 -0.1514
vn -0.5738 -0.4220 -0.7019
vn 0.3498 0.7459 0.5669
vn -0.9495 0.2052 0.2372
vn 0.9101 0.3144 -0.2700
vn -0.4573 0.5800 -0.6742
vn 0.9079 0.3369 -0.2492
vn 0.3587 -0.6143 0.7028
vn -0.4613 0.5779 -0.6732
vn -0.3541 0.6168 -0.7030
vn 0.4408 -0.5616 0.7002
vn -0.8132 0.1020 0.5730
vn 0.3630 -0.6125 0.7022
vn 0.4682 -0.5756 0.6704
vn -0.3515 0.6160 -0.7050
vn -0.9101 -0.3144 0.2700
vn 0.6064 -0.3855 -0.6954
vn -0.5677 0.3934 -0.7232
vn 0.2260 -0.7605 0.6087
vn 0.5867 -0.4055 -0.7010
vn 0.6468 -0.6466 0.4044
vn -0.3796 0.6311 -0.6765
vn 0.6403 0.7269 0.2481
vn -0.6403 -0.7269 -0.2482
vn 0.8486 -0.0262 -0.5284
vn 0.2491 -0.7390 0.6260
vn -0.5516 0.4251 -0.7176
vn -0.8011 0.1247 0.5854
vn -0.5666 -0.7593 -0.3201
vn 0.2560 -0.7323 0.6310
vn -0.5465 0.4348 -0.7157
vn -0.9048 -0.1736 0.3888
vn 0.6491 -0.3394 -0.6808
vn -0.1174 0.4643 -0.8779
vn -0.4679 -0.7867 -0.4027
vn 0.7761 0.6256 0.0794
usemtl Matériau.012
s off
f 83//20 84//20 86//20 85//20
f 90//21 89//21 93//21 94//21
f 89//22 90//22 88//22 87//22
f 105//23 106//23 84//23 83//23
f 103//24 89//24 87//24 105//24
f 104//25 86//25 84//25 106//25
f 94//26 93//26 97//26 98//26
f 103//27 85//27 92//27 107//27
f 104//28 90//28 94//28 108//28
f 85//29 86//29 91//29 92//29
f 110//30 98//30 102//30 112//30
f 107//31 92//31 96//31 109//31
f 108//32 94//32 98//32 110//32
f 92//33 91//33 95//33 96//33
f 101//34 111//34 115//34 118//34
f 96//35 95//35 99//35 100//35
f 98//36 97//36 101//36 102//36
f 109//37 96//37 100//37 111//37
f 97//38 109//38 111//38 101//38
f 100//39 99//39 113//39 114//39
f 91//40 108//40 110//40 95//40
f 93//41 107//41 109//41 97//41
f 95//42 110//42 112//42 99//42
f 86//43 104//43 108//43 91//43
f 89//44 103//44 107//44 93//44
f 90//45 104//45 106//45 88//45
f 85//46 103//46 105//46 83//46
f 87//47 88//47 106//47 105//47
f 117//48 118//48 124//48 123//48
f 113//49 116//49 122//49 119//49
f 102//50 101//50 118//50 117//50
f 111//51 100//51 114//51 115//51
f 99//52 112//52 116//52 113//52
f 112//53 102//53 117//53 116//53
f 124//54 121//54 132//54 131//54
f 120//55 119//55 125//55 126//55
f 115//56 114//56 120//56 121//56
f 118//57 115//57 121//57 124//57
f 116//58 117//58 123//58 122//58
f 114//59 113//59 119//59 120//59
f 128//60 127//60 135//60 136//60
f 119//61 122//61 128//61 125//61
f 121//62 120//62 126//62 127//62
f 122//63 121//63 127//63 128//63
f 131//64 132//64 144//64 143//64
f 122//65 123//65 130//65 129//65
f 123//66 124//66 131//66 130//66
f 121//67 122//67 129//67 132//67
f 136//68 135//68 139//68 140//68
f 127//69 126//69 134//69 135//69
f 125//70 128//70 136//70 133//70
f 126//71 125//71 133//71 134//71
f 138//72 137//72 140//72 139//72
f 135//73 134//73 138//73 139//73
f 133//74 136//74 140//74 137//74
f 134//75 133//75 137//75 138//75
f 144//76 141//76 142//76 143//76
f 129//77 130//77 142//77 141//77
f 132//78 129//78 141//78 144//78
f 130//79 131//79 143//79 142//79
f 145//80 146//80 148//80 147//80
f 152//81 151//81 155//81 156//81
f 151//82 152//82 150//82 149//82
f 167//83 168//83 146//83 145//83
f 165//84 151//84 149//84 167//84
f 166//85 148//85 146//85 168//85
f 156//86 155//86 159//86 160//86
f 165//87 147//87 154//87 169//87
f 166//88 152//88 156//88 170//88
f 147//89 148//89 153//89 154//89
f 172//90 160//90 164//90 174//90
f 169//91 154//91 158//91 171//91
f 170//92 156//92 160//92 172//92
f 154//93 153//93 157//93 158//93
f 163//94 173//94 177//94 180//94
f 158//95 157//95 161//95 162//95
f 160//96 159//96 163//96 164//96
f 171//97 158//97 162//97 173//97
f 159//98 171//98 173//98 163//98
f 162//99 161//99 175//99 176//99
f 153//100 170//100 172//100 157//100
f 155//101 169//101 171//101 159//101
f 157//102 172//102 174//102 161//102
f 148//103 166//103 170//103 153//103
f 151//104 165//104 169//104 155//104
f 152//105 166//105 168//105 150//105
f 147//106 165//106 167//106 145//106
f 149//107 150//107 168//107 167//107
f 179//108 180//108 186//108 185//108
f 175//109 178//109 184//109 181//109
f 164//110 163//110 180//110 179//110
f 173//111 162//111 176//111 177//111
f 161//112 174//112 178//112 175//112
f 174//113 164//113 179//113 178//113
f 186//114 183//114 194//114 193//114
f 182//115 181//115 187//115 188//115
f 177//116 176//116 182//116 183//116
f 180//117 177//117 183//117 186//117
f 178//118 179//118 185//118 184//118
f 176//119 175//119 181//119 182//119
f 190//120 189//120 197//120 198//120
f 181//121 184//121 190//121 187//121
f 183//122 182//122 188//122 189//122
f 184//123 183//123 189//123 190//123
f 193//124 194//124 206//124 205//124
f 184//125 185//125 192//125 191//125
f 185//126 186//126 193//126 192//126
f 183//127 184//127 191//127 194//127
f 198//128 197//128 201//128 202//128
f 189//129 188//129 196//129 197//129
f 187//130 190//130 198//130 195//130
f 188//131 187//131 195//131 196//131
f 200//132 199//132 202//132 201//132
f 197//133 196//133 200//133 201//133
f 195//134 198//134 202//134 199//134
f 196//135 195//135 199//135 200//135
f 206//136 203//136 204//136 205//136
f 191//137 192//137 204//137 203//137
f 194//138 191//138 203//138 206//138
f 192//139 193//139 205//139 204//139
