# Blender v2.91.2 OBJ File: 'camionnete02.blend'
# www.blender.org
mtllib arme_000097.mtl
o Cube.046_Cube.010
v 377.188721 609.064331 -1032.311279
v 364.686279 410.299072 -1126.731201
v 500.328796 681.123047 -1200.308716
v 487.826416 482.357788 -1294.728882
v 194.817368 671.345886 -1139.272949
v 182.314896 472.580566 -1233.692993
v 317.957458 743.404541 -1307.270386
v 305.455017 544.639343 -1401.690430
v 207.649185 509.853760 -801.012024
v 195.146759 311.088440 -895.432068
v 12.775433 373.369873 -1002.393677
v 25.277870 572.135254 -907.973633
v 130.921463 464.954346 -696.333862
v 118.419006 266.189087 -790.753967
v -63.952374 328.470581 -897.715576
v -51.449936 527.235901 -803.295471
v 85.594131 438.429871 -634.494751
v 84.212990 298.229980 -713.427917
v -98.158440 360.511475 -820.389526
v -96.777283 500.711426 -741.456360
v 143.385223 663.105286 -602.205750
v -38.986118 725.386719 -709.167358
v 98.057907 636.580750 -540.366577
v -84.313446 698.862183 -647.328247
v 234.100479 525.332397 -837.098877
v 221.598068 326.567139 -931.518982
v 51.729141 587.613892 -944.060669
v 39.226669 388.848633 -1038.480713
v 211.776337 575.467651 -769.843262
v 29.405006 637.749207 -876.804932
v 238.227615 590.946289 -805.930176
v 55.856262 653.227783 -912.891785
v 217.764206 670.662781 -724.622498
v 35.392838 732.944214 -831.584045
v 244.215439 686.141357 -760.709473
v 61.844116 748.422913 -867.671021
v 136.782776 531.583130 -667.531006
v -45.588619 593.864624 -774.492676
v 142.770584 626.778198 -622.310181
v -39.600792 689.059692 -729.271851
v 179.762939 803.207275 -582.651733
v -2.608421 865.488708 -689.613525
v 134.435593 776.682739 -520.812683
v -47.935722 838.964233 -627.774292
v 456.856506 655.684143 -1141.000488
v 444.354126 456.918884 -1235.420532
v 274.485168 717.965576 -1247.962158
v 261.982727 519.200256 -1342.382202
v 409.143127 712.263855 -1253.789551
v 396.640686 513.498535 -1348.209717
v 286.003052 640.205139 -1085.792114
v 273.500610 441.439758 -1180.212158
v 116.463531 540.994446 -854.492859
v 103.961090 342.229187 -948.912781
v 39.735771 496.095154 -749.814697
v 29.087646 300.012085 -827.287781
v -5.591549 469.570618 -687.975586
v 6.022438 321.617371 -775.146484
v 52.199532 694.245972 -655.686523
v 6.872238 667.721497 -593.847473
v 130.412354 357.707886 -984.999756
v 142.914810 556.473145 -890.579773
v 120.590683 606.608398 -823.324097
v 147.041946 622.087036 -859.411011
v 126.578522 701.803467 -778.103271
v 153.029800 717.282166 -814.190186
v 45.597084 562.723877 -721.011841
v 51.584900 657.918945 -675.791016
v 88.577240 834.347961 -636.132568
v 43.249924 807.823425 -574.293457
v 353.168396 488.059570 -1288.901367
v 365.670837 686.824890 -1194.481201
v 454.735962 696.693420 -1227.049072
v 319.093445 425.869385 -1153.471680
v 149.553940 326.658813 -922.172546
v 59.831024 289.512939 -809.256653
v 36.765808 311.118195 -757.115417
v 188.507645 540.902710 -863.839355
v 192.634781 606.516602 -832.670532
v 198.622604 701.711792 -787.449829
v 411.263672 671.254517 -1167.740845
v 442.233521 497.928162 -1321.469238
v 331.595886 624.634766 -1059.051758
v 162.056366 525.424072 -827.752563
v 85.328598 480.524780 -723.074219
v 40.001274 454.000244 -661.235229
v 97.792404 678.675598 -628.946106
v 52.465088 652.151123 -567.107056
v 176.005234 342.137512 -958.259399
v 166.183517 591.038086 -796.583740
v 172.171356 686.233154 -751.362854
v 91.189911 547.153503 -694.271484
v 97.177750 642.348572 -649.050537
v 134.170120 818.777588 -609.392212
v 88.842773 792.252991 -547.553101
v 398.761230 472.489258 -1262.160889
v 173.664307 304.921387 -975.938232
v 128.071457 320.491699 -1002.678650
v 396.420349 435.273132 -1279.839844
v 350.827515 450.843506 -1306.580322
v 271.159729 404.223694 -1197.891113
v 316.752563 388.653320 -1171.150635
v 508.029114 560.989990 -1091.930664
v 472.800842 540.375183 -1043.869385
v 467.272461 452.483154 -1085.620850
v 502.500671 473.098022 -1133.682251
v 547.438660 547.531311 -1068.816895
v 512.210327 526.916504 -1020.755554
v 506.681946 439.024536 -1062.507080
v 541.910217 459.639343 -1110.568481
v 607.747742 526.935303 -1033.445435
v 572.519470 506.320435 -985.384094
v 566.991028 418.428528 -1027.135742
v 602.219238 439.043335 -1075.197021
v 646.555847 513.682007 -1010.684387
v 611.327576 493.067139 -962.623047
v 605.799255 405.175171 -1004.374634
v 641.027405 425.790039 -1052.435791
v 846.772400 734.654907 -1873.372314
v 801.179626 750.225342 -1900.112793
v 813.681885 948.990723 -1805.692749
v 859.274841 933.420288 -1778.952271
v 119.844849 897.292236 -619.285400
v 35.822166 925.986694 -668.565186
v 78.078156 872.851257 -562.303955
v -5.944481 901.545776 -611.583679
v 162.100845 844.156860 -513.024414
v 203.867569 868.597717 -570.005615
v 161.856216 882.945068 -594.645386
v 120.089493 858.504028 -537.664185
vn 0.8274 -0.2826 0.4853
vn 0.5587 0.3269 -0.7622
vn -0.8274 0.2826 -0.4853
vn 0.0567 0.9018 0.4284
vn -0.0567 -0.9018 -0.4284
vn -0.5587 -0.3269 0.7622
vn -0.4136 -0.8912 0.1863
vn -0.1395 -0.8866 -0.4410
vn -0.6277 -0.4016 0.6669
vn -0.8282 0.2817 -0.4845
vn 0.8282 -0.2817 0.4845
vn 0.5033 -0.0101 -0.8640
vn 0.5014 -0.0175 -0.8651
vn -0.5033 0.0101 0.8640
vn 0.8392 0.1894 -0.5098
vn -0.7536 0.5838 -0.3020
vn -0.5256 -0.4388 0.7288
vn -0.0411 -0.9229 -0.3828
vn -0.4791 0.0957 0.8725
vn -0.5611 -0.4524 0.6932
vn -0.0934 -0.9214 -0.3773
vn -0.1880 -0.4118 0.8917
vn 0.4093 -0.9080 -0.0895
vn 0.5039 0.5962 0.6250
vn 0.8154 -0.3843 0.4329
usemtl Matériau.011
s off
f 45//1 46//1 4//1 3//1
f 49//2 50//2 8//2 7//2
f 47//3 48//3 6//3 5//3
f 26//1 25//1 9//1 10//1
f 72//4 47//4 5//4 51//4
f 96//5 46//5 2//5 74//5
f 10//1 9//1 13//1 14//1
f 84//6 9//6 29//6 90//6
f 89//5 26//5 10//5 75//5
f 27//3 28//3 11//3 12//3
f 76//7 14//7 18//7 77//7
f 75//8 10//8 14//8 76//8
f 12//3 11//3 15//3 16//3
f 53//4 12//4 16//4 55//4
f 86//9 77//9 18//9 17//9
f 16//10 15//10 19//10 20//10
f 16//3 20//3 24//3 22//3
f 14//11 13//11 17//11 18//11
f 59//12 22//12 42//12 69//12
f 86//6 17//6 23//6 88//6
f 17//1 13//1 21//1 23//1
f 55//2 16//2 22//2 59//2
f 5//3 6//3 28//3 27//3
f 74//5 2//5 26//5 89//5
f 51//4 5//4 27//4 62//4
f 2//1 1//1 25//1 26//1
f 32//3 30//3 34//3 36//3
f 62//2 27//2 32//2 64//2
f 27//3 12//3 30//3 32//3
f 9//1 25//1 31//1 29//1
f 66//4 36//4 34//4 65//4
f 90//5 29//5 37//5 92//5
f 64//2 32//2 36//2 66//2
f 29//1 31//1 35//1 33//1
f 92//6 37//6 39//6 93//6
f 29//1 33//1 39//1 37//1
f 34//3 30//3 38//3 40//3
f 65//4 34//4 40//4 68//4
f 69//13 42//13 124//13 123//13
f 23//1 21//1 41//1 43//1
f 88//14 23//14 43//14 95//14
f 22//3 24//3 44//3 42//3
f 82//5 4//5 46//5 96//5
f 49//4 7//4 47//4 72//4
f 7//3 8//3 48//3 47//3
f 46//15 45//15 103//15 106//15
f 73//4 49//4 72//4 81//4
f 8//5 50//5 71//5 48//5
f 24//14 60//14 70//14 44//14
f 42//16 44//16 126//16 124//16
f 91//4 65//4 68//4 93//4
f 38//6 67//6 68//6 40//6
f 79//2 64//2 66//2 80//2
f 30//5 63//5 67//5 38//5
f 80//4 66//4 65//4 91//4
f 78//2 62//2 64//2 79//2
f 83//4 51//4 62//4 78//4
f 6//5 52//5 61//5 28//5
f 85//2 55//2 59//2 87//2
f 20//6 57//6 60//6 24//6
f 87//12 59//12 69//12 94//12
f 20//17 19//17 58//17 57//17
f 84//4 53//4 55//4 85//4
f 11//18 54//18 56//18 15//18
f 15//7 56//7 58//7 19//7
f 28//5 61//5 54//5 11//5
f 12//6 53//6 63//6 30//6
f 48//5 71//5 52//5 6//5
f 81//4 72//4 51//4 83//4
f 50//3 49//3 121//3 120//3
f 3//2 4//2 82//2 73//2
f 45//4 81//4 83//4 1//4
f 9//4 84//4 85//4 13//4
f 21//12 87//12 94//12 41//12
f 13//2 85//2 87//2 21//2
f 1//4 83//4 78//4 25//4
f 25//2 78//2 79//2 31//2
f 35//4 80//4 91//4 33//4
f 31//2 79//2 80//2 35//2
f 33//4 91//4 93//4 39//4
f 70//19 95//19 130//19 125//19
f 3//4 73//4 81//4 45//4
f 50//5 82//5 96//5 71//5
f 60//14 88//14 95//14 70//14
f 67//6 92//6 93//6 68//6
f 63//5 90//5 92//5 67//5
f 52//3 71//3 100//3 101//3
f 57//6 86//6 88//6 60//6
f 57//20 58//20 77//20 86//20
f 54//21 75//21 76//21 56//21
f 56//7 76//7 77//7 58//7
f 61//5 89//5 75//5 54//5
f 53//6 84//6 90//6 63//6
f 89//6 61//6 98//6 97//6
f 101//5 102//5 97//5 98//5
f 100//5 99//5 102//5 101//5
f 61//3 52//3 101//3 98//3
f 74//1 89//1 97//1 102//1
f 71//2 96//2 99//2 100//2
f 96//1 74//1 102//1 99//1
f 106//2 103//2 107//2 110//2
f 1//22 2//22 105//22 104//22
f 2//23 46//23 106//23 105//23
f 45//24 1//24 104//24 103//24
f 109//5 110//5 114//5 113//5
f 104//6 105//6 109//6 108//6
f 105//5 106//5 110//5 109//5
f 103//4 104//4 108//4 107//4
f 113//5 114//5 118//5 117//5
f 107//4 108//4 112//4 111//4
f 110//2 107//2 111//2 114//2
f 108//6 109//6 113//6 112//6
f 116//1 117//1 118//1 115//1
f 111//4 112//4 116//4 115//4
f 114//2 111//2 115//2 118//2
f 122//2 119//2 120//2 121//2
f 82//5 50//5 120//5 119//5
f 73//1 82//1 119//1 122//1
f 49//4 73//4 122//4 121//4
f 123//4 124//4 126//4 125//4
f 129//4 123//4 125//4 130//4
f 128//4 129//4 130//4 127//4
f 95//19 43//19 127//19 130//19
f 94//13 69//13 123//13 129//13
f 43//25 41//25 128//25 127//25
f 44//19 70//19 125//19 126//19
f 41//13 94//13 129//13 128//13
o Cube.048_Cube.024
v -564.721313 480.241058 181.761032
v -732.033875 348.066498 68.033524
v -422.094849 467.172241 -12.878288
v -589.705627 332.734192 -131.235657
v -671.043945 646.737305 19.573410
v -756.829773 578.967712 -38.737862
v -597.915405 640.036499 -80.223610
v -683.720520 571.526855 -138.429474
v -342.657562 483.391479 -468.071442
v -255.121368 507.906708 -379.985901
v -304.334198 623.314392 -363.199219
v -391.870422 598.799194 -451.284637
v -206.548584 579.890320 -606.106995
v -142.189941 597.914368 -541.344727
v -178.372375 682.764771 -529.002686
v -242.730927 664.740601 -593.765198
v -120.735718 642.545166 -690.820801
v -73.703308 655.716980 -643.493225
v -100.144958 717.724487 -634.473816
v -147.177429 704.552612 -681.801270
v -477.940369 572.950195 -38.113045
v -655.744324 430.704895 -161.283936
v -629.348267 587.053467 168.521881
v -806.971191 446.733887 47.786163
v -273.623413 568.393372 -372.828766
v -366.553894 542.367432 -466.342194
v -146.816162 647.727539 -546.490295
v -215.140717 628.592651 -615.243652
v -68.938660 696.966797 -656.697205
v -118.869324 682.983276 -706.941223
v -62.096008 673.394287 -757.680481
v -15.063599 686.566101 -710.353088
v -6.560059 736.613892 -729.721069
v -56.490845 722.630554 -779.965027
v -85.373535 742.847473 -753.877625
v -38.341125 756.019226 -706.550293
v -20.469849 696.785400 -805.557068
v 26.562500 709.957214 -758.229553
v 35.065857 760.005005 -777.597473
v -14.864746 746.021545 -827.841553
v -43.747437 766.238525 -801.754333
v 3.284912 779.410278 -754.426697
v 22.869019 691.106812 -829.632019
v 53.141602 699.584900 -799.169434
v 58.614929 731.798401 -811.635803
v 26.476807 722.797913 -843.975525
v -3.392883 794.547974 -852.747375
v -32.275818 814.764954 -826.659912
v 14.756775 827.936768 -779.332458
v 46.537720 808.531433 -802.503357
v 51.740601 686.080139 -846.676331
v 72.149414 691.795837 -826.139221
v 75.839478 713.513306 -834.543762
v 54.172913 707.445435 -856.346375
v 78.525574 692.994263 -867.276001
v 91.283325 696.567200 -854.437927
v 93.590088 710.143066 -859.691833
v 80.046082 706.349976 -873.320862
v 6.071533 826.355225 -853.621582
v -13.133057 839.797791 -836.275696
v 18.139404 848.555847 -804.807068
v 39.270935 835.653015 -820.213684
v -314.102539 602.793640 350.191864
v -302.114075 361.497437 344.718414
v -156.022949 607.974487 167.015839
v -149.618469 373.317871 157.627747
v -461.108215 541.057678 150.421249
v -454.961365 417.338287 147.614868
v -379.840729 550.060913 55.988075
v -376.772644 423.398926 51.688232
v 39.513428 393.879395 -178.156281
v 118.148438 475.001495 -121.367302
v 65.973145 570.553284 -184.726929
v -11.821411 490.914368 -241.176666
v 185.777039 389.450684 -337.777222
v 244.433411 447.988770 -295.424042
v 206.690857 519.331116 -341.758026
v 148.034485 460.792969 -384.111359
v 277.787048 389.522522 -437.777374
v 320.652344 432.301331 -406.826141
v 293.070557 484.437378 -440.686432
v 250.205383 441.658508 -471.637604
v -258.066467 618.050476 106.333519
v -254.377930 362.071136 95.249504
v -428.998077 605.687988 299.680084
v -416.270874 349.522247 293.869324
v 99.789734 523.746338 -154.417328
v 15.093079 439.220428 -215.573181
v 239.855835 483.026215 -331.210083
v 177.584839 420.880859 -376.173248
v 326.164978 456.177124 -442.855896
v 280.658264 410.762207 -475.714386
v 341.495178 374.653839 -505.458160
v 384.360291 417.432678 -474.506744
v 394.038269 444.448486 -520.644775
v 348.531433 399.033478 -553.503296
v 317.438293 429.447144 -547.872742
v 360.303528 472.226013 -516.921631
v 386.741760 364.992279 -554.767883
v 429.606995 407.771088 -523.816528
v 439.284851 434.786896 -569.954468
v 393.778015 389.371887 -602.812927
v 362.684753 419.785645 -597.182434
v 405.550110 462.564423 -566.231201
v 431.961243 347.941528 -567.200745
v 459.551819 375.476318 -547.278870
v 465.780945 392.865112 -576.975769
v 436.490295 363.633453 -598.125366
v 406.882507 411.891174 -652.086365
v 375.789246 442.304871 -646.455872
v 418.654480 485.083740 -615.504700
v 452.389221 457.306152 -619.227844
v 462.178406 334.985840 -575.472107
v 480.778992 353.549011 -562.041199
v 484.978821 365.272034 -582.062256
v 465.231750 345.565002 -596.320740
v 490.515442 328.907898 -594.171326
v 502.143005 340.511902 -585.775452
v 504.768005 347.840149 -598.290588
v 492.424011 335.520996 -607.203857
v 416.136414 436.507935 -672.345215
v 395.462219 456.730408 -668.601379
v 423.963806 485.174561 -648.021423
v 446.394470 466.704956 -650.497070
vn 0.4151 -0.8353 0.3605
vn -0.2790 0.9251 -0.2577
vn -0.4154 0.8338 -0.3636
vn -0.4589 -0.1696 0.8722
vn 0.4081 0.8810 0.2392
vn -0.6735 -0.5950 -0.4385
vn -0.3404 0.9371 0.0774
vn 0.7991 0.4056 0.4437
vn -0.7202 -0.0617 -0.6911
vn 0.4952 -0.8670 0.0555
vn -0.6697 -0.0501 -0.7410
vn 0.7668 0.1494 0.6242
vn -0.6690 -0.0912 -0.7377
vn 0.4349 -0.8809 -0.1870
vn 0.6657 0.2489 0.7035
vn 0.4435 -0.8743 -0.1974
vn -0.3308 0.9414 0.0667
vn 0.7880 0.1205 0.6038
vn 0.6974 0.3328 0.6347
vn 0.3656 -0.9247 -0.1060
vn -0.6075 -0.2355 -0.7586
vn 0.7053 0.2937 0.6452
vn -0.5791 -0.2624 -0.7719
vn -0.5828 -0.4554 -0.6730
vn 0.5244 0.7533 0.3968
vn -0.8095 -0.0702 -0.5829
vn 0.7165 0.4950 0.4915
vn -0.7210 0.5496 0.4220
vn -0.3779 0.9181 0.1200
vn -0.6710 -0.2410 -0.7012
vn -0.3966 0.9070 0.1418
vn 0.7121 0.1418 0.6876
vn -0.6687 -0.2449 -0.7020
vn -0.7148 -0.1377 -0.6857
vn 0.6577 0.2151 0.7220
vn 0.0147 -0.9670 0.2545
vn 0.7102 0.1459 0.6887
vn 0.6659 0.2522 0.7021
vn -0.7144 -0.1344 -0.6868
vn 0.3779 -0.9181 -0.1200
vn 0.2501 0.8396 -0.4822
vn -0.4923 -0.3118 -0.8127
vn 0.8443 0.0625 0.5323
vn 0.2693 0.8248 -0.4972
vn 0.6875 0.5171 0.5098
vn -0.7238 -0.1718 -0.6682
vn -0.6924 0.4522 0.5622
vn 0.6924 -0.4522 -0.5622
vn -0.0831 0.9783 -0.1897
vn 0.8253 0.0763 0.5596
vn -0.5231 -0.3013 -0.7972
vn -0.0059 -0.9618 0.2736
vn 0.7106 -0.3557 -0.6071
vn 0.8194 0.0804 0.5676
vn -0.5324 -0.2980 -0.7923
vn 0.2585 -0.9659 0.0119
vn 0.2058 0.8706 -0.4468
vn -0.5993 0.1568 -0.7850
vn 0.7215 -0.2326 -0.6522
vn -0.6237 0.6460 0.4401
vn 0.7659 0.0095 0.6429
vn -0.5319 0.4107 -0.7405
vn -0.7662 -0.0100 -0.6426
vn -0.4030 -0.0408 0.9143
vn -0.3929 0.8762 -0.2793
vn 0.0971 -0.9951 0.0163
vn -0.3547 0.7497 -0.5587
vn 0.3922 0.9171 0.0718
vn -0.3358 -0.7730 -0.5382
vn 0.7408 -0.2958 0.6031
vn -0.6059 -0.5450 -0.5795
vn 0.7122 0.5517 0.4341
vn -0.6052 -0.5747 -0.5509
vn 0.4586 -0.7681 0.4469
vn 0.6035 0.6750 0.4244
vn 0.4651 -0.7753 0.4274
vn -0.3425 0.7513 -0.5641
vn 0.7345 0.5199 0.4361
vn 0.6401 0.6984 0.3201
vn 0.3804 -0.7612 0.5253
vn -0.5410 -0.6960 -0.4721
vn 0.6388 0.6860 0.3483
vn -0.5114 -0.7235 -0.4636
vn -0.0925 -0.9728 -0.2126
vn -0.0320 0.9802 -0.1956
vn -0.3290 -0.8869 -0.3242
vn 0.0247 0.9974 0.0681
vn -0.9712 -0.0535 0.2321
vn -0.3937 0.7642 -0.5110
vn -0.6090 -0.6677 -0.4280
vn -0.4141 0.7682 -0.4883
vn 0.6519 0.5848 0.4827
vn -0.6066 -0.6712 -0.4260
vn -0.6547 -0.5806 -0.4840
vn 0.5942 0.6600 0.4597
vn 0.0013 -0.5870 0.8096
vn 0.6498 0.5886 0.4809
vn 0.6037 0.6767 0.4214
vn -0.6542 -0.5787 -0.4869
vn 0.3937 -0.7642 0.5110
vn 0.2823 0.3603 -0.8891
vn -0.4212 -0.7824 -0.4587
vn 0.7970 0.4332 0.4209
vn 0.3029 0.3405 -0.8901
vn 0.6390 0.7618 0.1065
vn -0.6649 -0.5966 -0.4495
vn -0.7399 0.6642 0.1068
vn 0.7399 -0.6642 -0.1068
vn -0.0748 0.6327 -0.7708
vn 0.7757 0.4600 0.4321
vn -0.4532 -0.7664 -0.4553
vn -0.0209 -0.5722 0.8198
vn 0.7610 -0.6167 -0.2015
vn 0.7691 0.4679 0.4353
vn -0.4629 -0.7613 -0.4541
vn 0.2642 -0.7250 0.6361
vn 0.2351 0.4040 -0.8840
vn -0.5338 -0.4086 -0.7403
vn 0.7746 -0.5493 -0.3136
vn -0.6629 0.7411 -0.1062
usemtl Matériau.012
s off
f 131//26 132//26 134//26 133//26
f 138//27 137//27 141//27 142//27
f 137//28 138//28 136//28 135//28
f 153//29 154//29 132//29 131//29
f 151//30 137//30 135//30 153//30
f 152//31 134//31 132//31 154//31
f 142//32 141//32 145//32 146//32
f 151//33 133//33 140//33 155//33
f 152//34 138//34 142//34 156//34
f 133//35 134//35 139//35 140//35
f 158//36 146//36 150//36 160//36
f 155//37 140//37 144//37 157//37
f 156//38 142//38 146//38 158//38
f 140//39 139//39 143//39 144//39
f 149//40 159//40 163//40 166//40
f 144//41 143//41 147//41 148//41
f 146//42 145//42 149//42 150//42
f 157//43 144//43 148//43 159//43
f 145//44 157//44 159//44 149//44
f 148//45 147//45 161//45 162//45
f 139//46 156//46 158//46 143//46
f 141//47 155//47 157//47 145//47
f 143//48 158//48 160//48 147//48
f 134//49 152//49 156//49 139//49
f 137//50 151//50 155//50 141//50
f 138//51 152//51 154//51 136//51
f 133//52 151//52 153//52 131//52
f 135//53 136//53 154//53 153//53
f 165//54 166//54 172//54 171//54
f 161//55 164//55 170//55 167//55
f 150//56 149//56 166//56 165//56
f 159//57 148//57 162//57 163//57
f 147//58 160//58 164//58 161//58
f 160//59 150//59 165//59 164//59
f 172//60 169//60 180//60 179//60
f 168//61 167//61 173//61 174//61
f 163//62 162//62 168//62 169//62
f 166//63 163//63 169//63 172//63
f 164//64 165//64 171//64 170//64
f 162//65 161//65 167//65 168//65
f 176//66 175//66 183//66 184//66
f 167//67 170//67 176//67 173//67
f 169//68 168//68 174//68 175//68
f 170//69 169//69 175//69 176//69
f 179//70 180//70 192//70 191//70
f 170//71 171//71 178//71 177//71
f 171//72 172//72 179//72 178//72
f 169//73 170//73 177//73 180//73
f 184//74 183//74 187//74 188//74
f 175//75 174//75 182//75 183//75
f 173//76 176//76 184//76 181//76
f 174//77 173//77 181//77 182//77
f 186//78 185//78 188//78 187//78
f 183//79 182//79 186//79 187//79
f 181//80 184//80 188//80 185//80
f 182//81 181//81 185//81 186//81
f 192//82 189//82 190//82 191//82
f 177//83 178//83 190//83 189//83
f 180//84 177//84 189//84 192//84
f 178//85 179//85 191//85 190//85
f 193//86 194//86 196//86 195//86
f 200//87 199//87 203//87 204//87
f 199//88 200//88 198//88 197//88
f 215//89 216//89 194//89 193//89
f 213//90 199//90 197//90 215//90
f 214//91 196//91 194//91 216//91
f 204//92 203//92 207//92 208//92
f 213//93 195//93 202//93 217//93
f 214//94 200//94 204//94 218//94
f 195//95 196//95 201//95 202//95
f 220//96 208//96 212//96 222//96
f 217//97 202//97 206//97 219//97
f 218//98 204//98 208//98 220//98
f 202//99 201//99 205//99 206//99
f 211//100 221//100 225//100 228//100
f 206//101 205//101 209//101 210//101
f 208//102 207//102 211//102 212//102
f 219//103 206//103 210//103 221//103
f 207//104 219//104 221//104 211//104
f 210//105 209//105 223//105 224//105
f 201//106 218//106 220//106 205//106
f 203//107 217//107 219//107 207//107
f 205//108 220//108 222//108 209//108
f 196//109 214//109 218//109 201//109
f 199//110 213//110 217//110 203//110
f 200//111 214//111 216//111 198//111
f 195//112 213//112 215//112 193//112
f 197//113 198//113 216//113 215//113
f 227//114 228//114 234//114 233//114
f 223//115 226//115 232//115 229//115
f 212//116 211//116 228//116 227//116
f 221//117 210//117 224//117 225//117
f 209//118 222//118 226//118 223//118
f 222//119 212//119 227//119 226//119
f 234//120 231//120 242//120 241//120
f 230//121 229//121 235//121 236//121
f 225//122 224//122 230//122 231//122
f 228//123 225//123 231//123 234//123
f 226//124 227//124 233//124 232//124
f 224//125 223//125 229//125 230//125
f 238//126 237//126 245//126 246//126
f 229//127 232//127 238//127 235//127
f 231//128 230//128 236//128 237//128
f 232//129 231//129 237//129 238//129
f 241//130 242//130 254//130 253//130
f 232//131 233//131 240//131 239//131
f 233//132 234//132 241//132 240//132
f 231//133 232//133 239//133 242//133
f 246//134 245//134 249//134 250//134
f 237//135 236//135 244//135 245//135
f 235//136 238//136 246//136 243//136
f 236//137 235//137 243//137 244//137
f 248//138 247//138 250//138 249//138
f 245//139 244//139 248//139 249//139
f 243//140 246//140 250//140 247//140
f 244//141 243//141 247//141 248//141
f 254//142 251//142 252//142 253//142
f 239//143 240//143 252//143 251//143
f 242//144 239//144 251//144 254//144
f 240//145 241//145 253//145 252//145
