# Blender v2.91.2 OBJ File: 'camionnete02.blend'
# www.blender.org
mtllib arme_000042.mtl
o Cube.046_Cube.010
v 196.420929 415.958069 -1142.044189
v 133.139740 205.168121 -1130.118652
v 264.876709 383.695404 -1349.051270
v 201.595490 172.905457 -1337.125977
v -3.299835 471.688141 -1216.776123
v -66.581078 260.898254 -1204.850586
v 65.155930 439.425476 -1423.783203
v 1.874664 228.635590 -1411.857910
v 102.170883 460.377289 -857.036133
v 38.889679 249.587433 -845.110596
v -160.831085 305.317535 -919.842407
v -97.549850 516.107422 -931.768005
v 59.516602 480.479950 -728.051208
v -3.764656 269.690033 -716.125732
v -203.485458 325.420166 -790.857544
v -140.204239 536.210022 -802.783081
v 34.318314 492.355621 -651.852783
v -7.350006 336.997620 -655.852783
v -207.070831 392.727844 -730.584656
v -165.402496 548.085876 -726.584595
v 116.875656 453.447052 -901.502625
v 53.594437 242.657196 -889.577087
v -82.845154 509.177216 -976.234497
v -146.126389 298.387329 -964.308899
v 240.709686 395.085114 -1275.971436
v 177.428467 184.295197 -1264.046143
v 40.988922 450.815216 -1350.703369
v -22.292282 240.025299 -1338.777832
v 165.016327 411.560455 -1386.417480
v 101.735092 200.770477 -1374.491943
v 96.560577 443.823151 -1179.410156
v 33.279327 233.033173 -1167.484619
v 2.310516 488.242401 -894.402100
v -60.970711 277.452423 -882.476440
v -40.343788 508.345001 -765.417114
v -96.077866 306.247162 -740.633728
v -65.542084 520.220703 -689.218628
v -98.495476 351.632935 -699.991699
v -46.265984 270.522217 -926.942993
v 17.015228 481.312103 -938.868530
v 77.568054 212.160248 -1301.411865
v 140.849335 422.950195 -1313.337402
v 214.946564 397.627930 -1367.734375
v 83.209549 219.100647 -1148.801514
v -11.040543 263.519928 -863.793579
v -62.409805 296.852386 -728.035889
v -64.827423 342.238129 -687.393677
v 66.945450 467.379608 -920.185547
v 190.779510 409.017670 -1294.654541
v 151.665283 186.837982 -1355.808838
v 146.490723 429.890594 -1160.727295
v 52.240692 474.309845 -875.719177
v 9.586395 494.412506 -746.734192
v -15.611900 506.288177 -670.535706
v 3.664215 256.589691 -908.260010
v 127.498230 198.227722 -1282.729004
v -8.184311 217.122162 -906.027100
v -58.114510 231.054718 -924.710022
v 115.649689 158.760162 -1280.496094
v 65.719528 172.692719 -1299.178955
v 21.430786 193.565643 -1165.251709
v 71.360992 179.633087 -1146.568604
v 294.900909 318.623016 -1203.788818
v 275.316864 327.852783 -1144.567627
v 247.334686 234.643646 -1139.294189
v 266.918610 225.413849 -1198.515625
v 338.059540 306.580048 -1187.639893
v 318.475494 315.809845 -1128.418457
v 290.493256 222.600677 -1123.145020
v 310.077240 213.370911 -1182.366455
v 404.105927 288.150482 -1162.926514
v 384.521942 297.380249 -1103.705322
v 356.539642 204.171112 -1098.431885
v 376.123627 194.941376 -1157.653320
v 446.606049 276.291229 -1147.023926
v 427.021942 285.520996 -1087.802490
v 399.039764 192.311859 -1082.529175
v 418.623749 183.082123 -1141.750488
v 376.555878 80.849281 -2035.866943
v 326.625702 94.781776 -2054.550049
v 389.906830 305.571777 -2066.475586
v 439.837128 291.639191 -2047.792725
vn 0.9061 -0.2529 0.3391
vn 0.3106 -0.1464 -0.9392
vn -0.9061 0.2529 -0.3391
vn 0.2871 0.9564 -0.0541
vn -0.2871 -0.9564 0.0541
vn -0.4209 -0.6175 0.6645
vn -0.3674 -0.9283 0.0569
vn -0.4143 0.0586 0.9083
vn -0.9067 0.2526 -0.3378
vn 0.9067 -0.2526 0.3378
vn 0.6421 -0.2341 -0.7300
vn -0.3021 0.0261 0.9529
vn -0.2598 -0.9606 0.0988
vn -0.3484 0.0082 0.9373
vn -0.3069 -0.9447 0.1158
vn -0.3106 0.1464 0.9392
vn 0.0710 0.0351 0.9969
vn 0.2605 -0.9371 0.2322
vn 0.7394 0.6581 0.1420
usemtl Matériau.011
s off
f 25//1 26//1 4//1 3//1
f 29//2 30//2 8//2 7//2
f 27//3 28//3 6//3 5//3
f 22//1 21//1 9//1 10//1
f 42//4 27//4 5//4 31//4
f 56//5 26//5 2//5 44//5
f 10//1 9//1 13//1 14//1
f 55//5 22//5 10//5 45//5
f 23//3 24//3 11//3 12//3
f 46//6 14//6 18//6 47//6
f 45//7 10//7 14//7 46//7
f 12//3 11//3 15//3 16//3
f 33//4 12//4 16//4 35//4
f 54//8 47//8 18//8 17//8
f 16//9 15//9 19//9 20//9
f 14//10 13//10 17//10 18//10
f 5//3 6//3 24//3 23//3
f 44//5 2//5 22//5 55//5
f 31//4 5//4 23//4 40//4
f 2//1 1//1 21//1 22//1
f 50//5 4//5 26//5 56//5
f 29//4 7//4 27//4 42//4
f 7//3 8//3 28//3 27//3
f 26//11 25//11 63//11 66//11
f 43//4 29//4 42//4 49//4
f 8//5 30//5 41//5 28//5
f 51//4 31//4 40//4 48//4
f 6//5 32//5 39//5 24//5
f 20//12 19//12 38//12 37//12
f 52//4 33//4 35//4 53//4
f 11//13 34//13 36//13 15//13
f 15//6 36//6 38//6 19//6
f 24//5 39//5 34//5 11//5
f 28//5 41//5 32//5 6//5
f 49//4 42//4 31//4 51//4
f 30//3 29//3 81//3 80//3
f 3//2 4//2 50//2 43//2
f 25//4 49//4 51//4 1//4
f 9//4 52//4 53//4 13//4
f 1//4 51//4 48//4 21//4
f 3//4 43//4 49//4 25//4
f 30//5 50//5 56//5 41//5
f 32//3 41//3 60//3 61//3
f 37//14 38//14 47//14 54//14
f 34//15 45//15 46//15 36//15
f 36//6 46//6 47//6 38//6
f 39//5 55//5 45//5 34//5
f 55//16 39//16 58//16 57//16
f 61//5 62//5 57//5 58//5
f 60//5 59//5 62//5 61//5
f 39//3 32//3 61//3 58//3
f 44//1 55//1 57//1 62//1
f 41//2 56//2 59//2 60//2
f 56//1 44//1 62//1 59//1
f 66//2 63//2 67//2 70//2
f 1//17 2//17 65//17 64//17
f 2//18 26//18 66//18 65//18
f 25//19 1//19 64//19 63//19
f 69//5 70//5 74//5 73//5
f 64//16 65//16 69//16 68//16
f 65//5 66//5 70//5 69//5
f 63//4 64//4 68//4 67//4
f 73//5 74//5 78//5 77//5
f 67//4 68//4 72//4 71//4
f 70//2 67//2 71//2 74//2
f 68//16 69//16 73//16 72//16
f 76//1 77//1 78//1 75//1
f 71//4 72//4 76//4 75//4
f 74//2 71//2 75//2 78//2
f 82//2 79//2 80//2 81//2
f 50//5 30//5 80//5 79//5
f 43//1 50//1 79//1 82//1
f 29//4 43//4 82//4 81//4
o Cube.048_Cube.024
v -563.283386 458.937561 181.990494
v -725.348694 340.638794 47.313904
v -423.676453 489.522766 -12.873634
v -586.318848 374.204773 -145.162323
v -681.192993 646.055969 53.871994
v -764.288330 585.400879 -15.180428
v -609.612610 661.737915 -46.040283
v -692.098694 601.949707 -114.629601
v -413.834412 475.680969 -437.982697
v -300.310791 511.786407 -395.187714
v -329.028351 632.385864 -420.755280
v -442.551941 596.280457 -463.550262
v -320.873688 473.944946 -633.550659
v -237.408691 500.490479 -602.086731
v -258.522400 589.157898 -620.884705
v -341.987549 562.612427 -652.348450
v -261.320801 475.380981 -755.686951
v -200.325623 494.780090 -732.693604
v -215.755402 559.577148 -746.430725
v -276.750610 540.177979 -769.424011
v -485.391602 595.148865 -17.820717
v -656.879578 473.258026 -158.215271
v -633.721375 562.617737 189.041718
v -805.773560 437.028992 46.065956
v -309.046478 572.614014 -411.797394
v -429.565857 534.283691 -457.229523
v -238.231903 543.672058 -627.852905
v -326.840515 515.490723 -661.255676
v -195.846619 524.939087 -763.821838
v -260.600555 504.344604 -788.232056
v -224.799683 462.184418 -841.434021
v -163.804504 481.583496 -818.440674
v -156.903564 516.196167 -859.751038
v -221.657349 495.601624 -884.161377
v -238.179749 530.750488 -863.788330
v -177.184509 550.149536 -840.794983
v -198.854370 453.973450 -903.332703
v -137.859070 473.372589 -880.339478
v -130.958191 507.985168 -921.649780
v -195.712036 487.390686 -946.060181
v -212.234375 522.539429 -925.687073
v -151.239197 541.938599 -902.693787
v -166.575256 429.086029 -932.121643
v -127.315430 441.572388 -917.321655
v -122.873474 463.850952 -943.911438
v -164.552734 450.595154 -959.623230
v -187.986267 517.745422 -992.164490
v -204.508606 552.894226 -971.791443
v -143.513428 572.293335 -948.798035
v -123.232361 538.339905 -967.754089
v -145.529419 411.003601 -951.600708
v -119.061523 419.421539 -941.623047
v -116.066833 434.441162 -959.549011
v -144.165771 425.504547 -970.141541
v -126.356445 402.578400 -979.004944
v -109.810913 407.840576 -972.767883
v -107.939148 417.229462 -983.973450
v -125.504089 411.643036 -990.595032
v -176.057678 543.339355 -1009.620300
v -187.043640 566.710266 -996.073792
v -146.487061 579.608948 -980.785217
v -133.001892 557.032898 -993.389587
v -303.023285 504.099976 455.744110
v -296.713379 305.657593 317.982147
v -153.195618 606.516113 294.413696
v -154.341187 420.044800 159.731445
v -461.960144 560.651855 263.725159
v -458.724915 458.904877 193.090729
v -385.927612 618.263306 185.438416
v -385.726746 517.554321 111.951157
v 6.901184 679.459290 -106.155342
v 83.112732 708.806946 -9.993080
v 7.084167 804.365295 20.561150
v -68.626770 775.837036 -74.069679
v 119.549744 826.909424 -217.780884
v 176.242371 847.768860 -146.986206
v 120.712585 918.627930 -123.396126
v 64.019836 897.768555 -194.190887
v 190.086426 921.212524 -285.585083
v 231.516541 936.456299 -233.849213
v 190.936096 988.239136 -216.609772
v 149.505798 972.995361 -268.345703
v -259.505310 645.423767 256.901947
v -262.546936 443.752991 107.563248
v -420.391357 532.987915 421.817139
v -413.692566 322.316772 275.565857
v 51.546265 760.298523 5.800163
v -30.315002 730.178589 -96.423729
v 160.076843 895.314453 -144.280334
v 99.890503 873.169495 -219.437592
v 226.692444 979.341125 -239.867096
v 182.709045 963.157898 -294.790985
v 241.334961 975.737915 -342.690704
v 282.765198 990.981445 -290.954865
v 279.636536 1044.214722 -301.379700
v 235.653137 1028.031494 -356.303711
v 202.189392 1036.278198 -329.180969
v 243.619690 1051.522217 -277.445068
v 277.371033 1015.944641 -383.395325
v 318.801270 1031.188354 -331.659424
v 315.672607 1084.421631 -342.084320
v 271.689331 1068.238281 -397.008301
v 238.225403 1076.485107 -369.885620
v 279.655701 1091.728882 -318.149628
v 321.385010 1024.593018 -405.260773
v 348.051819 1034.404785 -371.960571
v 346.038025 1068.668457 -378.670746
v 317.728027 1058.251953 -414.022705
v 271.936340 1121.649292 -412.943481
v 238.472473 1129.895996 -385.820770
v 279.902710 1145.139771 -334.084869
v 315.919556 1137.832275 -358.019318
v 351.024597 1029.336426 -421.018768
v 369.002747 1035.951172 -398.568756
v 367.645203 1059.051025 -403.092743
v 348.559265 1052.028564 -426.925964
v 375.895447 1045.653198 -438.477356
v 387.133728 1049.788208 -424.443604
v 386.284973 1064.228027 -427.271332
v 374.354187 1059.838135 -442.169800
v 273.617981 1154.440430 -408.049622
v 251.367432 1159.923828 -390.015411
v 278.914856 1170.059570 -355.615540
v 302.863098 1165.200928 -371.529999
vn 0.4648 -0.8645 0.1912
vn -0.2990 0.9172 -0.2634
vn -0.4651 0.8633 -0.1959
vn -0.4335 -0.3510 0.8300
vn 0.3636 0.8445 0.3933
vn -0.6374 -0.5331 -0.5563
vn -0.1967 0.9418 -0.2727
vn 0.8535 0.4039 0.3294
vn -0.7989 -0.0856 -0.5953
vn 0.4610 -0.8865 0.0395
vn -0.8760 -0.1812 -0.4470
vn 0.9396 0.1996 0.2781
vn -0.8786 -0.2164 -0.4258
vn 0.2557 -0.9580 0.1300
vn 0.8808 0.3433 0.3260
vn 0.2611 -0.9583 0.1160
vn -0.1907 0.9390 -0.2862
vn 0.9498 0.1609 0.2684
vn 0.8970 0.3827 0.2214
vn 0.2124 -0.9481 0.2364
vn -0.8427 -0.3672 -0.3938
vn 0.9037 0.3504 0.2461
vn -0.8232 -0.4030 -0.4000
vn -0.6603 -0.4798 -0.5778
vn 0.5849 0.7548 0.2968
vn -0.8067 -0.0194 -0.5906
vn 0.6981 0.4350 0.5687
vn -0.7415 0.4225 0.5212
vn -0.2201 0.9507 -0.2184
vn -0.8842 -0.3341 -0.3263
vn -0.2318 0.9540 -0.1901
vn 0.9081 0.2311 0.3493
vn -0.8828 -0.3385 -0.3258
vn -0.9095 -0.2261 -0.3489
vn 0.8758 0.3226 0.3591
vn -0.0042 -0.7588 0.6513
vn 0.9070 0.2356 0.3489
vn 0.8809 0.3456 0.3234
vn -0.9091 -0.2237 -0.3514
vn 0.2201 -0.9507 0.2184
vn 0.1654 0.4926 -0.8544
vn -0.7600 -0.4836 -0.4341
vn 0.9733 0.0677 0.2193
vn 0.1771 0.4689 -0.8653
vn 0.8662 0.4987 0.0335
vn -0.9159 -0.2472 -0.3163
vn -0.4201 0.7887 0.4489
vn 0.4201 -0.7887 -0.4489
vn -0.0378 0.8109 -0.5840
vn 0.9658 0.0953 0.2412
vn -0.7829 -0.4609 -0.4180
vn -0.0168 -0.7418 0.6704
vn 0.4326 -0.7254 -0.5355
vn 0.9633 0.1035 0.2476
vn -0.7897 -0.4538 -0.4130
vn 0.1459 -0.9123 0.3826
vn 0.1386 0.5446 -0.8272
vn -0.8027 -0.0321 -0.5956
vn 0.4410 -0.6369 -0.6324
vn -0.3751 0.8954 0.2397
vn 0.7974 -0.3414 0.4975
vn -0.6073 0.7379 -0.2945
vn -0.7978 0.3406 -0.4975
vn -0.3537 -0.5410 0.7630
vn -0.3643 0.8917 0.2686
vn 0.0757 -0.8392 -0.5385
vn -0.5552 0.8065 0.2036
vn 0.3574 0.6950 0.6239
vn -0.3551 -0.2804 -0.8918
vn 0.8135 -0.5351 0.2277
vn -0.6208 -0.0738 -0.7805
vn 0.6964 0.2073 0.6871
vn -0.6105 -0.1136 -0.7838
vn 0.6375 -0.7125 -0.2932
vn 0.5708 0.2699 0.7755
vn 0.6425 -0.7018 -0.3077
vn -0.5458 0.8144 0.1971
vn 0.7224 0.1920 0.6643
vn 0.5834 0.3693 0.7234
vn 0.5766 -0.7837 -0.2308
vn -0.5161 -0.2341 -0.8239
vn 0.5870 0.3422 0.7337
vn -0.4819 -0.2511 -0.8395
vn -0.0853 -0.6140 -0.7847
vn -0.0783 0.8659 0.4940
vn -0.3657 -0.5665 -0.7385
vn 0.0575 0.8078 0.5867
vn -0.9582 -0.1831 0.2199
vn -0.5873 0.7721 0.2428
vn -0.5779 -0.2638 -0.7723
vn -0.6034 0.7534 0.2612
vn 0.6417 0.1806 0.7454
vn -0.5747 -0.2670 -0.7736
vn -0.6452 -0.1776 -0.7431
vn 0.5706 0.2324 0.7877
vn 0.2371 -0.9668 0.0950
vn 0.6388 0.1839 0.7471
vn 0.5703 0.2732 0.7747
vn -0.6456 -0.1742 -0.7436
vn 0.5873 -0.7721 -0.2428
vn 0.0556 0.9448 -0.3229
vn -0.3849 -0.2715 -0.8821
vn 0.7925 0.1617 0.5881
vn 0.0781 0.9376 -0.3388
vn 0.5331 0.5651 0.6296
vn -0.6464 -0.2154 -0.7320
vn -0.7930 0.1775 0.5827
vn 0.7930 -0.1775 -0.5827
vn -0.3078 0.9509 -0.0337
vn 0.7701 0.1659 0.6160
vn -0.4177 -0.2711 -0.8672
vn 0.2154 -0.9699 0.1133
vn 0.7889 -0.0731 -0.6102
vn 0.7632 0.1671 0.6242
vn -0.4276 -0.2710 -0.8624
vn 0.4795 -0.8681 -0.1282
vn 0.0044 0.9583 -0.2859
vn -0.6004 0.1481 -0.7858
vn 0.7714 0.0551 -0.6340
vn -0.7693 0.4000 0.4982
usemtl Matériau.012
s off
f 83//20 84//20 86//20 85//20
f 90//21 89//21 93//21 94//21
f 89//22 90//22 88//22 87//22
f 105//23 106//23 84//23 83//23
f 103//24 89//24 87//24 105//24
f 104//25 86//25 84//25 106//25
f 94//26 93//26 97//26 98//26
f 103//27 85//27 92//27 107//27
f 104//28 90//28 94//28 108//28
f 85//29 86//29 91//29 92//29
f 110//30 98//30 102//30 112//30
f 107//31 92//31 96//31 109//31
f 108//32 94//32 98//32 110//32
f 92//33 91//33 95//33 96//33
f 101//34 111//34 115//34 118//34
f 96//35 95//35 99//35 100//35
f 98//36 97//36 101//36 102//36
f 109//37 96//37 100//37 111//37
f 97//38 109//38 111//38 101//38
f 100//39 99//39 113//39 114//39
f 91//40 108//40 110//40 95//40
f 93//41 107//41 109//41 97//41
f 95//42 110//42 112//42 99//42
f 86//43 104//43 108//43 91//43
f 89//44 103//44 107//44 93//44
f 90//45 104//45 106//45 88//45
f 85//46 103//46 105//46 83//46
f 87//47 88//47 106//47 105//47
f 117//48 118//48 124//48 123//48
f 113//49 116//49 122//49 119//49
f 102//50 101//50 118//50 117//50
f 111//51 100//51 114//51 115//51
f 99//52 112//52 116//52 113//52
f 112//53 102//53 117//53 116//53
f 124//54 121//54 132//54 131//54
f 120//55 119//55 125//55 126//55
f 115//56 114//56 120//56 121//56
f 118//57 115//57 121//57 124//57
f 116//58 117//58 123//58 122//58
f 114//59 113//59 119//59 120//59
f 128//60 127//60 135//60 136//60
f 119//61 122//61 128//61 125//61
f 121//62 120//62 126//62 127//62
f 122//63 121//63 127//63 128//63
f 131//64 132//64 144//64 143//64
f 122//65 123//65 130//65 129//65
f 123//66 124//66 131//66 130//66
f 121//67 122//67 129//67 132//67
f 136//68 135//68 139//68 140//68
f 127//69 126//69 134//69 135//69
f 125//70 128//70 136//70 133//70
f 126//71 125//71 133//71 134//71
f 138//72 137//72 140//72 139//72
f 135//73 134//73 138//73 139//73
f 133//74 136//74 140//74 137//74
f 134//75 133//75 137//75 138//75
f 144//76 141//76 142//76 143//76
f 129//77 130//77 142//77 141//77
f 132//78 129//78 141//78 144//78
f 130//79 131//79 143//79 142//79
f 145//80 146//80 148//80 147//80
f 152//81 151//81 155//81 156//81
f 151//82 152//82 150//82 149//82
f 167//83 168//83 146//83 145//83
f 165//84 151//84 149//84 167//84
f 166//85 148//85 146//85 168//85
f 156//86 155//86 159//86 160//86
f 165//87 147//87 154//87 169//87
f 166//88 152//88 156//88 170//88
f 147//89 148//89 153//89 154//89
f 172//90 160//90 164//90 174//90
f 169//91 154//91 158//91 171//91
f 170//92 156//92 160//92 172//92
f 154//93 153//93 157//93 158//93
f 163//94 173//94 177//94 180//94
f 158//95 157//95 161//95 162//95
f 160//96 159//96 163//96 164//96
f 171//97 158//97 162//97 173//97
f 159//98 171//98 173//98 163//98
f 162//99 161//99 175//99 176//99
f 153//100 170//100 172//100 157//100
f 155//101 169//101 171//101 159//101
f 157//102 172//102 174//102 161//102
f 148//103 166//103 170//103 153//103
f 151//104 165//104 169//104 155//104
f 152//105 166//105 168//105 150//105
f 147//106 165//106 167//106 145//106
f 149//107 150//107 168//107 167//107
f 179//108 180//108 186//108 185//108
f 175//109 178//109 184//109 181//109
f 164//110 163//110 180//110 179//110
f 173//111 162//111 176//111 177//111
f 161//112 174//112 178//112 175//112
f 174//113 164//113 179//113 178//113
f 186//114 183//114 194//114 193//114
f 182//115 181//115 187//115 188//115
f 177//116 176//116 182//116 183//116
f 180//117 177//117 183//117 186//117
f 178//118 179//118 185//118 184//118
f 176//119 175//119 181//119 182//119
f 190//120 189//120 197//120 198//120
f 181//121 184//121 190//121 187//121
f 183//122 182//122 188//122 189//122
f 184//123 183//123 189//123 190//123
f 193//124 194//124 206//124 205//124
f 184//125 185//125 192//125 191//125
f 185//126 186//126 193//126 192//126
f 183//127 184//127 191//127 194//127
f 198//128 197//128 201//128 202//128
f 189//129 188//129 196//129 197//129
f 187//130 190//130 198//130 195//130
f 188//131 187//131 195//131 196//131
f 200//132 199//132 202//132 201//132
f 197//133 196//133 200//133 201//133
f 195//134 198//134 202//134 199//134
f 196//135 195//135 199//135 200//135
f 206//136 203//136 204//136 205//136
f 191//137 192//137 204//137 203//137
f 194//138 191//138 203//138 206//138
f 192//139 193//139 205//139 204//139
