# Blender v2.91.2 OBJ File: 'camionnete02.blend'
# www.blender.org
mtllib arme_000205.mtl
o Cube.046_Cube.010
v 45.740311 65.760651 -1230.750488
v -16.179901 -136.543213 -1168.959229
v 82.575455 -7.952057 -1435.173340
v 20.655212 -210.255920 -1373.382324
v -162.557953 112.863678 -1285.268799
v -224.478210 -89.440186 -1223.477661
v -125.722778 39.150970 -1489.691528
v -187.643051 -163.152954 -1427.900635
v -4.974457 167.248413 -949.300598
v -66.894676 -35.055359 -887.509460
v -275.192902 12.047638 -942.027710
v -213.272659 214.351501 -1003.818909
v -27.926147 213.178375 -821.926025
v -89.846428 10.874527 -760.134949
v -298.144653 57.977554 -814.653198
v -236.224426 260.281403 -876.444397
v -41.485046 240.311707 -746.678955
v -84.101624 88.583740 -714.262634
v -292.399902 135.686798 -768.780945
v -249.783295 287.414764 -801.197144
v 2.937988 151.414490 -993.211914
v -58.982231 -50.889328 -931.420837
v -205.360275 198.517517 -1047.730347
v -267.280518 -3.786331 -985.939087
v 69.571472 18.070831 -1363.005615
v 7.651230 -184.233063 -1301.214722
v -138.726761 65.173828 -1417.523926
v -200.646942 -137.130035 -1355.732788
v -21.573639 15.599457 -1462.432495
v -83.493896 -186.704468 -1400.641357
v -58.408813 89.312195 -1258.009644
v -120.329071 -112.991730 -1196.218384
v -109.123535 190.799988 -976.559753
v -171.043793 -11.503876 -914.768555
v -132.075287 236.729919 -849.185181
v -184.579773 45.163208 -777.704285
v -145.634140 263.863251 -773.938049
v -180.706039 97.562775 -746.772522
v -163.131378 -27.337845 -958.679932
v -101.211136 174.966034 -1020.471191
v -96.497879 -160.681549 -1328.473755
v -34.577591 41.622375 -1390.264771
v 30.500977 3.823761 -1448.802734
v -68.254486 -124.767456 -1182.588745
v -118.969276 -23.279617 -901.139038
v -149.465759 37.222778 -768.513855
v -145.592010 89.622345 -737.581970
v -49.136566 163.190247 -1006.841492
v 17.496918 29.846558 -1376.635376
v -31.419342 -198.480225 -1387.011841
v -6.334305 77.536438 -1244.380005
v -57.049026 179.024231 -962.930176
v -80.000732 224.954193 -835.555603
v -93.559601 252.087463 -760.308411
v -111.056816 -39.113586 -945.050415
v -44.423386 -172.457306 -1314.844238
v -122.650497 -76.992264 -933.480835
v -174.725067 -65.216461 -947.110352
v -56.017105 -210.335968 -1303.274780
v -108.091591 -198.560211 -1316.904175
v -131.922821 -150.870331 -1184.648926
v -79.848236 -162.646118 -1171.019409
v 133.463898 -44.908295 -1285.902710
v 122.925964 -23.820374 -1227.420776
v 95.545609 -113.277069 -1200.097412
v 106.083389 -134.365021 -1258.579346
v 178.476013 -55.087006 -1274.121826
v 167.938080 -33.999054 -1215.639771
v 140.557648 -123.455750 -1188.316406
v 151.095551 -144.543701 -1246.798340
v 247.358948 -70.663666 -1256.093018
v 236.821014 -49.575714 -1197.610962
v 209.440521 -139.032410 -1170.287598
v 219.978363 -160.120392 -1228.769653
v 291.684235 -80.687164 -1244.491699
v 281.146332 -59.599121 -1186.009766
v 253.765961 -149.055847 -1158.686279
v 264.303772 -170.143768 -1217.168213
v 89.591614 -440.640289 -2058.579590
v 37.517029 -428.864532 -2072.209229
v 99.437134 -226.560577 -2134.000488
v 151.511810 -238.336334 -2120.370850
vn 0.9451 -0.2137 0.2474
vn 0.1671 -0.3344 -0.9275
vn -0.9451 0.2137 -0.2474
vn 0.2809 0.9179 -0.2804
vn -0.2809 -0.9179 0.2804
vn -0.3210 -0.4637 0.8258
vn -0.3598 -0.8871 0.2892
vn -0.2747 0.2459 0.9296
vn -0.9454 0.2137 -0.2460
vn 0.9454 -0.2137 0.2460
vn 0.5255 -0.3916 -0.7553
vn -0.1573 0.2188 0.9630
vn -0.2473 -0.9144 0.3206
vn -0.2056 0.1998 0.9580
vn -0.2913 -0.8939 0.3408
vn -0.1671 0.3344 0.9275
vn 0.2182 0.2234 0.9500
vn 0.2872 -0.8834 0.3703
vn 0.7558 0.6476 -0.0973
vn 0.2809 0.9179 -0.2803
usemtl Matériau.011
s off
f 25//1 26//1 4//1 3//1
f 29//2 30//2 8//2 7//2
f 27//3 28//3 6//3 5//3
f 22//1 21//1 9//1 10//1
f 42//4 27//4 5//4 31//4
f 56//5 26//5 2//5 44//5
f 10//1 9//1 13//1 14//1
f 55//5 22//5 10//5 45//5
f 23//3 24//3 11//3 12//3
f 46//6 14//6 18//6 47//6
f 45//7 10//7 14//7 46//7
f 12//3 11//3 15//3 16//3
f 33//4 12//4 16//4 35//4
f 54//8 47//8 18//8 17//8
f 16//9 15//9 19//9 20//9
f 14//10 13//10 17//10 18//10
f 5//3 6//3 24//3 23//3
f 44//5 2//5 22//5 55//5
f 31//4 5//4 23//4 40//4
f 2//1 1//1 21//1 22//1
f 50//5 4//5 26//5 56//5
f 29//4 7//4 27//4 42//4
f 7//3 8//3 28//3 27//3
f 26//11 25//11 63//11 66//11
f 43//4 29//4 42//4 49//4
f 8//5 30//5 41//5 28//5
f 51//4 31//4 40//4 48//4
f 6//5 32//5 39//5 24//5
f 20//12 19//12 38//12 37//12
f 52//4 33//4 35//4 53//4
f 11//13 34//13 36//13 15//13
f 15//6 36//6 38//6 19//6
f 24//5 39//5 34//5 11//5
f 28//5 41//5 32//5 6//5
f 49//4 42//4 31//4 51//4
f 30//3 29//3 81//3 80//3
f 3//2 4//2 50//2 43//2
f 25//4 49//4 51//4 1//4
f 9//4 52//4 53//4 13//4
f 1//4 51//4 48//4 21//4
f 3//4 43//4 49//4 25//4
f 30//5 50//5 56//5 41//5
f 32//3 41//3 60//3 61//3
f 37//14 38//14 47//14 54//14
f 34//15 45//15 46//15 36//15
f 36//6 46//6 47//6 38//6
f 39//5 55//5 45//5 34//5
f 55//16 39//16 58//16 57//16
f 61//5 62//5 57//5 58//5
f 60//5 59//5 62//5 61//5
f 39//3 32//3 61//3 58//3
f 44//1 55//1 57//1 62//1
f 41//2 56//2 59//2 60//2
f 56//1 44//1 62//1 59//1
f 66//2 63//2 67//2 70//2
f 1//17 2//17 65//17 64//17
f 2//18 26//18 66//18 65//18
f 25//19 1//19 64//19 63//19
f 69//5 70//5 74//5 73//5
f 64//16 65//16 69//16 68//16
f 65//5 66//5 70//5 69//5
f 63//4 64//4 68//4 67//4
f 73//5 74//5 78//5 77//5
f 67//20 68//20 72//20 71//20
f 70//2 67//2 71//2 74//2
f 68//16 69//16 73//16 72//16
f 76//1 77//1 78//1 75//1
f 71//4 72//4 76//4 75//4
f 74//2 71//2 75//2 78//2
f 82//2 79//2 80//2 81//2
f 50//5 30//5 80//5 79//5
f 43//1 50//1 79//1 82//1
f 29//4 43//4 82//4 81//4
o Cube.048_Cube.024
v -474.262146 568.226624 133.658600
v -667.844482 425.235535 111.818817
v -381.475281 473.465240 -68.352409
v -575.479980 330.199402 -90.556770
v -609.788086 680.511414 -51.692879
v -709.043152 607.195862 -62.890785
v -562.213623 631.924622 -155.269653
v -660.960999 558.779053 -166.058105
v -453.054443 280.251892 -471.225433
v -334.252228 320.020996 -453.140350
v -365.809204 434.373779 -497.301727
v -484.611511 394.604645 -515.386719
v -390.129120 237.843048 -674.039062
v -302.783051 267.082153 -660.742615
v -325.984436 351.156952 -693.210999
v -413.330566 321.917786 -706.507507
v -349.337189 213.778778 -801.407959
v -285.505829 235.146393 -791.690979
v -302.461121 296.587097 -815.418457
v -366.292603 275.219482 -825.135376
v -437.963013 570.090942 -117.687798
v -642.870605 419.100403 -140.276550
v -536.551025 670.778259 96.725227
v -742.062500 518.975586 73.539642
v -345.034332 376.789429 -479.847626
v -471.157532 334.569641 -499.047089
v -307.190674 304.516418 -694.036377
v -399.919434 273.475464 -708.152283
v -285.533295 258.598206 -828.414368
v -353.298218 235.913940 -838.730042
v -326.003510 183.131958 -887.296326
v -262.172150 204.499481 -877.579285
v -261.290833 230.282318 -925.398743
v -329.055725 207.598022 -935.714294
v -342.189667 246.545227 -920.414246
v -278.358337 267.912842 -910.697327
v -309.566254 162.312866 -949.492981
v -245.734863 183.680542 -939.776184
v -244.853638 209.463348 -987.595154
v -312.618469 186.779053 -997.910950
v -325.752533 225.726257 -982.610779
v -261.921082 247.093811 -972.893982
v -282.043610 131.278809 -977.233215
v -240.958466 145.032104 -970.978699
v -240.391083 161.627441 -1001.757874
v -284.008331 147.026550 -1008.397644
v -311.654541 207.437286 -1049.670166
v -324.788513 246.384583 -1034.369995
v -260.957245 267.752167 -1024.653198
v -243.889740 230.121704 -1039.354492
v -264.214081 109.088257 -995.645691
v -236.515442 118.360352 -991.429138
v -236.132935 129.548462 -1012.179626
v -265.538483 119.704956 -1016.655945
v -249.360779 94.911743 -1023.358215
v -232.046082 100.707886 -1020.722351
v -231.807037 107.701538 -1033.693726
v -250.188660 101.548218 -1036.492065
v -302.311737 228.783325 -1073.315552
v -311.044739 254.679901 -1063.141968
v -268.602539 268.887390 -1056.681274
v -257.254150 243.866455 -1066.456421
v -320.125641 423.213257 487.672028
v -376.690552 242.853149 337.112274
v -152.311584 502.630493 328.731415
v -214.044922 324.545044 178.145615
v -463.822174 537.717407 309.991425
v -492.824585 445.241821 232.795227
v -369.409058 581.325073 229.245789
v -409.431671 487.127502 151.288544
v -145.768127 382.779602 -90.863594
v -72.010803 303.883850 -28.305611
v 29.180908 360.482727 -73.654762
v -41.632080 438.719910 -136.129547
v -126.842407 248.716888 -259.862183
v -73.969238 187.140686 -214.322357
v 2.593933 228.269257 -247.602753
v -50.279175 289.845428 -293.142670
v -112.161743 164.354065 -365.376495
v -73.522827 119.355042 -332.096497
v -17.571472 149.411255 -356.417389
v -56.210388 194.410217 -389.697388
v -233.964600 570.592896 294.964111
v -312.918884 382.051361 134.452896
v -425.536621 486.799774 463.053314
v -485.587280 295.325378 303.215607
v -19.683899 321.027283 -54.099503
v -96.029846 409.940063 -119.856789
v -34.442505 194.382996 -244.561462
v -90.573792 259.753754 -292.907471
v -44.909546 116.542847 -364.837341
v -85.929565 164.314941 -400.168091
v -116.987793 105.812378 -438.929688
v -78.348938 60.813477 -405.649689
v -45.204590 54.597839 -448.252960
v -86.224609 102.369812 -483.583832
v -57.201965 132.988342 -471.597137
v -18.563049 87.989319 -438.317200
v -119.356628 64.327698 -492.272491
v -80.717651 19.328613 -458.992584
v -47.573242 13.113098 -501.595917
v -88.593384 60.885254 -536.926514
v -59.570618 91.503662 -524.939941
v -20.931702 46.504639 -491.659943
v -134.061218 20.136353 -510.189484
v -109.191101 -8.827515 -488.768646
v -87.857544 -12.828186 -516.190613
v -114.260315 17.920593 -538.931458
v -59.439392 51.480225 -583.491699
v -30.416809 82.098755 -571.505005
v 8.222168 37.099609 -538.225159
v -18.419373 3.708313 -548.161072
v -145.439392 -9.397522 -522.338928
v -128.672729 -28.924377 -507.897614
v -114.290344 -31.621704 -526.384888
v -132.090271 -10.891479 -541.716003
v -148.606750 -36.279541 -543.714661
v -138.125732 -48.485962 -534.687134
v -129.135071 -50.171875 -546.243469
v -140.262024 -37.213440 -555.827209
v -32.196106 43.771484 -600.824341
v -12.898438 64.130127 -592.854248
v 12.792908 34.209656 -570.725769
v -4.921265 12.007263 -577.332336
vn 0.4590 -0.7047 0.5409
vn -0.3183 0.7586 -0.5685
vn -0.4598 0.7030 -0.5426
vn -0.2483 0.1912 0.9496
vn 0.4815 0.8575 -0.1812
vn -0.7743 -0.6299 -0.0614
vn -0.2300 0.8780 -0.4197
vn 0.9179 0.3966 -0.0119
vn -0.9038 -0.2201 -0.3669
vn 0.4472 -0.8349 0.3209
vn -0.9335 -0.2337 -0.2718
vn 0.9715 0.2172 0.0951
vn -0.9331 -0.2641 -0.2440
vn 0.2671 -0.9233 0.2759
vn 0.9212 0.3694 0.1221
vn 0.2703 -0.9265 0.2616
vn -0.2261 0.8725 -0.4331
vn 0.9799 0.1770 0.0919
vn 0.9219 0.3874 0.0106
vn 0.2402 -0.8918 0.3835
vn -0.8937 -0.4071 -0.1888
vn 0.9320 0.3602 0.0399
vn -0.8755 -0.4441 -0.1906
vn -0.7866 -0.5817 -0.2071
vn 0.6603 0.7381 -0.1384
vn -0.9215 -0.1833 -0.3424
vn 0.8278 0.5472 0.1236
vn -0.5838 0.7389 0.3365
vn -0.2450 0.8980 -0.3654
vn -0.9246 -0.3603 -0.1238
vn -0.2524 0.9071 -0.3368
vn 0.9510 0.2628 0.1627
vn -0.9231 -0.3645 -0.1226
vn -0.9523 -0.2578 -0.1631
vn 0.9210 0.3556 0.1591
vn 0.0884 -0.6191 0.7803
vn 0.9500 0.2673 0.1616
vn 0.9209 0.3711 0.1191
vn -0.9523 -0.2559 -0.1660
vn 0.2450 -0.8980 0.3654
vn 0.0395 0.3135 -0.9488
vn -0.8185 -0.5318 -0.2171
vn 0.9954 0.0754 0.0590
vn 0.0493 0.2878 -0.9564
vn 0.8642 0.4661 -0.1898
vn -0.9539 -0.2721 -0.1264
vn -0.3447 0.8740 0.3424
vn 0.3447 -0.8740 -0.3424
vn -0.1197 0.6845 -0.7191
vn 0.9914 0.1069 0.0759
vn -0.8386 -0.5057 -0.2026
vn 0.0789 -0.5983 0.7974
vn 0.3446 -0.8289 -0.4406
vn 0.9899 0.1163 0.0809
vn -0.8445 -0.4975 -0.1982
vn 0.1962 -0.8263 0.5279
vn 0.0173 0.3706 -0.9286
vn -0.8823 -0.1185 -0.4556
vn 0.3390 -0.7610 -0.5531
vn -0.3307 0.9370 0.1122
vn 0.6923 -0.5843 0.4235
vn 0.1574 0.9596 -0.2333
vn -0.6764 0.6024 -0.4238
vn -0.4627 -0.4781 0.7465
vn -0.1102 0.9304 0.3497
vn -0.1905 -0.7802 -0.5958
vn 0.8157 0.3952 -0.4225
vn 0.9079 0.4001 0.1247
vn -0.6688 -0.2074 -0.7140
vn 0.2562 -0.9284 0.2692
vn -0.4678 0.6466 -0.6026
vn 0.4796 -0.7465 0.4613
vn -0.5010 0.6437 -0.5784
vn -0.8124 -0.4938 0.3100
vn 0.6176 -0.6326 0.4673
vn -0.8210 -0.4961 0.2824
vn 0.8173 0.3840 -0.4297
vn 0.4638 -0.7643 0.4480
vn 0.6554 -0.6614 0.3648
vn -0.8213 -0.4188 0.3873
vn -0.6312 0.5738 -0.5218
vn 0.6556 -0.6488 0.3865
vn -0.6593 0.5437 -0.5193
vn -0.5730 -0.6994 -0.4273
vn 0.5550 0.8284 -0.0760
vn -0.5428 -0.3784 -0.7498
vn 0.2838 0.6962 0.6593
vn -0.9606 0.0788 0.2665
vn 0.8222 0.4311 -0.3717
vn -0.6099 0.6384 -0.4694
vn 0.8229 0.4498 -0.3473
vn 0.5208 -0.6853 0.5090
vn -0.6136 0.6359 -0.4681
vn -0.5165 0.6882 -0.5095
vn 0.5978 -0.6260 0.5007
vn -0.6916 -0.0616 0.7196
vn 0.5248 -0.6831 0.5079
vn 0.6197 -0.6326 0.4645
vn -0.5142 0.6879 -0.5122
vn -0.8222 -0.4311 0.3717
vn 0.4810 -0.2155 -0.8498
vn -0.7174 0.4532 -0.5291
vn 0.3807 -0.8255 0.4166
vn 0.4617 -0.2359 -0.8551
vn 0.7472 -0.6445 0.1624
vn -0.5371 0.6958 -0.4768
vn 0.6353 0.7306 0.2502
vn -0.6353 -0.7306 -0.2502
vn 0.7308 0.1322 -0.6697
vn 0.4055 -0.8051 0.4329
vn -0.7023 0.4850 -0.5212
vn -0.6786 -0.0403 0.7334
vn -0.5752 -0.7445 -0.3389
vn 0.4127 -0.7988 0.4376
vn -0.6975 0.4946 -0.5186
vn -0.8018 -0.3112 0.5102
vn 0.5231 -0.1687 -0.8354
vn -0.3100 0.5867 -0.7481
vn -0.4930 -0.7498 -0.4414
vn 0.7413 0.6696 0.0447
usemtl Matériau.012
s off
f 83//21 84//21 86//21 85//21
f 90//22 89//22 93//22 94//22
f 89//23 90//23 88//23 87//23
f 105//24 106//24 84//24 83//24
f 103//25 89//25 87//25 105//25
f 104//26 86//26 84//26 106//26
f 94//27 93//27 97//27 98//27
f 103//28 85//28 92//28 107//28
f 104//29 90//29 94//29 108//29
f 85//30 86//30 91//30 92//30
f 110//31 98//31 102//31 112//31
f 107//32 92//32 96//32 109//32
f 108//33 94//33 98//33 110//33
f 92//34 91//34 95//34 96//34
f 101//35 111//35 115//35 118//35
f 96//36 95//36 99//36 100//36
f 98//37 97//37 101//37 102//37
f 109//38 96//38 100//38 111//38
f 97//39 109//39 111//39 101//39
f 100//40 99//40 113//40 114//40
f 91//41 108//41 110//41 95//41
f 93//42 107//42 109//42 97//42
f 95//43 110//43 112//43 99//43
f 86//44 104//44 108//44 91//44
f 89//45 103//45 107//45 93//45
f 90//46 104//46 106//46 88//46
f 85//47 103//47 105//47 83//47
f 87//48 88//48 106//48 105//48
f 117//49 118//49 124//49 123//49
f 113//50 116//50 122//50 119//50
f 102//51 101//51 118//51 117//51
f 111//52 100//52 114//52 115//52
f 99//53 112//53 116//53 113//53
f 112//54 102//54 117//54 116//54
f 124//55 121//55 132//55 131//55
f 120//56 119//56 125//56 126//56
f 115//57 114//57 120//57 121//57
f 118//58 115//58 121//58 124//58
f 116//59 117//59 123//59 122//59
f 114//60 113//60 119//60 120//60
f 128//61 127//61 135//61 136//61
f 119//62 122//62 128//62 125//62
f 121//63 120//63 126//63 127//63
f 122//64 121//64 127//64 128//64
f 131//65 132//65 144//65 143//65
f 122//66 123//66 130//66 129//66
f 123//67 124//67 131//67 130//67
f 121//68 122//68 129//68 132//68
f 136//69 135//69 139//69 140//69
f 127//70 126//70 134//70 135//70
f 125//71 128//71 136//71 133//71
f 126//72 125//72 133//72 134//72
f 138//73 137//73 140//73 139//73
f 135//74 134//74 138//74 139//74
f 133//75 136//75 140//75 137//75
f 134//76 133//76 137//76 138//76
f 144//77 141//77 142//77 143//77
f 129//78 130//78 142//78 141//78
f 132//79 129//79 141//79 144//79
f 130//80 131//80 143//80 142//80
f 145//81 146//81 148//81 147//81
f 152//82 151//82 155//82 156//82
f 151//83 152//83 150//83 149//83
f 167//84 168//84 146//84 145//84
f 165//85 151//85 149//85 167//85
f 166//86 148//86 146//86 168//86
f 156//87 155//87 159//87 160//87
f 165//88 147//88 154//88 169//88
f 166//89 152//89 156//89 170//89
f 147//90 148//90 153//90 154//90
f 172//91 160//91 164//91 174//91
f 169//92 154//92 158//92 171//92
f 170//93 156//93 160//93 172//93
f 154//94 153//94 157//94 158//94
f 163//95 173//95 177//95 180//95
f 158//96 157//96 161//96 162//96
f 160//97 159//97 163//97 164//97
f 171//98 158//98 162//98 173//98
f 159//99 171//99 173//99 163//99
f 162//100 161//100 175//100 176//100
f 153//101 170//101 172//101 157//101
f 155//102 169//102 171//102 159//102
f 157//103 172//103 174//103 161//103
f 148//104 166//104 170//104 153//104
f 151//105 165//105 169//105 155//105
f 152//106 166//106 168//106 150//106
f 147//107 165//107 167//107 145//107
f 149//108 150//108 168//108 167//108
f 179//109 180//109 186//109 185//109
f 175//110 178//110 184//110 181//110
f 164//111 163//111 180//111 179//111
f 173//112 162//112 176//112 177//112
f 161//113 174//113 178//113 175//113
f 174//114 164//114 179//114 178//114
f 186//115 183//115 194//115 193//115
f 182//116 181//116 187//116 188//116
f 177//117 176//117 182//117 183//117
f 180//118 177//118 183//118 186//118
f 178//119 179//119 185//119 184//119
f 176//120 175//120 181//120 182//120
f 190//121 189//121 197//121 198//121
f 181//122 184//122 190//122 187//122
f 183//123 182//123 188//123 189//123
f 184//124 183//124 189//124 190//124
f 193//125 194//125 206//125 205//125
f 184//126 185//126 192//126 191//126
f 185//127 186//127 193//127 192//127
f 183//128 184//128 191//128 194//128
f 198//129 197//129 201//129 202//129
f 189//130 188//130 196//130 197//130
f 187//131 190//131 198//131 195//131
f 188//132 187//132 195//132 196//132
f 200//133 199//133 202//133 201//133
f 197//134 196//134 200//134 201//134
f 195//135 198//135 202//135 199//135
f 196//136 195//136 199//136 200//136
f 206//137 203//137 204//137 205//137
f 191//138 192//138 204//138 203//138
f 194//139 191//139 203//139 206//139
f 192//140 193//140 205//140 204//140
