# Blender v2.91.2 OBJ File: 'camionnete02.blend'
# www.blender.org
mtllib arme_000004.mtl
o Cube.046_Cube.010
v 359.608734 360.026428 -1025.132568
v 358.415863 139.632996 -1023.029419
v 476.969330 357.610992 -1211.679565
v 475.776489 137.217545 -1209.576416
v 173.049988 359.916138 -1142.499268
v 171.857071 139.522675 -1140.395996
v 290.410583 357.500702 -1329.046021
v 289.217743 137.107239 -1326.942993
v 198.026382 363.351990 -768.294556
v 196.833481 142.958588 -766.191284
v 10.274779 142.848267 -883.557861
v 11.467663 363.241699 -885.661194
v 124.899780 364.857056 -652.058411
v 123.706894 144.463623 -649.955200
v -62.851879 144.353317 -767.321716
v -61.658997 364.746765 -769.425049
v 81.699844 365.746155 -583.391357
v 88.193153 205.280914 -593.245178
v -98.365662 205.170624 -710.611755
v -104.858948 365.635864 -700.757874
v 126.088959 584.569153 -654.155151
v -60.469776 584.458862 -771.521790
v 82.889038 585.458252 -585.488098
v -103.669701 585.348022 -702.854736
v 223.236206 362.833160 -808.365967
v 222.043320 142.439728 -806.262756
v 36.677467 362.722870 -925.732666
v 35.484554 142.329422 -923.629395
v 198.420151 436.105499 -768.988831
v 11.861427 435.995270 -886.355469
v 223.629990 435.586670 -809.060242
v 37.071232 435.476349 -926.426819
v 198.991501 541.658997 -769.996216
v 12.432758 541.548706 -887.362671
v 224.201279 541.140137 -810.067688
v 37.642574 541.029907 -927.434204
v 126.946335 437.576569 -655.379883
v -59.612442 437.466248 -772.746460
v 127.517639 543.130066 -656.387146
v -59.041122 543.019775 -773.753784
v 154.104706 720.785400 -698.815186
v -32.454044 720.675110 -816.181824
v 110.904755 721.674500 -630.148193
v -75.653938 721.564209 -747.514709
v 435.537384 358.463715 -1145.822754
v 434.344543 138.070267 -1143.719604
v 248.978668 358.353424 -1263.189209
v 247.785797 137.959961 -1261.085938
v 383.689972 357.555847 -1270.362793
v 382.497101 137.162384 -1268.259644
v 266.329346 359.971283 -1083.815918
v 265.136475 139.577835 -1081.712769
v 104.747025 363.296844 -826.977844
v 103.554131 142.903427 -824.874573
v 31.620399 364.801941 -710.741760
v 32.239349 154.316971 -694.625122
v -11.579529 365.691010 -642.074646
v 8.292337 195.326248 -656.385437
v 32.809574 584.514038 -712.838440
v -10.390332 585.403137 -644.171387
v 128.763947 142.384567 -864.946106
v 129.956848 362.778015 -867.049255
v 105.140793 436.050385 -827.672180
v 130.350601 435.531494 -867.743530
v 105.712128 541.603882 -828.679443
v 130.921936 541.084961 -868.750977
v 33.666950 437.521454 -714.063171
v 34.238266 543.074951 -715.070374
v 60.825317 720.730225 -757.498535
v 17.625385 721.619324 -688.831421
v 341.065155 138.015106 -1202.402832
v 342.258026 358.408600 -1204.505981
v 430.329681 357.583405 -1241.021118
v 311.776154 139.605408 -1052.370972
v 150.193817 142.931000 -795.533020
v 63.688606 154.335556 -674.840027
v 39.741600 195.344833 -636.600281
v 176.596527 362.805542 -837.707581
v 176.990295 435.559052 -838.401917
v 177.561600 541.112549 -839.409241
v 388.897736 358.436127 -1175.164429
v 429.136780 137.189972 -1238.917969
v 312.969025 359.998871 -1054.474365
v 151.386703 363.324432 -797.636230
v 78.260071 364.829468 -681.400024
v 35.060143 365.718597 -612.733032
v 79.449280 584.541626 -683.496826
v 36.249363 585.430725 -614.829773
v 175.403641 142.412155 -835.604431
v 151.780502 436.077972 -798.330566
v 152.351791 541.631470 -799.337830
v 80.306633 437.548981 -684.721497
v 80.877953 543.102478 -685.728760
v 107.465027 720.757812 -728.156799
v 64.265083 721.646912 -659.489807
v 387.704803 138.042679 -1173.061279
v 175.180298 101.146492 -835.210571
v 128.540588 101.118904 -864.552246
v 387.481476 96.777031 -1172.667480
v 340.841827 96.749435 -1202.009033
v 264.913116 98.312157 -1081.318848
v 311.552826 98.339752 -1051.977173
v 492.672363 297.477173 -1062.098633
v 459.097443 298.168213 -1008.730774
v 458.570068 200.712479 -1007.800659
v 492.144867 200.021454 -1061.168701
v 532.986694 297.501007 -1036.736450
v 499.411865 298.192047 -983.368530
v 498.884430 200.736328 -982.438477
v 532.459351 200.045303 -1035.806519
v 594.680542 297.537537 -997.924194
v 561.105713 298.228546 -944.556213
v 560.578247 200.772842 -943.626160
v 594.153076 200.081818 -996.994263
v 634.379761 297.560974 -972.948975
v 600.804932 298.252014 -919.580994
v 600.277466 200.796310 -918.650940
v 633.852295 200.105286 -972.018921
v 814.689087 129.255081 -1851.759521
v 768.049438 129.227493 -1881.101074
v 769.242188 349.620941 -1883.204346
v 815.881958 349.648529 -1853.862671
v 88.366867 786.212891 -770.801208
v 2.414966 786.162048 -824.874695
v 48.560467 787.032104 -707.528076
v -37.391396 786.981323 -761.601624
v 134.512375 787.082947 -653.454773
v 174.318802 786.263794 -716.727539
v 131.342865 786.238403 -743.764282
v 91.536423 787.057495 -680.491455
vn 0.8464 0.0005 0.5325
vn 0.5325 -0.0110 -0.8464
vn -0.8464 -0.0005 -0.5325
vn 0.0054 0.9999 -0.0095
vn -0.0054 -0.9999 0.0095
vn -0.5325 0.0110 0.8464
vn -0.3578 -0.7400 0.5695
vn -0.0890 -0.9960 -0.0057
vn -0.5975 -0.1013 0.7954
vn -0.8471 -0.0010 -0.5314
vn 0.8471 0.0010 0.5314
vn 0.4968 -0.3609 -0.7893
vn 0.4953 -0.3682 -0.7869
vn -0.4968 0.3609 0.7893
vn 0.8226 -0.0099 -0.5685
vn -0.7896 0.3539 -0.5013
vn -0.4929 -0.1024 0.8640
vn 0.0118 -0.9982 0.0592
vn -0.4776 0.4428 0.7588
vn -0.5278 -0.1320 0.8391
vn -0.0404 -0.9971 0.0652
vn -0.1564 0.0103 0.9876
vn 0.4625 -0.8337 0.3018
vn 0.4716 0.8342 0.2859
vn 0.8402 -0.1144 0.5301
usemtl Matériau.011
s off
f 45//1 46//1 4//1 3//1
f 49//2 50//2 8//2 7//2
f 47//3 48//3 6//3 5//3
f 26//1 25//1 9//1 10//1
f 72//4 47//4 5//4 51//4
f 96//5 46//5 2//5 74//5
f 10//1 9//1 13//1 14//1
f 84//6 9//6 29//6 90//6
f 89//5 26//5 10//5 75//5
f 27//3 28//3 11//3 12//3
f 76//7 14//7 18//7 77//7
f 75//8 10//8 14//8 76//8
f 12//3 11//3 15//3 16//3
f 53//4 12//4 16//4 55//4
f 86//9 77//9 18//9 17//9
f 16//10 15//10 19//10 20//10
f 16//3 20//3 24//3 22//3
f 14//11 13//11 17//11 18//11
f 59//12 22//12 42//12 69//12
f 86//6 17//6 23//6 88//6
f 17//1 13//1 21//1 23//1
f 55//2 16//2 22//2 59//2
f 5//3 6//3 28//3 27//3
f 74//5 2//5 26//5 89//5
f 51//4 5//4 27//4 62//4
f 2//1 1//1 25//1 26//1
f 32//3 30//3 34//3 36//3
f 62//2 27//2 32//2 64//2
f 27//3 12//3 30//3 32//3
f 9//1 25//1 31//1 29//1
f 66//4 36//4 34//4 65//4
f 90//5 29//5 37//5 92//5
f 64//2 32//2 36//2 66//2
f 29//1 31//1 35//1 33//1
f 92//6 37//6 39//6 93//6
f 29//1 33//1 39//1 37//1
f 34//3 30//3 38//3 40//3
f 65//4 34//4 40//4 68//4
f 69//13 42//13 124//13 123//13
f 23//1 21//1 41//1 43//1
f 88//14 23//14 43//14 95//14
f 22//3 24//3 44//3 42//3
f 82//5 4//5 46//5 96//5
f 49//4 7//4 47//4 72//4
f 7//3 8//3 48//3 47//3
f 46//15 45//15 103//15 106//15
f 73//4 49//4 72//4 81//4
f 8//5 50//5 71//5 48//5
f 24//14 60//14 70//14 44//14
f 42//16 44//16 126//16 124//16
f 91//4 65//4 68//4 93//4
f 38//6 67//6 68//6 40//6
f 79//2 64//2 66//2 80//2
f 30//5 63//5 67//5 38//5
f 80//4 66//4 65//4 91//4
f 78//2 62//2 64//2 79//2
f 83//4 51//4 62//4 78//4
f 6//5 52//5 61//5 28//5
f 85//2 55//2 59//2 87//2
f 20//6 57//6 60//6 24//6
f 87//12 59//12 69//12 94//12
f 20//17 19//17 58//17 57//17
f 84//4 53//4 55//4 85//4
f 11//18 54//18 56//18 15//18
f 15//7 56//7 58//7 19//7
f 28//5 61//5 54//5 11//5
f 12//6 53//6 63//6 30//6
f 48//5 71//5 52//5 6//5
f 81//4 72//4 51//4 83//4
f 50//3 49//3 121//3 120//3
f 3//2 4//2 82//2 73//2
f 45//4 81//4 83//4 1//4
f 9//4 84//4 85//4 13//4
f 21//12 87//12 94//12 41//12
f 13//2 85//2 87//2 21//2
f 1//4 83//4 78//4 25//4
f 25//2 78//2 79//2 31//2
f 35//4 80//4 91//4 33//4
f 31//2 79//2 80//2 35//2
f 33//4 91//4 93//4 39//4
f 70//19 95//19 130//19 125//19
f 3//4 73//4 81//4 45//4
f 50//5 82//5 96//5 71//5
f 60//14 88//14 95//14 70//14
f 67//6 92//6 93//6 68//6
f 63//5 90//5 92//5 67//5
f 52//3 71//3 100//3 101//3
f 57//6 86//6 88//6 60//6
f 57//20 58//20 77//20 86//20
f 54//21 75//21 76//21 56//21
f 56//7 76//7 77//7 58//7
f 61//5 89//5 75//5 54//5
f 53//6 84//6 90//6 63//6
f 89//6 61//6 98//6 97//6
f 101//5 102//5 97//5 98//5
f 100//5 99//5 102//5 101//5
f 61//3 52//3 101//3 98//3
f 74//1 89//1 97//1 102//1
f 71//2 96//2 99//2 100//2
f 96//1 74//1 102//1 99//1
f 106//2 103//2 107//2 110//2
f 1//22 2//22 105//22 104//22
f 2//23 46//23 106//23 105//23
f 45//24 1//24 104//24 103//24
f 109//5 110//5 114//5 113//5
f 104//6 105//6 109//6 108//6
f 105//5 106//5 110//5 109//5
f 103//4 104//4 108//4 107//4
f 113//5 114//5 118//5 117//5
f 107//4 108//4 112//4 111//4
f 110//2 107//2 111//2 114//2
f 108//6 109//6 113//6 112//6
f 116//1 117//1 118//1 115//1
f 111//4 112//4 116//4 115//4
f 114//2 111//2 115//2 118//2
f 122//2 119//2 120//2 121//2
f 82//5 50//5 120//5 119//5
f 73//1 82//1 119//1 122//1
f 49//4 73//4 122//4 121//4
f 123//4 124//4 126//4 125//4
f 129//4 123//4 125//4 130//4
f 128//4 129//4 130//4 127//4
f 95//19 43//19 127//19 130//19
f 94//13 69//13 123//13 129//13
f 43//25 41//25 128//25 127//25
f 44//19 70//19 125//19 126//19
f 41//13 94//13 129//13 128//13
o Cube.048_Cube.024
v -564.278198 467.405640 182.437683
v -727.326416 342.343018 55.267822
v -422.827881 481.695190 -12.972603
v -585.920898 356.748718 -140.049377
v -678.189453 646.700378 40.282997
v -761.788696 582.577332 -24.920479
v -605.663879 654.027100 -59.909325
v -689.249695 589.940308 -125.098946
v -347.268585 456.997467 -439.248810
v -260.733246 521.968201 -373.574860
v -316.683533 630.432800 -407.155060
v -403.218811 565.462158 -472.829071
v -218.218109 490.283752 -609.922546
v -154.595398 538.051636 -561.637573
v -195.731293 617.797302 -586.326477
v -259.353973 570.029358 -634.611511
v -136.947937 513.910889 -716.237305
v -90.453369 548.819092 -680.951172
v -120.514954 607.096130 -698.993530
v -167.009521 572.187988 -734.279663
v -482.874847 587.608032 -25.984932
v -655.981201 454.980469 -160.902008
v -633.045166 572.434082 181.466766
v -806.140808 439.664673 46.460365
v -282.791779 578.470886 -392.889740
v -374.659698 509.496429 -462.610870
v -162.249695 580.301025 -587.822021
v -229.793030 529.589478 -639.082520
v -88.276672 580.336182 -710.960205
v -137.636658 543.276855 -748.420349
v -80.756958 515.390747 -791.741394
v -34.262329 550.298828 -756.455261
v -28.927979 587.214233 -795.965027
v -78.287720 550.154907 -833.425659
v -108.146301 578.236206 -817.824280
v -61.651489 613.144348 -782.538391
v -40.961853 517.599976 -846.362915
v 5.532776 552.508118 -811.076904
v 10.867004 589.423401 -850.586487
v -38.492676 552.364075 -888.047119
v -68.351135 580.445374 -872.445740
v -21.856384 615.353516 -837.159729
v 2.465332 504.191315 -866.963989
v 32.391846 526.660156 -844.252075
v 35.825195 550.420837 -869.682678
v 4.054626 526.567383 -893.794373
v -30.143982 585.644775 -931.971985
v -60.002441 613.726074 -916.370667
v -13.507874 648.634277 -881.084595
v 19.215881 622.704102 -894.511597
v 31.463196 493.702362 -881.050964
v 51.638855 508.850220 -865.739197
v 53.953552 524.869019 -882.883728
v 32.534607 508.787781 -899.139038
v 57.633728 492.276611 -903.471008
v 70.245789 501.745728 -893.899414
v 71.692749 511.759247 -904.616638
v 58.303528 501.706665 -914.778076
v -22.618469 614.309509 -946.930054
v -42.471802 632.981079 -936.556458
v -11.556946 656.192017 -913.094360
v 10.201477 638.950745 -922.022217
v -288.051025 594.705444 359.162964
v -284.800720 354.070801 337.209229
v -169.070496 616.792542 148.719971
v -166.255859 374.790741 127.649277
v -468.933990 549.077148 184.435318
v -467.267456 425.697021 173.179047
v -408.048370 560.252136 76.789658
v -406.486176 436.320679 65.731796
v -26.565491 453.298096 -232.981689
v -23.845947 580.038330 -231.213470
v -134.139404 583.287537 -293.238647
v -136.853699 456.515900 -295.020233
v 64.731262 470.547974 -428.580414
v 66.778015 563.582764 -427.393707
v -14.308472 565.948608 -473.005707
v -16.355225 472.913757 -474.192596
v 120.146667 483.434265 -551.986145
v 121.642395 551.422852 -551.118713
v 62.385437 553.151794 -584.451294
v 60.889709 485.163177 -585.318787
v -283.431396 626.679626 106.106575
v -280.442841 369.777252 83.737091
v -409.743469 603.243774 329.517395
v -406.292847 347.780426 306.210815
v -76.095947 585.347351 -267.214966
v -79.051453 451.009949 -268.928619
v 35.544861 567.638428 -466.601593
v 33.371887 468.870605 -467.861542
v 105.377563 554.391113 -591.433044
v 103.789673 482.212952 -592.353760
v 169.347290 483.375549 -632.234436
v 170.843018 551.364197 -631.366943
v 154.379395 554.481934 -683.053040
v 152.791504 482.303619 -683.973755
v 109.922302 485.230927 -675.190979
v 111.418030 553.219482 -674.323608
v 203.544312 483.367279 -690.566284
v 205.040039 551.355957 -689.698975
v 188.576477 554.473694 -741.385132
v 186.988464 482.295441 -742.305786
v 144.119202 485.222717 -733.522949
v 145.614990 553.211304 -732.655579
v 246.042175 494.853577 -714.063293
v 247.004944 538.614868 -713.505066
v 236.408203 540.621582 -746.773132
v 235.386047 494.163696 -747.365723
v 175.864868 483.236755 -796.914368
v 132.995483 486.164062 -788.131348
v 134.491272 554.152649 -787.264099
v 177.452637 555.415039 -795.993469
v 275.564087 501.532837 -729.333557
v 276.213074 531.035461 -728.957153
v 269.069214 532.388306 -751.385681
v 268.380066 501.067688 -751.785278
v 297.997620 506.895386 -754.976868
v 298.403259 525.337769 -754.741516
v 293.937317 526.183472 -768.761658
v 293.506592 506.604645 -769.011353
v 162.947327 495.976440 -824.714966
v 134.443115 497.922791 -818.875244
v 135.437561 543.129333 -818.298401
v 164.003174 543.968689 -824.102783
vn 0.4496 -0.8537 0.2628
vn -0.3687 0.8553 -0.3642
vn -0.4496 0.8537 -0.2629
vn -0.4450 -0.2835 0.8494
vn 0.3751 0.8644 0.3348
vn -0.6457 -0.5688 -0.5095
vn -0.3956 0.8580 -0.3276
vn 0.7794 0.4753 0.4083
vn -0.7408 -0.1522 -0.6542
vn 0.5275 -0.8376 0.1420
vn -0.6708 -0.4029 -0.6227
vn 0.7609 0.4461 0.4712
vn -0.6676 -0.4383 -0.6018
vn 0.4858 -0.8506 0.2014
vn 0.6546 0.5649 0.5024
vn 0.4939 -0.8488 0.1889
vn -0.3863 0.8576 -0.3394
vn 0.7836 0.4122 0.4648
vn 0.6807 0.6118 0.4030
vn 0.4199 -0.8581 0.2957
vn -0.5976 -0.5739 -0.5598
vn 0.6910 0.5817 0.4292
vn -0.5678 -0.6024 -0.5609
vn -0.5595 -0.5449 -0.6245
vn 0.5097 0.8017 0.3123
vn -0.8077 -0.0431 -0.5880
vn 0.7011 0.4640 0.5414
vn -0.7381 0.4706 0.4835
vn -0.4316 0.8576 -0.2797
vn -0.6604 -0.5570 -0.5036
vn -0.4495 0.8562 -0.2547
vn 0.7073 0.4641 0.5333
vn -0.6578 -0.5608 -0.5027
vn -0.7101 -0.4597 -0.5333
vn 0.6487 0.5421 0.5341
vn 0.0747 -0.7564 0.6498
vn 0.7051 0.4682 0.5326
vn 0.6546 0.5672 0.4998
vn -0.7099 -0.4572 -0.5357
vn 0.4316 -0.8576 0.2797
vn 0.1956 0.5561 -0.8078
vn -0.4785 -0.6602 -0.5789
vn 0.8428 0.3318 0.4238
vn 0.2156 0.5372 -0.8155
vn 0.6588 0.7223 0.2107
vn -0.7170 -0.4832 -0.5024
vn -0.7143 0.6165 0.3313
vn 0.7143 -0.6165 -0.3313
vn -0.1432 0.7914 -0.5943
vn 0.8232 0.3552 0.4430
vn -0.5098 -0.6456 -0.5686
vn 0.0540 -0.7445 0.6654
vn 0.7263 -0.5485 -0.4144
vn 0.8171 0.3620 0.4486
vn -0.5192 -0.6410 -0.5653
vn 0.3163 -0.8490 0.4232
vn 0.1498 0.5971 -0.7881
vn -0.6133 -0.2328 -0.7547
vn 0.7294 -0.4571 -0.5089
vn -0.6583 0.7406 0.1347
vn 0.8714 -0.0327 0.4895
vn -0.8029 0.0342 -0.5952
vn -0.8714 0.0328 -0.4896
vn -0.2417 -0.0914 0.9660
vn -0.4359 0.8868 -0.1538
vn 0.0670 -0.9959 -0.0606
vn -0.8306 0.0255 -0.5562
vn 0.1139 0.9923 -0.0496
vn -0.2802 -0.9071 -0.3140
vn 0.9335 -0.0219 0.3579
vn -0.0756 -0.9851 -0.1543
vn 0.1290 0.9915 -0.0197
vn -0.0514 -0.9913 -0.1215
vn 0.9067 -0.0253 0.4210
vn -0.0321 0.9993 -0.0165
vn 0.9129 -0.0253 0.4073
vn -0.8222 0.0253 -0.5687
vn 0.1708 0.9852 -0.0150
vn -0.0321 0.9911 -0.1291
vn 0.8522 -0.0254 0.5225
vn 0.0865 -0.9953 -0.0439
vn -0.0059 0.9954 -0.0956
vn 0.1273 -0.9910 -0.0402
vn 0.1204 -0.9795 -0.1618
vn -0.2872 0.9348 -0.2089
vn -0.4075 -0.8571 -0.3152
vn 0.0388 0.9913 0.1260
vn -0.9184 -0.0482 0.3927
vn -0.8624 0.0254 -0.5056
vn 0.0227 -0.9997 0.0134
vn -0.8776 0.0254 -0.4788
vn 0.0709 0.9967 0.0407
vn 0.0270 -0.9995 0.0152
vn -0.0760 -0.9962 -0.0419
vn -0.0248 0.9994 0.0223
vn 0.4883 -0.0219 0.8724
vn 0.0666 0.9970 0.0389
vn -0.0334 0.9992 -0.0197
vn -0.0773 -0.9960 -0.0452
vn 0.8624 -0.0254 0.5056
vn -0.1360 0.0156 -0.9906
vn 0.2325 -0.9711 -0.0543
vn 0.2750 0.9610 -0.0296
vn -0.1076 0.0150 -0.9941
vn -0.0958 0.9371 -0.3358
vn -0.0688 -0.9976 -0.0032
vn -0.9796 0.0190 0.1999
vn 0.9796 -0.0190 -0.1999
vn -0.5687 0.0230 -0.8222
vn 0.2419 0.9701 -0.0185
vn 0.1990 -0.9790 -0.0434
vn 0.4632 -0.0215 0.8860
vn 0.9524 -0.0171 -0.3044
vn 0.2320 0.9726 -0.0152
vn 0.1887 -0.9812 -0.0401
vn 0.7550 -0.0250 0.6553
vn -0.1996 0.0169 -0.9797
vn -0.1367 -0.9231 -0.3595
vn 0.9042 -0.0144 -0.4268
vn -0.9990 0.0225 -0.0384
usemtl Matériau.012
s off
f 131//26 132//26 134//26 133//26
f 138//27 137//27 141//27 142//27
f 137//28 138//28 136//28 135//28
f 153//29 154//29 132//29 131//29
f 151//30 137//30 135//30 153//30
f 152//31 134//31 132//31 154//31
f 142//32 141//32 145//32 146//32
f 151//33 133//33 140//33 155//33
f 152//34 138//34 142//34 156//34
f 133//35 134//35 139//35 140//35
f 158//36 146//36 150//36 160//36
f 155//37 140//37 144//37 157//37
f 156//38 142//38 146//38 158//38
f 140//39 139//39 143//39 144//39
f 149//40 159//40 163//40 166//40
f 144//41 143//41 147//41 148//41
f 146//42 145//42 149//42 150//42
f 157//43 144//43 148//43 159//43
f 145//44 157//44 159//44 149//44
f 148//45 147//45 161//45 162//45
f 139//46 156//46 158//46 143//46
f 141//47 155//47 157//47 145//47
f 143//48 158//48 160//48 147//48
f 134//49 152//49 156//49 139//49
f 137//50 151//50 155//50 141//50
f 138//51 152//51 154//51 136//51
f 133//52 151//52 153//52 131//52
f 135//53 136//53 154//53 153//53
f 165//54 166//54 172//54 171//54
f 161//55 164//55 170//55 167//55
f 150//56 149//56 166//56 165//56
f 159//57 148//57 162//57 163//57
f 147//58 160//58 164//58 161//58
f 160//59 150//59 165//59 164//59
f 172//60 169//60 180//60 179//60
f 168//61 167//61 173//61 174//61
f 163//62 162//62 168//62 169//62
f 166//63 163//63 169//63 172//63
f 164//64 165//64 171//64 170//64
f 162//65 161//65 167//65 168//65
f 176//66 175//66 183//66 184//66
f 167//67 170//67 176//67 173//67
f 169//68 168//68 174//68 175//68
f 170//69 169//69 175//69 176//69
f 179//70 180//70 192//70 191//70
f 170//71 171//71 178//71 177//71
f 171//72 172//72 179//72 178//72
f 169//73 170//73 177//73 180//73
f 184//74 183//74 187//74 188//74
f 175//75 174//75 182//75 183//75
f 173//76 176//76 184//76 181//76
f 174//77 173//77 181//77 182//77
f 186//78 185//78 188//78 187//78
f 183//79 182//79 186//79 187//79
f 181//80 184//80 188//80 185//80
f 182//81 181//81 185//81 186//81
f 192//82 189//82 190//82 191//82
f 177//83 178//83 190//83 189//83
f 180//84 177//84 189//84 192//84
f 178//85 179//85 191//85 190//85
f 193//86 194//86 196//86 195//86
f 200//87 199//87 203//87 204//87
f 199//88 200//88 198//88 197//88
f 215//89 216//89 194//89 193//89
f 213//90 199//90 197//90 215//90
f 214//91 196//91 194//91 216//91
f 204//92 203//92 207//92 208//92
f 213//93 195//93 202//93 217//93
f 214//94 200//94 204//94 218//94
f 195//95 196//95 201//95 202//95
f 220//96 208//96 212//96 222//96
f 217//97 202//97 206//97 219//97
f 218//98 204//98 208//98 220//98
f 202//99 201//99 205//99 206//99
f 211//100 221//100 225//100 228//100
f 206//101 205//101 209//101 210//101
f 208//102 207//102 211//102 212//102
f 219//103 206//103 210//103 221//103
f 207//104 219//104 221//104 211//104
f 210//105 209//105 223//105 224//105
f 201//106 218//106 220//106 205//106
f 203//107 217//107 219//107 207//107
f 205//108 220//108 222//108 209//108
f 196//109 214//109 218//109 201//109
f 199//110 213//110 217//110 203//110
f 200//111 214//111 216//111 198//111
f 195//112 213//112 215//112 193//112
f 197//113 198//113 216//113 215//113
f 227//114 228//114 234//114 233//114
f 223//115 226//115 232//115 229//115
f 212//116 211//116 228//116 227//116
f 221//117 210//117 224//117 225//117
f 209//118 222//118 226//118 223//118
f 222//119 212//119 227//119 226//119
f 234//120 231//120 242//120 241//120
f 230//121 229//121 235//121 236//121
f 225//122 224//122 230//122 231//122
f 228//123 225//123 231//123 234//123
f 226//124 227//124 233//124 232//124
f 224//125 223//125 229//125 230//125
f 238//126 237//126 245//126 246//126
f 229//127 232//127 238//127 235//127
f 231//128 230//128 236//128 237//128
f 232//129 231//129 237//129 238//129
f 241//130 242//130 254//130 253//130
f 232//131 233//131 240//131 239//131
f 233//132 234//132 241//132 240//132
f 231//133 232//133 239//133 242//133
f 246//134 245//134 249//134 250//134
f 237//135 236//135 244//135 245//135
f 235//136 238//136 246//136 243//136
f 236//137 235//137 243//137 244//137
f 248//138 247//138 250//138 249//138
f 245//139 244//139 248//139 249//139
f 243//140 246//140 250//140 247//140
f 244//141 243//141 247//141 248//141
f 254//142 251//142 252//142 253//142
f 239//143 240//143 252//143 251//143
f 242//144 239//144 251//144 254//144
f 240//145 241//145 253//145 252//145
