# Blender v2.91.2 OBJ File: 'camionnete02.blend'
# www.blender.org
mtllib arme_000158.mtl
o Cube.046_Cube.010
v 151.999481 691.297974 -1249.777466
v 164.058807 478.956818 -1307.612793
v 213.348831 750.167603 -1453.123779
v 225.408127 537.826538 -1510.959229
v -59.353134 696.270386 -1312.102783
v -47.293854 483.929260 -1369.938110
v 1.996208 755.140015 -1515.448853
v 14.055473 542.798950 -1573.284668
v 67.533600 610.246094 -969.809875
v 79.592903 397.904999 -1027.645264
v -131.759689 402.877411 -1089.970581
v -143.818985 615.218506 -1032.135132
v 29.307312 573.564819 -843.106079
v 41.366554 361.223724 -900.941589
v -169.986099 366.196075 -963.266785
v -182.045364 578.537231 -905.431396
v 6.724854 551.895142 -768.255249
v 19.431931 401.052704 -822.784546
v -191.920761 406.025116 -885.109802
v -204.627792 556.867554 -830.580444
v 17.285263 785.249634 -785.449463
v -194.067337 790.222046 -847.774841
v -5.297134 763.579834 -710.598633
v -216.649765 768.552368 -772.923889
v 80.711868 622.891724 -1013.489929
v 92.771149 410.550598 -1071.325439
v -130.640747 627.864136 -1075.815186
v -118.581512 415.522980 -1133.650635
v 63.552765 680.341553 -950.718018
v -147.799881 685.313965 -1013.043274
v 76.731010 692.987061 -994.398010
v -134.621582 697.959473 -1056.723145
v 57.777199 782.038574 -923.018738
v -153.575394 787.010864 -985.343933
v 70.955399 794.684082 -966.698853
v -140.397171 799.656494 -1029.024048
v 26.190392 644.489258 -826.877930
v -185.162247 649.461670 -889.203186
v 20.414825 746.186279 -799.178711
v -190.937820 751.158691 -861.503906
v 24.059235 930.711548 -796.815491
v -187.293411 935.683960 -859.140808
v 1.476791 909.041870 -721.964661
v -209.875778 914.014282 -784.289856
v 191.690598 729.384766 -1381.336304
v 203.749893 517.043701 -1439.171875
v -19.661995 734.357178 -1443.661499
v -7.602699 522.016113 -1501.496948
v 107.672508 752.653809 -1484.286377
v 119.731796 540.312744 -1542.121948
v 46.323185 693.784180 -1280.940063
v 58.382477 481.443054 -1338.775513
v -38.142654 612.732300 -1000.972473
v -26.083389 400.391205 -1058.807861
v -76.369019 576.051025 -874.268677
v -59.277176 369.993561 -916.838989
v -98.951431 554.381348 -799.417847
v -74.067764 396.850403 -864.137573
v -88.391052 787.735840 -816.612061
v -110.973465 766.066162 -741.761230
v -12.905182 413.036774 -1102.488037
v -24.964432 625.377930 -1044.652588
v -42.123550 682.827759 -981.880615
v -28.945297 695.473267 -1025.560547
v -47.899078 784.524780 -954.181335
v -34.720871 797.170288 -997.861450
v -79.485931 646.975586 -858.040527
v -85.261475 748.672485 -830.341248
v -81.617096 933.197754 -827.978088
v -104.199509 911.528076 -753.127197
v 98.073563 519.529907 -1470.334351
v 86.014305 731.871094 -1412.498779
v 160.510742 751.410767 -1468.705078
v 111.220642 480.199982 -1323.194092
v 26.754738 399.148102 -1043.226562
v -23.648285 369.155365 -906.332520
v -38.438843 396.012177 -853.631042
v 27.873726 624.134766 -1029.071289
v 23.892845 694.230103 -1009.979309
v 18.117271 795.927124 -982.280090
v 138.852448 730.627930 -1396.917725
v 172.569992 539.069580 -1526.540649
v 99.161316 692.541138 -1265.358887
v 14.695465 611.489258 -985.391235
v -23.530884 574.807983 -858.687439
v -46.113281 553.138306 -783.836548
v -35.552872 786.492676 -801.030762
v -58.135284 764.822998 -726.179871
v 39.932983 411.793671 -1086.906738
v 10.714615 681.584595 -966.299255
v 4.939056 783.281616 -938.599976
v -26.647766 645.732422 -842.459290
v -32.423325 747.429443 -814.759888
v -28.778900 931.954590 -812.396729
v -51.361343 910.284912 -737.545959
v 150.911697 518.286865 -1454.753052
v 42.190918 372.035706 -1097.735596
v -10.647224 373.278778 -1113.316895
v 153.169586 478.528839 -1465.582031
v 100.331520 479.771942 -1481.163208
v 60.640400 441.685089 -1349.604492
v 113.478592 440.441986 -1334.023193
v 273.080475 657.442993 -1334.500854
v 255.529434 640.601440 -1276.327026
v 260.862061 546.706299 -1301.901123
v 278.412933 563.547974 -1360.075317
v 318.752625 656.368530 -1321.032959
v 301.201660 639.526978 -1262.858887
v 306.534210 545.631836 -1288.433105
v 324.085144 562.473511 -1346.607056
v 388.645630 654.724243 -1300.422485
v 371.094666 637.882690 -1242.248291
v 376.427124 543.987549 -1267.822632
v 393.978088 560.829224 -1325.996704
v 433.620911 653.666138 -1287.159790
v 416.069946 636.824585 -1228.985840
v 421.402527 542.929504 -1254.560059
v 438.953369 559.771118 -1312.734131
v 374.114502 732.467896 -2194.571533
v 321.276428 733.710938 -2210.152832
v 309.216980 946.052124 -2152.317383
v 362.055237 944.808960 -2136.736328
v -62.605530 1002.911865 -829.381165
v -159.980545 1005.202759 -858.095886
v -83.413986 982.944458 -760.410034
v -180.788986 985.235352 -789.124756
v 13.960999 980.653564 -731.695496
v 34.769531 1000.621094 -800.666321
v -13.917969 1001.766602 -815.023682
v -34.726501 981.798950 -746.052795
vn 0.9589 -0.0226 0.2828
vn 0.2783 0.2671 -0.9226
vn -0.9589 0.0226 -0.2828
vn -0.0547 0.9634 0.2624
vn 0.0547 -0.9634 -0.2624
vn -0.2783 -0.2671 0.9226
vn -0.1441 -0.8975 0.4169
vn -0.0299 -0.9666 -0.2546
vn -0.3484 -0.3706 0.8610
vn -0.9593 0.0217 -0.2817
vn 0.9593 -0.0217 0.2817
vn 0.2799 -0.0877 -0.9560
vn 0.2795 -0.0954 -0.9554
vn -0.2799 0.0877 0.9560
vn 0.6332 0.2367 -0.7369
vn -0.9161 0.3625 -0.1714
vn -0.2291 -0.3753 0.8982
vn 0.0848 -0.9718 -0.2201
vn -0.2746 0.1763 0.9453
vn -0.2677 -0.4020 0.8756
vn 0.0363 -0.9789 -0.2011
vn 0.1215 -0.2544 0.9594
vn 0.5747 -0.8159 -0.0628
vn 0.4835 0.7910 0.3749
vn 0.9589 -0.1331 0.2508
usemtl Matériau.011
s off
f 45//1 46//1 4//1 3//1
f 49//2 50//2 8//2 7//2
f 47//3 48//3 6//3 5//3
f 26//1 25//1 9//1 10//1
f 72//4 47//4 5//4 51//4
f 96//5 46//5 2//5 74//5
f 10//1 9//1 13//1 14//1
f 84//6 9//6 29//6 90//6
f 89//5 26//5 10//5 75//5
f 27//3 28//3 11//3 12//3
f 76//7 14//7 18//7 77//7
f 75//8 10//8 14//8 76//8
f 12//3 11//3 15//3 16//3
f 53//4 12//4 16//4 55//4
f 86//9 77//9 18//9 17//9
f 16//10 15//10 19//10 20//10
f 16//3 20//3 24//3 22//3
f 14//11 13//11 17//11 18//11
f 59//12 22//12 42//12 69//12
f 86//6 17//6 23//6 88//6
f 17//1 13//1 21//1 23//1
f 55//2 16//2 22//2 59//2
f 5//3 6//3 28//3 27//3
f 74//5 2//5 26//5 89//5
f 51//4 5//4 27//4 62//4
f 2//1 1//1 25//1 26//1
f 32//3 30//3 34//3 36//3
f 62//2 27//2 32//2 64//2
f 27//3 12//3 30//3 32//3
f 9//1 25//1 31//1 29//1
f 66//4 36//4 34//4 65//4
f 90//5 29//5 37//5 92//5
f 64//2 32//2 36//2 66//2
f 29//1 31//1 35//1 33//1
f 92//6 37//6 39//6 93//6
f 29//1 33//1 39//1 37//1
f 34//3 30//3 38//3 40//3
f 65//4 34//4 40//4 68//4
f 69//13 42//13 124//13 123//13
f 23//1 21//1 41//1 43//1
f 88//14 23//14 43//14 95//14
f 22//3 24//3 44//3 42//3
f 82//5 4//5 46//5 96//5
f 49//4 7//4 47//4 72//4
f 7//3 8//3 48//3 47//3
f 46//15 45//15 103//15 106//15
f 73//4 49//4 72//4 81//4
f 8//5 50//5 71//5 48//5
f 24//14 60//14 70//14 44//14
f 42//16 44//16 126//16 124//16
f 91//4 65//4 68//4 93//4
f 38//6 67//6 68//6 40//6
f 79//2 64//2 66//2 80//2
f 30//5 63//5 67//5 38//5
f 80//4 66//4 65//4 91//4
f 78//2 62//2 64//2 79//2
f 83//4 51//4 62//4 78//4
f 6//5 52//5 61//5 28//5
f 85//2 55//2 59//2 87//2
f 20//6 57//6 60//6 24//6
f 87//12 59//12 69//12 94//12
f 20//17 19//17 58//17 57//17
f 84//4 53//4 55//4 85//4
f 11//18 54//18 56//18 15//18
f 15//7 56//7 58//7 19//7
f 28//5 61//5 54//5 11//5
f 12//6 53//6 63//6 30//6
f 48//5 71//5 52//5 6//5
f 81//4 72//4 51//4 83//4
f 50//3 49//3 121//3 120//3
f 3//2 4//2 82//2 73//2
f 45//4 81//4 83//4 1//4
f 9//4 84//4 85//4 13//4
f 21//12 87//12 94//12 41//12
f 13//2 85//2 87//2 21//2
f 1//4 83//4 78//4 25//4
f 25//2 78//2 79//2 31//2
f 35//4 80//4 91//4 33//4
f 31//2 79//2 80//2 35//2
f 33//4 91//4 93//4 39//4
f 70//19 95//19 130//19 125//19
f 3//4 73//4 81//4 45//4
f 50//5 82//5 96//5 71//5
f 60//14 88//14 95//14 70//14
f 67//6 92//6 93//6 68//6
f 63//5 90//5 92//5 67//5
f 52//3 71//3 100//3 101//3
f 57//6 86//6 88//6 60//6
f 57//20 58//20 77//20 86//20
f 54//21 75//21 76//21 56//21
f 56//7 76//7 77//7 58//7
f 61//5 89//5 75//5 54//5
f 53//6 84//6 90//6 63//6
f 89//6 61//6 98//6 97//6
f 101//5 102//5 97//5 98//5
f 100//5 99//5 102//5 101//5
f 61//3 52//3 101//3 98//3
f 74//1 89//1 97//1 102//1
f 71//2 96//2 99//2 100//2
f 96//1 74//1 102//1 99//1
f 106//2 103//2 107//2 110//2
f 1//22 2//22 105//22 104//22
f 2//23 46//23 106//23 105//23
f 45//24 1//24 104//24 103//24
f 109//5 110//5 114//5 113//5
f 104//6 105//6 109//6 108//6
f 105//5 106//5 110//5 109//5
f 103//4 104//4 108//4 107//4
f 113//5 114//5 118//5 117//5
f 107//4 108//4 112//4 111//4
f 110//2 107//2 111//2 114//2
f 108//6 109//6 113//6 112//6
f 116//1 117//1 118//1 115//1
f 111//4 112//4 116//4 115//4
f 114//2 111//2 115//2 118//2
f 122//2 119//2 120//2 121//2
f 82//5 50//5 120//5 119//5
f 73//1 82//1 119//1 122//1
f 49//4 73//4 122//4 121//4
f 123//4 124//4 126//4 125//4
f 129//4 123//4 125//4 130//4
f 128//4 129//4 130//4 127//4
f 95//19 43//19 127//19 130//19
f 94//13 69//13 123//13 129//13
f 43//25 41//25 128//25 127//25
f 44//19 70//19 125//19 126//19
f 41//13 94//13 129//13 128//13
o Cube.048_Cube.024
v -515.644409 518.985840 158.338501
v -664.557739 364.746796 46.836670
v -385.872620 540.260132 -44.403374
v -533.857910 384.563477 -157.223694
v -659.525879 671.402283 12.059086
v -735.877869 592.319580 -45.110992
v -592.988281 682.310242 -91.892342
v -668.881958 602.829651 -148.500946
v -370.409119 548.838013 -502.025360
v -272.996368 606.103271 -444.980927
v -342.151215 711.396362 -432.588165
v -439.564026 654.131287 -489.632599
v -295.513489 639.571289 -683.821106
v -223.893463 681.673889 -641.880676
v -274.737701 759.087769 -632.769165
v -346.357788 716.985168 -674.709656
v -248.178528 698.981567 -796.496216
v -195.839447 729.749634 -765.846863
v -232.995880 786.322754 -759.188171
v -285.334839 755.554688 -789.837708
v -460.645081 635.675110 -60.399925
v -617.630493 470.773590 -178.169525
v -598.524048 613.216187 154.815887
v -756.614014 449.472443 36.442947
v -302.722137 662.313904 -441.992950
v -406.137878 601.519897 -502.552765
v -240.873871 727.742859 -652.768250
v -316.907410 683.045715 -697.293030
v -203.825500 767.718567 -785.675293
v -259.389832 735.054565 -818.213562
v -215.149841 726.284302 -880.306580
v -162.810791 757.052307 -849.657166
v -170.694153 802.960327 -877.630737
v -226.258514 770.296326 -910.168884
v -252.219238 789.575989 -880.540955
v -199.880157 820.344116 -849.891541
v -192.141663 747.019531 -940.412231
v -139.802734 777.787781 -909.762878
v -147.686035 823.695618 -937.736511
v -203.250305 791.031555 -970.274597
v -229.210968 810.311279 -940.646790
v -176.872070 841.079346 -909.997192
v -155.379089 744.809387 -974.083191
v -121.690735 764.613342 -954.355530
v -126.764832 794.162292 -972.360901
v -162.528992 773.137817 -993.304260
v -209.249512 834.927429 -1004.095886
v -235.210327 854.207214 -974.467834
v -182.871277 884.975220 -943.818420
v -153.685181 867.591553 -971.557556
v -130.834229 741.940491 -997.292664
v -108.122681 755.291870 -983.992615
v -111.543396 775.212830 -996.131409
v -135.654724 761.038757 -1010.250793
v -111.818115 749.473694 -1025.063477
v -97.620789 757.819702 -1016.749451
v -99.759216 770.272705 -1024.337646
v -114.831482 761.412231 -1033.163940
v -207.792175 867.121826 -1012.060730
v -225.053741 879.941040 -992.360657
v -190.252899 900.399170 -971.981506
v -170.846741 888.840576 -990.425598
v -206.981262 505.219086 348.733002
v -346.255402 308.353821 364.365051
v -105.395691 419.123596 145.705170
v -245.589661 221.126465 162.733337
v -386.289520 545.698975 171.137360
v -457.699280 444.760681 179.152344
v -325.894012 500.799103 64.121971
v -406.085205 400.036743 75.770126
v -222.089294 66.443176 -63.238182
v -129.393066 56.011841 20.300350
v -44.928101 54.040527 -71.356636
v -134.935974 63.255371 -154.981079
v -218.807587 -149.715820 -75.731102
v -151.888916 -159.608704 -11.816429
v -87.811768 -161.952576 -79.267845
v -154.730469 -152.059509 -143.182617
v -213.885071 -285.286011 -83.628395
v -164.981873 -292.515686 -36.920326
v -118.155151 -294.228333 -86.213020
v -167.058472 -286.998840 -132.921021
v -181.470032 483.051453 92.318924
v -342.481995 276.537109 112.398285
v -301.494385 578.136475 309.859894
v -449.351074 369.139771 326.455200
v -85.217896 45.415649 -19.806953
v -181.845032 59.700623 -112.096443
v -119.567871 -179.833435 -44.611755
v -190.610229 -169.330750 -112.465050
v -142.624329 -320.595337 -61.623657
v -194.541199 -312.920227 -111.210030
v -225.195801 -378.697754 -86.244621
v -176.292542 -385.927002 -39.536613
v -150.901428 -423.907104 -68.948372
v -202.818420 -416.231812 -118.534706
v -175.802063 -388.788818 -139.521881
v -126.898743 -396.018188 -92.813835
v -232.404602 -445.868774 -89.093987
v -183.501221 -453.098389 -42.385994
v -158.110352 -491.078369 -71.797737
v -210.027283 -483.403076 -121.384026
v -183.010681 -455.959717 -142.371338
v -134.107422 -463.189331 -95.663292
v -244.953735 -487.593140 -64.769203
v -213.476807 -492.246704 -34.705254
v -197.133881 -516.692383 -53.636330
v -230.550385 -511.752319 -85.552849
v -188.885559 -526.211060 -150.145386
v -161.869080 -498.767700 -171.132538
v -112.965759 -505.997681 -124.424477
v -136.968567 -533.886353 -100.558983
v -254.887207 -515.514893 -48.306374
v -233.666412 -518.652344 -28.038109
v -222.648621 -535.133301 -40.800865
v -245.176941 -531.802368 -62.318138
v -258.769867 -549.080811 -41.388710
v -245.504608 -551.041748 -28.718727
v -238.616943 -561.344238 -36.696983
v -252.699890 -559.262573 -50.147469
v -164.522461 -545.925903 -161.090942
v -146.558899 -527.678589 -175.045593
v -114.042419 -532.485474 -143.988922
v -130.002136 -551.029297 -128.120392
vn 0.5763 -0.7633 0.2919
vn -0.4937 0.8331 -0.2495
vn -0.5763 0.7631 -0.2923
vn -0.3649 -0.2878 0.8854
vn 0.2634 0.9274 0.2656
vn -0.5833 -0.6811 -0.4426
vn -0.5190 0.8543 0.0287
vn 0.7638 0.5547 0.3300
vn -0.7828 -0.2252 -0.5801
vn 0.6523 -0.7579 0.0078
vn -0.7922 -0.3191 -0.5203
vn 0.8345 0.4095 0.3687
vn -0.7813 -0.3579 -0.5113
vn 0.5703 -0.8044 -0.1665
vn 0.7342 0.5023 0.4568
vn 0.5746 -0.7985 -0.1796
vn -0.5134 0.8580 0.0153
vn 0.8564 0.3816 0.3478
vn 0.7292 0.5753 0.3706
vn 0.5335 -0.8433 -0.0645
vn -0.6949 -0.4895 -0.5268
vn 0.7480 0.5412 0.3842
vn -0.6649 -0.5128 -0.5431
vn -0.5726 -0.5820 -0.5774
vn 0.4321 0.8469 0.3099
vn -0.8145 -0.1936 -0.5469
vn 0.6505 0.5900 0.4783
vn -0.7763 0.3937 0.4922
vn -0.5403 0.8374 0.0821
vn -0.7406 -0.4952 -0.4543
vn -0.5506 0.8276 0.1094
vn 0.7990 0.4046 0.4448
vn -0.7377 -0.4987 -0.4551
vn -0.8020 -0.4008 -0.4429
vn 0.7386 0.4719 0.4814
vn 0.2941 -0.8775 0.3787
vn 0.7965 0.4084 0.4458
vn 0.7333 0.5052 0.4550
vn -0.8026 -0.3978 -0.4445
vn 0.5403 -0.8374 -0.0821
vn -0.0668 0.7589 -0.6478
vn -0.5809 -0.5523 -0.5979
vn 0.9065 0.3220 0.2730
vn -0.0486 0.7452 -0.6650
vn 0.6488 0.7261 0.2276
vn -0.7988 -0.4319 -0.4189
vn -0.6294 0.4185 0.6548
vn 0.6294 -0.4185 -0.6548
vn -0.3465 0.8887 -0.3004
vn 0.8916 0.3372 0.3021
vn -0.6089 -0.5449 -0.5765
vn 0.2778 -0.8726 0.4016
vn 0.6141 -0.3311 -0.7164
vn 0.8870 0.3417 0.3107
vn -0.6173 -0.5424 -0.5698
vn 0.4688 -0.8795 0.0824
vn -0.1076 0.7875 -0.6068
vn -0.7832 -0.1157 -0.6109
vn 0.5859 -0.2195 -0.7801
vn -0.6370 0.5935 0.4920
vn 0.7044 -0.4533 0.5462
vn 0.1081 0.4824 -0.8692
vn -0.6866 0.4613 -0.5620
vn -0.2151 0.2276 0.9497
vn 0.1665 0.9357 -0.3110
vn -0.5320 -0.8410 0.0982
vn 0.6744 -0.1046 -0.7309
vn 0.9586 0.1570 -0.2375
vn -0.8543 -0.3517 -0.3826
vn 0.2112 -0.5490 0.8087
vn -0.6397 0.0056 -0.7686
vn 0.6400 -0.1790 0.7472
vn -0.6676 0.0238 -0.7442
vn -0.6810 -0.0452 0.7309
vn 0.7601 -0.1066 0.6410
vn -0.6943 -0.0670 0.7166
vn 0.6768 -0.1171 -0.7268
vn 0.6214 -0.1987 0.7579
vn 0.7817 -0.2046 0.5891
vn -0.6845 0.0625 0.7263
vn -0.7765 0.0278 -0.6295
vn 0.7813 -0.1810 0.5973
vn -0.8001 0.0114 -0.5998
vn -0.7913 -0.5894 0.1627
vn 0.6129 0.4443 -0.6534
vn -0.8435 -0.4957 -0.2067
vn 0.6273 0.7787 -0.0049
vn -0.7576 0.5623 0.3316
vn 0.6867 -0.0429 -0.7256
vn -0.7537 0.1084 -0.6483
vn 0.6897 -0.0123 -0.7240
vn 0.6791 -0.1043 0.7266
vn -0.7567 0.1079 -0.6448
vn -0.6753 0.1056 -0.7299
vn 0.7461 -0.0760 0.6615
vn -0.5385 0.5394 0.6473
vn 0.6825 -0.1039 0.7234
vn 0.7616 -0.1088 0.6388
vn -0.6735 0.1033 -0.7319
vn -0.6867 0.0429 0.7256
vn 0.3409 -0.8072 -0.4819
vn -0.8482 -0.0522 -0.5271
vn 0.5415 -0.2577 0.8002
vn 0.3235 -0.8234 -0.4662
vn 0.8329 -0.3503 0.4284
vn -0.6904 0.1364 -0.7105
vn 0.5823 0.6315 -0.5119
vn -0.5823 -0.6315 0.5119
vn 0.5777 -0.4578 -0.6758
vn 0.5664 -0.2335 0.7904
vn -0.8356 -0.0262 -0.5487
vn -0.5258 0.5630 0.6376
vn -0.5380 -0.7107 0.4533
vn 0.5736 -0.2262 0.7873
vn -0.8316 -0.0182 -0.5551
vn -0.6555 0.2244 0.7211
vn 0.3793 -0.7680 -0.5160
vn -0.5050 -0.1525 -0.8495
vn -0.4756 -0.7958 0.3748
vn 0.6557 0.4311 -0.6198
usemtl Matériau.012
s off
f 131//26 132//26 134//26 133//26
f 138//27 137//27 141//27 142//27
f 137//28 138//28 136//28 135//28
f 153//29 154//29 132//29 131//29
f 151//30 137//30 135//30 153//30
f 152//31 134//31 132//31 154//31
f 142//32 141//32 145//32 146//32
f 151//33 133//33 140//33 155//33
f 152//34 138//34 142//34 156//34
f 133//35 134//35 139//35 140//35
f 158//36 146//36 150//36 160//36
f 155//37 140//37 144//37 157//37
f 156//38 142//38 146//38 158//38
f 140//39 139//39 143//39 144//39
f 149//40 159//40 163//40 166//40
f 144//41 143//41 147//41 148//41
f 146//42 145//42 149//42 150//42
f 157//43 144//43 148//43 159//43
f 145//44 157//44 159//44 149//44
f 148//45 147//45 161//45 162//45
f 139//46 156//46 158//46 143//46
f 141//47 155//47 157//47 145//47
f 143//48 158//48 160//48 147//48
f 134//49 152//49 156//49 139//49
f 137//50 151//50 155//50 141//50
f 138//51 152//51 154//51 136//51
f 133//52 151//52 153//52 131//52
f 135//53 136//53 154//53 153//53
f 165//54 166//54 172//54 171//54
f 161//55 164//55 170//55 167//55
f 150//56 149//56 166//56 165//56
f 159//57 148//57 162//57 163//57
f 147//58 160//58 164//58 161//58
f 160//59 150//59 165//59 164//59
f 172//60 169//60 180//60 179//60
f 168//61 167//61 173//61 174//61
f 163//62 162//62 168//62 169//62
f 166//63 163//63 169//63 172//63
f 164//64 165//64 171//64 170//64
f 162//65 161//65 167//65 168//65
f 176//66 175//66 183//66 184//66
f 167//67 170//67 176//67 173//67
f 169//68 168//68 174//68 175//68
f 170//69 169//69 175//69 176//69
f 179//70 180//70 192//70 191//70
f 170//71 171//71 178//71 177//71
f 171//72 172//72 179//72 178//72
f 169//73 170//73 177//73 180//73
f 184//74 183//74 187//74 188//74
f 175//75 174//75 182//75 183//75
f 173//76 176//76 184//76 181//76
f 174//77 173//77 181//77 182//77
f 186//78 185//78 188//78 187//78
f 183//79 182//79 186//79 187//79
f 181//80 184//80 188//80 185//80
f 182//81 181//81 185//81 186//81
f 192//82 189//82 190//82 191//82
f 177//83 178//83 190//83 189//83
f 180//84 177//84 189//84 192//84
f 178//85 179//85 191//85 190//85
f 193//86 194//86 196//86 195//86
f 200//87 199//87 203//87 204//87
f 199//88 200//88 198//88 197//88
f 215//89 216//89 194//89 193//89
f 213//90 199//90 197//90 215//90
f 214//91 196//91 194//91 216//91
f 204//92 203//92 207//92 208//92
f 213//93 195//93 202//93 217//93
f 214//94 200//94 204//94 218//94
f 195//95 196//95 201//95 202//95
f 220//96 208//96 212//96 222//96
f 217//97 202//97 206//97 219//97
f 218//98 204//98 208//98 220//98
f 202//99 201//99 205//99 206//99
f 211//100 221//100 225//100 228//100
f 206//101 205//101 209//101 210//101
f 208//102 207//102 211//102 212//102
f 219//103 206//103 210//103 221//103
f 207//104 219//104 221//104 211//104
f 210//105 209//105 223//105 224//105
f 201//106 218//106 220//106 205//106
f 203//107 217//107 219//107 207//107
f 205//108 220//108 222//108 209//108
f 196//109 214//109 218//109 201//109
f 199//110 213//110 217//110 203//110
f 200//111 214//111 216//111 198//111
f 195//112 213//112 215//112 193//112
f 197//113 198//113 216//113 215//113
f 227//114 228//114 234//114 233//114
f 223//115 226//115 232//115 229//115
f 212//116 211//116 228//116 227//116
f 221//117 210//117 224//117 225//117
f 209//118 222//118 226//118 223//118
f 222//119 212//119 227//119 226//119
f 234//120 231//120 242//120 241//120
f 230//121 229//121 235//121 236//121
f 225//122 224//122 230//122 231//122
f 228//123 225//123 231//123 234//123
f 226//124 227//124 233//124 232//124
f 224//125 223//125 229//125 230//125
f 238//126 237//126 245//126 246//126
f 229//127 232//127 238//127 235//127
f 231//128 230//128 236//128 237//128
f 232//129 231//129 237//129 238//129
f 241//130 242//130 254//130 253//130
f 232//131 233//131 240//131 239//131
f 233//132 234//132 241//132 240//132
f 231//133 232//133 239//133 242//133
f 246//134 245//134 249//134 250//134
f 237//135 236//135 244//135 245//135
f 235//136 238//136 246//136 243//136
f 236//137 235//137 243//137 244//137
f 248//138 247//138 250//138 249//138
f 245//139 244//139 248//139 249//139
f 243//140 246//140 250//140 247//140
f 244//141 243//141 247//141 248//141
f 254//142 251//142 252//142 253//142
f 239//143 240//143 252//143 251//143
f 242//144 239//144 251//144 254//144
f 240//145 241//145 253//145 252//145
