# Blender v2.91.2 OBJ File: 'camionnete02.blend'
# www.blender.org
mtllib arme_000035.mtl
o Cube.046_Cube.010
v 366.649200 226.552887 -1021.327881
v 367.915314 6.149796 -1021.274902
v 485.270447 227.189667 -1207.090332
v 486.536560 6.786591 -1207.037476
v 180.889954 225.457306 -1139.950806
v 182.156021 5.054199 -1139.897827
v 299.511169 226.094116 -1325.713257
v 300.777283 5.690994 -1325.660400
v 203.331253 225.676117 -765.569702
v 204.597351 5.273071 -765.516724
v 18.838100 4.177475 -884.139648
v 17.572010 224.580566 -884.192566
v 129.419189 225.279358 -649.822205
v 130.685272 4.876266 -649.769348
v -55.074036 3.780670 -768.392212
v -56.340126 224.183777 -768.445190
v 85.755219 225.044952 -581.443909
v 94.114136 64.761154 -592.739990
v -91.645210 63.665588 -711.362915
v -100.004105 223.949402 -700.066772
v 128.156982 445.001068 -649.875061
v -57.602276 443.905487 -768.498047
v 84.493050 444.766693 -581.496704
v -101.266228 443.671112 -700.119629
v 228.811874 225.812897 -805.472656
v 230.077972 5.409851 -805.419739
v 43.052601 224.717346 -924.095581
v 44.318665 4.314255 -924.042664
v 202.913315 298.432831 -765.587158
v 17.154047 297.337311 -884.210144
v 228.393921 298.569611 -805.490112
v 42.634636 297.474030 -924.112976
v 202.306976 403.990936 -765.612549
v 16.547697 402.895355 -884.235352
v 227.787537 404.127716 -805.515503
v 42.028301 403.032135 -924.138367
v 130.671768 298.045013 -652.455811
v -55.087540 296.949432 -771.078735
v 130.065384 403.603180 -652.481140
v -55.693905 402.507538 -771.104065
v 154.939651 581.932617 -693.080322
v -30.819626 580.837036 -811.703308
v 111.275681 581.698242 -624.702026
v -74.483551 580.602661 -743.324890
v 443.393463 226.964874 -1141.510498
v 444.659576 6.561783 -1141.457642
v 257.634186 225.869293 -1260.133301
v 258.900299 5.466187 -1260.080444
v 392.390808 226.641907 -1266.401855
v 393.656921 6.238785 -1266.348999
v 273.769592 226.005096 -1080.639404
v 275.035675 5.602005 -1080.586426
v 110.451637 225.128326 -824.881104
v 111.717712 4.725266 -824.828125
v 36.539539 224.731598 -709.133728
v 37.805614 4.328476 -709.080811
v -7.124417 224.497162 -640.755371
v 1.234482 64.213379 -652.051453
v 35.277336 444.453339 -709.186462
v -8.386593 444.218903 -640.808167
v 137.198318 4.862061 -864.731140
v 135.932236 225.265106 -864.784119
v 110.033684 297.885071 -824.898682
v 135.514282 298.021790 -864.801514
v 109.427338 403.443207 -824.923950
v 134.907928 403.579926 -864.826965
v 37.792110 297.497253 -711.767334
v 37.185745 403.055389 -711.792603
v 62.059998 581.384888 -752.391846
v 18.396044 581.150391 -684.013489
v 351.779907 6.013992 -1200.769043
v 350.513824 226.417084 -1200.821899
v 438.830627 226.915771 -1236.745972
v 321.475494 5.875900 -1050.930664
v 158.157532 4.999176 -795.172485
v 84.245422 4.602371 -679.425110
v 47.674301 64.487259 -622.395752
v 182.372055 225.539001 -835.128357
v 181.954102 298.295685 -835.145813
v 181.347733 403.853790 -835.171204
v 396.953674 226.690979 -1171.166260
v 440.096741 6.512695 -1236.693237
v 320.209381 226.278992 -1050.983765
v 156.891449 225.402222 -795.225464
v 82.979347 225.005463 -679.477966
v 39.315388 224.771057 -611.099609
v 81.717178 444.727203 -679.530762
v 38.053242 444.492767 -611.152466
v 183.638153 5.135956 -835.075439
v 156.473511 298.158966 -795.242920
v 155.867142 403.717072 -795.268250
v 84.231934 297.771149 -682.111572
v 83.625565 403.329254 -682.136841
v 108.499847 581.658813 -722.736023
v 64.835876 581.424316 -654.357727
v 398.219727 6.287888 -1171.113403
v 183.875214 -36.131508 -835.065552
v 137.435379 -36.405426 -864.721252
v 398.456787 -34.979584 -1171.103516
v 352.016998 -35.253494 -1200.759155
v 275.272736 -35.665482 -1080.576538
v 321.712555 -35.391571 -1050.920776
v 500.649750 165.840240 -1057.970215
v 466.714203 165.658051 -1004.826721
v 467.274170 68.198074 -1004.803162
v 501.209625 68.380249 -1057.946899
v 540.791382 166.077026 -1032.336548
v 506.855865 165.894836 -979.192993
v 507.415771 68.434860 -979.169556
v 541.351257 68.617020 -1032.313110
v 602.220886 166.439331 -993.108826
v 568.285339 166.257141 -939.965210
v 568.845215 68.797195 -939.941772
v 602.780701 68.979370 -993.085449
v 641.749939 166.672485 -967.866211
v 607.814392 166.490295 -914.722656
v 608.374390 69.030319 -914.699219
v 642.309814 69.212494 -967.842773
v 829.790344 8.604980 -1846.958008
v 783.350525 8.331085 -1876.613770
v 782.084290 228.734192 -1876.666748
v 828.524231 229.008087 -1847.010986
vn 0.8428 0.0050 0.5382
vn 0.5382 0.0029 -0.8428
vn -0.8428 -0.0050 -0.5382
vn -0.0057 1.0000 -0.0002
vn 0.0057 -1.0000 0.0002
vn -0.5382 -0.0029 0.8428
vn -0.3533 -0.7492 0.5602
vn -0.5358 -0.0871 0.8398
vn -0.8435 -0.0055 -0.5371
vn 0.8435 0.0055 0.5371
vn 0.5060 -0.3480 -0.7892
vn -0.5060 0.3480 0.7892
vn 0.8264 0.0046 -0.5630
vn -0.1631 -0.0007 0.9866
vn 0.4698 -0.8312 0.2972
vn 0.4602 0.8367 0.2968
usemtl Matériau.011
s off
f 45//1 46//1 4//1 3//1
f 49//2 50//2 8//2 7//2
f 47//3 48//3 6//3 5//3
f 26//1 25//1 9//1 10//1
f 72//4 47//4 5//4 51//4
f 96//5 46//5 2//5 74//5
f 10//1 9//1 13//1 14//1
f 84//6 9//6 29//6 90//6
f 89//5 26//5 10//5 75//5
f 27//3 28//3 11//3 12//3
f 76//7 14//7 18//7 77//7
f 75//5 10//5 14//5 76//5
f 12//3 11//3 15//3 16//3
f 53//4 12//4 16//4 55//4
f 86//8 77//8 18//8 17//8
f 16//9 15//9 19//9 20//9
f 16//3 20//3 24//3 22//3
f 14//10 13//10 17//10 18//10
f 59//11 22//11 42//11 69//11
f 86//6 17//6 23//6 88//6
f 17//1 13//1 21//1 23//1
f 55//2 16//2 22//2 59//2
f 5//3 6//3 28//3 27//3
f 74//5 2//5 26//5 89//5
f 51//4 5//4 27//4 62//4
f 2//1 1//1 25//1 26//1
f 32//3 30//3 34//3 36//3
f 62//2 27//2 32//2 64//2
f 27//3 12//3 30//3 32//3
f 9//1 25//1 31//1 29//1
f 66//4 36//4 34//4 65//4
f 90//5 29//5 37//5 92//5
f 64//2 32//2 36//2 66//2
f 29//1 31//1 35//1 33//1
f 92//6 37//6 39//6 93//6
f 29//1 33//1 39//1 37//1
f 34//3 30//3 38//3 40//3
f 65//4 34//4 40//4 68//4
f 69//4 42//4 44//4 70//4
f 23//1 21//1 41//1 43//1
f 88//12 23//12 43//12 95//12
f 22//3 24//3 44//3 42//3
f 82//5 4//5 46//5 96//5
f 49//4 7//4 47//4 72//4
f 7//3 8//3 48//3 47//3
f 46//13 45//13 103//13 106//13
f 73//4 49//4 72//4 81//4
f 8//5 50//5 71//5 48//5
f 24//12 60//12 70//12 44//12
f 94//4 69//4 70//4 95//4
f 91//4 65//4 68//4 93//4
f 38//6 67//6 68//6 40//6
f 79//2 64//2 66//2 80//2
f 30//5 63//5 67//5 38//5
f 80//4 66//4 65//4 91//4
f 78//2 62//2 64//2 79//2
f 83//4 51//4 62//4 78//4
f 6//5 52//5 61//5 28//5
f 85//2 55//2 59//2 87//2
f 20//6 57//6 60//6 24//6
f 87//11 59//11 69//11 94//11
f 20//8 19//8 58//8 57//8
f 84//4 53//4 55//4 85//4
f 11//5 54//5 56//5 15//5
f 15//7 56//7 58//7 19//7
f 28//5 61//5 54//5 11//5
f 12//6 53//6 63//6 30//6
f 48//5 71//5 52//5 6//5
f 81//4 72//4 51//4 83//4
f 50//3 49//3 121//3 120//3
f 3//2 4//2 82//2 73//2
f 45//4 81//4 83//4 1//4
f 9//4 84//4 85//4 13//4
f 21//11 87//11 94//11 41//11
f 13//2 85//2 87//2 21//2
f 1//4 83//4 78//4 25//4
f 25//2 78//2 79//2 31//2
f 35//4 80//4 91//4 33//4
f 31//2 79//2 80//2 35//2
f 33//4 91//4 93//4 39//4
f 41//4 94//4 95//4 43//4
f 3//4 73//4 81//4 45//4
f 50//5 82//5 96//5 71//5
f 60//12 88//12 95//12 70//12
f 67//6 92//6 93//6 68//6
f 63//5 90//5 92//5 67//5
f 52//3 71//3 100//3 101//3
f 57//6 86//6 88//6 60//6
f 57//8 58//8 77//8 86//8
f 54//5 75//5 76//5 56//5
f 56//7 76//7 77//7 58//7
f 61//5 89//5 75//5 54//5
f 53//6 84//6 90//6 63//6
f 89//6 61//6 98//6 97//6
f 101//5 102//5 97//5 98//5
f 100//5 99//5 102//5 101//5
f 61//3 52//3 101//3 98//3
f 74//1 89//1 97//1 102//1
f 71//2 96//2 99//2 100//2
f 96//1 74//1 102//1 99//1
f 106//2 103//2 107//2 110//2
f 1//14 2//14 105//14 104//14
f 2//15 46//15 106//15 105//15
f 45//16 1//16 104//16 103//16
f 109//5 110//5 114//5 113//5
f 104//6 105//6 109//6 108//6
f 105//5 106//5 110//5 109//5
f 103//4 104//4 108//4 107//4
f 113//5 114//5 118//5 117//5
f 107//4 108//4 112//4 111//4
f 110//2 107//2 111//2 114//2
f 108//6 109//6 113//6 112//6
f 116//1 117//1 118//1 115//1
f 111//4 112//4 116//4 115//4
f 114//2 111//2 115//2 118//2
f 122//2 119//2 120//2 121//2
f 82//5 50//5 120//5 119//5
f 73//1 82//1 119//1 122//1
f 49//4 73//4 122//4 121//4
o Cube.047_Cube.022
v -252.302612 477.912903 284.752075
v -248.850906 236.292664 287.057312
v -134.831543 477.576202 73.569656
v -131.379822 235.955963 75.874893
v -433.995941 414.826416 116.413109
v -432.226135 290.940979 117.595078
v -373.765228 414.653809 8.133987
v -371.995422 290.768341 9.315948
v 6.541351 291.958374 -292.444031
v 4.733307 418.520233 -293.651550
v -105.870438 416.353241 -355.171875
v -104.062424 289.791382 -353.964355
v 96.291168 308.126953 -488.849426
v 94.961884 401.178101 -489.737244
v 13.643524 399.584869 -534.968323
v 14.972809 306.533722 -534.080505
v 150.659393 320.250092 -612.796875
v 149.687958 388.250641 -613.445679
v 90.261566 387.086304 -646.500000
v 91.233002 319.085785 -645.851196
v -249.442352 482.977966 30.822975
v -245.777924 226.468323 33.270271
v -374.152374 483.335388 255.019135
v -370.487976 226.825760 257.466431
v -47.903610 421.328522 -329.339966
v -45.984177 286.967499 -328.058044
v 63.430145 403.222260 -528.862488
v 64.841339 304.437012 -527.919983
v 133.149109 389.725830 -653.730652
v 134.180420 317.534882 -653.041931
v 199.476868 320.179626 -693.278870
v 198.505432 388.180176 -693.927673
v 181.712646 389.543243 -745.583862
v 182.743958 317.352295 -744.895081
v 139.835571 318.920410 -735.956482
v 138.864136 386.920959 -736.605286
v 233.395142 320.106079 -751.773315
v 232.423706 388.106628 -752.422119
v 215.630920 389.469727 -804.078308
v 216.662170 317.278748 -803.389587
v 173.753845 318.846893 -794.450928
v 172.782410 386.847443 -795.099731
v 275.344055 332.596100 -775.740051
v 274.718811 376.364960 -776.157654
v 263.910095 377.242310 -809.406433
v 264.573914 330.776276 -808.963074
v 205.271881 316.595520 -857.946960
v 162.363525 318.163635 -849.008240
v 161.392090 386.164185 -849.657043
v 204.240570 388.786469 -858.635681
v 304.536438 339.997253 -791.308105
v 304.114929 369.505035 -791.589600
v 296.828064 370.096497 -814.005005
v 297.275574 338.770386 -813.706177
v 326.647400 345.594238 -817.180115
v 326.383850 364.039917 -817.356079
v 321.828796 364.409668 -831.368286
v 322.108582 344.827332 -831.181458
v 191.778229 328.234222 -885.955811
v 163.247833 329.276917 -880.012390
v 162.601898 374.491333 -880.443787
v 191.092468 376.234924 -886.413818
vn 0.8738 0.0171 0.4860
vn -0.8047 -0.0172 -0.5934
vn -0.8738 -0.0171 -0.4860
vn -0.2368 0.0059 0.9715
vn -0.4330 0.8683 -0.2422
vn 0.0680 -0.9969 0.0394
vn -0.8334 -0.0172 -0.5524
vn 0.1028 0.9879 -0.1157
vn -0.2706 -0.9294 -0.2510
vn 0.9355 0.0167 0.3529
vn -0.0404 -0.9904 -0.1321
vn 0.0940 0.9947 -0.0412
vn -0.0159 -0.9949 -0.0992
vn 0.9089 0.0170 0.4167
vn -0.0685 0.9969 -0.0385
vn 0.9150 0.0169 0.4030
vn -0.8250 -0.0172 -0.5648
vn 0.1348 0.9901 -0.0377
vn -0.0686 0.9862 -0.1509
vn 0.8549 0.0172 0.5185
vn 0.1224 -0.9922 -0.0223
vn -0.0443 0.9920 -0.1181
vn 0.1631 -0.9864 -0.0189
vn 0.1310 -0.9866 -0.0969
vn -0.2970 0.9163 -0.2686
vn -0.4079 -0.8847 -0.2255
vn 0.0395 0.9990 0.0204
vn -0.9164 -0.0093 0.4002
vn -0.8650 -0.0171 -0.5015
vn 0.0591 -0.9976 0.0355
vn -0.8800 -0.0171 -0.4746
vn 0.0348 0.9992 0.0182
vn 0.0634 -0.9973 0.0373
vn -0.0399 -0.9990 -0.0194
vn -0.0610 0.9981 0.0002
vn 0.4926 0.0153 0.8701
vn 0.0305 0.9994 0.0164
vn -0.0697 0.9967 -0.0417
vn -0.0412 -0.9989 -0.0226
vn 0.8650 0.0171 0.5015
vn -0.1408 -0.0115 -0.9900
vn 0.2673 -0.9630 -0.0339
vn 0.2397 0.9694 -0.0524
vn -0.1125 -0.0111 -0.9936
vn -0.1312 0.9252 -0.3560
vn -0.0325 -0.9993 0.0193
vn -0.9788 -0.0120 0.2045
vn 0.9788 0.0120 -0.2045
vn -0.5728 -0.0160 -0.8195
vn 0.2064 0.9776 -0.0413
vn 0.2343 -0.9719 -0.0227
vn 0.4675 0.0151 0.8839
vn 0.9510 0.0106 -0.3089
vn 0.1965 0.9798 -0.0380
vn 0.2241 -0.9744 -0.0193
vn 0.7583 0.0171 0.6517
vn -0.2044 -0.0123 -0.9788
vn -0.1046 -0.9352 -0.3382
vn 0.9023 0.0088 -0.4310
vn -0.9993 -0.0146 -0.0337
usemtl Matériau.012
s off
f 123//17 124//17 126//17 125//17
f 130//18 129//18 133//18 134//18
f 129//19 130//19 128//19 127//19
f 145//20 146//20 124//20 123//20
f 143//21 129//21 127//21 145//21
f 144//22 126//22 124//22 146//22
f 134//23 133//23 137//23 138//23
f 143//24 125//24 132//24 147//24
f 144//25 130//25 134//25 148//25
f 125//26 126//26 131//26 132//26
f 150//27 138//27 142//27 152//27
f 147//28 132//28 136//28 149//28
f 148//29 134//29 138//29 150//29
f 132//30 131//30 135//30 136//30
f 141//31 151//31 155//31 158//31
f 136//32 135//32 139//32 140//32
f 138//33 137//33 141//33 142//33
f 149//34 136//34 140//34 151//34
f 137//35 149//35 151//35 141//35
f 140//36 139//36 153//36 154//36
f 131//37 148//37 150//37 135//37
f 133//38 147//38 149//38 137//38
f 135//39 150//39 152//39 139//39
f 126//40 144//40 148//40 131//40
f 129//41 143//41 147//41 133//41
f 130//42 144//42 146//42 128//42
f 125//43 143//43 145//43 123//43
f 127//44 128//44 146//44 145//44
f 157//45 158//45 164//45 163//45
f 153//46 156//46 162//46 159//46
f 142//47 141//47 158//47 157//47
f 151//48 140//48 154//48 155//48
f 139//49 152//49 156//49 153//49
f 152//50 142//50 157//50 156//50
f 164//51 161//51 172//51 171//51
f 160//52 159//52 165//52 166//52
f 155//53 154//53 160//53 161//53
f 158//54 155//54 161//54 164//54
f 156//55 157//55 163//55 162//55
f 154//56 153//56 159//56 160//56
f 168//57 167//57 175//57 176//57
f 159//58 162//58 168//58 165//58
f 161//59 160//59 166//59 167//59
f 162//60 161//60 167//60 168//60
f 171//61 172//61 184//61 183//61
f 162//62 163//62 170//62 169//62
f 163//63 164//63 171//63 170//63
f 161//64 162//64 169//64 172//64
f 176//65 175//65 179//65 180//65
f 167//66 166//66 174//66 175//66
f 165//67 168//67 176//67 173//67
f 166//68 165//68 173//68 174//68
f 178//69 177//69 180//69 179//69
f 175//70 174//70 178//70 179//70
f 173//71 176//71 180//71 177//71
f 174//72 173//72 177//72 178//72
f 184//73 181//73 182//73 183//73
f 169//74 170//74 182//74 181//74
f 172//75 169//75 181//75 184//75
f 170//76 171//76 183//76 182//76
o Cube.048_Cube.024
v -525.691040 335.377228 120.613609
v -686.745850 196.783936 5.501341
v -384.001556 333.308228 -75.134644
v -545.056335 194.714966 -190.246918
v -641.688171 499.059357 -37.763191
v -724.265442 427.998688 -96.784462
v -569.039978 497.998505 -138.128799
v -651.617249 426.937866 -197.150085
v -305.217499 271.516541 -497.486603
v -220.856232 344.112396 -437.190247
v -279.144714 447.800873 -480.477478
v -363.505981 375.205017 -540.773804
v -175.562408 293.011749 -669.588440
v -113.538086 346.385864 -625.257202
v -156.393127 422.619965 -657.082947
v -218.417450 369.245880 -701.414185
v -93.986572 309.304321 -777.039795
v -48.660034 348.309418 -744.643066
v -79.977905 404.020325 -767.900879
v -125.304443 365.015228 -800.297607
v -445.446411 436.712006 -98.031937
v -616.425903 289.578186 -220.237778
v -595.867310 438.908508 109.778954
v -766.846802 291.774658 -12.426874
v -244.119629 398.145508 -461.509583
v -333.679504 321.076080 -525.521606
v -121.995911 385.985962 -655.081909
v -187.842377 329.322784 -702.145020
v -46.995850 377.134094 -777.276733
v -95.115540 335.725403 -811.669800
v -37.204773 305.600067 -852.023804
v 8.121765 344.605164 -819.627075
v 12.892151 378.056244 -862.176880
v -35.227539 336.647522 -896.569946
v -65.893921 365.226227 -883.673462
v -20.567383 404.231323 -851.276733
v 2.990234 304.032867 -906.374207
v 48.316772 343.037964 -873.977478
v 53.087158 376.489075 -916.527283
v 4.967468 335.080383 -950.920349
v -25.698853 363.659027 -938.023865
v 19.627686 402.664124 -905.627136
v 46.905823 289.969971 -925.446838
v 76.080444 315.075775 -904.594543
v 79.151062 336.606720 -931.981995
v 48.178589 309.953796 -954.119263
v 12.877625 364.602295 -997.531494
v -17.788696 393.180969 -984.634949
v 27.537842 432.186035 -952.238220
v 60.997314 406.010986 -963.138428
v 76.270203 279.021606 -938.377747
v 95.938965 295.947235 -924.319702
v 98.008972 310.462799 -942.783508
v 77.128174 292.494141 -957.707825
v 102.658325 276.301575 -960.419739
v 114.953491 286.881989 -951.631897
v 116.247559 295.955841 -963.173828
v 103.194702 284.723419 -972.503174
v 19.829651 392.032776 -1014.888855
v -0.560791 411.035095 -1006.313721
v 29.577393 436.970062 -984.772766
v 51.825073 419.565918 -992.020447
vn 0.4605 -0.8192 0.3420
vn -0.3820 0.8114 -0.4424
vn -0.4605 0.8192 -0.3420
vn -0.4431 -0.2091 0.8717
vn 0.3627 0.8969 0.2530
vn -0.6369 -0.6228 -0.4544
vn -0.4136 0.8160 -0.4038
vn 0.7691 0.5237 0.3663
vn -0.7353 -0.2235 -0.6399
vn 0.5414 -0.8116 0.2197
vn -0.6554 -0.4723 -0.5894
vn 0.7458 0.5044 0.4353
vn -0.6515 -0.5057 -0.5655
vn 0.5046 -0.8173 0.2781
vn 0.6363 0.6228 0.4553
vn 0.5128 -0.8164 0.2655
vn -0.4042 0.8148 -0.4155
vn 0.7693 0.4707 0.4320
vn 0.6621 0.6614 0.3523
vn 0.4381 -0.8182 0.3722
vn -0.5787 -0.6354 -0.5113
vn 0.6729 0.6340 0.3812
vn -0.5482 -0.6631 -0.5097
vn -0.5471 -0.6089 -0.5744
vn 0.4950 0.8352 0.2395
vn -0.8058 -0.1086 -0.5821
vn 0.6935 0.5220 0.4965
vn -0.7455 0.5035 0.4368
vn -0.4499 0.8189 -0.3564
vn -0.6423 -0.6152 -0.4573
vn -0.4680 0.8192 -0.3314
vn 0.6912 0.5264 0.4952
vn -0.6397 -0.6188 -0.4560
vn -0.6941 -0.5221 -0.4956
vn 0.6307 0.6027 0.4888
vn 0.0876 -0.6947 0.7139
vn 0.6889 0.5303 0.4942
vn 0.6362 0.6249 0.4525
vn -0.6940 -0.5198 -0.4982
vn 0.4499 -0.8189 0.3564
vn 0.1888 0.4882 -0.8520
vn -0.4573 -0.7199 -0.5221
vn 0.8308 0.3885 0.3986
vn 0.2094 0.4693 -0.8579
vn 0.6391 0.7541 0.1510
vn -0.7007 -0.5430 -0.4628
vn -0.7319 0.6249 0.2716
vn 0.7319 -0.6249 -0.2716
vn -0.1573 0.7327 -0.6621
vn 0.8105 0.4129 0.4155
vn -0.4890 -0.7053 -0.5133
vn 0.0664 -0.6821 0.7283
vn 0.7429 -0.5642 -0.3602
vn 0.8042 0.4201 0.4204
vn -0.4986 -0.7006 -0.5104
vn 0.3333 -0.8007 0.4978
vn 0.1419 0.5297 -0.8363
vn -0.6010 -0.3130 -0.7354
vn 0.7447 -0.4813 -0.4624
vn -0.6773 0.7328 0.0653
usemtl Matériau.012
s off
f 185//77 186//77 188//77 187//77
f 192//78 191//78 195//78 196//78
f 191//79 192//79 190//79 189//79
f 207//80 208//80 186//80 185//80
f 205//81 191//81 189//81 207//81
f 206//82 188//82 186//82 208//82
f 196//83 195//83 199//83 200//83
f 205//84 187//84 194//84 209//84
f 206//85 192//85 196//85 210//85
f 187//86 188//86 193//86 194//86
f 212//87 200//87 204//87 214//87
f 209//88 194//88 198//88 211//88
f 210//89 196//89 200//89 212//89
f 194//90 193//90 197//90 198//90
f 203//91 213//91 217//91 220//91
f 198//92 197//92 201//92 202//92
f 200//93 199//93 203//93 204//93
f 211//94 198//94 202//94 213//94
f 199//95 211//95 213//95 203//95
f 202//96 201//96 215//96 216//96
f 193//97 210//97 212//97 197//97
f 195//98 209//98 211//98 199//98
f 197//99 212//99 214//99 201//99
f 188//100 206//100 210//100 193//100
f 191//101 205//101 209//101 195//101
f 192//102 206//102 208//102 190//102
f 187//103 205//103 207//103 185//103
f 189//104 190//104 208//104 207//104
f 219//105 220//105 226//105 225//105
f 215//106 218//106 224//106 221//106
f 204//107 203//107 220//107 219//107
f 213//108 202//108 216//108 217//108
f 201//109 214//109 218//109 215//109
f 214//110 204//110 219//110 218//110
f 226//111 223//111 234//111 233//111
f 222//112 221//112 227//112 228//112
f 217//113 216//113 222//113 223//113
f 220//114 217//114 223//114 226//114
f 218//115 219//115 225//115 224//115
f 216//116 215//116 221//116 222//116
f 230//117 229//117 237//117 238//117
f 221//118 224//118 230//118 227//118
f 223//119 222//119 228//119 229//119
f 224//120 223//120 229//120 230//120
f 233//121 234//121 246//121 245//121
f 224//122 225//122 232//122 231//122
f 225//123 226//123 233//123 232//123
f 223//124 224//124 231//124 234//124
f 238//125 237//125 241//125 242//125
f 229//126 228//126 236//126 237//126
f 227//127 230//127 238//127 235//127
f 228//128 227//128 235//128 236//128
f 240//129 239//129 242//129 241//129
f 237//130 236//130 240//130 241//130
f 235//131 238//131 242//131 239//131
f 236//132 235//132 239//132 240//132
f 246//133 243//133 244//133 245//133
f 231//134 232//134 244//134 243//134
f 234//135 231//135 243//135 246//135
f 232//136 233//136 245//136 244//136
