# Blender v2.91.2 OBJ File: 'camionnete02.blend'
# www.blender.org
mtllib arme_000032.mtl
o Cube.046_Cube.010
v 115.436371 117.778183 -1125.196045
v 54.502274 -92.594025 -1100.504395
v 188.286743 72.838196 -1328.302734
v 127.352585 -137.533997 -1303.611084
v -83.457939 165.768219 -1207.154053
v -144.392090 -44.603973 -1182.462158
v -10.607574 120.828278 -1410.260498
v -71.541763 -89.543961 -1385.569092
v 15.135895 179.651581 -845.558411
v -45.798248 -30.720581 -820.866760
v -244.692551 17.269470 -902.824585
v -183.758408 227.641663 -927.516296
v -30.256622 207.653381 -719.003906
v -91.190796 -2.718796 -694.312256
v -290.085144 45.271255 -776.270142
v -229.151001 255.643463 -800.961853
v -57.072540 224.195587 -644.241272
v -96.763901 68.367630 -638.709595
v -295.658295 116.357727 -720.667542
v -255.966888 272.185699 -726.199158
v 30.489136 417.375214 -743.619324
v -168.405212 465.365295 -825.577271
v 3.673233 433.917419 -668.856628
v -195.221100 481.907532 -750.814575
v 30.784637 169.998169 -889.186951
v -30.149506 -40.373962 -864.495300
v -168.109711 217.988281 -971.144958
v -229.043884 7.616089 -946.453186
v 35.250702 249.097015 -853.709290
v -163.643616 297.087097 -935.667236
v 50.899445 239.443604 -897.337830
v -147.994888 287.433685 -979.295654
v 64.434067 349.850983 -865.534912
v -134.460266 397.841095 -947.492798
v 80.082733 340.197601 -909.163513
v -118.811554 388.187683 -991.121460
v -9.115883 276.465942 -730.015198
v -208.010239 324.455994 -811.973083
v 20.067429 377.219910 -741.840759
v -178.826920 425.209991 -823.798767
v 85.236191 537.489197 -806.146423
v -113.658173 585.479248 -888.104370
v 58.420258 554.031433 -731.383850
v -140.474014 602.021423 -813.341675
v 162.568298 88.703400 -1256.599609
v 101.634140 -121.668793 -1231.908203
v -36.326042 136.693481 -1338.557617
v -97.260155 -73.678741 -1313.865967
v 88.839539 96.833252 -1369.281494
v 27.905411 -113.538971 -1344.589844
v 15.989227 141.773209 -1166.175049
v -44.944901 -68.598999 -1141.483154
v -84.311264 203.646606 -886.537292
v -145.245392 -6.725548 -861.845581
v -129.703812 231.648438 -759.982849
v -183.448151 30.898788 -722.899780
v -156.519714 248.190613 -685.220154
v -187.206116 78.832565 -685.406799
v -68.958038 441.370239 -784.598206
v -95.773926 457.912476 -709.835571
v -129.596710 -16.378944 -905.474243
v -68.662544 193.993225 -930.165955
v -64.196449 273.092072 -894.688293
v -48.547729 263.438629 -938.316772
v -35.013092 373.846039 -906.513855
v -19.364403 364.192627 -950.142456
v -108.563065 300.460968 -770.994141
v -79.379730 401.214966 -782.819763
v -14.210991 561.484253 -847.125427
v -41.026901 578.026428 -772.362732
v 2.186981 -97.673767 -1272.887207
v 63.121155 112.698441 -1297.578613
v 138.563202 84.835724 -1348.791992
v 4.778656 -80.596512 -1120.993896
v -95.521835 -18.723061 -841.356140
v -149.919403 22.808830 -709.083679
v -153.677353 70.742584 -671.590637
v -18.938957 181.995667 -909.676453
v 1.175835 251.441101 -917.827332
v 30.359177 352.195068 -929.653015
v 112.844727 100.700912 -1277.089355
v 77.629044 -125.536499 -1324.100586
v 65.712799 129.775696 -1145.685547
v -34.587685 191.649078 -866.047913
v -79.980240 219.650909 -739.493408
v -106.796135 236.193085 -664.730774
v -19.234451 429.372742 -764.108765
v -46.050339 445.914917 -689.346130
v -79.873093 -28.376465 -884.984802
v -14.472862 261.094543 -874.198730
v 14.710464 361.848541 -886.024414
v -58.839478 288.463440 -750.504700
v -29.656143 389.217468 -762.330261
v 35.512634 549.486755 -826.635864
v 8.696686 566.028931 -751.873291
v 51.910522 -109.671280 -1252.397705
v -91.282181 -67.765778 -880.361633
v -141.005783 -55.768272 -900.851074
v 40.501419 -149.060577 -1247.774414
v -9.222130 -137.063095 -1268.263916
v -56.354012 -107.988327 -1136.860107
v -6.630417 -119.985832 -1116.370605
v 216.272766 17.908203 -1178.514404
v 195.431549 30.764771 -1120.408936
v 168.487183 -62.259659 -1109.490479
v 189.328339 -75.116226 -1167.595947
v 259.252808 7.537796 -1160.803711
v 238.411560 20.394363 -1102.698242
v 211.467163 -72.630035 -1091.779785
v 232.308380 -85.486603 -1149.885254
v 325.025940 -8.332214 -1133.700928
v 304.184692 4.524353 -1075.595459
v 277.240234 -88.500031 -1064.677002
v 298.081421 -101.356598 -1122.782471
v 367.350159 -18.544373 -1116.260498
v 346.508881 -5.687805 -1058.155029
v 319.564514 -98.712219 -1047.236572
v 340.405670 -111.568771 -1105.342041
v 316.956696 -273.172577 -1991.344238
v 267.233093 -261.175110 -2011.833740
v 328.167114 -50.802826 -2036.525391
v 377.890778 -62.800385 -2016.035889
v 26.973083 615.565186 -871.673218
v -64.662125 637.675293 -909.433105
v 2.263695 630.807922 -802.783386
v -89.371460 652.918030 -840.543274
v 93.898865 608.697815 -765.023621
v 118.608353 593.455139 -833.913147
v 72.790802 604.510254 -852.793152
v 48.081284 619.752808 -783.903442
vn 0.9024 -0.2177 0.3718
vn 0.3305 -0.2039 -0.9215
vn -0.9024 0.2177 -0.3718
vn 0.2765 0.9545 -0.1120
vn -0.2765 -0.9545 0.1120
vn -0.3305 0.2039 0.9215
vn -0.4262 -0.5778 0.6960
vn -0.3571 -0.9274 0.1115
vn -0.4325 0.1128 0.8945
vn -0.9030 0.2175 -0.3706
vn 0.9030 -0.2175 0.3706
vn 0.2126 -0.5257 -0.8237
vn 0.2097 -0.5320 -0.8204
vn -0.2126 0.5257 0.8237
vn 0.6590 -0.2731 -0.7008
vn -0.7459 0.5418 -0.3874
vn -0.3208 0.0849 0.9433
vn -0.2499 -0.9554 0.1574
vn -0.1783 0.5970 0.7822
vn -0.3666 0.0654 0.9281
vn -0.2976 -0.9390 0.1724
vn 0.0512 0.1018 0.9935
vn 0.2674 -0.9162 0.2986
vn 0.7285 0.6759 0.1117
vn 0.8647 -0.3259 0.3823
usemtl Matériau.011
s off
f 45//1 46//1 4//1 3//1
f 49//2 50//2 8//2 7//2
f 47//3 48//3 6//3 5//3
f 26//1 25//1 9//1 10//1
f 72//4 47//4 5//4 51//4
f 96//5 46//5 2//5 74//5
f 10//1 9//1 13//1 14//1
f 84//6 9//6 29//6 90//6
f 89//5 26//5 10//5 75//5
f 27//3 28//3 11//3 12//3
f 76//7 14//7 18//7 77//7
f 75//8 10//8 14//8 76//8
f 12//3 11//3 15//3 16//3
f 53//4 12//4 16//4 55//4
f 86//9 77//9 18//9 17//9
f 16//10 15//10 19//10 20//10
f 16//3 20//3 24//3 22//3
f 14//11 13//11 17//11 18//11
f 59//12 22//12 42//12 69//12
f 86//6 17//6 23//6 88//6
f 17//1 13//1 21//1 23//1
f 55//2 16//2 22//2 59//2
f 5//3 6//3 28//3 27//3
f 74//5 2//5 26//5 89//5
f 51//4 5//4 27//4 62//4
f 2//1 1//1 25//1 26//1
f 32//3 30//3 34//3 36//3
f 62//2 27//2 32//2 64//2
f 27//3 12//3 30//3 32//3
f 9//1 25//1 31//1 29//1
f 66//4 36//4 34//4 65//4
f 90//5 29//5 37//5 92//5
f 64//2 32//2 36//2 66//2
f 29//1 31//1 35//1 33//1
f 92//6 37//6 39//6 93//6
f 29//1 33//1 39//1 37//1
f 34//3 30//3 38//3 40//3
f 65//4 34//4 40//4 68//4
f 69//13 42//13 124//13 123//13
f 23//1 21//1 41//1 43//1
f 88//14 23//14 43//14 95//14
f 22//3 24//3 44//3 42//3
f 82//5 4//5 46//5 96//5
f 49//4 7//4 47//4 72//4
f 7//3 8//3 48//3 47//3
f 46//15 45//15 103//15 106//15
f 73//4 49//4 72//4 81//4
f 8//5 50//5 71//5 48//5
f 24//14 60//14 70//14 44//14
f 42//16 44//16 126//16 124//16
f 91//4 65//4 68//4 93//4
f 38//6 67//6 68//6 40//6
f 79//2 64//2 66//2 80//2
f 30//5 63//5 67//5 38//5
f 80//4 66//4 65//4 91//4
f 78//2 62//2 64//2 79//2
f 83//4 51//4 62//4 78//4
f 6//5 52//5 61//5 28//5
f 85//2 55//2 59//2 87//2
f 20//6 57//6 60//6 24//6
f 87//12 59//12 69//12 94//12
f 20//17 19//17 58//17 57//17
f 84//4 53//4 55//4 85//4
f 11//18 54//18 56//18 15//18
f 15//7 56//7 58//7 19//7
f 28//5 61//5 54//5 11//5
f 12//6 53//6 63//6 30//6
f 48//5 71//5 52//5 6//5
f 81//4 72//4 51//4 83//4
f 50//3 49//3 121//3 120//3
f 3//2 4//2 82//2 73//2
f 45//4 81//4 83//4 1//4
f 9//4 84//4 85//4 13//4
f 21//12 87//12 94//12 41//12
f 13//2 85//2 87//2 21//2
f 1//4 83//4 78//4 25//4
f 25//2 78//2 79//2 31//2
f 35//4 80//4 91//4 33//4
f 31//2 79//2 80//2 35//2
f 33//4 91//4 93//4 39//4
f 70//19 95//19 130//19 125//19
f 3//4 73//4 81//4 45//4
f 50//5 82//5 96//5 71//5
f 60//14 88//14 95//14 70//14
f 67//6 92//6 93//6 68//6
f 63//5 90//5 92//5 67//5
f 52//3 71//3 100//3 101//3
f 57//6 86//6 88//6 60//6
f 57//20 58//20 77//20 86//20
f 54//21 75//21 76//21 56//21
f 56//7 76//7 77//7 58//7
f 61//5 89//5 75//5 54//5
f 53//6 84//6 90//6 63//6
f 89//6 61//6 98//6 97//6
f 101//5 102//5 97//5 98//5
f 100//5 99//5 102//5 101//5
f 61//3 52//3 101//3 98//3
f 74//1 89//1 97//1 102//1
f 71//2 96//2 99//2 100//2
f 96//1 74//1 102//1 99//1
f 106//2 103//2 107//2 110//2
f 1//22 2//22 105//22 104//22
f 2//23 46//23 106//23 105//23
f 45//24 1//24 104//24 103//24
f 109//5 110//5 114//5 113//5
f 104//6 105//6 109//6 108//6
f 105//5 106//5 110//5 109//5
f 103//4 104//4 108//4 107//4
f 113//5 114//5 118//5 117//5
f 107//4 108//4 112//4 111//4
f 110//2 107//2 111//2 114//2
f 108//6 109//6 113//6 112//6
f 116//1 117//1 118//1 115//1
f 111//4 112//4 116//4 115//4
f 114//2 111//2 115//2 118//2
f 122//2 119//2 120//2 121//2
f 82//5 50//5 120//5 119//5
f 73//1 82//1 119//1 122//1
f 49//4 73//4 122//4 121//4
f 123//4 124//4 126//4 125//4
f 129//4 123//4 125//4 130//4
f 128//4 129//4 130//4 127//4
f 95//19 43//19 127//19 130//19
f 94//13 69//13 123//13 129//13
f 43//25 41//25 128//25 127//25
f 44//19 70//19 125//19 126//19
f 41//13 94//13 129//13 128//13
o Cube.048_Cube.024
v -563.712524 466.407257 182.308868
v -726.817566 341.806396 54.759148
v -423.218201 483.047272 -13.604408
v -586.872742 361.406921 -139.062836
v -679.019531 646.490356 42.292076
v -762.647949 582.604065 -23.106201
v -606.984131 655.022156 -58.158150
v -690.052917 591.979797 -123.180626
v -407.367310 441.745087 -436.675598
v -295.143524 482.116882 -394.266205
v -324.822815 600.368896 -428.299194
v -437.046631 559.996948 -470.708527
v -310.611664 428.346375 -629.937927
v -228.102234 458.028625 -598.757629
v -249.923157 544.970154 -623.779480
v -332.432617 515.287903 -654.959839
v -248.719910 422.513184 -750.773560
v -188.423035 444.204590 -727.987488
v -204.369446 507.740295 -746.273071
v -264.666321 486.048950 -769.059082
v -483.657684 588.876404 -25.384956
v -656.312561 460.220428 -158.596252
v -632.920715 571.149597 182.595367
v -806.076782 438.870453 47.185661
v -304.293549 541.592346 -415.030121
v -423.432983 498.732758 -460.052826
v -228.949738 499.399689 -627.339783
v -316.543823 467.888336 -660.441467
v -183.707092 472.299744 -760.957458
v -247.719574 449.271637 -785.147766
v -210.382568 404.174500 -834.764343
v -150.085632 425.865906 -811.978271
v -142.804932 457.764740 -855.356384
v -206.817413 434.736572 -879.546753
v -224.158203 470.929199 -861.858398
v -163.861389 492.620544 -839.072205
v -183.142029 392.242981 -895.490173
v -122.845154 413.934448 -872.704102
v -115.564331 445.833191 -916.082275
v -179.576904 422.805054 -940.272583
v -196.917725 458.997620 -922.584290
v -136.620911 480.689026 -899.797974
v -150.009827 365.944153 -921.961792
v -111.199463 379.905945 -907.295349
v -106.513123 400.437744 -935.215881
v -147.715027 385.615601 -950.786194
v -171.326477 450.150208 -988.135925
v -188.667542 486.342743 -970.447449
v -128.370667 508.034180 -947.661194
v -107.314087 473.178314 -963.945496
v -128.371399 346.898895 -939.805481
v -102.206482 356.311584 -929.917725
v -99.047119 370.153503 -948.741028
v -126.824219 360.160889 -959.238098
v -108.568726 336.940430 -966.230164
v -92.212708 342.824402 -960.049255
v -90.237793 351.477173 -971.815979
v -107.601501 345.230591 -978.377869
v -159.373230 474.693298 -1007.024841
v -170.903381 498.758179 -995.263489
v -130.811279 513.181091 -980.112610
v -116.810486 490.004944 -990.940369
v -303.001770 566.203308 403.761810
v -297.700928 334.262543 336.138184
v -150.312317 620.267700 219.429871
v -153.575745 391.584473 150.828522
v -460.496582 559.926208 202.549744
v -457.778687 441.003693 167.877258
v -383.565613 591.600098 109.548279
v -383.881714 470.394226 72.863777
v 1.849487 504.634644 -194.010284
v 72.438110 600.343506 -149.183899
v -15.234314 682.871216 -187.369171
v -85.541931 588.112366 -231.651154
v 97.514404 544.458557 -384.151672
v 149.903381 614.063965 -351.417145
v 85.651306 675.438721 -379.091614
v 33.262268 605.833252 -411.826202
v 157.135193 572.253845 -503.057831
v 195.420410 623.120605 -479.135895
v 148.465820 667.972412 -499.360016
v 110.180481 617.105652 -523.281921
v -256.822906 645.439331 168.324738
v -261.315399 398.215027 93.033340
v -419.949554 583.594360 361.553223
v -414.322083 337.360657 289.762421
v 34.148254 644.385376 -171.903381
v -41.498840 543.878662 -219.170258
v 127.961487 648.318970 -380.987000
v 72.344055 574.424194 -415.738586
v 185.464844 649.163086 -512.621155
v 144.820496 595.161804 -538.017273
v 202.318481 577.016479 -585.497314
v 240.603699 627.883240 -561.575317
v 231.137268 658.458496 -605.481567
v 190.492920 604.457153 -630.877747
v 155.777832 625.704224 -614.540588
v 194.063049 676.571045 -590.618652
v 233.869934 581.321289 -645.146545
v 272.155090 632.187988 -621.224365
v 262.688904 662.763245 -665.130859
v 222.044373 608.761963 -690.526917
v 187.329285 630.009155 -674.189758
v 225.614441 680.875854 -650.267700
v 276.877319 576.869507 -670.059570
v 301.519836 609.610168 -654.662170
v 295.426819 629.290039 -682.922791
v 269.265808 594.531799 -699.269043
v 216.006592 635.999329 -738.780273
v 181.291382 657.246460 -722.442932
v 219.576599 708.113220 -698.521118
v 256.650940 690.000610 -713.384094
v 305.991028 572.384033 -686.840637
v 322.604309 594.456787 -676.460083
v 318.496765 607.724426 -695.512817
v 300.859558 584.291443 -706.532959
v 328.979431 574.521973 -712.464050
v 339.364441 588.319946 -705.974792
v 336.796692 596.613647 -717.884827
v 325.771667 581.965454 -724.773743
v 213.549255 663.019104 -757.909729
v 190.466614 677.146667 -747.046814
v 215.922913 710.968567 -731.140686
v 240.574158 698.925293 -741.023315
vn 0.4539 -0.8561 0.2470
vn -0.2947 0.8975 -0.3281
vn -0.4542 0.8547 -0.2513
vn -0.4400 -0.2930 0.8489
vn 0.3726 0.8631 0.3408
vn -0.6424 -0.5601 -0.5231
vn -0.2028 0.9190 -0.3381
vn 0.8515 0.4202 0.3136
vn -0.7943 -0.1184 -0.5959
vn 0.4562 -0.8839 0.1034
vn -0.8649 -0.2220 -0.4502
vn 0.9315 0.2301 0.2816
vn -0.8674 -0.2558 -0.4267
vn 0.2647 -0.9438 0.1980
vn 0.8701 0.3759 0.3188
vn 0.2704 -0.9450 0.1841
vn -0.1965 0.9154 -0.3513
vn 0.9424 0.1910 0.2747
vn 0.8878 0.4085 0.2121
vn 0.2193 -0.9275 0.3026
vn -0.8303 -0.4037 -0.3842
vn 0.8944 0.3780 0.2391
vn -0.8103 -0.4396 -0.3876
vn -0.6563 -0.5127 -0.5535
vn 0.5868 0.7691 0.2533
vn -0.8057 -0.0464 -0.5904
vn 0.7017 0.4617 0.5427
vn -0.7378 0.4631 0.4911
vn -0.2273 0.9312 -0.2849
vn -0.8736 -0.3667 -0.3198
vn -0.2396 0.9362 -0.2571
vn 0.8982 0.2658 0.3500
vn -0.8721 -0.3711 -0.3190
vn -0.8997 -0.2608 -0.3500
vn 0.8646 0.3573 0.3532
vn -0.0076 -0.7141 0.7000
vn 0.8972 0.2703 0.3493
vn 0.8702 0.3780 0.3161
vn -0.8993 -0.2586 -0.3526
vn 0.2273 -0.9312 0.2849
vn 0.1760 0.4373 -0.8819
vn -0.7455 -0.5214 -0.4152
vn 0.9680 0.0951 0.2324
vn 0.1881 0.4131 -0.8911
vn 0.8592 0.5114 0.0165
vn -0.9065 -0.2798 -0.3161
vn -0.4383 0.8109 0.3878
vn 0.4383 -0.8109 -0.3877
vn -0.0363 0.7700 -0.6370
vn 0.9597 0.1239 0.2522
vn -0.7689 -0.4979 -0.4010
vn -0.0208 -0.6961 0.7177
vn 0.4517 -0.7533 -0.4781
vn 0.9570 0.1325 0.2581
vn -0.7759 -0.4906 -0.3966
vn 0.1496 -0.8830 0.4449
vn 0.1480 0.4906 -0.8587
vn -0.7905 -0.0821 -0.6069
vn 0.4609 -0.6713 -0.5805
vn -0.3906 0.9042 0.1728
vn 0.7928 -0.1696 0.5855
vn -0.6732 0.4423 -0.5926
vn -0.7948 0.1655 -0.5838
vn -0.3621 -0.2685 0.8926
vn -0.3909 0.9200 -0.0272
vn 0.0712 -0.9672 -0.2438
vn -0.6541 0.6608 -0.3681
vn 0.3310 0.9193 0.2127
vn -0.3700 -0.7006 -0.6101
vn 0.8497 -0.3356 0.4066
vn -0.5927 -0.6552 -0.4685
vn 0.6486 0.6994 0.3001
vn -0.5775 -0.6849 -0.4443
vn 0.7254 -0.6482 0.2316
vn 0.5190 0.7869 0.3337
vn 0.7295 -0.6497 0.2139
vn -0.6454 0.6636 -0.3783
vn 0.6809 0.6698 0.2961
vn 0.5202 0.8234 0.2268
vn 0.6728 -0.6619 0.3305
vn -0.4682 -0.7893 -0.3973
vn 0.5376 0.8040 0.2541
vn -0.4319 -0.8087 -0.3993
vn -0.0610 -0.9164 -0.3957
vn -0.1017 0.9942 0.0356
vn -0.3669 -0.7692 -0.5233
vn 0.0436 0.9442 0.3263
vn -0.9608 -0.0976 0.2595
vn -0.6822 0.6607 -0.3132
vn -0.5268 -0.7811 -0.3350
vn -0.6962 0.6584 -0.2858
vn 0.6008 0.7095 0.3683
vn -0.5233 -0.7840 -0.3341
vn -0.6048 -0.7061 -0.3684
vn 0.5231 0.7685 0.3684
vn 0.3526 -0.6022 0.7163
vn 0.5975 0.7127 0.3675
vn 0.5180 0.7888 0.3309
vn -0.6055 -0.7040 -0.3711
vn 0.6822 -0.6607 0.3132
vn -0.0552 0.4587 -0.8869
vn -0.3323 -0.8429 -0.4231
vn 0.7556 0.6026 0.2567
vn -0.0317 0.4448 -0.8951
vn 0.4479 0.8937 0.0281
vn -0.6014 -0.7256 -0.3343
vn -0.8194 0.4492 0.3561
vn 0.8194 -0.4492 -0.3561
vn -0.4218 0.6260 -0.6559
vn 0.7324 0.6226 0.2756
vn -0.3652 -0.8357 -0.4102
vn 0.3311 -0.5940 0.7332
vn 0.8029 -0.3939 -0.4474
vn 0.7253 0.6284 0.2812
vn -0.3752 -0.8333 -0.4061
vn 0.5850 -0.6612 0.4697
vn -0.1083 0.4887 -0.8657
vn -0.5996 -0.4980 -0.6264
vn 0.7702 -0.3204 -0.5515
vn -0.8217 0.5524 0.1404
usemtl Matériau.012
s off
f 131//26 132//26 134//26 133//26
f 138//27 137//27 141//27 142//27
f 137//28 138//28 136//28 135//28
f 153//29 154//29 132//29 131//29
f 151//30 137//30 135//30 153//30
f 152//31 134//31 132//31 154//31
f 142//32 141//32 145//32 146//32
f 151//33 133//33 140//33 155//33
f 152//34 138//34 142//34 156//34
f 133//35 134//35 139//35 140//35
f 158//36 146//36 150//36 160//36
f 155//37 140//37 144//37 157//37
f 156//38 142//38 146//38 158//38
f 140//39 139//39 143//39 144//39
f 149//40 159//40 163//40 166//40
f 144//41 143//41 147//41 148//41
f 146//42 145//42 149//42 150//42
f 157//43 144//43 148//43 159//43
f 145//44 157//44 159//44 149//44
f 148//45 147//45 161//45 162//45
f 139//46 156//46 158//46 143//46
f 141//47 155//47 157//47 145//47
f 143//48 158//48 160//48 147//48
f 134//49 152//49 156//49 139//49
f 137//50 151//50 155//50 141//50
f 138//51 152//51 154//51 136//51
f 133//52 151//52 153//52 131//52
f 135//53 136//53 154//53 153//53
f 165//54 166//54 172//54 171//54
f 161//55 164//55 170//55 167//55
f 150//56 149//56 166//56 165//56
f 159//57 148//57 162//57 163//57
f 147//58 160//58 164//58 161//58
f 160//59 150//59 165//59 164//59
f 172//60 169//60 180//60 179//60
f 168//61 167//61 173//61 174//61
f 163//62 162//62 168//62 169//62
f 166//63 163//63 169//63 172//63
f 164//64 165//64 171//64 170//64
f 162//65 161//65 167//65 168//65
f 176//66 175//66 183//66 184//66
f 167//67 170//67 176//67 173//67
f 169//68 168//68 174//68 175//68
f 170//69 169//69 175//69 176//69
f 179//70 180//70 192//70 191//70
f 170//71 171//71 178//71 177//71
f 171//72 172//72 179//72 178//72
f 169//73 170//73 177//73 180//73
f 184//74 183//74 187//74 188//74
f 175//75 174//75 182//75 183//75
f 173//76 176//76 184//76 181//76
f 174//77 173//77 181//77 182//77
f 186//78 185//78 188//78 187//78
f 183//79 182//79 186//79 187//79
f 181//80 184//80 188//80 185//80
f 182//81 181//81 185//81 186//81
f 192//82 189//82 190//82 191//82
f 177//83 178//83 190//83 189//83
f 180//84 177//84 189//84 192//84
f 178//85 179//85 191//85 190//85
f 193//86 194//86 196//86 195//86
f 200//87 199//87 203//87 204//87
f 199//88 200//88 198//88 197//88
f 215//89 216//89 194//89 193//89
f 213//90 199//90 197//90 215//90
f 214//91 196//91 194//91 216//91
f 204//92 203//92 207//92 208//92
f 213//93 195//93 202//93 217//93
f 214//94 200//94 204//94 218//94
f 195//95 196//95 201//95 202//95
f 220//96 208//96 212//96 222//96
f 217//97 202//97 206//97 219//97
f 218//98 204//98 208//98 220//98
f 202//99 201//99 205//99 206//99
f 211//100 221//100 225//100 228//100
f 206//101 205//101 209//101 210//101
f 208//102 207//102 211//102 212//102
f 219//103 206//103 210//103 221//103
f 207//104 219//104 221//104 211//104
f 210//105 209//105 223//105 224//105
f 201//106 218//106 220//106 205//106
f 203//107 217//107 219//107 207//107
f 205//108 220//108 222//108 209//108
f 196//109 214//109 218//109 201//109
f 199//110 213//110 217//110 203//110
f 200//111 214//111 216//111 198//111
f 195//112 213//112 215//112 193//112
f 197//113 198//113 216//113 215//113
f 227//114 228//114 234//114 233//114
f 223//115 226//115 232//115 229//115
f 212//116 211//116 228//116 227//116
f 221//117 210//117 224//117 225//117
f 209//118 222//118 226//118 223//118
f 222//119 212//119 227//119 226//119
f 234//120 231//120 242//120 241//120
f 230//121 229//121 235//121 236//121
f 225//122 224//122 230//122 231//122
f 228//123 225//123 231//123 234//123
f 226//124 227//124 233//124 232//124
f 224//125 223//125 229//125 230//125
f 238//126 237//126 245//126 246//126
f 229//127 232//127 238//127 235//127
f 231//128 230//128 236//128 237//128
f 232//129 231//129 237//129 238//129
f 241//130 242//130 254//130 253//130
f 232//131 233//131 240//131 239//131
f 233//132 234//132 241//132 240//132
f 231//133 232//133 239//133 242//133
f 246//134 245//134 249//134 250//134
f 237//135 236//135 244//135 245//135
f 235//136 238//136 246//136 243//136
f 236//137 235//137 243//137 244//137
f 248//138 247//138 250//138 249//138
f 245//139 244//139 248//139 249//139
f 243//140 246//140 250//140 247//140
f 244//141 243//141 247//141 248//141
f 254//142 251//142 252//142 253//142
f 239//143 240//143 252//143 251//143
f 242//144 239//144 251//144 254//144
f 240//145 241//145 253//145 252//145
