# Blender v2.91.2 OBJ File: 'camionnete02.blend'
# www.blender.org
mtllib arme_000081.mtl
o Cube.046_Cube.010
v 208.608368 353.185272 -1152.437012
v 198.351318 133.032776 -1155.039062
v 290.946747 351.765533 -1356.881348
v 280.689667 131.613037 -1359.483643
v 4.416595 363.671600 -1234.746582
v -5.840477 143.519043 -1237.348633
v 86.754982 362.251801 -1439.190918
v 76.497910 142.099304 -1441.792969
v 95.244736 355.140015 -870.957886
v 84.987694 134.987549 -873.559937
v -119.204063 145.473785 -955.869324
v -108.947014 365.626282 -953.267273
v 43.940292 356.024658 -743.569885
v 33.683212 135.872162 -746.171997
v -170.508575 146.358398 -828.481445
v -160.251526 366.510925 -825.879395
v 13.631878 356.547241 -668.314880
v 11.391242 196.310394 -682.718994
v -192.800598 206.796692 -765.028503
v -190.559967 367.033569 -750.624268
v 54.165604 575.496643 -740.975769
v -150.026154 585.982849 -823.285400
v 23.857227 576.019165 -665.720764
v -180.334564 586.505554 -748.030273
v 112.931564 354.835022 -914.873718
v 102.674507 134.682556 -917.475830
v -91.260231 365.321320 -997.183228
v -101.517303 145.168823 -999.785278
v 98.630669 427.813995 -870.098877
v -105.561119 438.300323 -952.408325
v 116.317505 427.509003 -914.014709
v -87.874290 437.995270 -996.324158
v 103.543114 533.252136 -868.852600
v -100.648643 543.738403 -951.162048
v 121.229897 532.947083 -912.768555
v -82.961830 543.433472 -995.077942
v 48.485764 428.678650 -745.590088
v -155.706055 439.164886 -827.899536
v 53.398201 534.116821 -744.343811
v -150.793610 544.603027 -826.653320
v 79.667229 711.794739 -786.875122
v -124.524559 722.281006 -869.184692
v 49.358807 712.317322 -711.620117
v -154.832947 722.803589 -793.929626
v 261.878723 352.266754 -1284.706299
v 251.621704 132.114258 -1287.308350
v 57.686951 362.753052 -1367.015625
v 47.429924 142.600525 -1369.617676
v 188.850830 357.008698 -1398.036133
v 178.593781 136.856171 -1400.638184
v 106.512489 358.428467 -1193.591797
v 96.255424 138.275940 -1196.193848
v -6.851133 360.383118 -912.112488
v -17.108189 140.230652 -914.714539
v -58.155617 361.267792 -784.724670
v -63.729820 150.530670 -773.642517
v -88.464005 361.790405 -709.469604
v -78.761360 191.284332 -730.856018
v -47.930298 580.739746 -782.130493
v -78.238670 581.262390 -706.875549
v 0.578611 139.925690 -958.630554
v 10.835667 360.078156 -956.028503
v -3.465208 433.057159 -911.253540
v 14.221603 432.752136 -955.169373
v 1.447250 538.495300 -910.007263
v 19.134048 538.190308 -953.923218
v -53.610138 433.921814 -786.744873
v -48.697693 539.359985 -785.498596
v -22.428688 717.037903 -828.029968
v -52.737083 717.560425 -752.774902
v 149.525787 137.357391 -1328.463135
v 159.782867 357.509888 -1325.860840
v 239.898834 354.387115 -1377.458740
v 147.303375 135.654358 -1175.616455
v 33.939743 137.609100 -894.137268
v -29.308067 148.762909 -759.767151
v -44.339584 189.516602 -716.980652
v 61.883629 357.456573 -935.450989
v 65.269539 430.130554 -934.592041
v 70.181976 535.568726 -933.345886
v 210.830780 354.888336 -1305.283691
v 229.641754 134.234589 -1380.060791
v 157.560425 355.806854 -1173.014648
v 44.196800 357.761536 -891.535217
v -7.107672 358.646210 -764.147217
v -37.416069 359.168793 -688.892212
v 3.117680 578.118164 -761.553162
v -27.190704 578.640808 -686.298218
v 51.626560 137.304108 -938.053223
v 47.582741 430.435547 -890.676208
v 52.495186 535.873657 -889.429993
v -2.562199 431.300232 -766.167480
v 2.350267 536.738403 -764.921082
v 28.619297 714.416321 -807.452515
v -1.689117 714.938843 -732.197571
v 200.573730 134.735840 -1307.885742
v 49.706081 96.083565 -938.540405
v -1.341869 98.705116 -959.117737
v 198.653198 93.515274 -1308.373047
v 147.605316 96.136826 -1328.950195
v 94.334923 97.055359 -1196.681152
v 145.382874 94.433807 -1176.103760
v 330.238434 286.700745 -1213.843506
v 306.682800 287.106903 -1155.355469
v 302.147369 189.757690 -1156.506104
v 325.702881 189.351532 -1214.994141
v 374.363190 284.434723 -1196.057129
v 350.807587 284.840881 -1137.569092
v 346.272095 187.491699 -1138.719482
v 369.827667 187.085541 -1197.207520
v 441.888214 280.967010 -1168.837891
v 418.332550 281.373138 -1110.349854
v 413.797028 184.023987 -1111.500488
v 437.352570 183.617828 -1169.988770
v 485.339661 278.735535 -1151.322754
v 461.784058 279.141693 -1092.834595
v 457.248566 181.792542 -1093.985229
v 480.804138 181.386383 -1152.473389
v 500.139313 129.570709 -2051.698975
v 449.091339 132.192261 -2072.276367
v 459.348328 352.344818 -2069.674316
v 510.396332 349.723236 -2049.096924
v 5.112652 781.780640 -844.562073
v -88.963203 786.611938 -882.484009
v -22.814880 782.262207 -775.218567
v -116.890709 787.093445 -813.140442
v 71.260963 777.430969 -737.296753
v 99.188576 776.949524 -806.640076
v 52.150635 779.365173 -825.601074
v 24.223038 779.846497 -756.257690
vn 0.9264 -0.0476 0.3734
vn 0.3736 -0.0064 -0.9276
vn -0.9264 0.0476 -0.3734
vn 0.0465 0.9988 0.0118
vn -0.0465 -0.9988 -0.0118
vn -0.3736 0.0064 0.9276
vn -0.2830 -0.7422 0.6075
vn -0.1313 -0.9913 -0.0119
vn -0.4513 -0.1017 0.8865
vn -0.9270 0.0471 -0.3722
vn 0.9270 -0.0471 0.3722
vn 0.3335 -0.3563 -0.8728
vn 0.3322 -0.3635 -0.8703
vn -0.3335 0.3563 0.8728
vn 0.7080 -0.0246 -0.7058
vn -0.8498 0.3984 -0.3450
vn -0.3365 -0.1088 0.9354
vn -0.0208 -0.9992 0.0341
vn -0.3166 0.4382 0.8413
vn -0.3764 -0.1364 0.9164
vn -0.0710 -0.9963 0.0493
vn 0.0211 -0.0128 0.9997
vn 0.4724 -0.8593 0.1962
vn 0.5500 0.8068 0.2159
vn 0.9150 -0.1620 0.3696
usemtl Matériau.011
s off
f 45//1 46//1 4//1 3//1
f 49//2 50//2 8//2 7//2
f 47//3 48//3 6//3 5//3
f 26//1 25//1 9//1 10//1
f 72//4 47//4 5//4 51//4
f 96//5 46//5 2//5 74//5
f 10//1 9//1 13//1 14//1
f 84//6 9//6 29//6 90//6
f 89//5 26//5 10//5 75//5
f 27//3 28//3 11//3 12//3
f 76//7 14//7 18//7 77//7
f 75//8 10//8 14//8 76//8
f 12//3 11//3 15//3 16//3
f 53//4 12//4 16//4 55//4
f 86//9 77//9 18//9 17//9
f 16//10 15//10 19//10 20//10
f 16//3 20//3 24//3 22//3
f 14//11 13//11 17//11 18//11
f 59//12 22//12 42//12 69//12
f 86//6 17//6 23//6 88//6
f 17//1 13//1 21//1 23//1
f 55//2 16//2 22//2 59//2
f 5//3 6//3 28//3 27//3
f 74//5 2//5 26//5 89//5
f 51//4 5//4 27//4 62//4
f 2//1 1//1 25//1 26//1
f 32//3 30//3 34//3 36//3
f 62//2 27//2 32//2 64//2
f 27//3 12//3 30//3 32//3
f 9//1 25//1 31//1 29//1
f 66//4 36//4 34//4 65//4
f 90//5 29//5 37//5 92//5
f 64//2 32//2 36//2 66//2
f 29//1 31//1 35//1 33//1
f 92//6 37//6 39//6 93//6
f 29//1 33//1 39//1 37//1
f 34//3 30//3 38//3 40//3
f 65//4 34//4 40//4 68//4
f 69//13 42//13 124//13 123//13
f 23//1 21//1 41//1 43//1
f 88//14 23//14 43//14 95//14
f 22//3 24//3 44//3 42//3
f 82//5 4//5 46//5 96//5
f 49//4 7//4 47//4 72//4
f 7//3 8//3 48//3 47//3
f 46//15 45//15 103//15 106//15
f 73//4 49//4 72//4 81//4
f 8//5 50//5 71//5 48//5
f 24//14 60//14 70//14 44//14
f 42//16 44//16 126//16 124//16
f 91//4 65//4 68//4 93//4
f 38//6 67//6 68//6 40//6
f 79//2 64//2 66//2 80//2
f 30//5 63//5 67//5 38//5
f 80//4 66//4 65//4 91//4
f 78//2 62//2 64//2 79//2
f 83//4 51//4 62//4 78//4
f 6//5 52//5 61//5 28//5
f 85//2 55//2 59//2 87//2
f 20//6 57//6 60//6 24//6
f 87//12 59//12 69//12 94//12
f 20//17 19//17 58//17 57//17
f 84//4 53//4 55//4 85//4
f 11//18 54//18 56//18 15//18
f 15//7 56//7 58//7 19//7
f 28//5 61//5 54//5 11//5
f 12//6 53//6 63//6 30//6
f 48//5 71//5 52//5 6//5
f 81//4 72//4 51//4 83//4
f 50//3 49//3 121//3 120//3
f 3//2 4//2 82//2 73//2
f 45//4 81//4 83//4 1//4
f 9//4 84//4 85//4 13//4
f 21//12 87//12 94//12 41//12
f 13//2 85//2 87//2 21//2
f 1//4 83//4 78//4 25//4
f 25//2 78//2 79//2 31//2
f 35//4 80//4 91//4 33//4
f 31//2 79//2 80//2 35//2
f 33//4 91//4 93//4 39//4
f 70//19 95//19 130//19 125//19
f 3//4 73//4 81//4 45//4
f 50//5 82//5 96//5 71//5
f 60//14 88//14 95//14 70//14
f 67//6 92//6 93//6 68//6
f 63//5 90//5 92//5 67//5
f 52//3 71//3 100//3 101//3
f 57//6 86//6 88//6 60//6
f 57//20 58//20 77//20 86//20
f 54//21 75//21 76//21 56//21
f 56//7 76//7 77//7 58//7
f 61//5 89//5 75//5 54//5
f 53//6 84//6 90//6 63//6
f 89//6 61//6 98//6 97//6
f 101//5 102//5 97//5 98//5
f 100//5 99//5 102//5 101//5
f 61//3 52//3 101//3 98//3
f 74//1 89//1 97//1 102//1
f 71//2 96//2 99//2 100//2
f 96//1 74//1 102//1 99//1
f 106//2 103//2 107//2 110//2
f 1//22 2//22 105//22 104//22
f 2//23 46//23 106//23 105//23
f 45//24 1//24 104//24 103//24
f 109//5 110//5 114//5 113//5
f 104//6 105//6 109//6 108//6
f 105//5 106//5 110//5 109//5
f 103//4 104//4 108//4 107//4
f 113//5 114//5 118//5 117//5
f 107//4 108//4 112//4 111//4
f 110//2 107//2 111//2 114//2
f 108//6 109//6 113//6 112//6
f 116//1 117//1 118//1 115//1
f 111//4 112//4 116//4 115//4
f 114//2 111//2 115//2 118//2
f 122//2 119//2 120//2 121//2
f 82//5 50//5 120//5 119//5
f 73//1 82//1 119//1 122//1
f 49//4 73//4 122//4 121//4
f 123//4 124//4 126//4 125//4
f 129//4 123//4 125//4 130//4
f 128//4 129//4 130//4 127//4
f 95//19 43//19 127//19 130//19
f 94//13 69//13 123//13 129//13
f 43//25 41//25 128//25 127//25
f 44//19 70//19 125//19 126//19
f 41//13 94//13 129//13 128//13
o Cube.048_Cube.024
v -563.571045 464.444672 182.261887
v -730.817017 346.252625 53.977043
v -422.847534 478.035461 -13.722084
v -589.098511 359.963562 -140.765076
v -673.101929 649.301331 43.837482
v -758.853516 588.700989 -21.937737
v -600.948975 656.269775 -56.648994
v -686.390442 595.712097 -121.992897
v -378.801025 459.879517 -448.231659
v -279.316406 519.528809 -397.562195
v -335.613953 630.997192 -418.250610
v -435.098602 571.347900 -468.920135
v -280.631256 493.205200 -638.346313
v -207.487915 537.060669 -601.092957
v -248.879120 619.014771 -616.303650
v -322.022491 575.159241 -653.556885
v -218.487671 516.819702 -756.863953
v -165.035645 548.868774 -729.639587
v -195.283722 608.759766 -740.755371
v -248.735901 576.710754 -767.979614
v -479.845032 585.814819 -24.570175
v -656.455383 460.525024 -158.974670
v -629.318665 571.386719 183.475098
v -806.870728 445.911255 47.284988
v -301.995972 577.378418 -411.391846
v -407.611206 514.053284 -465.183685
v -217.828796 580.324036 -624.557129
v -295.479431 533.766052 -664.106140
v -166.845337 581.148560 -758.851624
v -223.591431 547.124512 -787.753662
v -176.511169 518.366943 -841.102112
v -123.058960 550.415955 -813.877930
v -123.211060 588.246094 -852.878784
v -179.957031 554.222046 -881.780823
v -205.356323 582.955139 -860.502136
v -151.904175 615.004150 -833.277893
v -146.936035 520.656250 -901.864868
v -93.483826 552.705322 -874.640625
v -93.635986 590.535400 -913.641541
v -150.382141 556.511353 -942.543457
v -175.781250 585.244446 -921.264771
v -122.329041 617.293396 -894.040588
v -108.448181 506.206268 -930.149231
v -74.043579 526.834778 -912.626160
v -74.141296 551.184326 -937.729431
v -110.666382 529.284607 -956.332275
v -148.506042 590.725586 -986.504456
v -173.905273 619.458679 -965.226013
v -120.453186 651.507690 -938.001648
v -91.760010 624.749573 -957.602600
v -82.872925 495.033417 -949.395081
v -59.678040 508.940582 -937.581665
v -59.744202 525.356384 -954.505432
v -84.368225 510.592224 -967.046936
v -61.161377 493.266602 -976.135925
v -46.662109 501.960175 -968.751160
v -46.703308 512.221863 -979.330505
v -62.096130 502.992584 -987.170471
v -142.519348 619.508789 -1001.923157
v -159.407532 638.613647 -987.774719
v -123.866516 659.923462 -969.672913
v -104.788086 642.131714 -982.705994
v -317.640778 521.854492 445.593842
v -295.919525 314.009064 324.243011
v -174.479431 616.255249 279.052094
v -154.296692 423.563446 161.951935
v -472.443176 554.437500 244.833069
v -461.306030 447.869324 182.613129
v -397.286194 610.653809 164.365845
v -388.692139 504.040894 99.401917
v 35.746094 631.283569 -99.251488
v 105.606262 616.705750 3.345619
v 73.203979 731.325806 42.029930
v 4.593933 747.097168 -58.762154
v 210.849670 726.349792 -184.061005
v 263.263123 713.916565 -108.170937
v 240.359314 799.065308 -78.402229
v 187.945862 811.498657 -154.292328
v 321.099915 787.447693 -234.833160
v 359.403015 778.361633 -179.373627
v 342.665100 840.587158 -157.619019
v 304.362183 849.673340 -213.078552
v -278.482605 647.541992 236.290680
v -261.689575 437.098907 104.718529
v -435.099396 541.446960 405.839325
v -412.039581 320.793396 277.010529
v 98.070557 673.889893 24.694298
v 22.388367 691.842896 -84.887154
v 268.304016 763.290710 -100.046913
v 212.660706 776.490234 -180.613586
v 373.641296 819.539185 -179.891235
v 332.977966 829.185120 -238.768402
v 396.170715 820.032715 -281.342041
v 434.473694 810.946533 -225.882477
v 455.038391 861.122925 -229.295258
v 414.375061 870.768860 -288.172455
v 384.786926 889.873840 -262.037598
v 423.089905 880.787659 -206.577972
v 449.797302 844.675598 -314.341705
v 488.100281 835.589478 -258.882294
v 508.664978 885.765869 -262.294891
v 468.001648 895.411865 -321.172119
v 438.413269 914.516724 -295.037292
v 476.716370 905.430603 -239.577759
v 495.421814 835.717834 -332.459961
v 520.075867 829.869446 -296.763153
v 533.312439 862.165771 -298.959747
v 507.139221 868.374512 -336.856354
v 492.266052 944.838013 -329.832550
v 462.677795 963.942932 -303.697815
v 500.980896 954.856873 -248.238312
v 532.929382 935.192078 -270.955353
v 525.802673 828.815308 -345.827667
v 542.423767 824.872498 -321.761871
v 551.347595 846.645874 -323.242889
v 533.702209 850.831543 -348.791626
v 556.906799 834.518127 -359.597443
v 567.296814 832.053467 -344.553589
v 572.874939 845.664062 -345.479187
v 561.844788 848.280640 -361.449951
v 506.997009 973.099609 -320.541748
v 487.323425 985.802795 -303.164429
v 512.791443 979.761292 -266.288666
v 534.034607 966.685913 -281.393585
vn 0.4267 -0.8699 0.2476
vn -0.3630 0.8729 -0.3259
vn -0.4266 0.8701 -0.2470
vn -0.4483 -0.2852 0.8472
vn 0.4013 0.8476 0.3471
vn -0.6622 -0.5390 -0.5205
vn -0.4101 0.8818 -0.2329
vn 0.8184 0.4474 0.3605
vn -0.7845 -0.1293 -0.6065
vn 0.5126 -0.8541 0.0877
vn -0.7869 -0.3584 -0.5023
vn 0.8506 0.4025 0.3382
vn -0.7816 -0.3946 -0.4831
vn 0.4768 -0.8741 0.0930
vn 0.7567 0.5244 0.3904
vn 0.4826 -0.8722 0.0793
vn -0.4031 0.8814 -0.2462
vn 0.8704 0.3681 0.3271
vn 0.7668 0.5731 0.2890
vn 0.4283 -0.8819 0.1972
vn -0.7112 -0.5339 -0.4573
vn 0.7802 0.5419 0.3124
vn -0.6833 -0.5635 -0.4642
vn -0.6176 -0.5183 -0.5916
vn 0.5525 0.7807 0.2920
vn -0.8080 -0.0158 -0.5890
vn 0.7170 0.4344 0.5451
vn -0.7217 0.4831 0.4958
vn -0.4370 0.8814 -0.1795
vn -0.7623 -0.5162 -0.3905
vn -0.4503 0.8799 -0.1517
vn 0.8096 0.4208 0.4092
vn -0.7598 -0.5202 -0.3901
vn -0.8122 -0.4163 -0.4086
vn 0.7555 0.5010 0.4221
vn 0.1559 -0.7775 0.6093
vn 0.8075 0.4250 0.4091
vn 0.7563 0.5268 0.3880
vn -0.8124 -0.4137 -0.4110
vn 0.4370 -0.8814 0.1795
vn 0.0734 0.5717 -0.8172
vn -0.6011 -0.6241 -0.4992
vn 0.9179 0.2867 0.2745
vn 0.0909 0.5523 -0.8287
vn 0.7160 0.6900 0.1062
vn -0.8145 -0.4404 -0.3775
vn -0.6174 0.6334 0.4666
vn 0.6174 -0.6334 -0.4666
vn -0.2118 0.8135 -0.5417
vn 0.9030 0.3102 0.2974
vn -0.6294 -0.6086 -0.4831
vn 0.1387 -0.7653 0.6286
vn 0.6174 -0.5634 -0.5489
vn 0.8983 0.3171 0.3041
vn -0.6380 -0.6037 -0.4781
vn 0.3494 -0.8726 0.3413
vn 0.0337 0.6138 -0.7887
vn -0.7464 -0.1869 -0.6387
vn 0.6077 -0.4695 -0.6405
vn -0.5917 0.7610 0.2660
vn 0.8026 -0.2409 0.5457
vn -0.4510 0.8414 -0.2978
vn -0.7981 0.2525 -0.5471
vn -0.3513 -0.4992 0.7921
vn -0.4181 0.8885 0.1892
vn 0.1392 -0.8728 -0.4677
vn -0.1848 0.9429 0.2771
vn 0.4208 0.6767 0.6042
vn -0.3154 -0.2164 -0.9240
vn 0.6877 -0.6322 0.3570
vn -0.5087 0.2756 -0.8157
vn 0.6429 -0.1902 0.7420
vn -0.5157 0.2357 -0.8237
vn 0.3084 -0.8863 -0.3454
vn 0.5462 -0.0775 0.8341
vn 0.3181 -0.8758 -0.3632
vn -0.1720 0.9463 0.2738
vn 0.6620 -0.2016 0.7219
vn 0.6047 0.0115 0.7964
vn 0.2163 -0.9286 -0.3015
vn -0.4767 0.0910 -0.8743
vn 0.5891 -0.0041 0.8080
vn -0.4514 0.0625 -0.8901
vn -0.1145 -0.6307 -0.7675
vn -0.0114 0.9255 0.3785
vn -0.3087 -0.6414 -0.7024
vn 0.0048 0.8569 0.5155
vn -0.9543 -0.2187 0.2037
vn -0.2320 0.9216 0.3112
vn -0.5504 0.0857 -0.8305
vn -0.2563 0.9099 0.3261
vn 0.5759 -0.1851 0.7963
vn -0.5487 0.0816 -0.8320
vn -0.5781 0.1892 -0.7938
vn 0.5290 -0.1123 0.8412
vn -0.2009 -0.9794 -0.0217
vn 0.5744 -0.1811 0.7982
vn 0.5472 -0.0742 0.8337
vn -0.5769 0.1924 -0.7938
vn 0.2320 -0.9216 -0.3112
vn 0.4797 0.8564 -0.1910
vn -0.3679 0.0068 -0.9298
vn 0.7206 -0.2514 0.6462
vn 0.4987 0.8418 -0.2065
vn 0.6511 0.2181 0.7270
vn -0.5961 0.1546 -0.7879
vn -0.7024 0.4425 0.5576
vn 0.7024 -0.4425 -0.5576
vn 0.1240 0.9893 0.0764
vn 0.6992 -0.2408 0.6732
vn -0.3989 0.0197 -0.9168
vn -0.2237 -0.9746 -0.0052
vn 0.7452 -0.3443 -0.5711
vn 0.6926 -0.2376 0.6810
vn -0.4083 0.0237 -0.9125
vn 0.0826 -0.9728 -0.2164
vn 0.4353 0.8868 -0.1554
vn -0.3968 0.4667 -0.7904
vn 0.7856 -0.2193 -0.5785
vn -0.5789 0.6404 0.5047
usemtl Matériau.012
s off
f 131//26 132//26 134//26 133//26
f 138//27 137//27 141//27 142//27
f 137//28 138//28 136//28 135//28
f 153//29 154//29 132//29 131//29
f 151//30 137//30 135//30 153//30
f 152//31 134//31 132//31 154//31
f 142//32 141//32 145//32 146//32
f 151//33 133//33 140//33 155//33
f 152//34 138//34 142//34 156//34
f 133//35 134//35 139//35 140//35
f 158//36 146//36 150//36 160//36
f 155//37 140//37 144//37 157//37
f 156//38 142//38 146//38 158//38
f 140//39 139//39 143//39 144//39
f 149//40 159//40 163//40 166//40
f 144//41 143//41 147//41 148//41
f 146//42 145//42 149//42 150//42
f 157//43 144//43 148//43 159//43
f 145//44 157//44 159//44 149//44
f 148//45 147//45 161//45 162//45
f 139//46 156//46 158//46 143//46
f 141//47 155//47 157//47 145//47
f 143//48 158//48 160//48 147//48
f 134//49 152//49 156//49 139//49
f 137//50 151//50 155//50 141//50
f 138//51 152//51 154//51 136//51
f 133//52 151//52 153//52 131//52
f 135//53 136//53 154//53 153//53
f 165//54 166//54 172//54 171//54
f 161//55 164//55 170//55 167//55
f 150//56 149//56 166//56 165//56
f 159//57 148//57 162//57 163//57
f 147//58 160//58 164//58 161//58
f 160//59 150//59 165//59 164//59
f 172//60 169//60 180//60 179//60
f 168//61 167//61 173//61 174//61
f 163//62 162//62 168//62 169//62
f 166//63 163//63 169//63 172//63
f 164//64 165//64 171//64 170//64
f 162//65 161//65 167//65 168//65
f 176//66 175//66 183//66 184//66
f 167//67 170//67 176//67 173//67
f 169//68 168//68 174//68 175//68
f 170//69 169//69 175//69 176//69
f 179//70 180//70 192//70 191//70
f 170//71 171//71 178//71 177//71
f 171//72 172//72 179//72 178//72
f 169//73 170//73 177//73 180//73
f 184//74 183//74 187//74 188//74
f 175//75 174//75 182//75 183//75
f 173//76 176//76 184//76 181//76
f 174//77 173//77 181//77 182//77
f 186//78 185//78 188//78 187//78
f 183//79 182//79 186//79 187//79
f 181//80 184//80 188//80 185//80
f 182//81 181//81 185//81 186//81
f 192//82 189//82 190//82 191//82
f 177//83 178//83 190//83 189//83
f 180//84 177//84 189//84 192//84
f 178//85 179//85 191//85 190//85
f 193//86 194//86 196//86 195//86
f 200//87 199//87 203//87 204//87
f 199//88 200//88 198//88 197//88
f 215//89 216//89 194//89 193//89
f 213//90 199//90 197//90 215//90
f 214//91 196//91 194//91 216//91
f 204//92 203//92 207//92 208//92
f 213//93 195//93 202//93 217//93
f 214//94 200//94 204//94 218//94
f 195//95 196//95 201//95 202//95
f 220//96 208//96 212//96 222//96
f 217//97 202//97 206//97 219//97
f 218//98 204//98 208//98 220//98
f 202//99 201//99 205//99 206//99
f 211//100 221//100 225//100 228//100
f 206//101 205//101 209//101 210//101
f 208//102 207//102 211//102 212//102
f 219//103 206//103 210//103 221//103
f 207//104 219//104 221//104 211//104
f 210//105 209//105 223//105 224//105
f 201//106 218//106 220//106 205//106
f 203//107 217//107 219//107 207//107
f 205//108 220//108 222//108 209//108
f 196//109 214//109 218//109 201//109
f 199//110 213//110 217//110 203//110
f 200//111 214//111 216//111 198//111
f 195//112 213//112 215//112 193//112
f 197//113 198//113 216//113 215//113
f 227//114 228//114 234//114 233//114
f 223//115 226//115 232//115 229//115
f 212//116 211//116 228//116 227//116
f 221//117 210//117 224//117 225//117
f 209//118 222//118 226//118 223//118
f 222//119 212//119 227//119 226//119
f 234//120 231//120 242//120 241//120
f 230//121 229//121 235//121 236//121
f 225//122 224//122 230//122 231//122
f 228//123 225//123 231//123 234//123
f 226//124 227//124 233//124 232//124
f 224//125 223//125 229//125 230//125
f 238//126 237//126 245//126 246//126
f 229//127 232//127 238//127 235//127
f 231//128 230//128 236//128 237//128
f 232//129 231//129 237//129 238//129
f 241//130 242//130 254//130 253//130
f 232//131 233//131 240//131 239//131
f 233//132 234//132 241//132 240//132
f 231//133 232//133 239//133 242//133
f 246//134 245//134 249//134 250//134
f 237//135 236//135 244//135 245//135
f 235//136 238//136 246//136 243//136
f 236//137 235//137 243//137 244//137
f 248//138 247//138 250//138 249//138
f 245//139 244//139 248//139 249//139
f 243//140 246//140 250//140 247//140
f 244//141 243//141 247//141 248//141
f 254//142 251//142 252//142 253//142
f 239//143 240//143 252//143 251//143
f 242//144 239//144 251//144 254//144
f 240//145 241//145 253//145 252//145
