# Blender v2.91.2 OBJ File: 'camionnete02.blend'
# www.blender.org
mtllib arme_000023.mtl
o Cube.046_Cube.010
v 366.649200 225.013000 -1021.327881
v 367.915314 4.609909 -1021.274902
v 485.270447 225.649780 -1207.090332
v 486.536560 5.246704 -1207.037476
v 180.889954 223.917419 -1139.950806
v 182.156021 3.514313 -1139.897827
v 299.511169 224.554230 -1325.713257
v 300.777283 4.151108 -1325.660400
v 203.331253 224.136230 -765.569702
v 204.597351 3.733185 -765.516724
v 18.838100 2.637589 -884.139648
v 17.572010 223.040680 -884.192566
v 129.419189 223.739471 -649.822205
v 130.685272 3.336380 -649.769348
v -55.074036 2.240784 -768.392212
v -56.340126 222.643890 -768.445190
v 85.755219 223.505066 -581.443909
v 94.114136 63.221268 -592.739990
v -91.645210 62.125702 -711.362915
v -100.004105 222.409515 -700.066772
v 128.156982 443.461182 -649.875061
v -57.602276 442.365601 -768.498047
v 84.493050 443.226807 -581.496704
v -101.266228 442.131226 -700.119629
v 228.811874 224.273010 -805.472656
v 230.077972 3.869965 -805.419739
v 43.052601 223.177460 -924.095581
v 44.318665 2.774368 -924.042664
v 202.913315 296.892944 -765.587158
v 17.154047 295.797424 -884.210144
v 228.393921 297.029724 -805.490112
v 42.634636 295.934143 -924.112976
v 202.306976 402.451050 -765.612549
v 16.547697 401.355469 -884.235352
v 227.787537 402.587830 -805.515503
v 42.028301 401.492249 -924.138367
v 130.671768 296.505127 -652.455811
v -55.087540 295.409546 -771.078735
v 130.065384 402.063293 -652.481140
v -55.693905 400.967651 -771.104065
v 154.939651 580.392761 -693.080322
v -30.819626 579.297180 -811.703308
v 111.275681 580.158386 -624.702026
v -74.483551 579.062744 -743.324890
v 443.393463 225.424988 -1141.510498
v 444.659576 5.021896 -1141.457642
v 257.634186 224.329407 -1260.133301
v 258.900299 3.926300 -1260.080444
v 392.390808 225.102020 -1266.401855
v 393.656921 4.698898 -1266.348999
v 273.769592 224.465210 -1080.639404
v 275.035675 4.062119 -1080.586426
v 110.451637 223.588440 -824.881104
v 111.717712 3.185379 -824.828125
v 36.539539 223.191711 -709.133728
v 37.805614 2.788589 -709.080811
v -7.124417 222.957275 -640.755371
v 1.234482 62.673492 -652.051453
v 35.277336 442.913452 -709.186462
v -8.386593 442.679016 -640.808167
v 137.198318 3.322174 -864.731140
v 135.932236 223.725220 -864.784119
v 110.033684 296.345184 -824.898682
v 135.514282 296.481903 -864.801514
v 109.427338 401.903320 -824.923950
v 134.907928 402.040039 -864.826965
v 37.792110 295.957367 -711.767334
v 37.185745 401.515503 -711.792603
v 62.059998 579.845032 -752.391846
v 18.396044 579.610535 -684.013489
v 351.779907 4.474106 -1200.769043
v 350.513824 224.877197 -1200.821899
v 438.830627 225.375885 -1236.745972
v 321.475494 4.336014 -1050.930664
v 158.157532 3.459290 -795.172485
v 84.245422 3.062485 -679.425110
v 47.674301 62.947372 -622.395752
v 182.372055 223.999115 -835.128357
v 181.954102 296.755798 -835.145813
v 181.347733 402.313904 -835.171204
v 396.953674 225.151093 -1171.166260
v 440.096741 4.972809 -1236.693237
v 320.209381 224.739105 -1050.983765
v 156.891449 223.862335 -795.225464
v 82.979347 223.465576 -679.477966
v 39.315388 223.231171 -611.099609
v 81.717178 443.187317 -679.530762
v 38.053242 442.952881 -611.152466
v 183.638153 3.596069 -835.075439
v 156.473511 296.619080 -795.242920
v 155.867142 402.177185 -795.268250
v 84.231934 296.231262 -682.111572
v 83.625565 401.789368 -682.136841
v 108.499847 580.118896 -722.736023
v 64.835876 579.884399 -654.357727
v 398.219727 4.748001 -1171.113403
v 183.875214 -37.671394 -835.065552
v 137.435379 -37.945312 -864.721252
v 398.456787 -36.519470 -1171.103516
v 352.016998 -36.793381 -1200.759155
v 275.272736 -37.205368 -1080.576538
v 321.712555 -36.931458 -1050.920776
v 500.649750 164.300354 -1057.970215
v 466.714203 164.118164 -1004.826721
v 467.274170 66.658188 -1004.803162
v 501.209625 66.840363 -1057.946899
v 540.791382 164.537140 -1032.336548
v 506.855865 164.354950 -979.192993
v 507.415771 66.894974 -979.169556
v 541.351257 67.077133 -1032.313110
v 602.220886 164.899445 -993.108826
v 568.285339 164.717255 -939.965210
v 568.845215 67.257309 -939.941772
v 602.780701 67.439484 -993.085449
v 641.749939 165.132599 -967.866211
v 607.814392 164.950409 -914.722656
v 608.374390 67.490433 -914.699219
v 642.309814 67.672607 -967.842773
v 829.790344 7.065094 -1846.958008
v 783.350525 6.791199 -1876.613770
v 782.084290 227.194305 -1876.666748
v 828.524231 227.468201 -1847.010986
vn 0.8428 0.0050 0.5382
vn 0.5382 0.0029 -0.8428
vn -0.8428 -0.0050 -0.5382
vn -0.0057 1.0000 -0.0002
vn 0.0057 -1.0000 0.0002
vn -0.5382 -0.0029 0.8428
vn -0.3533 -0.7492 0.5602
vn -0.5358 -0.0871 0.8398
vn -0.8435 -0.0055 -0.5371
vn 0.8435 0.0055 0.5371
vn 0.5060 -0.3480 -0.7892
vn -0.5060 0.3480 0.7892
vn 0.8264 0.0046 -0.5630
vn -0.1631 -0.0007 0.9866
vn 0.4698 -0.8312 0.2972
vn 0.4602 0.8367 0.2968
usemtl Matériau.011
s off
f 45//1 46//1 4//1 3//1
f 49//2 50//2 8//2 7//2
f 47//3 48//3 6//3 5//3
f 26//1 25//1 9//1 10//1
f 72//4 47//4 5//4 51//4
f 96//5 46//5 2//5 74//5
f 10//1 9//1 13//1 14//1
f 84//6 9//6 29//6 90//6
f 89//5 26//5 10//5 75//5
f 27//3 28//3 11//3 12//3
f 76//7 14//7 18//7 77//7
f 75//5 10//5 14//5 76//5
f 12//3 11//3 15//3 16//3
f 53//4 12//4 16//4 55//4
f 86//8 77//8 18//8 17//8
f 16//9 15//9 19//9 20//9
f 16//3 20//3 24//3 22//3
f 14//10 13//10 17//10 18//10
f 59//11 22//11 42//11 69//11
f 86//6 17//6 23//6 88//6
f 17//1 13//1 21//1 23//1
f 55//2 16//2 22//2 59//2
f 5//3 6//3 28//3 27//3
f 74//5 2//5 26//5 89//5
f 51//4 5//4 27//4 62//4
f 2//1 1//1 25//1 26//1
f 32//3 30//3 34//3 36//3
f 62//2 27//2 32//2 64//2
f 27//3 12//3 30//3 32//3
f 9//1 25//1 31//1 29//1
f 66//4 36//4 34//4 65//4
f 90//5 29//5 37//5 92//5
f 64//2 32//2 36//2 66//2
f 29//1 31//1 35//1 33//1
f 92//6 37//6 39//6 93//6
f 29//1 33//1 39//1 37//1
f 34//3 30//3 38//3 40//3
f 65//4 34//4 40//4 68//4
f 69//4 42//4 44//4 70//4
f 23//1 21//1 41//1 43//1
f 88//12 23//12 43//12 95//12
f 22//3 24//3 44//3 42//3
f 82//5 4//5 46//5 96//5
f 49//4 7//4 47//4 72//4
f 7//3 8//3 48//3 47//3
f 46//13 45//13 103//13 106//13
f 73//4 49//4 72//4 81//4
f 8//5 50//5 71//5 48//5
f 24//12 60//12 70//12 44//12
f 94//4 69//4 70//4 95//4
f 91//4 65//4 68//4 93//4
f 38//6 67//6 68//6 40//6
f 79//2 64//2 66//2 80//2
f 30//5 63//5 67//5 38//5
f 80//4 66//4 65//4 91//4
f 78//2 62//2 64//2 79//2
f 83//4 51//4 62//4 78//4
f 6//5 52//5 61//5 28//5
f 85//2 55//2 59//2 87//2
f 20//6 57//6 60//6 24//6
f 87//11 59//11 69//11 94//11
f 20//8 19//8 58//8 57//8
f 84//4 53//4 55//4 85//4
f 11//5 54//5 56//5 15//5
f 15//7 56//7 58//7 19//7
f 28//5 61//5 54//5 11//5
f 12//6 53//6 63//6 30//6
f 48//5 71//5 52//5 6//5
f 81//4 72//4 51//4 83//4
f 50//3 49//3 121//3 120//3
f 3//2 4//2 82//2 73//2
f 45//4 81//4 83//4 1//4
f 9//4 84//4 85//4 13//4
f 21//11 87//11 94//11 41//11
f 13//2 85//2 87//2 21//2
f 1//4 83//4 78//4 25//4
f 25//2 78//2 79//2 31//2
f 35//4 80//4 91//4 33//4
f 31//2 79//2 80//2 35//2
f 33//4 91//4 93//4 39//4
f 41//4 94//4 95//4 43//4
f 3//4 73//4 81//4 45//4
f 50//5 82//5 96//5 71//5
f 60//12 88//12 95//12 70//12
f 67//6 92//6 93//6 68//6
f 63//5 90//5 92//5 67//5
f 52//3 71//3 100//3 101//3
f 57//6 86//6 88//6 60//6
f 57//8 58//8 77//8 86//8
f 54//5 75//5 76//5 56//5
f 56//7 76//7 77//7 58//7
f 61//5 89//5 75//5 54//5
f 53//6 84//6 90//6 63//6
f 89//6 61//6 98//6 97//6
f 101//5 102//5 97//5 98//5
f 100//5 99//5 102//5 101//5
f 61//3 52//3 101//3 98//3
f 74//1 89//1 97//1 102//1
f 71//2 96//2 99//2 100//2
f 96//1 74//1 102//1 99//1
f 106//2 103//2 107//2 110//2
f 1//14 2//14 105//14 104//14
f 2//15 46//15 106//15 105//15
f 45//16 1//16 104//16 103//16
f 109//5 110//5 114//5 113//5
f 104//6 105//6 109//6 108//6
f 105//5 106//5 110//5 109//5
f 103//4 104//4 108//4 107//4
f 113//5 114//5 118//5 117//5
f 107//4 108//4 112//4 111//4
f 110//2 107//2 111//2 114//2
f 108//6 109//6 113//6 112//6
f 116//1 117//1 118//1 115//1
f 111//4 112//4 116//4 115//4
f 114//2 111//2 115//2 118//2
f 122//2 119//2 120//2 121//2
f 82//5 50//5 120//5 119//5
f 73//1 82//1 119//1 122//1
f 49//4 73//4 122//4 121//4
o Cube.047_Cube.022
v -253.224075 500.167603 286.800720
v -248.984558 259.414215 307.231079
v -134.760468 484.429718 76.761963
v -130.520966 243.676331 97.192368
v -433.914001 423.976959 122.860199
v -431.740295 300.535950 133.335434
v -373.174408 415.907715 15.167458
v -371.000702 292.466705 25.642693
v 8.945251 272.413940 -273.672394
v 6.724548 398.521729 -284.373932
v -103.580811 391.345520 -346.049408
v -101.360138 265.237732 -335.347870
v 99.563995 274.141357 -470.336517
v 97.931305 366.858643 -478.204559
v 16.832306 361.582550 -523.549805
v 18.464996 268.865234 -515.681763
v 154.474274 277.137238 -594.601318
v 153.281097 344.893829 -600.351196
v 94.015015 341.038116 -633.488892
v 95.208191 273.281525 -627.739014
v -249.186188 486.193665 33.221840
v -244.685425 230.604279 54.911217
v -374.949890 502.901367 256.203857
v -370.449127 247.311981 277.893250
v -45.752884 398.454712 -320.405975
v -43.395370 264.575745 -309.044952
v 66.577393 365.849060 -517.512695
v 68.310669 267.418213 -509.159821
v 136.927124 343.284637 -640.706421
v 138.193787 271.352692 -634.602295
v 203.669708 271.211975 -674.633789
v 202.476532 338.968536 -680.383667
v 185.922546 336.394226 -732.070801
v 187.189209 264.462280 -725.966675
v 144.234314 266.539459 -717.361450
v 143.041138 334.296051 -723.111328
v 237.862762 266.877502 -732.806885
v 236.669647 334.634064 -738.556763
v 220.115570 332.059753 -790.243774
v 221.382294 260.127808 -784.139648
v 178.427368 262.205017 -775.534424
v 177.234192 329.961578 -781.284302
v 279.882416 277.688751 -757.456055
v 279.114471 321.300598 -761.156982
v 268.459442 319.643616 -794.425537
v 269.274750 273.344299 -790.496582
v 210.251007 255.315170 -838.542236
v 167.296143 257.392365 -829.937012
v 166.102966 325.148956 -835.686890
v 208.984344 327.247131 -844.646362
v 309.123138 284.008545 -773.405273
v 308.605438 313.410431 -775.900269
v 301.422028 312.293335 -798.329224
v 301.971710 281.079620 -795.680420
v 331.337006 287.730988 -799.525635
v 331.013336 306.110474 -801.085327
v 326.522980 305.412170 -815.105957
v 326.866547 285.900085 -813.450073
v 196.850830 264.772186 -867.404663
v 168.289581 266.153351 -861.682983
v 167.496246 311.205566 -865.506104
v 196.008606 312.600647 -871.463379
vn 0.8714 0.0567 0.4872
vn -0.8018 -0.0645 -0.5941
vn -0.8714 -0.0567 -0.4872
vn -0.2414 0.0778 0.9673
vn -0.4347 0.8461 -0.3086
vn 0.0711 -0.9909 0.1144
vn -0.8307 -0.0616 -0.5532
vn 0.1001 0.9769 -0.1890
vn -0.2663 -0.9466 -0.1818
vn 0.9338 0.0465 0.3548
vn -0.0365 -0.9977 -0.0576
vn 0.0909 0.9892 -0.1153
vn -0.0121 -0.9996 -0.0244
vn 0.9068 0.0515 0.4183
vn -0.0716 0.9910 -0.1134
vn 0.9131 0.0504 0.4047
vn -0.8223 -0.0625 -0.5656
vn 0.1317 0.9850 -0.1113
vn -0.0712 0.9718 -0.2247
vn 0.8524 0.0591 0.5196
vn 0.1258 -0.9907 0.0527
vn -0.0470 0.9802 -0.1924
vn 0.1664 -0.9845 0.0559
vn 0.1347 -0.9906 -0.0221
vn -0.2987 0.8925 -0.3379
vn -0.4039 -0.9006 -0.1603
vn 0.0361 0.9979 -0.0544
vn -0.9182 0.0174 0.3957
vn -0.8625 -0.0578 -0.5027
vn 0.0622 -0.9919 0.1105
vn -0.8777 -0.0558 -0.4759
vn 0.0314 0.9979 -0.0566
vn 0.0665 -0.9915 0.1122
vn -0.0365 -0.9978 0.0554
vn -0.0643 0.9951 -0.0749
vn 0.4884 0.0823 0.8687
vn 0.0271 0.9979 -0.0584
vn -0.0728 0.9905 -0.1166
vn -0.0378 -0.9979 0.0521
vn 0.8625 0.0578 0.5027
vn -0.1361 -0.0861 -0.9869
vn 0.2707 -0.9619 0.0396
vn 0.2368 0.9636 -0.1238
vn -0.1077 -0.0859 -0.9905
vn -0.1326 0.8955 -0.4249
vn -0.0293 -0.9951 0.0940
vn -0.9797 -0.0002 0.2005
vn 0.9797 0.0002 -0.2005
vn -0.5689 -0.0795 -0.8186
vn 0.2034 0.9725 -0.1136
vn 0.2376 -0.9700 0.0513
vn 0.4633 0.0830 0.8823
vn 0.9524 -0.0091 -0.3046
vn 0.1934 0.9749 -0.1105
vn 0.2274 -0.9723 0.0548
vn 0.7551 0.0686 0.6520
vn -0.1997 -0.0863 -0.9760
vn -0.1000 -0.9583 -0.2676
vn 0.9043 -0.0203 -0.4265
vn -0.9991 -0.0207 -0.0370
usemtl Matériau.012
s off
f 123//17 124//17 126//17 125//17
f 130//18 129//18 133//18 134//18
f 129//19 130//19 128//19 127//19
f 145//20 146//20 124//20 123//20
f 143//21 129//21 127//21 145//21
f 144//22 126//22 124//22 146//22
f 134//23 133//23 137//23 138//23
f 143//24 125//24 132//24 147//24
f 144//25 130//25 134//25 148//25
f 125//26 126//26 131//26 132//26
f 150//27 138//27 142//27 152//27
f 147//28 132//28 136//28 149//28
f 148//29 134//29 138//29 150//29
f 132//30 131//30 135//30 136//30
f 141//31 151//31 155//31 158//31
f 136//32 135//32 139//32 140//32
f 138//33 137//33 141//33 142//33
f 149//34 136//34 140//34 151//34
f 137//35 149//35 151//35 141//35
f 140//36 139//36 153//36 154//36
f 131//37 148//37 150//37 135//37
f 133//38 147//38 149//38 137//38
f 135//39 150//39 152//39 139//39
f 126//40 144//40 148//40 131//40
f 129//41 143//41 147//41 133//41
f 130//42 144//42 146//42 128//42
f 125//43 143//43 145//43 123//43
f 127//44 128//44 146//44 145//44
f 157//45 158//45 164//45 163//45
f 153//46 156//46 162//46 159//46
f 142//47 141//47 158//47 157//47
f 151//48 140//48 154//48 155//48
f 139//49 152//49 156//49 153//49
f 152//50 142//50 157//50 156//50
f 164//51 161//51 172//51 171//51
f 160//52 159//52 165//52 166//52
f 155//53 154//53 160//53 161//53
f 158//54 155//54 161//54 164//54
f 156//55 157//55 163//55 162//55
f 154//56 153//56 159//56 160//56
f 168//57 167//57 175//57 176//57
f 159//58 162//58 168//58 165//58
f 161//59 160//59 166//59 167//59
f 162//60 161//60 167//60 168//60
f 171//61 172//61 184//61 183//61
f 162//62 163//62 170//62 169//62
f 163//63 164//63 171//63 170//63
f 161//64 162//64 169//64 172//64
f 176//65 175//65 179//65 180//65
f 167//66 166//66 174//66 175//66
f 165//67 168//67 176//67 173//67
f 166//68 165//68 173//68 174//68
f 178//69 177//69 180//69 179//69
f 175//70 174//70 178//70 179//70
f 173//71 176//71 180//71 177//71
f 174//72 173//72 177//72 178//72
f 184//73 181//73 182//73 183//73
f 169//74 170//74 182//74 181//74
f 172//75 169//75 181//75 184//75
f 170//76 171//76 183//76 182//76
o Cube.048_Cube.024
v -528.277893 345.257263 135.991486
v -689.716797 199.084747 31.260197
v -385.600250 326.795288 -58.172939
v -547.039185 180.622742 -162.904221
v -642.293457 496.693542 -35.466553
v -725.067688 421.746826 -89.165207
v -569.138611 487.227570 -135.020081
v -651.912903 412.280823 -188.718735
v -305.082153 231.326477 -473.875824
v -220.519653 307.892365 -419.017059
v -277.847290 408.225708 -470.683228
v -362.409790 331.659851 -525.541992
v -174.393066 238.301788 -646.396057
v -112.220825 294.594757 -606.062683
v -154.369385 368.362091 -644.048828
v -216.541626 312.069122 -684.382202
v -92.151306 245.515686 -754.331726
v -46.716614 286.653870 -724.856628
v -77.518250 340.562073 -752.616394
v -122.952942 299.423920 -782.091492
v -446.191193 428.475708 -89.508606
v -617.578491 273.295593 -200.693756
v -597.661072 448.075378 116.620865
v -769.048401 292.895264 5.435719
v -243.273499 359.990570 -447.656738
v -333.046997 278.706451 -505.896057
v -120.243774 331.771973 -638.967224
v -186.247314 272.010071 -681.786072
v -44.679932 312.800293 -759.653259
v -92.914429 269.127075 -790.944702
v -35.011841 235.524353 -828.465027
v 10.422852 276.662476 -798.989929
v 15.649597 306.617157 -844.018921
v -32.584900 262.943939 -875.310425
v -63.113770 292.655396 -864.884338
v -17.679077 333.793579 -835.409241
v 5.450439 229.402954 -882.292419
v 50.885132 270.541138 -852.817322
v 56.111877 300.495819 -897.846436
v 7.877380 256.822601 -929.137939
v -22.651489 286.534058 -918.711792
v 22.783203 327.672211 -889.236694
v 49.362915 213.585693 -899.945496
v 78.607178 240.064453 -880.973694
v 81.971375 259.344910 -909.956909
v 50.924988 231.234436 -930.097778
v 16.236755 282.518860 -977.887573
v -14.292114 312.230347 -967.461426
v 31.142578 353.368469 -937.986328
v 64.471252 326.192078 -946.596069
v 78.715027 201.455048 -911.804565
v 98.430664 219.306305 -899.014282
v 100.698730 232.304657 -918.553955
v 79.768188 213.353363 -932.132385
v 105.196472 196.827393 -933.412537
v 117.520935 207.986420 -925.417236
v 118.938782 216.111847 -937.631653
v 105.854797 204.265167 -946.119751
v 23.472534 308.446320 -997.315613
v 3.173462 328.201843 -990.383179
v 33.383545 355.555115 -970.784790
v 55.544250 337.485199 -976.509521
vn 0.4529 -0.7926 0.4082
vn -0.3739 0.7764 -0.5073
vn -0.4529 0.7926 -0.4082
vn -0.4491 -0.1367 0.8830
vn 0.3677 0.9117 0.1835
vn -0.6389 -0.6525 -0.4075
vn -0.4057 0.7843 -0.4693
vn 0.7709 0.5458 0.3282
vn -0.7335 -0.2684 -0.6244
vn 0.5344 -0.7953 0.2862
vn -0.6557 -0.5130 -0.5540
vn 0.7471 0.5322 0.3984
vn -0.6522 -0.5444 -0.5275
vn 0.4974 -0.7962 0.3446
vn 0.6383 0.6525 0.4083
vn 0.5056 -0.7963 0.3320
vn -0.3963 0.7822 -0.4808
vn 0.7704 0.4982 0.3978
vn 0.6650 0.6827 0.3028
vn 0.4304 -0.7892 0.4381
vn -0.5805 -0.6699 -0.4629
vn 0.6754 0.6576 0.3338
vn -0.5502 -0.6976 -0.4589
vn -0.5484 -0.6487 -0.5277
vn 0.4997 0.8482 0.1756
vn -0.8036 -0.1489 -0.5763
vn 0.6946 0.5550 0.4577
vn -0.7441 0.5414 0.3914
vn -0.4423 0.7912 -0.4224
vn -0.6443 -0.6450 -0.4109
vn -0.4605 0.7936 -0.3977
vn 0.6923 0.5592 0.4560
vn -0.6417 -0.6486 -0.4094
vn -0.6952 -0.5550 -0.4568
vn 0.6325 0.6352 0.4433
vn 0.0790 -0.6368 0.7670
vn 0.6901 0.5631 0.4547
vn 0.6383 0.6544 0.4054
vn -0.6950 -0.5529 -0.4596
vn 0.4423 -0.7912 0.4224
vn 0.1967 0.4182 -0.8868
vn -0.4597 -0.7559 -0.4662
vn 0.8315 0.4132 0.3714
vn 0.2171 0.3987 -0.8910
vn 0.6437 0.7594 0.0946
vn -0.7021 -0.5732 -0.4225
vn -0.7288 0.6493 0.2173
vn 0.7288 -0.6493 -0.2173
vn -0.1487 0.6792 -0.7187
vn 0.8112 0.4390 0.3862
vn -0.4913 -0.7403 -0.4588
vn 0.0578 -0.6229 0.7802
vn 0.7408 -0.5958 -0.3103
vn 0.8050 0.4466 0.3905
vn -0.5009 -0.7354 -0.4564
vn 0.3250 -0.7611 0.5613
vn 0.1500 0.4610 -0.8746
vn -0.5994 -0.3661 -0.7118
vn 0.7436 -0.5213 -0.4187
vn -0.6724 0.7402 0.0034
usemtl Matériau.012
s off
f 185//77 186//77 188//77 187//77
f 192//78 191//78 195//78 196//78
f 191//79 192//79 190//79 189//79
f 207//80 208//80 186//80 185//80
f 205//81 191//81 189//81 207//81
f 206//82 188//82 186//82 208//82
f 196//83 195//83 199//83 200//83
f 205//84 187//84 194//84 209//84
f 206//85 192//85 196//85 210//85
f 187//86 188//86 193//86 194//86
f 212//87 200//87 204//87 214//87
f 209//88 194//88 198//88 211//88
f 210//89 196//89 200//89 212//89
f 194//90 193//90 197//90 198//90
f 203//91 213//91 217//91 220//91
f 198//92 197//92 201//92 202//92
f 200//93 199//93 203//93 204//93
f 211//94 198//94 202//94 213//94
f 199//95 211//95 213//95 203//95
f 202//96 201//96 215//96 216//96
f 193//97 210//97 212//97 197//97
f 195//98 209//98 211//98 199//98
f 197//99 212//99 214//99 201//99
f 188//100 206//100 210//100 193//100
f 191//101 205//101 209//101 195//101
f 192//102 206//102 208//102 190//102
f 187//103 205//103 207//103 185//103
f 189//104 190//104 208//104 207//104
f 219//105 220//105 226//105 225//105
f 215//106 218//106 224//106 221//106
f 204//107 203//107 220//107 219//107
f 213//108 202//108 216//108 217//108
f 201//109 214//109 218//109 215//109
f 214//110 204//110 219//110 218//110
f 226//111 223//111 234//111 233//111
f 222//112 221//112 227//112 228//112
f 217//113 216//113 222//113 223//113
f 220//114 217//114 223//114 226//114
f 218//115 219//115 225//115 224//115
f 216//116 215//116 221//116 222//116
f 230//117 229//117 237//117 238//117
f 221//118 224//118 230//118 227//118
f 223//119 222//119 228//119 229//119
f 224//120 223//120 229//120 230//120
f 233//121 234//121 246//121 245//121
f 224//122 225//122 232//122 231//122
f 225//123 226//123 233//123 232//123
f 223//124 224//124 231//124 234//124
f 238//125 237//125 241//125 242//125
f 229//126 228//126 236//126 237//126
f 227//127 230//127 238//127 235//127
f 228//128 227//128 235//128 236//128
f 240//129 239//129 242//129 241//129
f 237//130 236//130 240//130 241//130
f 235//131 238//131 242//131 239//131
f 236//132 235//132 239//132 240//132
f 246//133 243//133 244//133 245//133
f 231//134 232//134 244//134 243//134
f 234//135 231//135 243//135 246//135
f 232//136 233//136 245//136 244//136
