# Blender v2.91.2 OBJ File: 'camionnete02.blend'
# www.blender.org
mtllib arme_000079.mtl
o Cube.046_Cube.010
v 206.176544 358.318054 -1151.515503
v 195.492554 138.181671 -1153.735352
v 288.218872 356.399048 -1356.074707
v 277.534882 136.262650 -1358.294678
v 1.887539 369.060211 -1233.550171
v -8.796495 148.923798 -1235.770142
v 83.929871 367.141144 -1438.109375
v 73.245834 147.004745 -1440.329468
v 93.220528 360.960175 -869.877991
v 82.536522 140.823822 -872.097839
v -121.752464 151.565918 -954.132507
v -111.068451 371.702301 -951.912720
v 42.100563 362.155914 -742.418396
v 31.416525 142.019516 -744.638367
v -172.872528 152.761642 -826.673035
v -162.188507 372.898071 -824.453186
v 11.901134 362.862305 -667.121155
v 9.331782 202.606247 -681.254578
v -194.957306 213.348389 -763.289307
v -192.387939 373.604462 -749.155823
v 52.751530 581.611816 -740.205444
v -151.537506 592.353943 -822.240234
v 22.552128 582.318176 -664.908142
v -181.736908 593.060364 -746.942871
v 110.843781 360.547943 -913.818604
v 100.159744 140.411575 -916.038513
v -93.445259 371.290100 -995.853394
v -104.129311 151.153702 -998.073242
v 96.747421 433.628845 -869.145264
v -107.541618 444.371002 -951.180054
v 114.370644 433.216614 -913.085815
v -89.918381 443.958740 -995.120483
v 101.864365 539.059265 -868.082031
v -102.424644 549.801392 -950.116699
v 119.487541 538.647034 -912.022644
v -84.801453 549.389099 -994.057312
v 46.782806 434.797546 -744.566467
v -157.506226 445.539673 -826.601196
v 51.899734 540.228027 -743.503296
v -152.389313 550.970093 -825.538025
v 78.449318 717.783875 -786.368713
v -125.839699 728.526001 -868.403564
v 48.249878 718.490234 -711.071472
v -156.039093 729.232361 -793.106201
v 259.255402 357.076508 -1283.859009
v 248.571381 136.940125 -1286.078979
v 54.966354 367.818634 -1365.893677
v 44.282379 147.682236 -1368.113525
v 186.074371 361.770081 -1397.092163
v 175.390350 141.633682 -1399.312012
v 104.032059 363.689148 -1192.532959
v 93.348038 143.552734 -1194.752686
v -8.923956 366.331238 -910.895325
v -19.607979 146.194855 -913.115112
v -60.043968 367.527008 -783.435852
v -66.007423 156.819717 -771.993958
v -90.243385 368.233368 -708.138550
v -80.899239 197.673523 -729.254150
v -49.392998 586.982910 -781.222839
v -79.592400 587.689270 -705.925537
v -1.984774 145.782639 -957.055847
v 8.699259 365.919006 -954.835999
v -5.397099 438.999908 -910.162598
v 12.226137 438.587646 -954.103088
v -0.280136 544.430359 -909.099365
v 17.343052 544.018127 -953.040039
v -55.361717 440.168640 -785.583862
v -50.244774 545.599060 -784.520691
v -23.695206 723.154968 -827.386108
v -53.894630 723.861267 -752.088806
v 146.426849 142.311172 -1327.096313
v 157.110870 362.447571 -1324.876343
v 237.146637 359.084564 -1376.583374
v 144.420288 140.867203 -1174.244141
v 31.464272 143.509323 -892.606628
v -31.569290 155.008865 -758.164917
v -46.461071 195.862656 -715.425110
v 59.771511 363.233459 -934.327209
v 63.298370 435.902100 -933.594421
v 68.415298 541.332520 -932.531372
v 208.183136 359.762054 -1304.367798
v 226.462616 138.948166 -1378.803345
v 155.104279 361.003601 -1172.024292
v 42.148289 363.645691 -890.386719
v -8.971716 364.841461 -762.927124
v -39.171135 365.547821 -687.629822
v 1.679279 584.297302 -760.714172
v -28.520123 585.003723 -685.416870
v 49.087494 143.097107 -936.547180
v 45.675171 436.314392 -889.653870
v 50.792099 541.744812 -888.590759
v -4.289459 437.483093 -765.075195
v 0.827486 542.913513 -764.011963
v 27.377090 720.469421 -806.877380
v -2.822357 721.175720 -731.580078
v 197.499084 139.625641 -1306.587524
v 47.087067 101.879578 -936.962830
v -3.985203 104.565094 -957.471436
v 195.498627 98.408127 -1307.003296
v 144.426422 101.093628 -1327.511963
v 91.347595 102.335175 -1195.168335
v 142.419861 99.649673 -1174.659668
v 327.590424 291.497223 -1212.984863
v 304.119476 292.046234 -1154.463867
v 299.395294 194.704147 -1155.445435
v 322.866058 194.155151 -1213.966431
v 371.736237 289.175934 -1195.257690
v 348.265320 289.724915 -1136.736694
v 343.541016 192.382874 -1137.718262
v 367.011902 191.833862 -1196.239258
v 439.293396 285.623596 -1168.129395
v 415.822479 286.172577 -1109.608398
v 411.098083 188.830551 -1110.589966
v 434.568909 188.281555 -1169.111084
v 482.765503 283.337677 -1150.672729
v 459.294617 283.886688 -1092.151733
v 454.570374 186.544647 -1093.133301
v 478.041168 185.995651 -1151.654297
v 495.987610 132.644073 -2050.818848
v 444.915375 135.329590 -2071.327637
v 455.599182 355.466003 -2069.107666
v 506.671539 352.780457 -2048.599121
v 3.946815 787.816956 -844.065735
v -90.173836 792.766113 -881.861084
v -23.880291 788.467834 -774.683228
v -118.000908 793.416931 -812.478577
v 70.240341 783.518738 -736.888123
v 98.067513 782.867920 -806.270325
v 51.007206 785.342590 -825.167969
v 23.180023 785.993225 -755.785706
vn 0.9269 -0.0487 0.3722
vn 0.3722 -0.0087 -0.9281
vn -0.9269 0.0487 -0.3722
vn 0.0485 0.9988 0.0101
vn -0.0485 -0.9988 -0.0101
vn -0.3722 0.0087 0.9281
vn -0.2836 -0.7406 0.6091
vn -0.1332 -0.9910 -0.0100
vn -0.4503 -0.0993 0.8874
vn -0.9274 0.0483 -0.3710
vn 0.9274 -0.0483 0.3710
vn 0.3316 -0.3584 -0.8727
vn 0.3302 -0.3656 -0.8702
vn -0.3316 0.3584 0.8727
vn 0.7069 -0.0272 -0.7068
vn -0.8495 0.3995 -0.3445
vn -0.3353 -0.1066 0.9361
vn -0.0226 -0.9991 0.0357
vn -0.3146 0.4402 0.8410
vn -0.3753 -0.1341 0.9171
vn -0.0729 -0.9960 0.0510
vn 0.0225 -0.0112 0.9997
vn 0.4710 -0.8599 0.1970
vn 0.5519 0.8061 0.2138
vn 0.9152 -0.1632 0.3686
usemtl Matériau.011
s off
f 45//1 46//1 4//1 3//1
f 49//2 50//2 8//2 7//2
f 47//3 48//3 6//3 5//3
f 26//1 25//1 9//1 10//1
f 72//4 47//4 5//4 51//4
f 96//5 46//5 2//5 74//5
f 10//1 9//1 13//1 14//1
f 84//6 9//6 29//6 90//6
f 89//5 26//5 10//5 75//5
f 27//3 28//3 11//3 12//3
f 76//7 14//7 18//7 77//7
f 75//8 10//8 14//8 76//8
f 12//3 11//3 15//3 16//3
f 53//4 12//4 16//4 55//4
f 86//9 77//9 18//9 17//9
f 16//10 15//10 19//10 20//10
f 16//3 20//3 24//3 22//3
f 14//11 13//11 17//11 18//11
f 59//12 22//12 42//12 69//12
f 86//6 17//6 23//6 88//6
f 17//1 13//1 21//1 23//1
f 55//2 16//2 22//2 59//2
f 5//3 6//3 28//3 27//3
f 74//5 2//5 26//5 89//5
f 51//4 5//4 27//4 62//4
f 2//1 1//1 25//1 26//1
f 32//3 30//3 34//3 36//3
f 62//2 27//2 32//2 64//2
f 27//3 12//3 30//3 32//3
f 9//1 25//1 31//1 29//1
f 66//4 36//4 34//4 65//4
f 90//5 29//5 37//5 92//5
f 64//2 32//2 36//2 66//2
f 29//1 31//1 35//1 33//1
f 92//6 37//6 39//6 93//6
f 29//1 33//1 39//1 37//1
f 34//3 30//3 38//3 40//3
f 65//4 34//4 40//4 68//4
f 69//13 42//13 124//13 123//13
f 23//1 21//1 41//1 43//1
f 88//14 23//14 43//14 95//14
f 22//3 24//3 44//3 42//3
f 82//5 4//5 46//5 96//5
f 49//4 7//4 47//4 72//4
f 7//3 8//3 48//3 47//3
f 46//15 45//15 103//15 106//15
f 73//4 49//4 72//4 81//4
f 8//5 50//5 71//5 48//5
f 24//14 60//14 70//14 44//14
f 42//16 44//16 126//16 124//16
f 91//4 65//4 68//4 93//4
f 38//6 67//6 68//6 40//6
f 79//2 64//2 66//2 80//2
f 30//5 63//5 67//5 38//5
f 80//4 66//4 65//4 91//4
f 78//2 62//2 64//2 79//2
f 83//4 51//4 62//4 78//4
f 6//5 52//5 61//5 28//5
f 85//2 55//2 59//2 87//2
f 20//6 57//6 60//6 24//6
f 87//12 59//12 69//12 94//12
f 20//17 19//17 58//17 57//17
f 84//4 53//4 55//4 85//4
f 11//18 54//18 56//18 15//18
f 15//7 56//7 58//7 19//7
f 28//5 61//5 54//5 11//5
f 12//6 53//6 63//6 30//6
f 48//5 71//5 52//5 6//5
f 81//4 72//4 51//4 83//4
f 50//3 49//3 121//3 120//3
f 3//2 4//2 82//2 73//2
f 45//4 81//4 83//4 1//4
f 9//4 84//4 85//4 13//4
f 21//12 87//12 94//12 41//12
f 13//2 85//2 87//2 21//2
f 1//4 83//4 78//4 25//4
f 25//2 78//2 79//2 31//2
f 35//4 80//4 91//4 33//4
f 31//2 79//2 80//2 35//2
f 33//4 91//4 93//4 39//4
f 70//19 95//19 130//19 125//19
f 3//4 73//4 81//4 45//4
f 50//5 82//5 96//5 71//5
f 60//14 88//14 95//14 70//14
f 67//6 92//6 93//6 68//6
f 63//5 90//5 92//5 67//5
f 52//3 71//3 100//3 101//3
f 57//6 86//6 88//6 60//6
f 57//20 58//20 77//20 86//20
f 54//21 75//21 76//21 56//21
f 56//7 76//7 77//7 58//7
f 61//5 89//5 75//5 54//5
f 53//6 84//6 90//6 63//6
f 89//6 61//6 98//6 97//6
f 101//5 102//5 97//5 98//5
f 100//5 99//5 102//5 101//5
f 61//3 52//3 101//3 98//3
f 74//1 89//1 97//1 102//1
f 71//2 96//2 99//2 100//2
f 96//1 74//1 102//1 99//1
f 106//2 103//2 107//2 110//2
f 1//22 2//22 105//22 104//22
f 2//23 46//23 106//23 105//23
f 45//24 1//24 104//24 103//24
f 109//5 110//5 114//5 113//5
f 104//6 105//6 109//6 108//6
f 105//5 106//5 110//5 109//5
f 103//4 104//4 108//4 107//4
f 113//5 114//5 118//5 117//5
f 107//4 108//4 112//4 111//4
f 110//2 107//2 111//2 114//2
f 108//6 109//6 113//6 112//6
f 116//1 117//1 118//1 115//1
f 111//4 112//4 116//4 115//4
f 114//2 111//2 115//2 118//2
f 122//2 119//2 120//2 121//2
f 82//5 50//5 120//5 119//5
f 73//1 82//1 119//1 122//1
f 49//4 73//4 122//4 121//4
f 123//4 124//4 126//4 125//4
f 129//4 123//4 125//4 130//4
f 128//4 129//4 130//4 127//4
f 95//19 43//19 127//19 130//19
f 94//13 69//13 123//13 129//13
f 43//25 41//25 128//25 127//25
f 44//19 70//19 125//19 126//19
f 41//13 94//13 129//13 128//13
o Cube.048_Cube.024
v -563.468201 462.311035 182.187866
v -729.989502 345.396729 51.806671
v -422.984863 480.549988 -13.590919
v -588.572021 363.940186 -142.569824
v -674.371216 648.973633 47.325199
v -759.751343 589.028381 -19.524864
v -602.341431 658.325317 -53.056046
v -687.406006 598.475098 -119.481819
v -380.016510 467.316467 -446.649750
v -280.344849 526.858582 -396.222290
v -336.457642 638.400574 -417.016205
v -436.129211 578.858459 -467.443756
v -282.055450 500.136230 -636.960022
v -208.774628 543.912964 -599.884583
v -250.029938 625.921021 -615.172791
v -323.310822 582.144409 -652.248291
v -220.036682 523.433533 -755.605530
v -166.483887 555.424988 -728.511475
v -196.632843 615.355469 -739.683777
v -250.185486 583.364014 -766.778076
v -480.730652 588.127380 -22.379944
v -656.598206 464.384644 -158.926941
v -629.950134 568.755005 185.448685
v -806.732910 444.636169 47.033035
v -302.932861 584.728577 -410.116028
v -408.746704 521.517334 -463.650970
v -219.065826 587.156921 -623.406189
v -296.862427 540.682617 -662.766357
v -168.273682 587.659363 -757.774475
v -225.126404 553.696472 -786.538513
v -178.178040 524.759521 -839.906128
v -124.625305 556.750916 -812.811951
v -124.760498 594.516235 -851.875793
v -181.613220 560.553406 -880.639771
v -206.926697 589.370728 -859.372803
v -153.374084 621.362183 -832.278503
v -148.685730 526.890625 -900.714905
v -95.133057 558.882080 -873.620667
v -95.268433 596.647278 -912.684387
v -152.121094 562.684509 -941.448242
v -177.434509 591.501831 -920.181396
v -123.881836 623.493225 -893.087219
v -110.266357 512.319458 -929.030151
v -75.796936 532.910889 -911.590820
v -75.883972 557.218750 -936.734375
v -112.477478 535.358337 -955.248474
v -150.242310 596.821716 -985.469177
v -175.555664 625.639099 -964.202209
v -122.003052 657.630432 -937.108154
v -93.389587 630.784546 -956.705322
v -84.740112 501.065338 -948.294006
v -61.501770 514.947510 -936.536865
v -61.560486 531.335144 -953.487976
v -86.230896 516.597534 -965.969666
v -63.070374 499.212158 -975.062927
v -48.543762 507.890076 -967.713318
v -48.580505 518.134216 -978.309753
v -64.002197 508.921509 -986.112244
v -144.222351 625.567505 -1000.944397
v -161.053528 644.728455 -986.803650
v -125.445740 666.000000 -968.788269
v -106.420166 648.149841 -981.818909
v -315.473602 507.404633 454.973114
v -295.295044 308.259705 319.578613
v -173.572449 612.712585 293.984894
v -154.875671 428.369324 163.842804
v -471.980438 553.818604 258.296509
v -461.634277 451.711426 188.875946
v -397.404297 615.272400 181.171936
v -389.637360 513.294922 109.025856
v 33.170227 652.785828 -84.651253
v 104.065491 631.293274 16.008446
v 72.430847 743.183655 62.526665
v 2.807068 765.743958 -36.265572
v 207.659851 752.831299 -164.874634
v 260.834778 735.283691 -90.540443
v 238.511047 818.333069 -54.966164
v 185.336121 835.880615 -129.300507
v 317.555176 816.887939 -212.683105
v 356.414734 804.064270 -158.360596
v 340.100769 864.755676 -132.363281
v 301.241272 877.579285 -186.685852
v -277.868805 647.014587 254.381592
v -262.742218 445.940491 108.632858
v -433.236755 529.846252 417.703522
v -411.814697 318.429321 273.965576
v 96.934753 686.957153 41.160545
v 20.152771 712.294922 -66.174187
v 266.114258 784.000732 -79.226875
v 209.662476 802.629578 -158.141724
v 370.774231 845.151978 -156.309753
v 329.519958 858.765808 -213.979767
v 392.230042 852.296387 -257.743042
v 431.089539 839.472717 -203.420380
v 451.772156 889.715576 -203.731750
v 410.518005 903.329346 -261.401642
v 381.267395 920.735718 -233.744812
v 420.126892 907.912170 -179.422302
v 445.580383 878.938354 -289.617828
v 484.439758 866.114746 -235.295410
v 505.122498 916.357727 -235.606537
v 463.868347 929.971497 -293.276459
v 434.617615 947.377747 -265.619385
v 473.476990 934.554138 -211.296967
v 490.982727 871.088806 -308.778320
v 515.994812 862.834778 -273.813568
v 529.307312 895.173828 -274.013885
v 502.753845 903.936401 -311.133514
v 488.192566 979.803894 -298.913208
v 458.941833 997.210083 -271.256226
v 497.801575 984.386536 -216.933777
v 529.446716 966.190063 -241.243256
v 521.198792 865.012329 -322.899231
v 538.061340 859.447754 -299.326843
v 547.036560 881.250000 -299.462219
v 529.134705 887.157471 -324.487030
v 552.173035 871.538452 -336.596161
v 562.713806 868.060059 -321.860657
v 568.323914 881.688843 -321.945038
v 557.133728 885.381592 -337.588531
v 503.108582 1007.354248 -287.934692
v 483.659363 1018.927979 -269.545105
v 509.497498 1010.401306 -233.425446
v 530.539001 998.302307 -249.588989
vn 0.4328 -0.8715 0.2305
vn -0.3666 0.8755 -0.3149
vn -0.4327 0.8717 -0.2301
vn -0.4457 -0.3041 0.8419
vn 0.3957 0.8437 0.3627
vn -0.6586 -0.5336 -0.5306
vn -0.4087 0.8822 -0.2338
vn 0.8170 0.4467 0.3647
vn -0.7846 -0.1254 -0.6072
vn 0.5148 -0.8538 0.0772
vn -0.7883 -0.3578 -0.5006
vn 0.8519 0.4015 0.3363
vn -0.7831 -0.3939 -0.4813
vn 0.4752 -0.8749 0.0937
vn 0.7582 0.5236 0.3885
vn 0.4810 -0.8730 0.0800
vn -0.4017 0.8818 -0.2471
vn 0.8715 0.3669 0.3252
vn 0.7683 0.5721 0.2870
vn 0.4269 -0.8823 0.1981
vn -0.7129 -0.5333 -0.4553
vn 0.7817 0.5409 0.3103
vn -0.6851 -0.5630 -0.4623
vn -0.6158 -0.5141 -0.5971
vn 0.5497 0.7795 0.3003
vn -0.8082 -0.0104 -0.5888
vn 0.7144 0.4290 0.5528
vn -0.7246 0.4687 0.5052
vn -0.4356 0.8819 -0.1804
vn -0.7638 -0.5154 -0.3885
vn -0.4488 0.8805 -0.1526
vn 0.8110 0.4199 0.4074
vn -0.7613 -0.5194 -0.3881
vn -0.8136 -0.4154 -0.4068
vn 0.7571 0.5002 0.4202
vn 0.1552 -0.7768 0.6104
vn 0.8089 0.4241 0.4072
vn 0.7579 0.5260 0.3860
vn -0.8137 -0.4129 -0.4091
vn 0.4356 -0.8819 0.1804
vn 0.0733 0.5702 -0.8182
vn -0.6030 -0.6238 -0.4973
vn 0.9188 0.2854 0.2727
vn 0.0908 0.5507 -0.8297
vn 0.7175 0.6888 0.1040
vn -0.8159 -0.4395 -0.3756
vn -0.6155 0.6353 0.4664
vn 0.6155 -0.6353 -0.4664
vn -0.2111 0.8130 -0.5427
vn 0.9040 0.3090 0.2956
vn -0.6313 -0.6082 -0.4812
vn 0.1381 -0.7645 0.6297
vn 0.6155 -0.5655 -0.5489
vn 0.8993 0.3159 0.3023
vn -0.6398 -0.6033 -0.4762
vn 0.3482 -0.8727 0.3423
vn 0.0337 0.6125 -0.7898
vn -0.7477 -0.1865 -0.6373
vn 0.6059 -0.4717 -0.6406
vn -0.5899 0.7626 0.2656
vn 0.8069 -0.2788 0.5208
vn -0.4518 0.8603 -0.2362
vn -0.8023 0.2905 -0.5214
vn -0.3454 -0.5513 0.7594
vn -0.4146 0.8742 0.2529
vn 0.1331 -0.8392 -0.5272
vn -0.1789 0.9230 0.3407
vn 0.4282 0.6338 0.6442
vn -0.3245 -0.1534 -0.9333
vn 0.6894 -0.6561 0.3070
vn -0.5164 0.3301 -0.7901
vn 0.6501 -0.2403 0.7209
vn -0.5237 0.2909 -0.8007
vn 0.3020 -0.8623 -0.4065
vn 0.5547 -0.1338 0.8212
vn 0.3115 -0.8506 -0.4236
vn -0.1662 0.9265 0.3376
vn 0.6689 -0.2504 0.6998
vn 0.6131 -0.0426 0.7889
vn 0.2102 -0.9072 -0.3645
vn -0.4857 0.1497 -0.8612
vn 0.5976 -0.0590 0.7996
vn -0.4606 0.1223 -0.8791
vn -0.1232 -0.5777 -0.8069
vn -0.0057 0.8981 0.4398
vn -0.3163 -0.5917 -0.7415
vn 0.0112 0.8197 0.5726
vn -0.9529 -0.2305 0.1970
vn -0.2258 0.8996 0.3739
vn -0.5589 0.1417 -0.8170
vn -0.2500 0.8870 0.3882
vn 0.5837 -0.2387 0.7761
vn -0.5572 0.1378 -0.8188
vn -0.5859 0.2426 -0.7733
vn 0.5375 -0.1689 0.8262
vn -0.2042 -0.9753 -0.0842
vn 0.5823 -0.2349 0.7783
vn 0.5557 -0.1305 0.8211
vn -0.5847 0.2459 -0.7731
vn 0.2258 -0.8996 -0.3739
vn 0.4803 0.8660 -0.1392
vn -0.3777 0.0692 -0.9233
vn 0.7266 -0.2953 0.6204
vn 0.4991 0.8524 -0.1558
vn 0.6595 0.1680 0.7327
vn -0.6039 0.2078 -0.7695
vn -0.6950 0.4064 0.5931
vn 0.6950 -0.4064 -0.5931
vn 0.1279 0.9818 0.1403
vn 0.7055 -0.2864 0.6482
vn -0.4085 0.0812 -0.9091
vn -0.2268 -0.9716 -0.0671
vn 0.7381 -0.3075 -0.6006
vn 0.6991 -0.2837 0.6564
vn -0.4179 0.0849 -0.9045
vn 0.0773 -0.9566 -0.2811
vn 0.4364 0.8940 -0.1011
vn -0.4037 0.5188 -0.7535
vn 0.7788 -0.1825 -0.6002
vn -0.5716 0.6070 0.5522
usemtl Matériau.012
s off
f 131//26 132//26 134//26 133//26
f 138//27 137//27 141//27 142//27
f 137//28 138//28 136//28 135//28
f 153//29 154//29 132//29 131//29
f 151//30 137//30 135//30 153//30
f 152//31 134//31 132//31 154//31
f 142//32 141//32 145//32 146//32
f 151//33 133//33 140//33 155//33
f 152//34 138//34 142//34 156//34
f 133//35 134//35 139//35 140//35
f 158//36 146//36 150//36 160//36
f 155//37 140//37 144//37 157//37
f 156//38 142//38 146//38 158//38
f 140//39 139//39 143//39 144//39
f 149//40 159//40 163//40 166//40
f 144//41 143//41 147//41 148//41
f 146//42 145//42 149//42 150//42
f 157//43 144//43 148//43 159//43
f 145//44 157//44 159//44 149//44
f 148//45 147//45 161//45 162//45
f 139//46 156//46 158//46 143//46
f 141//47 155//47 157//47 145//47
f 143//48 158//48 160//48 147//48
f 134//49 152//49 156//49 139//49
f 137//50 151//50 155//50 141//50
f 138//51 152//51 154//51 136//51
f 133//52 151//52 153//52 131//52
f 135//53 136//53 154//53 153//53
f 165//54 166//54 172//54 171//54
f 161//55 164//55 170//55 167//55
f 150//56 149//56 166//56 165//56
f 159//57 148//57 162//57 163//57
f 147//58 160//58 164//58 161//58
f 160//59 150//59 165//59 164//59
f 172//60 169//60 180//60 179//60
f 168//61 167//61 173//61 174//61
f 163//62 162//62 168//62 169//62
f 166//63 163//63 169//63 172//63
f 164//64 165//64 171//64 170//64
f 162//65 161//65 167//65 168//65
f 176//66 175//66 183//66 184//66
f 167//67 170//67 176//67 173//67
f 169//68 168//68 174//68 175//68
f 170//69 169//69 175//69 176//69
f 179//70 180//70 192//70 191//70
f 170//71 171//71 178//71 177//71
f 171//72 172//72 179//72 178//72
f 169//73 170//73 177//73 180//73
f 184//74 183//74 187//74 188//74
f 175//75 174//75 182//75 183//75
f 173//76 176//76 184//76 181//76
f 174//77 173//77 181//77 182//77
f 186//78 185//78 188//78 187//78
f 183//79 182//79 186//79 187//79
f 181//80 184//80 188//80 185//80
f 182//81 181//81 185//81 186//81
f 192//82 189//82 190//82 191//82
f 177//83 178//83 190//83 189//83
f 180//84 177//84 189//84 192//84
f 178//85 179//85 191//85 190//85
f 193//86 194//86 196//86 195//86
f 200//87 199//87 203//87 204//87
f 199//88 200//88 198//88 197//88
f 215//89 216//89 194//89 193//89
f 213//90 199//90 197//90 215//90
f 214//91 196//91 194//91 216//91
f 204//92 203//92 207//92 208//92
f 213//93 195//93 202//93 217//93
f 214//94 200//94 204//94 218//94
f 195//95 196//95 201//95 202//95
f 220//96 208//96 212//96 222//96
f 217//97 202//97 206//97 219//97
f 218//98 204//98 208//98 220//98
f 202//99 201//99 205//99 206//99
f 211//100 221//100 225//100 228//100
f 206//101 205//101 209//101 210//101
f 208//102 207//102 211//102 212//102
f 219//103 206//103 210//103 221//103
f 207//104 219//104 221//104 211//104
f 210//105 209//105 223//105 224//105
f 201//106 218//106 220//106 205//106
f 203//107 217//107 219//107 207//107
f 205//108 220//108 222//108 209//108
f 196//109 214//109 218//109 201//109
f 199//110 213//110 217//110 203//110
f 200//111 214//111 216//111 198//111
f 195//112 213//112 215//112 193//112
f 197//113 198//113 216//113 215//113
f 227//114 228//114 234//114 233//114
f 223//115 226//115 232//115 229//115
f 212//116 211//116 228//116 227//116
f 221//117 210//117 224//117 225//117
f 209//118 222//118 226//118 223//118
f 222//119 212//119 227//119 226//119
f 234//120 231//120 242//120 241//120
f 230//121 229//121 235//121 236//121
f 225//122 224//122 230//122 231//122
f 228//123 225//123 231//123 234//123
f 226//124 227//124 233//124 232//124
f 224//125 223//125 229//125 230//125
f 238//126 237//126 245//126 246//126
f 229//127 232//127 238//127 235//127
f 231//128 230//128 236//128 237//128
f 232//129 231//129 237//129 238//129
f 241//130 242//130 254//130 253//130
f 232//131 233//131 240//131 239//131
f 233//132 234//132 241//132 240//132
f 231//133 232//133 239//133 242//133
f 246//134 245//134 249//134 250//134
f 237//135 236//135 244//135 245//135
f 235//136 238//136 246//136 243//136
f 236//137 235//137 243//137 244//137
f 248//138 247//138 250//138 249//138
f 245//139 244//139 248//139 249//139
f 243//140 246//140 250//140 247//140
f 244//141 243//141 247//141 248//141
f 254//142 251//142 252//142 253//142
f 239//143 240//143 252//143 251//143
f 242//144 239//144 251//144 254//144
f 240//145 241//145 253//145 252//145
