# Blender v2.91.2 OBJ File: 'camionnete02.blend'
# www.blender.org
mtllib arme_000189.mtl
o Cube.046_Cube.010
v 181.959290 215.803329 -1206.489990
v 118.682312 7.195908 -1173.961670
v 238.907776 166.239822 -1413.563477
v 175.630676 -42.367523 -1381.035156
v -21.343460 266.847778 -1274.618896
v -84.620514 58.240433 -1242.090576
v 35.604996 217.284378 -1481.692383
v -27.672073 8.676956 -1449.164062
v 103.552597 284.042358 -921.390808
v 40.275558 75.435013 -888.862305
v -163.027191 126.479507 -956.991272
v -99.750122 335.086914 -989.519714
v 68.068466 314.924988 -792.364563
v 4.791382 106.317642 -759.836182
v -198.511398 157.362167 -827.965149
v -135.234344 365.969543 -860.493591
v 47.105957 333.169128 -716.141724
v 4.735672 178.338181 -705.164185
v -198.567139 229.382736 -773.293152
v -156.196823 384.213684 -784.270691
v 115.785522 273.395813 -965.871399
v 52.508484 64.788452 -933.343079
v -87.517288 324.440369 -1034.000488
v -150.794342 115.832962 -1001.471985
v 218.803162 183.737289 -1340.460205
v 155.526138 -24.870102 -1307.931885
v 15.500412 234.781784 -1408.589111
v -47.776596 26.174423 -1376.060547
v 137.256393 191.762100 -1447.627930
v 73.979279 -16.845322 -1415.099609
v 80.307983 241.325607 -1240.554443
v 17.030876 32.718155 -1208.026123
v 1.901230 309.564636 -955.455261
v -61.375816 100.957230 -922.926758
v -33.582932 340.447327 -826.429138
v -88.592209 141.490219 -782.223755
v -54.545395 358.691406 -750.206238
v -88.629761 190.053879 -745.358337
v -49.142944 90.310684 -967.407471
v 14.134125 298.918091 -999.935974
v 53.874725 0.652115 -1341.996338
v 117.151840 209.259567 -1374.524658
v 188.082123 179.000961 -1430.595703
v 67.856567 19.957016 -1190.993896
v -10.550140 88.196121 -905.894592
v -54.320305 132.885361 -770.738831
v -54.357864 181.448990 -733.873352
v 64.959808 286.156921 -982.903625
v 167.977509 196.498398 -1357.492432
v 124.805023 -29.606430 -1398.067383
v 131.133621 228.564438 -1223.522461
v 52.726913 296.803467 -938.423035
v 17.242744 327.686157 -809.396790
v -3.719727 345.930237 -733.173950
v 1.682762 77.549576 -950.375305
v 104.700409 -12.108978 -1324.964111
v -10.164986 38.490677 -944.284790
v -60.990692 51.251831 -961.317017
v 92.852615 -51.167862 -1318.873779
v 42.026985 -38.406738 -1335.905762
v 5.183121 -6.340714 -1201.935547
v 56.008850 -19.101852 -1184.903320
v 276.582001 112.980942 -1265.302734
v 260.290039 127.160202 -1206.062500
v 232.309692 34.916138 -1191.678711
v 248.601532 20.736923 -1250.919189
v 320.514648 101.950546 -1250.580566
v 304.222626 116.129807 -1191.340332
v 276.242218 23.885742 -1176.956543
v 292.534180 9.706467 -1236.196777
v 387.745605 85.070450 -1228.050781
v 371.453644 99.249680 -1168.810547
v 343.473175 7.005646 -1154.426758
v 359.765076 -7.173599 -1213.667236
v 431.007874 74.208267 -1213.553223
v 414.715881 88.387527 -1154.312988
v 386.735565 -3.856522 -1139.929199
v 403.027466 -18.035751 -1199.169434
v 311.891815 -192.431595 -2078.343018
v 261.066101 -179.670486 -2095.375488
v 324.343048 28.936996 -2127.903809
v 375.168884 16.175827 -2110.871582
vn 0.9224 -0.2316 0.3091
vn 0.2584 -0.2249 -0.9395
vn -0.9224 0.2316 -0.3091
vn 0.2871 0.9465 -0.1476
vn -0.2871 -0.9465 0.1476
vn -0.3862 -0.5579 0.7345
vn -0.3670 -0.9177 0.1524
vn -0.3639 0.1357 0.9215
vn -0.9229 0.2314 -0.3078
vn 0.9229 -0.2314 0.3078
vn 0.6005 -0.2979 -0.7421
vn -0.2495 0.1061 0.9625
vn -0.2574 -0.9473 0.1910
vn -0.2968 0.0873 0.9510
vn -0.3035 -0.9296 0.2091
vn -0.2584 0.2249 0.9395
vn 0.1254 0.1156 0.9853
vn 0.2695 -0.9171 0.2936
vn 0.7484 0.6616 0.0475
usemtl Matériau.011
s off
f 25//1 26//1 4//1 3//1
f 29//2 30//2 8//2 7//2
f 27//3 28//3 6//3 5//3
f 22//1 21//1 9//1 10//1
f 42//4 27//4 5//4 31//4
f 56//5 26//5 2//5 44//5
f 10//1 9//1 13//1 14//1
f 55//5 22//5 10//5 45//5
f 23//3 24//3 11//3 12//3
f 46//6 14//6 18//6 47//6
f 45//7 10//7 14//7 46//7
f 12//3 11//3 15//3 16//3
f 33//4 12//4 16//4 35//4
f 54//8 47//8 18//8 17//8
f 16//9 15//9 19//9 20//9
f 14//10 13//10 17//10 18//10
f 5//3 6//3 24//3 23//3
f 44//5 2//5 22//5 55//5
f 31//4 5//4 23//4 40//4
f 2//1 1//1 21//1 22//1
f 50//5 4//5 26//5 56//5
f 29//4 7//4 27//4 42//4
f 7//3 8//3 28//3 27//3
f 26//11 25//11 63//11 66//11
f 43//4 29//4 42//4 49//4
f 8//5 30//5 41//5 28//5
f 51//4 31//4 40//4 48//4
f 6//5 32//5 39//5 24//5
f 20//12 19//12 38//12 37//12
f 52//4 33//4 35//4 53//4
f 11//13 34//13 36//13 15//13
f 15//6 36//6 38//6 19//6
f 24//5 39//5 34//5 11//5
f 28//5 41//5 32//5 6//5
f 49//4 42//4 31//4 51//4
f 30//3 29//3 81//3 80//3
f 3//2 4//2 50//2 43//2
f 25//4 49//4 51//4 1//4
f 9//4 52//4 53//4 13//4
f 1//4 51//4 48//4 21//4
f 3//4 43//4 49//4 25//4
f 30//5 50//5 56//5 41//5
f 32//3 41//3 60//3 61//3
f 37//14 38//14 47//14 54//14
f 34//15 45//15 46//15 36//15
f 36//6 46//6 47//6 38//6
f 39//5 55//5 45//5 34//5
f 55//16 39//16 58//16 57//16
f 61//5 62//5 57//5 58//5
f 60//5 59//5 62//5 61//5
f 39//3 32//3 61//3 58//3
f 44//1 55//1 57//1 62//1
f 41//2 56//2 59//2 60//2
f 56//1 44//1 62//1 59//1
f 66//2 63//2 67//2 70//2
f 1//17 2//17 65//17 64//17
f 2//18 26//18 66//18 65//18
f 25//19 1//19 64//19 63//19
f 69//5 70//5 74//5 73//5
f 64//16 65//16 69//16 68//16
f 65//5 66//5 70//5 69//5
f 63//4 64//4 68//4 67//4
f 73//5 74//5 78//5 77//5
f 67//4 68//4 72//4 71//4
f 70//2 67//2 71//2 74//2
f 68//16 69//16 73//16 72//16
f 76//1 77//1 78//1 75//1
f 71//4 72//4 76//4 75//4
f 74//2 71//2 75//2 78//2
f 82//2 79//2 80//2 81//2
f 50//5 30//5 80//5 79//5
f 43//1 50//1 79//1 82//1
f 29//4 43//4 82//4 81//4
o Cube.048_Cube.024
v -489.523926 553.465454 147.205154
v -679.801758 419.967224 81.098114
v -370.125824 480.925995 -49.974159
v -560.214966 347.006409 -116.127541
v -595.876892 691.187012 -40.016975
v -693.437683 622.738708 -73.911934
v -534.658203 653.994019 -141.116333
v -631.733521 585.599548 -174.444824
v -388.769531 337.540527 -477.703461
v -272.954254 376.107605 -444.206451
v -302.599701 494.448090 -477.960297
v -418.414886 455.880981 -511.457367
v -306.621460 319.138123 -677.214355
v -221.471527 347.493469 -652.586548
v -243.267456 434.500061 -677.403259
v -328.417419 406.144653 -702.030945
v -253.814819 310.145294 -802.100037
v -191.588257 330.867035 -784.102478
v -207.516479 394.450195 -802.238220
v -269.742920 373.728546 -820.235840
v -417.789246 584.422852 -94.445747
v -618.926270 443.129303 -163.413788
v -544.634644 661.521362 114.839432
v -746.637939 519.796631 44.658707
v -282.369141 435.447449 -465.238129
v -405.321167 394.503784 -500.799286
v -223.547363 388.437653 -681.715332
v -313.944550 358.334961 -707.860657
v -188.707947 358.353302 -817.789185
v -254.768860 336.354614 -836.896057
v -222.071838 289.716858 -888.329834
v -159.845459 310.438538 -870.332092
v -155.086365 341.514618 -914.647461
v -221.147430 319.515930 -933.754150
v -236.410278 356.338074 -915.460144
v -174.183777 377.059753 -897.462585
v -199.570404 276.284241 -950.661987
v -137.343933 297.005920 -932.664307
v -132.585144 328.082062 -976.979431
v -198.645935 306.083435 -996.086365
v -213.908813 342.905548 -977.792175
v -151.682373 363.627258 -959.794495
v -168.997437 248.877991 -979.022400
v -128.945068 262.215637 -967.437927
v -125.881897 282.217957 -995.961731
v -168.402405 268.058411 -1008.259949
v -193.339874 332.518860 -1044.868530
v -208.602661 369.341003 -1026.574585
v -146.376221 390.062714 -1008.577087
v -127.278870 354.517578 -1025.761841
v -149.109070 229.101898 -998.066956
v -122.106934 238.093719 -990.257141
v -120.041809 251.578735 -1009.487000
v -148.707825 242.032745 -1017.778137
v -131.489197 218.319763 -1025.686890
v -114.609741 223.940704 -1020.804993
v -113.318848 232.370361 -1032.825806
v -131.238342 226.402954 -1038.008789
v -182.291382 356.509949 -1064.978271
v -192.439850 380.993408 -1052.814331
v -151.064758 394.771545 -1040.847534
v -138.366577 371.137085 -1052.274048
v -298.201233 438.689941 471.240997
v -372.750061 248.928589 341.507965
v -140.970032 498.514191 293.337158
v -221.018951 310.758972 163.878510
v -452.074860 543.775513 296.283081
v -490.298096 446.479462 229.765350
v -363.183380 577.034058 204.764069
v -412.501373 478.181641 138.689713
v -172.285950 340.812531 -110.413948
v -93.022888 267.510315 -47.566986
v 3.480347 317.534424 -108.391060
v -72.899658 390.093872 -171.375793
v -171.270569 189.812866 -265.622162
v -114.453979 132.379639 -219.422821
v -41.382996 168.612366 -264.243286
v -98.199463 226.045563 -310.442657
v -167.790955 94.832031 -362.742859
v -126.270142 52.860596 -328.980896
v -72.870850 79.338989 -361.735077
v -114.391602 121.310486 -395.496979
v -222.972595 566.776917 260.197144
v -321.185730 368.340393 123.343491
v -403.124298 504.154846 449.646698
v -482.267059 302.699738 311.919098
v -43.515442 281.102478 -80.163750
v -125.555603 364.033081 -146.873138
v -78.128296 135.829468 -254.031525
v -138.446106 196.801941 -303.077789
v -101.114563 46.232605 -363.936005
v -145.194031 90.790405 -399.778320
v -180.346863 29.134094 -428.974457
v -138.825989 -12.837280 -395.212402
v -110.175476 -23.937256 -440.024933
v -154.254822 20.620483 -475.867279
v -123.989807 51.827942 -470.070831
v -82.468994 9.856506 -436.308899
v -188.321350 -17.564270 -477.220795
v -146.800659 -59.535583 -443.458893
v -118.150085 -70.635620 -488.271271
v -162.229431 -26.077759 -524.113647
v -131.964233 5.129639 -518.317078
v -90.443420 -36.841797 -484.555206
v -205.019897 -63.114746 -488.901337
v -178.294861 -90.129761 -467.170319
v -159.853821 -97.274353 -496.014069
v -188.225708 -68.594482 -519.084290
v -137.966919 -40.691162 -572.118835
v -107.701782 -9.483826 -566.322205
v -66.180969 -51.455261 -532.560486
v -93.887512 -85.249146 -536.276489
v -217.740479 -93.549561 -496.726654
v -199.723297 -111.762451 -482.076141
v -187.290955 -116.579346 -501.522125
v -206.418396 -97.243958 -517.075378
v -223.204559 -122.428894 -514.774597
v -211.941681 -133.813843 -505.616241
v -204.169983 -136.824707 -517.771973
v -216.126892 -124.738159 -527.494568
v -112.653137 -50.584778 -591.181030
v -92.529358 -29.834473 -587.326904
v -64.921753 -57.741821 -564.877991
v -83.344116 -80.211792 -567.348938
vn 0.3689 -0.7770 0.5101
vn -0.2494 0.8192 -0.5165
vn -0.3691 0.7762 -0.5112
vn -0.3785 0.0831 0.9218
vn 0.5130 0.8584 -0.0052
vn -0.7646 -0.5953 -0.2468
vn -0.2080 0.9180 -0.3378
vn 0.9123 0.3806 0.1511
vn -0.8526 -0.1612 -0.4971
vn 0.4026 -0.8730 0.2751
vn -0.8997 -0.2100 -0.3827
vn 0.9541 0.2141 0.2096
vn -0.9012 -0.2434 -0.3585
vn 0.2590 -0.9462 0.1939
vn 0.8985 0.3617 0.2487
vn 0.2636 -0.9477 0.1797
vn -0.2028 0.9140 -0.3513
vn 0.9636 0.1746 0.2026
vn 0.9090 0.3923 0.1405
vn 0.2217 -0.9274 0.3013
vn -0.8642 -0.3913 -0.3163
vn 0.9170 0.3621 0.1674
vn -0.8452 -0.4277 -0.3206
vn -0.7546 -0.5414 -0.3707
vn 0.6766 0.7357 0.0306
vn -0.8650 -0.1155 -0.4883
vn 0.8086 0.5034 0.3045
vn -0.6164 0.7102 0.3400
vn -0.2283 0.9315 -0.2832
vn -0.9019 -0.3525 -0.2496
vn -0.2384 0.9372 -0.2546
vn 0.9266 0.2515 0.2796
vn -0.9004 -0.3569 -0.2488
vn -0.9280 -0.2465 -0.2795
vn 0.8952 0.3438 0.2837
vn 0.0287 -0.7032 0.7104
vn 0.9255 0.2560 0.2789
vn 0.8984 0.3638 0.2459
vn -0.9277 -0.2443 -0.2822
vn 0.2283 -0.9315 0.2832
vn 0.1203 0.4200 -0.8995
vn -0.7843 -0.5113 -0.3514
vn 0.9841 0.0776 0.1601
vn 0.1313 0.3954 -0.9091
vn 0.8684 0.4928 -0.0543
vn -0.9326 -0.2649 -0.2450
vn -0.3922 0.8260 0.4049
vn 0.3922 -0.8260 -0.4049
vn -0.0667 0.7609 -0.6454
vn 0.9778 0.1069 0.1800
vn -0.8061 -0.4871 -0.3360
vn 0.0172 -0.6845 0.7288
vn 0.4002 -0.7700 -0.4970
vn 0.9757 0.1157 0.1859
vn -0.8126 -0.4796 -0.3312
vn 0.1634 -0.8793 0.4475
vn 0.0952 0.4743 -0.8752
vn -0.8341 -0.0741 -0.5467
vn 0.4036 -0.6897 -0.6012
vn -0.3584 0.9150 0.1856
vn 0.7050 -0.5744 0.4161
vn 0.1558 0.9272 -0.3406
vn -0.6893 0.5909 -0.4191
vn -0.4157 -0.3963 0.8186
vn -0.0527 0.9594 0.2769
vn -0.2640 -0.8184 -0.5104
vn 0.7712 0.3363 -0.5404
vn 0.9240 0.3819 0.0188
vn -0.7312 -0.2507 -0.6345
vn 0.2476 -0.9088 0.3358
vn -0.5221 0.5889 -0.6169
vn 0.5198 -0.7028 0.4857
vn -0.5528 0.5891 -0.5894
vn -0.7801 -0.4460 0.4388
vn 0.6577 -0.5913 0.4667
vn -0.7914 -0.4510 0.4127
vn 0.7722 0.3243 -0.5464
vn 0.5019 -0.7218 0.4766
vn 0.6848 -0.6311 0.3644
vn -0.7807 -0.3633 0.5084
vn -0.6771 0.5274 -0.5132
vn 0.6865 -0.6169 0.3849
vn -0.7050 0.4982 -0.5048
vn -0.6258 -0.7137 -0.3146
vn 0.5705 0.7990 -0.1898
vn -0.6143 -0.4171 -0.6699
vn 0.3583 0.7360 0.5744
vn -0.9326 0.1384 0.3334
vn 0.7832 0.3771 -0.4944
vn -0.6502 0.5968 -0.4702
vn 0.7864 0.3982 -0.4722
vn 0.5653 -0.6378 0.5231
vn -0.6538 0.5944 -0.4682
vn -0.5610 0.6406 -0.5243
vn 0.6414 -0.5810 0.5010
vn -0.6160 0.0239 0.7874
vn 0.5691 -0.6358 0.5214
vn 0.6595 -0.5917 0.4637
vn -0.5590 0.6400 -0.5271
vn -0.7832 -0.3771 0.4944
vn 0.3917 -0.3095 -0.8665
vn -0.7642 0.4082 -0.4993
vn 0.4157 -0.7845 0.4601
vn 0.3719 -0.3300 -0.8676
vn 0.7558 -0.6366 0.1533
vn -0.5782 0.6519 -0.4907
vn 0.6617 0.7419 0.1086
vn -0.6617 -0.7419 -0.1086
vn 0.6604 0.0507 -0.7492
vn 0.4421 -0.7629 0.4716
vn -0.7482 0.4403 -0.4963
vn -0.6016 0.0464 0.7975
vn -0.6108 -0.7659 -0.2008
vn 0.4499 -0.7563 0.4750
vn -0.7431 0.4501 -0.4952
vn -0.7483 -0.2440 0.6169
vn 0.4353 -0.2622 -0.8613
vn -0.3801 0.5118 -0.7704
vn -0.5394 -0.7829 -0.3099
vn 0.7461 0.6584 -0.0990
usemtl Matériau.012
s off
f 83//20 84//20 86//20 85//20
f 90//21 89//21 93//21 94//21
f 89//22 90//22 88//22 87//22
f 105//23 106//23 84//23 83//23
f 103//24 89//24 87//24 105//24
f 104//25 86//25 84//25 106//25
f 94//26 93//26 97//26 98//26
f 103//27 85//27 92//27 107//27
f 104//28 90//28 94//28 108//28
f 85//29 86//29 91//29 92//29
f 110//30 98//30 102//30 112//30
f 107//31 92//31 96//31 109//31
f 108//32 94//32 98//32 110//32
f 92//33 91//33 95//33 96//33
f 101//34 111//34 115//34 118//34
f 96//35 95//35 99//35 100//35
f 98//36 97//36 101//36 102//36
f 109//37 96//37 100//37 111//37
f 97//38 109//38 111//38 101//38
f 100//39 99//39 113//39 114//39
f 91//40 108//40 110//40 95//40
f 93//41 107//41 109//41 97//41
f 95//42 110//42 112//42 99//42
f 86//43 104//43 108//43 91//43
f 89//44 103//44 107//44 93//44
f 90//45 104//45 106//45 88//45
f 85//46 103//46 105//46 83//46
f 87//47 88//47 106//47 105//47
f 117//48 118//48 124//48 123//48
f 113//49 116//49 122//49 119//49
f 102//50 101//50 118//50 117//50
f 111//51 100//51 114//51 115//51
f 99//52 112//52 116//52 113//52
f 112//53 102//53 117//53 116//53
f 124//54 121//54 132//54 131//54
f 120//55 119//55 125//55 126//55
f 115//56 114//56 120//56 121//56
f 118//57 115//57 121//57 124//57
f 116//58 117//58 123//58 122//58
f 114//59 113//59 119//59 120//59
f 128//60 127//60 135//60 136//60
f 119//61 122//61 128//61 125//61
f 121//62 120//62 126//62 127//62
f 122//63 121//63 127//63 128//63
f 131//64 132//64 144//64 143//64
f 122//65 123//65 130//65 129//65
f 123//66 124//66 131//66 130//66
f 121//67 122//67 129//67 132//67
f 136//68 135//68 139//68 140//68
f 127//69 126//69 134//69 135//69
f 125//70 128//70 136//70 133//70
f 126//71 125//71 133//71 134//71
f 138//72 137//72 140//72 139//72
f 135//73 134//73 138//73 139//73
f 133//74 136//74 140//74 137//74
f 134//75 133//75 137//75 138//75
f 144//76 141//76 142//76 143//76
f 129//77 130//77 142//77 141//77
f 132//78 129//78 141//78 144//78
f 130//79 131//79 143//79 142//79
f 145//80 146//80 148//80 147//80
f 152//81 151//81 155//81 156//81
f 151//82 152//82 150//82 149//82
f 167//83 168//83 146//83 145//83
f 165//84 151//84 149//84 167//84
f 166//85 148//85 146//85 168//85
f 156//86 155//86 159//86 160//86
f 165//87 147//87 154//87 169//87
f 166//88 152//88 156//88 170//88
f 147//89 148//89 153//89 154//89
f 172//90 160//90 164//90 174//90
f 169//91 154//91 158//91 171//91
f 170//92 156//92 160//92 172//92
f 154//93 153//93 157//93 158//93
f 163//94 173//94 177//94 180//94
f 158//95 157//95 161//95 162//95
f 160//96 159//96 163//96 164//96
f 171//97 158//97 162//97 173//97
f 159//98 171//98 173//98 163//98
f 162//99 161//99 175//99 176//99
f 153//100 170//100 172//100 157//100
f 155//101 169//101 171//101 159//101
f 157//102 172//102 174//102 161//102
f 148//103 166//103 170//103 153//103
f 151//104 165//104 169//104 155//104
f 152//105 166//105 168//105 150//105
f 147//106 165//106 167//106 145//106
f 149//107 150//107 168//107 167//107
f 179//108 180//108 186//108 185//108
f 175//109 178//109 184//109 181//109
f 164//110 163//110 180//110 179//110
f 173//111 162//111 176//111 177//111
f 161//112 174//112 178//112 175//112
f 174//113 164//113 179//113 178//113
f 186//114 183//114 194//114 193//114
f 182//115 181//115 187//115 188//115
f 177//116 176//116 182//116 183//116
f 180//117 177//117 183//117 186//117
f 178//118 179//118 185//118 184//118
f 176//119 175//119 181//119 182//119
f 190//120 189//120 197//120 198//120
f 181//121 184//121 190//121 187//121
f 183//122 182//122 188//122 189//122
f 184//123 183//123 189//123 190//123
f 193//124 194//124 206//124 205//124
f 184//125 185//125 192//125 191//125
f 185//126 186//126 193//126 192//126
f 183//127 184//127 191//127 194//127
f 198//128 197//128 201//128 202//128
f 189//129 188//129 196//129 197//129
f 187//130 190//130 198//130 195//130
f 188//131 187//131 195//131 196//131
f 200//132 199//132 202//132 201//132
f 197//133 196//133 200//133 201//133
f 195//134 198//134 202//134 199//134
f 196//135 195//135 199//135 200//135
f 206//136 203//136 204//136 205//136
f 191//137 192//137 204//137 203//137
f 194//138 191//138 203//138 206//138
f 192//139 193//139 205//139 204//139
