# Blender v2.91.2 OBJ File: 'camionnete02.blend'
# www.blender.org
mtllib arme_000062.mtl
o Cube.046_Cube.010
v 334.367126 706.752625 -1025.190063
v 323.541534 487.662933 -1046.676025
v 438.401154 720.619385 -1219.003662
v 427.575500 501.529724 -1240.489990
v 140.359863 726.413696 -1127.921387
v 129.534180 507.324036 -1149.407471
v 244.393814 740.280457 -1321.734863
v 233.568207 521.190796 -1343.221191
v 191.132965 687.660706 -758.347046
v 180.307312 468.571136 -779.833130
v -13.699991 488.232239 -882.564270
v -2.874348 707.321838 -861.078186
v 126.310104 679.020447 -637.582947
v 115.484436 459.930817 -659.069153
v -78.522903 479.591919 -761.800232
v -67.697250 698.681580 -740.314148
v 88.015640 673.916138 -566.241089
v 86.687988 515.385620 -593.712219
v -107.319382 535.046753 -696.443420
v -105.991730 693.577271 -668.972229
v 213.480148 690.639343 -799.979370
v 202.654495 471.549805 -821.465515
v 19.472805 710.300537 -902.710693
v 8.647135 491.210876 -924.196777
v 401.673889 715.723938 -1150.581543
v 390.848297 496.634338 -1172.067627
v 207.666595 735.385071 -1253.312500
v 196.840988 516.295410 -1274.798828
v 341.397461 730.449951 -1270.369385
v 330.571838 511.360229 -1291.855469
v 237.363541 716.583130 -1076.555664
v 226.537903 497.493439 -1098.041748
v 94.129303 697.491272 -809.712585
v 83.303650 478.401642 -831.198669
v 29.306427 688.851013 -688.948608
v 21.689754 477.991638 -695.609070
v -8.988031 683.746704 -617.606628
v 2.272234 515.385010 -651.538696
v 105.650803 481.380341 -872.831116
v 116.476471 700.469971 -851.345032
v 293.844604 506.464844 -1223.433350
v 304.670227 725.554504 -1201.947021
v 389.899323 725.534607 -1244.686279
v 275.039703 492.578217 -1072.358887
v 131.805466 473.486389 -805.515930
v 54.394665 474.677277 -678.291138
v 34.977139 512.070557 -634.220703
v 164.978302 695.554626 -825.662231
v 353.172089 720.639221 -1176.264404
v 379.073669 506.445007 -1266.172607
v 285.865326 711.667847 -1050.873047
v 142.631134 692.575989 -784.029907
v 77.808243 683.935730 -663.265747
v 39.513794 678.831421 -591.923828
v 154.152649 476.465088 -847.148315
v 342.346405 501.549591 -1197.750488
v 152.125717 435.443512 -851.171326
v 103.623871 440.358795 -876.854126
v 340.319458 460.528046 -1201.773438
v 291.817657 465.443329 -1227.456299
v 224.510895 456.471924 -1102.064697
v 273.012726 451.556641 -1076.381958
v 461.666931 643.828308 -1078.294922
v 431.904541 639.861267 -1022.848206
v 427.117676 542.982056 -1032.349121
v 456.879913 546.949158 -1087.796021
v 503.590881 639.579712 -1056.095459
v 473.828491 635.612610 -1000.648560
v 469.041565 538.733459 -1010.149536
v 498.803833 542.700500 -1065.596313
v 567.747925 633.077942 -1022.123047
v 537.985535 629.110901 -966.676086
v 533.198547 532.231689 -976.177002
v 562.960815 536.198792 -1031.624023
v 609.032166 628.894104 -1000.262146
v 579.269714 624.927002 -944.815308
v 574.482910 528.047913 -954.316223
v 604.245178 532.014954 -1009.763062
v 720.845337 552.000305 -1902.887207
v 672.343567 556.915527 -1928.569824
v 683.169067 776.005249 -1907.083740
v 731.671021 771.089905 -1881.400879
vn 0.8802 -0.0892 0.4661
vn 0.4720 0.0629 -0.8793
vn -0.8802 0.0892 -0.4661
vn 0.0491 0.9940 0.0975
vn -0.0491 -0.9940 -0.0975
vn -0.3503 -0.7847 0.5114
vn -0.1333 -0.9854 -0.1061
vn -0.5453 -0.1664 0.8216
vn -0.8809 0.0886 -0.4650
vn 0.8809 -0.0886 0.4650
vn 0.7803 0.0227 -0.6250
vn -0.4364 -0.1789 0.8818
vn -0.0285 -0.9984 -0.0493
vn -0.4742 -0.2043 0.8564
vn -0.0801 -0.9960 -0.0394
vn -0.4720 -0.0629 0.8793
vn -0.0876 -0.0929 0.9918
vn 0.4447 -0.8782 0.1759
vn 0.5267 0.7798 0.3385
usemtl Matériau.011
s off
f 25//1 26//1 4//1 3//1
f 29//2 30//2 8//2 7//2
f 27//3 28//3 6//3 5//3
f 22//1 21//1 9//1 10//1
f 42//4 27//4 5//4 31//4
f 56//5 26//5 2//5 44//5
f 10//1 9//1 13//1 14//1
f 55//5 22//5 10//5 45//5
f 23//3 24//3 11//3 12//3
f 46//6 14//6 18//6 47//6
f 45//7 10//7 14//7 46//7
f 12//3 11//3 15//3 16//3
f 33//4 12//4 16//4 35//4
f 54//8 47//8 18//8 17//8
f 16//9 15//9 19//9 20//9
f 14//10 13//10 17//10 18//10
f 5//3 6//3 24//3 23//3
f 44//5 2//5 22//5 55//5
f 31//4 5//4 23//4 40//4
f 2//1 1//1 21//1 22//1
f 50//5 4//5 26//5 56//5
f 29//4 7//4 27//4 42//4
f 7//3 8//3 28//3 27//3
f 26//11 25//11 63//11 66//11
f 43//4 29//4 42//4 49//4
f 8//5 30//5 41//5 28//5
f 51//4 31//4 40//4 48//4
f 6//5 32//5 39//5 24//5
f 20//12 19//12 38//12 37//12
f 52//4 33//4 35//4 53//4
f 11//13 34//13 36//13 15//13
f 15//6 36//6 38//6 19//6
f 24//5 39//5 34//5 11//5
f 28//5 41//5 32//5 6//5
f 49//4 42//4 31//4 51//4
f 30//3 29//3 81//3 80//3
f 3//2 4//2 50//2 43//2
f 25//4 49//4 51//4 1//4
f 9//4 52//4 53//4 13//4
f 1//4 51//4 48//4 21//4
f 3//4 43//4 49//4 25//4
f 30//5 50//5 56//5 41//5
f 32//3 41//3 60//3 61//3
f 37//14 38//14 47//14 54//14
f 34//15 45//15 46//15 36//15
f 36//6 46//6 47//6 38//6
f 39//5 55//5 45//5 34//5
f 55//16 39//16 58//16 57//16
f 61//5 62//5 57//5 58//5
f 60//5 59//5 62//5 61//5
f 39//3 32//3 61//3 58//3
f 44//1 55//1 57//1 62//1
f 41//2 56//2 59//2 60//2
f 56//1 44//1 62//1 59//1
f 66//2 63//2 67//2 70//2
f 1//17 2//17 65//17 64//17
f 2//18 26//18 66//18 65//18
f 25//19 1//19 64//19 63//19
f 69//5 70//5 74//5 73//5
f 64//16 65//16 69//16 68//16
f 65//5 66//5 70//5 69//5
f 63//4 64//4 68//4 67//4
f 73//5 74//5 78//5 77//5
f 67//4 68//4 72//4 71//4
f 70//2 67//2 71//2 74//2
f 68//16 69//16 73//16 72//16
f 76//1 77//1 78//1 75//1
f 71//4 72//4 76//4 75//4
f 74//2 71//2 75//2 78//2
f 82//2 79//2 80//2 81//2
f 50//5 30//5 80//5 79//5
f 43//1 50//1 79//1 82//1
f 29//4 43//4 82//4 81//4
o Cube.048_Cube.024
v -562.678589 450.326660 181.033752
v -723.742188 339.974548 38.631294
v -424.285492 496.831970 -11.533585
v -585.595154 387.248688 -153.057129
v -683.542236 644.669434 67.221680
v -766.124023 588.088806 -5.791985
v -612.584229 668.514038 -31.512970
v -695.035034 612.188477 -104.356544
v -368.925873 526.799927 -438.098053
v -275.281952 580.921875 -372.338898
v -328.539520 694.403137 -389.896545
v -422.183441 640.281250 -455.655670
v -250.565399 573.948853 -613.196106
v -181.716309 613.740479 -564.848450
v -220.872498 697.174377 -577.757202
v -289.721527 657.382751 -626.104980
v -175.828979 606.159241 -722.020691
v -125.514832 635.238464 -686.689087
v -154.129639 696.210938 -696.122559
v -204.443726 667.131714 -731.454468
v -487.478271 601.673645 -8.605087
v -658.454712 485.493469 -158.856110
v -634.431580 552.275879 195.821503
v -805.420410 435.123535 44.643799
v -296.086823 639.979126 -383.810425
v -395.501343 582.522034 -453.621918
v -189.270142 658.870605 -585.715454
v -262.361969 616.626892 -637.042419
v -124.009949 669.770569 -713.219482
v -177.424500 638.899353 -750.728577
v -124.951721 613.894348 -800.838257
v -74.637756 642.973511 -765.506470
v -70.399414 683.799011 -801.108948
v -123.813904 652.927795 -838.618042
v -151.253357 680.192749 -817.949341
v -100.939331 709.271973 -782.617554
v -88.947449 620.652344 -857.671997
v -38.633484 649.731628 -822.340088
v -34.395203 690.557007 -857.942627
v -87.809692 659.685852 -895.451721
v -115.249084 686.950745 -874.782959
v -64.935181 716.029968 -839.451111
v -47.677551 608.015076 -882.715881
v -15.292603 626.731995 -859.974487
v -12.564636 653.009460 -882.890076
v -46.945190 633.139099 -907.033020
v -81.031982 697.277649 -936.042603
v -108.471497 724.542542 -915.373901
v -58.157410 753.621826 -880.042175
v -27.617615 728.148804 -898.533508
v -20.210876 598.087952 -899.931580
v 1.622009 610.706421 -884.599792
v 3.461182 628.421936 -900.048950
v -19.717163 615.025940 -916.325500
v 4.267090 598.184814 -924.229736
v 17.915100 606.072815 -914.645813
v 19.064880 617.146973 -924.303162
v 4.575745 608.772949 -934.477783
v -73.288025 727.121643 -948.347412
v -91.533020 745.250427 -934.604492
v -58.078491 764.585571 -911.111938
v -37.772034 747.648254 -923.407288
v -299.329346 417.535095 487.147675
v -293.952606 282.334503 286.924164
v -153.120789 581.445190 376.766205
v -156.863708 448.951050 178.097931
v -463.554932 536.352478 331.447052
v -460.798096 467.031372 228.786865
v -388.639893 624.119873 279.170471
v -390.508850 552.460327 172.988571
v -20.131470 716.990967 -42.811913
v 79.515015 745.408936 30.662041
v 27.532104 856.658386 59.225395
v -71.180481 828.979370 -13.227638
v 83.888000 824.677307 -199.257111
v 157.894897 844.451538 -146.407898
v 120.362549 926.787964 -124.656898
v 46.355530 907.013672 -177.506104
v 149.796570 894.318298 -295.548859
v 203.879822 908.768982 -256.927277
v 176.451538 968.939270 -241.031891
v 122.368347 954.488647 -279.653320
v -258.976837 632.161438 355.951080
v -266.583862 487.704956 139.996490
v -417.828613 454.352997 468.090851
v -412.120575 310.820892 255.528900
v 60.638611 803.031372 41.659843
v -46.223511 774.478394 -34.651726
v 149.948242 894.053955 -148.789734
v 71.380798 873.061157 -204.895538
v 204.130310 950.568787 -269.227966
v 146.714233 935.227600 -310.229279
v 193.811096 930.212280 -370.614349
v 247.894287 944.662842 -331.992737
v 250.268860 995.621826 -350.694885
v 192.852905 980.280579 -391.696350
v 168.180603 998.133789 -360.136627
v 222.263855 1012.584412 -321.515045
v 224.906372 957.193054 -424.253510
v 278.989624 971.643616 -385.632111
v 281.364197 1022.602600 -404.334167
v 223.948181 1007.261414 -445.335571
v 199.275818 1025.114502 -413.775726
v 253.358948 1039.565186 -375.154114
v 263.420532 954.597412 -455.876984
v 298.231628 963.898682 -431.018066
v 299.760071 996.698669 -443.055847
v 262.803955 986.824219 -469.446564
v 228.315613 1057.019775 -470.069244
v 203.643250 1074.872803 -438.509369
v 257.726501 1089.323486 -399.887909
v 285.731628 1072.360840 -429.067596
v 288.958313 951.654907 -477.978912
v 312.426941 957.925537 -461.219757
v 313.457397 980.038452 -469.335480
v 288.542542 973.381287 -487.127350
v 311.212036 960.612549 -502.760468
v 325.882507 964.532471 -492.283966
v 326.526672 978.355286 -497.357086
v 310.952209 974.193848 -508.479034
v 235.875427 1089.315430 -471.437286
v 219.470520 1101.186279 -450.452911
v 255.431091 1110.794678 -424.772766
v 274.052063 1099.515991 -444.174896
vn 0.4772 -0.8689 0.1313
vn -0.3804 0.8957 -0.2304
vn -0.4772 0.8687 -0.1325
vn -0.4255 -0.4160 0.8037
vn 0.3544 0.8183 0.4525
vn -0.6349 -0.5067 -0.5832
vn -0.3787 0.9028 -0.2037
vn 0.7910 0.4282 0.4370
vn -0.7600 -0.0771 -0.6453
vn 0.5345 -0.8451 0.0100
vn -0.7292 -0.3070 -0.6116
vn 0.8106 0.3632 0.4594
vn -0.7262 -0.3446 -0.5949
vn 0.4602 -0.8848 0.0728
vn 0.7120 0.4817 0.5109
vn 0.4675 -0.8819 0.0601
vn -0.3703 0.9034 -0.2162
vn 0.8312 0.3295 0.4477
vn 0.7333 0.5383 0.4154
vn 0.4007 -0.9002 0.1703
vn -0.6596 -0.4865 -0.5730
vn 0.7440 0.5051 0.4375
vn -0.6312 -0.5157 -0.5793
vn -0.5787 -0.4664 -0.6690
vn 0.5122 0.7608 0.3985
vn -0.8126 0.0164 -0.5826
vn 0.6946 0.4022 0.5964
vn -0.7448 0.3736 0.5529
vn -0.4113 0.8984 -0.1537
vn -0.7175 -0.4735 -0.5108
vn -0.4275 0.8949 -0.1278
vn 0.7622 0.3763 0.5268
vn -0.7151 -0.4775 -0.5105
vn -0.7648 -0.3718 -0.5262
vn 0.7073 0.4558 0.5403
vn 0.0856 -0.8256 0.5577
vn 0.7601 0.3805 0.5268
vn 0.7119 0.4843 0.5086
vn -0.7647 -0.3691 -0.5283
vn 0.4113 -0.8984 0.1537
vn 0.1640 0.6342 -0.7556
vn -0.5460 -0.5744 -0.6099
vn 0.8838 0.2520 0.3942
vn 0.1826 0.6155 -0.7667
vn 0.7031 0.6700 0.2382
vn -0.7706 -0.3983 -0.4976
vn -0.6618 0.6019 0.4470
vn 0.6618 -0.6019 -0.4470
vn -0.1484 0.8568 -0.4938
vn 0.8666 0.2738 0.4171
vn -0.5758 -0.5599 -0.5958
vn 0.0665 -0.8148 0.5759
vn 0.6710 -0.5257 -0.5229
vn 0.8613 0.2802 0.4238
vn -0.5848 -0.5553 -0.5913
vn 0.3066 -0.9015 0.3053
vn 0.1216 0.6744 -0.7282
vn -0.6735 -0.1256 -0.7285
vn 0.6717 -0.4246 -0.6071
vn -0.6140 0.7448 0.2613
vn 0.8137 -0.4811 0.3262
vn -0.6031 0.7913 -0.1004
vn -0.8147 0.4790 -0.3268
vn -0.3285 -0.7868 0.5225
vn -0.4021 0.7110 0.5768
vn 0.0728 -0.5867 -0.8065
vn -0.3708 0.9140 0.1649
vn 0.4532 0.5829 0.6745
vn -0.4404 -0.1456 -0.8859
vn 0.7941 -0.6052 0.0562
vn -0.7890 -0.0667 -0.6108
vn 0.8581 0.1759 0.4825
vn -0.7857 -0.1078 -0.6092
vn 0.4430 -0.8501 -0.2847
vn 0.7685 0.2660 0.5820
vn 0.4435 -0.8425 -0.3058
vn -0.3596 0.9193 0.1596
vn 0.8770 0.1473 0.4574
vn 0.7831 0.3533 0.5118
vn 0.3860 -0.8997 -0.2039
vn -0.7219 -0.2478 -0.6462
vn 0.7898 0.3211 0.5225
vn -0.6951 -0.2727 -0.6652
vn -0.1663 -0.4992 -0.8504
vn 0.0028 0.7961 0.6051
vn -0.3766 -0.2691 -0.8864
vn 0.0485 0.5143 0.8562
vn -0.9503 -0.2693 0.1564
vn -0.3952 0.8920 0.2196
vn -0.7737 -0.2584 -0.5785
vn -0.4091 0.8793 0.2439
vn 0.8165 0.1621 0.5541
vn -0.7714 -0.2622 -0.5799
vn -0.8190 -0.1582 -0.5516
vn 0.7656 0.2312 0.6004
vn 0.1084 -0.9713 0.2117
vn 0.8146 0.1660 0.5557
vn 0.7682 0.2692 0.5808
vn -0.8189 -0.1548 -0.5526
vn 0.3951 -0.8920 -0.2196
vn 0.1170 0.8652 -0.4875
vn -0.6147 -0.3161 -0.7227
vn 0.9222 0.0946 0.3749
vn 0.1339 0.8519 -0.5063
vn 0.7416 0.5402 0.3977
vn -0.8230 -0.1932 -0.5341
vn -0.6012 0.3974 0.6933
vn 0.6012 -0.3974 -0.6933
vn -0.1644 0.9771 -0.1354
vn 0.9078 0.1066 0.4056
vn -0.6427 -0.3077 -0.7016
vn 0.0913 -0.9679 0.2343
vn 0.6062 -0.2988 -0.7371
vn 0.9033 0.1101 0.4147
vn -0.6511 -0.3051 -0.6950
vn 0.3041 -0.9500 -0.0703
vn 0.0784 0.8927 -0.4437
vn -0.7381 0.1449 -0.6590
vn 0.6027 -0.1741 -0.7788
vn -0.5654 0.5980 0.5681
usemtl Matériau.012
s off
f 83//20 84//20 86//20 85//20
f 90//21 89//21 93//21 94//21
f 89//22 90//22 88//22 87//22
f 105//23 106//23 84//23 83//23
f 103//24 89//24 87//24 105//24
f 104//25 86//25 84//25 106//25
f 94//26 93//26 97//26 98//26
f 103//27 85//27 92//27 107//27
f 104//28 90//28 94//28 108//28
f 85//29 86//29 91//29 92//29
f 110//30 98//30 102//30 112//30
f 107//31 92//31 96//31 109//31
f 108//32 94//32 98//32 110//32
f 92//33 91//33 95//33 96//33
f 101//34 111//34 115//34 118//34
f 96//35 95//35 99//35 100//35
f 98//36 97//36 101//36 102//36
f 109//37 96//37 100//37 111//37
f 97//38 109//38 111//38 101//38
f 100//39 99//39 113//39 114//39
f 91//40 108//40 110//40 95//40
f 93//41 107//41 109//41 97//41
f 95//42 110//42 112//42 99//42
f 86//43 104//43 108//43 91//43
f 89//44 103//44 107//44 93//44
f 90//45 104//45 106//45 88//45
f 85//46 103//46 105//46 83//46
f 87//47 88//47 106//47 105//47
f 117//48 118//48 124//48 123//48
f 113//49 116//49 122//49 119//49
f 102//50 101//50 118//50 117//50
f 111//51 100//51 114//51 115//51
f 99//52 112//52 116//52 113//52
f 112//53 102//53 117//53 116//53
f 124//54 121//54 132//54 131//54
f 120//55 119//55 125//55 126//55
f 115//56 114//56 120//56 121//56
f 118//57 115//57 121//57 124//57
f 116//58 117//58 123//58 122//58
f 114//59 113//59 119//59 120//59
f 128//60 127//60 135//60 136//60
f 119//61 122//61 128//61 125//61
f 121//62 120//62 126//62 127//62
f 122//63 121//63 127//63 128//63
f 131//64 132//64 144//64 143//64
f 122//65 123//65 130//65 129//65
f 123//66 124//66 131//66 130//66
f 121//67 122//67 129//67 132//67
f 136//68 135//68 139//68 140//68
f 127//69 126//69 134//69 135//69
f 125//70 128//70 136//70 133//70
f 126//71 125//71 133//71 134//71
f 138//72 137//72 140//72 139//72
f 135//73 134//73 138//73 139//73
f 133//74 136//74 140//74 137//74
f 134//75 133//75 137//75 138//75
f 144//76 141//76 142//76 143//76
f 129//77 130//77 142//77 141//77
f 132//78 129//78 141//78 144//78
f 130//79 131//79 143//79 142//79
f 145//80 146//80 148//80 147//80
f 152//81 151//81 155//81 156//81
f 151//82 152//82 150//82 149//82
f 167//83 168//83 146//83 145//83
f 165//84 151//84 149//84 167//84
f 166//85 148//85 146//85 168//85
f 156//86 155//86 159//86 160//86
f 165//87 147//87 154//87 169//87
f 166//88 152//88 156//88 170//88
f 147//89 148//89 153//89 154//89
f 172//90 160//90 164//90 174//90
f 169//91 154//91 158//91 171//91
f 170//92 156//92 160//92 172//92
f 154//93 153//93 157//93 158//93
f 163//94 173//94 177//94 180//94
f 158//95 157//95 161//95 162//95
f 160//96 159//96 163//96 164//96
f 171//97 158//97 162//97 173//97
f 159//98 171//98 173//98 163//98
f 162//99 161//99 175//99 176//99
f 153//100 170//100 172//100 157//100
f 155//101 169//101 171//101 159//101
f 157//102 172//102 174//102 161//102
f 148//103 166//103 170//103 153//103
f 151//104 165//104 169//104 155//104
f 152//105 166//105 168//105 150//105
f 147//106 165//106 167//106 145//106
f 149//107 150//107 168//107 167//107
f 179//108 180//108 186//108 185//108
f 175//109 178//109 184//109 181//109
f 164//110 163//110 180//110 179//110
f 173//111 162//111 176//111 177//111
f 161//112 174//112 178//112 175//112
f 174//113 164//113 179//113 178//113
f 186//114 183//114 194//114 193//114
f 182//115 181//115 187//115 188//115
f 177//116 176//116 182//116 183//116
f 180//117 177//117 183//117 186//117
f 178//118 179//118 185//118 184//118
f 176//119 175//119 181//119 182//119
f 190//120 189//120 197//120 198//120
f 181//121 184//121 190//121 187//121
f 183//122 182//122 188//122 189//122
f 184//123 183//123 189//123 190//123
f 193//124 194//124 206//124 205//124
f 184//125 185//125 192//125 191//125
f 185//126 186//126 193//126 192//126
f 183//127 184//127 191//127 194//127
f 198//128 197//128 201//128 202//128
f 189//129 188//129 196//129 197//129
f 187//130 190//130 198//130 195//130
f 188//131 187//131 195//131 196//131
f 200//132 199//132 202//132 201//132
f 197//133 196//133 200//133 201//133
f 195//134 198//134 202//134 199//134
f 196//135 195//135 199//135 200//135
f 206//136 203//136 204//136 205//136
f 191//137 192//137 204//137 203//137
f 194//138 191//138 203//138 206//138
f 192//139 193//139 205//139 204//139
