# Blender v2.91.2 OBJ File: 'camionnete02.blend'
# www.blender.org
mtllib arme_000219.mtl
o Cube.046_Cube.010
v -37.380692 -0.915283 -1221.934814
v -53.123466 -217.433517 -1183.841309
v 20.518173 -41.841599 -1430.625732
v 4.775368 -258.359863 -1392.532227
v -249.463150 3.983856 -1281.735596
v -265.206024 -212.534424 -1243.641846
v -191.564285 -36.942474 -1490.426270
v -207.307159 -253.460770 -1452.332764
v -117.095924 55.432175 -934.609009
v -132.838760 -161.086044 -896.515320
v -344.921204 -156.186951 -956.315796
v -329.178375 60.331284 -994.409607
v -153.172226 80.933090 -804.575012
v -168.915115 -135.585144 -766.481445
v -380.997620 -130.686020 -826.281921
v -365.254761 85.832230 -864.375671
v -174.484589 95.997910 -727.756958
v -182.212769 -64.020935 -712.836914
v -394.295319 -59.121811 -772.637512
v -386.567108 100.897049 -787.557434
v -137.478088 296.781982 -842.550964
v -349.560608 301.681152 -902.351624
v -158.790390 311.846802 -765.732849
v -370.872894 316.745972 -825.533447
v -104.658836 46.640930 -979.437073
v -120.401703 -169.877289 -941.343384
v -316.741364 51.540070 -1039.237671
v -332.484192 -164.978180 -1001.143982
v -111.899078 126.906479 -947.183960
v -323.981567 131.805588 -1006.984619
v -99.462006 118.115219 -992.012085
v -311.544495 123.014359 -1051.812744
v -104.359299 230.604019 -965.428406
v -316.441772 235.503098 -1025.228760
v -91.922287 221.812729 -1010.256409
v -304.004700 226.711838 -1070.057007
v -147.160049 151.831039 -820.089050
v -359.242554 156.730148 -879.889648
v -139.620285 255.528580 -838.333374
v -351.702820 260.427734 -898.133911
v -114.251862 421.643066 -914.693420
v -326.334351 426.542236 -974.493958
v -135.564209 436.707886 -837.875183
v -347.646667 441.606995 -897.675781
v 0.078079 -27.393356 -1356.951416
v -15.664787 -243.911606 -1318.857910
v -212.004410 -22.494202 -1416.751953
v -227.747192 -239.012497 -1378.658203
v -85.523071 -39.392029 -1460.525879
v -101.265907 -255.910309 -1422.432373
v -143.421906 1.534317 -1251.835205
v -159.164703 -214.983963 -1213.741455
v -223.137115 57.881714 -964.509216
v -238.879959 -158.636490 -926.415527
v -259.213501 83.382706 -834.475403
v -268.487549 -121.680901 -785.211121
v -280.525818 98.447495 -757.657166
v -277.454193 -73.424965 -749.038574
v -243.519348 299.231628 -872.451294
v -264.831635 314.296326 -795.633179
v -226.442947 -167.427734 -971.243652
v -210.700073 49.090469 -1009.337463
v -217.940308 129.356064 -977.084351
v -205.503235 120.564804 -1021.912354
v -210.400528 233.053635 -995.328552
v -197.963486 224.262314 -1040.156738
v -253.201309 154.280624 -849.989380
v -245.661530 257.978149 -868.233643
v -220.293121 424.092712 -944.593689
v -241.605438 439.157471 -867.775513
v -121.706032 -241.462036 -1348.758057
v -105.963135 -24.943771 -1386.851562
v -32.502388 -40.616821 -1445.575684
v -106.144119 -216.208725 -1198.791260
v -185.859375 -159.861282 -911.465454
v -232.735611 -122.506783 -775.130249
v -241.702255 -74.250839 -738.957581
v -157.679443 47.865707 -994.387207
v -152.482635 119.339981 -1006.962219
v -144.942871 223.037521 -1025.206543
v -52.942539 -26.168564 -1371.901611
v -48.245285 -257.135101 -1407.482178
v -90.401314 0.309494 -1236.885010
v -170.116531 56.656937 -949.559143
v -206.192886 82.157883 -819.525208
v -227.505188 97.222702 -742.707031
v -190.498718 298.006775 -857.501160
v -211.811005 313.071594 -780.682983
v -173.422333 -168.652527 -956.293640
v -164.919678 128.131271 -962.134094
v -157.379913 231.828812 -980.378418
v -200.180695 153.055832 -835.039246
v -192.640900 256.753357 -853.283508
v -167.272446 422.867920 -929.643494
v -188.584808 437.932617 -852.825378
v -68.685440 -242.686829 -1333.808105
v -176.369934 -209.192596 -949.161011
v -229.390564 -207.967834 -964.111145
v -71.633102 -283.226898 -1326.675537
v -124.653633 -282.002136 -1341.625488
v -162.112366 -255.524078 -1206.608887
v -109.091751 -256.748840 -1191.658936
v 74.644073 -82.461746 -1283.460938
v 58.080185 -70.753433 -1223.758057
v 51.119003 -166.495590 -1206.913330
v 67.682739 -178.203949 -1266.616455
v 120.473999 -83.520447 -1270.538574
v 103.910110 -71.812119 -1210.835693
v 96.948853 -167.554260 -1193.990723
v 113.512665 -179.262589 -1253.693848
v 190.608368 -85.140564 -1250.762939
v 174.044464 -73.432236 -1191.060059
v 167.083160 -169.174332 -1174.215332
v 183.646973 -180.882690 -1233.918457
v 235.738953 -86.183090 -1238.037598
v 219.175049 -74.474747 -1178.334473
v 212.213837 -170.216873 -1161.489990
v 228.777588 -181.925217 -1221.192871
v 141.963821 -391.585571 -2093.071289
v 88.943222 -390.360809 -2108.021240
v 104.685944 -173.842514 -2146.115234
v 157.706665 -175.067307 -2131.164795
v -193.328033 483.645325 -975.413025
v -291.039337 485.902466 -1002.964661
v -212.966156 497.526733 -904.629211
v -310.677429 499.783813 -932.180664
v -115.254906 495.269592 -877.077820
v -95.616684 481.388306 -947.861511
v -144.472321 482.516968 -961.637207
v -164.110535 496.398071 -890.853455
vn 0.9622 -0.0222 0.2713
vn 0.2627 -0.1857 -0.9468
vn -0.9622 0.0222 -0.2713
vn 0.0714 0.9824 -0.1728
vn -0.0714 -0.9824 0.1728
vn -0.2627 0.1857 0.9468
vn -0.2279 -0.6108 0.7583
vn -0.1554 -0.9712 0.1808
vn -0.3473 0.0756 0.9347
vn -0.9626 0.0220 -0.2700
vn 0.9626 -0.0220 0.2700
vn 0.2210 -0.5184 -0.8261
vn 0.2197 -0.5250 -0.8222
vn -0.2210 0.5184 0.8261
vn 0.6201 -0.1795 -0.7637
vn -0.8745 0.3689 -0.3150
vn -0.2277 0.0721 0.9711
vn -0.0405 -0.9758 0.2149
vn -0.2059 0.5927 0.7787
vn -0.2702 0.0434 0.9618
vn -0.0886 -0.9680 0.2348
vn 0.1371 0.1620 0.9772
vn 0.4714 -0.8315 0.2938
vn 0.5905 0.8070 0.0056
vn 0.9477 -0.1349 0.2894
usemtl Matériau.011
s off
f 45//1 46//1 4//1 3//1
f 49//2 50//2 8//2 7//2
f 47//3 48//3 6//3 5//3
f 26//1 25//1 9//1 10//1
f 72//4 47//4 5//4 51//4
f 96//5 46//5 2//5 74//5
f 10//1 9//1 13//1 14//1
f 84//6 9//6 29//6 90//6
f 89//5 26//5 10//5 75//5
f 27//3 28//3 11//3 12//3
f 76//7 14//7 18//7 77//7
f 75//8 10//8 14//8 76//8
f 12//3 11//3 15//3 16//3
f 53//4 12//4 16//4 55//4
f 86//9 77//9 18//9 17//9
f 16//10 15//10 19//10 20//10
f 16//3 20//3 24//3 22//3
f 14//11 13//11 17//11 18//11
f 59//12 22//12 42//12 69//12
f 86//6 17//6 23//6 88//6
f 17//1 13//1 21//1 23//1
f 55//2 16//2 22//2 59//2
f 5//3 6//3 28//3 27//3
f 74//5 2//5 26//5 89//5
f 51//4 5//4 27//4 62//4
f 2//1 1//1 25//1 26//1
f 32//3 30//3 34//3 36//3
f 62//2 27//2 32//2 64//2
f 27//3 12//3 30//3 32//3
f 9//1 25//1 31//1 29//1
f 66//4 36//4 34//4 65//4
f 90//5 29//5 37//5 92//5
f 64//2 32//2 36//2 66//2
f 29//1 31//1 35//1 33//1
f 92//6 37//6 39//6 93//6
f 29//1 33//1 39//1 37//1
f 34//3 30//3 38//3 40//3
f 65//4 34//4 40//4 68//4
f 69//13 42//13 124//13 123//13
f 23//1 21//1 41//1 43//1
f 88//14 23//14 43//14 95//14
f 22//3 24//3 44//3 42//3
f 82//5 4//5 46//5 96//5
f 49//4 7//4 47//4 72//4
f 7//3 8//3 48//3 47//3
f 46//15 45//15 103//15 106//15
f 73//4 49//4 72//4 81//4
f 8//5 50//5 71//5 48//5
f 24//14 60//14 70//14 44//14
f 42//16 44//16 126//16 124//16
f 91//4 65//4 68//4 93//4
f 38//6 67//6 68//6 40//6
f 79//2 64//2 66//2 80//2
f 30//5 63//5 67//5 38//5
f 80//4 66//4 65//4 91//4
f 78//2 62//2 64//2 79//2
f 83//4 51//4 62//4 78//4
f 6//5 52//5 61//5 28//5
f 85//2 55//2 59//2 87//2
f 20//6 57//6 60//6 24//6
f 87//12 59//12 69//12 94//12
f 20//17 19//17 58//17 57//17
f 84//4 53//4 55//4 85//4
f 11//18 54//18 56//18 15//18
f 15//7 56//7 58//7 19//7
f 28//5 61//5 54//5 11//5
f 12//6 53//6 63//6 30//6
f 48//5 71//5 52//5 6//5
f 81//4 72//4 51//4 83//4
f 50//3 49//3 121//3 120//3
f 3//2 4//2 82//2 73//2
f 45//4 81//4 83//4 1//4
f 9//4 84//4 85//4 13//4
f 21//12 87//12 94//12 41//12
f 13//2 85//2 87//2 21//2
f 1//4 83//4 78//4 25//4
f 25//2 78//2 79//2 31//2
f 35//4 80//4 91//4 33//4
f 31//2 79//2 80//2 35//2
f 33//4 91//4 93//4 39//4
f 70//19 95//19 130//19 125//19
f 3//4 73//4 81//4 45//4
f 50//5 82//5 96//5 71//5
f 60//14 88//14 95//14 70//14
f 67//6 92//6 93//6 68//6
f 63//5 90//5 92//5 67//5
f 52//3 71//3 100//3 101//3
f 57//6 86//6 88//6 60//6
f 57//20 58//20 77//20 86//20
f 54//21 75//21 76//21 56//21
f 56//7 76//7 77//7 58//7
f 61//5 89//5 75//5 54//5
f 53//6 84//6 90//6 63//6
f 89//6 61//6 98//6 97//6
f 101//5 102//5 97//5 98//5
f 100//5 99//5 102//5 101//5
f 61//3 52//3 101//3 98//3
f 74//1 89//1 97//1 102//1
f 71//2 96//2 99//2 100//2
f 96//1 74//1 102//1 99//1
f 106//2 103//2 107//2 110//2
f 1//22 2//22 105//22 104//22
f 2//23 46//23 106//23 105//23
f 45//24 1//24 104//24 103//24
f 109//5 110//5 114//5 113//5
f 104//6 105//6 109//6 108//6
f 105//5 106//5 110//5 109//5
f 103//4 104//4 108//4 107//4
f 113//5 114//5 118//5 117//5
f 107//4 108//4 112//4 111//4
f 110//2 107//2 111//2 114//2
f 108//6 109//6 113//6 112//6
f 116//1 117//1 118//1 115//1
f 111//4 112//4 116//4 115//4
f 114//2 111//2 115//2 118//2
f 122//2 119//2 120//2 121//2
f 82//5 50//5 120//5 119//5
f 73//1 82//1 119//1 122//1
f 49//4 73//4 122//4 121//4
f 123//4 124//4 126//4 125//4
f 129//4 123//4 125//4 130//4
f 128//4 129//4 130//4 127//4
f 95//19 43//19 127//19 130//19
f 94//13 69//13 123//13 129//13
f 43//25 41//25 128//25 127//25
f 44//19 70//19 125//19 126//19
f 41//13 94//13 129//13 128//13
o Cube.048_Cube.024
v -462.948303 603.396057 95.615204
v -585.090576 407.912048 168.174393
v -425.583862 500.146729 -119.654472
v -553.243286 301.469971 -50.053940
v -688.743896 628.200562 -21.565910
v -751.369629 527.970459 15.637207
v -669.586121 575.261719 -131.940704
v -732.462280 474.983398 -94.937584
v -536.021851 253.617920 -487.831024
v -429.915558 316.774384 -459.985748
v -485.563171 425.260498 -493.996857
v -591.669312 362.103973 -521.842102
v -459.904785 248.677917 -690.496521
v -381.893158 295.111969 -670.023987
v -422.806519 374.873352 -695.029724
v -500.818207 328.439331 -715.502258
v -411.447937 248.348907 -817.452087
v -354.438049 282.282288 -802.491089
v -384.337036 340.570862 -820.764954
v -441.346863 306.637482 -835.725769
v -527.242188 562.637573 -146.630554
v -660.754028 354.136597 -72.513008
v -566.897278 672.421509 81.798737
v -696.566406 464.891266 158.829224
v -452.664551 372.244049 -481.381866
v -565.309326 305.195679 -510.943024
v -393.861694 333.999329 -699.583313
v -476.680725 284.703827 -721.317322
v -358.868195 308.981018 -836.639893
v -419.391266 272.956573 -852.522949
v -379.547638 233.226624 -904.711304
v -322.537659 267.160004 -889.750305
v -326.329742 297.525818 -934.647522
v -386.852814 261.501282 -950.530457
v -408.906647 294.618652 -932.081238
v -351.896729 328.551971 -917.120361
v -357.207672 223.503632 -967.786194
v -300.197693 257.437103 -952.825256
v -303.989960 287.802734 -997.722351
v -364.513062 251.778290 -1013.605164
v -386.566681 284.895508 -995.156189
v -329.556732 318.828888 -980.195251
v -322.633484 202.624573 -997.091858
v -285.938934 224.465973 -987.462097
v -288.379791 244.011047 -1016.360291
v -327.335693 220.823730 -1026.583374
v -366.955811 277.627502 -1062.926147
v -389.009521 310.744781 -1044.477173
v -331.999603 344.678162 -1029.516113
v -306.432770 313.651978 -1047.043335
v -299.748901 187.126465 -1016.724304
v -275.010345 201.851318 -1010.232361
v -276.655975 215.028076 -1029.714600
v -302.918976 199.395844 -1036.606812
v -281.349457 179.734253 -1044.944946
v -265.885132 188.938965 -1040.886597
v -266.913818 197.175903 -1053.065308
v -283.331055 187.403931 -1057.373779
v -362.120941 302.963745 -1083.824585
v -376.784790 324.983826 -1071.557495
v -338.878082 347.546478 -1061.609741
v -321.878326 326.916779 -1073.263916
v -303.418243 460.940033 460.169220
v -393.115540 262.286987 355.819183
v -129.562073 466.679688 294.734772
v -217.175720 269.774780 190.330048
v -421.679993 551.764221 252.574799
v -467.670288 449.909241 199.071625
v -322.423706 556.201477 169.661987
v -377.460999 453.748413 114.220703
v -94.440857 234.649017 -80.187874
v -61.436279 173.179321 22.693382
v 57.251892 205.476166 5.732338
v 27.168701 265.937775 -96.149269
v -44.842590 54.142151 -189.040192
v -22.376160 5.708069 -112.813805
v 67.033875 28.712280 -124.549080
v 44.567444 77.146545 -200.775482
v -11.347412 -59.400757 -255.763123
v 5.070740 -94.795898 -200.057800
v 70.410461 -77.984619 -208.633698
v 53.992249 -42.589600 -264.338928
v -196.459412 538.624695 243.451691
v -302.946747 331.784393 128.765259
v -394.503845 534.729858 415.232819
v -489.728638 323.835175 304.452393
v -1.371399 177.812256 15.571556
v -33.811768 247.748688 -94.495399
v 25.601990 0.302002 -126.888680
v 1.751038 51.721008 -207.812195
v 41.963379 -109.682495 -217.831818
v 24.533447 -72.106384 -276.969696
v -1.876160 -137.157715 -307.961273
v 14.542053 -172.552734 -252.255890
v 58.302124 -194.039307 -276.247589
v 40.872253 -156.463135 -335.385651
v 69.275452 -125.932068 -321.799194
v 85.693542 -161.327087 -266.093903
v 6.215759 -192.713501 -345.646149
v 22.633850 -228.108459 -289.940826
v 66.393982 -249.595032 -313.932526
v 48.964050 -212.018677 -373.070526
v 77.367310 -181.487671 -359.483978
v 93.785339 -216.882690 -303.778778
v -9.434509 -239.025452 -355.665680
v 1.133057 -261.807678 -319.810730
v 29.299561 -275.637695 -335.253143
v 18.080627 -251.451355 -373.317535
v 89.778137 -237.445496 -401.255859
v 118.181274 -206.914429 -387.669312
v 134.599426 -242.309448 -331.964081
v 107.208008 -275.021729 -342.117828
v -21.269531 -269.912964 -363.096497
v -14.145142 -285.272278 -338.924103
v 4.843811 -294.596130 -349.335114
v -2.719421 -278.290405 -374.997040
v -21.944702 -301.739258 -376.371704
v -17.491150 -311.340454 -361.261230
v -5.620911 -317.168579 -367.769073
v -10.348938 -306.975830 -383.810638
v 119.362305 -252.142700 -404.544678
v 138.247986 -231.842041 -395.510864
v 149.164551 -255.376648 -358.471680
v 130.951599 -277.127625 -365.222992
vn 0.8457 -0.4149 0.3357
vn -0.6280 0.6232 -0.4662
vn -0.8485 0.4051 -0.3404
vn 0.0762 0.3048 0.9494
vn 0.0355 0.9032 -0.4277
vn -0.4606 -0.8244 0.3290
vn -0.4133 0.8445 -0.3407
vn 0.7156 0.6400 -0.2799
vn -0.8555 -0.4983 -0.1404
vn 0.7464 -0.6344 0.2009
vn -0.8484 -0.4059 -0.3398
vn 0.8936 0.4176 0.1645
vn -0.8418 -0.4383 -0.3152
vn 0.4633 -0.8644 0.1951
vn 0.8093 0.5508 0.2040
vn 0.4676 -0.8653 0.1807
vn -0.4079 0.8415 -0.3544
vn 0.9111 0.3809 0.1576
vn 0.8087 0.5805 0.0950
vn 0.4272 -0.8516 0.3038
vn -0.7722 -0.5739 -0.2727
vn 0.8240 0.5532 0.1220
vn -0.7460 -0.6054 -0.2773
vn -0.6081 -0.7938 0.0095
vn 0.3299 0.8907 -0.3127
vn -0.8601 -0.4999 0.1018
vn 0.5561 0.7828 -0.2793
vn -0.6377 0.5846 0.5016
vn -0.4338 0.8546 -0.2854
vn -0.8147 -0.5425 -0.2049
vn -0.4438 0.8586 -0.2565
vn 0.8616 0.4499 0.2351
vn -0.8122 -0.5464 -0.2041
vn -0.8640 -0.4452 -0.2351
vn 0.8113 0.5334 0.2393
vn 0.2072 -0.6646 0.7179
vn 0.8596 0.4540 0.2345
vn 0.8087 0.5527 0.2012
vn -0.8643 -0.4431 -0.2378
vn 0.4338 -0.8546 0.2854
vn -0.0087 0.4156 -0.9095
vn -0.6699 -0.6748 -0.3096
vn 0.9502 0.2895 0.1156
vn 0.0069 0.3937 -0.9192
vn 0.7398 0.6655 -0.0991
vn -0.8633 -0.4634 -0.2001
vn -0.5435 0.7321 0.4106
vn 0.5435 -0.7321 -0.4106
vn -0.2540 0.7143 -0.6521
vn 0.9386 0.3173 0.1353
vn -0.6958 -0.6555 -0.2936
vn 0.1927 -0.6484 0.7365
vn 0.5356 -0.6778 -0.5037
vn 0.9349 0.3255 0.1412
vn -0.7035 -0.6494 -0.2886
vn 0.3658 -0.8137 0.4517
vn -0.0438 0.4638 -0.8849
vn -0.8200 -0.2629 -0.5084
vn 0.5176 -0.6011 -0.6090
vn -0.5384 0.8213 0.1888
vn 0.5767 -0.5683 0.5869
vn 0.3685 0.8290 -0.4206
vn -0.5504 0.5881 -0.5926
vn -0.5490 -0.1808 0.8160
vn 0.0622 0.9925 0.1050
vn -0.3350 -0.8555 -0.3949
vn 0.9676 0.1834 -0.1734
vn 0.9524 0.2339 0.1953
vn -0.5769 -0.1485 -0.8032
vn 0.0433 -0.8477 0.5287
vn -0.1135 0.4638 -0.8787
vn 0.1494 -0.6029 0.7837
vn -0.1529 0.4710 -0.8688
vn -0.9447 -0.3118 0.1013
vn 0.2998 -0.5034 0.8104
vn -0.9439 -0.3218 0.0737
vn 0.9693 0.1705 -0.1774
vn 0.1401 -0.6226 0.7699
vn 0.3638 -0.5650 0.7405
vn -0.9652 -0.2163 0.1470
vn -0.3049 0.4319 -0.8488
vn 0.3620 -0.5448 0.7564
vn -0.3372 0.4062 -0.8493
vn -0.6799 -0.6212 -0.3897
vn 0.7054 0.6800 -0.2001
vn -0.6027 -0.4470 -0.6610
vn 0.4171 0.7705 0.4821
vn -0.9284 0.3201 0.1886
vn 0.9630 0.2326 -0.1361
vn -0.2910 0.5077 -0.8109
vn 0.9589 0.2578 -0.1188
vn 0.1868 -0.5332 0.8251
vn -0.2953 0.5060 -0.8104
vn -0.1821 0.5355 -0.8247
vn 0.2716 -0.4853 0.8311
vn -0.8913 0.2148 0.3992
vn 0.1912 -0.5318 0.8250
vn 0.3027 -0.5044 0.8087
vn -0.1791 0.5343 -0.8261
vn -0.9630 -0.2326 0.1361
vn 0.6896 -0.5018 -0.5221
vn -0.4040 0.3218 -0.8563
vn 0.0626 -0.6841 0.7267
vn 0.6699 -0.5213 -0.5287
vn 0.5194 -0.6181 0.5901
vn -0.2107 0.5543 -0.8052
vn 0.6368 0.7218 0.2710
vn -0.6368 -0.7218 -0.2710
vn 0.9237 -0.1356 -0.3584
vn 0.0837 -0.6615 0.7452
vn -0.3869 0.3532 -0.8518
vn -0.8800 0.2384 0.4108
vn -0.5541 -0.7668 -0.3239
vn 0.0900 -0.6547 0.7505
vn -0.3816 0.3627 -0.8502
vn -0.9686 -0.0779 0.2360
vn 0.7322 -0.4562 -0.5057
vn 0.0702 0.3503 -0.9340
vn -0.4448 -0.8095 -0.3833
vn 0.7925 0.5929 0.1432
usemtl Matériau.012
s off
f 131//26 132//26 134//26 133//26
f 138//27 137//27 141//27 142//27
f 137//28 138//28 136//28 135//28
f 153//29 154//29 132//29 131//29
f 151//30 137//30 135//30 153//30
f 152//31 134//31 132//31 154//31
f 142//32 141//32 145//32 146//32
f 151//33 133//33 140//33 155//33
f 152//34 138//34 142//34 156//34
f 133//35 134//35 139//35 140//35
f 158//36 146//36 150//36 160//36
f 155//37 140//37 144//37 157//37
f 156//38 142//38 146//38 158//38
f 140//39 139//39 143//39 144//39
f 149//40 159//40 163//40 166//40
f 144//41 143//41 147//41 148//41
f 146//42 145//42 149//42 150//42
f 157//43 144//43 148//43 159//43
f 145//44 157//44 159//44 149//44
f 148//45 147//45 161//45 162//45
f 139//46 156//46 158//46 143//46
f 141//47 155//47 157//47 145//47
f 143//48 158//48 160//48 147//48
f 134//49 152//49 156//49 139//49
f 137//50 151//50 155//50 141//50
f 138//51 152//51 154//51 136//51
f 133//52 151//52 153//52 131//52
f 135//53 136//53 154//53 153//53
f 165//54 166//54 172//54 171//54
f 161//55 164//55 170//55 167//55
f 150//56 149//56 166//56 165//56
f 159//57 148//57 162//57 163//57
f 147//58 160//58 164//58 161//58
f 160//59 150//59 165//59 164//59
f 172//60 169//60 180//60 179//60
f 168//61 167//61 173//61 174//61
f 163//62 162//62 168//62 169//62
f 166//63 163//63 169//63 172//63
f 164//64 165//64 171//64 170//64
f 162//65 161//65 167//65 168//65
f 176//66 175//66 183//66 184//66
f 167//67 170//67 176//67 173//67
f 169//68 168//68 174//68 175//68
f 170//69 169//69 175//69 176//69
f 179//70 180//70 192//70 191//70
f 170//71 171//71 178//71 177//71
f 171//72 172//72 179//72 178//72
f 169//73 170//73 177//73 180//73
f 184//74 183//74 187//74 188//74
f 175//75 174//75 182//75 183//75
f 173//76 176//76 184//76 181//76
f 174//77 173//77 181//77 182//77
f 186//78 185//78 188//78 187//78
f 183//79 182//79 186//79 187//79
f 181//80 184//80 188//80 185//80
f 182//81 181//81 185//81 186//81
f 192//82 189//82 190//82 191//82
f 177//83 178//83 190//83 189//83
f 180//84 177//84 189//84 192//84
f 178//85 179//85 191//85 190//85
f 193//86 194//86 196//86 195//86
f 200//87 199//87 203//87 204//87
f 199//88 200//88 198//88 197//88
f 215//89 216//89 194//89 193//89
f 213//90 199//90 197//90 215//90
f 214//91 196//91 194//91 216//91
f 204//92 203//92 207//92 208//92
f 213//93 195//93 202//93 217//93
f 214//94 200//94 204//94 218//94
f 195//95 196//95 201//95 202//95
f 220//96 208//96 212//96 222//96
f 217//97 202//97 206//97 219//97
f 218//98 204//98 208//98 220//98
f 202//99 201//99 205//99 206//99
f 211//100 221//100 225//100 228//100
f 206//101 205//101 209//101 210//101
f 208//102 207//102 211//102 212//102
f 219//103 206//103 210//103 221//103
f 207//104 219//104 221//104 211//104
f 210//105 209//105 223//105 224//105
f 201//106 218//106 220//106 205//106
f 203//107 217//107 219//107 207//107
f 205//108 220//108 222//108 209//108
f 196//109 214//109 218//109 201//109
f 199//110 213//110 217//110 203//110
f 200//111 214//111 216//111 198//111
f 195//112 213//112 215//112 193//112
f 197//113 198//113 216//113 215//113
f 227//114 228//114 234//114 233//114
f 223//115 226//115 232//115 229//115
f 212//116 211//116 228//116 227//116
f 221//117 210//117 224//117 225//117
f 209//118 222//118 226//118 223//118
f 222//119 212//119 227//119 226//119
f 234//120 231//120 242//120 241//120
f 230//121 229//121 235//121 236//121
f 225//122 224//122 230//122 231//122
f 228//123 225//123 231//123 234//123
f 226//124 227//124 233//124 232//124
f 224//125 223//125 229//125 230//125
f 238//126 237//126 245//126 246//126
f 229//127 232//127 238//127 235//127
f 231//128 230//128 236//128 237//128
f 232//129 231//129 237//129 238//129
f 241//130 242//130 254//130 253//130
f 232//131 233//131 240//131 239//131
f 233//132 234//132 241//132 240//132
f 231//133 232//133 239//133 242//133
f 246//134 245//134 249//134 250//134
f 237//135 236//135 244//135 245//135
f 235//136 238//136 246//136 243//136
f 236//137 235//137 243//137 244//137
f 248//138 247//138 250//138 249//138
f 245//139 244//139 248//139 249//139
f 243//140 246//140 250//140 247//140
f 244//141 243//141 247//141 248//141
f 254//142 251//142 252//142 253//142
f 239//143 240//143 252//143 251//143
f 242//144 239//144 251//144 254//144
f 240//145 241//145 253//145 252//145
