# Blender v2.91.2 OBJ File: 'camionnete02.blend'
# www.blender.org
mtllib arme_000076.mtl
o Cube.046_Cube.010
v 260.200775 619.826111 -1110.368164
v 249.638123 399.719849 -1114.927734
v 344.392639 620.005310 -1314.061035
v 333.829926 399.899017 -1318.620605
v 56.781860 631.329407 -1194.436523
v 46.219139 411.223175 -1198.996094
v 140.973694 631.508606 -1398.129395
v 130.410980 411.402344 -1402.689209
v 144.285309 619.579346 -829.923401
v 133.722610 399.473114 -834.482788
v -69.696304 410.976471 -918.551270
v -59.133614 631.082703 -913.991760
v 91.825974 619.467651 -703.003540
v 81.263252 399.361450 -707.563110
v -122.155693 410.864807 -791.631470
v -111.593010 630.971008 -787.072083
v 60.835308 619.401733 -628.025146
v 58.485756 459.296082 -643.805603
v -144.933258 470.799469 -727.874023
v -142.583679 630.905090 -712.093506
v 162.370270 619.617798 -873.677917
v 151.807587 399.511627 -878.237366
v -41.048687 631.121155 -957.746399
v -51.611404 411.014954 -962.305786
v 314.670288 619.942017 -1242.151367
v 304.107605 399.835785 -1246.710693
v 111.251335 631.445374 -1326.219727
v 100.688675 411.339111 -1330.779053
v 242.683167 625.756958 -1356.095459
v 232.120483 405.650665 -1360.655029
v 158.491364 625.577820 -1152.402588
v 147.928650 405.471466 -1156.961914
v 42.575855 625.330994 -871.957520
v 32.013130 405.224792 -876.516968
v -9.883511 625.219360 -745.037781
v -15.873894 414.405090 -735.791870
v -40.874161 625.153442 -670.059387
v -31.232830 454.819214 -692.800110
v 50.098072 405.263275 -920.271545
v 60.660793 625.369507 -915.712097
v 202.398102 405.587402 -1288.744873
v 212.960846 625.693726 -1284.185303
v 293.537933 622.881104 -1335.078125
v 198.783356 402.595642 -1135.944580
v 82.867859 402.348969 -855.499939
v 18.417570 412.465881 -721.619995
v 3.058655 452.879974 -678.628113
v 111.515526 622.493652 -894.694946
v 263.815552 622.817871 -1263.168457
v 282.975220 402.774841 -1339.637695
v 209.346039 622.701965 -1131.385498
v 93.430565 622.455200 -850.940491
v 40.971207 622.343506 -724.020691
v 9.980572 622.277588 -649.042236
v 100.952827 402.387421 -899.254517
v 253.252808 402.711609 -1267.728027
v 98.975128 361.175537 -900.108215
v 48.120377 364.051392 -921.125183
v 251.275085 361.499695 -1268.581543
v 200.420410 364.375549 -1289.598633
v 145.950928 364.259613 -1157.815674
v 196.805664 361.383759 -1136.798584
v 382.284485 553.671631 -1171.228516
v 358.198639 553.620361 -1112.955566
v 353.528015 456.291595 -1114.971436
v 377.613831 456.342896 -1173.244873
v 426.242249 551.185852 -1153.062012
v 402.156372 551.134583 -1094.788818
v 397.485718 453.805847 -1096.804932
v 421.571533 453.857117 -1155.078125
v 493.511627 547.381836 -1125.261230
v 469.425812 547.330566 -1066.988037
v 464.755096 450.001801 -1069.004150
v 488.840851 450.053070 -1127.277344
v 536.798645 544.933899 -1107.371582
v 512.712769 544.882629 -1049.098511
v 508.042175 447.553955 -1051.114624
v 532.127930 447.605225 -1109.387939
v 559.561707 403.363831 -2008.807617
v 508.706940 406.239624 -2029.824707
v 519.269531 626.345947 -2025.265381
v 570.124329 623.470093 -2004.248047
vn 0.9229 -0.0522 0.3814
vn 0.3820 0.0008 -0.9242
vn -0.9229 0.0522 -0.3814
vn 0.0479 0.9986 0.0207
vn -0.0479 -0.9986 -0.0207
vn -0.2896 -0.7469 0.5986
vn -0.1327 -0.9909 -0.0215
vn -0.4595 -0.1084 0.8815
vn -0.9235 0.0517 -0.3802
vn 0.9235 -0.0517 0.3802
vn 0.7143 -0.0198 -0.6995
vn -0.3451 -0.1162 0.9313
vn -0.0226 -0.9994 0.0254
vn -0.3849 -0.1435 0.9117
vn -0.0730 -0.9965 0.0402
vn -0.3820 -0.0008 0.9242
vn 0.0120 -0.0213 0.9997
vn 0.4693 -0.8617 0.1932
vn 0.5492 0.8041 0.2277
usemtl Matériau.011
s off
f 25//1 26//1 4//1 3//1
f 29//2 30//2 8//2 7//2
f 27//3 28//3 6//3 5//3
f 22//1 21//1 9//1 10//1
f 42//4 27//4 5//4 31//4
f 56//5 26//5 2//5 44//5
f 10//1 9//1 13//1 14//1
f 55//5 22//5 10//5 45//5
f 23//3 24//3 11//3 12//3
f 46//6 14//6 18//6 47//6
f 45//7 10//7 14//7 46//7
f 12//3 11//3 15//3 16//3
f 33//4 12//4 16//4 35//4
f 54//8 47//8 18//8 17//8
f 16//9 15//9 19//9 20//9
f 14//10 13//10 17//10 18//10
f 5//3 6//3 24//3 23//3
f 44//5 2//5 22//5 55//5
f 31//4 5//4 23//4 40//4
f 2//1 1//1 21//1 22//1
f 50//5 4//5 26//5 56//5
f 29//4 7//4 27//4 42//4
f 7//3 8//3 28//3 27//3
f 26//11 25//11 63//11 66//11
f 43//4 29//4 42//4 49//4
f 8//5 30//5 41//5 28//5
f 51//4 31//4 40//4 48//4
f 6//5 32//5 39//5 24//5
f 20//12 19//12 38//12 37//12
f 52//4 33//4 35//4 53//4
f 11//13 34//13 36//13 15//13
f 15//6 36//6 38//6 19//6
f 24//5 39//5 34//5 11//5
f 28//5 41//5 32//5 6//5
f 49//4 42//4 31//4 51//4
f 30//3 29//3 81//3 80//3
f 3//2 4//2 50//2 43//2
f 25//4 49//4 51//4 1//4
f 9//4 52//4 53//4 13//4
f 1//4 51//4 48//4 21//4
f 3//4 43//4 49//4 25//4
f 30//5 50//5 56//5 41//5
f 32//3 41//3 60//3 61//3
f 37//14 38//14 47//14 54//14
f 34//15 45//15 46//15 36//15
f 36//6 46//6 47//6 38//6
f 39//5 55//5 45//5 34//5
f 55//16 39//16 58//16 57//16
f 61//5 62//5 57//5 58//5
f 60//5 59//5 62//5 61//5
f 39//3 32//3 61//3 58//3
f 44//1 55//1 57//1 62//1
f 41//2 56//2 59//2 60//2
f 56//1 44//1 62//1 59//1
f 66//2 63//2 67//2 70//2
f 1//17 2//17 65//17 64//17
f 2//18 26//18 66//18 65//18
f 25//19 1//19 64//19 63//19
f 69//5 70//5 74//5 73//5
f 64//16 65//16 69//16 68//16
f 65//5 66//5 70//5 69//5
f 63//4 64//4 68//4 67//4
f 73//5 74//5 78//5 77//5
f 67//4 68//4 72//4 71//4
f 70//2 67//2 71//2 74//2
f 68//16 69//16 73//16 72//16
f 76//1 77//1 78//1 75//1
f 71//4 72//4 76//4 75//4
f 74//2 71//2 75//2 78//2
f 82//2 79//2 80//2 81//2
f 50//5 30//5 80//5 79//5
f 43//1 50//1 79//1 82//1
f 29//4 43//4 82//4 81//4
o Cube.048_Cube.024
v -563.307251 459.258392 182.014771
v -728.650574 344.094482 48.611618
v -423.221436 484.367798 -13.287682
v -587.792664 369.669189 -145.226715
v -676.395874 648.278381 52.350876
v -761.171936 589.230713 -16.048630
v -604.569946 661.152771 -47.786156
v -689.047791 602.248352 -115.791786
v -379.589813 480.341370 -444.865875
v -280.480835 539.403442 -392.791748
v -336.420959 651.131287 -413.045807
v -435.529785 592.069153 -465.119843
v -279.645477 515.118652 -633.792358
v -206.778351 558.542419 -595.506165
v -247.906708 640.687256 -610.397522
v -320.773895 597.263550 -648.683533
v -216.391479 539.636597 -751.536438
v -163.141174 571.370056 -723.557556
v -193.197266 631.400391 -734.439697
v -246.447693 599.666992 -762.418701
v -482.165680 591.506104 -19.111618
v -656.897278 469.794281 -158.903870
v -630.958618 564.831543 188.212646
v -806.490906 442.570862 46.588776
v -302.946991 597.403503 -406.336334
v -408.163330 534.701904 -461.619415
v -216.840515 602.018860 -618.696106
v -294.198029 555.919189 -659.341492
v -164.637085 603.898376 -752.510193
v -221.168793 570.209351 -782.213379
v -173.648438 541.829834 -835.373840
v -120.398010 573.563354 -807.395081
v -120.138916 611.722107 -846.073853
v -176.670593 578.033020 -875.777100
v -202.219208 606.625122 -854.487366
v -148.968811 638.358643 -826.508362
v -143.518616 544.586304 -895.844177
v -90.268311 576.319763 -867.865173
v -90.009033 614.478394 -906.544128
v -146.540833 580.789429 -936.247253
v -172.089478 609.381470 -914.957397
v -118.839172 641.114929 -886.978638
v -104.796936 530.315308 -923.899231
v -70.522156 550.740723 -905.890381
v -70.355225 575.301758 -930.786194
v -106.742126 553.617615 -949.904785
v -144.213928 615.371033 -979.898254
v -169.762512 643.963135 -958.608459
v -116.512207 675.696655 -930.629456
v -87.682129 649.060120 -950.195068
v -79.064453 519.265320 -943.005920
v -55.957275 533.035583 -930.864990
v -55.844727 549.593933 -947.649109
v -80.375793 534.975098 -960.538269
v -57.113281 517.690430 -969.562561
v -42.668823 526.298462 -961.972961
v -42.598389 536.649231 -972.465027
v -57.933044 527.510864 -980.522400
v -138.044067 644.274048 -995.017517
v -155.031738 663.285278 -980.861511
v -119.624939 684.385254 -962.258118
v -100.455444 666.674316 -975.267517
v -311.884003 485.694580 466.567169
v -294.577576 300.557007 312.222931
v -170.871521 606.394470 315.674744
v -155.600525 434.651306 166.958771
v -470.742767 551.619202 277.495361
v -461.869263 456.693970 198.358734
v -396.673157 620.327759 205.828339
v -390.611877 525.447876 123.877724
v 26.734314 678.250977 -67.874290
v 102.164856 654.918152 29.285454
v 70.782288 764.899414 80.511192
v -3.362610 789.163574 -14.815849
v 196.122498 783.632324 -152.099426
v 252.623962 764.759460 -80.597816
v 230.496033 846.304932 -41.587990
v 173.994629 865.177856 -113.089607
v 302.901917 850.967041 -202.399536
v 344.192322 837.174866 -150.146851
v 328.021545 896.767212 -121.639107
v 286.731201 910.559326 -173.891541
v -275.510193 645.065857 280.685303
v -264.096375 457.936737 115.204330
v -430.010559 512.125366 433.275543
v -411.637695 315.579132 269.420135
v 95.146423 709.693298 56.195671
v 13.561462 736.944885 -47.048988
v 257.601196 813.195862 -68.013802
v 197.618042 833.231812 -143.921539
v 357.974548 878.420776 -147.423340
v 314.139587 893.062866 -202.895691
v 375.063049 888.987122 -249.386200
v 416.353210 875.194946 -197.133698
v 436.209045 925.769714 -196.747162
v 392.374207 940.411743 -252.219666
v 364.032410 956.474426 -222.856323
v 405.322815 942.682251 -170.603912
v 426.609070 917.484741 -282.596527
v 467.899353 903.692566 -230.343933
v 487.755554 954.267456 -229.957428
v 443.920593 968.909424 -285.429932
v 415.578552 984.971924 -256.066528
v 456.868835 971.179688 -203.814056
v 471.290466 910.992188 -303.845886
v 497.867371 902.114868 -270.213440
v 510.647644 934.667603 -269.964661
v 482.433044 944.091919 -305.669708
v 467.198669 1019.296631 -290.524719
v 438.856628 1035.359253 -261.161316
v 480.147156 1021.567139 -208.908844
v 511.033386 1004.654663 -235.052246
v 500.982971 905.860840 -319.381317
v 518.900574 899.875977 -296.707153
v 527.516785 921.822205 -296.539673
v 508.495178 928.175842 -320.611053
v 531.251770 913.324463 -334.135925
v 542.451965 909.583252 -319.962036
v 547.837952 923.302002 -319.857056
v 535.947449 927.273743 -334.904419
v 482.122986 1046.753662 -279.325745
v 463.278015 1057.433838 -259.801636
v 490.732483 1048.263184 -225.058289
v 511.269348 1037.018066 -242.441254
vn 0.4426 -0.8728 0.2058
vn -0.3716 0.8799 -0.2962
vn -0.4425 0.8728 -0.2056
vn -0.4415 -0.3318 0.8337
vn 0.3867 0.8379 0.3852
vn -0.6531 -0.5263 -0.5446
vn -0.4066 0.8844 -0.2292
vn 0.8126 0.4448 0.3766
vn -0.7820 -0.1174 -0.6122
vn 0.5195 -0.8523 0.0605
vn -0.7828 -0.3529 -0.5124
vn 0.8481 0.3983 0.3493
vn -0.7778 -0.3892 -0.4935
vn 0.4746 -0.8756 0.0899
vn 0.7539 0.5199 0.4017
vn 0.4806 -0.8736 0.0762
vn -0.3995 0.8841 -0.2424
vn 0.8679 0.3639 0.3381
vn 0.7650 0.5695 0.3008
vn 0.4252 -0.8842 0.1936
vn -0.7078 -0.5289 -0.4682
vn 0.7782 0.5380 0.3240
vn -0.6799 -0.5585 -0.4752
vn -0.6099 -0.5058 -0.6101
vn 0.5428 0.7771 0.3184
vn -0.8089 -0.0030 -0.5880
vn 0.7102 0.4217 0.5638
vn -0.7293 0.4467 0.5183
vn -0.4340 0.8835 -0.1760
vn -0.7594 -0.5117 -0.4017
vn -0.4476 0.8819 -0.1484
vn 0.8065 0.4161 0.4201
vn -0.7570 -0.5157 -0.4014
vn -0.8091 -0.4115 -0.4195
vn 0.7524 0.4962 0.4332
vn 0.1491 -0.7829 0.6041
vn 0.8044 0.4202 0.4200
vn 0.7535 0.5223 0.3993
vn -0.8092 -0.4090 -0.4218
vn 0.4341 -0.8835 0.1760
vn 0.0817 0.5785 -0.8116
vn -0.5975 -0.6189 -0.5099
vn 0.9158 0.2829 0.2852
vn 0.0993 0.5591 -0.8231
vn 0.7160 0.6879 0.1185
vn -0.8117 -0.4359 -0.3886
vn -0.6207 0.6304 0.4663
vn 0.6207 -0.6304 -0.4663
vn -0.2057 0.8183 -0.5367
vn 0.9007 0.3062 0.3082
vn -0.6259 -0.6035 -0.4940
vn 0.1318 -0.7708 0.6233
vn 0.6215 -0.5598 -0.5481
vn 0.8960 0.3131 0.3149
vn -0.6345 -0.5986 -0.4889
vn 0.3449 -0.8760 0.3371
vn 0.0417 0.6204 -0.7831
vn -0.7409 -0.1803 -0.6470
vn 0.6128 -0.4650 -0.6389
vn -0.5930 0.7596 0.2670
vn 0.8113 -0.3336 0.4800
vn -0.4665 0.8686 -0.1669
vn -0.8074 0.3436 -0.4797
vn -0.3382 -0.6211 0.7070
vn -0.4102 0.8454 0.3421
vn 0.1216 -0.7846 -0.6079
vn -0.1792 0.9093 0.3755
vn 0.4392 0.5839 0.6828
vn -0.3453 -0.0947 -0.9337
vn 0.7009 -0.6734 0.2350
vn -0.5541 0.3449 -0.7576
vn 0.6833 -0.2491 0.6863
vn -0.5611 0.3060 -0.7691
vn 0.2984 -0.8445 -0.4447
vn 0.5906 -0.1490 0.7931
vn 0.3069 -0.8320 -0.4622
vn -0.1666 0.9129 0.3726
vn 0.7014 -0.2600 0.6636
vn 0.6461 -0.0560 0.7612
vn 0.2091 -0.8920 -0.4007
vn -0.5235 0.1673 -0.8354
vn 0.6323 -0.0745 0.7711
vn -0.4987 0.1409 -0.8552
vn -0.1364 -0.5204 -0.8429
vn 0.0008 0.8574 0.5146
vn -0.3293 -0.5156 -0.7910
vn 0.0210 0.7570 0.6531
vn -0.9515 -0.2446 0.1868
vn -0.2242 0.8839 0.4105
vn -0.5947 0.1567 -0.7885
vn -0.2476 0.8705 0.4254
vn 0.6193 -0.2521 0.7436
vn -0.5930 0.1529 -0.7905
vn -0.6214 0.2558 -0.7406
vn 0.5741 -0.1846 0.7977
vn -0.1921 -0.9757 -0.1058
vn 0.6179 -0.2483 0.7460
vn 0.5915 -0.1457 0.7930
vn -0.6202 0.2591 -0.7404
vn 0.2242 -0.8839 -0.4105
vn 0.4604 0.8778 -0.1321
vn -0.4170 0.0905 -0.9044
vn 0.7564 -0.3014 0.5805
vn 0.4787 0.8651 -0.1499
vn 0.6867 0.1570 0.7097
vn -0.6387 0.2205 -0.7372
vn -0.6760 0.3764 0.6335
vn 0.6760 -0.3764 -0.6335
vn 0.1181 0.9792 0.1651
vn 0.7364 -0.2938 0.6094
vn -0.4473 0.1016 -0.8886
vn -0.2140 -0.9729 -0.0877
vn 0.7171 -0.2766 -0.6397
vn 0.7302 -0.2914 0.6179
vn -0.4565 0.1050 -0.8835
vn 0.0805 -0.9462 -0.3134
vn 0.4176 0.9040 -0.0914
vn -0.4430 0.5344 -0.7199
vn 0.7558 -0.1510 -0.6371
vn -0.5575 0.5802 0.5937
usemtl Matériau.012
s off
f 83//20 84//20 86//20 85//20
f 90//21 89//21 93//21 94//21
f 89//22 90//22 88//22 87//22
f 105//23 106//23 84//23 83//23
f 103//24 89//24 87//24 105//24
f 104//25 86//25 84//25 106//25
f 94//26 93//26 97//26 98//26
f 103//27 85//27 92//27 107//27
f 104//28 90//28 94//28 108//28
f 85//29 86//29 91//29 92//29
f 110//30 98//30 102//30 112//30
f 107//31 92//31 96//31 109//31
f 108//32 94//32 98//32 110//32
f 92//33 91//33 95//33 96//33
f 101//34 111//34 115//34 118//34
f 96//35 95//35 99//35 100//35
f 98//36 97//36 101//36 102//36
f 109//37 96//37 100//37 111//37
f 97//38 109//38 111//38 101//38
f 100//39 99//39 113//39 114//39
f 91//40 108//40 110//40 95//40
f 93//41 107//41 109//41 97//41
f 95//42 110//42 112//42 99//42
f 86//43 104//43 108//43 91//43
f 89//44 103//44 107//44 93//44
f 90//45 104//45 106//45 88//45
f 85//46 103//46 105//46 83//46
f 87//47 88//47 106//47 105//47
f 117//48 118//48 124//48 123//48
f 113//49 116//49 122//49 119//49
f 102//50 101//50 118//50 117//50
f 111//51 100//51 114//51 115//51
f 99//52 112//52 116//52 113//52
f 112//53 102//53 117//53 116//53
f 124//54 121//54 132//54 131//54
f 120//55 119//55 125//55 126//55
f 115//56 114//56 120//56 121//56
f 118//57 115//57 121//57 124//57
f 116//58 117//58 123//58 122//58
f 114//59 113//59 119//59 120//59
f 128//60 127//60 135//60 136//60
f 119//61 122//61 128//61 125//61
f 121//62 120//62 126//62 127//62
f 122//63 121//63 127//63 128//63
f 131//64 132//64 144//64 143//64
f 122//65 123//65 130//65 129//65
f 123//66 124//66 131//66 130//66
f 121//67 122//67 129//67 132//67
f 136//68 135//68 139//68 140//68
f 127//69 126//69 134//69 135//69
f 125//70 128//70 136//70 133//70
f 126//71 125//71 133//71 134//71
f 138//72 137//72 140//72 139//72
f 135//73 134//73 138//73 139//73
f 133//74 136//74 140//74 137//74
f 134//75 133//75 137//75 138//75
f 144//76 141//76 142//76 143//76
f 129//77 130//77 142//77 141//77
f 132//78 129//78 141//78 144//78
f 130//79 131//79 143//79 142//79
f 145//80 146//80 148//80 147//80
f 152//81 151//81 155//81 156//81
f 151//82 152//82 150//82 149//82
f 167//83 168//83 146//83 145//83
f 165//84 151//84 149//84 167//84
f 166//85 148//85 146//85 168//85
f 156//86 155//86 159//86 160//86
f 165//87 147//87 154//87 169//87
f 166//88 152//88 156//88 170//88
f 147//89 148//89 153//89 154//89
f 172//90 160//90 164//90 174//90
f 169//91 154//91 158//91 171//91
f 170//92 156//92 160//92 172//92
f 154//93 153//93 157//93 158//93
f 163//94 173//94 177//94 180//94
f 158//95 157//95 161//95 162//95
f 160//96 159//96 163//96 164//96
f 171//97 158//97 162//97 173//97
f 159//98 171//98 173//98 163//98
f 162//99 161//99 175//99 176//99
f 153//100 170//100 172//100 157//100
f 155//101 169//101 171//101 159//101
f 157//102 172//102 174//102 161//102
f 148//103 166//103 170//103 153//103
f 151//104 165//104 169//104 155//104
f 152//105 166//105 168//105 150//105
f 147//106 165//106 167//106 145//106
f 149//107 150//107 168//107 167//107
f 179//108 180//108 186//108 185//108
f 175//109 178//109 184//109 181//109
f 164//110 163//110 180//110 179//110
f 173//111 162//111 176//111 177//111
f 161//112 174//112 178//112 175//112
f 174//113 164//113 179//113 178//113
f 186//114 183//114 194//114 193//114
f 182//115 181//115 187//115 188//115
f 177//116 176//116 182//116 183//116
f 180//117 177//117 183//117 186//117
f 178//118 179//118 185//118 184//118
f 176//119 175//119 181//119 182//119
f 190//120 189//120 197//120 198//120
f 181//121 184//121 190//121 187//121
f 183//122 182//122 188//122 189//122
f 184//123 183//123 189//123 190//123
f 193//124 194//124 206//124 205//124
f 184//125 185//125 192//125 191//125
f 185//126 186//126 193//126 192//126
f 183//127 184//127 191//127 194//127
f 198//128 197//128 201//128 202//128
f 189//129 188//129 196//129 197//129
f 187//130 190//130 198//130 195//130
f 188//131 187//131 195//131 196//131
f 200//132 199//132 202//132 201//132
f 197//133 196//133 200//133 201//133
f 195//134 198//134 202//134 199//134
f 196//135 195//135 199//135 200//135
f 206//136 203//136 204//136 205//136
f 191//137 192//137 204//137 203//137
f 194//138 191//138 203//138 206//138
f 192//139 193//139 205//139 204//139
