# Blender v2.91.2 OBJ File: 'camionnete02.blend'
# www.blender.org
mtllib arme_000201.mtl
o Cube.046_Cube.010
v 96.199631 67.627502 -1208.979126
v 23.009109 -132.831909 -1153.858276
v 138.821320 -4.035950 -1413.005615
v 65.630768 -204.495392 -1357.885010
v -107.284119 124.719543 -1271.540771
v -180.474686 -75.739853 -1216.420044
v -64.662415 53.056091 -1475.567261
v -137.852997 -147.403351 -1420.446655
v 37.518005 166.293823 -928.074951
v -35.672531 -34.165527 -872.954102
v -239.156250 22.926544 -935.515747
v -165.965698 223.385956 -990.636475
v 10.960785 210.946899 -800.947266
v -62.229813 10.487473 -745.826538
v -265.713593 67.579529 -808.388123
v -192.523041 268.038940 -863.508911
v -4.728119 237.325867 -725.846008
v -55.190643 87.057983 -698.251343
v -258.674408 144.150146 -760.812866
v -208.211868 294.418030 -788.407593
v 46.673416 150.900085 -971.901062
v -26.517120 -49.559311 -916.780396
v -156.810318 207.992188 -1034.462891
v -230.000900 7.532761 -979.341980
v 123.774536 21.263428 -1340.978027
v 50.583954 -179.195984 -1285.857300
v -79.709213 78.355530 -1403.539673
v -152.899719 -122.103882 -1348.418823
v 37.079437 24.510071 -1444.286499
v -36.111160 -175.949402 -1389.165894
v -5.542206 96.173523 -1240.260010
v -78.732819 -104.285919 -1185.139038
v -64.223831 194.839905 -959.355652
v -137.414413 -5.619522 -904.234863
v -90.781113 239.492981 -832.228027
v -154.541122 49.178589 -766.812744
v -106.469971 265.871948 -757.126770
v -149.794571 100.810303 -734.732666
v -128.259033 -21.013275 -948.061157
v -55.068451 179.446106 -1003.181885
v -51.157913 -150.649933 -1317.137939
v 22.032684 49.809509 -1372.258789
v 87.950424 10.237091 -1428.645996
v -27.861877 -118.558899 -1169.498657
v -86.543518 -19.892517 -888.594543
v -120.238747 39.554230 -756.266418
v -115.492188 91.185974 -724.186279
v -4.197479 165.173096 -987.541504
v 72.903610 35.536499 -1356.618530
v 14.759811 -190.222382 -1373.525391
v 45.328674 81.900513 -1224.619507
v -13.352936 180.566833 -943.715332
v -39.910179 225.219940 -816.587646
v -55.599045 251.598907 -741.486389
v -77.388077 -35.286301 -932.420776
v -0.287048 -164.922974 -1301.497803
v -91.091988 -72.819611 -922.100159
v -141.962936 -58.546539 -937.740479
v -13.990982 -202.456268 -1291.177124
v -64.861847 -188.183228 -1306.817505
v -92.436745 -141.819214 -1174.818604
v -41.565796 -156.092224 -1159.178223
v 181.449829 -45.781952 -1262.416260
v 169.256470 -25.280243 -1204.047729
v 136.892517 -113.921356 -1179.673706
v 149.085693 -134.423065 -1238.042603
v 225.421600 -58.119232 -1248.897217
v 213.228241 -37.617493 -1190.528564
v 180.864197 -126.258636 -1166.154663
v 193.057465 -146.760284 -1224.523315
v 292.712402 -76.999207 -1228.208496
v 280.519043 -56.497498 -1169.839966
v 248.154968 -145.138611 -1145.466064
v 260.348206 -165.640320 -1203.834717
v 336.013123 -89.148315 -1214.895630
v 323.819824 -68.646576 -1156.527100
v 291.455872 -157.287689 -1132.153198
v 303.649078 -177.789337 -1190.521729
v 154.780457 -425.650238 -2043.791382
v 103.909546 -411.377228 -2059.431641
v 177.100098 -210.917786 -2114.552490
v 227.971069 -225.190796 -2098.912109
vn 0.9232 -0.2590 0.2838
vn 0.1934 -0.3251 -0.9257
vn -0.9232 0.2590 -0.2838
vn 0.3321 0.9095 -0.2501
vn -0.3321 -0.9095 0.2501
vn -0.3767 -0.4637 0.8020
vn -0.4098 -0.8755 0.2561
vn -0.3046 0.2413 0.9214
vn -0.9236 0.2590 -0.2825
vn 0.9236 -0.2590 0.2825
vn 0.5411 -0.4008 -0.7393
vn -0.1901 0.2086 0.9594
vn -0.3001 -0.9082 0.2918
vn -0.2388 0.1918 0.9519
vn -0.3441 -0.8861 0.3105
vn -0.1934 0.3251 0.9257
vn 0.1855 0.1970 0.9627
vn 0.2325 -0.9014 0.3652
vn 0.7864 0.6156 -0.0519
usemtl Matériau.011
s off
f 25//1 26//1 4//1 3//1
f 29//2 30//2 8//2 7//2
f 27//3 28//3 6//3 5//3
f 22//1 21//1 9//1 10//1
f 42//4 27//4 5//4 31//4
f 56//5 26//5 2//5 44//5
f 10//1 9//1 13//1 14//1
f 55//5 22//5 10//5 45//5
f 23//3 24//3 11//3 12//3
f 46//6 14//6 18//6 47//6
f 45//7 10//7 14//7 46//7
f 12//3 11//3 15//3 16//3
f 33//4 12//4 16//4 35//4
f 54//8 47//8 18//8 17//8
f 16//9 15//9 19//9 20//9
f 14//10 13//10 17//10 18//10
f 5//3 6//3 24//3 23//3
f 44//5 2//5 22//5 55//5
f 31//4 5//4 23//4 40//4
f 2//1 1//1 21//1 22//1
f 50//5 4//5 26//5 56//5
f 29//4 7//4 27//4 42//4
f 7//3 8//3 28//3 27//3
f 26//11 25//11 63//11 66//11
f 43//4 29//4 42//4 49//4
f 8//5 30//5 41//5 28//5
f 51//4 31//4 40//4 48//4
f 6//5 32//5 39//5 24//5
f 20//12 19//12 38//12 37//12
f 52//4 33//4 35//4 53//4
f 11//13 34//13 36//13 15//13
f 15//6 36//6 38//6 19//6
f 24//5 39//5 34//5 11//5
f 28//5 41//5 32//5 6//5
f 49//4 42//4 31//4 51//4
f 30//3 29//3 81//3 80//3
f 3//2 4//2 50//2 43//2
f 25//4 49//4 51//4 1//4
f 9//4 52//4 53//4 13//4
f 1//4 51//4 48//4 21//4
f 3//4 43//4 49//4 25//4
f 30//5 50//5 56//5 41//5
f 32//3 41//3 60//3 61//3
f 37//14 38//14 47//14 54//14
f 34//15 45//15 46//15 36//15
f 36//6 46//6 47//6 38//6
f 39//5 55//5 45//5 34//5
f 55//16 39//16 58//16 57//16
f 61//5 62//5 57//5 58//5
f 60//5 59//5 62//5 61//5
f 39//3 32//3 61//3 58//3
f 44//1 55//1 57//1 62//1
f 41//2 56//2 59//2 60//2
f 56//1 44//1 62//1 59//1
f 66//2 63//2 67//2 70//2
f 1//17 2//17 65//17 64//17
f 2//18 26//18 66//18 65//18
f 25//19 1//19 64//19 63//19
f 69//5 70//5 74//5 73//5
f 64//16 65//16 69//16 68//16
f 65//5 66//5 70//5 69//5
f 63//4 64//4 68//4 67//4
f 73//5 74//5 78//5 77//5
f 67//4 68//4 72//4 71//4
f 70//2 67//2 71//2 74//2
f 68//16 69//16 73//16 72//16
f 76//1 77//1 78//1 75//1
f 71//4 72//4 76//4 75//4
f 74//2 71//2 75//2 78//2
f 82//2 79//2 80//2 81//2
f 50//5 30//5 80//5 79//5
f 43//1 50//1 79//1 82//1
f 29//4 43//4 82//4 81//4
o Cube.048_Cube.024
v -480.888367 561.318176 140.244293
v -679.314636 430.682587 95.984665
v -375.699615 468.153717 -56.360054
v -574.068726 337.335815 -100.637245
v -592.822449 687.491821 -51.800713
v -694.561157 620.511353 -74.493874
v -538.889221 639.723816 -152.605255
v -640.086060 572.878662 -174.789825
v -425.953430 290.360962 -467.745758
v -306.470123 324.586731 -443.767365
v -331.123688 440.962158 -487.029205
v -450.606934 406.736450 -511.007599
v -356.021332 248.800415 -668.428955
v -268.174561 273.963928 -650.799377
v -286.300354 359.525757 -682.606567
v -374.147125 334.362244 -700.236023
v -310.721497 225.210449 -794.354797
v -246.524200 243.599670 -781.471252
v -259.770386 306.127075 -804.715454
v -323.967743 287.737915 -817.598877
v -422.098297 569.523438 -106.690529
v -631.817444 431.604126 -152.607178
v -533.859558 668.514160 101.983368
v -744.513428 529.828369 54.996376
v -313.623413 382.229919 -469.811310
v -440.469727 345.895111 -495.267303
v -269.502960 312.131287 -683.521179
v -362.763245 285.417114 -702.236877
v -243.928406 267.669006 -817.700134
v -312.081635 248.146545 -831.377625
v -284.957611 195.081360 -879.730225
v -220.760284 213.470581 -866.846741
v -216.668304 240.022705 -914.074524
v -284.821686 220.500305 -927.751770
v -296.937592 259.709961 -912.282715
v -232.740234 278.099121 -899.399414
v -266.700897 174.655884 -941.548584
v -202.503662 193.045166 -928.665283
v -198.411591 219.597290 -975.892883
v -266.564941 200.074982 -989.570251
v -278.680817 239.284546 -974.101013
v -214.483490 257.673767 -961.217590
v -239.336334 142.940369 -968.667542
v -198.015472 154.776672 -960.375061
v -195.381592 171.867126 -990.773376
v -239.248810 159.301514 -999.576843
v -262.436218 221.573517 -1040.829102
v -274.552216 260.783142 -1025.359985
v -210.354919 279.172363 -1012.476624
v -194.282990 241.095856 -1027.151611
v -221.678802 120.318481 -986.717468
v -193.821503 128.298218 -981.126770
v -192.045685 139.820190 -1001.620544
v -221.619873 131.348694 -1007.555603
v -206.238983 105.994263 -1014.030579
v -188.825012 110.982483 -1010.535828
v -187.715027 118.184814 -1023.346741
v -206.201996 112.889282 -1027.056763
v -251.154602 242.901825 -1063.629639
v -259.210602 268.972839 -1053.343994
v -216.524963 281.200012 -1044.777710
v -205.838623 255.882385 -1054.535400
v -320.370758 418.269043 489.859161
v -374.114838 241.142334 334.503876
v -155.133240 506.104065 331.788605
v -214.883484 331.280212 176.649200
v -468.320740 534.548584 316.884613
v -495.876801 443.730774 237.229584
v -375.472351 582.673096 236.501282
v -414.234436 489.946960 156.293045
v -155.669250 399.980591 -90.575447
v -77.376099 320.458893 -34.589714
v 20.358093 380.863525 -82.647789
v -55.006958 459.796509 -138.656525
v -142.372498 272.670166 -265.237366
v -86.119324 210.622406 -224.657654
v -12.110107 254.600403 -260.007843
v -68.363342 316.648285 -300.587708
v -131.197449 192.585999 -374.450500
v -90.088318 147.242249 -344.795349
v -36.003357 179.380920 -370.628845
v -77.112488 224.724579 -400.283997
v -238.698975 573.090332 300.500549
v -315.465424 387.709198 135.525925
v -427.453186 480.058594 468.036957
v -484.509216 292.016754 303.108124
v -26.732971 339.669281 -62.287605
v -107.959717 429.263123 -120.882668
v -48.271729 219.829102 -256.469788
v -107.991394 285.700562 -299.550079
v -63.061279 146.258850 -378.959076
v -106.703674 194.396790 -410.441650
v -138.451294 136.699707 -449.846832
v -97.342224 91.355957 -420.191498
v -66.205444 87.433594 -464.546173
v -109.847778 135.571594 -496.028839
v -80.888428 166.351013 -484.304779
v -39.779358 121.007324 -454.649506
v -142.601868 97.164429 -504.543976
v -101.492737 51.820801 -474.888763
v -70.355896 47.898315 -519.243591
v -113.998108 96.036255 -550.726135
v -85.038757 126.815979 -539.002014
v -43.929688 81.472229 -509.346832
v -157.283386 53.353516 -523.390015
v -130.823303 24.167725 -504.302277
v -110.781982 21.643127 -532.851379
v -138.872620 52.627441 -553.115356
v -86.976624 88.986450 -598.963440
v -58.017212 119.766113 -587.239502
v -16.908142 74.422363 -557.584290
v -43.334167 40.848572 -567.481018
v -168.652588 24.046570 -536.085266
v -150.813965 4.370300 -523.216858
v -137.302856 2.667969 -542.464233
v -156.240662 23.556885 -556.125427
v -172.326660 -2.093079 -558.284790
v -161.175537 -14.392822 -550.240479
v -152.729431 -15.456787 -562.271973
v -164.567688 -2.399109 -570.811829
v -60.466125 82.514099 -617.867126
v -41.210632 102.979858 -610.071716
v -13.876648 72.830200 -590.353455
v -31.447815 50.506531 -596.933899
vn 0.3693 -0.7475 0.5522
vn -0.2406 0.7856 -0.5700
vn -0.3698 0.7463 -0.5534
vn -0.3217 0.1733 0.9309
vn 0.5423 0.8336 -0.1050
vn -0.7984 -0.5819 -0.1547
vn -0.1735 0.8944 -0.4122
vn 0.9351 0.3477 0.0682
vn -0.8851 -0.1624 -0.4362
vn 0.3790 -0.8654 0.3277
vn -0.9298 -0.1880 -0.3165
vn 0.9747 0.1730 0.1413
vn -0.9319 -0.2189 -0.2892
vn 0.2149 -0.9388 0.2693
vn 0.9299 0.3267 0.1690
vn 0.2186 -0.9419 0.2551
vn -0.1692 0.8890 -0.4255
vn 0.9816 0.1325 0.1376
vn 0.9362 0.3465 0.0580
vn 0.1846 -0.9080 0.3761
vn -0.9011 -0.3644 -0.2351
vn 0.9439 0.3185 0.0872
vn -0.8844 -0.4021 -0.2369
vn -0.7973 -0.5340 -0.2815
vn 0.7075 0.7034 -0.0685
vn -0.8952 -0.1198 -0.4293
vn 0.8423 0.4934 0.2169
vn -0.5700 0.7600 0.3123
vn -0.1900 0.9141 -0.3581
vn -0.9328 -0.3174 -0.1706
vn -0.1982 0.9230 -0.3298
vn 0.9533 0.2182 0.2088
vn -0.9315 -0.3217 -0.1695
vn -0.9544 -0.2131 -0.2091
vn 0.9275 0.3122 0.2057
vn 0.0274 -0.6359 0.7713
vn 0.9525 0.2227 0.2077
vn 0.9298 0.3285 0.1661
vn -0.9542 -0.2112 -0.2120
vn 0.1900 -0.9141 0.3581
vn 0.0947 0.3280 -0.9399
vn -0.8302 -0.4917 -0.2626
vn 0.9942 0.0308 0.1035
vn 0.1037 0.3020 -0.9476
vn 0.8908 0.4312 -0.1431
vn -0.9582 -0.2279 -0.1728
vn -0.3217 0.8821 0.3441
vn 0.3217 -0.8821 -0.3441
vn -0.0584 0.7015 -0.7102
vn 0.9907 0.0622 0.1208
vn -0.8497 -0.4650 -0.2485
vn 0.0180 -0.6150 0.7883
vn 0.3278 -0.8354 -0.4412
vn 0.9895 0.0716 0.1260
vn -0.8555 -0.4566 -0.2441
vn 0.1372 -0.8432 0.5198
vn 0.0741 0.3857 -0.9196
vn -0.8656 -0.0719 -0.4956
vn 0.3301 -0.7653 -0.5526
vn -0.2949 0.9485 0.1159
vn 0.7084 -0.5814 0.4001
vn 0.1297 0.9697 -0.2068
vn -0.6937 0.5990 -0.4000
vn -0.4446 -0.5106 0.7360
vn -0.1270 0.9171 0.3779
vn -0.1778 -0.7666 -0.6171
vn 0.7859 0.4281 -0.4461
vn 0.8993 0.4220 0.1148
vn -0.6783 -0.2182 -0.7017
vn 0.2851 -0.9297 0.2332
vn -0.5095 0.6580 -0.5545
vn 0.5166 -0.7523 0.4089
vn -0.5415 0.6535 -0.5289
vn -0.7864 -0.5224 0.3298
vn 0.6522 -0.6358 0.4127
vn -0.7962 -0.5239 0.3027
vn 0.7875 0.4172 -0.4537
vn 0.5003 -0.7700 0.3960
vn 0.6855 -0.6600 0.3075
vn -0.7929 -0.4505 0.4102
vn -0.6673 0.5788 -0.4688
vn 0.6862 -0.6484 0.3297
vn -0.6946 0.5480 -0.4660
vn -0.5593 -0.7064 -0.4337
vn 0.5348 0.8428 -0.0612
vn -0.5407 -0.3688 -0.7560
vn 0.2732 0.6836 0.6768
vn -0.9597 0.0483 0.2769
vn 0.7943 0.4622 -0.3943
vn -0.6448 0.6419 -0.4150
vn 0.7958 0.4800 -0.3692
vn 0.5587 -0.6921 0.4571
vn -0.6483 0.6392 -0.4136
vn -0.5544 0.6951 -0.4577
vn 0.6340 -0.6309 0.4473
vn -0.6542 -0.1031 0.7493
vn 0.5625 -0.6898 0.4559
vn 0.6542 -0.6357 0.4098
vn -0.5523 0.6950 -0.4604
vn -0.7943 -0.4622 0.3943
vn 0.4430 -0.1736 -0.8796
vn -0.7513 0.4567 -0.4765
vn 0.4170 -0.8319 0.3663
vn 0.4239 -0.1942 -0.8846
vn 0.7669 -0.6336 0.1017
vn -0.5736 0.7010 -0.4238
vn 0.6321 0.7345 0.2468
vn -0.6321 -0.7345 -0.2468
vn 0.6943 0.1726 -0.6987
vn 0.4421 -0.8115 0.3821
vn -0.7364 0.4884 -0.4681
vn -0.6410 -0.0820 0.7632
vn -0.5762 -0.7439 -0.3387
vn 0.4495 -0.8052 0.3867
vn -0.7317 0.4981 -0.4654
vn -0.7695 -0.3471 0.5360
vn 0.4848 -0.1265 -0.8654
vn -0.3578 0.6070 -0.7096
vn -0.4990 -0.7435 -0.4452
vn 0.7292 0.6835 0.0342
usemtl Matériau.012
s off
f 83//20 84//20 86//20 85//20
f 90//21 89//21 93//21 94//21
f 89//22 90//22 88//22 87//22
f 105//23 106//23 84//23 83//23
f 103//24 89//24 87//24 105//24
f 104//25 86//25 84//25 106//25
f 94//26 93//26 97//26 98//26
f 103//27 85//27 92//27 107//27
f 104//28 90//28 94//28 108//28
f 85//29 86//29 91//29 92//29
f 110//30 98//30 102//30 112//30
f 107//31 92//31 96//31 109//31
f 108//32 94//32 98//32 110//32
f 92//33 91//33 95//33 96//33
f 101//34 111//34 115//34 118//34
f 96//35 95//35 99//35 100//35
f 98//36 97//36 101//36 102//36
f 109//37 96//37 100//37 111//37
f 97//38 109//38 111//38 101//38
f 100//39 99//39 113//39 114//39
f 91//40 108//40 110//40 95//40
f 93//41 107//41 109//41 97//41
f 95//42 110//42 112//42 99//42
f 86//43 104//43 108//43 91//43
f 89//44 103//44 107//44 93//44
f 90//45 104//45 106//45 88//45
f 85//46 103//46 105//46 83//46
f 87//47 88//47 106//47 105//47
f 117//48 118//48 124//48 123//48
f 113//49 116//49 122//49 119//49
f 102//50 101//50 118//50 117//50
f 111//51 100//51 114//51 115//51
f 99//52 112//52 116//52 113//52
f 112//53 102//53 117//53 116//53
f 124//54 121//54 132//54 131//54
f 120//55 119//55 125//55 126//55
f 115//56 114//56 120//56 121//56
f 118//57 115//57 121//57 124//57
f 116//58 117//58 123//58 122//58
f 114//59 113//59 119//59 120//59
f 128//60 127//60 135//60 136//60
f 119//61 122//61 128//61 125//61
f 121//62 120//62 126//62 127//62
f 122//63 121//63 127//63 128//63
f 131//64 132//64 144//64 143//64
f 122//65 123//65 130//65 129//65
f 123//66 124//66 131//66 130//66
f 121//67 122//67 129//67 132//67
f 136//68 135//68 139//68 140//68
f 127//69 126//69 134//69 135//69
f 125//70 128//70 136//70 133//70
f 126//71 125//71 133//71 134//71
f 138//72 137//72 140//72 139//72
f 135//73 134//73 138//73 139//73
f 133//74 136//74 140//74 137//74
f 134//75 133//75 137//75 138//75
f 144//76 141//76 142//76 143//76
f 129//77 130//77 142//77 141//77
f 132//78 129//78 141//78 144//78
f 130//79 131//79 143//79 142//79
f 145//80 146//80 148//80 147//80
f 152//81 151//81 155//81 156//81
f 151//82 152//82 150//82 149//82
f 167//83 168//83 146//83 145//83
f 165//84 151//84 149//84 167//84
f 166//85 148//85 146//85 168//85
f 156//86 155//86 159//86 160//86
f 165//87 147//87 154//87 169//87
f 166//88 152//88 156//88 170//88
f 147//89 148//89 153//89 154//89
f 172//90 160//90 164//90 174//90
f 169//91 154//91 158//91 171//91
f 170//92 156//92 160//92 172//92
f 154//93 153//93 157//93 158//93
f 163//94 173//94 177//94 180//94
f 158//95 157//95 161//95 162//95
f 160//96 159//96 163//96 164//96
f 171//97 158//97 162//97 173//97
f 159//98 171//98 173//98 163//98
f 162//99 161//99 175//99 176//99
f 153//100 170//100 172//100 157//100
f 155//101 169//101 171//101 159//101
f 157//102 172//102 174//102 161//102
f 148//103 166//103 170//103 153//103
f 151//104 165//104 169//104 155//104
f 152//105 166//105 168//105 150//105
f 147//106 165//106 167//106 145//106
f 149//107 150//107 168//107 167//107
f 179//108 180//108 186//108 185//108
f 175//109 178//109 184//109 181//109
f 164//110 163//110 180//110 179//110
f 173//111 162//111 176//111 177//111
f 161//112 174//112 178//112 175//112
f 174//113 164//113 179//113 178//113
f 186//114 183//114 194//114 193//114
f 182//115 181//115 187//115 188//115
f 177//116 176//116 182//116 183//116
f 180//117 177//117 183//117 186//117
f 178//118 179//118 185//118 184//118
f 176//119 175//119 181//119 182//119
f 190//120 189//120 197//120 198//120
f 181//121 184//121 190//121 187//121
f 183//122 182//122 188//122 189//122
f 184//123 183//123 189//123 190//123
f 193//124 194//124 206//124 205//124
f 184//125 185//125 192//125 191//125
f 185//126 186//126 193//126 192//126
f 183//127 184//127 191//127 194//127
f 198//128 197//128 201//128 202//128
f 189//129 188//129 196//129 197//129
f 187//130 190//130 198//130 195//130
f 188//131 187//131 195//131 196//131
f 200//132 199//132 202//132 201//132
f 197//133 196//133 200//133 201//133
f 195//134 198//134 202//134 199//134
f 196//135 195//135 199//135 200//135
f 206//136 203//136 204//136 205//136
f 191//137 192//137 204//137 203//137
f 194//138 191//138 203//138 206//138
f 192//139 193//139 205//139 204//139
