# Blender v2.91.2 OBJ File: 'camionnete02.blend'
# www.blender.org
mtllib arme_000066.mtl
o Cube.046_Cube.010
v 318.469543 701.888306 -1042.982910
v 310.101837 482.432190 -1061.640869
v 418.377777 714.746094 -1239.023926
v 410.010101 495.289978 -1257.682129
v 122.185509 717.788391 -1141.972168
v 113.817787 498.332275 -1160.630127
v 222.093735 730.646179 -1338.013184
v 213.726028 511.190063 -1356.671387
v 180.915649 684.185669 -773.073181
v 172.547958 464.729614 -791.731018
v -23.736042 480.629700 -890.720154
v -15.368343 700.085815 -872.062256
v 118.663536 676.174133 -650.921143
v 110.295822 456.718018 -669.579102
v -85.988235 472.618103 -768.568176
v -77.620529 692.074219 -749.910339
v 81.887726 671.441223 -578.759338
v 82.096016 512.584900 -604.313049
v -114.188065 528.485046 -703.302246
v -114.396324 687.341309 -677.748413
v 202.376617 686.947632 -815.184021
v 194.008911 467.491577 -833.841980
v 6.092568 702.847778 -914.173218
v -2.275148 483.391663 -932.831055
v 383.107086 710.206970 -1169.815430
v 374.739380 490.750793 -1188.473633
v 186.823013 726.106995 -1268.804688
v 178.455368 506.650879 -1287.462402
v 320.235748 722.696167 -1288.518555
v 311.868042 503.239990 -1307.176758
v 220.327545 709.838379 -1092.477539
v 211.959808 490.382202 -1111.135498
v 82.773651 692.135742 -822.567749
v 74.405945 472.679626 -841.225525
v 20.521503 684.124207 -700.415771
v 15.552637 473.118591 -704.415100
v -16.254278 679.391296 -628.253784
v -3.462564 510.789795 -660.406067
v 95.866882 475.441589 -883.336487
v 104.234589 694.897705 -864.678650
v 276.597351 498.700806 -1237.968018
v 284.965088 718.156982 -1219.310059
v 369.306793 718.721130 -1263.771240
v 261.030823 486.407227 -1086.388184
v 123.476944 468.704651 -816.478333
v 48.641335 470.438232 -687.728027
v 29.626144 508.109436 -643.718933
v 153.305588 690.922668 -839.931213
v 334.036072 714.181946 -1194.562744
v 360.939087 499.265015 -1282.429443
v 269.398529 705.863342 -1067.730469
v 131.844650 688.160706 -797.820496
v 69.592499 680.149170 -675.668457
v 32.816711 675.416260 -603.506592
v 144.937897 471.466614 -858.589233
v 325.668304 494.725830 -1213.220947
v 143.371170 430.376404 -862.082642
v 94.300133 434.351440 -886.829895
v 324.101562 453.635681 -1216.714355
v 275.030640 457.610657 -1241.461426
v 210.393082 449.292114 -1114.628906
v 259.464111 445.317078 -1089.881592
v 445.489807 639.976624 -1097.915771
v 416.907745 636.298157 -1041.831787
v 413.207733 539.256958 -1050.082031
v 441.789673 542.935364 -1106.166260
v 487.905731 636.540771 -1076.524902
v 459.323639 632.862305 -1020.440796
v 455.623627 535.821106 -1028.691162
v 484.205627 539.499512 -1084.775269
v 552.815674 631.282654 -1043.789917
v 524.233582 627.604309 -987.705811
v 520.533508 530.563049 -995.956055
v 549.115540 534.241516 -1052.040283
v 594.584351 627.899170 -1022.725342
v 566.002258 624.220764 -966.641296
v 562.302307 527.179565 -974.891541
v 590.884338 530.857971 -1030.975586
v 689.156921 541.505493 -1926.461670
v 640.085938 545.480530 -1951.208984
v 648.453430 764.936646 -1932.551025
v 697.524536 760.961609 -1907.803711
vn 0.8906 -0.0721 0.4491
vn 0.4533 0.0583 -0.8895
vn -0.8906 0.0721 -0.4491
vn 0.0380 0.9957 0.0847
vn -0.0380 -0.9957 -0.0847
vn -0.3296 -0.7829 0.5277
vn -0.1224 -0.9882 -0.0916
vn -0.5264 -0.1634 0.8344
vn -0.8912 0.0716 -0.4480
vn 0.8912 -0.0716 0.4480
vn 0.7672 0.0252 -0.6410
vn -0.4161 -0.1738 0.8925
vn -0.0163 -0.9992 -0.0368
vn -0.4541 -0.2000 0.8682
vn -0.0677 -0.9974 -0.0259
vn -0.4533 -0.0583 0.8895
vn -0.0663 -0.0820 0.9944
vn 0.4597 -0.8702 0.1772
vn 0.5231 0.7906 0.3184
usemtl Matériau.011
s off
f 25//1 26//1 4//1 3//1
f 29//2 30//2 8//2 7//2
f 27//3 28//3 6//3 5//3
f 22//1 21//1 9//1 10//1
f 42//4 27//4 5//4 31//4
f 56//5 26//5 2//5 44//5
f 10//1 9//1 13//1 14//1
f 55//5 22//5 10//5 45//5
f 23//3 24//3 11//3 12//3
f 46//6 14//6 18//6 47//6
f 45//7 10//7 14//7 46//7
f 12//3 11//3 15//3 16//3
f 33//4 12//4 16//4 35//4
f 54//8 47//8 18//8 17//8
f 16//9 15//9 19//9 20//9
f 14//10 13//10 17//10 18//10
f 5//3 6//3 24//3 23//3
f 44//5 2//5 22//5 55//5
f 31//4 5//4 23//4 40//4
f 2//1 1//1 21//1 22//1
f 50//5 4//5 26//5 56//5
f 29//4 7//4 27//4 42//4
f 7//3 8//3 28//3 27//3
f 26//11 25//11 63//11 66//11
f 43//4 29//4 42//4 49//4
f 8//5 30//5 41//5 28//5
f 51//4 31//4 40//4 48//4
f 6//5 32//5 39//5 24//5
f 20//12 19//12 38//12 37//12
f 52//4 33//4 35//4 53//4
f 11//13 34//13 36//13 15//13
f 15//6 36//6 38//6 19//6
f 24//5 39//5 34//5 11//5
f 28//5 41//5 32//5 6//5
f 49//4 42//4 31//4 51//4
f 30//3 29//3 81//3 80//3
f 3//2 4//2 50//2 43//2
f 25//4 49//4 51//4 1//4
f 9//4 52//4 53//4 13//4
f 1//4 51//4 48//4 21//4
f 3//4 43//4 49//4 25//4
f 30//5 50//5 56//5 41//5
f 32//3 41//3 60//3 61//3
f 37//14 38//14 47//14 54//14
f 34//15 45//15 46//15 36//15
f 36//6 46//6 47//6 38//6
f 39//5 55//5 45//5 34//5
f 55//16 39//16 58//16 57//16
f 61//5 62//5 57//5 58//5
f 60//5 59//5 62//5 61//5
f 39//3 32//3 61//3 58//3
f 44//1 55//1 57//1 62//1
f 41//2 56//2 59//2 60//2
f 56//1 44//1 62//1 59//1
f 66//2 63//2 67//2 70//2
f 1//17 2//17 65//17 64//17
f 2//18 26//18 66//18 65//18
f 25//19 1//19 64//19 63//19
f 69//5 70//5 74//5 73//5
f 64//16 65//16 69//16 68//16
f 65//5 66//5 70//5 69//5
f 63//4 64//4 68//4 67//4
f 73//5 74//5 78//5 77//5
f 67//4 68//4 72//4 71//4
f 70//2 67//2 71//2 74//2
f 68//16 69//16 73//16 72//16
f 76//1 77//1 78//1 75//1
f 71//4 72//4 76//4 75//4
f 74//2 71//2 75//2 78//2
f 82//2 79//2 80//2 81//2
f 50//5 30//5 80//5 79//5
f 43//1 50//1 79//1 82//1
f 29//4 43//4 82//4 81//4
o Cube.048_Cube.024
v -562.790527 451.654663 181.225739
v -724.575195 340.614532 40.181877
v -424.083405 494.850616 -11.885635
v -585.835938 384.446655 -151.914703
v -682.358704 645.367493 64.996948
v -765.310181 588.434143 -7.320175
v -611.239624 667.515259 -34.016640
v -694.030884 610.790344 -106.117348
v -370.394348 519.990784 -439.608185
v -276.163666 576.114441 -376.415222
v -331.256439 688.675415 -394.232178
v -425.486969 632.551758 -457.425140
v -256.224792 566.537964 -617.625610
v -186.944336 607.801331 -571.164734
v -227.449646 690.558716 -584.264160
v -296.730225 649.295349 -630.725037
v -184.131531 598.389221 -728.323181
v -133.502319 628.543945 -694.370117
v -163.103149 689.021973 -703.942993
v -213.732422 658.867249 -737.896057
v -486.572113 600.134949 -10.263733
v -658.123047 483.034363 -158.878265
v -633.867188 554.252502 194.738922
v -805.621460 436.369690 45.003540
v -297.972717 634.753784 -388.161652
v -398.010193 575.171631 -455.248749
v -195.512268 652.573242 -592.408081
v -269.061920 608.767090 -641.732178
v -132.988770 662.767944 -721.333862
v -186.737976 630.755066 -757.379211
v -134.962402 605.824585 -808.245667
v -84.333130 635.979248 -774.292664
v -81.353027 676.420837 -810.456421
v -135.102234 644.407898 -846.501648
v -162.475830 671.564453 -825.604431
v -111.846619 701.719177 -791.651306
v -100.205139 612.357422 -865.876282
v -49.575745 642.512146 -831.923340
v -46.595764 682.953674 -868.086975
v -100.344910 650.940796 -904.132263
v -127.718506 678.097290 -883.234924
v -77.089355 708.251953 -849.281921
v -59.286011 599.952087 -891.602905
v -26.698303 619.361328 -869.748901
v -24.780212 645.391724 -893.025818
v -59.376099 624.786377 -916.226501
v -94.884216 688.121521 -945.296326
v -122.257874 715.278015 -924.398987
v -71.628601 745.432739 -890.446045
v -41.135132 720.134460 -909.250977
v -32.044067 590.172974 -909.254700
v -10.074280 603.258118 -894.521362
v -8.781128 620.807068 -910.213928
v -32.104797 606.915649 -925.855164
v -8.065002 590.291626 -934.045288
v 5.668579 598.471313 -924.835266
v 6.476990 609.441406 -934.645020
v -8.102905 600.757629 -944.422546
v -87.784363 717.911621 -958.109802
v -105.985535 735.968384 -944.214783
v -72.321350 756.018555 -921.639038
v -52.045959 739.197449 -934.142761
v -301.332733 427.936768 485.389771
v -293.882904 284.597412 290.978210
v -156.883850 585.433228 368.493347
v -156.768738 447.234558 176.320282
v -464.962860 539.411743 323.745605
v -461.143097 465.917572 224.065338
v -390.397583 624.629883 268.398560
v -390.840881 549.306152 165.277008
v -8.673157 714.065857 -45.013985
v 88.019226 728.246643 35.571892
v 43.944092 841.188965 69.588615
v -51.673950 827.794556 -9.809868
v 113.894592 822.869751 -186.542603
v 185.839478 832.019348 -128.221924
v 154.224304 915.635254 -102.339088
v 82.279419 906.485718 -160.659851
v 191.497620 893.005615 -273.287201
v 244.073853 899.691895 -230.667145
v 220.969910 960.797363 -211.752350
v 168.393616 954.111023 -254.372284
v -262.383850 634.615417 345.465820
v -266.384766 483.845093 135.871735
v -419.857239 463.358063 463.987061
v -411.948303 311.185638 257.595215
v 73.694153 786.153076 50.281731
v -30.190369 772.941589 -33.930290
v 182.352356 882.179565 -127.213661
v 105.973999 872.466125 -189.128174
v 248.693176 942.073486 -239.670563
v 192.876892 934.975159 -284.916870
v 243.089539 930.074585 -342.746826
v 295.665833 936.760986 -300.126801
v 303.588928 988.508301 -314.675110
v 247.772705 981.409851 -359.921448
v 222.781677 999.106201 -328.524719
v 275.357971 1005.792542 -285.904755
v 279.715942 957.918335 -392.297699
v 332.292175 964.604614 -349.677643
v 340.215393 1016.352051 -364.226013
v 284.399109 1009.253540 -409.472260
v 259.407898 1026.949951 -378.075348
v 311.984253 1033.636230 -335.455383
v 319.785522 954.130310 -421.796814
v 353.626526 958.433960 -394.364319
v 358.726379 991.741333 -403.728455
v 322.799866 987.172485 -432.851501
v 294.581604 1060.061768 -430.004425
v 269.590393 1077.757935 -398.607513
v 322.166687 1084.444458 -355.987518
v 350.397766 1067.160156 -384.758026
v 346.321106 950.486572 -442.579529
v 369.135803 953.387939 -424.085175
v 372.574158 975.843018 -430.398529
v 348.353210 972.762817 -450.032257
v 370.783630 959.153076 -465.296417
v 385.045349 960.966797 -453.735504
v 387.194519 975.003540 -457.681671
v 372.054138 973.078125 -469.955170
v 304.960876 1091.555908 -428.445618
v 288.343811 1103.322388 -407.569336
v 323.302429 1107.768311 -379.230713
v 342.073669 1096.275635 -398.360565
vn 0.4714 -0.8702 0.1429
vn -0.3834 0.8914 -0.2418
vn -0.4715 0.8701 -0.1437
vn -0.4283 -0.4032 0.8087
vn 0.3598 0.8215 0.4423
vn -0.6378 -0.5096 -0.5775
vn -0.3946 0.8953 -0.2067
vn 0.7930 0.4342 0.4272
vn -0.7642 -0.0870 -0.6391
vn 0.5354 -0.8444 0.0176
vn -0.7373 -0.3238 -0.5929
vn 0.8148 0.3792 0.4385
vn -0.7334 -0.3612 -0.5759
vn 0.4732 -0.8778 0.0740
vn 0.7158 0.4971 0.4905
vn 0.4802 -0.8750 0.0610
vn -0.3865 0.8958 -0.2193
vn 0.8357 0.3456 0.4268
vn 0.7343 0.5527 0.3940
vn 0.4159 -0.8928 0.1728
vn -0.6646 -0.5019 -0.5536
vn 0.7459 0.5200 0.4162
vn -0.6360 -0.5309 -0.5601
vn -0.5824 -0.4753 -0.6595
vn 0.5153 0.7657 0.3850
vn -0.8119 0.0137 -0.5837
vn 0.6973 0.4049 0.5915
vn -0.7423 0.3854 0.5481
vn -0.4261 0.8911 -0.1560
vn -0.7214 -0.4889 -0.4905
vn -0.4418 0.8877 -0.1297
vn 0.7676 0.3925 0.5067
vn -0.7189 -0.4929 -0.4902
vn -0.7703 -0.3880 -0.5060
vn 0.7120 0.4715 0.5203
vn 0.1077 -0.8176 0.5656
vn 0.7655 0.3966 0.5066
vn 0.7156 0.4996 0.4882
vn -0.7702 -0.3853 -0.5082
vn 0.4261 -0.8911 0.1560
vn 0.1404 0.6271 -0.7662
vn -0.5506 -0.5888 -0.5918
vn 0.8882 0.2682 0.3731
vn 0.1590 0.6085 -0.7775
vn 0.6989 0.6819 0.2159
vn -0.7751 -0.4143 -0.4770
vn -0.6605 0.5987 0.4531
vn 0.6605 -0.5987 -0.4531
vn -0.1697 0.8488 -0.5008
vn 0.8712 0.2900 0.3961
vn -0.5803 -0.5745 -0.5773
vn 0.0888 -0.8068 0.5841
vn 0.6672 -0.5233 -0.5302
vn 0.8659 0.2965 0.4029
vn -0.5892 -0.5699 -0.5727
vn 0.3246 -0.8937 0.3097
vn 0.0980 0.6671 -0.7385
vn -0.6863 -0.1431 -0.7131
vn 0.6648 -0.4232 -0.6155
vn -0.6183 0.7400 0.2648
vn 0.8143 -0.4615 0.3521
vn -0.5694 0.8163 -0.0971
vn -0.8144 0.4614 -0.3521
vn -0.3287 -0.7661 0.5523
vn -0.4038 0.7348 0.5450
vn 0.0814 -0.6192 -0.7810
vn -0.3006 0.9295 0.2136
vn 0.4569 0.5647 0.6873
vn -0.4245 -0.1154 -0.8980
vn 0.7711 -0.6317 0.0799
vn -0.7516 0.0490 -0.6578
vn 0.8383 0.0594 0.5419
vn -0.7520 0.0078 -0.6592
vn 0.3858 -0.8641 -0.3232
vn 0.7502 0.1529 0.6433
vn 0.3878 -0.8550 -0.3443
vn -0.2887 0.9342 0.2095
vn 0.8557 0.0341 0.5163
vn 0.7766 0.2434 0.5811
vn 0.3193 -0.9139 -0.2506
vn -0.6982 -0.1344 -0.7032
vn 0.7777 0.2134 0.5914
vn -0.6725 -0.1602 -0.7225
vn -0.1643 -0.4891 -0.8566
vn 0.0065 0.7970 0.6040
vn -0.3689 -0.3074 -0.8772
vn 0.0445 0.5543 0.8311
vn -0.9501 -0.2673 0.1606
vn -0.3301 0.9060 0.2651
vn -0.7549 -0.1451 -0.6396
vn -0.3466 0.8928 0.2875
vn 0.7908 0.0473 0.6103
vn -0.7529 -0.1490 -0.6411
vn -0.7930 -0.0434 -0.6076
vn 0.7432 0.1173 0.6588
vn 0.0109 -0.9898 0.1419
vn 0.7891 0.0513 0.6121
vn 0.7503 0.1562 0.6424
vn -0.7926 -0.0400 -0.6084
vn 0.3301 -0.9060 -0.2651
vn 0.2215 0.8839 -0.4119
vn -0.5927 -0.2064 -0.7785
vn 0.9014 -0.0164 0.4326
vn 0.2384 0.8705 -0.4306
vn 0.7587 0.4409 0.4796
vn -0.8012 -0.0791 -0.5931
vn -0.6075 0.3993 0.6867
vn 0.6075 -0.3993 -0.6867
vn -0.0709 0.9951 -0.0686
vn 0.8862 -0.0054 0.4633
vn -0.6211 -0.1971 -0.7585
vn -0.0072 -0.9865 0.1637
vn 0.6236 -0.2986 -0.7225
vn 0.8814 -0.0021 0.4724
vn -0.6297 -0.1942 -0.7522
vn 0.2251 -0.9661 -0.1262
vn 0.1827 0.9116 -0.3684
vn -0.6798 0.2580 -0.6865
vn 0.6335 -0.1714 -0.7545
vn -0.5467 0.6043 0.5796
usemtl Matériau.012
s off
f 83//20 84//20 86//20 85//20
f 90//21 89//21 93//21 94//21
f 89//22 90//22 88//22 87//22
f 105//23 106//23 84//23 83//23
f 103//24 89//24 87//24 105//24
f 104//25 86//25 84//25 106//25
f 94//26 93//26 97//26 98//26
f 103//27 85//27 92//27 107//27
f 104//28 90//28 94//28 108//28
f 85//29 86//29 91//29 92//29
f 110//30 98//30 102//30 112//30
f 107//31 92//31 96//31 109//31
f 108//32 94//32 98//32 110//32
f 92//33 91//33 95//33 96//33
f 101//34 111//34 115//34 118//34
f 96//35 95//35 99//35 100//35
f 98//36 97//36 101//36 102//36
f 109//37 96//37 100//37 111//37
f 97//38 109//38 111//38 101//38
f 100//39 99//39 113//39 114//39
f 91//40 108//40 110//40 95//40
f 93//41 107//41 109//41 97//41
f 95//42 110//42 112//42 99//42
f 86//43 104//43 108//43 91//43
f 89//44 103//44 107//44 93//44
f 90//45 104//45 106//45 88//45
f 85//46 103//46 105//46 83//46
f 87//47 88//47 106//47 105//47
f 117//48 118//48 124//48 123//48
f 113//49 116//49 122//49 119//49
f 102//50 101//50 118//50 117//50
f 111//51 100//51 114//51 115//51
f 99//52 112//52 116//52 113//52
f 112//53 102//53 117//53 116//53
f 124//54 121//54 132//54 131//54
f 120//55 119//55 125//55 126//55
f 115//56 114//56 120//56 121//56
f 118//57 115//57 121//57 124//57
f 116//58 117//58 123//58 122//58
f 114//59 113//59 119//59 120//59
f 128//60 127//60 135//60 136//60
f 119//61 122//61 128//61 125//61
f 121//62 120//62 126//62 127//62
f 122//63 121//63 127//63 128//63
f 131//64 132//64 144//64 143//64
f 122//65 123//65 130//65 129//65
f 123//66 124//66 131//66 130//66
f 121//67 122//67 129//67 132//67
f 136//68 135//68 139//68 140//68
f 127//69 126//69 134//69 135//69
f 125//70 128//70 136//70 133//70
f 126//71 125//71 133//71 134//71
f 138//72 137//72 140//72 139//72
f 135//73 134//73 138//73 139//73
f 133//74 136//74 140//74 137//74
f 134//75 133//75 137//75 138//75
f 144//76 141//76 142//76 143//76
f 129//77 130//77 142//77 141//77
f 132//78 129//78 141//78 144//78
f 130//79 131//79 143//79 142//79
f 145//80 146//80 148//80 147//80
f 152//81 151//81 155//81 156//81
f 151//82 152//82 150//82 149//82
f 167//83 168//83 146//83 145//83
f 165//84 151//84 149//84 167//84
f 166//85 148//85 146//85 168//85
f 156//86 155//86 159//86 160//86
f 165//87 147//87 154//87 169//87
f 166//88 152//88 156//88 170//88
f 147//89 148//89 153//89 154//89
f 172//90 160//90 164//90 174//90
f 169//91 154//91 158//91 171//91
f 170//92 156//92 160//92 172//92
f 154//93 153//93 157//93 158//93
f 163//94 173//94 177//94 180//94
f 158//95 157//95 161//95 162//95
f 160//96 159//96 163//96 164//96
f 171//97 158//97 162//97 173//97
f 159//98 171//98 173//98 163//98
f 162//99 161//99 175//99 176//99
f 153//100 170//100 172//100 157//100
f 155//101 169//101 171//101 159//101
f 157//102 172//102 174//102 161//102
f 148//103 166//103 170//103 153//103
f 151//104 165//104 169//104 155//104
f 152//105 166//105 168//105 150//105
f 147//106 165//106 167//106 145//106
f 149//107 150//107 168//107 167//107
f 179//108 180//108 186//108 185//108
f 175//109 178//109 184//109 181//109
f 164//110 163//110 180//110 179//110
f 173//111 162//111 176//111 177//111
f 161//112 174//112 178//112 175//112
f 174//113 164//113 179//113 178//113
f 186//114 183//114 194//114 193//114
f 182//115 181//115 187//115 188//115
f 177//116 176//116 182//116 183//116
f 180//117 177//117 183//117 186//117
f 178//118 179//118 185//118 184//118
f 176//119 175//119 181//119 182//119
f 190//120 189//120 197//120 198//120
f 181//121 184//121 190//121 187//121
f 183//122 182//122 188//122 189//122
f 184//123 183//123 189//123 190//123
f 193//124 194//124 206//124 205//124
f 184//125 185//125 192//125 191//125
f 185//126 186//126 193//126 192//126
f 183//127 184//127 191//127 194//127
f 198//128 197//128 201//128 202//128
f 189//129 188//129 196//129 197//129
f 187//130 190//130 198//130 195//130
f 188//131 187//131 195//131 196//131
f 200//132 199//132 202//132 201//132
f 197//133 196//133 200//133 201//133
f 195//134 198//134 202//134 199//134
f 196//135 195//135 199//135 200//135
f 206//136 203//136 204//136 205//136
f 191//137 192//137 204//137 203//137
f 194//138 191//138 203//138 206//138
f 192//139 193//139 205//139 204//139
