# Blender v2.91.2 OBJ File: 'camionnete02.blend'
# www.blender.org
mtllib arme_000145.mtl
o Cube.046_Cube.010
v 104.652664 -5.611710 -1200.169922
v 103.542297 -221.330444 -1154.967041
v 162.169281 -49.532516 -1408.357178
v 161.058899 -265.251282 -1363.154297
v -108.114136 -16.358887 -1256.684570
v -109.224548 -232.077652 -1211.481445
v -50.597466 -60.279709 -1464.871582
v -51.707893 -275.998474 -1419.668945
v 25.463642 54.858566 -913.537537
v 24.353245 -160.860138 -868.334534
v -188.413483 -171.607346 -924.848999
v -187.303085 44.111374 -970.052002
v -10.374527 82.225388 -783.817383
v -11.484962 -133.493378 -738.614502
v -224.251755 -144.240570 -795.129028
v -223.141342 71.478180 -840.331970
v -31.546188 98.392426 -707.184692
v -28.653526 -61.217064 -687.064758
v -241.420334 -71.964233 -743.579346
v -244.313004 87.645248 -763.699158
v -9.267593 297.277222 -828.880676
v -222.034348 286.530029 -885.395264
v -30.439209 313.444275 -752.247864
v -243.206009 302.697083 -808.762451
v 37.818604 45.424072 -958.257446
v 36.708195 -170.294617 -913.054504
v -174.948181 34.676926 -1014.771973
v -176.058594 -181.041824 -969.568970
v 25.830191 126.068954 -928.459351
v -186.936600 115.321793 -984.973938
v 38.185169 116.634476 -973.179260
v -174.581589 105.887283 -1029.693604
v 26.362032 229.383560 -950.108521
v -186.404709 218.636368 -1006.622925
v 38.716934 219.949051 -994.828430
v -174.049789 209.201920 -1051.343018
v -9.198013 152.817215 -801.671204
v -221.964798 142.069992 -858.185669
v -8.666191 256.131836 -823.320312
v -221.432968 245.384659 -879.834839
v 4.788803 420.946228 -905.318054
v -207.977982 410.198914 -961.832581
v -16.382828 437.113220 -828.685303
v -229.149551 426.366028 -885.199829
v 141.864105 -34.027145 -1334.860596
v 140.753693 -249.745880 -1289.657715
v -70.902649 -44.774277 -1391.375244
v -72.013016 -260.493042 -1346.172119
v 55.785896 -54.906113 -1436.614502
v 54.675499 -270.624878 -1391.411621
v -1.730705 -10.985291 -1228.427246
v -2.841103 -226.704025 -1183.224365
v -80.919708 49.484970 -941.794739
v -82.030136 -166.233719 -896.591736
v -116.757935 76.851776 -812.074646
v -112.002045 -126.659317 -756.176147
v -137.929550 93.018845 -735.441895
v -123.578873 -77.923203 -721.416077
v -115.650986 291.903625 -857.137939
v -136.822601 308.070679 -780.505188
v -69.675201 -175.668228 -941.311768
v -68.564789 40.050476 -986.514709
v -80.553192 120.695328 -956.716614
v -68.198212 111.260849 -1001.436401
v -80.021332 224.010025 -978.365723
v -67.666412 214.575455 -1023.085754
v -115.581406 147.443619 -829.928467
v -115.049561 250.758255 -851.577515
v -101.594589 415.572571 -933.575317
v -122.766220 431.739563 -856.942505
v 34.370323 -255.119461 -1317.915039
v 35.480751 -39.400681 -1363.117920
v 108.977638 -52.219315 -1422.485596
v 50.350552 -224.017227 -1169.095703
v -28.838470 -163.546936 -882.463196
v -76.134766 -124.847626 -746.649170
v -87.711563 -76.111511 -711.889099
v -15.373077 42.737289 -972.386047
v -15.006546 113.947647 -987.307861
v -14.474731 217.262283 -1008.957031
v 88.672432 -36.713913 -1348.989502
v 107.867188 -267.938110 -1377.282959
v 51.460915 -8.298508 -1214.298828
v -27.728058 52.171722 -927.666199
v -63.566246 79.538574 -797.945984
v -84.737869 95.705612 -721.313232
v -62.459274 294.590454 -843.009338
v -83.630890 310.757446 -766.376526
v -16.483505 -172.981430 -927.183167
v -27.361488 123.382156 -942.588013
v -26.829681 226.696793 -964.237122
v -62.389717 150.130386 -815.799866
v -61.857872 253.445023 -837.448853
v -48.402855 418.259338 -919.446594
v -69.574493 434.426392 -842.813904
v 87.561974 -252.432678 -1303.786377
v -16.691391 -213.371811 -918.719482
v -69.883095 -216.058609 -932.848083
v 87.354065 -292.823059 -1295.322754
v 34.162418 -295.509888 -1309.451172
v -3.049038 -267.094452 -1174.760742
v 50.142677 -264.407654 -1160.632080
v 220.868622 -81.736465 -1260.863525
v 204.414047 -69.171478 -1201.304688
v 203.923187 -164.560074 -1181.316406
v 220.377594 -177.125107 -1240.875244
v 266.846405 -79.414093 -1248.651123
v 250.391861 -66.849075 -1189.092285
v 249.900909 -162.237671 -1169.104004
v 266.355347 -174.802689 -1228.662842
v 337.207031 -75.860062 -1229.962402
v 320.752502 -63.295059 -1170.403320
v 320.261536 -158.683624 -1150.415039
v 336.715942 -171.248672 -1209.974121
v 382.483215 -73.573090 -1217.936279
v 366.028748 -61.008072 -1158.377197
v 365.537781 -156.396667 -1138.388916
v 381.992188 -168.961685 -1197.947754
v 296.820648 -412.226013 -2061.217041
v 243.628967 -414.912842 -2075.345703
v 244.739273 -199.194077 -2120.548828
v 297.931030 -196.507278 -2106.420166
v -78.988083 475.698608 -966.700500
v -177.014633 470.747070 -992.737976
v -98.496567 490.595642 -896.087341
v -196.523056 485.644165 -922.124939
v -0.470055 495.547180 -870.050049
v 19.038536 480.650208 -940.662842
v -29.974739 478.174500 -953.681641
v -49.483292 493.071350 -883.068665
vn 0.9653 0.0488 0.2564
vn 0.2610 -0.1993 -0.9446
vn -0.9653 -0.0488 -0.2564
vn 0.0050 0.9787 -0.2051
vn -0.0050 -0.9787 0.2051
vn -0.2610 0.1993 0.9446
vn -0.1772 -0.5990 0.7809
vn -0.0894 -0.9727 0.2140
vn -0.3384 0.0836 0.9373
vn -0.9657 -0.0490 -0.2551
vn 0.9657 0.0490 0.2551
vn 0.2426 -0.5299 -0.8126
vn 0.2419 -0.5364 -0.8086
vn -0.2426 0.5299 0.8126
vn 0.6198 -0.1640 -0.7675
vn -0.9009 0.3012 -0.3124
vn -0.2183 0.0890 0.9718
vn 0.0260 -0.9688 0.2464
vn -0.2331 0.6033 0.7627
vn -0.2590 0.0574 0.9642
vn -0.0222 -0.9635 0.2668
vn 0.1400 0.2024 0.9693
vn 0.5285 -0.7893 0.3125
vn 0.5369 0.8432 -0.0296
vn 0.9584 -0.0640 0.2783
usemtl Matériau.011
s off
f 45//1 46//1 4//1 3//1
f 49//2 50//2 8//2 7//2
f 47//3 48//3 6//3 5//3
f 26//1 25//1 9//1 10//1
f 72//4 47//4 5//4 51//4
f 96//5 46//5 2//5 74//5
f 10//1 9//1 13//1 14//1
f 84//6 9//6 29//6 90//6
f 89//5 26//5 10//5 75//5
f 27//3 28//3 11//3 12//3
f 76//7 14//7 18//7 77//7
f 75//8 10//8 14//8 76//8
f 12//3 11//3 15//3 16//3
f 53//4 12//4 16//4 55//4
f 86//9 77//9 18//9 17//9
f 16//10 15//10 19//10 20//10
f 16//3 20//3 24//3 22//3
f 14//11 13//11 17//11 18//11
f 59//12 22//12 42//12 69//12
f 86//6 17//6 23//6 88//6
f 17//1 13//1 21//1 23//1
f 55//2 16//2 22//2 59//2
f 5//3 6//3 28//3 27//3
f 74//5 2//5 26//5 89//5
f 51//4 5//4 27//4 62//4
f 2//1 1//1 25//1 26//1
f 32//3 30//3 34//3 36//3
f 62//2 27//2 32//2 64//2
f 27//3 12//3 30//3 32//3
f 9//1 25//1 31//1 29//1
f 66//4 36//4 34//4 65//4
f 90//5 29//5 37//5 92//5
f 64//2 32//2 36//2 66//2
f 29//1 31//1 35//1 33//1
f 92//6 37//6 39//6 93//6
f 29//1 33//1 39//1 37//1
f 34//3 30//3 38//3 40//3
f 65//4 34//4 40//4 68//4
f 69//13 42//13 124//13 123//13
f 23//1 21//1 41//1 43//1
f 88//14 23//14 43//14 95//14
f 22//3 24//3 44//3 42//3
f 82//5 4//5 46//5 96//5
f 49//4 7//4 47//4 72//4
f 7//3 8//3 48//3 47//3
f 46//15 45//15 103//15 106//15
f 73//4 49//4 72//4 81//4
f 8//5 50//5 71//5 48//5
f 24//14 60//14 70//14 44//14
f 42//16 44//16 126//16 124//16
f 91//4 65//4 68//4 93//4
f 38//6 67//6 68//6 40//6
f 79//2 64//2 66//2 80//2
f 30//5 63//5 67//5 38//5
f 80//4 66//4 65//4 91//4
f 78//2 62//2 64//2 79//2
f 83//4 51//4 62//4 78//4
f 6//5 52//5 61//5 28//5
f 85//2 55//2 59//2 87//2
f 20//6 57//6 60//6 24//6
f 87//12 59//12 69//12 94//12
f 20//17 19//17 58//17 57//17
f 84//4 53//4 55//4 85//4
f 11//18 54//18 56//18 15//18
f 15//7 56//7 58//7 19//7
f 28//5 61//5 54//5 11//5
f 12//6 53//6 63//6 30//6
f 48//5 71//5 52//5 6//5
f 81//4 72//4 51//4 83//4
f 50//3 49//3 121//3 120//3
f 3//2 4//2 82//2 73//2
f 45//4 81//4 83//4 1//4
f 9//4 84//4 85//4 13//4
f 21//12 87//12 94//12 41//12
f 13//2 85//2 87//2 21//2
f 1//4 83//4 78//4 25//4
f 25//2 78//2 79//2 31//2
f 35//4 80//4 91//4 33//4
f 31//2 79//2 80//2 35//2
f 33//4 91//4 93//4 39//4
f 70//19 95//19 130//19 125//19
f 3//4 73//4 81//4 45//4
f 50//5 82//5 96//5 71//5
f 60//14 88//14 95//14 70//14
f 67//6 92//6 93//6 68//6
f 63//5 90//5 92//5 67//5
f 52//3 71//3 100//3 101//3
f 57//6 86//6 88//6 60//6
f 57//20 58//20 77//20 86//20
f 54//21 75//21 76//21 56//21
f 56//7 76//7 77//7 58//7
f 61//5 89//5 75//5 54//5
f 53//6 84//6 90//6 63//6
f 89//6 61//6 98//6 97//6
f 101//5 102//5 97//5 98//5
f 100//5 99//5 102//5 101//5
f 61//3 52//3 101//3 98//3
f 74//1 89//1 97//1 102//1
f 71//2 96//2 99//2 100//2
f 96//1 74//1 102//1 99//1
f 106//2 103//2 107//2 110//2
f 1//22 2//22 105//22 104//22
f 2//23 46//23 106//23 105//23
f 45//24 1//24 104//24 103//24
f 109//5 110//5 114//5 113//5
f 104//6 105//6 109//6 108//6
f 105//5 106//5 110//5 109//5
f 103//4 104//4 108//4 107//4
f 113//5 114//5 118//5 117//5
f 107//4 108//4 112//4 111//4
f 110//2 107//2 111//2 114//2
f 108//6 109//6 113//6 112//6
f 116//1 117//1 118//1 115//1
f 111//4 112//4 116//4 115//4
f 114//2 111//2 115//2 118//2
f 122//2 119//2 120//2 121//2
f 82//5 50//5 120//5 119//5
f 73//1 82//1 119//1 122//1
f 49//4 73//4 122//4 121//4
f 123//4 124//4 126//4 125//4
f 129//4 123//4 125//4 130//4
f 128//4 129//4 130//4 127//4
f 95//19 43//19 127//19 130//19
f 94//13 69//13 123//13 129//13
f 43//25 41//25 128//25 127//25
f 44//19 70//19 125//19 126//19
f 41//13 94//13 129//13 128//13
o Cube.048_Cube.024
v -522.479858 539.545898 129.641556
v -689.069275 366.299072 104.520966
v -399.643066 448.568451 -57.526253
v -565.184448 272.872009 -83.191216
v -657.865784 616.967651 -72.859932
v -743.280762 528.139160 -85.739922
v -594.883911 570.321045 -168.826111
v -679.866150 481.240662 -180.972107
v -399.174927 240.145996 -466.617157
v -297.017456 310.890686 -442.499542
v -360.064514 414.390686 -479.043549
v -462.221985 343.645905 -503.161163
v -325.734192 233.489197 -670.218933
v -250.625793 285.502350 -652.487000
v -296.979370 361.597870 -679.354919
v -372.087738 309.584778 -697.086853
v -279.135132 232.127563 -797.861145
v -224.246948 270.138062 -784.903015
v -258.121429 325.747711 -804.537781
v -313.009796 287.737183 -817.495789
v -466.110260 531.595398 -117.835670
v -641.784790 346.300598 -143.366455
v -596.614685 628.302246 80.783066
v -773.469910 444.379395 54.114479
v -323.618347 364.047516 -465.279816
v -432.071136 288.943298 -490.883514
v -265.506775 322.548035 -683.071228
v -345.243683 267.329773 -701.895813
v -230.878418 295.362823 -819.807556
v -289.149048 255.010010 -833.564270
v -247.540955 216.243896 -885.096497
v -192.652557 254.254395 -872.138428
v -199.035828 282.825745 -917.911255
v -257.306488 242.472900 -931.667847
v -281.205353 274.685730 -913.928955
v -226.317108 312.696198 -900.970886
v -225.499146 205.921143 -948.180908
v -170.610901 243.931610 -935.222839
v -176.994202 272.502899 -980.995544
v -235.264771 232.150085 -994.752258
v -259.163605 264.362854 -977.013367
v -204.275391 302.373291 -964.055237
v -190.054260 186.366272 -977.359436
v -154.725159 210.831909 -969.018860
v -158.833801 229.221985 -998.480774
v -196.339935 203.248657 -1007.335266
v -240.069946 256.158813 -1044.824097
v -263.968811 288.371582 -1027.085205
v -209.080414 326.382080 -1014.127136
v -181.799255 296.511597 -1031.067505
v -166.487427 171.741272 -996.854309
v -142.669556 188.235291 -991.231262
v -145.439392 200.633423 -1011.093689
v -170.724915 183.122925 -1017.063293
v -148.042297 164.630554 -1025.117188
v -133.153503 174.941284 -1021.602356
v -134.884827 182.691345 -1034.018555
v -150.691162 171.745361 -1037.750244
v -237.183350 281.055969 -1066.592041
v -253.074036 302.474609 -1054.797241
v -216.578125 327.748291 -1046.181152
v -198.438416 307.887024 -1057.445190
v -274.150208 531.053711 443.159515
v -319.974792 311.339203 353.587006
v -158.281250 591.309448 239.540588
v -202.068665 369.419556 150.800476
v -462.490936 573.830933 275.743286
v -485.986481 461.177155 229.816956
v -395.182770 608.708862 169.705841
v -425.532715 490.956543 125.842606
v -106.336853 357.546204 -107.125038
v -20.165405 358.895264 -16.257088
v 50.668762 437.469482 -82.283974
v -32.583801 436.340027 -173.266083
v 10.152771 199.197723 -197.940460
v 73.577698 196.968842 -129.871552
v 127.802612 254.899841 -178.499939
v 64.377625 257.128754 -246.568970
v 85.644226 101.300842 -254.359772
v 131.994324 99.671997 -204.615784
v 171.621094 142.007324 -240.152802
v 125.271057 143.636108 -289.896637
v -256.649292 637.927856 208.253601
v -315.392090 399.314575 115.357826
v -391.915558 570.908997 425.733032
v -440.563965 337.655029 330.640747
v 21.942078 389.439880 -47.212578
v -69.640198 392.658386 -145.500549
v 110.995483 211.111328 -160.352905
v 43.662109 213.477692 -232.616486
v 165.263000 99.540527 -232.754120
v 116.056763 101.269592 -285.563354
v 125.231384 25.514832 -293.727631
v 171.581360 23.886108 -243.983612
v 212.546143 19.656982 -279.426971
v 163.339905 21.386108 -332.236328
v 171.371094 64.382263 -335.446686
v 217.721252 62.753418 -285.702850
v 154.462708 -28.122314 -322.720947
v 200.812744 -29.751221 -272.977020
v 241.777649 -33.980408 -308.420441
v 192.571228 -32.251160 -361.229614
v 200.602539 10.745056 -364.440216
v 246.952637 9.116272 -314.696259
v 166.321472 -76.433838 -318.785187
v 196.154968 -77.482300 -286.767303
v 222.522156 -80.204285 -309.580597
v 190.850220 -79.091309 -343.571564
v 232.485901 -42.509155 -398.757050
v 240.517273 0.487183 -401.967590
v 286.867432 -1.141724 -352.223602
v 281.692200 -44.238403 -345.947723
v 172.956848 -109.587158 -316.303040
v 193.069702 -110.293823 -294.717377
v 210.845764 -112.129395 -310.097595
v 189.493469 -111.378845 -333.013306
v 187.503967 -140.067200 -323.298920
v 200.076721 -140.508911 -309.805450
v 211.188782 -141.656128 -319.419678
v 197.841125 -141.187134 -333.744568
v 263.341797 -41.113586 -410.922913
v 268.682007 -12.524658 -413.057678
v 299.500671 -13.607727 -379.982239
v 296.059753 -42.263184 -375.809326
vn 0.5167 -0.5831 0.6269
vn -0.4385 0.6534 -0.6170
vn -0.5167 0.5831 -0.6269
vn -0.3531 0.2073 0.9123
vn 0.3564 0.9106 -0.2091
vn -0.6596 -0.7487 -0.0654
vn -0.4720 0.8045 -0.3607
vn 0.8159 0.5773 0.0324
vn -0.8204 -0.4021 -0.4065
vn 0.5925 -0.7175 0.3662
vn -0.8249 -0.4706 -0.3131
vn 0.8668 0.4795 0.1368
vn -0.8158 -0.5017 -0.2875
vn 0.5212 -0.8259 0.2150
vn 0.7746 0.6082 0.1734
vn 0.5253 -0.8269 0.2006
vn -0.4666 0.8014 -0.3743
vn 0.8865 0.4438 0.1308
vn 0.7705 0.6342 0.0636
vn 0.4858 -0.8119 0.3238
vn -0.7370 -0.6311 -0.2419
vn 0.7880 0.6089 0.0911
vn -0.7089 -0.6610 -0.2459
vn -0.6366 -0.7339 -0.2368
vn 0.5088 0.8515 -0.1269
vn -0.8502 -0.3499 -0.3934
vn 0.7198 0.6795 0.1421
vn -0.7172 0.6552 0.2376
vn -0.4923 0.8151 -0.3054
vn -0.7805 -0.6004 -0.1745
vn -0.5021 0.8194 -0.2765
vn 0.8337 0.5119 0.2069
vn -0.7778 -0.6041 -0.1736
vn -0.8365 -0.5075 -0.2069
vn 0.7782 0.5921 0.2092
vn 0.2599 -0.6260 0.7353
vn 0.8315 0.5159 0.2061
vn 0.7738 0.6100 0.1706
vn -0.8370 -0.5055 -0.2097
vn 0.4923 -0.8151 0.3054
vn -0.0483 0.3841 -0.9220
vn -0.6289 -0.7264 -0.2772
vn 0.9309 0.3538 0.0910
vn -0.0315 0.3630 -0.9313
vn 0.6935 0.7083 -0.1320
vn -0.8340 -0.5244 -0.1714
vn -0.5841 0.7086 0.3958
vn 0.5841 -0.7086 -0.3958
vn -0.3090 0.6747 -0.6703
vn 0.9178 0.3814 0.1101
vn -0.6558 -0.7083 -0.2614
vn 0.2447 -0.6102 0.7535
vn 0.5714 -0.6580 -0.4904
vn 0.9137 0.3896 0.1158
vn -0.6638 -0.7025 -0.2565
vn 0.4242 -0.7732 0.4714
vn -0.0862 0.4307 -0.8983
vn -0.8082 -0.3317 -0.4866
vn 0.5470 -0.5861 -0.5978
vn -0.5879 0.7906 0.1712
vn 0.8559 -0.3333 0.3953
vn -0.1603 0.8035 -0.5733
vn -0.8433 0.3545 -0.4039
vn -0.2443 -0.3219 0.9147
vn -0.2507 0.9572 0.1445
vn -0.1369 -0.9284 -0.3455
vn 0.6123 0.5574 -0.5608
vn 0.7840 0.6181 0.0576
vn -0.6208 -0.4198 -0.6621
vn 0.4581 -0.7037 0.5431
vn -0.5628 0.0201 -0.8264
vn 0.6542 -0.1434 0.7426
vn -0.5955 0.0102 -0.8033
vn -0.5390 -0.6752 0.5036
vn 0.7156 0.0152 0.6984
vn -0.5392 -0.6922 0.4797
vn 0.6211 0.5474 -0.5608
vn 0.6488 -0.1722 0.7412
vn 0.7845 -0.0272 0.6195
vn -0.5989 -0.5926 0.5386
vn -0.6877 -0.0883 -0.7206
vn 0.7714 -0.0138 0.6362
vn -0.6985 -0.1248 -0.7047
vn -0.4575 -0.8469 -0.2709
vn 0.3349 0.9031 -0.2688
vn -0.5762 -0.6334 -0.5165
vn 0.2554 0.8727 0.4161
vn -0.9046 0.0150 0.4259
vn 0.5905 0.6084 -0.5303
vn -0.7112 -0.0076 -0.7030
vn 0.5769 0.6326 -0.5168
vn 0.6474 -0.0587 0.7599
vn -0.7135 -0.0109 -0.7006
vn -0.6449 0.0630 -0.7617
vn 0.6879 0.0230 0.7254
vn -0.7280 -0.1238 0.6743
vn 0.6500 -0.0554 0.7579
vn 0.7180 0.0151 0.6959
vn -0.6422 0.0629 -0.7639
vn -0.5905 -0.6084 0.5303
vn 0.7049 -0.2470 -0.6649
vn -0.7042 -0.2276 -0.6725
vn 0.6129 -0.2739 0.7411
vn 0.6990 -0.2746 -0.6603
vn 0.9014 -0.0455 0.4307
vn -0.6735 0.0709 -0.7358
vn 0.1507 0.9826 -0.1083
vn -0.1507 -0.9826 0.1083
vn 0.7177 0.2172 -0.6616
vn 0.6211 -0.2392 0.7464
vn -0.7077 -0.1925 -0.6797
vn -0.7298 -0.0954 0.6769
vn -0.0726 -0.9967 0.0350
vn 0.6233 -0.2288 0.7477
vn -0.7086 -0.1817 -0.6818
vn -0.6598 -0.4526 0.5999
vn 0.7161 -0.1840 -0.6733
vn -0.3668 -0.0010 -0.9303
vn 0.0236 -0.9982 -0.0547
vn 0.3164 0.9108 -0.2650
usemtl Matériau.012
s off
f 131//26 132//26 134//26 133//26
f 138//27 137//27 141//27 142//27
f 137//28 138//28 136//28 135//28
f 153//29 154//29 132//29 131//29
f 151//30 137//30 135//30 153//30
f 152//31 134//31 132//31 154//31
f 142//32 141//32 145//32 146//32
f 151//33 133//33 140//33 155//33
f 152//34 138//34 142//34 156//34
f 133//35 134//35 139//35 140//35
f 158//36 146//36 150//36 160//36
f 155//37 140//37 144//37 157//37
f 156//38 142//38 146//38 158//38
f 140//39 139//39 143//39 144//39
f 149//40 159//40 163//40 166//40
f 144//41 143//41 147//41 148//41
f 146//42 145//42 149//42 150//42
f 157//43 144//43 148//43 159//43
f 145//44 157//44 159//44 149//44
f 148//45 147//45 161//45 162//45
f 139//46 156//46 158//46 143//46
f 141//47 155//47 157//47 145//47
f 143//48 158//48 160//48 147//48
f 134//49 152//49 156//49 139//49
f 137//50 151//50 155//50 141//50
f 138//51 152//51 154//51 136//51
f 133//52 151//52 153//52 131//52
f 135//53 136//53 154//53 153//53
f 165//54 166//54 172//54 171//54
f 161//55 164//55 170//55 167//55
f 150//56 149//56 166//56 165//56
f 159//57 148//57 162//57 163//57
f 147//58 160//58 164//58 161//58
f 160//59 150//59 165//59 164//59
f 172//60 169//60 180//60 179//60
f 168//61 167//61 173//61 174//61
f 163//62 162//62 168//62 169//62
f 166//63 163//63 169//63 172//63
f 164//64 165//64 171//64 170//64
f 162//65 161//65 167//65 168//65
f 176//66 175//66 183//66 184//66
f 167//67 170//67 176//67 173//67
f 169//68 168//68 174//68 175//68
f 170//69 169//69 175//69 176//69
f 179//70 180//70 192//70 191//70
f 170//71 171//71 178//71 177//71
f 171//72 172//72 179//72 178//72
f 169//73 170//73 177//73 180//73
f 184//74 183//74 187//74 188//74
f 175//75 174//75 182//75 183//75
f 173//76 176//76 184//76 181//76
f 174//77 173//77 181//77 182//77
f 186//78 185//78 188//78 187//78
f 183//79 182//79 186//79 187//79
f 181//80 184//80 188//80 185//80
f 182//81 181//81 185//81 186//81
f 192//82 189//82 190//82 191//82
f 177//83 178//83 190//83 189//83
f 180//84 177//84 189//84 192//84
f 178//85 179//85 191//85 190//85
f 193//86 194//86 196//86 195//86
f 200//87 199//87 203//87 204//87
f 199//88 200//88 198//88 197//88
f 215//89 216//89 194//89 193//89
f 213//90 199//90 197//90 215//90
f 214//91 196//91 194//91 216//91
f 204//92 203//92 207//92 208//92
f 213//93 195//93 202//93 217//93
f 214//94 200//94 204//94 218//94
f 195//95 196//95 201//95 202//95
f 220//96 208//96 212//96 222//96
f 217//97 202//97 206//97 219//97
f 218//98 204//98 208//98 220//98
f 202//99 201//99 205//99 206//99
f 211//100 221//100 225//100 228//100
f 206//101 205//101 209//101 210//101
f 208//102 207//102 211//102 212//102
f 219//103 206//103 210//103 221//103
f 207//104 219//104 221//104 211//104
f 210//105 209//105 223//105 224//105
f 201//106 218//106 220//106 205//106
f 203//107 217//107 219//107 207//107
f 205//108 220//108 222//108 209//108
f 196//109 214//109 218//109 201//109
f 199//110 213//110 217//110 203//110
f 200//111 214//111 216//111 198//111
f 195//112 213//112 215//112 193//112
f 197//113 198//113 216//113 215//113
f 227//114 228//114 234//114 233//114
f 223//115 226//115 232//115 229//115
f 212//116 211//116 228//116 227//116
f 221//117 210//117 224//117 225//117
f 209//118 222//118 226//118 223//118
f 222//119 212//119 227//119 226//119
f 234//120 231//120 242//120 241//120
f 230//121 229//121 235//121 236//121
f 225//122 224//122 230//122 231//122
f 228//123 225//123 231//123 234//123
f 226//124 227//124 233//124 232//124
f 224//125 223//125 229//125 230//125
f 238//126 237//126 245//126 246//126
f 229//127 232//127 238//127 235//127
f 231//128 230//128 236//128 237//128
f 232//129 231//129 237//129 238//129
f 241//130 242//130 254//130 253//130
f 232//131 233//131 240//131 239//131
f 233//132 234//132 241//132 240//132
f 231//133 232//133 239//133 242//133
f 246//134 245//134 249//134 250//134
f 237//135 236//135 244//135 245//135
f 235//136 238//136 246//136 243//136
f 236//137 235//137 243//137 244//137
f 248//138 247//138 250//138 249//138
f 245//139 244//139 248//139 249//139
f 243//140 246//140 250//140 247//140
f 244//141 243//141 247//141 248//141
f 254//142 251//142 252//142 253//142
f 239//143 240//143 252//143 251//143
f 242//144 239//144 251//144 254//144
f 240//145 241//145 253//145 252//145
