# Blender v2.91.2 OBJ File: 'camionnete02.blend'
# www.blender.org
mtllib arme_000100.mtl
o Cube.046_Cube.010
v 366.649200 376.662903 -1021.327881
v 367.915314 156.259811 -1021.274902
v 485.270447 377.299683 -1207.090332
v 486.536560 156.896606 -1207.037476
v 180.889954 375.567322 -1139.950806
v 182.156021 155.164215 -1139.897827
v 299.511169 376.204132 -1325.713257
v 300.777283 155.801010 -1325.660400
v 203.331253 375.786133 -765.569702
v 204.597351 155.383087 -765.516724
v 18.838100 154.287491 -884.139648
v 17.572010 374.690582 -884.192566
v 129.419189 375.389374 -649.822205
v 130.685272 154.986282 -649.769348
v -55.074036 153.890686 -768.392212
v -56.340126 374.293793 -768.445190
v 85.755219 375.154968 -581.443909
v 94.114136 214.871170 -592.739990
v -91.645210 213.775604 -711.362915
v -100.004105 374.059418 -700.066772
v 128.156982 595.111084 -649.875061
v -57.602276 594.015503 -768.498047
v 84.493050 594.876709 -581.496704
v -101.266228 593.781128 -700.119629
v 228.811874 375.922913 -805.472656
v 230.077972 155.519867 -805.419739
v 43.052601 374.827362 -924.095581
v 44.318665 154.424271 -924.042664
v 202.913315 448.542847 -765.587158
v 17.154047 447.447327 -884.210144
v 228.393921 448.679626 -805.490112
v 42.634636 447.584045 -924.112976
v 202.306976 554.100952 -765.612549
v 16.547697 553.005371 -884.235352
v 227.787537 554.237732 -805.515503
v 42.028301 553.142151 -924.138367
v 130.671768 448.155029 -652.455811
v -55.087540 447.059448 -771.078735
v 130.065384 553.713196 -652.481140
v -55.693905 552.617554 -771.104065
v 154.939651 732.042664 -693.080322
v -30.819626 730.947083 -811.703308
v 111.275681 731.808289 -624.702026
v -74.483551 730.712646 -743.324890
v 443.393463 377.074890 -1141.510498
v 444.659576 156.671799 -1141.457642
v 257.634186 375.979309 -1260.133301
v 258.900299 155.576202 -1260.080444
v 392.390808 376.751923 -1266.401855
v 393.656921 156.348801 -1266.348999
v 273.769592 376.115112 -1080.639404
v 275.035675 155.712021 -1080.586426
v 110.451637 375.238342 -824.881104
v 111.717712 154.835281 -824.828125
v 36.539539 374.841614 -709.133728
v 37.805614 154.438492 -709.080811
v -7.124417 374.607178 -640.755371
v 1.234482 214.323395 -652.051453
v 35.277336 594.563354 -709.186462
v -8.386593 594.328918 -640.808167
v 137.198318 154.972076 -864.731140
v 135.932236 375.375122 -864.784119
v 110.033684 447.995087 -824.898682
v 135.514282 448.131805 -864.801514
v 109.427338 553.553223 -824.923950
v 134.907928 553.689941 -864.826965
v 37.792110 447.607269 -711.767334
v 37.185745 553.165405 -711.792603
v 62.059998 731.494934 -752.391846
v 18.396044 731.260437 -684.013489
v 351.779907 156.124008 -1200.769043
v 350.513824 376.527100 -1200.821899
v 438.830627 377.025787 -1236.745972
v 321.475494 155.985916 -1050.930664
v 158.157532 155.109192 -795.172485
v 84.245422 154.712387 -679.425110
v 47.674301 214.597275 -622.395752
v 182.372055 375.649017 -835.128357
v 181.954102 448.405701 -835.145813
v 181.347733 553.963806 -835.171204
v 396.953674 376.800995 -1171.166260
v 440.096741 156.622711 -1236.693237
v 320.209381 376.389008 -1050.983765
v 156.891449 375.512238 -795.225464
v 82.979347 375.115479 -679.477966
v 39.315388 374.881073 -611.099609
v 81.717178 594.837219 -679.530762
v 38.053242 594.602783 -611.152466
v 183.638153 155.245972 -835.075439
v 156.473511 448.268982 -795.242920
v 155.867142 553.827087 -795.268250
v 84.231934 447.881165 -682.111572
v 83.625565 553.439270 -682.136841
v 108.499847 731.768799 -722.736023
v 64.835876 731.534302 -654.357727
v 398.219727 156.397903 -1171.113403
v 183.875214 113.978508 -835.065552
v 137.435379 113.704590 -864.721252
v 398.456787 115.130432 -1171.103516
v 352.016998 114.856522 -1200.759155
v 275.272736 114.444534 -1080.576538
v 321.712555 114.718445 -1050.920776
v 500.649750 315.950256 -1057.970215
v 466.714203 315.768066 -1004.826721
v 467.274170 218.308090 -1004.803162
v 501.209625 218.490265 -1057.946899
v 540.791382 316.187042 -1032.336548
v 506.855865 316.004852 -979.192993
v 507.415771 218.544876 -979.169556
v 541.351257 218.727036 -1032.313110
v 602.220886 316.549347 -993.108826
v 568.285339 316.367157 -939.965210
v 568.845215 218.907211 -939.941772
v 602.780701 219.089386 -993.085449
v 641.749939 316.782501 -967.866211
v 607.814392 316.600311 -914.722656
v 608.374390 219.140335 -914.699219
v 642.309814 219.322510 -967.842773
v 829.790344 158.714996 -1846.958008
v 783.350525 158.441101 -1876.613770
v 782.084290 378.844208 -1876.666748
v 828.524231 379.118103 -1847.010986
vn 0.8428 0.0050 0.5382
vn 0.5382 0.0029 -0.8428
vn -0.8428 -0.0050 -0.5382
vn -0.0057 1.0000 -0.0002
vn 0.0057 -1.0000 0.0002
vn -0.5382 -0.0029 0.8428
vn -0.3533 -0.7492 0.5602
vn -0.5358 -0.0871 0.8398
vn -0.8435 -0.0055 -0.5371
vn 0.8435 0.0055 0.5371
vn 0.5060 -0.3480 -0.7892
vn -0.5060 0.3480 0.7892
vn 0.8264 0.0046 -0.5630
vn -0.1631 -0.0007 0.9866
vn 0.4698 -0.8312 0.2972
vn 0.4602 0.8367 0.2968
usemtl Matériau.011
s off
f 45//1 46//1 4//1 3//1
f 49//2 50//2 8//2 7//2
f 47//3 48//3 6//3 5//3
f 26//1 25//1 9//1 10//1
f 72//4 47//4 5//4 51//4
f 96//5 46//5 2//5 74//5
f 10//1 9//1 13//1 14//1
f 84//6 9//6 29//6 90//6
f 89//5 26//5 10//5 75//5
f 27//3 28//3 11//3 12//3
f 76//7 14//7 18//7 77//7
f 75//5 10//5 14//5 76//5
f 12//3 11//3 15//3 16//3
f 53//4 12//4 16//4 55//4
f 86//8 77//8 18//8 17//8
f 16//9 15//9 19//9 20//9
f 16//3 20//3 24//3 22//3
f 14//10 13//10 17//10 18//10
f 59//11 22//11 42//11 69//11
f 86//6 17//6 23//6 88//6
f 17//1 13//1 21//1 23//1
f 55//2 16//2 22//2 59//2
f 5//3 6//3 28//3 27//3
f 74//5 2//5 26//5 89//5
f 51//4 5//4 27//4 62//4
f 2//1 1//1 25//1 26//1
f 32//3 30//3 34//3 36//3
f 62//2 27//2 32//2 64//2
f 27//3 12//3 30//3 32//3
f 9//1 25//1 31//1 29//1
f 66//4 36//4 34//4 65//4
f 90//5 29//5 37//5 92//5
f 64//2 32//2 36//2 66//2
f 29//1 31//1 35//1 33//1
f 92//6 37//6 39//6 93//6
f 29//1 33//1 39//1 37//1
f 34//3 30//3 38//3 40//3
f 65//4 34//4 40//4 68//4
f 69//4 42//4 44//4 70//4
f 23//1 21//1 41//1 43//1
f 88//12 23//12 43//12 95//12
f 22//3 24//3 44//3 42//3
f 82//5 4//5 46//5 96//5
f 49//4 7//4 47//4 72//4
f 7//3 8//3 48//3 47//3
f 46//13 45//13 103//13 106//13
f 73//4 49//4 72//4 81//4
f 8//5 50//5 71//5 48//5
f 24//12 60//12 70//12 44//12
f 94//4 69//4 70//4 95//4
f 91//4 65//4 68//4 93//4
f 38//6 67//6 68//6 40//6
f 79//2 64//2 66//2 80//2
f 30//5 63//5 67//5 38//5
f 80//4 66//4 65//4 91//4
f 78//2 62//2 64//2 79//2
f 83//4 51//4 62//4 78//4
f 6//5 52//5 61//5 28//5
f 85//2 55//2 59//2 87//2
f 20//6 57//6 60//6 24//6
f 87//11 59//11 69//11 94//11
f 20//8 19//8 58//8 57//8
f 84//4 53//4 55//4 85//4
f 11//5 54//5 56//5 15//5
f 15//7 56//7 58//7 19//7
f 28//5 61//5 54//5 11//5
f 12//6 53//6 63//6 30//6
f 48//5 71//5 52//5 6//5
f 81//4 72//4 51//4 83//4
f 50//3 49//3 121//3 120//3
f 3//2 4//2 82//2 73//2
f 45//4 81//4 83//4 1//4
f 9//4 84//4 85//4 13//4
f 21//11 87//11 94//11 41//11
f 13//2 85//2 87//2 21//2
f 1//4 83//4 78//4 25//4
f 25//2 78//2 79//2 31//2
f 35//4 80//4 91//4 33//4
f 31//2 79//2 80//2 35//2
f 33//4 91//4 93//4 39//4
f 41//4 94//4 95//4 43//4
f 3//4 73//4 81//4 45//4
f 50//5 82//5 96//5 71//5
f 60//12 88//12 95//12 70//12
f 67//6 92//6 93//6 68//6
f 63//5 90//5 92//5 67//5
f 52//3 71//3 100//3 101//3
f 57//6 86//6 88//6 60//6
f 57//8 58//8 77//8 86//8
f 54//5 75//5 76//5 56//5
f 56//7 76//7 77//7 58//7
f 61//5 89//5 75//5 54//5
f 53//6 84//6 90//6 63//6
f 89//6 61//6 98//6 97//6
f 101//5 102//5 97//5 98//5
f 100//5 99//5 102//5 101//5
f 61//3 52//3 101//3 98//3
f 74//1 89//1 97//1 102//1
f 71//2 96//2 99//2 100//2
f 96//1 74//1 102//1 99//1
f 106//2 103//2 107//2 110//2
f 1//14 2//14 105//14 104//14
f 2//15 46//15 106//15 105//15
f 45//16 1//16 104//16 103//16
f 109//5 110//5 114//5 113//5
f 104//6 105//6 109//6 108//6
f 105//5 106//5 110//5 109//5
f 103//4 104//4 108//4 107//4
f 113//5 114//5 118//5 117//5
f 107//4 108//4 112//4 111//4
f 110//2 107//2 111//2 114//2
f 108//6 109//6 113//6 112//6
f 116//1 117//1 118//1 115//1
f 111//4 112//4 116//4 115//4
f 114//2 111//2 115//2 118//2
f 122//2 119//2 120//2 121//2
f 82//5 50//5 120//5 119//5
f 73//1 82//1 119//1 122//1
f 49//4 73//4 122//4 121//4
o Cube.047_Cube.022
v -287.146027 594.621887 358.993408
v -284.189667 353.995483 336.908020
v -169.917831 615.363831 148.696213
v -166.961472 374.737396 126.610870
v -469.161652 549.191040 185.394089
v -467.645844 425.815155 174.070312
v -409.055481 559.826050 77.568840
v -407.539673 436.450134 66.245064
v -29.347107 467.343384 -234.365265
v -30.895691 593.384705 -222.796844
v -141.574036 597.648926 -284.072906
v -140.025482 471.607666 -295.641327
v 60.210907 503.069275 -428.258484
v 59.072357 595.737671 -419.753113
v -22.300873 598.872864 -464.804626
v -21.162323 506.204468 -473.309998
v 114.461975 527.529236 -550.423828
v 113.629944 595.250061 -544.208252
v 54.163452 597.541260 -577.131348
v 54.995483 529.820374 -583.346924
v -284.566162 625.272095 106.866974
v -281.427612 369.817535 83.420654
v -409.018341 603.251953 330.123352
v -405.879791 347.797424 306.677032
v -83.567520 599.880737 -257.948975
v -81.923538 466.072388 -270.230286
v 27.500122 601.779419 -458.430054
v 28.708801 503.400513 -467.459595
v 97.048035 600.813721 -584.116577
v 97.931335 528.919739 -590.715210
v 163.186981 535.483765 -630.568054
v 162.354950 603.204590 -624.352478
v 145.505859 609.804321 -675.585022
v 146.389160 537.910278 -682.183655
v 103.494385 538.651733 -673.074585
v 102.662354 606.372559 -666.859009
v 197.038025 541.245911 -688.817200
v 196.205994 608.966797 -682.601624
v 179.356873 615.566467 -733.834106
v 180.240234 543.672485 -740.432739
v 137.345398 544.413879 -731.323730
v 136.513367 612.134766 -725.108154
v 238.985046 556.008789 -711.458191
v 238.449524 599.597656 -707.457458
v 227.604614 603.845581 -740.433594
v 228.173096 557.570679 -744.680786
v 168.786011 548.518555 -794.765259
v 125.891235 549.259949 -785.656311
v 125.059204 616.980774 -779.440735
v 167.902710 620.412537 -788.166626
v 268.174927 564.886230 -726.239502
v 267.813843 594.272583 -723.542358
v 260.502441 597.136475 -745.773865
v 260.885742 565.939209 -748.637268
v 290.267700 573.021851 -751.444702
v 290.041992 591.391602 -749.758667
v 285.471558 593.181885 -763.655945
v 285.711182 573.680054 -765.445862
v 155.284302 562.949524 -821.439148
v 126.762939 563.442505 -815.382324
v 126.209717 608.470947 -811.249512
v 154.696930 610.752747 -817.051575
vn 0.8744 -0.0337 0.4841
vn -0.8054 0.0444 -0.5911
vn -0.8744 0.0337 -0.4841
vn -0.2357 -0.0917 0.9675
vn -0.4314 0.8891 -0.1528
vn 0.0660 -0.9959 -0.0614
vn -0.8341 0.0402 -0.5502
vn 0.1047 0.9944 -0.0156
vn -0.2728 -0.8988 -0.3431
vn 0.9360 -0.0208 0.3515
vn -0.0426 -0.9720 -0.2312
vn 0.0960 0.9936 0.0592
vn -0.0181 -0.9798 -0.1990
vn 0.9094 -0.0269 0.4151
vn -0.0664 0.9958 0.0624
vn 0.9155 -0.0256 0.4014
vn -0.8257 0.0415 -0.5626
vn 0.1368 0.9886 0.0621
vn -0.0668 0.9965 -0.0506
vn 0.8555 -0.0369 0.5165
vn 0.1203 -0.9852 -0.1224
vn -0.0424 0.9990 -0.0174
vn 0.1610 -0.9798 -0.1185
vn 0.1288 -0.9721 -0.1961
vn -0.2954 0.9393 -0.1744
vn -0.4100 -0.8567 -0.3130
vn 0.0416 0.9918 0.1210
vn -0.9159 -0.0478 0.3985
vn -0.8656 0.0352 -0.4995
vn 0.0570 -0.9962 -0.0654
vn -0.8806 0.0326 -0.4728
vn 0.0369 0.9922 0.1189
vn 0.0613 -0.9961 -0.0636
vn -0.0420 -0.9919 -0.1200
vn -0.0590 0.9931 0.1010
vn 0.4936 -0.0735 0.8666
vn 0.0326 0.9926 0.1171
vn -0.0677 0.9959 0.0592
vn -0.0433 -0.9914 -0.1232
vn 0.8656 -0.0352 0.4995
vn -0.1419 0.0887 -0.9859
vn 0.2653 -0.9552 -0.1313
vn 0.2417 0.9693 0.0454
vn -0.1136 0.0894 -0.9895
vn -0.1297 0.9567 -0.2606
vn -0.0345 -0.9961 -0.0816
vn -0.9786 -0.0307 0.2036
vn 0.9786 0.0307 -0.2036
vn -0.5738 0.0679 -0.8162
vn 0.2084 0.9764 0.0572
vn 0.2323 -0.9651 -0.1210
vn 0.4686 -0.0750 0.8802
vn 0.9507 0.0399 -0.3075
vn 0.1984 0.9782 0.0608
vn 0.2221 -0.9679 -0.1178
vn 0.7590 -0.0502 0.6491
vn -0.2055 0.0869 -0.9748
vn -0.1069 -0.8961 -0.4307
vn 0.9018 0.0505 -0.4292
vn -0.9994 -0.0092 -0.0337
usemtl Matériau.012
s off
f 123//17 124//17 126//17 125//17
f 130//18 129//18 133//18 134//18
f 129//19 130//19 128//19 127//19
f 145//20 146//20 124//20 123//20
f 143//21 129//21 127//21 145//21
f 144//22 126//22 124//22 146//22
f 134//23 133//23 137//23 138//23
f 143//24 125//24 132//24 147//24
f 144//25 130//25 134//25 148//25
f 125//26 126//26 131//26 132//26
f 150//27 138//27 142//27 152//27
f 147//28 132//28 136//28 149//28
f 148//29 134//29 138//29 150//29
f 132//30 131//30 135//30 136//30
f 141//31 151//31 155//31 158//31
f 136//32 135//32 139//32 140//32
f 138//33 137//33 141//33 142//33
f 149//34 136//34 140//34 151//34
f 137//35 149//35 151//35 141//35
f 140//36 139//36 153//36 154//36
f 131//37 148//37 150//37 135//37
f 133//38 147//38 149//38 137//38
f 135//39 150//39 152//39 139//39
f 126//40 144//40 148//40 131//40
f 129//41 143//41 147//41 133//41
f 130//42 144//42 146//42 128//42
f 125//43 143//43 145//43 123//43
f 127//44 128//44 146//44 145//44
f 157//45 158//45 164//45 163//45
f 153//46 156//46 162//46 159//46
f 142//47 141//47 158//47 157//47
f 151//48 140//48 154//48 155//48
f 139//49 152//49 156//49 153//49
f 152//50 142//50 157//50 156//50
f 164//51 161//51 172//51 171//51
f 160//52 159//52 165//52 166//52
f 155//53 154//53 160//53 161//53
f 158//54 155//54 161//54 164//54
f 156//55 157//55 163//55 162//55
f 154//56 153//56 159//56 160//56
f 168//57 167//57 175//57 176//57
f 159//58 162//58 168//58 165//58
f 161//59 160//59 166//59 167//59
f 162//60 161//60 167//60 168//60
f 171//61 172//61 184//61 183//61
f 162//62 163//62 170//62 169//62
f 163//63 164//63 171//63 170//63
f 161//64 162//64 169//64 172//64
f 176//65 175//65 179//65 180//65
f 167//66 166//66 174//66 175//66
f 165//67 168//67 176//67 173//67
f 166//68 165//68 173//68 174//68
f 178//69 177//69 180//69 179//69
f 175//70 174//70 178//70 179//70
f 173//71 176//71 180//71 177//71
f 174//72 173//72 177//72 178//72
f 184//73 181//73 182//73 183//73
f 169//74 170//74 182//74 181//74
f 172//75 169//75 181//75 184//75
f 170//76 171//76 183//76 182//76
o Cube.048_Cube.024
v -564.318298 466.999390 182.450134
v -727.281982 342.304260 54.811867
v -422.811188 481.990814 -12.866463
v -585.774902 357.295685 -140.504730
v -678.247986 646.727295 40.858284
v -761.804016 582.792664 -24.585426
v -605.693359 654.413818 -59.286003
v -689.249390 590.479126 -124.729713
v -345.161499 460.264008 -439.369415
v -259.800323 525.579956 -372.511841
v -316.739014 633.722412 -405.463593
v -402.100220 568.406494 -472.321136
v -215.357849 496.580841 -608.849915
v -152.598389 544.602600 -559.694702
v -194.460999 624.111389 -583.921570
v -257.220459 576.089661 -633.076721
v -133.651184 522.105347 -714.388367
v -87.787354 557.199036 -678.466431
v -118.380005 615.303040 -696.171082
v -164.243835 580.209351 -732.093018
v -482.894928 587.921448 -25.544846
v -655.900940 455.542206 -161.048584
v -633.122131 572.006226 181.807816
v -806.128174 439.626984 46.304077
v -282.362244 582.010864 -391.451324
v -372.983643 512.669983 -462.428864
v -160.551575 587.006653 -585.537720
v -227.178467 536.025696 -637.721985
v -85.764465 589.017395 -708.166443
v -134.454529 551.761169 -746.302002
v -76.978210 524.917297 -789.493347
v -31.114380 560.010925 -753.571411
v -25.931335 597.350891 -792.700439
v -74.621399 560.094666 -830.835999
v -104.896423 587.694092 -815.177673
v -59.032593 622.787781 -779.255737
v -36.847046 528.080505 -843.821472
v 9.016785 563.174133 -807.899536
v 14.199768 600.514160 -847.028564
v -34.490295 563.257935 -885.164124
v -64.765381 590.857361 -869.505798
v -18.901550 625.950989 -833.583862
v 6.864136 515.350281 -864.251465
v 36.384583 537.938477 -841.130127
v 39.720642 561.972534 -866.315735
v 8.381104 537.992371 -890.861877
v -26.222961 597.038574 -928.721313
v -56.497986 624.638000 -913.062927
v -10.634155 659.731628 -877.140991
v 22.467102 634.294800 -890.585754
v 36.071228 505.317566 -878.238342
v 55.973083 520.545898 -862.650574
v 58.222168 536.749023 -879.630005
v 37.093933 520.582275 -896.178345
v 62.404846 504.393341 -900.492920
v 74.845764 513.912781 -890.748840
v 76.251770 524.041504 -901.362915
v 63.044250 513.935486 -911.707458
v -18.920105 625.923950 -943.361633
v -39.050415 644.275208 -932.950256
v -8.554993 667.609375 -909.065308
v 13.454529 650.696106 -918.004822
vn 0.4498 -0.8543 0.2603
vn -0.3715 0.8553 -0.3612
vn -0.4498 0.8543 -0.2603
vn -0.4452 -0.2865 0.8483
vn 0.3747 0.8634 0.3378
vn -0.6454 -0.5676 -0.5112
vn -0.4030 0.8566 -0.3223
vn 0.7763 0.4757 0.4137
vn -0.7386 -0.1509 -0.6570
vn 0.5307 -0.8361 0.1392
vn -0.6620 -0.4045 -0.6309
vn 0.7527 0.4501 0.4805
vn -0.6586 -0.4401 -0.6103
vn 0.4939 -0.8469 0.1968
vn 0.6448 0.5675 0.5120
vn 0.5021 -0.8449 0.1844
vn -0.3937 0.8564 -0.3340
vn 0.7758 0.4166 0.4739
vn 0.6711 0.6155 0.4132
vn 0.4275 -0.8561 0.2905
vn -0.5874 -0.5753 -0.5692
vn 0.6815 0.5853 0.4393
vn -0.5573 -0.6035 -0.5703
vn -0.5555 -0.5433 -0.6294
vn 0.5062 0.8016 0.3180
vn -0.8076 -0.0413 -0.5883
vn 0.7008 0.4625 0.5432
vn -0.7384 0.4687 0.4849
vn -0.4393 0.8553 -0.2747
vn -0.6507 -0.5596 -0.5132
vn -0.4574 0.8535 -0.2498
vn 0.6984 0.4670 0.5423
vn -0.6481 -0.5634 -0.5124
vn -0.7013 -0.4626 -0.5423
vn 0.6390 0.5443 0.5434
vn 0.0789 -0.7616 0.6433
vn 0.6962 0.4710 0.5417
vn 0.6448 0.5698 0.5095
vn -0.7012 -0.4601 -0.5447
vn 0.4393 -0.8553 0.2747
vn 0.1947 0.5658 -0.8013
vn -0.4672 -0.6601 -0.5883
vn 0.8362 0.3372 0.4326
vn 0.2149 0.5472 -0.8090
vn 0.6492 0.7276 0.2218
vn -0.7082 -0.4865 -0.5117
vn -0.7233 0.6053 0.3322
vn 0.7233 -0.6053 -0.3322
vn -0.1481 0.7953 -0.5879
vn 0.8162 0.3602 0.4518
vn -0.4987 -0.6459 -0.5780
vn 0.0579 -0.7500 0.6589
vn 0.7351 -0.5364 -0.4145
vn 0.8100 0.3669 0.4574
vn -0.5082 -0.6414 -0.5747
vn 0.3230 -0.8494 0.4174
vn 0.1483 0.6061 -0.7815
vn -0.6056 -0.2326 -0.7610
vn 0.7379 -0.4441 -0.5082
vn -0.6675 0.7319 0.1371
usemtl Matériau.012
s off
f 185//77 186//77 188//77 187//77
f 192//78 191//78 195//78 196//78
f 191//79 192//79 190//79 189//79
f 207//80 208//80 186//80 185//80
f 205//81 191//81 189//81 207//81
f 206//82 188//82 186//82 208//82
f 196//83 195//83 199//83 200//83
f 205//84 187//84 194//84 209//84
f 206//85 192//85 196//85 210//85
f 187//86 188//86 193//86 194//86
f 212//87 200//87 204//87 214//87
f 209//88 194//88 198//88 211//88
f 210//89 196//89 200//89 212//89
f 194//90 193//90 197//90 198//90
f 203//91 213//91 217//91 220//91
f 198//92 197//92 201//92 202//92
f 200//93 199//93 203//93 204//93
f 211//94 198//94 202//94 213//94
f 199//95 211//95 213//95 203//95
f 202//96 201//96 215//96 216//96
f 193//97 210//97 212//97 197//97
f 195//98 209//98 211//98 199//98
f 197//99 212//99 214//99 201//99
f 188//100 206//100 210//100 193//100
f 191//101 205//101 209//101 195//101
f 192//102 206//102 208//102 190//102
f 187//103 205//103 207//103 185//103
f 189//104 190//104 208//104 207//104
f 219//105 220//105 226//105 225//105
f 215//106 218//106 224//106 221//106
f 204//107 203//107 220//107 219//107
f 213//108 202//108 216//108 217//108
f 201//109 214//109 218//109 215//109
f 214//110 204//110 219//110 218//110
f 226//111 223//111 234//111 233//111
f 222//112 221//112 227//112 228//112
f 217//113 216//113 222//113 223//113
f 220//114 217//114 223//114 226//114
f 218//115 219//115 225//115 224//115
f 216//116 215//116 221//116 222//116
f 230//117 229//117 237//117 238//117
f 221//118 224//118 230//118 227//118
f 223//119 222//119 228//119 229//119
f 224//120 223//120 229//120 230//120
f 233//121 234//121 246//121 245//121
f 224//122 225//122 232//122 231//122
f 225//123 226//123 233//123 232//123
f 223//124 224//124 231//124 234//124
f 238//125 237//125 241//125 242//125
f 229//126 228//126 236//126 237//126
f 227//127 230//127 238//127 235//127
f 228//128 227//128 235//128 236//128
f 240//129 239//129 242//129 241//129
f 237//130 236//130 240//130 241//130
f 235//131 238//131 242//131 239//131
f 236//132 235//132 239//132 240//132
f 246//133 243//133 244//133 245//133
f 231//134 232//134 244//134 243//134
f 234//135 231//135 243//135 246//135
f 232//136 233//136 245//136 244//136
