# Blender v2.91.2 OBJ File: 'camionnete02.blend'
# www.blender.org
mtllib arme_000182.mtl
o Cube.046_Cube.010
v 122.770676 171.406372 -1235.869141
v 73.844177 -43.395493 -1229.126831
v 185.556702 150.506256 -1446.107422
v 136.630188 -64.295624 -1439.365234
v -82.760841 216.155060 -1301.697998
v -131.687378 1.353180 -1294.955811
v -19.974808 195.254944 -1511.936279
v -68.901352 -19.546974 -1505.194214
v 36.326721 200.181763 -946.412476
v -12.599777 -14.620110 -939.670227
v -218.131271 30.128540 -1005.499084
v -169.204758 244.930389 -1012.241394
v -2.794777 213.204498 -815.414246
v -51.721329 -1.597382 -808.672058
v -257.252869 43.151276 -874.500916
v -208.326340 257.953186 -881.243225
v -25.906067 220.897736 -738.026550
v -57.476871 63.328613 -746.002441
v -263.008453 108.077316 -811.831299
v -231.437637 265.646423 -803.855408
v 45.980453 427.342346 -822.135742
v -159.551056 472.090942 -887.964661
v 22.869202 435.035583 -744.747986
v -182.662308 479.784241 -810.576843
v 49.813591 195.692261 -991.572998
v 0.887066 -19.109596 -984.830750
v -155.717941 240.440918 -1057.402100
v -204.644470 25.639069 -1050.659668
v 52.477745 271.089447 -948.638184
v -153.053787 315.838135 -1014.467102
v 65.964607 266.599976 -993.798645
v -139.566910 311.348602 -1059.627563
v 75.910240 373.964966 -951.867310
v -129.621246 418.713623 -1017.696106
v 89.397034 369.475464 -997.027832
v -116.134415 414.224121 -1062.856689
v 14.240425 283.817841 -820.600830
v -191.291138 328.566498 -886.429688
v 37.672905 386.693359 -823.829895
v -167.858643 431.442017 -889.658752
v 90.936508 555.792419 -875.180908
v -114.595032 600.541077 -941.009827
v 67.825211 563.485657 -797.793213
v -137.706268 608.234314 -863.622009
v 163.391266 157.884644 -1371.886963
v 114.464767 -56.917221 -1365.144653
v -42.140228 202.633331 -1437.715820
v -91.066734 -12.168579 -1430.973389
v 82.790924 172.880585 -1479.021973
v 33.864410 -41.921303 -1472.279785
v 20.004921 193.780762 -1268.783569
v -28.921589 -21.021149 -1262.041260
v -66.439003 222.556061 -979.326843
v -115.365540 7.754211 -972.584595
v -105.560547 235.578827 -848.328735
v -147.056763 29.528259 -828.700867
v -128.671814 243.272064 -770.940979
v -150.937729 73.308029 -786.442627
v -56.785309 449.716675 -855.050171
v -79.896561 457.409912 -777.662476
v -101.878693 3.264740 -1017.745178
v -52.952187 218.066559 -1024.487549
v -50.288025 293.463806 -981.552673
v -36.801163 288.974274 -1026.713135
v -26.855492 396.339355 -984.781677
v -13.368683 391.849792 -1029.942261
v -88.525368 306.192230 -853.515259
v -65.092850 409.067749 -856.744324
v -11.829269 578.166748 -908.095337
v -34.940552 585.859924 -830.707581
v 11.698997 -34.542892 -1398.059082
v 60.625504 180.259003 -1404.801270
v 134.173859 161.693420 -1462.564697
v 22.461262 -32.208321 -1245.584106
v -63.982674 -3.432938 -956.127441
v -112.409164 21.984711 -817.603699
v -116.290115 65.764496 -775.345398
v -1.569275 206.879395 -1008.030212
v 14.581711 277.787079 -1010.255859
v 38.014175 380.662598 -1013.485046
v 112.008392 169.071808 -1388.344238
v 85.247299 -53.108475 -1455.822510
v 71.387764 182.593567 -1252.326538
v -15.056168 211.368896 -962.869751
v -54.177689 224.391663 -831.871521
v -77.288956 232.084900 -754.483765
v -5.402405 438.529480 -838.592957
v -28.513657 446.222717 -761.205200
v -50.495815 -7.922440 -1001.287964
v 1.094864 282.276642 -965.095398
v 24.527374 385.152161 -968.324524
v -37.142479 295.005035 -837.058044
v -13.709976 397.880554 -840.287048
v 39.553650 566.979614 -891.638062
v 16.442337 574.672791 -814.250366
v 63.081848 -45.730057 -1381.601929
v -59.656624 -48.141151 -1000.025574
v -111.039520 -36.954002 -1016.482788
v 53.920967 -85.948776 -1380.339600
v 2.538170 -74.761635 -1396.796753
v -38.082443 -61.239883 -1260.778931
v 13.300468 -72.427040 -1244.321655
v 225.058716 82.882599 -1304.319946
v 207.096695 88.861786 -1244.174316
v 185.462021 -6.121445 -1241.192871
v 203.423889 -12.100586 -1301.338623
v 269.473022 73.212677 -1290.094727
v 251.511017 79.191818 -1229.949097
v 229.876251 -15.791359 -1226.967651
v 247.838226 -21.770531 -1287.113403
v 337.441040 58.414581 -1268.325806
v 319.479004 64.393738 -1208.179932
v 297.844177 -30.589432 -1205.198608
v 315.806183 -36.568604 -1265.344360
v 381.177612 48.892166 -1254.317627
v 363.215515 54.871338 -1194.171875
v 341.580902 -40.111839 -1191.190552
v 359.542786 -46.090996 -1251.336182
v 291.511810 -121.769196 -2146.495117
v 240.128937 -110.582054 -2162.952637
v 289.055328 104.219879 -2169.694824
v 340.438293 93.032700 -2153.237793
v 25.111214 636.557678 -929.293762
v -69.581894 657.174377 -959.622742
v 3.815445 643.646545 -857.985046
v -90.877640 664.263245 -888.313965
v 98.508514 623.029846 -827.656311
v 119.804382 615.940979 -898.964844
v 72.457870 626.249451 -914.129272
v 51.161980 633.338135 -842.820679
vn 0.9325 -0.2030 0.2987
vn 0.2849 -0.0948 -0.9539
vn -0.9325 0.2030 -0.2987
vn 0.2220 0.9746 -0.0306
vn -0.2220 -0.9746 0.0306
vn -0.2849 0.0948 0.9539
vn -0.3552 -0.6653 0.6567
vn -0.3038 -0.9520 0.0371
vn -0.3836 0.0014 0.9235
vn -0.9330 0.2027 -0.2974
vn 0.9330 -0.2027 0.2974
vn 0.1889 -0.4306 -0.8826
vn 0.1865 -0.4374 -0.8797
vn -0.1889 0.4306 0.8826
vn 0.6288 -0.1671 -0.7594
vn -0.7933 0.5352 -0.2901
vn -0.2680 -0.0250 0.9631
vn -0.1928 -0.9784 0.0742
vn -0.1607 0.5074 0.8466
vn -0.3137 -0.0454 0.9484
vn -0.2402 -0.9662 0.0933
vn 0.1051 0.0073 0.9944
vn 0.3294 -0.9248 0.1903
vn 0.6997 0.7008 0.1393
vn 0.9008 -0.3136 0.3002
usemtl Matériau.011
s off
f 45//1 46//1 4//1 3//1
f 49//2 50//2 8//2 7//2
f 47//3 48//3 6//3 5//3
f 26//1 25//1 9//1 10//1
f 72//4 47//4 5//4 51//4
f 96//5 46//5 2//5 74//5
f 10//1 9//1 13//1 14//1
f 84//6 9//6 29//6 90//6
f 89//5 26//5 10//5 75//5
f 27//3 28//3 11//3 12//3
f 76//7 14//7 18//7 77//7
f 75//8 10//8 14//8 76//8
f 12//3 11//3 15//3 16//3
f 53//4 12//4 16//4 55//4
f 86//9 77//9 18//9 17//9
f 16//10 15//10 19//10 20//10
f 16//3 20//3 24//3 22//3
f 14//11 13//11 17//11 18//11
f 59//12 22//12 42//12 69//12
f 86//6 17//6 23//6 88//6
f 17//1 13//1 21//1 23//1
f 55//2 16//2 22//2 59//2
f 5//3 6//3 28//3 27//3
f 74//5 2//5 26//5 89//5
f 51//4 5//4 27//4 62//4
f 2//1 1//1 25//1 26//1
f 32//3 30//3 34//3 36//3
f 62//2 27//2 32//2 64//2
f 27//3 12//3 30//3 32//3
f 9//1 25//1 31//1 29//1
f 66//4 36//4 34//4 65//4
f 90//5 29//5 37//5 92//5
f 64//2 32//2 36//2 66//2
f 29//1 31//1 35//1 33//1
f 92//6 37//6 39//6 93//6
f 29//1 33//1 39//1 37//1
f 34//3 30//3 38//3 40//3
f 65//4 34//4 40//4 68//4
f 69//13 42//13 124//13 123//13
f 23//1 21//1 41//1 43//1
f 88//14 23//14 43//14 95//14
f 22//3 24//3 44//3 42//3
f 82//5 4//5 46//5 96//5
f 49//4 7//4 47//4 72//4
f 7//3 8//3 48//3 47//3
f 46//15 45//15 103//15 106//15
f 73//4 49//4 72//4 81//4
f 8//5 50//5 71//5 48//5
f 24//14 60//14 70//14 44//14
f 42//16 44//16 126//16 124//16
f 91//4 65//4 68//4 93//4
f 38//6 67//6 68//6 40//6
f 79//2 64//2 66//2 80//2
f 30//5 63//5 67//5 38//5
f 80//4 66//4 65//4 91//4
f 78//2 62//2 64//2 79//2
f 83//4 51//4 62//4 78//4
f 6//5 52//5 61//5 28//5
f 85//2 55//2 59//2 87//2
f 20//6 57//6 60//6 24//6
f 87//12 59//12 69//12 94//12
f 20//17 19//17 58//17 57//17
f 84//4 53//4 55//4 85//4
f 11//18 54//18 56//18 15//18
f 15//7 56//7 58//7 19//7
f 28//5 61//5 54//5 11//5
f 12//6 53//6 63//6 30//6
f 48//5 71//5 52//5 6//5
f 81//4 72//4 51//4 83//4
f 50//3 49//3 121//3 120//3
f 3//2 4//2 82//2 73//2
f 45//4 81//4 83//4 1//4
f 9//4 84//4 85//4 13//4
f 21//12 87//12 94//12 41//12
f 13//2 85//2 87//2 21//2
f 1//4 83//4 78//4 25//4
f 25//2 78//2 79//2 31//2
f 35//4 80//4 91//4 33//4
f 31//2 79//2 80//2 35//2
f 33//4 91//4 93//4 39//4
f 70//19 95//19 130//19 125//19
f 3//4 73//4 81//4 45//4
f 50//5 82//5 96//5 71//5
f 60//14 88//14 95//14 70//14
f 67//6 92//6 93//6 68//6
f 63//5 90//5 92//5 67//5
f 52//3 71//3 100//3 101//3
f 57//6 86//6 88//6 60//6
f 57//20 58//20 77//20 86//20
f 54//21 75//21 76//21 56//21
f 56//7 76//7 77//7 58//7
f 61//5 89//5 75//5 54//5
f 53//6 84//6 90//6 63//6
f 89//6 61//6 98//6 97//6
f 101//5 102//5 97//5 98//5
f 100//5 99//5 102//5 101//5
f 61//3 52//3 101//3 98//3
f 74//1 89//1 97//1 102//1
f 71//2 96//2 99//2 100//2
f 96//1 74//1 102//1 99//1
f 106//2 103//2 107//2 110//2
f 1//22 2//22 105//22 104//22
f 2//23 46//23 106//23 105//23
f 45//24 1//24 104//24 103//24
f 109//5 110//5 114//5 113//5
f 104//6 105//6 109//6 108//6
f 105//5 106//5 110//5 109//5
f 103//4 104//4 108//4 107//4
f 113//5 114//5 118//5 117//5
f 107//4 108//4 112//4 111//4
f 110//2 107//2 111//2 114//2
f 108//6 109//6 113//6 112//6
f 116//1 117//1 118//1 115//1
f 111//4 112//4 116//4 115//4
f 114//2 111//2 115//2 118//2
f 122//2 119//2 120//2 121//2
f 82//5 50//5 120//5 119//5
f 73//1 82//1 119//1 122//1
f 49//4 73//4 122//4 121//4
f 123//4 124//4 126//4 125//4
f 129//4 123//4 125//4 130//4
f 128//4 129//4 130//4 127//4
f 95//19 43//19 127//19 130//19
f 94//13 69//13 123//13 129//13
f 43//25 41//25 128//25 127//25
f 44//19 70//19 125//19 126//19
f 41//13 94//13 129//13 128//13
o Cube.048_Cube.024
v -494.448486 543.788940 152.036469
v -676.337219 407.085266 70.635475
v -369.186646 496.980896 -49.249504
v -550.807007 359.596222 -130.886871
v -606.344299 692.776184 -22.927666
v -699.603638 622.684387 -64.664207
v -542.119019 668.776367 -126.132622
v -634.922913 598.638000 -167.278473
v -373.545166 397.667786 -491.009979
v -261.125641 439.819458 -450.913666
v -298.560760 559.013794 -471.259674
v -410.980255 516.862122 -511.355988
v -287.893951 408.465576 -689.601990
v -205.240479 439.456482 -660.122253
v -232.763641 527.090820 -675.080994
v -315.416992 496.099945 -704.560852
v -233.074402 417.821716 -813.590454
v -172.672424 440.469482 -792.047058
v -192.785950 504.511505 -802.978821
v -253.187805 481.863770 -824.522278
v -422.060120 601.501404 -84.450752
v -614.333984 456.435120 -169.669922
v -555.132263 651.291321 129.199493
v -748.229492 506.163513 42.782352
v -274.410431 500.440735 -465.083038
v -393.757629 455.691528 -507.650177
v -209.820068 483.302948 -684.324280
v -297.566772 450.402344 -715.620544
v -171.311829 471.855286 -822.240967
v -235.436005 447.811981 -845.111877
v -198.935547 409.873413 -900.950928
v -138.533508 432.521088 -879.407715
v -135.421082 468.840149 -919.699585
v -199.545074 444.796783 -942.570679
v -217.566345 478.090332 -920.428650
v -157.164368 500.738068 -898.885193
v -174.794312 405.419586 -963.954285
v -114.392334 428.067322 -942.410950
v -111.279846 464.386322 -982.703064
v -175.403992 440.343048 -1005.573914
v -193.425171 473.636566 -983.431946
v -133.023254 496.284180 -961.888611
v -142.037659 383.679047 -994.686462
v -103.159485 398.256348 -980.820007
v -101.156067 421.633301 -1006.754089
v -142.430054 406.157684 -1021.475037
v -171.366943 472.626434 -1050.830933
v -189.388306 505.919983 -1028.688721
v -128.986267 528.567627 -1007.145569
v -107.242798 496.669800 -1027.959839
v -120.585266 367.676514 -1015.496399
v -94.374817 377.504089 -1006.148010
v -93.024109 393.264160 -1023.632141
v -120.849792 382.830994 -1033.556519
v -101.920288 361.437988 -1043.820923
v -85.535950 367.581390 -1037.977173
v -84.691528 377.433167 -1048.906738
v -102.085754 370.911255 -1055.110718
v -161.779480 499.509735 -1067.784180
v -173.761963 521.646973 -1053.061401
v -133.599976 536.705688 -1038.737061
v -119.142578 515.496460 -1052.576904
v -273.307281 461.014282 443.820648
v -372.275787 261.288544 350.480255
v -124.966797 478.526184 250.225281
v -228.598511 280.457367 157.123169
v -429.625977 551.707947 263.073761
v -480.369904 449.302979 215.215546
v -345.135010 562.358276 162.625763
v -406.702606 459.131348 116.075920
v -187.907715 257.604523 -117.683144
v -109.164124 193.868469 -44.465965
v -13.136841 227.217529 -116.472618
v -89.070923 289.974915 -189.836487
v -198.609772 80.166260 -241.346497
v -142.346863 29.966431 -186.798035
v -69.679871 53.765930 -239.846741
v -125.942810 103.965698 -294.395355
v -202.485626 -31.477356 -318.719391
v -161.369446 -68.162598 -278.855988
v -108.265381 -50.770386 -317.623260
v -149.381531 -14.085083 -357.486694
v -203.138550 548.453979 211.243958
v -326.172394 340.188690 113.492844
v -373.636230 531.872070 417.857574
v -478.703491 319.838562 318.765259
v -60.488342 198.917480 -80.503120
v -141.729126 271.403381 -159.268311
v -107.251953 25.187866 -222.501434
v -166.981995 78.481201 -280.411285
v -137.830994 -82.389282 -312.651550
v -181.480896 -43.443298 -354.971283
v -220.071472 -107.847290 -370.862213
v -178.955261 -144.532471 -330.998810
v -152.473145 -165.162048 -373.722992
v -196.123138 -126.215820 -416.042877
v -164.476318 -95.873596 -417.185699
v -123.360168 -132.559021 -377.322357
v -231.666931 -162.394348 -409.100891
v -190.550690 -199.079712 -369.237518
v -164.068665 -219.709229 -411.961761
v -207.718597 -180.763184 -454.281464
v -176.071716 -150.420837 -455.424408
v -134.955505 -187.106018 -415.561066
v -250.544189 -208.529053 -411.413239
v -224.079712 -232.141785 -385.754974
v -207.034363 -245.420227 -413.254608
v -235.129761 -220.352417 -440.493927
v -185.874878 -205.243347 -499.340118
v -154.227966 -174.900757 -500.483124
v -113.111816 -211.586304 -460.619843
v -142.224976 -244.189209 -457.020416
v -264.719238 -239.287720 -412.932098
v -246.877533 -255.206726 -395.634003
v -235.386108 -264.158875 -414.173615
v -254.327209 -247.258789 -432.537628
v -271.975250 -270.774841 -424.995026
v -260.822113 -280.725830 -414.181732
v -253.638702 -286.321594 -425.770905
v -265.479004 -275.757385 -437.250458
v -161.702515 -219.684814 -516.923950
v -140.660095 -199.509766 -517.683899
v -113.321533 -223.902222 -491.178070
v -132.679138 -245.580505 -488.784821
vn 0.4062 -0.8007 0.4403
vn -0.2933 0.8511 -0.4355
vn -0.4064 0.8001 -0.4413
vn -0.3920 -0.0260 0.9196
vn 0.4647 0.8815 0.0840
vn -0.7281 -0.6098 -0.3131
vn -0.2675 0.9350 -0.2328
vn 0.8858 0.4162 0.2053
vn -0.8358 -0.1588 -0.5255
vn 0.4526 -0.8710 0.1913
vn -0.8781 -0.2243 -0.4226
vn 0.9341 0.2524 0.2524
vn -0.8776 -0.2603 -0.4026
vn 0.3222 -0.9426 0.0877
vn 0.8679 0.3903 0.3073
vn 0.3270 -0.9421 0.0735
vn -0.2619 0.9331 -0.2466
vn 0.9465 0.2147 0.2410
vn 0.8776 0.4340 0.2036
vn 0.2823 -0.9391 0.1958
vn -0.8308 -0.4093 -0.3771
vn 0.8873 0.4014 0.2269
vn -0.8092 -0.4436 -0.3852
vn -0.7163 -0.5438 -0.4373
vn 0.6306 0.7672 0.1171
vn -0.8523 -0.1148 -0.5103
vn 0.7762 0.5152 0.3633
vn -0.6583 0.6400 0.3962
vn -0.2894 0.9406 -0.1774
vn -0.8719 -0.3813 -0.3072
vn -0.3003 0.9422 -0.1486
vn 0.9033 0.2794 0.3257
vn -0.8702 -0.3856 -0.3068
vn -0.9050 -0.2745 -0.3251
vn 0.8654 0.3682 0.3398
vn 0.0691 -0.7782 0.6242
vn 0.9019 0.2838 0.3255
vn 0.8677 0.3926 0.3047
vn -0.9049 -0.2720 -0.3275
vn 0.2894 -0.9406 0.1774
vn 0.1016 0.5300 -0.8419
vn -0.7423 -0.5186 -0.4243
vn 0.9742 0.1250 0.1879
vn 0.1143 0.5075 -0.8540
vn 0.8324 0.5537 0.0211
vn -0.9088 -0.2971 -0.2930
vn -0.4539 0.7441 0.4903
vn 0.4539 -0.7441 -0.4903
vn -0.1119 0.8251 -0.5537
vn 0.9657 0.1513 0.2110
vn -0.7659 -0.4980 -0.4066
vn 0.0561 -0.7627 0.6444
vn 0.4590 -0.6773 -0.5750
vn 0.9629 0.1591 0.2178
vn -0.7730 -0.4915 -0.4011
vn 0.2190 -0.9126 0.3453
vn 0.0724 0.5792 -0.8120
vn -0.8201 -0.0659 -0.5684
vn 0.4581 -0.5853 -0.6690
vn -0.4237 0.8603 0.2835
vn 0.6836 -0.5648 0.4623
vn 0.1951 0.8395 -0.5071
vn -0.6667 0.5794 -0.4689
vn -0.3896 -0.2244 0.8932
vn 0.0424 0.9915 0.1232
vn -0.3662 -0.8592 -0.3573
vn 0.7625 0.1933 -0.6174
vn 0.9504 0.3030 -0.0709
vn -0.7794 -0.2728 -0.5641
vn 0.1915 -0.8556 0.4810
vn -0.5220 0.4850 -0.7017
vn 0.5108 -0.6213 0.5942
vn -0.5516 0.4917 -0.6738
vn -0.7795 -0.3196 0.5387
vn 0.6516 -0.5218 0.5506
vn -0.7921 -0.3289 0.5143
vn 0.7629 0.1804 -0.6209
vn 0.4913 -0.6409 0.5898
vn 0.6732 -0.5813 0.4570
vn -0.7743 -0.2254 0.5913
vn -0.6751 0.4513 -0.5836
vn 0.6757 -0.5639 0.4747
vn -0.7038 0.4254 -0.5689
vn -0.7019 -0.6910 -0.1729
vn 0.6182 0.7099 -0.3375
vn -0.6920 -0.4563 -0.5594
vn 0.4572 0.7782 0.4305
vn -0.8923 0.2749 0.3580
vn 0.7779 0.2414 -0.5802
vn -0.6440 0.5262 -0.5553
vn 0.7828 0.2661 -0.5625
vn 0.5596 -0.5527 0.6176
vn -0.6476 0.5244 -0.5528
vn -0.5553 0.5549 -0.6194
vn 0.6370 -0.5045 0.5829
vn -0.5844 0.1997 0.7865
vn 0.5635 -0.5512 0.6154
vn 0.6532 -0.5228 0.5477
vn -0.5534 0.5538 -0.6221
vn -0.7779 -0.2414 0.5802
vn 0.3463 -0.4846 -0.8032
vn -0.7662 0.3408 -0.5447
vn 0.4022 -0.7017 0.5881
vn 0.3257 -0.5041 -0.7999
vn 0.7359 -0.6297 0.2487
vn -0.5707 0.5731 -0.5881
vn 0.6935 0.7184 -0.0541
vn -0.6935 -0.7184 0.0541
vn 0.6330 -0.1213 -0.7646
vn 0.4298 -0.6795 0.5945
vn -0.7489 0.3722 -0.5483
vn -0.5687 0.2230 0.7918
vn -0.6472 -0.7616 -0.0334
vn 0.4380 -0.6727 0.5963
vn -0.7434 0.3817 -0.5492
vn -0.7332 -0.0893 0.6741
vn 0.3919 -0.4392 -0.8084
vn -0.3890 0.3740 -0.8419
vn -0.5806 -0.8022 -0.1394
vn 0.7667 0.5936 -0.2445
usemtl Matériau.012
s off
f 131//26 132//26 134//26 133//26
f 138//27 137//27 141//27 142//27
f 137//28 138//28 136//28 135//28
f 153//29 154//29 132//29 131//29
f 151//30 137//30 135//30 153//30
f 152//31 134//31 132//31 154//31
f 142//32 141//32 145//32 146//32
f 151//33 133//33 140//33 155//33
f 152//34 138//34 142//34 156//34
f 133//35 134//35 139//35 140//35
f 158//36 146//36 150//36 160//36
f 155//37 140//37 144//37 157//37
f 156//38 142//38 146//38 158//38
f 140//39 139//39 143//39 144//39
f 149//40 159//40 163//40 166//40
f 144//41 143//41 147//41 148//41
f 146//42 145//42 149//42 150//42
f 157//43 144//43 148//43 159//43
f 145//44 157//44 159//44 149//44
f 148//45 147//45 161//45 162//45
f 139//46 156//46 158//46 143//46
f 141//47 155//47 157//47 145//47
f 143//48 158//48 160//48 147//48
f 134//49 152//49 156//49 139//49
f 137//50 151//50 155//50 141//50
f 138//51 152//51 154//51 136//51
f 133//52 151//52 153//52 131//52
f 135//53 136//53 154//53 153//53
f 165//54 166//54 172//54 171//54
f 161//55 164//55 170//55 167//55
f 150//56 149//56 166//56 165//56
f 159//57 148//57 162//57 163//57
f 147//58 160//58 164//58 161//58
f 160//59 150//59 165//59 164//59
f 172//60 169//60 180//60 179//60
f 168//61 167//61 173//61 174//61
f 163//62 162//62 168//62 169//62
f 166//63 163//63 169//63 172//63
f 164//64 165//64 171//64 170//64
f 162//65 161//65 167//65 168//65
f 176//66 175//66 183//66 184//66
f 167//67 170//67 176//67 173//67
f 169//68 168//68 174//68 175//68
f 170//69 169//69 175//69 176//69
f 179//70 180//70 192//70 191//70
f 170//71 171//71 178//71 177//71
f 171//72 172//72 179//72 178//72
f 169//73 170//73 177//73 180//73
f 184//74 183//74 187//74 188//74
f 175//75 174//75 182//75 183//75
f 173//76 176//76 184//76 181//76
f 174//77 173//77 181//77 182//77
f 186//78 185//78 188//78 187//78
f 183//79 182//79 186//79 187//79
f 181//80 184//80 188//80 185//80
f 182//81 181//81 185//81 186//81
f 192//82 189//82 190//82 191//82
f 177//83 178//83 190//83 189//83
f 180//84 177//84 189//84 192//84
f 178//85 179//85 191//85 190//85
f 193//86 194//86 196//86 195//86
f 200//87 199//87 203//87 204//87
f 199//88 200//88 198//88 197//88
f 215//89 216//89 194//89 193//89
f 213//90 199//90 197//90 215//90
f 214//91 196//91 194//91 216//91
f 204//92 203//92 207//92 208//92
f 213//93 195//93 202//93 217//93
f 214//94 200//94 204//94 218//94
f 195//95 196//95 201//95 202//95
f 220//96 208//96 212//96 222//96
f 217//97 202//97 206//97 219//97
f 218//98 204//98 208//98 220//98
f 202//99 201//99 205//99 206//99
f 211//100 221//100 225//100 228//100
f 206//101 205//101 209//101 210//101
f 208//102 207//102 211//102 212//102
f 219//103 206//103 210//103 221//103
f 207//104 219//104 221//104 211//104
f 210//105 209//105 223//105 224//105
f 201//106 218//106 220//106 205//106
f 203//107 217//107 219//107 207//107
f 205//108 220//108 222//108 209//108
f 196//109 214//109 218//109 201//109
f 199//110 213//110 217//110 203//110
f 200//111 214//111 216//111 198//111
f 195//112 213//112 215//112 193//112
f 197//113 198//113 216//113 215//113
f 227//114 228//114 234//114 233//114
f 223//115 226//115 232//115 229//115
f 212//116 211//116 228//116 227//116
f 221//117 210//117 224//117 225//117
f 209//118 222//118 226//118 223//118
f 222//119 212//119 227//119 226//119
f 234//120 231//120 242//120 241//120
f 230//121 229//121 235//121 236//121
f 225//122 224//122 230//122 231//122
f 228//123 225//123 231//123 234//123
f 226//124 227//124 233//124 232//124
f 224//125 223//125 229//125 230//125
f 238//126 237//126 245//126 246//126
f 229//127 232//127 238//127 235//127
f 231//128 230//128 236//128 237//128
f 232//129 231//129 237//129 238//129
f 241//130 242//130 254//130 253//130
f 232//131 233//131 240//131 239//131
f 233//132 234//132 241//132 240//132
f 231//133 232//133 239//133 242//133
f 246//134 245//134 249//134 250//134
f 237//135 236//135 244//135 245//135
f 235//136 238//136 246//136 243//136
f 236//137 235//137 243//137 244//137
f 248//138 247//138 250//138 249//138
f 245//139 244//139 248//139 249//139
f 243//140 246//140 250//140 247//140
f 244//141 243//141 247//141 248//141
f 254//142 251//142 252//142 253//142
f 239//143 240//143 252//143 251//143
f 242//144 239//144 251//144 254//144
f 240//145 241//145 253//145 252//145
