# Blender v2.91.2 OBJ File: 'camionnete02.blend'
# www.blender.org
mtllib arme_000226.mtl
o Cube.046_Cube.010
v 223.740570 224.769394 -1112.245483
v 183.656067 11.569504 -1151.208740
v 345.922546 235.267319 -1295.385864
v 305.838074 22.067398 -1334.349365
v 44.732513 279.675659 -1228.523193
v 4.648010 66.475754 -1267.486450
v 166.914490 290.173523 -1411.663574
v 126.830017 76.973648 -1450.627075
v 55.520142 210.315903 -860.097351
v 15.435638 -2.883987 -899.060608
v -163.572388 52.022232 -1015.338257
v -123.487885 265.222107 -976.374939
v -20.610611 203.774704 -745.983643
v -60.695114 -9.425156 -784.946960
v -239.703217 45.481064 -901.224670
v -199.618698 258.680969 -862.261353
v -65.585297 199.910507 -678.570435
v -87.091446 45.430038 -718.087891
v -266.099548 100.336288 -834.365540
v -244.593384 254.816757 -794.848083
v 19.349945 416.315552 -707.140869
v -159.658096 471.221802 -823.418579
v -25.624695 412.451294 -639.727661
v -204.632736 467.357544 -756.005371
v 81.765656 212.570877 -899.437012
v 41.681122 -0.628967 -938.400330
v -97.242416 267.477173 -1015.714783
v -137.326935 54.277267 -1054.677979
v 68.752319 280.694763 -847.235229
v -110.255692 335.601074 -963.512939
v 94.997803 282.949768 -886.574951
v -84.010239 337.855957 -1002.852539
v 87.950134 382.803101 -828.574524
v -91.057922 437.709229 -944.852051
v 114.195557 385.058044 -867.914246
v -64.812439 439.964294 -984.191956
v -5.657745 274.301453 -735.700745
v -184.665833 329.207642 -851.978455
v 13.540009 376.409790 -717.039978
v -165.468079 431.315918 -833.317627
v 72.622620 551.068542 -725.522949
v -106.385452 605.974731 -841.800781
v 27.647949 547.204346 -658.109863
v -151.360077 602.110535 -774.387573
v 302.788513 231.561203 -1230.731812
v 262.704041 18.361343 -1269.695190
v 123.780457 286.467468 -1347.009399
v 83.695984 73.267532 -1385.972778
v 256.418518 262.720459 -1353.524902
v 216.334045 49.520493 -1392.488281
v 134.236572 252.222519 -1170.384399
v 94.152039 39.022629 -1209.347656
v -33.983871 237.768997 -918.236084
v -74.068390 24.569107 -957.199341
v -110.114639 231.227859 -804.122498
v -147.209961 24.725693 -827.463989
v -155.089294 227.363602 -736.709290
v -165.009064 61.714737 -782.380798
v -70.154083 443.768677 -765.279602
v -115.128723 439.904419 -697.866516
v -47.822906 26.824142 -996.539185
v -7.738388 240.023972 -957.575928
v -20.751678 308.147888 -905.374146
v 5.493774 310.402832 -944.713745
v -1.553894 410.256165 -886.713257
v 24.691559 412.511169 -926.053040
v -95.161789 301.754578 -793.839600
v -75.964020 403.862854 -775.178711
v -16.881424 578.521729 -783.661865
v -61.856094 574.657410 -716.248718
v 173.199982 45.814438 -1327.833984
v 213.284515 259.014343 -1288.870605
v 301.170532 248.993820 -1324.455444
v 138.904053 25.296066 -1180.278198
v -29.316360 10.842575 -928.130005
v -117.033569 15.469864 -807.862427
v -134.832672 52.458878 -762.779236
v 37.013611 226.297409 -928.506470
v 50.245789 296.676331 -915.644348
v 69.443542 398.784546 -896.983643
v 258.036499 245.287766 -1259.801147
v 261.086090 35.793991 -1363.418701
v 178.988556 238.496017 -1141.315063
v 10.768127 224.042435 -889.166748
v -65.362640 217.501297 -775.053040
v -110.337303 213.637039 -707.639832
v -25.402039 430.042114 -736.210266
v -70.376694 426.177856 -668.797058
v -3.070892 13.097580 -967.469788
v 24.000336 294.421387 -876.304749
v 43.198120 396.529602 -857.643921
v -50.409790 288.028015 -764.770203
v -31.212006 390.136292 -746.109314
v 27.870605 564.795105 -754.592407
v -17.104080 560.930786 -687.179260
v 217.951965 32.087906 -1298.764526
v -10.576141 -26.821182 -974.765076
v -55.328186 -13.094650 -1003.834473
v 210.446716 -7.830856 -1306.059937
v 165.694733 5.895645 -1335.129272
v 86.646759 -0.896133 -1216.642944
v 131.398804 -14.622696 -1187.573608
v 345.023376 147.058456 -1159.535156
v 310.069153 144.055191 -1107.141724
v 292.344360 49.780350 -1124.370728
v 327.298462 52.783646 -1176.764404
v 383.706177 135.193527 -1134.408203
v 348.751892 132.190262 -1082.014771
v 331.027039 37.915451 -1099.243896
v 365.981201 40.918747 -1151.637451
v 442.903076 117.036423 -1095.956055
v 407.948792 114.033127 -1043.562500
v 390.223877 19.758347 -1060.791748
v 425.178101 22.761642 -1113.185303
v 480.995483 105.352524 -1071.212524
v 446.041260 102.349228 -1018.819031
v 428.316406 8.074448 -1036.048096
v 463.270569 11.077744 -1088.441650
v 662.477478 70.281693 -1965.069702
v 617.725525 84.008224 -1994.139160
v 657.809875 297.208191 -1955.175781
v 702.561890 283.481628 -1926.106445
v 22.257111 639.276062 -784.403809
v -60.216019 664.572571 -837.975708
v -19.184616 635.715332 -722.286133
v -101.657715 661.011841 -775.857971
v 63.288513 610.418823 -668.714417
v 104.730286 613.979492 -730.831909
v 63.493713 626.627930 -757.617737
v 22.051941 623.067017 -695.500305
vn 0.8122 -0.2491 0.5276
vn 0.5543 0.0476 -0.8309
vn -0.8122 0.2491 -0.5276
vn 0.1819 0.9673 0.1768
vn -0.1819 -0.9673 -0.1768
vn -0.5543 -0.0476 0.8309
vn -0.5043 -0.7545 0.4200
vn -0.2628 -0.9457 -0.1915
vn -0.6361 -0.1351 0.7597
vn -0.8130 0.2486 -0.5265
vn 0.8130 -0.2486 0.5265
vn 0.4554 -0.2946 -0.8401
vn 0.4525 -0.3018 -0.8391
vn -0.4554 0.2946 0.8401
vn 0.8292 -0.0542 -0.5563
vn -0.6950 0.5757 -0.4307
vn -0.5361 -0.1675 0.8274
vn -0.1665 -0.9777 -0.1276
vn -0.4210 0.3758 0.8255
vn -0.5746 -0.1854 0.7971
vn -0.2180 -0.9683 -0.1217
vn -0.1900 -0.1418 0.9715
vn 0.2965 -0.9442 0.1437
vn 0.5998 0.6693 0.4385
vn 0.7859 -0.3586 0.5038
usemtl Matériau.011
s off
f 45//1 46//1 4//1 3//1
f 49//2 50//2 8//2 7//2
f 47//3 48//3 6//3 5//3
f 26//1 25//1 9//1 10//1
f 72//4 47//4 5//4 51//4
f 96//5 46//5 2//5 74//5
f 10//1 9//1 13//1 14//1
f 84//6 9//6 29//6 90//6
f 89//5 26//5 10//5 75//5
f 27//3 28//3 11//3 12//3
f 76//7 14//7 18//7 77//7
f 75//8 10//8 14//8 76//8
f 12//3 11//3 15//3 16//3
f 53//4 12//4 16//4 55//4
f 86//9 77//9 18//9 17//9
f 16//10 15//10 19//10 20//10
f 16//3 20//3 24//3 22//3
f 14//11 13//11 17//11 18//11
f 59//12 22//12 42//12 69//12
f 86//6 17//6 23//6 88//6
f 17//1 13//1 21//1 23//1
f 55//2 16//2 22//2 59//2
f 5//3 6//3 28//3 27//3
f 74//5 2//5 26//5 89//5
f 51//4 5//4 27//4 62//4
f 2//1 1//1 25//1 26//1
f 32//3 30//3 34//3 36//3
f 62//2 27//2 32//2 64//2
f 27//3 12//3 30//3 32//3
f 9//1 25//1 31//1 29//1
f 66//4 36//4 34//4 65//4
f 90//5 29//5 37//5 92//5
f 64//2 32//2 36//2 66//2
f 29//1 31//1 35//1 33//1
f 92//6 37//6 39//6 93//6
f 29//1 33//1 39//1 37//1
f 34//3 30//3 38//3 40//3
f 65//4 34//4 40//4 68//4
f 69//13 42//13 124//13 123//13
f 23//1 21//1 41//1 43//1
f 88//14 23//14 43//14 95//14
f 22//3 24//3 44//3 42//3
f 82//5 4//5 46//5 96//5
f 49//4 7//4 47//4 72//4
f 7//3 8//3 48//3 47//3
f 46//15 45//15 103//15 106//15
f 73//4 49//4 72//4 81//4
f 8//5 50//5 71//5 48//5
f 24//14 60//14 70//14 44//14
f 42//16 44//16 126//16 124//16
f 91//4 65//4 68//4 93//4
f 38//6 67//6 68//6 40//6
f 79//2 64//2 66//2 80//2
f 30//5 63//5 67//5 38//5
f 80//4 66//4 65//4 91//4
f 78//2 62//2 64//2 79//2
f 83//4 51//4 62//4 78//4
f 6//5 52//5 61//5 28//5
f 85//2 55//2 59//2 87//2
f 20//6 57//6 60//6 24//6
f 87//12 59//12 69//12 94//12
f 20//17 19//17 58//17 57//17
f 84//4 53//4 55//4 85//4
f 11//18 54//18 56//18 15//18
f 15//7 56//7 58//7 19//7
f 28//5 61//5 54//5 11//5
f 12//6 53//6 63//6 30//6
f 48//5 71//5 52//5 6//5
f 81//4 72//4 51//4 83//4
f 50//3 49//3 121//3 120//3
f 3//2 4//2 82//2 73//2
f 45//4 81//4 83//4 1//4
f 9//4 84//4 85//4 13//4
f 21//12 87//12 94//12 41//12
f 13//2 85//2 87//2 21//2
f 1//4 83//4 78//4 25//4
f 25//2 78//2 79//2 31//2
f 35//4 80//4 91//4 33//4
f 31//2 79//2 80//2 35//2
f 33//4 91//4 93//4 39//4
f 70//19 95//19 130//19 125//19
f 3//4 73//4 81//4 45//4
f 50//5 82//5 96//5 71//5
f 60//14 88//14 95//14 70//14
f 67//6 92//6 93//6 68//6
f 63//5 90//5 92//5 67//5
f 52//3 71//3 100//3 101//3
f 57//6 86//6 88//6 60//6
f 57//20 58//20 77//20 86//20
f 54//21 75//21 76//21 56//21
f 56//7 76//7 77//7 58//7
f 61//5 89//5 75//5 54//5
f 53//6 84//6 90//6 63//6
f 89//6 61//6 98//6 97//6
f 101//5 102//5 97//5 98//5
f 100//5 99//5 102//5 101//5
f 61//3 52//3 101//3 98//3
f 74//1 89//1 97//1 102//1
f 71//2 96//2 99//2 100//2
f 96//1 74//1 102//1 99//1
f 106//2 103//2 107//2 110//2
f 1//22 2//22 105//22 104//22
f 2//23 46//23 106//23 105//23
f 45//24 1//24 104//24 103//24
f 109//5 110//5 114//5 113//5
f 104//6 105//6 109//6 108//6
f 105//5 106//5 110//5 109//5
f 103//4 104//4 108//4 107//4
f 113//5 114//5 118//5 117//5
f 107//4 108//4 112//4 111//4
f 110//2 107//2 111//2 114//2
f 108//6 109//6 113//6 112//6
f 116//1 117//1 118//1 115//1
f 111//4 112//4 116//4 115//4
f 114//2 111//2 115//2 118//2
f 122//2 119//2 120//2 121//2
f 82//5 50//5 120//5 119//5
f 73//1 82//1 119//1 122//1
f 49//4 73//4 122//4 121//4
f 123//4 124//4 126//4 125//4
f 129//4 123//4 125//4 130//4
f 128//4 129//4 130//4 127//4
f 95//19 43//19 127//19 130//19
f 94//13 69//13 123//13 129//13
f 43//25 41//25 128//25 127//25
f 44//19 70//19 125//19 126//19
f 41//13 94//13 129//13 128//13
o Cube.048_Cube.024
v -465.415253 595.506470 107.379990
v -592.504395 395.256500 153.703384
v -418.547607 514.244019 -115.324730
v -553.544800 310.734192 -76.120308
v -685.083374 635.058350 -17.166885
v -750.245483 532.384521 6.584381
v -661.052917 593.392822 -131.353790
v -726.872559 490.582642 -108.321587
v -476.984802 339.177490 -522.132446
v -382.945740 374.413605 -445.075867
v -417.577942 495.458984 -458.162262
v -511.616943 460.222931 -535.218750
v -337.624512 379.185303 -682.972839
v -268.484985 405.091644 -626.319153
v -293.947296 494.086945 -635.940491
v -363.086853 468.180603 -692.594177
v -249.437317 406.743591 -782.619202
v -198.910919 425.675659 -741.217529
v -217.518585 490.712250 -748.248657
v -268.044922 471.780212 -789.650330
v -518.387756 580.394775 -140.536011
v -658.916260 367.113037 -97.938362
v -568.010986 666.928894 95.813942
v -702.931702 454.338959 144.991882
v -393.945129 436.524261 -453.647247
v -493.779175 399.116821 -535.452209
v -267.563416 452.080292 -644.220154
v -340.963745 424.577454 -704.364990
v -190.063568 461.215118 -764.823914
v -243.703461 441.116455 -808.776917
v -191.004211 411.801544 -856.243286
v -140.477905 430.733551 -814.841492
v -127.208252 472.652802 -846.762024
v -180.848267 452.554077 -890.715027
v -205.869385 482.237183 -870.310547
v -155.343018 501.169220 -828.908813
v -149.372681 416.715332 -909.296997
v -98.846313 435.647400 -867.895325
v -85.576782 477.566467 -899.815735
v -139.216675 457.467865 -943.768738
v -164.237854 487.150940 -923.364258
v -113.711548 506.082977 -881.962463
v -108.227966 399.679871 -931.814209
v -75.706421 411.865540 -905.165833
v -67.165405 438.847046 -925.711609
v -101.691040 425.910400 -954.002075
v -123.452759 496.134949 -980.688416
v -148.473999 525.817993 -960.283875
v -97.947632 544.750122 -918.882141
v -69.812805 516.233643 -936.735413
v -81.011902 386.880676 -947.460632
v -59.086914 395.095886 -929.494873
v -53.328674 413.286072 -943.346313
v -76.604919 404.564575 -962.419006
v -54.659851 384.869843 -969.621399
v -40.954224 390.005310 -958.391052
v -37.354614 401.376190 -967.049744
v -51.904968 395.924255 -978.972229
v -110.425293 525.210938 -990.011292
v -127.062317 544.947632 -976.443787
v -93.466736 557.535828 -948.915344
v -74.759460 538.574829 -960.786316
v -297.286530 470.146454 450.435089
v -404.544067 272.734131 361.430725
v -120.181702 436.502808 294.875793
v -221.569672 243.236908 206.356964
v -394.657043 551.083008 228.402344
v -449.650970 449.864197 182.767273
v -293.245728 535.226929 152.359100
v -355.834961 434.740112 103.256592
v -66.348328 176.454590 -71.160576
v -60.866150 110.400696 33.492542
v 60.046082 135.410278 44.664650
v 57.290039 200.377899 -58.360359
v -3.712585 -4.211548 -172.787415
v -1.761536 -55.745117 -95.317848
v 89.140198 -38.156311 -85.906715
v 87.189209 13.377319 -163.376495
v 37.526611 -118.040771 -234.497437
v 38.952332 -155.700745 -177.883514
v 105.382141 -142.847046 -171.006042
v 103.956421 -105.187073 -227.619873
v -176.291321 509.932343 234.623047
v -296.688568 307.505920 134.116135
v -377.071320 548.398315 393.235199
v -490.938385 338.820862 298.746063
v -0.599792 111.625366 40.805893
v -3.416992 186.037109 -71.056328
v 47.772888 -63.833984 -98.501259
v 45.701538 -9.124573 -180.744843
v 78.005615 -172.462524 -187.499725
v 76.492065 -132.481812 -247.602356
v 54.135681 -194.991455 -286.103851
v 55.561401 -232.651306 -229.489929
v 102.325012 -256.284973 -243.871582
v 100.811279 -216.304260 -303.974182
v 127.090576 -187.953430 -283.259308
v 128.516296 -225.613403 -226.645477
v 67.378906 -250.045227 -323.059601
v 68.804626 -287.705200 -266.445740
v 115.568298 -311.338806 -280.827484
v 114.054626 -271.358093 -340.929901
v 140.333801 -243.006958 -320.215057
v 141.759521 -280.666992 -263.601318
v 51.813599 -295.029602 -338.034637
v 52.731140 -319.269653 -301.594818
v 82.830872 -334.481567 -310.851715
v 81.856506 -308.747681 -349.537048
v 158.676453 -298.638611 -360.201019
v 184.955750 -270.287598 -339.486115
v 186.381531 -307.947632 -282.872223
v 160.190186 -338.619385 -300.098389
v 40.241882 -324.926025 -349.063202
v 40.860535 -341.267944 -324.496613
v 61.152893 -351.523682 -330.737457
v 60.496155 -334.174316 -356.818024
v 40.789429 -356.325317 -363.324371
v 41.176147 -366.540649 -347.967468
v 53.861084 -372.951416 -351.868591
v 53.450500 -362.106567 -368.171814
v 187.367188 -315.091125 -357.335724
v 204.840576 -296.240173 -343.562012
v 205.788513 -321.280640 -305.918762
v 188.373596 -341.674561 -317.372589
vn 0.8229 -0.4650 0.3264
vn -0.5011 0.7495 -0.4326
vn -0.8272 0.4509 -0.3354
vn 0.0328 0.2055 0.9781
vn 0.0638 0.9415 -0.3309
vn -0.4842 -0.8462 0.2224
vn -0.2254 0.9604 -0.1641
vn 0.7652 0.6374 -0.0908
vn -0.8352 -0.4085 -0.3683
vn 0.6911 -0.6946 0.1997
vn -0.7068 -0.1551 -0.6902
vn 0.8089 0.2081 0.5499
vn -0.7107 -0.1937 -0.6763
vn 0.3202 -0.9464 0.0420
vn 0.7241 0.3365 0.6021
vn 0.3290 -0.9439 0.0301
vn -0.2159 0.9605 -0.1758
vn 0.8255 0.1725 0.5373
vn 0.7618 0.3952 0.5133
vn 0.2504 -0.9590 0.1329
vn -0.6674 -0.3450 -0.6599
vn 0.7656 0.3595 0.5335
vn -0.6431 -0.3778 -0.6661
vn -0.6372 -0.7372 -0.2248
vn 0.3913 0.9124 -0.1198
vn -0.8719 -0.4896 0.0123
vn 0.5749 0.8000 -0.1716
vn -0.6564 0.5387 0.5282
vn -0.2627 0.9577 -0.1174
vn -0.7283 -0.3276 -0.6019
vn -0.2815 0.9550 -0.0932
vn 0.7569 0.2240 0.6139
vn -0.7265 -0.3319 -0.6017
vn -0.7590 -0.2192 -0.6131
vn 0.7131 0.3098 0.6289
vn -0.0847 -0.8630 0.4981
vn 0.7555 0.2284 0.6140
vn 0.7245 0.3392 0.6000
vn -0.7582 -0.2164 -0.6150
vn 0.2627 -0.9577 0.1174
vn 0.3214 0.6494 -0.6892
vn -0.5647 -0.4464 -0.6941
vn 0.8711 0.0916 0.4824
vn 0.3380 0.6290 -0.7001
vn 0.7671 0.5410 0.3448
vn -0.7711 -0.2463 -0.5872
vn -0.6067 0.6643 0.4367
vn 0.6067 -0.6643 -0.4367
vn 0.0214 0.8991 -0.4373
vn 0.8552 0.1142 0.5055
vn -0.5933 -0.4286 -0.6814
vn -0.1037 -0.8506 0.5155
vn 0.6337 -0.5856 -0.5056
vn 0.8503 0.1209 0.5123
vn -0.6019 -0.4230 -0.6774
vn 0.1452 -0.9548 0.2594
vn 0.2828 0.6937 -0.6624
vn -0.6153 0.0230 -0.7880
vn 0.6565 -0.4806 -0.5814
vn -0.5222 0.8100 0.2669
vn 0.4813 -0.5625 0.6723
vn 0.4995 0.7712 -0.3946
vn -0.4490 0.5807 -0.6791
vn -0.6028 -0.0319 0.7972
vn 0.1849 0.9827 0.0106
vn -0.4135 -0.8500 -0.3262
vn 0.9905 0.1259 0.0554
vn 0.9526 0.1389 0.2707
vn -0.4994 -0.1048 -0.8600
vn -0.0606 -0.8179 0.5722
vn 0.1137 0.4905 -0.8640
vn -0.0685 -0.6292 0.7742
vn 0.0736 0.5000 -0.8629
vn -0.9592 -0.2538 -0.1247
vn 0.0807 -0.5402 0.8376
vn -0.9528 -0.2633 -0.1511
vn 0.9923 0.1131 0.0502
vn -0.0723 -0.6481 0.7581
vn 0.1552 -0.6041 0.7816
vn -0.9841 -0.1584 -0.0806
vn -0.0810 0.4701 -0.8789
vn 0.1539 -0.5828 0.7979
vn -0.1137 0.4465 -0.8875
vn -0.7079 -0.5498 -0.4433
vn 0.7831 0.5916 -0.1921
vn -0.6197 -0.4449 -0.6466
vn 0.4924 0.7640 0.4169
vn -0.8927 0.4389 0.1024
vn 0.9804 0.1745 0.0914
vn -0.0717 0.5440 -0.8360
vn 0.9739 0.1995 0.1082
vn -0.0342 -0.5632 0.8256
vn -0.0761 0.5425 -0.8366
vn 0.0389 0.5652 -0.8241
vn 0.0496 -0.5209 0.8522
vn -0.9449 0.2612 0.1975
vn -0.0298 -0.5620 0.8266
vn 0.0838 -0.5414 0.8366
vn 0.0420 0.5638 -0.8249
vn -0.9804 -0.1745 -0.0914
vn 0.7603 -0.5319 -0.3730
vn -0.1819 0.3667 -0.9124
vn -0.1414 -0.7035 0.6964
vn 0.7414 -0.5500 -0.3845
vn 0.3375 -0.6633 0.6679
vn 0.0077 0.5853 -0.8108
vn 0.5989 0.6737 0.4330
vn -0.5989 -0.6737 -0.4330
vn 0.9716 -0.1851 -0.1476
vn -0.1237 -0.6828 0.7200
vn -0.1646 0.3968 -0.9030
vn -0.9351 0.2837 0.2122
vn -0.5090 -0.7225 -0.4678
vn -0.1184 -0.6765 0.7269
vn -0.1592 0.4060 -0.8999
vn -0.9997 -0.0222 0.0104
vn 0.8006 -0.4894 -0.3457
vn 0.2985 0.3671 -0.8810
vn -0.3917 -0.7706 -0.5027
vn 0.7718 0.5382 0.3386
usemtl Matériau.012
s off
f 131//26 132//26 134//26 133//26
f 138//27 137//27 141//27 142//27
f 137//28 138//28 136//28 135//28
f 153//29 154//29 132//29 131//29
f 151//30 137//30 135//30 153//30
f 152//31 134//31 132//31 154//31
f 142//32 141//32 145//32 146//32
f 151//33 133//33 140//33 155//33
f 152//34 138//34 142//34 156//34
f 133//35 134//35 139//35 140//35
f 158//36 146//36 150//36 160//36
f 155//37 140//37 144//37 157//37
f 156//38 142//38 146//38 158//38
f 140//39 139//39 143//39 144//39
f 149//40 159//40 163//40 166//40
f 144//41 143//41 147//41 148//41
f 146//42 145//42 149//42 150//42
f 157//43 144//43 148//43 159//43
f 145//44 157//44 159//44 149//44
f 148//45 147//45 161//45 162//45
f 139//46 156//46 158//46 143//46
f 141//47 155//47 157//47 145//47
f 143//48 158//48 160//48 147//48
f 134//49 152//49 156//49 139//49
f 137//50 151//50 155//50 141//50
f 138//51 152//51 154//51 136//51
f 133//52 151//52 153//52 131//52
f 135//53 136//53 154//53 153//53
f 165//54 166//54 172//54 171//54
f 161//55 164//55 170//55 167//55
f 150//56 149//56 166//56 165//56
f 159//57 148//57 162//57 163//57
f 147//58 160//58 164//58 161//58
f 160//59 150//59 165//59 164//59
f 172//60 169//60 180//60 179//60
f 168//61 167//61 173//61 174//61
f 163//62 162//62 168//62 169//62
f 166//63 163//63 169//63 172//63
f 164//64 165//64 171//64 170//64
f 162//65 161//65 167//65 168//65
f 176//66 175//66 183//66 184//66
f 167//67 170//67 176//67 173//67
f 169//68 168//68 174//68 175//68
f 170//69 169//69 175//69 176//69
f 179//70 180//70 192//70 191//70
f 170//71 171//71 178//71 177//71
f 171//72 172//72 179//72 178//72
f 169//73 170//73 177//73 180//73
f 184//74 183//74 187//74 188//74
f 175//75 174//75 182//75 183//75
f 173//76 176//76 184//76 181//76
f 174//77 173//77 181//77 182//77
f 186//78 185//78 188//78 187//78
f 183//79 182//79 186//79 187//79
f 181//80 184//80 188//80 185//80
f 182//81 181//81 185//81 186//81
f 192//82 189//82 190//82 191//82
f 177//83 178//83 190//83 189//83
f 180//84 177//84 189//84 192//84
f 178//85 179//85 191//85 190//85
f 193//86 194//86 196//86 195//86
f 200//87 199//87 203//87 204//87
f 199//88 200//88 198//88 197//88
f 215//89 216//89 194//89 193//89
f 213//90 199//90 197//90 215//90
f 214//91 196//91 194//91 216//91
f 204//92 203//92 207//92 208//92
f 213//93 195//93 202//93 217//93
f 214//94 200//94 204//94 218//94
f 195//95 196//95 201//95 202//95
f 220//96 208//96 212//96 222//96
f 217//97 202//97 206//97 219//97
f 218//98 204//98 208//98 220//98
f 202//99 201//99 205//99 206//99
f 211//100 221//100 225//100 228//100
f 206//101 205//101 209//101 210//101
f 208//102 207//102 211//102 212//102
f 219//103 206//103 210//103 221//103
f 207//104 219//104 221//104 211//104
f 210//105 209//105 223//105 224//105
f 201//106 218//106 220//106 205//106
f 203//107 217//107 219//107 207//107
f 205//108 220//108 222//108 209//108
f 196//109 214//109 218//109 201//109
f 199//110 213//110 217//110 203//110
f 200//111 214//111 216//111 198//111
f 195//112 213//112 215//112 193//112
f 197//113 198//113 216//113 215//113
f 227//114 228//114 234//114 233//114
f 223//115 226//115 232//115 229//115
f 212//116 211//116 228//116 227//116
f 221//117 210//117 224//117 225//117
f 209//118 222//118 226//118 223//118
f 222//119 212//119 227//119 226//119
f 234//120 231//120 242//120 241//120
f 230//121 229//121 235//121 236//121
f 225//122 224//122 230//122 231//122
f 228//123 225//123 231//123 234//123
f 226//124 227//124 233//124 232//124
f 224//125 223//125 229//125 230//125
f 238//126 237//126 245//126 246//126
f 229//127 232//127 238//127 235//127
f 231//128 230//128 236//128 237//128
f 232//129 231//129 237//129 238//129
f 241//130 242//130 254//130 253//130
f 232//131 233//131 240//131 239//131
f 233//132 234//132 241//132 240//132
f 231//133 232//133 239//133 242//133
f 246//134 245//134 249//134 250//134
f 237//135 236//135 244//135 245//135
f 235//136 238//136 246//136 243//136
f 236//137 235//137 243//137 244//137
f 248//138 247//138 250//138 249//138
f 245//139 244//139 248//139 249//139
f 243//140 246//140 250//140 247//140
f 244//141 243//141 247//141 248//141
f 254//142 251//142 252//142 253//142
f 239//143 240//143 252//143 251//143
f 242//144 239//144 251//144 254//144
f 240//145 241//145 253//145 252//145
