# Blender v2.91.2 OBJ File: 'camionnete02.blend'
# www.blender.org
mtllib arme_000058.mtl
o Cube.046_Cube.010
v 333.385529 677.493774 -1029.565186
v 315.528687 458.694214 -1049.237305
v 436.810455 686.533447 -1223.989136
v 418.953613 467.733887 -1243.661255
v 139.572433 702.476562 -1131.503662
v 121.715546 483.677002 -1151.175781
v 242.997345 711.516235 -1325.927490
v 225.140472 492.716736 -1345.599731
v 190.989929 665.047852 -761.882019
v 173.133057 446.248352 -781.554016
v -20.680046 471.231140 -883.492432
v -2.823185 690.030762 -863.820312
v 126.546570 659.415344 -640.737610
v 108.689682 440.615784 -660.409851
v -85.123451 465.598572 -762.348083
v -67.266586 684.398132 -742.676025
v 88.476295 656.087830 -569.171082
v 81.996460 497.467346 -595.360840
v -111.816711 522.450195 -697.299194
v -105.336861 681.070679 -671.109436
v 213.206268 666.989624 -803.645447
v 195.349426 448.190125 -823.317505
v 19.393139 691.972473 -905.583862
v 1.536247 473.172974 -925.255920
v 400.298248 683.342163 -1155.351562
v 382.441406 464.542603 -1175.023682
v 206.485153 708.324951 -1257.289795
v 188.628296 489.525391 -1276.961914
v 339.903900 699.024902 -1274.958374
v 322.047028 480.225281 -1294.630493
v 236.479034 689.985168 -1080.534424
v 218.622131 471.185547 -1100.206543
v 94.083344 677.539307 -812.851074
v 76.226486 458.739685 -832.523193
v 29.639999 671.906738 -691.706848
v 15.326702 461.348267 -696.635742
v -8.430264 668.579285 -620.140259
v -2.672611 499.683472 -652.773071
v 98.442825 460.681519 -874.286682
v 116.299698 679.481018 -854.614685
v 285.534821 477.033936 -1225.992798
v 303.391693 695.833557 -1206.320679
v 388.357208 692.779114 -1249.473633
v 267.075409 464.939880 -1074.721924
v 124.679764 452.494019 -807.038635
v 47.998871 457.136780 -679.451416
v 29.999565 495.471924 -635.588745
v 164.752975 673.235352 -829.130066
v 351.845001 689.587891 -1180.836060
v 370.500336 473.979553 -1269.145874
v 284.932281 683.739502 -1055.049805
v 142.536652 671.293579 -787.366577
v 78.093262 665.661011 -666.222290
v 40.023003 662.333496 -594.655579
v 146.896118 454.435852 -848.802185
v 333.988129 470.788269 -1200.508179
v 143.552673 413.468567 -852.485535
v 95.099365 419.714294 -877.969971
v 330.644623 429.821045 -1204.191650
v 282.191376 436.066772 -1229.676025
v 215.278671 430.218384 -1103.889893
v 263.731964 423.972656 -1078.405273
v 458.358276 610.155090 -1082.783203
v 428.770111 607.568970 -1027.161865
v 420.874115 510.817993 -1035.860596
v 450.462158 513.404114 -1091.482056
v 500.240204 604.756470 -1060.755127
v 470.652069 602.170288 -1005.133545
v 462.756012 505.419434 -1013.832275
v 492.344086 508.005493 -1069.453613
v 564.333008 596.494812 -1027.044678
v 534.744873 593.908691 -971.423218
v 526.848877 497.157776 -980.122009
v 556.436890 499.743896 -1035.743530
v 605.575928 591.178528 -1005.352600
v 575.987793 588.592346 -949.731018
v 568.091797 491.841492 -958.429810
v 597.679810 494.427612 -1014.051331
v 710.271118 503.676880 -1907.865234
v 661.817871 509.922607 -1933.349731
v 679.674561 728.722229 -1913.677856
v 728.128052 722.476562 -1888.193237
vn 0.8793 -0.1133 0.4625
vn 0.4692 0.0410 -0.8821
vn -0.8793 0.1133 -0.4625
vn 0.0810 0.9927 0.0893
vn -0.0810 -0.9927 -0.0893
vn -0.3723 -0.7691 0.5194
vn -0.1650 -0.9815 -0.0975
vn -0.5461 -0.1426 0.8255
vn -0.8800 0.1128 -0.4614
vn 0.8800 -0.1128 0.4614
vn 0.7774 -0.0069 -0.6289
vn -0.4373 -0.1580 0.8853
vn -0.0603 -0.9973 -0.0411
vn -0.4760 -0.1824 0.8603
vn -0.1117 -0.9933 -0.0310
vn -0.4692 -0.0410 0.8821
vn 0.8793 -0.1134 0.4625
vn -0.0854 -0.0823 0.9929
vn 0.4176 -0.8905 0.1808
vn 0.5528 0.7654 0.3296
usemtl Matériau.011
s off
f 25//1 26//1 4//1 3//1
f 29//2 30//2 8//2 7//2
f 27//3 28//3 6//3 5//3
f 22//1 21//1 9//1 10//1
f 42//4 27//4 5//4 31//4
f 56//5 26//5 2//5 44//5
f 10//1 9//1 13//1 14//1
f 55//5 22//5 10//5 45//5
f 23//3 24//3 11//3 12//3
f 46//6 14//6 18//6 47//6
f 45//7 10//7 14//7 46//7
f 12//3 11//3 15//3 16//3
f 33//4 12//4 16//4 35//4
f 54//8 47//8 18//8 17//8
f 16//9 15//9 19//9 20//9
f 14//10 13//10 17//10 18//10
f 5//3 6//3 24//3 23//3
f 44//5 2//5 22//5 55//5
f 31//4 5//4 23//4 40//4
f 2//1 1//1 21//1 22//1
f 50//5 4//5 26//5 56//5
f 29//4 7//4 27//4 42//4
f 7//3 8//3 28//3 27//3
f 26//11 25//11 63//11 66//11
f 43//4 29//4 42//4 49//4
f 8//5 30//5 41//5 28//5
f 51//4 31//4 40//4 48//4
f 6//5 32//5 39//5 24//5
f 20//12 19//12 38//12 37//12
f 52//4 33//4 35//4 53//4
f 11//13 34//13 36//13 15//13
f 15//6 36//6 38//6 19//6
f 24//5 39//5 34//5 11//5
f 28//5 41//5 32//5 6//5
f 49//4 42//4 31//4 51//4
f 30//3 29//3 81//3 80//3
f 3//2 4//2 50//2 43//2
f 25//4 49//4 51//4 1//4
f 9//4 52//4 53//4 13//4
f 1//4 51//4 48//4 21//4
f 3//4 43//4 49//4 25//4
f 30//5 50//5 56//5 41//5
f 32//3 41//3 60//3 61//3
f 37//14 38//14 47//14 54//14
f 34//15 45//15 46//15 36//15
f 36//6 46//6 47//6 38//6
f 39//5 55//5 45//5 34//5
f 55//16 39//16 58//16 57//16
f 61//5 62//5 57//5 58//5
f 60//5 59//5 62//5 61//5
f 39//3 32//3 61//3 58//3
f 44//1 55//1 57//1 62//1
f 41//2 56//2 59//2 60//2
f 56//17 44//17 62//17 59//17
f 66//2 63//2 67//2 70//2
f 1//18 2//18 65//18 64//18
f 2//19 26//19 66//19 65//19
f 25//20 1//20 64//20 63//20
f 69//5 70//5 74//5 73//5
f 64//16 65//16 69//16 68//16
f 65//5 66//5 70//5 69//5
f 63//4 64//4 68//4 67//4
f 73//5 74//5 78//5 77//5
f 67//4 68//4 72//4 71//4
f 70//2 67//2 71//2 74//2
f 68//16 69//16 73//16 72//16
f 76//1 77//1 78//1 75//1
f 71//4 72//4 76//4 75//4
f 74//2 71//2 75//2 78//2
f 82//2 79//2 80//2 81//2
f 50//5 30//5 80//5 79//5
f 43//1 50//1 79//1 82//1
f 29//4 43//4 82//4 81//4
o Cube.048_Cube.024
v -562.674683 450.298157 181.029083
v -723.655151 339.893646 38.573296
v -424.302429 496.974915 -11.511742
v -585.751648 387.627930 -152.985535
v -683.664185 644.604309 67.288216
v -766.203308 587.996826 -5.752846
v -612.716797 668.536743 -31.432838
v -695.103943 612.276306 -104.294716
v -372.224640 524.523804 -437.623047
v -276.580444 576.170532 -372.758423
v -326.312958 691.138977 -390.967316
v -421.957245 639.492188 -455.831940
v -253.332336 566.521729 -613.669495
v -183.012634 604.493530 -565.979492
v -219.577148 689.020996 -579.367004
v -289.896912 651.049133 -627.056946
v -178.174072 595.492126 -723.112610
v -126.785339 623.241455 -688.261475
v -153.506165 685.012939 -698.044800
v -204.894928 657.263672 -732.896118
v -487.563507 601.778931 -8.544525
v -658.545654 485.918457 -158.768860
v -634.497803 552.192566 195.853729
v -805.398376 434.984619 44.619377
v -295.566315 635.764526 -384.602478
v -397.104431 580.935181 -453.464325
v -189.242798 649.674500 -587.171326
v -263.895966 609.362732 -637.800049
v -124.325439 657.498535 -715.075500
v -178.880981 628.039246 -752.074341
v -127.482727 600.991821 -802.236816
v -76.093933 628.741089 -767.385803
v -70.749695 669.130249 -803.335266
v -125.305237 639.670898 -840.334106
v -151.762573 667.952698 -819.751526
v -100.373657 695.702026 -784.900513
v -91.574768 606.158875 -859.297974
v -40.186035 633.908203 -824.446777
v -34.841858 674.297302 -860.396301
v -89.397278 644.837891 -897.395081
v -115.854614 673.119690 -876.812622
v -64.465820 700.869019 -841.961548
v -50.853943 592.024536 -884.440613
v -17.777344 609.885620 -862.008484
v -14.337524 635.882263 -885.147644
v -49.452515 616.920593 -908.962036
v -81.642822 681.875427 -938.319458
v -108.100159 710.157166 -917.736877
v -56.711365 737.906555 -882.885864
v -27.087341 711.334778 -901.320679
v -23.803589 581.097717 -901.709717
v -1.504333 593.139038 -886.586487
v 0.814758 610.665283 -902.186279
v -22.858704 597.881897 -918.241394
v 0.540161 580.228271 -926.126953
v 14.479858 587.755493 -916.673401
v 15.929443 598.711426 -926.424866
v 1.130981 590.720276 -936.461121
v -73.022400 711.361572 -950.901306
v -90.614319 730.166443 -937.215576
v -56.445190 748.617310 -914.042664
v -36.747803 730.949341 -926.300293
v -299.157654 417.672119 487.102661
v -294.020813 282.330536 286.968079
v -152.062012 581.450317 376.319458
v -156.820740 448.735260 177.957977
v -463.344269 536.549316 331.406586
v -460.710449 467.155853 228.791992
v -388.275879 624.000549 279.081421
v -390.364197 552.476196 172.899414
v -24.740295 722.631531 -44.209221
v 74.821899 755.232605 27.756340
v 17.832092 863.411194 58.574120
v -80.884644 831.510376 -12.337029
v 70.637756 837.260498 -201.227570
v 144.525940 860.223633 -149.514008
v 103.247375 940.273682 -126.080879
v 29.359192 917.310608 -177.794556
v 131.052551 911.266785 -297.866119
v 185.049133 928.047852 -260.074432
v 154.883240 986.547485 -242.949738
v 100.886780 969.766357 -280.741394
v -258.159424 632.029785 355.670898
v -266.521515 487.573761 139.887115
v -417.629700 454.596375 468.082184
v -412.176300 310.914642 255.614716
v 53.109192 811.764404 39.796715
v -53.581604 778.606812 -34.874947
v 134.006287 909.375244 -151.148621
v 55.564758 884.997070 -206.048859
v 182.925354 969.939758 -271.870575
v 125.601379 952.124573 -311.991058
v 171.737305 950.210632 -373.289093
v 225.733826 966.991699 -335.497345
v 225.140442 1018.210571 -353.621857
v 167.816406 1000.395264 -393.742249
v 142.866638 1016.603516 -361.520020
v 196.863220 1033.384644 -323.728394
v 200.385559 979.350586 -427.160889
v 254.382141 996.131592 -389.369354
v 253.788818 1047.350586 -407.493927
v 196.464722 1029.535400 -447.614166
v 171.514832 1045.743530 -415.391785
v 225.511292 1062.524658 -377.600250
v 238.374207 979.091309 -459.516998
v 273.129395 989.892456 -435.192169
v 272.747498 1022.859741 -446.858185
v 235.850708 1011.392822 -472.682037
v 197.807922 1079.724976 -471.819977
v 172.858093 1095.933105 -439.597473
v 226.854675 1112.714233 -401.805969
v 255.132019 1097.540283 -431.699493
v 263.604431 977.712158 -482.119293
v 287.035461 984.994019 -465.720123
v 286.778076 1007.219666 -473.585175
v 261.903137 999.489075 -490.994843
v 284.895508 988.077759 -507.195831
v 299.542419 992.629700 -496.944611
v 299.381531 1006.523071 -501.860931
v 283.832031 1001.690674 -512.743958
v 203.677307 1112.380005 -472.936066
v 187.087708 1123.156982 -451.511017
v 222.990662 1134.314941 -426.382843
v 241.792542 1124.225464 -446.259399
vn 0.4777 -0.8689 0.1300
vn -0.3697 0.9008 -0.2278
vn -0.4778 0.8685 -0.1318
vn -0.4253 -0.4167 0.8035
vn 0.3538 0.8184 0.4528
vn -0.6345 -0.5063 -0.5840
vn -0.3510 0.9127 -0.2091
vn 0.7970 0.4221 0.4320
vn -0.7619 -0.0716 -0.6438
vn 0.5254 -0.8508 0.0092
vn -0.7417 -0.2885 -0.6055
vn 0.8240 0.3410 0.4525
vn -0.7398 -0.3261 -0.5886
vn 0.4324 -0.8983 0.0777
vn 0.7295 0.4629 0.5035
vn 0.4397 -0.8958 0.0649
vn -0.3427 0.9129 -0.2216
vn 0.8435 0.3065 0.4410
vn 0.7520 0.5180 0.4075
vn 0.3729 -0.9111 0.1756
vn -0.6776 -0.4698 -0.5658
vn 0.7618 0.4847 0.4298
vn -0.6502 -0.5000 -0.5720
vn -0.5857 -0.4628 -0.6654
vn 0.5191 0.7575 0.3959
vn -0.8126 0.0162 -0.5826
vn 0.6943 0.4024 0.5966
vn -0.7451 0.3729 0.5530
vn -0.3835 0.9098 -0.1589
vn -0.7347 -0.4546 -0.5035
vn -0.3997 0.9070 -0.1329
vn 0.7764 0.3561 0.5201
vn -0.7324 -0.4586 -0.5032
vn -0.7789 -0.3515 -0.5194
vn 0.7242 0.4375 0.5331
vn 0.0623 -0.8235 0.5639
vn 0.7744 0.3604 0.5200
vn 0.7294 0.4655 0.5012
vn -0.7786 -0.3488 -0.5216
vn 0.3835 -0.9098 0.1589
vn 0.1801 0.6227 -0.7614
vn -0.5670 -0.5616 -0.6026
vn 0.8934 0.2270 0.3878
vn 0.1980 0.6034 -0.7725
vn 0.7251 0.6493 0.2294
vn -0.7853 -0.3776 -0.4906
vn -0.6401 0.6261 0.4453
vn 0.6401 -0.6261 -0.4453
vn -0.1238 0.8572 -0.4999
vn 0.8770 0.2495 0.4107
vn -0.5963 -0.5461 -0.5885
vn 0.0436 -0.8119 0.5821
vn 0.6514 -0.5507 -0.5219
vn 0.8719 0.2561 0.4174
vn -0.6051 -0.5411 -0.5840
vn 0.2795 -0.9084 0.3111
vn 0.1391 0.6645 -0.7342
vn -0.6809 -0.1099 -0.7241
vn 0.6548 -0.4504 -0.6069
vn -0.5888 0.7659 0.2583
vn 0.8128 -0.4830 0.3257
vn -0.6206 0.7776 -0.1009
vn -0.8139 0.4806 -0.3265
vn -0.3290 -0.7861 0.5232
vn -0.3998 0.7126 0.5766
vn 0.0718 -0.5873 -0.8062
vn -0.4136 0.8918 0.1832
vn 0.4469 0.5875 0.6746
vn -0.4431 -0.1519 -0.8835
vn 0.8079 -0.5874 0.0474
vn -0.7960 -0.1004 -0.5969
vn 0.8567 0.2151 0.4688
vn -0.7906 -0.1412 -0.5959
vn 0.4801 -0.8230 -0.3036
vn 0.7648 0.2987 0.5709
vn 0.4801 -0.8151 -0.3241
vn -0.4031 0.8978 0.1774
vn 0.8768 0.1871 0.4429
vn 0.7735 0.3874 0.5016
vn 0.4276 -0.8763 -0.2218
vn -0.7204 -0.2774 -0.6357
vn 0.7828 0.3546 0.5113
vn -0.6927 -0.3007 -0.6555
vn -0.1642 -0.4980 -0.8515
vn -0.0051 0.7912 0.6115
vn -0.3773 -0.2693 -0.8860
vn 0.0496 0.5152 0.8557
vn -0.9505 -0.2683 0.1570
vn -0.4361 0.8680 0.2376
vn -0.7703 -0.2914 -0.5672
vn -0.4489 0.8543 0.2620
vn 0.8175 0.1977 0.5409
vn -0.7678 -0.2950 -0.5687
vn -0.8201 -0.1939 -0.5383
vn 0.7640 0.2636 0.5889
vn 0.1619 -0.9668 0.1979
vn 0.8155 0.2015 0.5426
vn 0.7643 0.3019 0.5698
vn -0.8203 -0.1906 -0.5393
vn 0.4361 -0.8680 -0.2376
vn 0.0632 0.8755 -0.4791
vn -0.6113 -0.3392 -0.7150
vn 0.9231 0.1377 0.3589
vn 0.0805 0.8633 -0.4983
vn 0.7204 0.5732 0.3905
vn -0.8221 -0.2293 -0.5212
vn -0.6075 0.3582 0.7090
vn 0.6075 -0.3582 -0.7090
vn -0.2167 0.9688 -0.1205
vn 0.9087 0.1486 0.3901
vn -0.6393 -0.3325 -0.6933
vn 0.1451 -0.9644 0.2209
vn 0.6066 -0.2590 -0.7517
vn 0.9042 0.1518 0.3993
vn -0.6477 -0.3304 -0.6865
vn 0.3509 -0.9323 -0.0874
vn 0.0241 0.9005 -0.4343
vn -0.7569 0.1141 -0.6435
vn 0.5959 -0.1342 -0.7918
vn -0.5844 0.5617 0.5856
usemtl Matériau.012
s off
f 83//21 84//21 86//21 85//21
f 90//22 89//22 93//22 94//22
f 89//23 90//23 88//23 87//23
f 105//24 106//24 84//24 83//24
f 103//25 89//25 87//25 105//25
f 104//26 86//26 84//26 106//26
f 94//27 93//27 97//27 98//27
f 103//28 85//28 92//28 107//28
f 104//29 90//29 94//29 108//29
f 85//30 86//30 91//30 92//30
f 110//31 98//31 102//31 112//31
f 107//32 92//32 96//32 109//32
f 108//33 94//33 98//33 110//33
f 92//34 91//34 95//34 96//34
f 101//35 111//35 115//35 118//35
f 96//36 95//36 99//36 100//36
f 98//37 97//37 101//37 102//37
f 109//38 96//38 100//38 111//38
f 97//39 109//39 111//39 101//39
f 100//40 99//40 113//40 114//40
f 91//41 108//41 110//41 95//41
f 93//42 107//42 109//42 97//42
f 95//43 110//43 112//43 99//43
f 86//44 104//44 108//44 91//44
f 89//45 103//45 107//45 93//45
f 90//46 104//46 106//46 88//46
f 85//47 103//47 105//47 83//47
f 87//48 88//48 106//48 105//48
f 117//49 118//49 124//49 123//49
f 113//50 116//50 122//50 119//50
f 102//51 101//51 118//51 117//51
f 111//52 100//52 114//52 115//52
f 99//53 112//53 116//53 113//53
f 112//54 102//54 117//54 116//54
f 124//55 121//55 132//55 131//55
f 120//56 119//56 125//56 126//56
f 115//57 114//57 120//57 121//57
f 118//58 115//58 121//58 124//58
f 116//59 117//59 123//59 122//59
f 114//60 113//60 119//60 120//60
f 128//61 127//61 135//61 136//61
f 119//62 122//62 128//62 125//62
f 121//63 120//63 126//63 127//63
f 122//64 121//64 127//64 128//64
f 131//65 132//65 144//65 143//65
f 122//66 123//66 130//66 129//66
f 123//67 124//67 131//67 130//67
f 121//68 122//68 129//68 132//68
f 136//69 135//69 139//69 140//69
f 127//70 126//70 134//70 135//70
f 125//71 128//71 136//71 133//71
f 126//72 125//72 133//72 134//72
f 138//73 137//73 140//73 139//73
f 135//74 134//74 138//74 139//74
f 133//75 136//75 140//75 137//75
f 134//76 133//76 137//76 138//76
f 144//77 141//77 142//77 143//77
f 129//78 130//78 142//78 141//78
f 132//79 129//79 141//79 144//79
f 130//80 131//80 143//80 142//80
f 145//81 146//81 148//81 147//81
f 152//82 151//82 155//82 156//82
f 151//83 152//83 150//83 149//83
f 167//84 168//84 146//84 145//84
f 165//85 151//85 149//85 167//85
f 166//86 148//86 146//86 168//86
f 156//87 155//87 159//87 160//87
f 165//88 147//88 154//88 169//88
f 166//89 152//89 156//89 170//89
f 147//90 148//90 153//90 154//90
f 172//91 160//91 164//91 174//91
f 169//92 154//92 158//92 171//92
f 170//93 156//93 160//93 172//93
f 154//94 153//94 157//94 158//94
f 163//95 173//95 177//95 180//95
f 158//96 157//96 161//96 162//96
f 160//97 159//97 163//97 164//97
f 171//98 158//98 162//98 173//98
f 159//99 171//99 173//99 163//99
f 162//100 161//100 175//100 176//100
f 153//101 170//101 172//101 157//101
f 155//102 169//102 171//102 159//102
f 157//103 172//103 174//103 161//103
f 148//104 166//104 170//104 153//104
f 151//105 165//105 169//105 155//105
f 152//106 166//106 168//106 150//106
f 147//107 165//107 167//107 145//107
f 149//108 150//108 168//108 167//108
f 179//109 180//109 186//109 185//109
f 175//110 178//110 184//110 181//110
f 164//111 163//111 180//111 179//111
f 173//112 162//112 176//112 177//112
f 161//113 174//113 178//113 175//113
f 174//114 164//114 179//114 178//114
f 186//115 183//115 194//115 193//115
f 182//116 181//116 187//116 188//116
f 177//117 176//117 182//117 183//117
f 180//118 177//118 183//118 186//118
f 178//119 179//119 185//119 184//119
f 176//120 175//120 181//120 182//120
f 190//121 189//121 197//121 198//121
f 181//122 184//122 190//122 187//122
f 183//123 182//123 188//123 189//123
f 184//124 183//124 189//124 190//124
f 193//125 194//125 206//125 205//125
f 184//126 185//126 192//126 191//126
f 185//127 186//127 193//127 192//127
f 183//128 184//128 191//128 194//128
f 198//129 197//129 201//129 202//129
f 189//130 188//130 196//130 197//130
f 187//131 190//131 198//131 195//131
f 188//132 187//132 195//132 196//132
f 200//133 199//133 202//133 201//133
f 197//134 196//134 200//134 201//134
f 195//135 198//135 202//135 199//135
f 196//136 195//136 199//136 200//136
f 206//137 203//137 204//137 205//137
f 191//138 192//138 204//138 203//138
f 194//139 191//139 203//139 206//139
f 192//140 193//140 205//140 204//140
