# Blender v2.91.2 OBJ File: 'camionnete02.blend'
# www.blender.org
mtllib arme_000075.mtl
o Cube.046_Cube.010
v 218.903381 387.329681 -1140.989014
v 208.589600 167.239380 -1146.732910
v 304.307983 388.630219 -1344.172119
v 293.994171 168.539886 -1349.916504
v 15.977835 399.063232 -1226.210205
v 5.664006 178.972916 -1231.954102
v 101.382446 400.363739 -1429.393311
v 91.068634 180.273438 -1435.137451
v 101.318146 385.539093 -861.245911
v 91.004341 165.448822 -866.989807
v -111.921181 177.182358 -952.210876
v -101.607368 397.272675 -946.466919
v 48.103161 384.728760 -734.643616
v 37.789318 164.638458 -740.387634
v -165.136261 176.372009 -825.608643
v -154.822449 396.462311 -819.864746
v 16.666082 384.250031 -659.852783
v 14.571784 224.224777 -676.462524
v -188.353821 235.958344 -761.683655
v -186.259521 395.983612 -745.073792
v 58.385063 604.138672 -728.917358
v -144.540497 615.872253 -814.138611
v 26.948013 603.659973 -654.126587
v -175.977539 615.393555 -739.347656
v 119.663643 385.818451 -904.890869
v 109.349815 165.728180 -910.634888
v -83.261932 397.552002 -990.112000
v -93.575775 177.461716 -995.855957
v 104.722832 458.192566 -859.349670
v -98.202736 469.926147 -944.570862
v 123.068298 458.471893 -902.994751
v -79.857269 470.205444 -988.215759
v 109.662460 563.600952 -856.598755
v -93.263084 575.334473 -941.819763
v 128.007874 563.880188 -900.243896
v -74.917618 575.613770 -985.464905
v 52.710545 457.400543 -735.608887
v -150.215027 469.134064 -820.830017
v 57.650154 562.808838 -732.857910
v -145.275391 574.542419 -818.079041
v 84.634514 741.030396 -772.573853
v -118.291054 752.763916 -857.794983
v 53.197430 740.551697 -697.783020
v -149.728088 752.285217 -783.004089
v 274.157501 388.171082 -1272.442383
v 263.843719 168.080780 -1278.186279
v 71.231956 399.904633 -1357.663330
v 60.918175 179.814316 -1363.407471
v 202.845215 394.497009 -1386.782959
v 192.531403 174.406662 -1392.526855
v 117.440636 393.196472 -1183.599609
v 107.126823 173.106140 -1189.343506
v -0.144596 391.405853 -903.856323
v -10.458424 171.315598 -909.600281
v -53.359634 390.595551 -777.254150
v -59.192879 179.731094 -769.118530
v -84.796700 390.116791 -702.463257
v -74.848534 219.910324 -726.013733
v -43.077728 610.005493 -771.527954
v -74.514778 609.526794 -696.737122
v 7.887045 171.594955 -953.245361
v 18.200840 391.685211 -947.501404
v 3.260056 464.059357 -901.960266
v 21.605520 464.338654 -945.605225
v 8.199705 569.467712 -899.209229
v 26.545139 569.747009 -942.854370
v -48.752243 463.267334 -778.219482
v -43.812611 568.675659 -775.468445
v -16.828281 746.897217 -815.184387
v -48.265347 746.418457 -740.393555
v 162.380920 173.947540 -1320.796875
v 172.694763 394.037872 -1315.052979
v 253.576630 391.563568 -1365.477539
v 157.858185 170.172760 -1168.038330
v 40.272949 168.382202 -888.295044
v -24.984577 177.753098 -754.752380
v -40.640221 217.932312 -711.647522
v 68.932259 388.751801 -926.196106
v 72.336891 461.405243 -924.299988
v 77.276512 566.813599 -921.549072
v 223.426117 391.104462 -1293.747803
v 243.262817 171.473282 -1371.221680
v 168.171967 390.263062 -1162.294434
v 50.586777 388.472473 -882.551086
v -2.628248 387.662140 -755.948853
v -34.065315 387.183411 -681.157959
v 7.653675 607.072144 -750.222656
v -23.783375 606.593323 -675.431763
v 58.618431 168.661575 -931.940125
v 53.991444 461.125946 -880.655029
v 58.931061 566.534302 -877.904053
v 1.979143 460.333923 -756.914246
v 6.918777 565.742310 -754.163208
v 33.903145 743.963806 -793.879028
v 2.466057 743.484985 -719.088257
v 213.112305 171.014160 -1299.491699
v 56.687317 127.452667 -933.015625
v 5.955930 130.386032 -954.320862
v 211.181152 129.805267 -1300.567139
v 160.449829 132.738632 -1321.872314
v 105.195679 131.897232 -1190.418945
v 155.927063 128.963852 -1169.113770
v 341.414307 321.605774 -1201.456055
v 316.981537 321.233673 -1143.328857
v 312.420959 223.912003 -1145.868652
v 336.853668 224.284073 -1203.996094
v 385.265564 319.070221 -1183.040283
v 360.832703 318.698151 -1124.913086
v 356.272064 221.376480 -1127.452881
v 380.704865 221.748550 -1185.580322
v 452.371765 315.190002 -1154.858398
v 427.938934 314.817963 -1096.730957
v 423.378296 217.496307 -1099.270996
v 447.811005 217.868362 -1157.398438
v 495.553741 312.693176 -1136.723633
v 471.120911 312.321075 -1078.596191
v 466.560394 214.999420 -1081.136230
v 490.993042 215.371490 -1139.263672
v 523.833557 175.746033 -2038.717285
v 473.102142 178.679413 -2060.022461
v 483.415863 398.769745 -2054.278320
v 534.147339 395.836334 -2032.973145
v 10.987232 811.840515 -830.420227
v -82.505241 817.246460 -869.683594
v -17.980309 811.399414 -761.504395
v -111.472748 816.805298 -800.767761
v 75.512154 805.993469 -722.241211
v 104.479759 806.434692 -791.156799
v 57.733528 809.137756 -810.788391
v 28.765923 808.696350 -741.872803
vn 0.9207 -0.0532 0.3867
vn 0.3875 0.0059 -0.9219
vn -0.9207 0.0532 -0.3867
vn 0.0468 0.9986 0.0261
vn -0.0468 -0.9986 -0.0261
vn -0.3875 -0.0059 0.9219
vn -0.2924 -0.7502 0.5931
vn -0.1315 -0.9909 -0.0273
vn -0.4647 -0.1134 0.8782
vn -0.9212 0.0527 -0.3854
vn 0.9212 -0.0527 0.3854
vn 0.3465 -0.3447 -0.8724
vn 0.3451 -0.3519 -0.8701
vn -0.3465 0.3447 0.8724
vn 0.7185 -0.0155 -0.6953
vn -0.8444 0.4036 -0.3523
vn -0.3505 -0.1213 0.9287
vn -0.0217 -0.9996 0.0202
vn -0.3290 0.4270 0.8423
vn -0.3902 -0.1485 0.9087
vn -0.0722 -0.9968 0.0347
vn 0.0061 -0.0264 0.9996
vn 0.4690 -0.8622 0.1916
vn 0.5470 0.8034 0.2351
vn 0.9092 -0.1676 0.3811
usemtl Matériau.011
s off
f 45//1 46//1 4//1 3//1
f 49//2 50//2 8//2 7//2
f 47//3 48//3 6//3 5//3
f 26//1 25//1 9//1 10//1
f 72//4 47//4 5//4 51//4
f 96//5 46//5 2//5 74//5
f 10//1 9//1 13//1 14//1
f 84//6 9//6 29//6 90//6
f 89//5 26//5 10//5 75//5
f 27//3 28//3 11//3 12//3
f 76//7 14//7 18//7 77//7
f 75//8 10//8 14//8 76//8
f 12//3 11//3 15//3 16//3
f 53//4 12//4 16//4 55//4
f 86//9 77//9 18//9 17//9
f 16//10 15//10 19//10 20//10
f 16//3 20//3 24//3 22//3
f 14//11 13//11 17//11 18//11
f 59//12 22//12 42//12 69//12
f 86//6 17//6 23//6 88//6
f 17//1 13//1 21//1 23//1
f 55//2 16//2 22//2 59//2
f 5//3 6//3 28//3 27//3
f 74//5 2//5 26//5 89//5
f 51//4 5//4 27//4 62//4
f 2//1 1//1 25//1 26//1
f 32//3 30//3 34//3 36//3
f 62//2 27//2 32//2 64//2
f 27//3 12//3 30//3 32//3
f 9//1 25//1 31//1 29//1
f 66//4 36//4 34//4 65//4
f 90//5 29//5 37//5 92//5
f 64//2 32//2 36//2 66//2
f 29//1 31//1 35//1 33//1
f 92//6 37//6 39//6 93//6
f 29//1 33//1 39//1 37//1
f 34//3 30//3 38//3 40//3
f 65//4 34//4 40//4 68//4
f 69//13 42//13 124//13 123//13
f 23//1 21//1 41//1 43//1
f 88//14 23//14 43//14 95//14
f 22//3 24//3 44//3 42//3
f 82//5 4//5 46//5 96//5
f 49//4 7//4 47//4 72//4
f 7//3 8//3 48//3 47//3
f 46//15 45//15 103//15 106//15
f 73//4 49//4 72//4 81//4
f 8//5 50//5 71//5 48//5
f 24//14 60//14 70//14 44//14
f 42//16 44//16 126//16 124//16
f 91//4 65//4 68//4 93//4
f 38//6 67//6 68//6 40//6
f 79//2 64//2 66//2 80//2
f 30//5 63//5 67//5 38//5
f 80//4 66//4 65//4 91//4
f 78//2 62//2 64//2 79//2
f 83//4 51//4 62//4 78//4
f 6//5 52//5 61//5 28//5
f 85//2 55//2 59//2 87//2
f 20//6 57//6 60//6 24//6
f 87//12 59//12 69//12 94//12
f 20//17 19//17 58//17 57//17
f 84//4 53//4 55//4 85//4
f 11//18 54//18 56//18 15//18
f 15//7 56//7 58//7 19//7
f 28//5 61//5 54//5 11//5
f 12//6 53//6 63//6 30//6
f 48//5 71//5 52//5 6//5
f 81//4 72//4 51//4 83//4
f 50//3 49//3 121//3 120//3
f 3//2 4//2 82//2 73//2
f 45//4 81//4 83//4 1//4
f 9//4 84//4 85//4 13//4
f 21//12 87//12 94//12 41//12
f 13//2 85//2 87//2 21//2
f 1//4 83//4 78//4 25//4
f 25//2 78//2 79//2 31//2
f 35//4 80//4 91//4 33//4
f 31//2 79//2 80//2 35//2
f 33//4 91//4 93//4 39//4
f 70//19 95//19 130//19 125//19
f 3//4 73//4 81//4 45//4
f 50//5 82//5 96//5 71//5
f 60//14 88//14 95//14 70//14
f 67//6 92//6 93//6 68//6
f 63//5 90//5 92//5 67//5
f 52//3 71//3 100//3 101//3
f 57//6 86//6 88//6 60//6
f 57//20 58//20 77//20 86//20
f 54//21 75//21 76//21 56//21
f 56//7 76//7 77//7 58//7
f 61//5 89//5 75//5 54//5
f 53//6 84//6 90//6 63//6
f 89//6 61//6 98//6 97//6
f 101//5 102//5 97//5 98//5
f 100//5 99//5 102//5 101//5
f 61//3 52//3 101//3 98//3
f 74//1 89//1 97//1 102//1
f 71//2 96//2 99//2 100//2
f 96//1 74//1 102//1 99//1
f 106//2 103//2 107//2 110//2
f 1//22 2//22 105//22 104//22
f 2//23 46//23 106//23 105//23
f 45//24 1//24 104//24 103//24
f 109//5 110//5 114//5 113//5
f 104//6 105//6 109//6 108//6
f 105//5 106//5 110//5 109//5
f 103//4 104//4 108//4 107//4
f 113//5 114//5 118//5 117//5
f 107//4 108//4 112//4 111//4
f 110//2 107//2 111//2 114//2
f 108//6 109//6 113//6 112//6
f 116//1 117//1 118//1 115//1
f 111//4 112//4 116//4 115//4
f 114//2 111//2 115//2 118//2
f 122//2 119//2 120//2 121//2
f 82//5 50//5 120//5 119//5
f 73//1 82//1 119//1 122//1
f 49//4 73//4 122//4 121//4
f 123//4 124//4 126//4 125//4
f 129//4 123//4 125//4 130//4
f 128//4 129//4 130//4 127//4
f 95//19 43//19 127//19 130//19
f 94//13 69//13 123//13 129//13
f 43//25 41//25 128//25 127//25
f 44//19 70//19 125//19 126//19
f 41//13 94//13 129//13 128//13
o Cube.048_Cube.024
v -563.252014 458.296448 181.943512
v -728.192993 343.669861 47.582954
v -423.307281 485.619659 -13.162804
v -587.540955 371.491486 -146.070007
v -677.080017 648.004211 53.941746
v -761.649780 589.232056 -14.948639
v -605.326416 662.013611 -46.094704
v -689.608704 603.395386 -114.605583
v -378.988281 484.840515 -444.313934
v -280.251099 543.732849 -391.349030
v -336.181793 655.507935 -411.366913
v -434.918976 596.615540 -464.331818
v -277.954254 520.678711 -632.461060
v -205.360504 563.977722 -593.519897
v -246.481995 646.157288 -608.237549
v -319.075867 602.858276 -647.178589
v -214.024170 545.858643 -749.699036
v -160.973633 577.500977 -721.241394
v -191.024628 637.556702 -731.996887
v -244.075287 605.914429 -760.454407
v -482.657318 592.583679 -18.048714
v -657.012939 471.479004 -158.899689
v -631.297913 563.557068 189.067688
v -806.403076 441.866882 46.427406
v -302.694458 601.779358 -404.731689
v -407.516205 539.257935 -460.960419
v -215.328033 607.562012 -616.547607
v -292.395264 561.594849 -657.888245
v -162.329529 610.175171 -750.036499
v -218.649261 576.582947 -780.247681
v -170.784180 548.521362 -833.267639
v -117.733582 580.163635 -804.810120
v -117.282166 618.519409 -843.291809
v -173.601868 584.927246 -873.503174
v -199.305725 613.385437 -852.220825
v -146.255127 645.027649 -823.763245
v -140.297119 551.615662 -893.542236
v -87.246521 583.257935 -865.084656
v -86.795105 621.613708 -903.566345
v -143.114990 588.021484 -933.777527
v -168.818726 616.479675 -912.495300
v -115.768066 648.121948 -884.037720
v -101.394470 537.525757 -921.438110
v -67.248230 557.892517 -903.121277
v -66.957642 582.580383 -927.890259
v -103.208130 560.958618 -947.335754
v -140.562500 622.827637 -977.237000
v -166.266479 651.285828 -955.954773
v -113.215820 682.928162 -927.497253
v -84.242737 656.419922 -947.025879
v -75.537415 526.598572 -940.447083
v -52.517029 540.329224 -928.098328
v -52.321045 556.973083 -944.796936
v -76.760071 542.396301 -957.906616
v -53.426758 525.180603 -966.879822
v -39.036438 533.763855 -959.160706
v -38.913879 544.168152 -969.599060
v -54.190979 535.056030 -977.794128
v -134.331787 651.813416 -992.171692
v -151.422546 670.735596 -978.020935
v -116.148621 691.774963 -959.098938
v -96.884155 674.149292 -972.083923
v -310.656433 478.636749 469.755798
v -294.399048 298.271423 309.750732
v -169.678650 604.102966 322.546783
v -155.801025 436.486694 168.030243
v -470.219360 550.601624 283.500427
v -461.883698 458.123291 201.461365
v -396.224304 621.529480 213.710266
v -390.820618 528.990112 128.797287
v 23.930359 685.048584 -63.655876
v 101.498108 663.087891 32.284325
v 69.892395 773.056519 83.511253
v -6.390991 795.918274 -10.635674
v 190.482849 791.829529 -151.687561
v 248.549316 773.992188 -81.180855
v 226.256287 855.505981 -42.199135
v 168.190002 873.343506 -112.705910
v 295.518005 860.062134 -204.392639
v 337.952087 847.026733 -152.867310
v 321.660583 906.596069 -124.379982
v 279.226562 919.631409 -175.905243
v -274.408142 644.157227 289.036804
v -264.478455 461.542786 117.498207
v -428.876648 506.290192 437.817047
v -411.617371 314.810181 267.951965
v 94.344177 717.953003 58.905876
v 10.499451 743.709351 -42.902199
v 253.221741 822.551514 -68.958992
v 191.577087 841.488098 -143.810547
v 351.319397 888.438293 -150.633392
v 306.270447 902.276978 -205.333984
v 366.335754 898.616211 -252.961395
v 408.769836 885.580627 -201.436035
v 428.059998 936.374756 -201.706238
v 383.010925 950.213440 -256.406799
v 355.056824 966.125671 -226.593384
v 397.490906 953.090332 -175.067871
v 416.914124 927.496887 -287.309082
v 459.348206 914.461548 -235.783752
v 478.638611 965.255615 -236.053986
v 433.589417 979.094238 -290.754395
v 405.635193 995.006470 -260.941010
v 448.069275 981.971069 -209.415497
v 461.251282 921.381714 -309.375732
v 488.564392 912.991455 -276.211212
v 500.980408 945.685181 -276.385223
v 471.984436 954.592529 -311.593536
v 456.198303 1029.707764 -296.569489
v 428.244080 1045.620117 -266.755859
v 470.678406 1032.584839 -215.230591
v 501.247375 1015.869263 -241.868774
v 490.697205 916.493103 -325.449677
v 509.111023 910.836609 -303.091125
v 517.481873 932.877991 -303.208496
v 497.933289 938.883057 -326.944916
v 520.592590 924.209473 -340.822479
v 532.103088 920.673584 -326.845795
v 537.335754 934.451660 -326.919220
v 525.115906 938.205566 -341.757019
v 471.024597 1057.392334 -285.808685
v 452.437561 1067.972656 -265.985321
v 480.652405 1059.305176 -231.725433
v 500.978210 1048.190674 -249.437531
vn 0.4459 -0.8729 0.1980
vn -0.3734 0.8812 -0.2899
vn -0.4459 0.8730 -0.1979
vn -0.4400 -0.3407 0.8308
vn 0.3836 0.8360 0.3924
vn -0.6513 -0.5240 -0.5489
vn -0.4061 0.8851 -0.2271
vn 0.8107 0.4441 0.3815
vn -0.7805 -0.1146 -0.6145
vn 0.5213 -0.8516 0.0551
vn -0.7794 -0.3511 -0.5189
vn 0.8456 0.3974 0.3564
vn -0.7744 -0.3875 -0.5001
vn 0.4749 -0.8756 0.0882
vn 0.7509 0.5186 0.4089
vn 0.4810 -0.8735 0.0747
vn -0.3989 0.8849 -0.2403
vn 0.8655 0.3630 0.3451
vn 0.7626 0.5687 0.3083
vn 0.4249 -0.8847 0.1917
vn -0.7045 -0.5272 -0.4751
vn 0.7757 0.5371 0.3314
vn -0.6765 -0.5567 -0.4821
vn -0.6073 -0.5029 -0.6151
vn 0.5400 0.7763 0.3253
vn -0.8092 -0.0007 -0.5876
vn 0.7087 0.4195 0.5673
vn -0.7308 0.4395 0.5223
vn -0.4339 0.8840 -0.1741
vn -0.7565 -0.5104 -0.4089
vn -0.4476 0.8822 -0.1465
vn 0.8035 0.4147 0.4270
vn -0.7540 -0.5143 -0.4085
vn -0.8062 -0.4102 -0.4264
vn 0.7493 0.4947 0.4402
vn 0.1463 -0.7858 0.6009
vn 0.8015 0.4189 0.4269
vn 0.7506 0.5210 0.4064
vn -0.8063 -0.4076 -0.4287
vn 0.4339 -0.8840 0.1741
vn 0.0860 0.5827 -0.8081
vn -0.5938 -0.6169 -0.5166
vn 0.9138 0.2823 0.2921
vn 0.1036 0.5634 -0.8196
vn 0.7146 0.6880 0.1263
vn -0.8090 -0.4347 -0.3957
vn -0.6241 0.6274 0.4658
vn 0.6241 -0.6274 -0.4658
vn -0.2033 0.8209 -0.5337
vn 0.8985 0.3055 0.3151
vn -0.6224 -0.6016 -0.5008
vn 0.1289 -0.7738 0.6202
vn 0.6254 -0.5563 -0.5472
vn 0.8938 0.3124 0.3219
vn -0.6309 -0.5968 -0.4958
vn 0.3438 -0.8774 0.3347
vn 0.0458 0.6245 -0.7797
vn -0.7368 -0.1777 -0.6523
vn 0.6171 -0.4612 -0.6376
vn -0.5953 0.7577 0.2674
vn 0.8123 -0.3508 0.4659
vn -0.4743 0.8675 -0.1498
vn -0.8087 0.3598 -0.4653
vn -0.3363 -0.6417 0.6892
vn -0.4091 0.8344 0.3694
vn 0.1174 -0.7659 -0.6322
vn -0.1823 0.9095 0.3735
vn 0.4428 0.5720 0.6905
vn -0.3536 -0.0841 -0.9316
vn 0.7066 -0.6749 0.2128
vn -0.5723 0.3345 -0.7487
vn 0.6990 -0.2367 0.6748
vn -0.5791 0.2953 -0.7599
vn 0.2993 -0.8437 -0.4456
vn 0.6073 -0.1380 0.7824
vn 0.3074 -0.8311 -0.4634
vn -0.1696 0.9131 0.3707
vn 0.7169 -0.2484 0.6514
vn 0.6611 -0.0444 0.7490
vn 0.2114 -0.8919 -0.3998
vn -0.5412 0.1567 -0.8261
vn 0.6483 -0.0640 0.7587
vn -0.5166 0.1305 -0.8463
vn -0.1406 -0.5075 -0.8501
vn 0.0024 0.8453 0.5342
vn -0.3339 -0.4905 -0.8049
vn 0.0242 0.7348 0.6779
vn -0.9511 -0.2485 0.1835
vn -0.2262 0.8836 0.4099
vn -0.6114 0.1456 -0.7778
vn -0.2492 0.8701 0.4253
vn 0.6362 -0.2409 0.7330
vn -0.6097 0.1418 -0.7798
vn -0.6383 0.2447 -0.7299
vn 0.5913 -0.1737 0.7875
vn -0.1831 -0.9783 -0.0967
vn 0.6348 -0.2372 0.7354
vn 0.6081 -0.1346 0.7823
vn -0.6372 0.2479 -0.7298
vn 0.2262 -0.8836 -0.4099
vn 0.4479 0.8822 -0.1457
vn -0.4352 0.0808 -0.8967
vn 0.7707 -0.2897 0.5675
vn 0.4660 0.8695 -0.1638
vn 0.6984 0.1687 0.6956
vn -0.6551 0.2092 -0.7260
vn -0.6680 0.3724 0.6443
vn 0.6680 -0.3724 -0.6443
vn 0.1103 0.9813 0.1575
vn 0.7512 -0.2821 0.5968
vn -0.4654 0.0916 -0.8804
vn -0.2047 -0.9757 -0.0783
vn 0.7078 -0.2723 -0.6518
vn 0.7452 -0.2798 0.6054
vn -0.4745 0.0949 -0.8751
vn 0.0852 -0.9470 -0.3097
vn 0.4056 0.9081 -0.1043
vn -0.4626 0.5253 -0.7141
vn 0.7452 -0.1462 -0.6507
vn -0.5526 0.5773 0.6011
usemtl Matériau.012
s off
f 131//26 132//26 134//26 133//26
f 138//27 137//27 141//27 142//27
f 137//28 138//28 136//28 135//28
f 153//29 154//29 132//29 131//29
f 151//30 137//30 135//30 153//30
f 152//31 134//31 132//31 154//31
f 142//32 141//32 145//32 146//32
f 151//33 133//33 140//33 155//33
f 152//34 138//34 142//34 156//34
f 133//35 134//35 139//35 140//35
f 158//36 146//36 150//36 160//36
f 155//37 140//37 144//37 157//37
f 156//38 142//38 146//38 158//38
f 140//39 139//39 143//39 144//39
f 149//40 159//40 163//40 166//40
f 144//41 143//41 147//41 148//41
f 146//42 145//42 149//42 150//42
f 157//43 144//43 148//43 159//43
f 145//44 157//44 159//44 149//44
f 148//45 147//45 161//45 162//45
f 139//46 156//46 158//46 143//46
f 141//47 155//47 157//47 145//47
f 143//48 158//48 160//48 147//48
f 134//49 152//49 156//49 139//49
f 137//50 151//50 155//50 141//50
f 138//51 152//51 154//51 136//51
f 133//52 151//52 153//52 131//52
f 135//53 136//53 154//53 153//53
f 165//54 166//54 172//54 171//54
f 161//55 164//55 170//55 167//55
f 150//56 149//56 166//56 165//56
f 159//57 148//57 162//57 163//57
f 147//58 160//58 164//58 161//58
f 160//59 150//59 165//59 164//59
f 172//60 169//60 180//60 179//60
f 168//61 167//61 173//61 174//61
f 163//62 162//62 168//62 169//62
f 166//63 163//63 169//63 172//63
f 164//64 165//64 171//64 170//64
f 162//65 161//65 167//65 168//65
f 176//66 175//66 183//66 184//66
f 167//67 170//67 176//67 173//67
f 169//68 168//68 174//68 175//68
f 170//69 169//69 175//69 176//69
f 179//70 180//70 192//70 191//70
f 170//71 171//71 178//71 177//71
f 171//72 172//72 179//72 178//72
f 169//73 170//73 177//73 180//73
f 184//74 183//74 187//74 188//74
f 175//75 174//75 182//75 183//75
f 173//76 176//76 184//76 181//76
f 174//77 173//77 181//77 182//77
f 186//78 185//78 188//78 187//78
f 183//79 182//79 186//79 187//79
f 181//80 184//80 188//80 185//80
f 182//81 181//81 185//81 186//81
f 192//82 189//82 190//82 191//82
f 177//83 178//83 190//83 189//83
f 180//84 177//84 189//84 192//84
f 178//85 179//85 191//85 190//85
f 193//86 194//86 196//86 195//86
f 200//87 199//87 203//87 204//87
f 199//88 200//88 198//88 197//88
f 215//89 216//89 194//89 193//89
f 213//90 199//90 197//90 215//90
f 214//91 196//91 194//91 216//91
f 204//92 203//92 207//92 208//92
f 213//93 195//93 202//93 217//93
f 214//94 200//94 204//94 218//94
f 195//95 196//95 201//95 202//95
f 220//96 208//96 212//96 222//96
f 217//97 202//97 206//97 219//97
f 218//98 204//98 208//98 220//98
f 202//99 201//99 205//99 206//99
f 211//100 221//100 225//100 228//100
f 206//101 205//101 209//101 210//101
f 208//102 207//102 211//102 212//102
f 219//103 206//103 210//103 221//103
f 207//104 219//104 221//104 211//104
f 210//105 209//105 223//105 224//105
f 201//106 218//106 220//106 205//106
f 203//107 217//107 219//107 207//107
f 205//108 220//108 222//108 209//108
f 196//109 214//109 218//109 201//109
f 199//110 213//110 217//110 203//110
f 200//111 214//111 216//111 198//111
f 195//112 213//112 215//112 193//112
f 197//113 198//113 216//113 215//113
f 227//114 228//114 234//114 233//114
f 223//115 226//115 232//115 229//115
f 212//116 211//116 228//116 227//116
f 221//117 210//117 224//117 225//117
f 209//118 222//118 226//118 223//118
f 222//119 212//119 227//119 226//119
f 234//120 231//120 242//120 241//120
f 230//121 229//121 235//121 236//121
f 225//122 224//122 230//122 231//122
f 228//123 225//123 231//123 234//123
f 226//124 227//124 233//124 232//124
f 224//125 223//125 229//125 230//125
f 238//126 237//126 245//126 246//126
f 229//127 232//127 238//127 235//127
f 231//128 230//128 236//128 237//128
f 232//129 231//129 237//129 238//129
f 241//130 242//130 254//130 253//130
f 232//131 233//131 240//131 239//131
f 233//132 234//132 241//132 240//132
f 231//133 232//133 239//133 242//133
f 246//134 245//134 249//134 250//134
f 237//135 236//135 244//135 245//135
f 235//136 238//136 246//136 243//136
f 236//137 235//137 243//137 244//137
f 248//138 247//138 250//138 249//138
f 245//139 244//139 248//139 249//139
f 243//140 246//140 250//140 247//140
f 244//141 243//141 247//141 248//141
f 254//142 251//142 252//142 253//142
f 239//143 240//143 252//143 251//143
f 242//144 239//144 251//144 254//144
f 240//145 241//145 253//145 252//145
