# Blender v2.91.2 OBJ File: 'camionnete02.blend'
# www.blender.org
mtllib arme_000173.mtl
o Cube.046_Cube.010
v 219.274139 667.459106 -1205.240967
v 193.802063 450.462402 -1234.270752
v 284.458862 687.842102 -1414.798950
v 258.986755 470.845459 -1443.828979
v 10.273659 700.262939 -1267.061646
v -15.198498 483.266235 -1296.091431
v 75.458321 720.645874 -1476.619629
v 49.986198 503.649231 -1505.649536
v 129.527771 639.395630 -916.721069
v 104.055672 422.399048 -945.750916
v -104.944847 455.202881 -1007.571411
v -79.472725 672.199585 -978.541626
v 88.911697 626.695190 -786.146790
v 63.439541 409.698486 -815.176636
v -145.561005 442.502319 -876.997192
v -120.088875 659.499023 -847.967346
v 64.917480 619.192261 -709.009460
v 50.557861 462.574890 -742.967651
v -158.442719 495.378784 -804.788208
v -144.083099 651.996155 -770.829956
v 143.529907 643.774109 -961.735474
v 118.057762 426.777435 -990.765320
v -65.470650 676.578003 -1023.556030
v -90.942795 459.581238 -1052.585815
v 261.446625 680.646301 -1340.818604
v 235.974487 463.649597 -1369.848511
v 52.446106 713.450073 -1402.639038
v 26.974014 496.453369 -1431.668945
v 179.958588 704.244080 -1445.709351
v 154.486450 487.247314 -1474.739258
v 114.773933 683.861084 -1236.151367
v 89.301796 466.864258 -1265.181152
v 25.027542 655.797607 -947.631287
v -0.444584 438.800903 -976.661133
v -15.588585 643.097168 -817.057068
v -34.649643 433.375763 -831.810913
v -39.582771 635.594238 -739.919678
v -43.335808 469.030518 -783.120239
v 13.557491 443.179321 -1021.675537
v 39.029617 660.176025 -992.645752
v 131.474243 480.051453 -1400.758667
v 156.946381 697.048218 -1371.728882
v 232.208771 696.043030 -1430.254028
v 141.551941 458.663330 -1249.726074
v 51.805515 430.599976 -961.206055
v 0.582741 427.845825 -821.389587
v -8.103397 463.500488 -772.698792
v 91.279770 651.975037 -977.190552
v 209.196533 688.847290 -1356.273682
v 206.736603 479.046387 -1459.284058
v 167.024017 675.660095 -1220.696167
v 77.277657 647.596680 -932.176270
v 36.661537 634.896118 -801.601868
v 12.667351 627.393250 -724.464539
v 65.807617 434.978394 -1006.220459
v 183.724335 471.850525 -1385.303589
v 61.038322 394.348694 -1011.655884
v 8.788181 402.549652 -1027.110962
v 178.955017 431.220856 -1390.739258
v 126.704926 439.421814 -1406.194092
v 84.532494 426.234619 -1270.616577
v 136.782623 418.033661 -1255.161377
v 330.685181 602.618164 -1285.041138
v 312.036926 596.786987 -1225.090088
v 300.773560 500.833252 -1237.926758
v 319.421661 506.664490 -1297.878052
v 375.849030 595.529541 -1271.682129
v 357.200806 589.698303 -1211.731201
v 345.937378 493.744507 -1224.567871
v 364.585571 499.575806 -1284.518921
v 444.964264 584.681580 -1251.238647
v 426.316040 578.850281 -1191.287598
v 415.052521 482.896545 -1204.124268
v 433.700653 488.727844 -1264.075439
v 489.438995 577.700989 -1238.083496
v 470.790771 571.869751 -1178.132446
v 459.527344 475.916016 -1190.968994
v 478.175446 481.747314 -1250.920166
v 420.880920 546.008667 -2147.721924
v 368.630798 554.209595 -2163.177002
v 394.102814 771.206421 -2134.146973
v 446.353058 763.005371 -2118.691895
vn 0.9482 -0.1488 0.2805
vn 0.2957 0.0925 -0.9508
vn -0.9482 0.1488 -0.2805
vn 0.1156 0.9845 0.1317
vn -0.1156 -0.9845 -0.1317
vn -0.2829 -0.7972 0.5333
vn -0.1993 -0.9721 -0.1233
vn -0.3838 -0.1897 0.9037
vn -0.9487 0.1482 -0.2793
vn 0.9487 -0.1482 0.2793
vn 0.6450 0.0265 -0.7637
vn -0.2661 -0.2097 0.9409
vn -0.0863 -0.9923 -0.0887
vn -0.3092 -0.2322 0.9222
vn -0.1348 -0.9885 -0.0688
vn -0.2957 -0.0925 0.9508
vn 0.1013 -0.1436 0.9844
vn 0.4268 -0.9032 0.0449
vn 0.6196 0.7390 0.2646
vn 0.9483 -0.1488 0.2805
usemtl Matériau.011
s off
f 25//1 26//1 4//1 3//1
f 29//2 30//2 8//2 7//2
f 27//3 28//3 6//3 5//3
f 22//1 21//1 9//1 10//1
f 42//4 27//4 5//4 31//4
f 56//5 26//5 2//5 44//5
f 10//1 9//1 13//1 14//1
f 55//5 22//5 10//5 45//5
f 23//3 24//3 11//3 12//3
f 46//6 14//6 18//6 47//6
f 45//7 10//7 14//7 46//7
f 12//3 11//3 15//3 16//3
f 33//4 12//4 16//4 35//4
f 54//8 47//8 18//8 17//8
f 16//9 15//9 19//9 20//9
f 14//10 13//10 17//10 18//10
f 5//3 6//3 24//3 23//3
f 44//5 2//5 22//5 55//5
f 31//4 5//4 23//4 40//4
f 2//1 1//1 21//1 22//1
f 50//5 4//5 26//5 56//5
f 29//4 7//4 27//4 42//4
f 7//3 8//3 28//3 27//3
f 26//11 25//11 63//11 66//11
f 43//4 29//4 42//4 49//4
f 8//5 30//5 41//5 28//5
f 51//4 31//4 40//4 48//4
f 6//5 32//5 39//5 24//5
f 20//12 19//12 38//12 37//12
f 52//4 33//4 35//4 53//4
f 11//13 34//13 36//13 15//13
f 15//6 36//6 38//6 19//6
f 24//5 39//5 34//5 11//5
f 28//5 41//5 32//5 6//5
f 49//4 42//4 31//4 51//4
f 30//3 29//3 81//3 80//3
f 3//2 4//2 50//2 43//2
f 25//4 49//4 51//4 1//4
f 9//4 52//4 53//4 13//4
f 1//4 51//4 48//4 21//4
f 3//4 43//4 49//4 25//4
f 30//5 50//5 56//5 41//5
f 32//3 41//3 60//3 61//3
f 37//14 38//14 47//14 54//14
f 34//15 45//15 46//15 36//15
f 36//6 46//6 47//6 38//6
f 39//5 55//5 45//5 34//5
f 55//16 39//16 58//16 57//16
f 61//5 62//5 57//5 58//5
f 60//5 59//5 62//5 61//5
f 39//3 32//3 61//3 58//3
f 44//1 55//1 57//1 62//1
f 41//2 56//2 59//2 60//2
f 56//1 44//1 62//1 59//1
f 66//2 63//2 67//2 70//2
f 1//17 2//17 65//17 64//17
f 2//18 26//18 66//18 65//18
f 25//19 1//19 64//19 63//19
f 69//5 70//5 74//5 73//5
f 64//16 65//16 69//16 68//16
f 65//5 66//5 70//5 69//5
f 63//4 64//4 68//4 67//4
f 73//5 74//5 78//5 77//5
f 67//4 68//4 72//4 71//4
f 70//2 67//2 71//2 74//2
f 68//16 69//16 73//16 72//16
f 76//20 77//20 78//20 75//20
f 71//4 72//4 76//4 75//4
f 74//2 71//2 75//2 78//2
f 82//2 79//2 80//2 81//2
f 50//5 30//5 80//5 79//5
f 43//1 50//1 79//1 82//1
f 29//4 43//4 82//4 81//4
o Cube.048_Cube.024
v -500.869141 530.003479 156.566406
v -670.084167 389.290710 56.747749
v -371.981598 519.837219 -47.595787
v -540.751953 378.116516 -148.058167
v -625.375671 689.443115 0.337639
v -712.136963 617.295837 -50.842186
v -559.291443 684.230652 -104.342033
v -645.614258 611.882080 -154.931702
v -365.298615 483.217316 -500.960846
v -258.183014 529.966797 -452.346283
v -308.215363 646.229309 -453.909027
v -415.330872 599.479797 -502.523590
v -280.831879 535.224365 -693.450195
v -202.078125 569.595642 -657.707642
v -238.862885 655.074463 -658.856812
v -317.616791 620.703186 -694.599182
v -227.041962 570.401855 -813.179321
v -169.489807 595.519958 -787.059143
v -196.371735 657.986694 -787.898865
v -253.923828 632.868713 -814.019043
v -433.806519 622.934814 -70.060249
v -612.600952 473.084717 -175.007568
v -570.733337 633.837708 146.654388
v -750.375854 484.453857 40.684616
v -277.899017 590.329651 -456.796906
v -391.615356 540.699280 -508.407196
v -211.304901 616.060181 -674.593750
v -294.911621 579.570801 -712.538818
v -171.451721 631.366943 -811.751953
v -232.550415 604.701050 -839.481812
v -192.033020 580.447937 -899.977539
v -134.480713 605.566040 -873.857422
v -135.208801 648.081970 -907.681763
v -196.307709 621.416016 -935.411499
v -217.870697 648.558594 -908.545227
v -160.318604 673.676636 -882.424988
v -167.399414 588.896301 -962.378479
v -109.847290 614.014343 -936.258118
v -110.575317 656.530212 -970.082581
v -171.674133 629.864319 -997.812317
v -193.237244 657.006836 -970.945984
v -135.684998 682.124878 -944.825745
v -132.413086 576.048340 -995.559753
v -95.369324 592.215698 -978.747253
v -95.838013 619.581238 -1000.518372
v -135.164490 602.417603 -1018.366882
v -171.035522 669.327759 -1037.168823
v -192.598694 696.470276 -1010.302551
v -135.046448 721.588379 -984.182312
v -109.936768 695.993713 -1009.439148
v -109.308472 566.014465 -1018.249817
v -84.334656 576.914062 -1006.915100
v -84.650574 595.363220 -1021.592712
v -111.163391 583.791931 -1033.625610
v -90.010620 566.486023 -1046.832031
v -74.399109 573.299561 -1039.746704
v -74.596619 584.832336 -1048.921997
v -91.170105 577.598938 -1056.443848
v -164.364624 699.475647 -1049.361084
v -178.702209 717.523010 -1031.497070
v -140.435120 734.224304 -1014.129456
v -123.739380 717.206116 -1030.923218
v -238.815369 483.438568 398.360260
v -367.104614 282.267181 360.026306
v -110.017334 441.207092 195.554810
v -241.677368 240.841217 157.666626
v -401.399719 551.657593 213.312073
v -467.177185 448.511353 193.657196
v -326.913269 530.233459 107.205345
v -402.867157 427.271057 89.901718
v -215.696899 145.780029 -101.089485
v -134.056946 101.253601 -17.416573
v -41.644043 110.795105 -100.443092
v -120.586365 154.073669 -184.202820
v -237.053894 -57.922974 -171.377960
v -178.728577 -93.499512 -108.183632
v -108.801147 -87.402039 -169.290375
v -167.126465 -51.825317 -232.484833
v -247.613770 -186.074097 -215.328522
v -204.990417 -212.072937 -169.147034
v -153.888306 -207.616821 -213.803009
v -196.511780 -181.617981 -259.984589
v -183.769226 510.711243 147.424652
v -336.105530 301.453247 108.660530
v -333.067200 559.000122 364.186554
v -469.262054 345.431915 323.490295
v -87.522888 94.888306 -55.882523
v -171.741699 146.259094 -147.131866
v -145.862671 -108.931519 -142.981934
v -207.782318 -71.162354 -210.070435
v -183.735779 -235.683167 -198.969666
v -228.985657 -208.081848 -247.997192
v -269.698395 -273.006287 -243.885895
v -227.074982 -299.005432 -197.704315
v -203.526184 -331.284302 -234.524719
v -248.776215 -303.683228 -283.552216
v -216.654968 -275.886902 -294.463989
v -174.031555 -301.885986 -248.282440
v -284.566620 -335.399658 -265.288727
v -241.943237 -361.398438 -219.107147
v -218.394531 -393.677612 -255.927551
v -263.644440 -366.076416 -304.955017
v -231.523254 -338.279907 -315.866882
v -188.899841 -364.278809 -269.685242
v -304.455017 -379.768433 -254.065979
v -277.020294 -396.502808 -224.340942
v -261.863007 -417.279663 -248.040680
v -290.988312 -399.513916 -279.597412
v -244.936829 -402.529053 -342.743134
v -212.815491 -374.732544 -353.654938
v -170.192200 -400.731567 -307.473297
v -199.686768 -430.130127 -293.715668
v -319.299652 -409.288818 -246.481537
v -300.803955 -420.570679 -226.441742
v -290.585480 -434.578125 -242.419403
v -310.220856 -422.600830 -263.694214
v -327.863708 -442.589844 -249.184937
v -316.301849 -449.641968 -236.657867
v -309.913971 -458.397827 -246.645630
v -322.188507 -450.910889 -259.944641
v -222.114380 -422.002197 -356.955048
v -200.756531 -403.519897 -364.210419
v -172.415710 -420.806885 -333.503571
v -192.027100 -440.354370 -324.355988
vn 0.4748 -0.8108 0.3421
vn -0.3723 0.8712 -0.3200
vn -0.4749 0.8104 -0.3429
vn -0.3883 -0.1749 0.9048
vn 0.3857 0.9010 0.1985
vn -0.6723 -0.6270 -0.3935
vn -0.3663 0.9267 -0.0840
vn 0.8419 0.4650 0.2737
vn -0.8165 -0.1616 -0.5542
vn 0.5342 -0.8420 0.0759
vn -0.8477 -0.2444 -0.4708
vn 0.9008 0.3057 0.3084
vn -0.8434 -0.2829 -0.4568
vn 0.4218 -0.9047 -0.0594
vn 0.8200 0.4249 0.3835
vn 0.4266 -0.9015 -0.0732
vn -0.3605 0.9276 -0.0978
vn 0.9172 0.2718 0.2914
vn 0.8251 0.4857 0.2885
vn 0.3815 -0.9232 0.0470
vn -0.7808 -0.4283 -0.4548
vn 0.8383 0.4510 0.3065
vn -0.7557 -0.4583 -0.4679
vn -0.6610 -0.5426 -0.5184
vn 0.5550 0.7994 0.2301
vn -0.8392 -0.1232 -0.5297
vn 0.7281 0.5312 0.4333
vn -0.7119 0.5257 0.4657
vn -0.3888 0.9209 -0.0288
vn -0.8250 -0.4165 -0.3821
vn -0.3999 0.9166 -0.0004
vn 0.8670 0.3169 0.3845
vn -0.8227 -0.4206 -0.3824
vn -0.8693 -0.3123 -0.3831
vn 0.8198 0.3977 0.4120
vn 0.1512 -0.8576 0.4915
vn 0.8652 0.3211 0.3850
vn 0.8195 0.4276 0.3814
vn -0.8694 -0.3095 -0.3851
vn 0.3888 -0.9209 0.0288
vn 0.0458 0.6677 -0.7430
vn -0.6809 -0.5184 -0.5173
vn 0.9546 0.1954 0.2250
vn 0.0609 0.6490 -0.7584
vn 0.7678 0.6280 0.1268
vn -0.8707 -0.3401 -0.3552
vn -0.5327 0.6019 0.5949
vn 0.5327 -0.6019 -0.5949
vn -0.1990 0.8877 -0.4152
vn 0.9432 0.2165 0.2519
vn -0.7067 -0.5036 -0.4970
vn 0.1366 -0.8471 0.5136
vn 0.5308 -0.5220 -0.6676
vn 0.9396 0.2228 0.2598
vn -0.7144 -0.4989 -0.4906
vn 0.3154 -0.9282 0.1976
vn 0.0115 0.7080 -0.7061
vn -0.8068 -0.0592 -0.5878
vn 0.5202 -0.4166 -0.7455
vn -0.5148 0.7528 0.4103
vn 0.6646 -0.5302 0.5265
vn 0.2087 0.6679 -0.7144
vn -0.6466 0.5411 -0.5377
vn -0.3227 0.0255 0.9462
vn 0.1527 0.9825 -0.1063
vn -0.4887 -0.8633 -0.1262
vn 0.7290 -0.0067 -0.6845
vn 0.9680 0.1855 -0.1690
vn -0.8345 -0.2925 -0.4669
vn 0.1487 -0.7267 0.6707
vn -0.5520 0.2959 -0.7795
vn 0.5327 -0.4559 0.7130
vn -0.5799 0.3110 -0.7530
vn -0.7531 -0.1354 0.6438
vn 0.6719 -0.3766 0.6378
vn -0.7673 -0.1506 0.6234
vn 0.7290 -0.0201 -0.6842
vn 0.5119 -0.4750 0.7157
vn 0.6869 -0.4598 0.5628
vn -0.7431 -0.0308 0.6685
vn -0.6988 0.3006 -0.6491
vn 0.6900 -0.4387 0.5757
vn -0.7270 0.2807 -0.6266
vn -0.7816 -0.6236 0.0142
vn 0.6528 0.5529 -0.5178
vn -0.7877 -0.4762 -0.3908
vn 0.5770 0.7887 0.2123
vn -0.8189 0.4558 0.3487
vn 0.7476 0.0491 -0.6624
vn -0.6646 0.3792 -0.6438
vn 0.7540 0.0775 -0.6523
vn 0.5834 -0.3850 0.7151
vn -0.6680 0.3783 -0.6408
vn -0.5791 0.3866 -0.7177
vn 0.6596 -0.3506 0.6648
vn -0.5338 0.4243 0.7315
vn 0.5872 -0.3843 0.7124
vn 0.6734 -0.3783 0.6352
vn -0.5775 0.3846 -0.7201
vn -0.7476 -0.0491 0.6624
vn 0.2896 -0.6947 -0.6584
vn -0.7896 0.2079 -0.5773
vn 0.4216 -0.5309 0.7351
vn 0.2688 -0.7119 -0.6488
vn 0.7365 -0.5646 0.3725
vn -0.5924 0.4130 -0.6917
vn 0.7033 0.6528 -0.2816
vn -0.7033 -0.6528 0.2816
vn 0.5852 -0.3446 -0.7341
vn 0.4501 -0.5088 0.7339
vn -0.7719 0.2366 -0.5901
vn -0.5173 0.4476 0.7294
vn -0.6629 -0.7195 0.2068
vn 0.4584 -0.5021 0.7333
vn -0.7663 0.2453 -0.5939
vn -0.6946 0.1210 0.7092
vn 0.3356 -0.6540 -0.6780
vn -0.4296 0.1467 -0.8910
vn -0.6035 -0.7894 0.1126
vn 0.7628 0.4789 -0.4345
usemtl Matériau.012
s off
f 83//21 84//21 86//21 85//21
f 90//22 89//22 93//22 94//22
f 89//23 90//23 88//23 87//23
f 105//24 106//24 84//24 83//24
f 103//25 89//25 87//25 105//25
f 104//26 86//26 84//26 106//26
f 94//27 93//27 97//27 98//27
f 103//28 85//28 92//28 107//28
f 104//29 90//29 94//29 108//29
f 85//30 86//30 91//30 92//30
f 110//31 98//31 102//31 112//31
f 107//32 92//32 96//32 109//32
f 108//33 94//33 98//33 110//33
f 92//34 91//34 95//34 96//34
f 101//35 111//35 115//35 118//35
f 96//36 95//36 99//36 100//36
f 98//37 97//37 101//37 102//37
f 109//38 96//38 100//38 111//38
f 97//39 109//39 111//39 101//39
f 100//40 99//40 113//40 114//40
f 91//41 108//41 110//41 95//41
f 93//42 107//42 109//42 97//42
f 95//43 110//43 112//43 99//43
f 86//44 104//44 108//44 91//44
f 89//45 103//45 107//45 93//45
f 90//46 104//46 106//46 88//46
f 85//47 103//47 105//47 83//47
f 87//48 88//48 106//48 105//48
f 117//49 118//49 124//49 123//49
f 113//50 116//50 122//50 119//50
f 102//51 101//51 118//51 117//51
f 111//52 100//52 114//52 115//52
f 99//53 112//53 116//53 113//53
f 112//54 102//54 117//54 116//54
f 124//55 121//55 132//55 131//55
f 120//56 119//56 125//56 126//56
f 115//57 114//57 120//57 121//57
f 118//58 115//58 121//58 124//58
f 116//59 117//59 123//59 122//59
f 114//60 113//60 119//60 120//60
f 128//61 127//61 135//61 136//61
f 119//62 122//62 128//62 125//62
f 121//63 120//63 126//63 127//63
f 122//64 121//64 127//64 128//64
f 131//65 132//65 144//65 143//65
f 122//66 123//66 130//66 129//66
f 123//67 124//67 131//67 130//67
f 121//68 122//68 129//68 132//68
f 136//69 135//69 139//69 140//69
f 127//70 126//70 134//70 135//70
f 125//71 128//71 136//71 133//71
f 126//72 125//72 133//72 134//72
f 138//73 137//73 140//73 139//73
f 135//74 134//74 138//74 139//74
f 133//75 136//75 140//75 137//75
f 134//76 133//76 137//76 138//76
f 144//77 141//77 142//77 143//77
f 129//78 130//78 142//78 141//78
f 132//79 129//79 141//79 144//79
f 130//80 131//80 143//80 142//80
f 145//81 146//81 148//81 147//81
f 152//82 151//82 155//82 156//82
f 151//83 152//83 150//83 149//83
f 167//84 168//84 146//84 145//84
f 165//85 151//85 149//85 167//85
f 166//86 148//86 146//86 168//86
f 156//87 155//87 159//87 160//87
f 165//88 147//88 154//88 169//88
f 166//89 152//89 156//89 170//89
f 147//90 148//90 153//90 154//90
f 172//91 160//91 164//91 174//91
f 169//92 154//92 158//92 171//92
f 170//93 156//93 160//93 172//93
f 154//94 153//94 157//94 158//94
f 163//95 173//95 177//95 180//95
f 158//96 157//96 161//96 162//96
f 160//97 159//97 163//97 164//97
f 171//98 158//98 162//98 173//98
f 159//99 171//99 173//99 163//99
f 162//100 161//100 175//100 176//100
f 153//101 170//101 172//101 157//101
f 155//102 169//102 171//102 159//102
f 157//103 172//103 174//103 161//103
f 148//104 166//104 170//104 153//104
f 151//105 165//105 169//105 155//105
f 152//106 166//106 168//106 150//106
f 147//107 165//107 167//107 145//107
f 149//108 150//108 168//108 167//108
f 179//109 180//109 186//109 185//109
f 175//110 178//110 184//110 181//110
f 164//111 163//111 180//111 179//111
f 173//112 162//112 176//112 177//112
f 161//113 174//113 178//113 175//113
f 174//114 164//114 179//114 178//114
f 186//115 183//115 194//115 193//115
f 182//116 181//116 187//116 188//116
f 177//117 176//117 182//117 183//117
f 180//118 177//118 183//118 186//118
f 178//119 179//119 185//119 184//119
f 176//120 175//120 181//120 182//120
f 190//121 189//121 197//121 198//121
f 181//122 184//122 190//122 187//122
f 183//123 182//123 188//123 189//123
f 184//124 183//124 189//124 190//124
f 193//125 194//125 206//125 205//125
f 184//126 185//126 192//126 191//126
f 185//127 186//127 193//127 192//127
f 183//128 184//128 191//128 194//128
f 198//129 197//129 201//129 202//129
f 189//130 188//130 196//130 197//130
f 187//131 190//131 198//131 195//131
f 188//132 187//132 195//132 196//132
f 200//133 199//133 202//133 201//133
f 197//134 196//134 200//134 201//134
f 195//135 198//135 202//135 199//135
f 196//136 195//136 199//136 200//136
f 206//137 203//137 204//137 205//137
f 191//138 192//138 204//138 203//138
f 194//139 191//139 203//139 206//139
f 192//140 193//140 205//140 204//140
