# Blender v2.91.2 OBJ File: 'camionnete02.blend'
# www.blender.org
mtllib arme_000099.mtl
o Cube.046_Cube.010
v 366.649200 376.491364 -1021.327881
v 367.915314 156.088272 -1021.274902
v 485.270447 377.128143 -1207.090332
v 486.536560 156.725067 -1207.037476
v 180.889954 375.395782 -1139.950806
v 182.156021 154.992676 -1139.897827
v 299.511169 376.032593 -1325.713257
v 300.777283 155.629471 -1325.660400
v 203.331253 375.614594 -765.569702
v 204.597351 155.211548 -765.516724
v 18.838100 154.115952 -884.139648
v 17.572010 374.519043 -884.192566
v 129.419189 375.217834 -649.822205
v 130.685272 154.814743 -649.769348
v -55.074036 153.719147 -768.392212
v -56.340126 374.122253 -768.445190
v 85.755219 374.983429 -581.443909
v 94.114136 214.699631 -592.739990
v -91.645210 213.604065 -711.362915
v -100.004105 373.887878 -700.066772
v 128.156982 594.939575 -649.875061
v -57.602276 593.843994 -768.498047
v 84.493050 594.705200 -581.496704
v -101.266228 593.609619 -700.119629
v 228.811874 375.751373 -805.472656
v 230.077972 155.348328 -805.419739
v 43.052601 374.655823 -924.095581
v 44.318665 154.252731 -924.042664
v 202.913315 448.371307 -765.587158
v 17.154047 447.275787 -884.210144
v 228.393921 448.508087 -805.490112
v 42.634636 447.412506 -924.112976
v 202.306976 553.929443 -765.612549
v 16.547697 552.833862 -884.235352
v 227.787537 554.066162 -805.515503
v 42.028301 552.970581 -924.138367
v 130.671768 447.983490 -652.455811
v -55.087540 446.887909 -771.078735
v 130.065384 553.541626 -652.481140
v -55.693905 552.446045 -771.104065
v 154.939651 731.871094 -693.080322
v -30.819626 730.775513 -811.703308
v 111.275681 731.636719 -624.702026
v -74.483551 730.541138 -743.324890
v 443.393463 376.903351 -1141.510498
v 444.659576 156.500259 -1141.457642
v 257.634186 375.807770 -1260.133301
v 258.900299 155.404663 -1260.080444
v 392.390808 376.580383 -1266.401855
v 393.656921 156.177261 -1266.348999
v 273.769592 375.943573 -1080.639404
v 275.035675 155.540482 -1080.586426
v 110.451637 375.066803 -824.881104
v 111.717712 154.663742 -824.828125
v 36.539539 374.670074 -709.133728
v 37.805614 154.266953 -709.080811
v -7.124417 374.435638 -640.755371
v 1.234482 214.151855 -652.051453
v 35.277336 594.391846 -709.186462
v -8.386593 594.157349 -640.808167
v 137.198318 154.800537 -864.731140
v 135.932236 375.203583 -864.784119
v 110.033684 447.823547 -824.898682
v 135.514282 447.960266 -864.801514
v 109.427338 553.381714 -824.923950
v 134.907928 553.518433 -864.826965
v 37.792110 447.435730 -711.767334
v 37.185745 552.993896 -711.792603
v 62.059998 731.323364 -752.391846
v 18.396044 731.088867 -684.013489
v 351.779907 155.952469 -1200.769043
v 350.513824 376.355560 -1200.821899
v 438.830627 376.854248 -1236.745972
v 321.475494 155.814377 -1050.930664
v 158.157532 154.937653 -795.172485
v 84.245422 154.540848 -679.425110
v 47.674301 214.425735 -622.395752
v 182.372055 375.477478 -835.128357
v 181.954102 448.234161 -835.145813
v 181.347733 553.792236 -835.171204
v 396.953674 376.629456 -1171.166260
v 440.096741 156.451172 -1236.693237
v 320.209381 376.217468 -1050.983765
v 156.891449 375.340698 -795.225464
v 82.979347 374.943939 -679.477966
v 39.315388 374.709534 -611.099609
v 81.717178 594.665649 -679.530762
v 38.053242 594.431274 -611.152466
v 183.638153 155.074432 -835.075439
v 156.473511 448.097443 -795.242920
v 155.867142 553.655518 -795.268250
v 84.231934 447.709625 -682.111572
v 83.625565 553.267700 -682.136841
v 108.499847 731.597290 -722.736023
v 64.835876 731.362793 -654.357727
v 398.219727 156.226364 -1171.113403
v 183.875214 113.806969 -835.065552
v 137.435379 113.533051 -864.721252
v 398.456787 114.958893 -1171.103516
v 352.016998 114.684982 -1200.759155
v 275.272736 114.272995 -1080.576538
v 321.712555 114.546906 -1050.920776
v 500.649750 315.778717 -1057.970215
v 466.714203 315.596527 -1004.826721
v 467.274170 218.136551 -1004.803162
v 501.209625 218.318726 -1057.946899
v 540.791382 316.015503 -1032.336548
v 506.855865 315.833313 -979.192993
v 507.415771 218.373337 -979.169556
v 541.351257 218.555496 -1032.313110
v 602.220886 316.377808 -993.108826
v 568.285339 316.195618 -939.965210
v 568.845215 218.735672 -939.941772
v 602.780701 218.917847 -993.085449
v 641.749939 316.610962 -967.866211
v 607.814392 316.428772 -914.722656
v 608.374390 218.968796 -914.699219
v 642.309814 219.150970 -967.842773
v 829.790344 158.543457 -1846.958008
v 783.350525 158.269562 -1876.613770
v 782.084290 378.672668 -1876.666748
v 828.524231 378.946564 -1847.010986
vn 0.8428 0.0050 0.5382
vn 0.5382 0.0029 -0.8428
vn -0.8428 -0.0050 -0.5382
vn -0.0057 1.0000 -0.0002
vn 0.0057 -1.0000 0.0002
vn -0.5382 -0.0029 0.8428
vn -0.3533 -0.7492 0.5602
vn -0.5358 -0.0871 0.8398
vn -0.8435 -0.0055 -0.5371
vn 0.8435 0.0055 0.5371
vn 0.5060 -0.3480 -0.7892
vn -0.5060 0.3480 0.7892
vn 0.8264 0.0046 -0.5630
vn -0.1631 -0.0007 0.9866
vn 0.4698 -0.8312 0.2972
vn 0.4602 0.8367 0.2968
usemtl Matériau.011
s off
f 45//1 46//1 4//1 3//1
f 49//2 50//2 8//2 7//2
f 47//3 48//3 6//3 5//3
f 26//1 25//1 9//1 10//1
f 72//4 47//4 5//4 51//4
f 96//5 46//5 2//5 74//5
f 10//1 9//1 13//1 14//1
f 84//6 9//6 29//6 90//6
f 89//5 26//5 10//5 75//5
f 27//3 28//3 11//3 12//3
f 76//7 14//7 18//7 77//7
f 75//5 10//5 14//5 76//5
f 12//3 11//3 15//3 16//3
f 53//4 12//4 16//4 55//4
f 86//8 77//8 18//8 17//8
f 16//9 15//9 19//9 20//9
f 16//3 20//3 24//3 22//3
f 14//10 13//10 17//10 18//10
f 59//11 22//11 42//11 69//11
f 86//6 17//6 23//6 88//6
f 17//1 13//1 21//1 23//1
f 55//2 16//2 22//2 59//2
f 5//3 6//3 28//3 27//3
f 74//5 2//5 26//5 89//5
f 51//4 5//4 27//4 62//4
f 2//1 1//1 25//1 26//1
f 32//3 30//3 34//3 36//3
f 62//2 27//2 32//2 64//2
f 27//3 12//3 30//3 32//3
f 9//1 25//1 31//1 29//1
f 66//4 36//4 34//4 65//4
f 90//5 29//5 37//5 92//5
f 64//2 32//2 36//2 66//2
f 29//1 31//1 35//1 33//1
f 92//6 37//6 39//6 93//6
f 29//1 33//1 39//1 37//1
f 34//3 30//3 38//3 40//3
f 65//4 34//4 40//4 68//4
f 69//4 42//4 44//4 70//4
f 23//1 21//1 41//1 43//1
f 88//12 23//12 43//12 95//12
f 22//3 24//3 44//3 42//3
f 82//5 4//5 46//5 96//5
f 49//4 7//4 47//4 72//4
f 7//3 8//3 48//3 47//3
f 46//13 45//13 103//13 106//13
f 73//4 49//4 72//4 81//4
f 8//5 50//5 71//5 48//5
f 24//12 60//12 70//12 44//12
f 94//4 69//4 70//4 95//4
f 91//4 65//4 68//4 93//4
f 38//6 67//6 68//6 40//6
f 79//2 64//2 66//2 80//2
f 30//5 63//5 67//5 38//5
f 80//4 66//4 65//4 91//4
f 78//2 62//2 64//2 79//2
f 83//4 51//4 62//4 78//4
f 6//5 52//5 61//5 28//5
f 85//2 55//2 59//2 87//2
f 20//6 57//6 60//6 24//6
f 87//11 59//11 69//11 94//11
f 20//8 19//8 58//8 57//8
f 84//4 53//4 55//4 85//4
f 11//5 54//5 56//5 15//5
f 15//7 56//7 58//7 19//7
f 28//5 61//5 54//5 11//5
f 12//6 53//6 63//6 30//6
f 48//5 71//5 52//5 6//5
f 81//4 72//4 51//4 83//4
f 50//3 49//3 121//3 120//3
f 3//2 4//2 82//2 73//2
f 45//4 81//4 83//4 1//4
f 9//4 84//4 85//4 13//4
f 21//11 87//11 94//11 41//11
f 13//2 85//2 87//2 21//2
f 1//4 83//4 78//4 25//4
f 25//2 78//2 79//2 31//2
f 35//4 80//4 91//4 33//4
f 31//2 79//2 80//2 35//2
f 33//4 91//4 93//4 39//4
f 41//4 94//4 95//4 43//4
f 3//4 73//4 81//4 45//4
f 50//5 82//5 96//5 71//5
f 60//12 88//12 95//12 70//12
f 67//6 92//6 93//6 68//6
f 63//5 90//5 92//5 67//5
f 52//3 71//3 100//3 101//3
f 57//6 86//6 88//6 60//6
f 57//8 58//8 77//8 86//8
f 54//5 75//5 76//5 56//5
f 56//7 76//7 77//7 58//7
f 61//5 89//5 75//5 54//5
f 53//6 84//6 90//6 63//6
f 89//6 61//6 98//6 97//6
f 101//5 102//5 97//5 98//5
f 100//5 99//5 102//5 101//5
f 61//3 52//3 101//3 98//3
f 74//1 89//1 97//1 102//1
f 71//2 96//2 99//2 100//2
f 96//1 74//1 102//1 99//1
f 106//2 103//2 107//2 110//2
f 1//14 2//14 105//14 104//14
f 2//15 46//15 106//15 105//15
f 45//16 1//16 104//16 103//16
f 109//5 110//5 114//5 113//5
f 104//6 105//6 109//6 108//6
f 105//5 106//5 110//5 109//5
f 103//4 104//4 108//4 107//4
f 113//5 114//5 118//5 117//5
f 107//4 108//4 112//4 111//4
f 110//2 107//2 111//2 114//2
f 108//6 109//6 113//6 112//6
f 116//1 117//1 118//1 115//1
f 111//4 112//4 116//4 115//4
f 114//2 111//2 115//2 118//2
f 122//2 119//2 120//2 121//2
f 82//5 50//5 120//5 119//5
f 73//1 82//1 119//1 122//1
f 49//4 73//4 122//4 121//4
o Cube.047_Cube.022
v -287.081726 594.343628 358.867401
v -284.128204 353.720062 336.751099
v -169.853714 615.111267 148.572647
v -166.900192 374.487671 126.456337
v -469.098206 548.937317 185.262634
v -467.583862 425.562836 173.922989
v -408.992157 559.585449 77.438637
v -407.477783 436.210968 66.098991
v -29.285522 467.138489 -234.508194
v -30.832581 593.178284 -222.923538
v -141.511017 597.451782 -284.198792
v -139.963959 471.411926 -295.783447
v 60.272491 502.888275 -428.397034
v 59.135040 595.555603 -419.879700
v -22.238251 598.697510 -464.930603
v -21.100800 506.030212 -473.447937
v 114.523621 527.363342 -550.559387
v 113.692383 595.083374 -544.335022
v 54.225861 597.379456 -577.257629
v 55.057098 529.659424 -583.481995
v -284.502014 625.026245 106.744919
v -281.366486 369.574707 83.265732
v -408.953979 602.978882 329.998718
v -405.818451 347.527283 306.519531
v -83.504425 599.679504 -258.074707
v -81.862030 465.872711 -270.373230
v 27.562805 601.602661 -458.555847
v 28.770325 503.224915 -467.597961
v 97.110474 600.652344 -584.242615
v 97.992920 528.759155 -590.850525
v 163.248535 535.327576 -630.702698
v 162.417297 603.047607 -624.478333
v 145.568207 609.654114 -675.709900
v 146.450653 537.760986 -682.317810
v 103.555908 538.501709 -673.208679
v 102.724670 606.221741 -666.984314
v 197.099457 541.096802 -688.951111
v 196.268280 608.816895 -682.726746
v 179.419159 615.423401 -733.958435
v 180.301605 543.530212 -740.566345
v 137.406860 544.270935 -731.457153
v 136.575623 611.991028 -725.232788
v 239.046722 555.862122 -711.590271
v 238.511688 599.450439 -707.583923
v 227.666779 603.702759 -740.559509
v 228.234772 557.428406 -744.812683
v 168.847412 548.383423 -794.898254
v 125.952606 549.124146 -785.789001
v 125.121368 616.844238 -779.564636
v 167.964966 620.276611 -788.290344
v 268.236542 564.741089 -726.370483
v 267.875824 594.127136 -723.669556
v 260.564545 596.993958 -745.900757
v 260.947479 565.797058 -748.768188
v 290.329437 572.879700 -751.574707
v 290.103973 591.249268 -749.886353
v 285.533539 593.041382 -763.783325
v 285.772919 573.539795 -765.575806
v 155.345764 562.817993 -821.570068
v 126.824402 563.310486 -815.513245
v 126.271729 608.338379 -811.374573
v 154.759003 610.620667 -817.176392
vn 0.8744 -0.0338 0.4841
vn -0.8054 0.0444 -0.5911
vn -0.8744 0.0338 -0.4841
vn -0.2357 -0.0918 0.9675
vn -0.4314 0.8891 -0.1527
vn 0.0660 -0.9959 -0.0616
vn -0.8341 0.0403 -0.5502
vn 0.1047 0.9944 -0.0155
vn -0.2728 -0.8988 -0.3432
vn 0.9360 -0.0208 0.3515
vn -0.0426 -0.9719 -0.2314
vn 0.0960 0.9936 0.0593
vn -0.0181 -0.9798 -0.1992
vn 0.9094 -0.0270 0.4151
vn -0.0664 0.9958 0.0625
vn 0.9155 -0.0257 0.4014
vn -0.8257 0.0416 -0.5626
vn 0.1369 0.9886 0.0623
vn -0.0668 0.9965 -0.0504
vn 0.8555 -0.0370 0.5165
vn 0.1203 -0.9851 -0.1226
vn -0.0424 0.9990 -0.0173
vn 0.1610 -0.9798 -0.1186
vn 0.1288 -0.9721 -0.1962
vn -0.2954 0.9394 -0.1743
vn -0.4100 -0.8566 -0.3132
vn 0.0416 0.9918 0.1211
vn -0.9159 -0.0479 0.3985
vn -0.8656 0.0353 -0.4995
vn 0.0570 -0.9962 -0.0655
vn -0.8806 0.0326 -0.4728
vn 0.0369 0.9922 0.1190
vn 0.0613 -0.9961 -0.0637
vn -0.0420 -0.9919 -0.1202
vn -0.0590 0.9931 0.1011
vn 0.4936 -0.0736 0.8666
vn 0.0326 0.9926 0.1173
vn -0.0677 0.9959 0.0593
vn -0.0433 -0.9914 -0.1234
vn 0.8656 -0.0353 0.4995
vn -0.1419 0.0889 -0.9859
vn 0.2653 -0.9552 -0.1314
vn 0.2417 0.9693 0.0455
vn -0.1136 0.0896 -0.9895
vn -0.1297 0.9567 -0.2605
vn -0.0345 -0.9961 -0.0817
vn -0.9786 -0.0307 0.2036
vn 0.9786 0.0307 -0.2036
vn -0.5738 0.0680 -0.8162
vn 0.2084 0.9764 0.0574
vn 0.2323 -0.9651 -0.1211
vn 0.4686 -0.0752 0.8802
vn 0.9507 0.0399 -0.3075
vn 0.1985 0.9782 0.0609
vn 0.2221 -0.9679 -0.1179
vn 0.7590 -0.0503 0.6491
vn -0.2055 0.0871 -0.9748
vn -0.1070 -0.8961 -0.4308
vn 0.9018 0.0505 -0.4292
vn -0.9994 -0.0092 -0.0337
usemtl Matériau.012
s off
f 123//17 124//17 126//17 125//17
f 130//18 129//18 133//18 134//18
f 129//19 130//19 128//19 127//19
f 145//20 146//20 124//20 123//20
f 143//21 129//21 127//21 145//21
f 144//22 126//22 124//22 146//22
f 134//23 133//23 137//23 138//23
f 143//24 125//24 132//24 147//24
f 144//25 130//25 134//25 148//25
f 125//26 126//26 131//26 132//26
f 150//27 138//27 142//27 152//27
f 147//28 132//28 136//28 149//28
f 148//29 134//29 138//29 150//29
f 132//30 131//30 135//30 136//30
f 141//31 151//31 155//31 158//31
f 136//32 135//32 139//32 140//32
f 138//33 137//33 141//33 142//33
f 149//34 136//34 140//34 151//34
f 137//35 149//35 151//35 141//35
f 140//36 139//36 153//36 154//36
f 131//37 148//37 150//37 135//37
f 133//38 147//38 149//38 137//38
f 135//39 150//39 152//39 139//39
f 126//40 144//40 148//40 131//40
f 129//41 143//41 147//41 133//41
f 130//42 144//42 146//42 128//42
f 125//43 143//43 145//43 123//43
f 127//44 128//44 146//44 145//44
f 157//45 158//45 164//45 163//45
f 153//46 156//46 162//46 159//46
f 142//47 141//47 158//47 157//47
f 151//48 140//48 154//48 155//48
f 139//49 152//49 156//49 153//49
f 152//50 142//50 157//50 156//50
f 164//51 161//51 172//51 171//51
f 160//52 159//52 165//52 166//52
f 155//53 154//53 160//53 161//53
f 158//54 155//54 161//54 164//54
f 156//55 157//55 163//55 162//55
f 154//56 153//56 159//56 160//56
f 168//57 167//57 175//57 176//57
f 159//58 162//58 168//58 165//58
f 161//59 160//59 166//59 167//59
f 162//60 161//60 167//60 168//60
f 171//61 172//61 184//61 183//61
f 162//62 163//62 170//62 169//62
f 163//63 164//63 171//63 170//63
f 161//64 162//64 169//64 172//64
f 176//65 175//65 179//65 180//65
f 167//66 166//66 174//66 175//66
f 165//67 168//67 176//67 173//67
f 166//68 165//68 173//68 174//68
f 178//69 177//69 180//69 179//69
f 175//70 174//70 178//70 179//70
f 173//71 176//71 180//71 177//71
f 174//72 173//72 177//72 178//72
f 184//73 181//73 182//73 183//73
f 169//74 170//74 182//74 181//74
f 172//75 169//75 181//75 184//75
f 170//76 171//76 183//76 182//76
o Cube.048_Cube.024
v -564.251953 466.780945 182.347382
v -727.216370 342.103271 54.692978
v -422.745209 481.797668 -12.967529
v -585.709595 357.119965 -140.621948
v -678.181274 646.528015 40.779491
v -761.737732 582.602295 -24.672493
v -605.626831 654.227478 -59.363945
v -689.183228 590.301758 -124.815918
v -345.096466 460.126892 -439.473511
v -259.734924 525.433655 -372.607513
v -316.673309 633.580750 -405.544861
v -402.034851 568.273926 -472.410858
v -215.292999 496.465637 -608.949463
v -152.533264 544.480652 -559.788086
v -194.395630 623.992798 -584.004395
v -257.155365 575.977783 -633.165771
v -133.586426 522.003784 -714.484741
v -87.722473 557.092529 -678.558228
v -118.314941 615.198975 -696.255249
v -164.178955 580.110229 -732.181763
v -482.828613 587.730225 -25.631805
v -655.835388 455.369476 -161.152679
v -633.055420 571.788147 181.719070
v -806.062256 439.427429 46.198212
v -282.296692 581.867188 -391.539520
v -372.918488 512.536011 -462.526031
v -160.486389 586.888184 -585.625366
v -227.113556 535.914307 -637.816284
v -85.699585 588.914856 -708.254028
v -134.389832 551.663818 -746.394409
v -76.913574 524.825439 -789.589478
v -31.049622 559.914185 -753.662964
v -25.866577 597.259277 -792.787109
v -74.556824 560.008301 -830.927490
v -104.831665 587.605713 -815.265503
v -58.967712 622.694458 -779.338989
v -36.782593 527.995667 -843.917358
v 9.081421 563.084412 -807.990845
v 14.264465 600.429504 -847.114868
v -34.425781 563.178528 -885.255249
v -64.700684 590.776001 -869.593262
v -18.836731 625.864746 -833.666748
v 6.928528 515.267944 -864.349121
v 36.449097 537.853027 -841.224854
v 39.785217 561.890381 -866.407227
v 8.445496 537.913574 -890.956421
v -26.158386 596.964905 -928.808105
v -56.433350 624.562378 -913.145996
v -10.569336 659.651123 -877.219482
v 22.531860 634.215942 -890.667725
v 36.135498 505.237000 -878.337280
v 56.037476 520.463196 -862.747559
v 58.286560 536.668518 -879.724976
v 37.158203 520.504028 -896.275391
v 62.469177 504.315643 -900.592041
v 74.910095 513.833740 -890.846680
v 76.316162 523.963867 -901.459473
v 63.108521 513.859253 -911.805298
v -18.855530 625.852234 -943.444580
v -38.985657 644.202148 -933.030762
v -8.490112 667.533081 -909.142822
v 13.519226 650.620911 -918.084595
vn 0.4498 -0.8544 0.2602
vn -0.3715 0.8553 -0.3611
vn -0.4498 0.8544 -0.2602
vn -0.4452 -0.2866 0.8483
vn 0.3747 0.8634 0.3379
vn -0.6454 -0.5675 -0.5112
vn -0.4030 0.8566 -0.3222
vn 0.7763 0.4756 0.4137
vn -0.7386 -0.1508 -0.6570
vn 0.5307 -0.8361 0.1391
vn -0.6620 -0.4045 -0.6310
vn 0.7527 0.4500 0.4805
vn -0.6586 -0.4400 -0.6104
vn 0.4939 -0.8470 0.1967
vn 0.6448 0.5674 0.5121
vn 0.5021 -0.8450 0.1843
vn -0.3937 0.8565 -0.3339
vn 0.7758 0.4165 0.4739
vn 0.6711 0.6155 0.4133
vn 0.4275 -0.8561 0.2904
vn -0.5874 -0.5752 -0.5692
vn 0.6815 0.5852 0.4394
vn -0.5573 -0.6034 -0.5704
vn -0.5555 -0.5433 -0.6295
vn 0.5062 0.8016 0.3181
vn -0.8076 -0.0412 -0.5883
vn 0.7008 0.4624 0.5433
vn -0.7384 0.4686 0.4849
vn -0.4393 0.8553 -0.2746
vn -0.6507 -0.5595 -0.5133
vn -0.4574 0.8535 -0.2497
vn 0.6984 0.4669 0.5424
vn -0.6481 -0.5633 -0.5124
vn -0.7013 -0.4625 -0.5424
vn 0.6390 0.5443 0.5435
vn 0.0789 -0.7616 0.6432
vn 0.6962 0.4709 0.5418
vn 0.6448 0.5697 0.5095
vn -0.7012 -0.4600 -0.5448
vn 0.4393 -0.8553 0.2746
vn 0.1947 0.5659 -0.8012
vn -0.4672 -0.6600 -0.5884
vn 0.8362 0.3372 0.4326
vn 0.2149 0.5473 -0.8089
vn 0.6492 0.7275 0.2219
vn -0.7082 -0.4864 -0.5118
vn -0.7233 0.6053 0.3323
vn 0.7233 -0.6053 -0.3323
vn -0.1481 0.7954 -0.5878
vn 0.8162 0.3601 0.4519
vn -0.4987 -0.6458 -0.5781
vn 0.0579 -0.7501 0.6588
vn 0.7351 -0.5364 -0.4146
vn 0.8100 0.3669 0.4575
vn -0.5082 -0.6413 -0.5748
vn 0.3230 -0.8494 0.4173
vn 0.1483 0.6062 -0.7814
vn -0.6056 -0.2325 -0.7610
vn 0.7379 -0.4441 -0.5083
vn -0.6674 0.7319 0.1372
usemtl Matériau.012
s off
f 185//77 186//77 188//77 187//77
f 192//78 191//78 195//78 196//78
f 191//79 192//79 190//79 189//79
f 207//80 208//80 186//80 185//80
f 205//81 191//81 189//81 207//81
f 206//82 188//82 186//82 208//82
f 196//83 195//83 199//83 200//83
f 205//84 187//84 194//84 209//84
f 206//85 192//85 196//85 210//85
f 187//86 188//86 193//86 194//86
f 212//87 200//87 204//87 214//87
f 209//88 194//88 198//88 211//88
f 210//89 196//89 200//89 212//89
f 194//90 193//90 197//90 198//90
f 203//91 213//91 217//91 220//91
f 198//92 197//92 201//92 202//92
f 200//93 199//93 203//93 204//93
f 211//94 198//94 202//94 213//94
f 199//95 211//95 213//95 203//95
f 202//96 201//96 215//96 216//96
f 193//97 210//97 212//97 197//97
f 195//98 209//98 211//98 199//98
f 197//99 212//99 214//99 201//99
f 188//100 206//100 210//100 193//100
f 191//101 205//101 209//101 195//101
f 192//102 206//102 208//102 190//102
f 187//103 205//103 207//103 185//103
f 189//104 190//104 208//104 207//104
f 219//105 220//105 226//105 225//105
f 215//106 218//106 224//106 221//106
f 204//107 203//107 220//107 219//107
f 213//108 202//108 216//108 217//108
f 201//109 214//109 218//109 215//109
f 214//110 204//110 219//110 218//110
f 226//111 223//111 234//111 233//111
f 222//112 221//112 227//112 228//112
f 217//113 216//113 222//113 223//113
f 220//114 217//114 223//114 226//114
f 218//115 219//115 225//115 224//115
f 216//116 215//116 221//116 222//116
f 230//117 229//117 237//117 238//117
f 221//118 224//118 230//118 227//118
f 223//119 222//119 228//119 229//119
f 224//120 223//120 229//120 230//120
f 233//121 234//121 246//121 245//121
f 224//122 225//122 232//122 231//122
f 225//123 226//123 233//123 232//123
f 223//124 224//124 231//124 234//124
f 238//125 237//125 241//125 242//125
f 229//126 228//126 236//126 237//126
f 227//127 230//127 238//127 235//127
f 228//128 227//128 235//128 236//128
f 240//129 239//129 242//129 241//129
f 237//130 236//130 240//130 241//130
f 235//131 238//131 242//131 239//131
f 236//132 235//132 239//132 240//132
f 246//133 243//133 244//133 245//133
f 231//134 232//134 244//134 243//134
f 234//135 231//135 243//135 246//135
f 232//136 233//136 245//136 244//136
