# Blender v2.91.2 OBJ File: 'camionnete02.blend'
# www.blender.org
mtllib arme_000125.mtl
o Cube.046_Cube.010
v 108.688469 554.825378 -1264.494019
v 135.888458 336.955261 -1245.208984
v 163.689163 542.829346 -1477.590576
v 190.889145 324.959290 -1458.305420
v -103.005142 523.715027 -1317.381470
v -75.805206 305.844971 -1298.096313
v -48.004440 511.719116 -1530.477783
v -20.804520 293.848999 -1511.192871
v 32.963394 571.341370 -971.102417
v 60.163353 353.471375 -951.817261
v -151.530228 322.361084 -1004.704529
v -178.730209 540.231201 -1023.989685
v -1.307137 578.816040 -838.323303
v 25.892792 360.945984 -819.038269
v -185.800827 329.835693 -871.925476
v -213.000809 547.705750 -891.210632
v -21.552689 583.231689 -759.883484
v 1.777702 424.036438 -758.921326
v -209.916000 392.926147 -811.808594
v -233.246323 552.121460 -812.770691
v 44.777908 568.764587 -1016.876831
v 71.977867 350.894531 -997.591736
v -166.915726 537.654297 -1069.764160
v -139.715775 319.784241 -1050.479004
v 144.272186 547.064331 -1402.360962
v 171.472168 329.194214 -1383.075806
v -67.421417 515.954041 -1455.248169
v -40.221436 298.083984 -1435.963013
v 57.842339 527.274231 -1504.034180
v 85.042328 309.404114 -1484.749268
v 2.841652 539.270203 -1290.937744
v 30.041641 321.400085 -1271.652588
v -72.883408 555.786255 -997.546021
v -45.683426 337.916199 -978.260864
v -107.153976 563.260925 -864.766968
v -75.262634 356.931580 -833.538879
v -127.399490 567.676636 -786.327087
v -91.523529 399.473694 -793.001831
v -33.868958 335.339355 -1024.035400
v -61.068924 553.209412 -1043.320557
v 65.625351 313.639099 -1409.519531
v 38.425400 531.509216 -1428.804565
v 110.765800 535.051819 -1490.812256
v 82.965027 329.177673 -1258.430786
v 7.239929 345.693787 -965.039124
v -39.576263 362.176025 -824.623291
v -55.837143 404.718079 -784.086243
v -8.145493 560.987061 -1030.098633
v 91.348793 539.286743 -1415.582764
v 137.965759 317.181702 -1471.527344
v 55.765015 547.047729 -1277.715942
v -19.960037 563.563843 -984.324219
v -54.230576 571.038452 -851.545166
v -74.476089 575.454163 -773.105286
v 19.054443 343.116943 -1010.813599
v 118.548721 321.416626 -1396.297607
v 24.147293 302.323730 -1007.202698
v -28.776123 294.546204 -1020.424500
v 123.641525 280.623413 -1392.686890
v 70.718201 272.845886 -1405.908691
v 35.134445 280.606903 -1268.041870
v 88.057877 288.384521 -1254.819824
v 231.174179 501.578430 -1336.235596
v 215.439362 505.010254 -1275.272339
v 227.467102 408.670410 -1266.744507
v 243.201721 405.238525 -1327.708008
v 276.919983 508.301208 -1324.807007
v 261.185242 511.733093 -1263.843628
v 273.212860 415.393188 -1255.315918
v 288.947571 411.961304 -1316.279297
v 346.925720 518.589233 -1307.317627
v 331.190979 522.021057 -1246.354248
v 343.218597 425.681152 -1237.826538
v 358.953217 422.249329 -1298.790039
v 391.973572 525.209351 -1296.063354
v 376.238831 528.641235 -1235.100098
v 388.266479 432.301392 -1226.572388
v 404.001160 428.869507 -1287.535767
v 318.653748 277.773010 -2171.589844
v 265.730377 269.995392 -2184.811523
v 238.530243 487.865540 -2204.096680
v 291.453735 495.643066 -2190.875000
vn 0.9605 0.1411 0.2400
vn 0.2495 -0.0544 -0.9668
vn -0.9605 -0.1411 -0.2400
vn -0.1234 0.9885 -0.0875
vn 0.1234 -0.9885 0.0875
vn -0.0736 -0.7026 0.7078
vn 0.0393 -0.9943 0.0989
vn -0.3123 -0.0685 0.9475
vn -0.9607 -0.1416 -0.2386
vn 0.9607 0.1416 0.2386
vn 0.6074 0.0055 -0.7944
vn -0.1926 -0.0519 0.9799
vn 0.1544 -0.9795 0.1290
vn -0.2293 -0.0874 0.9694
vn 0.1067 -0.9828 0.1509
vn -0.2495 0.0544 0.9668
vn 0.9605 0.1412 0.2400
vn 0.1485 0.1056 0.9833
vn 0.6329 -0.7465 0.2054
vn 0.4270 0.9023 0.0594
usemtl Matériau.011
s off
f 25//1 26//1 4//1 3//1
f 29//2 30//2 8//2 7//2
f 27//3 28//3 6//3 5//3
f 22//1 21//1 9//1 10//1
f 42//4 27//4 5//4 31//4
f 56//5 26//5 2//5 44//5
f 10//1 9//1 13//1 14//1
f 55//5 22//5 10//5 45//5
f 23//3 24//3 11//3 12//3
f 46//6 14//6 18//6 47//6
f 45//7 10//7 14//7 46//7
f 12//3 11//3 15//3 16//3
f 33//4 12//4 16//4 35//4
f 54//8 47//8 18//8 17//8
f 16//9 15//9 19//9 20//9
f 14//10 13//10 17//10 18//10
f 5//3 6//3 24//3 23//3
f 44//5 2//5 22//5 55//5
f 31//4 5//4 23//4 40//4
f 2//1 1//1 21//1 22//1
f 50//5 4//5 26//5 56//5
f 29//4 7//4 27//4 42//4
f 7//3 8//3 28//3 27//3
f 26//11 25//11 63//11 66//11
f 43//4 29//4 42//4 49//4
f 8//5 30//5 41//5 28//5
f 51//4 31//4 40//4 48//4
f 6//5 32//5 39//5 24//5
f 20//12 19//12 38//12 37//12
f 52//4 33//4 35//4 53//4
f 11//13 34//13 36//13 15//13
f 15//6 36//6 38//6 19//6
f 24//5 39//5 34//5 11//5
f 28//5 41//5 32//5 6//5
f 49//4 42//4 31//4 51//4
f 30//3 29//3 81//3 80//3
f 3//2 4//2 50//2 43//2
f 25//4 49//4 51//4 1//4
f 9//4 52//4 53//4 13//4
f 1//4 51//4 48//4 21//4
f 3//4 43//4 49//4 25//4
f 30//5 50//5 56//5 41//5
f 32//3 41//3 60//3 61//3
f 37//14 38//14 47//14 54//14
f 34//15 45//15 46//15 36//15
f 36//6 46//6 47//6 38//6
f 39//5 55//5 45//5 34//5
f 55//16 39//16 58//16 57//16
f 61//5 62//5 57//5 58//5
f 60//5 59//5 62//5 61//5
f 39//3 32//3 61//3 58//3
f 44//17 55//17 57//17 62//17
f 41//2 56//2 59//2 60//2
f 56//1 44//1 62//1 59//1
f 66//2 63//2 67//2 70//2
f 1//18 2//18 65//18 64//18
f 2//19 26//19 66//19 65//19
f 25//20 1//20 64//20 63//20
f 69//5 70//5 74//5 73//5
f 64//16 65//16 69//16 68//16
f 65//5 66//5 70//5 69//5
f 63//4 64//4 68//4 67//4
f 73//5 74//5 78//5 77//5
f 67//4 68//4 72//4 71//4
f 70//2 67//2 71//2 74//2
f 68//16 69//16 73//16 72//16
f 76//1 77//1 78//1 75//1
f 71//4 72//4 76//4 75//4
f 74//2 71//2 75//2 78//2
f 82//2 79//2 80//2 81//2
f 50//5 30//5 80//5 79//5
f 43//1 50//1 79//1 82//1
f 29//4 43//4 82//4 81//4
o Cube.048_Cube.024
v -532.079468 502.502716 145.832306
v -670.338379 320.622620 67.081482
v -409.215607 499.194244 -62.232758
v -546.621399 317.221680 -140.584412
v -691.350281 616.463501 -18.411629
v -762.239441 523.208557 -58.789375
v -628.354492 614.767212 -125.092384
v -698.775146 521.667114 -164.922729
v -402.867859 400.727051 -498.827850
v -309.445160 480.625244 -468.643158
v -386.078827 578.791016 -491.301605
v -479.501465 498.892761 -521.486267
v -336.519775 426.938446 -703.284241
v -267.833313 485.681396 -681.091736
v -324.176147 557.855103 -697.750671
v -392.862610 499.112152 -719.943115
v -294.719666 446.211731 -831.140198
v -244.524536 489.140320 -814.922180
v -285.699097 541.883850 -827.096375
v -335.894379 498.955261 -843.314270
v -491.938599 584.559021 -91.152290
v -637.652710 392.012390 -173.209869
v -622.487915 588.101685 129.709686
v -769.266663 395.013672 46.105988
v -343.216125 532.238525 -484.384552
v -442.395813 447.416718 -516.429260
v -288.269348 523.809326 -706.740479
v -361.188507 461.446442 -730.300354
v -255.472839 517.167603 -846.437317
v -308.761200 471.593658 -863.654663
v -264.553650 444.619965 -920.291687
v -214.358643 487.548492 -904.073669
v -225.864380 520.155640 -945.985718
v -279.152710 474.581665 -963.202820
v -306.200165 501.239349 -941.264587
v -256.005127 544.167847 -925.046570
v -243.682098 444.512726 -984.606506
v -193.486847 487.441376 -968.388611
v -204.992615 520.048401 -1010.300476
v -258.281097 474.474487 -1027.517700
v -285.328430 501.132080 -1005.579285
v -235.133301 544.060608 -989.361389
v -207.160522 433.109375 -1016.642029
v -174.852234 460.740540 -1006.203186
v -182.257996 481.728271 -1033.179810
v -216.557312 452.394348 -1044.261841
v -267.811768 503.281921 -1074.272461
v -294.859253 529.939575 -1052.333862
v -244.664032 572.868164 -1036.116089
v -214.523529 548.855896 -1057.054932
v -182.680603 423.939087 -1038.228271
v -160.899109 442.567261 -1031.190796
v -165.891907 456.716675 -1049.377686
v -189.015564 436.940491 -1056.848999
v -164.523621 422.530701 -1067.518555
v -150.907776 434.175415 -1063.119385
v -154.028870 443.020294 -1074.488159
v -168.483582 430.657990 -1079.158813
v -268.809570 530.683228 -1092.986450
v -286.793671 548.408203 -1078.399048
v -253.418274 576.951965 -1067.615723
v -233.377441 560.985962 -1081.538330
v -240.061890 573.816040 375.651764
v -327.488586 348.565613 371.600555
v -114.091614 526.917114 176.777496
v -198.845123 302.218628 172.351013
v -414.965942 581.886536 189.442810
v -459.792023 466.394348 187.365662
v -341.957001 560.779968 85.271370
v -393.833008 442.630951 85.204834
v -90.277771 179.020996 -80.567924
v -7.249207 191.922241 12.140343
v 73.965027 245.704956 -65.875832
v -6.209045 232.768494 -158.454224
v 10.723999 -6.807800 -127.019814
v 71.348145 0.186340 -56.757019
v 133.157410 39.702698 -114.020714
v 72.533203 32.708496 -184.283600
v 76.625793 -122.106995 -155.811188
v 120.929077 -116.995667 -104.464012
v 166.098389 -88.117615 -146.311615
v 121.795166 -93.228821 -197.658844
v -201.521973 575.916992 122.926132
v -303.788116 335.921204 119.029373
v -347.544800 624.255249 334.858185
v -440.359009 385.124207 330.557373
v 38.807068 210.651306 -22.268433
v -48.730957 200.551941 -123.724297
v 111.039185 3.142883 -87.499397
v 46.679260 -4.282288 -162.092072
v 154.842834 -126.907349 -129.963226
v 107.809448 -132.333557 -184.474548
v 108.779785 -208.478821 -174.956421
v 153.083069 -203.367310 -123.609322
v 194.416016 -219.691711 -154.871490
v 147.382568 -225.117920 -209.382874
v 160.227966 -185.028015 -221.681213
v 204.531189 -179.916504 -170.334015
v 132.777771 -269.988586 -189.539398
v 177.080994 -264.877258 -138.192230
v 218.413940 -281.201904 -169.454407
v 171.380554 -286.628174 -223.965759
v 184.225891 -246.537842 -236.264130
v 228.529053 -241.426514 -184.916962
v 139.078125 -317.066528 -174.239136
v 167.594177 -313.776611 -141.189240
v 194.198242 -324.283936 -161.311340
v 163.924927 -327.776733 -196.397705
v 211.067261 -309.160645 -255.965179
v 223.912598 -269.070190 -268.263489
v 268.215881 -263.958923 -216.916443
v 258.100647 -303.734253 -201.453796
v 141.916016 -349.271851 -164.035736
v 161.140625 -347.053711 -141.754364
v 179.076416 -354.137817 -155.320251
v 158.666992 -356.492188 -178.974609
v 153.205994 -381.851440 -163.213043
v 165.223572 -380.464966 -149.284698
v 176.435425 -384.893066 -157.764862
v 163.677246 -386.365112 -172.551361
v 242.253357 -313.701111 -266.398499
v 250.794373 -287.044434 -274.575897
v 280.252136 -283.645874 -240.434479
v 273.526550 -310.092834 -230.153168
vn 0.6437 -0.6571 0.3924
vn -0.5678 0.7078 -0.4202
vn -0.6437 0.6570 -0.3925
vn -0.3194 -0.1615 0.9338
vn 0.1919 0.9765 0.0978
vn -0.5328 -0.7887 -0.3068
vn -0.5805 0.7741 -0.2526
vn 0.7239 0.6697 0.1656
vn -0.7754 -0.4120 -0.4785
vn 0.7047 -0.6899 0.1658
vn -0.7711 -0.5324 -0.3493
vn 0.8052 0.5668 0.1744
vn -0.7573 -0.5648 -0.3278
vn 0.6267 -0.7722 0.1044
vn 0.6991 0.6776 0.2280
vn 0.6304 -0.7711 0.0899
vn -0.5752 0.7733 -0.2666
vn 0.8289 0.5348 0.1638
vn 0.6880 0.7154 0.1221
vn 0.5938 -0.7754 0.2148
vn -0.6615 -0.6876 -0.2995
vn 0.7094 0.6895 0.1461
vn -0.6301 -0.7130 -0.3076
vn -0.5344 -0.7418 -0.4052
vn 0.3755 0.9228 0.0860
vn -0.8061 -0.3483 -0.4783
vn 0.6107 0.7105 0.3495
vn -0.7945 0.4100 0.4479
vn -0.6000 0.7756 -0.1960
vn -0.7060 -0.6705 -0.2280
vn -0.6092 0.7753 -0.1666
vn 0.7709 0.5865 0.2485
vn -0.7028 -0.6739 -0.2276
vn -0.7742 -0.5824 -0.2480
vn 0.7060 0.6581 0.2616
vn 0.3615 -0.6683 0.6501
vn 0.7681 0.5902 0.2483
vn 0.6980 0.6797 0.2254
vn -0.7750 -0.5802 -0.2505
vn 0.6000 -0.7756 0.1960
vn -0.1285 0.4785 -0.8687
vn -0.5438 -0.7636 -0.3481
vn 0.8826 0.4563 0.1127
vn -0.1096 0.4608 -0.8807
vn 0.5954 0.8011 -0.0616
vn -0.7684 -0.6028 -0.2148
vn -0.6527 0.5783 0.4894
vn 0.6527 -0.5783 -0.4894
vn -0.4139 0.7026 -0.5788
vn 0.8669 0.4797 0.1352
vn -0.5721 -0.7510 -0.3297
vn 0.3451 -0.6568 0.6704
vn 0.6305 -0.5192 -0.5770
vn 0.8621 0.4866 0.1419
vn -0.5806 -0.7469 -0.3240
vn 0.5332 -0.7622 0.3672
vn -0.1710 0.5168 -0.8388
vn -0.7779 -0.3734 -0.5053
vn 0.5935 -0.4391 -0.6745
vn -0.6747 0.6845 0.2762
vn 0.7684 -0.3047 0.5628
vn -0.0145 0.5868 -0.8096
vn -0.7533 0.3171 -0.5763
vn -0.3102 0.1034 0.9450
vn -0.0500 0.9677 -0.2472
vn -0.3140 -0.9492 0.0181
vn 0.6872 0.3495 -0.6369
vn 0.8839 0.4640 -0.0583
vn -0.6773 -0.4986 -0.5410
vn 0.3289 -0.5470 0.7699
vn -0.5309 -0.1125 -0.8399
vn 0.6103 -0.0353 0.7914
vn -0.5652 -0.1136 -0.8171
vn -0.6261 -0.4845 0.6110
vn 0.6906 0.1021 0.7160
vn -0.6273 -0.5063 0.5917
vn 0.6953 0.3393 -0.6337
vn 0.6022 -0.0628 0.7959
vn 0.7569 0.0361 0.6526
vn -0.6775 -0.3904 0.6234
vn -0.6703 -0.1808 -0.7197
vn 0.7453 0.0547 0.6645
vn -0.6856 -0.2114 -0.6966
vn -0.6177 -0.7852 -0.0436
vn 0.5114 0.7064 -0.4894
vn -0.6854 -0.6693 -0.2868
vn 0.4252 0.9022 0.0723
vn -0.8874 0.3388 0.3127
vn 0.6706 0.4084 -0.6193
vn -0.6853 -0.0962 -0.7219
vn 0.6593 0.4363 -0.6123
vn 0.6128 0.0514 0.7886
vn -0.6880 -0.0986 -0.7190
vn -0.6098 -0.0480 -0.7911
vn 0.6632 0.1186 0.7390
vn -0.7580 0.1076 0.6433
vn 0.6158 0.0539 0.7860
vn 0.6931 0.1012 0.7137
vn -0.6071 -0.0488 -0.7932
vn -0.6706 -0.4084 0.6193
vn 0.6936 -0.4622 -0.5525
vn -0.7037 -0.3030 -0.6426
vn 0.5553 -0.1578 0.8166
vn 0.6846 -0.4873 -0.5422
vn 0.8768 -0.0366 0.4794
vn -0.6382 -0.0315 -0.7693
vn 0.2621 0.9116 -0.3169
vn -0.2621 -0.9116 0.3169
vn 0.7577 -0.0132 -0.6525
vn 0.5670 -0.1238 0.8143
vn -0.7031 -0.2703 -0.6577
vn -0.7568 0.1359 0.6394
vn -0.1837 -0.9498 0.2531
vn 0.5704 -0.1136 0.8135
vn -0.7027 -0.2602 -0.6622
vn -0.7243 -0.2346 0.6483
vn 0.7120 -0.4043 -0.5741
vn -0.3353 -0.1765 -0.9254
vn -0.0855 -0.9815 0.1715
vn 0.4236 0.7895 -0.4441
usemtl Matériau.012
s off
f 83//21 84//21 86//21 85//21
f 90//22 89//22 93//22 94//22
f 89//23 90//23 88//23 87//23
f 105//24 106//24 84//24 83//24
f 103//25 89//25 87//25 105//25
f 104//26 86//26 84//26 106//26
f 94//27 93//27 97//27 98//27
f 103//28 85//28 92//28 107//28
f 104//29 90//29 94//29 108//29
f 85//30 86//30 91//30 92//30
f 110//31 98//31 102//31 112//31
f 107//32 92//32 96//32 109//32
f 108//33 94//33 98//33 110//33
f 92//34 91//34 95//34 96//34
f 101//35 111//35 115//35 118//35
f 96//36 95//36 99//36 100//36
f 98//37 97//37 101//37 102//37
f 109//38 96//38 100//38 111//38
f 97//39 109//39 111//39 101//39
f 100//40 99//40 113//40 114//40
f 91//41 108//41 110//41 95//41
f 93//42 107//42 109//42 97//42
f 95//43 110//43 112//43 99//43
f 86//44 104//44 108//44 91//44
f 89//45 103//45 107//45 93//45
f 90//46 104//46 106//46 88//46
f 85//47 103//47 105//47 83//47
f 87//48 88//48 106//48 105//48
f 117//49 118//49 124//49 123//49
f 113//50 116//50 122//50 119//50
f 102//51 101//51 118//51 117//51
f 111//52 100//52 114//52 115//52
f 99//53 112//53 116//53 113//53
f 112//54 102//54 117//54 116//54
f 124//55 121//55 132//55 131//55
f 120//56 119//56 125//56 126//56
f 115//57 114//57 120//57 121//57
f 118//58 115//58 121//58 124//58
f 116//59 117//59 123//59 122//59
f 114//60 113//60 119//60 120//60
f 128//61 127//61 135//61 136//61
f 119//62 122//62 128//62 125//62
f 121//63 120//63 126//63 127//63
f 122//64 121//64 127//64 128//64
f 131//65 132//65 144//65 143//65
f 122//66 123//66 130//66 129//66
f 123//67 124//67 131//67 130//67
f 121//68 122//68 129//68 132//68
f 136//69 135//69 139//69 140//69
f 127//70 126//70 134//70 135//70
f 125//71 128//71 136//71 133//71
f 126//72 125//72 133//72 134//72
f 138//73 137//73 140//73 139//73
f 135//74 134//74 138//74 139//74
f 133//75 136//75 140//75 137//75
f 134//76 133//76 137//76 138//76
f 144//77 141//77 142//77 143//77
f 129//78 130//78 142//78 141//78
f 132//79 129//79 141//79 144//79
f 130//80 131//80 143//80 142//80
f 145//81 146//81 148//81 147//81
f 152//82 151//82 155//82 156//82
f 151//83 152//83 150//83 149//83
f 167//84 168//84 146//84 145//84
f 165//85 151//85 149//85 167//85
f 166//86 148//86 146//86 168//86
f 156//87 155//87 159//87 160//87
f 165//88 147//88 154//88 169//88
f 166//89 152//89 156//89 170//89
f 147//90 148//90 153//90 154//90
f 172//91 160//91 164//91 174//91
f 169//92 154//92 158//92 171//92
f 170//93 156//93 160//93 172//93
f 154//94 153//94 157//94 158//94
f 163//95 173//95 177//95 180//95
f 158//96 157//96 161//96 162//96
f 160//97 159//97 163//97 164//97
f 171//98 158//98 162//98 173//98
f 159//99 171//99 173//99 163//99
f 162//100 161//100 175//100 176//100
f 153//101 170//101 172//101 157//101
f 155//102 169//102 171//102 159//102
f 157//103 172//103 174//103 161//103
f 148//104 166//104 170//104 153//104
f 151//105 165//105 169//105 155//105
f 152//106 166//106 168//106 150//106
f 147//107 165//107 167//107 145//107
f 149//108 150//108 168//108 167//108
f 179//109 180//109 186//109 185//109
f 175//110 178//110 184//110 181//110
f 164//111 163//111 180//111 179//111
f 173//112 162//112 176//112 177//112
f 161//113 174//113 178//113 175//113
f 174//114 164//114 179//114 178//114
f 186//115 183//115 194//115 193//115
f 182//116 181//116 187//116 188//116
f 177//117 176//117 182//117 183//117
f 180//118 177//118 183//118 186//118
f 178//119 179//119 185//119 184//119
f 176//120 175//120 181//120 182//120
f 190//121 189//121 197//121 198//121
f 181//122 184//122 190//122 187//122
f 183//123 182//123 188//123 189//123
f 184//124 183//124 189//124 190//124
f 193//125 194//125 206//125 205//125
f 184//126 185//126 192//126 191//126
f 185//127 186//127 193//127 192//127
f 183//128 184//128 191//128 194//128
f 198//129 197//129 201//129 202//129
f 189//130 188//130 196//130 197//130
f 187//131 190//131 198//131 195//131
f 188//132 187//132 195//132 196//132
f 200//133 199//133 202//133 201//133
f 197//134 196//134 200//134 201//134
f 195//135 198//135 202//135 199//135
f 196//136 195//136 199//136 200//136
f 206//137 203//137 204//137 205//137
f 191//138 192//138 204//138 203//138
f 194//139 191//139 203//139 206//139
f 192//140 193//140 205//140 204//140
