# Blender v2.91.2 OBJ File: 'camionnete02.blend'
# www.blender.org
mtllib arme_000166.mtl
o Cube.046_Cube.010
v 156.424591 605.879028 -1259.162842
v 149.778625 391.405334 -1309.520996
v 219.992554 652.250366 -1465.045898
v 213.346558 437.776672 -1515.404175
v -54.511543 626.610962 -1319.621460
v -61.157539 412.137268 -1369.979614
v 9.056412 672.982300 -1525.504517
v 2.410423 458.508606 -1575.862915
v 68.904099 542.034851 -975.702454
v 62.258121 327.561157 -1026.060547
v -148.677979 348.293030 -1086.519043
v -142.031982 562.766785 -1036.160889
v 29.295387 513.141113 -847.417908
v 22.649372 298.667419 -897.776184
v -188.286774 319.399353 -958.234619
v -181.640808 533.873108 -907.876465
v 5.896267 496.072021 -771.633179
v 5.133068 342.897583 -820.880981
v -205.803131 363.629517 -881.339478
v -205.039856 516.803955 -832.091675
v 35.920776 726.951843 -797.215271
v -175.015350 747.683777 -857.673950
v 12.521702 709.882690 -721.430664
v -198.414429 730.614685 -781.889160
v 82.558914 551.995667 -1019.927368
v 75.912941 337.522034 -1070.285645
v -128.377228 572.727661 -1080.385986
v -135.023193 358.253967 -1130.744141
v 71.097984 612.834229 -959.078735
v -139.838135 633.566223 -1019.537354
v 84.752808 622.795044 -1003.303711
v -126.183296 643.526978 -1063.762207
v 74.280960 715.552551 -934.960571
v -136.655121 736.284485 -995.419067
v 87.935738 725.513428 -979.185669
v -123.000328 746.245361 -1039.644165
v 32.384468 584.593567 -833.693726
v -178.551697 605.325500 -894.152283
v 35.567436 687.311890 -809.575500
v -175.368713 708.043884 -870.034058
v 54.818966 870.832642 -813.811279
v -156.117157 891.564575 -874.269958
v 31.419846 853.763550 -738.026672
v -179.516205 874.495422 -798.485168
v 197.551056 635.879883 -1392.362915
v 190.905075 421.406189 -1442.721191
v -13.385063 656.611816 -1452.821411
v -20.030983 442.138062 -1503.179565
v 114.524475 662.616333 -1495.275269
v 107.878487 448.142639 -1545.633667
v 50.956520 616.244995 -1289.392090
v 44.310558 401.771301 -1339.750244
v -36.563950 552.400757 -1005.931580
v -43.209915 337.927063 -1056.289795
v -76.172707 523.507080 -877.647095
v -77.083549 315.392212 -913.021729
v -99.571785 506.437988 -801.862427
v -88.894844 345.216675 -861.171204
v -69.547295 737.317810 -827.444580
v -92.946358 720.248718 -751.659912
v -29.555122 347.887939 -1100.514893
v -22.909149 562.361694 -1050.156738
v -34.370071 623.200195 -989.308044
v -20.715263 633.161011 -1033.532959
v -31.187065 725.918518 -965.189758
v -17.532280 735.879333 -1009.414856
v -73.083626 594.959534 -863.922974
v -69.900612 697.677917 -839.804688
v -50.649117 881.198608 -844.040588
v -74.048195 864.129517 -768.255920
v 85.437042 431.772095 -1472.950439
v 92.083031 646.245850 -1422.592163
v 167.258545 657.433350 -1480.160522
v 97.044594 396.588318 -1324.635620
v 9.524090 332.744141 -1041.175293
v -41.524864 311.897278 -902.829956
v -53.336143 341.721741 -850.979248
v 29.824898 557.178650 -1035.041992
v 32.018757 627.978027 -1018.418396
v 35.201736 730.696411 -994.300232
v 144.817032 641.062866 -1407.477539
v 160.612518 442.959717 -1530.518921
v 103.690521 611.062012 -1274.277588
v 16.170078 547.217773 -990.817017
v -23.438667 518.324158 -862.532471
v -46.837776 501.255005 -786.747803
v -16.813248 732.134827 -812.329956
v -40.212318 715.065735 -736.545227
v 23.178894 342.705017 -1085.400269
v 18.363968 618.017212 -974.193481
v 21.546947 720.735535 -950.075256
v -20.349579 589.776550 -848.808350
v -17.166588 692.494934 -824.690125
v 2.084953 876.015625 -828.925964
v -21.314156 858.946472 -753.141357
v 138.171021 426.589172 -1457.835815
v 21.934551 302.547729 -1094.829102
v -30.799484 307.730652 -1109.943848
v 136.926605 386.431885 -1467.264893
v 84.192665 391.614807 -1482.379395
v 43.066185 361.614014 -1349.179199
v 95.800217 356.431030 -1334.064575
v 273.148010 558.955078 -1343.771362
v 254.962250 545.688965 -1284.871704
v 252.023621 450.850830 -1307.139404
v 270.209229 464.116943 -1366.039307
v 318.730225 554.475037 -1330.706665
v 300.544495 541.208923 -1271.806885
v 297.605774 446.370850 -1294.074707
v 315.791412 459.636963 -1352.974609
v 388.485504 547.619141 -1310.713501
v 370.299774 534.353027 -1251.813721
v 367.361023 439.515015 -1274.081543
v 385.546631 452.781128 -1332.981445
v 433.372101 543.207458 -1297.848145
v 415.186371 529.941345 -1238.948364
v 412.247742 435.103333 -1261.216309
v 430.433319 448.369385 -1320.116089
v 369.445740 595.298706 -2206.884277
v 316.711700 600.481628 -2221.998779
v 323.357544 814.955383 -2171.640625
v 376.091705 809.772400 -2156.525879
v -25.834145 948.956909 -848.102234
v -123.017281 958.508545 -875.956909
v -47.395134 933.228638 -778.270569
v -144.578217 942.780273 -806.125305
v 49.787949 923.677002 -750.416138
v 71.349014 939.405334 -820.247437
v 22.757469 944.181213 -834.174683
v 1.196404 928.452759 -764.343323
vn 0.9570 -0.0941 0.2743
vn 0.2884 0.2104 -0.9341
vn -0.9570 0.0941 -0.2743
vn 0.0302 0.9731 0.2285
vn -0.0302 -0.9731 -0.2285
vn -0.2884 -0.2104 0.9341
vn -0.2142 -0.8670 0.4499
vn -0.1147 -0.9688 -0.2197
vn -0.3677 -0.3097 0.8769
vn -0.9574 0.0933 -0.2732
vn 0.9574 -0.0933 0.2732
vn 0.2595 -0.1442 -0.9549
vn 0.2585 -0.1519 -0.9540
vn -0.2595 0.1442 0.9549
vn 0.6417 0.1564 -0.7508
vn -0.8842 0.4328 -0.1755
vn -0.2487 -0.3231 0.9131
vn -0.0004 -0.9825 -0.1862
vn -0.2469 0.2316 0.9409
vn -0.2898 -0.3473 0.8919
vn -0.0491 -0.9848 -0.1665
vn 0.1115 -0.2304 0.9667
vn 0.5029 -0.8634 -0.0392
vn 0.5532 0.7596 0.3419
vn 0.9472 -0.2052 0.2462
usemtl Matériau.011
s off
f 45//1 46//1 4//1 3//1
f 49//2 50//2 8//2 7//2
f 47//3 48//3 6//3 5//3
f 26//1 25//1 9//1 10//1
f 72//4 47//4 5//4 51//4
f 96//5 46//5 2//5 74//5
f 10//1 9//1 13//1 14//1
f 84//6 9//6 29//6 90//6
f 89//5 26//5 10//5 75//5
f 27//3 28//3 11//3 12//3
f 76//7 14//7 18//7 77//7
f 75//8 10//8 14//8 76//8
f 12//3 11//3 15//3 16//3
f 53//4 12//4 16//4 55//4
f 86//9 77//9 18//9 17//9
f 16//10 15//10 19//10 20//10
f 16//3 20//3 24//3 22//3
f 14//11 13//11 17//11 18//11
f 59//12 22//12 42//12 69//12
f 86//6 17//6 23//6 88//6
f 17//1 13//1 21//1 23//1
f 55//2 16//2 22//2 59//2
f 5//3 6//3 28//3 27//3
f 74//5 2//5 26//5 89//5
f 51//4 5//4 27//4 62//4
f 2//1 1//1 25//1 26//1
f 32//3 30//3 34//3 36//3
f 62//2 27//2 32//2 64//2
f 27//3 12//3 30//3 32//3
f 9//1 25//1 31//1 29//1
f 66//4 36//4 34//4 65//4
f 90//5 29//5 37//5 92//5
f 64//2 32//2 36//2 66//2
f 29//1 31//1 35//1 33//1
f 92//6 37//6 39//6 93//6
f 29//1 33//1 39//1 37//1
f 34//3 30//3 38//3 40//3
f 65//4 34//4 40//4 68//4
f 69//13 42//13 124//13 123//13
f 23//1 21//1 41//1 43//1
f 88//14 23//14 43//14 95//14
f 22//3 24//3 44//3 42//3
f 82//5 4//5 46//5 96//5
f 49//4 7//4 47//4 72//4
f 7//3 8//3 48//3 47//3
f 46//15 45//15 103//15 106//15
f 73//4 49//4 72//4 81//4
f 8//5 50//5 71//5 48//5
f 24//14 60//14 70//14 44//14
f 42//16 44//16 126//16 124//16
f 91//4 65//4 68//4 93//4
f 38//6 67//6 68//6 40//6
f 79//2 64//2 66//2 80//2
f 30//5 63//5 67//5 38//5
f 80//4 66//4 65//4 91//4
f 78//2 62//2 64//2 79//2
f 83//4 51//4 62//4 78//4
f 6//5 52//5 61//5 28//5
f 85//2 55//2 59//2 87//2
f 20//6 57//6 60//6 24//6
f 87//12 59//12 69//12 94//12
f 20//17 19//17 58//17 57//17
f 84//4 53//4 55//4 85//4
f 11//18 54//18 56//18 15//18
f 15//7 56//7 58//7 19//7
f 28//5 61//5 54//5 11//5
f 12//6 53//6 63//6 30//6
f 48//5 71//5 52//5 6//5
f 81//4 72//4 51//4 83//4
f 50//3 49//3 121//3 120//3
f 3//2 4//2 82//2 73//2
f 45//4 81//4 83//4 1//4
f 9//4 84//4 85//4 13//4
f 21//12 87//12 94//12 41//12
f 13//2 85//2 87//2 21//2
f 1//4 83//4 78//4 25//4
f 25//2 78//2 79//2 31//2
f 35//4 80//4 91//4 33//4
f 31//2 79//2 80//2 35//2
f 33//4 91//4 93//4 39//4
f 70//19 95//19 130//19 125//19
f 3//4 73//4 81//4 45//4
f 50//5 82//5 96//5 71//5
f 60//14 88//14 95//14 70//14
f 67//6 92//6 93//6 68//6
f 63//5 90//5 92//5 67//5
f 52//3 71//3 100//3 101//3
f 57//6 86//6 88//6 60//6
f 57//20 58//20 77//20 86//20
f 54//21 75//21 76//21 56//21
f 56//7 76//7 77//7 58//7
f 61//5 89//5 75//5 54//5
f 53//6 84//6 90//6 63//6
f 89//6 61//6 98//6 97//6
f 101//5 102//5 97//5 98//5
f 100//5 99//5 102//5 101//5
f 61//3 52//3 101//3 98//3
f 74//1 89//1 97//1 102//1
f 71//2 96//2 99//2 100//2
f 96//1 74//1 102//1 99//1
f 106//2 103//2 107//2 110//2
f 1//22 2//22 105//22 104//22
f 2//23 46//23 106//23 105//23
f 45//24 1//24 104//24 103//24
f 109//5 110//5 114//5 113//5
f 104//6 105//6 109//6 108//6
f 105//5 106//5 110//5 109//5
f 103//4 104//4 108//4 107//4
f 113//5 114//5 118//5 117//5
f 107//4 108//4 112//4 111//4
f 110//2 107//2 111//2 114//2
f 108//6 109//6 113//6 112//6
f 116//1 117//1 118//1 115//1
f 111//4 112//4 116//4 115//4
f 114//2 111//2 115//2 118//2
f 122//2 119//2 120//2 121//2
f 82//5 50//5 120//5 119//5
f 73//1 82//1 119//1 122//1
f 49//4 73//4 122//4 121//4
f 123//4 124//4 126//4 125//4
f 129//4 123//4 125//4 130//4
f 128//4 129//4 130//4 127//4
f 95//19 43//19 127//19 130//19
f 94//13 69//13 123//13 129//13
f 43//25 41//25 128//25 127//25
f 44//19 70//19 125//19 126//19
f 41//13 94//13 129//13 128//13
o Cube.048_Cube.024
v -506.647980 521.738708 158.267792
v -665.808899 376.752258 48.521332
v -377.404541 534.135132 -45.545929
v -535.920105 387.932922 -156.299561
v -641.848999 682.367126 12.495625
v -723.455261 608.028564 -43.774452
v -575.582214 688.723206 -92.005333
v -656.744751 614.072693 -147.704559
v -366.803925 534.259399 -501.903900
v -264.198456 584.991089 -447.857269
v -324.049866 696.139771 -438.562866
v -426.655396 645.408203 -492.609528
v -286.778717 611.956787 -687.512512
v -211.340820 649.255859 -647.776306
v -255.344971 730.974854 -640.942749
v -330.782867 693.675842 -680.679138
v -235.999603 663.196655 -802.672546
v -180.870605 690.454285 -773.633850
v -213.028229 750.173523 -768.639954
v -268.157104 722.915771 -797.678833
v -446.175262 634.007568 -61.343666
v -614.202148 479.255676 -177.048065
v -583.486267 620.966064 155.008942
v -752.455139 467.045105 38.499596
v -289.029083 643.591614 -446.589081
v -397.957489 589.733704 -503.966156
v -224.502350 696.194946 -660.133972
v -304.588867 656.597412 -702.319031
v -185.866028 728.254395 -794.723877
v -244.392334 699.317017 -825.552185
v -201.828003 684.678101 -887.709900
v -146.698914 711.935669 -858.671265
v -151.022766 757.350586 -888.183960
v -209.548889 728.413269 -919.012329
v -233.417114 750.841614 -889.844177
v -178.288147 778.099243 -860.805603
v -177.900085 701.291260 -948.730286
v -122.770996 728.548950 -919.691650
v -127.094910 773.963867 -949.204407
v -185.621155 745.026489 -980.032532
v -209.489258 767.454712 -950.864685
v -154.360168 794.712341 -921.825928
v -141.877441 694.803711 -982.648010
v -106.393494 712.348328 -963.957092
v -109.176575 741.579834 -982.953064
v -146.847168 722.954102 -1002.795837
v -188.310425 788.075256 -1015.335266
v -212.178711 810.503662 -986.167297
v -157.049744 837.761230 -957.128418
v -129.784241 817.012634 -984.507019
v -117.953857 689.059814 -1005.971985
v -94.031494 700.887878 -993.371033
v -95.907654 720.594910 -1006.177673
v -121.304199 708.038086 -1019.554993
v -98.716370 693.985352 -1034.171997
v -83.762268 701.379272 -1026.294800
v -84.935120 713.698364 -1034.300537
v -100.810791 705.848938 -1042.662964
v -184.237488 819.734558 -1024.453613
v -200.107605 834.647339 -1005.059387
v -163.451660 852.771301 -985.751160
v -145.322632 838.975342 -1003.955627
v -217.908203 493.770569 366.643402
v -358.915771 297.543274 363.596649
v -105.473938 417.815826 164.564575
v -248.768250 221.516144 162.387894
v -387.852051 546.234741 183.076218
v -460.150574 445.623505 181.514069
v -321.849365 506.663849 76.893494
v -403.674957 406.642273 78.348694
v -230.675781 85.185608 -76.562141
v -143.930115 57.509949 9.317818
v -55.677612 54.659363 -78.626961
v -139.773743 81.003784 -164.550537
v -249.051392 -128.045776 -109.519936
v -186.836731 -150.823120 -44.162537
v -120.003357 -153.897644 -108.853584
v -182.218201 -131.120239 -174.211060
v -257.727661 -262.081787 -130.134888
v -212.262085 -278.726929 -82.372520
v -163.421204 -280.973816 -129.647888
v -208.886871 -264.328552 -177.410187
v -178.319153 484.985229 111.361191
v -342.696259 280.645386 110.683273
v -309.934448 569.676941 327.525726
v -459.631348 361.357483 324.291260
v -99.079163 45.736572 -29.782707
v -188.914124 78.625916 -124.155434
v -155.149475 -171.338867 -77.392769
v -221.198059 -147.157776 -146.777679
v -191.692261 -306.685181 -108.712959
v -239.959625 -289.014099 -159.418457
v -278.454468 -353.114746 -142.130066
v -232.988647 -369.760010 -94.367760
v -210.186462 -407.418091 -126.213615
v -258.453918 -389.746826 -176.919250
v -227.724487 -363.570679 -194.064575
v -182.258728 -380.215942 -146.302338
v -292.391083 -418.586914 -151.680847
v -246.925323 -435.232300 -103.918526
v -224.123230 -472.890503 -135.764313
v -272.390625 -455.219238 -186.469879
v -241.661041 -429.042603 -203.615448
v -196.195374 -445.687866 -155.853058
v -310.389618 -460.758301 -131.989899
v -281.125427 -471.472168 -101.247444
v -266.448792 -495.711060 -121.745155
v -297.516327 -484.336914 -154.382080
v -254.340149 -497.260620 -218.303986
v -223.610535 -471.083862 -235.449554
v -178.144897 -487.729492 -187.687134
v -206.072693 -514.931519 -167.598419
v -323.969147 -488.831177 -118.691933
v -304.240082 -496.054321 -97.966240
v -294.345581 -512.395874 -111.785194
v -315.290375 -504.727295 -133.788147
v -331.635101 -522.275146 -115.179695
v -319.302216 -526.790405 -102.223747
v -313.116852 -537.005249 -110.862190
v -326.209808 -532.211792 -124.616417
v -231.614105 -518.400879 -230.079529
v -211.181580 -500.995728 -241.479767
v -180.950867 -512.063354 -209.721893
v -199.520416 -530.150391 -196.364716
vn 0.5296 -0.7972 0.2898
vn -0.4362 0.8629 -0.2554
vn -0.5296 0.7969 -0.2905
vn -0.3752 -0.2613 0.8894
vn 0.3230 0.9100 0.2600
vn -0.6280 -0.6443 -0.4365
vn -0.4446 0.8957 0.0032
vn 0.8043 0.5039 0.3148
vn -0.8019 -0.1780 -0.5703
vn 0.5966 -0.8024 0.0136
vn -0.8227 -0.2685 -0.5011
vn 0.8706 0.3498 0.3460
vn -0.8151 -0.3077 -0.4909
vn 0.4982 -0.8551 -0.1432
vn 0.7796 0.4537 0.4316
vn 0.5028 -0.8501 -0.1566
vn -0.4388 0.8985 -0.0103
vn 0.8898 0.3193 0.3259
vn 0.7797 0.5238 0.3430
vn 0.4595 -0.8873 -0.0395
vn -0.7403 -0.4467 -0.5025
vn 0.7958 0.4887 0.3576
vn -0.7126 -0.4730 -0.5182
vn -0.6180 -0.5483 -0.5635
vn 0.4934 0.8184 0.2945
vn -0.8291 -0.1444 -0.5402
vn 0.6900 0.5497 0.4710
vn -0.7462 0.4433 0.4966
vn -0.4666 0.8826 0.0573
vn -0.7853 -0.4460 -0.4294
vn -0.4773 0.8746 0.0851
vn 0.8358 0.3505 0.4225
vn -0.7828 -0.4498 -0.4301
vn -0.8385 -0.3464 -0.4207
vn 0.7818 0.4239 0.4573
vn 0.2236 -0.8857 0.4069
vn 0.8337 0.3545 0.4234
vn 0.7790 0.4566 0.4298
vn -0.8389 -0.3434 -0.4224
vn 0.4666 -0.8826 -0.0573
vn -0.0105 0.7389 -0.6737
vn -0.6329 -0.5214 -0.5724
vn 0.9338 0.2532 0.2528
vn 0.0062 0.7232 -0.6906
vn 0.7106 0.6759 0.1955
vn -0.8376 -0.3768 -0.3957
vn -0.5836 0.4928 0.6454
vn 0.5836 -0.4928 -0.6454
vn -0.2739 0.9039 -0.3285
vn 0.9206 0.2706 0.2815
vn -0.6599 -0.5109 -0.5510
vn 0.2080 -0.8786 0.4298
vn 0.5750 -0.4066 -0.7099
vn 0.9165 0.2757 0.2900
vn -0.6680 -0.5075 -0.5443
vn 0.3938 -0.9127 0.1092
vn -0.0483 0.7723 -0.6334
vn -0.7977 -0.0699 -0.5990
vn 0.5555 -0.2953 -0.7773
vn -0.5784 0.6621 0.4766
vn 0.6700 -0.4926 0.5554
vn 0.1776 0.5419 -0.8215
vn -0.6518 0.5010 -0.5693
vn -0.2611 0.1729 0.9497
vn 0.1927 0.9494 -0.2479
vn -0.5411 -0.8407 0.0215
vn 0.6965 -0.1095 -0.7092
vn 0.9678 0.1294 -0.2159
vn -0.8586 -0.3103 -0.4080
vn 0.1581 -0.6179 0.7702
vn -0.5959 0.1439 -0.7900
vn 0.5790 -0.3136 0.7526
vn -0.6230 0.1627 -0.7651
vn -0.7182 -0.0380 0.6947
vn 0.7116 -0.2453 0.6584
vn -0.7330 -0.0568 0.6779
vn 0.6972 -0.1226 -0.7064
vn 0.5584 -0.3322 0.7602
vn 0.7256 -0.3399 0.5983
vn -0.7104 0.0694 0.7004
vn -0.7366 0.1679 -0.6551
vn 0.7279 -0.3171 0.6079
vn -0.7632 0.1516 -0.6282
vn -0.8080 -0.5771 0.1190
vn 0.6477 0.4545 -0.6115
vn -0.8349 -0.4753 -0.2775
vn 0.6307 0.7727 0.0712
vn -0.7700 0.5483 0.3264
vn 0.7146 -0.0503 -0.6977
vn -0.7046 0.2470 -0.6652
vn 0.7206 -0.0205 -0.6931
vn 0.6270 -0.2421 0.7404
vn -0.7079 0.2466 -0.6619
vn -0.6229 0.2433 -0.7435
vn 0.6997 -0.2154 0.6812
vn -0.5123 0.5331 0.6734
vn 0.6306 -0.2418 0.7375
vn 0.7130 -0.2475 0.6561
vn -0.6213 0.2410 -0.7456
vn -0.7146 0.0503 0.6978
vn 0.2800 -0.7920 -0.5425
vn -0.8212 0.0872 -0.5639
vn 0.4708 -0.3858 0.7934
vn 0.2602 -0.8077 -0.5292
vn 0.7696 -0.4751 0.4266
vn -0.6358 0.2736 -0.7218
vn 0.6695 0.6092 -0.4250
vn -0.6695 -0.6092 0.4250
vn 0.5610 -0.4539 -0.6923
vn 0.4985 -0.3637 0.7869
vn -0.8050 0.1135 -0.5823
vn -0.4966 0.5560 0.6665
vn -0.6306 -0.6871 0.3609
vn 0.5066 -0.3570 0.7848
vn -0.7998 0.1216 -0.5878
vn -0.6646 0.2271 0.7118
vn 0.3238 -0.7543 -0.5711
vn -0.4743 -0.0197 -0.8801
vn -0.5735 -0.7709 0.2772
vn 0.7272 0.4127 -0.5484
usemtl Matériau.012
s off
f 131//26 132//26 134//26 133//26
f 138//27 137//27 141//27 142//27
f 137//28 138//28 136//28 135//28
f 153//29 154//29 132//29 131//29
f 151//30 137//30 135//30 153//30
f 152//31 134//31 132//31 154//31
f 142//32 141//32 145//32 146//32
f 151//33 133//33 140//33 155//33
f 152//34 138//34 142//34 156//34
f 133//35 134//35 139//35 140//35
f 158//36 146//36 150//36 160//36
f 155//37 140//37 144//37 157//37
f 156//38 142//38 146//38 158//38
f 140//39 139//39 143//39 144//39
f 149//40 159//40 163//40 166//40
f 144//41 143//41 147//41 148//41
f 146//42 145//42 149//42 150//42
f 157//43 144//43 148//43 159//43
f 145//44 157//44 159//44 149//44
f 148//45 147//45 161//45 162//45
f 139//46 156//46 158//46 143//46
f 141//47 155//47 157//47 145//47
f 143//48 158//48 160//48 147//48
f 134//49 152//49 156//49 139//49
f 137//50 151//50 155//50 141//50
f 138//51 152//51 154//51 136//51
f 133//52 151//52 153//52 131//52
f 135//53 136//53 154//53 153//53
f 165//54 166//54 172//54 171//54
f 161//55 164//55 170//55 167//55
f 150//56 149//56 166//56 165//56
f 159//57 148//57 162//57 163//57
f 147//58 160//58 164//58 161//58
f 160//59 150//59 165//59 164//59
f 172//60 169//60 180//60 179//60
f 168//61 167//61 173//61 174//61
f 163//62 162//62 168//62 169//62
f 166//63 163//63 169//63 172//63
f 164//64 165//64 171//64 170//64
f 162//65 161//65 167//65 168//65
f 176//66 175//66 183//66 184//66
f 167//67 170//67 176//67 173//67
f 169//68 168//68 174//68 175//68
f 170//69 169//69 175//69 176//69
f 179//70 180//70 192//70 191//70
f 170//71 171//71 178//71 177//71
f 171//72 172//72 179//72 178//72
f 169//73 170//73 177//73 180//73
f 184//74 183//74 187//74 188//74
f 175//75 174//75 182//75 183//75
f 173//76 176//76 184//76 181//76
f 174//77 173//77 181//77 182//77
f 186//78 185//78 188//78 187//78
f 183//79 182//79 186//79 187//79
f 181//80 184//80 188//80 185//80
f 182//81 181//81 185//81 186//81
f 192//82 189//82 190//82 191//82
f 177//83 178//83 190//83 189//83
f 180//84 177//84 189//84 192//84
f 178//85 179//85 191//85 190//85
f 193//86 194//86 196//86 195//86
f 200//87 199//87 203//87 204//87
f 199//88 200//88 198//88 197//88
f 215//89 216//89 194//89 193//89
f 213//90 199//90 197//90 215//90
f 214//91 196//91 194//91 216//91
f 204//92 203//92 207//92 208//92
f 213//93 195//93 202//93 217//93
f 214//94 200//94 204//94 218//94
f 195//95 196//95 201//95 202//95
f 220//96 208//96 212//96 222//96
f 217//97 202//97 206//97 219//97
f 218//98 204//98 208//98 220//98
f 202//99 201//99 205//99 206//99
f 211//100 221//100 225//100 228//100
f 206//101 205//101 209//101 210//101
f 208//102 207//102 211//102 212//102
f 219//103 206//103 210//103 221//103
f 207//104 219//104 221//104 211//104
f 210//105 209//105 223//105 224//105
f 201//106 218//106 220//106 205//106
f 203//107 217//107 219//107 207//107
f 205//108 220//108 222//108 209//108
f 196//109 214//109 218//109 201//109
f 199//110 213//110 217//110 203//110
f 200//111 214//111 216//111 198//111
f 195//112 213//112 215//112 193//112
f 197//113 198//113 216//113 215//113
f 227//114 228//114 234//114 233//114
f 223//115 226//115 232//115 229//115
f 212//116 211//116 228//116 227//116
f 221//117 210//117 224//117 225//117
f 209//118 222//118 226//118 223//118
f 222//119 212//119 227//119 226//119
f 234//120 231//120 242//120 241//120
f 230//121 229//121 235//121 236//121
f 225//122 224//122 230//122 231//122
f 228//123 225//123 231//123 234//123
f 226//124 227//124 233//124 232//124
f 224//125 223//125 229//125 230//125
f 238//126 237//126 245//126 246//126
f 229//127 232//127 238//127 235//127
f 231//128 230//128 236//128 237//128
f 232//129 231//129 237//129 238//129
f 241//130 242//130 254//130 253//130
f 232//131 233//131 240//131 239//131
f 233//132 234//132 241//132 240//132
f 231//133 232//133 239//133 242//133
f 246//134 245//134 249//134 250//134
f 237//135 236//135 244//135 245//135
f 235//136 238//136 246//136 243//136
f 236//137 235//137 243//137 244//137
f 248//138 247//138 250//138 249//138
f 245//139 244//139 248//139 249//139
f 243//140 246//140 250//140 247//140
f 244//141 243//141 247//141 248//141
f 254//142 251//142 252//142 253//142
f 239//143 240//143 252//143 251//143
f 242//144 239//144 251//144 254//144
f 240//145 241//145 253//145 252//145
