# Blender v2.91.2 OBJ File: 'camionnete02.blend'
# www.blender.org
mtllib arme_000091.mtl
o Cube.046_Cube.010
v 312.598419 507.614868 -1100.022461
v 296.930603 296.205139 -1160.351318
v 420.470703 552.923035 -1286.810791
v 404.802887 341.513367 -1347.139648
v 121.033348 550.419250 -1200.270752
v 105.365456 339.009521 -1260.599487
v 228.905624 595.727356 -1387.058716
v 213.237778 384.317688 -1447.387817
v 164.079651 445.234558 -842.852112
v 148.411804 233.824875 -903.180908
v -43.153282 276.629211 -1003.428955
v -27.485428 488.038879 -943.100220
v 96.865189 417.003296 -726.465515
v 81.197311 205.593643 -786.794434
v -110.367821 248.397995 -887.042480
v -94.699966 459.807739 -826.713684
v 57.157852 400.325623 -657.709595
v 52.542145 249.297653 -713.005188
v -139.023026 292.102051 -813.253357
v -134.407303 443.130005 -757.957703
v 112.484566 627.759460 -666.323242
v -79.080521 670.563843 -766.571411
v 72.777267 611.081726 -597.567383
v -118.787842 653.886108 -697.815491
v 187.251328 454.966980 -882.975403
v 171.583481 243.557358 -943.304199
v -4.313784 497.771423 -983.223572
v -19.981659 286.361694 -1043.552246
v 169.251740 515.022461 -822.937134
v -22.313370 557.826904 -923.185303
v 192.423401 524.754944 -863.060425
v 0.858286 567.559265 -963.308411
v 176.755600 616.273376 -794.043762
v -14.809507 659.077698 -894.291748
v 199.927216 626.005798 -834.166992
v 8.362154 668.810181 -934.415100
v 103.556389 487.429321 -709.181030
v -88.008743 530.233704 -809.429199
v 111.060234 588.680237 -680.287659
v -80.504890 631.484619 -780.535828
v 147.278442 769.491638 -672.293579
v -44.286690 812.296021 -772.541870
v 107.571098 752.813904 -603.537781
v -83.993973 795.618225 -703.785889
v 382.388458 536.927856 -1220.868774
v 366.720642 325.518188 -1281.197754
v 190.823380 579.732239 -1321.116821
v 175.155533 368.322510 -1381.445679
v 324.688171 574.325256 -1336.934814
v 309.020325 362.915527 -1397.263672
v 216.815918 529.017090 -1150.146606
v 201.148056 317.607361 -1210.475342
v 68.297119 466.636719 -892.976135
v 52.629250 255.227036 -953.304871
v 1.082613 438.405518 -776.589600
v -11.452682 232.370316 -820.820679
v -38.624702 421.727783 -707.833618
v -30.774946 261.840027 -771.064514
v 16.702005 649.161621 -716.447327
v -23.005285 632.483948 -647.691406
v 75.800911 264.959534 -993.428284
v 91.468773 476.369202 -933.099426
v 73.469185 536.424683 -873.061157
v 96.640846 546.157043 -913.184448
v 80.973045 637.675537 -844.167725
v 104.144676 647.407959 -884.291077
v 7.773832 508.831482 -759.305176
v 15.277685 610.082397 -730.411682
v 51.495857 790.893799 -722.417725
v 11.788538 774.216003 -653.661804
v 270.938049 346.920349 -1331.321655
v 286.605927 558.330017 -1270.992798
v 372.579498 563.624084 -1311.872681
v 249.039307 306.906250 -1185.413330
v 100.520531 244.525925 -928.242920
v 20.840525 225.154526 -803.921326
v 1.518272 254.624252 -754.165100
v 139.360046 465.668030 -908.037415
v 144.532120 535.455994 -888.122437
v 152.035950 636.706909 -859.229004
v 334.497223 547.628967 -1245.930786
v 356.911621 352.214417 -1372.201660
v 264.707153 518.315979 -1125.084595
v 116.188377 455.935608 -867.914246
v 48.973877 427.704407 -751.527588
v 9.266565 411.026672 -682.771606
v 64.593307 638.460571 -691.385376
v 24.886003 621.782776 -622.629395
v 123.692192 254.258408 -968.366211
v 121.360466 525.723572 -847.999207
v 128.864319 626.974426 -819.105713
v 55.665108 498.130432 -734.243103
v 63.168953 599.381348 -705.349609
v 99.387169 780.192688 -697.355652
v 59.679817 763.514893 -628.599731
v 318.829315 336.219299 -1306.259644
v 120.758614 214.674850 -979.661987
v 72.867317 225.375900 -1004.723938
v 315.895721 296.635681 -1317.555420
v 268.004486 307.336731 -1342.617310
v 198.214462 278.023743 -1221.771240
v 246.105743 267.322693 -1196.709106
v 439.308838 451.744690 -1161.730225
v 408.448395 438.782837 -1108.293213
v 401.520355 345.299561 -1134.969849
v 432.380676 358.261536 -1188.406982
v 480.705078 442.494995 -1140.067139
v 449.844635 429.533020 -1086.630127
v 442.916534 336.049866 -1113.306885
v 473.776917 349.011719 -1166.743896
v 544.054443 428.339905 -1106.915894
v 513.194031 415.377930 -1053.478760
v 506.265900 321.894714 -1080.155518
v 537.126282 334.856689 -1133.592773
v 584.818970 419.231262 -1085.583374
v 553.958618 406.269348 -1032.146240
v 547.030518 312.786133 -1058.822998
v 577.890869 325.748047 -1112.260132
v 711.292908 501.060425 -1985.836060
v 663.401672 511.761536 -2010.898071
v 679.069336 723.171265 -1950.569336
v 726.960693 712.470154 -1925.507324
v 82.640007 855.988037 -718.385437
v -5.618444 875.708923 -764.572083
v 46.051865 840.620300 -655.030518
v -42.206543 860.341187 -701.217102
v 134.310333 820.899475 -608.843994
v 170.898499 836.267090 -672.198730
v 126.769279 846.127625 -695.291931
v 90.181084 830.759827 -631.937195
vn 0.8691 -0.1942 0.4548
vn 0.4894 0.2056 -0.8475
vn -0.8691 0.1942 -0.4548
vn 0.0711 0.9592 0.2737
vn -0.0711 -0.9592 -0.2737
vn -0.4894 -0.2056 0.8475
vn -0.3783 -0.8534 0.3585
vn -0.1549 -0.9469 -0.2818
vn -0.5641 -0.2951 0.7712
vn -0.8698 0.1935 -0.4538
vn 0.8698 -0.1935 0.4538
vn 0.4334 -0.1439 -0.8896
vn 0.4316 -0.1514 -0.8893
vn -0.4334 0.1439 0.8896
vn 0.7920 0.1126 -0.6001
vn -0.7876 0.5215 -0.3283
vn -0.4567 -0.3210 0.8297
vn -0.0514 -0.9726 -0.2268
vn -0.4104 0.2300 0.8824
vn -0.4946 -0.3405 0.7997
vn -0.1031 -0.9706 -0.2173
vn -0.1079 -0.2654 0.9581
vn 0.4203 -0.9071 0.0227
vn 0.5389 0.6928 0.4792
vn 0.8552 -0.3031 0.4204
usemtl Matériau.011
s off
f 45//1 46//1 4//1 3//1
f 49//2 50//2 8//2 7//2
f 47//3 48//3 6//3 5//3
f 26//1 25//1 9//1 10//1
f 72//4 47//4 5//4 51//4
f 96//5 46//5 2//5 74//5
f 10//1 9//1 13//1 14//1
f 84//6 9//6 29//6 90//6
f 89//5 26//5 10//5 75//5
f 27//3 28//3 11//3 12//3
f 76//7 14//7 18//7 77//7
f 75//8 10//8 14//8 76//8
f 12//3 11//3 15//3 16//3
f 53//4 12//4 16//4 55//4
f 86//9 77//9 18//9 17//9
f 16//10 15//10 19//10 20//10
f 16//3 20//3 24//3 22//3
f 14//11 13//11 17//11 18//11
f 59//12 22//12 42//12 69//12
f 86//6 17//6 23//6 88//6
f 17//1 13//1 21//1 23//1
f 55//2 16//2 22//2 59//2
f 5//3 6//3 28//3 27//3
f 74//5 2//5 26//5 89//5
f 51//4 5//4 27//4 62//4
f 2//1 1//1 25//1 26//1
f 32//3 30//3 34//3 36//3
f 62//2 27//2 32//2 64//2
f 27//3 12//3 30//3 32//3
f 9//1 25//1 31//1 29//1
f 66//4 36//4 34//4 65//4
f 90//5 29//5 37//5 92//5
f 64//2 32//2 36//2 66//2
f 29//1 31//1 35//1 33//1
f 92//6 37//6 39//6 93//6
f 29//1 33//1 39//1 37//1
f 34//3 30//3 38//3 40//3
f 65//4 34//4 40//4 68//4
f 69//13 42//13 124//13 123//13
f 23//1 21//1 41//1 43//1
f 88//14 23//14 43//14 95//14
f 22//3 24//3 44//3 42//3
f 82//5 4//5 46//5 96//5
f 49//4 7//4 47//4 72//4
f 7//3 8//3 48//3 47//3
f 46//15 45//15 103//15 106//15
f 73//4 49//4 72//4 81//4
f 8//5 50//5 71//5 48//5
f 24//14 60//14 70//14 44//14
f 42//16 44//16 126//16 124//16
f 91//4 65//4 68//4 93//4
f 38//6 67//6 68//6 40//6
f 79//2 64//2 66//2 80//2
f 30//5 63//5 67//5 38//5
f 80//4 66//4 65//4 91//4
f 78//2 62//2 64//2 79//2
f 83//4 51//4 62//4 78//4
f 6//5 52//5 61//5 28//5
f 85//2 55//2 59//2 87//2
f 20//6 57//6 60//6 24//6
f 87//12 59//12 69//12 94//12
f 20//17 19//17 58//17 57//17
f 84//4 53//4 55//4 85//4
f 11//18 54//18 56//18 15//18
f 15//7 56//7 58//7 19//7
f 28//5 61//5 54//5 11//5
f 12//6 53//6 63//6 30//6
f 48//5 71//5 52//5 6//5
f 81//4 72//4 51//4 83//4
f 50//3 49//3 121//3 120//3
f 3//2 4//2 82//2 73//2
f 45//4 81//4 83//4 1//4
f 9//4 84//4 85//4 13//4
f 21//12 87//12 94//12 41//12
f 13//2 85//2 87//2 21//2
f 1//4 83//4 78//4 25//4
f 25//2 78//2 79//2 31//2
f 35//4 80//4 91//4 33//4
f 31//2 79//2 80//2 35//2
f 33//4 91//4 93//4 39//4
f 70//19 95//19 130//19 125//19
f 3//4 73//4 81//4 45//4
f 50//5 82//5 96//5 71//5
f 60//14 88//14 95//14 70//14
f 67//6 92//6 93//6 68//6
f 63//5 90//5 92//5 67//5
f 52//3 71//3 100//3 101//3
f 57//6 86//6 88//6 60//6
f 57//20 58//20 77//20 86//20
f 54//21 75//21 76//21 56//21
f 56//7 76//7 77//7 58//7
f 61//5 89//5 75//5 54//5
f 53//6 84//6 90//6 63//6
f 89//6 61//6 98//6 97//6
f 101//5 102//5 97//5 98//5
f 100//5 99//5 102//5 101//5
f 61//3 52//3 101//3 98//3
f 74//1 89//1 97//1 102//1
f 71//2 96//2 99//2 100//2
f 96//1 74//1 102//1 99//1
f 106//2 103//2 107//2 110//2
f 1//22 2//22 105//22 104//22
f 2//23 46//23 106//23 105//23
f 45//24 1//24 104//24 103//24
f 109//5 110//5 114//5 113//5
f 104//6 105//6 109//6 108//6
f 105//5 106//5 110//5 109//5
f 103//4 104//4 108//4 107//4
f 113//5 114//5 118//5 117//5
f 107//4 108//4 112//4 111//4
f 110//2 107//2 111//2 114//2
f 108//6 109//6 113//6 112//6
f 116//1 117//1 118//1 115//1
f 111//4 112//4 116//4 115//4
f 114//2 111//2 115//2 118//2
f 122//2 119//2 120//2 121//2
f 82//5 50//5 120//5 119//5
f 73//1 82//1 119//1 122//1
f 49//4 73//4 122//4 121//4
f 123//4 124//4 126//4 125//4
f 129//4 123//4 125//4 130//4
f 128//4 129//4 130//4 127//4
f 95//19 43//19 127//19 130//19
f 94//13 69//13 123//13 129//13
f 43//25 41//25 128//25 127//25
f 44//19 70//19 125//19 126//19
f 41//13 94//13 129//13 128//13
o Cube.048_Cube.024
v -564.133423 475.067535 182.097504
v -733.120117 349.056580 63.935432
v -422.353455 468.329468 -13.480125
v -591.219971 340.607697 -133.990631
v -669.450745 648.815796 27.016541
v -756.094971 584.206482 -33.568474
v -596.756226 645.360962 -73.261589
v -683.303955 580.255920 -133.573303
v -357.435699 467.661377 -466.148041
v -263.745422 506.700775 -390.512848
v -313.942139 622.881836 -388.300781
v -407.632416 583.842407 -463.936005
v -234.790405 541.997986 -628.393982
v -165.907288 570.700623 -572.785217
v -202.813049 656.119568 -571.158936
v -271.696228 627.416870 -626.767639
v -157.321899 591.026978 -728.696777
v -106.983032 612.002502 -688.058594
v -133.953186 674.425476 -686.870117
v -184.292236 653.450073 -727.508118
v -477.240967 575.620422 -34.281425
v -656.462219 440.412933 -160.476410
v -627.782593 582.922729 173.332001
v -807.182739 449.146667 47.888435
v -282.917725 567.392761 -391.563019
v -382.381470 525.947632 -471.859161
v -171.995483 619.007568 -585.378662
v -245.123444 588.536255 -644.414124
v -104.166199 650.648071 -707.987732
v -157.607178 628.380066 -751.130310
v -104.837646 611.284363 -804.165466
v -54.498657 632.259827 -763.527405
v -48.632874 678.635864 -791.223694
v -102.073730 656.367737 -834.366150
v -129.227478 680.249512 -809.550110
v -78.888611 701.224976 -768.911926
v -67.645935 627.070923 -858.383606
v -17.307007 648.046448 -817.745544
v -11.441162 694.422363 -845.441772
v -64.882202 672.154297 -888.584106
v -92.035706 696.036072 -863.768188
v -41.696838 717.011536 -823.130127
v -26.237915 617.985596 -884.707397
v 6.162964 631.486633 -858.550476
v 9.938660 661.336670 -876.377197
v -24.458984 647.003723 -904.145935
v -56.463989 716.168152 -921.729736
v -83.617554 740.049805 -896.913940
v -33.278748 761.025391 -856.275818
v -3.023010 738.436157 -878.587463
v 1.294495 610.544617 -903.036072
v 23.138245 619.646606 -885.401855
v 25.683777 639.770569 -897.420166
v 2.493774 630.107788 -916.141113
v 26.209167 614.303467 -926.588379
v 39.863953 619.993286 -915.564941
v 41.455200 632.573059 -923.077881
v 26.958984 626.532654 -934.780640
v -47.783875 747.505737 -928.411987
v -65.838684 763.384949 -911.911377
v -32.367798 777.331787 -884.890686
v -12.250366 762.312012 -899.725952
v -321.271301 582.112000 385.635895
v -300.016205 345.595734 340.849274
v -168.150696 619.358765 204.290863
v -150.922913 393.829437 156.886627
v -468.757599 547.690735 179.739563
v -457.859497 426.422241 156.776215
v -389.609528 574.333557 87.761383
v -381.415192 451.152954 62.453396
v 41.513489 491.791321 -164.523865
v 113.934814 545.570557 -76.776665
v 66.567078 658.210205 -106.230080
v -4.906677 606.033997 -193.096527
v 201.285645 540.842163 -302.213257
v 255.485168 579.177368 -236.991486
v 221.355957 663.171204 -257.998871
v 167.156433 624.835938 -323.220734
v 301.732605 574.223511 -387.430450
v 341.341003 602.238403 -339.766998
v 316.399780 663.619934 -355.118958
v 276.791626 635.605042 -402.782379
v -270.919617 635.383057 148.042938
v -256.092957 388.602051 94.404518
v -436.938873 588.487122 337.250092
v -414.373932 337.396027 289.703583
v 98.353699 603.362854 -91.153709
v 20.092407 548.008789 -185.330658
v 253.773987 624.723450 -258.248383
v 196.234436 584.025757 -327.489349
v 349.797546 637.202576 -364.355316
v 307.748474 607.461365 -414.955750
v 371.273132 582.838989 -450.282562
v 410.881287 610.853943 -402.619080
v 424.349060 652.240295 -435.146149
v 382.299988 622.499023 -485.746735
v 350.572937 649.655457 -472.353119
v 390.181091 677.670410 -424.689606
v 420.763489 590.237915 -495.757843
v 460.371765 618.252808 -448.094513
v 473.839539 659.639160 -480.621674
v 431.790466 629.897888 -531.222107
v 400.063171 657.054382 -517.828369
v 439.671326 685.069336 -470.164948
v 467.045837 577.655273 -509.532379
v 492.539856 595.687134 -478.853729
v 501.208435 622.325623 -499.789948
v 474.143372 603.182495 -532.359253
v 448.985779 668.113098 -567.973083
v 417.258484 695.269653 -554.579285
v 456.866760 723.284546 -506.916046
v 491.034729 697.854370 -517.372437
v 497.983215 567.774231 -519.257507
v 515.170593 579.930786 -498.574799
v 521.015076 597.889771 -512.689758
v 502.768250 584.984009 -534.646790
v 527.906555 568.063232 -536.407043
v 538.650330 575.662415 -523.477966
v 542.303650 586.888733 -532.301147
v 530.897644 578.821228 -546.026794
v 459.775208 698.091064 -577.298035
v 438.679260 716.147766 -568.392517
v 465.015320 734.775146 -536.700439
v 487.734070 717.866394 -543.653015
vn 0.4086 -0.8520 0.3274
vn -0.3050 0.9070 -0.2905
vn -0.4086 0.8516 -0.3283
vn -0.4573 -0.1994 0.8667
vn 0.4170 0.8672 0.2721
vn -0.6775 -0.5708 -0.4638
vn -0.3532 0.9345 -0.0448
vn 0.8145 0.4122 0.4084
vn -0.7512 -0.0825 -0.6549
vn 0.4957 -0.8655 0.0724
vn -0.7250 -0.1737 -0.6665
vn 0.8105 0.2539 0.5279
vn -0.7232 -0.2137 -0.6567
vn 0.4375 -0.8957 -0.0796
vn 0.7138 0.3640 0.5983
vn 0.4451 -0.8908 -0.0916
vn -0.3446 0.9370 -0.0568
vn 0.8305 0.2223 0.5107
vn 0.7382 0.4360 0.5148
vn 0.3759 -0.9266 0.0127
vn -0.6604 -0.3590 -0.6595
vn 0.7477 0.3991 0.5307
vn -0.6327 -0.3874 -0.6705
vn -0.6071 -0.4759 -0.6363
vn 0.5472 0.7586 0.3537
vn -0.8097 -0.0447 -0.5851
vn 0.7231 0.4682 0.5079
vn -0.7142 0.5393 0.4462
vn -0.3868 0.9222 0.0032
vn -0.7191 -0.3558 -0.5969
vn -0.4036 0.9145 0.0279
vn 0.7611 0.2561 0.5959
vn -0.7168 -0.3598 -0.5973
vn -0.7637 -0.2517 -0.5945
vn 0.7080 0.3334 0.6225
vn 0.0556 -0.9136 0.4027
vn 0.7592 0.2602 0.5966
vn 0.7138 0.3669 0.5965
vn -0.7634 -0.2486 -0.5961
vn 0.3868 -0.9222 -0.0032
vn 0.1930 0.7538 -0.6281
vn -0.5483 -0.4420 -0.7100
vn 0.8822 0.1541 0.4449
vn 0.2113 0.7369 -0.6421
vn 0.7144 0.5979 0.3635
vn -0.7706 -0.2827 -0.5711
vn -0.6552 0.5304 0.5379
vn 0.6552 -0.5304 -0.5379
vn -0.1188 0.9346 -0.3352
vn 0.8651 0.1719 0.4711
vn -0.5780 -0.4294 -0.6939
vn 0.0364 -0.9057 0.4224
vn 0.6677 -0.4421 -0.5989
vn 0.8598 0.1772 0.4788
vn -0.5870 -0.4254 -0.6888
vn 0.2793 -0.9493 0.1440
vn 0.1510 0.7897 -0.5947
vn -0.6628 0.0240 -0.7484
vn 0.6724 -0.3278 -0.6637
vn -0.6007 0.7027 0.3813
vn 0.7760 -0.0606 0.6278
vn -0.5085 0.5867 -0.6303
vn -0.7745 0.0638 -0.6293
vn -0.3873 -0.2050 0.8989
vn -0.4192 0.8985 -0.1305
vn 0.1359 -0.9798 -0.1468
vn -0.3104 0.9073 -0.2835
vn 0.3753 0.8801 0.2909
vn -0.3011 -0.6154 -0.7285
vn 0.7241 -0.4111 0.5538
vn -0.5479 -0.2899 -0.7847
vn 0.6673 0.3401 0.6626
vn -0.5494 -0.3278 -0.7686
vn 0.4242 -0.8869 0.1830
vn 0.5580 0.4665 0.6863
vn 0.4323 -0.8870 0.1621
vn -0.2980 0.9103 -0.2874
vn 0.6888 0.3143 0.6533
vn 0.6034 0.5244 0.6007
vn 0.3392 -0.9066 0.2510
vn -0.4914 -0.4706 -0.7329
vn 0.5957 0.5087 0.6215
vn -0.4625 -0.5000 -0.7322
vn -0.0717 -0.8955 -0.4393
vn -0.0517 0.9984 0.0210
vn -0.2992 -0.8352 -0.4615
vn -0.0043 0.9760 0.2179
vn -0.9648 -0.1300 0.2286
vn -0.3537 0.9046 -0.2378
vn -0.5633 -0.4582 -0.6876
vn -0.3761 0.9008 -0.2169
vn 0.6019 0.3603 0.7127
vn -0.5610 -0.4622 -0.6867
vn -0.6046 -0.3558 -0.7127
vn 0.5458 0.4401 0.7130
vn -0.0650 -0.8358 0.5452
vn 0.5999 0.3645 0.7122
vn 0.5585 0.4691 0.6841
vn -0.6039 -0.3531 -0.7146
vn 0.3537 -0.9046 0.2378
vn 0.3564 0.6455 -0.6755
vn -0.3725 -0.5589 -0.7409
vn 0.7531 0.2372 0.6136
vn 0.3771 0.6268 -0.6818
vn 0.6206 0.6594 0.4242
vn -0.6177 -0.3828 -0.6870
vn -0.7521 0.6002 0.2722
vn 0.7521 -0.6002 -0.2722
vn -0.0121 0.8664 -0.4992
vn 0.7307 0.2588 0.6318
vn -0.4048 -0.5444 -0.7347
vn -0.0881 -0.8251 0.5581
vn 0.7810 -0.5227 -0.3418
vn 0.7238 0.2651 0.6370
vn -0.4146 -0.5398 -0.7326
vn 0.2134 -0.9093 0.3571
vn 0.3085 0.6856 -0.6594
vn -0.4630 -0.1070 -0.8798
vn 0.8038 -0.4203 -0.4210
vn -0.6574 0.7458 0.1079
usemtl Matériau.012
s off
f 131//26 132//26 134//26 133//26
f 138//27 137//27 141//27 142//27
f 137//28 138//28 136//28 135//28
f 153//29 154//29 132//29 131//29
f 151//30 137//30 135//30 153//30
f 152//31 134//31 132//31 154//31
f 142//32 141//32 145//32 146//32
f 151//33 133//33 140//33 155//33
f 152//34 138//34 142//34 156//34
f 133//35 134//35 139//35 140//35
f 158//36 146//36 150//36 160//36
f 155//37 140//37 144//37 157//37
f 156//38 142//38 146//38 158//38
f 140//39 139//39 143//39 144//39
f 149//40 159//40 163//40 166//40
f 144//41 143//41 147//41 148//41
f 146//42 145//42 149//42 150//42
f 157//43 144//43 148//43 159//43
f 145//44 157//44 159//44 149//44
f 148//45 147//45 161//45 162//45
f 139//46 156//46 158//46 143//46
f 141//47 155//47 157//47 145//47
f 143//48 158//48 160//48 147//48
f 134//49 152//49 156//49 139//49
f 137//50 151//50 155//50 141//50
f 138//51 152//51 154//51 136//51
f 133//52 151//52 153//52 131//52
f 135//53 136//53 154//53 153//53
f 165//54 166//54 172//54 171//54
f 161//55 164//55 170//55 167//55
f 150//56 149//56 166//56 165//56
f 159//57 148//57 162//57 163//57
f 147//58 160//58 164//58 161//58
f 160//59 150//59 165//59 164//59
f 172//60 169//60 180//60 179//60
f 168//61 167//61 173//61 174//61
f 163//62 162//62 168//62 169//62
f 166//63 163//63 169//63 172//63
f 164//64 165//64 171//64 170//64
f 162//65 161//65 167//65 168//65
f 176//66 175//66 183//66 184//66
f 167//67 170//67 176//67 173//67
f 169//68 168//68 174//68 175//68
f 170//69 169//69 175//69 176//69
f 179//70 180//70 192//70 191//70
f 170//71 171//71 178//71 177//71
f 171//72 172//72 179//72 178//72
f 169//73 170//73 177//73 180//73
f 184//74 183//74 187//74 188//74
f 175//75 174//75 182//75 183//75
f 173//76 176//76 184//76 181//76
f 174//77 173//77 181//77 182//77
f 186//78 185//78 188//78 187//78
f 183//79 182//79 186//79 187//79
f 181//80 184//80 188//80 185//80
f 182//81 181//81 185//81 186//81
f 192//82 189//82 190//82 191//82
f 177//83 178//83 190//83 189//83
f 180//84 177//84 189//84 192//84
f 178//85 179//85 191//85 190//85
f 193//86 194//86 196//86 195//86
f 200//87 199//87 203//87 204//87
f 199//88 200//88 198//88 197//88
f 215//89 216//89 194//89 193//89
f 213//90 199//90 197//90 215//90
f 214//91 196//91 194//91 216//91
f 204//92 203//92 207//92 208//92
f 213//93 195//93 202//93 217//93
f 214//94 200//94 204//94 218//94
f 195//95 196//95 201//95 202//95
f 220//96 208//96 212//96 222//96
f 217//97 202//97 206//97 219//97
f 218//98 204//98 208//98 220//98
f 202//99 201//99 205//99 206//99
f 211//100 221//100 225//100 228//100
f 206//101 205//101 209//101 210//101
f 208//102 207//102 211//102 212//102
f 219//103 206//103 210//103 221//103
f 207//104 219//104 221//104 211//104
f 210//105 209//105 223//105 224//105
f 201//106 218//106 220//106 205//106
f 203//107 217//107 219//107 207//107
f 205//108 220//108 222//108 209//108
f 196//109 214//109 218//109 201//109
f 199//110 213//110 217//110 203//110
f 200//111 214//111 216//111 198//111
f 195//112 213//112 215//112 193//112
f 197//113 198//113 216//113 215//113
f 227//114 228//114 234//114 233//114
f 223//115 226//115 232//115 229//115
f 212//116 211//116 228//116 227//116
f 221//117 210//117 224//117 225//117
f 209//118 222//118 226//118 223//118
f 222//119 212//119 227//119 226//119
f 234//120 231//120 242//120 241//120
f 230//121 229//121 235//121 236//121
f 225//122 224//122 230//122 231//122
f 228//123 225//123 231//123 234//123
f 226//124 227//124 233//124 232//124
f 224//125 223//125 229//125 230//125
f 238//126 237//126 245//126 246//126
f 229//127 232//127 238//127 235//127
f 231//128 230//128 236//128 237//128
f 232//129 231//129 237//129 238//129
f 241//130 242//130 254//130 253//130
f 232//131 233//131 240//131 239//131
f 233//132 234//132 241//132 240//132
f 231//133 232//133 239//133 242//133
f 246//134 245//134 249//134 250//134
f 237//135 236//135 244//135 245//135
f 235//136 238//136 246//136 243//136
f 236//137 235//137 243//137 244//137
f 248//138 247//138 250//138 249//138
f 245//139 244//139 248//139 249//139
f 243//140 246//140 250//140 247//140
f 244//141 243//141 247//141 248//141
f 254//142 251//142 252//142 253//142
f 239//143 240//143 252//143 251//143
f 242//144 239//144 251//144 254//144
f 240//145 241//145 253//145 252//145
