# Blender v2.91.2 OBJ File: 'camionnete02.blend'
# www.blender.org
mtllib arme_000035.mtl
o Cube.046_Cube.010
v 98.066528 132.938583 -1138.253174
v 34.377365 -76.965302 -1116.731689
v 167.739532 90.798843 -1343.067627
v 104.050415 -119.105042 -1321.546387
v -101.102928 185.319077 -1216.782715
v -164.792114 -24.584824 -1195.261475
v -31.429871 143.179337 -1421.597168
v -95.119049 -66.724564 -1400.076172
v 2.140533 190.956619 -856.263916
v -61.548615 -18.947235 -834.742676
v -260.718018 33.433228 -913.272339
v -197.028870 243.337112 -934.793640
v -41.272209 217.213608 -728.645264
v -104.961403 7.309723 -707.124084
v -304.130859 59.690201 -785.653748
v -240.441711 269.594116 -807.175049
v -66.918571 232.725052 -653.253967
v -108.809189 77.406601 -650.136108
v -307.978668 129.787140 -728.665894
v -266.088043 285.105591 -731.783691
v 22.220032 426.468628 -750.100037
v -176.949402 478.849060 -828.629822
v -3.426292 441.980042 -674.708740
v -202.595718 494.360535 -753.238464
v 17.106781 181.904709 -900.259338
v -46.582390 -27.999115 -878.738159
v -182.062683 234.285233 -978.789185
v -245.751846 24.381363 -957.267822
v 23.164810 260.247437 -863.368286
v -176.004608 312.627991 -941.898071
v 38.131058 251.195572 -907.363708
v -161.038406 303.576050 -985.893372
v 53.667618 360.777161 -873.675537
v -145.501801 413.157654 -952.205200
v 68.633789 351.725281 -917.671021
v -130.535583 404.105774 -996.200684
v -19.266762 285.911011 -738.634033
v -218.436249 338.291504 -817.163757
v 11.236023 386.440735 -748.941284
v -187.933441 438.821228 -827.471008
v 77.938477 546.942749 -811.056580
v -121.231003 599.323242 -889.586426
v 52.292099 562.454163 -735.665283
v -146.877289 614.834656 -814.195007
v 143.142792 105.675476 -1270.761719
v 79.453644 -104.228409 -1249.240479
v -56.026642 158.055984 -1349.291504
v -119.715759 -51.847931 -1327.770020
v 68.154846 116.989120 -1382.332275
v 4.465668 -92.914795 -1360.811279
v -1.518188 159.128830 -1177.517822
v -65.207352 -50.775070 -1155.996582
v -97.444153 217.146835 -895.528748
v -161.133331 7.243004 -874.007446
v -140.856949 243.403885 -767.910156
v -197.064133 42.782623 -733.911438
v -166.503296 258.915283 -692.518860
v -199.658691 90.049164 -695.484436
v -77.364685 452.658813 -789.364868
v -103.011032 468.170227 -713.973633
v -146.167114 -1.808876 -918.002991
v -82.477959 208.094955 -939.524292
v -76.419891 286.437744 -902.633179
v -61.453682 277.385803 -946.628540
v -45.917068 386.967468 -912.940308
v -30.950890 377.915466 -956.935852
v -118.851486 312.101257 -777.898987
v -88.348671 412.630981 -788.206116
v -21.646286 573.132996 -850.321472
v -47.292633 588.644409 -774.930176
v -20.131088 -78.038162 -1288.505371
v 43.558090 131.865738 -1310.026611
v 117.947235 103.893982 -1362.699951
v -15.414993 -63.870193 -1136.364014
v -111.340973 -5.852112 -854.375061
v -163.489014 33.952553 -720.673279
v -166.083572 81.219070 -682.246155
v -32.685570 194.999832 -919.891785
v -11.661331 264.290649 -926.996155
v 18.841446 364.820374 -937.303406
v 93.350433 118.770615 -1290.394287
v 54.258057 -106.009933 -1341.178711
v 48.274139 146.033707 -1157.885498
v -47.651833 204.051743 -875.896423
v -91.064590 230.308731 -748.277771
v -116.710945 245.820175 -672.886353
v -27.572311 439.563721 -769.732544
v -53.218636 455.075134 -694.341187
v -96.374763 -14.904007 -898.370605
v -26.627533 273.342590 -883.000732
v 3.875275 373.872253 -893.307983
v -69.059135 299.006165 -758.266479
v -38.556320 399.535828 -768.573608
v 28.146118 560.037842 -830.689026
v 2.499741 575.549255 -755.297668
v 29.661240 -91.133286 -1268.873047
v -108.299675 -54.205643 -894.340942
v -158.092041 -41.110535 -913.973389
v 17.736267 -130.434921 -1264.843506
v -32.056023 -117.339813 -1284.475830
v -77.132309 -90.076721 -1151.967041
v -27.339920 -103.171829 -1132.334473
v 196.768219 32.654831 -1194.697510
v 176.835907 44.710297 -1136.103516
v 148.673340 -48.107086 -1126.586914
v 168.605499 -60.162537 -1185.181152
v 239.807709 21.335663 -1177.727783
v 219.875397 33.391129 -1119.133545
v 191.712769 -59.426224 -1109.617188
v 211.644958 -71.481674 -1168.211182
v 305.671783 4.013779 -1151.758545
v 285.739502 16.069244 -1093.164551
v 257.576813 -76.748093 -1083.647949
v 277.509064 -88.803543 -1142.242188
v 348.054474 -7.132675 -1135.047607
v 328.122223 4.922791 -1076.453613
v 299.959625 -87.894562 -1066.937012
v 319.891846 -99.949982 -1125.531250
v 283.147644 -244.446701 -2014.033203
v 233.355286 -231.351608 -2033.665771
v 297.044342 -21.447678 -2055.187256
v 346.836731 -34.542831 -2035.554688
v 20.016647 627.070557 -874.371643
v -71.745316 651.203430 -910.552124
v -3.615059 641.363464 -804.902527
v -95.376968 665.496277 -841.083008
v 88.146881 617.230591 -768.722168
v 111.778671 602.937744 -838.191162
v 65.897736 615.004272 -856.281311
v 42.265900 629.296936 -786.812378
vn 0.9036 -0.2377 0.3563
vn 0.3161 -0.1912 -0.9293
vn -0.9036 0.2377 -0.3563
vn 0.2890 0.9523 -0.0976
vn -0.2890 -0.9523 0.0976
vn -0.3161 0.1912 0.9293
vn -0.4260 -0.5847 0.6904
vn -0.3692 -0.9241 0.0986
vn -0.4197 0.1021 0.9019
vn -0.9042 0.2374 -0.3550
vn 0.9042 -0.2374 0.3550
vn 0.1947 -0.5130 -0.8360
vn 0.1917 -0.5194 -0.8327
vn -0.1947 0.5130 0.8360
vn 0.6462 -0.2693 -0.7141
vn -0.7426 0.5597 -0.3678
vn -0.3079 0.0717 0.9487
vn -0.2619 -0.9545 0.1427
vn -0.1599 0.5846 0.7954
vn -0.3542 0.0531 0.9337
vn -0.3091 -0.9377 0.1586
vn 0.0650 0.0822 0.9945
vn 0.2576 -0.9254 0.2780
vn 0.7396 0.6631 0.1152
vn 0.8645 -0.3455 0.3652
usemtl Matériau.011
s off
f 45//1 46//1 4//1 3//1
f 49//2 50//2 8//2 7//2
f 47//3 48//3 6//3 5//3
f 26//1 25//1 9//1 10//1
f 72//4 47//4 5//4 51//4
f 96//5 46//5 2//5 74//5
f 10//1 9//1 13//1 14//1
f 84//6 9//6 29//6 90//6
f 89//5 26//5 10//5 75//5
f 27//3 28//3 11//3 12//3
f 76//7 14//7 18//7 77//7
f 75//8 10//8 14//8 76//8
f 12//3 11//3 15//3 16//3
f 53//4 12//4 16//4 55//4
f 86//9 77//9 18//9 17//9
f 16//10 15//10 19//10 20//10
f 16//3 20//3 24//3 22//3
f 14//11 13//11 17//11 18//11
f 59//12 22//12 42//12 69//12
f 86//6 17//6 23//6 88//6
f 17//1 13//1 21//1 23//1
f 55//2 16//2 22//2 59//2
f 5//3 6//3 28//3 27//3
f 74//5 2//5 26//5 89//5
f 51//4 5//4 27//4 62//4
f 2//1 1//1 25//1 26//1
f 32//3 30//3 34//3 36//3
f 62//2 27//2 32//2 64//2
f 27//3 12//3 30//3 32//3
f 9//1 25//1 31//1 29//1
f 66//4 36//4 34//4 65//4
f 90//5 29//5 37//5 92//5
f 64//2 32//2 36//2 66//2
f 29//1 31//1 35//1 33//1
f 92//6 37//6 39//6 93//6
f 29//1 33//1 39//1 37//1
f 34//3 30//3 38//3 40//3
f 65//4 34//4 40//4 68//4
f 69//13 42//13 124//13 123//13
f 23//1 21//1 41//1 43//1
f 88//14 23//14 43//14 95//14
f 22//3 24//3 44//3 42//3
f 82//5 4//5 46//5 96//5
f 49//4 7//4 47//4 72//4
f 7//3 8//3 48//3 47//3
f 46//15 45//15 103//15 106//15
f 73//4 49//4 72//4 81//4
f 8//5 50//5 71//5 48//5
f 24//14 60//14 70//14 44//14
f 42//16 44//16 126//16 124//16
f 91//4 65//4 68//4 93//4
f 38//6 67//6 68//6 40//6
f 79//2 64//2 66//2 80//2
f 30//5 63//5 67//5 38//5
f 80//4 66//4 65//4 91//4
f 78//2 62//2 64//2 79//2
f 83//4 51//4 62//4 78//4
f 6//5 52//5 61//5 28//5
f 85//2 55//2 59//2 87//2
f 20//6 57//6 60//6 24//6
f 87//12 59//12 69//12 94//12
f 20//17 19//17 58//17 57//17
f 84//4 53//4 55//4 85//4
f 11//18 54//18 56//18 15//18
f 15//7 56//7 58//7 19//7
f 28//5 61//5 54//5 11//5
f 12//6 53//6 63//6 30//6
f 48//5 71//5 52//5 6//5
f 81//4 72//4 51//4 83//4
f 50//3 49//3 121//3 120//3
f 3//2 4//2 82//2 73//2
f 45//4 81//4 83//4 1//4
f 9//4 84//4 85//4 13//4
f 21//12 87//12 94//12 41//12
f 13//2 85//2 87//2 21//2
f 1//4 83//4 78//4 25//4
f 25//2 78//2 79//2 31//2
f 35//4 80//4 91//4 33//4
f 31//2 79//2 80//2 35//2
f 33//4 91//4 93//4 39//4
f 70//19 95//19 130//19 125//19
f 3//4 73//4 81//4 45//4
f 50//5 82//5 96//5 71//5
f 60//14 88//14 95//14 70//14
f 67//6 92//6 93//6 68//6
f 63//5 90//5 92//5 67//5
f 52//3 71//3 100//3 101//3
f 57//6 86//6 88//6 60//6
f 57//20 58//20 77//20 86//20
f 54//21 75//21 76//21 56//21
f 56//7 76//7 77//7 58//7
f 61//5 89//5 75//5 54//5
f 53//6 84//6 90//6 63//6
f 89//6 61//6 98//6 97//6
f 101//5 102//5 97//5 98//5
f 100//5 99//5 102//5 101//5
f 61//3 52//3 101//3 98//3
f 74//1 89//1 97//1 102//1
f 71//2 96//2 99//2 100//2
f 96//1 74//1 102//1 99//1
f 106//2 103//2 107//2 110//2
f 1//22 2//22 105//22 104//22
f 2//23 46//23 106//23 105//23
f 45//24 1//24 104//24 103//24
f 109//5 110//5 114//5 113//5
f 104//6 105//6 109//6 108//6
f 105//5 106//5 110//5 109//5
f 103//4 104//4 108//4 107//4
f 113//5 114//5 118//5 117//5
f 107//4 108//4 112//4 111//4
f 110//2 107//2 111//2 114//2
f 108//6 109//6 113//6 112//6
f 116//1 117//1 118//1 115//1
f 111//4 112//4 116//4 115//4
f 114//2 111//2 115//2 118//2
f 122//2 119//2 120//2 121//2
f 82//5 50//5 120//5 119//5
f 73//1 82//1 119//1 122//1
f 49//4 73//4 122//4 121//4
f 123//4 124//4 126//4 125//4
f 129//4 123//4 125//4 130//4
f 128//4 129//4 130//4 127//4
f 95//19 43//19 127//19 130//19
f 94//13 69//13 123//13 129//13
f 43//25 41//25 128//25 127//25
f 44//19 70//19 125//19 126//19
f 41//13 94//13 129//13 128//13
o Cube.048_Cube.024
v -563.601257 464.314636 182.267212
v -726.405518 341.430786 52.683769
v -423.338898 484.864380 -13.441071
v -586.694580 365.032288 -140.794037
v -679.631775 646.444702 45.534412
v -763.106079 583.438721 -20.906647
v -607.715393 656.981201 -54.810730
v -690.589600 594.847168 -120.836922
v -411.410400 451.326660 -437.253143
v -298.094055 489.274628 -395.516022
v -326.461945 608.562073 -426.954956
v -439.778290 570.614075 -468.692047
v -317.254517 440.190125 -631.937927
v -233.941803 468.090332 -601.251770
v -254.798553 555.793152 -624.366455
v -338.111267 527.892944 -655.052490
v -256.951233 435.750580 -753.632874
v -196.067322 456.139648 -731.208008
v -211.309204 520.231689 -748.099670
v -272.192993 499.842590 -770.524597
v -484.133301 590.681580 -23.308510
v -656.403687 463.976685 -158.500641
v -633.156982 568.804077 184.452911
v -805.993774 438.347717 46.884117
v -306.630707 549.256714 -415.047180
v -426.929932 508.970276 -459.356232
v -234.538147 510.001495 -629.042542
v -322.984894 480.381927 -661.619507
v -191.349396 484.781555 -763.703735
v -255.985046 463.135986 -787.510681
v -219.925781 418.451904 -838.428894
v -159.041870 438.840912 -816.004028
v -151.832275 471.445007 -858.866821
v -216.468140 449.799469 -882.673706
v -233.059082 485.897034 -864.094177
v -172.175232 506.286133 -841.669250
v -193.614136 407.278748 -899.706238
v -132.730225 427.667847 -877.281311
v -125.520813 460.271912 -920.143860
v -190.156494 438.626373 -943.950745
v -206.747498 474.723938 -925.371399
v -145.863647 495.113007 -902.946533
v -161.198792 381.011078 -927.080994
v -122.010559 394.134583 -912.647156
v -117.370178 415.120422 -940.235779
v -158.973206 401.188141 -955.559204
v -182.099609 466.748779 -991.394714
v -198.690613 502.846375 -972.815247
v -137.806702 523.235535 -950.390381
v -117.463928 488.394348 -967.587830
v -140.062683 361.997192 -945.549255
v -113.643127 370.844727 -935.818176
v -110.514648 384.992798 -954.417725
v -138.562256 375.600037 -964.748474
v -120.735291 352.255920 -972.403381
v -104.220093 357.786652 -966.320374
v -102.264404 366.630707 -977.947327
v -119.797302 360.759155 -984.405090
v -170.023376 491.469910 -1009.970886
v -181.054932 515.471619 -997.617126
v -140.572449 529.028564 -982.706482
v -127.046265 505.862244 -994.141541
v -303.368958 550.601685 420.301117
v -297.678284 325.691956 332.092316
v -151.170959 615.831543 241.631500
v -153.565002 399.667786 152.770020
v -460.769531 562.209900 219.252289
v -457.851776 446.892426 174.025177
v -383.817810 600.780396 130.153687
v -383.960876 484.821869 82.081604
v 6.058899 572.931763 -173.834198
v 80.129700 642.479431 -98.341881
v -1.277222 738.347168 -107.189827
v -74.955017 669.875488 -181.663666
v 110.830627 669.183838 -337.082184
v 165.868286 719.662720 -281.550171
v 106.304993 790.937805 -287.306549
v 51.267395 740.459045 -342.838745
v 176.312317 732.097717 -438.175812
v 216.533081 768.986938 -397.593597
v 173.004944 821.073914 -401.800262
v 132.784241 784.184631 -442.382324
v -257.313965 645.602600 194.381927
v -261.290680 411.306732 95.745468
v -420.326050 571.541626 379.762665
v -414.284698 332.772186 286.118195
v 45.462402 694.109619 -104.368523
v -34.009094 621.220825 -184.553986
v 147.034607 763.368591 -297.807526
v 88.605286 709.779114 -356.761566
v 209.333069 805.547058 -420.179138
v 166.633728 766.384705 -463.261993
v 224.719788 761.869568 -513.214844
v 264.940369 798.758728 -472.632538
v 258.874146 843.112061 -503.425568
v 216.174927 803.949524 -546.508545
v 182.151184 820.551636 -524.367371
v 222.372009 857.440918 -483.785370
v 258.655701 784.291321 -567.230042
v 298.876404 821.180542 -526.647766
v 292.810425 865.533875 -557.441223
v 250.110962 826.371399 -600.523865
v 216.087219 842.973572 -578.382690
v 256.307983 879.862732 -537.800598
v 302.231689 785.817322 -591.497559
v 328.120056 809.561218 -565.376770
v 324.215515 838.109375 -585.197083
v 296.731995 812.902222 -612.927490
v 247.435364 868.862671 -636.496765
v 213.411682 885.464844 -614.355652
v 253.632385 922.354187 -573.773438
v 290.134583 908.025208 -593.413818
v 331.643127 785.442566 -608.354797
v 349.096375 801.450012 -590.744812
v 346.464050 820.696472 -604.107239
v 327.935364 803.702515 -622.802246
v 355.650330 794.717224 -631.316101
v 366.560608 804.723633 -620.307922
v 364.915100 816.754822 -628.660767
v 353.332458 806.131653 -640.347229
v 247.239746 900.908813 -645.159973
v 224.616760 911.947876 -630.437927
v 251.360046 936.475830 -603.454285
v 275.630920 926.948425 -616.513489
vn 0.4570 -0.8589 0.2313
vn -0.2928 0.9053 -0.3077
vn -0.4573 0.8575 -0.2358
vn -0.4382 -0.3094 0.8439
vn 0.3700 0.8582 0.3556
vn -0.6408 -0.5525 -0.5330
vn -0.1935 0.9280 -0.3183
vn 0.8546 0.4131 0.3146
vn -0.7974 -0.1074 -0.5938
vn 0.4549 -0.8867 0.0830
vn -0.8735 -0.2010 -0.4433
vn 0.9382 0.2114 0.2741
vn -0.8763 -0.2352 -0.4205
vn 0.2533 -0.9511 0.1769
vn 0.8793 0.3573 0.3148
vn 0.2588 -0.9521 0.1630
vn -0.1875 0.9246 -0.3316
vn 0.9484 0.1722 0.2663
vn 0.8962 0.3916 0.2085
vn 0.2095 -0.9361 0.2824
vn -0.8408 -0.3844 -0.3812
vn 0.9027 0.3605 0.2348
vn -0.8213 -0.4205 -0.3855
vn -0.6609 -0.5016 -0.5581
vn 0.5891 0.7638 0.2639
vn -0.8058 -0.0391 -0.5909
vn 0.7006 0.4544 0.5501
vn -0.7389 0.4519 0.4998
vn -0.2172 0.9396 -0.2646
vn -0.8828 -0.3481 -0.3156
vn -0.2291 0.9442 -0.2365
vn 0.9063 0.2462 0.3436
vn -0.8813 -0.3524 -0.3148
vn -0.9077 -0.2412 -0.3434
vn 0.8740 0.3381 0.3489
vn -0.0094 -0.7270 0.6865
vn 0.9053 0.2507 0.3430
vn 0.8794 0.3594 0.3121
vn -0.9073 -0.2389 -0.3460
vn 0.2172 -0.9396 0.2646
vn 0.1714 0.4513 -0.8758
vn -0.7581 -0.5027 -0.4154
vn 0.9721 0.0767 0.2219
vn 0.1831 0.4271 -0.8855
vn 0.8667 0.4986 0.0152
vn -0.9143 -0.2608 -0.3098
vn -0.4215 0.8097 0.4083
vn 0.4215 -0.8097 -0.4083
vn -0.0329 0.7823 -0.6220
vn 0.9644 0.1054 0.2424
vn -0.7810 -0.4792 -0.4005
vn -0.0221 -0.7091 0.7048
vn 0.4347 -0.7505 -0.4978
vn 0.9619 0.1139 0.2484
vn -0.7878 -0.4718 -0.3959
vn 0.1421 -0.8933 0.4263
vn 0.1445 0.5046 -0.8512
vn -0.7990 -0.0593 -0.5983
vn 0.4438 -0.6667 -0.5988
vn -0.3752 0.9063 0.1946
vn 0.7918 -0.2225 0.5689
vn -0.6364 0.5871 -0.5003
vn -0.7932 0.2196 -0.5680
vn -0.3621 -0.3483 0.8647
vn -0.3731 0.9262 0.0539
vn 0.0729 -0.9413 -0.3297
vn -0.6010 0.7891 -0.1269
vn 0.3460 0.8535 0.3897
vn -0.3604 -0.5492 -0.7540
vn 0.8297 -0.4281 0.3582
vn -0.6114 -0.4134 -0.6747
vn 0.6781 0.5053 0.5337
vn -0.5988 -0.4506 -0.6621
vn 0.6781 -0.7349 0.0050
vn 0.5504 0.5881 0.5926
vn 0.6827 -0.7306 -0.0125
vn -0.5919 0.7945 -0.1357
vn 0.7067 0.4805 0.5193
vn 0.5577 0.6589 0.5049
vn 0.6211 -0.7783 0.0919
vn -0.4976 -0.5718 -0.6523
vn 0.5672 0.6348 0.5247
vn -0.4624 -0.5918 -0.6603
vn -0.0738 -0.8214 -0.5656
vn -0.0894 0.9708 0.2226
vn -0.3654 -0.7195 -0.5905
vn 0.0525 0.9167 0.3962
vn -0.9607 -0.1220 0.2492
vn -0.6312 0.7719 -0.0761
vn -0.5579 -0.5817 -0.5920
vn -0.6463 0.7613 -0.0515
vn 0.6264 0.4982 0.5995
vn -0.5545 -0.5849 -0.5920
vn -0.6301 -0.4947 -0.5985
vn 0.5523 0.5587 0.6188
vn 0.2907 -0.8336 0.4696
vn 0.6233 0.5017 0.5998
vn 0.5497 0.5908 0.5906
vn -0.6307 -0.4918 -0.6004
vn 0.6312 -0.7719 0.0761
vn 0.0040 0.7380 -0.6748
vn -0.3641 -0.6222 -0.6930
vn 0.7789 0.4261 0.4603
vn 0.0270 0.7262 -0.6869
vn 0.4969 0.7978 0.3415
vn -0.6292 -0.5249 -0.5732
vn -0.8050 0.3530 0.4769
vn 0.8050 -0.3530 -0.4769
vn -0.3607 0.8398 -0.4059
vn 0.7561 0.4398 0.4846
vn -0.3970 -0.6177 -0.6789
vn 0.2691 -0.8303 0.4880
vn 0.7951 -0.2687 -0.5437
vn 0.7492 0.4438 0.4917
vn -0.4069 -0.6162 -0.6743
vn 0.5284 -0.8196 0.2214
vn -0.0480 0.7623 -0.6454
vn -0.6035 -0.2115 -0.7688
vn 0.7705 -0.1619 -0.6165
vn -0.7933 0.5239 0.3100
usemtl Matériau.012
s off
f 131//26 132//26 134//26 133//26
f 138//27 137//27 141//27 142//27
f 137//28 138//28 136//28 135//28
f 153//29 154//29 132//29 131//29
f 151//30 137//30 135//30 153//30
f 152//31 134//31 132//31 154//31
f 142//32 141//32 145//32 146//32
f 151//33 133//33 140//33 155//33
f 152//34 138//34 142//34 156//34
f 133//35 134//35 139//35 140//35
f 158//36 146//36 150//36 160//36
f 155//37 140//37 144//37 157//37
f 156//38 142//38 146//38 158//38
f 140//39 139//39 143//39 144//39
f 149//40 159//40 163//40 166//40
f 144//41 143//41 147//41 148//41
f 146//42 145//42 149//42 150//42
f 157//43 144//43 148//43 159//43
f 145//44 157//44 159//44 149//44
f 148//45 147//45 161//45 162//45
f 139//46 156//46 158//46 143//46
f 141//47 155//47 157//47 145//47
f 143//48 158//48 160//48 147//48
f 134//49 152//49 156//49 139//49
f 137//50 151//50 155//50 141//50
f 138//51 152//51 154//51 136//51
f 133//52 151//52 153//52 131//52
f 135//53 136//53 154//53 153//53
f 165//54 166//54 172//54 171//54
f 161//55 164//55 170//55 167//55
f 150//56 149//56 166//56 165//56
f 159//57 148//57 162//57 163//57
f 147//58 160//58 164//58 161//58
f 160//59 150//59 165//59 164//59
f 172//60 169//60 180//60 179//60
f 168//61 167//61 173//61 174//61
f 163//62 162//62 168//62 169//62
f 166//63 163//63 169//63 172//63
f 164//64 165//64 171//64 170//64
f 162//65 161//65 167//65 168//65
f 176//66 175//66 183//66 184//66
f 167//67 170//67 176//67 173//67
f 169//68 168//68 174//68 175//68
f 170//69 169//69 175//69 176//69
f 179//70 180//70 192//70 191//70
f 170//71 171//71 178//71 177//71
f 171//72 172//72 179//72 178//72
f 169//73 170//73 177//73 180//73
f 184//74 183//74 187//74 188//74
f 175//75 174//75 182//75 183//75
f 173//76 176//76 184//76 181//76
f 174//77 173//77 181//77 182//77
f 186//78 185//78 188//78 187//78
f 183//79 182//79 186//79 187//79
f 181//80 184//80 188//80 185//80
f 182//81 181//81 185//81 186//81
f 192//82 189//82 190//82 191//82
f 177//83 178//83 190//83 189//83
f 180//84 177//84 189//84 192//84
f 178//85 179//85 191//85 190//85
f 193//86 194//86 196//86 195//86
f 200//87 199//87 203//87 204//87
f 199//88 200//88 198//88 197//88
f 215//89 216//89 194//89 193//89
f 213//90 199//90 197//90 215//90
f 214//91 196//91 194//91 216//91
f 204//92 203//92 207//92 208//92
f 213//93 195//93 202//93 217//93
f 214//94 200//94 204//94 218//94
f 195//95 196//95 201//95 202//95
f 220//96 208//96 212//96 222//96
f 217//97 202//97 206//97 219//97
f 218//98 204//98 208//98 220//98
f 202//99 201//99 205//99 206//99
f 211//100 221//100 225//100 228//100
f 206//101 205//101 209//101 210//101
f 208//102 207//102 211//102 212//102
f 219//103 206//103 210//103 221//103
f 207//104 219//104 221//104 211//104
f 210//105 209//105 223//105 224//105
f 201//106 218//106 220//106 205//106
f 203//107 217//107 219//107 207//107
f 205//108 220//108 222//108 209//108
f 196//109 214//109 218//109 201//109
f 199//110 213//110 217//110 203//110
f 200//111 214//111 216//111 198//111
f 195//112 213//112 215//112 193//112
f 197//113 198//113 216//113 215//113
f 227//114 228//114 234//114 233//114
f 223//115 226//115 232//115 229//115
f 212//116 211//116 228//116 227//116
f 221//117 210//117 224//117 225//117
f 209//118 222//118 226//118 223//118
f 222//119 212//119 227//119 226//119
f 234//120 231//120 242//120 241//120
f 230//121 229//121 235//121 236//121
f 225//122 224//122 230//122 231//122
f 228//123 225//123 231//123 234//123
f 226//124 227//124 233//124 232//124
f 224//125 223//125 229//125 230//125
f 238//126 237//126 245//126 246//126
f 229//127 232//127 238//127 235//127
f 231//128 230//128 236//128 237//128
f 232//129 231//129 237//129 238//129
f 241//130 242//130 254//130 253//130
f 232//131 233//131 240//131 239//131
f 233//132 234//132 241//132 240//132
f 231//133 232//133 239//133 242//133
f 246//134 245//134 249//134 250//134
f 237//135 236//135 244//135 245//135
f 235//136 238//136 246//136 243//136
f 236//137 235//137 243//137 244//137
f 248//138 247//138 250//138 249//138
f 245//139 244//139 248//139 249//139
f 243//140 246//140 250//140 247//140
f 244//141 243//141 247//141 248//141
f 254//142 251//142 252//142 253//142
f 239//143 240//143 252//143 251//143
f 242//144 239//144 251//144 254//144
f 240//145 241//145 253//145 252//145
