# Blender v2.91.2 OBJ File: 'camionnete02.blend'
# www.blender.org
mtllib arme_000090.mtl
o Cube.046_Cube.010
v 366.649200 361.704559 -1021.327881
v 367.915314 141.301468 -1021.274902
v 485.270447 362.341339 -1207.090332
v 486.536560 141.938263 -1207.037476
v 180.889954 360.608978 -1139.950806
v 182.156021 140.205872 -1139.897827
v 299.511169 361.245789 -1325.713257
v 300.777283 140.842667 -1325.660400
v 203.331253 360.827789 -765.569702
v 204.597351 140.424744 -765.516724
v 18.838100 139.329147 -884.139648
v 17.572010 359.732239 -884.192566
v 129.419189 360.431030 -649.822205
v 130.685272 140.027939 -649.769348
v -55.074036 138.932343 -768.392212
v -56.340126 359.335449 -768.445190
v 85.755219 360.196625 -581.443909
v 94.114136 199.912827 -592.739990
v -91.645210 198.817261 -711.362915
v -100.004105 359.101074 -700.066772
v 128.156982 580.152710 -649.875061
v -57.602276 579.057129 -768.498047
v 84.493050 579.918335 -581.496704
v -101.266228 578.822754 -700.119629
v 228.811874 360.964569 -805.472656
v 230.077972 140.561523 -805.419739
v 43.052601 359.869019 -924.095581
v 44.318665 139.465927 -924.042664
v 202.913315 433.584503 -765.587158
v 17.154047 432.488983 -884.210144
v 228.393921 433.721283 -805.490112
v 42.634636 432.625702 -924.112976
v 202.306976 539.142578 -765.612549
v 16.547697 538.046997 -884.235352
v 227.787537 539.279419 -805.515503
v 42.028301 538.183838 -924.138367
v 130.671768 433.196686 -652.455811
v -55.087540 432.101105 -771.078735
v 130.065384 538.754883 -652.481140
v -55.693905 537.659180 -771.104065
v 154.939651 717.084351 -693.080322
v -30.819626 715.988770 -811.703308
v 111.275681 716.849976 -624.702026
v -74.483551 715.754272 -743.324890
v 443.393463 362.116547 -1141.510498
v 444.659576 141.713455 -1141.457642
v 257.634186 361.020966 -1260.133301
v 258.900299 140.617859 -1260.080444
v 392.390808 361.793579 -1266.401855
v 393.656921 141.390457 -1266.348999
v 273.769592 361.156769 -1080.639404
v 275.035675 140.753677 -1080.586426
v 110.451637 360.279999 -824.881104
v 111.717712 139.876938 -824.828125
v 36.539539 359.883270 -709.133728
v 37.805614 139.480148 -709.080811
v -7.124417 359.648834 -640.755371
v 1.234482 199.365051 -652.051453
v 35.277336 579.604980 -709.186462
v -8.386593 579.370605 -640.808167
v 137.198318 140.013733 -864.731140
v 135.932236 360.416779 -864.784119
v 110.033684 433.036743 -824.898682
v 135.514282 433.173462 -864.801514
v 109.427338 538.594849 -824.923950
v 134.907928 538.731567 -864.826965
v 37.792110 432.648926 -711.767334
v 37.185745 538.207031 -711.792603
v 62.059998 716.536621 -752.391846
v 18.396044 716.302124 -684.013489
v 351.779907 141.165665 -1200.769043
v 350.513824 361.568756 -1200.821899
v 438.830627 362.067444 -1236.745972
v 321.475494 141.027573 -1050.930664
v 158.157532 140.150848 -795.172485
v 84.245422 139.754044 -679.425110
v 47.674301 199.638931 -622.395752
v 182.372055 360.690674 -835.128357
v 181.954102 433.447357 -835.145813
v 181.347733 539.005493 -835.171204
v 396.953674 361.842651 -1171.166260
v 440.096741 141.664368 -1236.693237
v 320.209381 361.430664 -1050.983765
v 156.891449 360.553894 -795.225464
v 82.979347 360.157135 -679.477966
v 39.315388 359.922729 -611.099609
v 81.717178 579.878906 -679.530762
v 38.053242 579.644409 -611.152466
v 183.638153 140.287628 -835.075439
v 156.473511 433.310638 -795.242920
v 155.867142 538.868774 -795.268250
v 84.231934 432.922821 -682.111572
v 83.625565 538.480957 -682.136841
v 108.499847 716.810425 -722.736023
v 64.835876 716.575928 -654.357727
v 398.219727 141.439560 -1171.113403
v 183.875214 99.020164 -835.065552
v 137.435379 98.746246 -864.721252
v 398.456787 100.172089 -1171.103516
v 352.016998 99.898178 -1200.759155
v 275.272736 99.486191 -1080.576538
v 321.712555 99.760101 -1050.920776
v 500.649750 300.991913 -1057.970215
v 466.714203 300.809723 -1004.826721
v 467.274170 203.349747 -1004.803162
v 501.209625 203.531921 -1057.946899
v 540.791382 301.228699 -1032.336548
v 506.855865 301.046509 -979.192993
v 507.415771 203.586533 -979.169556
v 541.351257 203.768692 -1032.313110
v 602.220886 301.591003 -993.108826
v 568.285339 301.408813 -939.965210
v 568.845215 203.948868 -939.941772
v 602.780701 204.131042 -993.085449
v 641.749939 301.824158 -967.866211
v 607.814392 301.641968 -914.722656
v 608.374390 204.181992 -914.699219
v 642.309814 204.364166 -967.842773
v 829.790344 143.756653 -1846.958008
v 783.350525 143.482758 -1876.613770
v 782.084290 363.885864 -1876.666748
v 828.524231 364.159760 -1847.010986
vn 0.8428 0.0050 0.5382
vn 0.5382 0.0029 -0.8428
vn -0.8428 -0.0050 -0.5382
vn -0.0057 1.0000 -0.0002
vn 0.0057 -1.0000 0.0002
vn -0.5382 -0.0029 0.8428
vn -0.3533 -0.7492 0.5602
vn -0.5358 -0.0871 0.8398
vn -0.8435 -0.0055 -0.5371
vn 0.8435 0.0055 0.5371
vn 0.5060 -0.3480 -0.7892
vn -0.5060 0.3480 0.7892
vn 0.8264 0.0046 -0.5630
vn -0.1631 -0.0007 0.9866
vn 0.4698 -0.8312 0.2972
vn 0.4602 0.8367 0.2968
usemtl Matériau.011
s off
f 45//1 46//1 4//1 3//1
f 49//2 50//2 8//2 7//2
f 47//3 48//3 6//3 5//3
f 26//1 25//1 9//1 10//1
f 72//4 47//4 5//4 51//4
f 96//5 46//5 2//5 74//5
f 10//1 9//1 13//1 14//1
f 84//6 9//6 29//6 90//6
f 89//5 26//5 10//5 75//5
f 27//3 28//3 11//3 12//3
f 76//7 14//7 18//7 77//7
f 75//5 10//5 14//5 76//5
f 12//3 11//3 15//3 16//3
f 53//4 12//4 16//4 55//4
f 86//8 77//8 18//8 17//8
f 16//9 15//9 19//9 20//9
f 16//3 20//3 24//3 22//3
f 14//10 13//10 17//10 18//10
f 59//11 22//11 42//11 69//11
f 86//6 17//6 23//6 88//6
f 17//1 13//1 21//1 23//1
f 55//2 16//2 22//2 59//2
f 5//3 6//3 28//3 27//3
f 74//5 2//5 26//5 89//5
f 51//4 5//4 27//4 62//4
f 2//1 1//1 25//1 26//1
f 32//3 30//3 34//3 36//3
f 62//2 27//2 32//2 64//2
f 27//3 12//3 30//3 32//3
f 9//1 25//1 31//1 29//1
f 66//4 36//4 34//4 65//4
f 90//5 29//5 37//5 92//5
f 64//2 32//2 36//2 66//2
f 29//1 31//1 35//1 33//1
f 92//6 37//6 39//6 93//6
f 29//1 33//1 39//1 37//1
f 34//3 30//3 38//3 40//3
f 65//4 34//4 40//4 68//4
f 69//4 42//4 44//4 70//4
f 23//1 21//1 41//1 43//1
f 88//12 23//12 43//12 95//12
f 22//3 24//3 44//3 42//3
f 82//5 4//5 46//5 96//5
f 49//4 7//4 47//4 72//4
f 7//3 8//3 48//3 47//3
f 46//13 45//13 103//13 106//13
f 73//4 49//4 72//4 81//4
f 8//5 50//5 71//5 48//5
f 24//12 60//12 70//12 44//12
f 94//4 69//4 70//4 95//4
f 91//4 65//4 68//4 93//4
f 38//6 67//6 68//6 40//6
f 79//2 64//2 66//2 80//2
f 30//5 63//5 67//5 38//5
f 80//4 66//4 65//4 91//4
f 78//2 62//2 64//2 79//2
f 83//4 51//4 62//4 78//4
f 6//5 52//5 61//5 28//5
f 85//2 55//2 59//2 87//2
f 20//6 57//6 60//6 24//6
f 87//11 59//11 69//11 94//11
f 20//8 19//8 58//8 57//8
f 84//4 53//4 55//4 85//4
f 11//5 54//5 56//5 15//5
f 15//7 56//7 58//7 19//7
f 28//5 61//5 54//5 11//5
f 12//6 53//6 63//6 30//6
f 48//5 71//5 52//5 6//5
f 81//4 72//4 51//4 83//4
f 50//3 49//3 121//3 120//3
f 3//2 4//2 82//2 73//2
f 45//4 81//4 83//4 1//4
f 9//4 84//4 85//4 13//4
f 21//11 87//11 94//11 41//11
f 13//2 85//2 87//2 21//2
f 1//4 83//4 78//4 25//4
f 25//2 78//2 79//2 31//2
f 35//4 80//4 91//4 33//4
f 31//2 79//2 80//2 35//2
f 33//4 91//4 93//4 39//4
f 41//4 94//4 95//4 43//4
f 3//4 73//4 81//4 45//4
f 50//5 82//5 96//5 71//5
f 60//12 88//12 95//12 70//12
f 67//6 92//6 93//6 68//6
f 63//5 90//5 92//5 67//5
f 52//3 71//3 100//3 101//3
f 57//6 86//6 88//6 60//6
f 57//8 58//8 77//8 86//8
f 54//5 75//5 76//5 56//5
f 56//7 76//7 77//7 58//7
f 61//5 89//5 75//5 54//5
f 53//6 84//6 90//6 63//6
f 89//6 61//6 98//6 97//6
f 101//5 102//5 97//5 98//5
f 100//5 99//5 102//5 101//5
f 61//3 52//3 101//3 98//3
f 74//1 89//1 97//1 102//1
f 71//2 96//2 99//2 100//2
f 96//1 74//1 102//1 99//1
f 106//2 103//2 107//2 110//2
f 1//14 2//14 105//14 104//14
f 2//15 46//15 106//15 105//15
f 45//16 1//16 104//16 103//16
f 109//5 110//5 114//5 113//5
f 104//6 105//6 109//6 108//6
f 105//5 106//5 110//5 109//5
f 103//4 104//4 108//4 107//4
f 113//5 114//5 118//5 117//5
f 107//4 108//4 112//4 111//4
f 110//2 107//2 111//2 114//2
f 108//6 109//6 113//6 112//6
f 116//1 117//1 118//1 115//1
f 111//4 112//4 116//4 115//4
f 114//2 111//2 115//2 118//2
f 122//2 119//2 120//2 121//2
f 82//5 50//5 120//5 119//5
f 73//1 82//1 119//1 122//1
f 49//4 73//4 122//4 121//4
o Cube.047_Cube.022
v -281.689575 571.035950 348.307983
v -278.974701 330.661743 323.601013
v -164.470856 593.952698 138.231369
v -161.755981 353.578461 113.524422
v -463.774841 527.679810 174.251755
v -462.382843 404.433258 161.583817
v -403.673523 539.429871 66.539612
v -402.281525 416.183289 53.871674
v -24.101410 449.976929 -246.442139
v -25.523468 575.886108 -233.500488
v -136.206268 580.927429 -294.709473
v -134.784210 455.018219 -307.651123
v 65.464325 487.725311 -439.948181
v 64.418793 580.296570 -430.433167
v -16.957733 584.003052 -475.435364
v -15.912201 491.431763 -484.950378
v 119.722168 513.461548 -561.847961
v 118.958130 581.111450 -554.894592
v 59.489258 583.820068 -587.781616
v 60.253296 516.170227 -594.734985
v -279.115265 604.429565 96.530167
v -276.233093 349.242767 70.300705
v -403.557373 580.100708 319.552368
v -400.675201 324.913879 293.322937
v -78.193878 582.817017 -268.571655
v -76.684174 449.148865 -282.310791
v 32.847015 586.790649 -469.037231
v 33.957001 488.514893 -479.138550
v 102.376038 587.126099 -594.737427
v 103.187195 515.307434 -602.119385
v 168.443604 522.240845 -641.908264
v 167.679565 589.890747 -634.954895
v 150.829742 597.065063 -686.109802
v 151.640900 525.246460 -693.491760
v 108.748138 525.930908 -684.368591
v 107.984100 593.580811 -677.415222
v 202.292053 528.604065 -700.096375
v 201.528015 596.253906 -693.143005
v 184.678162 603.428284 -744.297852
v 185.489319 531.609619 -751.679810
v 142.596527 532.294128 -742.556702
v 141.832489 599.943970 -735.603333
v 244.250488 543.571350 -722.581482
v 243.758667 587.114502 -718.105896
v 232.913269 591.732300 -751.032104
v 233.435364 545.505859 -755.783447
v 174.032196 537.058838 -805.954590
v 131.139435 537.743347 -796.831482
v 130.375397 605.393250 -789.878113
v 173.221039 608.877563 -798.572632
v 273.446960 552.580444 -737.269653
v 273.115417 581.936035 -734.252319
v 265.803772 585.049255 -756.450317
v 266.155701 553.884644 -759.653564
v 295.544250 560.968445 -762.388123
v 295.336975 579.318970 -760.501953
v 290.766296 581.265076 -774.378174
v 290.986328 561.783691 -776.380615
v 160.540924 551.793030 -832.467407
v 132.020996 552.248169 -826.401245
v 131.512939 597.229431 -821.777832
v 160.001556 599.546143 -827.559082
vn 0.8744 -0.0398 0.4836
vn -0.8054 0.0516 -0.5904
vn -0.8744 0.0398 -0.4836
vn -0.2356 -0.1020 0.9665
vn -0.4306 0.8911 -0.1430
vn 0.0650 -0.9953 -0.0723
vn -0.8341 0.0471 -0.5496
vn 0.1057 0.9944 -0.0048
vn -0.2737 -0.8947 -0.3529
vn 0.9360 -0.0255 0.3511
vn -0.0436 -0.9693 -0.2418
vn 0.0970 0.9928 0.0700
vn -0.0190 -0.9776 -0.2097
vn 0.9094 -0.0323 0.4146
vn -0.0654 0.9952 0.0733
vn 0.9156 -0.0309 0.4010
vn -0.8257 0.0484 -0.5620
vn 0.1378 0.9878 0.0729
vn -0.0658 0.9970 -0.0397
vn 0.8556 -0.0434 0.5159
vn 0.1193 -0.9839 -0.1332
vn -0.0414 0.9991 -0.0065
vn 0.1600 -0.9786 -0.1292
vn 0.1279 -0.9700 -0.2067
vn -0.2945 0.9415 -0.1641
vn -0.4109 -0.8528 -0.3223
vn 0.0426 0.9904 0.1318
vn -0.9159 -0.0513 0.3981
vn -0.8656 0.0415 -0.4990
vn 0.0560 -0.9955 -0.0763
vn -0.8806 0.0386 -0.4722
vn 0.0379 0.9908 0.1297
vn 0.0603 -0.9954 -0.0745
vn -0.0430 -0.9905 -0.1308
vn -0.0580 0.9920 0.1118
vn 0.4936 -0.0834 0.8657
vn 0.0336 0.9912 0.1279
vn -0.0667 0.9953 0.0700
vn -0.0443 -0.9900 -0.1340
vn 0.8656 -0.0415 0.4990
vn -0.1420 0.0996 -0.9848
vn 0.2644 -0.9540 -0.1417
vn 0.2426 0.9685 0.0559
vn -0.1137 0.1003 -0.9884
vn -0.1288 0.9596 -0.2502
vn -0.0355 -0.9951 -0.0924
vn -0.9786 -0.0320 0.2034
vn 0.9786 0.0320 -0.2034
vn -0.5738 0.0773 -0.8153
vn 0.2094 0.9755 0.0678
vn 0.2313 -0.9640 -0.1315
vn 0.4686 -0.0851 0.8793
vn 0.9507 0.0423 -0.3072
vn 0.1994 0.9773 0.0714
vn 0.2211 -0.9668 -0.1283
vn 0.7591 -0.0581 0.6484
vn -0.2056 0.0978 -0.9737
vn -0.1079 -0.8913 -0.4404
vn 0.9018 0.0543 -0.4287
vn -0.9994 -0.0078 -0.0336
usemtl Matériau.012
s off
f 123//17 124//17 126//17 125//17
f 130//18 129//18 133//18 134//18
f 129//19 130//19 128//19 127//19
f 145//20 146//20 124//20 123//20
f 143//21 129//21 127//21 145//21
f 144//22 126//22 124//22 146//22
f 134//23 133//23 137//23 138//23
f 143//24 125//24 132//24 147//24
f 144//25 130//25 134//25 148//25
f 125//26 126//26 131//26 132//26
f 150//27 138//27 142//27 152//27
f 147//28 132//28 136//28 149//28
f 148//29 134//29 138//29 150//29
f 132//30 131//30 135//30 136//30
f 141//31 151//31 155//31 158//31
f 136//32 135//32 139//32 140//32
f 138//33 137//33 141//33 142//33
f 149//34 136//34 140//34 151//34
f 137//35 149//35 151//35 141//35
f 140//36 139//36 153//36 154//36
f 131//37 148//37 150//37 135//37
f 133//38 147//38 149//38 137//38
f 135//39 150//39 152//39 139//39
f 126//40 144//40 148//40 131//40
f 129//41 143//41 147//41 133//41
f 130//42 144//42 146//42 128//42
f 125//43 143//43 145//43 123//43
f 127//44 128//44 146//44 145//44
f 157//45 158//45 164//45 163//45
f 153//46 156//46 162//46 159//46
f 142//47 141//47 158//47 157//47
f 151//48 140//48 154//48 155//48
f 139//49 152//49 156//49 153//49
f 152//50 142//50 157//50 156//50
f 164//51 161//51 172//51 171//51
f 160//52 159//52 165//52 166//52
f 155//53 154//53 160//53 161//53
f 158//54 155//54 161//54 164//54
f 156//55 157//55 163//55 162//55
f 154//56 153//56 159//56 160//56
f 168//57 167//57 175//57 176//57
f 159//58 162//58 168//58 165//58
f 161//59 160//59 166//59 167//59
f 162//60 161//60 167//60 168//60
f 171//61 172//61 184//61 183//61
f 162//62 163//62 170//62 169//62
f 163//63 164//63 171//63 170//63
f 161//64 162//64 169//64 172//64
f 176//65 175//65 179//65 180//65
f 167//66 166//66 174//66 175//66
f 165//67 168//67 176//67 173//67
f 166//68 165//68 173//68 174//68
f 178//69 177//69 180//69 179//69
f 175//70 174//70 178//70 179//70
f 173//71 176//71 180//71 177//71
f 174//72 173//72 177//72 178//72
f 184//73 181//73 182//73 183//73
f 169//74 170//74 182//74 181//74
f 172//75 169//75 181//75 184//75
f 170//76 171//76 183//76 182//76
o Cube.048_Cube.024
v -558.730835 448.224182 173.433594
v -721.766357 325.028320 44.438385
v -417.246857 465.332733 -21.725739
v -580.282410 342.136871 -150.720947
v -672.606018 629.567383 33.872002
v -756.198914 566.401428 -32.267441
v -600.063232 638.339417 -66.191650
v -683.656128 575.173462 -132.331085
v -339.670685 448.329681 -448.456482
v -254.271881 512.860291 -380.888153
v -311.169891 621.387329 -412.623352
v -396.568695 556.856750 -480.191711
v -209.877228 486.479218 -617.541687
v -147.090088 533.923584 -567.863953
v -188.922791 613.715149 -591.196350
v -251.709930 566.270752 -640.874084
v -128.175720 513.144470 -722.801697
v -82.291748 547.816162 -686.497864
v -112.862549 606.126770 -703.548889
v -158.746521 571.455078 -739.852722
v -477.287781 571.423401 -33.212982
v -650.370117 440.635803 -170.157257
v -627.490479 553.260498 173.972702
v -800.572754 422.472961 37.028419
v -276.812775 569.508301 -399.193817
v -367.474121 501.001160 -470.925903
v -155.029297 576.616455 -593.231323
v -221.685577 526.248413 -645.970337
v -80.259949 579.962830 -715.841614
v -128.971436 543.154541 -754.382629
v -71.512817 516.769714 -797.879517
v -25.628845 551.441406 -761.575684
v -20.435974 589.213135 -800.286804
v -69.147461 552.404846 -838.827820
v -99.408508 579.840698 -822.858032
v -53.524536 614.512451 -786.554199
v -31.388611 520.521545 -852.175232
v 14.495361 555.193237 -815.871399
v 19.688232 592.964966 -854.582520
v -29.023254 556.156677 -893.123535
v -59.284241 583.592590 -877.153748
v -13.400269 618.264282 -840.849915
v 12.314209 508.001526 -872.752686
v 41.847656 530.318115 -849.385559
v 45.190125 554.630066 -874.302185
v 13.836670 530.938232 -899.109314
v -20.748230 590.417358 -936.302673
v -51.009155 617.853271 -920.332886
v -5.125183 652.524963 -884.029053
v 27.963257 627.225708 -897.761658
v 41.514893 498.113098 -886.855103
v 61.425537 513.158325 -871.101624
v 63.678894 529.548767 -887.899780
v 42.541260 513.576416 -904.624023
v 67.844849 497.426025 -909.122742
v 80.291199 506.830963 -899.275024
v 81.699829 517.076782 -909.775757
v 68.486450 507.092285 -920.230286
v -13.435303 619.461182 -950.621277
v -33.556335 637.703613 -940.002747
v -3.047485 660.757263 -915.863831
v 18.953552 643.935425 -924.994873
vn 0.4495 -0.8574 0.2507
vn -0.3712 0.8594 -0.3516
vn -0.4495 0.8574 -0.2507
vn -0.4452 -0.2958 0.8452
vn 0.3751 0.8594 0.3473
vn -0.6457 -0.5616 -0.5174
vn -0.4027 0.8603 -0.3126
vn 0.7765 0.4707 0.4188
vn -0.7388 -0.1433 -0.6585
vn 0.5304 -0.8378 0.1298
vn -0.6623 -0.3972 -0.6353
vn 0.7530 0.4444 0.4853
vn -0.6589 -0.4330 -0.6151
vn 0.4936 -0.8493 0.1873
vn 0.6452 0.5614 0.5182
vn 0.5018 -0.8471 0.1749
vn -0.3934 0.8602 -0.3244
vn 0.7761 0.4110 0.4784
vn 0.6714 0.6106 0.4200
vn 0.4272 -0.8594 0.2809
vn -0.5877 -0.5687 -0.5754
vn 0.6818 0.5801 0.4457
vn -0.5576 -0.5969 -0.5769
vn -0.5558 -0.5361 -0.6354
vn 0.5066 0.7978 0.3269
vn -0.8077 -0.0344 -0.5886
vn 0.7010 0.4561 0.5482
vn -0.7381 0.4636 0.4902
vn -0.4390 0.8585 -0.2651
vn -0.6510 -0.5536 -0.5194
vn -0.4571 0.8564 -0.2402
vn 0.6987 0.4606 0.5474
vn -0.6485 -0.5574 -0.5185
vn -0.7016 -0.4562 -0.5473
vn 0.6393 0.5380 0.5494
vn 0.0786 -0.7687 0.6347
vn 0.6965 0.4647 0.5468
vn 0.6451 0.5638 0.5157
vn -0.7014 -0.4537 -0.5497
vn 0.4390 -0.8585 0.2651
vn 0.1948 0.5746 -0.7949
vn -0.4675 -0.6533 -0.5955
vn 0.8364 0.3320 0.4362
vn 0.2150 0.5560 -0.8028
vn 0.6495 0.7248 0.2298
vn -0.7084 -0.4805 -0.5170
vn -0.7230 0.6019 0.3390
vn 0.7230 -0.6019 -0.3390
vn -0.1478 0.8019 -0.5789
vn 0.8164 0.3548 0.4557
vn -0.4990 -0.6392 -0.5851
vn 0.0577 -0.7574 0.6504
vn 0.7348 -0.5321 -0.4206
vn 0.8102 0.3615 0.4614
vn -0.5086 -0.6347 -0.5818
vn 0.3227 -0.8541 0.4079
vn 0.1485 0.6147 -0.7747
vn -0.6058 -0.2238 -0.7634
vn 0.7376 -0.4388 -0.5132
vn -0.6671 0.7306 0.1454
usemtl Matériau.012
s off
f 185//77 186//77 188//77 187//77
f 192//78 191//78 195//78 196//78
f 191//79 192//79 190//79 189//79
f 207//80 208//80 186//80 185//80
f 205//81 191//81 189//81 207//81
f 206//82 188//82 186//82 208//82
f 196//83 195//83 199//83 200//83
f 205//84 187//84 194//84 209//84
f 206//85 192//85 196//85 210//85
f 187//86 188//86 193//86 194//86
f 212//87 200//87 204//87 214//87
f 209//88 194//88 198//88 211//88
f 210//89 196//89 200//89 212//89
f 194//90 193//90 197//90 198//90
f 203//91 213//91 217//91 220//91
f 198//92 197//92 201//92 202//92
f 200//93 199//93 203//93 204//93
f 211//94 198//94 202//94 213//94
f 199//95 211//95 213//95 203//95
f 202//96 201//96 215//96 216//96
f 193//97 210//97 212//97 197//97
f 195//98 209//98 211//98 199//98
f 197//99 212//99 214//99 201//99
f 188//100 206//100 210//100 193//100
f 191//101 205//101 209//101 195//101
f 192//102 206//102 208//102 190//102
f 187//103 205//103 207//103 185//103
f 189//104 190//104 208//104 207//104
f 219//105 220//105 226//105 225//105
f 215//106 218//106 224//106 221//106
f 204//107 203//107 220//107 219//107
f 213//108 202//108 216//108 217//108
f 201//109 214//109 218//109 215//109
f 214//110 204//110 219//110 218//110
f 226//111 223//111 234//111 233//111
f 222//112 221//112 227//112 228//112
f 217//113 216//113 222//113 223//113
f 220//114 217//114 223//114 226//114
f 218//115 219//115 225//115 224//115
f 216//116 215//116 221//116 222//116
f 230//117 229//117 237//117 238//117
f 221//118 224//118 230//118 227//118
f 223//119 222//119 228//119 229//119
f 224//120 223//120 229//120 230//120
f 233//121 234//121 246//121 245//121
f 224//122 225//122 232//122 231//122
f 225//123 226//123 233//123 232//123
f 223//124 224//124 231//124 234//124
f 238//125 237//125 241//125 242//125
f 229//126 228//126 236//126 237//126
f 227//127 230//127 238//127 235//127
f 228//128 227//128 235//128 236//128
f 240//129 239//129 242//129 241//129
f 237//130 236//130 240//130 241//130
f 235//131 238//131 242//131 239//131
f 236//132 235//132 239//132 240//132
f 246//133 243//133 244//133 245//133
f 231//134 232//134 244//134 243//134
f 234//135 231//135 243//135 246//135
f 232//136 233//136 245//136 244//136
