# Blender v2.91.2 OBJ File: 'camionnete02.blend'
# www.blender.org
mtllib arme_000237.mtl
o Cube.046_Cube.010
v 637.486633 513.881531 -430.365662
v 613.071045 363.244812 -589.398865
v 844.378845 550.592468 -496.901428
v 819.963440 399.955750 -655.934692
v 565.524292 670.533997 -567.699219
v 541.108704 519.897278 -726.732483
v 772.416565 707.244812 -634.234863
v 748.001038 556.608215 -793.268311
v 352.637085 463.337891 -338.759094
v 328.221436 312.701233 -497.792267
v 256.259033 469.353577 -635.125854
v 280.674683 619.990356 -476.092560
v 223.723816 440.463501 -297.300995
v 199.308289 289.826843 -456.334290
v 127.345856 446.479309 -593.667847
v 151.761444 597.116028 -434.634583
v 147.567719 426.950439 -272.809509
v 142.587524 319.513550 -392.479370
v 70.625092 476.166077 -529.812866
v 75.605286 583.602905 -410.143036
v 397.078857 471.223572 -353.051392
v 372.663208 320.586975 -512.084595
v 325.116455 627.876038 -490.384888
v 300.700806 477.239380 -649.418213
v 771.339539 537.632385 -473.412292
v 746.924011 386.995667 -632.445557
v 699.377136 694.284729 -610.745728
v 674.961609 543.648010 -769.779053
v 808.397644 628.918640 -565.568115
v 783.982117 478.281921 -724.601440
v 601.505493 592.207825 -499.032379
v 577.089905 441.571045 -658.065674
v 316.655823 541.664062 -407.425812
v 292.240173 391.027344 -566.459045
v 187.742615 518.789795 -365.967773
v 157.019928 366.609924 -509.011261
v 111.586517 505.276672 -341.476288
v 118.773010 386.627747 -465.953674
v 336.681946 398.913147 -580.751404
v 361.097656 549.549866 -421.718140
v 710.942688 465.321838 -701.112244
v 735.358337 615.958557 -542.078979
v 826.388245 589.755554 -531.234741
v 595.080444 402.407898 -623.732300
v 310.230835 351.864319 -532.125671
v 169.151062 340.202087 -485.860168
v 130.904114 360.219910 -442.802612
v 379.088135 510.386719 -387.384735
v 753.348938 576.795471 -507.745636
v 801.972839 439.118835 -690.268066
v 619.496155 553.044739 -464.699066
v 334.646423 502.501038 -373.092438
v 205.733215 479.626648 -331.634399
v 129.577118 466.113586 -307.142883
v 354.672668 359.750061 -546.417969
v 728.933411 426.158813 -666.778931
v 350.101135 331.545349 -576.194824
v 332.110535 370.708435 -610.528198
v 724.362000 397.954224 -696.555786
v 706.371399 437.117249 -730.889160
v 572.518433 413.366394 -687.842468
v 590.509033 374.203247 -653.509033
v 757.533630 422.957336 -447.868042
v 698.345276 412.454956 -428.833282
v 687.549011 345.844788 -499.156097
v 746.737488 356.347351 -518.190979
v 773.084412 389.105652 -418.191040
v 713.896057 378.603210 -399.156250
v 703.099792 311.993225 -469.479095
v 762.288147 322.495605 -488.513916
v 796.882019 337.301697 -372.775757
v 737.693542 326.799316 -353.740936
v 726.897278 260.189270 -424.063782
v 786.085754 270.691772 -443.098694
v 812.195496 303.966492 -343.551575
v 753.007019 293.464111 -324.516785
v 742.210876 226.854065 -394.839600
v 801.399109 237.356537 -413.874390
v 1481.653076 559.721130 -908.850342
v 1463.662354 598.884216 -943.183716
v 1488.078125 749.521057 -784.150513
v 1506.068604 710.357849 -749.817017
vn 0.3265 -0.7107 0.6231
vn 0.9387 0.1666 -0.3019
vn -0.3265 0.7107 -0.6231
vn 0.1108 0.6834 0.7215
vn -0.1108 -0.6834 -0.7215
vn -0.7065 -0.6214 -0.3387
vn -0.1658 -0.6302 -0.7585
vn -0.9688 -0.1831 0.1668
vn -0.3278 0.7102 -0.6230
vn 0.3278 -0.7102 0.6230
vn 0.9914 -0.1266 -0.0323
vn -0.9304 -0.2732 0.2446
vn -0.1281 -0.7171 -0.6851
vn -0.9449 -0.2625 0.1957
vn -0.1723 -0.6929 -0.7001
vn -0.9387 -0.1666 0.3019
vn -0.7345 -0.4328 0.5227
vn 0.0878 -0.9622 -0.2580
vn 0.2725 0.1778 0.9456
usemtl Matériau.011
s off
f 25//1 26//1 4//1 3//1
f 29//2 30//2 8//2 7//2
f 27//3 28//3 6//3 5//3
f 22//1 21//1 9//1 10//1
f 42//4 27//4 5//4 31//4
f 56//5 26//5 2//5 44//5
f 10//1 9//1 13//1 14//1
f 55//5 22//5 10//5 45//5
f 23//3 24//3 11//3 12//3
f 46//6 14//6 18//6 47//6
f 45//7 10//7 14//7 46//7
f 12//3 11//3 15//3 16//3
f 33//4 12//4 16//4 35//4
f 54//8 47//8 18//8 17//8
f 16//9 15//9 19//9 20//9
f 14//10 13//10 17//10 18//10
f 5//3 6//3 24//3 23//3
f 44//5 2//5 22//5 55//5
f 31//4 5//4 23//4 40//4
f 2//1 1//1 21//1 22//1
f 50//5 4//5 26//5 56//5
f 29//4 7//4 27//4 42//4
f 7//3 8//3 28//3 27//3
f 26//11 25//11 63//11 66//11
f 43//4 29//4 42//4 49//4
f 8//5 30//5 41//5 28//5
f 51//4 31//4 40//4 48//4
f 6//5 32//5 39//5 24//5
f 20//12 19//12 38//12 37//12
f 52//4 33//4 35//4 53//4
f 11//13 34//13 36//13 15//13
f 15//6 36//6 38//6 19//6
f 24//5 39//5 34//5 11//5
f 28//5 41//5 32//5 6//5
f 49//4 42//4 31//4 51//4
f 30//3 29//3 81//3 80//3
f 3//2 4//2 50//2 43//2
f 25//4 49//4 51//4 1//4
f 9//4 52//4 53//4 13//4
f 1//4 51//4 48//4 21//4
f 3//4 43//4 49//4 25//4
f 30//5 50//5 56//5 41//5
f 32//3 41//3 60//3 61//3
f 37//14 38//14 47//14 54//14
f 34//15 45//15 46//15 36//15
f 36//6 46//6 47//6 38//6
f 39//5 55//5 45//5 34//5
f 55//16 39//16 58//16 57//16
f 61//5 62//5 57//5 58//5
f 60//5 59//5 62//5 61//5
f 39//3 32//3 61//3 58//3
f 44//1 55//1 57//1 62//1
f 41//2 56//2 59//2 60//2
f 56//1 44//1 62//1 59//1
f 66//2 63//2 67//2 70//2
f 1//17 2//17 65//17 64//17
f 2//18 26//18 66//18 65//18
f 25//19 1//19 64//19 63//19
f 69//5 70//5 74//5 73//5
f 64//16 65//16 69//16 68//16
f 65//5 66//5 70//5 69//5
f 63//4 64//4 68//4 67//4
f 73//5 74//5 78//5 77//5
f 67//4 68//4 72//4 71//4
f 70//2 67//2 71//2 74//2
f 68//16 69//16 73//16 72//16
f 76//1 77//1 78//1 75//1
f 71//4 72//4 76//4 75//4
f 74//2 71//2 75//2 78//2
f 82//2 79//2 80//2 81//2
f 50//5 30//5 80//5 79//5
f 43//1 50//1 79//1 82//1
f 29//4 43//4 82//4 81//4
o Cube.048_Cube.024
v -483.733002 564.770813 140.048462
v -630.857788 377.924438 97.150238
v -383.245972 535.659424 -77.787331
v -536.313721 350.684906 -134.923676
v -658.356750 662.616699 -18.895103
v -733.791748 566.815308 -40.890244
v -606.834229 647.690491 -130.585602
v -682.794495 552.306763 -154.185425
v -294.186707 498.060303 -488.809113
v -261.256714 463.713562 -371.512360
v -272.925476 583.754700 -333.086029
v -305.855469 618.101501 -450.382843
v -84.488892 544.790833 -515.911987
v -60.278015 519.538330 -429.672729
v -68.857056 607.795410 -401.420807
v -93.067993 633.047852 -487.660065
v 47.111511 575.420898 -530.369873
v 64.804504 556.966675 -467.347443
v 58.534973 621.463745 -446.701294
v 40.841980 639.917969 -509.723785
v -468.258972 618.570251 -107.772240
v -627.666870 424.166168 -165.060486
v -574.659241 649.764587 123.638771
v -730.850342 451.404175 78.097000
v -260.697021 523.595947 -349.925873
v -295.656311 560.059265 -474.450775
v -45.693298 565.989441 -417.071075
v -71.396057 592.798096 -508.624603
v 88.323059 593.112183 -461.104523
v 69.539795 612.703674 -528.010803
v 137.847717 587.528625 -552.297913
v 155.540649 569.074463 -489.275299
v 187.961975 612.286682 -483.462616
v 169.178772 631.878052 -550.368713
v 139.112488 658.006165 -532.015747
v 156.805420 639.551941 -468.993256
v 202.939148 597.498718 -567.652283
v 220.632141 579.044556 -504.629730
v 253.053223 622.256714 -498.816925
v 234.269958 641.848145 -565.723022
v 204.203674 667.976196 -547.369995
v 221.896729 649.521973 -484.347565
v 248.130310 577.086548 -573.239685
v 259.518494 565.208435 -532.674988
v 280.386536 593.022095 -528.933472
v 268.296631 605.632202 -571.997925
v 271.411621 683.371582 -563.991333
v 241.345398 709.499756 -545.638367
v 259.038391 691.045532 -482.615875
v 290.194946 663.780212 -497.085052
v 278.357300 562.584534 -578.276001
v 286.034851 554.576660 -550.928467
v 300.103577 573.327881 -548.406067
v 291.952881 581.829224 -577.438904
v 312.480469 560.079224 -582.624817
v 317.279785 555.073364 -565.529480
v 326.074524 566.794983 -563.952698
v 320.979309 572.109314 -582.101562
v 289.441284 706.934204 -549.099060
v 269.449768 724.307068 -536.895813
v 281.214050 712.036621 -494.991364
v 301.930603 693.907593 -504.612335
v -297.570007 467.827209 452.364716
v -425.616455 283.933197 361.895477
v -116.064148 383.401978 322.410614
v -232.571503 211.526886 235.845795
v -350.547791 544.443848 214.344666
v -416.200775 450.156281 167.958588
v -247.605682 502.732971 155.772827
v -317.221252 413.031494 103.329353
v 1.819580 147.610840 -57.888382
v -28.684204 47.513611 7.793770
v 76.224670 56.554382 72.449455
v 108.792664 155.339478 9.339920
v 111.711792 11.532837 -185.551880
v 87.204712 -64.504272 -137.815094
v 165.853760 -58.822205 -88.387230
v 190.360901 17.215088 -136.124176
v 181.683228 -75.184204 -263.334076
v 163.773560 -130.751160 -228.448486
v 221.249268 -126.598572 -192.327271
v 239.158813 -71.031799 -227.212738
v -152.047424 459.172974 253.064362
v -285.594116 280.893677 150.003326
v -354.598145 552.988037 379.864838
v -490.535187 357.761902 283.820648
v 23.550049 41.659058 38.880463
v 58.937134 151.452759 -30.049217
v 134.549194 -74.819885 -124.349953
v 160.566528 5.903015 -175.028564
v 204.597412 -145.961060 -227.631775
v 223.610596 -86.969849 -264.667053
v 222.455872 -129.331482 -328.649780
v 204.546265 -184.898315 -293.764191
v 254.795898 -205.383972 -296.511841
v 273.808960 -146.392822 -333.547028
v 287.908447 -129.643677 -295.545105
v 269.998840 -185.210754 -260.659576
v 252.890259 -168.167114 -374.883881
v 234.980774 -223.733826 -339.998444
v 285.230286 -244.219604 -342.746155
v 304.243408 -185.228333 -379.781311
v 318.342896 -168.479248 -341.779297
v 300.433289 -224.046143 -306.893707
v 247.609802 -203.297241 -409.928131
v 236.082153 -239.063171 -387.473785
v 268.425537 -252.248840 -389.242493
v 280.663391 -214.278931 -413.080292
v 354.679260 -207.162781 -388.826508
v 368.778748 -190.413635 -350.824280
v 350.869324 -245.980713 -315.938873
v 335.666199 -266.153931 -351.791260
v 243.389526 -226.157776 -434.604340
v 235.617981 -250.270264 -419.466370
v 257.422974 -259.159851 -420.658844
v 265.673523 -233.561340 -436.729645
v 251.668396 -250.212646 -457.894135
v 246.810425 -265.285645 -448.431183
v 260.440857 -270.842590 -449.176544
v 265.598267 -254.840576 -459.222504
v 381.122620 -225.771240 -381.307953
v 390.497498 -214.634460 -356.039886
v 378.589050 -251.581726 -332.843933
v 368.480286 -264.995117 -356.682556
vn 0.6711 -0.6417 0.3713
vn -0.1880 0.9459 -0.2645
vn -0.6746 0.6271 -0.3894
vn -0.2216 -0.0491 0.9739
vn 0.2102 0.9770 -0.0346
vn -0.5781 -0.8024 -0.1485
vn -0.0173 0.9582 0.2854
vn 0.8010 0.4936 0.3388
vn -0.6345 -0.0783 -0.7689
vn 0.5065 -0.8418 0.1868
vn -0.1745 0.3946 -0.9021
vn 0.3430 -0.3314 0.8789
vn -0.1886 0.3579 -0.9145
vn 0.1665 -0.9327 -0.3199
vn 0.2530 -0.2127 0.9438
vn 0.1808 -0.9290 -0.3228
vn -0.0028 0.9595 0.2817
vn 0.3613 -0.3627 0.8591
vn 0.3398 -0.1418 0.9297
vn 0.0560 -0.9538 -0.2950
vn -0.1740 0.2078 -0.9626
vn 0.3284 -0.1814 0.9270
vn -0.1530 0.1738 -0.9728
vn -0.5617 -0.4646 -0.6846
vn 0.4795 0.8291 0.2875
vn -0.8719 -0.3568 -0.3354
vn 0.6483 0.7346 0.2000
vn -0.7403 0.4733 0.4774
vn -0.0750 0.9511 0.2996
vn -0.2559 0.2217 -0.9409
vn -0.1046 0.9461 0.3064
vn 0.2646 -0.3245 0.9081
vn -0.2549 0.2174 -0.9422
vn -0.2663 0.3289 -0.9060
vn 0.2265 -0.2419 0.9435
vn -0.4221 -0.8951 -0.1436
vn 0.2637 -0.3202 0.9099
vn 0.2548 -0.2098 0.9440
vn -0.2644 0.3318 -0.9055
vn 0.0750 -0.9511 -0.2996
vn 0.7101 0.7041 0.0068
vn -0.0782 0.0984 -0.9921
vn 0.4246 -0.4260 0.7989
vn 0.7284 0.6851 -0.0039
vn 0.4534 0.0458 0.8901
vn -0.2932 0.3002 -0.9077
vn -0.6988 0.6094 0.3746
vn 0.6988 -0.6094 -0.3746
vn 0.3379 0.9246 0.1759
vn 0.3998 -0.4102 0.8197
vn -0.1074 0.1188 -0.9871
vn -0.4467 -0.8846 -0.1336
vn 0.7666 -0.5255 -0.3691
vn 0.3923 -0.4054 0.8257
vn -0.1164 0.1251 -0.9853
vn -0.1029 -0.9620 -0.2528
vn 0.6664 0.7450 0.0311
vn -0.0306 0.5507 -0.8342
vn 0.8370 -0.4151 -0.3565
vn -0.5206 0.7689 0.3713
vn 0.2829 -0.5761 0.7669
vn 0.6570 0.7383 -0.1526
vn -0.2398 0.5903 -0.7707
vn -0.6946 0.1362 0.7064
vn 0.3973 0.9176 -0.0161
vn -0.5114 -0.7949 -0.3265
vn 0.8784 0.0161 0.4776
vn 0.9064 0.0202 0.4219
vn -0.3374 -0.0052 -0.9413
vn -0.1461 -0.8604 0.4882
vn 0.4039 0.7590 -0.5107
vn -0.3189 -0.8587 0.4011
vn 0.3659 0.7706 -0.5218
vn -0.8139 -0.1128 -0.5700
vn -0.2114 -0.8111 0.5453
vn -0.7984 -0.1139 -0.5913
vn 0.8845 0.0077 0.4664
vn -0.3135 -0.8704 0.3797
vn -0.1167 -0.8562 0.5033
vn -0.8620 -0.0395 -0.5054
vn 0.2322 0.7609 -0.6059
vn -0.1250 -0.8419 0.5250
vn 0.2071 0.7448 -0.6344
vn -0.6510 -0.4487 -0.6123
vn 0.8480 0.5220 -0.0918
vn -0.6015 -0.3902 -0.6971
vn 0.5928 0.6975 0.4026
vn -0.8079 0.5872 -0.0501
vn 0.8533 0.0508 0.5190
vn 0.2188 0.8133 -0.5391
vn 0.8390 0.0685 0.5398
vn -0.3108 -0.8190 0.4824
vn 0.2151 0.8125 -0.5418
vn 0.3143 0.8198 -0.4786
vn -0.2471 -0.7960 0.5526
vn -0.9637 0.2466 -0.1020
vn -0.3072 -0.8186 0.4854
vn -0.2081 -0.8121 0.5452
vn 0.3175 0.8186 -0.4786
vn -0.8533 -0.0508 -0.5190
vn 0.8814 -0.4199 -0.2163
vn 0.1598 0.6850 -0.7108
vn -0.3492 -0.8941 0.2806
vn 0.8699 -0.4310 -0.2400
vn 0.0992 -0.8846 0.4557
vn 0.2790 0.8362 -0.4721
vn 0.3344 0.4214 0.8429
vn -0.3344 -0.4214 -0.8429
vn 0.9635 -0.1961 0.1823
vn -0.3435 -0.8848 0.3149
vn 0.1700 0.7082 -0.6852
vn -0.9621 0.2614 -0.0776
vn -0.2349 -0.4614 -0.8555
vn -0.3417 -0.8818 0.3251
vn 0.1730 0.7152 -0.6772
vn -0.9214 0.0554 -0.3847
vn 0.9049 -0.3935 -0.1623
vn 0.5892 0.6357 -0.4988
vn -0.1100 -0.5028 -0.8574
vn 0.5397 0.3159 0.7803
usemtl Matériau.012
s off
f 83//20 84//20 86//20 85//20
f 90//21 89//21 93//21 94//21
f 89//22 90//22 88//22 87//22
f 105//23 106//23 84//23 83//23
f 103//24 89//24 87//24 105//24
f 104//25 86//25 84//25 106//25
f 94//26 93//26 97//26 98//26
f 103//27 85//27 92//27 107//27
f 104//28 90//28 94//28 108//28
f 85//29 86//29 91//29 92//29
f 110//30 98//30 102//30 112//30
f 107//31 92//31 96//31 109//31
f 108//32 94//32 98//32 110//32
f 92//33 91//33 95//33 96//33
f 101//34 111//34 115//34 118//34
f 96//35 95//35 99//35 100//35
f 98//36 97//36 101//36 102//36
f 109//37 96//37 100//37 111//37
f 97//38 109//38 111//38 101//38
f 100//39 99//39 113//39 114//39
f 91//40 108//40 110//40 95//40
f 93//41 107//41 109//41 97//41
f 95//42 110//42 112//42 99//42
f 86//43 104//43 108//43 91//43
f 89//44 103//44 107//44 93//44
f 90//45 104//45 106//45 88//45
f 85//46 103//46 105//46 83//46
f 87//47 88//47 106//47 105//47
f 117//48 118//48 124//48 123//48
f 113//49 116//49 122//49 119//49
f 102//50 101//50 118//50 117//50
f 111//51 100//51 114//51 115//51
f 99//52 112//52 116//52 113//52
f 112//53 102//53 117//53 116//53
f 124//54 121//54 132//54 131//54
f 120//55 119//55 125//55 126//55
f 115//56 114//56 120//56 121//56
f 118//57 115//57 121//57 124//57
f 116//58 117//58 123//58 122//58
f 114//59 113//59 119//59 120//59
f 128//60 127//60 135//60 136//60
f 119//61 122//61 128//61 125//61
f 121//62 120//62 126//62 127//62
f 122//63 121//63 127//63 128//63
f 131//64 132//64 144//64 143//64
f 122//65 123//65 130//65 129//65
f 123//66 124//66 131//66 130//66
f 121//67 122//67 129//67 132//67
f 136//68 135//68 139//68 140//68
f 127//69 126//69 134//69 135//69
f 125//70 128//70 136//70 133//70
f 126//71 125//71 133//71 134//71
f 138//72 137//72 140//72 139//72
f 135//73 134//73 138//73 139//73
f 133//74 136//74 140//74 137//74
f 134//75 133//75 137//75 138//75
f 144//76 141//76 142//76 143//76
f 129//77 130//77 142//77 141//77
f 132//78 129//78 141//78 144//78
f 130//79 131//79 143//79 142//79
f 145//80 146//80 148//80 147//80
f 152//81 151//81 155//81 156//81
f 151//82 152//82 150//82 149//82
f 167//83 168//83 146//83 145//83
f 165//84 151//84 149//84 167//84
f 166//85 148//85 146//85 168//85
f 156//86 155//86 159//86 160//86
f 165//87 147//87 154//87 169//87
f 166//88 152//88 156//88 170//88
f 147//89 148//89 153//89 154//89
f 172//90 160//90 164//90 174//90
f 169//91 154//91 158//91 171//91
f 170//92 156//92 160//92 172//92
f 154//93 153//93 157//93 158//93
f 163//94 173//94 177//94 180//94
f 158//95 157//95 161//95 162//95
f 160//96 159//96 163//96 164//96
f 171//97 158//97 162//97 173//97
f 159//98 171//98 173//98 163//98
f 162//99 161//99 175//99 176//99
f 153//100 170//100 172//100 157//100
f 155//101 169//101 171//101 159//101
f 157//102 172//102 174//102 161//102
f 148//103 166//103 170//103 153//103
f 151//104 165//104 169//104 155//104
f 152//105 166//105 168//105 150//105
f 147//106 165//106 167//106 145//106
f 149//107 150//107 168//107 167//107
f 179//108 180//108 186//108 185//108
f 175//109 178//109 184//109 181//109
f 164//110 163//110 180//110 179//110
f 173//111 162//111 176//111 177//111
f 161//112 174//112 178//112 175//112
f 174//113 164//113 179//113 178//113
f 186//114 183//114 194//114 193//114
f 182//115 181//115 187//115 188//115
f 177//116 176//116 182//116 183//116
f 180//117 177//117 183//117 186//117
f 178//118 179//118 185//118 184//118
f 176//119 175//119 181//119 182//119
f 190//120 189//120 197//120 198//120
f 181//121 184//121 190//121 187//121
f 183//122 182//122 188//122 189//122
f 184//123 183//123 189//123 190//123
f 193//124 194//124 206//124 205//124
f 184//125 185//125 192//125 191//125
f 185//126 186//126 193//126 192//126
f 183//127 184//127 191//127 194//127
f 198//128 197//128 201//128 202//128
f 189//129 188//129 196//129 197//129
f 187//130 190//130 198//130 195//130
f 188//131 187//131 195//131 196//131
f 200//132 199//132 202//132 201//132
f 197//133 196//133 200//133 201//133
f 195//134 198//134 202//134 199//134
f 196//135 195//135 199//135 200//135
f 206//136 203//136 204//136 205//136
f 191//137 192//137 204//137 203//137
f 194//138 191//138 203//138 206//138
f 192//139 193//139 205//139 204//139
