# Blender v2.91.2 OBJ File: 'camionnete02.blend'
# www.blender.org
mtllib arme_000043.mtl
o Cube.046_Cube.010
v 366.649200 230.596695 -1021.327881
v 367.915314 10.193604 -1021.274902
v 485.270447 231.233475 -1207.090332
v 486.536560 10.830399 -1207.037476
v 180.889954 229.501114 -1139.950806
v 182.156021 9.098007 -1139.897827
v 299.511169 230.137924 -1325.713257
v 300.777283 9.734802 -1325.660400
v 203.331253 229.719925 -765.569702
v 204.597351 9.316879 -765.516724
v 18.838100 8.221283 -884.139648
v 17.572010 228.624374 -884.192566
v 129.419189 229.323166 -649.822205
v 130.685272 8.920074 -649.769348
v -55.074036 7.824478 -768.392212
v -56.340126 228.227585 -768.445190
v 85.755219 229.088760 -581.443909
v 94.114136 68.804962 -592.739990
v -91.645210 67.709396 -711.362915
v -100.004105 227.993210 -700.066772
v 128.156982 449.044861 -649.875061
v -57.602276 447.949280 -768.498047
v 84.493050 448.810486 -581.496704
v -101.266228 447.714905 -700.119629
v 228.811874 229.856705 -805.472656
v 230.077972 9.453659 -805.419739
v 43.052601 228.761154 -924.095581
v 44.318665 8.358063 -924.042664
v 202.913315 302.476624 -765.587158
v 17.154047 301.381104 -884.210144
v 228.393921 302.613403 -805.490112
v 42.634636 301.517822 -924.112976
v 202.306976 408.034729 -765.612549
v 16.547697 406.939148 -884.235352
v 227.787537 408.171509 -805.515503
v 42.028301 407.075928 -924.138367
v 130.671768 302.088806 -652.455811
v -55.087540 300.993225 -771.078735
v 130.065384 407.646973 -652.481140
v -55.693905 406.551331 -771.104065
v 154.939651 585.976440 -693.080322
v -30.819626 584.880859 -811.703308
v 111.275681 585.742065 -624.702026
v -74.483551 584.646423 -743.324890
v 443.393463 231.008682 -1141.510498
v 444.659576 10.605591 -1141.457642
v 257.634186 229.913101 -1260.133301
v 258.900299 9.509995 -1260.080444
v 392.390808 230.685715 -1266.401855
v 393.656921 10.282593 -1266.348999
v 273.769592 230.048904 -1080.639404
v 275.035675 9.645813 -1080.586426
v 110.451637 229.172134 -824.881104
v 111.717712 8.769073 -824.828125
v 36.539539 228.775406 -709.133728
v 37.805614 8.372284 -709.080811
v -7.124417 228.540970 -640.755371
v 1.234482 68.257187 -652.051453
v 35.277336 448.497131 -709.186462
v -8.386593 448.262695 -640.808167
v 137.198318 8.905869 -864.731140
v 135.932236 229.308914 -864.784119
v 110.033684 301.928894 -824.898682
v 135.514282 302.065613 -864.801514
v 109.427338 407.487000 -824.923950
v 134.907928 407.623718 -864.826965
v 37.792110 301.541077 -711.767334
v 37.185745 407.099182 -711.792603
v 62.059998 585.428711 -752.391846
v 18.396044 585.194214 -684.013489
v 351.779907 10.057800 -1200.769043
v 350.513824 230.460892 -1200.821899
v 438.830627 230.959579 -1236.745972
v 321.475494 9.919708 -1050.930664
v 158.157532 9.042984 -795.172485
v 84.245422 8.646179 -679.425110
v 47.674301 68.531067 -622.395752
v 182.372055 229.582809 -835.128357
v 181.954102 302.339478 -835.145813
v 181.347733 407.897583 -835.171204
v 396.953674 230.734787 -1171.166260
v 440.096741 10.556503 -1236.693237
v 320.209381 230.322800 -1050.983765
v 156.891449 229.446030 -795.225464
v 82.979347 229.049271 -679.477966
v 39.315388 228.814865 -611.099609
v 81.717178 448.770996 -679.530762
v 38.053242 448.536560 -611.152466
v 183.638153 9.179764 -835.075439
v 156.473511 302.202759 -795.242920
v 155.867142 407.760864 -795.268250
v 84.231934 301.814941 -682.111572
v 83.625565 407.373047 -682.136841
v 108.499847 585.702576 -722.736023
v 64.835876 585.468079 -654.357727
v 398.219727 10.331696 -1171.113403
v 183.875214 -32.087700 -835.065552
v 137.435379 -32.361618 -864.721252
v 398.456787 -30.935776 -1171.103516
v 352.016998 -31.209686 -1200.759155
v 275.272736 -31.621674 -1080.576538
v 321.712555 -31.347763 -1050.920776
v 500.649750 169.884048 -1057.970215
v 466.714203 169.701859 -1004.826721
v 467.274170 72.241882 -1004.803162
v 501.209625 72.424057 -1057.946899
v 540.791382 170.120834 -1032.336548
v 506.855865 169.938644 -979.192993
v 507.415771 72.478668 -979.169556
v 541.351257 72.660828 -1032.313110
v 602.220886 170.483139 -993.108826
v 568.285339 170.300949 -939.965210
v 568.845215 72.841003 -939.941772
v 602.780701 73.023178 -993.085449
v 641.749939 170.716293 -967.866211
v 607.814392 170.534103 -914.722656
v 608.374390 73.074127 -914.699219
v 642.309814 73.256302 -967.842773
v 829.790344 12.648788 -1846.958008
v 783.350525 12.374893 -1876.613770
v 782.084290 232.778000 -1876.666748
v 828.524231 233.051895 -1847.010986
vn 0.8428 0.0050 0.5382
vn 0.5382 0.0029 -0.8428
vn -0.8428 -0.0050 -0.5382
vn -0.0057 1.0000 -0.0002
vn 0.0057 -1.0000 0.0002
vn -0.5382 -0.0029 0.8428
vn -0.3533 -0.7492 0.5602
vn -0.5358 -0.0871 0.8398
vn -0.8435 -0.0055 -0.5371
vn 0.8435 0.0055 0.5371
vn 0.5060 -0.3480 -0.7892
vn -0.5060 0.3480 0.7892
vn 0.8264 0.0046 -0.5630
vn -0.1631 -0.0007 0.9866
vn 0.4698 -0.8312 0.2972
vn 0.4602 0.8367 0.2968
usemtl Matériau.011
s off
f 45//1 46//1 4//1 3//1
f 49//2 50//2 8//2 7//2
f 47//3 48//3 6//3 5//3
f 26//1 25//1 9//1 10//1
f 72//4 47//4 5//4 51//4
f 96//5 46//5 2//5 74//5
f 10//1 9//1 13//1 14//1
f 84//6 9//6 29//6 90//6
f 89//5 26//5 10//5 75//5
f 27//3 28//3 11//3 12//3
f 76//7 14//7 18//7 77//7
f 75//5 10//5 14//5 76//5
f 12//3 11//3 15//3 16//3
f 53//4 12//4 16//4 55//4
f 86//8 77//8 18//8 17//8
f 16//9 15//9 19//9 20//9
f 16//3 20//3 24//3 22//3
f 14//10 13//10 17//10 18//10
f 59//11 22//11 42//11 69//11
f 86//6 17//6 23//6 88//6
f 17//1 13//1 21//1 23//1
f 55//2 16//2 22//2 59//2
f 5//3 6//3 28//3 27//3
f 74//5 2//5 26//5 89//5
f 51//4 5//4 27//4 62//4
f 2//1 1//1 25//1 26//1
f 32//3 30//3 34//3 36//3
f 62//2 27//2 32//2 64//2
f 27//3 12//3 30//3 32//3
f 9//1 25//1 31//1 29//1
f 66//4 36//4 34//4 65//4
f 90//5 29//5 37//5 92//5
f 64//2 32//2 36//2 66//2
f 29//1 31//1 35//1 33//1
f 92//6 37//6 39//6 93//6
f 29//1 33//1 39//1 37//1
f 34//3 30//3 38//3 40//3
f 65//4 34//4 40//4 68//4
f 69//4 42//4 44//4 70//4
f 23//1 21//1 41//1 43//1
f 88//12 23//12 43//12 95//12
f 22//3 24//3 44//3 42//3
f 82//5 4//5 46//5 96//5
f 49//4 7//4 47//4 72//4
f 7//3 8//3 48//3 47//3
f 46//13 45//13 103//13 106//13
f 73//4 49//4 72//4 81//4
f 8//5 50//5 71//5 48//5
f 24//12 60//12 70//12 44//12
f 94//4 69//4 70//4 95//4
f 91//4 65//4 68//4 93//4
f 38//6 67//6 68//6 40//6
f 79//2 64//2 66//2 80//2
f 30//5 63//5 67//5 38//5
f 80//4 66//4 65//4 91//4
f 78//2 62//2 64//2 79//2
f 83//4 51//4 62//4 78//4
f 6//5 52//5 61//5 28//5
f 85//2 55//2 59//2 87//2
f 20//6 57//6 60//6 24//6
f 87//11 59//11 69//11 94//11
f 20//8 19//8 58//8 57//8
f 84//4 53//4 55//4 85//4
f 11//5 54//5 56//5 15//5
f 15//7 56//7 58//7 19//7
f 28//5 61//5 54//5 11//5
f 12//6 53//6 63//6 30//6
f 48//5 71//5 52//5 6//5
f 81//4 72//4 51//4 83//4
f 50//3 49//3 121//3 120//3
f 3//2 4//2 82//2 73//2
f 45//4 81//4 83//4 1//4
f 9//4 84//4 85//4 13//4
f 21//11 87//11 94//11 41//11
f 13//2 85//2 87//2 21//2
f 1//4 83//4 78//4 25//4
f 25//2 78//2 79//2 31//2
f 35//4 80//4 91//4 33//4
f 31//2 79//2 80//2 35//2
f 33//4 91//4 93//4 39//4
f 41//4 94//4 95//4 43//4
f 3//4 73//4 81//4 45//4
f 50//5 82//5 96//5 71//5
f 60//12 88//12 95//12 70//12
f 67//6 92//6 93//6 68//6
f 63//5 90//5 92//5 67//5
f 52//3 71//3 100//3 101//3
f 57//6 86//6 88//6 60//6
f 57//8 58//8 77//8 86//8
f 54//5 75//5 76//5 56//5
f 56//7 76//7 77//7 58//7
f 61//5 89//5 75//5 54//5
f 53//6 84//6 90//6 63//6
f 89//6 61//6 98//6 97//6
f 101//5 102//5 97//5 98//5
f 100//5 99//5 102//5 101//5
f 61//3 52//3 101//3 98//3
f 74//1 89//1 97//1 102//1
f 71//2 96//2 99//2 100//2
f 96//1 74//1 102//1 99//1
f 106//2 103//2 107//2 110//2
f 1//14 2//14 105//14 104//14
f 2//15 46//15 106//15 105//15
f 45//16 1//16 104//16 103//16
f 109//5 110//5 114//5 113//5
f 104//6 105//6 109//6 108//6
f 105//5 106//5 110//5 109//5
f 103//4 104//4 108//4 107//4
f 113//5 114//5 118//5 117//5
f 107//4 108//4 112//4 111//4
f 110//2 107//2 111//2 114//2
f 108//6 109//6 113//6 112//6
f 116//1 117//1 118//1 115//1
f 111//4 112//4 116//4 115//4
f 114//2 111//2 115//2 118//2
f 122//2 119//2 120//2 121//2
f 82//5 50//5 120//5 119//5
f 73//1 82//1 119//1 122//1
f 49//4 73//4 122//4 121//4
o Cube.047_Cube.022
v -251.553650 462.269348 286.869690
v -248.975891 221.126160 271.348938
v -134.486206 477.094055 75.983398
v -131.908447 235.950867 60.462681
v -433.794739 412.399292 114.731590
v -432.473053 288.758453 106.773682
v -373.770996 420.000336 6.604294
v -372.449310 296.359497 -1.353607
v 5.514984 318.474976 -303.023132
v 4.164764 444.786926 -294.893311
v -106.562897 447.547028 -356.166504
v -105.212646 321.235046 -364.296326
v 94.949524 348.767059 -497.895844
v 93.956787 441.634491 -491.918671
v 12.547302 443.663757 -536.968140
v 13.540039 350.796326 -542.945312
v 149.125732 369.805939 -620.729736
v 148.400269 437.672241 -616.361694
v 88.907318 439.155182 -649.283203
v 89.632782 371.288910 -653.651245
v -249.157684 486.032104 33.999329
v -246.421066 230.028915 17.522186
v -373.439209 470.293823 257.881104
v -370.702576 214.290665 241.403976
v -48.529358 450.402191 -330.163605
v -47.095917 316.306488 -338.794403
v 62.358368 446.667542 -530.718506
v 63.412262 348.077362 -537.064087
v 131.790314 442.171143 -656.392456
v 132.560516 370.122711 -661.029663
v 197.789520 375.499237 -701.103394
v 197.064056 443.365540 -696.735352
v 180.178192 448.591858 -748.114014
v 180.948395 376.543457 -752.751221
v 138.063049 377.597839 -743.628540
v 137.337585 445.464111 -739.260498
v 231.596039 379.620331 -759.517334
v 230.870575 447.486603 -755.149292
v 213.984680 452.712952 -806.527954
v 214.754852 380.664551 -811.165161
v 171.869537 381.718903 -802.042480
v 171.144073 449.585205 -797.674438
v 273.544403 393.697083 -782.588745
v 273.077484 437.379517 -779.777222
v 262.208893 440.743500 -812.847412
v 262.704620 394.369202 -815.832153
v 203.258484 384.045227 -865.599609
v 160.373138 385.099579 -856.476929
v 159.647675 452.965881 -852.108887
v 202.488281 456.093628 -860.962402
v 302.733978 402.124115 -797.631958
v 302.419159 431.573608 -795.736450
v 295.091827 433.841492 -818.031494
v 295.426056 402.577209 -820.043701
v 324.815948 409.536224 -823.068726
v 324.619171 427.945465 -821.883911
v 320.038666 429.363159 -835.820801
v 320.247589 409.819489 -837.078735
v 189.753967 397.764221 -892.645142
v 161.238953 398.465302 -886.579224
v 160.756592 443.590454 -883.674805
v 189.241882 445.670135 -889.561768
vn 0.8748 -0.0218 0.4841
vn -0.8059 0.0294 -0.5914
vn -0.8748 0.0218 -0.4841
vn -0.2349 -0.0649 0.9698
vn -0.4303 0.8853 -0.1766
vn 0.0645 -0.9973 -0.0343
vn -0.8345 0.0265 -0.5503
vn 0.1062 0.9934 -0.0428
vn -0.2744 -0.9074 -0.3183
vn 0.9362 -0.0126 0.3511
vn -0.0442 -0.9778 -0.2046
vn 0.0975 0.9947 0.0320
vn -0.0197 -0.9849 -0.1722
vn 0.9097 -0.0170 0.4149
vn -0.0649 0.9973 0.0353
vn 0.9159 -0.0160 0.4012
vn -0.8262 0.0274 -0.5628
vn 0.1384 0.9898 0.0351
vn -0.0653 0.9948 -0.0777
vn 0.8559 -0.0241 0.5165
vn 0.1187 -0.9883 -0.0956
vn -0.0409 0.9982 -0.0446
vn 0.1595 -0.9829 -0.0919
vn 0.1272 -0.9773 -0.1697
vn -0.2941 0.9347 -0.1997
vn -0.4116 -0.8643 -0.2892
vn 0.0432 0.9946 0.0939
vn -0.9156 -0.0356 0.4004
vn -0.8660 0.0229 -0.4996
vn 0.0555 -0.9977 -0.0383
vn -0.8810 0.0210 -0.4727
vn 0.0385 0.9950 0.0918
vn 0.0598 -0.9975 -0.0365
vn -0.0436 -0.9947 -0.0929
vn -0.0574 0.9956 0.0740
vn 0.4943 -0.0506 0.8678
vn 0.0342 0.9954 0.0900
vn -0.0662 0.9973 0.0321
vn -0.0449 -0.9944 -0.0961
vn 0.8660 -0.0229 0.4996
vn -0.1427 0.0621 -0.9878
vn 0.2638 -0.9588 -0.1054
vn 0.2432 0.9698 0.0187
vn -0.1144 0.0626 -0.9915
vn -0.1285 0.9494 -0.2865
vn -0.0361 -0.9979 -0.0543
vn -0.9784 -0.0237 0.2052
vn 0.9784 0.0237 -0.2052
vn -0.5744 0.0465 -0.8172
vn 0.2099 0.9772 0.0304
vn 0.2307 -0.9684 -0.0948
vn 0.4692 -0.0517 0.8815
vn 0.9505 0.0301 -0.3093
vn 0.2000 0.9792 0.0339
vn 0.2205 -0.9711 -0.0915
vn 0.7596 -0.0337 0.6496
vn -0.2063 0.0607 -0.9766
vn -0.1087 -0.9074 -0.4060
vn 0.9015 0.0374 -0.4312
vn -0.9994 -0.0086 -0.0326
usemtl Matériau.012
s off
f 123//17 124//17 126//17 125//17
f 130//18 129//18 133//18 134//18
f 129//19 130//19 128//19 127//19
f 145//20 146//20 124//20 123//20
f 143//21 129//21 127//21 145//21
f 144//22 126//22 124//22 146//22
f 134//23 133//23 137//23 138//23
f 143//24 125//24 132//24 147//24
f 144//25 130//25 134//25 148//25
f 125//26 126//26 131//26 132//26
f 150//27 138//27 142//27 152//27
f 147//28 132//28 136//28 149//28
f 148//29 134//29 138//29 150//29
f 132//30 131//30 135//30 136//30
f 141//31 151//31 155//31 158//31
f 136//32 135//32 139//32 140//32
f 138//33 137//33 141//33 142//33
f 149//34 136//34 140//34 151//34
f 137//35 149//35 151//35 141//35
f 140//36 139//36 153//36 154//36
f 131//37 148//37 150//37 135//37
f 133//38 147//38 149//38 137//38
f 135//39 150//39 152//39 139//39
f 126//40 144//40 148//40 131//40
f 129//41 143//41 147//41 133//41
f 130//42 144//42 146//42 128//42
f 125//43 143//43 145//43 123//43
f 127//44 128//44 146//44 145//44
f 157//45 158//45 164//45 163//45
f 153//46 156//46 162//46 159//46
f 142//47 141//47 158//47 157//47
f 151//48 140//48 154//48 155//48
f 139//49 152//49 156//49 153//49
f 152//50 142//50 157//50 156//50
f 164//51 161//51 172//51 171//51
f 160//52 159//52 165//52 166//52
f 155//53 154//53 160//53 161//53
f 158//54 155//54 161//54 164//54
f 156//55 157//55 163//55 162//55
f 154//56 153//56 159//56 160//56
f 168//57 167//57 175//57 176//57
f 159//58 162//58 168//58 165//58
f 161//59 160//59 166//59 167//59
f 162//60 161//60 167//60 168//60
f 171//61 172//61 184//61 183//61
f 162//62 163//62 170//62 169//62
f 163//63 164//63 171//63 170//63
f 161//64 162//64 169//64 172//64
f 176//65 175//65 179//65 180//65
f 167//66 166//66 174//66 175//66
f 165//67 168//67 176//67 173//67
f 166//68 165//68 173//68 174//68
f 178//69 177//69 180//69 179//69
f 175//70 174//70 178//70 179//70
f 173//71 176//71 180//71 177//71
f 174//72 173//72 177//72 178//72
f 184//73 181//73 182//73 183//73
f 169//74 170//74 182//74 181//74
f 172//75 169//75 181//75 184//75
f 170//76 171//76 183//76 182//76
o Cube.048_Cube.024
v -525.739929 327.726562 107.636070
v -687.471802 198.536652 -17.064995
v -384.539551 339.892456 -88.098503
v -546.271362 210.702545 -212.799561
v -641.660278 503.076813 -37.777500
v -724.584717 436.837555 -101.715218
v -569.262878 509.314636 -138.136093
v -652.187317 443.075348 -202.073822
v -306.972473 309.576965 -514.092163
v -222.256531 377.247253 -448.773163
v -280.356018 484.030945 -484.048248
v -365.071960 416.360657 -549.367310
v -177.681122 343.508911 -684.456238
v -115.396057 393.261658 -636.432190
v -158.112061 471.771423 -662.367188
v -220.397125 422.018677 -710.391235
v -96.324097 367.556702 -790.609924
v -50.807007 403.915344 -755.514587
v -82.023315 461.289246 -774.467529
v -127.540405 424.930603 -809.562866
v -445.745972 444.879211 -103.053368
v -617.444214 307.728210 -235.438904
v -595.647583 431.963593 104.743019
v -767.345825 294.812622 -27.642509
v -245.425812 433.005890 -468.931427
v -335.362213 361.165527 -538.275635
v -123.814514 434.999023 -663.196716
v -189.937805 382.180359 -714.180115
v -49.141174 435.090027 -785.911194
v -97.463196 396.490875 -823.169189
v -39.738037 369.306763 -865.812622
v 5.779053 405.665405 -830.717285
v 10.539856 442.185242 -870.665527
v -37.782166 403.586060 -907.923523
v -68.335205 431.204163 -892.848999
v -22.818115 467.562805 -857.753662
v 0.318298 371.692444 -920.235535
v 45.835388 408.051086 -885.140198
v 50.596191 444.570923 -925.088379
v 2.274170 405.971741 -962.346436
v -28.278809 433.589844 -947.271851
v 17.238281 469.948486 -912.176514
v 44.146545 358.975220 -940.421387
v 73.443848 382.377625 -917.832153
v 76.508240 405.883789 -943.544983
v 45.405579 381.039246 -967.526306
v 10.153564 438.868073 -1006.646057
v -20.399536 466.486176 -991.571533
v 25.117554 502.844818 -956.476196
v 58.475525 477.467255 -969.388062
v 73.447693 348.944214 -954.211365
v 93.199158 364.721497 -938.982300
v 95.265015 380.568726 -956.317261
v 74.296448 363.819214 -972.484741
v 99.773621 347.806366 -976.465210
v 112.120422 357.668915 -966.945312
v 113.411926 367.575195 -977.781677
v 100.304260 357.104858 -987.888184
v 17.140869 467.498596 -1021.927002
v -3.174194 485.862244 -1011.903748
v 27.090698 510.037537 -988.568420
v 49.270752 493.163696 -997.153687
vn 0.4590 -0.8436 0.2787
vn -0.3808 0.8431 -0.3796
vn -0.4590 0.8436 -0.2787
vn -0.4416 -0.2724 0.8549
vn 0.3658 0.8746 0.3183
vn -0.6398 -0.5855 -0.4979
vn -0.4123 0.8450 -0.3407
vn 0.7715 0.4929 0.4023
vn -0.7375 -0.1732 -0.6528
vn 0.5396 -0.8271 0.1571
vn -0.6582 -0.4253 -0.6212
vn 0.7483 0.4685 0.4697
vn -0.6544 -0.4604 -0.5999
vn 0.5030 -0.8371 0.2150
vn 0.6392 0.5854 0.4988
vn 0.5111 -0.8353 0.2025
vn -0.4029 0.8446 -0.3525
vn 0.7717 0.4351 0.4638
vn 0.6649 0.6315 0.3989
vn 0.4367 -0.8449 0.3089
vn -0.5817 -0.5939 -0.5558
vn 0.6756 0.6020 0.4256
vn -0.5513 -0.6218 -0.5563
vn -0.5502 -0.5629 -0.6168
vn 0.4980 0.8137 0.2998
vn -0.8075 -0.0627 -0.5865
vn 0.6962 0.4817 0.5322
vn -0.7429 0.4715 0.4751
vn -0.4485 0.8444 -0.2931
vn -0.6451 -0.5776 -0.5002
vn -0.4665 0.8429 -0.2682
vn 0.6939 0.4862 0.5312
vn -0.6425 -0.5814 -0.4992
vn -0.6968 -0.4818 -0.5313
vn 0.6336 0.5629 0.5307
vn 0.0874 -0.7463 0.6599
vn 0.6916 0.4902 0.5305
vn 0.6391 0.5877 0.4962
vn -0.6967 -0.4793 -0.5338
vn 0.4485 -0.8444 0.2931
vn 0.1881 0.5499 -0.8137
vn -0.4606 -0.6778 -0.5731
vn 0.8329 0.3555 0.4242
vn 0.2086 0.5314 -0.8210
vn 0.6416 0.7391 0.2051
vn -0.7034 -0.5051 -0.5002
vn -0.7295 0.6049 0.3194
vn 0.7295 -0.6049 -0.3194
vn -0.1569 0.7805 -0.6051
vn 0.8127 0.3786 0.4430
vn -0.4923 -0.6637 -0.5632
vn 0.0663 -0.7347 0.6752
vn 0.7404 -0.5377 -0.4033
vn 0.8064 0.3854 0.4485
vn -0.5018 -0.6593 -0.5600
vn 0.3322 -0.8365 0.4358
vn 0.1414 0.5902 -0.7948
vn -0.6037 -0.2557 -0.7551
vn 0.7422 -0.4475 -0.4990
vn -0.6750 0.7277 0.1216
usemtl Matériau.012
s off
f 185//77 186//77 188//77 187//77
f 192//78 191//78 195//78 196//78
f 191//79 192//79 190//79 189//79
f 207//80 208//80 186//80 185//80
f 205//81 191//81 189//81 207//81
f 206//82 188//82 186//82 208//82
f 196//83 195//83 199//83 200//83
f 205//84 187//84 194//84 209//84
f 206//85 192//85 196//85 210//85
f 187//86 188//86 193//86 194//86
f 212//87 200//87 204//87 214//87
f 209//88 194//88 198//88 211//88
f 210//89 196//89 200//89 212//89
f 194//90 193//90 197//90 198//90
f 203//91 213//91 217//91 220//91
f 198//92 197//92 201//92 202//92
f 200//93 199//93 203//93 204//93
f 211//94 198//94 202//94 213//94
f 199//95 211//95 213//95 203//95
f 202//96 201//96 215//96 216//96
f 193//97 210//97 212//97 197//97
f 195//98 209//98 211//98 199//98
f 197//99 212//99 214//99 201//99
f 188//100 206//100 210//100 193//100
f 191//101 205//101 209//101 195//101
f 192//102 206//102 208//102 190//102
f 187//103 205//103 207//103 185//103
f 189//104 190//104 208//104 207//104
f 219//105 220//105 226//105 225//105
f 215//106 218//106 224//106 221//106
f 204//107 203//107 220//107 219//107
f 213//108 202//108 216//108 217//108
f 201//109 214//109 218//109 215//109
f 214//110 204//110 219//110 218//110
f 226//111 223//111 234//111 233//111
f 222//112 221//112 227//112 228//112
f 217//113 216//113 222//113 223//113
f 220//114 217//114 223//114 226//114
f 218//115 219//115 225//115 224//115
f 216//116 215//116 221//116 222//116
f 230//117 229//117 237//117 238//117
f 221//118 224//118 230//118 227//118
f 223//119 222//119 228//119 229//119
f 224//120 223//120 229//120 230//120
f 233//121 234//121 246//121 245//121
f 224//122 225//122 232//122 231//122
f 225//123 226//123 233//123 232//123
f 223//124 224//124 231//124 234//124
f 238//125 237//125 241//125 242//125
f 229//126 228//126 236//126 237//126
f 227//127 230//127 238//127 235//127
f 228//128 227//128 235//128 236//128
f 240//129 239//129 242//129 241//129
f 237//130 236//130 240//130 241//130
f 235//131 238//131 242//131 239//131
f 236//132 235//132 239//132 240//132
f 246//133 243//133 244//133 245//133
f 231//134 232//134 244//134 243//134
f 234//135 231//135 243//135 246//135
f 232//136 233//136 245//136 244//136
