# Blender v2.91.2 OBJ File: 'camionnete02.blend'
# www.blender.org
mtllib arme_000187.mtl
o Cube.046_Cube.010
v 90.695023 38.047363 -1208.227417
v 31.004608 -172.551376 -1182.452881
v 149.602188 -4.124908 -1416.387207
v 89.911743 -214.723648 -1390.612793
v -113.133591 87.532440 -1275.934326
v -172.824051 -123.066315 -1250.159668
v -54.226425 45.360199 -1484.094238
v -113.916908 -165.238586 -1458.319702
v 9.591530 96.110168 -921.632507
v -50.098904 -114.488525 -895.857910
v -253.927475 -65.003448 -963.564697
v -194.237061 145.595276 -989.339355
v -27.113060 122.387451 -791.929382
v -86.803528 -88.211288 -766.154846
v -290.632202 -38.726212 -833.861694
v -230.941742 171.872528 -859.636353
v -48.796547 137.910858 -715.306641
v -88.437027 -17.912796 -709.308960
v -292.265717 31.572311 -777.015930
v -252.625214 187.395996 -783.013489
v 32.392807 332.335144 -817.624268
v -171.435822 381.820190 -885.331299
v 10.709358 347.858582 -741.001587
v -193.119263 397.343628 -808.708435
v 22.245201 87.051300 -966.346558
v -37.445236 -123.547394 -940.571960
v -181.583435 136.536407 -1034.053467
v -241.273895 -74.062325 -1008.278809
v 29.295792 165.630432 -930.140869
v -174.532806 215.115509 -997.847839
v 41.949455 156.571533 -974.854858
v -161.879181 206.056610 -1042.561768
v 57.883484 266.492920 -942.485168
v -145.945114 315.977997 -1010.191956
v 70.537064 257.434021 -987.199219
v -133.291489 306.919067 -1054.906006
v -6.579247 191.313751 -803.369324
v -210.407898 240.798828 -871.076172
v 22.008423 292.176239 -815.713562
v -181.820190 341.661316 -883.420410
v 83.127548 453.232971 -881.997864
v -120.701111 502.718018 -949.704895
v 61.444046 468.756348 -805.375244
v -142.384521 518.241394 -873.082092
v 128.806122 10.763214 -1342.900391
v 69.115677 -199.835526 -1317.125977
v -75.022476 60.248322 -1410.607300
v -134.712921 -150.350464 -1384.832764
v 47.687866 20.617645 -1450.240845
v -12.002583 -189.981110 -1424.466309
v -11.219269 62.789902 -1242.080811
v -70.909714 -147.808838 -1216.306152
v -92.322762 120.852722 -955.485901
v -152.013184 -89.745987 -929.711304
v -129.027374 147.130005 -825.782837
v -180.685562 -54.035378 -787.994568
v -150.710876 162.653412 -749.160095
v -181.787048 -6.632919 -749.663330
v -69.521484 357.077698 -851.477661
v -91.204941 372.601135 -774.855042
v -139.359573 -98.804871 -974.425415
v -79.669121 111.793823 -1000.200012
v -72.618507 190.372955 -963.994324
v -59.964874 181.314056 -1008.708313
v -44.030792 291.235474 -976.338501
v -31.377197 282.176514 -1021.052673
v -108.493561 216.056335 -837.222717
v -79.905869 316.918793 -849.566895
v -18.786789 477.975525 -915.851379
v -40.470261 493.498840 -839.228638
v -32.798649 -175.092972 -1350.979370
v 26.891830 35.505783 -1376.753784
v 98.645081 8.246368 -1433.313965
v -19.952538 -160.180099 -1199.379517
v -101.056046 -102.117256 -912.784668
v -146.325043 -62.377350 -776.580872
v -147.426514 -14.974884 -738.249512
v -28.711967 99.422546 -983.273254
v -9.007729 168.942749 -991.781616
v 19.579956 269.805298 -1004.125916
v 77.848938 23.134491 -1359.827148
v 38.954590 -202.352386 -1407.539551
v 39.737846 50.418640 -1225.154175
v -41.365616 108.481445 -938.559265
v -78.070251 134.758728 -808.856140
v -99.753716 150.282135 -732.233337
v -18.564323 344.706421 -834.550964
v -40.247787 360.229858 -757.928284
v -88.402412 -111.176125 -957.498718
v -21.661339 178.001709 -947.067627
v 6.926331 278.864197 -959.411865
v -57.536407 203.685059 -820.296021
v -28.948715 304.547516 -832.640259
v 32.170410 465.604248 -898.924561
v 10.486900 481.127625 -822.301880
v 18.158463 -187.464249 -1334.052734
v -99.578621 -150.607864 -952.672729
v -150.535782 -138.236603 -969.599426
v 6.982216 -226.895996 -1329.226807
v -43.974876 -214.524750 -1346.153442
v -82.085945 -187.240601 -1211.480347
v -31.128761 -199.611862 -1194.553589
v 187.453491 -61.224808 -1269.608643
v 170.601151 -49.160034 -1210.057739
v 144.206787 -142.284653 -1198.660278
v 161.058975 -154.349411 -1258.211548
v 231.499817 -71.918274 -1254.977661
v 214.647461 -59.853516 -1195.426636
v 188.253052 -152.978104 -1184.029419
v 205.105286 -165.042877 -1243.580444
v 298.904663 -88.282654 -1232.587646
v 282.052338 -76.217911 -1173.036499
v 255.657837 -169.342484 -1161.639160
v 272.510132 -181.407257 -1221.190430
v 342.278839 -98.812973 -1218.179810
v 325.426514 -86.748199 -1158.628662
v 299.032166 -179.872818 -1147.231445
v 315.884369 -191.937561 -1206.782471
v 232.476227 -340.896027 -2091.384277
v 181.519089 -328.524780 -2108.310791
v 241.209351 -117.925964 -2134.085449
v 292.166656 -130.297272 -2117.158691
v 20.795700 532.330261 -942.351562
v -73.112854 555.129150 -973.545654
v 0.815582 546.634216 -871.747742
v -93.092941 569.433105 -902.941895
v 94.724091 523.835388 -840.553711
v 114.704300 509.531433 -911.157349
v 67.750092 520.930969 -926.754333
v 47.769814 535.234741 -856.150757
vn 0.9248 -0.2245 0.3072
vn 0.2673 -0.1913 -0.9444
vn -0.9248 0.2245 -0.3072
vn 0.2708 0.9555 -0.1169
vn -0.2708 -0.9555 0.1169
vn -0.2673 0.1913 0.9444
vn -0.3800 -0.5869 0.7149
vn -0.3513 -0.9283 0.1222
vn -0.3711 0.1009 0.9231
vn -0.9253 0.2243 -0.3059
vn 0.9253 -0.2243 0.3059
vn 0.1553 -0.5143 -0.8434
vn 0.1526 -0.5207 -0.8400
vn -0.1553 0.5143 0.8434
vn 0.6096 -0.2643 -0.7474
vn -0.7688 0.5485 -0.3287
vn -0.2564 0.0721 0.9639
vn -0.2413 -0.9571 0.1605
vn -0.1237 0.5861 0.8007
vn -0.3032 0.0528 0.9515
vn -0.2878 -0.9408 0.1788
vn 0.1182 0.0876 0.9891
vn 0.2844 -0.9208 0.2670
vn 0.7361 0.6730 0.0720
vn 0.8876 -0.3328 0.3186
usemtl Matériau.011
s off
f 45//1 46//1 4//1 3//1
f 49//2 50//2 8//2 7//2
f 47//3 48//3 6//3 5//3
f 26//1 25//1 9//1 10//1
f 72//4 47//4 5//4 51//4
f 96//5 46//5 2//5 74//5
f 10//1 9//1 13//1 14//1
f 84//6 9//6 29//6 90//6
f 89//5 26//5 10//5 75//5
f 27//3 28//3 11//3 12//3
f 76//7 14//7 18//7 77//7
f 75//8 10//8 14//8 76//8
f 12//3 11//3 15//3 16//3
f 53//4 12//4 16//4 55//4
f 86//9 77//9 18//9 17//9
f 16//10 15//10 19//10 20//10
f 16//3 20//3 24//3 22//3
f 14//11 13//11 17//11 18//11
f 59//12 22//12 42//12 69//12
f 86//6 17//6 23//6 88//6
f 17//1 13//1 21//1 23//1
f 55//2 16//2 22//2 59//2
f 5//3 6//3 28//3 27//3
f 74//5 2//5 26//5 89//5
f 51//4 5//4 27//4 62//4
f 2//1 1//1 25//1 26//1
f 32//3 30//3 34//3 36//3
f 62//2 27//2 32//2 64//2
f 27//3 12//3 30//3 32//3
f 9//1 25//1 31//1 29//1
f 66//4 36//4 34//4 65//4
f 90//5 29//5 37//5 92//5
f 64//2 32//2 36//2 66//2
f 29//1 31//1 35//1 33//1
f 92//6 37//6 39//6 93//6
f 29//1 33//1 39//1 37//1
f 34//3 30//3 38//3 40//3
f 65//4 34//4 40//4 68//4
f 69//13 42//13 124//13 123//13
f 23//1 21//1 41//1 43//1
f 88//14 23//14 43//14 95//14
f 22//3 24//3 44//3 42//3
f 82//5 4//5 46//5 96//5
f 49//4 7//4 47//4 72//4
f 7//3 8//3 48//3 47//3
f 46//15 45//15 103//15 106//15
f 73//4 49//4 72//4 81//4
f 8//5 50//5 71//5 48//5
f 24//14 60//14 70//14 44//14
f 42//16 44//16 126//16 124//16
f 91//4 65//4 68//4 93//4
f 38//6 67//6 68//6 40//6
f 79//2 64//2 66//2 80//2
f 30//5 63//5 67//5 38//5
f 80//4 66//4 65//4 91//4
f 78//2 62//2 64//2 79//2
f 83//4 51//4 62//4 78//4
f 6//5 52//5 61//5 28//5
f 85//2 55//2 59//2 87//2
f 20//6 57//6 60//6 24//6
f 87//12 59//12 69//12 94//12
f 20//17 19//17 58//17 57//17
f 84//4 53//4 55//4 85//4
f 11//18 54//18 56//18 15//18
f 15//7 56//7 58//7 19//7
f 28//5 61//5 54//5 11//5
f 12//6 53//6 63//6 30//6
f 48//5 71//5 52//5 6//5
f 81//4 72//4 51//4 83//4
f 50//3 49//3 121//3 120//3
f 3//2 4//2 82//2 73//2
f 45//4 81//4 83//4 1//4
f 9//4 84//4 85//4 13//4
f 21//12 87//12 94//12 41//12
f 13//2 85//2 87//2 21//2
f 1//4 83//4 78//4 25//4
f 25//2 78//2 79//2 31//2
f 35//4 80//4 91//4 33//4
f 31//2 79//2 80//2 35//2
f 33//4 91//4 93//4 39//4
f 70//19 95//19 130//19 125//19
f 3//4 73//4 81//4 45//4
f 50//5 82//5 96//5 71//5
f 60//14 88//14 95//14 70//14
f 67//6 92//6 93//6 68//6
f 63//5 90//5 92//5 67//5
f 52//3 71//3 100//3 101//3
f 57//6 86//6 88//6 60//6
f 57//20 58//20 77//20 86//20
f 54//21 75//21 76//21 56//21
f 56//7 76//7 77//7 58//7
f 61//5 89//5 75//5 54//5
f 53//6 84//6 90//6 63//6
f 89//6 61//6 98//6 97//6
f 101//5 102//5 97//5 98//5
f 100//5 99//5 102//5 101//5
f 61//3 52//3 101//3 98//3
f 74//1 89//1 97//1 102//1
f 71//2 96//2 99//2 100//2
f 96//1 74//1 102//1 99//1
f 106//2 103//2 107//2 110//2
f 1//22 2//22 105//22 104//22
f 2//23 46//23 106//23 105//23
f 45//24 1//24 104//24 103//24
f 109//5 110//5 114//5 113//5
f 104//6 105//6 109//6 108//6
f 105//5 106//5 110//5 109//5
f 103//4 104//4 108//4 107//4
f 113//5 114//5 118//5 117//5
f 107//4 108//4 112//4 111//4
f 110//2 107//2 111//2 114//2
f 108//6 109//6 113//6 112//6
f 116//1 117//1 118//1 115//1
f 111//4 112//4 116//4 115//4
f 114//2 111//2 115//2 118//2
f 122//2 119//2 120//2 121//2
f 82//5 50//5 120//5 119//5
f 73//1 82//1 119//1 122//1
f 49//4 73//4 122//4 121//4
f 123//4 124//4 126//4 125//4
f 129//4 123//4 125//4 130//4
f 128//4 129//4 130//4 127//4
f 95//19 43//19 127//19 130//19
f 94//13 69//13 123//13 129//13
f 43//25 41//25 128//25 127//25
f 44//19 70//19 125//19 126//19
f 41//13 94//13 129//13 128//13
o Cube.048_Cube.024
v -490.934998 550.966736 148.628876
v -679.018494 416.552582 78.237213
v -369.627625 485.098572 -49.723045
v -557.503296 350.192963 -120.202156
v -598.344910 691.885742 -35.586403
v -694.780518 622.967896 -71.678123
v -536.147156 658.113281 -137.286957
v -632.106934 589.223694 -172.803650
v -383.763794 353.079559 -481.603302
v -268.835785 392.655365 -446.277374
v -300.424622 511.428894 -476.569916
v -415.352661 471.853027 -511.895905
v -300.260376 342.265076 -681.107178
v -215.762665 371.362152 -655.134644
v -238.987488 458.687103 -677.406372
v -323.485199 429.590057 -703.378845
v -246.650848 338.045105 -805.903137
v -184.900940 359.308838 -786.922852
v -201.873352 423.124756 -803.198669
v -263.623108 401.861023 -822.179138
v -418.531830 589.012146 -91.806404
v -617.355042 446.649628 -165.317352
v -547.404419 659.030396 118.724754
v -747.078186 516.333252 43.995384
v -279.204712 452.435242 -465.539948
v -401.214905 410.420593 -503.042938
v -218.421387 413.136566 -683.010376
v -308.126038 382.246460 -710.583313
v -182.339050 387.861633 -819.736938
v -247.893982 365.287567 -839.886963
v -214.097290 320.837097 -892.532715
v -152.347595 342.100830 -873.552246
v -147.916443 374.600403 -916.869263
v -213.471344 352.026337 -937.019226
v -229.487854 387.993134 -917.697021
v -167.738037 409.256897 -898.716675
v -191.033997 309.723724 -955.115540
v -129.284180 330.987488 -936.135254
v -124.853088 363.487000 -979.451965
v -190.408142 340.912903 -999.601990
v -206.424500 376.879700 -980.279724
v -144.674744 398.143372 -961.299377
v -159.826477 283.747803 -984.123718
v -120.080933 297.434326 -971.906921
v -117.228821 318.352844 -999.787903
v -159.423645 303.822968 -1012.757629
v -185.323181 368.921417 -1047.522583
v -201.339783 404.888184 -1028.200195
v -139.589966 426.151855 -1009.219910
v -119.768311 391.495453 -1027.372437
v -139.487366 264.921631 -1003.648865
v -112.692078 274.148682 -995.412537
v -110.769287 288.251343 -1014.209167
v -139.215698 278.455688 -1022.953064
v -121.533081 255.306213 -1031.483521
v -104.783020 261.074188 -1026.334839
v -103.581055 269.889954 -1038.084839
v -121.363220 263.766541 -1043.550781
v -174.602539 393.710266 -1066.825928
v -185.252136 417.625031 -1053.978271
v -144.193909 431.763550 -1041.358032
v -131.014221 408.720032 -1053.428101
v -291.693359 444.998840 464.549561
v -372.798828 251.918457 343.970001
v -136.419128 494.031250 281.798279
v -222.811157 302.882629 161.476379
v -446.151245 546.463074 287.976318
v -487.736267 447.465302 226.151855
v -358.210693 573.965881 193.722870
v -410.833405 473.596008 132.582214
v -175.970520 319.220093 -113.888145
v -96.978149 248.102905 -48.215416
v -0.458435 293.917633 -112.252357
v -76.585571 364.229095 -178.071289
v -178.193237 160.784180 -261.484344
v -121.627686 104.995728 -213.017303
v -48.557739 138.087402 -260.205994
v -105.123352 193.875793 -308.673279
v -176.746216 61.116089 -353.842621
v -135.408875 20.346619 -318.423401
v -82.010193 44.529541 -352.908295
v -123.347595 85.298889 -388.327545
v -217.426941 562.854736 247.258514
v -322.328491 361.104889 120.262909
v -395.455444 511.978729 442.012421
v -481.558899 307.000092 314.002411
v -47.635559 259.493652 -81.870598
v -129.313293 340.049194 -151.854614
v -85.590149 106.297791 -248.071747
v -145.641418 165.523987 -299.525421
v -110.662292 11.703430 -353.229950
v -154.546936 54.985168 -390.831665
v -190.697327 -7.594360 -416.649750
v -149.359985 -48.363831 -381.230469
v -121.264038 -61.999756 -425.692963
v -165.148743 -18.718018 -463.294769
v -134.464355 12.363159 -459.306427
v -93.126953 -28.406250 -423.887238
v -199.674652 -56.503113 -462.468903
v -158.337341 -97.272583 -427.049713
v -130.241394 -110.908569 -471.512115
v -174.125977 -67.626709 -509.113922
v -143.441589 -36.545532 -505.125580
v -102.104187 -77.314941 -469.706390
v -217.018555 -102.364014 -471.747589
v -190.411499 -128.605408 -448.949921
v -172.327454 -137.382324 -477.568390
v -200.574005 -109.523682 -501.770905
v -150.489014 -84.874573 -556.553711
v -119.804504 -53.793274 -552.565247
v -78.467163 -94.562805 -517.146057
v -106.604309 -128.156250 -518.951843
v -230.170441 -132.988159 -477.954498
v -212.232727 -150.679443 -462.584808
v -200.041016 -156.596741 -481.878693
v -219.083984 -137.815125 -498.195465
v -236.143860 -162.649170 -494.511322
v -224.930908 -173.708130 -484.903473
v -217.309631 -177.406921 -496.964264
v -229.213654 -165.666443 -507.163910
v -125.473572 -96.000977 -575.327942
v -105.071106 -75.334717 -572.676025
v -77.585388 -102.442810 -549.125305
v -96.294128 -124.779541 -550.325928
vn 0.3774 -0.7843 0.4923
vn -0.2597 0.8287 -0.4958
vn -0.3776 0.7836 -0.4933
vn -0.3839 0.0545 0.9218
vn 0.5010 0.8653 0.0189
vn -0.7551 -0.5995 -0.2653
vn -0.2227 0.9240 -0.3108
vn 0.9056 0.3902 0.1663
vn -0.8476 -0.1605 -0.5057
vn 0.4149 -0.8738 0.2535
vn -0.8938 -0.2141 -0.3941
vn 0.9490 0.2246 0.2215
vn -0.8948 -0.2483 -0.3710
vn 0.2749 -0.9470 0.1664
vn 0.8905 0.3699 0.2648
vn 0.2797 -0.9480 0.1522
vn -0.2173 0.9206 -0.3244
vn 0.9592 0.1854 0.2134
vn 0.9011 0.4039 0.1576
vn 0.2367 -0.9321 0.2741
vn -0.8554 -0.3968 -0.3331
vn 0.9095 0.3730 0.1836
vn -0.8357 -0.4326 -0.3383
vn -0.7444 -0.5426 -0.3892
vn 0.6652 0.7448 0.0540
vn -0.8611 -0.1151 -0.4953
vn 0.8001 0.5068 0.3211
vn -0.6279 0.6928 0.3548
vn -0.2435 0.9355 -0.2559
vn -0.8941 -0.3607 -0.2655
vn -0.2539 0.9402 -0.2272
vn 0.9204 0.2593 0.2925
vn -0.8926 -0.3650 -0.2648
vn -0.9219 -0.2543 -0.2923
vn 0.8874 0.3508 0.2992
vn 0.0376 -0.7240 0.6888
vn 0.9193 0.2638 0.2920
vn 0.8905 0.3720 0.2621
vn -0.9217 -0.2520 -0.2949
vn 0.2435 -0.9355 0.2559
vn 0.1174 0.4495 -0.8856
vn -0.7731 -0.5142 -0.3713
vn 0.9817 0.0901 0.1680
vn 0.1289 0.4254 -0.8958
vn 0.8597 0.5096 -0.0342
vn -0.9265 -0.2738 -0.2583
vn -0.4090 0.8061 0.4277
vn 0.4090 -0.8061 -0.4277
vn -0.0770 0.7790 -0.6223
vn 0.9748 0.1187 0.1888
vn -0.7955 -0.4909 -0.3553
vn 0.0257 -0.7061 0.7076
vn 0.4165 -0.7472 -0.5180
vn 0.9725 0.1272 0.1949
vn -0.8021 -0.4836 -0.3503
vn 0.1768 -0.8895 0.4213
vn 0.0912 0.5025 -0.8597
vn -0.8297 -0.0722 -0.5535
vn 0.4190 -0.6637 -0.6196
vn -0.3757 0.9023 0.2114
vn 0.6993 -0.5729 0.4276
vn 0.1677 0.9076 -0.3849
vn -0.6833 0.5890 -0.4315
vn -0.4104 -0.3528 0.8409
vn -0.0272 0.9708 0.2383
vn -0.2914 -0.8321 -0.4719
vn 0.7700 0.3000 -0.5631
vn 0.9319 0.3625 -0.0063
vn -0.7445 -0.2575 -0.6160
vn 0.2317 -0.8982 0.3737
vn -0.5209 0.5643 -0.6405
vn 0.5162 -0.6844 0.5150
vn -0.5514 0.5662 -0.6128
vn -0.7811 -0.4143 0.4671
vn 0.6550 -0.5757 0.4894
vn -0.7928 -0.4204 0.4413
vn 0.7708 0.2877 -0.5685
vn 0.4978 -0.7036 0.5071
vn 0.6807 -0.6208 0.3890
vn -0.7801 -0.3284 0.5325
vn -0.6756 0.5099 -0.5325
vn 0.6827 -0.6057 0.4088
vn -0.7037 0.4815 -0.5225
vn -0.6469 -0.7103 -0.2773
vn 0.5844 0.7783 -0.2295
vn -0.6352 -0.4294 -0.6420
vn 0.3848 0.7498 0.5382
vn -0.9232 0.1738 0.3427
vn 0.7829 0.3427 -0.5192
vn -0.6475 0.5809 -0.4932
vn 0.7866 0.3648 -0.4981
vn 0.5626 -0.6183 0.5488
vn -0.6511 0.5787 -0.4911
vn -0.5583 0.6209 -0.5502
vn 0.6392 -0.5635 0.5234
vn -0.6083 0.0701 0.7906
vn 0.5664 -0.6164 0.5470
vn 0.6568 -0.5762 0.4864
vn -0.5563 0.6202 -0.5530
vn -0.7829 -0.3427 0.5192
vn 0.3799 -0.3564 -0.8536
vn -0.7640 0.3925 -0.5121
vn 0.4107 -0.7660 0.4945
vn 0.3598 -0.3767 -0.8536
vn 0.7497 -0.6375 0.1778
vn -0.5750 0.6340 -0.5170
vn 0.6714 0.7382 0.0661
vn -0.6714 -0.7382 -0.0661
vn 0.6539 0.0058 -0.7565
vn 0.4375 -0.7442 0.5047
vn -0.7476 0.4246 -0.5107
vn -0.5935 0.0928 0.7995
vn -0.6217 -0.7672 -0.1576
vn 0.4454 -0.7375 0.5076
vn -0.7424 0.4343 -0.5102
vn -0.7453 -0.2042 0.6347
vn 0.4241 -0.3094 -0.8511
vn -0.3813 0.4780 -0.7913
vn -0.5515 -0.7905 -0.2663
vn 0.7529 0.6436 -0.1378
usemtl Matériau.012
s off
f 131//26 132//26 134//26 133//26
f 138//27 137//27 141//27 142//27
f 137//28 138//28 136//28 135//28
f 153//29 154//29 132//29 131//29
f 151//30 137//30 135//30 153//30
f 152//31 134//31 132//31 154//31
f 142//32 141//32 145//32 146//32
f 151//33 133//33 140//33 155//33
f 152//34 138//34 142//34 156//34
f 133//35 134//35 139//35 140//35
f 158//36 146//36 150//36 160//36
f 155//37 140//37 144//37 157//37
f 156//38 142//38 146//38 158//38
f 140//39 139//39 143//39 144//39
f 149//40 159//40 163//40 166//40
f 144//41 143//41 147//41 148//41
f 146//42 145//42 149//42 150//42
f 157//43 144//43 148//43 159//43
f 145//44 157//44 159//44 149//44
f 148//45 147//45 161//45 162//45
f 139//46 156//46 158//46 143//46
f 141//47 155//47 157//47 145//47
f 143//48 158//48 160//48 147//48
f 134//49 152//49 156//49 139//49
f 137//50 151//50 155//50 141//50
f 138//51 152//51 154//51 136//51
f 133//52 151//52 153//52 131//52
f 135//53 136//53 154//53 153//53
f 165//54 166//54 172//54 171//54
f 161//55 164//55 170//55 167//55
f 150//56 149//56 166//56 165//56
f 159//57 148//57 162//57 163//57
f 147//58 160//58 164//58 161//58
f 160//59 150//59 165//59 164//59
f 172//60 169//60 180//60 179//60
f 168//61 167//61 173//61 174//61
f 163//62 162//62 168//62 169//62
f 166//63 163//63 169//63 172//63
f 164//64 165//64 171//64 170//64
f 162//65 161//65 167//65 168//65
f 176//66 175//66 183//66 184//66
f 167//67 170//67 176//67 173//67
f 169//68 168//68 174//68 175//68
f 170//69 169//69 175//69 176//69
f 179//70 180//70 192//70 191//70
f 170//71 171//71 178//71 177//71
f 171//72 172//72 179//72 178//72
f 169//73 170//73 177//73 180//73
f 184//74 183//74 187//74 188//74
f 175//75 174//75 182//75 183//75
f 173//76 176//76 184//76 181//76
f 174//77 173//77 181//77 182//77
f 186//78 185//78 188//78 187//78
f 183//79 182//79 186//79 187//79
f 181//80 184//80 188//80 185//80
f 182//81 181//81 185//81 186//81
f 192//82 189//82 190//82 191//82
f 177//83 178//83 190//83 189//83
f 180//84 177//84 189//84 192//84
f 178//85 179//85 191//85 190//85
f 193//86 194//86 196//86 195//86
f 200//87 199//87 203//87 204//87
f 199//88 200//88 198//88 197//88
f 215//89 216//89 194//89 193//89
f 213//90 199//90 197//90 215//90
f 214//91 196//91 194//91 216//91
f 204//92 203//92 207//92 208//92
f 213//93 195//93 202//93 217//93
f 214//94 200//94 204//94 218//94
f 195//95 196//95 201//95 202//95
f 220//96 208//96 212//96 222//96
f 217//97 202//97 206//97 219//97
f 218//98 204//98 208//98 220//98
f 202//99 201//99 205//99 206//99
f 211//100 221//100 225//100 228//100
f 206//101 205//101 209//101 210//101
f 208//102 207//102 211//102 212//102
f 219//103 206//103 210//103 221//103
f 207//104 219//104 221//104 211//104
f 210//105 209//105 223//105 224//105
f 201//106 218//106 220//106 205//106
f 203//107 217//107 219//107 207//107
f 205//108 220//108 222//108 209//108
f 196//109 214//109 218//109 201//109
f 199//110 213//110 217//110 203//110
f 200//111 214//111 216//111 198//111
f 195//112 213//112 215//112 193//112
f 197//113 198//113 216//113 215//113
f 227//114 228//114 234//114 233//114
f 223//115 226//115 232//115 229//115
f 212//116 211//116 228//116 227//116
f 221//117 210//117 224//117 225//117
f 209//118 222//118 226//118 223//118
f 222//119 212//119 227//119 226//119
f 234//120 231//120 242//120 241//120
f 230//121 229//121 235//121 236//121
f 225//122 224//122 230//122 231//122
f 228//123 225//123 231//123 234//123
f 226//124 227//124 233//124 232//124
f 224//125 223//125 229//125 230//125
f 238//126 237//126 245//126 246//126
f 229//127 232//127 238//127 235//127
f 231//128 230//128 236//128 237//128
f 232//129 231//129 237//129 238//129
f 241//130 242//130 254//130 253//130
f 232//131 233//131 240//131 239//131
f 233//132 234//132 241//132 240//132
f 231//133 232//133 239//133 242//133
f 246//134 245//134 249//134 250//134
f 237//135 236//135 244//135 245//135
f 235//136 238//136 246//136 243//136
f 236//137 235//137 243//137 244//137
f 248//138 247//138 250//138 249//138
f 245//139 244//139 248//139 249//139
f 243//140 246//140 250//140 247//140
f 244//141 243//141 247//141 248//141
f 254//142 251//142 252//142 253//142
f 239//143 240//143 252//143 251//143
f 242//144 239//144 251//144 254//144
f 240//145 241//145 253//145 252//145
