# Blender v2.91.2 OBJ File: 'camionnete02.blend'
# www.blender.org
mtllib arme_000021.mtl
o Cube.046_Cube.010
v 366.649200 225.001038 -1021.327881
v 367.915314 4.597946 -1021.274902
v 485.270447 225.637817 -1207.090332
v 486.536560 5.234741 -1207.037476
v 180.889954 223.905457 -1139.950806
v 182.156021 3.502350 -1139.897827
v 299.511169 224.542267 -1325.713257
v 300.777283 4.139145 -1325.660400
v 203.331253 224.124268 -765.569702
v 204.597351 3.721222 -765.516724
v 18.838100 2.625626 -884.139648
v 17.572010 223.028717 -884.192566
v 129.419189 223.727509 -649.822205
v 130.685272 3.324417 -649.769348
v -55.074036 2.228821 -768.392212
v -56.340126 222.631927 -768.445190
v 85.755219 223.493103 -581.443909
v 94.114136 63.209305 -592.739990
v -91.645210 62.113739 -711.362915
v -100.004105 222.397552 -700.066772
v 128.156982 443.449219 -649.875061
v -57.602276 442.353638 -768.498047
v 84.493050 443.214844 -581.496704
v -101.266228 442.119263 -700.119629
v 228.811874 224.261047 -805.472656
v 230.077972 3.858002 -805.419739
v 43.052601 223.165497 -924.095581
v 44.318665 2.762405 -924.042664
v 202.913315 296.880981 -765.587158
v 17.154047 295.785461 -884.210144
v 228.393921 297.017761 -805.490112
v 42.634636 295.922180 -924.112976
v 202.306976 402.439087 -765.612549
v 16.547697 401.343506 -884.235352
v 227.787537 402.575867 -805.515503
v 42.028301 401.480286 -924.138367
v 130.671768 296.493164 -652.455811
v -55.087540 295.397583 -771.078735
v 130.065384 402.051331 -652.481140
v -55.693905 400.955688 -771.104065
v 154.939651 580.380798 -693.080322
v -30.819626 579.285217 -811.703308
v 111.275681 580.146423 -624.702026
v -74.483551 579.050781 -743.324890
v 443.393463 225.413025 -1141.510498
v 444.659576 5.009933 -1141.457642
v 257.634186 224.317444 -1260.133301
v 258.900299 3.914337 -1260.080444
v 392.390808 225.090057 -1266.401855
v 393.656921 4.686935 -1266.348999
v 273.769592 224.453247 -1080.639404
v 275.035675 4.050156 -1080.586426
v 110.451637 223.576477 -824.881104
v 111.717712 3.173416 -824.828125
v 36.539539 223.179749 -709.133728
v 37.805614 2.776627 -709.080811
v -7.124417 222.945312 -640.755371
v 1.234482 62.661530 -652.051453
v 35.277336 442.901489 -709.186462
v -8.386593 442.667053 -640.808167
v 137.198318 3.310211 -864.731140
v 135.932236 223.713257 -864.784119
v 110.033684 296.333221 -824.898682
v 135.514282 296.469940 -864.801514
v 109.427338 401.891357 -824.923950
v 134.907928 402.028076 -864.826965
v 37.792110 295.945404 -711.767334
v 37.185745 401.503540 -711.792603
v 62.059998 579.833069 -752.391846
v 18.396044 579.598572 -684.013489
v 351.779907 4.462143 -1200.769043
v 350.513824 224.865234 -1200.821899
v 438.830627 225.363922 -1236.745972
v 321.475494 4.324051 -1050.930664
v 158.157532 3.447327 -795.172485
v 84.245422 3.050522 -679.425110
v 47.674301 62.935410 -622.395752
v 182.372055 223.987152 -835.128357
v 181.954102 296.743835 -835.145813
v 181.347733 402.301941 -835.171204
v 396.953674 225.139130 -1171.166260
v 440.096741 4.960846 -1236.693237
v 320.209381 224.727142 -1050.983765
v 156.891449 223.850372 -795.225464
v 82.979347 223.453613 -679.477966
v 39.315388 223.219208 -611.099609
v 81.717178 443.175354 -679.530762
v 38.053242 442.940918 -611.152466
v 183.638153 3.584106 -835.075439
v 156.473511 296.607117 -795.242920
v 155.867142 402.165222 -795.268250
v 84.231934 296.219299 -682.111572
v 83.625565 401.777405 -682.136841
v 108.499847 580.106934 -722.736023
v 64.835876 579.872437 -654.357727
v 398.219727 4.736038 -1171.113403
v 183.875214 -37.683357 -835.065552
v 137.435379 -37.957275 -864.721252
v 398.456787 -36.531433 -1171.103516
v 352.016998 -36.805344 -1200.759155
v 275.272736 -37.217331 -1080.576538
v 321.712555 -36.943420 -1050.920776
v 500.649750 164.288391 -1057.970215
v 466.714203 164.106201 -1004.826721
v 467.274170 66.646225 -1004.803162
v 501.209625 66.828400 -1057.946899
v 540.791382 164.525177 -1032.336548
v 506.855865 164.342987 -979.192993
v 507.415771 66.883011 -979.169556
v 541.351257 67.065170 -1032.313110
v 602.220886 164.887482 -993.108826
v 568.285339 164.705292 -939.965210
v 568.845215 67.245346 -939.941772
v 602.780701 67.427521 -993.085449
v 641.749939 165.120636 -967.866211
v 607.814392 164.938446 -914.722656
v 608.374390 67.478470 -914.699219
v 642.309814 67.660645 -967.842773
v 829.790344 7.053131 -1846.958008
v 783.350525 6.779236 -1876.613770
v 782.084290 227.182343 -1876.666748
v 828.524231 227.456238 -1847.010986
vn 0.8428 0.0050 0.5382
vn 0.5382 0.0029 -0.8428
vn -0.8428 -0.0050 -0.5382
vn -0.0057 1.0000 -0.0002
vn 0.0057 -1.0000 0.0002
vn -0.5382 -0.0029 0.8428
vn -0.3533 -0.7492 0.5602
vn -0.5358 -0.0871 0.8398
vn -0.8435 -0.0055 -0.5371
vn 0.8435 0.0055 0.5371
vn 0.5060 -0.3480 -0.7892
vn -0.5060 0.3480 0.7892
vn 0.8264 0.0046 -0.5630
vn -0.1631 -0.0007 0.9866
vn 0.4698 -0.8312 0.2972
vn 0.4602 0.8367 0.2968
usemtl Matériau.011
s off
f 45//1 46//1 4//1 3//1
f 49//2 50//2 8//2 7//2
f 47//3 48//3 6//3 5//3
f 26//1 25//1 9//1 10//1
f 72//4 47//4 5//4 51//4
f 96//5 46//5 2//5 74//5
f 10//1 9//1 13//1 14//1
f 84//6 9//6 29//6 90//6
f 89//5 26//5 10//5 75//5
f 27//3 28//3 11//3 12//3
f 76//7 14//7 18//7 77//7
f 75//5 10//5 14//5 76//5
f 12//3 11//3 15//3 16//3
f 53//4 12//4 16//4 55//4
f 86//8 77//8 18//8 17//8
f 16//9 15//9 19//9 20//9
f 16//3 20//3 24//3 22//3
f 14//10 13//10 17//10 18//10
f 59//11 22//11 42//11 69//11
f 86//6 17//6 23//6 88//6
f 17//1 13//1 21//1 23//1
f 55//2 16//2 22//2 59//2
f 5//3 6//3 28//3 27//3
f 74//5 2//5 26//5 89//5
f 51//4 5//4 27//4 62//4
f 2//1 1//1 25//1 26//1
f 32//3 30//3 34//3 36//3
f 62//2 27//2 32//2 64//2
f 27//3 12//3 30//3 32//3
f 9//1 25//1 31//1 29//1
f 66//4 36//4 34//4 65//4
f 90//5 29//5 37//5 92//5
f 64//2 32//2 36//2 66//2
f 29//1 31//1 35//1 33//1
f 92//6 37//6 39//6 93//6
f 29//1 33//1 39//1 37//1
f 34//3 30//3 38//3 40//3
f 65//4 34//4 40//4 68//4
f 69//4 42//4 44//4 70//4
f 23//1 21//1 41//1 43//1
f 88//12 23//12 43//12 95//12
f 22//3 24//3 44//3 42//3
f 82//5 4//5 46//5 96//5
f 49//4 7//4 47//4 72//4
f 7//3 8//3 48//3 47//3
f 46//13 45//13 103//13 106//13
f 73//4 49//4 72//4 81//4
f 8//5 50//5 71//5 48//5
f 24//12 60//12 70//12 44//12
f 94//4 69//4 70//4 95//4
f 91//4 65//4 68//4 93//4
f 38//6 67//6 68//6 40//6
f 79//2 64//2 66//2 80//2
f 30//5 63//5 67//5 38//5
f 80//4 66//4 65//4 91//4
f 78//2 62//2 64//2 79//2
f 83//4 51//4 62//4 78//4
f 6//5 52//5 61//5 28//5
f 85//2 55//2 59//2 87//2
f 20//6 57//6 60//6 24//6
f 87//11 59//11 69//11 94//11
f 20//8 19//8 58//8 57//8
f 84//4 53//4 55//4 85//4
f 11//5 54//5 56//5 15//5
f 15//7 56//7 58//7 19//7
f 28//5 61//5 54//5 11//5
f 12//6 53//6 63//6 30//6
f 48//5 71//5 52//5 6//5
f 81//4 72//4 51//4 83//4
f 50//3 49//3 121//3 120//3
f 3//2 4//2 82//2 73//2
f 45//4 81//4 83//4 1//4
f 9//4 84//4 85//4 13//4
f 21//11 87//11 94//11 41//11
f 13//2 85//2 87//2 21//2
f 1//4 83//4 78//4 25//4
f 25//2 78//2 79//2 31//2
f 35//4 80//4 91//4 33//4
f 31//2 79//2 80//2 35//2
f 33//4 91//4 93//4 39//4
f 41//4 94//4 95//4 43//4
f 3//4 73//4 81//4 45//4
f 50//5 82//5 96//5 71//5
f 60//12 88//12 95//12 70//12
f 67//6 92//6 93//6 68//6
f 63//5 90//5 92//5 67//5
f 52//3 71//3 100//3 101//3
f 57//6 86//6 88//6 60//6
f 57//8 58//8 77//8 86//8
f 54//5 75//5 76//5 56//5
f 56//7 76//7 77//7 58//7
f 61//5 89//5 75//5 54//5
f 53//6 84//6 90//6 63//6
f 89//6 61//6 98//6 97//6
f 101//5 102//5 97//5 98//5
f 100//5 99//5 102//5 101//5
f 61//3 52//3 101//3 98//3
f 74//1 89//1 97//1 102//1
f 71//2 96//2 99//2 100//2
f 96//1 74//1 102//1 99//1
f 106//2 103//2 107//2 110//2
f 1//14 2//14 105//14 104//14
f 2//15 46//15 106//15 105//15
f 45//16 1//16 104//16 103//16
f 109//5 110//5 114//5 113//5
f 104//6 105//6 109//6 108//6
f 105//5 106//5 110//5 109//5
f 103//4 104//4 108//4 107//4
f 113//5 114//5 118//5 117//5
f 107//4 108//4 112//4 111//4
f 110//2 107//2 111//2 114//2
f 108//6 109//6 113//6 112//6
f 116//1 117//1 118//1 115//1
f 111//4 112//4 116//4 115//4
f 114//2 111//2 115//2 118//2
f 122//2 119//2 120//2 121//2
f 82//5 50//5 120//5 119//5
f 73//1 82//1 119//1 122//1
f 49//4 73//4 122//4 121//4
o Cube.047_Cube.022
v -253.185760 503.243286 288.334717
v -248.912979 262.564453 309.618958
v -134.661011 486.780823 78.386024
v -130.388245 246.101990 99.670258
v -433.817627 426.442993 124.614807
v -431.626862 303.040222 135.527832
v -373.046692 418.002197 16.968246
v -370.855896 294.599457 27.881271
v 9.176788 273.548462 -271.255127
v 6.938690 399.617218 -282.403931
v -103.348328 392.204620 -344.084290
v -101.110229 266.135864 -332.935486
v 99.850159 274.594025 -467.898926
v 98.204651 367.282593 -476.095825
v 17.119141 361.832703 -521.444580
v 18.764648 269.144135 -513.247681
v 154.794586 277.158691 -592.158325
v 153.592072 344.894287 -598.148438
v 94.335846 340.911560 -631.288696
v 95.538361 273.175964 -625.298584
v -249.074860 488.371857 34.808060
v -244.538773 232.861664 57.403900
v -374.903473 505.848785 257.694489
v -370.367401 250.338593 280.290314
v -45.528702 399.414001 -318.450073
v -43.152695 265.576538 -306.614258
v 66.861847 366.128662 -515.408813
v 68.608734 267.728333 -506.706909
v 137.249603 343.139496 -638.502319
v 138.526215 271.229828 -632.143066
v 204.013306 270.957947 -672.155579
v 202.810791 338.693573 -678.145691
v 186.271606 335.933472 -729.827942
v 187.548218 264.023804 -723.468689
v 144.590576 266.124451 -714.882935
v 143.388062 333.860077 -720.873047
v 238.223328 266.423035 -730.303406
v 237.020813 334.158661 -736.293518
v 220.481567 331.398560 -787.975830
v 221.758179 259.488892 -781.616577
v 178.800598 261.589539 -773.030762
v 177.598083 329.325165 -779.020874
v 280.248169 277.153778 -754.978943
v 279.474121 320.752106 -758.834534
v 268.828674 318.975555 -792.100037
v 269.650330 272.690582 -788.006897
v 210.642944 254.481766 -836.004822
v 167.685303 256.582428 -827.419067
v 166.482788 324.318024 -833.409180
v 209.366333 326.391449 -842.364075
v 309.492249 283.421783 -770.942383
v 308.970398 312.814575 -773.541748
v 301.793518 311.616882 -795.968445
v 302.347473 280.412811 -793.208923
v 331.712769 287.055298 -797.069580
v 331.386536 305.429077 -798.694458
v 326.900208 304.680389 -812.713745
v 327.246460 285.174347 -810.988770
v 197.249237 263.834320 -864.904236
v 168.686157 265.231079 -859.195435
v 167.886597 310.269348 -863.178345
v 196.400421 311.647980 -869.132629
vn 0.8713 0.0586 0.4873
vn -0.8017 -0.0668 -0.5940
vn -0.8713 -0.0586 -0.4873
vn -0.2417 0.0812 0.9670
vn -0.4347 0.8449 -0.3117
vn 0.0712 -0.9905 0.1179
vn -0.8306 -0.0637 -0.5532
vn 0.1000 0.9762 -0.1925
vn -0.2661 -0.9473 -0.1785
vn 0.9337 0.0480 0.3549
vn -0.0363 -0.9979 -0.0541
vn 0.0908 0.9888 -0.1188
vn -0.0120 -0.9997 -0.0208
vn 0.9067 0.0531 0.4184
vn -0.0717 0.9905 -0.1169
vn 0.9129 0.0520 0.4048
vn -0.8221 -0.0646 -0.5656
vn 0.1316 0.9846 -0.1147
vn -0.0713 0.9710 -0.2282
vn 0.8522 0.0611 0.5196
vn 0.1259 -0.9904 0.0563
vn -0.0471 0.9795 -0.1959
vn 0.1666 -0.9842 0.0594
vn 0.1349 -0.9907 -0.0185
vn -0.2988 0.8913 -0.3411
vn -0.4037 -0.9013 -0.1573
vn 0.0359 0.9977 -0.0579
vn -0.9183 0.0187 0.3954
vn -0.8624 -0.0598 -0.5027
vn 0.0623 -0.9915 0.1140
vn -0.8776 -0.0577 -0.4760
vn 0.0313 0.9977 -0.0601
vn 0.0666 -0.9910 0.1157
vn -0.0364 -0.9976 0.0589
vn -0.0645 0.9948 -0.0784
vn 0.4882 0.0855 0.8686
vn 0.0270 0.9977 -0.0619
vn -0.0730 0.9901 -0.1201
vn -0.0377 -0.9977 0.0557
vn 0.8624 0.0598 0.5027
vn -0.1358 -0.0897 -0.9867
vn 0.2708 -0.9617 0.0430
vn 0.2367 0.9632 -0.1272
vn -0.1075 -0.0895 -0.9902
vn -0.1326 0.8939 -0.4281
vn -0.0292 -0.9948 0.0975
vn -0.9798 0.0003 0.2002
vn 0.9798 -0.0003 -0.2002
vn -0.5687 -0.0825 -0.8184
vn 0.2033 0.9721 -0.1170
vn 0.2378 -0.9698 0.0548
vn 0.4630 0.0862 0.8821
vn 0.9525 -0.0100 -0.3043
vn 0.1933 0.9745 -0.1139
vn 0.2275 -0.9720 0.0583
vn 0.7549 0.0711 0.6519
vn -0.1994 -0.0898 -0.9758
vn -0.0997 -0.9593 -0.2642
vn 0.9044 -0.0216 -0.4261
vn -0.9991 -0.0210 -0.0372
usemtl Matériau.012
s off
f 123//17 124//17 126//17 125//17
f 130//18 129//18 133//18 134//18
f 129//19 130//19 128//19 127//19
f 145//20 146//20 124//20 123//20
f 143//21 129//21 127//21 145//21
f 144//22 126//22 124//22 146//22
f 134//23 133//23 137//23 138//23
f 143//24 125//24 132//24 147//24
f 144//25 130//25 134//25 148//25
f 125//26 126//26 131//26 132//26
f 150//27 138//27 142//27 152//27
f 147//28 132//28 136//28 149//28
f 148//29 134//29 138//29 150//29
f 132//30 131//30 135//30 136//30
f 141//31 151//31 155//31 158//31
f 136//32 135//32 139//32 140//32
f 138//33 137//33 141//33 142//33
f 149//34 136//34 140//34 151//34
f 137//35 149//35 151//35 141//35
f 140//36 139//36 153//36 154//36
f 131//37 148//37 150//37 135//37
f 133//38 147//38 149//38 137//38
f 135//39 150//39 152//39 139//39
f 126//40 144//40 148//40 131//40
f 129//41 143//41 147//41 133//41
f 130//42 144//42 146//42 128//42
f 125//43 143//43 145//43 123//43
f 127//44 128//44 146//44 145//44
f 157//45 158//45 164//45 163//45
f 153//46 156//46 162//46 159//46
f 142//47 141//47 158//47 157//47
f 151//48 140//48 154//48 155//48
f 139//49 152//49 156//49 153//49
f 152//50 142//50 157//50 156//50
f 164//51 161//51 172//51 171//51
f 160//52 159//52 165//52 166//52
f 155//53 154//53 160//53 161//53
f 158//54 155//54 161//54 164//54
f 156//55 157//55 163//55 162//55
f 154//56 153//56 159//56 160//56
f 168//57 167//57 175//57 176//57
f 159//58 162//58 168//58 165//58
f 161//59 160//59 166//59 167//59
f 162//60 161//60 167//60 168//60
f 171//61 172//61 184//61 183//61
f 162//62 163//62 170//62 169//62
f 163//63 164//63 171//63 170//63
f 161//64 162//64 169//64 172//64
f 176//65 175//65 179//65 180//65
f 167//66 166//66 174//66 175//66
f 165//67 168//67 176//67 173//67
f 166//68 165//68 173//68 174//68
f 178//69 177//69 180//69 179//69
f 175//70 174//70 178//70 179//70
f 173//71 176//71 180//71 177//71
f 174//72 173//72 177//72 178//72
f 184//73 181//73 182//73 183//73
f 169//74 170//74 182//74 181//74
f 172//75 169//75 181//75 184//75
f 170//76 171//76 183//76 182//76
o Cube.048_Cube.024
v -528.466187 345.772461 136.763229
v -689.954346 199.297028 32.532276
v -385.734741 326.493530 -57.282246
v -547.222900 180.018097 -161.513184
v -642.337830 496.623779 -35.305054
v -725.137329 421.521729 -88.747177
v -569.155396 486.738922 -134.797607
v -651.954956 411.636871 -188.239716
v -305.133667 229.405121 -472.593719
v -220.545349 306.129669 -417.997040
v -277.798187 406.299500 -470.061859
v -362.386475 329.574951 -524.658569
v -174.383392 235.652130 -645.095581
v -112.192139 292.061768 -604.954834
v -154.285736 365.708862 -643.234070
v -216.476959 309.299255 -683.374817
v -92.101685 242.410126 -753.030273
v -46.653198 283.633514 -723.695984
v -77.414612 337.453888 -751.669983
v -122.863098 296.230469 -781.004272
v -446.256836 428.089294 -89.022934
v -617.696411 272.587585 -199.676910
v -597.783875 448.556274 116.980270
v -769.223389 293.054565 6.326283
v -243.259766 358.132080 -446.841400
v -333.060669 276.679535 -504.802490
v -120.182800 329.118713 -638.002563
v -186.206451 269.232941 -680.616882
v -44.589844 309.646820 -758.590698
v -92.839050 265.883087 -789.732666
v -34.943298 232.105316 -827.106140
v 10.505188 273.328705 -797.771851
v 15.764099 303.109650 -842.912292
v -32.485107 259.345947 -874.054260
v -63.000366 289.114166 -863.750916
v -17.551880 330.337585 -834.416626
v 5.533264 225.756958 -880.896484
v 50.981750 266.980377 -851.562195
v 56.240723 296.761322 -896.702576
v 7.991516 252.997620 -927.844543
v -22.523743 282.765839 -917.541260
v 22.924744 323.989227 -888.206970
v 49.442383 209.847778 -898.474854
v 78.695557 236.381409 -879.593689
v 82.080505 255.550018 -908.648560
v 51.024719 227.381287 -928.693237
v 16.381836 278.504272 -976.688416
v -14.133423 308.272522 -966.385071
v 31.315063 349.495911 -937.050781
v 64.631042 322.268005 -945.546448
v 78.791565 197.655457 -910.278076
v 98.513245 215.543701 -897.548950
v 100.795288 228.466675 -917.136963
v 79.858276 209.476105 -930.650513
v 105.277405 192.930847 -931.859497
v 117.605652 204.113007 -923.902344
v 119.032288 212.191315 -936.147095
v 105.944336 200.320068 -944.594543
v 23.638916 304.353851 -996.212097
v 3.348999 324.147125 -989.361267
v 33.568237 351.557068 -969.856506
v 55.720459 333.452881 -975.505432
vn 0.4523 -0.7914 0.4113
vn -0.3733 0.7747 -0.5103
vn -0.4523 0.7914 -0.4113
vn -0.4494 -0.1331 0.8833
vn 0.3682 0.9121 0.1802
vn -0.6392 -0.6537 -0.4052
vn -0.4051 0.7828 -0.4724
vn 0.7711 0.5466 0.3264
vn -0.7335 -0.2703 -0.6236
vn 0.5339 -0.7945 0.2893
vn -0.6558 -0.5147 -0.5522
vn 0.7472 0.5332 0.3966
vn -0.6523 -0.5461 -0.5256
vn 0.4968 -0.7952 0.3477
vn 0.6386 0.6537 0.4061
vn 0.5050 -0.7953 0.3352
vn -0.3957 0.7806 -0.4839
vn 0.7706 0.4992 0.3962
vn 0.6652 0.6835 0.3004
vn 0.4298 -0.7878 0.4412
vn -0.5808 -0.6713 -0.4605
vn 0.6757 0.6585 0.3315
vn -0.5505 -0.6990 -0.4565
vn -0.5486 -0.6504 -0.5254
vn 0.5001 0.8486 0.1726
vn -0.8034 -0.1506 -0.5760
vn 0.6948 0.5563 0.4558
vn -0.7439 0.5433 0.3891
vn -0.4417 0.7898 -0.4256
vn -0.6445 -0.6462 -0.4087
vn -0.4599 0.7923 -0.4009
vn 0.6925 0.5606 0.4541
vn -0.6419 -0.6498 -0.4071
vn -0.6954 -0.5563 -0.4549
vn 0.6327 0.6365 0.4411
vn 0.0784 -0.6339 0.7694
vn 0.6902 0.5644 0.4528
vn 0.6386 0.6555 0.4031
vn -0.6952 -0.5542 -0.4577
vn 0.4417 -0.7898 0.4256
vn 0.1972 0.4147 -0.8883
vn -0.4600 -0.7573 -0.4635
vn 0.8316 0.4141 0.3701
vn 0.2176 0.3952 -0.8925
vn 0.6441 0.7594 0.0919
vn -0.7023 -0.5744 -0.4206
vn -0.7285 0.6505 0.2146
vn 0.7285 -0.6505 -0.2146
vn -0.1481 0.6766 -0.7213
vn 0.8113 0.4400 0.3848
vn -0.4916 -0.7418 -0.4561
vn 0.0572 -0.6199 0.7826
vn 0.7405 -0.5974 -0.3078
vn 0.8051 0.4476 0.3891
vn -0.5012 -0.7368 -0.4538
vn 0.3244 -0.7592 0.5643
vn 0.1505 0.4576 -0.8763
vn -0.5994 -0.3685 -0.7106
vn 0.7434 -0.5233 -0.4165
vn -0.6720 0.7406 0.0004
usemtl Matériau.012
s off
f 185//77 186//77 188//77 187//77
f 192//78 191//78 195//78 196//78
f 191//79 192//79 190//79 189//79
f 207//80 208//80 186//80 185//80
f 205//81 191//81 189//81 207//81
f 206//82 188//82 186//82 208//82
f 196//83 195//83 199//83 200//83
f 205//84 187//84 194//84 209//84
f 206//85 192//85 196//85 210//85
f 187//86 188//86 193//86 194//86
f 212//87 200//87 204//87 214//87
f 209//88 194//88 198//88 211//88
f 210//89 196//89 200//89 212//89
f 194//90 193//90 197//90 198//90
f 203//91 213//91 217//91 220//91
f 198//92 197//92 201//92 202//92
f 200//93 199//93 203//93 204//93
f 211//94 198//94 202//94 213//94
f 199//95 211//95 213//95 203//95
f 202//96 201//96 215//96 216//96
f 193//97 210//97 212//97 197//97
f 195//98 209//98 211//98 199//98
f 197//99 212//99 214//99 201//99
f 188//100 206//100 210//100 193//100
f 191//101 205//101 209//101 195//101
f 192//102 206//102 208//102 190//102
f 187//103 205//103 207//103 185//103
f 189//104 190//104 208//104 207//104
f 219//105 220//105 226//105 225//105
f 215//106 218//106 224//106 221//106
f 204//107 203//107 220//107 219//107
f 213//108 202//108 216//108 217//108
f 201//109 214//109 218//109 215//109
f 214//110 204//110 219//110 218//110
f 226//111 223//111 234//111 233//111
f 222//112 221//112 227//112 228//112
f 217//113 216//113 222//113 223//113
f 220//114 217//114 223//114 226//114
f 218//115 219//115 225//115 224//115
f 216//116 215//116 221//116 222//116
f 230//117 229//117 237//117 238//117
f 221//118 224//118 230//118 227//118
f 223//119 222//119 228//119 229//119
f 224//120 223//120 229//120 230//120
f 233//121 234//121 246//121 245//121
f 224//122 225//122 232//122 231//122
f 225//123 226//123 233//123 232//123
f 223//124 224//124 231//124 234//124
f 238//125 237//125 241//125 242//125
f 229//126 228//126 236//126 237//126
f 227//127 230//127 238//127 235//127
f 228//128 227//128 235//128 236//128
f 240//129 239//129 242//129 241//129
f 237//130 236//130 240//130 241//130
f 235//131 238//131 242//131 239//131
f 236//132 235//132 239//132 240//132
f 246//133 243//133 244//133 245//133
f 231//134 232//134 244//134 243//134
f 234//135 231//135 243//135 246//135
f 232//136 233//136 245//136 244//136
