# Blender v2.91.2 OBJ File: 'camionnete02.blend'
# www.blender.org
mtllib arme_000073.mtl
o Cube.046_Cube.010
v 275.421143 646.733948 -1093.020020
v 265.761841 426.703430 -1101.528809
v 363.757935 650.663391 -1294.911743
v 354.098602 430.632904 -1303.420654
v 73.722351 658.992126 -1181.033813
v 64.063004 438.961578 -1189.542725
v 162.059158 662.921570 -1382.925415
v 152.399841 442.891052 -1391.434448
v 153.798828 641.323792 -815.055176
v 144.139526 421.293365 -823.563965
v -57.559246 433.551544 -911.577759
v -47.899921 653.582031 -903.068848
v 98.756805 638.875427 -689.257629
v 89.097458 418.844940 -697.766602
v -112.601349 431.103088 -785.780334
v -102.942032 651.133606 -777.271484
v 66.240395 637.429016 -614.942322
v 64.801590 477.608521 -633.481750
v -136.897263 489.866730 -721.495544
v -135.458435 649.687256 -702.955994
v 172.774170 642.167908 -858.422729
v 163.114853 422.137451 -866.931641
v -28.924625 654.426086 -946.436523
v -38.583969 434.395599 -954.945374
v 332.572296 649.276184 -1223.637817
v 322.912994 429.245697 -1232.146729
v 130.873520 661.534363 -1311.651489
v 121.214218 441.503845 -1320.160400
v 262.908539 656.792480 -1338.918701
v 253.249222 436.761932 -1347.427612
v 174.571777 652.863037 -1137.026978
v 164.912445 432.832489 -1145.535767
v 52.949467 647.452942 -859.061951
v 43.290123 427.422424 -867.570801
v -2.092609 645.004517 -733.264526
v -7.496910 434.044525 -727.721558
v -34.608997 643.558105 -658.949097
v -23.879684 473.669037 -684.374146
v 62.265427 428.266510 -910.938477
v 71.924774 648.296936 -902.429688
v 222.063599 435.374725 -1276.153564
v 231.722916 655.405273 -1267.644653
v 313.333282 653.727905 -1316.915161
v 215.337112 429.767975 -1123.532349
v 93.714828 424.357880 -845.567505
v 26.504585 431.978088 -712.884644
v 10.121824 471.602570 -669.537109
v 122.349472 645.232422 -880.426147
v 282.147614 652.340698 -1245.641235
v 303.673950 433.697449 -1325.424072
v 224.996429 649.798523 -1115.023560
v 103.374146 644.388367 -837.058655
v 48.332081 641.940002 -711.261108
v 15.815695 640.493530 -636.945618
v 112.690140 425.201965 -888.935059
v 272.488251 432.310181 -1254.150269
v 110.881592 384.004272 -890.528259
v 60.456867 387.068817 -912.531677
v 270.679688 391.112518 -1255.743408
v 220.255020 394.177032 -1277.746704
v 163.103836 391.634827 -1147.128906
v 213.528564 388.570251 -1125.125488
v 398.965424 582.031982 -1152.478394
v 373.693756 580.907837 -1094.720703
v 369.422607 483.612579 -1098.483032
v 394.694183 484.736755 -1156.241089
v 442.551483 579.383118 -1133.459106
v 417.279755 578.258911 -1075.701416
v 413.008575 480.963715 -1079.463867
v 438.280151 482.087860 -1137.221802
v 509.252014 575.329407 -1104.353760
v 483.980316 574.205261 -1046.595947
v 479.709045 476.910034 -1050.358398
v 504.980713 478.034210 -1108.116333
v 552.172974 572.720886 -1085.624756
v 526.901306 571.596741 -1027.866821
v 522.630188 474.301575 -1031.629395
v 547.901733 475.425720 -1089.387207
v 593.877502 446.606689 -1988.676636
v 543.452759 449.671204 -2010.680054
v 553.112000 669.701782 -2002.171265
v 603.536682 666.637268 -1980.167603
vn 0.9151 -0.0556 0.3993
vn 0.4008 0.0178 -0.9160
vn -0.9151 0.0556 -0.3993
vn 0.0438 0.9983 0.0386
vn -0.0438 -0.9983 -0.0386
vn -0.2991 -0.7579 0.5798
vn -0.1286 -0.9909 -0.0410
vn -0.4771 -0.1250 0.8699
vn -0.9157 0.0551 -0.3981
vn 0.9157 -0.0551 0.3981
vn 0.7286 -0.0055 -0.6850
vn -0.3636 -0.1332 0.9220
vn -0.0194 -0.9998 0.0080
vn -0.4029 -0.1603 0.9011
vn -0.0701 -0.9973 0.0218
vn -0.4008 -0.0178 0.9160
vn -0.0083 -0.0383 0.9992
vn 0.4684 -0.8633 0.1881
vn 0.5415 0.8019 0.2525
usemtl Matériau.011
s off
f 25//1 26//1 4//1 3//1
f 29//2 30//2 8//2 7//2
f 27//3 28//3 6//3 5//3
f 22//1 21//1 9//1 10//1
f 42//4 27//4 5//4 31//4
f 56//5 26//5 2//5 44//5
f 10//1 9//1 13//1 14//1
f 55//5 22//5 10//5 45//5
f 23//3 24//3 11//3 12//3
f 46//6 14//6 18//6 47//6
f 45//7 10//7 14//7 46//7
f 12//3 11//3 15//3 16//3
f 33//4 12//4 16//4 35//4
f 54//8 47//8 18//8 17//8
f 16//9 15//9 19//9 20//9
f 14//10 13//10 17//10 18//10
f 5//3 6//3 24//3 23//3
f 44//5 2//5 22//5 55//5
f 31//4 5//4 23//4 40//4
f 2//1 1//1 21//1 22//1
f 50//5 4//5 26//5 56//5
f 29//4 7//4 27//4 42//4
f 7//3 8//3 28//3 27//3
f 26//11 25//11 63//11 66//11
f 43//4 29//4 42//4 49//4
f 8//5 30//5 41//5 28//5
f 51//4 31//4 40//4 48//4
f 6//5 32//5 39//5 24//5
f 20//12 19//12 38//12 37//12
f 52//4 33//4 35//4 53//4
f 11//13 34//13 36//13 15//13
f 15//6 36//6 38//6 19//6
f 24//5 39//5 34//5 11//5
f 28//5 41//5 32//5 6//5
f 49//4 42//4 31//4 51//4
f 30//3 29//3 81//3 80//3
f 3//2 4//2 50//2 43//2
f 25//4 49//4 51//4 1//4
f 9//4 52//4 53//4 13//4
f 1//4 51//4 48//4 21//4
f 3//4 43//4 49//4 25//4
f 30//5 50//5 56//5 41//5
f 32//3 41//3 60//3 61//3
f 37//14 38//14 47//14 54//14
f 34//15 45//15 46//15 36//15
f 36//6 46//6 47//6 38//6
f 39//5 55//5 45//5 34//5
f 55//16 39//16 58//16 57//16
f 61//5 62//5 57//5 58//5
f 60//5 59//5 62//5 61//5
f 39//3 32//3 61//3 58//3
f 44//1 55//1 57//1 62//1
f 41//2 56//2 59//2 60//2
f 56//1 44//1 62//1 59//1
f 66//2 63//2 67//2 70//2
f 1//17 2//17 65//17 64//17
f 2//18 26//18 66//18 65//18
f 25//19 1//19 64//19 63//19
f 69//5 70//5 74//5 73//5
f 64//16 65//16 69//16 68//16
f 65//5 66//5 70//5 69//5
f 63//4 64//4 68//4 67//4
f 73//5 74//5 78//5 77//5
f 67//4 68//4 72//4 71//4
f 70//2 67//2 71//2 74//2
f 68//16 69//16 73//16 72//16
f 76//1 77//1 78//1 75//1
f 71//4 72//4 76//4 75//4
f 74//2 71//2 75//2 78//2
f 82//2 79//2 80//2 81//2
f 50//5 30//5 80//5 79//5
f 43//1 50//1 79//1 82//1
f 29//4 43//4 82//4 81//4
o Cube.048_Cube.024
v -563.140625 456.479828 181.786682
v -727.283630 342.853790 45.611404
v -423.486023 488.043213 -12.887177
v -587.062805 374.960632 -147.666962
v -678.428345 647.414001 56.953880
v -762.589050 589.154724 -12.866982
v -606.823486 663.597412 -42.860817
v -690.723083 605.507812 -112.335381
v -377.323242 493.805603 -443.236481
v -279.516937 552.300781 -388.146820
v -335.440979 664.171082 -407.644928
v -433.247284 605.675842 -462.734467
v -273.666138 532.128662 -629.456970
v -201.756714 575.135620 -588.953857
v -242.873352 657.385193 -603.289246
v -314.782806 614.378235 -643.792419
v -208.109039 558.859192 -745.446594
v -155.558472 590.288147 -715.847717
v -185.606018 650.395020 -726.323669
v -238.156525 618.966064 -755.922668
v -483.636688 594.631592 -15.997932
v -657.260193 474.641846 -158.893463
v -631.962891 561.100952 190.660126
v -806.220886 440.472870 46.093323
v -301.914215 610.448242 -401.163116
v -405.747711 548.348450 -459.647491
v -211.502228 618.967224 -611.604248
v -287.842957 573.310059 -654.603271
v -156.581604 623.299866 -744.268738
v -212.370361 589.934204 -775.692017
v -163.669373 562.622559 -828.340881
v -111.118896 594.051514 -798.741760
v -110.209106 632.864380 -836.754333
v -165.997986 599.498718 -868.177490
v -192.081177 627.638794 -846.933960
v -139.530762 659.067749 -817.334778
v -132.320068 566.508972 -888.125244
v -79.769653 597.937988 -858.526062
v -78.859863 636.750732 -896.538635
v -134.648682 603.385071 -927.961731
v -160.731873 631.525208 -906.718323
v -108.181396 662.954102 -877.119263
v -92.980957 552.846863 -915.618652
v -59.156555 573.076294 -896.567078
v -58.571045 598.058289 -921.033875
v -94.479614 576.582336 -941.259705
v -131.556885 638.713013 -970.962830
v -157.640137 666.853149 -949.719360
v -105.089722 698.282104 -920.120239
v -75.768127 672.078674 -939.539673
v -66.822754 542.209595 -934.378784
v -44.019409 555.847656 -921.534485
v -43.624573 572.689880 -938.029419
v -67.833130 558.211426 -951.665161
v -44.327698 541.160339 -960.502625
v -30.072998 549.685730 -952.473450
v -29.826233 560.213989 -962.784729
v -44.959290 551.163330 -971.308655
v -125.185364 667.889771 -985.459778
v -142.528503 686.600464 -971.334656
v -107.587036 707.497925 -951.653809
v -88.090881 690.075012 -964.566101
v -308.237335 465.072144 475.150146
v -294.129150 294.155701 304.897095
v -166.976196 599.419983 335.482483
v -156.140137 439.763428 170.156586
v -469.063629 548.256592 294.746277
v -461.829987 460.622925 207.452759
v -395.097229 623.277771 228.680878
v -391.079193 535.280151 138.367523
v 17.478821 696.260071 -56.952248
v 99.829102 679.462219 36.378960
v 67.105225 790.064575 85.779411
v -13.976013 807.721375 -5.868019
v 176.702332 805.264160 -155.224518
v 238.264343 791.296997 -86.842659
v 215.138123 873.245789 -49.284279
v 153.576050 887.213135 -117.666451
v 277.208252 874.982727 -214.417511
v 322.196838 864.775513 -164.444672
v 305.296448 924.662598 -136.997620
v 260.307678 934.869812 -186.970337
v -271.869690 642.072510 304.796967
v -265.133301 468.107056 122.102188
v -426.603119 494.975342 445.890411
v -411.625580 313.526428 265.145844
v 92.024048 734.923950 61.412926
v 3.131653 755.092041 -37.327141
v 241.943665 840.319946 -76.239265
v 176.587830 855.147888 -148.835083
v 334.353088 906.615906 -163.990662
v 286.591980 917.452087 -217.042725
v 344.645325 914.152954 -267.128143
v 389.633972 903.945679 -217.155365
v 407.305481 955.261414 -219.731079
v 359.544373 966.097534 -272.783264
v 332.412537 982.059021 -242.245209
v 377.401062 971.851807 -192.272461
v 392.781921 943.482849 -304.473175
v 437.770691 933.275635 -254.500671
v 455.442322 984.591553 -257.076202
v 407.681091 995.427612 -310.128235
v 380.549011 1011.388916 -279.590332
v 425.537781 1001.181763 -229.617523
v 436.301086 938.031616 -328.274078
v 465.258484 931.461731 -296.108856
v 476.632751 964.491394 -297.766693
v 445.891052 971.466064 -331.914062
v 428.434509 1046.495117 -318.381195
v 401.302673 1062.456421 -287.843170
v 446.291321 1052.249390 -237.870483
v 476.195496 1035.659058 -265.329132
v 465.168884 933.542114 -345.473816
v 484.691101 929.112793 -323.789093
v 492.359558 951.380615 -324.906860
v 471.634094 956.082764 -347.927826
v 494.123230 941.680664 -362.355896
v 506.326599 938.911865 -348.800385
v 511.120178 952.831665 -349.499237
v 498.164612 955.771057 -363.889740
v 442.840149 1074.920898 -309.080597
v 424.799744 1085.533813 -288.775604
v 454.713318 1078.746948 -255.547943
v 474.597107 1067.715820 -273.805664
vn 0.4524 -0.8728 0.1831
vn -0.3767 0.8838 -0.2776
vn -0.4524 0.8728 -0.1832
vn -0.4371 -0.3576 0.8253
vn 0.3775 0.8323 0.4059
vn -0.6477 -0.5199 -0.5569
vn -0.4051 0.8868 -0.2224
vn 0.8065 0.4425 0.3920
vn -0.7772 -0.1086 -0.6198
vn 0.5252 -0.8498 0.0450
vn -0.7709 -0.3468 -0.5343
vn 0.8393 0.3951 0.3734
vn -0.7661 -0.3834 -0.5159
vn 0.4759 -0.8754 0.0847
vn 0.7436 0.5155 0.4259
vn 0.4821 -0.8732 0.0713
vn -0.3977 0.8868 -0.2355
vn 0.8595 0.3610 0.3619
vn 0.7566 0.5668 0.3261
vn 0.4244 -0.8859 0.1873
vn -0.6962 -0.5232 -0.4915
vn 0.7694 0.5350 0.3490
vn -0.6680 -0.5526 -0.4984
vn -0.6015 -0.4968 -0.6257
vn 0.5340 0.7743 0.3395
vn -0.8098 0.0034 -0.5868
vn 0.7058 0.4153 0.5738
vn -0.7339 0.4254 0.5296
vn -0.4336 0.8850 -0.1698
vn -0.7492 -0.5073 -0.4258
vn -0.4477 0.8828 -0.1425
vn 0.7962 0.4115 0.4435
vn -0.7467 -0.5113 -0.4255
vn -0.7988 -0.4070 -0.4429
vn 0.7416 0.4912 0.4569
vn 0.1396 -0.7925 0.5936
vn 0.7941 0.4157 0.4434
vn 0.7433 0.5179 0.4234
vn -0.7989 -0.4044 -0.4452
vn 0.4336 -0.8850 0.1698
vn 0.0962 0.5925 -0.7998
vn -0.5847 -0.6121 -0.5324
vn 0.9087 0.2810 0.3087
vn 0.1140 0.5734 -0.8113
vn 0.7109 0.6882 0.1448
vn -0.8020 -0.4320 -0.4125
vn -0.6324 0.6203 0.4641
vn 0.6324 -0.6203 -0.4641
vn -0.1977 0.8267 -0.5268
vn 0.8931 0.3039 0.3317
vn -0.6135 -0.5971 -0.5169
vn 0.1219 -0.7808 0.6127
vn 0.6347 -0.5483 -0.5446
vn 0.8882 0.3107 0.3385
vn -0.6222 -0.5923 -0.5119
vn 0.3412 -0.8805 0.3292
vn 0.0555 0.6338 -0.7715
vn -0.7268 -0.1717 -0.6650
vn 0.6275 -0.4520 -0.6340
vn -0.6011 0.7530 0.2677
vn 0.8137 -0.3828 0.4375
vn -0.4931 0.8611 -0.1241
vn -0.8108 0.3897 -0.4367
vn -0.3332 -0.6791 0.6541
vn -0.4073 0.8110 0.4200
vn 0.1086 -0.7287 -0.6762
vn -0.1945 0.9147 0.3541
vn 0.4491 0.5561 0.6993
vn -0.3711 -0.0744 -0.9256
vn 0.7198 -0.6724 0.1724
vn -0.6140 0.2945 -0.7323
vn 0.7342 -0.1930 0.6509
vn -0.6201 0.2549 -0.7420
vn 0.3061 -0.8475 -0.4336
vn 0.6442 -0.0962 0.7588
vn 0.3129 -0.8352 -0.4523
vn -0.1819 0.9184 0.3514
vn 0.7515 -0.2072 0.6263
vn 0.6937 -0.0021 0.7203
vn 0.2217 -0.8968 -0.3828
vn -0.5808 0.1156 -0.8058
vn 0.6832 -0.0240 0.7298
vn -0.5562 0.0895 -0.8262
vn -0.1485 -0.4902 -0.8589
vn 0.0050 0.8250 0.5652
vn -0.3428 -0.4421 -0.8289
vn 0.0300 0.6899 0.7233
vn -0.9506 -0.2549 0.1772
vn -0.2358 0.8884 0.3938
vn -0.6484 0.1039 -0.7542
vn -0.2577 0.8747 0.4106
vn 0.6742 -0.1997 0.7111
vn -0.6467 0.1000 -0.7562
vn -0.6763 0.2034 -0.7080
vn 0.6296 -0.1322 0.7656
vn -0.1565 -0.9858 -0.0604
vn 0.6728 -0.1959 0.7134
vn 0.6450 -0.0928 0.7585
vn -0.6753 0.2068 -0.7080
vn 0.2358 -0.8884 -0.3938
vn 0.4136 0.8903 -0.1905
vn -0.4755 0.0407 -0.8788
vn 0.8030 -0.2493 0.5413
vn 0.4313 0.8777 -0.2090
vn 0.7220 0.2103 0.6592
vn -0.6918 0.1677 -0.7023
vn -0.6510 0.3715 0.6619
vn 0.6510 -0.3715 -0.6620
vn 0.0863 0.9885 0.1242
vn 0.7845 -0.2415 0.5712
vn -0.5053 0.0511 -0.8614
vn -0.1774 -0.9833 -0.0411
vn 0.6874 -0.2705 -0.6741
vn 0.7788 -0.2391 0.5800
vn -0.5143 0.0543 -0.8559
vn 0.1012 -0.9529 -0.2858
vn 0.3723 0.9162 -0.1481
vn -0.5089 0.4896 -0.7080
vn 0.7208 -0.1434 -0.6782
vn -0.5440 0.5784 0.6079
usemtl Matériau.012
s off
f 83//20 84//20 86//20 85//20
f 90//21 89//21 93//21 94//21
f 89//22 90//22 88//22 87//22
f 105//23 106//23 84//23 83//23
f 103//24 89//24 87//24 105//24
f 104//25 86//25 84//25 106//25
f 94//26 93//26 97//26 98//26
f 103//27 85//27 92//27 107//27
f 104//28 90//28 94//28 108//28
f 85//29 86//29 91//29 92//29
f 110//30 98//30 102//30 112//30
f 107//31 92//31 96//31 109//31
f 108//32 94//32 98//32 110//32
f 92//33 91//33 95//33 96//33
f 101//34 111//34 115//34 118//34
f 96//35 95//35 99//35 100//35
f 98//36 97//36 101//36 102//36
f 109//37 96//37 100//37 111//37
f 97//38 109//38 111//38 101//38
f 100//39 99//39 113//39 114//39
f 91//40 108//40 110//40 95//40
f 93//41 107//41 109//41 97//41
f 95//42 110//42 112//42 99//42
f 86//43 104//43 108//43 91//43
f 89//44 103//44 107//44 93//44
f 90//45 104//45 106//45 88//45
f 85//46 103//46 105//46 83//46
f 87//47 88//47 106//47 105//47
f 117//48 118//48 124//48 123//48
f 113//49 116//49 122//49 119//49
f 102//50 101//50 118//50 117//50
f 111//51 100//51 114//51 115//51
f 99//52 112//52 116//52 113//52
f 112//53 102//53 117//53 116//53
f 124//54 121//54 132//54 131//54
f 120//55 119//55 125//55 126//55
f 115//56 114//56 120//56 121//56
f 118//57 115//57 121//57 124//57
f 116//58 117//58 123//58 122//58
f 114//59 113//59 119//59 120//59
f 128//60 127//60 135//60 136//60
f 119//61 122//61 128//61 125//61
f 121//62 120//62 126//62 127//62
f 122//63 121//63 127//63 128//63
f 131//64 132//64 144//64 143//64
f 122//65 123//65 130//65 129//65
f 123//66 124//66 131//66 130//66
f 121//67 122//67 129//67 132//67
f 136//68 135//68 139//68 140//68
f 127//69 126//69 134//69 135//69
f 125//70 128//70 136//70 133//70
f 126//71 125//71 133//71 134//71
f 138//72 137//72 140//72 139//72
f 135//73 134//73 138//73 139//73
f 133//74 136//74 140//74 137//74
f 134//75 133//75 137//75 138//75
f 144//76 141//76 142//76 143//76
f 129//77 130//77 142//77 141//77
f 132//78 129//78 141//78 144//78
f 130//79 131//79 143//79 142//79
f 145//80 146//80 148//80 147//80
f 152//81 151//81 155//81 156//81
f 151//82 152//82 150//82 149//82
f 167//83 168//83 146//83 145//83
f 165//84 151//84 149//84 167//84
f 166//85 148//85 146//85 168//85
f 156//86 155//86 159//86 160//86
f 165//87 147//87 154//87 169//87
f 166//88 152//88 156//88 170//88
f 147//89 148//89 153//89 154//89
f 172//90 160//90 164//90 174//90
f 169//91 154//91 158//91 171//91
f 170//92 156//92 160//92 172//92
f 154//93 153//93 157//93 158//93
f 163//94 173//94 177//94 180//94
f 158//95 157//95 161//95 162//95
f 160//96 159//96 163//96 164//96
f 171//97 158//97 162//97 173//97
f 159//98 171//98 173//98 163//98
f 162//99 161//99 175//99 176//99
f 153//100 170//100 172//100 157//100
f 155//101 169//101 171//101 159//101
f 157//102 172//102 174//102 161//102
f 148//103 166//103 170//103 153//103
f 151//104 165//104 169//104 155//104
f 152//105 166//105 168//105 150//105
f 147//106 165//106 167//106 145//106
f 149//107 150//107 168//107 167//107
f 179//108 180//108 186//108 185//108
f 175//109 178//109 184//109 181//109
f 164//110 163//110 180//110 179//110
f 173//111 162//111 176//111 177//111
f 161//112 174//112 178//112 175//112
f 174//113 164//113 179//113 178//113
f 186//114 183//114 194//114 193//114
f 182//115 181//115 187//115 188//115
f 177//116 176//116 182//116 183//116
f 180//117 177//117 183//117 186//117
f 178//118 179//118 185//118 184//118
f 176//119 175//119 181//119 182//119
f 190//120 189//120 197//120 198//120
f 181//121 184//121 190//121 187//121
f 183//122 182//122 188//122 189//122
f 184//123 183//123 189//123 190//123
f 193//124 194//124 206//124 205//124
f 184//125 185//125 192//125 191//125
f 185//126 186//126 193//126 192//126
f 183//127 184//127 191//127 194//127
f 198//128 197//128 201//128 202//128
f 189//129 188//129 196//129 197//129
f 187//130 190//130 198//130 195//130
f 188//131 187//131 195//131 196//131
f 200//132 199//132 202//132 201//132
f 197//133 196//133 200//133 201//133
f 195//134 198//134 202//134 199//134
f 196//135 195//135 199//135 200//135
f 206//136 203//136 204//136 205//136
f 191//137 192//137 204//137 203//137
f 194//138 191//138 203//138 206//138
f 192//139 193//139 205//139 204//139
