# Blender v2.91.2 OBJ File: 'camionnete02.blend'
# www.blender.org
mtllib arme_000038.mtl
o Cube.046_Cube.010
v 366.649200 227.682968 -1021.327881
v 367.915314 7.279877 -1021.274902
v 485.270447 228.319748 -1207.090332
v 486.536560 7.916672 -1207.037476
v 180.889954 226.587387 -1139.950806
v 182.156021 6.184280 -1139.897827
v 299.511169 227.224197 -1325.713257
v 300.777283 6.821075 -1325.660400
v 203.331253 226.806198 -765.569702
v 204.597351 6.403152 -765.516724
v 18.838100 5.307556 -884.139648
v 17.572010 225.710648 -884.192566
v 129.419189 226.409439 -649.822205
v 130.685272 6.006348 -649.769348
v -55.074036 4.910751 -768.392212
v -56.340126 225.313858 -768.445190
v 85.755219 226.175034 -581.443909
v 94.114136 65.891235 -592.739990
v -91.645210 64.795670 -711.362915
v -100.004105 225.079483 -700.066772
v 128.156982 446.131165 -649.875061
v -57.602276 445.035583 -768.498047
v 84.493050 445.896790 -581.496704
v -101.266228 444.801208 -700.119629
v 228.811874 226.942978 -805.472656
v 230.077972 6.539932 -805.419739
v 43.052601 225.847427 -924.095581
v 44.318665 5.444336 -924.042664
v 202.913315 299.562927 -765.587158
v 17.154047 298.467407 -884.210144
v 228.393921 299.699707 -805.490112
v 42.634636 298.604126 -924.112976
v 202.306976 405.121033 -765.612549
v 16.547697 404.025452 -884.235352
v 227.787537 405.257812 -805.515503
v 42.028301 404.162231 -924.138367
v 130.671768 299.175110 -652.455811
v -55.087540 298.079529 -771.078735
v 130.065384 404.733276 -652.481140
v -55.693905 403.637634 -771.104065
v 154.939651 583.062744 -693.080322
v -30.819626 581.967163 -811.703308
v 111.275681 582.828369 -624.702026
v -74.483551 581.732727 -743.324890
v 443.393463 228.094955 -1141.510498
v 444.659576 7.691864 -1141.457642
v 257.634186 226.999374 -1260.133301
v 258.900299 6.596268 -1260.080444
v 392.390808 227.771988 -1266.401855
v 393.656921 7.368866 -1266.348999
v 273.769592 227.135178 -1080.639404
v 275.035675 6.732086 -1080.586426
v 110.451637 226.258408 -824.881104
v 111.717712 5.855347 -824.828125
v 36.539539 225.861679 -709.133728
v 37.805614 5.458557 -709.080811
v -7.124417 225.627243 -640.755371
v 1.234482 65.343460 -652.051453
v 35.277336 445.583435 -709.186462
v -8.386593 445.348999 -640.808167
v 137.198318 5.992142 -864.731140
v 135.932236 226.395187 -864.784119
v 110.033684 299.015137 -824.898682
v 135.514282 299.151855 -864.801514
v 109.427338 404.573303 -824.923950
v 134.907928 404.710022 -864.826965
v 37.792110 298.627319 -711.767334
v 37.185745 404.185486 -711.792603
v 62.059998 582.515015 -752.391846
v 18.396044 582.280518 -684.013489
v 351.779907 7.144073 -1200.769043
v 350.513824 227.547165 -1200.821899
v 438.830627 228.045853 -1236.745972
v 321.475494 7.005981 -1050.930664
v 158.157532 6.129257 -795.172485
v 84.245422 5.732452 -679.425110
v 47.674301 65.617340 -622.395752
v 182.372055 226.669083 -835.128357
v 181.954102 299.425781 -835.145813
v 181.347733 404.983887 -835.171204
v 396.953674 227.821060 -1171.166260
v 440.096741 7.642776 -1236.693237
v 320.209381 227.409073 -1050.983765
v 156.891449 226.532303 -795.225464
v 82.979347 226.135544 -679.477966
v 39.315388 225.901138 -611.099609
v 81.717178 445.857300 -679.530762
v 38.053242 445.622864 -611.152466
v 183.638153 6.266037 -835.075439
v 156.473511 299.289062 -795.242920
v 155.867142 404.847168 -795.268250
v 84.231934 298.901245 -682.111572
v 83.625565 404.459351 -682.136841
v 108.499847 582.788879 -722.736023
v 64.835876 582.554382 -654.357727
v 398.219727 7.417969 -1171.113403
v 183.875214 -35.001427 -835.065552
v 137.435379 -35.275345 -864.721252
v 398.456787 -33.849503 -1171.103516
v 352.016998 -34.123413 -1200.759155
v 275.272736 -34.535400 -1080.576538
v 321.712555 -34.261490 -1050.920776
v 500.649750 166.970322 -1057.970215
v 466.714203 166.788132 -1004.826721
v 467.274170 69.328156 -1004.803162
v 501.209625 69.510330 -1057.946899
v 540.791382 167.207108 -1032.336548
v 506.855865 167.024918 -979.192993
v 507.415771 69.564941 -979.169556
v 541.351257 69.747101 -1032.313110
v 602.220886 167.569412 -993.108826
v 568.285339 167.387222 -939.965210
v 568.845215 69.927277 -939.941772
v 602.780701 70.109451 -993.085449
v 641.749939 167.802567 -967.866211
v 607.814392 167.620377 -914.722656
v 608.374390 70.160400 -914.699219
v 642.309814 70.342575 -967.842773
v 829.790344 9.735062 -1846.958008
v 783.350525 9.461166 -1876.613770
v 782.084290 229.864273 -1876.666748
v 828.524231 230.138168 -1847.010986
vn 0.8428 0.0050 0.5382
vn 0.5382 0.0029 -0.8428
vn -0.8428 -0.0050 -0.5382
vn -0.0057 1.0000 -0.0002
vn 0.0057 -1.0000 0.0002
vn -0.5382 -0.0029 0.8428
vn -0.3533 -0.7492 0.5602
vn -0.5358 -0.0871 0.8398
vn -0.8435 -0.0055 -0.5371
vn 0.8435 0.0055 0.5371
vn 0.5060 -0.3480 -0.7892
vn -0.5060 0.3480 0.7892
vn 0.8264 0.0046 -0.5630
vn -0.1631 -0.0007 0.9866
vn 0.4698 -0.8312 0.2972
vn 0.4602 0.8367 0.2968
usemtl Matériau.011
s off
f 45//1 46//1 4//1 3//1
f 49//2 50//2 8//2 7//2
f 47//3 48//3 6//3 5//3
f 26//1 25//1 9//1 10//1
f 72//4 47//4 5//4 51//4
f 96//5 46//5 2//5 74//5
f 10//1 9//1 13//1 14//1
f 84//6 9//6 29//6 90//6
f 89//5 26//5 10//5 75//5
f 27//3 28//3 11//3 12//3
f 76//7 14//7 18//7 77//7
f 75//5 10//5 14//5 76//5
f 12//3 11//3 15//3 16//3
f 53//4 12//4 16//4 55//4
f 86//8 77//8 18//8 17//8
f 16//9 15//9 19//9 20//9
f 16//3 20//3 24//3 22//3
f 14//10 13//10 17//10 18//10
f 59//11 22//11 42//11 69//11
f 86//6 17//6 23//6 88//6
f 17//1 13//1 21//1 23//1
f 55//2 16//2 22//2 59//2
f 5//3 6//3 28//3 27//3
f 74//5 2//5 26//5 89//5
f 51//4 5//4 27//4 62//4
f 2//1 1//1 25//1 26//1
f 32//3 30//3 34//3 36//3
f 62//2 27//2 32//2 64//2
f 27//3 12//3 30//3 32//3
f 9//1 25//1 31//1 29//1
f 66//4 36//4 34//4 65//4
f 90//5 29//5 37//5 92//5
f 64//2 32//2 36//2 66//2
f 29//1 31//1 35//1 33//1
f 92//6 37//6 39//6 93//6
f 29//1 33//1 39//1 37//1
f 34//3 30//3 38//3 40//3
f 65//4 34//4 40//4 68//4
f 69//4 42//4 44//4 70//4
f 23//1 21//1 41//1 43//1
f 88//12 23//12 43//12 95//12
f 22//3 24//3 44//3 42//3
f 82//5 4//5 46//5 96//5
f 49//4 7//4 47//4 72//4
f 7//3 8//3 48//3 47//3
f 46//13 45//13 103//13 106//13
f 73//4 49//4 72//4 81//4
f 8//5 50//5 71//5 48//5
f 24//12 60//12 70//12 44//12
f 94//4 69//4 70//4 95//4
f 91//4 65//4 68//4 93//4
f 38//6 67//6 68//6 40//6
f 79//2 64//2 66//2 80//2
f 30//5 63//5 67//5 38//5
f 80//4 66//4 65//4 91//4
f 78//2 62//2 64//2 79//2
f 83//4 51//4 62//4 78//4
f 6//5 52//5 61//5 28//5
f 85//2 55//2 59//2 87//2
f 20//6 57//6 60//6 24//6
f 87//11 59//11 69//11 94//11
f 20//8 19//8 58//8 57//8
f 84//4 53//4 55//4 85//4
f 11//5 54//5 56//5 15//5
f 15//7 56//7 58//7 19//7
f 28//5 61//5 54//5 11//5
f 12//6 53//6 63//6 30//6
f 48//5 71//5 52//5 6//5
f 81//4 72//4 51//4 83//4
f 50//3 49//3 121//3 120//3
f 3//2 4//2 82//2 73//2
f 45//4 81//4 83//4 1//4
f 9//4 84//4 85//4 13//4
f 21//11 87//11 94//11 41//11
f 13//2 85//2 87//2 21//2
f 1//4 83//4 78//4 25//4
f 25//2 78//2 79//2 31//2
f 35//4 80//4 91//4 33//4
f 31//2 79//2 80//2 35//2
f 33//4 91//4 93//4 39//4
f 41//4 94//4 95//4 43//4
f 3//4 73//4 81//4 45//4
f 50//5 82//5 96//5 71//5
f 60//12 88//12 95//12 70//12
f 67//6 92//6 93//6 68//6
f 63//5 90//5 92//5 67//5
f 52//3 71//3 100//3 101//3
f 57//6 86//6 88//6 60//6
f 57//8 58//8 77//8 86//8
f 54//5 75//5 76//5 56//5
f 56//7 76//7 77//7 58//7
f 61//5 89//5 75//5 54//5
f 53//6 84//6 90//6 63//6
f 89//6 61//6 98//6 97//6
f 101//5 102//5 97//5 98//5
f 100//5 99//5 102//5 101//5
f 61//3 52//3 101//3 98//3
f 74//1 89//1 97//1 102//1
f 71//2 96//2 99//2 100//2
f 96//1 74//1 102//1 99//1
f 106//2 103//2 107//2 110//2
f 1//14 2//14 105//14 104//14
f 2//15 46//15 106//15 105//15
f 45//16 1//16 104//16 103//16
f 109//5 110//5 114//5 113//5
f 104//6 105//6 109//6 108//6
f 105//5 106//5 110//5 109//5
f 103//4 104//4 108//4 107//4
f 113//5 114//5 118//5 117//5
f 107//4 108//4 112//4 111//4
f 110//2 107//2 111//2 114//2
f 108//6 109//6 113//6 112//6
f 116//1 117//1 118//1 115//1
f 111//4 112//4 116//4 115//4
f 114//2 111//2 115//2 118//2
f 122//2 119//2 120//2 121//2
f 82//5 50//5 120//5 119//5
f 73//1 82//1 119//1 122//1
f 49//4 73//4 122//4 121//4
o Cube.047_Cube.022
v -251.981384 471.920929 285.413879
v -248.844696 230.323151 281.142639
v -134.725632 477.177765 74.176926
v -131.588943 235.579987 69.905701
v -433.928467 413.670410 115.612534
v -432.320190 289.796448 113.422562
v -373.808167 416.365723 7.305443
v -372.199890 292.491760 5.115471
v 6.031036 301.402985 -296.898651
v 4.388031 427.953094 -294.661346
v -106.280975 427.602478 -356.101471
v -104.637970 301.052368 -358.338776
v 95.602295 322.792664 -492.885925
v 94.394287 415.835144 -491.241028
v 13.027954 415.577362 -536.413147
v 14.235962 322.534851 -538.058044
v 149.860321 338.212891 -616.514893
v 148.977570 406.207123 -615.312866
v 89.516113 406.018738 -648.324097
v 90.398865 338.024506 -649.526123
v -249.372665 483.887573 31.713608
v -246.042679 227.401794 27.179169
v -373.854095 478.306824 255.967651
v -370.524109 221.821045 251.433228
v -48.281418 431.798737 -330.204773
v -46.537155 297.450226 -332.579956
v 62.825531 418.983307 -530.263062
v 64.107941 320.207275 -532.009277
v 132.399658 408.798828 -655.525452
v 133.336853 336.614594 -656.801575
v 198.595764 340.268890 -697.020386
v 197.713013 408.263123 -695.818359
v 180.869476 411.052368 -747.400696
v 181.806702 338.868134 -748.676819
v 138.909485 340.247711 -739.653687
v 138.026733 408.241913 -738.451660
v 232.454407 341.742889 -755.530823
v 231.571594 409.737122 -754.328796
v 214.728210 412.526398 -805.911133
v 215.665344 340.342133 -807.187256
v 172.768127 341.721710 -798.164185
v 171.885376 409.715942 -796.962158
v 274.395325 354.826294 -779.193054
v 273.827087 398.591095 -778.419373
v 262.985718 400.386414 -811.620667
v 263.588989 353.924683 -812.442078
v 204.218689 341.157806 -861.730957
v 161.321503 342.537384 -852.707886
v 160.438751 410.531586 -851.505859
v 203.281494 413.342041 -860.454895
v 303.581543 362.610657 -794.584778
v 303.198486 392.115662 -794.063171
v 295.889648 393.326019 -816.446533
v 296.296265 362.002808 -817.000244
v 325.673584 368.880890 -820.318298
v 325.434082 387.324829 -819.992188
v 320.865173 388.081421 -833.984375
v 321.119446 368.500916 -834.330505
v 190.711761 353.571442 -889.398804
v 162.188873 354.488708 -883.399231
v 161.601898 399.698914 -882.599915
v 190.088562 401.567627 -888.550293
vn 0.8743 0.0028 0.4854
vn -0.8053 0.0000 -0.5928
vn -0.8743 -0.0028 -0.4854
vn -0.2358 -0.0202 0.9716
vn -0.4321 0.8751 -0.2181
vn 0.0667 -0.9977 0.0122
vn -0.8340 -0.0011 -0.5518
vn 0.1040 0.9906 -0.0889
vn -0.2721 -0.9219 -0.2759
vn 0.9359 0.0059 0.3522
vn -0.0418 -0.9864 -0.1589
vn 0.0953 0.9953 -0.0143
vn -0.0173 -0.9919 -0.1262
vn 0.9093 0.0045 0.4161
vn -0.0672 0.9977 -0.0113
vn 0.9155 0.0048 0.4024
vn -0.8256 -0.0007 -0.5642
vn 0.1361 0.9906 -0.0109
vn -0.0675 0.9900 -0.1240
vn 0.8554 0.0020 0.5179
vn 0.1211 -0.9914 -0.0494
vn -0.0431 0.9949 -0.0911
vn 0.1618 -0.9858 -0.0459
vn 0.1296 -0.9838 -0.1238
vn -0.2960 0.9237 -0.2433
vn -0.4093 -0.8777 -0.2490
vn 0.0408 0.9980 0.0475
vn -0.9160 -0.0190 0.4008
vn -0.8655 -0.0024 -0.5009
vn 0.0578 -0.9983 0.0083
vn -0.8805 -0.0031 -0.4740
vn 0.0362 0.9983 0.0454
vn 0.0621 -0.9980 0.0101
vn -0.0413 -0.9981 -0.0465
vn -0.0597 0.9978 0.0275
vn 0.4935 -0.0090 0.8697
vn 0.0319 0.9985 0.0436
vn -0.0685 0.9975 -0.0145
vn -0.0426 -0.9979 -0.0498
vn 0.8655 0.0024 0.5009
vn -0.1418 0.0157 -0.9898
vn 0.2660 -0.9621 -0.0604
vn 0.2410 0.9702 -0.0262
vn -0.1135 0.0161 -0.9934
vn -0.1304 0.9347 -0.3305
vn -0.0338 -0.9994 -0.0079
vn -0.9786 -0.0163 0.2051
vn 0.9786 0.0163 -0.2051
vn -0.5737 0.0070 -0.8191
vn 0.2077 0.9781 -0.0149
vn 0.2330 -0.9712 -0.0494
vn 0.4684 -0.0095 0.8834
vn 0.9507 0.0178 -0.3095
vn 0.1977 0.9802 -0.0116
vn 0.2228 -0.9738 -0.0460
vn 0.7589 -0.0017 0.6511
vn -0.2054 0.0146 -0.9786
vn -0.1062 -0.9256 -0.3634
vn 0.9019 0.0193 -0.4316
vn -0.9994 -0.0124 -0.0331
usemtl Matériau.012
s off
f 123//17 124//17 126//17 125//17
f 130//18 129//18 133//18 134//18
f 129//19 130//19 128//19 127//19
f 145//20 146//20 124//20 123//20
f 143//21 129//21 127//21 145//21
f 144//22 126//22 124//22 146//22
f 134//23 133//23 137//23 138//23
f 143//24 125//24 132//24 147//24
f 144//25 130//25 134//25 148//25
f 125//26 126//26 131//26 132//26
f 150//27 138//27 142//27 152//27
f 147//28 132//28 136//28 149//28
f 148//29 134//29 138//29 150//29
f 132//30 131//30 135//30 136//30
f 141//31 151//31 155//31 158//31
f 136//32 135//32 139//32 140//32
f 138//33 137//33 141//33 142//33
f 149//34 136//34 140//34 151//34
f 137//35 149//35 151//35 141//35
f 140//36 139//36 153//36 154//36
f 131//37 148//37 150//37 135//37
f 133//38 147//38 149//38 137//38
f 135//39 150//39 152//39 139//39
f 126//40 144//40 148//40 131//40
f 129//41 143//41 147//41 133//41
f 130//42 144//42 146//42 128//42
f 125//43 143//43 145//43 123//43
f 127//44 128//44 146//44 145//44
f 157//45 158//45 164//45 163//45
f 153//46 156//46 162//46 159//46
f 142//47 141//47 158//47 157//47
f 151//48 140//48 154//48 155//48
f 139//49 152//49 156//49 153//49
f 152//50 142//50 157//50 156//50
f 164//51 161//51 172//51 171//51
f 160//52 159//52 165//52 166//52
f 155//53 154//53 160//53 161//53
f 158//54 155//54 161//54 164//54
f 156//55 157//55 163//55 162//55
f 154//56 153//56 159//56 160//56
f 168//57 167//57 175//57 176//57
f 159//58 162//58 168//58 165//58
f 161//59 160//59 166//59 167//59
f 162//60 161//60 167//60 168//60
f 171//61 172//61 184//61 183//61
f 162//62 163//62 170//62 169//62
f 163//63 164//63 171//63 170//63
f 161//64 162//64 169//64 172//64
f 176//65 175//65 179//65 180//65
f 167//66 166//66 174//66 175//66
f 165//67 168//67 176//67 173//67
f 166//68 165//68 173//68 174//68
f 178//69 177//69 180//69 179//69
f 175//70 174//70 178//70 179//70
f 173//71 176//71 180//71 177//71
f 174//72 173//72 177//72 178//72
f 184//73 181//73 182//73 183//73
f 169//74 170//74 182//74 181//74
f 172//75 169//75 181//75 184//75
f 170//76 171//76 183//76 182//76
o Cube.048_Cube.024
v -525.412415 332.270752 115.512405
v -686.609375 196.936127 -3.221067
v -383.972809 335.680481 -80.397736
v -545.169800 200.345856 -199.131226
v -641.616943 500.305237 -38.082108
v -724.267151 430.915405 -98.960083
v -569.096863 502.053497 -138.530731
v -651.747070 432.663666 -199.408707
v -305.725891 285.716614 -504.411133
v -221.290100 356.605530 -442.217957
v -279.637207 461.458801 -482.517395
v -364.072998 390.569855 -544.710510
v -176.291290 312.019958 -676.010437
v -114.212219 364.139099 -630.284607
v -157.110260 441.229553 -659.913696
v -219.189362 389.110413 -705.639526
v -94.853210 331.313416 -783.068665
v -49.486633 369.401398 -749.652832
v -80.835999 425.738098 -771.305359
v -126.202576 387.650116 -804.721191
v -445.450256 439.679291 -100.319183
v -616.580688 296.004944 -226.369385
v -595.605835 436.059448 107.663605
v -766.736267 292.385101 -18.386587
v -244.586273 411.295349 -464.988739
v -334.225250 336.037994 -531.014404
v -122.709351 404.556335 -658.980652
v -188.613953 349.225433 -707.524231
v -47.865051 399.126556 -781.470642
v -96.027222 358.691467 -816.945679
v -38.167114 329.709167 -858.199219
v 7.199463 367.797119 -824.783386
v 11.914490 402.424133 -866.388245
v -36.247681 361.989044 -901.863281
v -66.898560 390.194214 -888.134338
v -21.531982 428.282166 -854.718506
v 1.958496 329.663605 -912.623352
v 47.325073 367.751587 -879.207520
v 52.040100 402.378571 -920.812317
v 3.877930 361.943481 -956.287354
v -26.772888 390.148651 -942.558472
v 18.593689 428.236633 -909.142639
v 45.850342 316.141968 -932.137451
v 75.050720 340.657471 -910.629211
v 78.085510 362.945312 -937.408325
v 47.085693 336.919067 -960.242004
v 11.727661 392.756531 -1002.065674
v -18.923218 420.961670 -988.336731
v 26.443359 459.049652 -954.920898
v 59.889771 433.191589 -966.590637
v 75.198486 305.561096 -945.406555
v 94.884583 322.088776 -930.906250
v 96.930603 337.114624 -948.960083
v 76.031372 319.568481 -964.353943
v 101.558594 303.459717 -967.549500
v 113.864624 313.791351 -958.485229
v 115.143616 323.184174 -969.770935
v 102.079224 312.215851 -979.393799
v 18.656616 420.661621 -1018.658875
v -1.723572 439.415588 -1009.530273
v 28.441223 464.740784 -987.311707
v 50.680237 447.547424 -995.071045
vn 0.4609 -0.8284 0.3184
vn -0.3826 0.8234 -0.4191
vn -0.4609 0.8284 -0.3184
vn -0.4420 -0.2334 0.8661
vn 0.3630 0.8895 0.2775
vn -0.6374 -0.6099 -0.4708
vn -0.4141 0.8269 -0.3803
vn 0.7696 0.5133 0.3798
vn -0.7361 -0.2056 -0.6449
vn 0.5417 -0.8174 0.1963
vn -0.6561 -0.4557 -0.6015
vn 0.7463 0.4920 0.4483
vn -0.6522 -0.4898 -0.5785
vn 0.5050 -0.8248 0.2545
vn 0.6369 0.6099 0.4717
vn 0.5132 -0.8235 0.2419
vn -0.4048 0.8261 -0.3921
vn 0.7699 0.4585 0.4440
vn 0.6625 0.6514 0.3698
vn 0.4386 -0.8283 0.3486
vn -0.5793 -0.6209 -0.5281
vn 0.6734 0.6231 0.3979
vn -0.5488 -0.6486 -0.5273
vn -0.5478 -0.5927 -0.5905
vn 0.4953 0.8283 0.2621
vn -0.8066 -0.0924 -0.5839
vn 0.6941 0.5080 0.5100
vn -0.7449 0.4910 0.4516
vn -0.4504 0.8285 -0.3328
vn -0.6428 -0.6022 -0.4734
vn -0.4685 0.8281 -0.3078
vn 0.6918 0.5124 0.5088
vn -0.6402 -0.6059 -0.4723
vn -0.6947 -0.5081 -0.5091
vn 0.6313 0.5889 0.5046
vn 0.0885 -0.7144 0.6941
vn 0.6895 0.5164 0.5079
vn 0.6368 0.6120 0.4690
vn -0.6946 -0.5057 -0.5117
vn 0.4504 -0.8285 0.3328
vn 0.1877 0.5119 -0.8383
vn -0.4579 -0.7051 -0.5414
vn 0.8313 0.3773 0.4082
vn 0.2082 0.4931 -0.8447
vn 0.6393 0.7497 0.1712
vn -0.7012 -0.5299 -0.4769
vn -0.7316 0.6171 0.2899
vn 0.7316 -0.6171 -0.2899
vn -0.1582 0.7509 -0.6411
vn 0.8110 0.4012 0.4258
vn -0.4896 -0.6907 -0.5322
vn 0.0674 -0.7021 0.7089
vn 0.7425 -0.5538 -0.3768
vn 0.8047 0.4083 0.4310
vn -0.4992 -0.6861 -0.5292
vn 0.3339 -0.8143 0.4748
vn 0.1408 0.5528 -0.8213
vn -0.6019 -0.2924 -0.7431
vn 0.7441 -0.4682 -0.4766
vn -0.6772 0.7307 0.0866
usemtl Matériau.012
s off
f 185//77 186//77 188//77 187//77
f 192//78 191//78 195//78 196//78
f 191//79 192//79 190//79 189//79
f 207//80 208//80 186//80 185//80
f 205//81 191//81 189//81 207//81
f 206//82 188//82 186//82 208//82
f 196//83 195//83 199//83 200//83
f 205//84 187//84 194//84 209//84
f 206//85 192//85 196//85 210//85
f 187//86 188//86 193//86 194//86
f 212//87 200//87 204//87 214//87
f 209//88 194//88 198//88 211//88
f 210//89 196//89 200//89 212//89
f 194//90 193//90 197//90 198//90
f 203//91 213//91 217//91 220//91
f 198//92 197//92 201//92 202//92
f 200//93 199//93 203//93 204//93
f 211//94 198//94 202//94 213//94
f 199//95 211//95 213//95 203//95
f 202//96 201//96 215//96 216//96
f 193//97 210//97 212//97 197//97
f 195//98 209//98 211//98 199//98
f 197//99 212//99 214//99 201//99
f 188//100 206//100 210//100 193//100
f 191//101 205//101 209//101 195//101
f 192//102 206//102 208//102 190//102
f 187//103 205//103 207//103 185//103
f 189//104 190//104 208//104 207//104
f 219//105 220//105 226//105 225//105
f 215//106 218//106 224//106 221//106
f 204//107 203//107 220//107 219//107
f 213//108 202//108 216//108 217//108
f 201//109 214//109 218//109 215//109
f 214//110 204//110 219//110 218//110
f 226//111 223//111 234//111 233//111
f 222//112 221//112 227//112 228//112
f 217//113 216//113 222//113 223//113
f 220//114 217//114 223//114 226//114
f 218//115 219//115 225//115 224//115
f 216//116 215//116 221//116 222//116
f 230//117 229//117 237//117 238//117
f 221//118 224//118 230//118 227//118
f 223//119 222//119 228//119 229//119
f 224//120 223//120 229//120 230//120
f 233//121 234//121 246//121 245//121
f 224//122 225//122 232//122 231//122
f 225//123 226//123 233//123 232//123
f 223//124 224//124 231//124 234//124
f 238//125 237//125 241//125 242//125
f 229//126 228//126 236//126 237//126
f 227//127 230//127 238//127 235//127
f 228//128 227//128 235//128 236//128
f 240//129 239//129 242//129 241//129
f 237//130 236//130 240//130 241//130
f 235//131 238//131 242//131 239//131
f 236//132 235//132 239//132 240//132
f 246//133 243//133 244//133 245//133
f 231//134 232//134 244//134 243//134
f 234//135 231//135 243//135 246//135
f 232//136 233//136 245//136 244//136
