# Blender v2.91.2 OBJ File: 'camionnete02.blend'
# www.blender.org
mtllib arme_000254.mtl
o Cube.046_Cube.010
v 376.774567 683.970703 -1064.344971
v 347.282349 472.626465 -1119.508057
v 486.084656 717.881409 -1252.707520
v 456.592407 506.537231 -1307.870605
v 187.669815 736.533142 -1164.623169
v 158.177536 525.188904 -1219.786133
v 296.979889 770.443787 -1352.985596
v 267.487640 559.099670 -1408.148682
v 226.276184 637.282227 -805.007080
v 196.783951 425.938110 -860.170105
v 7.679203 478.500427 -960.448059
v 37.171459 689.844666 -905.285156
v 158.165833 616.152710 -687.639587
v 128.673553 404.808533 -742.802612
v -60.431221 457.370911 -843.080566
v -30.938961 668.715088 -787.917664
v 117.929260 603.670288 -618.304199
v 103.344055 451.981506 -669.938965
v -85.760757 504.543884 -770.216980
v -71.175552 656.232727 -718.582153
v 249.756744 644.566528 -845.468567
v 220.264465 433.222351 -900.631531
v 60.651958 697.128967 -945.746643
v 31.159672 485.784729 -1000.909546
v 447.494843 705.909851 -1186.209961
v 418.002563 494.565735 -1241.372925
v 258.390015 758.472290 -1286.487793
v 228.897827 547.127991 -1341.650635
v 391.532288 744.162659 -1302.846680
v 362.040009 532.818420 -1358.009766
v 282.222198 710.251892 -1114.484131
v 252.729919 498.907654 -1169.647095
v 131.723816 663.563477 -855.146057
v 102.231552 452.219238 -910.309021
v 63.613445 642.433899 -737.778564
v 37.695156 436.631775 -776.993347
v 23.376881 629.951538 -668.443176
v 20.615406 468.440735 -727.861206
v 125.712067 459.503479 -950.770569
v 155.204346 670.847717 -895.607544
v 323.450165 520.846863 -1291.511963
v 352.942444 732.191101 -1236.348633
v 438.808472 731.022034 -1277.777100
v 300.006134 485.767029 -1144.577515
v 149.507751 439.078674 -885.239624
v 69.573608 427.771118 -760.088989
v 52.493870 459.580017 -710.956665
v 202.480530 657.707092 -870.538025
v 400.218628 719.050537 -1211.279297
v 409.316223 519.677795 -1332.940186
v 329.498352 697.111389 -1089.414673
v 179.000000 650.422913 -830.076599
v 110.889618 629.293335 -712.709045
v 70.653061 616.810913 -643.373657
v 172.988266 446.362915 -925.701111
v 370.726349 507.706299 -1266.442383
v 167.466248 406.791565 -936.029602
v 120.190048 419.932190 -961.099060
v 365.204285 468.135010 -1276.770996
v 317.928162 481.275574 -1301.840332
v 247.207916 459.336365 -1179.975586
v 294.484131 446.195740 -1154.906006
v 499.262878 618.688049 -1125.333740
v 467.991089 608.986755 -1071.446289
v 454.950012 515.532471 -1095.838867
v 486.221741 525.233826 -1149.726318
v 540.127441 607.329712 -1103.664307
v 508.855591 597.628357 -1049.776855
v 495.814514 504.174133 -1074.169434
v 527.086243 513.875427 -1128.056885
v 602.663208 589.947693 -1070.503174
v 571.391418 580.246399 -1016.615662
v 558.350220 486.792053 -1041.008179
v 589.622009 496.493469 -1094.895752
v 642.904236 578.762512 -1049.164307
v 611.632385 569.061218 -995.276855
v 598.591370 475.606995 -1019.669373
v 629.862976 485.308350 -1073.556641
v 768.421021 631.081238 -1951.746826
v 721.144775 644.221863 -1976.816162
v 750.636963 855.566162 -1921.653076
v 797.913269 842.425598 -1896.583740
vn 0.8580 -0.2385 0.4550
vn 0.4959 0.1539 -0.8546
vn -0.8580 0.2385 -0.4550
vn 0.1338 0.9589 0.2503
vn -0.1338 -0.9589 -0.2503
vn -0.4295 -0.8188 0.3808
vn -0.2167 -0.9415 -0.2582
vn -0.5767 -0.2402 0.7809
vn -0.8587 0.2378 -0.4540
vn 0.8587 -0.2378 0.4540
vn 0.7936 0.0476 -0.6066
vn -0.4707 -0.2716 0.8394
vn -0.1148 -0.9724 -0.2031
vn 0.4960 0.1539 -0.8546
vn -0.5100 -0.2893 0.8101
vn -0.1662 -0.9669 -0.1935
vn -0.4959 -0.1539 0.8546
vn -0.1183 -0.2353 0.9647
vn 0.3618 -0.9313 0.0423
vn 0.5850 0.6681 0.4598
usemtl Matériau.011
s off
f 25//1 26//1 4//1 3//1
f 29//2 30//2 8//2 7//2
f 27//3 28//3 6//3 5//3
f 22//1 21//1 9//1 10//1
f 42//4 27//4 5//4 31//4
f 56//5 26//5 2//5 44//5
f 10//1 9//1 13//1 14//1
f 55//5 22//5 10//5 45//5
f 23//3 24//3 11//3 12//3
f 46//6 14//6 18//6 47//6
f 45//7 10//7 14//7 46//7
f 12//3 11//3 15//3 16//3
f 33//4 12//4 16//4 35//4
f 54//8 47//8 18//8 17//8
f 16//9 15//9 19//9 20//9
f 14//10 13//10 17//10 18//10
f 5//3 6//3 24//3 23//3
f 44//5 2//5 22//5 55//5
f 31//4 5//4 23//4 40//4
f 2//1 1//1 21//1 22//1
f 50//5 4//5 26//5 56//5
f 29//4 7//4 27//4 42//4
f 7//3 8//3 28//3 27//3
f 26//11 25//11 63//11 66//11
f 43//4 29//4 42//4 49//4
f 8//5 30//5 41//5 28//5
f 51//4 31//4 40//4 48//4
f 6//5 32//5 39//5 24//5
f 20//12 19//12 38//12 37//12
f 52//4 33//4 35//4 53//4
f 11//13 34//13 36//13 15//13
f 15//6 36//6 38//6 19//6
f 24//5 39//5 34//5 11//5
f 28//5 41//5 32//5 6//5
f 49//4 42//4 31//4 51//4
f 30//3 29//3 81//3 80//3
f 3//14 4//14 50//14 43//14
f 25//4 49//4 51//4 1//4
f 9//4 52//4 53//4 13//4
f 1//4 51//4 48//4 21//4
f 3//4 43//4 49//4 25//4
f 30//5 50//5 56//5 41//5
f 32//3 41//3 60//3 61//3
f 37//15 38//15 47//15 54//15
f 34//16 45//16 46//16 36//16
f 36//6 46//6 47//6 38//6
f 39//5 55//5 45//5 34//5
f 55//17 39//17 58//17 57//17
f 61//5 62//5 57//5 58//5
f 60//5 59//5 62//5 61//5
f 39//3 32//3 61//3 58//3
f 44//1 55//1 57//1 62//1
f 41//2 56//2 59//2 60//2
f 56//1 44//1 62//1 59//1
f 66//2 63//2 67//2 70//2
f 1//18 2//18 65//18 64//18
f 2//19 26//19 66//19 65//19
f 25//20 1//20 64//20 63//20
f 69//5 70//5 74//5 73//5
f 64//17 65//17 69//17 68//17
f 65//5 66//5 70//5 69//5
f 63//4 64//4 68//4 67//4
f 73//5 74//5 78//5 77//5
f 67//4 68//4 72//4 71//4
f 70//2 67//2 71//2 74//2
f 68//17 69//17 73//17 72//17
f 76//1 77//1 78//1 75//1
f 71//4 72//4 76//4 75//4
f 74//2 71//2 75//2 78//2
f 82//2 79//2 80//2 81//2
f 50//5 30//5 80//5 79//5
f 43//1 50//1 79//1 82//1
f 29//4 43//4 82//4 81//4
o Cube.048_Cube.024
v -491.850830 554.478394 147.216522
v -640.448364 377.163330 77.390556
v -373.781433 538.318359 -63.012024
v -525.202271 359.930511 -137.053955
v -648.874451 670.729309 -17.585320
v -725.064514 579.814880 -53.387024
v -588.336914 662.443665 -125.375389
v -664.499695 571.485046 -161.128021
v -352.995941 480.504852 -518.710022
v -256.515839 515.260925 -444.506073
v -299.197754 634.427979 -444.826996
v -395.677887 599.671936 -519.030945
v -226.933899 543.013550 -683.308167
v -155.999573 568.567017 -628.751648
v -187.380249 656.181274 -628.987610
v -258.314575 630.627808 -683.544006
v -147.160706 584.618042 -785.147095
v -95.322815 603.292175 -745.277893
v -118.255432 667.319519 -745.450439
v -170.093323 648.645447 -785.319519
v -452.969116 626.521179 -93.142982
v -612.308411 438.631653 -169.781586
v -578.313721 643.859924 130.014038
v -736.068359 455.618103 55.885201
v -271.791382 577.010864 -446.914368
v -374.216949 540.113037 -525.691101
v -159.082153 616.853149 -642.468811
v -234.387726 589.725098 -700.387207
v -90.182007 641.198120 -766.141968
v -145.214355 621.373169 -808.467957
v -93.989502 599.698059 -861.343567
v -42.151611 618.372131 -821.474548
v -33.526733 663.612549 -850.303894
v -88.559021 643.787720 -892.629944
v -113.973572 669.932556 -868.257141
v -62.135681 688.606628 -828.387878
v -56.224731 611.795105 -916.111633
v -4.386841 630.469238 -876.242493
v 4.237915 675.709595 -905.071777
v -50.794373 655.884705 -947.397766
v -76.208862 682.029480 -923.024902
v -24.371094 700.703613 -883.155823
v -15.652832 599.467224 -942.418335
v 17.712891 611.486877 -916.756470
v 23.264343 640.606079 -935.312561
v -12.157532 627.845764 -962.555969
v -39.808533 698.476929 -981.631287
v -65.223206 724.621704 -957.258240
v -13.385132 743.295837 -917.389221
v 15.223694 718.301758 -939.305115
v 11.228943 589.854004 -960.702087
v 33.723267 597.957336 -943.401550
v 37.465881 617.588684 -955.911499
v 13.585449 608.986023 -974.278259
v 36.177429 591.458435 -984.463074
v 50.238831 596.523926 -973.648254
v 52.578430 608.795715 -981.468567
v 37.650513 603.418091 -992.949768
v -29.194885 729.030457 -989.106506
v -46.093445 746.414429 -972.900330
v -11.625732 758.830994 -946.391052
v 7.396729 742.212219 -960.963318
v -312.497162 454.609924 468.212982
v -450.395752 292.849274 353.256226
v -127.499756 334.484467 373.800110
v -252.060730 185.227539 266.778809
v -304.463196 532.674927 224.960846
v -375.167664 449.735748 166.019302
v -201.771942 471.451965 187.219543
v -273.475769 394.555084 121.679855
v 40.432983 93.241943 20.381844
v -15.367310 -8.918945 61.940063
v 67.089294 -18.092957 153.335358
v 124.060425 82.471802 114.791039
v 170.941650 -41.261475 -88.097939
v 127.857971 -118.347717 -58.728508
v 189.342712 -126.266235 10.683304
v 232.426453 -49.179871 -18.686371
v 253.034912 -127.313477 -153.836914
v 221.549927 -183.647095 -132.373993
v 266.482117 -189.433716 -81.648842
v 297.967102 -133.100281 -103.111732
v -136.454895 413.025330 299.698364
v -274.727356 260.270325 172.720886
v -338.888092 546.252808 386.568085
v -485.284454 374.523987 264.527374
v 25.148987 -23.320496 105.480537
v 87.359558 87.988098 63.072464
v 168.418335 -135.126770 -34.181969
v 214.156982 -53.290100 -65.361259
v 259.097595 -203.318604 -122.284615
v 292.522827 -143.513489 -145.070160
v 306.282471 -179.102661 -211.656311
v 274.797241 -235.436157 -190.193420
v 321.943604 -261.031616 -181.572388
v 355.368713 -201.226562 -204.357758
v 359.337708 -189.902710 -162.173676
v 327.852722 -246.236389 -140.710785
v 345.435974 -216.438538 -252.215546
v 313.950989 -272.772156 -230.752716
v 361.097351 -298.367615 -222.131622
v 394.522522 -238.562744 -244.916992
v 398.491516 -227.238770 -202.732819
v 367.006409 -283.572144 -181.270020
v 347.581360 -247.211243 -291.440002
v 327.315613 -283.470642 -277.625336
v 357.661682 -299.945312 -272.076385
v 379.175964 -261.451233 -286.742462
v 443.526672 -265.003540 -242.429871
v 447.495667 -253.679688 -200.245697
v 416.010681 -310.013306 -178.782867
v 410.101379 -324.808838 -219.644440
v 348.761902 -266.967834 -318.964783
v 335.099548 -291.412964 -309.651459
v 355.557922 -302.519897 -305.910553
v 370.062195 -276.568054 -315.797913
v 361.390808 -289.432556 -341.887329
v 352.850403 -304.713196 -336.065460
v 365.638855 -311.656128 -333.726807
v 374.705872 -295.433594 -339.907776
v 465.156555 -287.081116 -230.315460
v 467.795593 -279.551880 -202.266724
v 446.860779 -317.008667 -187.995667
v 442.931580 -326.846558 -215.165009
vn 0.6183 -0.6805 0.3932
vn -0.4062 0.8504 -0.3344
vn -0.6190 0.6759 -0.3999
vn -0.3068 -0.1149 0.9448
vn 0.2420 0.9684 0.0610
vn -0.5849 -0.7690 -0.2578
vn -0.2933 0.9538 -0.0654
vn 0.7887 0.5545 0.2654
vn -0.7683 -0.2471 -0.5905
vn 0.6017 -0.7885 0.1275
vn -0.7390 -0.1428 -0.6584
vn 0.8284 0.2141 0.5176
vn -0.7396 -0.1826 -0.6478
vn 0.3791 -0.9234 -0.0604
vn 0.7395 0.3317 0.5858
vn 0.3869 -0.9193 -0.0725
vn -0.2846 0.9555 -0.0775
vn 0.8463 0.1808 0.5010
vn 0.7678 0.4000 0.5004
vn 0.3162 -0.9481 0.0330
vn -0.6863 -0.3316 -0.6474
vn 0.7751 0.3630 0.5172
vn -0.6604 -0.3620 -0.6579
vn -0.5958 -0.6150 -0.5166
vn 0.4547 0.8635 0.2182
vn -0.8423 -0.3081 -0.4423
vn 0.6516 0.6911 0.3126
vn -0.7639 0.4631 0.4495
vn -0.3273 0.9448 -0.0170
vn -0.7442 -0.3231 -0.5846
vn -0.3443 0.9388 0.0080
vn 0.7798 0.2210 0.5857
vn -0.7422 -0.3273 -0.5848
vn -0.7821 -0.2164 -0.5844
vn 0.7319 0.3022 0.6108
vn -0.0001 -0.9055 0.4242
vn 0.7781 0.2253 0.5863
vn 0.7396 0.3346 0.5839
vn -0.7816 -0.2134 -0.5861
vn 0.3273 -0.9448 0.0170
vn 0.2365 0.7249 -0.6470
vn -0.5800 -0.4227 -0.6964
vn 0.8931 0.1080 0.4366
vn 0.2536 0.7066 -0.6606
vn 0.7534 0.5595 0.3454
vn -0.7908 -0.2464 -0.5603
vn -0.6166 0.5837 0.5283
vn 0.6166 -0.5837 -0.5283
vn -0.0613 0.9321 -0.3569
vn 0.8774 0.1275 0.4625
vn -0.6087 -0.4079 -0.6805
vn -0.0186 -0.8959 0.4438
vn 0.6343 -0.4978 -0.5915
vn 0.8725 0.1332 0.4701
vn -0.6174 -0.4033 -0.6755
vn 0.2193 -0.9616 0.1653
vn 0.1971 0.7642 -0.6142
vn -0.6649 0.0486 -0.7454
vn 0.6458 -0.3856 -0.6590
vn -0.5522 0.7484 0.3674
vn 0.0256 -0.5950 0.8033
vn 0.7694 0.6378 0.0361
vn 0.0222 0.6019 -0.7983
vn -0.7840 0.2716 0.5583
vn 0.5569 0.8274 0.0726
vn -0.5679 -0.7047 -0.4254
vn 0.7032 -0.1288 0.6992
vn 0.7957 -0.1075 0.5961
vn -0.1252 0.0421 -0.9912
vn -0.3295 -0.8454 0.4205
vn 0.5919 0.7550 -0.2821
vn -0.4868 -0.8528 0.1891
vn 0.5597 0.7718 -0.3017
vn -0.6232 0.0346 -0.7813
vn -0.4221 -0.8314 0.3614
vn -0.6031 0.0335 -0.7969
vn 0.7125 -0.1360 0.6883
vn -0.4771 -0.8626 0.1681
vn -0.3233 -0.8824 0.3418
vn -0.6824 0.1058 -0.7233
vn 0.4552 0.7853 -0.4197
vn -0.3370 -0.8697 0.3607
vn 0.4381 0.7748 -0.4558
vn -0.5538 -0.3601 -0.7508
vn 0.9111 0.4062 0.0705
vn -0.5136 -0.3007 -0.8036
vn 0.6252 0.5936 0.5067
vn -0.6694 0.7147 -0.2026
vn 0.6711 -0.0950 0.7353
vn 0.4276 0.8321 -0.3532
vn 0.6529 -0.0779 0.7534
vn -0.4997 -0.8220 0.2732
vn 0.4247 0.8320 -0.3569
vn 0.5020 0.8221 -0.2685
vn -0.4570 -0.8131 0.3605
vn -0.8718 0.3611 -0.3310
vn -0.4971 -0.8223 0.2771
vn -0.4189 -0.8327 0.3621
vn 0.5050 0.8205 -0.2678
vn -0.6711 0.0950 -0.7353
vn 0.8701 -0.4926 -0.0166
vn 0.4099 0.7284 -0.5490
vn -0.4848 -0.8725 0.0609
vn 0.8649 -0.5000 -0.0437
vn -0.1058 -0.9300 0.3520
vn 0.4678 0.8416 -0.2699
vn 0.1127 0.2981 0.9478
vn -0.1127 -0.2981 -0.9478
vn 0.8527 -0.3189 0.4138
vn -0.4885 -0.8673 0.0964
vn 0.4142 0.7478 -0.5190
vn -0.8760 0.3732 -0.3055
vn -0.0173 -0.3475 -0.9375
vn -0.4894 -0.8655 0.1069
vn 0.4154 0.7535 -0.5096
vn -0.7659 0.1946 -0.6127
vn 0.8792 -0.4744 0.0446
vn 0.7557 0.6113 -0.2352
vn 0.0992 -0.4022 -0.9102
vn 0.3183 0.1770 0.9313
usemtl Matériau.012
s off
f 83//21 84//21 86//21 85//21
f 90//22 89//22 93//22 94//22
f 89//23 90//23 88//23 87//23
f 105//24 106//24 84//24 83//24
f 103//25 89//25 87//25 105//25
f 104//26 86//26 84//26 106//26
f 94//27 93//27 97//27 98//27
f 103//28 85//28 92//28 107//28
f 104//29 90//29 94//29 108//29
f 85//30 86//30 91//30 92//30
f 110//31 98//31 102//31 112//31
f 107//32 92//32 96//32 109//32
f 108//33 94//33 98//33 110//33
f 92//34 91//34 95//34 96//34
f 101//35 111//35 115//35 118//35
f 96//36 95//36 99//36 100//36
f 98//37 97//37 101//37 102//37
f 109//38 96//38 100//38 111//38
f 97//39 109//39 111//39 101//39
f 100//40 99//40 113//40 114//40
f 91//41 108//41 110//41 95//41
f 93//42 107//42 109//42 97//42
f 95//43 110//43 112//43 99//43
f 86//44 104//44 108//44 91//44
f 89//45 103//45 107//45 93//45
f 90//46 104//46 106//46 88//46
f 85//47 103//47 105//47 83//47
f 87//48 88//48 106//48 105//48
f 117//49 118//49 124//49 123//49
f 113//50 116//50 122//50 119//50
f 102//51 101//51 118//51 117//51
f 111//52 100//52 114//52 115//52
f 99//53 112//53 116//53 113//53
f 112//54 102//54 117//54 116//54
f 124//55 121//55 132//55 131//55
f 120//56 119//56 125//56 126//56
f 115//57 114//57 120//57 121//57
f 118//58 115//58 121//58 124//58
f 116//59 117//59 123//59 122//59
f 114//60 113//60 119//60 120//60
f 128//61 127//61 135//61 136//61
f 119//62 122//62 128//62 125//62
f 121//63 120//63 126//63 127//63
f 122//64 121//64 127//64 128//64
f 131//65 132//65 144//65 143//65
f 122//66 123//66 130//66 129//66
f 123//67 124//67 131//67 130//67
f 121//68 122//68 129//68 132//68
f 136//69 135//69 139//69 140//69
f 127//70 126//70 134//70 135//70
f 125//71 128//71 136//71 133//71
f 126//72 125//72 133//72 134//72
f 138//73 137//73 140//73 139//73
f 135//74 134//74 138//74 139//74
f 133//75 136//75 140//75 137//75
f 134//76 133//76 137//76 138//76
f 144//77 141//77 142//77 143//77
f 129//78 130//78 142//78 141//78
f 132//79 129//79 141//79 144//79
f 130//80 131//80 143//80 142//80
f 145//81 146//81 148//81 147//81
f 152//82 151//82 155//82 156//82
f 151//83 152//83 150//83 149//83
f 167//84 168//84 146//84 145//84
f 165//85 151//85 149//85 167//85
f 166//86 148//86 146//86 168//86
f 156//87 155//87 159//87 160//87
f 165//88 147//88 154//88 169//88
f 166//89 152//89 156//89 170//89
f 147//90 148//90 153//90 154//90
f 172//91 160//91 164//91 174//91
f 169//92 154//92 158//92 171//92
f 170//93 156//93 160//93 172//93
f 154//94 153//94 157//94 158//94
f 163//95 173//95 177//95 180//95
f 158//96 157//96 161//96 162//96
f 160//97 159//97 163//97 164//97
f 171//98 158//98 162//98 173//98
f 159//99 171//99 173//99 163//99
f 162//100 161//100 175//100 176//100
f 153//101 170//101 172//101 157//101
f 155//102 169//102 171//102 159//102
f 157//103 172//103 174//103 161//103
f 148//104 166//104 170//104 153//104
f 151//105 165//105 169//105 155//105
f 152//106 166//106 168//106 150//106
f 147//107 165//107 167//107 145//107
f 149//108 150//108 168//108 167//108
f 179//109 180//109 186//109 185//109
f 175//110 178//110 184//110 181//110
f 164//111 163//111 180//111 179//111
f 173//112 162//112 176//112 177//112
f 161//113 174//113 178//113 175//113
f 174//114 164//114 179//114 178//114
f 186//115 183//115 194//115 193//115
f 182//116 181//116 187//116 188//116
f 177//117 176//117 182//117 183//117
f 180//118 177//118 183//118 186//118
f 178//119 179//119 185//119 184//119
f 176//120 175//120 181//120 182//120
f 190//121 189//121 197//121 198//121
f 181//122 184//122 190//122 187//122
f 183//123 182//123 188//123 189//123
f 184//124 183//124 189//124 190//124
f 193//125 194//125 206//125 205//125
f 184//126 185//126 192//126 191//126
f 185//127 186//127 193//127 192//127
f 183//128 184//128 191//128 194//128
f 198//129 197//129 201//129 202//129
f 189//130 188//130 196//130 197//130
f 187//131 190//131 198//131 195//131
f 188//132 187//132 195//132 196//132
f 200//133 199//133 202//133 201//133
f 197//134 196//134 200//134 201//134
f 195//135 198//135 202//135 199//135
f 196//136 195//136 199//136 200//136
f 206//137 203//137 204//137 205//137
f 191//138 192//138 204//138 203//138
f 194//139 191//139 203//139 206//139
f 192//140 193//140 205//140 204//140
