# Blender v2.91.2 OBJ File: 'camionnete02.blend'
# www.blender.org
mtllib arme_000017.mtl
o Cube.046_Cube.010
v 261.031433 187.516876 -1062.186279
v 231.033142 -29.691002 -1039.826416
v 360.506134 153.830902 -1255.962158
v 330.507782 -63.376976 -1233.602783
v 66.650391 203.799133 -1164.802246
v 36.652065 -13.408745 -1142.442383
v 166.125046 170.113190 -1358.578125
v 136.126755 -47.094719 -1336.218506
v 124.074524 233.895721 -795.395081
v 94.076233 16.687904 -773.035400
v -100.304810 32.970161 -875.651062
v -70.306488 250.178009 -898.010803
v 62.092579 254.885223 -674.654541
v 32.094250 37.677376 -652.294800
v -162.286835 53.959633 -754.910461
v -132.288528 271.167511 -777.270325
v 25.476368 267.284882 -603.326416
v 9.922169 107.201012 -598.901428
v -184.458939 123.483299 -701.517090
v -168.904739 283.567169 -705.942139
v 91.998108 471.421631 -696.945129
v -102.382935 487.703888 -799.560913
v 55.381939 483.821259 -625.617065
v -138.999115 500.103546 -728.232788
v 145.442322 226.659760 -837.019409
v 115.444046 9.451927 -814.659668
v -48.938717 242.942047 -939.635193
v -78.937050 25.734200 -917.275391
v 133.977203 305.597656 -802.776245
v -60.403851 321.879974 -905.392029
v 155.345001 298.361725 -844.400513
v -39.036053 314.643982 -947.016235
v 148.344391 409.625488 -813.485046
v -46.036663 425.907745 -916.100647
v 169.712128 402.389496 -855.109436
v -24.668880 418.671814 -957.725098
v 73.396103 326.112762 -684.764526
v -120.984978 342.395050 -787.380249
v 87.763260 430.140625 -695.473389
v -106.617813 446.422882 -798.089111
v 133.733887 598.393372 -755.856567
v -60.647190 614.675598 -858.472351
v 97.117661 610.792969 -684.528503
v -97.263351 627.075195 -787.144226
v 325.388458 165.723083 -1187.553467
v 295.390137 -51.484779 -1165.193848
v 131.007401 182.005402 -1290.169189
v 101.009125 -35.202507 -1267.809326
v 263.315582 161.972046 -1307.270264
v 233.317261 -55.235832 -1284.910645
v 163.840912 195.658020 -1113.494385
v 133.842621 -21.549858 -1091.134521
v 26.884022 242.036865 -846.702942
v -3.114300 24.829033 -824.343140
v -35.097969 263.026398 -725.962341
v -60.793316 56.477455 -690.729919
v -71.714157 275.426025 -654.634277
v -75.744003 103.357430 -654.726624
v -5.192425 479.562775 -748.252991
v -41.808590 491.962433 -676.924927
v 18.253490 17.593071 -865.967529
v 48.251812 234.800873 -888.327332
v 36.786678 313.738800 -854.084167
v 58.154461 306.502838 -895.708313
v 51.153866 417.766663 -864.792847
v 72.521637 410.530670 -906.417175
v -23.794430 334.253906 -736.072449
v -9.427254 438.281708 -746.781128
v 36.543339 606.534485 -807.164490
v -0.072861 618.934082 -735.836426
v 198.199615 -43.343636 -1216.501465
v 228.197906 173.864258 -1238.861328
v 311.910858 157.901489 -1281.616211
v 182.437866 -25.620430 -1065.480469
v 45.480961 20.758469 -798.689331
v -28.025412 53.732651 -673.431396
v -42.976089 100.612633 -637.428101
v 96.847076 230.730316 -862.673279
v 106.749725 302.432220 -870.054443
v 121.116882 406.460052 -880.763306
v 276.793213 169.793671 -1213.207520
v 281.912537 -59.306404 -1259.256592
v 212.436157 191.587433 -1087.840332
v 75.479279 237.966278 -821.049072
v 13.497288 258.955811 -700.308411
v -23.118904 271.355438 -628.980286
v 43.402874 475.492157 -722.599060
v 6.786686 487.891815 -651.270935
v 66.848770 13.522491 -840.313599
v 85.381943 309.668243 -828.430176
v 99.749100 413.696045 -839.138977
v 24.800831 330.183350 -710.418518
v 39.168011 434.211182 -721.127258
v 85.138626 602.463928 -781.510437
v 48.522411 614.863525 -710.182434
v 246.794861 -47.414207 -1190.847656
v 61.231998 -27.146706 -836.127014
v 12.636723 -23.076149 -861.780945
v 241.178070 -88.083420 -1186.661133
v 192.582840 -84.012856 -1212.315186
v 128.225815 -62.219093 -1086.947754
v 176.821106 -66.289635 -1061.293945
v 381.014343 104.357216 -1103.093750
v 352.556305 113.994194 -1047.657715
v 339.291473 17.947105 -1037.770264
v 367.749390 8.310127 -1093.206543
v 423.019104 100.838692 -1080.918945
v 394.561066 110.475685 -1025.482910
v 381.296173 14.428596 -1015.595642
v 409.754181 4.791634 -1071.031738
v 487.299713 95.454277 -1046.984863
v 458.841705 105.091270 -991.548645
v 445.576782 9.044197 -981.661438
v 474.034698 -0.592796 -1037.097656
v 528.663513 91.989433 -1025.148438
v 500.205475 101.626427 -969.712341
v 486.940582 5.579338 -959.825134
v 515.398621 -4.057640 -1015.261169
v 608.706116 -169.970886 -1895.847412
v 560.110901 -165.900299 -1921.501465
v 590.109070 51.307610 -1943.861084
v 638.704346 47.237022 -1918.207275
v 71.210114 666.281128 -828.425354
v -18.345722 673.782715 -875.702820
v 37.470264 677.706665 -762.700317
v -52.085506 685.208252 -809.977722
v 127.026093 670.205139 -715.423035
v 160.765976 658.779602 -781.147827
v 115.988098 662.530457 -804.786560
v 82.248169 673.955872 -739.061707
vn 0.8819 -0.0739 0.4656
vn 0.4513 -0.1528 -0.8792
vn -0.8819 0.0739 -0.4656
vn 0.1361 0.9855 -0.1014
vn -0.1361 -0.9855 0.1014
vn -0.4513 0.1528 0.8792
vn -0.4016 -0.6349 0.6600
vn -0.2195 -0.9713 0.0922
vn -0.5347 0.0470 0.8437
vn -0.8826 0.0736 -0.4644
vn 0.8826 -0.0736 0.4644
vn 0.3749 -0.4887 -0.7878
vn 0.3727 -0.4955 -0.7846
vn -0.3749 0.4887 0.7878
vn 0.7620 -0.1696 -0.6250
vn -0.7765 0.4183 -0.4713
vn -0.4257 0.0369 0.9041
vn -0.1146 -0.9821 0.1493
vn -0.3479 0.5644 0.7486
vn -0.4661 0.0104 0.8846
vn -0.1655 -0.9733 0.1591
vn -0.0679 0.1114 0.9915
vn 0.3731 -0.8626 0.3415
vn 0.6001 0.7811 0.1723
vn 0.8604 -0.1866 0.4741
usemtl Matériau.011
s off
f 45//1 46//1 4//1 3//1
f 49//2 50//2 8//2 7//2
f 47//3 48//3 6//3 5//3
f 26//1 25//1 9//1 10//1
f 72//4 47//4 5//4 51//4
f 96//5 46//5 2//5 74//5
f 10//1 9//1 13//1 14//1
f 84//6 9//6 29//6 90//6
f 89//5 26//5 10//5 75//5
f 27//3 28//3 11//3 12//3
f 76//7 14//7 18//7 77//7
f 75//8 10//8 14//8 76//8
f 12//3 11//3 15//3 16//3
f 53//4 12//4 16//4 55//4
f 86//9 77//9 18//9 17//9
f 16//10 15//10 19//10 20//10
f 16//3 20//3 24//3 22//3
f 14//11 13//11 17//11 18//11
f 59//12 22//12 42//12 69//12
f 86//6 17//6 23//6 88//6
f 17//1 13//1 21//1 23//1
f 55//2 16//2 22//2 59//2
f 5//3 6//3 28//3 27//3
f 74//5 2//5 26//5 89//5
f 51//4 5//4 27//4 62//4
f 2//1 1//1 25//1 26//1
f 32//3 30//3 34//3 36//3
f 62//2 27//2 32//2 64//2
f 27//3 12//3 30//3 32//3
f 9//1 25//1 31//1 29//1
f 66//4 36//4 34//4 65//4
f 90//5 29//5 37//5 92//5
f 64//2 32//2 36//2 66//2
f 29//1 31//1 35//1 33//1
f 92//6 37//6 39//6 93//6
f 29//1 33//1 39//1 37//1
f 34//3 30//3 38//3 40//3
f 65//4 34//4 40//4 68//4
f 69//13 42//13 124//13 123//13
f 23//1 21//1 41//1 43//1
f 88//14 23//14 43//14 95//14
f 22//3 24//3 44//3 42//3
f 82//5 4//5 46//5 96//5
f 49//4 7//4 47//4 72//4
f 7//3 8//3 48//3 47//3
f 46//15 45//15 103//15 106//15
f 73//4 49//4 72//4 81//4
f 8//5 50//5 71//5 48//5
f 24//14 60//14 70//14 44//14
f 42//16 44//16 126//16 124//16
f 91//4 65//4 68//4 93//4
f 38//6 67//6 68//6 40//6
f 79//2 64//2 66//2 80//2
f 30//5 63//5 67//5 38//5
f 80//4 66//4 65//4 91//4
f 78//2 62//2 64//2 79//2
f 83//4 51//4 62//4 78//4
f 6//5 52//5 61//5 28//5
f 85//2 55//2 59//2 87//2
f 20//6 57//6 60//6 24//6
f 87//12 59//12 69//12 94//12
f 20//17 19//17 58//17 57//17
f 84//4 53//4 55//4 85//4
f 11//18 54//18 56//18 15//18
f 15//7 56//7 58//7 19//7
f 28//5 61//5 54//5 11//5
f 12//6 53//6 63//6 30//6
f 48//5 71//5 52//5 6//5
f 81//4 72//4 51//4 83//4
f 50//3 49//3 121//3 120//3
f 3//2 4//2 82//2 73//2
f 45//4 81//4 83//4 1//4
f 9//4 84//4 85//4 13//4
f 21//12 87//12 94//12 41//12
f 13//2 85//2 87//2 21//2
f 1//4 83//4 78//4 25//4
f 25//2 78//2 79//2 31//2
f 35//4 80//4 91//4 33//4
f 31//2 79//2 80//2 35//2
f 33//4 91//4 93//4 39//4
f 70//19 95//19 130//19 125//19
f 3//4 73//4 81//4 45//4
f 50//5 82//5 96//5 71//5
f 60//14 88//14 95//14 70//14
f 67//6 92//6 93//6 68//6
f 63//5 90//5 92//5 67//5
f 52//3 71//3 100//3 101//3
f 57//6 86//6 88//6 60//6
f 57//20 58//20 77//20 86//20
f 54//21 75//21 76//21 56//21
f 56//7 76//7 77//7 58//7
f 61//5 89//5 75//5 54//5
f 53//6 84//6 90//6 63//6
f 89//6 61//6 98//6 97//6
f 101//5 102//5 97//5 98//5
f 100//5 99//5 102//5 101//5
f 61//3 52//3 101//3 98//3
f 74//1 89//1 97//1 102//1
f 71//2 96//2 99//2 100//2
f 96//1 74//1 102//1 99//1
f 106//2 103//2 107//2 110//2
f 1//22 2//22 105//22 104//22
f 2//23 46//23 106//23 105//23
f 45//24 1//24 104//24 103//24
f 109//5 110//5 114//5 113//5
f 104//6 105//6 109//6 108//6
f 105//5 106//5 110//5 109//5
f 103//4 104//4 108//4 107//4
f 113//5 114//5 118//5 117//5
f 107//4 108//4 112//4 111//4
f 110//2 107//2 111//2 114//2
f 108//6 109//6 113//6 112//6
f 116//1 117//1 118//1 115//1
f 111//4 112//4 116//4 115//4
f 114//2 111//2 115//2 118//2
f 122//2 119//2 120//2 121//2
f 82//5 50//5 120//5 119//5
f 73//1 82//1 119//1 122//1
f 49//4 73//4 122//4 121//4
f 123//4 124//4 126//4 125//4
f 129//4 123//4 125//4 130//4
f 128//4 129//4 130//4 127//4
f 95//19 43//19 127//19 130//19
f 94//13 69//13 123//13 129//13
f 43//25 41//25 128//25 127//25
f 44//19 70//19 125//19 126//19
f 41//13 94//13 129//13 128//13
o Cube.048_Cube.024
v -563.952332 470.668091 182.288086
v -727.679016 342.710724 58.926689
v -422.968201 479.307953 -13.789474
v -587.120239 352.899109 -136.072205
v -677.727234 646.414551 35.663528
v -761.674438 580.807312 -27.587303
v -605.440735 650.844543 -64.870918
v -689.167236 585.692444 -127.961830
v -373.693542 428.420654 -436.543823
v -274.017151 485.853516 -383.735626
v -317.896332 597.961548 -422.838745
v -417.572632 540.528687 -475.646942
v -256.606293 429.634277 -618.699341
v -183.321960 471.860229 -579.873413
v -215.582886 554.284546 -608.623047
v -288.867249 512.058594 -647.448914
v -182.418518 433.123230 -732.496948
v -128.863403 463.981384 -704.123596
v -152.439392 524.216003 -725.133118
v -205.994537 493.357880 -753.506653
v -482.705688 585.044861 -29.484261
v -656.477905 451.070740 -159.399292
v -632.426636 575.829956 178.674042
v -806.242737 439.987488 47.710724
v -290.033081 543.125061 -406.443665
v -395.851837 482.152954 -462.506195
v -187.581909 512.512939 -609.172485
v -265.382263 467.684937 -650.390869
v -125.157349 492.370117 -736.970703
v -182.012817 459.610352 -767.092590
v -133.251770 420.710449 -811.800415
v -79.696411 451.568604 -783.427124
v -72.981995 484.082153 -826.438660
v -129.837463 451.322418 -856.560486
v -154.281677 484.435852 -841.412170
v -100.726501 515.294067 -813.038757
v -98.377625 412.973145 -869.210999
v -44.822327 443.831329 -840.837708
v -38.107910 476.344849 -883.849182
v -94.963379 443.585083 -913.971130
v -119.407471 476.698486 -898.822815
v -65.852295 507.556641 -870.449280
v -59.034668 392.059265 -891.680237
v -24.563538 411.921265 -873.417664
v -20.241821 432.848755 -901.102234
v -56.837097 411.762787 -920.490295
v -86.131470 471.737427 -961.259094
v -110.575684 504.850891 -946.110779
v -57.020386 535.708984 -917.737366
v -29.276062 504.497192 -931.137207
v -32.994507 376.551941 -906.871643
v -9.755127 389.942322 -894.559387
v -6.841553 404.051086 -913.223511
v -31.513000 389.835510 -926.294495
v -9.273499 369.710632 -930.956482
v 5.253723 378.081177 -923.260071
v 7.075134 386.900665 -934.927429
v -8.347351 378.014343 -943.098206
v -76.219177 497.782776 -979.298767
v -92.472473 519.800293 -969.226379
v -56.862915 540.318237 -950.360535
v -38.415283 519.565063 -959.270447
v -297.200500 594.897339 361.659515
v -292.012604 354.245544 340.273651
v -157.744385 624.047424 150.267258
v -158.688965 374.936096 139.788559
v -464.937164 548.801636 174.389923
v -462.277191 425.412689 163.424805
v -394.789612 563.356628 68.482910
v -393.918457 436.021301 60.630470
v -14.845215 348.149292 -175.409576
v 25.825867 446.986511 -245.434753
v -81.048645 443.079437 -313.114655
v -121.714478 343.933807 -243.113556
v 68.329834 221.540985 -330.147095
v 98.474792 292.587769 -382.153778
v 19.902222 289.488464 -431.931396
v -10.242737 218.441589 -379.924683
v 119.332092 143.779541 -429.232178
v 141.361633 195.699768 -467.237946
v 83.941772 193.434753 -503.614594
v 61.912170 141.514709 -465.608856
v -268.421967 634.056824 98.919151
v -269.402618 369.696228 87.758560
v -416.449646 603.212219 323.301971
v -410.942078 347.730652 300.598236
v -23.625977 442.041962 -285.723969
v -67.153687 339.453949 -210.629028
v 68.169739 281.060913 -420.598022
v 36.167053 205.635986 -365.386353
v 124.927429 178.645142 -503.811737
v 101.540344 123.525696 -463.463959
v 162.479126 83.221375 -486.951569
v 184.508606 135.141602 -524.957397
v 167.409302 111.565247 -570.826599
v 144.022339 56.445618 -530.478760
v 104.496521 75.436951 -531.194824
v 126.526001 127.357117 -569.200684
v 192.361328 39.652100 -529.151367
v 214.390747 91.572388 -567.157104
v 197.291626 67.995850 -613.026550
v 173.904602 12.876221 -572.678589
v 134.378601 31.867737 -573.394592
v 156.408081 83.787903 -611.400330
v 235.219360 23.089966 -548.619263
v 249.398804 56.508667 -573.081848
v 238.392883 41.333374 -602.605896
v 223.339600 5.855652 -576.635803
v 161.096863 -15.522217 -618.897583
v 121.571045 3.469421 -619.613770
v 143.600647 55.389465 -657.619568
v 184.483948 39.597412 -659.245483
v 264.646362 11.213257 -560.549133
v 274.205811 33.743164 -577.041199
v 266.785950 23.512268 -596.945496
v 256.637512 -0.405884 -579.437256
v 286.451477 -5.852051 -581.113953
v 292.427002 8.231750 -591.423218
v 287.788818 1.836487 -603.865601
v 281.444824 -13.115112 -592.920898
v 151.378784 -18.673889 -650.483582
v 125.097412 -6.046204 -650.959656
v 139.745117 28.476196 -676.230164
v 166.929016 17.975891 -677.311279
vn 0.4476 -0.8488 0.2814
vn -0.3332 0.8613 -0.3837
vn -0.4478 0.8480 -0.2834
vn -0.4436 -0.2594 0.8578
vn 0.3782 0.8721 0.3105
vn -0.6470 -0.5776 -0.4977
vn -0.3060 0.8753 -0.3743
vn 0.8149 0.4614 0.3509
vn -0.7662 -0.1569 -0.6232
vn 0.4905 -0.8566 0.1603
vn -0.7692 -0.3549 -0.5314
vn 0.8508 0.3728 0.3703
vn -0.7689 -0.3887 -0.5076
vn 0.3852 -0.8906 0.2416
vn 0.7641 0.5074 0.3983
vn 0.3923 -0.8910 0.2285
vn -0.2980 0.8727 -0.3867
vn 0.8682 0.3358 0.3653
vn 0.7875 0.5420 0.2934
vn 0.3272 -0.8813 0.3408
vn -0.7141 -0.5288 -0.4588
vn 0.7960 0.5130 0.3214
vn -0.6885 -0.5612 -0.4594
vn -0.6061 -0.5512 -0.5734
vn 0.5491 0.7955 0.2562
vn -0.8076 -0.0586 -0.5868
vn 0.7038 0.4761 0.5272
vn -0.7355 0.4855 0.4726
vn -0.3375 0.8838 -0.3241
vn -0.7689 -0.4989 -0.3998
vn -0.3532 0.8869 -0.2978
vn 0.8056 0.4031 0.4343
vn -0.7668 -0.5029 -0.3988
vn -0.8078 -0.3983 -0.4345
vn 0.7581 0.4883 0.4323
vn 0.0304 -0.7046 0.7090
vn 0.8039 0.4073 0.4334
vn 0.7642 0.5095 0.3955
vn -0.8075 -0.3961 -0.4371
vn 0.3375 -0.8838 0.3241
vn 0.1966 0.4567 -0.8677
vn -0.6094 -0.6320 -0.4787
vn 0.9125 0.2449 0.3276
vn 0.2131 0.4346 -0.8750
vn 0.7638 0.6386 0.0939
vn -0.8150 -0.4181 -0.4011
vn -0.5957 0.7342 0.3258
vn 0.5957 -0.7342 -0.3258
vn -0.0886 0.7531 -0.6519
vn 0.8979 0.2722 0.3459
vn -0.6375 -0.6125 -0.4675
vn 0.0128 -0.6887 0.7249
vn 0.6093 -0.6754 -0.4154
vn 0.8933 0.2803 0.3513
vn -0.6459 -0.6063 -0.4639
vn 0.2372 -0.8478 0.4744
vn 0.1585 0.5051 -0.8484
vn -0.7015 -0.2057 -0.6824
vn 0.6162 -0.5933 -0.5179
vn -0.5410 0.8331 0.1151
vn 0.8350 -0.0285 0.5495
vn -0.7657 -0.0416 -0.6418
vn -0.8345 0.0295 -0.5502
vn -0.3107 -0.0908 0.9462
vn -0.4477 0.8769 -0.1752
vn 0.0727 -0.9959 -0.0544
vn -0.8085 -0.0815 -0.5829
vn 0.2124 0.9233 -0.3201
vn -0.3433 -0.9358 -0.0804
vn 0.9039 -0.0351 0.4264
vn -0.3770 -0.8211 0.4285
vn 0.4165 0.7081 -0.5701
vn -0.3543 -0.8130 0.4620
vn 0.8749 -0.0170 0.4841
vn 0.2710 0.7606 -0.5900
vn 0.8802 -0.0266 0.4739
vn -0.8011 -0.0929 -0.5912
vn 0.4599 0.6958 -0.5517
vn 0.2633 0.6880 -0.6762
vn 0.8276 0.0575 0.5583
vn -0.2207 -0.8077 0.5467
vn 0.2992 0.7034 -0.6448
vn -0.1804 -0.8134 0.5531
vn 0.0273 -0.9938 0.1078
vn -0.1755 0.8603 -0.4786
vn -0.3824 -0.8581 -0.3428
vn 0.0204 0.9885 0.1496
vn -0.9443 -0.0493 0.3255
vn -0.8365 -0.0448 -0.5461
vn -0.2802 -0.7601 0.5864
vn -0.8497 -0.0249 -0.5266
vn 0.3709 0.7643 -0.5275
vn -0.2759 -0.7601 0.5883
vn -0.3756 -0.7633 0.5256
vn 0.2797 0.7815 -0.5577
vn 0.4982 0.3645 0.7867
vn 0.3668 0.7647 -0.5298
vn 0.2696 0.7590 -0.5927
vn -0.3769 -0.7647 0.5226
vn 0.8365 0.0448 0.5461
vn -0.1701 -0.5341 -0.8282
vn -0.0749 -0.8349 0.5453
vn 0.5511 0.6406 -0.5347
vn -0.1435 -0.5442 -0.8266
vn 0.1769 0.5425 -0.8212
vn -0.3674 -0.7436 0.5587
vn -0.9178 0.3970 0.0104
vn 0.9178 -0.3970 -0.0104
vn -0.5722 -0.3123 -0.7583
vn 0.5229 0.6630 -0.5357
vn -0.1086 -0.8255 0.5539
vn 0.4750 0.3796 0.7939
vn 0.8876 -0.4496 -0.0998
vn 0.5144 0.6695 -0.5359
vn -0.1189 -0.8224 0.5563
vn 0.7413 0.1623 0.6513
vn -0.2298 -0.5095 -0.8292
vn -0.4258 -0.8780 0.2186
vn 0.8370 -0.5066 -0.2070
vn -0.9461 0.2647 -0.1868
usemtl Matériau.012
s off
f 131//26 132//26 134//26 133//26
f 138//27 137//27 141//27 142//27
f 137//28 138//28 136//28 135//28
f 153//29 154//29 132//29 131//29
f 151//30 137//30 135//30 153//30
f 152//31 134//31 132//31 154//31
f 142//32 141//32 145//32 146//32
f 151//33 133//33 140//33 155//33
f 152//34 138//34 142//34 156//34
f 133//35 134//35 139//35 140//35
f 158//36 146//36 150//36 160//36
f 155//37 140//37 144//37 157//37
f 156//38 142//38 146//38 158//38
f 140//39 139//39 143//39 144//39
f 149//40 159//40 163//40 166//40
f 144//41 143//41 147//41 148//41
f 146//42 145//42 149//42 150//42
f 157//43 144//43 148//43 159//43
f 145//44 157//44 159//44 149//44
f 148//45 147//45 161//45 162//45
f 139//46 156//46 158//46 143//46
f 141//47 155//47 157//47 145//47
f 143//48 158//48 160//48 147//48
f 134//49 152//49 156//49 139//49
f 137//50 151//50 155//50 141//50
f 138//51 152//51 154//51 136//51
f 133//52 151//52 153//52 131//52
f 135//53 136//53 154//53 153//53
f 165//54 166//54 172//54 171//54
f 161//55 164//55 170//55 167//55
f 150//56 149//56 166//56 165//56
f 159//57 148//57 162//57 163//57
f 147//58 160//58 164//58 161//58
f 160//59 150//59 165//59 164//59
f 172//60 169//60 180//60 179//60
f 168//61 167//61 173//61 174//61
f 163//62 162//62 168//62 169//62
f 166//63 163//63 169//63 172//63
f 164//64 165//64 171//64 170//64
f 162//65 161//65 167//65 168//65
f 176//66 175//66 183//66 184//66
f 167//67 170//67 176//67 173//67
f 169//68 168//68 174//68 175//68
f 170//69 169//69 175//69 176//69
f 179//70 180//70 192//70 191//70
f 170//71 171//71 178//71 177//71
f 171//72 172//72 179//72 178//72
f 169//73 170//73 177//73 180//73
f 184//74 183//74 187//74 188//74
f 175//75 174//75 182//75 183//75
f 173//76 176//76 184//76 181//76
f 174//77 173//77 181//77 182//77
f 186//78 185//78 188//78 187//78
f 183//79 182//79 186//79 187//79
f 181//80 184//80 188//80 185//80
f 182//81 181//81 185//81 186//81
f 192//82 189//82 190//82 191//82
f 177//83 178//83 190//83 189//83
f 180//84 177//84 189//84 192//84
f 178//85 179//85 191//85 190//85
f 193//86 194//86 196//86 195//86
f 200//87 199//87 203//87 204//87
f 199//88 200//88 198//88 197//88
f 215//89 216//89 194//89 193//89
f 213//90 199//90 197//90 215//90
f 214//91 196//91 194//91 216//91
f 204//92 203//92 207//92 208//92
f 213//93 195//93 202//93 217//93
f 214//94 200//94 204//94 218//94
f 195//95 196//95 201//95 202//95
f 220//96 208//96 212//96 222//96
f 217//97 202//97 206//97 219//97
f 218//98 204//98 208//98 220//98
f 202//99 201//99 205//99 206//99
f 211//100 221//100 225//100 228//100
f 206//101 205//101 209//101 210//101
f 208//102 207//102 211//102 212//102
f 219//103 206//103 210//103 221//103
f 207//104 219//104 221//104 211//104
f 210//105 209//105 223//105 224//105
f 201//106 218//106 220//106 205//106
f 203//107 217//107 219//107 207//107
f 205//108 220//108 222//108 209//108
f 196//109 214//109 218//109 201//109
f 199//110 213//110 217//110 203//110
f 200//111 214//111 216//111 198//111
f 195//112 213//112 215//112 193//112
f 197//113 198//113 216//113 215//113
f 227//114 228//114 234//114 233//114
f 223//115 226//115 232//115 229//115
f 212//116 211//116 228//116 227//116
f 221//117 210//117 224//117 225//117
f 209//118 222//118 226//118 223//118
f 222//119 212//119 227//119 226//119
f 234//120 231//120 242//120 241//120
f 230//121 229//121 235//121 236//121
f 225//122 224//122 230//122 231//122
f 228//123 225//123 231//123 234//123
f 226//124 227//124 233//124 232//124
f 224//125 223//125 229//125 230//125
f 238//126 237//126 245//126 246//126
f 229//127 232//127 238//127 235//127
f 231//128 230//128 236//128 237//128
f 232//129 231//129 237//129 238//129
f 241//130 242//130 254//130 253//130
f 232//131 233//131 240//131 239//131
f 233//132 234//132 241//132 240//132
f 231//133 232//133 239//133 242//133
f 246//134 245//134 249//134 250//134
f 237//135 236//135 244//135 245//135
f 235//136 238//136 246//136 243//136
f 236//137 235//137 243//137 244//137
f 248//138 247//138 250//138 249//138
f 245//139 244//139 248//139 249//139
f 243//140 246//140 250//140 247//140
f 244//141 243//141 247//141 248//141
f 254//142 251//142 252//142 253//142
f 239//143 240//143 252//143 251//143
f 242//144 239//144 251//144 254//144
f 240//145 241//145 253//145 252//145
