# Blender v2.91.2 OBJ File: 'camionnete02.blend'
# www.blender.org
mtllib arme_000016.mtl
o Cube.046_Cube.010
v 271.445740 201.423492 -1059.021484
v 244.125412 -16.289139 -1038.190674
v 372.821716 170.216187 -1252.226318
v 345.501404 -47.496460 -1231.395752
v 77.653046 215.790955 -1163.026611
v 50.332695 -1.921722 -1142.195801
v 179.029022 184.583618 -1356.231445
v 151.708679 -33.129059 -1335.400879
v 131.871078 244.389771 -793.016785
v 104.550751 26.677177 -772.185974
v -89.241913 41.044586 -876.191101
v -61.921593 258.757233 -897.021851
v 68.704422 263.834869 -672.632019
v 41.384064 46.122215 -651.801331
v -152.408646 60.489639 -755.806396
v -125.088318 278.202301 -776.637207
v 31.388351 275.322144 -601.514282
v 17.898643 115.024994 -598.165222
v -175.894104 129.392456 -702.170288
v -162.404388 289.689606 -705.519348
v 95.940262 480.874451 -693.398499
v -97.852432 495.241882 -797.403625
v 58.624207 492.361755 -622.280640
v -135.168488 506.729187 -726.285706
v 153.647293 237.686249 -834.518372
v 126.326996 19.973640 -813.687622
v -40.145393 252.053680 -938.523499
v -67.465752 34.341049 -917.692749
v 140.889725 316.258362 -799.893188
v -52.902962 330.625824 -903.898315
v 162.665955 309.554840 -841.394714
v -31.126762 323.922241 -945.399841
v 153.974350 420.527893 -809.869690
v -39.818359 434.895355 -913.874756
v 175.750504 413.824310 -851.371338
v -18.042149 428.191833 -955.376343
v 79.150711 335.263947 -682.229370
v -114.642014 349.631348 -786.234497
v 92.235306 439.533539 -692.205933
v -101.557411 453.900909 -796.210999
v 136.455917 608.735535 -751.228271
v -57.336777 623.102966 -855.233398
v 99.139847 620.222839 -680.110474
v -94.652794 634.590210 -784.115540
v 337.032837 181.233322 -1184.019287
v 309.712524 -36.479309 -1163.188477
v 143.240143 195.600769 -1288.024170
v 115.919846 -22.111877 -1267.193359
v 275.925354 177.399933 -1304.229004
v 248.605026 -40.312759 -1283.398193
v 174.549408 208.607224 -1111.024170
v 147.229050 -9.105423 -1090.193359
v 34.974747 251.573486 -845.019226
v 7.654415 33.860886 -824.188538
v -28.191940 271.018585 -724.634644
v -51.447136 63.941742 -690.835144
v -65.507996 282.505859 -653.516785
v -67.283432 110.403076 -654.668091
v -0.956100 488.058167 -745.401001
v -38.272125 499.545410 -674.283203
v 29.430618 27.157349 -865.690125
v 56.750946 244.869934 -886.520935
v 43.993378 323.442078 -851.895752
v 65.769577 316.738495 -893.397217
v 57.077995 427.711670 -861.872192
v 78.854172 421.008057 -903.373840
v -17.745647 342.447662 -734.231995
v -4.661053 446.717285 -744.208435
v 39.559555 615.919250 -803.230835
v 2.243504 627.406494 -732.112976
v 212.816147 -29.295609 -1215.190918
v 240.136490 188.417068 -1236.021729
v 324.373535 173.808060 -1278.227539
v 195.677231 -12.697281 -1064.192139
v 56.102577 30.269020 -798.187256
v -18.778419 61.519722 -673.302368
v -34.614697 107.981064 -637.135376
v 105.199127 241.278107 -860.519592
v 114.217758 313.146637 -867.395996
v 127.302353 417.416199 -877.372559
v 288.584656 184.825195 -1210.020264
v 297.053223 -43.904617 -1257.396973
v 222.997543 205.015350 -1085.022949
v 83.422913 247.981628 -819.018066
v 20.256218 267.426758 -698.633362
v -17.059837 278.914001 -627.515503
v 47.492096 484.466370 -719.399780
v 10.176056 495.953613 -648.281921
v 77.878799 23.565483 -839.688904
v 92.441544 319.850220 -825.894470
v 105.526138 424.119812 -835.870972
v 30.702530 338.855804 -708.230652
v 43.787125 443.125427 -718.207153
v 88.007767 612.327454 -777.229492
v 50.691696 623.814636 -706.111694
v 261.264343 -32.887451 -1189.189697
v 72.763443 -17.198242 -835.788635
v 24.315269 -13.606384 -861.789856
v 256.148926 -73.651176 -1185.289551
v 207.700821 -70.059334 -1211.290527
v 142.113708 -49.869156 -1086.292969
v 190.561874 -53.461014 -1060.291748
v 392.814514 120.086639 -1099.502930
v 363.812561 129.014526 -1044.230469
v 351.731873 32.744232 -1035.019043
v 380.733765 23.816330 -1090.291992
v 434.692139 116.981934 -1077.028320
v 405.690186 125.909790 -1021.755554
v 393.609497 29.639496 -1012.544373
v 422.611389 20.711624 -1067.816895
v 498.778198 112.230713 -1042.634521
v 469.776245 121.158585 -987.361816
v 457.695496 24.888321 -978.150574
v 486.697388 15.960434 -1033.423340
v 540.016724 109.173355 -1020.502502
v 511.014771 118.101227 -965.229858
v 498.934143 21.830948 -956.018677
v 527.936035 12.903061 -1011.291443
v 630.092896 -146.426300 -1892.111084
v 581.644714 -142.834457 -1918.112305
v 608.964905 74.878235 -1938.943115
v 657.413208 71.286377 -1912.941895
v 73.601440 676.241211 -823.867798
v -15.683319 682.860596 -871.785339
v 39.216713 686.826111 -758.336426
v -50.068001 693.445496 -806.253967
v 128.501450 680.206726 -710.419006
v 162.886246 669.621887 -775.950134
v 118.243866 672.931702 -799.908875
v 83.859085 683.516357 -734.377747
vn 0.8793 -0.0652 0.4719
vn 0.4599 -0.1416 -0.8766
vn -0.8793 0.0652 -0.4719
vn 0.1240 0.9878 -0.0945
vn -0.1240 -0.9878 0.0945
vn -0.4600 0.1416 0.8766
vn -0.3982 -0.6441 0.6531
vn -0.2074 -0.9746 0.0847
vn -0.5417 0.0349 0.8399
vn -0.8799 0.0649 -0.4707
vn 0.8799 -0.0649 0.4707
vn 0.3873 -0.4790 -0.7878
vn -0.4599 0.1416 0.8766
vn 0.4600 -0.1416 -0.8766
vn 0.3851 -0.4858 -0.7847
vn -0.3873 0.4790 0.7878
vn 0.7688 -0.1558 -0.6202
vn -0.7783 0.4110 -0.4747
vn -0.4330 0.0258 0.9010
vn -0.1029 -0.9844 0.1426
vn -0.3609 0.5553 0.7493
vn -0.4729 -0.0010 0.8811
vn -0.1540 -0.9763 0.1520
vn -0.0768 0.1045 0.9915
vn 0.3818 -0.8598 0.3392
vn 0.5885 0.7878 0.1816
vn 0.8592 -0.1782 0.4796
usemtl Matériau.011
s off
f 45//1 46//1 4//1 3//1
f 49//2 50//2 8//2 7//2
f 47//3 48//3 6//3 5//3
f 26//1 25//1 9//1 10//1
f 72//4 47//4 5//4 51//4
f 96//5 46//5 2//5 74//5
f 10//1 9//1 13//1 14//1
f 84//6 9//6 29//6 90//6
f 89//5 26//5 10//5 75//5
f 27//3 28//3 11//3 12//3
f 76//7 14//7 18//7 77//7
f 75//8 10//8 14//8 76//8
f 12//3 11//3 15//3 16//3
f 53//4 12//4 16//4 55//4
f 86//9 77//9 18//9 17//9
f 16//10 15//10 19//10 20//10
f 16//3 20//3 24//3 22//3
f 14//11 13//11 17//11 18//11
f 59//12 22//12 42//12 69//12
f 86//13 17//13 23//13 88//13
f 17//1 13//1 21//1 23//1
f 55//14 16//14 22//14 59//14
f 5//3 6//3 28//3 27//3
f 74//5 2//5 26//5 89//5
f 51//4 5//4 27//4 62//4
f 2//1 1//1 25//1 26//1
f 32//3 30//3 34//3 36//3
f 62//2 27//2 32//2 64//2
f 27//3 12//3 30//3 32//3
f 9//1 25//1 31//1 29//1
f 66//4 36//4 34//4 65//4
f 90//5 29//5 37//5 92//5
f 64//2 32//2 36//2 66//2
f 29//1 31//1 35//1 33//1
f 92//13 37//13 39//13 93//13
f 29//1 33//1 39//1 37//1
f 34//3 30//3 38//3 40//3
f 65//4 34//4 40//4 68//4
f 69//15 42//15 124//15 123//15
f 23//1 21//1 41//1 43//1
f 88//16 23//16 43//16 95//16
f 22//3 24//3 44//3 42//3
f 82//5 4//5 46//5 96//5
f 49//4 7//4 47//4 72//4
f 7//3 8//3 48//3 47//3
f 46//17 45//17 103//17 106//17
f 73//4 49//4 72//4 81//4
f 8//5 50//5 71//5 48//5
f 24//16 60//16 70//16 44//16
f 42//18 44//18 126//18 124//18
f 91//4 65//4 68//4 93//4
f 38//13 67//13 68//13 40//13
f 79//2 64//2 66//2 80//2
f 30//5 63//5 67//5 38//5
f 80//4 66//4 65//4 91//4
f 78//14 62//14 64//14 79//14
f 83//4 51//4 62//4 78//4
f 6//5 52//5 61//5 28//5
f 85//2 55//2 59//2 87//2
f 20//13 57//13 60//13 24//13
f 87//12 59//12 69//12 94//12
f 20//19 19//19 58//19 57//19
f 84//4 53//4 55//4 85//4
f 11//20 54//20 56//20 15//20
f 15//7 56//7 58//7 19//7
f 28//5 61//5 54//5 11//5
f 12//13 53//13 63//13 30//13
f 48//5 71//5 52//5 6//5
f 81//4 72//4 51//4 83//4
f 50//3 49//3 121//3 120//3
f 3//14 4//14 82//14 73//14
f 45//4 81//4 83//4 1//4
f 9//4 84//4 85//4 13//4
f 21//12 87//12 94//12 41//12
f 13//14 85//14 87//14 21//14
f 1//4 83//4 78//4 25//4
f 25//2 78//2 79//2 31//2
f 35//4 80//4 91//4 33//4
f 31//2 79//2 80//2 35//2
f 33//4 91//4 93//4 39//4
f 70//21 95//21 130//21 125//21
f 3//4 73//4 81//4 45//4
f 50//5 82//5 96//5 71//5
f 60//16 88//16 95//16 70//16
f 67//6 92//6 93//6 68//6
f 63//5 90//5 92//5 67//5
f 52//3 71//3 100//3 101//3
f 57//6 86//6 88//6 60//6
f 57//22 58//22 77//22 86//22
f 54//23 75//23 76//23 56//23
f 56//7 76//7 77//7 58//7
f 61//5 89//5 75//5 54//5
f 53//13 84//13 90//13 63//13
f 89//13 61//13 98//13 97//13
f 101//5 102//5 97//5 98//5
f 100//5 99//5 102//5 101//5
f 61//3 52//3 101//3 98//3
f 74//1 89//1 97//1 102//1
f 71//2 96//2 99//2 100//2
f 96//1 74//1 102//1 99//1
f 106//2 103//2 107//2 110//2
f 1//24 2//24 105//24 104//24
f 2//25 46//25 106//25 105//25
f 45//26 1//26 104//26 103//26
f 109//5 110//5 114//5 113//5
f 104//13 105//13 109//13 108//13
f 105//5 106//5 110//5 109//5
f 103//4 104//4 108//4 107//4
f 113//5 114//5 118//5 117//5
f 107//4 108//4 112//4 111//4
f 110//2 107//2 111//2 114//2
f 108//13 109//13 113//13 112//13
f 116//1 117//1 118//1 115//1
f 111//4 112//4 116//4 115//4
f 114//2 111//2 115//2 118//2
f 122//14 119//14 120//14 121//14
f 82//5 50//5 120//5 119//5
f 73//1 82//1 119//1 122//1
f 49//4 73//4 122//4 121//4
f 123//4 124//4 126//4 125//4
f 129//4 123//4 125//4 130//4
f 128//4 129//4 130//4 127//4
f 95//21 43//21 127//21 130//21
f 94//15 69//15 123//15 129//15
f 43//27 41//27 128//27 127//27
f 44//21 70//21 125//21 126//21
f 41//15 94//15 129//15 128//15
o Cube.048_Cube.024
v -563.969421 470.499115 182.298004
v -727.661011 342.689209 58.737251
v -422.960754 479.432190 -13.748711
v -587.053589 353.034973 -136.315491
v -677.750854 646.432434 35.902824
v -761.680115 580.900818 -27.450249
v -605.451782 651.012756 -64.615822
v -689.183350 585.898438 -127.821938
v -371.112457 430.219299 -436.839752
v -272.600616 488.626160 -382.926086
v -317.645844 600.387512 -421.694244
v -416.157623 541.980713 -475.607941
v -252.671143 434.067169 -618.081055
v -180.243103 477.009216 -578.442322
v -213.361328 559.178650 -606.945618
v -285.789429 516.236633 -646.584229
v -177.673523 439.215118 -731.283020
v -124.744019 470.596619 -702.315674
v -148.946411 530.644897 -723.145447
v -201.875854 499.263489 -752.112854
v -482.716370 585.179077 -29.304512
v -656.470703 451.198517 -159.515625
v -632.458801 575.655823 178.821075
v -806.237488 439.969849 47.646126
v -289.192200 545.820679 -405.413788
v -393.774689 483.814667 -462.649811
v -184.812378 517.780090 -607.529724
v -261.703796 472.191895 -649.610840
v -121.160583 499.230255 -734.963318
v -177.351807 465.914978 -765.715759
v -127.747375 427.926941 -810.279663
v -74.817810 459.308411 -781.312378
v -68.203308 492.167480 -824.076233
v -124.394531 458.852234 -854.828552
v -149.384583 491.551270 -839.670654
v -96.454895 522.932678 -810.703491
v -92.339966 420.994324 -867.466064
v -39.410522 452.375763 -838.498718
v -32.795959 485.234863 -881.262512
v -88.987183 451.919556 -912.014893
v -113.977173 484.618591 -896.857056
v -61.047607 516.000000 -867.889648
v -52.557068 400.732452 -889.757385
v -18.488831 420.931213 -871.112366
v -14.231323 442.081177 -898.637512
v -50.399048 420.637604 -918.431335
v -80.165771 480.471466 -959.064697
v -105.155762 513.170471 -943.906982
v -52.226257 544.551880 -914.939575
v -23.974609 513.786743 -928.312317
v -26.201599 385.658813 -904.840759
v -3.233704 399.276245 -892.270813
v -0.363403 413.534943 -910.827515
v -24.746704 399.078339 -924.171997
v -2.210754 379.274017 -928.783569
v 12.146790 387.786530 -920.925903
v 13.941101 396.699768 -932.525940
v -1.301208 387.662689 -940.867798
v -70.458679 506.753021 -976.872009
v -87.075012 528.494995 -966.793152
v -51.881409 549.360962 -947.532410
v -33.096436 528.904724 -956.424316
v -296.480469 594.947876 361.372192
v -291.341309 354.291443 340.026642
v -158.751221 623.929626 149.683197
v -159.336365 374.970184 138.669647
v -465.417969 548.731323 175.215103
v -462.782959 425.340027 164.270660
v -396.077911 563.168091 69.048187
v -395.100372 435.942566 61.029293
v -15.633667 352.711426 -180.813385
v 22.900696 454.359161 -247.929474
v -84.289368 450.694305 -315.124268
v -122.816101 348.752167 -248.035980
v 68.832581 232.603943 -339.971008
v 97.406677 305.798859 -389.841736
v 18.603577 302.888000 -439.265167
v -9.970459 229.692993 -389.394562
v 120.603455 158.962891 -441.768097
v 141.484924 212.452881 -478.212921
v 83.896851 210.325653 -514.330994
v 63.015198 156.835632 -477.886078
v -269.784058 633.875854 99.090096
v -270.385132 369.672668 87.364738
v -415.980499 603.206116 323.790924
v -410.524658 347.719604 301.130035
v -26.731445 449.901978 -288.018890
v -67.990906 344.212189 -216.008179
v 67.079468 294.965149 -428.469635
v 36.744568 217.259735 -375.525635
v 125.135132 196.282776 -515.223816
v 102.966797 139.496765 -476.533112
v 164.465149 101.054688 -501.628510
v 185.346680 154.544678 -538.073425
v 168.391296 132.141541 -584.579712
v 146.222961 75.355408 -545.889038
v 106.364624 93.652283 -545.782471
v 127.246094 147.142273 -582.227295
v 194.857727 59.392639 -545.361938
v 215.739258 112.882568 -581.806824
v 198.783813 90.479370 -628.313110
v 176.615540 33.693298 -589.622498
v 136.757080 51.990295 -589.515930
v 157.638550 105.480225 -625.960693
v 237.883789 44.226257 -565.582214
v 251.324341 78.655212 -589.040100
v 240.410828 64.235474 -618.974182
v 226.142029 27.684753 -594.070679
v 164.033875 6.559021 -636.656006
v 124.175415 24.856140 -636.549438
v 145.056946 78.346008 -672.994202
v 186.202209 63.345215 -675.346680
v 267.443726 33.262390 -578.045654
v 276.505005 56.473511 -593.860291
v 269.147583 46.751770 -614.041138
v 259.527832 22.110474 -597.251831
v 289.422607 17.252991 -599.263916
v 295.086914 31.762451 -609.149841
v 290.487549 25.685547 -621.765015
v 284.474243 10.281982 -611.269714
v 154.183472 4.243225 -668.273132
v 127.681091 16.409180 -668.202271
v 141.565491 51.975403 -692.434998
v 168.923462 42.001221 -693.999084
vn 0.4478 -0.8490 0.2806
vn -0.3367 0.8601 -0.3832
vn -0.4479 0.8483 -0.2824
vn -0.4437 -0.2606 0.8574
vn 0.3780 0.8717 0.3118
vn -0.6470 -0.5773 -0.4981
vn -0.3146 0.8735 -0.3714
vn 0.8116 0.4634 0.3557
vn -0.7638 -0.1574 -0.6259
vn 0.4940 -0.8546 0.1599
vn -0.7604 -0.3617 -0.5394
vn 0.8430 0.3816 0.3790
vn -0.7599 -0.3956 -0.5158
vn 0.3949 -0.8870 0.2393
vn 0.7544 0.5149 0.4072
vn 0.4022 -0.8872 0.2261
vn -0.3064 0.8711 -0.3838
vn 0.8610 0.3449 0.3739
vn 0.7781 0.5505 0.3026
vn 0.3362 -0.8790 0.3381
vn -0.7036 -0.5353 -0.4674
vn 0.7867 0.5214 0.3306
vn -0.6776 -0.5673 -0.4681
vn -0.6018 -0.5516 -0.5775
vn 0.5455 0.7966 0.2604
vn -0.8077 -0.0577 -0.5868
vn 0.7037 0.4755 0.5279
vn -0.7356 0.4847 0.4732
vn -0.3466 0.8812 -0.3214
vn -0.7593 -0.5064 -0.4087
vn -0.3625 0.8840 -0.2952
vn 0.7969 0.4109 0.4428
vn -0.7571 -0.5105 -0.4077
vn -0.7992 -0.4062 -0.4430
vn 0.7483 0.4955 0.4410
vn 0.0342 -0.7084 0.7050
vn 0.7952 0.4152 0.4420
vn 0.7544 0.5170 0.4044
vn -0.7989 -0.4039 -0.4457
vn 0.3466 -0.8812 0.3214
vn 0.1971 0.4645 -0.8634
vn -0.5974 -0.6370 -0.4872
vn 0.9067 0.2548 0.3360
vn 0.2141 0.4427 -0.8707
vn 0.7546 0.6479 0.1036
vn -0.8064 -0.4263 -0.4099
vn -0.6077 0.7244 0.3256
vn 0.6077 -0.7244 -0.3256
vn -0.0935 0.7558 -0.6481
vn 0.8916 0.2818 0.3544
vn -0.6258 -0.6179 -0.4760
vn 0.0163 -0.6929 0.7209
vn 0.6212 -0.6649 -0.4148
vn 0.8869 0.2898 0.3598
vn -0.6344 -0.6118 -0.4725
vn 0.2446 -0.8475 0.4711
vn 0.1583 0.5123 -0.8441
vn -0.6935 -0.2107 -0.6890
vn 0.6279 -0.5820 -0.5167
vn -0.5527 0.8253 0.1159
vn 0.8385 -0.0282 0.5442
vn -0.7696 -0.0382 -0.6374
vn -0.8380 0.0291 -0.5449
vn -0.3045 -0.0906 0.9482
vn -0.4488 0.8767 -0.1729
vn 0.0727 -0.9959 -0.0546
vn -0.8104 -0.0773 -0.5808
vn 0.2053 0.9291 -0.3075
vn -0.3396 -0.9361 -0.0910
vn 0.9067 -0.0339 0.4204
vn -0.3599 -0.8410 0.4041
vn 0.4006 0.7333 -0.5494
vn -0.3372 -0.8335 0.4377
vn 0.8779 -0.0168 0.4785
vn 0.2540 0.7837 -0.5668
vn 0.8833 -0.0260 0.4680
vn -0.8029 -0.0882 -0.5896
vn 0.4443 0.7211 -0.5316
vn 0.2471 0.7138 -0.6553
vn 0.8298 0.0544 0.5554
vn -0.2032 -0.8286 0.5217
vn 0.2828 0.7288 -0.6236
vn -0.1627 -0.8337 0.5277
vn 0.0337 -0.9949 0.0950
vn -0.1845 0.8656 -0.4654
vn -0.3843 -0.8583 -0.3401
vn 0.0211 0.9886 0.1489
vn -0.9421 -0.0495 0.3316
vn -0.8389 -0.0423 -0.5427
vn -0.2632 -0.7832 0.5633
vn -0.8523 -0.0233 -0.5225
vn 0.3541 0.7872 -0.5048
vn -0.2590 -0.7832 0.5652
vn -0.3589 -0.7863 0.5029
vn 0.2625 0.8038 -0.5339
vn 0.4964 0.3480 0.7953
vn 0.3501 0.7876 -0.5070
vn 0.2526 0.7822 -0.5696
vn -0.3602 -0.7876 0.5000
vn 0.8389 0.0423 0.5427
vn -0.1656 -0.5103 -0.8439
vn -0.0569 -0.8530 0.5188
vn 0.5365 0.6670 -0.5169
vn -0.1388 -0.5200 -0.8428
vn 0.1624 0.5715 -0.8044
vn -0.3509 -0.7674 0.5366
vn -0.9245 0.3800 0.0281
vn 0.9245 -0.3800 -0.0281
vn -0.5711 -0.2981 -0.7648
vn 0.5079 0.6890 -0.5171
vn -0.0907 -0.8445 0.5278
vn 0.4730 0.3625 0.8030
vn 0.8948 -0.4303 -0.1189
vn 0.4993 0.6953 -0.5170
vn -0.1011 -0.8417 0.5304
vn 0.7422 0.1546 0.6521
vn -0.2257 -0.4868 -0.8438
vn -0.4089 -0.8920 0.1927
vn 0.8445 -0.4848 -0.2276
vn -0.9517 0.2536 -0.1731
usemtl Matériau.012
s off
f 131//28 132//28 134//28 133//28
f 138//29 137//29 141//29 142//29
f 137//30 138//30 136//30 135//30
f 153//31 154//31 132//31 131//31
f 151//32 137//32 135//32 153//32
f 152//33 134//33 132//33 154//33
f 142//34 141//34 145//34 146//34
f 151//35 133//35 140//35 155//35
f 152//36 138//36 142//36 156//36
f 133//37 134//37 139//37 140//37
f 158//38 146//38 150//38 160//38
f 155//39 140//39 144//39 157//39
f 156//40 142//40 146//40 158//40
f 140//41 139//41 143//41 144//41
f 149//42 159//42 163//42 166//42
f 144//43 143//43 147//43 148//43
f 146//44 145//44 149//44 150//44
f 157//45 144//45 148//45 159//45
f 145//46 157//46 159//46 149//46
f 148//47 147//47 161//47 162//47
f 139//48 156//48 158//48 143//48
f 141//49 155//49 157//49 145//49
f 143//50 158//50 160//50 147//50
f 134//51 152//51 156//51 139//51
f 137//52 151//52 155//52 141//52
f 138//53 152//53 154//53 136//53
f 133//54 151//54 153//54 131//54
f 135//55 136//55 154//55 153//55
f 165//56 166//56 172//56 171//56
f 161//57 164//57 170//57 167//57
f 150//58 149//58 166//58 165//58
f 159//59 148//59 162//59 163//59
f 147//60 160//60 164//60 161//60
f 160//61 150//61 165//61 164//61
f 172//62 169//62 180//62 179//62
f 168//63 167//63 173//63 174//63
f 163//64 162//64 168//64 169//64
f 166//65 163//65 169//65 172//65
f 164//66 165//66 171//66 170//66
f 162//67 161//67 167//67 168//67
f 176//68 175//68 183//68 184//68
f 167//69 170//69 176//69 173//69
f 169//70 168//70 174//70 175//70
f 170//71 169//71 175//71 176//71
f 179//72 180//72 192//72 191//72
f 170//73 171//73 178//73 177//73
f 171//74 172//74 179//74 178//74
f 169//75 170//75 177//75 180//75
f 184//76 183//76 187//76 188//76
f 175//77 174//77 182//77 183//77
f 173//78 176//78 184//78 181//78
f 174//79 173//79 181//79 182//79
f 186//80 185//80 188//80 187//80
f 183//81 182//81 186//81 187//81
f 181//82 184//82 188//82 185//82
f 182//83 181//83 185//83 186//83
f 192//84 189//84 190//84 191//84
f 177//85 178//85 190//85 189//85
f 180//86 177//86 189//86 192//86
f 178//87 179//87 191//87 190//87
f 193//88 194//88 196//88 195//88
f 200//89 199//89 203//89 204//89
f 199//90 200//90 198//90 197//90
f 215//91 216//91 194//91 193//91
f 213//92 199//92 197//92 215//92
f 214//93 196//93 194//93 216//93
f 204//94 203//94 207//94 208//94
f 213//95 195//95 202//95 217//95
f 214//96 200//96 204//96 218//96
f 195//97 196//97 201//97 202//97
f 220//98 208//98 212//98 222//98
f 217//99 202//99 206//99 219//99
f 218//100 204//100 208//100 220//100
f 202//101 201//101 205//101 206//101
f 211//102 221//102 225//102 228//102
f 206//103 205//103 209//103 210//103
f 208//104 207//104 211//104 212//104
f 219//105 206//105 210//105 221//105
f 207//106 219//106 221//106 211//106
f 210//107 209//107 223//107 224//107
f 201//108 218//108 220//108 205//108
f 203//109 217//109 219//109 207//109
f 205//110 220//110 222//110 209//110
f 196//111 214//111 218//111 201//111
f 199//112 213//112 217//112 203//112
f 200//113 214//113 216//113 198//113
f 195//114 213//114 215//114 193//114
f 197//115 198//115 216//115 215//115
f 227//116 228//116 234//116 233//116
f 223//117 226//117 232//117 229//117
f 212//118 211//118 228//118 227//118
f 221//119 210//119 224//119 225//119
f 209//120 222//120 226//120 223//120
f 222//121 212//121 227//121 226//121
f 234//122 231//122 242//122 241//122
f 230//123 229//123 235//123 236//123
f 225//124 224//124 230//124 231//124
f 228//125 225//125 231//125 234//125
f 226//126 227//126 233//126 232//126
f 224//127 223//127 229//127 230//127
f 238//128 237//128 245//128 246//128
f 229//129 232//129 238//129 235//129
f 231//130 230//130 236//130 237//130
f 232//131 231//131 237//131 238//131
f 241//132 242//132 254//132 253//132
f 232//133 233//133 240//133 239//133
f 233//134 234//134 241//134 240//134
f 231//135 232//135 239//135 242//135
f 246//136 245//136 249//136 250//136
f 237//137 236//137 244//137 245//137
f 235//138 238//138 246//138 243//138
f 236//139 235//139 243//139 244//139
f 248//140 247//140 250//140 249//140
f 245//141 244//141 248//141 249//141
f 243//142 246//142 250//142 247//142
f 244//143 243//143 247//143 248//143
f 254//144 251//144 252//144 253//144
f 239//145 240//145 252//145 251//145
f 242//146 239//146 251//146 254//146
f 240//147 241//147 253//147 252//147
