# Blender v2.91.2 OBJ File: 'camionnete02.blend'
# www.blender.org
mtllib arme_000179.mtl
o Cube.046_Cube.010
v 219.640060 490.870850 -1217.186279
v 178.135086 274.475647 -1222.623291
v 283.907959 483.838318 -1427.897705
v 242.402924 267.443054 -1433.334839
v 12.937202 532.135498 -1281.608765
v -28.567841 315.740234 -1287.045776
v 77.205101 525.102905 -1492.320068
v 35.700081 308.707703 -1497.757202
v 131.155914 500.553223 -927.078552
v 89.650925 284.158020 -932.515503
v -117.051926 325.422607 -996.937866
v -75.546913 541.817871 -991.500916
v 91.111092 504.935181 -795.785583
v 49.606049 288.539917 -801.222534
v -157.096832 329.804565 -865.645020
v -115.591835 546.199829 -860.208069
v 67.454330 507.523804 -718.223633
v 41.374062 349.651245 -735.089111
v -165.328857 390.915894 -799.511597
v -139.248566 548.788452 -782.646118
v 144.961090 499.042603 -972.340576
v 103.456093 282.647400 -977.777588
v -61.741791 540.307251 -1036.763184
v -103.246819 323.911987 -1042.200195
v 261.219391 486.321045 -1353.510010
v 219.714371 269.925781 -1358.947144
v 54.516541 527.585632 -1417.932495
v 13.011551 311.190369 -1423.369385
v 180.556519 504.470642 -1460.108887
v 139.051483 288.075378 -1465.546021
v 116.288635 511.503174 -1249.397583
v 74.783653 295.107910 -1254.834473
v 27.804504 521.185547 -959.289612
v -13.700508 304.790283 -964.726562
v -12.240364 525.567505 -827.996826
v -46.670654 317.444153 -820.041260
v -35.897095 528.156128 -750.434814
v -52.221497 358.651733 -775.447327
v 0.104630 303.279663 -1009.988831
v 41.609642 519.674927 -1004.551819
v 116.362946 290.558044 -1391.158325
v 157.867950 506.953369 -1385.721191
v 232.232269 494.154480 -1444.003296
v 126.459351 284.791748 -1238.728882
v 37.975189 294.474182 -948.621033
v -11.825600 310.487915 -809.181274
v -17.376442 351.695496 -764.587219
v 93.285370 509.358765 -988.446167
v 209.543686 496.637207 -1369.615845
v 190.727249 277.759216 -1449.440308
v 167.964325 501.187073 -1233.292114
v 79.480209 510.869385 -943.184143
v 39.435333 515.251343 -811.891235
v 15.778610 517.839966 -734.329224
v 51.780365 292.963562 -993.883179
v 168.038605 280.241943 -1375.052734
v 44.009117 252.446457 -994.901184
v -7.666595 262.762634 -1011.006775
v 160.267334 239.724869 -1376.070923
v 108.591698 250.041031 -1392.176270
v 67.012398 254.590836 -1255.852539
v 118.688095 244.274673 -1239.746948
v 325.183136 409.841003 -1289.847534
v 306.797150 411.852844 -1229.566528
v 288.444183 316.165100 -1231.970703
v 306.830017 314.153259 -1292.251831
v 369.850525 400.923950 -1275.926270
v 351.464508 402.935852 -1215.645264
v 333.111511 307.248047 -1218.049438
v 351.497437 305.236206 -1278.330444
v 438.205872 387.278076 -1254.622314
v 419.819916 389.289917 -1194.341309
v 401.466858 293.602173 -1196.745361
v 419.852722 291.590332 -1257.026611
v 482.191650 378.497009 -1240.913452
v 463.805695 380.508911 -1180.632324
v 445.452667 284.821167 -1183.036621
v 463.838593 282.809326 -1243.317505
v 401.859741 254.656235 -2141.667236
v 350.184082 264.972351 -2157.772949
v 391.688965 481.367676 -2152.335938
v 443.364716 471.051514 -2136.229980
vn 0.9378 -0.1872 0.2923
vn 0.2916 -0.0319 -0.9560
vn -0.9378 0.1872 -0.2923
vn 0.1883 0.9818 0.0247
vn -0.1883 -0.9818 -0.0247
vn -0.3345 -0.7125 0.6168
vn -0.2708 -0.9625 -0.0174
vn -0.3870 -0.0630 0.9199
vn -0.9383 0.1868 -0.2910
vn 0.9383 -0.1868 0.2910
vn 0.6371 -0.1030 -0.7639
vn -0.2706 -0.0876 0.9587
vn -0.1592 -0.9871 0.0188
vn -0.3155 -0.1087 0.9427
vn -0.2071 -0.9776 0.0383
vn -0.2916 0.0319 0.9560
vn 0.1010 -0.0443 0.9939
vn 0.3604 -0.9221 0.1407
vn 0.6745 0.7155 0.1819
usemtl Matériau.011
s off
f 25//1 26//1 4//1 3//1
f 29//2 30//2 8//2 7//2
f 27//3 28//3 6//3 5//3
f 22//1 21//1 9//1 10//1
f 42//4 27//4 5//4 31//4
f 56//5 26//5 2//5 44//5
f 10//1 9//1 13//1 14//1
f 55//5 22//5 10//5 45//5
f 23//3 24//3 11//3 12//3
f 46//6 14//6 18//6 47//6
f 45//7 10//7 14//7 46//7
f 12//3 11//3 15//3 16//3
f 33//4 12//4 16//4 35//4
f 54//8 47//8 18//8 17//8
f 16//9 15//9 19//9 20//9
f 14//10 13//10 17//10 18//10
f 5//3 6//3 24//3 23//3
f 44//5 2//5 22//5 55//5
f 31//4 5//4 23//4 40//4
f 2//1 1//1 21//1 22//1
f 50//5 4//5 26//5 56//5
f 29//4 7//4 27//4 42//4
f 7//3 8//3 28//3 27//3
f 26//11 25//11 63//11 66//11
f 43//4 29//4 42//4 49//4
f 8//5 30//5 41//5 28//5
f 51//4 31//4 40//4 48//4
f 6//5 32//5 39//5 24//5
f 20//12 19//12 38//12 37//12
f 52//4 33//4 35//4 53//4
f 11//13 34//13 36//13 15//13
f 15//6 36//6 38//6 19//6
f 24//5 39//5 34//5 11//5
f 28//5 41//5 32//5 6//5
f 49//4 42//4 31//4 51//4
f 30//3 29//3 81//3 80//3
f 3//2 4//2 50//2 43//2
f 25//4 49//4 51//4 1//4
f 9//4 52//4 53//4 13//4
f 1//4 51//4 48//4 21//4
f 3//4 43//4 49//4 25//4
f 30//5 50//5 56//5 41//5
f 32//3 41//3 60//3 61//3
f 37//14 38//14 47//14 54//14
f 34//15 45//15 46//15 36//15
f 36//6 46//6 47//6 38//6
f 39//5 55//5 45//5 34//5
f 55//16 39//16 58//16 57//16
f 61//5 62//5 57//5 58//5
f 60//5 59//5 62//5 61//5
f 39//3 32//3 61//3 58//3
f 44//1 55//1 57//1 62//1
f 41//2 56//2 59//2 60//2
f 56//1 44//1 62//1 59//1
f 66//2 63//2 67//2 70//2
f 1//17 2//17 65//17 64//17
f 2//18 26//18 66//18 65//18
f 25//19 1//19 64//19 63//19
f 69//5 70//5 74//5 73//5
f 64//16 65//16 69//16 68//16
f 65//5 66//5 70//5 69//5
f 63//4 64//4 68//4 67//4
f 73//5 74//5 78//5 77//5
f 67//4 68//4 72//4 71//4
f 70//2 67//2 71//2 74//2
f 68//16 69//16 73//16 72//16
f 76//1 77//1 78//1 75//1
f 71//4 72//4 76//4 75//4
f 74//2 71//2 75//2 78//2
f 82//2 79//2 80//2 81//2
f 50//5 30//5 80//5 79//5
f 43//1 50//1 79//1 82//1
f 29//4 43//4 82//4 81//4
o Cube.048_Cube.024
v -496.552032 539.126770 153.828552
v -674.359009 401.100616 65.902512
v -369.572632 504.674469 -48.870384
v -547.062988 365.852509 -137.151825
v -612.175171 692.449097 -14.854225
v -703.341736 621.679199 -59.936348
v -547.069336 674.784424 -118.783669
v -637.789185 603.917603 -163.270966
v -369.285492 426.613251 -495.577911
v -258.541595 470.301636 -452.569183
v -299.992920 589.088684 -466.499664
v -410.736816 545.400330 -509.508270
v -283.304993 451.348175 -692.775940
v -201.883606 483.468811 -661.154968
v -232.359589 570.803772 -671.396790
v -313.781006 538.683105 -703.017883
v -228.371094 469.446228 -815.741699
v -168.869202 492.919647 -792.633545
v -191.140686 556.742920 -800.118164
v -250.642365 533.269531 -823.226318
v -425.271149 609.115967 -79.658836
v -613.215576 462.469482 -171.844421
v -560.168091 645.792969 135.494720
v -748.932068 499.261200 42.150436
v -273.857941 531.125122 -463.436920
v -391.426208 484.744537 -509.095856
v -207.882568 528.408569 -682.918640
v -294.321411 494.308472 -716.488098
v -168.478821 525.961487 -821.035645
v -231.647156 501.041626 -845.567810
v -193.646667 467.534576 -903.212097
v -134.144958 491.007904 -880.104004
v -132.135498 529.593140 -918.305603
v -195.303955 504.673309 -942.837769
v -214.548035 536.049133 -918.990051
v -155.046204 559.522400 -895.881958
v -169.127136 467.415222 -966.226501
v -109.625427 490.888580 -943.118408
v -107.616272 529.473755 -981.319763
v -170.784607 504.553955 -1005.851990
v -190.028595 535.929688 -982.004333
v -130.526917 559.403015 -958.896179
v -135.522705 448.549683 -997.927673
v -97.224304 463.658325 -983.053894
v -95.930847 488.493927 -1007.642517
v -136.589539 472.454132 -1023.432678
v -167.693054 539.419373 -1049.228760
v -186.937073 570.795105 -1025.381104
v -127.435425 594.268494 -1002.273010
v -104.524719 564.339233 -1024.696655
v -113.451904 434.471619 -1019.468689
v -87.632019 444.657471 -1009.441223
v -86.760010 461.400940 -1026.018188
v -114.170898 450.587372 -1036.663574
v -94.475159 430.458466 -1047.988403
v -78.334961 436.825806 -1041.719971
v -77.789856 447.292267 -1052.082520
v -94.924622 440.532623 -1058.737183
v -158.975281 567.515015 -1064.613159
v -171.771057 588.377258 -1048.756348
v -132.207581 603.984985 -1033.391479
v -116.973938 584.084595 -1048.301270
v -261.536255 469.754395 429.248413
v -371.243958 267.947693 354.176239
v -118.869873 466.770508 230.904907
v -232.826111 266.385681 156.096390
v -419.472443 553.131958 246.396973
v -475.722687 449.660004 207.905396
v -337.858887 552.796143 143.159500
v -404.752014 448.859070 106.344284
v -196.792053 218.547455 -115.480782
v -117.635193 160.519470 -38.027725
v -22.426147 185.681519 -114.331596
v -98.811890 242.628296 -191.917786
v -212.174622 30.713074 -222.125519
v -155.657593 -15.147156 -164.127716
v -83.620361 2.557739 -220.325867
v -140.137390 48.417847 -278.323761
v -218.988251 -87.476318 -288.839203
v -177.686462 -120.990356 -246.455078
v -125.042542 -108.051819 -287.523956
v -166.344299 -74.537964 -329.908051
v -195.333984 536.952148 188.855743
v -329.191010 326.749176 110.685501
v -359.670319 542.650085 400.670013
v -476.138611 328.407410 320.971710
v -69.564880 161.537903 -75.165321
v -151.172363 227.757538 -158.911255
v -121.273865 -23.722656 -199.812988
v -181.273621 24.963684 -261.384796
v -154.954285 -138.618164 -279.182892
v -198.801361 -103.039062 -324.178741
v -238.565826 -168.019653 -333.448608
v -197.264038 -201.533447 -291.064514
v -171.837708 -226.400330 -332.141815
v -215.684662 -190.821167 -377.137848
v -183.641907 -161.207520 -381.583771
v -142.340149 -194.721436 -339.199615
v -251.602081 -225.653809 -366.318024
v -210.300293 -259.167725 -323.933838
v -184.873840 -284.034668 -365.011261
v -228.720795 -248.455322 -410.007141
v -196.677948 -218.841614 -414.453094
v -155.376160 -252.355591 -372.068939
v -271.161072 -271.506836 -364.071136
v -244.577057 -293.078186 -336.790314
v -228.211273 -309.084167 -363.230072
v -256.433563 -286.183289 -392.191925
v -208.026947 -277.298096 -452.979095
v -175.984192 -247.684204 -457.425018
v -134.682312 -281.198425 -415.040924
v -164.180054 -312.877380 -407.983063
v -285.789825 -302.050964 -362.524323
v -267.867615 -316.593994 -344.132294
v -256.834229 -327.384766 -361.957489
v -275.860870 -311.945496 -381.482635
v -293.699066 -334.394043 -371.522247
v -282.495728 -343.484985 -360.025238
v -275.598480 -350.229980 -371.167755
v -287.492432 -340.579102 -383.373169
v -184.375916 -293.664429 -469.556427
v -163.070129 -273.973755 -472.512665
v -135.608093 -296.257690 -444.330872
v -155.221497 -317.321533 -439.638092
vn 0.4275 -0.8074 0.4066
vn -0.3178 0.8614 -0.3961
vn -0.4277 0.8069 -0.4075
vn -0.3932 -0.0771 0.9162
vn 0.4396 0.8896 0.1241
vn -0.7102 -0.6156 -0.3416
vn -0.2988 0.9368 -0.1822
vn 0.8721 0.4325 0.2289
vn -0.8292 -0.1584 -0.5361
vn 0.4786 -0.8649 0.1514
vn -0.8682 -0.2304 -0.4394
vn 0.9239 0.2699 0.2713
vn -0.8665 -0.2675 -0.4214
vn 0.3542 -0.9344 0.0372
vn 0.8527 0.4021 0.3334
vn 0.3591 -0.9330 0.0231
vn -0.2930 0.9358 -0.1961
vn 0.9376 0.2333 0.2579
vn 0.8613 0.4519 0.2323
vn 0.3138 -0.9383 0.1451
vn -0.8147 -0.4160 -0.4039
vn 0.8721 0.4184 0.2539
vn -0.7920 -0.4490 -0.4138
vn -0.6982 -0.5435 -0.4659
vn 0.6068 0.7794 0.1562
vn -0.8477 -0.1160 -0.5177
vn 0.7607 0.5203 0.3882
vn -0.6769 0.6035 0.4214
vn -0.3210 0.9385 -0.1267
vn -0.8571 -0.3933 -0.3328
vn -0.3321 0.9382 -0.0979
vn 0.8918 0.2917 0.3458
vn -0.8552 -0.3975 -0.3327
vn -0.8937 -0.2868 -0.3449
vn 0.8509 0.3782 0.3646
vn 0.0936 -0.8088 0.5806
vn 0.8903 0.2961 0.3459
vn 0.8525 0.4046 0.3309
vn -0.8937 -0.2842 -0.3472
vn 0.3211 -0.9385 0.1267
vn 0.0864 0.5791 -0.8107
vn -0.7223 -0.5194 -0.4566
vn 0.9686 0.1477 0.2001
vn 0.1000 0.5578 -0.8240
vn 0.8127 0.5799 0.0564
vn -0.8969 -0.3113 -0.3142
vn -0.4811 0.6997 0.5281
vn 0.4811 -0.6997 -0.5281
vn -0.1382 0.8503 -0.5078
vn 0.9591 0.1724 0.2245
vn -0.7467 -0.5006 -0.4379
vn 0.0800 -0.7949 0.6015
vn 0.4843 -0.6282 -0.6090
vn 0.9560 0.1797 0.2318
vn -0.7540 -0.4947 -0.4321
vn 0.2491 -0.9223 0.2955
vn 0.0555 0.6255 -0.7782
vn -0.8152 -0.0623 -0.5758
vn 0.4805 -0.5312 -0.6978
vn -0.4542 0.8282 0.3283
vn 0.6750 -0.5561 0.4850
vn 0.2061 0.7870 -0.5815
vn -0.6576 0.5695 -0.4931
vn -0.3711 -0.1397 0.9180
vn 0.0837 0.9954 0.0463
vn -0.4111 -0.8674 -0.2805
vn 0.7540 0.1240 -0.6450
vn 0.9589 0.2627 -0.1076
vn -0.7997 -0.2802 -0.5310
vn 0.1713 -0.8187 0.5481
vn -0.5275 0.4267 -0.7346
vn 0.5128 -0.5722 0.6400
vn -0.5565 0.4365 -0.7069
vn -0.7742 -0.2567 0.5786
vn 0.6539 -0.4793 0.5854
vn -0.7873 -0.2680 0.5553
vn 0.7542 0.1108 -0.6473
vn 0.4927 -0.5917 0.6380
vn 0.6730 -0.5474 0.4974
vn -0.7668 -0.1582 0.6221
vn -0.6790 0.4064 -0.6114
vn 0.6758 -0.5287 0.5136
vn -0.7078 0.3824 -0.5940
vn -0.7328 -0.6719 -0.1076
vn 0.6346 0.6598 -0.4025
vn -0.7264 -0.4674 -0.5039
vn 0.5008 0.7880 0.3582
vn -0.8693 0.3387 0.3600
vn 0.7707 0.1751 -0.6126
vn -0.6464 0.4831 -0.5906
vn 0.7763 0.2012 -0.5974
vn 0.5627 -0.5024 0.6565
vn -0.6499 0.4816 -0.5880
vn -0.5584 0.5044 -0.6586
vn 0.6402 -0.4588 0.6162
vn -0.5674 0.2800 0.7743
vn 0.5666 -0.5012 0.6541
vn 0.6555 -0.4805 0.5826
vn -0.5566 0.5030 -0.6612
vn -0.7707 -0.1751 0.6126
vn 0.3252 -0.5615 -0.7609
vn -0.7710 0.3014 -0.5611
vn 0.4027 -0.6510 0.6434
vn 0.3044 -0.5803 -0.7554
vn 0.7314 -0.6156 0.2934
vn -0.5730 0.5256 -0.6288
vn 0.7024 0.6996 -0.1313
vn -0.7024 -0.6996 0.1313
vn 0.6176 -0.2007 -0.7605
vn 0.4308 -0.6288 0.6473
vn -0.7533 0.3320 -0.5678
vn -0.5513 0.3034 0.7772
vn -0.6582 -0.7513 0.0474
vn 0.4391 -0.6220 0.6483
vn -0.7476 0.3413 -0.5697
vn -0.7223 -0.0157 0.6914
vn 0.3713 -0.5175 -0.7710
vn -0.3986 0.3013 -0.8662
vn -0.5942 -0.8024 -0.0555
vn 0.7705 0.5567 -0.3106
usemtl Matériau.012
s off
f 83//20 84//20 86//20 85//20
f 90//21 89//21 93//21 94//21
f 89//22 90//22 88//22 87//22
f 105//23 106//23 84//23 83//23
f 103//24 89//24 87//24 105//24
f 104//25 86//25 84//25 106//25
f 94//26 93//26 97//26 98//26
f 103//27 85//27 92//27 107//27
f 104//28 90//28 94//28 108//28
f 85//29 86//29 91//29 92//29
f 110//30 98//30 102//30 112//30
f 107//31 92//31 96//31 109//31
f 108//32 94//32 98//32 110//32
f 92//33 91//33 95//33 96//33
f 101//34 111//34 115//34 118//34
f 96//35 95//35 99//35 100//35
f 98//36 97//36 101//36 102//36
f 109//37 96//37 100//37 111//37
f 97//38 109//38 111//38 101//38
f 100//39 99//39 113//39 114//39
f 91//40 108//40 110//40 95//40
f 93//41 107//41 109//41 97//41
f 95//42 110//42 112//42 99//42
f 86//43 104//43 108//43 91//43
f 89//44 103//44 107//44 93//44
f 90//45 104//45 106//45 88//45
f 85//46 103//46 105//46 83//46
f 87//47 88//47 106//47 105//47
f 117//48 118//48 124//48 123//48
f 113//49 116//49 122//49 119//49
f 102//50 101//50 118//50 117//50
f 111//51 100//51 114//51 115//51
f 99//52 112//52 116//52 113//52
f 112//53 102//53 117//53 116//53
f 124//54 121//54 132//54 131//54
f 120//55 119//55 125//55 126//55
f 115//56 114//56 120//56 121//56
f 118//57 115//57 121//57 124//57
f 116//58 117//58 123//58 122//58
f 114//59 113//59 119//59 120//59
f 128//60 127//60 135//60 136//60
f 119//61 122//61 128//61 125//61
f 121//62 120//62 126//62 127//62
f 122//63 121//63 127//63 128//63
f 131//64 132//64 144//64 143//64
f 122//65 123//65 130//65 129//65
f 123//66 124//66 131//66 130//66
f 121//67 122//67 129//67 132//67
f 136//68 135//68 139//68 140//68
f 127//69 126//69 134//69 135//69
f 125//70 128//70 136//70 133//70
f 126//71 125//71 133//71 134//71
f 138//72 137//72 140//72 139//72
f 135//73 134//73 138//73 139//73
f 133//74 136//74 140//74 137//74
f 134//75 133//75 137//75 138//75
f 144//76 141//76 142//76 143//76
f 129//77 130//77 142//77 141//77
f 132//78 129//78 141//78 144//78
f 130//79 131//79 143//79 142//79
f 145//80 146//80 148//80 147//80
f 152//81 151//81 155//81 156//81
f 151//82 152//82 150//82 149//82
f 167//83 168//83 146//83 145//83
f 165//84 151//84 149//84 167//84
f 166//85 148//85 146//85 168//85
f 156//86 155//86 159//86 160//86
f 165//87 147//87 154//87 169//87
f 166//88 152//88 156//88 170//88
f 147//89 148//89 153//89 154//89
f 172//90 160//90 164//90 174//90
f 169//91 154//91 158//91 171//91
f 170//92 156//92 160//92 172//92
f 154//93 153//93 157//93 158//93
f 163//94 173//94 177//94 180//94
f 158//95 157//95 161//95 162//95
f 160//96 159//96 163//96 164//96
f 171//97 158//97 162//97 173//97
f 159//98 171//98 173//98 163//98
f 162//99 161//99 175//99 176//99
f 153//100 170//100 172//100 157//100
f 155//101 169//101 171//101 159//101
f 157//102 172//102 174//102 161//102
f 148//103 166//103 170//103 153//103
f 151//104 165//104 169//104 155//104
f 152//105 166//105 168//105 150//105
f 147//106 165//106 167//106 145//106
f 149//107 150//107 168//107 167//107
f 179//108 180//108 186//108 185//108
f 175//109 178//109 184//109 181//109
f 164//110 163//110 180//110 179//110
f 173//111 162//111 176//111 177//111
f 161//112 174//112 178//112 175//112
f 174//113 164//113 179//113 178//113
f 186//114 183//114 194//114 193//114
f 182//115 181//115 187//115 188//115
f 177//116 176//116 182//116 183//116
f 180//117 177//117 183//117 186//117
f 178//118 179//118 185//118 184//118
f 176//119 175//119 181//119 182//119
f 190//120 189//120 197//120 198//120
f 181//121 184//121 190//121 187//121
f 183//122 182//122 188//122 189//122
f 184//123 183//123 189//123 190//123
f 193//124 194//124 206//124 205//124
f 184//125 185//125 192//125 191//125
f 185//126 186//126 193//126 192//126
f 183//127 184//127 191//127 194//127
f 198//128 197//128 201//128 202//128
f 189//129 188//129 196//129 197//129
f 187//130 190//130 198//130 195//130
f 188//131 187//131 195//131 196//131
f 200//132 199//132 202//132 201//132
f 197//133 196//133 200//133 201//133
f 195//134 198//134 202//134 199//134
f 196//135 195//135 199//135 200//135
f 206//136 203//136 204//136 205//136
f 191//137 192//137 204//137 203//137
f 194//138 191//138 203//138 206//138
f 192//139 193//139 205//139 204//139
