# Blender v2.91.2 OBJ File: 'camionnete02.blend'
# www.blender.org
mtllib arme_000125.mtl
o Cube.046_Cube.010
v 100.842102 307.062988 -1266.839478
v 128.042114 89.192955 -1247.554443
v 155.842834 295.067017 -1479.936035
v 183.042816 77.196960 -1460.651001
v -110.851486 275.952759 -1319.726807
v -83.651550 58.082657 -1300.441772
v -55.850784 263.956757 -1532.823120
v -28.650864 46.086670 -1513.538208
v 25.117035 323.579041 -973.447876
v 52.317017 105.709053 -954.162720
v -159.376541 74.598770 -1007.049988
v -186.576523 292.468811 -1026.335083
v -9.153458 331.053711 -840.668701
v 18.046463 113.183655 -821.383789
v -193.647171 82.073364 -874.270996
v -220.847122 299.943420 -893.556091
v -29.399002 335.469360 -762.228943
v -6.068626 176.274124 -761.266846
v -217.762283 145.163849 -814.154114
v -241.092636 304.359131 -815.116150
v -36.269363 548.250183 -859.894226
v -247.962997 517.139893 -912.781616
v -56.514877 552.665894 -781.454407
v -268.208496 521.555664 -834.341675
v 36.931580 321.002258 -1019.222290
v 64.131546 103.132225 -999.937256
v -174.762039 289.892029 -1072.109619
v -147.562088 72.021942 -1052.824585
v 16.138153 395.499634 -979.813965
v -195.555496 364.389343 -1032.701416
v 27.952698 392.922791 -1025.588379
v -183.740952 361.812500 -1078.475586
v 3.111244 499.844604 -989.050293
v -208.582352 468.734314 -1041.937500
v 14.925720 497.267700 -1034.824707
v -196.767868 466.157471 -1087.711914
v -17.357834 402.805298 -850.035950
v -229.051468 371.695007 -902.923279
v -30.384750 507.150269 -859.272217
v -242.078384 476.039978 -912.159485
v -40.367264 680.673889 -921.387756
v -252.060898 649.563599 -974.275085
v -60.612823 685.089478 -842.947998
v -272.306396 653.979248 -895.835144
v 136.425888 299.302002 -1404.706421
v 163.625824 81.431908 -1385.421387
v -75.267746 268.191711 -1457.593506
v -48.067749 50.321655 -1438.308472
v 49.996040 279.511902 -1506.379639
v 77.195992 61.641815 -1487.094727
v -5.004684 291.507874 -1293.283081
v 22.195297 73.637817 -1273.998047
v -80.729721 308.023926 -999.891418
v -53.529770 90.153908 -980.606384
v -115.000290 315.498596 -867.112488
v -83.108963 109.169273 -835.884338
v -135.245789 319.914246 -788.672607
v -99.369843 151.711349 -795.347290
v -142.116196 532.695068 -886.337830
v -162.361679 537.110779 -807.898071
v -41.715271 87.577087 -1026.380859
v -68.915237 305.447144 -1045.666016
v -89.708664 379.944519 -1006.257751
v -77.894119 377.367615 -1052.031982
v -102.735565 484.289490 -1015.493774
v -90.921066 481.712585 -1061.268311
v -123.204666 387.250183 -876.479675
v -136.231567 491.595154 -885.715820
v -146.214127 665.118774 -947.831482
v -166.459610 669.534302 -869.391602
v 57.779015 65.876778 -1411.864990
v 30.579063 283.746826 -1431.150024
v 102.919464 287.289490 -1493.157715
v 75.118721 81.415382 -1260.776245
v -0.606377 97.931465 -967.384644
v -47.422592 114.413704 -826.968811
v -63.683441 156.955780 -786.431702
v -15.991791 313.224670 -1032.444092
v -24.970718 385.145203 -1038.810303
v -37.997665 489.490112 -1048.046631
v 83.502487 291.524414 -1417.928223
v 130.119415 69.419388 -1473.872803
v 47.918686 299.285400 -1280.061401
v -27.806351 315.801453 -986.669739
v -62.076874 323.276123 -853.890625
v -82.322403 327.691772 -775.450684
v -89.192764 540.472656 -873.116089
v -109.438248 544.888306 -794.676208
v 11.208138 95.354652 -1013.159119
v -36.785248 387.722046 -993.035828
v -49.812164 492.067017 -1002.272095
v -70.281250 395.027710 -863.257812
v -83.308151 499.372742 -872.494019
v -93.290665 672.896301 -934.609558
v -113.536194 677.311890 -856.169678
v 110.702377 73.654343 -1398.643188
v 16.300949 54.561478 -1009.548218
v -36.622437 46.783890 -1022.770020
v 115.795189 32.861137 -1395.032471
v 62.871861 25.083572 -1408.254150
v 27.288116 32.844604 -1270.387207
v 80.211533 40.622192 -1257.165405
v 223.327835 253.816147 -1338.581055
v 207.593063 257.247955 -1277.617798
v 219.620758 160.908096 -1269.089966
v 235.355377 157.476227 -1330.053467
v 269.073730 260.538910 -1327.152466
v 253.338959 263.970703 -1266.189087
v 265.366547 167.630844 -1257.661499
v 281.101257 164.198990 -1318.624878
v 339.079468 270.826904 -1309.663086
v 323.344727 274.258728 -1248.699707
v 335.372314 177.918854 -1240.171997
v 351.106934 174.486984 -1301.135498
v 384.127319 277.447021 -1298.408936
v 368.392578 280.878906 -1237.445557
v 380.420166 184.539047 -1228.917847
v 396.154846 181.107178 -1289.881226
v 310.807465 30.010696 -2173.935059
v 257.884094 22.233124 -2187.156738
v 230.683990 240.103165 -2206.442139
v 283.607513 247.880737 -2193.220215
v -132.420425 731.039917 -974.053467
v -229.952560 716.706665 -998.419861
v -151.075546 735.108765 -901.775269
v -248.607620 720.775513 -926.141724
v -53.543457 749.441956 -877.409058
v -34.888260 745.373291 -949.687012
v -83.654312 738.206726 -961.870239
v -102.309494 742.275269 -889.592102
vn 0.9605 0.1411 0.2400
vn 0.2495 -0.0544 -0.9668
vn -0.9605 -0.1411 -0.2400
vn -0.1234 0.9885 -0.0875
vn 0.1234 -0.9885 0.0875
vn -0.2495 0.0544 0.9668
vn -0.0736 -0.7026 0.7078
vn 0.0393 -0.9943 0.0989
vn -0.3123 -0.0685 0.9475
vn -0.9607 -0.1416 -0.2386
vn 0.9607 0.1416 0.2386
vn 0.2770 -0.3976 -0.8747
vn -0.9605 -0.1412 -0.2400
vn 0.2772 -0.4046 -0.8715
vn -0.2770 0.3976 0.8747
vn 0.6074 0.0055 -0.7944
vn -0.9419 0.2183 -0.2554
vn -0.1926 -0.0519 0.9799
vn 0.1544 -0.9795 0.1290
vn -0.2784 0.4770 0.8337
vn -0.2293 -0.0874 0.9694
vn 0.1067 -0.9828 0.1509
vn 0.1485 0.1056 0.9833
vn 0.6329 -0.7465 0.2054
vn 0.4270 0.9023 0.0594
vn 0.9683 0.0267 0.2484
usemtl Matériau.011
s off
f 45//1 46//1 4//1 3//1
f 49//2 50//2 8//2 7//2
f 47//3 48//3 6//3 5//3
f 26//1 25//1 9//1 10//1
f 72//4 47//4 5//4 51//4
f 96//5 46//5 2//5 74//5
f 10//1 9//1 13//1 14//1
f 84//6 9//6 29//6 90//6
f 89//5 26//5 10//5 75//5
f 27//3 28//3 11//3 12//3
f 76//7 14//7 18//7 77//7
f 75//8 10//8 14//8 76//8
f 12//3 11//3 15//3 16//3
f 53//4 12//4 16//4 55//4
f 86//9 77//9 18//9 17//9
f 16//10 15//10 19//10 20//10
f 16//3 20//3 24//3 22//3
f 14//11 13//11 17//11 18//11
f 59//12 22//12 42//12 69//12
f 86//6 17//6 23//6 88//6
f 17//1 13//1 21//1 23//1
f 55//2 16//2 22//2 59//2
f 5//3 6//3 28//3 27//3
f 74//5 2//5 26//5 89//5
f 51//4 5//4 27//4 62//4
f 2//1 1//1 25//1 26//1
f 32//3 30//3 34//3 36//3
f 62//2 27//2 32//2 64//2
f 27//13 12//13 30//13 32//13
f 9//1 25//1 31//1 29//1
f 66//4 36//4 34//4 65//4
f 90//5 29//5 37//5 92//5
f 64//2 32//2 36//2 66//2
f 29//1 31//1 35//1 33//1
f 92//6 37//6 39//6 93//6
f 29//1 33//1 39//1 37//1
f 34//3 30//3 38//3 40//3
f 65//4 34//4 40//4 68//4
f 69//14 42//14 124//14 123//14
f 23//1 21//1 41//1 43//1
f 88//15 23//15 43//15 95//15
f 22//3 24//3 44//3 42//3
f 82//5 4//5 46//5 96//5
f 49//4 7//4 47//4 72//4
f 7//3 8//3 48//3 47//3
f 46//16 45//16 103//16 106//16
f 73//4 49//4 72//4 81//4
f 8//5 50//5 71//5 48//5
f 24//15 60//15 70//15 44//15
f 42//17 44//17 126//17 124//17
f 91//4 65//4 68//4 93//4
f 38//6 67//6 68//6 40//6
f 79//2 64//2 66//2 80//2
f 30//5 63//5 67//5 38//5
f 80//4 66//4 65//4 91//4
f 78//2 62//2 64//2 79//2
f 83//4 51//4 62//4 78//4
f 6//5 52//5 61//5 28//5
f 85//2 55//2 59//2 87//2
f 20//6 57//6 60//6 24//6
f 87//12 59//12 69//12 94//12
f 20//18 19//18 58//18 57//18
f 84//4 53//4 55//4 85//4
f 11//19 54//19 56//19 15//19
f 15//7 56//7 58//7 19//7
f 28//5 61//5 54//5 11//5
f 12//6 53//6 63//6 30//6
f 48//5 71//5 52//5 6//5
f 81//4 72//4 51//4 83//4
f 50//3 49//3 121//3 120//3
f 3//2 4//2 82//2 73//2
f 45//4 81//4 83//4 1//4
f 9//4 84//4 85//4 13//4
f 21//12 87//12 94//12 41//12
f 13//2 85//2 87//2 21//2
f 1//4 83//4 78//4 25//4
f 25//2 78//2 79//2 31//2
f 35//4 80//4 91//4 33//4
f 31//2 79//2 80//2 35//2
f 33//4 91//4 93//4 39//4
f 70//20 95//20 130//20 125//20
f 3//4 73//4 81//4 45//4
f 50//5 82//5 96//5 71//5
f 60//15 88//15 95//15 70//15
f 67//6 92//6 93//6 68//6
f 63//5 90//5 92//5 67//5
f 52//3 71//3 100//3 101//3
f 57//6 86//6 88//6 60//6
f 57//21 58//21 77//21 86//21
f 54//22 75//22 76//22 56//22
f 56//7 76//7 77//7 58//7
f 61//5 89//5 75//5 54//5
f 53//6 84//6 90//6 63//6
f 89//6 61//6 98//6 97//6
f 101//5 102//5 97//5 98//5
f 100//5 99//5 102//5 101//5
f 61//3 52//3 101//3 98//3
f 74//1 89//1 97//1 102//1
f 71//2 96//2 99//2 100//2
f 96//1 74//1 102//1 99//1
f 106//2 103//2 107//2 110//2
f 1//23 2//23 105//23 104//23
f 2//24 46//24 106//24 105//24
f 45//25 1//25 104//25 103//25
f 109//5 110//5 114//5 113//5
f 104//6 105//6 109//6 108//6
f 105//5 106//5 110//5 109//5
f 103//4 104//4 108//4 107//4
f 113//5 114//5 118//5 117//5
f 107//4 108//4 112//4 111//4
f 110//2 107//2 111//2 114//2
f 108//6 109//6 113//6 112//6
f 116//1 117//1 118//1 115//1
f 111//4 112//4 116//4 115//4
f 114//2 111//2 115//2 118//2
f 122//2 119//2 120//2 121//2
f 82//5 50//5 120//5 119//5
f 73//1 82//1 119//1 122//1
f 49//4 73//4 122//4 121//4
f 123//4 124//4 126//4 125//4
f 129//4 123//4 125//4 130//4
f 128//4 129//4 130//4 127//4
f 95//20 43//20 127//20 130//20
f 94//14 69//14 123//14 129//14
f 43//26 41//26 128//26 127//26
f 44//20 70//20 125//20 126//20
f 41//14 94//14 129//14 128//14
o Cube.048_Cube.024
v -532.079468 502.502716 145.832306
v -670.338379 320.622620 67.081482
v -409.215607 499.194244 -62.232758
v -546.621399 317.221680 -140.584412
v -691.350281 616.463501 -18.411629
v -762.239441 523.208557 -58.789375
v -628.354492 614.767212 -125.092384
v -698.775146 521.667114 -164.922729
v -402.867859 400.727051 -498.827850
v -309.445160 480.625244 -468.643158
v -386.078827 578.791016 -491.301605
v -479.501465 498.892761 -521.486267
v -336.519775 426.938446 -703.284241
v -267.833313 485.681396 -681.091736
v -324.176147 557.855103 -697.750671
v -392.862610 499.112152 -719.943115
v -294.719666 446.211731 -831.140198
v -244.524536 489.140320 -814.922180
v -285.699097 541.883850 -827.096375
v -335.894379 498.955261 -843.314270
v -491.938599 584.559021 -91.152290
v -637.652710 392.012390 -173.209869
v -622.487915 588.101685 129.709686
v -769.266663 395.013672 46.105988
v -343.216125 532.238525 -484.384552
v -442.395813 447.416718 -516.429260
v -288.269348 523.809326 -706.740479
v -361.188507 461.446442 -730.300354
v -255.472839 517.167603 -846.437317
v -308.761200 471.593658 -863.654663
v -264.553650 444.619965 -920.291687
v -214.358643 487.548492 -904.073669
v -225.864380 520.155640 -945.985718
v -279.152710 474.581665 -963.202820
v -306.200165 501.239349 -941.264587
v -256.005127 544.167847 -925.046570
v -243.682098 444.512726 -984.606506
v -193.486847 487.441376 -968.388611
v -204.992615 520.048401 -1010.300476
v -258.281097 474.474487 -1027.517700
v -285.328430 501.132080 -1005.579285
v -235.133301 544.060608 -989.361389
v -207.160522 433.109375 -1016.642029
v -174.852234 460.740540 -1006.203186
v -182.257996 481.728271 -1033.179810
v -216.557312 452.394348 -1044.261841
v -267.811768 503.281921 -1074.272461
v -294.859253 529.939575 -1052.333862
v -244.664032 572.868164 -1036.116089
v -214.523529 548.855896 -1057.054932
v -182.680603 423.939087 -1038.228271
v -160.899109 442.567261 -1031.190796
v -165.891907 456.716675 -1049.377686
v -189.015564 436.940491 -1056.848999
v -164.523621 422.530701 -1067.518555
v -150.907776 434.175415 -1063.119385
v -154.028870 443.020294 -1074.488159
v -168.483582 430.657990 -1079.158813
v -268.809570 530.683228 -1092.986450
v -286.793671 548.408203 -1078.399048
v -253.418274 576.951965 -1067.615723
v -233.377441 560.985962 -1081.538330
v -240.061890 573.816040 375.651764
v -327.488586 348.565613 371.600555
v -114.091614 526.917114 176.777496
v -198.845123 302.218628 172.351013
v -414.965942 581.886536 189.442810
v -459.792023 466.394348 187.365662
v -341.957001 560.779968 85.271370
v -393.833008 442.630951 85.204834
v -90.277771 179.020996 -80.567924
v -7.249207 191.922241 12.140343
v 73.965027 245.704956 -65.875832
v -6.209045 232.768494 -158.454224
v 10.723999 -6.807800 -127.019814
v 71.348145 0.186340 -56.757019
v 133.157410 39.702698 -114.020714
v 72.533203 32.708496 -184.283600
v 76.625793 -122.106995 -155.811188
v 120.929077 -116.995667 -104.464012
v 166.098389 -88.117615 -146.311615
v 121.795166 -93.228821 -197.658844
v -201.521973 575.916992 122.926132
v -303.788116 335.921204 119.029373
v -347.544800 624.255249 334.858185
v -440.359009 385.124207 330.557373
v 38.807068 210.651306 -22.268433
v -48.730957 200.551941 -123.724297
v 111.039185 3.142883 -87.499397
v 46.679260 -4.282288 -162.092072
v 154.842834 -126.907349 -129.963226
v 107.809448 -132.333557 -184.474548
v 108.779785 -208.478821 -174.956421
v 153.083069 -203.367310 -123.609322
v 194.416016 -219.691711 -154.871490
v 147.382568 -225.117920 -209.382874
v 160.227966 -185.028015 -221.681213
v 204.531189 -179.916504 -170.334015
v 132.777771 -269.988586 -189.539398
v 177.080994 -264.877258 -138.192230
v 218.413940 -281.201904 -169.454407
v 171.380554 -286.628174 -223.965759
v 184.225891 -246.537842 -236.264130
v 228.529053 -241.426514 -184.916962
v 139.078125 -317.066528 -174.239136
v 167.594177 -313.776611 -141.189240
v 194.198242 -324.283936 -161.311340
v 163.924927 -327.776733 -196.397705
v 211.067261 -309.160645 -255.965179
v 223.912598 -269.070190 -268.263489
v 268.215881 -263.958923 -216.916443
v 258.100647 -303.734253 -201.453796
v 141.916016 -349.271851 -164.035736
v 161.140625 -347.053711 -141.754364
v 179.076416 -354.137817 -155.320251
v 158.666992 -356.492188 -178.974609
v 153.205994 -381.851440 -163.213043
v 165.223572 -380.464966 -149.284698
v 176.435425 -384.893066 -157.764862
v 163.677246 -386.365112 -172.551361
v 242.253357 -313.701111 -266.398499
v 250.794373 -287.044434 -274.575897
v 280.252136 -283.645874 -240.434479
v 273.526550 -310.092834 -230.153168
vn 0.6437 -0.6571 0.3924
vn -0.5678 0.7078 -0.4202
vn -0.6437 0.6570 -0.3925
vn -0.3194 -0.1615 0.9338
vn 0.1919 0.9765 0.0978
vn -0.5328 -0.7887 -0.3068
vn -0.5805 0.7741 -0.2526
vn 0.7239 0.6697 0.1656
vn -0.7754 -0.4120 -0.4785
vn 0.7047 -0.6899 0.1658
vn -0.7711 -0.5324 -0.3493
vn 0.8052 0.5668 0.1744
vn -0.7573 -0.5648 -0.3278
vn 0.6267 -0.7722 0.1044
vn 0.6991 0.6776 0.2280
vn 0.6304 -0.7711 0.0899
vn -0.5752 0.7733 -0.2666
vn 0.8289 0.5348 0.1638
vn 0.6880 0.7154 0.1221
vn 0.5938 -0.7754 0.2148
vn -0.6615 -0.6876 -0.2995
vn 0.7094 0.6895 0.1461
vn -0.6301 -0.7130 -0.3076
vn -0.5344 -0.7418 -0.4052
vn 0.3755 0.9228 0.0860
vn -0.8061 -0.3483 -0.4783
vn 0.6107 0.7105 0.3495
vn -0.7945 0.4100 0.4479
vn -0.6000 0.7756 -0.1960
vn -0.7060 -0.6705 -0.2280
vn -0.6092 0.7753 -0.1666
vn 0.7709 0.5865 0.2485
vn -0.7028 -0.6739 -0.2276
vn -0.7742 -0.5824 -0.2480
vn 0.7060 0.6581 0.2616
vn 0.3615 -0.6683 0.6501
vn 0.7681 0.5902 0.2483
vn 0.6980 0.6797 0.2254
vn -0.7750 -0.5802 -0.2505
vn 0.6000 -0.7756 0.1960
vn -0.1285 0.4785 -0.8687
vn -0.5438 -0.7636 -0.3481
vn 0.8826 0.4563 0.1127
vn -0.1096 0.4608 -0.8807
vn 0.5954 0.8011 -0.0616
vn -0.7684 -0.6028 -0.2148
vn -0.6527 0.5783 0.4894
vn 0.6527 -0.5783 -0.4894
vn -0.4139 0.7026 -0.5788
vn 0.8669 0.4797 0.1352
vn -0.5721 -0.7510 -0.3297
vn 0.3451 -0.6568 0.6704
vn 0.6305 -0.5192 -0.5770
vn 0.8621 0.4866 0.1419
vn -0.5806 -0.7469 -0.3240
vn 0.5332 -0.7622 0.3672
vn -0.1710 0.5168 -0.8388
vn -0.7779 -0.3734 -0.5053
vn 0.5935 -0.4391 -0.6745
vn -0.6747 0.6845 0.2762
vn 0.7684 -0.3047 0.5628
vn -0.0145 0.5868 -0.8096
vn -0.7533 0.3171 -0.5763
vn -0.3102 0.1034 0.9450
vn -0.0500 0.9677 -0.2472
vn -0.3140 -0.9492 0.0181
vn 0.6872 0.3495 -0.6369
vn 0.8839 0.4640 -0.0583
vn -0.6773 -0.4986 -0.5410
vn 0.3289 -0.5470 0.7699
vn -0.5309 -0.1125 -0.8399
vn 0.6103 -0.0353 0.7914
vn -0.5652 -0.1136 -0.8171
vn -0.6261 -0.4845 0.6110
vn 0.6906 0.1021 0.7160
vn -0.6273 -0.5063 0.5917
vn 0.6953 0.3393 -0.6337
vn 0.6022 -0.0628 0.7959
vn 0.7569 0.0361 0.6526
vn -0.6775 -0.3904 0.6234
vn -0.6703 -0.1808 -0.7197
vn 0.7453 0.0547 0.6645
vn -0.6856 -0.2114 -0.6966
vn -0.6177 -0.7852 -0.0436
vn 0.5114 0.7064 -0.4894
vn -0.6854 -0.6693 -0.2868
vn 0.4252 0.9022 0.0723
vn -0.8874 0.3388 0.3127
vn 0.6706 0.4084 -0.6193
vn -0.6853 -0.0962 -0.7219
vn 0.6593 0.4363 -0.6123
vn 0.6128 0.0514 0.7886
vn -0.6880 -0.0986 -0.7190
vn -0.6098 -0.0480 -0.7911
vn 0.6632 0.1186 0.7390
vn -0.7580 0.1076 0.6433
vn 0.6158 0.0539 0.7860
vn 0.6931 0.1012 0.7137
vn -0.6071 -0.0488 -0.7932
vn -0.6706 -0.4084 0.6193
vn 0.6936 -0.4622 -0.5525
vn -0.7037 -0.3030 -0.6426
vn 0.5553 -0.1578 0.8166
vn 0.6846 -0.4873 -0.5422
vn 0.8768 -0.0366 0.4794
vn -0.6382 -0.0315 -0.7693
vn 0.2621 0.9116 -0.3169
vn -0.2621 -0.9116 0.3169
vn 0.7577 -0.0132 -0.6525
vn 0.5670 -0.1238 0.8143
vn -0.7031 -0.2703 -0.6577
vn -0.7568 0.1359 0.6394
vn -0.1837 -0.9498 0.2531
vn 0.5704 -0.1136 0.8135
vn -0.7027 -0.2602 -0.6622
vn -0.7243 -0.2346 0.6483
vn 0.7120 -0.4043 -0.5741
vn -0.3353 -0.1765 -0.9254
vn -0.0855 -0.9815 0.1715
vn 0.4236 0.7895 -0.4441
usemtl Matériau.012
s off
f 131//27 132//27 134//27 133//27
f 138//28 137//28 141//28 142//28
f 137//29 138//29 136//29 135//29
f 153//30 154//30 132//30 131//30
f 151//31 137//31 135//31 153//31
f 152//32 134//32 132//32 154//32
f 142//33 141//33 145//33 146//33
f 151//34 133//34 140//34 155//34
f 152//35 138//35 142//35 156//35
f 133//36 134//36 139//36 140//36
f 158//37 146//37 150//37 160//37
f 155//38 140//38 144//38 157//38
f 156//39 142//39 146//39 158//39
f 140//40 139//40 143//40 144//40
f 149//41 159//41 163//41 166//41
f 144//42 143//42 147//42 148//42
f 146//43 145//43 149//43 150//43
f 157//44 144//44 148//44 159//44
f 145//45 157//45 159//45 149//45
f 148//46 147//46 161//46 162//46
f 139//47 156//47 158//47 143//47
f 141//48 155//48 157//48 145//48
f 143//49 158//49 160//49 147//49
f 134//50 152//50 156//50 139//50
f 137//51 151//51 155//51 141//51
f 138//52 152//52 154//52 136//52
f 133//53 151//53 153//53 131//53
f 135//54 136//54 154//54 153//54
f 165//55 166//55 172//55 171//55
f 161//56 164//56 170//56 167//56
f 150//57 149//57 166//57 165//57
f 159//58 148//58 162//58 163//58
f 147//59 160//59 164//59 161//59
f 160//60 150//60 165//60 164//60
f 172//61 169//61 180//61 179//61
f 168//62 167//62 173//62 174//62
f 163//63 162//63 168//63 169//63
f 166//64 163//64 169//64 172//64
f 164//65 165//65 171//65 170//65
f 162//66 161//66 167//66 168//66
f 176//67 175//67 183//67 184//67
f 167//68 170//68 176//68 173//68
f 169//69 168//69 174//69 175//69
f 170//70 169//70 175//70 176//70
f 179//71 180//71 192//71 191//71
f 170//72 171//72 178//72 177//72
f 171//73 172//73 179//73 178//73
f 169//74 170//74 177//74 180//74
f 184//75 183//75 187//75 188//75
f 175//76 174//76 182//76 183//76
f 173//77 176//77 184//77 181//77
f 174//78 173//78 181//78 182//78
f 186//79 185//79 188//79 187//79
f 183//80 182//80 186//80 187//80
f 181//81 184//81 188//81 185//81
f 182//82 181//82 185//82 186//82
f 192//83 189//83 190//83 191//83
f 177//84 178//84 190//84 189//84
f 180//85 177//85 189//85 192//85
f 178//86 179//86 191//86 190//86
f 193//87 194//87 196//87 195//87
f 200//88 199//88 203//88 204//88
f 199//89 200//89 198//89 197//89
f 215//90 216//90 194//90 193//90
f 213//91 199//91 197//91 215//91
f 214//92 196//92 194//92 216//92
f 204//93 203//93 207//93 208//93
f 213//94 195//94 202//94 217//94
f 214//95 200//95 204//95 218//95
f 195//96 196//96 201//96 202//96
f 220//97 208//97 212//97 222//97
f 217//98 202//98 206//98 219//98
f 218//99 204//99 208//99 220//99
f 202//100 201//100 205//100 206//100
f 211//101 221//101 225//101 228//101
f 206//102 205//102 209//102 210//102
f 208//103 207//103 211//103 212//103
f 219//104 206//104 210//104 221//104
f 207//105 219//105 221//105 211//105
f 210//106 209//106 223//106 224//106
f 201//107 218//107 220//107 205//107
f 203//108 217//108 219//108 207//108
f 205//109 220//109 222//109 209//109
f 196//110 214//110 218//110 201//110
f 199//111 213//111 217//111 203//111
f 200//112 214//112 216//112 198//112
f 195//113 213//113 215//113 193//113
f 197//114 198//114 216//114 215//114
f 227//115 228//115 234//115 233//115
f 223//116 226//116 232//116 229//116
f 212//117 211//117 228//117 227//117
f 221//118 210//118 224//118 225//118
f 209//119 222//119 226//119 223//119
f 222//120 212//120 227//120 226//120
f 234//121 231//121 242//121 241//121
f 230//122 229//122 235//122 236//122
f 225//123 224//123 230//123 231//123
f 228//124 225//124 231//124 234//124
f 226//125 227//125 233//125 232//125
f 224//126 223//126 229//126 230//126
f 238//127 237//127 245//127 246//127
f 229//128 232//128 238//128 235//128
f 231//129 230//129 236//129 237//129
f 232//130 231//130 237//130 238//130
f 241//131 242//131 254//131 253//131
f 232//132 233//132 240//132 239//132
f 233//133 234//133 241//133 240//133
f 231//134 232//134 239//134 242//134
f 246//135 245//135 249//135 250//135
f 237//136 236//136 244//136 245//136
f 235//137 238//137 246//137 243//137
f 236//138 235//138 243//138 244//138
f 248//139 247//139 250//139 249//139
f 245//140 244//140 248//140 249//140
f 243//141 246//141 250//141 247//141
f 244//142 243//142 247//142 248//142
f 254//143 251//143 252//143 253//143
f 239//144 240//144 252//144 251//144
f 242//145 239//145 251//145 254//145
f 240//146 241//146 253//146 252//146
