# Blender v2.91.2 OBJ File: 'camionnete02.blend'
# www.blender.org
mtllib arme_000053.mtl
o Cube.046_Cube.010
v 366.649200 241.529510 -1021.327881
v 367.915314 21.126419 -1021.274902
v 485.270447 242.166290 -1207.090332
v 486.536560 21.763214 -1207.037476
v 180.889954 240.433929 -1139.950806
v 182.156021 20.030823 -1139.897827
v 299.511169 241.070740 -1325.713257
v 300.777283 20.667618 -1325.660400
v 203.331253 240.652740 -765.569702
v 204.597351 20.249695 -765.516724
v 18.838100 19.154099 -884.139648
v 17.572010 239.557190 -884.192566
v 129.419189 240.255981 -649.822205
v 130.685272 19.852890 -649.769348
v -55.074036 18.757294 -768.392212
v -56.340126 239.160400 -768.445190
v 85.755219 240.021576 -581.443909
v 94.114136 79.737778 -592.739990
v -91.645210 78.642212 -711.362915
v -100.004105 238.926025 -700.066772
v 128.156982 459.977692 -649.875061
v -57.602276 458.882111 -768.498047
v 84.493050 459.743317 -581.496704
v -101.266228 458.647736 -700.119629
v 228.811874 240.789520 -805.472656
v 230.077972 20.386475 -805.419739
v 43.052601 239.693970 -924.095581
v 44.318665 19.290878 -924.042664
v 202.913315 313.409454 -765.587158
v 17.154047 312.313934 -884.210144
v 228.393921 313.546234 -805.490112
v 42.634636 312.450653 -924.112976
v 202.306976 418.967560 -765.612549
v 16.547697 417.871979 -884.235352
v 227.787537 419.104340 -805.515503
v 42.028301 418.008759 -924.138367
v 130.671768 313.021637 -652.455811
v -55.087540 311.926056 -771.078735
v 130.065384 418.579803 -652.481140
v -55.693905 417.484161 -771.104065
v 154.939651 596.909302 -693.080322
v -30.819626 595.813721 -811.703308
v 111.275681 596.674927 -624.702026
v -74.483551 595.579224 -743.324890
v 443.393463 241.941498 -1141.510498
v 444.659576 21.538406 -1141.457642
v 257.634186 240.845917 -1260.133301
v 258.900299 20.442810 -1260.080444
v 392.390808 241.618530 -1266.401855
v 393.656921 21.215408 -1266.348999
v 273.769592 240.981720 -1080.639404
v 275.035675 20.578629 -1080.586426
v 110.451637 240.104950 -824.881104
v 111.717712 19.701889 -824.828125
v 36.539539 239.708221 -709.133728
v 37.805614 19.305099 -709.080811
v -7.124417 239.473785 -640.755371
v 1.234482 79.190002 -652.051453
v 35.277336 459.429962 -709.186462
v -8.386593 459.195526 -640.808167
v 137.198318 19.838684 -864.731140
v 135.932236 240.241730 -864.784119
v 110.033684 312.861694 -824.898682
v 135.514282 312.998413 -864.801514
v 109.427338 418.419830 -824.923950
v 134.907928 418.556549 -864.826965
v 37.792110 312.473877 -711.767334
v 37.185745 418.032013 -711.792603
v 62.059998 596.361572 -752.391846
v 18.396044 596.127075 -684.013489
v 351.779907 20.990616 -1200.769043
v 350.513824 241.393707 -1200.821899
v 438.830627 241.892395 -1236.745972
v 321.475494 20.852524 -1050.930664
v 158.157532 19.975800 -795.172485
v 84.245422 19.578995 -679.425110
v 47.674301 79.463882 -622.395752
v 182.372055 240.515625 -835.128357
v 181.954102 313.272308 -835.145813
v 181.347733 418.830414 -835.171204
v 396.953674 241.667603 -1171.166260
v 440.096741 21.489319 -1236.693237
v 320.209381 241.255615 -1050.983765
v 156.891449 240.378845 -795.225464
v 82.979347 239.982086 -679.477966
v 39.315388 239.747681 -611.099609
v 81.717178 459.703827 -679.530762
v 38.053242 459.469391 -611.152466
v 183.638153 20.112579 -835.075439
v 156.473511 313.135590 -795.242920
v 155.867142 418.693695 -795.268250
v 84.231934 312.747772 -682.111572
v 83.625565 418.305878 -682.136841
v 108.499847 596.635376 -722.736023
v 64.835876 596.400879 -654.357727
v 398.219727 21.264511 -1171.113403
v 183.875214 -21.154884 -835.065552
v 137.435379 -21.428802 -864.721252
v 398.456787 -20.002960 -1171.103516
v 352.016998 -20.276871 -1200.759155
v 275.272736 -20.688858 -1080.576538
v 321.712555 -20.414948 -1050.920776
v 500.649750 180.816864 -1057.970215
v 466.714203 180.634674 -1004.826721
v 467.274170 83.174698 -1004.803162
v 501.209625 83.356873 -1057.946899
v 540.791382 181.053650 -1032.336548
v 506.855865 180.871460 -979.192993
v 507.415771 83.411484 -979.169556
v 541.351257 83.593643 -1032.313110
v 602.220886 181.415955 -993.108826
v 568.285339 181.233765 -939.965210
v 568.845215 83.773819 -939.941772
v 602.780701 83.955994 -993.085449
v 641.749939 181.649109 -967.866211
v 607.814392 181.466919 -914.722656
v 608.374390 84.006943 -914.699219
v 642.309814 84.189117 -967.842773
v 829.790344 23.581604 -1846.958008
v 783.350525 23.307709 -1876.613770
v 782.084290 243.710815 -1876.666748
v 828.524231 243.984711 -1847.010986
vn 0.8428 0.0050 0.5382
vn 0.5382 0.0029 -0.8428
vn -0.8428 -0.0050 -0.5382
vn -0.0057 1.0000 -0.0002
vn 0.0057 -1.0000 0.0002
vn -0.5382 -0.0029 0.8428
vn -0.3533 -0.7492 0.5602
vn -0.5358 -0.0871 0.8398
vn -0.8435 -0.0055 -0.5371
vn 0.8435 0.0055 0.5371
vn 0.5060 -0.3480 -0.7892
vn -0.5060 0.3480 0.7892
vn 0.8264 0.0046 -0.5630
vn -0.1631 -0.0007 0.9866
vn 0.4698 -0.8312 0.2972
vn 0.4602 0.8367 0.2968
usemtl Matériau.011
s off
f 45//1 46//1 4//1 3//1
f 49//2 50//2 8//2 7//2
f 47//3 48//3 6//3 5//3
f 26//1 25//1 9//1 10//1
f 72//4 47//4 5//4 51//4
f 96//5 46//5 2//5 74//5
f 10//1 9//1 13//1 14//1
f 84//6 9//6 29//6 90//6
f 89//5 26//5 10//5 75//5
f 27//3 28//3 11//3 12//3
f 76//7 14//7 18//7 77//7
f 75//5 10//5 14//5 76//5
f 12//3 11//3 15//3 16//3
f 53//4 12//4 16//4 55//4
f 86//8 77//8 18//8 17//8
f 16//9 15//9 19//9 20//9
f 16//3 20//3 24//3 22//3
f 14//10 13//10 17//10 18//10
f 59//11 22//11 42//11 69//11
f 86//6 17//6 23//6 88//6
f 17//1 13//1 21//1 23//1
f 55//2 16//2 22//2 59//2
f 5//3 6//3 28//3 27//3
f 74//5 2//5 26//5 89//5
f 51//4 5//4 27//4 62//4
f 2//1 1//1 25//1 26//1
f 32//3 30//3 34//3 36//3
f 62//2 27//2 32//2 64//2
f 27//3 12//3 30//3 32//3
f 9//1 25//1 31//1 29//1
f 66//4 36//4 34//4 65//4
f 90//5 29//5 37//5 92//5
f 64//2 32//2 36//2 66//2
f 29//1 31//1 35//1 33//1
f 92//6 37//6 39//6 93//6
f 29//1 33//1 39//1 37//1
f 34//3 30//3 38//3 40//3
f 65//4 34//4 40//4 68//4
f 69//4 42//4 44//4 70//4
f 23//1 21//1 41//1 43//1
f 88//12 23//12 43//12 95//12
f 22//3 24//3 44//3 42//3
f 82//5 4//5 46//5 96//5
f 49//4 7//4 47//4 72//4
f 7//3 8//3 48//3 47//3
f 46//13 45//13 103//13 106//13
f 73//4 49//4 72//4 81//4
f 8//5 50//5 71//5 48//5
f 24//12 60//12 70//12 44//12
f 94//4 69//4 70//4 95//4
f 91//4 65//4 68//4 93//4
f 38//6 67//6 68//6 40//6
f 79//2 64//2 66//2 80//2
f 30//5 63//5 67//5 38//5
f 80//4 66//4 65//4 91//4
f 78//2 62//2 64//2 79//2
f 83//4 51//4 62//4 78//4
f 6//5 52//5 61//5 28//5
f 85//2 55//2 59//2 87//2
f 20//6 57//6 60//6 24//6
f 87//11 59//11 69//11 94//11
f 20//8 19//8 58//8 57//8
f 84//4 53//4 55//4 85//4
f 11//5 54//5 56//5 15//5
f 15//7 56//7 58//7 19//7
f 28//5 61//5 54//5 11//5
f 12//6 53//6 63//6 30//6
f 48//5 71//5 52//5 6//5
f 81//4 72//4 51//4 83//4
f 50//3 49//3 121//3 120//3
f 3//2 4//2 82//2 73//2
f 45//4 81//4 83//4 1//4
f 9//4 84//4 85//4 13//4
f 21//11 87//11 94//11 41//11
f 13//2 85//2 87//2 21//2
f 1//4 83//4 78//4 25//4
f 25//2 78//2 79//2 31//2
f 35//4 80//4 91//4 33//4
f 31//2 79//2 80//2 35//2
f 33//4 91//4 93//4 39//4
f 41//4 94//4 95//4 43//4
f 3//4 73//4 81//4 45//4
f 50//5 82//5 96//5 71//5
f 60//12 88//12 95//12 70//12
f 67//6 92//6 93//6 68//6
f 63//5 90//5 92//5 67//5
f 52//3 71//3 100//3 101//3
f 57//6 86//6 88//6 60//6
f 57//8 58//8 77//8 86//8
f 54//5 75//5 76//5 56//5
f 56//7 76//7 77//7 58//7
f 61//5 89//5 75//5 54//5
f 53//6 84//6 90//6 63//6
f 89//6 61//6 98//6 97//6
f 101//5 102//5 97//5 98//5
f 100//5 99//5 102//5 101//5
f 61//3 52//3 101//3 98//3
f 74//1 89//1 97//1 102//1
f 71//2 96//2 99//2 100//2
f 96//1 74//1 102//1 99//1
f 106//2 103//2 107//2 110//2
f 1//14 2//14 105//14 104//14
f 2//15 46//15 106//15 105//15
f 45//16 1//16 104//16 103//16
f 109//5 110//5 114//5 113//5
f 104//6 105//6 109//6 108//6
f 105//5 106//5 110//5 109//5
f 103//4 104//4 108//4 107//4
f 113//5 114//5 118//5 117//5
f 107//4 108//4 112//4 111//4
f 110//2 107//2 111//2 114//2
f 108//6 109//6 113//6 112//6
f 116//1 117//1 118//1 115//1
f 111//4 112//4 116//4 115//4
f 114//2 111//2 115//2 118//2
f 122//2 119//2 120//2 121//2
f 82//5 50//5 120//5 119//5
f 73//1 82//1 119//1 122//1
f 49//4 73//4 122//4 121//4
o Cube.047_Cube.022
v -251.347397 447.273834 289.545471
v -249.696243 208.021118 255.589920
v -134.091125 477.758026 80.453979
v -132.439972 238.505310 46.498421
v -433.672852 411.457581 114.031982
v -432.826233 288.786011 96.622017
v -373.552246 427.087677 6.824913
v -372.705688 304.416107 -10.585045
v 5.530640 348.104523 -309.548584
v 4.665771 473.426270 -291.762512
v -106.011902 481.308105 -352.680237
v -105.147034 355.986328 -370.466309
v 95.204193 392.891541 -501.497284
v 94.568329 485.030914 -488.420502
v 13.195618 490.825806 -533.208618
v 13.831482 398.686462 -546.285400
v 149.538727 423.069885 -622.339600
v 149.074005 490.404114 -612.783325
v 89.607880 494.638916 -645.513916
v 90.072601 427.304688 -655.070190
v -248.700684 490.336761 39.240883
v -246.947784 236.340546 3.192879
v -373.182678 457.974030 261.217285
v -371.429779 203.977814 225.169281
v -47.984039 481.934570 -326.515961
v -47.065857 348.890076 -345.398102
v 63.014038 493.146545 -526.730835
v 63.689087 395.329285 -540.613403
v 132.506744 498.022766 -652.357056
v 133.000092 426.539185 -662.502197
v 198.274628 434.715363 -702.024536
v 197.809906 502.049622 -692.468262
v 180.976654 511.264343 -743.300903
v 181.470001 439.780731 -753.446045
v 138.583374 440.300934 -744.283447
v 138.118652 507.635162 -734.727173
v 232.133453 443.168579 -759.939819
v 231.668732 510.502808 -750.383545
v 214.835602 519.717529 -801.216187
v 215.328888 448.233948 -811.361328
v 172.442261 448.754120 -802.198608
v 171.977539 516.088379 -792.642334
v 274.150665 458.807556 -781.850952
v 273.851593 502.147552 -775.699951
v 263.016815 508.078674 -808.418579
v 263.334320 462.067932 -814.948608
v 203.879791 455.821472 -865.380371
v 160.993164 456.341675 -856.217651
v 160.528442 523.675903 -846.661377
v 203.386444 527.305054 -855.235229
v 303.382111 468.248230 -796.194458
v 303.180450 497.466858 -792.047607
v 295.875946 501.465454 -814.105591
v 296.090057 470.446289 -818.507935
v 325.508575 477.501404 -820.981079
v 325.382538 495.766296 -818.388916
v 320.816437 498.265869 -832.177612
v 320.950287 478.875427 -834.929565
v 190.445587 471.625702 -891.299194
v 161.929718 471.971558 -885.206909
v 161.620758 516.742981 -878.852783
v 190.117584 519.156006 -884.553589
vn 0.8744 -0.0623 0.4813
vn -0.8054 0.0778 -0.5876
vn -0.8744 0.0623 -0.4813
vn -0.2358 -0.1381 0.9619
vn -0.4267 0.8979 -0.1084
vn 0.0606 -0.9920 -0.1106
vn -0.8341 0.0719 -0.5470
vn 0.1100 0.9934 0.0335
vn -0.2778 -0.8793 -0.3870
vn 0.9360 -0.0431 0.3494
vn -0.0479 -0.9591 -0.2790
vn 0.1014 0.9889 0.1082
vn -0.0234 -0.9687 -0.2472
vn 0.9094 -0.0523 0.4126
vn -0.0611 0.9919 0.1116
vn 0.9155 -0.0503 0.3991
vn -0.8257 0.0737 -0.5593
vn 0.1422 0.9836 0.1109
vn -0.0614 0.9981 -0.0012
vn 0.8555 -0.0670 0.5134
vn 0.1150 -0.9785 -0.1711
vn -0.0370 0.9988 0.0320
vn 0.1557 -0.9736 -0.1669
vn 0.1235 -0.9619 -0.2440
vn -0.2904 0.9484 -0.1276
vn -0.4147 -0.8379 -0.3547
vn 0.0470 0.9844 0.1698
vn -0.9160 -0.0626 0.3962
vn -0.8656 0.0645 -0.4966
vn 0.0516 -0.9921 -0.1146
vn -0.8806 0.0606 -0.4700
vn 0.0423 0.9849 0.1678
vn 0.0560 -0.9920 -0.1128
vn -0.0474 -0.9845 -0.1689
vn -0.0536 0.9872 0.1500
vn 0.4935 -0.1189 0.8616
vn 0.0380 0.9854 0.1660
vn -0.0623 0.9922 0.1084
vn -0.0487 -0.9839 -0.1721
vn 0.8656 -0.0645 0.4966
vn -0.1418 0.1381 -0.9802
vn 0.2601 -0.9489 -0.1785
vn 0.2469 0.9646 0.0931
vn -0.1135 0.1388 -0.9838
vn -0.1247 0.9691 -0.2129
vn -0.0399 -0.9906 -0.1307
vn -0.9787 -0.0355 0.2024
vn 0.9787 0.0355 -0.2024
vn -0.5737 0.1112 -0.8115
vn 0.2137 0.9712 0.1053
vn 0.2270 -0.9592 -0.1687
vn 0.4685 -0.1210 0.8751
vn 0.9508 0.0500 -0.3058
vn 0.2037 0.9730 0.1089
vn 0.2168 -0.9621 -0.1656
vn 0.7590 -0.0863 0.6453
vn -0.2054 0.1361 -0.9692
vn -0.1119 -0.8732 -0.4744
vn 0.9019 0.0668 -0.4267
vn -0.9994 -0.0022 -0.0334
usemtl Matériau.012
s off
f 123//17 124//17 126//17 125//17
f 130//18 129//18 133//18 134//18
f 129//19 130//19 128//19 127//19
f 145//20 146//20 124//20 123//20
f 143//21 129//21 127//21 145//21
f 144//22 126//22 124//22 146//22
f 134//23 133//23 137//23 138//23
f 143//24 125//24 132//24 147//24
f 144//25 130//25 134//25 148//25
f 125//26 126//26 131//26 132//26
f 150//27 138//27 142//27 152//27
f 147//28 132//28 136//28 149//28
f 148//29 134//29 138//29 150//29
f 132//30 131//30 135//30 136//30
f 141//31 151//31 155//31 158//31
f 136//32 135//32 139//32 140//32
f 138//33 137//33 141//33 142//33
f 149//34 136//34 140//34 151//34
f 137//35 149//35 151//35 141//35
f 140//36 139//36 153//36 154//36
f 131//37 148//37 150//37 135//37
f 133//38 147//38 149//38 137//38
f 135//39 150//39 152//39 139//39
f 126//40 144//40 148//40 131//40
f 129//41 143//41 147//41 133//41
f 130//42 144//42 146//42 128//42
f 125//43 143//43 145//43 123//43
f 127//44 128//44 146//44 145//44
f 157//45 158//45 164//45 163//45
f 153//46 156//46 162//46 159//46
f 142//47 141//47 158//47 157//47
f 151//48 140//48 154//48 155//48
f 139//49 152//49 156//49 153//49
f 152//50 142//50 157//50 156//50
f 164//51 161//51 172//51 171//51
f 160//52 159//52 165//52 166//52
f 155//53 154//53 160//53 161//53
f 158//54 155//54 161//54 164//54
f 156//55 157//55 163//55 162//55
f 154//56 153//56 159//56 160//56
f 168//57 167//57 175//57 176//57
f 159//58 162//58 168//58 165//58
f 161//59 160//59 166//59 167//59
f 162//60 161//60 167//60 168//60
f 171//61 172//61 184//61 183//61
f 162//62 163//62 170//62 169//62
f 163//63 164//63 171//63 170//63
f 161//64 162//64 169//64 172//64
f 176//65 175//65 179//65 180//65
f 167//66 166//66 174//66 175//66
f 165//67 168//67 176//67 173//67
f 166//68 165//68 173//68 174//68
f 178//69 177//69 180//69 179//69
f 175//70 174//70 178//70 179//70
f 173//71 176//71 180//71 177//71
f 174//72 173//72 177//72 178//72
f 184//73 181//73 182//73 183//73
f 169//74 170//74 182//74 181//74
f 172//75 169//75 181//75 184//75
f 170//76 171//76 183//76 182//76
o Cube.048_Cube.024
v -528.447327 324.602966 99.790840
v -691.686707 206.884033 -33.972878
v -387.009491 349.339020 -94.582649
v -550.248901 231.620087 -228.346375
v -642.137146 511.538971 -32.345173
v -725.834534 451.181152 -100.929573
v -569.618042 524.221802 -132.005905
v -653.315369 463.864014 -200.590317
v -309.604187 349.353394 -521.683044
v -224.098633 411.015137 -451.616943
v -280.867645 520.799377 -478.954285
v -366.373230 459.137634 -549.020386
v -179.820618 394.083374 -689.155396
v -116.955017 439.418518 -637.641235
v -158.692871 520.134399 -657.740295
v -221.558472 474.799255 -709.254456
v -98.121521 424.841675 -793.294861
v -52.180115 457.971954 -755.648987
v -82.681580 516.958069 -770.337097
v -128.622986 483.827759 -807.982971
v -446.917542 455.881287 -101.784737
v -620.216187 330.908142 -243.791397
v -597.071228 429.620941 104.566689
v -770.369873 304.647797 -37.439957
v -246.572815 468.380066 -467.628510
v -337.347534 402.918518 -542.012329
v -124.847961 483.103882 -661.273987
v -191.587585 434.975098 -715.962646
v -50.117065 491.266235 -783.681519
v -98.889526 456.094360 -823.647278
v -41.480225 431.400726 -868.189758
v 4.461182 464.531006 -830.543884
v 9.689270 503.817200 -867.712097
v -39.083191 468.645325 -907.677856
v -69.303162 495.457703 -890.609314
v -23.361755 528.588013 -852.963440
v -1.370117 437.274475 -922.307617
v 44.571289 470.404785 -884.661743
v 49.799377 509.690979 -921.829895
v 1.026917 474.519104 -961.795654
v -29.193054 501.331421 -944.727051
v 16.748352 534.461731 -907.081177
v 42.309326 425.533478 -943.387756
v 71.879700 446.857971 -919.156799
v 75.244751 472.144714 -943.080383
v 43.852173 449.506165 -968.804504
v 9.331116 510.472229 -1003.570312
v -20.888855 537.284607 -986.501770
v 25.052551 570.414856 -948.855896
v 58.103577 545.644104 -963.604553
v 71.492249 416.180969 -957.886780
v 91.427795 430.557312 -941.550964
v 93.696533 447.604980 -957.679626
v 72.532471 432.342682 -975.022095
v 97.813599 416.353302 -980.174561
v 110.275574 425.340149 -969.962830
v 111.693726 435.996826 -980.045044
v 98.463806 426.456177 -990.886047
v 16.676392 540.057190 -1016.716370
v -3.417236 557.885071 -1005.367126
v 27.129761 579.913818 -980.335938
v 49.105835 563.443420 -990.142639
vn 0.4485 -0.8673 0.2160
vn -0.3702 0.8733 -0.3167
vn -0.4485 0.8673 -0.2160
vn -0.4453 -0.3288 0.8328
vn 0.3764 0.8444 0.3813
vn -0.6466 -0.5396 -0.5392
vn -0.4017 0.8726 -0.2777
vn 0.7773 0.4526 0.4370
vn -0.7392 -0.1158 -0.6634
vn 0.5293 -0.8430 0.0959
vn -0.6630 -0.3706 -0.6504
vn 0.7537 0.4236 0.5025
vn -0.6597 -0.4072 -0.6317
vn 0.4926 -0.8567 0.1529
vn 0.6461 0.5394 0.5401
vn 0.5007 -0.8541 0.1406
vn -0.3924 0.8731 -0.2895
vn 0.7768 0.3905 0.4941
vn 0.6723 0.5924 0.4438
vn 0.4262 -0.8705 0.2461
vn -0.5887 -0.5444 -0.5975
vn 0.6827 0.5609 0.4683
vn -0.5586 -0.5725 -0.6001
vn -0.5567 -0.5095 -0.6561
vn 0.5078 0.7834 0.3584
vn -0.8080 -0.0097 -0.5892
vn 0.7018 0.4329 0.5658
vn -0.7374 0.4445 0.5087
vn -0.4380 0.8690 -0.2303
vn -0.6519 -0.5315 -0.5409
vn -0.4560 0.8659 -0.2055
vn 0.6995 0.4374 0.5651
vn -0.6494 -0.5353 -0.5402
vn -0.7024 -0.4330 -0.5649
vn 0.6402 0.5147 0.5702
vn 0.0779 -0.7936 0.6034
vn 0.6973 0.4415 0.5647
vn 0.6460 0.5419 0.5376
vn -0.7022 -0.4304 -0.5672
vn 0.4380 -0.8690 0.2303
vn 0.1953 0.6057 -0.7714
vn -0.4686 -0.6283 -0.6210
vn 0.8370 0.3132 0.4488
vn 0.2155 0.5875 -0.7800
vn 0.6505 0.7141 0.2584
vn -0.7092 -0.4584 -0.5355
vn -0.7221 0.5887 0.3631
vn 0.7221 -0.5887 -0.3632
vn -0.1470 0.8246 -0.5463
vn 0.8170 0.3352 0.4692
vn -0.5001 -0.6146 -0.6101
vn 0.0569 -0.7829 0.6195
vn 0.7340 -0.5157 -0.4419
vn 0.8109 0.3416 0.4752
vn -0.5096 -0.6103 -0.6065
vn 0.3217 -0.8702 0.3732
vn 0.1490 0.6450 -0.7495
vn -0.6064 -0.1923 -0.7716
vn 0.7369 -0.4188 -0.5307
vn -0.6661 0.7251 0.1748
usemtl Matériau.012
s off
f 185//77 186//77 188//77 187//77
f 192//78 191//78 195//78 196//78
f 191//79 192//79 190//79 189//79
f 207//80 208//80 186//80 185//80
f 205//81 191//81 189//81 207//81
f 206//82 188//82 186//82 208//82
f 196//83 195//83 199//83 200//83
f 205//84 187//84 194//84 209//84
f 206//85 192//85 196//85 210//85
f 187//86 188//86 193//86 194//86
f 212//87 200//87 204//87 214//87
f 209//88 194//88 198//88 211//88
f 210//89 196//89 200//89 212//89
f 194//90 193//90 197//90 198//90
f 203//91 213//91 217//91 220//91
f 198//92 197//92 201//92 202//92
f 200//93 199//93 203//93 204//93
f 211//94 198//94 202//94 213//94
f 199//95 211//95 213//95 203//95
f 202//96 201//96 215//96 216//96
f 193//97 210//97 212//97 197//97
f 195//98 209//98 211//98 199//98
f 197//99 212//99 214//99 201//99
f 188//100 206//100 210//100 193//100
f 191//101 205//101 209//101 195//101
f 192//102 206//102 208//102 190//102
f 187//103 205//103 207//103 185//103
f 189//104 190//104 208//104 207//104
f 219//105 220//105 226//105 225//105
f 215//106 218//106 224//106 221//106
f 204//107 203//107 220//107 219//107
f 213//108 202//108 216//108 217//108
f 201//109 214//109 218//109 215//109
f 214//110 204//110 219//110 218//110
f 226//111 223//111 234//111 233//111
f 222//112 221//112 227//112 228//112
f 217//113 216//113 222//113 223//113
f 220//114 217//114 223//114 226//114
f 218//115 219//115 225//115 224//115
f 216//116 215//116 221//116 222//116
f 230//117 229//117 237//117 238//117
f 221//118 224//118 230//118 227//118
f 223//119 222//119 228//119 229//119
f 224//120 223//120 229//120 230//120
f 233//121 234//121 246//121 245//121
f 224//122 225//122 232//122 231//122
f 225//123 226//123 233//123 232//123
f 223//124 224//124 231//124 234//124
f 238//125 237//125 241//125 242//125
f 229//126 228//126 236//126 237//126
f 227//127 230//127 238//127 235//127
f 228//128 227//128 235//128 236//128
f 240//129 239//129 242//129 241//129
f 237//130 236//130 240//130 241//130
f 235//131 238//131 242//131 239//131
f 236//132 235//132 239//132 240//132
f 246//133 243//133 244//133 245//133
f 231//134 232//134 244//134 243//134
f 234//135 231//135 243//135 246//135
f 232//136 233//136 245//136 244//136
