# Blender v2.91.2 OBJ File: 'camionnete02.blend'
# www.blender.org
mtllib arme_000034.mtl
o Cube.046_Cube.010
v 103.118073 127.118835 -1134.103760
v 40.185577 -82.894043 -1111.449707
v 173.716705 83.927826 -1338.381592
v 110.784164 -126.085037 -1315.727783
v -95.965904 178.189819 -1213.705322
v -158.898468 -31.823082 -1191.051270
v -25.367264 134.998840 -1417.983154
v -88.299843 -75.014084 -1395.329346
v 5.917725 186.584244 -852.853516
v -57.014801 -23.428612 -830.199463
v -256.098755 27.642349 -909.801086
v -193.166214 237.655228 -932.455078
v -38.071739 213.496292 -725.569153
v -101.004318 3.483383 -702.915222
v -300.088318 54.554367 -782.516785
v -237.155777 264.567261 -805.170837
v -64.058815 229.394699 -650.375427
v -105.342178 73.933304 -646.399841
v -304.426208 125.004303 -726.001465
v -263.142822 280.465698 -729.976990
v 24.666229 422.859924 -748.153137
v -174.417786 473.930847 -827.754883
v -1.320816 438.758301 -672.959351
v -200.404800 489.829285 -752.560974
v 21.082794 177.306534 -896.733643
v -41.849747 -32.706299 -874.079651
v -178.001190 228.377518 -976.335266
v -240.933777 18.364662 -953.681335
v 26.692245 255.911087 -860.331726
v -172.391724 306.982117 -939.933411
v 41.857315 246.633377 -904.211853
v -157.226685 297.704346 -983.813477
v 56.832703 356.492981 -871.181458
v -142.251266 407.563965 -950.783020
v 71.997696 347.215210 -915.061707
v -127.086258 398.286255 -994.663208
v -16.303032 282.214844 -735.924316
v -215.387054 333.285828 -815.525879
v 13.837402 382.796753 -746.773987
v -185.246613 433.867737 -826.375610
v 80.130219 543.157349 -809.687927
v -118.953812 594.228394 -889.289612
v 54.143127 559.055786 -734.494141
v -144.940811 610.126770 -814.095764
v 148.793213 99.175598 -1266.265381
v 85.860657 -110.837296 -1243.611328
v -50.290779 150.246613 -1345.866943
v -113.223312 -59.766312 -1323.212646
v 74.174744 109.463364 -1378.182373
v 11.242157 -100.549561 -1355.528564
v 3.576111 152.654327 -1173.904541
v -59.356445 -57.358582 -1151.250488
v -93.624237 212.119736 -892.654175
v -156.556778 2.106880 -870.000244
v -137.613739 239.031784 -765.369995
v -193.147598 38.412346 -730.271851
v -163.600815 254.930191 -690.176147
v -196.072647 85.916916 -692.163391
v -74.875778 448.395386 -787.953979
v -100.862808 464.293823 -712.760193
v -141.391739 -7.170830 -913.880493
v -78.459198 202.842056 -936.534485
v -72.849731 281.446594 -900.132568
v -57.684708 272.168823 -944.012634
v -42.709274 382.028503 -910.982239
v -27.544281 372.750793 -954.862488
v -115.845032 307.750366 -775.725098
v -85.704590 408.332275 -786.574768
v -19.411804 568.692932 -849.488770
v -45.398865 584.591248 -774.294983
v -13.681335 -85.301804 -1283.412109
v 49.251221 124.711105 -1306.065918
v 123.945740 96.695618 -1358.281982
v -9.585464 -70.126312 -1131.350098
v -106.785805 -10.660866 -850.099854
v -159.586914 29.803024 -716.853027
v -162.511917 77.307571 -678.744507
v -28.688187 190.074295 -916.633972
v -7.913712 259.401062 -924.112305
v 22.226715 359.982971 -934.962036
v 99.022217 111.943344 -1286.165771
v 61.013199 -113.317307 -1335.628174
v 53.347076 139.886581 -1154.004150
v -43.853264 199.352005 -872.753967
v -87.842766 226.264053 -745.469604
v -113.829811 242.162430 -670.275818
v -25.104774 435.627686 -768.053528
v -51.091797 451.526062 -692.859741
v -91.620743 -19.938568 -893.980042
v -23.078735 268.678833 -880.232117
v 7.061707 369.260742 -891.081909
v -66.074036 294.982605 -755.824768
v -35.933594 395.564575 -766.674377
v 30.359222 555.925110 -829.588318
v 4.372147 571.823486 -754.394592
v 36.089630 -98.069534 -1263.511719
v -103.403992 -59.260620 -889.738464
v -153.175018 -46.492889 -909.638794
v 24.306335 -137.391571 -1259.270020
v -25.464600 -124.623856 -1279.170410
v -71.139709 -96.680626 -1147.009033
v -21.368721 -109.448372 -1127.108398
v 202.426575 26.866287 -1189.530029
v 182.229492 39.222488 -1131.089600
v 154.401489 -53.643097 -1121.072021
v 174.598450 -65.999283 -1179.512695
v 245.447601 15.830078 -1172.328613
v 225.250519 28.186295 -1113.888184
v 197.422455 -64.679260 -1103.870850
v 217.619476 -77.035461 -1162.311279
v 311.283447 -1.058746 -1146.004883
v 291.086365 11.297455 -1087.564453
v 263.258240 -81.568069 -1077.547119
v 283.455292 -93.924271 -1135.987793
v 353.647980 -11.926514 -1129.066162
v 333.450897 0.429672 -1070.625488
v 305.622894 -92.435867 -1060.608154
v 325.819916 -104.792068 -1119.048584
v 292.943542 -255.207657 -2006.719727
v 243.172546 -242.439941 -2026.620117
v 306.104950 -32.426987 -2049.274170
v 355.876068 -45.194778 -2029.373535
v 22.124954 622.639404 -873.736450
v -69.597641 646.168945 -910.410767
v -1.820709 637.288818 -804.449280
v -93.543259 660.818359 -841.123657
v 89.901855 613.759277 -767.775208
v 113.847595 599.109863 -837.062073
v 67.986328 610.874756 -855.399170
v 44.040558 625.524048 -786.112244
vn 0.9033 -0.2317 0.3612
vn 0.3203 -0.1960 -0.9268
vn -0.9033 0.2317 -0.3612
vn 0.2855 0.9528 -0.1028
vn -0.2855 -0.9528 0.1028
vn -0.3203 0.1960 0.9268
vn -0.4262 -0.5819 0.6926
vn -0.3659 -0.9249 0.1033
vn -0.4235 0.1063 0.8997
vn -0.9038 0.2315 -0.3599
vn 0.9038 -0.2315 0.3599
vn 0.1998 -0.5177 -0.8319
vn 0.1969 -0.5240 -0.8286
vn -0.1998 0.5177 0.8319
vn 0.6499 -0.2713 -0.7099
vn -0.7435 0.5543 -0.3741
vn -0.3116 0.0766 0.9471
vn -0.2586 -0.9546 0.1480
vn -0.1651 0.5892 0.7910
vn -0.3578 0.0578 0.9320
vn -0.3060 -0.9379 0.1636
vn 0.0610 0.0890 0.9942
vn 0.2603 -0.9225 0.2850
vn 0.7365 0.6668 0.1136
vn 0.8645 -0.3396 0.3706
usemtl Matériau.011
s off
f 45//1 46//1 4//1 3//1
f 49//2 50//2 8//2 7//2
f 47//3 48//3 6//3 5//3
f 26//1 25//1 9//1 10//1
f 72//4 47//4 5//4 51//4
f 96//5 46//5 2//5 74//5
f 10//1 9//1 13//1 14//1
f 84//6 9//6 29//6 90//6
f 89//5 26//5 10//5 75//5
f 27//3 28//3 11//3 12//3
f 76//7 14//7 18//7 77//7
f 75//8 10//8 14//8 76//8
f 12//3 11//3 15//3 16//3
f 53//4 12//4 16//4 55//4
f 86//9 77//9 18//9 17//9
f 16//10 15//10 19//10 20//10
f 16//3 20//3 24//3 22//3
f 14//11 13//11 17//11 18//11
f 59//12 22//12 42//12 69//12
f 86//6 17//6 23//6 88//6
f 17//1 13//1 21//1 23//1
f 55//2 16//2 22//2 59//2
f 5//3 6//3 28//3 27//3
f 74//5 2//5 26//5 89//5
f 51//4 5//4 27//4 62//4
f 2//1 1//1 25//1 26//1
f 32//3 30//3 34//3 36//3
f 62//2 27//2 32//2 64//2
f 27//3 12//3 30//3 32//3
f 9//1 25//1 31//1 29//1
f 66//4 36//4 34//4 65//4
f 90//5 29//5 37//5 92//5
f 64//2 32//2 36//2 66//2
f 29//1 31//1 35//1 33//1
f 92//6 37//6 39//6 93//6
f 29//1 33//1 39//1 37//1
f 34//3 30//3 38//3 40//3
f 65//4 34//4 40//4 68//4
f 69//13 42//13 124//13 123//13
f 23//1 21//1 41//1 43//1
f 88//14 23//14 43//14 95//14
f 22//3 24//3 44//3 42//3
f 82//5 4//5 46//5 96//5
f 49//4 7//4 47//4 72//4
f 7//3 8//3 48//3 47//3
f 46//15 45//15 103//15 106//15
f 73//4 49//4 72//4 81//4
f 8//5 50//5 71//5 48//5
f 24//14 60//14 70//14 44//14
f 42//16 44//16 126//16 124//16
f 91//4 65//4 68//4 93//4
f 38//6 67//6 68//6 40//6
f 79//2 64//2 66//2 80//2
f 30//5 63//5 67//5 38//5
f 80//4 66//4 65//4 91//4
f 78//2 62//2 64//2 79//2
f 83//4 51//4 62//4 78//4
f 6//5 52//5 61//5 28//5
f 85//2 55//2 59//2 87//2
f 20//6 57//6 60//6 24//6
f 87//12 59//12 69//12 94//12
f 20//17 19//17 58//17 57//17
f 84//4 53//4 55//4 85//4
f 11//18 54//18 56//18 15//18
f 15//7 56//7 58//7 19//7
f 28//5 61//5 54//5 11//5
f 12//6 53//6 63//6 30//6
f 48//5 71//5 52//5 6//5
f 81//4 72//4 51//4 83//4
f 50//3 49//3 121//3 120//3
f 3//2 4//2 82//2 73//2
f 45//4 81//4 83//4 1//4
f 9//4 84//4 85//4 13//4
f 21//12 87//12 94//12 41//12
f 13//2 85//2 87//2 21//2
f 1//4 83//4 78//4 25//4
f 25//2 78//2 79//2 31//2
f 35//4 80//4 91//4 33//4
f 31//2 79//2 80//2 35//2
f 33//4 91//4 93//4 39//4
f 70//19 95//19 130//19 125//19
f 3//4 73//4 81//4 45//4
f 50//5 82//5 96//5 71//5
f 60//14 88//14 95//14 70//14
f 67//6 92//6 93//6 68//6
f 63//5 90//5 92//5 67//5
f 52//3 71//3 100//3 101//3
f 57//6 86//6 88//6 60//6
f 57//20 58//20 77//20 86//20
f 54//21 75//21 76//21 56//21
f 56//7 76//7 77//7 58//7
f 61//5 89//5 75//5 54//5
f 53//6 84//6 90//6 63//6
f 89//6 61//6 98//6 97//6
f 101//5 102//5 97//5 98//5
f 100//5 99//5 102//5 101//5
f 61//3 52//3 101//3 98//3
f 74//1 89//1 97//1 102//1
f 71//2 96//2 99//2 100//2
f 96//1 74//1 102//1 99//1
f 106//2 103//2 107//2 110//2
f 1//22 2//22 105//22 104//22
f 2//23 46//23 106//23 105//23
f 45//24 1//24 104//24 103//24
f 109//5 110//5 114//5 113//5
f 104//6 105//6 109//6 108//6
f 105//5 106//5 110//5 109//5
f 103//4 104//4 108//4 107//4
f 113//5 114//5 118//5 117//5
f 107//4 108//4 112//4 111//4
f 110//2 107//2 111//2 114//2
f 108//6 109//6 113//6 112//6
f 116//1 117//1 118//1 115//1
f 111//4 112//4 116//4 115//4
f 114//2 111//2 115//2 118//2
f 122//2 119//2 120//2 121//2
f 82//5 50//5 120//5 119//5
f 73//1 82//1 119//1 122//1
f 49//4 73//4 122//4 121//4
f 123//4 124//4 126//4 125//4
f 129//4 123//4 125//4 130//4
f 128//4 129//4 130//4 127//4
f 95//19 43//19 127//19 130//19
f 94//13 69//13 123//13 129//13
f 43//25 41//25 128//25 127//25
f 44//19 70//19 125//19 126//19
f 41//13 94//13 129//13 128//13
o Cube.048_Cube.024
v -563.640442 465.036865 182.285767
v -726.547668 341.556183 53.400993
v -423.296539 484.237488 -13.501076
v -586.754395 363.785522 -140.198608
v -679.420776 646.467163 44.415199
v -762.947815 583.155151 -21.667610
v -607.462524 656.311829 -55.970169
v -690.401123 593.864380 -121.650398
v -410.215973 448.014801 -437.072235
v -297.206909 486.686707 -395.166779
v -325.932709 605.652710 -427.486267
v -438.941711 566.980774 -469.391876
v -315.295776 435.989929 -631.332703
v -232.208984 464.422424 -600.522766
v -253.328796 551.888916 -624.284912
v -336.415649 523.456421 -655.094727
v -254.524872 431.000854 -752.773376
v -193.806000 451.778931 -730.257996
v -209.240173 515.698303 -747.622925
v -269.958862 494.920288 -770.138428
v -483.968231 590.062744 -24.028900
v -656.366577 462.690552 -158.534973
v -633.076477 569.617493 183.816345
v -806.022583 438.527527 46.989265
v -305.909851 546.505920 -415.119476
v -425.882812 505.450928 -459.607391
v -232.869202 506.149323 -628.587830
v -321.076050 475.964783 -661.296448
v -189.081665 480.227661 -762.922058
v -253.542053 458.169128 -786.825073
v -217.116760 413.299713 -837.318237
v -156.398010 434.077759 -814.802612
v -149.159546 466.431152 -857.850159
v -213.619934 444.372620 -881.753235
v -230.423157 480.523499 -863.470459
v -169.704468 501.301575 -840.955139
v -190.534058 401.833862 -898.424133
v -129.815369 422.612000 -875.908630
v -122.576904 454.965332 -918.956055
v -187.037354 432.906799 -942.859070
v -203.840515 469.057617 -924.576538
v -143.121765 489.835754 -902.060852
v -157.913208 375.518860 -925.507629
v -118.831299 388.892761 -911.015320
v -114.172180 409.717102 -938.723083
v -155.662415 395.519104 -954.108459
v -178.916626 460.752197 -990.455261
v -195.719849 496.903137 -972.172668
v -135.001160 517.681152 -949.657227
v -114.456238 482.810730 -966.552185
v -136.633240 356.470093 -943.773743
v -110.285400 365.486450 -934.003357
v -107.144348 379.525635 -952.683289
v -135.115906 369.953735 -963.055481
v -117.167969 346.631897 -970.492493
v -100.697571 352.268188 -964.385071
v -98.734009 361.044189 -976.061951
v -116.219360 355.060699 -982.545959
v -166.870117 485.400177 -1009.147644
v -178.042908 509.437378 -996.991028
v -137.670227 523.252930 -982.020447
v -124.009705 500.067139 -993.254211
v -303.278564 556.161682 414.749847
v -297.718781 328.610992 333.587677
v -150.833679 617.322693 234.263245
v -153.540833 396.878113 152.066681
v -460.651001 561.601562 213.417664
v -457.800323 444.929932 171.803558
v -383.662170 597.778625 123.008362
v -383.876282 479.932373 78.732635
v 4.734924 551.146912 -182.293671
v 77.968750 629.939636 -115.267159
v -5.315674 722.863647 -133.817108
v -78.190369 645.132263 -199.979218
v 106.596497 630.915710 -355.938965
v 160.992188 688.174072 -306.708282
v 100.023621 757.274292 -319.710968
v 45.627869 700.015930 -368.941742
v 170.211731 683.612915 -463.837006
v 209.963257 725.456482 -427.859802
v 165.408386 775.953979 -437.362152
v 125.656616 734.110474 -473.339264
v -257.067139 645.622437 185.660065
v -261.253296 406.802460 94.694099
v -420.218384 575.901611 373.564667
v -414.315979 334.328430 287.401031
v 42.216614 679.900635 -126.797737
v -36.327942 597.222534 -197.884369
v 141.213318 729.484497 -327.480164
v 83.465515 668.697632 -379.744507
v 201.914673 759.189819 -454.239288
v 159.713440 714.767700 -492.433502
v 217.561829 705.901794 -542.078003
v 257.313416 747.745361 -506.100739
v 250.195862 788.347961 -541.498596
v 207.994629 743.925720 -579.692810
v 173.794922 762.212646 -559.212463
v 213.546448 804.056274 -523.235168
v 250.717896 722.914124 -598.498962
v 290.469482 764.757751 -562.521667
v 283.351929 805.360352 -597.919312
v 241.150696 760.938110 -636.113586
v 206.950806 779.224976 -615.633118
v 246.702515 821.068665 -579.655945
v 294.103271 722.588989 -623.150757
v 319.689636 749.521729 -599.993958
v 315.108398 775.655823 -622.777893
v 287.945374 747.063232 -647.361633
v 237.426575 799.187317 -676.484802
v 203.226746 817.474243 -656.004456
v 242.978333 859.317871 -620.027283
v 279.627747 843.609497 -638.290588
v 323.410095 720.921143 -640.111145
v 340.659851 739.078491 -624.499451
v 337.571472 756.697388 -639.859924
v 319.258728 737.421143 -656.433594
v 347.088928 728.075928 -664.147095
v 357.871643 739.426270 -654.387817
v 355.941101 750.440063 -663.989685
v 344.493591 738.390137 -674.350159
v 236.555481 830.085815 -688.591431
v 213.815552 842.244934 -674.973755
v 240.246948 870.067322 -651.052002
v 264.615479 859.622681 -663.195496
vn 0.4559 -0.8580 0.2367
vn -0.2932 0.9028 -0.3146
vn -0.4562 0.8566 -0.2412
vn -0.4388 -0.3037 0.8457
vn 0.3709 0.8600 0.3505
vn -0.6414 -0.5551 -0.5296
vn -0.1960 0.9251 -0.3251
vn 0.8538 0.4153 0.3139
vn -0.7965 -0.1111 -0.5944
vn 0.4551 -0.8859 0.0898
vn -0.8711 -0.2074 -0.4452
vn 0.9363 0.2169 0.2762
vn -0.8738 -0.2415 -0.4221
vn 0.2565 -0.9489 0.1840
vn 0.8767 0.3628 0.3157
vn 0.2620 -0.9500 0.1701
vn -0.1899 0.9217 -0.3383
vn 0.9467 0.1777 0.2687
vn 0.8938 0.3966 0.2092
vn 0.2121 -0.9334 0.2893
vn -0.8379 -0.3902 -0.3817
vn 0.9004 0.3656 0.2358
vn -0.8182 -0.4263 -0.3858
vn -0.6597 -0.5053 -0.5563
vn 0.5885 0.7655 0.2601
vn -0.8057 -0.0416 -0.5908
vn 0.7010 0.4569 0.5476
vn -0.7385 0.4558 0.4968
vn -0.2200 0.9370 -0.2715
vn -0.8802 -0.3536 -0.3166
vn -0.2320 0.9417 -0.2435
vn 0.9040 0.2521 0.3453
vn -0.8787 -0.3580 -0.3158
vn -0.9054 -0.2470 -0.3452
vn 0.8714 0.3439 0.3499
vn -0.0090 -0.7226 0.6912
vn 0.9030 0.2566 0.3447
vn 0.8768 0.3650 0.3130
vn -0.9051 -0.2448 -0.3478
vn 0.2200 -0.9370 0.2715
vn 0.1729 0.4462 -0.8781
vn -0.7546 -0.5084 -0.4149
vn 0.9709 0.0821 0.2249
vn 0.1847 0.4220 -0.8876
vn 0.8647 0.5021 0.0151
vn -0.9121 -0.2664 -0.3115
vn -0.4263 0.8106 0.4015
vn 0.4263 -0.8106 -0.4015
vn -0.0337 0.7781 -0.6272
vn 0.9631 0.1108 0.2452
vn -0.7776 -0.4849 -0.4003
vn -0.0219 -0.7046 0.7093
vn 0.4395 -0.7520 -0.4913
vn 0.9605 0.1193 0.2512
vn -0.7845 -0.4775 -0.3957
vn 0.1441 -0.8900 0.4327
vn 0.1457 0.4996 -0.8539
vn -0.7966 -0.0664 -0.6009
vn 0.4487 -0.6688 -0.5928
vn -0.3795 0.9060 0.1873
vn 0.7917 -0.2048 0.5755
vn -0.6482 0.5434 -0.5334
vn -0.7934 0.2015 -0.5744
vn -0.3624 -0.3210 0.8750
vn -0.3784 0.9253 0.0256
vn 0.0723 -0.9511 -0.3003
vn -0.6170 0.7591 -0.2075
vn 0.3420 0.8779 0.3350
vn -0.3639 -0.6007 -0.7119
vn 0.8362 -0.3996 0.3758
vn -0.6075 -0.4960 -0.6205
vn 0.6708 0.5742 0.4693
vn -0.5941 -0.5313 -0.6039
vn 0.6922 -0.7173 0.0794
vn 0.5426 0.6594 0.5203
vn 0.6966 -0.7148 0.0616
vn -0.6080 0.7638 -0.2166
vn 0.7005 0.5474 0.4578
vn 0.5480 0.7203 0.4253
vn 0.6367 -0.7519 0.1711
vn -0.4905 -0.6488 -0.5818
vn 0.5599 0.6973 0.4475
vn -0.4549 -0.6688 -0.5879
vn -0.0703 -0.8554 -0.5132
vn -0.0932 0.9820 0.1640
vn -0.3658 -0.7374 -0.5679
vn 0.0499 0.9269 0.3720
vn -0.9608 -0.1136 0.2527
vn -0.6465 0.7471 -0.1546
vn -0.5502 -0.6531 -0.5203
vn -0.6613 0.7390 -0.1289
vn 0.6203 0.5723 0.5363
vn -0.5468 -0.6563 -0.5200
vn -0.6241 -0.5687 -0.5357
vn 0.5452 0.6331 0.5495
vn 0.3098 -0.7718 0.5553
vn 0.6172 0.5757 0.5363
vn 0.5418 0.6619 0.5180
vn -0.6248 -0.5661 -0.5378
vn 0.6465 -0.7471 0.1546
vn -0.0145 0.6598 -0.7513
vn -0.3563 -0.7009 -0.6179
vn 0.7733 0.4882 0.4045
vn 0.0087 0.6472 -0.7623
vn 0.4835 0.8394 0.2483
vn -0.6225 -0.5960 -0.5073
vn -0.8086 0.3880 0.4422
vn 0.8086 -0.3880 -0.4422
vn -0.3794 0.7835 -0.4920
vn 0.7505 0.5041 0.4274
vn -0.3892 -0.6955 -0.6041
vn 0.2882 -0.7669 0.5734
vn 0.7967 -0.3117 -0.5178
vn 0.7435 0.5087 0.4341
vn -0.3991 -0.6936 -0.5997
vn 0.5455 -0.7806 0.3051
vn -0.0668 0.6862 -0.7243
vn -0.6041 -0.3054 -0.7361
vn 0.7697 -0.2140 -0.6015
vn -0.8014 0.5398 0.2576
usemtl Matériau.012
s off
f 131//26 132//26 134//26 133//26
f 138//27 137//27 141//27 142//27
f 137//28 138//28 136//28 135//28
f 153//29 154//29 132//29 131//29
f 151//30 137//30 135//30 153//30
f 152//31 134//31 132//31 154//31
f 142//32 141//32 145//32 146//32
f 151//33 133//33 140//33 155//33
f 152//34 138//34 142//34 156//34
f 133//35 134//35 139//35 140//35
f 158//36 146//36 150//36 160//36
f 155//37 140//37 144//37 157//37
f 156//38 142//38 146//38 158//38
f 140//39 139//39 143//39 144//39
f 149//40 159//40 163//40 166//40
f 144//41 143//41 147//41 148//41
f 146//42 145//42 149//42 150//42
f 157//43 144//43 148//43 159//43
f 145//44 157//44 159//44 149//44
f 148//45 147//45 161//45 162//45
f 139//46 156//46 158//46 143//46
f 141//47 155//47 157//47 145//47
f 143//48 158//48 160//48 147//48
f 134//49 152//49 156//49 139//49
f 137//50 151//50 155//50 141//50
f 138//51 152//51 154//51 136//51
f 133//52 151//52 153//52 131//52
f 135//53 136//53 154//53 153//53
f 165//54 166//54 172//54 171//54
f 161//55 164//55 170//55 167//55
f 150//56 149//56 166//56 165//56
f 159//57 148//57 162//57 163//57
f 147//58 160//58 164//58 161//58
f 160//59 150//59 165//59 164//59
f 172//60 169//60 180//60 179//60
f 168//61 167//61 173//61 174//61
f 163//62 162//62 168//62 169//62
f 166//63 163//63 169//63 172//63
f 164//64 165//64 171//64 170//64
f 162//65 161//65 167//65 168//65
f 176//66 175//66 183//66 184//66
f 167//67 170//67 176//67 173//67
f 169//68 168//68 174//68 175//68
f 170//69 169//69 175//69 176//69
f 179//70 180//70 192//70 191//70
f 170//71 171//71 178//71 177//71
f 171//72 172//72 179//72 178//72
f 169//73 170//73 177//73 180//73
f 184//74 183//74 187//74 188//74
f 175//75 174//75 182//75 183//75
f 173//76 176//76 184//76 181//76
f 174//77 173//77 181//77 182//77
f 186//78 185//78 188//78 187//78
f 183//79 182//79 186//79 187//79
f 181//80 184//80 188//80 185//80
f 182//81 181//81 185//81 186//81
f 192//82 189//82 190//82 191//82
f 177//83 178//83 190//83 189//83
f 180//84 177//84 189//84 192//84
f 178//85 179//85 191//85 190//85
f 193//86 194//86 196//86 195//86
f 200//87 199//87 203//87 204//87
f 199//88 200//88 198//88 197//88
f 215//89 216//89 194//89 193//89
f 213//90 199//90 197//90 215//90
f 214//91 196//91 194//91 216//91
f 204//92 203//92 207//92 208//92
f 213//93 195//93 202//93 217//93
f 214//94 200//94 204//94 218//94
f 195//95 196//95 201//95 202//95
f 220//96 208//96 212//96 222//96
f 217//97 202//97 206//97 219//97
f 218//98 204//98 208//98 220//98
f 202//99 201//99 205//99 206//99
f 211//100 221//100 225//100 228//100
f 206//101 205//101 209//101 210//101
f 208//102 207//102 211//102 212//102
f 219//103 206//103 210//103 221//103
f 207//104 219//104 221//104 211//104
f 210//105 209//105 223//105 224//105
f 201//106 218//106 220//106 205//106
f 203//107 217//107 219//107 207//107
f 205//108 220//108 222//108 209//108
f 196//109 214//109 218//109 201//109
f 199//110 213//110 217//110 203//110
f 200//111 214//111 216//111 198//111
f 195//112 213//112 215//112 193//112
f 197//113 198//113 216//113 215//113
f 227//114 228//114 234//114 233//114
f 223//115 226//115 232//115 229//115
f 212//116 211//116 228//116 227//116
f 221//117 210//117 224//117 225//117
f 209//118 222//118 226//118 223//118
f 222//119 212//119 227//119 226//119
f 234//120 231//120 242//120 241//120
f 230//121 229//121 235//121 236//121
f 225//122 224//122 230//122 231//122
f 228//123 225//123 231//123 234//123
f 226//124 227//124 233//124 232//124
f 224//125 223//125 229//125 230//125
f 238//126 237//126 245//126 246//126
f 229//127 232//127 238//127 235//127
f 231//128 230//128 236//128 237//128
f 232//129 231//129 237//129 238//129
f 241//130 242//130 254//130 253//130
f 232//131 233//131 240//131 239//131
f 233//132 234//132 241//132 240//132
f 231//133 232//133 239//133 242//133
f 246//134 245//134 249//134 250//134
f 237//135 236//135 244//135 245//135
f 235//136 238//136 246//136 243//136
f 236//137 235//137 243//137 244//137
f 248//138 247//138 250//138 249//138
f 245//139 244//139 248//139 249//139
f 243//140 246//140 250//140 247//140
f 244//141 243//141 247//141 248//141
f 254//142 251//142 252//142 253//142
f 239//143 240//143 252//143 251//143
f 242//144 239//144 251//144 254//144
f 240//145 241//145 253//145 252//145
