# Blender v2.91.2 OBJ File: 'camionnete02.blend'
# www.blender.org
mtllib arme_000249.mtl
o Cube.046_Cube.010
v 616.980286 454.652771 -719.499939
v 587.871521 294.023193 -867.587524
v 813.684082 500.397827 -807.784302
v 784.575439 339.768311 -955.872009
v 521.904541 598.474365 -856.813660
v 492.795654 437.844788 -1004.901245
v 718.608215 644.219360 -945.097900
v 689.499512 483.589905 -1093.185547
v 346.158203 391.670898 -597.949890
v 317.049377 231.041382 -746.037476
v 221.973541 374.862854 -883.351074
v 251.082397 535.492432 -735.263489
v 223.593384 363.167358 -542.940430
v 194.484589 202.537872 -691.028076
v 99.408691 346.359436 -828.341675
v 128.517548 506.989014 -680.254089
v 151.187622 346.328857 -510.443359
v 142.184540 232.188538 -623.488892
v 47.108643 376.010132 -760.802551
v 56.111725 490.150391 -647.756958
v 252.612244 523.300415 -395.310638
v 157.536407 667.121948 -532.624268
v 180.206451 506.461792 -362.813568
v 85.130615 650.283447 -500.127167
v 388.411438 401.497192 -616.913940
v 359.302612 240.867676 -765.001465
v 293.335632 545.318787 -754.227539
v 264.226807 384.689209 -902.315186
v 355.767273 444.695923 -549.065063
v 260.691467 588.517517 -686.378662
v 398.020508 454.522217 -568.029053
v 302.944580 598.343750 -705.342651
v 369.708435 521.626526 -478.141144
v 274.632568 665.448059 -615.454712
v 411.961670 531.452881 -497.105225
v 316.885864 675.274414 -634.418823
v 235.972595 416.836670 -495.298950
v 140.896759 560.658203 -632.612610
v 249.913757 493.767273 -424.375000
v 154.837891 637.588867 -561.688599
v 316.392700 633.619568 -323.924377
v 221.316833 777.441162 -461.238007
v 243.986877 616.781006 -291.427338
v 148.911072 760.602539 -428.740936
v 744.241577 484.248413 -776.617249
v 715.132812 323.618896 -924.704956
v 649.165710 628.069946 -913.930786
v 620.056885 467.440369 -1062.018433
v 766.146118 572.308594 -876.441101
v 737.037476 411.679138 -1024.528809
v 569.442444 526.563599 -788.156738
v 540.333618 365.933960 -936.244324
v 298.620300 463.581665 -666.606689
v 269.511475 302.952087 -814.694214
v 176.055481 435.078186 -611.597229
v 142.300415 273.421936 -743.095886
v 103.649689 418.239624 -579.100159
v 107.034363 293.415527 -697.554077
v 205.074280 595.211182 -463.967438
v 132.668579 578.372620 -431.470428
v 311.764648 312.778442 -833.658325
v 340.873535 473.407959 -685.570801
v 308.229370 516.606689 -617.721863
v 350.482483 526.432922 -636.685913
v 322.170532 593.537292 -546.797852
v 364.423706 603.363647 -565.762024
v 188.434692 488.747437 -563.955688
v 202.375824 565.678101 -493.031799
v 268.854736 705.530396 -392.581207
v 196.448975 688.691772 -360.084167
v 667.594849 395.529663 -993.361633
v 696.703674 556.159180 -845.273987
v 789.915039 536.353149 -842.112671
v 564.102539 329.978577 -901.915894
v 293.280396 266.996765 -780.365845
v 158.327911 249.177155 -719.948242
v 123.061829 269.170654 -674.406372
v 364.642456 437.452515 -651.242310
v 374.251465 490.477539 -602.357544
v 388.192627 567.408203 -531.433594
v 720.472656 520.203796 -810.945679
v 760.806396 375.723633 -990.200317
v 593.211487 490.608276 -753.828369
v 322.389282 427.626221 -632.278320
v 199.824432 399.122803 -577.268799
v 127.418610 382.284180 -544.771790
v 228.843292 559.255798 -429.639038
v 156.437500 542.417236 -397.141968
v 335.533691 276.823059 -799.329895
v 331.998352 480.651245 -583.393494
v 345.939453 557.581909 -512.469543
v 212.203644 452.792053 -529.627319
v 226.144775 529.722656 -458.703400
v 292.623718 669.574951 -358.252747
v 220.217957 652.736389 -325.755768
v 691.363892 359.574280 -959.033325
v 330.083435 246.747375 -827.057312
v 306.314392 282.702728 -861.385681
v 685.913635 329.498657 -986.760742
v 662.144592 365.453979 -1021.089050
v 534.883423 335.858337 -963.971741
v 558.652344 299.902924 -929.643311
v 740.708740 370.565063 -744.104248
v 684.435120 357.478210 -718.847534
v 671.563599 286.449341 -784.330261
v 727.837158 299.536407 -809.587036
v 761.254272 339.486084 -714.431519
v 704.980530 326.399170 -689.174805
v 692.109009 255.370361 -754.657593
v 748.382629 268.457306 -779.914307
v 792.695435 291.925232 -669.022827
v 736.421692 278.838318 -643.766113
v 723.550049 207.809570 -709.248901
v 779.823608 220.896576 -734.505676
v 812.927246 261.320435 -639.802917
v 756.653564 248.233459 -614.546204
v 743.782043 177.204712 -680.028931
v 800.055664 190.291687 -705.285645
v 1407.015747 526.004822 -1280.230713
v 1383.246826 561.960205 -1314.559082
v 1412.355591 722.589783 -1166.471680
v 1436.124512 686.634399 -1132.143188
v 307.049194 748.072266 -348.367645
v 263.245544 814.334167 -411.631165
v 240.331055 732.556396 -318.423309
v 196.527527 798.818237 -381.686829
v 284.134827 666.294556 -255.159790
v 350.852783 681.810364 -285.103882
v 328.950928 714.941345 -316.735657
v 262.232971 699.425476 -286.791595
vn 0.4314 -0.6525 0.6230
vn 0.8925 0.2075 -0.4006
vn -0.4314 0.6525 -0.6230
vn 0.1321 0.7288 0.6719
vn -0.1321 -0.7288 -0.6719
vn -0.8925 -0.2075 0.4006
vn -0.6917 -0.6826 -0.2360
vn -0.1939 -0.6812 -0.7059
vn -0.9341 -0.2336 0.2701
vn -0.4326 0.6519 -0.6228
vn 0.4326 -0.6519 0.6228
vn 0.7895 -0.0612 -0.6107
vn 0.7861 -0.0671 -0.6145
vn -0.7895 0.0612 0.6107
vn 0.9902 -0.0660 -0.1231
vn -0.3566 0.8684 -0.3445
vn -0.8824 -0.3165 0.3481
vn -0.1436 -0.7614 -0.6322
vn 0.8925 0.2076 -0.4006
vn -0.7473 0.1284 0.6519
vn -0.9022 -0.3096 0.3004
vn -0.1905 -0.7409 -0.6441
vn -0.6507 -0.4476 0.6134
vn 0.1279 -0.9679 -0.2166
vn 0.3482 0.2478 0.9041
vn 0.4133 -0.7319 0.5417
usemtl Matériau.011
s off
f 45//1 46//1 4//1 3//1
f 49//2 50//2 8//2 7//2
f 47//3 48//3 6//3 5//3
f 26//1 25//1 9//1 10//1
f 72//4 47//4 5//4 51//4
f 96//5 46//5 2//5 74//5
f 10//1 9//1 13//1 14//1
f 84//6 9//6 29//6 90//6
f 89//5 26//5 10//5 75//5
f 27//3 28//3 11//3 12//3
f 76//7 14//7 18//7 77//7
f 75//8 10//8 14//8 76//8
f 12//3 11//3 15//3 16//3
f 53//4 12//4 16//4 55//4
f 86//9 77//9 18//9 17//9
f 16//10 15//10 19//10 20//10
f 16//3 20//3 24//3 22//3
f 14//11 13//11 17//11 18//11
f 59//12 22//12 42//12 69//12
f 86//6 17//6 23//6 88//6
f 17//1 13//1 21//1 23//1
f 55//2 16//2 22//2 59//2
f 5//3 6//3 28//3 27//3
f 74//5 2//5 26//5 89//5
f 51//4 5//4 27//4 62//4
f 2//1 1//1 25//1 26//1
f 32//3 30//3 34//3 36//3
f 62//2 27//2 32//2 64//2
f 27//3 12//3 30//3 32//3
f 9//1 25//1 31//1 29//1
f 66//4 36//4 34//4 65//4
f 90//5 29//5 37//5 92//5
f 64//2 32//2 36//2 66//2
f 29//1 31//1 35//1 33//1
f 92//6 37//6 39//6 93//6
f 29//1 33//1 39//1 37//1
f 34//3 30//3 38//3 40//3
f 65//4 34//4 40//4 68//4
f 69//13 42//13 124//13 123//13
f 23//1 21//1 41//1 43//1
f 88//14 23//14 43//14 95//14
f 22//3 24//3 44//3 42//3
f 82//5 4//5 46//5 96//5
f 49//4 7//4 47//4 72//4
f 7//3 8//3 48//3 47//3
f 46//15 45//15 103//15 106//15
f 73//4 49//4 72//4 81//4
f 8//5 50//5 71//5 48//5
f 24//14 60//14 70//14 44//14
f 42//16 44//16 126//16 124//16
f 91//4 65//4 68//4 93//4
f 38//6 67//6 68//6 40//6
f 79//2 64//2 66//2 80//2
f 30//5 63//5 67//5 38//5
f 80//4 66//4 65//4 91//4
f 78//2 62//2 64//2 79//2
f 83//4 51//4 62//4 78//4
f 6//5 52//5 61//5 28//5
f 85//2 55//2 59//2 87//2
f 20//6 57//6 60//6 24//6
f 87//12 59//12 69//12 94//12
f 20//17 19//17 58//17 57//17
f 84//4 53//4 55//4 85//4
f 11//18 54//18 56//18 15//18
f 15//7 56//7 58//7 19//7
f 28//5 61//5 54//5 11//5
f 12//6 53//6 63//6 30//6
f 48//5 71//5 52//5 6//5
f 81//4 72//4 51//4 83//4
f 50//3 49//3 121//3 120//3
f 3//19 4//19 82//19 73//19
f 45//4 81//4 83//4 1//4
f 9//4 84//4 85//4 13//4
f 21//12 87//12 94//12 41//12
f 13//2 85//2 87//2 21//2
f 1//4 83//4 78//4 25//4
f 25//2 78//2 79//2 31//2
f 35//4 80//4 91//4 33//4
f 31//2 79//2 80//2 35//2
f 33//4 91//4 93//4 39//4
f 70//20 95//20 130//20 125//20
f 3//4 73//4 81//4 45//4
f 50//5 82//5 96//5 71//5
f 60//14 88//14 95//14 70//14
f 67//6 92//6 93//6 68//6
f 63//5 90//5 92//5 67//5
f 52//3 71//3 100//3 101//3
f 57//6 86//6 88//6 60//6
f 57//21 58//21 77//21 86//21
f 54//22 75//22 76//22 56//22
f 56//7 76//7 77//7 58//7
f 61//5 89//5 75//5 54//5
f 53//6 84//6 90//6 63//6
f 89//6 61//6 98//6 97//6
f 101//5 102//5 97//5 98//5
f 100//5 99//5 102//5 101//5
f 61//3 52//3 101//3 98//3
f 74//1 89//1 97//1 102//1
f 71//2 96//2 99//2 100//2
f 96//1 74//1 102//1 99//1
f 106//19 103//19 107//19 110//19
f 1//23 2//23 105//23 104//23
f 2//24 46//24 106//24 105//24
f 45//25 1//25 104//25 103//25
f 109//5 110//5 114//5 113//5
f 104//6 105//6 109//6 108//6
f 105//5 106//5 110//5 109//5
f 103//4 104//4 108//4 107//4
f 113//5 114//5 118//5 117//5
f 107//4 108//4 112//4 111//4
f 110//2 107//2 111//2 114//2
f 108//6 109//6 113//6 112//6
f 116//1 117//1 118//1 115//1
f 111//4 112//4 116//4 115//4
f 114//2 111//2 115//2 118//2
f 122//2 119//2 120//2 121//2
f 82//5 50//5 120//5 119//5
f 73//1 82//1 119//1 122//1
f 49//4 73//4 122//4 121//4
f 123//4 124//4 126//4 125//4
f 129//4 123//4 125//4 130//4
f 128//4 129//4 130//4 127//4
f 95//20 43//20 127//20 130//20
f 94//13 69//13 123//13 129//13
f 43//26 41//26 128//26 127//26
f 44//20 70//20 125//20 126//20
f 41//13 94//13 129//13 128//13
o Cube.048_Cube.024
v -491.850830 554.478394 147.216522
v -640.448364 377.163330 77.390556
v -373.781433 538.318359 -63.012024
v -527.399292 362.513275 -144.877808
v -648.874451 670.729309 -17.585320
v -725.064514 579.814880 -53.387024
v -588.336914 662.443665 -125.375389
v -664.935425 571.829712 -162.371002
v -274.367065 524.010254 -489.220734
v -228.232758 498.484680 -374.143829
v -244.309143 619.544312 -340.846130
v -290.443390 645.069946 -455.923004
v -71.822021 582.147095 -539.092163
v -37.903137 563.380005 -454.485016
v -49.722839 652.385864 -430.003845
v -83.641785 671.152893 -514.611023
v 55.442505 620.075073 -567.920227
v 80.230042 606.360413 -506.090363
v 71.592285 671.404663 -488.199799
v 46.804749 685.119385 -550.029602
v -453.186005 626.435730 -93.288017
v -613.673706 441.500305 -176.972107
v -578.313721 643.859924 130.014038
v -736.068359 455.618103 55.885201
v -229.686340 559.410828 -355.756744
v -278.663574 586.509399 -477.925079
v -25.368408 611.290710 -445.728912
v -61.377625 631.214172 -535.549866
v 101.733459 644.200684 -504.012665
v 75.418518 658.760437 -569.652649
v 142.667114 636.569763 -599.229797
v 167.454773 622.855103 -537.400085
v 197.281311 668.268921 -536.979004
v 170.966370 682.828735 -602.619019
v 141.073181 708.023560 -582.741333
v 165.860840 694.308838 -520.911743
v 205.188171 649.703552 -621.381226
v 229.975647 635.988953 -559.551331
v 259.802185 681.402710 -559.130432
v 233.487244 695.962646 -624.770447
v 203.594177 721.157288 -604.892761
v 228.381714 707.442627 -543.062927
v 250.924988 631.872437 -630.343323
v 266.879456 623.044922 -590.546204
v 286.077576 652.275696 -590.275208
v 269.139771 661.647278 -632.524719
v 267.730286 739.757751 -628.783997
v 237.837158 764.952515 -608.906433
v 262.624695 751.237793 -547.076660
v 294.045105 725.197937 -563.144104
v 281.451233 619.026306 -637.586243
v 292.207336 613.075012 -610.756042
v 305.150146 632.781616 -610.573425
v 293.731140 639.099609 -639.056885
v 315.100525 618.416565 -645.131775
v 321.824280 614.696350 -628.359924
v 329.915100 627.015137 -628.245789
v 322.776917 630.964600 -646.051147
v 285.452454 765.206421 -616.937805
v 265.576111 781.958740 -603.721008
v 282.057556 772.839661 -562.609436
v 302.949524 755.525391 -573.293030
v -308.070465 457.892792 464.277618
v -445.358185 291.231964 355.770416
v -123.448669 343.686951 362.102448
v -247.491486 189.994751 260.916046
v -313.271667 535.356262 220.756226
v -383.662903 449.904541 165.121567
v -210.331970 477.465973 178.681534
v -282.211151 397.997375 116.487007
v 36.893250 106.983582 2.149963
v -13.589661 3.159424 46.304718
v 73.035522 -2.947876 134.026566
v 124.872253 99.330261 92.834801
v 166.976440 -23.457825 -111.669563
v 127.819885 -101.838562 -80.296257
v 192.504089 -107.465515 -13.622604
v 231.660767 -29.084778 -44.996094
v 248.959656 -106.945740 -180.766754
v 220.344421 -164.225281 -157.839508
v 267.614746 -168.337402 -109.115364
v 296.230042 -111.057922 -132.042572
v -138.251892 421.633179 288.311096
v -276.738617 263.919678 167.793610
v -341.050781 548.326538 383.686981
v -486.798584 371.395447 268.493286
v 29.246460 -9.734497 88.060585
v 85.786621 103.443237 42.759048
v 169.951416 -117.171631 -57.513268
v 211.520813 -33.960815 -90.819923
v 258.934021 -182.598511 -149.362701
v 289.312561 -121.789307 -173.702881
v 301.338806 -157.125427 -240.757782
v 272.723633 -214.404907 -217.830505
v 321.031433 -238.383667 -211.228485
v 351.409973 -177.574402 -235.568634
v 356.833557 -165.981201 -193.620361
v 328.218567 -223.260681 -170.693054
v 339.914490 -193.271729 -282.917053
v 311.299255 -250.551270 -259.989746
v 359.607239 -274.530029 -253.387939
v 389.985535 -213.720703 -277.727875
v 395.409241 -202.127502 -235.779572
v 366.794006 -259.407104 -212.852356
v 341.375793 -224.088501 -322.138336
v 322.957581 -260.956909 -307.381073
v 354.051331 -276.390747 -303.131805
v 373.604431 -237.250549 -318.798431
v 439.909241 -238.503235 -277.333618
v 445.332947 -226.910034 -235.385315
v 416.717957 -284.189819 -212.457977
v 409.531067 -299.312622 -252.993683
v 342.015686 -243.888000 -349.650085
v 329.598572 -268.743652 -339.701233
v 350.561218 -279.148865 -336.836639
v 363.743469 -252.761536 -347.398621
v 354.378113 -265.996399 -373.059357
v 346.615784 -281.533936 -366.839966
v 359.719666 -288.038208 -365.049164
v 367.960144 -271.543274 -371.651550
v 462.774231 -259.805786 -266.133453
v 466.380310 -252.097412 -238.241455
v 447.353699 -290.183228 -222.996613
v 442.574890 -300.238647 -249.949402
vn 0.6165 -0.6903 0.3786
vn -0.2085 0.9487 -0.2378
vn -0.6185 0.6791 -0.3953
vn -0.3068 -0.1149 0.9448
vn 0.2427 0.9682 0.0609
vn -0.5884 -0.7670 -0.2559
vn -0.0550 0.9699 0.2372
vn 0.7838 0.4586 0.4188
vn -0.6301 -0.0603 -0.7741
vn 0.4994 -0.8541 0.1452
vn -0.2854 0.3312 -0.8994
vn 0.4463 -0.2591 0.8566
vn -0.2981 0.2930 -0.9085
vn 0.1982 -0.9371 -0.2873
vn 0.3550 -0.1427 0.9239
vn 0.2119 -0.9327 -0.2918
vn -0.0411 0.9718 0.2320
vn 0.4647 -0.2901 0.8366
vn 0.4351 -0.0674 0.8979
vn 0.0922 -0.9637 -0.2507
vn -0.2780 0.1417 -0.9501
vn 0.4262 -0.1077 0.8982
vn -0.2558 0.1085 -0.9606
vn -0.5424 -0.4513 -0.7086
vn 0.4701 0.7993 0.3744
vn -0.8504 -0.2963 -0.4349
vn 0.6512 0.6919 0.3117
vn -0.7639 0.4631 0.4495
vn -0.1105 0.9600 0.2573
vn -0.3583 0.1517 -0.9212
vn -0.1390 0.9536 0.2672
vn 0.3707 -0.2554 0.8930
vn -0.3571 0.1473 -0.9224
vn -0.3726 0.2598 -0.8909
vn 0.3306 -0.1735 0.9277
vn -0.3722 -0.9264 -0.0563
vn 0.3697 -0.2511 0.8946
vn 0.3566 -0.1397 0.9237
vn -0.3708 0.2628 -0.8907
vn 0.1105 -0.9600 -0.2573
vn 0.6582 0.7464 -0.0983
vn -0.1782 0.0370 -0.9833
vn 0.5262 -0.3527 0.7738
vn 0.6768 0.7280 -0.1098
vn 0.5315 0.1243 0.8379
vn -0.3975 0.2294 -0.8885
vn -0.6998 0.5848 0.4103
vn 0.6998 -0.5848 -0.4103
vn 0.2896 0.9524 0.0951
vn 0.5024 -0.3374 0.7961
vn -0.2082 0.0558 -0.9765
vn -0.3964 -0.9170 -0.0445
vn 0.7620 -0.4966 -0.4156
vn 0.4952 -0.3327 0.8025
vn -0.2173 0.0616 -0.9742
vn -0.0610 -0.9793 -0.1928
vn 0.6144 0.7857 -0.0720
vn -0.1467 0.4996 -0.8538
vn 0.8257 -0.3815 -0.4156
vn -0.5339 0.7546 0.3814
vn 0.0805 -0.5910 0.8026
vn 0.7484 0.6632 0.0012
vn -0.0328 0.5996 -0.7996
vn -0.7675 0.2472 0.5915
vn 0.5316 0.8457 0.0466
vn -0.5620 -0.7247 -0.3988
vn 0.7370 -0.1029 0.6680
vn 0.8241 -0.0789 0.5609
vn -0.1697 0.0346 -0.9849
vn -0.2824 -0.8544 0.4361
vn 0.5534 0.7734 -0.3091
vn -0.4492 -0.8679 0.2118
vn 0.5199 0.7890 -0.3274
vn -0.6575 0.0112 -0.7534
vn -0.3779 -0.8438 0.3811
vn -0.6381 0.0106 -0.7699
vn 0.7460 -0.1098 0.6568
vn -0.4402 -0.8775 0.1905
vn -0.2783 -0.8916 0.3573
vn -0.7165 0.0806 -0.6929
vn 0.4099 0.7986 -0.4407
vn -0.2917 -0.8792 0.3767
vn 0.3916 0.7875 -0.4760
vn -0.5736 -0.3809 -0.7252
vn 0.8992 0.4366 0.0299
vn -0.5378 -0.3204 -0.7799
vn 0.6265 0.6158 0.4777
vn -0.7012 0.6913 -0.1746
vn 0.7053 -0.0700 0.7054
vn 0.3837 0.8447 -0.3732
vn 0.6874 -0.0535 0.7243
vn -0.4595 -0.8373 0.2964
vn 0.3807 0.8445 -0.3768
vn 0.4620 0.8375 -0.2918
vn -0.4134 -0.8267 0.3817
vn -0.8970 0.3307 -0.2933
vn -0.4567 -0.8375 0.3001
vn -0.3746 -0.8450 0.3817
vn 0.4651 0.8360 -0.2912
vn -0.7053 0.0700 -0.7054
vn 0.8845 -0.4634 -0.0537
vn 0.3610 0.7398 -0.5678
vn -0.4522 -0.8880 0.0837
vn 0.8784 -0.4710 -0.0805
vn -0.0591 -0.9318 0.3581
vn 0.4271 0.8558 -0.2917
vn 0.1439 0.3049 0.9414
vn -0.1439 -0.3049 -0.9414
vn 0.8801 -0.2889 0.3767
vn -0.4545 -0.8827 0.1193
vn 0.3659 0.7594 -0.5380
vn -0.9005 0.3427 -0.2676
vn -0.0465 -0.3511 -0.9352
vn -0.4550 -0.8810 0.1299
vn 0.3673 0.7652 -0.5287
vn -0.7980 0.1669 -0.5791
vn 0.8957 -0.4446 0.0071
vn 0.7238 0.6354 -0.2692
vn 0.0728 -0.4018 -0.9128
vn 0.3525 0.1906 0.9162
usemtl Matériau.012
s off
f 131//27 132//27 134//27 133//27
f 138//28 137//28 141//28 142//28
f 137//29 138//29 136//29 135//29
f 153//30 154//30 132//30 131//30
f 151//31 137//31 135//31 153//31
f 152//32 134//32 132//32 154//32
f 142//33 141//33 145//33 146//33
f 151//34 133//34 140//34 155//34
f 152//35 138//35 142//35 156//35
f 133//36 134//36 139//36 140//36
f 158//37 146//37 150//37 160//37
f 155//38 140//38 144//38 157//38
f 156//39 142//39 146//39 158//39
f 140//40 139//40 143//40 144//40
f 149//41 159//41 163//41 166//41
f 144//42 143//42 147//42 148//42
f 146//43 145//43 149//43 150//43
f 157//44 144//44 148//44 159//44
f 145//45 157//45 159//45 149//45
f 148//46 147//46 161//46 162//46
f 139//47 156//47 158//47 143//47
f 141//48 155//48 157//48 145//48
f 143//49 158//49 160//49 147//49
f 134//50 152//50 156//50 139//50
f 137//51 151//51 155//51 141//51
f 138//52 152//52 154//52 136//52
f 133//53 151//53 153//53 131//53
f 135//54 136//54 154//54 153//54
f 165//55 166//55 172//55 171//55
f 161//56 164//56 170//56 167//56
f 150//57 149//57 166//57 165//57
f 159//58 148//58 162//58 163//58
f 147//59 160//59 164//59 161//59
f 160//60 150//60 165//60 164//60
f 172//61 169//61 180//61 179//61
f 168//62 167//62 173//62 174//62
f 163//63 162//63 168//63 169//63
f 166//64 163//64 169//64 172//64
f 164//65 165//65 171//65 170//65
f 162//66 161//66 167//66 168//66
f 176//67 175//67 183//67 184//67
f 167//68 170//68 176//68 173//68
f 169//69 168//69 174//69 175//69
f 170//70 169//70 175//70 176//70
f 179//71 180//71 192//71 191//71
f 170//72 171//72 178//72 177//72
f 171//73 172//73 179//73 178//73
f 169//74 170//74 177//74 180//74
f 184//75 183//75 187//75 188//75
f 175//76 174//76 182//76 183//76
f 173//77 176//77 184//77 181//77
f 174//78 173//78 181//78 182//78
f 186//79 185//79 188//79 187//79
f 183//80 182//80 186//80 187//80
f 181//81 184//81 188//81 185//81
f 182//82 181//82 185//82 186//82
f 192//83 189//83 190//83 191//83
f 177//84 178//84 190//84 189//84
f 180//85 177//85 189//85 192//85
f 178//86 179//86 191//86 190//86
f 193//87 194//87 196//87 195//87
f 200//88 199//88 203//88 204//88
f 199//89 200//89 198//89 197//89
f 215//90 216//90 194//90 193//90
f 213//91 199//91 197//91 215//91
f 214//92 196//92 194//92 216//92
f 204//93 203//93 207//93 208//93
f 213//94 195//94 202//94 217//94
f 214//95 200//95 204//95 218//95
f 195//96 196//96 201//96 202//96
f 220//97 208//97 212//97 222//97
f 217//98 202//98 206//98 219//98
f 218//99 204//99 208//99 220//99
f 202//100 201//100 205//100 206//100
f 211//101 221//101 225//101 228//101
f 206//102 205//102 209//102 210//102
f 208//103 207//103 211//103 212//103
f 219//104 206//104 210//104 221//104
f 207//105 219//105 221//105 211//105
f 210//106 209//106 223//106 224//106
f 201//107 218//107 220//107 205//107
f 203//108 217//108 219//108 207//108
f 205//109 220//109 222//109 209//109
f 196//110 214//110 218//110 201//110
f 199//111 213//111 217//111 203//111
f 200//112 214//112 216//112 198//112
f 195//113 213//113 215//113 193//113
f 197//114 198//114 216//114 215//114
f 227//115 228//115 234//115 233//115
f 223//116 226//116 232//116 229//116
f 212//117 211//117 228//117 227//117
f 221//118 210//118 224//118 225//118
f 209//119 222//119 226//119 223//119
f 222//120 212//120 227//120 226//120
f 234//121 231//121 242//121 241//121
f 230//122 229//122 235//122 236//122
f 225//123 224//123 230//123 231//123
f 228//124 225//124 231//124 234//124
f 226//125 227//125 233//125 232//125
f 224//126 223//126 229//126 230//126
f 238//127 237//127 245//127 246//127
f 229//128 232//128 238//128 235//128
f 231//129 230//129 236//129 237//129
f 232//130 231//130 237//130 238//130
f 241//131 242//131 254//131 253//131
f 232//132 233//132 240//132 239//132
f 233//133 234//133 241//133 240//133
f 231//134 232//134 239//134 242//134
f 246//135 245//135 249//135 250//135
f 237//136 236//136 244//136 245//136
f 235//137 238//137 246//137 243//137
f 236//138 235//138 243//138 244//138
f 248//139 247//139 250//139 249//139
f 245//140 244//140 248//140 249//140
f 243//141 246//141 250//141 247//141
f 244//142 243//142 247//142 248//142
f 254//143 251//143 252//143 253//143
f 239//144 240//144 252//144 251//144
f 242//145 239//145 251//145 254//145
f 240//146 241//146 253//146 252//146
