# Blender v2.91.2 OBJ File: 'camionnete02.blend'
# www.blender.org
mtllib arme_000054.mtl
o Cube.046_Cube.010
v 366.649200 243.078140 -1021.327881
v 367.915314 22.675049 -1021.274902
v 485.270447 243.714920 -1207.090332
v 486.536560 23.311844 -1207.037476
v 180.889954 241.982559 -1139.950806
v 182.156021 21.579453 -1139.897827
v 299.511169 242.619370 -1325.713257
v 300.777283 22.216248 -1325.660400
v 203.331253 242.201370 -765.569702
v 204.597351 21.798325 -765.516724
v 18.838100 20.702728 -884.139648
v 17.572010 241.105820 -884.192566
v 129.419189 241.804611 -649.822205
v 130.685272 21.401520 -649.769348
v -55.074036 20.305923 -768.392212
v -56.340126 240.709030 -768.445190
v 85.755219 241.570206 -581.443909
v 94.114136 81.286407 -592.739990
v -91.645210 80.190842 -711.362915
v -100.004105 240.474655 -700.066772
v 128.156982 461.526306 -649.875061
v -57.602276 460.430725 -768.498047
v 84.493050 461.291931 -581.496704
v -101.266228 460.196350 -700.119629
v 228.811874 242.338150 -805.472656
v 230.077972 21.935104 -805.419739
v 43.052601 241.242599 -924.095581
v 44.318665 20.839508 -924.042664
v 202.913315 314.958069 -765.587158
v 17.154047 313.862549 -884.210144
v 228.393921 315.094849 -805.490112
v 42.634636 313.999268 -924.112976
v 202.306976 420.516174 -765.612549
v 16.547697 419.420593 -884.235352
v 227.787537 420.652954 -805.515503
v 42.028301 419.557373 -924.138367
v 130.671768 314.570251 -652.455811
v -55.087540 313.474670 -771.078735
v 130.065384 420.128418 -652.481140
v -55.693905 419.032776 -771.104065
v 154.939651 598.457886 -693.080322
v -30.819626 597.362305 -811.703308
v 111.275681 598.223511 -624.702026
v -74.483551 597.127869 -743.324890
v 443.393463 243.490128 -1141.510498
v 444.659576 23.087036 -1141.457642
v 257.634186 242.394547 -1260.133301
v 258.900299 21.991440 -1260.080444
v 392.390808 243.167160 -1266.401855
v 393.656921 22.764038 -1266.348999
v 273.769592 242.530350 -1080.639404
v 275.035675 22.127258 -1080.586426
v 110.451637 241.653580 -824.881104
v 111.717712 21.250519 -824.828125
v 36.539539 241.256851 -709.133728
v 37.805614 20.853729 -709.080811
v -7.124417 241.022415 -640.755371
v 1.234482 80.738632 -652.051453
v 35.277336 460.978577 -709.186462
v -8.386593 460.744141 -640.808167
v 137.198318 21.387314 -864.731140
v 135.932236 241.790359 -864.784119
v 110.033684 314.410339 -824.898682
v 135.514282 314.547058 -864.801514
v 109.427338 419.968445 -824.923950
v 134.907928 420.105164 -864.826965
v 37.792110 314.022522 -711.767334
v 37.185745 419.580627 -711.792603
v 62.059998 597.910156 -752.391846
v 18.396044 597.675659 -684.013489
v 351.779907 22.539246 -1200.769043
v 350.513824 242.942337 -1200.821899
v 438.830627 243.441025 -1236.745972
v 321.475494 22.401154 -1050.930664
v 158.157532 21.524429 -795.172485
v 84.245422 21.127625 -679.425110
v 47.674301 81.012512 -622.395752
v 182.372055 242.064255 -835.128357
v 181.954102 314.820923 -835.145813
v 181.347733 420.379028 -835.171204
v 396.953674 243.216232 -1171.166260
v 440.096741 23.037949 -1236.693237
v 320.209381 242.804245 -1050.983765
v 156.891449 241.927475 -795.225464
v 82.979347 241.530716 -679.477966
v 39.315388 241.296310 -611.099609
v 81.717178 461.252441 -679.530762
v 38.053242 461.018005 -611.152466
v 183.638153 21.661209 -835.075439
v 156.473511 314.684204 -795.242920
v 155.867142 420.242310 -795.268250
v 84.231934 314.296387 -682.111572
v 83.625565 419.854492 -682.136841
v 108.499847 598.184021 -722.736023
v 64.835876 597.949524 -654.357727
v 398.219727 22.813141 -1171.113403
v 183.875214 -19.606255 -835.065552
v 137.435379 -19.880173 -864.721252
v 398.456787 -18.454330 -1171.103516
v 352.016998 -18.728241 -1200.759155
v 275.272736 -19.140228 -1080.576538
v 321.712555 -18.866318 -1050.920776
v 500.649750 182.365494 -1057.970215
v 466.714203 182.183304 -1004.826721
v 467.274170 84.723328 -1004.803162
v 501.209625 84.905502 -1057.946899
v 540.791382 182.602280 -1032.336548
v 506.855865 182.420090 -979.192993
v 507.415771 84.960114 -979.169556
v 541.351257 85.142273 -1032.313110
v 602.220886 182.964584 -993.108826
v 568.285339 182.782394 -939.965210
v 568.845215 85.322449 -939.941772
v 602.780701 85.504623 -993.085449
v 641.749939 183.197739 -967.866211
v 607.814392 183.015549 -914.722656
v 608.374390 85.555573 -914.699219
v 642.309814 85.737747 -967.842773
v 829.790344 25.130234 -1846.958008
v 783.350525 24.856339 -1876.613770
v 782.084290 245.259445 -1876.666748
v 828.524231 245.533340 -1847.010986
vn 0.8428 0.0050 0.5382
vn 0.5382 0.0029 -0.8428
vn -0.8428 -0.0050 -0.5382
vn -0.0057 1.0000 -0.0002
vn 0.0057 -1.0000 0.0002
vn -0.5382 -0.0029 0.8428
vn -0.3533 -0.7492 0.5602
vn -0.5358 -0.0871 0.8398
vn -0.8435 -0.0055 -0.5371
vn 0.8435 0.0055 0.5371
vn 0.5060 -0.3480 -0.7892
vn -0.5060 0.3480 0.7892
vn 0.8264 0.0046 -0.5630
vn -0.1631 -0.0007 0.9866
vn 0.4698 -0.8312 0.2972
vn 0.4602 0.8367 0.2968
usemtl Matériau.011
s off
f 45//1 46//1 4//1 3//1
f 49//2 50//2 8//2 7//2
f 47//3 48//3 6//3 5//3
f 26//1 25//1 9//1 10//1
f 72//4 47//4 5//4 51//4
f 96//5 46//5 2//5 74//5
f 10//1 9//1 13//1 14//1
f 84//6 9//6 29//6 90//6
f 89//5 26//5 10//5 75//5
f 27//3 28//3 11//3 12//3
f 76//7 14//7 18//7 77//7
f 75//5 10//5 14//5 76//5
f 12//3 11//3 15//3 16//3
f 53//4 12//4 16//4 55//4
f 86//8 77//8 18//8 17//8
f 16//9 15//9 19//9 20//9
f 16//3 20//3 24//3 22//3
f 14//10 13//10 17//10 18//10
f 59//11 22//11 42//11 69//11
f 86//6 17//6 23//6 88//6
f 17//1 13//1 21//1 23//1
f 55//2 16//2 22//2 59//2
f 5//3 6//3 28//3 27//3
f 74//5 2//5 26//5 89//5
f 51//4 5//4 27//4 62//4
f 2//1 1//1 25//1 26//1
f 32//3 30//3 34//3 36//3
f 62//2 27//2 32//2 64//2
f 27//3 12//3 30//3 32//3
f 9//1 25//1 31//1 29//1
f 66//4 36//4 34//4 65//4
f 90//5 29//5 37//5 92//5
f 64//2 32//2 36//2 66//2
f 29//1 31//1 35//1 33//1
f 92//6 37//6 39//6 93//6
f 29//1 33//1 39//1 37//1
f 34//3 30//3 38//3 40//3
f 65//4 34//4 40//4 68//4
f 69//4 42//4 44//4 70//4
f 23//1 21//1 41//1 43//1
f 88//12 23//12 43//12 95//12
f 22//3 24//3 44//3 42//3
f 82//5 4//5 46//5 96//5
f 49//4 7//4 47//4 72//4
f 7//3 8//3 48//3 47//3
f 46//13 45//13 103//13 106//13
f 73//4 49//4 72//4 81//4
f 8//5 50//5 71//5 48//5
f 24//12 60//12 70//12 44//12
f 94//4 69//4 70//4 95//4
f 91//4 65//4 68//4 93//4
f 38//6 67//6 68//6 40//6
f 79//2 64//2 66//2 80//2
f 30//5 63//5 67//5 38//5
f 80//4 66//4 65//4 91//4
f 78//2 62//2 64//2 79//2
f 83//4 51//4 62//4 78//4
f 6//5 52//5 61//5 28//5
f 85//2 55//2 59//2 87//2
f 20//6 57//6 60//6 24//6
f 87//11 59//11 69//11 94//11
f 20//8 19//8 58//8 57//8
f 84//4 53//4 55//4 85//4
f 11//5 54//5 56//5 15//5
f 15//7 56//7 58//7 19//7
f 28//5 61//5 54//5 11//5
f 12//6 53//6 63//6 30//6
f 48//5 71//5 52//5 6//5
f 81//4 72//4 51//4 83//4
f 50//3 49//3 121//3 120//3
f 3//2 4//2 82//2 73//2
f 45//4 81//4 83//4 1//4
f 9//4 84//4 85//4 13//4
f 21//11 87//11 94//11 41//11
f 13//2 85//2 87//2 21//2
f 1//4 83//4 78//4 25//4
f 25//2 78//2 79//2 31//2
f 35//4 80//4 91//4 33//4
f 31//2 79//2 80//2 35//2
f 33//4 91//4 93//4 39//4
f 41//4 94//4 95//4 43//4
f 3//4 73//4 81//4 45//4
f 50//5 82//5 96//5 71//5
f 60//12 88//12 95//12 70//12
f 67//6 92//6 93//6 68//6
f 63//5 90//5 92//5 67//5
f 52//3 71//3 100//3 101//3
f 57//6 86//6 88//6 60//6
f 57//8 58//8 77//8 86//8
f 54//5 75//5 76//5 56//5
f 56//7 76//7 77//7 58//7
f 61//5 89//5 75//5 54//5
f 53//6 84//6 90//6 63//6
f 89//6 61//6 98//6 97//6
f 101//5 102//5 97//5 98//5
f 100//5 99//5 102//5 101//5
f 61//3 52//3 101//3 98//3
f 74//1 89//1 97//1 102//1
f 71//2 96//2 99//2 100//2
f 96//1 74//1 102//1 99//1
f 106//2 103//2 107//2 110//2
f 1//14 2//14 105//14 104//14
f 2//15 46//15 106//15 105//15
f 45//16 1//16 104//16 103//16
f 109//5 110//5 114//5 113//5
f 104//6 105//6 109//6 108//6
f 105//5 106//5 110//5 109//5
f 103//4 104//4 108//4 107//4
f 113//5 114//5 118//5 117//5
f 107//4 108//4 112//4 111//4
f 110//2 107//2 111//2 114//2
f 108//6 109//6 113//6 112//6
f 116//1 117//1 118//1 115//1
f 111//4 112//4 116//4 115//4
f 114//2 111//2 115//2 118//2
f 122//2 119//2 120//2 121//2
f 82//5 50//5 120//5 119//5
f 73//1 82//1 119//1 122//1
f 49//4 73//4 122//4 121//4
o Cube.047_Cube.022
v -251.372925 446.308289 289.726379
v -249.781769 207.231140 254.553268
v -134.082153 477.825134 80.807404
v -132.490997 238.747986 45.634296
v -433.685852 411.435242 114.010063
v -432.870056 288.853699 95.975830
v -373.547607 427.594788 6.891464
v -372.731781 305.013245 -11.142776
v 5.553864 350.121429 -309.832886
v 4.720428 475.351227 -291.409058
v -105.947449 483.572937 -352.299622
v -105.113983 358.343140 -370.723450
v 95.263702 395.861084 -501.539856
v 94.650909 487.932831 -487.994202
v 13.285370 493.977631 -532.762390
v 13.898163 401.905853 -546.308044
v 149.621490 426.639648 -622.220215
v 149.173676 493.924500 -612.321289
v 89.712830 498.341919 -645.037231
v 90.160645 431.057098 -654.936157
v -248.683136 490.644409 39.644600
v -246.993927 236.834564 2.304024
v -373.201782 457.185394 261.437866
v -371.512573 203.375565 224.097275
v -47.922699 484.050537 -326.125244
v -47.037872 351.103699 -345.684448
v 63.103607 496.251953 -526.266663
v 63.754120 398.506439 -540.647034
v 132.613434 501.748993 -651.857727
v 133.088837 430.317871 -662.366638
v 198.370544 438.677612 -701.838806
v 197.922729 505.962433 -691.939880
v 181.098358 515.440369 -742.726929
v 181.573761 444.009247 -753.235840
v 138.686127 444.494324 -744.076050
v 138.238312 511.779175 -734.177124
v 232.238922 447.416473 -759.706055
v 231.791168 514.701294 -749.807129
v 214.966766 524.179199 -800.594238
v 215.442230 452.748108 -811.103149
v 172.554565 453.233185 -801.943237
v 172.106750 520.518066 -792.044312
v 274.263153 463.155487 -781.531860
v 273.974945 506.463684 -775.160400
v 263.145844 512.564209 -807.849792
v 263.451874 466.587250 -814.613953
v 204.001953 460.613708 -865.084229
v 161.114319 461.098755 -855.924438
v 160.666504 528.383606 -846.025513
v 203.526550 532.044800 -854.575317
v 303.498871 472.661194 -795.823547
v 303.304535 501.858368 -791.528015
v 296.003937 505.971191 -813.566284
v 296.210236 474.974792 -818.126465
v 325.631012 482.034485 -820.560059
v 325.509491 500.286011 -817.874878
v 320.945831 502.856995 -831.651306
v 321.074799 483.480774 -834.501953
v 190.575287 476.553284 -890.924072
v 162.058685 476.875824 -884.833496
v 161.760956 521.614380 -878.251587
v 190.259186 524.048767 -883.936523
vn 0.8743 -0.0650 0.4810
vn -0.8053 0.0810 -0.5873
vn -0.8743 0.0650 -0.4810
vn -0.2360 -0.1430 0.9612
vn -0.4265 0.8985 -0.1039
vn 0.0603 -0.9915 -0.1157
vn -0.8340 0.0749 -0.5467
vn 0.1103 0.9932 0.0385
vn -0.2780 -0.8772 -0.3915
vn 0.9359 -0.0452 0.3493
vn -0.0481 -0.9577 -0.2839
vn 0.1016 0.9884 0.1132
vn -0.0236 -0.9674 -0.2521
vn 0.9093 -0.0546 0.4125
vn -0.0608 0.9913 0.1166
vn 0.9155 -0.0526 0.3989
vn -0.8256 0.0767 -0.5590
vn 0.1424 0.9830 0.1159
vn -0.0611 0.9981 0.0039
vn 0.8554 -0.0698 0.5132
vn 0.1147 -0.9777 -0.1760
vn -0.0367 0.9986 0.0371
vn 0.1555 -0.9728 -0.1719
vn 0.1233 -0.9606 -0.2489
vn -0.2901 0.9491 -0.1228
vn -0.4149 -0.8360 -0.3591
vn 0.0472 0.9835 0.1749
vn -0.9161 -0.0643 0.3958
vn -0.8655 0.0673 -0.4964
vn 0.0514 -0.9915 -0.1196
vn -0.8805 0.0633 -0.4698
vn 0.0426 0.9840 0.1728
vn 0.0557 -0.9915 -0.1179
vn -0.0477 -0.9836 -0.1739
vn -0.0533 0.9865 0.1550
vn 0.4934 -0.1234 0.8610
vn 0.0382 0.9845 0.1711
vn -0.0621 0.9916 0.1134
vn -0.0489 -0.9830 -0.1771
vn 0.8655 -0.0673 0.4964
vn -0.1417 0.1432 -0.9795
vn 0.2599 -0.9481 -0.1833
vn 0.2472 0.9640 0.0980
vn -0.1134 0.1439 -0.9831
vn -0.1244 0.9702 -0.2080
vn -0.0402 -0.9899 -0.1357
vn -0.9787 -0.0363 0.2021
vn 0.9787 0.0363 -0.2021
vn -0.5736 0.1155 -0.8110
vn 0.2139 0.9706 0.1103
vn 0.2268 -0.9584 -0.1735
vn 0.4684 -0.1256 0.8746
vn 0.9508 0.0513 -0.3054
vn 0.2040 0.9723 0.1139
vn 0.2166 -0.9613 -0.1705
vn 0.7589 -0.0898 0.6450
vn -0.2053 0.1411 -0.9685
vn -0.1121 -0.8707 -0.4788
vn 0.9020 0.0687 -0.4263
vn -0.9994 -0.0017 -0.0336
usemtl Matériau.012
s off
f 123//17 124//17 126//17 125//17
f 130//18 129//18 133//18 134//18
f 129//19 130//19 128//19 127//19
f 145//20 146//20 124//20 123//20
f 143//21 129//21 127//21 145//21
f 144//22 126//22 124//22 146//22
f 134//23 133//23 137//23 138//23
f 143//24 125//24 132//24 147//24
f 144//25 130//25 134//25 148//25
f 125//26 126//26 131//26 132//26
f 150//27 138//27 142//27 152//27
f 147//28 132//28 136//28 149//28
f 148//29 134//29 138//29 150//29
f 132//30 131//30 135//30 136//30
f 141//31 151//31 155//31 158//31
f 136//32 135//32 139//32 140//32
f 138//33 137//33 141//33 142//33
f 149//34 136//34 140//34 151//34
f 137//35 149//35 151//35 141//35
f 140//36 139//36 153//36 154//36
f 131//37 148//37 150//37 135//37
f 133//38 147//38 149//38 137//38
f 135//39 150//39 152//39 139//39
f 126//40 144//40 148//40 131//40
f 129//41 143//41 147//41 133//41
f 130//42 144//42 146//42 128//42
f 125//43 143//43 145//43 123//43
f 127//44 128//44 146//44 145//44
f 157//45 158//45 164//45 163//45
f 153//46 156//46 162//46 159//46
f 142//47 141//47 158//47 157//47
f 151//48 140//48 154//48 155//48
f 139//49 152//49 156//49 153//49
f 152//50 142//50 157//50 156//50
f 164//51 161//51 172//51 171//51
f 160//52 159//52 165//52 166//52
f 155//53 154//53 160//53 161//53
f 158//54 155//54 161//54 164//54
f 156//55 157//55 163//55 162//55
f 154//56 153//56 159//56 160//56
f 168//57 167//57 175//57 176//57
f 159//58 162//58 168//58 165//58
f 161//59 160//59 166//59 167//59
f 162//60 161//60 167//60 168//60
f 171//61 172//61 184//61 183//61
f 162//62 163//62 170//62 169//62
f 163//63 164//63 171//63 170//63
f 161//64 162//64 169//64 172//64
f 176//65 175//65 179//65 180//65
f 167//66 166//66 174//66 175//66
f 165//67 168//67 176//67 173//67
f 166//68 165//68 173//68 174//68
f 178//69 177//69 180//69 179//69
f 175//70 174//70 178//70 179//70
f 173//71 176//71 180//71 177//71
f 174//72 173//72 177//72 178//72
f 184//73 181//73 182//73 183//73
f 169//74 170//74 182//74 181//74
f 172//75 169//75 181//75 184//75
f 170//76 171//76 183//76 182//76
o Cube.048_Cube.024
v -528.720215 324.939575 99.914337
v -692.080444 208.033691 -34.413769
v -387.235718 350.424347 -94.328377
v -550.595886 233.518494 -228.656479
v -642.184814 512.621155 -31.355522
v -725.944153 452.680237 -100.229301
v -569.641724 525.687927 -130.949203
v -653.401062 465.747009 -199.822983
v -309.789398 352.349854 -521.416931
v -224.220551 413.585724 -451.055206
v -280.862122 523.561218 -477.883545
v -366.430969 462.325348 -548.245239
v -179.938965 397.715698 -688.666260
v -117.026794 442.737671 -636.934753
v -158.670959 523.594116 -656.659546
v -221.583130 478.572144 -708.391113
v -98.194946 428.868164 -792.653198
v -52.219543 461.769623 -754.848511
v -82.652527 520.858459 -769.263123
v -128.627930 487.956970 -807.067810
v -447.021912 457.067200 -101.037125
v -620.448853 332.957245 -243.642929
v -597.225159 430.011993 105.175468
v -770.652100 305.902039 -37.430340
v -246.627960 471.050476 -466.800140
v -337.469849 406.041077 -541.497742
v -124.867859 486.542145 -660.363525
v -191.656860 438.745758 -715.282898
v -50.115967 495.192383 -782.724792
v -98.924500 460.263428 -822.859131
v -41.539001 435.713318 -867.511414
v 4.436401 468.614777 -829.706726
v 9.712708 508.068573 -866.690186
v -39.095825 473.139587 -906.824524
v -69.286987 499.906128 -889.633362
v -23.311584 532.807556 -851.828674
v -1.417114 441.794678 -921.597473
v 44.558289 474.696167 -883.792786
v 49.834656 514.149963 -920.776245
v 1.026123 479.220978 -960.910583
v -29.165039 505.987488 -943.719421
v 16.810364 538.888977 -905.914734
v 42.250977 430.102844 -942.728455
v 71.843201 451.280029 -918.395264
v 75.239380 476.674652 -942.199890
v 43.823547 454.192444 -968.032532
v 9.375122 515.359802 -1002.515747
v -20.816040 542.126282 -985.324585
v 25.159363 575.027771 -947.519897
v 58.183655 550.288757 -962.381409
v 71.424744 420.785126 -957.268494
v 91.375000 435.062195 -940.863708
v 93.664551 452.182556 -956.912170
v 72.484924 437.025696 -974.327820
v 97.748291 421.031860 -979.552795
v 110.219482 429.956665 -969.297974
v 111.650818 440.658752 -979.330078
v 98.411133 431.184021 -990.216797
v 16.755310 544.997559 -1015.522461
v -3.319214 562.794983 -1004.091858
v 27.250427 584.671570 -978.955017
v 49.208740 568.222290 -988.836609
vn 0.4475 -0.8688 0.2119
vn -0.3692 0.8752 -0.3127
vn -0.4475 0.8688 -0.2119
vn -0.4457 -0.3322 0.8312
vn 0.3773 0.8421 0.3853
vn -0.6472 -0.5363 -0.5418
vn -0.4007 0.8744 -0.2737
vn 0.7778 0.4496 0.4392
vn -0.7393 -0.1119 -0.6640
vn 0.5284 -0.8440 0.0920
vn -0.6634 -0.3668 -0.6522
vn 0.7541 0.4204 0.5045
vn -0.6601 -0.4035 -0.6337
vn 0.4916 -0.8580 0.1489
vn 0.6466 0.5361 0.5426
vn 0.4998 -0.8553 0.1366
vn -0.3913 0.8749 -0.2855
vn 0.7772 0.3873 0.4960
vn 0.6730 0.5896 0.4467
vn 0.4251 -0.8722 0.2420
vn -0.5892 -0.5410 -0.6001
vn 0.6833 0.5579 0.4710
vn -0.5592 -0.5691 -0.6029
vn -0.5573 -0.5057 -0.6585
vn 0.5086 0.7812 0.3621
vn -0.8079 -0.0060 -0.5893
vn 0.7022 0.4294 0.5678
vn -0.7369 0.4429 0.5107
vn -0.4370 0.8706 -0.2263
vn -0.6525 -0.5282 -0.5434
vn -0.4550 0.8674 -0.2015
vn 0.6999 0.4340 0.5672
vn -0.6499 -0.5320 -0.5427
vn -0.7028 -0.4296 -0.5670
vn 0.6408 0.5113 0.5727
vn 0.0769 -0.7965 0.5997
vn 0.6977 0.4380 0.5668
vn 0.6466 0.5386 0.5402
vn -0.7026 -0.4269 -0.5692
vn 0.4370 -0.8706 0.2263
vn 0.1960 0.6091 -0.7685
vn -0.4693 -0.6248 -0.6240
vn 0.8373 0.3102 0.4503
vn 0.2162 0.5909 -0.7772
vn 0.6513 0.7122 0.2618
vn -0.7097 -0.4551 -0.5378
vn -0.7215 0.5879 0.3658
vn 0.7215 -0.5879 -0.3658
vn -0.1460 0.8273 -0.5424
vn 0.8173 0.3321 0.4708
vn -0.5007 -0.6112 -0.6130
vn 0.0560 -0.7859 0.6159
vn 0.7335 -0.5145 -0.4442
vn 0.8112 0.3385 0.4768
vn -0.5102 -0.6068 -0.6094
vn 0.3207 -0.8723 0.3692
vn 0.1498 0.6484 -0.7464
vn -0.6065 -0.1880 -0.7725
vn 0.7364 -0.4171 -0.5326
vn -0.6653 0.7250 0.1782
usemtl Matériau.012
s off
f 185//77 186//77 188//77 187//77
f 192//78 191//78 195//78 196//78
f 191//79 192//79 190//79 189//79
f 207//80 208//80 186//80 185//80
f 205//81 191//81 189//81 207//81
f 206//82 188//82 186//82 208//82
f 196//83 195//83 199//83 200//83
f 205//84 187//84 194//84 209//84
f 206//85 192//85 196//85 210//85
f 187//86 188//86 193//86 194//86
f 212//87 200//87 204//87 214//87
f 209//88 194//88 198//88 211//88
f 210//89 196//89 200//89 212//89
f 194//90 193//90 197//90 198//90
f 203//91 213//91 217//91 220//91
f 198//92 197//92 201//92 202//92
f 200//93 199//93 203//93 204//93
f 211//94 198//94 202//94 213//94
f 199//95 211//95 213//95 203//95
f 202//96 201//96 215//96 216//96
f 193//97 210//97 212//97 197//97
f 195//98 209//98 211//98 199//98
f 197//99 212//99 214//99 201//99
f 188//100 206//100 210//100 193//100
f 191//101 205//101 209//101 195//101
f 192//102 206//102 208//102 190//102
f 187//103 205//103 207//103 185//103
f 189//104 190//104 208//104 207//104
f 219//105 220//105 226//105 225//105
f 215//106 218//106 224//106 221//106
f 204//107 203//107 220//107 219//107
f 213//108 202//108 216//108 217//108
f 201//109 214//109 218//109 215//109
f 214//110 204//110 219//110 218//110
f 226//111 223//111 234//111 233//111
f 222//112 221//112 227//112 228//112
f 217//113 216//113 222//113 223//113
f 220//114 217//114 223//114 226//114
f 218//115 219//115 225//115 224//115
f 216//116 215//116 221//116 222//116
f 230//117 229//117 237//117 238//117
f 221//118 224//118 230//118 227//118
f 223//119 222//119 228//119 229//119
f 224//120 223//120 229//120 230//120
f 233//121 234//121 246//121 245//121
f 224//122 225//122 232//122 231//122
f 225//123 226//123 233//123 232//123
f 223//124 224//124 231//124 234//124
f 238//125 237//125 241//125 242//125
f 229//126 228//126 236//126 237//126
f 227//127 230//127 238//127 235//127
f 228//128 227//128 235//128 236//128
f 240//129 239//129 242//129 241//129
f 237//130 236//130 240//130 241//130
f 235//131 238//131 242//131 239//131
f 236//132 235//132 239//132 240//132
f 246//133 243//133 244//133 245//133
f 231//134 232//134 244//134 243//134
f 234//135 231//135 243//135 246//135
f 232//136 233//136 245//136 244//136
