# Blender v2.91.2 OBJ File: 'arbres.blend'
# www.blender.org
mtllib animal.mtl
o Cube.001
v -0.613412 -0.613412 -6.672344
v -0.613412 0.613412 -6.672344
v -0.613412 -0.613412 -7.899169
v -0.613412 0.613412 -7.899169
v 0.613412 -0.613412 -6.672344
v 0.613412 0.613412 -6.672344
v 0.613412 -0.613412 -7.899169
v 0.613412 0.613412 -7.899169
v -0.378441 -0.378441 -5.962812
v -0.378441 0.378441 -5.962812
v 0.378441 0.378441 -5.962812
v 0.378441 -0.378441 -5.962812
v -0.462259 0.462259 -9.853405
v -0.462259 -0.462259 -9.853405
v 0.462259 -0.462259 -9.853405
v 0.462259 0.462259 -9.853405
v 0.537836 0.537836 -8.876287
v -0.537836 0.537836 -8.876287
v -0.537836 -0.537836 -8.876287
v 0.537836 -0.537836 -8.876287
v 0.272742 -0.613412 -7.899169
v 0.272742 0.613412 -7.899169
v 0.272742 -0.613412 -6.672344
v 0.272742 0.613412 -6.672344
v 0.168267 -0.378441 -5.962812
v 0.168267 0.378441 -5.962812
v 0.205535 -0.462259 -9.853405
v 0.205535 0.462259 -9.853405
v 0.239139 -0.537836 -8.876287
v 0.239139 0.537836 -8.876287
v -0.357939 -0.613412 -7.899169
v -0.357939 0.613412 -6.672344
v -0.220828 0.378441 -5.962812
v -0.269738 -0.462259 -9.853405
v -0.313839 0.537836 -8.876287
v -0.357939 0.613412 -7.899169
v -0.357939 -0.613412 -6.672344
v -0.220828 -0.378441 -5.962812
v -0.269738 0.462259 -9.853405
v -0.313839 -0.537836 -8.876287
v 0.478845 0.478845 -9.638968
v 0.478845 -0.478845 -9.638968
v -0.478845 0.478845 -9.638968
v -0.478845 -0.478845 -9.638968
v 0.212910 -0.478845 -9.638968
v 0.212910 0.478845 -9.638968
v -0.279416 0.478845 -9.638968
v -0.279416 -0.478845 -9.638968
v -0.613412 -0.613412 -6.940436
v -0.613412 0.613412 -6.940436
v 0.613412 -0.613412 -6.940436
v 0.613412 0.613412 -6.940436
v 0.272742 0.613412 -6.940436
v 0.272742 -0.613412 -6.940436
v -0.357939 -0.613412 -6.940436
v -0.357939 0.613412 -6.940436
v -0.613412 -1.613876 -6.986217
v -0.613412 -1.613876 -6.718125
v 0.272742 -1.613876 -6.718125
v 0.613412 -1.613876 -6.718125
v -0.269738 -1.462723 -9.899186
v -0.462259 -1.462723 -9.899186
v 0.478845 -1.479309 -9.684748
v 0.462259 -1.462723 -9.899186
v 0.205535 -1.462723 -9.899186
v 0.212910 -1.479309 -9.684748
v 0.272742 -1.613876 -6.986217
v -0.357939 -1.613876 -6.718125
v -0.357939 -1.613876 -6.986217
v -0.279416 -1.479309 -9.684748
v -0.478845 -1.479309 -9.684748
v 0.613412 -1.613876 -6.986217
v -0.613412 0.000000 -6.672344
v -0.613412 0.000000 -7.899169
v 0.613412 0.000000 -7.899169
v 0.613412 0.000000 -6.672344
v -0.378441 0.000000 -5.962812
v 0.378441 0.000000 -5.962812
v -0.462259 0.000000 -9.853405
v 0.462259 0.000000 -9.853405
v 0.537836 0.000000 -8.876287
v -0.537836 0.000000 -8.876287
v 0.205535 0.000000 -9.853405
v -0.206257 0.834759 -4.678123
v -0.269738 0.000000 -9.853405
v -0.205130 0.668957 -4.662885
v 0.478845 0.000000 -9.638968
v -0.478845 0.000000 -9.638968
v 0.613412 0.000000 -6.940436
v -0.613412 0.000000 -6.940436
v 0.205535 0.000000 -10.472144
v 0.205535 -0.462259 -10.472144
v -0.269738 -0.462259 -10.472144
v -0.269738 0.000000 -10.472144
v 0.085052 0.230529 -11.091297
v 0.085052 0.002637 -11.091297
v -0.149256 0.002637 -11.091297
v -0.149256 0.230529 -11.091297
v -0.377963 0.610060 -5.290941
v -0.380525 0.986904 -5.325575
v 0.377929 0.618665 -5.253220
v 0.380491 0.241821 -5.218586
v 0.170591 0.239432 -5.229060
v -0.223119 0.988696 -5.317720
v -0.217995 0.235008 -5.248452
v 0.375367 0.995509 -5.287854
v 0.165468 0.993120 -5.298329
v -0.375401 0.233216 -5.256307
v 0.127443 0.672743 -4.646289
v 0.128570 0.506941 -4.631051
v 0.036220 0.505890 -4.635659
v -0.137003 0.835547 -4.674667
v -0.134748 0.503943 -4.644191
v 0.126316 0.838545 -4.661527
v 0.033966 0.837494 -4.666135
v 0.035093 0.671692 -4.650898
v -0.204003 0.503155 -4.647647
v -0.135875 0.669745 -4.659429
vn -1.0000 0.0000 0.0000
vn 0.0000 0.9970 -0.0771
vn 1.0000 0.0000 0.0000
vn 0.0000 0.9493 0.3144
vn 0.0000 0.0457 -0.9990
vn 0.0000 1.0000 0.0000
vn -0.0120 -0.7573 0.6530
vn 0.9493 0.0000 0.3144
vn -0.9493 0.0000 0.3144
vn 0.0000 -0.9493 0.3144
vn 0.0000 0.0000 -1.0000
vn -0.9970 0.0000 -0.0771
vn 0.9970 0.0000 -0.0771
vn 0.0000 -0.9970 -0.0771
vn 0.0130 0.7248 -0.6888
vn 0.0000 -1.0000 0.0000
vn -1.0000 -0.0031 0.0053
vn 0.0000 -0.0457 0.9990
vn -0.9994 -0.0016 0.0342
vn 0.9970 0.0035 -0.0768
vn -0.9970 0.0035 -0.0768
vn 0.9990 -0.0021 0.0449
vn -0.0117 -0.7665 0.6421
vn 0.0129 0.7303 -0.6830
vn 0.0127 0.7360 -0.6768
vn 0.9816 0.0000 -0.1910
vn 0.0000 0.9371 0.3489
vn 0.0000 -0.7997 -0.6004
vn -0.9816 0.0000 -0.1910
vn -0.0100 -0.9130 0.4077
vn -0.0228 0.9718 0.2345
vn -0.9644 0.0177 0.2637
vn -1.0000 -0.0033 0.0019
vn 1.0000 0.0034 -0.0004
vn -0.0118 -0.7618 0.6478
vn 1.0000 0.0032 -0.0038
vn -0.0507 0.0911 0.9946
vn 0.9249 0.0410 0.3780
usemtl Matériau.004
s off
f 90//1 50//1 4//1 74//1
f 46//2 41//2 16//2 28//2
f 89//3 52//3 6//3 76//3
f 32//4 2//4 10//4 33//4
f 54//5 51//5 72//5 67//5
f 56//6 50//6 2//6 32//6
f 9//7 38//7 105//7 108//7
f 76//8 6//8 11//8 78//8
f 73//9 1//9 9//9 77//9
f 23//10 5//10 12//10 25//10
f 83//11 28//11 16//11 80//11
f 88//12 43//12 13//12 79//12
f 87//13 42//13 15//13 80//13
f 23//1 54//1 67//1 59//1
f 31//14 3//14 19//14 40//14
f 75//13 7//13 20//13 81//13
f 74//12 4//12 18//12 82//12
f 22//2 8//2 17//2 30//2
f 36//2 22//2 30//2 35//2
f 7//14 21//14 29//14 20//14
f 55//3 37//3 68//3 69//3
f 85//11 39//11 28//11 83//11
f 37//10 23//10 25//10 38//10
f 33//15 10//15 100//15 104//15
f 52//6 53//6 24//6 6//6
f 55//16 54//16 23//16 37//16
f 6//4 24//4 26//4 11//4
f 47//2 46//2 28//2 39//2
f 43//2 47//2 39//2 13//2
f 1//1 49//1 57//1 58//1
f 1//10 37//10 38//10 9//10
f 79//11 13//11 39//11 85//11
f 4//2 36//2 35//2 18//2
f 21//14 31//14 40//14 29//14
f 45//14 48//14 34//14 27//14
f 77//17 9//17 108//17 99//17
f 53//6 56//6 32//6 24//6
f 24//4 32//4 33//4 26//4
f 29//14 40//14 48//14 45//14
f 18//2 35//2 47//2 43//2
f 35//2 30//2 46//2 47//2
f 20//14 29//14 45//14 42//14
f 40//14 19//14 44//14 48//14
f 81//13 20//13 42//13 87//13
f 82//12 18//12 43//12 88//12
f 30//2 17//2 41//2 46//2
f 22//6 36//6 56//6 53//6
f 3//16 31//16 55//16 49//16
f 31//16 21//16 54//16 55//16
f 8//6 22//6 53//6 52//6
f 36//6 4//6 50//6 56//6
f 21//16 7//16 51//16 54//16
f 75//3 8//3 52//3 89//3
f 73//1 2//1 50//1 90//1
f 67//16 72//16 60//16 59//16
f 70//14 71//14 62//14 61//14
f 63//14 66//14 65//14 64//14
f 57//16 69//16 68//16 58//16
f 5//18 23//18 59//18 60//18
f 37//18 1//18 58//18 68//18
f 45//19 27//19 65//19 66//19
f 49//5 55//5 69//5 57//5
f 15//20 42//20 63//20 64//20
f 27//5 15//5 64//5 65//5
f 44//21 14//21 62//21 71//21
f 51//3 5//3 60//3 72//3
f 34//22 48//22 70//22 61//22
f 42//18 45//18 66//18 63//18
f 14//5 34//5 61//5 62//5
f 48//18 44//18 71//18 70//18
f 1//1 73//1 90//1 49//1
f 7//3 75//3 89//3 51//3
f 19//12 82//12 88//12 44//12
f 17//13 81//13 87//13 41//13
f 25//23 12//23 102//23 103//23
f 14//11 79//11 85//11 34//11
f 26//24 33//24 104//24 107//24
f 85//6 83//6 91//6 94//6
f 3//12 74//12 82//12 19//12
f 8//13 75//13 81//13 17//13
f 41//13 87//13 80//13 16//13
f 44//12 88//12 79//12 14//12
f 27//11 83//11 80//11 15//11
f 2//9 73//9 77//9 10//9
f 5//8 76//8 78//8 12//8
f 11//25 26//25 107//25 106//25
f 51//3 89//3 76//3 5//3
f 49//1 90//1 74//1 3//1
f 91//26 92//26 96//26 95//26
f 83//3 27//3 92//3 91//3
f 34//1 85//1 94//1 93//1
f 27//16 34//16 93//16 92//16
f 97//11 98//11 95//11 96//11
f 94//27 91//27 95//27 98//27
f 92//28 93//28 97//28 96//28
f 93//29 94//29 98//29 97//29
f 105//30 103//30 111//30 113//30
f 107//31 104//31 112//31 115//31
f 100//32 99//32 86//32 84//32
f 99//32 108//32 117//32 86//32
f 104//31 100//31 84//31 112//31
f 103//30 102//30 110//30 111//30
f 10//33 77//33 99//33 100//33
f 78//34 11//34 106//34 101//34
f 38//35 25//35 103//35 105//35
f 12//36 78//36 101//36 102//36
f 118//37 112//37 84//37 86//37
f 109//37 114//37 115//37 116//37
f 116//37 115//37 112//37 118//37
f 111//37 116//37 118//37 113//37
f 110//37 109//37 116//37 111//37
f 113//37 118//37 86//37 117//37
f 101//38 106//38 114//38 109//38
f 102//38 101//38 109//38 110//38
f 108//30 105//30 113//30 117//30
f 106//31 107//31 115//31 114//31
