# Blender v2.91.2 OBJ File: 'camionnete02.blend'
# www.blender.org
o Cube.020_Cube.018
v -4149.567383 3280.623047 359.716858
v -4149.567383 4783.617188 359.716858
v -4149.567383 3280.623047 -1143.277344
v -4149.567383 4783.617188 -1143.277344
v -2646.573242 3280.623047 359.716858
v -2646.573242 4783.617188 359.716858
v -2646.573242 3280.623047 -1143.277344
v -2646.573242 4783.617188 -1143.277344
vn -1.0000 0.0000 0.0000
vn 0.0000 0.0000 -1.0000
vn 1.0000 0.0000 0.0000
vn 0.0000 0.0000 1.0000
vn 0.0000 -1.0000 0.0000
vn 0.0000 1.0000 0.0000
s off
f 1//1 2//1 4//1 3//1
f 3//2 4//2 8//2 7//2
f 7//3 8//3 6//3 5//3
f 5//4 6//4 2//4 1//4
f 3//5 7//5 5//5 1//5
f 8//6 4//6 2//6 6//6
