# Blender v2.91.2 OBJ File: 'camionnete02.blend'
# www.blender.org
mtllib cubes1.mtl
o Cube.078_Cube.048
v -59.144341 -59.144341 59.144341
v -59.144341 59.144341 59.144341
v -59.144341 -59.144341 -59.144341
v -59.144341 59.144341 -59.144341
v 59.144341 -59.144341 59.144341
v 59.144341 59.144341 59.144341
v 59.144341 -59.144341 -59.144341
v 59.144341 59.144341 -59.144341
v -59.144341 296.361176 59.144341
v -59.144341 296.361176 -59.144341
v 59.144341 296.361176 -59.144341
v 59.144341 296.361176 59.144341
vn -1.0000 0.0000 0.0000
vn 0.0000 0.0000 -1.0000
vn 1.0000 0.0000 0.0000
vn 0.0000 0.0000 1.0000
vn 0.0000 -1.0000 0.0000
vn 0.0000 1.0000 0.0000
usemtl None
s off
f 2//1 3//1 1//1
f 4//2 7//2 3//2
f 8//3 5//3 7//3
f 6//4 1//4 5//4
f 7//5 1//5 3//5
f 6//4 9//4 2//4
f 10//6 12//6 11//6
f 4//2 11//2 8//2
f 8//3 12//3 6//3
f 2//1 10//1 4//1
f 2//1 4//1 3//1
f 4//2 8//2 7//2
f 8//3 6//3 5//3
f 6//4 2//4 1//4
f 7//5 5//5 1//5
f 6//4 12//4 9//4
f 10//6 9//6 12//6
f 4//2 10//2 11//2
f 8//3 11//3 12//3
f 2//1 9//1 10//1
