# Blender v2.91.2 OBJ File: 'camionnete02.blend'
# www.blender.org
mtllib cubes.mtl
o Cube.082
v -26.248512 26.248516 -26.248508
v 26.248512 52.020767 -26.248505
v 26.248512 26.248516 -26.248508
v 26.248512 26.248508 26.248516
v -26.248512 -26.248516 26.248508
v 26.248512 -26.248516 26.248508
v -26.248512 26.248508 26.248516
v -26.248512 -26.248508 -26.248516
v 26.248512 -26.248508 -26.248516
v -26.248512 52.020767 -26.248505
v 26.248512 52.020760 26.248520
v -26.248512 52.020760 26.248520
vn 0.0000 0.0000 -1.0000
vn 0.0000 -0.0000 1.0000
vn -1.0000 0.0000 0.0000
vn 0.0000 -1.0000 -0.0000
vn 1.0000 -0.0000 0.0000
vn 0.0000 1.0000 0.0000
usemtl Material.008
s 1
f 1//1 2//1 3//1
f 4//2 5//2 6//2
f 7//3 8//3 5//3
f 9//4 5//4 8//4
f 3//5 6//5 9//5
f 1//1 9//1 8//1
f 10//6 11//6 2//6
f 4//2 12//2 7//2
f 7//3 10//3 1//3
f 3//5 11//5 4//5
f 1//1 10//1 2//1
f 4//2 7//2 5//2
f 7//3 1//3 8//3
f 9//4 6//4 5//4
f 3//5 4//5 6//5
f 1//1 3//1 9//1
f 10//6 12//6 11//6
f 4//2 11//2 12//2
f 7//3 12//3 10//3
f 3//5 2//5 11//5
