# Blender v2.91.2 OBJ File: 'camionnete02.blend'
# www.blender.org
mtllib decor.mtl
o Cube.077
v 2620.329102 -1459.141235 -8339.203125
v 2620.329102 341.881348 -8339.203125
v 2620.329102 -1459.141235 -8846.486328
v 2620.329102 341.881348 -8846.486328
v 3127.612793 -1459.141235 -8339.203125
v 3127.612793 341.881348 -8339.203125
v 3127.612793 -1459.141235 -8846.486328
v 3127.612793 341.881348 -8846.486328
v 2620.329102 -1459.141235 -6266.445312
v 2620.329102 341.881348 -6266.445312
v 3127.612793 341.881348 -6266.445312
v 3127.612793 -1459.141235 -6266.445312
v 2620.329102 -1459.141235 -8592.844727
v 2620.329102 -419.079102 -8339.203125
v 2620.329102 341.881348 -8592.844727
v 2620.329102 -419.079102 -8846.486328
v 2873.970947 -1459.141235 -8846.486328
v 2873.970947 341.881348 -8846.486328
v 3127.612793 -419.079102 -8846.486328
v 3127.612793 -1459.141235 -8592.844727
v 3127.612793 341.881348 -8592.844727
v 3127.612793 -419.079102 -8339.203125
v 2873.970947 -1459.141235 -8339.203125
v 2873.970947 341.881348 -8339.203125
v 2620.329102 -419.079102 -6266.445312
v 3127.612793 -419.079102 -6266.445312
v 2873.970947 -1459.141235 -6266.445312
v 2873.970947 341.881348 -6266.445312
v 2620.329102 341.881348 -7302.824219
v 3127.612793 341.881348 -7302.824219
v 3127.612793 -1459.141235 -7302.824219
v 2620.329102 -1459.141235 -7302.824219
v 2873.970947 -1459.141235 -7302.824219
v 2620.329102 -419.079102 -7302.824219
v 3127.612793 -419.079102 -7302.824219
v 2873.970947 -419.079102 -6266.445312
v 2873.970947 341.881348 -8592.844727
v 2873.970947 -1459.141235 -8592.844727
v 2873.970947 341.881348 -7302.824219
v 2873.970947 -419.079102 -8846.486328
v 2620.329102 -419.079102 -8592.844727
v 2620.329102 -1459.141235 -8466.023438
v 2620.329102 100.951965 -8339.203125
v 2620.329102 341.881348 -8719.666016
v 2620.329102 -939.110168 -8846.486328
v 2747.149902 -1459.141235 -8846.486328
v 3000.791992 341.881348 -8846.486328
v 3127.612793 -939.110168 -8846.486328
v 3127.612793 -1459.141235 -8719.666016
v 3127.612793 341.881348 -8466.023438
v 3127.612793 -939.110168 -8339.203125
v 3000.791992 -1459.141235 -8339.203125
v 2747.149902 341.881348 -8339.203125
v 2620.329102 100.951965 -6266.445312
v 3127.612793 -939.110168 -6266.445312
v 3000.791992 -1459.141235 -6266.445312
v 2747.149902 341.881348 -6266.445312
v 2620.329102 341.881348 -6784.634766
v 3127.612793 341.881348 -7821.013184
v 3127.612793 -1459.141235 -7821.013184
v 2620.329102 -1459.141235 -6784.634766
v 2620.329102 -1459.141235 -8719.666016
v 2620.329102 -939.110168 -8339.203125
v 2620.329102 341.881348 -8466.023438
v 2620.329102 100.951965 -8846.486328
v 3000.791992 -1459.141235 -8846.486328
v 2747.149902 341.881348 -8846.486328
v 3127.612793 100.951965 -8846.486328
v 3127.612793 -1459.141235 -8466.023438
v 3127.612793 341.881348 -8719.666016
v 3127.612793 100.951965 -8339.203125
v 2747.149902 -1459.141235 -8339.203125
v 3000.791992 341.881348 -8339.203125
v 2620.329102 -939.110168 -6266.445312
v 3127.612793 100.951965 -6266.445312
v 2747.149902 -1459.141235 -6266.445312
v 3000.791992 341.881348 -6266.445312
v 2620.329102 341.881348 -7821.013184
v 3127.612793 341.881348 -6784.634766
v 3127.612793 -1459.141235 -6784.634766
v 2620.329102 -1459.141235 -7821.013184
v 2873.970947 -1459.141235 -6784.634766
v 2873.970947 -1459.141235 -7821.013184
v 2747.149902 -1459.141235 -7302.824219
v 3000.791992 -1459.141235 -7302.824219
v 2620.329102 -419.079102 -6784.634766
v 2620.329102 -419.079102 -7821.013184
v 2620.329102 100.951965 -7302.824219
v 2620.329102 -939.110168 -7302.824219
v 3127.612793 -419.079102 -6784.634766
v 3127.612793 -419.079102 -7821.013184
v 3127.612793 -939.110168 -7302.824219
v 3127.612793 100.951965 -7302.824219
v 2747.149902 -419.079102 -6266.445312
v 3000.791992 -419.079102 -6266.445312
v 2873.970947 -939.110168 -6266.445312
v 2873.970947 100.951965 -6266.445312
v 2873.970947 341.881348 -8466.023438
v 2873.970947 341.881348 -8719.666016
v 3000.791992 341.881348 -8592.844727
v 2747.149902 341.881348 -8592.844727
v 2873.970947 -1459.141235 -8466.023438
v 2873.970947 -1459.141235 -8719.666016
v 2747.149902 -1459.141235 -8592.844727
v 3000.791992 -1459.141235 -8592.844727
v 2873.970947 341.881348 -6784.634766
v 2873.970947 341.881348 -7821.013184
v 3000.791992 341.881348 -7302.824219
v 2747.149902 341.881348 -7302.824219
v 3000.791992 -419.079102 -8846.486328
v 2747.149902 -419.079102 -8846.486328
v 2873.970947 -939.110168 -8846.486328
v 2873.970947 -178.149734 -8846.486328
v 2620.329102 -419.079102 -8719.666016
v 2620.329102 -419.079102 -8466.023438
v 2620.329102 -939.110168 -8592.844727
v 2620.329102 100.951965 -8592.844727
v 2620.329102 100.951965 -8466.023438
v 2620.329102 -939.110168 -8466.023438
v 2620.329102 -939.110168 -8719.666016
v 2747.149902 100.951965 -8846.486328
v 2747.149902 -939.110168 -8846.486328
v 3000.791992 -939.110168 -8846.486328
v 2747.149902 341.881348 -7821.013184
v 3000.791992 341.881348 -7821.013184
v 3000.791992 341.881348 -6784.634766
v 3000.791992 -1459.141235 -8719.666016
v 2747.149902 -1459.141235 -8719.666016
v 2747.149902 -1459.141235 -8466.023438
v 2747.149902 341.881348 -8719.666016
v 3000.791992 341.881348 -8719.666016
v 3000.791992 341.881348 -8466.023438
v 3000.791992 100.951965 -6266.445312
v 3000.791992 -939.110168 -6266.445312
v 2747.149902 -939.110168 -6266.445312
v 3127.612793 100.951965 -7821.013184
v 3127.612793 -939.110168 -7821.013184
v 3127.612793 -939.110168 -6784.634766
v 2620.329102 -939.110168 -7821.013184
v 2620.329102 100.951965 -7821.013184
v 2620.329102 100.951965 -6784.634766
v 3000.791992 -1459.141235 -7821.013184
v 2747.149902 -1459.141235 -7821.013184
v 2747.149902 -1459.141235 -6784.634766
v 3000.791992 -1459.141235 -6784.634766
v 2620.329102 -939.110168 -6784.634766
v 3127.612793 100.951965 -6784.634766
v 2747.149902 100.951965 -6266.445312
v 2747.149902 341.881348 -8466.023438
v 3000.791992 -1459.141235 -8466.023438
v 2747.149902 341.881348 -6784.634766
v 3000.791992 -178.149734 -8846.486328
v 2620.329102 100.951965 -8719.666016
vn -1.0000 0.0000 0.0000
vn -0.0000 0.0000 -1.0000
vn 0.0000 1.0000 0.0000
vn 0.0000 -1.0000 0.0000
vn 0.0000 0.0000 1.0000
vn 1.0000 0.0000 0.0000
usemtl None
s off
f 44//1 65//1 153//1
f 47//2 68//2 152//2
f 58//3 57//3 151//3
f 69//4 52//4 150//4
f 64//3 53//3 149//3
f 57//5 54//5 148//5
f 79//6 75//6 147//6
f 61//1 74//1 146//1
f 80//4 56//4 145//4
f 82//4 76//4 144//4
f 83//4 84//4 143//4
f 60//4 85//4 142//4
f 86//1 54//1 141//1
f 87//1 88//1 140//1
f 81//1 89//1 139//1
f 90//6 55//6 138//6
f 91//6 92//6 137//6
f 59//6 93//6 136//6
f 94//5 74//5 135//5
f 95//5 96//5 134//5
f 77//5 97//5 133//5
f 98//3 73//3 132//3
f 99//3 100//3 131//3
f 44//3 101//3 130//3
f 102//4 72//4 129//4
f 103//4 104//4 128//4
f 49//4 105//4 127//4
f 106//3 77//3 126//3
f 107//3 108//3 125//3
f 78//3 109//3 124//3
f 110//2 48//2 123//2
f 111//2 112//2 122//2
f 121//2 18//2 113//2
f 114//1 45//1 120//1
f 115//1 116//1 119//1
f 64//1 117//1 118//1
f 118//1 41//1 115//1
f 43//1 115//1 14//1
f 2//1 118//1 43//1
f 119//1 13//1 42//1
f 63//1 42//1 1//1
f 14//1 119//1 63//1
f 120//1 3//1 62//1
f 116//1 62//1 13//1
f 41//1 120//1 116//1
f 111//2 113//2 40//2
f 65//2 111//2 16//2
f 4//2 121//2 65//2
f 122//2 17//2 46//2
f 45//2 46//2 3//2
f 16//2 122//2 45//2
f 123//2 7//2 66//2
f 112//2 66//2 17//2
f 40//2 123//2 112//2
f 124//3 39//3 107//3
f 53//3 107//3 24//3
f 2//3 124//3 53//3
f 125//3 30//3 59//3
f 73//3 59//3 6//3
f 24//3 125//3 73//3
f 126//3 11//3 79//3
f 108//3 79//3 30//3
f 39//3 126//3 108//3
f 127//4 38//4 103//4
f 66//4 103//4 17//4
f 7//4 127//4 66//4
f 128//4 13//4 62//4
f 46//4 62//4 3//4
f 17//4 128//4 46//4
f 129//4 1//4 42//4
f 104//4 42//4 13//4
f 38//4 129//4 104//4
f 130//3 37//3 99//3
f 67//3 99//3 18//3
f 4//3 130//3 67//3
f 131//3 21//3 70//3
f 47//3 70//3 8//3
f 18//3 131//3 47//3
f 132//3 6//3 50//3
f 100//3 50//3 21//3
f 37//3 132//3 100//3
f 133//5 36//5 95//5
f 75//5 95//5 26//5
f 11//5 133//5 75//5
f 134//5 27//5 56//5
f 55//5 56//5 12//5
f 26//5 134//5 55//5
f 135//5 9//5 76//5
f 96//5 76//5 27//5
f 36//5 135//5 96//5
f 136//6 35//6 91//6
f 71//6 91//6 22//6
f 6//6 136//6 71//6
f 137//6 31//6 60//6
f 51//6 60//6 5//6
f 22//6 137//6 51//6
f 138//6 12//6 80//6
f 92//6 80//6 31//6
f 35//6 138//6 92//6
f 139//1 34//1 87//1
f 63//1 87//1 14//1
f 1//1 139//1 63//1
f 140//1 29//1 78//1
f 43//1 78//1 2//1
f 14//1 140//1 43//1
f 141//1 10//1 58//1
f 88//1 58//1 29//1
f 34//1 141//1 88//1
f 142//4 33//4 83//4
f 52//4 83//4 23//4
f 5//4 142//4 52//4
f 143//4 32//4 81//4
f 72//4 81//4 1//4
f 23//4 143//4 72//4
f 144//4 9//4 61//4
f 84//4 61//4 32//4
f 33//4 144//4 84//4
f 145//4 27//4 82//4
f 85//4 82//4 33//4
f 31//4 145//4 85//4
f 146//1 25//1 86//1
f 89//1 86//1 34//1
f 32//1 146//1 89//1
f 147//6 26//6 90//6
f 93//6 90//6 35//6
f 30//6 147//6 93//6
f 148//5 25//5 94//5
f 97//5 94//5 36//5
f 28//5 148//5 97//5
f 149//3 24//3 98//3
f 101//3 98//3 37//3
f 15//3 149//3 101//3
f 150//4 23//4 102//4
f 105//4 102//4 38//4
f 20//4 150//4 105//4
f 151//3 28//3 106//3
f 109//3 106//3 39//3
f 29//3 151//3 109//3
f 152//2 19//2 110//2
f 113//2 110//2 40//2
f 18//2 152//2 113//2
f 153//1 16//1 114//1
f 117//1 114//1 41//1
f 15//1 153//1 117//1
f 44//1 4//1 65//1
f 47//2 8//2 68//2
f 58//3 10//3 57//3
f 69//4 5//4 52//4
f 64//3 2//3 53//3
f 57//5 10//5 54//5
f 79//6 11//6 75//6
f 61//1 9//1 74//1
f 80//4 12//4 56//4
f 82//4 27//4 76//4
f 83//4 33//4 84//4
f 60//4 31//4 85//4
f 86//1 25//1 54//1
f 87//1 34//1 88//1
f 81//1 32//1 89//1
f 90//6 26//6 55//6
f 91//6 35//6 92//6
f 59//6 30//6 93//6
f 94//5 25//5 74//5
f 95//5 36//5 96//5
f 77//5 28//5 97//5
f 98//3 24//3 73//3
f 99//3 37//3 100//3
f 44//3 15//3 101//3
f 102//4 23//4 72//4
f 103//4 38//4 104//4
f 49//4 20//4 105//4
f 106//3 28//3 77//3
f 107//3 39//3 108//3
f 78//3 29//3 109//3
f 110//2 19//2 48//2
f 111//2 40//2 112//2
f 121//2 67//2 18//2
f 114//1 16//1 45//1
f 115//1 41//1 116//1
f 64//1 15//1 117//1
f 118//1 117//1 41//1
f 43//1 118//1 115//1
f 2//1 64//1 118//1
f 119//1 116//1 13//1
f 63//1 119//1 42//1
f 14//1 115//1 119//1
f 120//1 45//1 3//1
f 116//1 120//1 62//1
f 41//1 114//1 120//1
f 111//2 121//2 113//2
f 65//2 121//2 111//2
f 4//2 67//2 121//2
f 122//2 112//2 17//2
f 45//2 122//2 46//2
f 16//2 111//2 122//2
f 123//2 48//2 7//2
f 112//2 123//2 66//2
f 40//2 110//2 123//2
f 124//3 109//3 39//3
f 53//3 124//3 107//3
f 2//3 78//3 124//3
f 125//3 108//3 30//3
f 73//3 125//3 59//3
f 24//3 107//3 125//3
f 126//3 77//3 11//3
f 108//3 126//3 79//3
f 39//3 106//3 126//3
f 127//4 105//4 38//4
f 66//4 127//4 103//4
f 7//4 49//4 127//4
f 128//4 104//4 13//4
f 46//4 128//4 62//4
f 17//4 103//4 128//4
f 129//4 72//4 1//4
f 104//4 129//4 42//4
f 38//4 102//4 129//4
f 130//3 101//3 37//3
f 67//3 130//3 99//3
f 4//3 44//3 130//3
f 131//3 100//3 21//3
f 47//3 131//3 70//3
f 18//3 99//3 131//3
f 132//3 73//3 6//3
f 100//3 132//3 50//3
f 37//3 98//3 132//3
f 133//5 97//5 36//5
f 75//5 133//5 95//5
f 11//5 77//5 133//5
f 134//5 96//5 27//5
f 55//5 134//5 56//5
f 26//5 95//5 134//5
f 135//5 74//5 9//5
f 96//5 135//5 76//5
f 36//5 94//5 135//5
f 136//6 93//6 35//6
f 71//6 136//6 91//6
f 6//6 59//6 136//6
f 137//6 92//6 31//6
f 51//6 137//6 60//6
f 22//6 91//6 137//6
f 138//6 55//6 12//6
f 92//6 138//6 80//6
f 35//6 90//6 138//6
f 139//1 89//1 34//1
f 63//1 139//1 87//1
f 1//1 81//1 139//1
f 140//1 88//1 29//1
f 43//1 140//1 78//1
f 14//1 87//1 140//1
f 141//1 54//1 10//1
f 88//1 141//1 58//1
f 34//1 86//1 141//1
f 142//4 85//4 33//4
f 52//4 142//4 83//4
f 5//4 60//4 142//4
f 143//4 84//4 32//4
f 72//4 143//4 81//4
f 23//4 83//4 143//4
f 144//4 76//4 9//4
f 84//4 144//4 61//4
f 33//4 82//4 144//4
f 145//4 56//4 27//4
f 85//4 145//4 82//4
f 31//4 80//4 145//4
f 146//1 74//1 25//1
f 89//1 146//1 86//1
f 32//1 61//1 146//1
f 147//6 75//6 26//6
f 93//6 147//6 90//6
f 30//6 79//6 147//6
f 148//5 54//5 25//5
f 97//5 148//5 94//5
f 28//5 57//5 148//5
f 149//3 53//3 24//3
f 101//3 149//3 98//3
f 15//3 64//3 149//3
f 150//4 52//4 23//4
f 105//4 150//4 102//4
f 20//4 69//4 150//4
f 151//3 57//3 28//3
f 109//3 151//3 106//3
f 29//3 58//3 151//3
f 152//2 68//2 19//2
f 113//2 152//2 110//2
f 18//2 47//2 152//2
f 153//1 65//1 16//1
f 117//1 153//1 114//1
f 15//1 44//1 153//1
