# Blender v2.91.2 OBJ File: 'camionnete02.blend'
# www.blender.org
mtllib decor2.mtl
o Cube.038
v 20041.351562 -1863.535156 -7330.352051
v 20041.351562 343.537292 -7330.352051
v 21543.929688 -1863.535156 -7365.681152
v 21543.929688 343.537292 -7365.681152
v 20076.679688 -1863.535156 -5827.772949
v 20076.679688 343.537292 -5827.772949
v 21579.257812 -1863.535156 -5863.102051
v 21579.257812 343.537292 -5863.102051
v 13901.825195 -1863.535156 -7185.998047
v 13901.825195 343.537292 -7185.998047
v 13937.154297 343.537292 -5683.418945
v 13937.154297 -1863.535156 -5683.418945
vt 0.682029 0.401691
vt 0.682029 0.598309
vt 0.878647 0.598309
vt 0.878647 0.401691
vt 0.401691 0.401691
vt 0.401691 0.598309
vt 0.598309 0.598309
vt 0.598309 0.401691
vt 0.878647 0.401691
vt 0.878647 0.598309
vt 0.682029 0.598309
vt 0.682029 0.401691
vt 0.598309 0.682029
vt 0.401691 0.682029
vt 0.401691 -0.121353
vt 0.598309 -0.121353
vt 0.401691 0.878647
vt 0.598309 0.878647
vt 0.598309 0.682029
vt 0.401691 0.682029
vt 0.598309 0.878647
vt 0.401691 0.878647
vt 0.598309 0.401691
vt 0.598309 0.598309
vt 0.401691 0.598309
vt 0.401691 0.401691
vt -0.121353 0.598309
vt -0.121353 0.401691
vt -0.121353 0.401691
vt -0.121353 0.598309
vt 0.598309 -0.121353
vt 0.401691 -0.121353
vn -0.0235 0.0000 -0.9997
vn 0.9997 0.0000 -0.0235
vn 0.0235 0.0000 0.9997
vn 0.0000 1.0000 -0.0000
vn 0.0000 -1.0000 0.0000
vn -0.9997 0.0000 0.0235
usemtl Matériau.003
s off
f 1/1/1 2/2/1 4/3/1 3/4/1
f 3/5/2 4/6/2 8/7/2 7/8/2
f 7/9/3 8/10/3 6/11/3 5/12/3
f 6/13/4 2/14/4 10/15/4 11/16/4
f 3/17/5 7/18/5 5/19/5 1/20/5
f 8/21/4 4/22/4 2/14/4 6/13/4
f 12/23/6 11/24/6 10/25/6 9/26/6
f 5/12/3 6/11/3 11/27/3 12/28/3
f 2/2/1 1/1/1 9/29/1 10/30/1
f 1/20/5 5/19/5 12/31/5 9/32/5
o Cube.039
v 18261.769531 -2110.463135 -4383.313965
v 18261.769531 96.609436 -4383.313965
v 18261.769531 -2110.463135 -5886.308105
v 18261.769531 96.609436 -5886.308105
v 19764.765625 -2110.463135 -4383.313965
v 19764.765625 96.609436 -4383.313965
v 19764.765625 -2110.463135 -5886.308105
v 19764.765625 96.609436 -5886.308105
v 18261.769531 -2110.463135 1757.909180
v 18261.769531 96.609436 1757.909180
v 19764.765625 96.609436 1757.909180
v 19764.765625 -2110.463135 1757.909180
vt 0.682029 0.401691
vt 0.682029 0.598309
vt 0.878647 0.598309
vt 0.878647 0.401691
vt 0.401691 0.401691
vt 0.401691 0.598309
vt 0.598309 0.598309
vt 0.598309 0.401691
vt 0.878647 0.401691
vt 0.878647 0.598309
vt 0.682029 0.598309
vt 0.682029 0.401691
vt 0.598309 0.682029
vt 0.401691 0.682029
vt 0.401691 -0.121353
vt 0.598309 -0.121353
vt 0.401691 0.878647
vt 0.598309 0.878647
vt 0.598309 0.682029
vt 0.401691 0.682029
vt 0.598309 0.878647
vt 0.401691 0.878647
vt 0.598309 0.401691
vt 0.598309 0.598309
vt 0.401691 0.598309
vt 0.401691 0.401691
vt -0.121353 0.598309
vt -0.121353 0.401691
vt -0.121353 0.401691
vt -0.121353 0.598309
vt 0.598309 -0.121353
vt 0.401691 -0.121353
vn -1.0000 0.0000 0.0000
vn 0.0000 0.0000 -1.0000
vn 1.0000 0.0000 0.0000
vn 0.0000 1.0000 0.0000
vn 0.0000 -1.0000 0.0000
vn 0.0000 0.0000 1.0000
usemtl Matériau.003
s off
f 13/33/7 14/34/7 16/35/7 15/36/7
f 15/37/8 16/38/8 20/39/8 19/40/8
f 19/41/9 20/42/9 18/43/9 17/44/9
f 18/45/10 14/46/10 22/47/10 23/48/10
f 15/49/11 19/50/11 17/51/11 13/52/11
f 20/53/10 16/54/10 14/46/10 18/45/10
f 24/55/12 23/56/12 22/57/12 21/58/12
f 17/44/9 18/43/9 23/59/9 24/60/9
f 14/34/7 13/33/7 21/61/7 22/62/7
f 13/52/11 17/51/11 24/63/11 21/64/11
o Cube.040
v -19187.626953 -2110.463135 13816.772461
v -19187.626953 96.609436 13816.772461
v -19187.626953 -2110.463135 12313.778320
v -19187.626953 96.609436 12313.778320
v -17684.630859 -2110.463135 13816.772461
v -17684.630859 96.609436 13816.772461
v -17684.630859 -2110.463135 12313.778320
v -17684.630859 96.609436 12313.778320
v -19187.626953 -2110.463135 19957.996094
v -19187.626953 96.609436 19957.996094
v -17684.630859 96.609436 19957.996094
v -17684.630859 -2110.463135 19957.996094
vt 0.682029 0.401691
vt 0.682029 0.598309
vt 0.878647 0.598309
vt 0.878647 0.401691
vt 0.401691 0.401691
vt 0.401691 0.598309
vt 0.598309 0.598309
vt 0.598309 0.401691
vt 0.878647 0.401691
vt 0.878647 0.598309
vt 0.682029 0.598309
vt 0.682029 0.401691
vt 0.598309 0.682029
vt 0.401691 0.682029
vt 0.401691 -0.121353
vt 0.598309 -0.121353
vt 0.401691 0.878647
vt 0.598309 0.878647
vt 0.598309 0.682029
vt 0.401691 0.682029
vt 0.598309 0.878647
vt 0.401691 0.878647
vt 0.598309 0.401691
vt 0.598309 0.598309
vt 0.401691 0.598309
vt 0.401691 0.401691
vt -0.121353 0.598309
vt -0.121353 0.401691
vt -0.121353 0.401691
vt -0.121353 0.598309
vt 0.598309 -0.121353
vt 0.401691 -0.121353
vn -1.0000 0.0000 0.0000
vn 0.0000 0.0000 -1.0000
vn 1.0000 0.0000 0.0000
vn 0.0000 1.0000 0.0000
vn 0.0000 -1.0000 0.0000
vn 0.0000 0.0000 1.0000
usemtl Matériau.003
s off
f 25/65/13 26/66/13 28/67/13 27/68/13
f 27/69/14 28/70/14 32/71/14 31/72/14
f 31/73/15 32/74/15 30/75/15 29/76/15
f 30/77/16 26/78/16 34/79/16 35/80/16
f 27/81/17 31/82/17 29/83/17 25/84/17
f 32/85/16 28/86/16 26/78/16 30/77/16
f 36/87/18 35/88/18 34/89/18 33/90/18
f 29/76/15 30/75/15 35/91/15 36/92/15
f 26/66/13 25/65/13 33/93/13 34/94/13
f 25/84/17 29/83/17 36/95/17 33/96/17
o Cube.041
v -19187.626953 -2110.463135 5573.135742
v -19187.626953 96.609436 5573.135742
v -19187.626953 -2110.463135 4070.141602
v -19187.626953 96.609436 4070.141602
v -17684.630859 -2110.463135 5573.135742
v -17684.630859 96.609436 5573.135742
v -17684.630859 -2110.463135 4070.141602
v -17684.630859 96.609436 4070.141602
v -19187.626953 -2110.463135 11714.359375
v -19187.626953 96.609436 11714.359375
v -17684.630859 96.609436 11714.359375
v -17684.630859 -2110.463135 11714.359375
vt 0.682029 0.401691
vt 0.682029 0.598309
vt 0.878647 0.598309
vt 0.878647 0.401691
vt 0.401691 0.401691
vt 0.401691 0.598309
vt 0.598309 0.598309
vt 0.598309 0.401691
vt 0.878647 0.401691
vt 0.878647 0.598309
vt 0.682029 0.598309
vt 0.682029 0.401691
vt 0.598309 0.682029
vt 0.401691 0.682029
vt 0.401691 -0.121353
vt 0.598309 -0.121353
vt 0.401691 0.878647
vt 0.598309 0.878647
vt 0.598309 0.682029
vt 0.401691 0.682029
vt 0.598309 0.878647
vt 0.401691 0.878647
vt 0.598309 0.401691
vt 0.598309 0.598309
vt 0.401691 0.598309
vt 0.401691 0.401691
vt -0.121353 0.598309
vt -0.121353 0.401691
vt -0.121353 0.401691
vt -0.121353 0.598309
vt 0.598309 -0.121353
vt 0.401691 -0.121353
vn -1.0000 0.0000 0.0000
vn 0.0000 0.0000 -1.0000
vn 1.0000 0.0000 0.0000
vn 0.0000 1.0000 0.0000
vn 0.0000 -1.0000 0.0000
vn 0.0000 0.0000 1.0000
usemtl Matériau.003
s off
f 37/97/19 38/98/19 40/99/19 39/100/19
f 39/101/20 40/102/20 44/103/20 43/104/20
f 43/105/21 44/106/21 42/107/21 41/108/21
f 42/109/22 38/110/22 46/111/22 47/112/22
f 39/113/23 43/114/23 41/115/23 37/116/23
f 44/117/22 40/118/22 38/110/22 42/109/22
f 48/119/24 47/120/24 46/121/24 45/122/24
f 41/108/21 42/107/21 47/123/21 48/124/21
f 38/98/19 37/97/19 45/125/19 46/126/19
f 37/116/23 41/115/23 48/127/23 45/128/23
o Cube.042
v -19187.626953 -2110.463135 -3173.628418
v -19187.626953 96.609436 -3173.628418
v -19187.626953 -2110.463135 -4676.622559
v -19187.626953 96.609436 -4676.622559
v -17684.630859 -2110.463135 -3173.628418
v -17684.630859 96.609436 -3173.628418
v -17684.630859 -2110.463135 -4676.622559
v -17684.630859 96.609436 -4676.622559
v -19187.626953 -2110.463135 2967.594727
v -19187.626953 96.609436 2967.594727
v -17684.630859 96.609436 2967.594727
v -17684.630859 -2110.463135 2967.594727
vt 0.682029 0.401691
vt 0.682029 0.598309
vt 0.878647 0.598309
vt 0.878647 0.401691
vt 0.401691 0.401691
vt 0.401691 0.598309
vt 0.598309 0.598309
vt 0.598309 0.401691
vt 0.878647 0.401691
vt 0.878647 0.598309
vt 0.682029 0.598309
vt 0.682029 0.401691
vt 0.598309 0.682029
vt 0.401691 0.682029
vt 0.401691 -0.121353
vt 0.598309 -0.121353
vt 0.401691 0.878647
vt 0.598309 0.878647
vt 0.598309 0.682029
vt 0.401691 0.682029
vt 0.598309 0.878647
vt 0.401691 0.878647
vt 0.598309 0.401691
vt 0.598309 0.598309
vt 0.401691 0.598309
vt 0.401691 0.401691
vt -0.121353 0.598309
vt -0.121353 0.401691
vt -0.121353 0.401691
vt -0.121353 0.598309
vt 0.598309 -0.121353
vt 0.401691 -0.121353
vn -1.0000 0.0000 0.0000
vn 0.0000 0.0000 -1.0000
vn 1.0000 0.0000 0.0000
vn 0.0000 1.0000 0.0000
vn 0.0000 -1.0000 0.0000
vn 0.0000 0.0000 1.0000
usemtl Matériau.003
s off
f 49/129/25 50/130/25 52/131/25 51/132/25
f 51/133/26 52/134/26 56/135/26 55/136/26
f 55/137/27 56/138/27 54/139/27 53/140/27
f 54/141/28 50/142/28 58/143/28 59/144/28
f 51/145/29 55/146/29 53/147/29 49/148/29
f 56/149/28 52/150/28 50/142/28 54/141/28
f 60/151/30 59/152/30 58/153/30 57/154/30
f 53/140/27 54/139/27 59/155/27 60/156/27
f 50/130/25 49/129/25 57/157/25 58/158/25
f 49/148/29 53/147/29 60/159/29 57/160/29
o Cube.047_Cube.022
v -511.834686 -1302.526855 1563.777710
v -511.834686 -1109.585693 1563.777710
v -704.768188 -1302.526855 1560.955444
v -704.768188 -1109.585693 1560.955444
v -508.230377 -1302.526855 1317.380981
v -508.230377 -1109.585693 1317.380981
v -701.163879 -1302.526855 1314.558838
v -701.163879 -1109.585693 1314.558838
v -511.834686 328.222656 1563.777710
v -704.768188 328.222656 1560.955444
v -701.163879 328.222656 1314.558838
v -508.230377 328.222656 1317.380981
v -692.080566 -1109.585693 693.609192
v -692.080566 -1302.526855 693.609192
v -499.147064 -1302.526855 696.431458
v -499.147064 -1109.585693 696.431458
v -692.080566 328.222656 693.609192
v -499.147064 328.222656 696.431458
v -708.985840 -1302.526855 1849.279907
v -516.052307 -1302.526855 1852.102173
v -516.052307 -1109.585693 1852.102173
v -708.985840 -1109.585693 1849.279907
v -516.052307 328.222656 1852.102173
v -708.985840 328.222656 1849.279907
vt 0.427365 0.570059
vt 0.427365 0.312126
vt 0.125540 0.312126
vt 0.125540 0.570059
vt 0.327329 -0.072311
vt 0.327329 0.060586
vt 0.460227 0.060586
vt 0.460227 -0.072311
vt 0.795145 0.060586
vt 0.795145 -0.072311
vt 0.482783 0.004352
vt 0.482783 0.123510
vt 0.363625 0.123510
vt 0.363625 0.004352
vt 0.685299 0.570059
vt 0.685299 0.312126
vt 0.482783 1.011488
vt 0.783078 0.123510
vt 0.783078 1.011488
vt 0.685299 0.570059
vt 0.427365 0.570059
vt 0.427365 0.312126
vt 0.685299 0.312126
vt 0.327329 1.050946
vt 0.171817 0.060586
vt 0.171817 1.050946
vt 0.363625 1.011488
vt 0.460227 1.050946
vt 0.659971 0.029117
vt 0.659971 0.287050
vt 0.402037 0.287050
vt 0.402037 0.029117
vt 0.659971 1.029117
vt 0.402037 1.029117
vt 0.783078 0.004352
vt 0.875681 0.570059
vt 0.875681 0.312126
vt 0.795145 1.050946
vt 0.875681 0.312126
vt 0.875681 0.570059
vt 0.402037 0.029117
vt 0.402037 0.287050
vt 0.659971 0.287050
vt 0.659971 0.029117
vt 0.402037 1.029117
vt 0.659971 1.029117
vt 0.224189 1.011488
vt 0.224189 0.123510
vt 0.171817 -0.072311
vt 0.224189 0.004352
vt 0.125540 0.570059
vt 0.125540 0.312126
vn 0.0000 -1.0000 0.0000
vn -0.9999 0.0000 -0.0146
vn 0.9999 0.0000 0.0146
vn 0.0000 1.0000 -0.0000
vn 0.0146 0.0000 -0.9999
vn -0.0146 0.0000 0.9999
usemtl Matériau.006
s off
f 63/161/31 61/162/31 80/163/31 79/164/31
f 63/165/32 64/166/32 68/167/32 67/168/32
f 67/168/32 68/167/32 73/169/32 74/170/32
f 65/171/33 66/172/33 62/173/33 61/174/33
f 63/161/31 67/175/31 65/176/31 61/162/31
f 72/177/33 66/172/33 76/178/33 78/179/33
f 71/180/34 70/181/34 69/182/34 72/183/34
f 70/184/32 64/166/32 82/185/32 84/186/32
f 62/173/33 66/172/33 72/177/33 69/187/33
f 68/167/32 64/166/32 70/184/32 71/188/32
f 74/189/35 73/190/35 76/191/35 75/192/35
f 76/191/35 73/190/35 77/193/35 78/194/35
f 66/172/33 65/171/33 75/195/33 76/178/33
f 65/176/31 67/175/31 74/196/31 75/197/31
f 68/167/32 71/188/32 77/198/32 73/169/32
f 71/180/34 72/183/34 78/199/34 77/200/34
f 80/201/36 81/202/36 82/203/36 79/204/36
f 82/203/36 81/202/36 83/205/36 84/206/36
f 62/173/33 69/187/33 83/207/33 81/208/33
f 64/166/32 63/165/32 79/209/32 82/185/32
f 61/174/33 62/173/33 81/208/33 80/210/33
f 69/182/34 70/181/34 84/211/34 83/212/34
o Cube.045_Cube.078
v 9325.241211 -2110.463135 605.927795
v 9325.241211 96.609436 605.927795
v 9325.241211 -2110.463135 -897.066467
v 9325.241211 96.609436 -897.066467
v 10828.235352 -2110.463135 605.927795
v 10828.235352 96.609436 605.927795
v 10828.235352 -2110.463135 -897.066467
v 10828.235352 96.609436 -897.066467
v 9325.241211 -2110.463135 6747.150879
v 9325.241211 96.609436 6747.150879
v 10828.235352 96.609436 6747.150879
v 10828.235352 -2110.463135 6747.150879
vt 0.682029 0.401691
vt 0.682029 0.598309
vt 0.878647 0.598309
vt 0.878647 0.401691
vt 0.401691 0.401691
vt 0.401691 0.598309
vt 0.598309 0.598309
vt 0.598309 0.401691
vt 0.878647 0.401691
vt 0.878647 0.598309
vt 0.682029 0.598309
vt 0.682029 0.401691
vt 0.598309 0.682029
vt 0.401691 0.682029
vt 0.401691 -0.121353
vt 0.598309 -0.121353
vt 0.401691 0.878647
vt 0.598309 0.878647
vt 0.598309 0.682029
vt 0.401691 0.682029
vt 0.598309 0.878647
vt 0.401691 0.878647
vt 0.598309 0.401691
vt 0.598309 0.598309
vt 0.401691 0.598309
vt 0.401691 0.401691
vt -0.121353 0.598309
vt -0.121353 0.401691
vt -0.121353 0.401691
vt -0.121353 0.598309
vt 0.598309 -0.121353
vt 0.401691 -0.121353
vn -1.0000 0.0000 0.0000
vn 0.0000 0.0000 -1.0000
vn 1.0000 0.0000 0.0000
vn 0.0000 1.0000 0.0000
vn 0.0000 -1.0000 0.0000
vn 0.0000 0.0000 1.0000
usemtl Matériau.003
s off
f 85/213/37 86/214/37 88/215/37 87/216/37
f 87/217/38 88/218/38 92/219/38 91/220/38
f 91/221/39 92/222/39 90/223/39 89/224/39
f 90/225/40 86/226/40 94/227/40 95/228/40
f 87/229/41 91/230/41 89/231/41 85/232/41
f 92/233/40 88/234/40 86/226/40 90/225/40
f 96/235/42 95/236/42 94/237/42 93/238/42
f 89/224/39 90/223/39 95/239/39 96/240/39
f 86/214/37 85/213/37 93/241/37 94/242/37
f 85/232/41 89/231/41 96/243/41 93/244/41
