# Blender v2.91.2 OBJ File: 'arbres.blend'
# www.blender.org
mtllib singes.mtl
o Cylindre
v 0.000000 -1.000000 1.119649
v 0.000000 1.000000 1.119649
v 0.195090 -1.000000 1.138863
v 0.195090 1.000000 1.138863
v 0.382683 -1.000000 1.195769
v 0.382683 1.000000 1.195769
v 0.555570 -1.000000 1.288179
v 0.555570 1.000000 1.288179
v 0.707107 -1.000000 1.412542
v 0.707107 1.000000 1.412542
v 0.831470 -1.000000 1.564079
v 0.831470 1.000000 1.564079
v 0.923880 -1.000000 1.736965
v 0.923880 1.000000 1.736965
v 0.980785 -1.000000 1.924558
v 0.980785 1.000000 1.924558
v 1.000000 -1.000000 2.119649
v 1.000000 1.000000 2.119649
v 0.980785 -1.000000 2.314739
v 0.980785 1.000000 2.314739
v 0.923880 -1.000000 2.502332
v 0.923880 1.000000 2.502332
v 0.831470 -1.000000 2.675219
v 0.831470 1.000000 2.675219
v 0.707107 -1.000000 2.826756
v 0.707107 1.000000 2.826756
v 0.555570 -1.000000 2.951118
v 0.555570 1.000000 2.951118
v 0.382683 -1.000000 3.043528
v 0.382683 1.000000 3.043528
v 0.195090 -1.000000 3.100434
v 0.195090 1.000000 3.100434
v -0.000000 -1.000000 3.119649
v -0.000000 1.000000 3.119649
v -0.195091 -1.000000 3.100434
v -0.195091 1.000000 3.100434
v -0.382684 -1.000000 3.043528
v -0.382684 1.000000 3.043528
v -0.555571 -1.000000 2.951118
v -0.555571 1.000000 2.951118
v -0.707107 -1.000000 2.826755
v -0.707107 1.000000 2.826755
v -0.831470 -1.000000 2.675218
v -0.831470 1.000000 2.675218
v -0.923880 -1.000000 2.502331
v -0.923880 1.000000 2.502331
v -0.980785 -1.000000 2.314738
v -0.980785 1.000000 2.314738
v -1.000000 -1.000000 2.119648
v -1.000000 1.000000 2.119648
v -0.980785 -1.000000 1.924557
v -0.980785 1.000000 1.924557
v -0.923879 -1.000000 1.736964
v -0.923879 1.000000 1.736964
v -0.831469 -1.000000 1.564077
v -0.831469 1.000000 1.564077
v -0.707106 -1.000000 1.412541
v -0.707106 1.000000 1.412541
v -0.555569 -1.000000 1.288178
v -0.555569 1.000000 1.288178
v -0.382682 -1.000000 1.195769
v -0.382682 1.000000 1.195769
v -0.195089 -1.000000 1.138863
v -0.195089 1.000000 1.138863
v 0.195090 4.138187 1.138863
v -0.000000 4.138187 1.119649
v 0.382683 4.138187 1.195769
v 0.555570 4.138187 1.288179
v 0.707107 4.138187 1.412542
v 0.831469 4.138187 1.564079
v 0.923879 4.138187 1.736965
v 0.980785 4.138187 1.924558
v 1.000000 4.138187 2.119649
v 0.980785 4.138187 2.314739
v 0.923879 4.138187 2.502332
v 0.831469 4.138187 2.675219
v 0.707107 4.138187 2.826756
v 0.555570 4.138187 2.951118
v 0.382683 4.138187 3.043528
v 0.195090 4.138187 3.100434
v -0.000001 4.138187 3.119649
v -0.195091 4.138187 3.100434
v -0.382684 4.138187 3.043528
v -0.555571 4.138187 2.951118
v -0.707107 4.138187 2.826755
v -0.831470 4.138187 2.675218
v -0.923880 4.138187 2.502331
v -0.980786 4.138187 2.314738
v -1.000000 4.138187 2.119648
v -0.980785 4.138187 1.924557
v -0.923879 4.138187 1.736964
v -0.831469 4.138187 1.564077
v -0.707106 4.138187 1.412541
v -0.555569 4.138187 1.288178
v -0.382682 4.138187 1.195769
v -0.195089 4.138187 1.138863
vn 0.0980 0.0000 -0.9952
vn 0.2903 0.0000 -0.9569
vn 0.4714 0.0000 -0.8819
vn 0.6344 0.0000 -0.7730
vn 0.7730 0.0000 -0.6344
vn 0.8819 0.0000 -0.4714
vn 0.9569 0.0000 -0.2903
vn 0.9952 0.0000 -0.0980
vn 0.9952 0.0000 0.0980
vn 0.9569 0.0000 0.2903
vn 0.8819 0.0000 0.4714
vn 0.7730 0.0000 0.6344
vn 0.6344 0.0000 0.7730
vn 0.4714 0.0000 0.8819
vn 0.2903 0.0000 0.9569
vn 0.0980 0.0000 0.9952
vn -0.0980 0.0000 0.9952
vn -0.2903 0.0000 0.9569
vn -0.4714 0.0000 0.8819
vn -0.6344 0.0000 0.7730
vn -0.7730 0.0000 0.6344
vn -0.8819 0.0000 0.4714
vn -0.9569 0.0000 0.2903
vn -0.9952 0.0000 0.0980
vn -0.9952 0.0000 -0.0980
vn -0.9569 0.0000 -0.2903
vn -0.8819 0.0000 -0.4714
vn -0.7730 0.0000 -0.6344
vn -0.6344 0.0000 -0.7730
vn -0.4714 0.0000 -0.8819
vn -0.2903 0.0000 -0.9569
vn -0.0980 0.0000 -0.9952
vn 0.0000 -1.0000 -0.0000
vn 0.0000 1.0000 -0.0000
usemtl Matériau.006
s off
f 1//1 2//1 4//1 3//1
f 3//2 4//2 6//2 5//2
f 5//3 6//3 8//3 7//3
f 7//4 8//4 10//4 9//4
f 9//5 10//5 12//5 11//5
f 11//6 12//6 14//6 13//6
f 13//7 14//7 16//7 15//7
f 15//8 16//8 18//8 17//8
f 17//9 18//9 20//9 19//9
f 19//10 20//10 22//10 21//10
f 21//11 22//11 24//11 23//11
f 23//12 24//12 26//12 25//12
f 25//13 26//13 28//13 27//13
f 27//14 28//14 30//14 29//14
f 29//15 30//15 32//15 31//15
f 31//16 32//16 34//16 33//16
f 33//17 34//17 36//17 35//17
f 35//18 36//18 38//18 37//18
f 37//19 38//19 40//19 39//19
f 39//20 40//20 42//20 41//20
f 41//21 42//21 44//21 43//21
f 43//22 44//22 46//22 45//22
f 45//23 46//23 48//23 47//23
f 47//24 48//24 50//24 49//24
f 49//25 50//25 52//25 51//25
f 51//26 52//26 54//26 53//26
f 53//27 54//27 56//27 55//27
f 55//28 56//28 58//28 57//28
f 57//29 58//29 60//29 59//29
f 59//30 60//30 62//30 61//30
f 34//16 32//16 80//16 81//16
f 61//31 62//31 64//31 63//31
f 63//32 64//32 2//32 1//32
f 1//33 3//33 5//33 7//33 9//33 11//33 13//33 15//33 17//33 19//33 21//33 23//33 25//33 27//33 29//33 31//33 33//33 35//33 37//33 39//33 41//33 43//33 45//33 47//33 49//33 51//33 53//33 55//33 57//33 59//33 61//33 63//33
f 65//34 66//34 96//34 95//34 94//34 93//34 92//34 91//34 90//34 89//34 88//34 87//34 86//34 85//34 84//34 83//34 82//34 81//34 80//34 79//34 78//34 77//34 76//34 75//34 74//34 73//34 72//34 71//34 70//34 69//34 68//34 67//34
f 52//25 50//25 89//25 90//25
f 8//3 6//3 67//3 68//3
f 26//12 24//12 76//12 77//12
f 44//21 42//21 85//21 86//21
f 62//30 60//30 94//30 95//30
f 18//8 16//8 72//8 73//8
f 36//17 34//17 81//17 82//17
f 54//26 52//26 90//26 91//26
f 10//4 8//4 68//4 69//4
f 28//13 26//13 77//13 78//13
f 46//22 44//22 86//22 87//22
f 64//31 62//31 95//31 96//31
f 20//9 18//9 73//9 74//9
f 38//18 36//18 82//18 83//18
f 56//27 54//27 91//27 92//27
f 12//5 10//5 69//5 70//5
f 30//14 28//14 78//14 79//14
f 48//23 46//23 87//23 88//23
f 4//1 2//1 66//1 65//1
f 2//32 64//32 96//32 66//32
f 22//10 20//10 74//10 75//10
f 40//19 38//19 83//19 84//19
f 58//28 56//28 92//28 93//28
f 14//6 12//6 70//6 71//6
f 32//15 30//15 79//15 80//15
f 50//24 48//24 88//24 89//24
f 6//2 4//2 65//2 67//2
f 24//11 22//11 75//11 76//11
f 42//20 40//20 84//20 85//20
f 60//29 58//29 93//29 94//29
f 16//7 14//7 71//7 72//7
