# Blender v2.91.2 OBJ File: 'arbres.blend'
# www.blender.org
mtllib triangles.mtl
o Cône
v 0.000000 -0.737808 -5.167830
v 0.285689 -0.737808 -5.139692
v 0.560399 -0.737808 -5.056359
v 0.813574 -0.737808 -4.921035
v 1.035483 -0.737808 -4.738919
v 1.217599 -0.737808 -4.517010
v 1.352924 -0.737808 -4.263835
v 1.436256 -0.737808 -3.989125
v 1.464394 -0.737808 -3.703436
v 1.436256 -0.737808 -3.417747
v 1.352924 -0.737808 -3.143036
v 1.217599 -0.737808 -2.889862
v 1.035483 -0.737808 -2.667953
v 0.813574 -0.737808 -2.485836
v 0.560399 -0.737808 -2.350512
v 0.285689 -0.737808 -2.267179
v -0.000000 -0.737808 -2.239041
v -0.285690 -0.737808 -2.267179
v -0.560400 -0.737808 -2.350512
v -0.813575 -0.737808 -2.485837
v -1.035484 -0.737808 -2.667953
v -1.217600 -0.737808 -2.889863
v -1.352924 -0.737808 -3.143037
v -1.436257 -0.737808 -3.417748
v -1.464394 -0.737808 -3.703437
v -1.436256 -0.737808 -3.989126
v -1.352923 -0.737808 -4.263837
v -1.217598 -0.737808 -4.517011
v -1.035482 -0.737808 -4.738920
v -0.813572 -0.737808 -4.921036
v -0.560397 -0.737808 -5.056360
v -0.285687 -0.737808 -5.139692
v 0.000000 2.190980 -3.703436
vn 0.0878 0.4455 -0.8910
vn 0.2599 0.4455 -0.8567
vn 0.4220 0.4455 -0.7896
vn 0.5680 0.4455 -0.6921
vn 0.6921 0.4455 -0.5680
vn 0.7896 0.4455 -0.4220
vn 0.8567 0.4455 -0.2599
vn 0.8910 0.4455 -0.0878
vn 0.8910 0.4455 0.0878
vn 0.8567 0.4455 0.2599
vn 0.7896 0.4455 0.4220
vn 0.6921 0.4455 0.5680
vn 0.5680 0.4455 0.6921
vn 0.4220 0.4455 0.7896
vn 0.2599 0.4455 0.8567
vn 0.0878 0.4455 0.8910
vn -0.0878 0.4455 0.8910
vn -0.2599 0.4455 0.8567
vn -0.4220 0.4455 0.7896
vn -0.5680 0.4455 0.6921
vn -0.6921 0.4455 0.5680
vn -0.7896 0.4455 0.4220
vn -0.8567 0.4455 0.2599
vn -0.8910 0.4455 0.0878
vn -0.8910 0.4455 -0.0878
vn -0.8567 0.4455 -0.2599
vn -0.7896 0.4455 -0.4220
vn -0.6921 0.4455 -0.5680
vn -0.5680 0.4455 -0.6921
vn -0.4220 0.4455 -0.7896
vn 0.0000 -1.0000 -0.0000
vn -0.2599 0.4455 -0.8567
vn -0.0878 0.4455 -0.8910
usemtl Matériau.003
s off
f 1//1 33//1 2//1
f 2//2 33//2 3//2
f 3//3 33//3 4//3
f 4//4 33//4 5//4
f 5//5 33//5 6//5
f 6//6 33//6 7//6
f 7//7 33//7 8//7
f 8//8 33//8 9//8
f 9//9 33//9 10//9
f 10//10 33//10 11//10
f 11//11 33//11 12//11
f 12//12 33//12 13//12
f 13//13 33//13 14//13
f 14//14 33//14 15//14
f 15//15 33//15 16//15
f 16//16 33//16 17//16
f 17//17 33//17 18//17
f 18//18 33//18 19//18
f 19//19 33//19 20//19
f 20//20 33//20 21//20
f 21//21 33//21 22//21
f 22//22 33//22 23//22
f 23//23 33//23 24//23
f 24//24 33//24 25//24
f 25//25 33//25 26//25
f 26//26 33//26 27//26
f 27//27 33//27 28//27
f 28//28 33//28 29//28
f 29//29 33//29 30//29
f 30//30 33//30 31//30
f 1//31 2//31 3//31 4//31 5//31 6//31 7//31 8//31 9//31 10//31 11//31 12//31 13//31 14//31 15//31 16//31 17//31 18//31 19//31 20//31 21//31 22//31 23//31 24//31 25//31 26//31 27//31 28//31 29//31 30//31 31//31 32//31
f 31//32 33//32 32//32
f 32//33 33//33 1//33
